<svg height="367.7" viewBox="0 0 420.5 275.7" width="560.6" xmlns="http://www.w3.org/2000/svg" xmlns:xlink="http://www.w3.org/1999/xlink"><defs><style>*{stroke-linecap:butt;stroke-linejoin:round}</style></defs><g id="figure_1"><path d="M0 275.7h420.5V0H0z" fill="#fff" id="patch_1"/><g id="axes_1"><path d="M13.2 95.3h183.2V7.2H13.2z" fill="#eaeaf2" id="patch_2"/><g id="matplotlib.axis_1"><g id="xtick_1"><path clip-path="url(#p9638889eb3)" d="M49 95.3V7.2" fill="none" stroke="#fff" stroke-linecap="round" id="line2d_1"/><g id="text_1"><defs><path d="M12.4 8.3h16.1v55.6L11 60.4v9l17.4 3.5h9.9V8.3h16V0H12.5z" id="DejaVuSans-49"/><path d="M10.7 12.4H21V0H10.7z" id="DejaVuSans-46"/><path d="M31.8 34.6q-7 0-11-3.7-4.1-3.8-4.1-10.4 0-6.6 4-10.3 4-3.8 11-3.8 7.1 0 11.2 3.8 4 3.8 4 10.3 0 6.6-4 10.4-4 3.7-11.1 3.7zm-9.9 4.2q-6.3 1.6-9.9 6Q8.5 49 8.5 55.2q0 8.8 6.2 13.8 6.3 5.1 17 5.1 11 0 17.2-5Q55 64 55 55.2q0-6.2-3.6-10.6-3.5-4.3-9.8-5.9 7.1-1.6 11.1-6.5 4-4.8 4-11.8 0-10.6-6.5-16.3-6.5-5.6-18.5-5.6T13.2 4.2Q6.8 10 6.8 20.5q0 7 4 11.8 4 4.9 11.1 6.5zm-3.6 15.6q0-5.7 3.5-8.8 3.6-3.2 10-3.2 6.3 0 10 3.2 3.5 3.1 3.5 8.8 0 5.7-3.6 8.8-3.6 3.2-10 3.2-6.3 0-9.9-3.2-3.5-3.1-3.5-8.8z" id="DejaVuSans-56"/></defs><g transform="matrix(.11 0 0 -.11 40.2 113.1)" fill="#262626"><use xlink:href="#DejaVuSans-49"/><use x="63.6" xlink:href="#DejaVuSans-46"/><use x="95.4" xlink:href="#DejaVuSans-56"/></g></g></g><g id="xtick_2"><path clip-path="url(#p9638889eb3)" d="M108.4 95.3V7.2" fill="none" stroke="#fff" stroke-linecap="round" id="line2d_2"/><g id="text_2"><defs><path d="M19.2 8.3h34.4V0H7.3v8.3l15.3 15.6q9.7 9.8 12.2 12.6 4.7 5.3 6.6 9 2 3.7 2 7.3 0 5.8-4.2 9.5-4 3.6-10.6 3.6-4.6 0-9.8-1.6-5.1-1.6-11-4.9v10q6 2.4 11.1 3.6 5.2 1.2 9.5 1.2 11.4 0 18-5.7 6.8-5.6 6.8-15 0-4.6-1.7-8.6-1.6-4-6-9.5l-7.9-8.2L19.2 8.3z" id="DejaVuSans-50"/><path d="M31.8 66.4q-7.6 0-11.5-7.5-3.8-7.5-3.8-22.5t3.8-22.5q3.9-7.5 11.5-7.5 7.7 0 11.5 7.5T47 36.4q0 15-3.8 22.5t-11.5 7.5zm0 7.8q12.2 0 18.7-9.7T57 36.4Q57 18 50.5 8.3 44-1.4 31.8-1.4 19.5-1.4 13 8.3q-6.5 9.7-6.5 28 0 18.5 6.5 28.2 6.4 9.7 18.7 9.7z" id="DejaVuSans-48"/></defs><g transform="matrix(.11 0 0 -.11 99.6 113.1)" fill="#262626"><use xlink:href="#DejaVuSans-50"/><use x="63.6" xlink:href="#DejaVuSans-46"/><use x="95.4" xlink:href="#DejaVuSans-48"/></g></g></g><g id="xtick_3"><path clip-path="url(#p9638889eb3)" d="M167.8 95.3V7.2" fill="none" stroke="#fff" stroke-linecap="round" id="line2d_3"/><g transform="matrix(.11 0 0 -.11 159 113.1)" fill="#262626" id="text_3"><use xlink:href="#DejaVuSans-50"/><use x="63.6" xlink:href="#DejaVuSans-46"/><use x="95.4" xlink:href="#DejaVuSans-50"/></g></g><g id="text_4"><defs><path d="M9.8 73h14.7l18.6-49.7 18.7 49.6h14.7V0H67v64L48 14H38L19.5 64V0H9.8z" id="DejaVuSans-77"/><path d="M56.2 29.6v-4.4H14.9q.6-9.3 5.6-14.1 5-4.9 14-4.9 5 0 10 1.3 4.8 1.2 9.6 3.8V2.8q-4.8-2-10-3.1-5-1.1-10.2-1.1-13.1 0-20.7 7.6-7.7 7.6-7.7 20.6 0 13.4 7.3 21.3Q20 56 32.3 56q11 0 17.5-7.1 6.4-7.1 6.4-19.3zm-9 2.6q0 7.4-4.1 11.8-4 4.4-10.7 4.4-7.5 0-12-4.3-4.5-4.2-5.2-12z" id="DejaVuSans-101"/><path d="M34.3 27.5q-11 0-15.1-2.5-4.2-2.5-4.2-8.5 0-4.8 3.1-7.6 3.2-2.8 8.6-2.8 7.5 0 12 5.3t4.5 14v2zm17.9 3.7V0h-9v8.3q-3-5-7.7-7.3Q31-1.4 24.3-1.4 16-1.4 11 3.3 6 8 6 15.9q0 9.2 6.2 14 6.2 4.6 18.4 4.6h12.6v1q0 6.1-4 9.5-4.1 3.4-11.5 3.4-4.7 0-9.2-1.1-4.4-1.2-8.5-3.4v8.3q5 2 9.6 2.8 4.6 1 9 1 11.9 0 17.7-6.2 5.9-6.1 5.9-18.6z" id="DejaVuSans-97"/><path d="M54.9 33V0h-9v32.7q0 7.8-3 11.6-3 3.9-9.1 3.9-7.3 0-11.5-4.7Q18.1 39 18.1 31V0h-9v54.7h9v-8.5q3.2 5 7.6 7.4Q30.1 56 35.8 56q9.4 0 14.2-5.8Q55 44.3 55 33z" id="DejaVuSans-110"/><path d="M4.2 54.7h9L24.4 12l11.2 42.7h10.6L57.4 12l11.2 42.7h9L63.3 0H52.7L40.9 44.8 29.1 0H18.5z" id="DejaVuSans-119"/><path d="M9.4 54.7h9V0h-9zm0 21.3h9V64.6h-9z" id="DejaVuSans-105"/><path d="M45.4 28q0 9.8-4 15.1-4 5.4-11.3 5.4-7.2 0-11.3-5.4-4-5.4-4-15.1t4-15.1q4-5.4 11.3-5.4 7.3 0 11.3 5.4 4 5.4 4 15zm9-21.2q0-14-6.2-20.8-6.2-6.8-19-6.8-4.7 0-9 .7-4.1.7-8 2.2v8.7q3.9-2.1 7.7-3.1 3.9-1 7.9-1 8.8 0 13.2 4.5 4.4 4.6 4.4 14v4.4q-2.8-4.8-7.1-7.2Q33.9 0 27.9 0q-10 0-16.2 7.7Q5.5 15.3 5.5 28q0 12.7 6.2 20.3Q17.8 56 27.9 56q6 0 10.4-2.4 4.3-2.4 7.1-7.2v8.3h9z" id="DejaVuSans-103"/><path d="M54.9 33V0h-9v32.7q0 7.8-3 11.6-3 3.9-9.1 3.9-7.3 0-11.5-4.7Q18.1 39 18.1 31V0h-9v76h9V46.2q3.2 5 7.6 7.4Q30.1 56 35.8 56q9.4 0 14.2-5.8Q55 44.3 55 33z" id="DejaVuSans-104"/><path d="M18.3 70.2V54.7h18.5v-7H18.3V18q0-6.7 1.8-8.6 1.9-1.9 7.5-1.9h9.2V0h-9.2Q17.2 0 13.2 3.9T9.2 18v29.7H2.8v7h6.6v15.5z" id="DejaVuSans-116"/><path d="M44.3 53v-8.4q-3.8 2-8 2.9-4 1-8.4 1-6.7 0-10-2-3.4-2.1-3.4-6.2 0-3.1 2.4-5 2.4-1.7 9.6-3.3l3-.7q9.7-2 13.7-5.8 4-3.7 4-10.4 0-7.6-6-12-6-4.5-16.6-4.5-4.4 0-9.1.8-4.8.9-10 2.6v9.3q5-2.6 9.7-4 4.9-1.2 9.6-1.2 6.4 0 9.8 2.2 3.4 2.2 3.4 6.1 0 3.7-2.5 5.6-2.4 2-10.8 3.8l-3.1.7q-8.4 1.8-12 5.4-3.8 3.6-3.8 10 0 7.7 5.5 11.9Q16.7 56 26.8 56q5 0 9.4-.7 4.4-.8 8-2.2z" id="DejaVuSans-115"/></defs><g transform="matrix(.12 0 0 -.12 63.2 128.5)" fill="#262626"><use xlink:href="#DejaVuSans-77"/><use x="86.3" xlink:href="#DejaVuSans-101"/><use x="147.8" xlink:href="#DejaVuSans-97"/><use x="209.1" xlink:href="#DejaVuSans-110"/><use x="272.5" xlink:href="#DejaVuSans-32"/><use x="304.2" xlink:href="#DejaVuSans-119"/><use x="386" xlink:href="#DejaVuSans-101"/><use x="447.6" xlink:href="#DejaVuSans-105"/><use x="475.3" xlink:href="#DejaVuSans-103"/><use x="538.8" xlink:href="#DejaVuSans-104"/><use x="602.2" xlink:href="#DejaVuSans-116"/><use x="641.4" xlink:href="#DejaVuSans-115"/></g></g></g><path clip-path="url(#p9638889eb3)" d="M21.5 91.3H33.8l.2-.1H38.7l.2-.1h2.2l.3-.1H42.8l.2-.1h1.1l.3-.1h.8l.3-.1h.5l.3-.1h.5l.3-.1h.3l.3-.1h.5l.3-.1h.2l.3-.1h.3l.3-.1h.2l.3-.1h.3l.3-.2h.5l.3-.2h.2l.3-.1h.3l.3-.2h.2l.3-.1.3-.1.2-.1.3-.1.3-.1.3-.1.2-.1.3-.1.3-.1.2-.2h.3l.3-.2.3-.1.2-.2.3-.1.3-.2.3-.1.2-.2.3-.1.3-.2.2-.2.3-.2.3-.2.3-.2.2-.2.3-.2.3-.2.2-.2.3-.2.3-.3.3-.2.2-.3.3-.2.3-.3.3-.3.2-.2.3-.3.3-.3.2-.4.3-.3.3-.3.3-.3.2-.4.3-.3.3-.4.2-.4.3-.4.3-.4.3-.4.2-.4.3-.4.3-.4.3-.5.2-.4.3-.5.3-.5.2-.4.3-.5.3-.5.3-.5.2-.5.3-.6.3-.5.2-.5.3-.6.3-.5.3-.6.2-.6.3-.6.3-.5.3-.6.2-.6.3-.6.3-.7.2-.6.3-.6.3-.7.3-.6.2-.7.3-.6.3-.7.2-.7.3-.6.3-.7.3-.7.2-.7.3-.7.3-.7.3-.8.2-.7.3-.7.3-.8.2-.7.3-.7.3-.8.3-.7.2-.8.3-.8.3-.7.2-.8.3-.8.3-.7.3-.8.2-.8.3-.7.3-.8.3-.8.2-.8.3-.7.3-.8.2-.7.3-.8.3-.8.3-.7.2-.7.3-.8.3-.7.2-.7.3-.8.3-.7.3-.7.2-.6.3-.7.3-.7.2-.7.3-.6.3-.7.3-.6.2-.6.3-.7.3-.6.3-.6.2-.6.3-.5.3-.6.2-.6.3-.5.3-.6.3-.5.2-.5.3-.5.3-.5.2-.5.3-.5.3-.4.3-.5.2-.4.3-.4.3-.4.3-.4.2-.4.3-.3.3-.4.2-.3.3-.3.3-.3.3-.3.2-.2.3-.3.3-.2.2-.2.3-.2.3-.2.3-.2h.2l.3-.2.3-.1h.3l.2-.1h.6l.2-.1h.6l.3.1.2.1.3.1.3.1.2.2.3.1.3.2.3.2.2.3.3.2.3.3.3.3.2.3.3.3.3.4.2.4.3.3.3.5.3.4.2.5.3.4.3.5.2.5.3.6.3.5.3.6.2.6.3.6.3.6.3.7.2.6.3.7.3.7.2.6.3.7.3.7.3.8.2.7.3.7.3.8.2.7.3.8.3.7.3.8.2.7.3.8.3.8.3.7.2.8.3.7.3.8.2.8.3.7.3.8.3.7.2.7.3.8.3.7.2.7.3.8.3.7.3.7.2.7.3.8.3.7.3.7.2.7.3.7.3.7.2.7.3.7.3.7.3.7.2.7.3.7.3.7.2.6.3.7.3.7.3.7.2.7.3.6.3.7.2.7.3.6.3.7.3.6.2.6.3.7.3.6.3.6.2.7.3.6.3.6.2.6.3.6.3.5.3.6.2.6.3.5.3.6.2.5.3.5.3.5.3.5.2.5.3.5.3.5.3.5.2.4.3.5.3.4.2.4.3.5.3.4.3.4.2.4.3.4.3.3.2.4.3.4.3.3.3.4.2.3.3.4.3.3.3.3.2.3.3.3.3.3.2.3.3.3.3.3.3.2.2.3.3.3.3.2.2.2.3.3.3.2.3.2.2.3.3.2.3.2.3.2.2.2.3.2.3.2.2.2.3.1.3.2.3.2.2.1.3.2.3.1.2.1.3.2.3.1.3.1.2.2h.3l.3.2h.3l.2.2h.3l.3.2h.2l.3.1.3.1h.3l.2.2h.6l.2.2h.6l.3.1h.2l.3.1h.6l.2.1h.3l.3.1h.8l.3.1h.8l.2.1H153.5l.3.1h2.5l.2.1H160.1l.2.1H165.5l.3.1H188z" fill="#1f77b4" opacity=".4" stroke="#fff" id="patch_3"/><path clip-path="url(#p9638889eb3)" d="M72.2 91.3V67.5l.2-.6.3-.6.3-.7.2-.6.3-.6.3-.7.3-.6.2-.7.3-.6.3-.7.2-.7.3-.6.3-.7.3-.7.2-.7.3-.7.3-.7.3-.8.2-.7.3-.7.3-.8.2-.7.3-.7.3-.8.3-.7.2-.8.3-.8.3-.7.2-.8.3-.8.3-.7.3-.8.2-.8.3-.7.3-.8.3-.8.2-.8.3-.7.3-.8.2-.7.3-.8.3-.8.3-.7.2-.7.3-.8.3-.7.2-.7.3-.8.3-.7.3-.7.2-.6.3-.7.3-.7.2-.7.3-.6.3-.7.3-.6.2-.6.3-.7.3-.6.3-.6.2-.6.3-.5.3-.6.2-.6.3-.5.3-.6.3-.5.2-.5.3-.5.3-.5.2-.5.3-.5.3-.4.3-.5.2-.4.3-.4.3-.4.3-.4.2-.4.3-.3.3-.4.2-.3.3-.3.3-.3.3-.3.2-.2.3-.3.3-.2.2-.2.3-.2.3-.2.3-.2h.2l.3-.2.3-.1h.3l.2-.1h.6l.2-.1h.6l.3.1.2.1.3.1.3.1.2.2.3.1.3.2.3.2.2.3.3.2.3.3.3.3.2.3.3.3.3.4.2.4.3.3.3.5.3.4.2.5.3.4.3.5.2.5.3.6.3.5.3.6.2.6.3.6.3.6.3.7.2.6.3.7.3.7.2.6.3.7.3.7.3.8.2.7.3.7.3.8.2.7.3.8.3.7.3.8.2.7.3.8.3.8.3.7.2.8.3.7.3.8.2.8.3.7.3.8.3.7.2.7.3.8.3.7.2.7.3.8.3.7.3.7.2.7.3.8.3.7.3.7.2.7.3.7.3.7.2.7.3.7.3.7.3.7.2.7.3.7.3.7.2.6.3.7.3.7.3.7.2.7.3.6.3.7.2.7.3.6.3.7.3.6.2.6.3.7.3.6.3.6.2.7v25.4z" fill="#1f77b4" opacity=".4" stroke="#fff" id="patch_4"/><path d="M13.2 95.3h183.2" fill="none" stroke="#fff" stroke-linecap="square" stroke-width="1.3" id="patch_5"/></g><g id="axes_2"><path d="M224 95.3h183.3V7.2H224z" fill="#eaeaf2" id="patch_6"/><g id="matplotlib.axis_2"><g id="xtick_4"><path clip-path="url(#pa2814abb87)" d="M229.6 95.3V7.2" fill="none" stroke="#fff" stroke-linecap="round" id="line2d_4"/><g id="text_5"><defs><path d="M10.6 35.5h62.6v-8.3H10.6z" id="DejaVuSans-8722"/></defs><g transform="matrix(.11 0 0 -.11 216.2 113.1)" fill="#262626"><use xlink:href="#DejaVuSans-8722"/><use x="83.8" xlink:href="#DejaVuSans-49"/><use x="147.4" xlink:href="#DejaVuSans-46"/><use x="179.2" xlink:href="#DejaVuSans-50"/></g></g></g><g id="xtick_5"><path clip-path="url(#pa2814abb87)" d="M269 95.3V7.2" fill="none" stroke="#fff" stroke-linecap="round" id="line2d_5"/><g transform="matrix(.11 0 0 -.11 255.6 113.1)" fill="#262626" id="text_6"><use xlink:href="#DejaVuSans-8722"/><use x="83.8" xlink:href="#DejaVuSans-49"/><use x="147.4" xlink:href="#DejaVuSans-46"/><use x="179.2" xlink:href="#DejaVuSans-49"/></g></g><g id="xtick_6"><path clip-path="url(#pa2814abb87)" d="M308.3 95.3V7.2" fill="none" stroke="#fff" stroke-linecap="round" id="line2d_6"/><g transform="matrix(.11 0 0 -.11 295 113.1)" fill="#262626" id="text_7"><use xlink:href="#DejaVuSans-8722"/><use x="83.8" xlink:href="#DejaVuSans-49"/><use x="147.4" xlink:href="#DejaVuSans-46"/><use x="179.2" xlink:href="#DejaVuSans-48"/></g></g><g id="xtick_7"><path clip-path="url(#pa2814abb87)" d="M347.6 95.3V7.2" fill="none" stroke="#fff" stroke-linecap="round" id="line2d_7"/><g id="text_8"><defs><path d="M11 1.5v9q3.7-1.8 7.5-2.7 3.8-1 7.5-1 9.8 0 14.9 6.7 5.1 6.5 5.9 20-2.8-4.3-7.2-6.5-4.4-2.3-9.6-2.3-11 0-17.3 6.6Q6.3 38 6.3 49.4q0 11.2 6.6 18 6.7 6.8 17.7 6.8 12.7 0 19.3-9.7 6.7-9.7 6.7-28.1 0-17.3-8.2-27.5-8.2-10.3-22-10.3-3.7 0-7.5.7t-8 2.2zm19.6 31q6.6 0 10.5 4.5 4 4.5 4 12.4t-4 12.4q-3.9 4.6-10.5 4.6t-10.5-4.6q-3.9-4.5-3.9-12.4T20.1 37q3.9-4.6 10.5-4.6z" id="DejaVuSans-57"/></defs><g transform="matrix(.11 0 0 -.11 334.3 113.1)" fill="#262626"><use xlink:href="#DejaVuSans-8722"/><use x="83.8" xlink:href="#DejaVuSans-48"/><use x="147.4" xlink:href="#DejaVuSans-46"/><use x="179.2" xlink:href="#DejaVuSans-57"/></g></g></g><g id="xtick_8"><path clip-path="url(#pa2814abb87)" d="M387 95.3V7.2" fill="none" stroke="#fff" stroke-linecap="round" id="line2d_8"/><g transform="matrix(.11 0 0 -.11 373.6 113.1)" fill="#262626" id="text_9"><use xlink:href="#DejaVuSans-8722"/><use x="83.8" xlink:href="#DejaVuSans-48"/><use x="147.4" xlink:href="#DejaVuSans-46"/><use x="179.2" xlink:href="#DejaVuSans-56"/></g></g><g id="text_10"><defs><path d="M48.7 27.3q0 9.9-4 15.5-4.2 5.7-11.3 5.7-7.1 0-11.2-5.7-4-5.6-4-15.5 0-10 4-15.6t11.2-5.6q7.1 0 11.2 5.7 4 5.6 4 15.5zM18 46.3q2.9 5 7.2 7.3Q29.6 56 35.6 56q10 0 16.2-8Q58 40.3 58 27.4q0-12.9-6.2-20.8-6.2-8-16.2-8-6 0-10.3 2.5Q21 3.3 18 8.2V0h-9v76h9z" id="DejaVuSans-98"/></defs><g transform="matrix(.12 0 0 -.12 285.1 128.5)" fill="#262626"><use xlink:href="#DejaVuSans-77"/><use x="86.3" xlink:href="#DejaVuSans-101"/><use x="147.8" xlink:href="#DejaVuSans-97"/><use x="209.1" xlink:href="#DejaVuSans-110"/><use x="272.5" xlink:href="#DejaVuSans-32"/><use x="304.2" xlink:href="#DejaVuSans-98"/><use x="367.7" xlink:href="#DejaVuSans-105"/><use x="395.5" xlink:href="#DejaVuSans-97"/><use x="456.8" xlink:href="#DejaVuSans-115"/></g></g></g><path clip-path="url(#pa2814abb87)" d="M232.4 91.3h9.8l.3-.1H245.2l.2-.1h1.7l.3-.1h1.3l.3-.1h.8l.3-.1h.5l.3-.1h.5l.3-.1h.3l.3-.1h.2l.3-.1h.3l.2-.1h.3l.3-.1h.3l.2-.1.3-.1h.3l.2-.1.3-.1h.3l.3-.2h.2l.3-.1.3-.1.2-.1h.3l.3-.2h.3l.2-.2.3-.1.3-.1.3-.1.2-.1.3-.2h.3l.2-.2.3-.1.3-.2.3-.1.2-.1.3-.2.3-.1.2-.2.3-.1.3-.2.3-.1.2-.2.3-.2.3-.1.3-.2.2-.2.3-.2.3-.1.2-.2.3-.2.3-.2.3-.2.2-.2.3-.2.3-.2.2-.2.3-.2.3-.2.3-.2.2-.2.3-.2.3-.3.3-.2.2-.2.3-.3.3-.2.2-.3.3-.2.3-.3.3-.2.2-.3.3-.3.3-.2.2-.3.3-.3.3-.3.3-.3.2-.3.3-.3.3-.3.3-.4.2-.3.3-.4.3-.3.2-.4.3-.3.3-.4.3-.4.2-.4.3-.4.3-.4.2-.4.3-.4.3-.5.3-.4.2-.5.3-.4.3-.5.3-.5.2-.5.3-.5.3-.5.2-.5.3-.6.3-.5.3-.6.2-.5.3-.6.3-.6.2-.5.3-.6.3-.6.3-.7.2-.6.3-.6.3-.6.3-.7.2-.6.3-.7.3-.6.2-.7.3-.7.3-.6.3-.7.2-.7.3-.7.3-.7.2-.7.3-.7.3-.7.3-.7.2-.7.3-.7.3-.7.2-.7.3-.8.3-.7.3-.7.2-.7.3-.7.3-.8.3-.7.2-.7.3-.7.3-.7.2-.7.3-.7.3-.7.3-.7.2-.7.3-.7.3-.7.2-.7.3-.7.3-.7.3-.6.2-.7.3-.7.3-.6.3-.7.2-.6.3-.6.3-.6.2-.6.3-.6.3-.6.3-.6.2-.6.3-.5.3-.6.2-.5.3-.6.3-.5.3-.5.2-.5.3-.5.3-.5.3-.5.2-.5.3-.4.3-.4.2-.5.3-.4.3-.4.3-.4.2-.4.3-.4.3-.4.2-.3.3-.4.3-.3.3-.3.2-.3.3-.3.3-.3.3-.2.2-.3.3-.2.3-.2.2-.2.3-.2.3-.2.3-.2.2-.1.3-.1.3-.2h.2l.3-.1.3-.1h.5l.3-.1h.8l.3.1h.3l.2.2.3.1.3.1.3.2.2.1.3.2.3.2.2.2.3.2.3.3.3.3.2.3.3.3.3.3.3.3.2.4.3.3.3.4.2.5.3.4.3.4.3.5.2.5.3.5.3.5.2.5.3.5.3.6.3.5.2.6.3.6.3.6.2.6.3.6.3.7.3.6.2.6.3.7.3.7.3.6.2.7.3.7.3.7.2.6.3.7.3.7.3.7.2.7.3.7.3.7.2.7.3.8.3.7.3.7.2.7.3.7.3.7.3.7.2.7.3.7.3.7.2.8.3.7.3.7.3.7.2.7.3.7.3.7.2.7.3.8.3.7.3.7.2.7.3.7.3.7.3.7.2.6.3.7.3.7.2.7.3.7.3.6.3.7.2.7.3.6.3.6.2.7.3.6.3.6.3.6.2.7.3.6.3.5.3.6.2.6.3.6.3.5.2.6.3.5.3.6.3.5.2.5.3.5.3.5.2.5.3.5.3.5.3.5.2.4.3.5.3.5.3.4.2.4.3.5.3.4.2.4.3.4.3.4.3.4.2.3.3.4.3.4.2.3.3.4.3.3.3.4.2.3.3.3.3.3.2.3.3.3.3.3.3.3.2.3.3.2.3.3.3.3.2.2.3.3.3.2.2.2.3.3.3.2.3.2.2.2.3.2.3.2.2.2.3.2.3.2.3.2.2.2.3.1.3.2.3.2.2.1.3.2.3.1.2.2.3.1.3.2h.3l.2.2.3.1.3.2h.2l.3.2.3.1.3.1.2.1.3.1.3.1.3.1.2.1h.3l.3.2h.2l.3.1.3.1h.3l.2.1.3.1h.3l.2.1h.3l.3.1h.3l.2.1.3.1h.3l.3.1h.5l.3.1h.2l.3.1h.6l.2.1h.3l.3.1h.5l.3.1h.5l.3.1h.6l.2.1h.6l.2.1H369.6l.2.1h.8l.3.1H372.3l.3.1h1.3l.3.1H376.6l.3.1H382.1l.2.1H399z" fill="#1f77b4" opacity=".4" stroke="#fff" id="patch_7"/><path clip-path="url(#pa2814abb87)" d="M278.7 91.3V70l.2-.5.3-.5.3-.5.2-.5.3-.6.3-.5.3-.6.2-.5.3-.6.3-.6.2-.5.3-.6.3-.6.3-.7.2-.6.3-.6.3-.6.3-.7.2-.6.3-.7.3-.6.2-.7.3-.7.3-.6.3-.7.2-.7.3-.7.3-.7.2-.7.3-.7.3-.7.3-.7.2-.7.3-.7.3-.7.2-.7.3-.8.3-.7.3-.7.2-.7.3-.7.3-.8.3-.7.2-.7.3-.7.3-.7.2-.7.3-.7.3-.7.3-.7.2-.7.3-.7.3-.7.2-.7.3-.7.3-.7.3-.6.2-.7.3-.7.3-.6.3-.7.2-.6.3-.6.3-.6.2-.6.3-.6.3-.6.3-.6.2-.6.3-.5.3-.6.2-.5.3-.6.3-.5.3-.5.2-.5.3-.5.3-.5.3-.5.2-.5.3-.4.3-.4.2-.5.3-.4.3-.4.3-.4.2-.4.3-.4.3-.4.2-.3.3-.4.3-.3.3-.3.2-.3.3-.3.3-.3.3-.2.2-.3.3-.2.3-.2.2-.2.3-.2.3-.2.3-.2.2-.1.3-.1.3-.2h.2l.3-.1.3-.1h.5l.3-.1h.8l.3.1h.3l.2.2.3.1.3.1.3.2.2.1.3.2.3.2.2.2.3.2.3.3.3.3.2.3.3.3.3.3.3.3.2.4.3.3.3.4.2.5.3.4.3.4.3.5.2.5.3.5.3.5.2.5.3.5.3.6.3.5.2.6.3.6.3.6.2.6.3.6.3.7.3.6.2.6.3.7.3.7.3.6.2.7.3.7.3.7.2.6.3.7.3.7.3.7.2.7.3.7.3.7.2.7.3.8.3.7.3.7.2.7.3.7.3.7.3.7.2.7.3.7.3.7.2.8.3.7.3.7.3.7.2.7.3.7.3.7.2.7.3.8.3.7.3.7.2.7.3.7.3.7.3.7.2.6.3.7.3.7.2.7.3.7.3.6.3.7.2.7.3.6.3.6.2.7.3.6.3.6.3.6.2.7.3.6.3.5.3.6.2.6.3.6.3.5.2.6.3.5.3.6v23z" fill="#1f77b4" opacity=".4" stroke="#fff" id="patch_8"/><path d="M224 95.3h183.3" fill="none" stroke="#fff" stroke-linecap="square" stroke-width="1.3" id="patch_9"/></g><g id="axes_3"><path d="M13.2 232.8h183.2v-88H13.2z" fill="#eaeaf2" id="patch_10"/><g id="matplotlib.axis_3"><g id="xtick_9"><path clip-path="url(#pd5a29f11aa)" d="M47 232.8v-88" fill="none" stroke="#fff" stroke-linecap="round" id="line2d_9"/><g id="text_11"><defs><path d="M10.8 73h38.7v-8.4H19.8V46.7q2.2.8 4.3 1.1 2.2.4 4.3.4 12.2 0 19.4-6.7 7-6.7 7-18.1 0-11.8-7.2-18.3-7.4-6.5-20.7-6.5-4.6 0-9.4.8-4.7.7-9.8 2.3v10q4.4-2.5 9.1-3.6 4.7-1.2 9.9-1.2 8.5 0 13.4 4.4 5 4.5 5 12 0 7.7-5 12.1Q35 40 26.7 40q-4 0-7.9-.9-4-.9-8-2.7z" id="DejaVuSans-53"/></defs><g transform="matrix(.11 0 0 -.11 34.8 250.6)" fill="#262626"><use xlink:href="#DejaVuSans-48"/><use x="63.6" xlink:href="#DejaVuSans-46"/><use x="95.4" xlink:href="#DejaVuSans-53"/><use x="159" xlink:href="#DejaVuSans-48"/></g></g></g><g id="xtick_10"><path clip-path="url(#pd5a29f11aa)" d="M83.8 232.8v-88" fill="none" stroke="#fff" stroke-linecap="round" id="line2d_10"/><g id="text_12"><defs><path d="M8.2 73h46.9v-4.3L28.6 0H18.3l25 64.6H8.1z" id="DejaVuSans-55"/></defs><g transform="matrix(.11 0 0 -.11 71.6 250.6)" fill="#262626"><use xlink:href="#DejaVuSans-48"/><use x="63.6" xlink:href="#DejaVuSans-46"/><use x="95.4" xlink:href="#DejaVuSans-55"/><use x="159" xlink:href="#DejaVuSans-53"/></g></g></g><g id="xtick_11"><path clip-path="url(#pd5a29f11aa)" d="M120.6 232.8v-88" fill="none" stroke="#fff" stroke-linecap="round" id="line2d_11"/><g transform="matrix(.11 0 0 -.11 108.3 250.6)" fill="#262626" id="text_13"><use xlink:href="#DejaVuSans-49"/><use x="63.6" xlink:href="#DejaVuSans-46"/><use x="95.4" xlink:href="#DejaVuSans-48"/><use x="159" xlink:href="#DejaVuSans-48"/></g></g><g id="xtick_12"><path clip-path="url(#pd5a29f11aa)" d="M157.3 232.8v-88" fill="none" stroke="#fff" stroke-linecap="round" id="line2d_12"/><g transform="matrix(.11 0 0 -.11 145 250.6)" fill="#262626" id="text_14"><use xlink:href="#DejaVuSans-49"/><use x="63.6" xlink:href="#DejaVuSans-46"/><use x="95.4" xlink:href="#DejaVuSans-50"/><use x="159" xlink:href="#DejaVuSans-53"/></g></g><g id="xtick_13"><path clip-path="url(#pd5a29f11aa)" d="M194 232.8v-88" fill="none" stroke="#fff" stroke-linecap="round" id="line2d_13"/><g transform="matrix(.11 0 0 -.11 181.8 250.6)" fill="#262626" id="text_15"><use xlink:href="#DejaVuSans-49"/><use x="63.6" xlink:href="#DejaVuSans-46"/><use x="95.4" xlink:href="#DejaVuSans-53"/><use x="159" xlink:href="#DejaVuSans-48"/></g></g><g id="text_16"><defs><path d="M53.5 70.5V61q-5.6 2.7-10.6 4-5 1.3-9.6 1.3-8 0-12.4-3.1t-4.4-8.9q0-4.8 3-7.3 2.8-2.5 11-4l5.9-1.2q11-2.1 16.3-7.4 5.2-5.3 5.2-14.2 0-10.6-7.1-16Q43.7-1.5 30-1.5q-5.2 0-11 1.1Q13 1 6.9 3.3v10.2q6-3.4 11.8-5.1Q24.4 6.6 30 6.6q8.4 0 13 3.3t4.6 9.5q0 5.4-3.3 8.4t-10.8 4.5l-6 1.2q-11 2.2-16 6.9t-5 13q0 9.7 7 15.3 6.7 5.5 18.7 5.5 5.1 0 10.4-1 5.4-.8 11-2.7z" id="DejaVuSans-83"/><path d="M48.8 52.6v-8.4Q45 46.3 41 47.3q-3.8 1-7.7 1-8.7 0-13.6-5.5Q15 37.3 15 27.3t4.8-15.6q4.9-5.5 13.6-5.5 4 0 7.7 1 3.9 1.1 7.7 3.2V2.1Q45 .3 41-.5q-4-1-8.6-1-12.3 0-19.6 7.8-7.3 7.8-7.3 21 0 13.4 7.4 21Q20.2 56 33 56q4.2 0 8.1-.9 4-.8 7.7-2.5z" id="DejaVuSans-99"/><path d="M9.4 76h9V0h-9z" id="DejaVuSans-108"/></defs><g transform="matrix(.12 0 0 -.12 63.4 266)" fill="#262626"><use xlink:href="#DejaVuSans-83"/><use x="63.5" xlink:href="#DejaVuSans-99"/><use x="118.5" xlink:href="#DejaVuSans-97"/><use x="179.7" xlink:href="#DejaVuSans-108"/><use x="207.5" xlink:href="#DejaVuSans-101"/><use x="269" xlink:href="#DejaVuSans-32"/><use x="300.8" xlink:href="#DejaVuSans-119"/><use x="382.6" xlink:href="#DejaVuSans-101"/><use x="444.1" xlink:href="#DejaVuSans-105"/><use x="471.9" xlink:href="#DejaVuSans-103"/><use x="535.4" xlink:href="#DejaVuSans-104"/><use x="598.8" xlink:href="#DejaVuSans-116"/><use x="638" xlink:href="#DejaVuSans-115"/></g></g></g><path clip-path="url(#pd5a29f11aa)" d="M21.5 228.8H33.5l.3-.1H38l.3-.1h3l.3-.1h2.1l.3-.1H45.5l.3-.1h.8l.2-.1H47.7l.2-.1h.6l.2-.1h.6l.3-.1h.2l.3-.1h.3l.3-.1h.2l.3-.1h.3l.2-.1h.3l.3-.1.3-.1h.2l.3-.1.3-.1h.2l.3-.2h.3l.3-.1.2-.1.3-.1.3-.1.3-.1.2-.1.3-.1.3-.1.2-.1.3-.1.3-.2h.3l.2-.2.3-.1.3-.2.2-.1.3-.2.3-.1.3-.2.2-.1.3-.2.3-.1.2-.2.3-.2.3-.2.3-.1.2-.2.3-.2.3-.2.3-.2.2-.2.3-.3.3-.2.2-.2.3-.2.3-.3.3-.2.2-.2.3-.3.3-.2.2-.3.3-.3.3-.2.3-.3.2-.3.3-.3.3-.3.3-.3.2-.3.3-.3.3-.3.2-.3.3-.4.3-.3.3-.4.2-.3.3-.4.3-.4.2-.3.3-.4.3-.4.3-.4.2-.4.3-.4.3-.5.3-.4.2-.4.3-.5.3-.5.2-.4.3-.5.3-.5.3-.5.2-.5.3-.5.3-.5.2-.6.3-.5.3-.6.3-.5.2-.6.3-.6.3-.5.3-.6.2-.6.3-.6.3-.6.2-.7.3-.6.3-.6.3-.7.2-.6.3-.7.3-.7.2-.7.3-.6.3-.7.3-.7.2-.7.3-.7.3-.8.3-.7.2-.7.3-.7.3-.8.2-.7.3-.8.3-.7.3-.8.2-.8.3-.7.3-.8.2-.8.3-.8.3-.7.3-.8.2-.8.3-.8.3-.7.3-.8.2-.8.3-.8.3-.7.2-.8.3-.8.3-.7.3-.8.2-.7.3-.8.3-.7.2-.7.3-.7.3-.7.3-.7.2-.7.3-.7.3-.7.2-.6.3-.6.3-.7.3-.6.2-.6.3-.5.3-.6.3-.6.2-.5.3-.5.3-.5.2-.5.3-.5.3-.5.3-.4.2-.4.3-.5.3-.4.2-.4.3-.3.3-.4.3-.3.2-.4.3-.3.3-.3.3-.3.2-.3.3-.2.3-.3.2-.2.3-.3.3-.2.3-.2.2-.2.3-.2.3-.1.2-.2.3-.1.3-.1.3-.2h.2l.3-.1h.3l.3-.1H105.4l.2.2h.3l.3.2.2.1.3.2.3.1.3.2.2.2.3.3.3.2.3.2.2.3.3.3.3.3.2.3.3.4.3.3.3.4.2.4.3.4.3.4.2.4.3.4.3.5.3.5.2.4.3.5.3.5.3.5.2.6.3.5.3.6.2.5.3.6.3.5.3.6.2.6.3.6.3.6.2.6.3.7.3.6.3.6.2.7.3.6.3.7.2.6.3.7.3.7.3.7.2.6.3.7.3.7.3.7.2.7.3.7.3.7.2.7.3.7.3.7.3.7.2.7.3.8.3.7.2.7.3.7.3.7.3.7.2.8.3.7.3.7.3.7.2.7.3.7.3.8.2.7.3.7.3.7.3.7.2.7.3.7.3.7.2.7.3.7.3.6.3.7.2.7.3.7.3.6.3.7.2.6.3.7.3.6.2.6.3.7.3.6.3.6.2.6.3.6.3.6.2.5.3.6.3.6.3.5.2.6.3.5.3.5.3.5.2.5.3.5.3.5.2.5.3.5.3.4.3.5.2.4.3.4.3.4.2.5.3.4.3.3.3.4.2.4.3.4.3.3.3.3.2.4.3.3.3.3.2.3.3.3.3.3.3.3.2.3.3.3.3.2.2.3.3.2.3.3.3.2.2.3.3.2.3.2.3.2.2.2.3.2.3.2.2.2.3.2.3.2.3.2.2.2.3.2.3.1.2.2.3.2.3.1.3.2.2.2.3.1.3.2.2.1.3.1.3.2.3.1.2.1.3.2h.3l.3.2.2.1.3.1.3.1.2.1.3.1.3.1.3.1.2.1.3.1h.3l.2.2h.3l.3.1h.3l.2.2h.6l.3.2h.5l.3.1h.2l.3.1h.3l.3.1h.2l.3.1h.5l.3.1h.6l.2.1h.6l.3.1h.8l.2.1H163.3l.3.1H165l.2.1H167.7l.3.1H174.2l.3.1H188z" fill="#1f77b4" opacity=".4" stroke="#fff" id="patch_11"/><path clip-path="url(#pd5a29f11aa)" d="M74.9 228.8v-22.1l.2-.6.3-.5.3-.6.3-.5.2-.6.3-.6.3-.5.3-.6.2-.6.3-.6.3-.6.2-.7.3-.6.3-.6.3-.7.2-.6.3-.7.3-.7.2-.7.3-.6.3-.7.3-.7.2-.7.3-.7.3-.8.3-.7.2-.7.3-.7.3-.8.2-.7.3-.8.3-.7.3-.8.2-.8.3-.7.3-.8.2-.8.3-.8.3-.7.3-.8.2-.8.3-.8.3-.7.3-.8.2-.8.3-.8.3-.7.2-.8.3-.8.3-.7.3-.8.2-.7.3-.8.3-.7.2-.7.3-.7.3-.7.3-.7.2-.7.3-.7.3-.7.2-.6.3-.6.3-.7.3-.6.2-.6.3-.5.3-.6.3-.6.2-.5.3-.5.3-.5.2-.5.3-.5.3-.5.3-.4.2-.4.3-.5.3-.4.2-.4.3-.3.3-.4.3-.3.2-.4.3-.3.3-.3.3-.3.2-.3.3-.2.3-.3.2-.2.3-.3.3-.2.3-.2.2-.2.3-.2.3-.1.2-.2.3-.1.3-.1.3-.2h.2l.3-.1h.3l.3-.1H105.4l.2.2h.3l.3.2.2.1.3.2.3.1.3.2.2.2.3.3.3.2.3.2.2.3.3.3.3.3.2.3.3.4.3.3.3.4.2.4.3.4.3.4.2.4.3.4.3.5.3.5.2.4.3.5.3.5.3.5.2.6.3.5.3.6.2.5.3.6.3.5.3.6.2.6.3.6.3.6.2.6.3.7.3.6.3.6.2.7.3.6.3.7.2.6.3.7.3.7.3.7.2.6.3.7.3.7.3.7.2.7.3.7.3.7.2.7.3.7.3.7.3.7.2.7.3.8.3.7.2.7.3.7.3.7.3.7.2.8.3.7.3.7.3.7.2.7.3.7.3.8.2.7.3.7.3.7.3.7.2.7.3.7.3.7.2.7.3.7.3.6.3.7.2.7.3.7.3.6.3.7.2.6.3.7.3.6.2.6.3.7.3.6.3.6.2.6.3.6v24.4z" fill="#1f77b4" opacity=".4" stroke="#fff" id="patch_12"/><path d="M13.2 232.8h183.2" fill="none" stroke="#fff" stroke-linecap="square" stroke-width="1.3" id="patch_13"/></g><g id="axes_4"><path d="M224 232.8h183.3v-88H224z" fill="#eaeaf2" id="patch_14"/><g id="matplotlib.axis_4"><g id="xtick_14"><path clip-path="url(#p093fe1ccc7)" d="M242 232.8v-88" fill="none" stroke="#fff" stroke-linecap="round" id="line2d_14"/><g transform="matrix(.11 0 0 -.11 228.6 250.6)" fill="#262626" id="text_17"><use xlink:href="#DejaVuSans-8722"/><use x="83.8" xlink:href="#DejaVuSans-48"/><use x="147.4" xlink:href="#DejaVuSans-46"/><use x="179.2" xlink:href="#DejaVuSans-56"/></g></g><g id="xtick_15"><path clip-path="url(#p093fe1ccc7)" d="M284.3 232.8v-88" fill="none" stroke="#fff" stroke-linecap="round" id="line2d_15"/><g id="text_18"><defs><path d="M33 40.4q-6.6 0-10.5-4.6-3.9-4.5-3.9-12.4T22.5 11Q26.4 6.4 33 6.4q6.7 0 10.5 4.6 4 4.5 4 12.4t-4 12.4q-3.8 4.6-10.5 4.6zm19.6 30.9v-9Q48.9 64.1 45 65q-3.8 1-7.5 1-9.8 0-15-6.7-5-6.6-5.8-19.9 2.9 4.3 7.2 6.5 4.4 2.3 9.6 2.3 11 0 17.4-6.7 6.3-6.6 6.3-18.1 0-11.2-6.6-18Q44-1.4 33-1.4q-12.6 0-19.3 9.7Q7 18 7 36.3 7 53.8 15.2 64q8.2 10.3 22 10.3 3.7 0 7.5-.7 3.8-.8 7.9-2.2z" id="DejaVuSans-54"/></defs><g transform="matrix(.11 0 0 -.11 271 250.6)" fill="#262626"><use xlink:href="#DejaVuSans-8722"/><use x="83.8" xlink:href="#DejaVuSans-48"/><use x="147.4" xlink:href="#DejaVuSans-46"/><use x="179.2" xlink:href="#DejaVuSans-54"/></g></g></g><g id="xtick_16"><path clip-path="url(#p093fe1ccc7)" d="M326.7 232.8v-88" fill="none" stroke="#fff" stroke-linecap="round" id="line2d_16"/><g id="text_19"><defs><path d="M37.8 64.3l-25-39h25zM35.2 73h12.4V25.4H58v-8.2H47.6V0h-9.8v17.2h-33v9.5z" id="DejaVuSans-52"/></defs><g transform="matrix(.11 0 0 -.11 313.3 250.6)" fill="#262626"><use xlink:href="#DejaVuSans-8722"/><use x="83.8" xlink:href="#DejaVuSans-48"/><use x="147.4" xlink:href="#DejaVuSans-46"/><use x="179.2" xlink:href="#DejaVuSans-52"/></g></g></g><g id="xtick_17"><path clip-path="url(#p093fe1ccc7)" d="M369 232.8v-88" fill="none" stroke="#fff" stroke-linecap="round" id="line2d_17"/><g transform="matrix(.11 0 0 -.11 355.6 250.6)" fill="#262626" id="text_20"><use xlink:href="#DejaVuSans-8722"/><use x="83.8" xlink:href="#DejaVuSans-48"/><use x="147.4" xlink:href="#DejaVuSans-46"/><use x="179.2" xlink:href="#DejaVuSans-50"/></g></g><g transform="matrix(.12 0 0 -.12 285.3 266)" fill="#262626" id="text_21"><use xlink:href="#DejaVuSans-83"/><use x="63.5" xlink:href="#DejaVuSans-99"/><use x="118.5" xlink:href="#DejaVuSans-97"/><use x="179.7" xlink:href="#DejaVuSans-108"/><use x="207.5" xlink:href="#DejaVuSans-101"/><use x="269" xlink:href="#DejaVuSans-32"/><use x="300.8" xlink:href="#DejaVuSans-98"/><use x="364.3" xlink:href="#DejaVuSans-105"/><use x="392.1" xlink:href="#DejaVuSans-97"/><use x="453.4" xlink:href="#DejaVuSans-115"/></g></g><path clip-path="url(#p093fe1ccc7)" d="M232.4 228.8h8.7l.3-.1h2.4l.3-.1h1.6l.3-.1H247.4l.5-.1h1.1l.3-.1h.8l.2-.1H251.2l.2-.1h.6l.2-.1h.6l.3-.1h.5l.3-.1h.3l.2-.1h.6l.2-.1h.3l.3-.1h.3l.2-.1.3-.1h.3l.2-.1.3-.1h.3l.3-.1.2-.1h.3l.3-.2h.3l.2-.1.3-.1.3-.1.2-.1.3-.1.3-.1.3-.1.2-.1.3-.2h.3l.2-.2.3-.1.3-.2.3-.1.2-.2.3-.1.3-.2.3-.1.2-.2.3-.2.3-.2.2-.1.3-.2.3-.2.3-.2.2-.2.3-.3.3-.2.2-.2.3-.3.3-.2.3-.3.2-.2.3-.3.3-.3.3-.2.2-.3.3-.3.3-.3.2-.4.3-.3.3-.3.3-.4.2-.3.3-.4.3-.3.2-.4.3-.4.3-.4.3-.4.2-.4.3-.4.3-.4.3-.5.2-.4.3-.5.3-.4.2-.5.3-.5.3-.5.3-.5.2-.5.3-.5.3-.5.2-.6.3-.5.3-.5.3-.6.2-.5.3-.6.3-.6.3-.6.2-.5.3-.6.3-.6.2-.6.3-.6.3-.6.3-.7.2-.6.3-.6.3-.6.2-.7.3-.6.3-.7.3-.6.2-.7.3-.6.3-.7.3-.7.2-.6.3-.7.3-.7.2-.7.3-.7.3-.6.3-.7.2-.7.3-.7.3-.7.2-.7.3-.7.3-.7.3-.7.2-.8.3-.7.3-.7.2-.7.3-.7.3-.8.3-.7.2-.7.3-.7.3-.8.3-.7.2-.7.3-.8.3-.7.2-.7.3-.8.3-.7.3-.7.2-.8.3-.7.3-.7.2-.7.3-.7.3-.8.3-.7.2-.7.3-.6.3-.7.3-.7.2-.7.3-.6.3-.7.2-.6.3-.6.3-.6.3-.6.2-.6.3-.5.3-.6.2-.5.3-.5.3-.5.3-.5.2-.4.3-.4.3-.5.3-.4.2-.3.3-.4.3-.3.2-.4.3-.3.3-.3.3-.2.2-.3.3-.2.3-.2.2-.2.3-.2.3-.2.3-.1.2-.2h.3l.3-.2h.3l.2-.1.3-.1h2.2l.2.2h.3l.3.2h.3l.2.2.3.2.3.1.3.2.2.2.3.2.3.2.2.3.3.2.3.3.3.3.2.3.3.3.3.4.2.3.3.4.3.4.3.4.2.4.3.5.3.4.3.5.2.5.3.5.3.5.2.5.3.6.3.6.3.5.2.6.3.7.3.6.2.6.3.7.3.7.3.7.2.6.3.8.3.7.2.7.3.8.3.7.3.8.2.8.3.7.3.8.3.8.2.8.3.8.3.8.2.8.3.8.3.8.3.9.2.8.3.8.3.8.2.8.3.8.3.8.3.8.2.8.3.8.3.8.3.8.2.7.3.8.3.8.2.7.3.8.3.7.3.8.2.7.3.7.3.7.2.7.3.8.3.7.3.6.2.7.3.7.3.7.3.7.2.6.3.7.3.6.2.6.3.7.3.6.3.6.2.6.3.6.3.6.2.5.3.6.3.6.3.5.2.5.3.6.3.5.3.5.2.5.3.5.3.4.2.5.3.4.3.5.3.4.2.4.3.5.3.4.2.3.3.4.3.4.3.4.2.3.3.4.3.3.3.4.2.3.3.3.3.3.2.3.3.3.3.3.3.3.2.2.3.3.3.3.2.2.3.3.3.2.3.3.2.2.3.2.3.2.3.2.2.2.3.3.3.1.2.2.3.2.3.2.3.2.2.2.3.1.3.2.2.1.3.2.3.1.3.2.2.1.3.2.3.1.2.1.3.2h.3l.3.2.2.1.3.1.3.1.3.1.2.1.3.1.3.1.2.1.3.1.3.1h.3l.2.2h.3l.3.1h.2l.3.2h.6l.2.2h.6l.3.1h.2l.3.1h.3l.2.1h.3l.3.1h.3l.2.1h.6l.2.1H361.7l.2.1h.6l.3.1h1l.3.1h1.6l.3.1h2.5l.2.1H399z" fill="#1f77b4" opacity=".4" stroke="#fff" id="patch_15"/><path clip-path="url(#p093fe1ccc7)" d="M278.4 228.8v-23.6l.3-.6.2-.5.3-.6.3-.6.2-.6.3-.6.3-.6.3-.7.2-.6.3-.6.3-.6.2-.7.3-.6.3-.7.3-.6.2-.7.3-.6.3-.7.3-.7.2-.6.3-.7.3-.7.2-.7.3-.7.3-.6.3-.7.2-.7.3-.7.3-.7.2-.7.3-.7.3-.7.3-.7.2-.8.3-.7.3-.7.2-.7.3-.7.3-.8.3-.7.2-.7.3-.7.3-.8.3-.7.2-.7.3-.8.3-.7.2-.7.3-.8.3-.7.3-.7.2-.8.3-.7.3-.7.2-.7.3-.7.3-.8.3-.7.2-.7.3-.6.3-.7.3-.7.2-.7.3-.6.3-.7.2-.6.3-.6.3-.6.3-.6.2-.6.3-.5.3-.6.2-.5.3-.5.3-.5.3-.5.2-.4.3-.4.3-.5.3-.4.2-.3.3-.4.3-.3.2-.4.3-.3.3-.3.3-.2.2-.3.3-.2.3-.2.2-.2.3-.2.3-.2.3-.1.2-.2h.3l.3-.2h.3l.2-.1.3-.1h2.2l.2.2h.3l.3.2h.3l.2.2.3.2.3.1.3.2.2.2.3.2.3.2.2.3.3.2.3.3.3.3.2.3.3.3.3.4.2.3.3.4.3.4.3.4.2.4.3.5.3.4.3.5.2.5.3.5.3.5.2.5.3.6.3.6.3.5.2.6.3.7.3.6.2.6.3.7.3.7.3.7.2.6.3.8.3.7.2.7.3.8.3.7.3.8.2.8.3.7.3.8.3.8.2.8.3.8.3.8.2.8.3.8.3.8.3.9.2.8.3.8.3.8.2.8.3.8.3.8.3.8.2.8.3.8.3.8.3.8.2.7.3.8.3.8.2.7.3.8.3.7.3.8.2.7.3.7.3.7.2.7.3.8.3.7.3.6.2.7.3.7.3.7.3.7.2.6.3.7.3.6.2.6.3.7.3.6.3.6v24.5z" fill="#1f77b4" opacity=".4" stroke="#fff" id="patch_16"/><path d="M224 232.8h183.3" fill="none" stroke="#fff" stroke-linecap="square" stroke-width="1.3" id="patch_17"/></g></g><defs><clipPath id="p9638889eb3"><path d="M13.2 7.2h183.2v88.1H13.2z"/></clipPath><clipPath id="pa2814abb87"><path d="M224.1 7.2h183.2v88.1H224.1z"/></clipPath><clipPath id="pd5a29f11aa"><path d="M13.2 144.7h183.2v88.1H13.2z"/></clipPath><clipPath id="p093fe1ccc7"><path d="M224.1 144.7h183.2v88.1H224.1z"/></clipPath></defs></svg>