<?xml version="1.0" encoding="utf-8" standalone="no"?>
<!DOCTYPE svg PUBLIC "-//W3C//DTD SVG 1.1//EN"
  "http://www.w3.org/Graphics/SVG/1.1/DTD/svg11.dtd">
<!-- Created with matplotlib (https://matplotlib.org/) -->
<svg height="267.599687pt" version="1.1" viewBox="0 0 400.16375 267.599687" width="400.16375pt" xmlns="http://www.w3.org/2000/svg" xmlns:xlink="http://www.w3.org/1999/xlink">
 <defs>
  <style type="text/css">
*{stroke-linecap:butt;stroke-linejoin:round;}
  </style>
 </defs>
 <g id="figure_1">
  <g id="patch_1">
   <path d="M 0 267.599687 
L 400.16375 267.599687 
L 400.16375 0 
L 0 0 
z
" style="fill:#ffffff;"/>
  </g>
  <g id="axes_1">
   <g id="patch_2">
    <path d="M 58.16375 224.64 
L 392.96375 224.64 
L 392.96375 7.2 
L 58.16375 7.2 
z
" style="fill:#eaeaf2;"/>
   </g>
   <g id="matplotlib.axis_1">
    <g id="xtick_1">
     <g id="line2d_1">
      <path clip-path="url(#p62e4e4ccf2)" d="M 131.503259 224.64 
L 131.503259 7.2 
" style="fill:none;stroke:#ffffff;stroke-linecap:round;"/>
     </g>
     <g id="text_1">
      <!-- $\mathdefault{10^{-1}}$ -->
      <defs>
       <path d="M 12.40625 8.296875 
L 28.515625 8.296875 
L 28.515625 63.921875 
L 10.984375 60.40625 
L 10.984375 69.390625 
L 28.421875 72.90625 
L 38.28125 72.90625 
L 38.28125 8.296875 
L 54.390625 8.296875 
L 54.390625 0 
L 12.40625 0 
z
" id="DejaVuSans-49"/>
       <path d="M 31.78125 66.40625 
Q 24.171875 66.40625 20.328125 58.90625 
Q 16.5 51.421875 16.5 36.375 
Q 16.5 21.390625 20.328125 13.890625 
Q 24.171875 6.390625 31.78125 6.390625 
Q 39.453125 6.390625 43.28125 13.890625 
Q 47.125 21.390625 47.125 36.375 
Q 47.125 51.421875 43.28125 58.90625 
Q 39.453125 66.40625 31.78125 66.40625 
z
M 31.78125 74.21875 
Q 44.046875 74.21875 50.515625 64.515625 
Q 56.984375 54.828125 56.984375 36.375 
Q 56.984375 17.96875 50.515625 8.265625 
Q 44.046875 -1.421875 31.78125 -1.421875 
Q 19.53125 -1.421875 13.0625 8.265625 
Q 6.59375 17.96875 6.59375 36.375 
Q 6.59375 54.828125 13.0625 64.515625 
Q 19.53125 74.21875 31.78125 74.21875 
z
" id="DejaVuSans-48"/>
       <path d="M 10.59375 35.5 
L 73.1875 35.5 
L 73.1875 27.203125 
L 10.59375 27.203125 
z
" id="DejaVuSans-8722"/>
      </defs>
      <g style="fill:#262626;" transform="translate(118.578259 242.498281)scale(0.11 -0.11)">
       <use transform="translate(0 0.684375)" xlink:href="#DejaVuSans-49"/>
       <use transform="translate(63.623047 0.684375)" xlink:href="#DejaVuSans-48"/>
       <use transform="translate(128.203125 38.965625)scale(0.7)" xlink:href="#DejaVuSans-8722"/>
       <use transform="translate(186.855469 38.965625)scale(0.7)" xlink:href="#DejaVuSans-49"/>
      </g>
     </g>
    </g>
    <g id="xtick_2">
     <g id="line2d_2">
      <path clip-path="url(#p62e4e4ccf2)" d="M 208.436129 224.64 
L 208.436129 7.2 
" style="fill:none;stroke:#ffffff;stroke-linecap:round;"/>
     </g>
     <g id="text_2">
      <!-- $\mathdefault{10^{0}}$ -->
      <g style="fill:#262626;" transform="translate(198.756129 242.498281)scale(0.11 -0.11)">
       <use transform="translate(0 0.765625)" xlink:href="#DejaVuSans-49"/>
       <use transform="translate(63.623047 0.765625)" xlink:href="#DejaVuSans-48"/>
       <use transform="translate(128.203125 39.046875)scale(0.7)" xlink:href="#DejaVuSans-48"/>
      </g>
     </g>
    </g>
    <g id="xtick_3">
     <g id="line2d_3">
      <path clip-path="url(#p62e4e4ccf2)" d="M 285.368999 224.64 
L 285.368999 7.2 
" style="fill:none;stroke:#ffffff;stroke-linecap:round;"/>
     </g>
     <g id="text_3">
      <!-- $\mathdefault{10^{1}}$ -->
      <g style="fill:#262626;" transform="translate(275.688999 242.498281)scale(0.11 -0.11)">
       <use transform="translate(0 0.684375)" xlink:href="#DejaVuSans-49"/>
       <use transform="translate(63.623047 0.684375)" xlink:href="#DejaVuSans-48"/>
       <use transform="translate(128.203125 38.965625)scale(0.7)" xlink:href="#DejaVuSans-49"/>
      </g>
     </g>
    </g>
    <g id="xtick_4">
     <g id="line2d_4">
      <path clip-path="url(#p62e4e4ccf2)" d="M 362.301869 224.64 
L 362.301869 7.2 
" style="fill:none;stroke:#ffffff;stroke-linecap:round;"/>
     </g>
     <g id="text_4">
      <!-- $\mathdefault{10^{2}}$ -->
      <defs>
       <path d="M 19.1875 8.296875 
L 53.609375 8.296875 
L 53.609375 0 
L 7.328125 0 
L 7.328125 8.296875 
Q 12.9375 14.109375 22.625 23.890625 
Q 32.328125 33.6875 34.8125 36.53125 
Q 39.546875 41.84375 41.421875 45.53125 
Q 43.3125 49.21875 43.3125 52.78125 
Q 43.3125 58.59375 39.234375 62.25 
Q 35.15625 65.921875 28.609375 65.921875 
Q 23.96875 65.921875 18.8125 64.3125 
Q 13.671875 62.703125 7.8125 59.421875 
L 7.8125 69.390625 
Q 13.765625 71.78125 18.9375 73 
Q 24.125 74.21875 28.421875 74.21875 
Q 39.75 74.21875 46.484375 68.546875 
Q 53.21875 62.890625 53.21875 53.421875 
Q 53.21875 48.921875 51.53125 44.890625 
Q 49.859375 40.875 45.40625 35.40625 
Q 44.1875 33.984375 37.640625 27.21875 
Q 31.109375 20.453125 19.1875 8.296875 
z
" id="DejaVuSans-50"/>
      </defs>
      <g style="fill:#262626;" transform="translate(352.621869 242.498281)scale(0.11 -0.11)">
       <use transform="translate(0 0.765625)" xlink:href="#DejaVuSans-49"/>
       <use transform="translate(63.623047 0.765625)" xlink:href="#DejaVuSans-48"/>
       <use transform="translate(128.203125 39.046875)scale(0.7)" xlink:href="#DejaVuSans-50"/>
      </g>
     </g>
    </g>
    <g id="xtick_5"/>
    <g id="xtick_6"/>
    <g id="xtick_7"/>
    <g id="xtick_8"/>
    <g id="xtick_9"/>
    <g id="xtick_10"/>
    <g id="xtick_11"/>
    <g id="xtick_12"/>
    <g id="xtick_13"/>
    <g id="xtick_14"/>
    <g id="xtick_15"/>
    <g id="xtick_16"/>
    <g id="xtick_17"/>
    <g id="xtick_18"/>
    <g id="xtick_19"/>
    <g id="xtick_20"/>
    <g id="xtick_21"/>
    <g id="xtick_22"/>
    <g id="xtick_23"/>
    <g id="xtick_24"/>
    <g id="xtick_25"/>
    <g id="xtick_26"/>
    <g id="xtick_27"/>
    <g id="xtick_28"/>
    <g id="xtick_29"/>
    <g id="xtick_30"/>
    <g id="xtick_31"/>
    <g id="xtick_32"/>
    <g id="xtick_33"/>
    <g id="xtick_34"/>
    <g id="xtick_35"/>
    <g id="xtick_36"/>
    <g id="xtick_37"/>
    <g id="text_5">
     <!-- True time to event -->
     <defs>
      <path d="M -0.296875 72.90625 
L 61.375 72.90625 
L 61.375 64.59375 
L 35.5 64.59375 
L 35.5 0 
L 25.59375 0 
L 25.59375 64.59375 
L -0.296875 64.59375 
z
" id="DejaVuSans-84"/>
      <path d="M 41.109375 46.296875 
Q 39.59375 47.171875 37.8125 47.578125 
Q 36.03125 48 33.890625 48 
Q 26.265625 48 22.1875 43.046875 
Q 18.109375 38.09375 18.109375 28.8125 
L 18.109375 0 
L 9.078125 0 
L 9.078125 54.6875 
L 18.109375 54.6875 
L 18.109375 46.1875 
Q 20.953125 51.171875 25.484375 53.578125 
Q 30.03125 56 36.53125 56 
Q 37.453125 56 38.578125 55.875 
Q 39.703125 55.765625 41.0625 55.515625 
z
" id="DejaVuSans-114"/>
      <path d="M 8.5 21.578125 
L 8.5 54.6875 
L 17.484375 54.6875 
L 17.484375 21.921875 
Q 17.484375 14.15625 20.5 10.265625 
Q 23.53125 6.390625 29.59375 6.390625 
Q 36.859375 6.390625 41.078125 11.03125 
Q 45.3125 15.671875 45.3125 23.6875 
L 45.3125 54.6875 
L 54.296875 54.6875 
L 54.296875 0 
L 45.3125 0 
L 45.3125 8.40625 
Q 42.046875 3.421875 37.71875 1 
Q 33.40625 -1.421875 27.6875 -1.421875 
Q 18.265625 -1.421875 13.375 4.4375 
Q 8.5 10.296875 8.5 21.578125 
z
M 31.109375 56 
z
" id="DejaVuSans-117"/>
      <path d="M 56.203125 29.59375 
L 56.203125 25.203125 
L 14.890625 25.203125 
Q 15.484375 15.921875 20.484375 11.0625 
Q 25.484375 6.203125 34.421875 6.203125 
Q 39.59375 6.203125 44.453125 7.46875 
Q 49.3125 8.734375 54.109375 11.28125 
L 54.109375 2.78125 
Q 49.265625 0.734375 44.1875 -0.34375 
Q 39.109375 -1.421875 33.890625 -1.421875 
Q 20.796875 -1.421875 13.15625 6.1875 
Q 5.515625 13.8125 5.515625 26.8125 
Q 5.515625 40.234375 12.765625 48.109375 
Q 20.015625 56 32.328125 56 
Q 43.359375 56 49.78125 48.890625 
Q 56.203125 41.796875 56.203125 29.59375 
z
M 47.21875 32.234375 
Q 47.125 39.59375 43.09375 43.984375 
Q 39.0625 48.390625 32.421875 48.390625 
Q 24.90625 48.390625 20.390625 44.140625 
Q 15.875 39.890625 15.1875 32.171875 
z
" id="DejaVuSans-101"/>
      <path id="DejaVuSans-32"/>
      <path d="M 18.3125 70.21875 
L 18.3125 54.6875 
L 36.8125 54.6875 
L 36.8125 47.703125 
L 18.3125 47.703125 
L 18.3125 18.015625 
Q 18.3125 11.328125 20.140625 9.421875 
Q 21.96875 7.515625 27.59375 7.515625 
L 36.8125 7.515625 
L 36.8125 0 
L 27.59375 0 
Q 17.1875 0 13.234375 3.875 
Q 9.28125 7.765625 9.28125 18.015625 
L 9.28125 47.703125 
L 2.6875 47.703125 
L 2.6875 54.6875 
L 9.28125 54.6875 
L 9.28125 70.21875 
z
" id="DejaVuSans-116"/>
      <path d="M 9.421875 54.6875 
L 18.40625 54.6875 
L 18.40625 0 
L 9.421875 0 
z
M 9.421875 75.984375 
L 18.40625 75.984375 
L 18.40625 64.59375 
L 9.421875 64.59375 
z
" id="DejaVuSans-105"/>
      <path d="M 52 44.1875 
Q 55.375 50.25 60.0625 53.125 
Q 64.75 56 71.09375 56 
Q 79.640625 56 84.28125 50.015625 
Q 88.921875 44.046875 88.921875 33.015625 
L 88.921875 0 
L 79.890625 0 
L 79.890625 32.71875 
Q 79.890625 40.578125 77.09375 44.375 
Q 74.3125 48.1875 68.609375 48.1875 
Q 61.625 48.1875 57.5625 43.546875 
Q 53.515625 38.921875 53.515625 30.90625 
L 53.515625 0 
L 44.484375 0 
L 44.484375 32.71875 
Q 44.484375 40.625 41.703125 44.40625 
Q 38.921875 48.1875 33.109375 48.1875 
Q 26.21875 48.1875 22.15625 43.53125 
Q 18.109375 38.875 18.109375 30.90625 
L 18.109375 0 
L 9.078125 0 
L 9.078125 54.6875 
L 18.109375 54.6875 
L 18.109375 46.1875 
Q 21.1875 51.21875 25.484375 53.609375 
Q 29.78125 56 35.6875 56 
Q 41.65625 56 45.828125 52.96875 
Q 50 49.953125 52 44.1875 
z
" id="DejaVuSans-109"/>
      <path d="M 30.609375 48.390625 
Q 23.390625 48.390625 19.1875 42.75 
Q 14.984375 37.109375 14.984375 27.296875 
Q 14.984375 17.484375 19.15625 11.84375 
Q 23.34375 6.203125 30.609375 6.203125 
Q 37.796875 6.203125 41.984375 11.859375 
Q 46.1875 17.53125 46.1875 27.296875 
Q 46.1875 37.015625 41.984375 42.703125 
Q 37.796875 48.390625 30.609375 48.390625 
z
M 30.609375 56 
Q 42.328125 56 49.015625 48.375 
Q 55.71875 40.765625 55.71875 27.296875 
Q 55.71875 13.875 49.015625 6.21875 
Q 42.328125 -1.421875 30.609375 -1.421875 
Q 18.84375 -1.421875 12.171875 6.21875 
Q 5.515625 13.875 5.515625 27.296875 
Q 5.515625 40.765625 12.171875 48.375 
Q 18.84375 56 30.609375 56 
z
" id="DejaVuSans-111"/>
      <path d="M 2.984375 54.6875 
L 12.5 54.6875 
L 29.59375 8.796875 
L 46.6875 54.6875 
L 56.203125 54.6875 
L 35.6875 0 
L 23.484375 0 
z
" id="DejaVuSans-118"/>
      <path d="M 54.890625 33.015625 
L 54.890625 0 
L 45.90625 0 
L 45.90625 32.71875 
Q 45.90625 40.484375 42.875 44.328125 
Q 39.84375 48.1875 33.796875 48.1875 
Q 26.515625 48.1875 22.3125 43.546875 
Q 18.109375 38.921875 18.109375 30.90625 
L 18.109375 0 
L 9.078125 0 
L 9.078125 54.6875 
L 18.109375 54.6875 
L 18.109375 46.1875 
Q 21.34375 51.125 25.703125 53.5625 
Q 30.078125 56 35.796875 56 
Q 45.21875 56 50.046875 50.171875 
Q 54.890625 44.34375 54.890625 33.015625 
z
" id="DejaVuSans-110"/>
     </defs>
     <g style="fill:#262626;" transform="translate(169.562188 257.904062)scale(0.12 -0.12)">
      <use xlink:href="#DejaVuSans-84"/>
      <use x="60.865234" xlink:href="#DejaVuSans-114"/>
      <use x="101.978516" xlink:href="#DejaVuSans-117"/>
      <use x="165.357422" xlink:href="#DejaVuSans-101"/>
      <use x="226.880859" xlink:href="#DejaVuSans-32"/>
      <use x="258.667969" xlink:href="#DejaVuSans-116"/>
      <use x="297.876953" xlink:href="#DejaVuSans-105"/>
      <use x="325.660156" xlink:href="#DejaVuSans-109"/>
      <use x="423.072266" xlink:href="#DejaVuSans-101"/>
      <use x="484.595703" xlink:href="#DejaVuSans-32"/>
      <use x="516.382812" xlink:href="#DejaVuSans-116"/>
      <use x="555.591797" xlink:href="#DejaVuSans-111"/>
      <use x="616.773438" xlink:href="#DejaVuSans-32"/>
      <use x="648.560547" xlink:href="#DejaVuSans-101"/>
      <use x="710.083984" xlink:href="#DejaVuSans-118"/>
      <use x="769.263672" xlink:href="#DejaVuSans-101"/>
      <use x="830.787109" xlink:href="#DejaVuSans-110"/>
      <use x="894.166016" xlink:href="#DejaVuSans-116"/>
     </g>
    </g>
   </g>
   <g id="matplotlib.axis_2">
    <g id="ytick_1">
     <g id="line2d_5">
      <path clip-path="url(#p62e4e4ccf2)" d="M 58.16375 214.756364 
L 392.96375 214.756364 
" style="fill:none;stroke:#ffffff;stroke-linecap:round;"/>
     </g>
     <g id="text_6">
      <!-- $\mathdefault{10^{-1}}$ -->
      <g style="fill:#262626;" transform="translate(22.81375 218.935504)scale(0.11 -0.11)">
       <use transform="translate(0 0.684375)" xlink:href="#DejaVuSans-49"/>
       <use transform="translate(63.623047 0.684375)" xlink:href="#DejaVuSans-48"/>
       <use transform="translate(128.203125 38.965625)scale(0.7)" xlink:href="#DejaVuSans-8722"/>
       <use transform="translate(186.855469 38.965625)scale(0.7)" xlink:href="#DejaVuSans-49"/>
      </g>
     </g>
    </g>
    <g id="ytick_2">
     <g id="line2d_6">
      <path clip-path="url(#p62e4e4ccf2)" d="M 58.16375 158.700921 
L 392.96375 158.700921 
" style="fill:none;stroke:#ffffff;stroke-linecap:round;"/>
     </g>
     <g id="text_7">
      <!-- $\mathdefault{10^{0}}$ -->
      <g style="fill:#262626;" transform="translate(29.30375 162.880062)scale(0.11 -0.11)">
       <use transform="translate(0 0.765625)" xlink:href="#DejaVuSans-49"/>
       <use transform="translate(63.623047 0.765625)" xlink:href="#DejaVuSans-48"/>
       <use transform="translate(128.203125 39.046875)scale(0.7)" xlink:href="#DejaVuSans-48"/>
      </g>
     </g>
    </g>
    <g id="ytick_3">
     <g id="line2d_7">
      <path clip-path="url(#p62e4e4ccf2)" d="M 58.16375 102.645479 
L 392.96375 102.645479 
" style="fill:none;stroke:#ffffff;stroke-linecap:round;"/>
     </g>
     <g id="text_8">
      <!-- $\mathdefault{10^{1}}$ -->
      <g style="fill:#262626;" transform="translate(29.30375 106.82462)scale(0.11 -0.11)">
       <use transform="translate(0 0.684375)" xlink:href="#DejaVuSans-49"/>
       <use transform="translate(63.623047 0.684375)" xlink:href="#DejaVuSans-48"/>
       <use transform="translate(128.203125 38.965625)scale(0.7)" xlink:href="#DejaVuSans-49"/>
      </g>
     </g>
    </g>
    <g id="ytick_4">
     <g id="line2d_8">
      <path clip-path="url(#p62e4e4ccf2)" d="M 58.16375 46.590037 
L 392.96375 46.590037 
" style="fill:none;stroke:#ffffff;stroke-linecap:round;"/>
     </g>
     <g id="text_9">
      <!-- $\mathdefault{10^{2}}$ -->
      <g style="fill:#262626;" transform="translate(29.30375 50.769178)scale(0.11 -0.11)">
       <use transform="translate(0 0.765625)" xlink:href="#DejaVuSans-49"/>
       <use transform="translate(63.623047 0.765625)" xlink:href="#DejaVuSans-48"/>
       <use transform="translate(128.203125 39.046875)scale(0.7)" xlink:href="#DejaVuSans-50"/>
      </g>
     </g>
    </g>
    <g id="ytick_5"/>
    <g id="ytick_6"/>
    <g id="ytick_7"/>
    <g id="ytick_8"/>
    <g id="ytick_9"/>
    <g id="ytick_10"/>
    <g id="ytick_11"/>
    <g id="ytick_12"/>
    <g id="ytick_13"/>
    <g id="ytick_14"/>
    <g id="ytick_15"/>
    <g id="ytick_16"/>
    <g id="ytick_17"/>
    <g id="ytick_18"/>
    <g id="ytick_19"/>
    <g id="ytick_20"/>
    <g id="ytick_21"/>
    <g id="ytick_22"/>
    <g id="ytick_23"/>
    <g id="ytick_24"/>
    <g id="ytick_25"/>
    <g id="ytick_26"/>
    <g id="ytick_27"/>
    <g id="ytick_28"/>
    <g id="ytick_29"/>
    <g id="ytick_30"/>
    <g id="ytick_31"/>
    <g id="ytick_32"/>
    <g id="ytick_33"/>
    <g id="ytick_34"/>
    <g id="ytick_35"/>
    <g id="text_10">
     <!-- Predicted time to event -->
     <defs>
      <path d="M 19.671875 64.796875 
L 19.671875 37.40625 
L 32.078125 37.40625 
Q 38.96875 37.40625 42.71875 40.96875 
Q 46.484375 44.53125 46.484375 51.125 
Q 46.484375 57.671875 42.71875 61.234375 
Q 38.96875 64.796875 32.078125 64.796875 
z
M 9.8125 72.90625 
L 32.078125 72.90625 
Q 44.34375 72.90625 50.609375 67.359375 
Q 56.890625 61.8125 56.890625 51.125 
Q 56.890625 40.328125 50.609375 34.8125 
Q 44.34375 29.296875 32.078125 29.296875 
L 19.671875 29.296875 
L 19.671875 0 
L 9.8125 0 
z
" id="DejaVuSans-80"/>
      <path d="M 45.40625 46.390625 
L 45.40625 75.984375 
L 54.390625 75.984375 
L 54.390625 0 
L 45.40625 0 
L 45.40625 8.203125 
Q 42.578125 3.328125 38.25 0.953125 
Q 33.9375 -1.421875 27.875 -1.421875 
Q 17.96875 -1.421875 11.734375 6.484375 
Q 5.515625 14.40625 5.515625 27.296875 
Q 5.515625 40.1875 11.734375 48.09375 
Q 17.96875 56 27.875 56 
Q 33.9375 56 38.25 53.625 
Q 42.578125 51.265625 45.40625 46.390625 
z
M 14.796875 27.296875 
Q 14.796875 17.390625 18.875 11.75 
Q 22.953125 6.109375 30.078125 6.109375 
Q 37.203125 6.109375 41.296875 11.75 
Q 45.40625 17.390625 45.40625 27.296875 
Q 45.40625 37.203125 41.296875 42.84375 
Q 37.203125 48.484375 30.078125 48.484375 
Q 22.953125 48.484375 18.875 42.84375 
Q 14.796875 37.203125 14.796875 27.296875 
z
" id="DejaVuSans-100"/>
      <path d="M 48.78125 52.59375 
L 48.78125 44.1875 
Q 44.96875 46.296875 41.140625 47.34375 
Q 37.3125 48.390625 33.40625 48.390625 
Q 24.65625 48.390625 19.8125 42.84375 
Q 14.984375 37.3125 14.984375 27.296875 
Q 14.984375 17.28125 19.8125 11.734375 
Q 24.65625 6.203125 33.40625 6.203125 
Q 37.3125 6.203125 41.140625 7.25 
Q 44.96875 8.296875 48.78125 10.40625 
L 48.78125 2.09375 
Q 45.015625 0.34375 40.984375 -0.53125 
Q 36.96875 -1.421875 32.421875 -1.421875 
Q 20.0625 -1.421875 12.78125 6.34375 
Q 5.515625 14.109375 5.515625 27.296875 
Q 5.515625 40.671875 12.859375 48.328125 
Q 20.21875 56 33.015625 56 
Q 37.15625 56 41.109375 55.140625 
Q 45.0625 54.296875 48.78125 52.59375 
z
" id="DejaVuSans-99"/>
     </defs>
     <g style="fill:#262626;" transform="translate(16.318125 186.710625)rotate(-90)scale(0.12 -0.12)">
      <use xlink:href="#DejaVuSans-80"/>
      <use x="60.287109" xlink:href="#DejaVuSans-114"/>
      <use x="101.369141" xlink:href="#DejaVuSans-101"/>
      <use x="162.892578" xlink:href="#DejaVuSans-100"/>
      <use x="226.369141" xlink:href="#DejaVuSans-105"/>
      <use x="254.152344" xlink:href="#DejaVuSans-99"/>
      <use x="309.132812" xlink:href="#DejaVuSans-116"/>
      <use x="348.341797" xlink:href="#DejaVuSans-101"/>
      <use x="409.865234" xlink:href="#DejaVuSans-100"/>
      <use x="473.341797" xlink:href="#DejaVuSans-32"/>
      <use x="505.128906" xlink:href="#DejaVuSans-116"/>
      <use x="544.337891" xlink:href="#DejaVuSans-105"/>
      <use x="572.121094" xlink:href="#DejaVuSans-109"/>
      <use x="669.533203" xlink:href="#DejaVuSans-101"/>
      <use x="731.056641" xlink:href="#DejaVuSans-32"/>
      <use x="762.84375" xlink:href="#DejaVuSans-116"/>
      <use x="802.052734" xlink:href="#DejaVuSans-111"/>
      <use x="863.234375" xlink:href="#DejaVuSans-32"/>
      <use x="895.021484" xlink:href="#DejaVuSans-101"/>
      <use x="956.544922" xlink:href="#DejaVuSans-118"/>
      <use x="1015.724609" xlink:href="#DejaVuSans-101"/>
      <use x="1077.248047" xlink:href="#DejaVuSans-110"/>
      <use x="1140.626953" xlink:href="#DejaVuSans-116"/>
     </g>
    </g>
   </g>
   <g id="line2d_9">
    <defs>
     <path d="M 0 1.5 
C 0.397805 1.5 0.77937 1.341951 1.06066 1.06066 
C 1.341951 0.77937 1.5 0.397805 1.5 0 
C 1.5 -0.397805 1.341951 -0.77937 1.06066 -1.06066 
C 0.77937 -1.341951 0.397805 -1.5 0 -1.5 
C -0.397805 -1.5 -0.77937 -1.341951 -1.06066 -1.06066 
C -1.341951 -0.77937 -1.5 -0.397805 -1.5 0 
C -1.5 0.397805 -1.341951 0.77937 -1.06066 1.06066 
C -0.77937 1.341951 -0.397805 1.5 0 1.5 
z
" id="m9a67520a1f" style="stroke:#4c72b0;"/>
    </defs>
    <g clip-path="url(#p62e4e4ccf2)">
     <use style="fill:#4c72b0;stroke:#4c72b0;" x="138.154787" xlink:href="#m9a67520a1f" y="149.865978"/>
     <use style="fill:#4c72b0;stroke:#4c72b0;" x="273.587105" xlink:href="#m9a67520a1f" y="140.01085"/>
     <use style="fill:#4c72b0;stroke:#4c72b0;" x="240.728708" xlink:href="#m9a67520a1f" y="155.309326"/>
     <use style="fill:#4c72b0;stroke:#4c72b0;" x="222.638789" xlink:href="#m9a67520a1f" y="154.299403"/>
     <use style="fill:#4c72b0;stroke:#4c72b0;" x="210.671905" xlink:href="#m9a67520a1f" y="156.031561"/>
     <use style="fill:#4c72b0;stroke:#4c72b0;" x="264.301624" xlink:href="#m9a67520a1f" y="124.454197"/>
     <use style="fill:#4c72b0;stroke:#4c72b0;" x="246.352798" xlink:href="#m9a67520a1f" y="156.199194"/>
     <use style="fill:#4c72b0;stroke:#4c72b0;" x="106.143757" xlink:href="#m9a67520a1f" y="128.338336"/>
     <use style="fill:#4c72b0;stroke:#4c72b0;" x="258.629862" xlink:href="#m9a67520a1f" y="131.434711"/>
     <use style="fill:#4c72b0;stroke:#4c72b0;" x="97.778566" xlink:href="#m9a67520a1f" y="156.0356"/>
     <use style="fill:#4c72b0;stroke:#4c72b0;" x="292.748512" xlink:href="#m9a67520a1f" y="134.194789"/>
     <use style="fill:#4c72b0;stroke:#4c72b0;" x="321.333713" xlink:href="#m9a67520a1f" y="120.245452"/>
     <use style="fill:#4c72b0;stroke:#4c72b0;" x="225.995603" xlink:href="#m9a67520a1f" y="139.993782"/>
     <use style="fill:#4c72b0;stroke:#4c72b0;" x="253.260363" xlink:href="#m9a67520a1f" y="136.796037"/>
     <use style="fill:#4c72b0;stroke:#4c72b0;" x="272.657928" xlink:href="#m9a67520a1f" y="151.120219"/>
     <use style="fill:#4c72b0;stroke:#4c72b0;" x="339.972831" xlink:href="#m9a67520a1f" y="117.67848"/>
     <use style="fill:#4c72b0;stroke:#4c72b0;" x="187.063292" xlink:href="#m9a67520a1f" y="153.529494"/>
     <use style="fill:#4c72b0;stroke:#4c72b0;" x="201.190567" xlink:href="#m9a67520a1f" y="169.270319"/>
     <use style="fill:#4c72b0;stroke:#4c72b0;" x="223.966857" xlink:href="#m9a67520a1f" y="152.778168"/>
     <use style="fill:#4c72b0;stroke:#4c72b0;" x="273.892825" xlink:href="#m9a67520a1f" y="135.328215"/>
     <use style="fill:#4c72b0;stroke:#4c72b0;" x="341.248579" xlink:href="#m9a67520a1f" y="123.739996"/>
     <use style="fill:#4c72b0;stroke:#4c72b0;" x="216.698988" xlink:href="#m9a67520a1f" y="150.039852"/>
     <use style="fill:#4c72b0;stroke:#4c72b0;" x="225.548102" xlink:href="#m9a67520a1f" y="146.198799"/>
     <use style="fill:#4c72b0;stroke:#4c72b0;" x="197.19974" xlink:href="#m9a67520a1f" y="152.027196"/>
     <use style="fill:#4c72b0;stroke:#4c72b0;" x="224.644067" xlink:href="#m9a67520a1f" y="142.352559"/>
     <use style="fill:#4c72b0;stroke:#4c72b0;" x="316.197889" xlink:href="#m9a67520a1f" y="96.445304"/>
     <use style="fill:#4c72b0;stroke:#4c72b0;" x="117.392125" xlink:href="#m9a67520a1f" y="141.728603"/>
     <use style="fill:#4c72b0;stroke:#4c72b0;" x="317.606562" xlink:href="#m9a67520a1f" y="132.955764"/>
     <use style="fill:#4c72b0;stroke:#4c72b0;" x="265.639597" xlink:href="#m9a67520a1f" y="137.348394"/>
     <use style="fill:#4c72b0;stroke:#4c72b0;" x="259.252923" xlink:href="#m9a67520a1f" y="152.301714"/>
     <use style="fill:#4c72b0;stroke:#4c72b0;" x="254.798752" xlink:href="#m9a67520a1f" y="153.996674"/>
     <use style="fill:#4c72b0;stroke:#4c72b0;" x="73.381932" xlink:href="#m9a67520a1f" y="165.57743"/>
     <use style="fill:#4c72b0;stroke:#4c72b0;" x="313.00141" xlink:href="#m9a67520a1f" y="106.849581"/>
     <use style="fill:#4c72b0;stroke:#4c72b0;" x="244.576035" xlink:href="#m9a67520a1f" y="146.157229"/>
     <use style="fill:#4c72b0;stroke:#4c72b0;" x="150.261564" xlink:href="#m9a67520a1f" y="169.668653"/>
     <use style="fill:#4c72b0;stroke:#4c72b0;" x="149.539532" xlink:href="#m9a67520a1f" y="168.829528"/>
     <use style="fill:#4c72b0;stroke:#4c72b0;" x="263.866042" xlink:href="#m9a67520a1f" y="139.167857"/>
     <use style="fill:#4c72b0;stroke:#4c72b0;" x="113.797474" xlink:href="#m9a67520a1f" y="159.421379"/>
     <use style="fill:#4c72b0;stroke:#4c72b0;" x="330.022978" xlink:href="#m9a67520a1f" y="119.991811"/>
     <use style="fill:#4c72b0;stroke:#4c72b0;" x="253.660072" xlink:href="#m9a67520a1f" y="137.678638"/>
     <use style="fill:#4c72b0;stroke:#4c72b0;" x="313.429448" xlink:href="#m9a67520a1f" y="142.283564"/>
     <use style="fill:#4c72b0;stroke:#4c72b0;" x="276.308286" xlink:href="#m9a67520a1f" y="145.454764"/>
     <use style="fill:#4c72b0;stroke:#4c72b0;" x="184.926955" xlink:href="#m9a67520a1f" y="161.678188"/>
     <use style="fill:#4c72b0;stroke:#4c72b0;" x="291.162103" xlink:href="#m9a67520a1f" y="134.335917"/>
     <use style="fill:#4c72b0;stroke:#4c72b0;" x="283.714479" xlink:href="#m9a67520a1f" y="126.596035"/>
     <use style="fill:#4c72b0;stroke:#4c72b0;" x="303.914129" xlink:href="#m9a67520a1f" y="139.649942"/>
     <use style="fill:#4c72b0;stroke:#4c72b0;" x="200.533077" xlink:href="#m9a67520a1f" y="137.421619"/>
     <use style="fill:#4c72b0;stroke:#4c72b0;" x="325.015006" xlink:href="#m9a67520a1f" y="135.804504"/>
     <use style="fill:#4c72b0;stroke:#4c72b0;" x="344.783281" xlink:href="#m9a67520a1f" y="114.187131"/>
     <use style="fill:#4c72b0;stroke:#4c72b0;" x="298.147025" xlink:href="#m9a67520a1f" y="134.005077"/>
     <use style="fill:#4c72b0;stroke:#4c72b0;" x="337.533991" xlink:href="#m9a67520a1f" y="123.087459"/>
     <use style="fill:#4c72b0;stroke:#4c72b0;" x="268.303734" xlink:href="#m9a67520a1f" y="138.134604"/>
     <use style="fill:#4c72b0;stroke:#4c72b0;" x="227.181225" xlink:href="#m9a67520a1f" y="163.013114"/>
     <use style="fill:#4c72b0;stroke:#4c72b0;" x="200.631771" xlink:href="#m9a67520a1f" y="171.92172"/>
     <use style="fill:#4c72b0;stroke:#4c72b0;" x="346.168225" xlink:href="#m9a67520a1f" y="118.262434"/>
     <use style="fill:#4c72b0;stroke:#4c72b0;" x="259.039887" xlink:href="#m9a67520a1f" y="138.416259"/>
     <use style="fill:#4c72b0;stroke:#4c72b0;" x="377.745568" xlink:href="#m9a67520a1f" y="113.973574"/>
     <use style="fill:#4c72b0;stroke:#4c72b0;" x="279.960988" xlink:href="#m9a67520a1f" y="138.384337"/>
     <use style="fill:#4c72b0;stroke:#4c72b0;" x="184.747498" xlink:href="#m9a67520a1f" y="160.689242"/>
     <use style="fill:#4c72b0;stroke:#4c72b0;" x="263.308053" xlink:href="#m9a67520a1f" y="145.261868"/>
     <use style="fill:#4c72b0;stroke:#4c72b0;" x="264.093056" xlink:href="#m9a67520a1f" y="143.964802"/>
     <use style="fill:#4c72b0;stroke:#4c72b0;" x="189.77009" xlink:href="#m9a67520a1f" y="149.888353"/>
     <use style="fill:#4c72b0;stroke:#4c72b0;" x="276.055408" xlink:href="#m9a67520a1f" y="147.109635"/>
     <use style="fill:#4c72b0;stroke:#4c72b0;" x="208.995339" xlink:href="#m9a67520a1f" y="104.569926"/>
     <use style="fill:#4c72b0;stroke:#4c72b0;" x="139.280926" xlink:href="#m9a67520a1f" y="151.182878"/>
     <use style="fill:#4c72b0;stroke:#4c72b0;" x="334.047231" xlink:href="#m9a67520a1f" y="128.593511"/>
     <use style="fill:#4c72b0;stroke:#4c72b0;" x="280.252066" xlink:href="#m9a67520a1f" y="131.863582"/>
     <use style="fill:#4c72b0;stroke:#4c72b0;" x="327.939984" xlink:href="#m9a67520a1f" y="131.062819"/>
     <use style="fill:#4c72b0;stroke:#4c72b0;" x="291.675861" xlink:href="#m9a67520a1f" y="140.605495"/>
     <use style="fill:#4c72b0;stroke:#4c72b0;" x="179.026291" xlink:href="#m9a67520a1f" y="143.822568"/>
     <use style="fill:#4c72b0;stroke:#4c72b0;" x="202.368114" xlink:href="#m9a67520a1f" y="152.539087"/>
     <use style="fill:#4c72b0;stroke:#4c72b0;" x="278.54059" xlink:href="#m9a67520a1f" y="146.355857"/>
     <use style="fill:#4c72b0;stroke:#4c72b0;" x="301.897816" xlink:href="#m9a67520a1f" y="119.053599"/>
     <use style="fill:#4c72b0;stroke:#4c72b0;" x="284.27787" xlink:href="#m9a67520a1f" y="141.493557"/>
     <use style="fill:#4c72b0;stroke:#4c72b0;" x="212.630852" xlink:href="#m9a67520a1f" y="161.812343"/>
     <use style="fill:#4c72b0;stroke:#4c72b0;" x="132.355893" xlink:href="#m9a67520a1f" y="156.47893"/>
     <use style="fill:#4c72b0;stroke:#4c72b0;" x="349.020128" xlink:href="#m9a67520a1f" y="119.19709"/>
     <use style="fill:#4c72b0;stroke:#4c72b0;" x="305.289228" xlink:href="#m9a67520a1f" y="125.893623"/>
     <use style="fill:#4c72b0;stroke:#4c72b0;" x="231.445484" xlink:href="#m9a67520a1f" y="157.75291"/>
     <use style="fill:#4c72b0;stroke:#4c72b0;" x="250.015502" xlink:href="#m9a67520a1f" y="152.273614"/>
     <use style="fill:#4c72b0;stroke:#4c72b0;" x="314.994988" xlink:href="#m9a67520a1f" y="130.170181"/>
     <use style="fill:#4c72b0;stroke:#4c72b0;" x="180.195843" xlink:href="#m9a67520a1f" y="142.211037"/>
     <use style="fill:#4c72b0;stroke:#4c72b0;" x="289.246985" xlink:href="#m9a67520a1f" y="104.526398"/>
     <use style="fill:#4c72b0;stroke:#4c72b0;" x="356.358429" xlink:href="#m9a67520a1f" y="106.863605"/>
     <use style="fill:#4c72b0;stroke:#4c72b0;" x="365.467335" xlink:href="#m9a67520a1f" y="112.764217"/>
     <use style="fill:#4c72b0;stroke:#4c72b0;" x="291.101189" xlink:href="#m9a67520a1f" y="134.41329"/>
     <use style="fill:#4c72b0;stroke:#4c72b0;" x="268.655838" xlink:href="#m9a67520a1f" y="148.060436"/>
     <use style="fill:#4c72b0;stroke:#4c72b0;" x="239.294921" xlink:href="#m9a67520a1f" y="142.363304"/>
     <use style="fill:#4c72b0;stroke:#4c72b0;" x="136.92726" xlink:href="#m9a67520a1f" y="148.68458"/>
     <use style="fill:#4c72b0;stroke:#4c72b0;" x="230.745652" xlink:href="#m9a67520a1f" y="145.698662"/>
     <use style="fill:#4c72b0;stroke:#4c72b0;" x="328.764754" xlink:href="#m9a67520a1f" y="127.979992"/>
     <use style="fill:#4c72b0;stroke:#4c72b0;" x="175.347957" xlink:href="#m9a67520a1f" y="152.288473"/>
     <use style="fill:#4c72b0;stroke:#4c72b0;" x="280.777821" xlink:href="#m9a67520a1f" y="149.497037"/>
     <use style="fill:#4c72b0;stroke:#4c72b0;" x="290.190882" xlink:href="#m9a67520a1f" y="145.354966"/>
     <use style="fill:#4c72b0;stroke:#4c72b0;" x="214.854931" xlink:href="#m9a67520a1f" y="162.310041"/>
     <use style="fill:#4c72b0;stroke:#4c72b0;" x="253.536524" xlink:href="#m9a67520a1f" y="140.995467"/>
     <use style="fill:#4c72b0;stroke:#4c72b0;" x="356.230354" xlink:href="#m9a67520a1f" y="115.253368"/>
     <use style="fill:#4c72b0;stroke:#4c72b0;" x="190.199676" xlink:href="#m9a67520a1f" y="144.453671"/>
     <use style="fill:#4c72b0;stroke:#4c72b0;" x="271.645538" xlink:href="#m9a67520a1f" y="133.783594"/>
     <use style="fill:#4c72b0;stroke:#4c72b0;" x="283.234631" xlink:href="#m9a67520a1f" y="131.838186"/>
    </g>
   </g>
   <g id="line2d_10">
    <defs>
     <path d="M 0 1.5 
C 0.397805 1.5 0.77937 1.341951 1.06066 1.06066 
C 1.341951 0.77937 1.5 0.397805 1.5 0 
C 1.5 -0.397805 1.341951 -0.77937 1.06066 -1.06066 
C 0.77937 -1.341951 0.397805 -1.5 0 -1.5 
C -0.397805 -1.5 -0.77937 -1.341951 -1.06066 -1.06066 
C -1.341951 -0.77937 -1.5 -0.397805 -1.5 0 
C -1.5 0.397805 -1.341951 0.77937 -1.06066 1.06066 
C -0.77937 1.341951 -0.397805 1.5 0 1.5 
z
" id="mebceed23f4" style="stroke:#dd8452;"/>
    </defs>
    <g clip-path="url(#p62e4e4ccf2)">
     <use style="fill:#dd8452;stroke:#dd8452;" x="138.154787" xlink:href="#mebceed23f4" y="133.570985"/>
     <use style="fill:#dd8452;stroke:#dd8452;" x="273.587105" xlink:href="#mebceed23f4" y="99.819544"/>
     <use style="fill:#dd8452;stroke:#dd8452;" x="240.728708" xlink:href="#mebceed23f4" y="148.730085"/>
     <use style="fill:#dd8452;stroke:#dd8452;" x="222.638789" xlink:href="#mebceed23f4" y="140.719729"/>
     <use style="fill:#dd8452;stroke:#dd8452;" x="210.671905" xlink:href="#mebceed23f4" y="138.762973"/>
     <use style="fill:#dd8452;stroke:#dd8452;" x="264.301624" xlink:href="#mebceed23f4" y="75.192047"/>
     <use style="fill:#dd8452;stroke:#dd8452;" x="246.352798" xlink:href="#mebceed23f4" y="147.895788"/>
     <use style="fill:#dd8452;stroke:#dd8452;" x="106.143757" xlink:href="#mebceed23f4" y="79.063127"/>
     <use style="fill:#dd8452;stroke:#dd8452;" x="258.629862" xlink:href="#mebceed23f4" y="89.588358"/>
     <use style="fill:#dd8452;stroke:#dd8452;" x="97.778566" xlink:href="#mebceed23f4" y="145.174546"/>
     <use style="fill:#dd8452;stroke:#dd8452;" x="292.748512" xlink:href="#mebceed23f4" y="93.46969"/>
     <use style="fill:#dd8452;stroke:#dd8452;" x="321.333713" xlink:href="#mebceed23f4" y="59.996633"/>
     <use style="fill:#dd8452;stroke:#dd8452;" x="225.995603" xlink:href="#mebceed23f4" y="112.720339"/>
     <use style="fill:#dd8452;stroke:#dd8452;" x="253.260363" xlink:href="#mebceed23f4" y="91.629178"/>
     <use style="fill:#dd8452;stroke:#dd8452;" x="272.657928" xlink:href="#mebceed23f4" y="131.106676"/>
     <use style="fill:#dd8452;stroke:#dd8452;" x="339.972831" xlink:href="#mebceed23f4" y="55.978936"/>
     <use style="fill:#dd8452;stroke:#dd8452;" x="187.063292" xlink:href="#mebceed23f4" y="144.507974"/>
     <use style="fill:#dd8452;stroke:#dd8452;" x="201.190567" xlink:href="#mebceed23f4" y="174.9832"/>
     <use style="fill:#dd8452;stroke:#dd8452;" x="223.966857" xlink:href="#mebceed23f4" y="138.932799"/>
     <use style="fill:#dd8452;stroke:#dd8452;" x="273.892825" xlink:href="#mebceed23f4" y="88.140384"/>
     <use style="fill:#dd8452;stroke:#dd8452;" x="341.248579" xlink:href="#mebceed23f4" y="68.137777"/>
     <use style="fill:#dd8452;stroke:#dd8452;" x="216.698988" xlink:href="#mebceed23f4" y="132.769147"/>
     <use style="fill:#dd8452;stroke:#dd8452;" x="225.548102" xlink:href="#mebceed23f4" y="122.897833"/>
     <use style="fill:#dd8452;stroke:#dd8452;" x="197.19974" xlink:href="#mebceed23f4" y="135.233858"/>
     <use style="fill:#dd8452;stroke:#dd8452;" x="224.644067" xlink:href="#mebceed23f4" y="120.776917"/>
     <use style="fill:#dd8452;stroke:#dd8452;" x="316.197889" xlink:href="#mebceed23f4" y="17.083636"/>
     <use style="fill:#dd8452;stroke:#dd8452;" x="117.392125" xlink:href="#mebceed23f4" y="122.956249"/>
     <use style="fill:#dd8452;stroke:#dd8452;" x="317.606562" xlink:href="#mebceed23f4" y="87.484227"/>
     <use style="fill:#dd8452;stroke:#dd8452;" x="265.639597" xlink:href="#mebceed23f4" y="107.341425"/>
     <use style="fill:#dd8452;stroke:#dd8452;" x="259.252923" xlink:href="#mebceed23f4" y="136.628386"/>
     <use style="fill:#dd8452;stroke:#dd8452;" x="254.798752" xlink:href="#mebceed23f4" y="138.963754"/>
     <use style="fill:#dd8452;stroke:#dd8452;" x="73.381932" xlink:href="#mebceed23f4" y="167.215126"/>
     <use style="fill:#dd8452;stroke:#dd8452;" x="313.00141" xlink:href="#mebceed23f4" y="34.912921"/>
     <use style="fill:#dd8452;stroke:#dd8452;" x="244.576035" xlink:href="#mebceed23f4" y="129.351312"/>
     <use style="fill:#dd8452;stroke:#dd8452;" x="150.261564" xlink:href="#mebceed23f4" y="173.131807"/>
     <use style="fill:#dd8452;stroke:#dd8452;" x="149.539532" xlink:href="#mebceed23f4" y="172.094926"/>
     <use style="fill:#dd8452;stroke:#dd8452;" x="263.866042" xlink:href="#mebceed23f4" y="105.540489"/>
     <use style="fill:#dd8452;stroke:#dd8452;" x="113.797474" xlink:href="#mebceed23f4" y="153.348906"/>
     <use style="fill:#dd8452;stroke:#dd8452;" x="330.022978" xlink:href="#mebceed23f4" y="61.290359"/>
     <use style="fill:#dd8452;stroke:#dd8452;" x="253.660072" xlink:href="#mebceed23f4" y="96.475461"/>
     <use style="fill:#dd8452;stroke:#dd8452;" x="313.429448" xlink:href="#mebceed23f4" y="113.978143"/>
     <use style="fill:#dd8452;stroke:#dd8452;" x="276.308286" xlink:href="#mebceed23f4" y="125.860238"/>
     <use style="fill:#dd8452;stroke:#dd8452;" x="184.926955" xlink:href="#mebceed23f4" y="159.576761"/>
     <use style="fill:#dd8452;stroke:#dd8452;" x="291.162103" xlink:href="#mebceed23f4" y="94.130155"/>
     <use style="fill:#dd8452;stroke:#dd8452;" x="283.714479" xlink:href="#mebceed23f4" y="77.751607"/>
     <use style="fill:#dd8452;stroke:#dd8452;" x="303.914129" xlink:href="#mebceed23f4" y="110.489359"/>
     <use style="fill:#dd8452;stroke:#dd8452;" x="200.533077" xlink:href="#mebceed23f4" y="103.657773"/>
     <use style="fill:#dd8452;stroke:#dd8452;" x="325.015006" xlink:href="#mebceed23f4" y="86.320353"/>
     <use style="fill:#dd8452;stroke:#dd8452;" x="344.783281" xlink:href="#mebceed23f4" y="52.060241"/>
     <use style="fill:#dd8452;stroke:#dd8452;" x="298.147025" xlink:href="#mebceed23f4" y="85.638105"/>
     <use style="fill:#dd8452;stroke:#dd8452;" x="337.533991" xlink:href="#mebceed23f4" y="73.566014"/>
     <use style="fill:#dd8452;stroke:#dd8452;" x="268.303734" xlink:href="#mebceed23f4" y="110.823087"/>
     <use style="fill:#dd8452;stroke:#dd8452;" x="227.181225" xlink:href="#mebceed23f4" y="167.78885"/>
     <use style="fill:#dd8452;stroke:#dd8452;" x="200.631771" xlink:href="#mebceed23f4" y="183.417679"/>
     <use style="fill:#dd8452;stroke:#dd8452;" x="346.168225" xlink:href="#mebceed23f4" y="57.874075"/>
     <use style="fill:#dd8452;stroke:#dd8452;" x="259.039887" xlink:href="#mebceed23f4" y="103.451001"/>
     <use style="fill:#dd8452;stroke:#dd8452;" x="377.745568" xlink:href="#mebceed23f4" y="42.895177"/>
     <use style="fill:#dd8452;stroke:#dd8452;" x="279.960988" xlink:href="#mebceed23f4" y="107.265151"/>
     <use style="fill:#dd8452;stroke:#dd8452;" x="184.747498" xlink:href="#mebceed23f4" y="160.265971"/>
     <use style="fill:#dd8452;stroke:#dd8452;" x="263.308053" xlink:href="#mebceed23f4" y="124.857824"/>
     <use style="fill:#dd8452;stroke:#dd8452;" x="264.093056" xlink:href="#mebceed23f4" y="119.161428"/>
     <use style="fill:#dd8452;stroke:#dd8452;" x="189.77009" xlink:href="#mebceed23f4" y="144.798065"/>
     <use style="fill:#dd8452;stroke:#dd8452;" x="276.055408" xlink:href="#mebceed23f4" y="126.207118"/>
     <use style="fill:#dd8452;stroke:#dd8452;" x="208.995339" xlink:href="#mebceed23f4" y="24.931725"/>
     <use style="fill:#dd8452;stroke:#dd8452;" x="139.280926" xlink:href="#mebceed23f4" y="140.916039"/>
     <use style="fill:#dd8452;stroke:#dd8452;" x="334.047231" xlink:href="#mebceed23f4" y="80.808557"/>
     <use style="fill:#dd8452;stroke:#dd8452;" x="280.252066" xlink:href="#mebceed23f4" y="86.112052"/>
     <use style="fill:#dd8452;stroke:#dd8452;" x="327.939984" xlink:href="#mebceed23f4" y="84.90562"/>
     <use style="fill:#dd8452;stroke:#dd8452;" x="291.675861" xlink:href="#mebceed23f4" y="119.607124"/>
     <use style="fill:#dd8452;stroke:#dd8452;" x="179.026291" xlink:href="#mebceed23f4" y="118.535734"/>
     <use style="fill:#dd8452;stroke:#dd8452;" x="202.368114" xlink:href="#mebceed23f4" y="139.477347"/>
     <use style="fill:#dd8452;stroke:#dd8452;" x="278.54059" xlink:href="#mebceed23f4" y="125.664349"/>
     <use style="fill:#dd8452;stroke:#dd8452;" x="301.897816" xlink:href="#mebceed23f4" y="50.524219"/>
     <use style="fill:#dd8452;stroke:#dd8452;" x="284.27787" xlink:href="#mebceed23f4" y="113.337942"/>
     <use style="fill:#dd8452;stroke:#dd8452;" x="212.630852" xlink:href="#mebceed23f4" y="160.558133"/>
     <use style="fill:#dd8452;stroke:#dd8452;" x="132.355893" xlink:href="#mebceed23f4" y="152.308815"/>
     <use style="fill:#dd8452;stroke:#dd8452;" x="349.020128" xlink:href="#mebceed23f4" y="59.35146"/>
     <use style="fill:#dd8452;stroke:#dd8452;" x="305.289228" xlink:href="#mebceed23f4" y="73.969277"/>
     <use style="fill:#dd8452;stroke:#dd8452;" x="231.445484" xlink:href="#mebceed23f4" y="158.809398"/>
     <use style="fill:#dd8452;stroke:#dd8452;" x="250.015502" xlink:href="#mebceed23f4" y="137.09615"/>
     <use style="fill:#dd8452;stroke:#dd8452;" x="314.994988" xlink:href="#mebceed23f4" y="95.261379"/>
     <use style="fill:#dd8452;stroke:#dd8452;" x="180.195843" xlink:href="#mebceed23f4" y="108.189614"/>
     <use style="fill:#dd8452;stroke:#dd8452;" x="289.246985" xlink:href="#mebceed23f4" y="31.088594"/>
     <use style="fill:#dd8452;stroke:#dd8452;" x="356.358429" xlink:href="#mebceed23f4" y="35.544807"/>
     <use style="fill:#dd8452;stroke:#dd8452;" x="365.467335" xlink:href="#mebceed23f4" y="43.909045"/>
     <use style="fill:#dd8452;stroke:#dd8452;" x="291.101189" xlink:href="#mebceed23f4" y="100.12965"/>
     <use style="fill:#dd8452;stroke:#dd8452;" x="268.655838" xlink:href="#mebceed23f4" y="134.105657"/>
     <use style="fill:#dd8452;stroke:#dd8452;" x="239.294921" xlink:href="#mebceed23f4" y="106.948851"/>
     <use style="fill:#dd8452;stroke:#dd8452;" x="136.92726" xlink:href="#mebceed23f4" y="126.324386"/>
     <use style="fill:#dd8452;stroke:#dd8452;" x="230.745652" xlink:href="#mebceed23f4" y="123.900081"/>
     <use style="fill:#dd8452;stroke:#dd8452;" x="328.764754" xlink:href="#mebceed23f4" y="88.319"/>
     <use style="fill:#dd8452;stroke:#dd8452;" x="175.347957" xlink:href="#mebceed23f4" y="144.887361"/>
     <use style="fill:#dd8452;stroke:#dd8452;" x="280.777821" xlink:href="#mebceed23f4" y="132.833144"/>
     <use style="fill:#dd8452;stroke:#dd8452;" x="290.190882" xlink:href="#mebceed23f4" y="121.117368"/>
     <use style="fill:#dd8452;stroke:#dd8452;" x="214.854931" xlink:href="#mebceed23f4" y="159.369621"/>
     <use style="fill:#dd8452;stroke:#dd8452;" x="253.536524" xlink:href="#mebceed23f4" y="104.441382"/>
     <use style="fill:#dd8452;stroke:#dd8452;" x="356.230354" xlink:href="#mebceed23f4" y="55.948582"/>
     <use style="fill:#dd8452;stroke:#dd8452;" x="190.199676" xlink:href="#mebceed23f4" y="122.317579"/>
     <use style="fill:#dd8452;stroke:#dd8452;" x="271.645538" xlink:href="#mebceed23f4" y="93.853626"/>
     <use style="fill:#dd8452;stroke:#dd8452;" x="283.234631" xlink:href="#mebceed23f4" y="77.345071"/>
    </g>
   </g>
   <g id="line2d_11">
    <path clip-path="url(#p62e4e4ccf2)" d="M 131.503259 214.756364 
L 362.301869 46.590037 
" style="fill:none;stroke:#1a1a1a;stroke-dasharray:1.5,2.475;stroke-dashoffset:0;stroke-width:1.5;"/>
   </g>
   <g id="patch_3">
    <path d="M 58.16375 224.64 
L 58.16375 7.2 
" style="fill:none;stroke:#ffffff;stroke-linecap:square;stroke-linejoin:miter;stroke-width:1.25;"/>
   </g>
   <g id="patch_4">
    <path d="M 392.96375 224.64 
L 392.96375 7.2 
" style="fill:none;stroke:#ffffff;stroke-linecap:square;stroke-linejoin:miter;stroke-width:1.25;"/>
   </g>
   <g id="patch_5">
    <path d="M 58.16375 224.64 
L 392.96375 224.64 
" style="fill:none;stroke:#ffffff;stroke-linecap:square;stroke-linejoin:miter;stroke-width:1.25;"/>
   </g>
   <g id="patch_6">
    <path d="M 58.16375 7.2 
L 392.96375 7.2 
" style="fill:none;stroke:#ffffff;stroke-linecap:square;stroke-linejoin:miter;stroke-width:1.25;"/>
   </g>
   <g id="legend_1">
    <g id="patch_7">
     <path d="M 65.86375 64.437812 
L 255.618906 64.437812 
Q 257.818906 64.437812 257.818906 62.237812 
L 257.818906 14.9 
Q 257.818906 12.7 255.618906 12.7 
L 65.86375 12.7 
Q 63.66375 12.7 63.66375 14.9 
L 63.66375 62.237812 
Q 63.66375 64.437812 65.86375 64.437812 
z
" style="fill:#eaeaf2;opacity:0.8;stroke:#cccccc;stroke-linejoin:miter;"/>
    </g>
    <g id="line2d_12"/>
    <g id="line2d_13">
     <g>
      <use style="fill:#4c72b0;stroke:#4c72b0;" x="79.06375" xlink:href="#m9a67520a1f" y="21.608281"/>
     </g>
    </g>
    <g id="text_11">
     <!-- Regular model predictions -->
     <defs>
      <path d="M 44.390625 34.1875 
Q 47.5625 33.109375 50.5625 29.59375 
Q 53.5625 26.078125 56.59375 19.921875 
L 66.609375 0 
L 56 0 
L 46.6875 18.703125 
Q 43.0625 26.03125 39.671875 28.421875 
Q 36.28125 30.8125 30.421875 30.8125 
L 19.671875 30.8125 
L 19.671875 0 
L 9.8125 0 
L 9.8125 72.90625 
L 32.078125 72.90625 
Q 44.578125 72.90625 50.734375 67.671875 
Q 56.890625 62.453125 56.890625 51.90625 
Q 56.890625 45.015625 53.6875 40.46875 
Q 50.484375 35.9375 44.390625 34.1875 
z
M 19.671875 64.796875 
L 19.671875 38.921875 
L 32.078125 38.921875 
Q 39.203125 38.921875 42.84375 42.21875 
Q 46.484375 45.515625 46.484375 51.90625 
Q 46.484375 58.296875 42.84375 61.546875 
Q 39.203125 64.796875 32.078125 64.796875 
z
" id="DejaVuSans-82"/>
      <path d="M 45.40625 27.984375 
Q 45.40625 37.75 41.375 43.109375 
Q 37.359375 48.484375 30.078125 48.484375 
Q 22.859375 48.484375 18.828125 43.109375 
Q 14.796875 37.75 14.796875 27.984375 
Q 14.796875 18.265625 18.828125 12.890625 
Q 22.859375 7.515625 30.078125 7.515625 
Q 37.359375 7.515625 41.375 12.890625 
Q 45.40625 18.265625 45.40625 27.984375 
z
M 54.390625 6.78125 
Q 54.390625 -7.171875 48.1875 -13.984375 
Q 42 -20.796875 29.203125 -20.796875 
Q 24.46875 -20.796875 20.265625 -20.09375 
Q 16.0625 -19.390625 12.109375 -17.921875 
L 12.109375 -9.1875 
Q 16.0625 -11.328125 19.921875 -12.34375 
Q 23.78125 -13.375 27.78125 -13.375 
Q 36.625 -13.375 41.015625 -8.765625 
Q 45.40625 -4.15625 45.40625 5.171875 
L 45.40625 9.625 
Q 42.625 4.78125 38.28125 2.390625 
Q 33.9375 0 27.875 0 
Q 17.828125 0 11.671875 7.65625 
Q 5.515625 15.328125 5.515625 27.984375 
Q 5.515625 40.671875 11.671875 48.328125 
Q 17.828125 56 27.875 56 
Q 33.9375 56 38.28125 53.609375 
Q 42.625 51.21875 45.40625 46.390625 
L 45.40625 54.6875 
L 54.390625 54.6875 
z
" id="DejaVuSans-103"/>
      <path d="M 9.421875 75.984375 
L 18.40625 75.984375 
L 18.40625 0 
L 9.421875 0 
z
" id="DejaVuSans-108"/>
      <path d="M 34.28125 27.484375 
Q 23.390625 27.484375 19.1875 25 
Q 14.984375 22.515625 14.984375 16.5 
Q 14.984375 11.71875 18.140625 8.90625 
Q 21.296875 6.109375 26.703125 6.109375 
Q 34.1875 6.109375 38.703125 11.40625 
Q 43.21875 16.703125 43.21875 25.484375 
L 43.21875 27.484375 
z
M 52.203125 31.203125 
L 52.203125 0 
L 43.21875 0 
L 43.21875 8.296875 
Q 40.140625 3.328125 35.546875 0.953125 
Q 30.953125 -1.421875 24.3125 -1.421875 
Q 15.921875 -1.421875 10.953125 3.296875 
Q 6 8.015625 6 15.921875 
Q 6 25.140625 12.171875 29.828125 
Q 18.359375 34.515625 30.609375 34.515625 
L 43.21875 34.515625 
L 43.21875 35.40625 
Q 43.21875 41.609375 39.140625 45 
Q 35.0625 48.390625 27.6875 48.390625 
Q 23 48.390625 18.546875 47.265625 
Q 14.109375 46.140625 10.015625 43.890625 
L 10.015625 52.203125 
Q 14.9375 54.109375 19.578125 55.046875 
Q 24.21875 56 28.609375 56 
Q 40.484375 56 46.34375 49.84375 
Q 52.203125 43.703125 52.203125 31.203125 
z
" id="DejaVuSans-97"/>
      <path d="M 18.109375 8.203125 
L 18.109375 -20.796875 
L 9.078125 -20.796875 
L 9.078125 54.6875 
L 18.109375 54.6875 
L 18.109375 46.390625 
Q 20.953125 51.265625 25.265625 53.625 
Q 29.59375 56 35.59375 56 
Q 45.5625 56 51.78125 48.09375 
Q 58.015625 40.1875 58.015625 27.296875 
Q 58.015625 14.40625 51.78125 6.484375 
Q 45.5625 -1.421875 35.59375 -1.421875 
Q 29.59375 -1.421875 25.265625 0.953125 
Q 20.953125 3.328125 18.109375 8.203125 
z
M 48.6875 27.296875 
Q 48.6875 37.203125 44.609375 42.84375 
Q 40.53125 48.484375 33.40625 48.484375 
Q 26.265625 48.484375 22.1875 42.84375 
Q 18.109375 37.203125 18.109375 27.296875 
Q 18.109375 17.390625 22.1875 11.75 
Q 26.265625 6.109375 33.40625 6.109375 
Q 40.53125 6.109375 44.609375 11.75 
Q 48.6875 17.390625 48.6875 27.296875 
z
" id="DejaVuSans-112"/>
      <path d="M 44.28125 53.078125 
L 44.28125 44.578125 
Q 40.484375 46.53125 36.375 47.5 
Q 32.28125 48.484375 27.875 48.484375 
Q 21.1875 48.484375 17.84375 46.4375 
Q 14.5 44.390625 14.5 40.28125 
Q 14.5 37.15625 16.890625 35.375 
Q 19.28125 33.59375 26.515625 31.984375 
L 29.59375 31.296875 
Q 39.15625 29.25 43.1875 25.515625 
Q 47.21875 21.78125 47.21875 15.09375 
Q 47.21875 7.46875 41.1875 3.015625 
Q 35.15625 -1.421875 24.609375 -1.421875 
Q 20.21875 -1.421875 15.453125 -0.5625 
Q 10.6875 0.296875 5.421875 2 
L 5.421875 11.28125 
Q 10.40625 8.6875 15.234375 7.390625 
Q 20.0625 6.109375 24.8125 6.109375 
Q 31.15625 6.109375 34.5625 8.28125 
Q 37.984375 10.453125 37.984375 14.40625 
Q 37.984375 18.0625 35.515625 20.015625 
Q 33.0625 21.96875 24.703125 23.78125 
L 21.578125 24.515625 
Q 13.234375 26.265625 9.515625 29.90625 
Q 5.8125 33.546875 5.8125 39.890625 
Q 5.8125 47.609375 11.28125 51.796875 
Q 16.75 56 26.8125 56 
Q 31.78125 56 36.171875 55.265625 
Q 40.578125 54.546875 44.28125 53.078125 
z
" id="DejaVuSans-115"/>
     </defs>
     <g style="fill:#262626;" transform="translate(98.86375 25.458281)scale(0.11 -0.11)">
      <use xlink:href="#DejaVuSans-82"/>
      <use x="69.419922" xlink:href="#DejaVuSans-101"/>
      <use x="130.943359" xlink:href="#DejaVuSans-103"/>
      <use x="194.419922" xlink:href="#DejaVuSans-117"/>
      <use x="257.798828" xlink:href="#DejaVuSans-108"/>
      <use x="285.582031" xlink:href="#DejaVuSans-97"/>
      <use x="346.861328" xlink:href="#DejaVuSans-114"/>
      <use x="387.974609" xlink:href="#DejaVuSans-32"/>
      <use x="419.761719" xlink:href="#DejaVuSans-109"/>
      <use x="517.173828" xlink:href="#DejaVuSans-111"/>
      <use x="578.355469" xlink:href="#DejaVuSans-100"/>
      <use x="641.832031" xlink:href="#DejaVuSans-101"/>
      <use x="703.355469" xlink:href="#DejaVuSans-108"/>
      <use x="731.138672" xlink:href="#DejaVuSans-32"/>
      <use x="762.925781" xlink:href="#DejaVuSans-112"/>
      <use x="826.402344" xlink:href="#DejaVuSans-114"/>
      <use x="867.484375" xlink:href="#DejaVuSans-101"/>
      <use x="929.007812" xlink:href="#DejaVuSans-100"/>
      <use x="992.484375" xlink:href="#DejaVuSans-105"/>
      <use x="1020.267578" xlink:href="#DejaVuSans-99"/>
      <use x="1075.248047" xlink:href="#DejaVuSans-116"/>
      <use x="1114.457031" xlink:href="#DejaVuSans-105"/>
      <use x="1142.240234" xlink:href="#DejaVuSans-111"/>
      <use x="1203.421875" xlink:href="#DejaVuSans-110"/>
      <use x="1266.800781" xlink:href="#DejaVuSans-115"/>
     </g>
    </g>
    <g id="line2d_14"/>
    <g id="line2d_15">
     <g>
      <use style="fill:#dd8452;stroke:#dd8452;" x="79.06375" xlink:href="#mebceed23f4" y="37.754219"/>
     </g>
    </g>
    <g id="text_12">
     <!-- Censored model predictions -->
     <defs>
      <path d="M 64.40625 67.28125 
L 64.40625 56.890625 
Q 59.421875 61.53125 53.78125 63.8125 
Q 48.140625 66.109375 41.796875 66.109375 
Q 29.296875 66.109375 22.65625 58.46875 
Q 16.015625 50.828125 16.015625 36.375 
Q 16.015625 21.96875 22.65625 14.328125 
Q 29.296875 6.6875 41.796875 6.6875 
Q 48.140625 6.6875 53.78125 8.984375 
Q 59.421875 11.28125 64.40625 15.921875 
L 64.40625 5.609375 
Q 59.234375 2.09375 53.4375 0.328125 
Q 47.65625 -1.421875 41.21875 -1.421875 
Q 24.65625 -1.421875 15.125 8.703125 
Q 5.609375 18.84375 5.609375 36.375 
Q 5.609375 53.953125 15.125 64.078125 
Q 24.65625 74.21875 41.21875 74.21875 
Q 47.75 74.21875 53.53125 72.484375 
Q 59.328125 70.75 64.40625 67.28125 
z
" id="DejaVuSans-67"/>
     </defs>
     <g style="fill:#262626;" transform="translate(98.86375 41.604219)scale(0.11 -0.11)">
      <use xlink:href="#DejaVuSans-67"/>
      <use x="69.824219" xlink:href="#DejaVuSans-101"/>
      <use x="131.347656" xlink:href="#DejaVuSans-110"/>
      <use x="194.726562" xlink:href="#DejaVuSans-115"/>
      <use x="246.826172" xlink:href="#DejaVuSans-111"/>
      <use x="308.007812" xlink:href="#DejaVuSans-114"/>
      <use x="349.089844" xlink:href="#DejaVuSans-101"/>
      <use x="410.613281" xlink:href="#DejaVuSans-100"/>
      <use x="474.089844" xlink:href="#DejaVuSans-32"/>
      <use x="505.876953" xlink:href="#DejaVuSans-109"/>
      <use x="603.289062" xlink:href="#DejaVuSans-111"/>
      <use x="664.470703" xlink:href="#DejaVuSans-100"/>
      <use x="727.947266" xlink:href="#DejaVuSans-101"/>
      <use x="789.470703" xlink:href="#DejaVuSans-108"/>
      <use x="817.253906" xlink:href="#DejaVuSans-32"/>
      <use x="849.041016" xlink:href="#DejaVuSans-112"/>
      <use x="912.517578" xlink:href="#DejaVuSans-114"/>
      <use x="953.599609" xlink:href="#DejaVuSans-101"/>
      <use x="1015.123047" xlink:href="#DejaVuSans-100"/>
      <use x="1078.599609" xlink:href="#DejaVuSans-105"/>
      <use x="1106.382812" xlink:href="#DejaVuSans-99"/>
      <use x="1161.363281" xlink:href="#DejaVuSans-116"/>
      <use x="1200.572266" xlink:href="#DejaVuSans-105"/>
      <use x="1228.355469" xlink:href="#DejaVuSans-111"/>
      <use x="1289.537109" xlink:href="#DejaVuSans-110"/>
      <use x="1352.916016" xlink:href="#DejaVuSans-115"/>
     </g>
    </g>
    <g id="line2d_16">
     <path d="M 68.06375 53.900156 
L 90.06375 53.900156 
" style="fill:none;stroke:#1a1a1a;stroke-dasharray:1.5,2.475;stroke-dashoffset:0;stroke-width:1.5;"/>
    </g>
    <g id="line2d_17"/>
    <g id="text_13">
     <!-- True -->
     <g style="fill:#262626;" transform="translate(98.86375 57.750156)scale(0.11 -0.11)">
      <use xlink:href="#DejaVuSans-84"/>
      <use x="60.865234" xlink:href="#DejaVuSans-114"/>
      <use x="101.978516" xlink:href="#DejaVuSans-117"/>
      <use x="165.357422" xlink:href="#DejaVuSans-101"/>
     </g>
    </g>
   </g>
  </g>
 </g>
 <defs>
  <clipPath id="p62e4e4ccf2">
   <rect height="217.44" width="334.8" x="58.16375" y="7.2"/>
  </clipPath>
 </defs>
</svg>
