<?xml version="1.0" encoding="utf-8" standalone="no"?>
<!DOCTYPE svg PUBLIC "-//W3C//DTD SVG 1.1//EN"
  "http://www.w3.org/Graphics/SVG/1.1/DTD/svg11.dtd">
<!-- Created with matplotlib (https://matplotlib.org/) -->
<svg height="267.599688pt" version="1.1" viewBox="0 0 388.31125 267.599688" width="388.31125pt" xmlns="http://www.w3.org/2000/svg" xmlns:xlink="http://www.w3.org/1999/xlink">
 <defs>
  <style type="text/css">
*{stroke-linecap:butt;stroke-linejoin:round;}
  </style>
 </defs>
 <g id="figure_1">
  <g id="patch_1">
   <path d="M 0 267.599688 
L 388.31125 267.599688 
L 388.31125 0 
L 0 0 
z
" style="fill:#ffffff;"/>
  </g>
  <g id="axes_1">
   <g id="patch_2">
    <path d="M 46.31125 224.64 
L 381.11125 224.64 
L 381.11125 7.2 
L 46.31125 7.2 
z
" style="fill:#eaeaf2;"/>
   </g>
   <g id="matplotlib.axis_1">
    <g id="xtick_1">
     <g id="line2d_1">
      <path clip-path="url(#p1d24cd547f)" d="M 61.529432 224.64 
L 61.529432 7.2 
" style="fill:none;stroke:#ffffff;stroke-linecap:round;"/>
     </g>
     <g id="text_1">
      <!-- 0 -->
      <defs>
       <path d="M 31.78125 66.40625 
Q 24.171875 66.40625 20.328125 58.90625 
Q 16.5 51.421875 16.5 36.375 
Q 16.5 21.390625 20.328125 13.890625 
Q 24.171875 6.390625 31.78125 6.390625 
Q 39.453125 6.390625 43.28125 13.890625 
Q 47.125 21.390625 47.125 36.375 
Q 47.125 51.421875 43.28125 58.90625 
Q 39.453125 66.40625 31.78125 66.40625 
z
M 31.78125 74.21875 
Q 44.046875 74.21875 50.515625 64.515625 
Q 56.984375 54.828125 56.984375 36.375 
Q 56.984375 17.96875 50.515625 8.265625 
Q 44.046875 -1.421875 31.78125 -1.421875 
Q 19.53125 -1.421875 13.0625 8.265625 
Q 6.59375 17.96875 6.59375 36.375 
Q 6.59375 54.828125 13.0625 64.515625 
Q 19.53125 74.21875 31.78125 74.21875 
z
" id="DejaVuSans-48"/>
      </defs>
      <g style="fill:#262626;" transform="translate(58.030057 242.498281)scale(0.11 -0.11)">
       <use xlink:href="#DejaVuSans-48"/>
      </g>
     </g>
    </g>
    <g id="xtick_2">
     <g id="line2d_2">
      <path clip-path="url(#p1d24cd547f)" d="M 123.017035 224.64 
L 123.017035 7.2 
" style="fill:none;stroke:#ffffff;stroke-linecap:round;"/>
     </g>
     <g id="text_2">
      <!-- 20 -->
      <defs>
       <path d="M 19.1875 8.296875 
L 53.609375 8.296875 
L 53.609375 0 
L 7.328125 0 
L 7.328125 8.296875 
Q 12.9375 14.109375 22.625 23.890625 
Q 32.328125 33.6875 34.8125 36.53125 
Q 39.546875 41.84375 41.421875 45.53125 
Q 43.3125 49.21875 43.3125 52.78125 
Q 43.3125 58.59375 39.234375 62.25 
Q 35.15625 65.921875 28.609375 65.921875 
Q 23.96875 65.921875 18.8125 64.3125 
Q 13.671875 62.703125 7.8125 59.421875 
L 7.8125 69.390625 
Q 13.765625 71.78125 18.9375 73 
Q 24.125 74.21875 28.421875 74.21875 
Q 39.75 74.21875 46.484375 68.546875 
Q 53.21875 62.890625 53.21875 53.421875 
Q 53.21875 48.921875 51.53125 44.890625 
Q 49.859375 40.875 45.40625 35.40625 
Q 44.1875 33.984375 37.640625 27.21875 
Q 31.109375 20.453125 19.1875 8.296875 
z
" id="DejaVuSans-50"/>
      </defs>
      <g style="fill:#262626;" transform="translate(116.018285 242.498281)scale(0.11 -0.11)">
       <use xlink:href="#DejaVuSans-50"/>
       <use x="63.623047" xlink:href="#DejaVuSans-48"/>
      </g>
     </g>
    </g>
    <g id="xtick_3">
     <g id="line2d_3">
      <path clip-path="url(#p1d24cd547f)" d="M 184.504638 224.64 
L 184.504638 7.2 
" style="fill:none;stroke:#ffffff;stroke-linecap:round;"/>
     </g>
     <g id="text_3">
      <!-- 40 -->
      <defs>
       <path d="M 37.796875 64.3125 
L 12.890625 25.390625 
L 37.796875 25.390625 
z
M 35.203125 72.90625 
L 47.609375 72.90625 
L 47.609375 25.390625 
L 58.015625 25.390625 
L 58.015625 17.1875 
L 47.609375 17.1875 
L 47.609375 0 
L 37.796875 0 
L 37.796875 17.1875 
L 4.890625 17.1875 
L 4.890625 26.703125 
z
" id="DejaVuSans-52"/>
      </defs>
      <g style="fill:#262626;" transform="translate(177.505888 242.498281)scale(0.11 -0.11)">
       <use xlink:href="#DejaVuSans-52"/>
       <use x="63.623047" xlink:href="#DejaVuSans-48"/>
      </g>
     </g>
    </g>
    <g id="xtick_4">
     <g id="line2d_4">
      <path clip-path="url(#p1d24cd547f)" d="M 245.992242 224.64 
L 245.992242 7.2 
" style="fill:none;stroke:#ffffff;stroke-linecap:round;"/>
     </g>
     <g id="text_4">
      <!-- 60 -->
      <defs>
       <path d="M 33.015625 40.375 
Q 26.375 40.375 22.484375 35.828125 
Q 18.609375 31.296875 18.609375 23.390625 
Q 18.609375 15.53125 22.484375 10.953125 
Q 26.375 6.390625 33.015625 6.390625 
Q 39.65625 6.390625 43.53125 10.953125 
Q 47.40625 15.53125 47.40625 23.390625 
Q 47.40625 31.296875 43.53125 35.828125 
Q 39.65625 40.375 33.015625 40.375 
z
M 52.59375 71.296875 
L 52.59375 62.3125 
Q 48.875 64.0625 45.09375 64.984375 
Q 41.3125 65.921875 37.59375 65.921875 
Q 27.828125 65.921875 22.671875 59.328125 
Q 17.53125 52.734375 16.796875 39.40625 
Q 19.671875 43.65625 24.015625 45.921875 
Q 28.375 48.1875 33.59375 48.1875 
Q 44.578125 48.1875 50.953125 41.515625 
Q 57.328125 34.859375 57.328125 23.390625 
Q 57.328125 12.15625 50.6875 5.359375 
Q 44.046875 -1.421875 33.015625 -1.421875 
Q 20.359375 -1.421875 13.671875 8.265625 
Q 6.984375 17.96875 6.984375 36.375 
Q 6.984375 53.65625 15.1875 63.9375 
Q 23.390625 74.21875 37.203125 74.21875 
Q 40.921875 74.21875 44.703125 73.484375 
Q 48.484375 72.75 52.59375 71.296875 
z
" id="DejaVuSans-54"/>
      </defs>
      <g style="fill:#262626;" transform="translate(238.993492 242.498281)scale(0.11 -0.11)">
       <use xlink:href="#DejaVuSans-54"/>
       <use x="63.623047" xlink:href="#DejaVuSans-48"/>
      </g>
     </g>
    </g>
    <g id="xtick_5">
     <g id="line2d_5">
      <path clip-path="url(#p1d24cd547f)" d="M 307.479845 224.64 
L 307.479845 7.2 
" style="fill:none;stroke:#ffffff;stroke-linecap:round;"/>
     </g>
     <g id="text_5">
      <!-- 80 -->
      <defs>
       <path d="M 31.78125 34.625 
Q 24.75 34.625 20.71875 30.859375 
Q 16.703125 27.09375 16.703125 20.515625 
Q 16.703125 13.921875 20.71875 10.15625 
Q 24.75 6.390625 31.78125 6.390625 
Q 38.8125 6.390625 42.859375 10.171875 
Q 46.921875 13.96875 46.921875 20.515625 
Q 46.921875 27.09375 42.890625 30.859375 
Q 38.875 34.625 31.78125 34.625 
z
M 21.921875 38.8125 
Q 15.578125 40.375 12.03125 44.71875 
Q 8.5 49.078125 8.5 55.328125 
Q 8.5 64.0625 14.71875 69.140625 
Q 20.953125 74.21875 31.78125 74.21875 
Q 42.671875 74.21875 48.875 69.140625 
Q 55.078125 64.0625 55.078125 55.328125 
Q 55.078125 49.078125 51.53125 44.71875 
Q 48 40.375 41.703125 38.8125 
Q 48.828125 37.15625 52.796875 32.3125 
Q 56.78125 27.484375 56.78125 20.515625 
Q 56.78125 9.90625 50.3125 4.234375 
Q 43.84375 -1.421875 31.78125 -1.421875 
Q 19.734375 -1.421875 13.25 4.234375 
Q 6.78125 9.90625 6.78125 20.515625 
Q 6.78125 27.484375 10.78125 32.3125 
Q 14.796875 37.15625 21.921875 38.8125 
z
M 18.3125 54.390625 
Q 18.3125 48.734375 21.84375 45.5625 
Q 25.390625 42.390625 31.78125 42.390625 
Q 38.140625 42.390625 41.71875 45.5625 
Q 45.3125 48.734375 45.3125 54.390625 
Q 45.3125 60.0625 41.71875 63.234375 
Q 38.140625 66.40625 31.78125 66.40625 
Q 25.390625 66.40625 21.84375 63.234375 
Q 18.3125 60.0625 18.3125 54.390625 
z
" id="DejaVuSans-56"/>
      </defs>
      <g style="fill:#262626;" transform="translate(300.481095 242.498281)scale(0.11 -0.11)">
       <use xlink:href="#DejaVuSans-56"/>
       <use x="63.623047" xlink:href="#DejaVuSans-48"/>
      </g>
     </g>
    </g>
    <g id="xtick_6">
     <g id="line2d_6">
      <path clip-path="url(#p1d24cd547f)" d="M 368.967448 224.64 
L 368.967448 7.2 
" style="fill:none;stroke:#ffffff;stroke-linecap:round;"/>
     </g>
     <g id="text_6">
      <!-- 100 -->
      <defs>
       <path d="M 12.40625 8.296875 
L 28.515625 8.296875 
L 28.515625 63.921875 
L 10.984375 60.40625 
L 10.984375 69.390625 
L 28.421875 72.90625 
L 38.28125 72.90625 
L 38.28125 8.296875 
L 54.390625 8.296875 
L 54.390625 0 
L 12.40625 0 
z
" id="DejaVuSans-49"/>
      </defs>
      <g style="fill:#262626;" transform="translate(358.469323 242.498281)scale(0.11 -0.11)">
       <use xlink:href="#DejaVuSans-49"/>
       <use x="63.623047" xlink:href="#DejaVuSans-48"/>
       <use x="127.246094" xlink:href="#DejaVuSans-48"/>
      </g>
     </g>
    </g>
    <g id="text_7">
     <!-- Customer ID -->
     <defs>
      <path d="M 64.40625 67.28125 
L 64.40625 56.890625 
Q 59.421875 61.53125 53.78125 63.8125 
Q 48.140625 66.109375 41.796875 66.109375 
Q 29.296875 66.109375 22.65625 58.46875 
Q 16.015625 50.828125 16.015625 36.375 
Q 16.015625 21.96875 22.65625 14.328125 
Q 29.296875 6.6875 41.796875 6.6875 
Q 48.140625 6.6875 53.78125 8.984375 
Q 59.421875 11.28125 64.40625 15.921875 
L 64.40625 5.609375 
Q 59.234375 2.09375 53.4375 0.328125 
Q 47.65625 -1.421875 41.21875 -1.421875 
Q 24.65625 -1.421875 15.125 8.703125 
Q 5.609375 18.84375 5.609375 36.375 
Q 5.609375 53.953125 15.125 64.078125 
Q 24.65625 74.21875 41.21875 74.21875 
Q 47.75 74.21875 53.53125 72.484375 
Q 59.328125 70.75 64.40625 67.28125 
z
" id="DejaVuSans-67"/>
      <path d="M 8.5 21.578125 
L 8.5 54.6875 
L 17.484375 54.6875 
L 17.484375 21.921875 
Q 17.484375 14.15625 20.5 10.265625 
Q 23.53125 6.390625 29.59375 6.390625 
Q 36.859375 6.390625 41.078125 11.03125 
Q 45.3125 15.671875 45.3125 23.6875 
L 45.3125 54.6875 
L 54.296875 54.6875 
L 54.296875 0 
L 45.3125 0 
L 45.3125 8.40625 
Q 42.046875 3.421875 37.71875 1 
Q 33.40625 -1.421875 27.6875 -1.421875 
Q 18.265625 -1.421875 13.375 4.4375 
Q 8.5 10.296875 8.5 21.578125 
z
M 31.109375 56 
z
" id="DejaVuSans-117"/>
      <path d="M 44.28125 53.078125 
L 44.28125 44.578125 
Q 40.484375 46.53125 36.375 47.5 
Q 32.28125 48.484375 27.875 48.484375 
Q 21.1875 48.484375 17.84375 46.4375 
Q 14.5 44.390625 14.5 40.28125 
Q 14.5 37.15625 16.890625 35.375 
Q 19.28125 33.59375 26.515625 31.984375 
L 29.59375 31.296875 
Q 39.15625 29.25 43.1875 25.515625 
Q 47.21875 21.78125 47.21875 15.09375 
Q 47.21875 7.46875 41.1875 3.015625 
Q 35.15625 -1.421875 24.609375 -1.421875 
Q 20.21875 -1.421875 15.453125 -0.5625 
Q 10.6875 0.296875 5.421875 2 
L 5.421875 11.28125 
Q 10.40625 8.6875 15.234375 7.390625 
Q 20.0625 6.109375 24.8125 6.109375 
Q 31.15625 6.109375 34.5625 8.28125 
Q 37.984375 10.453125 37.984375 14.40625 
Q 37.984375 18.0625 35.515625 20.015625 
Q 33.0625 21.96875 24.703125 23.78125 
L 21.578125 24.515625 
Q 13.234375 26.265625 9.515625 29.90625 
Q 5.8125 33.546875 5.8125 39.890625 
Q 5.8125 47.609375 11.28125 51.796875 
Q 16.75 56 26.8125 56 
Q 31.78125 56 36.171875 55.265625 
Q 40.578125 54.546875 44.28125 53.078125 
z
" id="DejaVuSans-115"/>
      <path d="M 18.3125 70.21875 
L 18.3125 54.6875 
L 36.8125 54.6875 
L 36.8125 47.703125 
L 18.3125 47.703125 
L 18.3125 18.015625 
Q 18.3125 11.328125 20.140625 9.421875 
Q 21.96875 7.515625 27.59375 7.515625 
L 36.8125 7.515625 
L 36.8125 0 
L 27.59375 0 
Q 17.1875 0 13.234375 3.875 
Q 9.28125 7.765625 9.28125 18.015625 
L 9.28125 47.703125 
L 2.6875 47.703125 
L 2.6875 54.6875 
L 9.28125 54.6875 
L 9.28125 70.21875 
z
" id="DejaVuSans-116"/>
      <path d="M 30.609375 48.390625 
Q 23.390625 48.390625 19.1875 42.75 
Q 14.984375 37.109375 14.984375 27.296875 
Q 14.984375 17.484375 19.15625 11.84375 
Q 23.34375 6.203125 30.609375 6.203125 
Q 37.796875 6.203125 41.984375 11.859375 
Q 46.1875 17.53125 46.1875 27.296875 
Q 46.1875 37.015625 41.984375 42.703125 
Q 37.796875 48.390625 30.609375 48.390625 
z
M 30.609375 56 
Q 42.328125 56 49.015625 48.375 
Q 55.71875 40.765625 55.71875 27.296875 
Q 55.71875 13.875 49.015625 6.21875 
Q 42.328125 -1.421875 30.609375 -1.421875 
Q 18.84375 -1.421875 12.171875 6.21875 
Q 5.515625 13.875 5.515625 27.296875 
Q 5.515625 40.765625 12.171875 48.375 
Q 18.84375 56 30.609375 56 
z
" id="DejaVuSans-111"/>
      <path d="M 52 44.1875 
Q 55.375 50.25 60.0625 53.125 
Q 64.75 56 71.09375 56 
Q 79.640625 56 84.28125 50.015625 
Q 88.921875 44.046875 88.921875 33.015625 
L 88.921875 0 
L 79.890625 0 
L 79.890625 32.71875 
Q 79.890625 40.578125 77.09375 44.375 
Q 74.3125 48.1875 68.609375 48.1875 
Q 61.625 48.1875 57.5625 43.546875 
Q 53.515625 38.921875 53.515625 30.90625 
L 53.515625 0 
L 44.484375 0 
L 44.484375 32.71875 
Q 44.484375 40.625 41.703125 44.40625 
Q 38.921875 48.1875 33.109375 48.1875 
Q 26.21875 48.1875 22.15625 43.53125 
Q 18.109375 38.875 18.109375 30.90625 
L 18.109375 0 
L 9.078125 0 
L 9.078125 54.6875 
L 18.109375 54.6875 
L 18.109375 46.1875 
Q 21.1875 51.21875 25.484375 53.609375 
Q 29.78125 56 35.6875 56 
Q 41.65625 56 45.828125 52.96875 
Q 50 49.953125 52 44.1875 
z
" id="DejaVuSans-109"/>
      <path d="M 56.203125 29.59375 
L 56.203125 25.203125 
L 14.890625 25.203125 
Q 15.484375 15.921875 20.484375 11.0625 
Q 25.484375 6.203125 34.421875 6.203125 
Q 39.59375 6.203125 44.453125 7.46875 
Q 49.3125 8.734375 54.109375 11.28125 
L 54.109375 2.78125 
Q 49.265625 0.734375 44.1875 -0.34375 
Q 39.109375 -1.421875 33.890625 -1.421875 
Q 20.796875 -1.421875 13.15625 6.1875 
Q 5.515625 13.8125 5.515625 26.8125 
Q 5.515625 40.234375 12.765625 48.109375 
Q 20.015625 56 32.328125 56 
Q 43.359375 56 49.78125 48.890625 
Q 56.203125 41.796875 56.203125 29.59375 
z
M 47.21875 32.234375 
Q 47.125 39.59375 43.09375 43.984375 
Q 39.0625 48.390625 32.421875 48.390625 
Q 24.90625 48.390625 20.390625 44.140625 
Q 15.875 39.890625 15.1875 32.171875 
z
" id="DejaVuSans-101"/>
      <path d="M 41.109375 46.296875 
Q 39.59375 47.171875 37.8125 47.578125 
Q 36.03125 48 33.890625 48 
Q 26.265625 48 22.1875 43.046875 
Q 18.109375 38.09375 18.109375 28.8125 
L 18.109375 0 
L 9.078125 0 
L 9.078125 54.6875 
L 18.109375 54.6875 
L 18.109375 46.1875 
Q 20.953125 51.171875 25.484375 53.578125 
Q 30.03125 56 36.53125 56 
Q 37.453125 56 38.578125 55.875 
Q 39.703125 55.765625 41.0625 55.515625 
z
" id="DejaVuSans-114"/>
      <path id="DejaVuSans-32"/>
      <path d="M 9.8125 72.90625 
L 19.671875 72.90625 
L 19.671875 0 
L 9.8125 0 
z
" id="DejaVuSans-73"/>
      <path d="M 19.671875 64.796875 
L 19.671875 8.109375 
L 31.59375 8.109375 
Q 46.6875 8.109375 53.6875 14.9375 
Q 60.6875 21.78125 60.6875 36.53125 
Q 60.6875 51.171875 53.6875 57.984375 
Q 46.6875 64.796875 31.59375 64.796875 
z
M 9.8125 72.90625 
L 30.078125 72.90625 
Q 51.265625 72.90625 61.171875 64.09375 
Q 71.09375 55.28125 71.09375 36.53125 
Q 71.09375 17.671875 61.125 8.828125 
Q 51.171875 0 30.078125 0 
L 9.8125 0 
z
" id="DejaVuSans-68"/>
     </defs>
     <g style="fill:#262626;" transform="translate(176.270313 257.904063)scale(0.12 -0.12)">
      <use xlink:href="#DejaVuSans-67"/>
      <use x="69.824219" xlink:href="#DejaVuSans-117"/>
      <use x="133.203125" xlink:href="#DejaVuSans-115"/>
      <use x="185.302734" xlink:href="#DejaVuSans-116"/>
      <use x="224.511719" xlink:href="#DejaVuSans-111"/>
      <use x="285.693359" xlink:href="#DejaVuSans-109"/>
      <use x="383.105469" xlink:href="#DejaVuSans-101"/>
      <use x="444.628906" xlink:href="#DejaVuSans-114"/>
      <use x="485.742188" xlink:href="#DejaVuSans-32"/>
      <use x="517.529297" xlink:href="#DejaVuSans-73"/>
      <use x="547.021484" xlink:href="#DejaVuSans-68"/>
     </g>
    </g>
   </g>
   <g id="matplotlib.axis_2">
    <g id="ytick_1">
     <g id="line2d_7">
      <path clip-path="url(#p1d24cd547f)" d="M 46.31125 215.105695 
L 381.11125 215.105695 
" style="fill:none;stroke:#ffffff;stroke-linecap:round;"/>
     </g>
     <g id="text_8">
      <!-- 0 -->
      <g style="fill:#262626;" transform="translate(29.8125 219.284836)scale(0.11 -0.11)">
       <use xlink:href="#DejaVuSans-48"/>
      </g>
     </g>
    </g>
    <g id="ytick_2">
     <g id="line2d_8">
      <path clip-path="url(#p1d24cd547f)" d="M 46.31125 175.318015 
L 381.11125 175.318015 
" style="fill:none;stroke:#ffffff;stroke-linecap:round;"/>
     </g>
     <g id="text_9">
      <!-- 2 -->
      <g style="fill:#262626;" transform="translate(29.8125 179.497156)scale(0.11 -0.11)">
       <use xlink:href="#DejaVuSans-50"/>
      </g>
     </g>
    </g>
    <g id="ytick_3">
     <g id="line2d_9">
      <path clip-path="url(#p1d24cd547f)" d="M 46.31125 135.530335 
L 381.11125 135.530335 
" style="fill:none;stroke:#ffffff;stroke-linecap:round;"/>
     </g>
     <g id="text_10">
      <!-- 4 -->
      <g style="fill:#262626;" transform="translate(29.8125 139.709476)scale(0.11 -0.11)">
       <use xlink:href="#DejaVuSans-52"/>
      </g>
     </g>
    </g>
    <g id="ytick_4">
     <g id="line2d_10">
      <path clip-path="url(#p1d24cd547f)" d="M 46.31125 95.742656 
L 381.11125 95.742656 
" style="fill:none;stroke:#ffffff;stroke-linecap:round;"/>
     </g>
     <g id="text_11">
      <!-- 6 -->
      <g style="fill:#262626;" transform="translate(29.8125 99.921796)scale(0.11 -0.11)">
       <use xlink:href="#DejaVuSans-54"/>
      </g>
     </g>
    </g>
    <g id="ytick_5">
     <g id="line2d_11">
      <path clip-path="url(#p1d24cd547f)" d="M 46.31125 55.954976 
L 381.11125 55.954976 
" style="fill:none;stroke:#ffffff;stroke-linecap:round;"/>
     </g>
     <g id="text_12">
      <!-- 8 -->
      <g style="fill:#262626;" transform="translate(29.8125 60.134116)scale(0.11 -0.11)">
       <use xlink:href="#DejaVuSans-56"/>
      </g>
     </g>
    </g>
    <g id="ytick_6">
     <g id="line2d_12">
      <path clip-path="url(#p1d24cd547f)" d="M 46.31125 16.167296 
L 381.11125 16.167296 
" style="fill:none;stroke:#ffffff;stroke-linecap:round;"/>
     </g>
     <g id="text_13">
      <!-- 10 -->
      <g style="fill:#262626;" transform="translate(22.81375 20.346437)scale(0.11 -0.11)">
       <use xlink:href="#DejaVuSans-49"/>
       <use x="63.623047" xlink:href="#DejaVuSans-48"/>
      </g>
     </g>
    </g>
    <g id="text_14">
     <!-- Time to next purchase -->
     <defs>
      <path d="M -0.296875 72.90625 
L 61.375 72.90625 
L 61.375 64.59375 
L 35.5 64.59375 
L 35.5 0 
L 25.59375 0 
L 25.59375 64.59375 
L -0.296875 64.59375 
z
" id="DejaVuSans-84"/>
      <path d="M 9.421875 54.6875 
L 18.40625 54.6875 
L 18.40625 0 
L 9.421875 0 
z
M 9.421875 75.984375 
L 18.40625 75.984375 
L 18.40625 64.59375 
L 9.421875 64.59375 
z
" id="DejaVuSans-105"/>
      <path d="M 54.890625 33.015625 
L 54.890625 0 
L 45.90625 0 
L 45.90625 32.71875 
Q 45.90625 40.484375 42.875 44.328125 
Q 39.84375 48.1875 33.796875 48.1875 
Q 26.515625 48.1875 22.3125 43.546875 
Q 18.109375 38.921875 18.109375 30.90625 
L 18.109375 0 
L 9.078125 0 
L 9.078125 54.6875 
L 18.109375 54.6875 
L 18.109375 46.1875 
Q 21.34375 51.125 25.703125 53.5625 
Q 30.078125 56 35.796875 56 
Q 45.21875 56 50.046875 50.171875 
Q 54.890625 44.34375 54.890625 33.015625 
z
" id="DejaVuSans-110"/>
      <path d="M 54.890625 54.6875 
L 35.109375 28.078125 
L 55.90625 0 
L 45.3125 0 
L 29.390625 21.484375 
L 13.484375 0 
L 2.875 0 
L 24.125 28.609375 
L 4.6875 54.6875 
L 15.28125 54.6875 
L 29.78125 35.203125 
L 44.28125 54.6875 
z
" id="DejaVuSans-120"/>
      <path d="M 18.109375 8.203125 
L 18.109375 -20.796875 
L 9.078125 -20.796875 
L 9.078125 54.6875 
L 18.109375 54.6875 
L 18.109375 46.390625 
Q 20.953125 51.265625 25.265625 53.625 
Q 29.59375 56 35.59375 56 
Q 45.5625 56 51.78125 48.09375 
Q 58.015625 40.1875 58.015625 27.296875 
Q 58.015625 14.40625 51.78125 6.484375 
Q 45.5625 -1.421875 35.59375 -1.421875 
Q 29.59375 -1.421875 25.265625 0.953125 
Q 20.953125 3.328125 18.109375 8.203125 
z
M 48.6875 27.296875 
Q 48.6875 37.203125 44.609375 42.84375 
Q 40.53125 48.484375 33.40625 48.484375 
Q 26.265625 48.484375 22.1875 42.84375 
Q 18.109375 37.203125 18.109375 27.296875 
Q 18.109375 17.390625 22.1875 11.75 
Q 26.265625 6.109375 33.40625 6.109375 
Q 40.53125 6.109375 44.609375 11.75 
Q 48.6875 17.390625 48.6875 27.296875 
z
" id="DejaVuSans-112"/>
      <path d="M 48.78125 52.59375 
L 48.78125 44.1875 
Q 44.96875 46.296875 41.140625 47.34375 
Q 37.3125 48.390625 33.40625 48.390625 
Q 24.65625 48.390625 19.8125 42.84375 
Q 14.984375 37.3125 14.984375 27.296875 
Q 14.984375 17.28125 19.8125 11.734375 
Q 24.65625 6.203125 33.40625 6.203125 
Q 37.3125 6.203125 41.140625 7.25 
Q 44.96875 8.296875 48.78125 10.40625 
L 48.78125 2.09375 
Q 45.015625 0.34375 40.984375 -0.53125 
Q 36.96875 -1.421875 32.421875 -1.421875 
Q 20.0625 -1.421875 12.78125 6.34375 
Q 5.515625 14.109375 5.515625 27.296875 
Q 5.515625 40.671875 12.859375 48.328125 
Q 20.21875 56 33.015625 56 
Q 37.15625 56 41.109375 55.140625 
Q 45.0625 54.296875 48.78125 52.59375 
z
" id="DejaVuSans-99"/>
      <path d="M 54.890625 33.015625 
L 54.890625 0 
L 45.90625 0 
L 45.90625 32.71875 
Q 45.90625 40.484375 42.875 44.328125 
Q 39.84375 48.1875 33.796875 48.1875 
Q 26.515625 48.1875 22.3125 43.546875 
Q 18.109375 38.921875 18.109375 30.90625 
L 18.109375 0 
L 9.078125 0 
L 9.078125 75.984375 
L 18.109375 75.984375 
L 18.109375 46.1875 
Q 21.34375 51.125 25.703125 53.5625 
Q 30.078125 56 35.796875 56 
Q 45.21875 56 50.046875 50.171875 
Q 54.890625 44.34375 54.890625 33.015625 
z
" id="DejaVuSans-104"/>
      <path d="M 34.28125 27.484375 
Q 23.390625 27.484375 19.1875 25 
Q 14.984375 22.515625 14.984375 16.5 
Q 14.984375 11.71875 18.140625 8.90625 
Q 21.296875 6.109375 26.703125 6.109375 
Q 34.1875 6.109375 38.703125 11.40625 
Q 43.21875 16.703125 43.21875 25.484375 
L 43.21875 27.484375 
z
M 52.203125 31.203125 
L 52.203125 0 
L 43.21875 0 
L 43.21875 8.296875 
Q 40.140625 3.328125 35.546875 0.953125 
Q 30.953125 -1.421875 24.3125 -1.421875 
Q 15.921875 -1.421875 10.953125 3.296875 
Q 6 8.015625 6 15.921875 
Q 6 25.140625 12.171875 29.828125 
Q 18.359375 34.515625 30.609375 34.515625 
L 43.21875 34.515625 
L 43.21875 35.40625 
Q 43.21875 41.609375 39.140625 45 
Q 35.0625 48.390625 27.6875 48.390625 
Q 23 48.390625 18.546875 47.265625 
Q 14.109375 46.140625 10.015625 43.890625 
L 10.015625 52.203125 
Q 14.9375 54.109375 19.578125 55.046875 
Q 24.21875 56 28.609375 56 
Q 40.484375 56 46.34375 49.84375 
Q 52.203125 43.703125 52.203125 31.203125 
z
" id="DejaVuSans-97"/>
     </defs>
     <g style="fill:#262626;" transform="translate(16.318125 183.598125)rotate(-90)scale(0.12 -0.12)">
      <use xlink:href="#DejaVuSans-84"/>
      <use x="61.037109" xlink:href="#DejaVuSans-105"/>
      <use x="88.820312" xlink:href="#DejaVuSans-109"/>
      <use x="186.232422" xlink:href="#DejaVuSans-101"/>
      <use x="247.755859" xlink:href="#DejaVuSans-32"/>
      <use x="279.542969" xlink:href="#DejaVuSans-116"/>
      <use x="318.751953" xlink:href="#DejaVuSans-111"/>
      <use x="379.933594" xlink:href="#DejaVuSans-32"/>
      <use x="411.720703" xlink:href="#DejaVuSans-110"/>
      <use x="475.099609" xlink:href="#DejaVuSans-101"/>
      <use x="536.607422" xlink:href="#DejaVuSans-120"/>
      <use x="595.787109" xlink:href="#DejaVuSans-116"/>
      <use x="634.996094" xlink:href="#DejaVuSans-32"/>
      <use x="666.783203" xlink:href="#DejaVuSans-112"/>
      <use x="730.259766" xlink:href="#DejaVuSans-117"/>
      <use x="793.638672" xlink:href="#DejaVuSans-114"/>
      <use x="834.720703" xlink:href="#DejaVuSans-99"/>
      <use x="889.701172" xlink:href="#DejaVuSans-104"/>
      <use x="953.080078" xlink:href="#DejaVuSans-97"/>
      <use x="1014.359375" xlink:href="#DejaVuSans-115"/>
      <use x="1066.458984" xlink:href="#DejaVuSans-101"/>
     </g>
    </g>
   </g>
   <g id="line2d_13">
    <defs>
     <path d="M 0 1.5 
C 0.397805 1.5 0.77937 1.341951 1.06066 1.06066 
C 1.341951 0.77937 1.5 0.397805 1.5 0 
C 1.5 -0.397805 1.341951 -0.77937 1.06066 -1.06066 
C 0.77937 -1.341951 0.397805 -1.5 0 -1.5 
C -0.397805 -1.5 -0.77937 -1.341951 -1.06066 -1.06066 
C -1.341951 -0.77937 -1.5 -0.397805 -1.5 0 
C -1.5 0.397805 -1.341951 0.77937 -1.06066 1.06066 
C -0.77937 1.341951 -0.397805 1.5 0 1.5 
z
" id="m5a5a06be03" style="stroke:#4c72b0;"/>
    </defs>
    <g clip-path="url(#p1d24cd547f)">
     <use style="fill:#4c72b0;stroke:#4c72b0;" x="61.529432" xlink:href="#m5a5a06be03" y="212.678093"/>
     <use style="fill:#4c72b0;stroke:#4c72b0;" x="64.603812" xlink:href="#m5a5a06be03" y="125.563058"/>
     <use style="fill:#4c72b0;stroke:#4c72b0;" x="67.678192" xlink:href="#m5a5a06be03" y="162.809667"/>
     <use style="fill:#4c72b0;stroke:#4c72b0;" x="70.752572" xlink:href="#m5a5a06be03" y="184.673751"/>
     <use style="fill:#4c72b0;stroke:#4c72b0;" x="73.826952" xlink:href="#m5a5a06be03" y="193.835082"/>
     <use style="fill:#4c72b0;stroke:#4c72b0;" x="76.901333" xlink:href="#m5a5a06be03" y="109.210169"/>
     <use style="fill:#4c72b0;stroke:#4c72b0;" x="79.975713" xlink:href="#m5a5a06be03" y="153.222522"/>
     <use style="fill:#4c72b0;stroke:#4c72b0;" x="83.050093" xlink:href="#m5a5a06be03" y="214.1744"/>
     <use style="fill:#4c72b0;stroke:#4c72b0;" x="86.124473" xlink:href="#m5a5a06be03" y="151.464203"/>
     <use style="fill:#4c72b0;stroke:#4c72b0;" x="89.198853" xlink:href="#m5a5a06be03" y="214.380669"/>
     <use style="fill:#4c72b0;stroke:#4c72b0;" x="92.273233" xlink:href="#m5a5a06be03" y="166.477893"/>
     <use style="fill:#4c72b0;stroke:#4c72b0;" x="95.347614" xlink:href="#m5a5a06be03" y="167.654158"/>
     <use style="fill:#4c72b0;stroke:#4c72b0;" x="98.421994" xlink:href="#m5a5a06be03" y="181.457426"/>
     <use style="fill:#4c72b0;stroke:#4c72b0;" x="101.496374" xlink:href="#m5a5a06be03" y="139.010106"/>
     <use style="fill:#4c72b0;stroke:#4c72b0;" x="104.570754" xlink:href="#m5a5a06be03" y="119.371371"/>
     <use style="fill:#4c72b0;stroke:#4c72b0;" x="107.645134" xlink:href="#m5a5a06be03" y="213.424792"/>
     <use style="fill:#4c72b0;stroke:#4c72b0;" x="110.719514" xlink:href="#m5a5a06be03" y="204.612515"/>
     <use style="fill:#4c72b0;stroke:#4c72b0;" x="113.793895" xlink:href="#m5a5a06be03" y="199.090276"/>
     <use style="fill:#4c72b0;stroke:#4c72b0;" x="116.868275" xlink:href="#m5a5a06be03" y="183.439755"/>
     <use style="fill:#4c72b0;stroke:#4c72b0;" x="119.942655" xlink:href="#m5a5a06be03" y="115.470858"/>
     <use style="fill:#4c72b0;stroke:#4c72b0;" x="123.017035" xlink:href="#m5a5a06be03" y="147.236988"/>
     <use style="fill:#4c72b0;stroke:#4c72b0;" x="126.091415" xlink:href="#m5a5a06be03" y="189.63023"/>
     <use style="fill:#4c72b0;stroke:#4c72b0;" x="129.165795" xlink:href="#m5a5a06be03" y="181.905093"/>
     <use style="fill:#4c72b0;stroke:#4c72b0;" x="132.240176" xlink:href="#m5a5a06be03" y="200.893402"/>
     <use style="fill:#4c72b0;stroke:#4c72b0;" x="135.314556" xlink:href="#m5a5a06be03" y="182.791377"/>
     <use style="fill:#4c72b0;stroke:#4c72b0;" x="138.388936" xlink:href="#m5a5a06be03" y="31.809835"/>
     <use style="fill:#4c72b0;stroke:#4c72b0;" x="141.463316" xlink:href="#m5a5a06be03" y="213.801636"/>
     <use style="fill:#4c72b0;stroke:#4c72b0;" x="144.537696" xlink:href="#m5a5a06be03" y="123.138728"/>
     <use style="fill:#4c72b0;stroke:#4c72b0;" x="147.612076" xlink:href="#m5a5a06be03" y="104.883502"/>
     <use style="fill:#4c72b0;stroke:#4c72b0;" x="150.686457" xlink:href="#m5a5a06be03" y="204.879619"/>
     <use style="fill:#4c72b0;stroke:#4c72b0;" x="153.760837" xlink:href="#m5a5a06be03" y="135.42447"/>
     <use style="fill:#4c72b0;stroke:#4c72b0;" x="156.835217" xlink:href="#m5a5a06be03" y="214.756364"/>
     <use style="fill:#4c72b0;stroke:#4c72b0;" x="159.909597" xlink:href="#m5a5a06be03" y="156.150969"/>
     <use style="fill:#4c72b0;stroke:#4c72b0;" x="162.983977" xlink:href="#m5a5a06be03" y="156.427385"/>
     <use style="fill:#4c72b0;stroke:#4c72b0;" x="166.058357" xlink:href="#m5a5a06be03" y="211.617943"/>
     <use style="fill:#4c72b0;stroke:#4c72b0;" x="169.132738" xlink:href="#m5a5a06be03" y="211.692506"/>
     <use style="fill:#4c72b0;stroke:#4c72b0;" x="172.207118" xlink:href="#m5a5a06be03" y="143.976513"/>
     <use style="fill:#4c72b0;stroke:#4c72b0;" x="175.281498" xlink:href="#m5a5a06be03" y="213.934652"/>
     <use style="fill:#4c72b0;stroke:#4c72b0;" x="178.355878" xlink:href="#m5a5a06be03" y="173.286055"/>
     <use style="fill:#4c72b0;stroke:#4c72b0;" x="181.430258" xlink:href="#m5a5a06be03" y="176.763302"/>
     <use style="fill:#4c72b0;stroke:#4c72b0;" x="184.504638" xlink:href="#m5a5a06be03" y="19.868819"/>
     <use style="fill:#4c72b0;stroke:#4c72b0;" x="187.579019" xlink:href="#m5a5a06be03" y="156.893974"/>
     <use style="fill:#4c72b0;stroke:#4c72b0;" x="190.653399" xlink:href="#m5a5a06be03" y="205.262451"/>
     <use style="fill:#4c72b0;stroke:#4c72b0;" x="193.727779" xlink:href="#m5a5a06be03" y="155.794466"/>
     <use style="fill:#4c72b0;stroke:#4c72b0;" x="196.802159" xlink:href="#m5a5a06be03" y="87.663506"/>
     <use style="fill:#4c72b0;stroke:#4c72b0;" x="199.876539" xlink:href="#m5a5a06be03" y="157.04856"/>
     <use style="fill:#4c72b0;stroke:#4c72b0;" x="202.950919" xlink:href="#m5a5a06be03" y="199.402355"/>
     <use style="fill:#4c72b0;stroke:#4c72b0;" x="206.0253" xlink:href="#m5a5a06be03" y="208.003578"/>
     <use style="fill:#4c72b0;stroke:#4c72b0;" x="209.09968" xlink:href="#m5a5a06be03" y="210.513087"/>
     <use style="fill:#4c72b0;stroke:#4c72b0;" x="212.17406" xlink:href="#m5a5a06be03" y="65.927442"/>
     <use style="fill:#4c72b0;stroke:#4c72b0;" x="215.24844" xlink:href="#m5a5a06be03" y="36.866868"/>
     <use style="fill:#4c72b0;stroke:#4c72b0;" x="218.32282" xlink:href="#m5a5a06be03" y="95.734811"/>
     <use style="fill:#4c72b0;stroke:#4c72b0;" x="221.3972" xlink:href="#m5a5a06be03" y="194.433177"/>
     <use style="fill:#4c72b0;stroke:#4c72b0;" x="224.471581" xlink:href="#m5a5a06be03" y="204.915118"/>
     <use style="fill:#4c72b0;stroke:#4c72b0;" x="227.545961" xlink:href="#m5a5a06be03" y="187.341258"/>
     <use style="fill:#4c72b0;stroke:#4c72b0;" x="230.620341" xlink:href="#m5a5a06be03" y="170.533348"/>
     <use style="fill:#4c72b0;stroke:#4c72b0;" x="233.694721" xlink:href="#m5a5a06be03" y="17.083636"/>
     <use style="fill:#4c72b0;stroke:#4c72b0;" x="236.769101" xlink:href="#m5a5a06be03" y="73.527334"/>
     <use style="fill:#4c72b0;stroke:#4c72b0;" x="239.843481" xlink:href="#m5a5a06be03" y="205.315178"/>
     <use style="fill:#4c72b0;stroke:#4c72b0;" x="242.917862" xlink:href="#m5a5a06be03" y="112.312862"/>
     <use style="fill:#4c72b0;stroke:#4c72b0;" x="245.992242" xlink:href="#m5a5a06be03" y="109.869151"/>
     <use style="fill:#4c72b0;stroke:#4c72b0;" x="249.066622" xlink:href="#m5a5a06be03" y="203.727038"/>
     <use style="fill:#4c72b0;stroke:#4c72b0;" x="252.141002" xlink:href="#m5a5a06be03" y="101.288451"/>
     <use style="fill:#4c72b0;stroke:#4c72b0;" x="255.215382" xlink:href="#m5a5a06be03" y="194.876089"/>
     <use style="fill:#4c72b0;stroke:#4c72b0;" x="258.289762" xlink:href="#m5a5a06be03" y="212.594876"/>
     <use style="fill:#4c72b0;stroke:#4c72b0;" x="261.364143" xlink:href="#m5a5a06be03" y="124.378706"/>
     <use style="fill:#4c72b0;stroke:#4c72b0;" x="264.438523" xlink:href="#m5a5a06be03" y="117.211429"/>
     <use style="fill:#4c72b0;stroke:#4c72b0;" x="267.512903" xlink:href="#m5a5a06be03" y="109.275406"/>
     <use style="fill:#4c72b0;stroke:#4c72b0;" x="270.587283" xlink:href="#m5a5a06be03" y="209.846004"/>
     <use style="fill:#4c72b0;stroke:#4c72b0;" x="273.661663" xlink:href="#m5a5a06be03" y="206.855972"/>
     <use style="fill:#4c72b0;stroke:#4c72b0;" x="276.736043" xlink:href="#m5a5a06be03" y="198.515768"/>
     <use style="fill:#4c72b0;stroke:#4c72b0;" x="279.810424" xlink:href="#m5a5a06be03" y="118.698397"/>
     <use style="fill:#4c72b0;stroke:#4c72b0;" x="282.884804" xlink:href="#m5a5a06be03" y="83.350934"/>
     <use style="fill:#4c72b0;stroke:#4c72b0;" x="285.959184" xlink:href="#m5a5a06be03" y="37.579029"/>
     <use style="fill:#4c72b0;stroke:#4c72b0;" x="289.033564" xlink:href="#m5a5a06be03" y="192.550682"/>
     <use style="fill:#4c72b0;stroke:#4c72b0;" x="292.107944" xlink:href="#m5a5a06be03" y="213.06489"/>
     <use style="fill:#4c72b0;stroke:#4c72b0;" x="295.182324" xlink:href="#m5a5a06be03" y="24.838408"/>
     <use style="fill:#4c72b0;stroke:#4c72b0;" x="298.256705" xlink:href="#m5a5a06be03" y="31.01395"/>
     <use style="fill:#4c72b0;stroke:#4c72b0;" x="301.331085" xlink:href="#m5a5a06be03" y="175.495939"/>
     <use style="fill:#4c72b0;stroke:#4c72b0;" x="304.405465" xlink:href="#m5a5a06be03" y="147.835002"/>
     <use style="fill:#4c72b0;stroke:#4c72b0;" x="307.479845" xlink:href="#m5a5a06be03" y="120.546816"/>
     <use style="fill:#4c72b0;stroke:#4c72b0;" x="310.554225" xlink:href="#m5a5a06be03" y="206.562081"/>
     <use style="fill:#4c72b0;stroke:#4c72b0;" x="313.628605" xlink:href="#m5a5a06be03" y="29.357312"/>
     <use style="fill:#4c72b0;stroke:#4c72b0;" x="316.702986" xlink:href="#m5a5a06be03" y="164.328006"/>
     <use style="fill:#4c72b0;stroke:#4c72b0;" x="319.777366" xlink:href="#m5a5a06be03" y="88.014938"/>
     <use style="fill:#4c72b0;stroke:#4c72b0;" x="322.851746" xlink:href="#m5a5a06be03" y="57.018085"/>
     <use style="fill:#4c72b0;stroke:#4c72b0;" x="325.926126" xlink:href="#m5a5a06be03" y="204.907509"/>
     <use style="fill:#4c72b0;stroke:#4c72b0;" x="329.000506" xlink:href="#m5a5a06be03" y="165.006373"/>
     <use style="fill:#4c72b0;stroke:#4c72b0;" x="332.074886" xlink:href="#m5a5a06be03" y="212.765664"/>
     <use style="fill:#4c72b0;stroke:#4c72b0;" x="335.149267" xlink:href="#m5a5a06be03" y="176.31697"/>
     <use style="fill:#4c72b0;stroke:#4c72b0;" x="338.223647" xlink:href="#m5a5a06be03" y="172.363444"/>
     <use style="fill:#4c72b0;stroke:#4c72b0;" x="341.298027" xlink:href="#m5a5a06be03" y="207.715989"/>
     <use style="fill:#4c72b0;stroke:#4c72b0;" x="344.372407" xlink:href="#m5a5a06be03" y="205.894037"/>
     <use style="fill:#4c72b0;stroke:#4c72b0;" x="347.446787" xlink:href="#m5a5a06be03" y="38.258292"/>
     <use style="fill:#4c72b0;stroke:#4c72b0;" x="350.521167" xlink:href="#m5a5a06be03" y="190.998181"/>
     <use style="fill:#4c72b0;stroke:#4c72b0;" x="353.595548" xlink:href="#m5a5a06be03" y="138.378534"/>
     <use style="fill:#4c72b0;stroke:#4c72b0;" x="356.669928" xlink:href="#m5a5a06be03" y="193.803458"/>
     <use style="fill:#4c72b0;stroke:#4c72b0;" x="359.744308" xlink:href="#m5a5a06be03" y="203.579793"/>
     <use style="fill:#4c72b0;stroke:#4c72b0;" x="362.818688" xlink:href="#m5a5a06be03" y="147.97995"/>
     <use style="fill:#4c72b0;stroke:#4c72b0;" x="365.893068" xlink:href="#m5a5a06be03" y="59.845993"/>
    </g>
   </g>
   <g id="patch_3">
    <path d="M 46.31125 224.64 
L 46.31125 7.2 
" style="fill:none;stroke:#ffffff;stroke-linecap:square;stroke-linejoin:miter;stroke-width:1.25;"/>
   </g>
   <g id="patch_4">
    <path d="M 381.11125 224.64 
L 381.11125 7.2 
" style="fill:none;stroke:#ffffff;stroke-linecap:square;stroke-linejoin:miter;stroke-width:1.25;"/>
   </g>
   <g id="patch_5">
    <path d="M 46.31125 224.64 
L 381.11125 224.64 
" style="fill:none;stroke:#ffffff;stroke-linecap:square;stroke-linejoin:miter;stroke-width:1.25;"/>
   </g>
   <g id="patch_6">
    <path d="M 46.31125 7.2 
L 381.11125 7.2 
" style="fill:none;stroke:#ffffff;stroke-linecap:square;stroke-linejoin:miter;stroke-width:1.25;"/>
   </g>
  </g>
 </g>
 <defs>
  <clipPath id="p1d24cd547f">
   <rect height="217.44" width="334.8" x="46.31125" y="7.2"/>
  </clipPath>
 </defs>
</svg>
