<svg height="356.8" viewBox="0 0 400.2 267.6" width="533.6" xmlns="http://www.w3.org/2000/svg" xmlns:xlink="http://www.w3.org/1999/xlink"><defs><style>*{stroke-linecap:butt;stroke-linejoin:round}</style></defs><g id="figure_1"><path d="M0 267.6h400.2V0H0z" fill="#fff" id="patch_1"/><g id="axes_1"><path d="M58.2 224.6H393V7.2H58.2z" fill="#eaeaf2" id="patch_2"/><g id="matplotlib.axis_1"><g id="xtick_1"><path clip-path="url(#p62e4e4ccf2)" d="M131.5 224.6V7.2" fill="none" stroke="#fff" stroke-linecap="round" id="line2d_1"/><g id="text_1"><defs><path d="M12.4 8.3h16.1v55.6L11 60.4v9l17.4 3.5h9.9V8.3h16V0H12.5z" id="DejaVuSans-49"/><path d="M31.8 66.4q-7.6 0-11.5-7.5-3.8-7.5-3.8-22.5t3.8-22.5q3.9-7.5 11.5-7.5 7.7 0 11.5 7.5T47 36.4q0 15-3.8 22.5t-11.5 7.5zm0 7.8q12.2 0 18.7-9.7T57 36.4Q57 18 50.5 8.3 44-1.4 31.8-1.4 19.5-1.4 13 8.3q-6.5 9.7-6.5 28 0 18.5 6.5 28.2 6.4 9.7 18.7 9.7z" id="DejaVuSans-48"/><path d="M10.6 35.5h62.6v-8.3H10.6z" id="DejaVuSans-8722"/></defs><g transform="matrix(.11 0 0 -.11 118.6 242.5)" fill="#262626"><use transform="translate(0 .7)" xlink:href="#DejaVuSans-49"/><use transform="translate(63.6 .7)" xlink:href="#DejaVuSans-48"/><use transform="matrix(.7 0 0 .7 128.2 39)" xlink:href="#DejaVuSans-8722"/><use transform="matrix(.7 0 0 .7 186.9 39)" xlink:href="#DejaVuSans-49"/></g></g></g><g id="xtick_2"><path clip-path="url(#p62e4e4ccf2)" d="M208.4 224.6V7.2" fill="none" stroke="#fff" stroke-linecap="round" id="line2d_2"/><g transform="matrix(.11 0 0 -.11 198.8 242.5)" fill="#262626" id="text_2"><use transform="translate(0 .8)" xlink:href="#DejaVuSans-49"/><use transform="translate(63.6 .8)" xlink:href="#DejaVuSans-48"/><use transform="matrix(.7 0 0 .7 128.2 39)" xlink:href="#DejaVuSans-48"/></g></g><g id="xtick_3"><path clip-path="url(#p62e4e4ccf2)" d="M285.4 224.6V7.2" fill="none" stroke="#fff" stroke-linecap="round" id="line2d_3"/><g transform="matrix(.11 0 0 -.11 275.7 242.5)" fill="#262626" id="text_3"><use transform="translate(0 .7)" xlink:href="#DejaVuSans-49"/><use transform="translate(63.6 .7)" xlink:href="#DejaVuSans-48"/><use transform="matrix(.7 0 0 .7 128.2 39)" xlink:href="#DejaVuSans-49"/></g></g><g id="xtick_4"><path clip-path="url(#p62e4e4ccf2)" d="M362.3 224.6V7.2" fill="none" stroke="#fff" stroke-linecap="round" id="line2d_4"/><g id="text_4"><defs><path d="M19.2 8.3h34.4V0H7.3v8.3l15.3 15.6q9.7 9.8 12.2 12.6 4.7 5.3 6.6 9 2 3.7 2 7.3 0 5.8-4.2 9.5-4 3.6-10.6 3.6-4.6 0-9.8-1.6-5.1-1.6-11-4.9v10q6 2.4 11.1 3.6 5.2 1.2 9.5 1.2 11.4 0 18-5.7 6.8-5.6 6.8-15 0-4.6-1.7-8.6-1.6-4-6-9.5l-7.9-8.2L19.2 8.3z" id="DejaVuSans-50"/></defs><g transform="matrix(.11 0 0 -.11 352.6 242.5)" fill="#262626"><use transform="translate(0 .8)" xlink:href="#DejaVuSans-49"/><use transform="translate(63.6 .8)" xlink:href="#DejaVuSans-48"/><use transform="matrix(.7 0 0 .7 128.2 39)" xlink:href="#DejaVuSans-50"/></g></g></g><g id="text_5"><defs><path d="M-.3 73h61.7v-8.4H35.5V0h-10v64.6H-.2z" id="DejaVuSans-84"/><path d="M41.1 46.3q-1.5.9-3.3 1.3-1.8.4-4 .4-7.5 0-11.6-5-4-5-4-14.2V0H9v54.7h9v-8.5q2.9 5 7.4 7.4Q30 56 36.5 56l2-.1 2.6-.4z" id="DejaVuSans-114"/><path d="M8.5 21.6v33h9V22q0-7.7 3-11.6 3-4 9-4 7.4 0 11.6 4.7 4.2 4.7 4.2 12.7v31h9V0h-9v8.4Q42 3.4 37.7 1q-4.3-2.4-10-2.4-9.4 0-14.3 5.8-4.9 5.9-4.9 17.2zM31.1 56z" id="DejaVuSans-117"/><path d="M56.2 29.6v-4.4H14.9q.6-9.3 5.6-14.1 5-4.9 14-4.9 5 0 10 1.3 4.8 1.2 9.6 3.8V2.8q-4.8-2-10-3.1-5-1.1-10.2-1.1-13.1 0-20.7 7.6-7.7 7.6-7.7 20.6 0 13.4 7.3 21.3Q20 56 32.3 56q11 0 17.5-7.1 6.4-7.1 6.4-19.3zm-9 2.6q0 7.4-4.1 11.8-4 4.4-10.7 4.4-7.5 0-12-4.3-4.5-4.2-5.2-12z" id="DejaVuSans-101"/><path d="M18.3 70.2V54.7h18.5v-7H18.3V18q0-6.7 1.8-8.6 1.9-1.9 7.5-1.9h9.2V0h-9.2Q17.2 0 13.2 3.9T9.2 18v29.7H2.8v7h6.6v15.5z" id="DejaVuSans-116"/><path d="M9.4 54.7h9V0h-9zm0 21.3h9V64.6h-9z" id="DejaVuSans-105"/><path d="M52 44.2q3.4 6 8 9Q64.9 56 71 56q8.6 0 13.3-6 4.6-6 4.6-17V0h-9v32.7q0 7.9-2.8 11.7-2.8 3.8-8.5 3.8-7 0-11-4.7-4-4.6-4-12.6V0h-9.1v32.7q0 8-2.8 11.7-2.8 3.8-8.6 3.8-6.9 0-11-4.7-4-4.6-4-12.6V0h-9v54.7h9v-8.5q3 5 7.4 7.4Q29.8 56 35.7 56q6 0 10.1-3 4.2-3 6.2-8.8z" id="DejaVuSans-109"/><path d="M30.6 48.4q-7.2 0-11.4-5.6Q15 37 15 27.3t4.2-15.5q4.1-5.6 11.4-5.6 7.2 0 11.4 5.7 4.2 5.6 4.2 15.4 0 9.7-4.2 15.4-4.2 5.7-11.4 5.7zm0 7.6q11.7 0 18.4-7.6 6.7-7.6 6.7-21.1 0-13.4-6.7-21-6.7-7.7-18.4-7.7-11.8 0-18.4 7.6Q5.5 14 5.5 27.3q0 13.5 6.7 21Q18.8 56 30.6 56z" id="DejaVuSans-111"/><path d="M3 54.7h9.5l17-45.9 17.2 45.9h9.5L35.7 0H23.5z" id="DejaVuSans-118"/><path d="M54.9 33V0h-9v32.7q0 7.8-3 11.6-3 3.9-9.1 3.9-7.3 0-11.5-4.7Q18.1 39 18.1 31V0h-9v54.7h9v-8.5q3.2 5 7.6 7.4Q30.1 56 35.8 56q9.4 0 14.2-5.8Q55 44.3 55 33z" id="DejaVuSans-110"/></defs><g transform="matrix(.12 0 0 -.12 169.6 257.9)" fill="#262626"><use xlink:href="#DejaVuSans-84"/><use x="60.9" xlink:href="#DejaVuSans-114"/><use x="102" xlink:href="#DejaVuSans-117"/><use x="165.4" xlink:href="#DejaVuSans-101"/><use x="226.9" xlink:href="#DejaVuSans-32"/><use x="258.7" xlink:href="#DejaVuSans-116"/><use x="297.9" xlink:href="#DejaVuSans-105"/><use x="325.7" xlink:href="#DejaVuSans-109"/><use x="423.1" xlink:href="#DejaVuSans-101"/><use x="484.6" xlink:href="#DejaVuSans-32"/><use x="516.4" xlink:href="#DejaVuSans-116"/><use x="555.6" xlink:href="#DejaVuSans-111"/><use x="616.8" xlink:href="#DejaVuSans-32"/><use x="648.6" xlink:href="#DejaVuSans-101"/><use x="710.1" xlink:href="#DejaVuSans-118"/><use x="769.3" xlink:href="#DejaVuSans-101"/><use x="830.8" xlink:href="#DejaVuSans-110"/><use x="894.2" xlink:href="#DejaVuSans-116"/></g></g></g><g id="matplotlib.axis_2"><g id="ytick_1"><path clip-path="url(#p62e4e4ccf2)" d="M58.2 214.8H393" fill="none" stroke="#fff" stroke-linecap="round" id="line2d_5"/><g transform="matrix(.11 0 0 -.11 22.8 219)" fill="#262626" id="text_6"><use transform="translate(0 .7)" xlink:href="#DejaVuSans-49"/><use transform="translate(63.6 .7)" xlink:href="#DejaVuSans-48"/><use transform="matrix(.7 0 0 .7 128.2 39)" xlink:href="#DejaVuSans-8722"/><use transform="matrix(.7 0 0 .7 186.9 39)" xlink:href="#DejaVuSans-49"/></g></g><g id="ytick_2"><path clip-path="url(#p62e4e4ccf2)" d="M58.2 158.7H393" fill="none" stroke="#fff" stroke-linecap="round" id="line2d_6"/><g transform="matrix(.11 0 0 -.11 29.3 162.9)" fill="#262626" id="text_7"><use transform="translate(0 .8)" xlink:href="#DejaVuSans-49"/><use transform="translate(63.6 .8)" xlink:href="#DejaVuSans-48"/><use transform="matrix(.7 0 0 .7 128.2 39)" xlink:href="#DejaVuSans-48"/></g></g><g id="ytick_3"><path clip-path="url(#p62e4e4ccf2)" d="M58.2 102.6H393" fill="none" stroke="#fff" stroke-linecap="round" id="line2d_7"/><g transform="matrix(.11 0 0 -.11 29.3 106.8)" fill="#262626" id="text_8"><use transform="translate(0 .7)" xlink:href="#DejaVuSans-49"/><use transform="translate(63.6 .7)" xlink:href="#DejaVuSans-48"/><use transform="matrix(.7 0 0 .7 128.2 39)" xlink:href="#DejaVuSans-49"/></g></g><g id="ytick_4"><path clip-path="url(#p62e4e4ccf2)" d="M58.2 46.6H393" fill="none" stroke="#fff" stroke-linecap="round" id="line2d_8"/><g transform="matrix(.11 0 0 -.11 29.3 50.8)" fill="#262626" id="text_9"><use transform="translate(0 .8)" xlink:href="#DejaVuSans-49"/><use transform="translate(63.6 .8)" xlink:href="#DejaVuSans-48"/><use transform="matrix(.7 0 0 .7 128.2 39)" xlink:href="#DejaVuSans-50"/></g></g><g id="text_10"><defs><path d="M19.7 64.8V37.4H32q6.9 0 10.6 3.6 3.8 3.5 3.8 10.1t-3.8 10.1q-3.7 3.6-10.6 3.6zm-9.9 8.1h22.3q12.2 0 18.5-5.5Q57 61.8 57 51q0-10.8-6.3-16.3t-18.5-5.5H19.7V0H9.8z" id="DejaVuSans-80"/><path d="M45.4 46.4V76h9V0h-9v8.2Q42.6 3.3 38.3 1q-4.4-2.4-10.4-2.4-10 0-16.2 7.9-6.2 8-6.2 20.8 0 12.9 6.2 20.8Q18 56 28 56q6 0 10.4-2.4 4.3-2.3 7.1-7.2zM14.8 27.3q0-10 4-15.6Q23 6.2 30.2 6.2q7.1 0 11.2 5.7 4.1 5.6 4.1 15.5t-4.1 15.5q-4.1 5.7-11.2 5.7t-11.2-5.7q-4.1-5.6-4.1-15.5z" id="DejaVuSans-100"/><path d="M48.8 52.6v-8.4Q45 46.3 41 47.3q-3.8 1-7.7 1-8.7 0-13.6-5.5Q15 37.3 15 27.3t4.8-15.6q4.9-5.5 13.6-5.5 4 0 7.7 1 3.9 1.1 7.7 3.2V2.1Q45 .3 41-.5q-4-1-8.6-1-12.3 0-19.6 7.8-7.3 7.8-7.3 21 0 13.4 7.4 21Q20.2 56 33 56q4.2 0 8.1-.9 4-.8 7.7-2.5z" id="DejaVuSans-99"/></defs><g transform="matrix(0 -.12 -.12 0 16.3 186.7)" fill="#262626"><use xlink:href="#DejaVuSans-80"/><use x="60.3" xlink:href="#DejaVuSans-114"/><use x="101.4" xlink:href="#DejaVuSans-101"/><use x="162.9" xlink:href="#DejaVuSans-100"/><use x="226.4" xlink:href="#DejaVuSans-105"/><use x="254.2" xlink:href="#DejaVuSans-99"/><use x="309.1" xlink:href="#DejaVuSans-116"/><use x="348.3" xlink:href="#DejaVuSans-101"/><use x="409.9" xlink:href="#DejaVuSans-100"/><use x="473.3" xlink:href="#DejaVuSans-32"/><use x="505.1" xlink:href="#DejaVuSans-116"/><use x="544.3" xlink:href="#DejaVuSans-105"/><use x="572.1" xlink:href="#DejaVuSans-109"/><use x="669.5" xlink:href="#DejaVuSans-101"/><use x="731.1" xlink:href="#DejaVuSans-32"/><use x="762.8" xlink:href="#DejaVuSans-116"/><use x="802.1" xlink:href="#DejaVuSans-111"/><use x="863.2" xlink:href="#DejaVuSans-32"/><use x="895" xlink:href="#DejaVuSans-101"/><use x="956.5" xlink:href="#DejaVuSans-118"/><use x="1015.7" xlink:href="#DejaVuSans-101"/><use x="1077.2" xlink:href="#DejaVuSans-110"/><use x="1140.6" xlink:href="#DejaVuSans-116"/></g></g></g><g id="line2d_9"><defs><path d="M0 1.5a1.5 1.5 0 100-3 1.5 1.5 0 000 3z" id="m9a67520a1f" stroke="#4c72b0"/></defs><g clip-path="url(#p62e4e4ccf2)" fill="#4c72b0" stroke="#4c72b0"><use x="138.2" xlink:href="#m9a67520a1f" y="149.9"/><use x="273.6" xlink:href="#m9a67520a1f" y="140"/><use x="240.7" xlink:href="#m9a67520a1f" y="155.3"/><use x="222.6" xlink:href="#m9a67520a1f" y="154.3"/><use x="210.7" xlink:href="#m9a67520a1f" y="156"/><use x="264.3" xlink:href="#m9a67520a1f" y="124.5"/><use x="246.4" xlink:href="#m9a67520a1f" y="156.2"/><use x="106.1" xlink:href="#m9a67520a1f" y="128.3"/><use x="258.6" xlink:href="#m9a67520a1f" y="131.4"/><use x="97.8" xlink:href="#m9a67520a1f" y="156"/><use x="292.7" xlink:href="#m9a67520a1f" y="134.2"/><use x="321.3" xlink:href="#m9a67520a1f" y="120.2"/><use x="226" xlink:href="#m9a67520a1f" y="140"/><use x="253.3" xlink:href="#m9a67520a1f" y="136.8"/><use x="272.7" xlink:href="#m9a67520a1f" y="151.1"/><use x="340" xlink:href="#m9a67520a1f" y="117.7"/><use x="187.1" xlink:href="#m9a67520a1f" y="153.5"/><use x="201.2" xlink:href="#m9a67520a1f" y="169.3"/><use x="224" xlink:href="#m9a67520a1f" y="152.8"/><use x="273.9" xlink:href="#m9a67520a1f" y="135.3"/><use x="341.2" xlink:href="#m9a67520a1f" y="123.7"/><use x="216.7" xlink:href="#m9a67520a1f" y="150"/><use x="225.5" xlink:href="#m9a67520a1f" y="146.2"/><use x="197.2" xlink:href="#m9a67520a1f" y="152"/><use x="224.6" xlink:href="#m9a67520a1f" y="142.4"/><use x="316.2" xlink:href="#m9a67520a1f" y="96.4"/><use x="117.4" xlink:href="#m9a67520a1f" y="141.7"/><use x="317.6" xlink:href="#m9a67520a1f" y="133"/><use x="265.6" xlink:href="#m9a67520a1f" y="137.3"/><use x="259.3" xlink:href="#m9a67520a1f" y="152.3"/><use x="254.8" xlink:href="#m9a67520a1f" y="154"/><use x="73.4" xlink:href="#m9a67520a1f" y="165.6"/><use x="313" xlink:href="#m9a67520a1f" y="106.8"/><use x="244.6" xlink:href="#m9a67520a1f" y="146.2"/><use x="150.3" xlink:href="#m9a67520a1f" y="169.7"/><use x="149.5" xlink:href="#m9a67520a1f" y="168.8"/><use x="263.9" xlink:href="#m9a67520a1f" y="139.2"/><use x="113.8" xlink:href="#m9a67520a1f" y="159.4"/><use x="330" xlink:href="#m9a67520a1f" y="120"/><use x="253.7" xlink:href="#m9a67520a1f" y="137.7"/><use x="313.4" xlink:href="#m9a67520a1f" y="142.3"/><use x="276.3" xlink:href="#m9a67520a1f" y="145.5"/><use x="184.9" xlink:href="#m9a67520a1f" y="161.7"/><use x="291.2" xlink:href="#m9a67520a1f" y="134.3"/><use x="283.7" xlink:href="#m9a67520a1f" y="126.6"/><use x="303.9" xlink:href="#m9a67520a1f" y="139.6"/><use x="200.5" xlink:href="#m9a67520a1f" y="137.4"/><use x="325" xlink:href="#m9a67520a1f" y="135.8"/><use x="344.8" xlink:href="#m9a67520a1f" y="114.2"/><use x="298.1" xlink:href="#m9a67520a1f" y="134"/><use x="337.5" xlink:href="#m9a67520a1f" y="123.1"/><use x="268.3" xlink:href="#m9a67520a1f" y="138.1"/><use x="227.2" xlink:href="#m9a67520a1f" y="163"/><use x="200.6" xlink:href="#m9a67520a1f" y="171.9"/><use x="346.2" xlink:href="#m9a67520a1f" y="118.3"/><use x="259" xlink:href="#m9a67520a1f" y="138.4"/><use x="377.7" xlink:href="#m9a67520a1f" y="114"/><use x="280" xlink:href="#m9a67520a1f" y="138.4"/><use x="184.7" xlink:href="#m9a67520a1f" y="160.7"/><use x="263.3" xlink:href="#m9a67520a1f" y="145.3"/><use x="264.1" xlink:href="#m9a67520a1f" y="144"/><use x="189.8" xlink:href="#m9a67520a1f" y="149.9"/><use x="276.1" xlink:href="#m9a67520a1f" y="147.1"/><use x="209" xlink:href="#m9a67520a1f" y="104.6"/><use x="139.3" xlink:href="#m9a67520a1f" y="151.2"/><use x="334" xlink:href="#m9a67520a1f" y="128.6"/><use x="280.3" xlink:href="#m9a67520a1f" y="131.9"/><use x="327.9" xlink:href="#m9a67520a1f" y="131.1"/><use x="291.7" xlink:href="#m9a67520a1f" y="140.6"/><use x="179" xlink:href="#m9a67520a1f" y="143.8"/><use x="202.4" xlink:href="#m9a67520a1f" y="152.5"/><use x="278.5" xlink:href="#m9a67520a1f" y="146.4"/><use x="301.9" xlink:href="#m9a67520a1f" y="119.1"/><use x="284.3" xlink:href="#m9a67520a1f" y="141.5"/><use x="212.6" xlink:href="#m9a67520a1f" y="161.8"/><use x="132.4" xlink:href="#m9a67520a1f" y="156.5"/><use x="349" xlink:href="#m9a67520a1f" y="119.2"/><use x="305.3" xlink:href="#m9a67520a1f" y="125.9"/><use x="231.4" xlink:href="#m9a67520a1f" y="157.8"/><use x="250" xlink:href="#m9a67520a1f" y="152.3"/><use x="315" xlink:href="#m9a67520a1f" y="130.2"/><use x="180.2" xlink:href="#m9a67520a1f" y="142.2"/><use x="289.2" xlink:href="#m9a67520a1f" y="104.5"/><use x="356.4" xlink:href="#m9a67520a1f" y="106.9"/><use x="365.5" xlink:href="#m9a67520a1f" y="112.8"/><use x="291.1" xlink:href="#m9a67520a1f" y="134.4"/><use x="268.7" xlink:href="#m9a67520a1f" y="148.1"/><use x="239.3" xlink:href="#m9a67520a1f" y="142.4"/><use x="136.9" xlink:href="#m9a67520a1f" y="148.7"/><use x="230.7" xlink:href="#m9a67520a1f" y="145.7"/><use x="328.8" xlink:href="#m9a67520a1f" y="128"/><use x="175.3" xlink:href="#m9a67520a1f" y="152.3"/><use x="280.8" xlink:href="#m9a67520a1f" y="149.5"/><use x="290.2" xlink:href="#m9a67520a1f" y="145.4"/><use x="214.9" xlink:href="#m9a67520a1f" y="162.3"/><use x="253.5" xlink:href="#m9a67520a1f" y="141"/><use x="356.2" xlink:href="#m9a67520a1f" y="115.3"/><use x="190.2" xlink:href="#m9a67520a1f" y="144.5"/><use x="271.6" xlink:href="#m9a67520a1f" y="133.8"/><use x="283.2" xlink:href="#m9a67520a1f" y="131.8"/></g></g><g id="line2d_10"><defs><path d="M0 1.5a1.5 1.5 0 100-3 1.5 1.5 0 000 3z" id="mebceed23f4" stroke="#dd8452"/></defs><g clip-path="url(#p62e4e4ccf2)" fill="#dd8452" stroke="#dd8452"><use x="138.2" xlink:href="#mebceed23f4" y="133.6"/><use x="273.6" xlink:href="#mebceed23f4" y="99.8"/><use x="240.7" xlink:href="#mebceed23f4" y="148.7"/><use x="222.6" xlink:href="#mebceed23f4" y="140.7"/><use x="210.7" xlink:href="#mebceed23f4" y="138.8"/><use x="264.3" xlink:href="#mebceed23f4" y="75.2"/><use x="246.4" xlink:href="#mebceed23f4" y="147.9"/><use x="106.1" xlink:href="#mebceed23f4" y="79.1"/><use x="258.6" xlink:href="#mebceed23f4" y="89.6"/><use x="97.8" xlink:href="#mebceed23f4" y="145.2"/><use x="292.7" xlink:href="#mebceed23f4" y="93.5"/><use x="321.3" xlink:href="#mebceed23f4" y="60"/><use x="226" xlink:href="#mebceed23f4" y="112.7"/><use x="253.3" xlink:href="#mebceed23f4" y="91.6"/><use x="272.7" xlink:href="#mebceed23f4" y="131.1"/><use x="340" xlink:href="#mebceed23f4" y="56"/><use x="187.1" xlink:href="#mebceed23f4" y="144.5"/><use x="201.2" xlink:href="#mebceed23f4" y="175"/><use x="224" xlink:href="#mebceed23f4" y="138.9"/><use x="273.9" xlink:href="#mebceed23f4" y="88.1"/><use x="341.2" xlink:href="#mebceed23f4" y="68.1"/><use x="216.7" xlink:href="#mebceed23f4" y="132.8"/><use x="225.5" xlink:href="#mebceed23f4" y="122.9"/><use x="197.2" xlink:href="#mebceed23f4" y="135.2"/><use x="224.6" xlink:href="#mebceed23f4" y="120.8"/><use x="316.2" xlink:href="#mebceed23f4" y="17.1"/><use x="117.4" xlink:href="#mebceed23f4" y="123"/><use x="317.6" xlink:href="#mebceed23f4" y="87.5"/><use x="265.6" xlink:href="#mebceed23f4" y="107.3"/><use x="259.3" xlink:href="#mebceed23f4" y="136.6"/><use x="254.8" xlink:href="#mebceed23f4" y="139"/><use x="73.4" xlink:href="#mebceed23f4" y="167.2"/><use x="313" xlink:href="#mebceed23f4" y="34.9"/><use x="244.6" xlink:href="#mebceed23f4" y="129.4"/><use x="150.3" xlink:href="#mebceed23f4" y="173.1"/><use x="149.5" xlink:href="#mebceed23f4" y="172.1"/><use x="263.9" xlink:href="#mebceed23f4" y="105.5"/><use x="113.8" xlink:href="#mebceed23f4" y="153.3"/><use x="330" xlink:href="#mebceed23f4" y="61.3"/><use x="253.7" xlink:href="#mebceed23f4" y="96.5"/><use x="313.4" xlink:href="#mebceed23f4" y="114"/><use x="276.3" xlink:href="#mebceed23f4" y="125.9"/><use x="184.9" xlink:href="#mebceed23f4" y="159.6"/><use x="291.2" xlink:href="#mebceed23f4" y="94.1"/><use x="283.7" xlink:href="#mebceed23f4" y="77.8"/><use x="303.9" xlink:href="#mebceed23f4" y="110.5"/><use x="200.5" xlink:href="#mebceed23f4" y="103.7"/><use x="325" xlink:href="#mebceed23f4" y="86.3"/><use x="344.8" xlink:href="#mebceed23f4" y="52.1"/><use x="298.1" xlink:href="#mebceed23f4" y="85.6"/><use x="337.5" xlink:href="#mebceed23f4" y="73.6"/><use x="268.3" xlink:href="#mebceed23f4" y="110.8"/><use x="227.2" xlink:href="#mebceed23f4" y="167.8"/><use x="200.6" xlink:href="#mebceed23f4" y="183.4"/><use x="346.2" xlink:href="#mebceed23f4" y="57.9"/><use x="259" xlink:href="#mebceed23f4" y="103.5"/><use x="377.7" xlink:href="#mebceed23f4" y="42.9"/><use x="280" xlink:href="#mebceed23f4" y="107.3"/><use x="184.7" xlink:href="#mebceed23f4" y="160.3"/><use x="263.3" xlink:href="#mebceed23f4" y="124.9"/><use x="264.1" xlink:href="#mebceed23f4" y="119.2"/><use x="189.8" xlink:href="#mebceed23f4" y="144.8"/><use x="276.1" xlink:href="#mebceed23f4" y="126.2"/><use x="209" xlink:href="#mebceed23f4" y="24.9"/><use x="139.3" xlink:href="#mebceed23f4" y="140.9"/><use x="334" xlink:href="#mebceed23f4" y="80.8"/><use x="280.3" xlink:href="#mebceed23f4" y="86.1"/><use x="327.9" xlink:href="#mebceed23f4" y="84.9"/><use x="291.7" xlink:href="#mebceed23f4" y="119.6"/><use x="179" xlink:href="#mebceed23f4" y="118.5"/><use x="202.4" xlink:href="#mebceed23f4" y="139.5"/><use x="278.5" xlink:href="#mebceed23f4" y="125.7"/><use x="301.9" xlink:href="#mebceed23f4" y="50.5"/><use x="284.3" xlink:href="#mebceed23f4" y="113.3"/><use x="212.6" xlink:href="#mebceed23f4" y="160.6"/><use x="132.4" xlink:href="#mebceed23f4" y="152.3"/><use x="349" xlink:href="#mebceed23f4" y="59.4"/><use x="305.3" xlink:href="#mebceed23f4" y="74"/><use x="231.4" xlink:href="#mebceed23f4" y="158.8"/><use x="250" xlink:href="#mebceed23f4" y="137.1"/><use x="315" xlink:href="#mebceed23f4" y="95.3"/><use x="180.2" xlink:href="#mebceed23f4" y="108.2"/><use x="289.2" xlink:href="#mebceed23f4" y="31.1"/><use x="356.4" xlink:href="#mebceed23f4" y="35.5"/><use x="365.5" xlink:href="#mebceed23f4" y="43.9"/><use x="291.1" xlink:href="#mebceed23f4" y="100.1"/><use x="268.7" xlink:href="#mebceed23f4" y="134.1"/><use x="239.3" xlink:href="#mebceed23f4" y="106.9"/><use x="136.9" xlink:href="#mebceed23f4" y="126.3"/><use x="230.7" xlink:href="#mebceed23f4" y="123.9"/><use x="328.8" xlink:href="#mebceed23f4" y="88.3"/><use x="175.3" xlink:href="#mebceed23f4" y="144.9"/><use x="280.8" xlink:href="#mebceed23f4" y="132.8"/><use x="290.2" xlink:href="#mebceed23f4" y="121.1"/><use x="214.9" xlink:href="#mebceed23f4" y="159.4"/><use x="253.5" xlink:href="#mebceed23f4" y="104.4"/><use x="356.2" xlink:href="#mebceed23f4" y="55.9"/><use x="190.2" xlink:href="#mebceed23f4" y="122.3"/><use x="271.6" xlink:href="#mebceed23f4" y="93.9"/><use x="283.2" xlink:href="#mebceed23f4" y="77.3"/></g></g><path clip-path="url(#p62e4e4ccf2)" d="M131.5 214.8L362.3 46.6" fill="none" stroke="#1a1a1a" stroke-dasharray="1.5,2.475" stroke-width="1.5" id="line2d_11"/><path d="M58.2 224.6V7.2" fill="none" stroke="#fff" stroke-linecap="square" stroke-width="1.3" id="patch_3"/><path d="M393 224.6V7.2" fill="none" stroke="#fff" stroke-linecap="square" stroke-width="1.3" id="patch_4"/><path d="M58.2 224.6H393" fill="none" stroke="#fff" stroke-linecap="square" stroke-width="1.3" id="patch_5"/><path d="M58.2 7.2H393" fill="none" stroke="#fff" stroke-linecap="square" stroke-width="1.3" id="patch_6"/><g id="legend_1"><path d="M65.9 64.4h189.7q2.2 0 2.2-2.2V15q0-2.2-2.2-2.2H66q-2.2 0-2.2 2.2v47.3q0 2.2 2.2 2.2z" fill="#eaeaf2" opacity=".8" stroke="#ccc" id="patch_7"/><use x="79.1" xlink:href="#m9a67520a1f" y="21.6" fill="#4c72b0" stroke="#4c72b0" id="line2d_13"/><g id="text_11"><defs><path d="M44.4 34.2q3.2-1 6.2-4.6 3-3.5 6-9.7L66.6 0H56l-9.3 18.7q-3.6 7.3-7 9.7-3.4 2.4-9.3 2.4H19.7V0H9.8v73h22.3q12.5 0 18.6-5.3Q57 62.5 57 51.9q0-6.9-3.2-11.4-3.2-4.6-9.3-6.3zM19.7 64.8V38.9H32q7.1 0 10.7 3.3 3.7 3.3 3.7 9.7 0 6.4-3.7 9.6-3.6 3.3-10.7 3.3z" id="DejaVuSans-82"/><path d="M45.4 28q0 9.8-4 15.1-4 5.4-11.3 5.4-7.2 0-11.3-5.4-4-5.4-4-15.1t4-15.1q4-5.4 11.3-5.4 7.3 0 11.3 5.4 4 5.4 4 15zm9-21.2q0-14-6.2-20.8-6.2-6.8-19-6.8-4.7 0-9 .7-4.1.7-8 2.2v8.7q3.9-2.1 7.7-3.1 3.9-1 7.9-1 8.8 0 13.2 4.5 4.4 4.6 4.4 14v4.4q-2.8-4.8-7.1-7.2Q33.9 0 27.9 0q-10 0-16.2 7.7Q5.5 15.3 5.5 28q0 12.7 6.2 20.3Q17.8 56 27.9 56q6 0 10.4-2.4 4.3-2.4 7.1-7.2v8.3h9z" id="DejaVuSans-103"/><path d="M9.4 76h9V0h-9z" id="DejaVuSans-108"/><path d="M34.3 27.5q-11 0-15.1-2.5-4.2-2.5-4.2-8.5 0-4.8 3.1-7.6 3.2-2.8 8.6-2.8 7.5 0 12 5.3t4.5 14v2zm17.9 3.7V0h-9v8.3q-3-5-7.7-7.3Q31-1.4 24.3-1.4 16-1.4 11 3.3 6 8 6 15.9q0 9.2 6.2 14 6.2 4.6 18.4 4.6h12.6v1q0 6.1-4 9.5-4.1 3.4-11.5 3.4-4.7 0-9.2-1.1-4.4-1.2-8.5-3.4v8.3q5 2 9.6 2.8 4.6 1 9 1 11.9 0 17.7-6.2 5.9-6.1 5.9-18.6z" id="DejaVuSans-97"/><path d="M18.1 8.2v-29h-9v75.5h9v-8.3q2.9 4.9 7.2 7.2Q29.6 56 35.6 56q10 0 16.2-8Q58 40.3 58 27.4q0-12.9-6.2-20.8-6.2-8-16.2-8-6 0-10.3 2.5Q21 3.3 18 8.2zm30.6 19.1q0 9.9-4 15.5-4.2 5.7-11.3 5.7-7.1 0-11.2-5.7-4-5.6-4-15.5 0-10 4-15.6t11.2-5.6q7.1 0 11.2 5.7 4 5.6 4 15.5z" id="DejaVuSans-112"/><path d="M44.3 53v-8.4q-3.8 2-8 2.9-4 1-8.4 1-6.7 0-10-2-3.4-2.1-3.4-6.2 0-3.1 2.4-5 2.4-1.7 9.6-3.3l3-.7q9.7-2 13.7-5.8 4-3.7 4-10.4 0-7.6-6-12-6-4.5-16.6-4.5-4.4 0-9.1.8-4.8.9-10 2.6v9.3q5-2.6 9.7-4 4.9-1.2 9.6-1.2 6.4 0 9.8 2.2 3.4 2.2 3.4 6.1 0 3.7-2.5 5.6-2.4 2-10.8 3.8l-3.1.7q-8.4 1.8-12 5.4-3.8 3.6-3.8 10 0 7.7 5.5 11.9Q16.7 56 26.8 56q5 0 9.4-.7 4.4-.8 8-2.2z" id="DejaVuSans-115"/></defs><g transform="matrix(.11 0 0 -.11 98.9 25.5)" fill="#262626"><use xlink:href="#DejaVuSans-82"/><use x="69.4" xlink:href="#DejaVuSans-101"/><use x="130.9" xlink:href="#DejaVuSans-103"/><use x="194.4" xlink:href="#DejaVuSans-117"/><use x="257.8" xlink:href="#DejaVuSans-108"/><use x="285.6" xlink:href="#DejaVuSans-97"/><use x="346.9" xlink:href="#DejaVuSans-114"/><use x="388" xlink:href="#DejaVuSans-32"/><use x="419.8" xlink:href="#DejaVuSans-109"/><use x="517.2" xlink:href="#DejaVuSans-111"/><use x="578.4" xlink:href="#DejaVuSans-100"/><use x="641.8" xlink:href="#DejaVuSans-101"/><use x="703.4" xlink:href="#DejaVuSans-108"/><use x="731.1" xlink:href="#DejaVuSans-32"/><use x="762.9" xlink:href="#DejaVuSans-112"/><use x="826.4" xlink:href="#DejaVuSans-114"/><use x="867.5" xlink:href="#DejaVuSans-101"/><use x="929" xlink:href="#DejaVuSans-100"/><use x="992.5" xlink:href="#DejaVuSans-105"/><use x="1020.3" xlink:href="#DejaVuSans-99"/><use x="1075.2" xlink:href="#DejaVuSans-116"/><use x="1114.5" xlink:href="#DejaVuSans-105"/><use x="1142.2" xlink:href="#DejaVuSans-111"/><use x="1203.4" xlink:href="#DejaVuSans-110"/><use x="1266.8" xlink:href="#DejaVuSans-115"/></g></g><use x="79.1" xlink:href="#mebceed23f4" y="37.8" fill="#dd8452" stroke="#dd8452" id="line2d_15"/><g id="text_12"><defs><path d="M64.4 67.3V56.9q-5 4.6-10.6 7Q48 66 41.8 66q-12.5 0-19.1-7.6Q16 50.8 16 36.4q0-14.4 6.7-22 6.6-7.7 19.1-7.7 6.3 0 12 2.3 5.6 2.3 10.6 7V5.5q-5.2-3.5-11-5.3-5.7-1.7-12.2-1.7-16.5 0-26 10.1-9.6 10.1-9.6 27.7T15.1 64q9.6 10.1 26.1 10.1 6.5 0 12.3-1.7 5.8-1.8 11-5.2z" id="DejaVuSans-67"/></defs><g transform="matrix(.11 0 0 -.11 98.9 41.6)" fill="#262626"><use xlink:href="#DejaVuSans-67"/><use x="69.8" xlink:href="#DejaVuSans-101"/><use x="131.3" xlink:href="#DejaVuSans-110"/><use x="194.7" xlink:href="#DejaVuSans-115"/><use x="246.8" xlink:href="#DejaVuSans-111"/><use x="308" xlink:href="#DejaVuSans-114"/><use x="349.1" xlink:href="#DejaVuSans-101"/><use x="410.6" xlink:href="#DejaVuSans-100"/><use x="474.1" xlink:href="#DejaVuSans-32"/><use x="505.9" xlink:href="#DejaVuSans-109"/><use x="603.3" xlink:href="#DejaVuSans-111"/><use x="664.5" xlink:href="#DejaVuSans-100"/><use x="727.9" xlink:href="#DejaVuSans-101"/><use x="789.5" xlink:href="#DejaVuSans-108"/><use x="817.3" xlink:href="#DejaVuSans-32"/><use x="849" xlink:href="#DejaVuSans-112"/><use x="912.5" xlink:href="#DejaVuSans-114"/><use x="953.6" xlink:href="#DejaVuSans-101"/><use x="1015.1" xlink:href="#DejaVuSans-100"/><use x="1078.6" xlink:href="#DejaVuSans-105"/><use x="1106.4" xlink:href="#DejaVuSans-99"/><use x="1161.4" xlink:href="#DejaVuSans-116"/><use x="1200.6" xlink:href="#DejaVuSans-105"/><use x="1228.4" xlink:href="#DejaVuSans-111"/><use x="1289.5" xlink:href="#DejaVuSans-110"/><use x="1352.9" xlink:href="#DejaVuSans-115"/></g></g><path d="M68 53.9h22" fill="none" stroke="#1a1a1a" stroke-dasharray="1.5,2.475" stroke-width="1.5" id="line2d_16"/><g transform="matrix(.11 0 0 -.11 98.9 57.8)" fill="#262626" id="text_13"><use xlink:href="#DejaVuSans-84"/><use x="60.9" xlink:href="#DejaVuSans-114"/><use x="102" xlink:href="#DejaVuSans-117"/><use x="165.4" xlink:href="#DejaVuSans-101"/></g></g></g></g><defs><clipPath id="p62e4e4ccf2"><path d="M58.2 7.2H393v217.4H58.2z"/></clipPath></defs></svg>