<?xml version="1.0" encoding="utf-8" standalone="no"?>
<!DOCTYPE svg PUBLIC "-//W3C//DTD SVG 1.1//EN"
  "http://www.w3.org/Graphics/SVG/1.1/DTD/svg11.dtd">
<!-- Created with matplotlib (https://matplotlib.org/) -->
<svg height="485.039688pt" version="1.1" viewBox="0 0 417.63 485.039688" width="417.63pt" xmlns="http://www.w3.org/2000/svg" xmlns:xlink="http://www.w3.org/1999/xlink">
 <defs>
  <style type="text/css">
*{stroke-linecap:butt;stroke-linejoin:round;}
  </style>
 </defs>
 <g id="figure_1">
  <g id="patch_1">
   <path d="M 0 485.039688 
L 417.63 485.039688 
L 417.63 0 
L 0 0 
z
" style="fill:#ffffff;"/>
  </g>
  <g id="axes_1">
   <g id="patch_2">
    <path d="M 53.31 442.08 
L 410.43 442.08 
L 410.43 7.2 
L 53.31 7.2 
z
" style="fill:#eaeaf2;"/>
   </g>
   <g id="matplotlib.axis_1">
    <g id="xtick_1">
     <g id="line2d_1">
      <path clip-path="url(#p23f52fa196)" d="M 68.040404 442.08 
L 68.040404 7.2 
" style="fill:none;stroke:#ffffff;stroke-linecap:round;"/>
     </g>
     <g id="text_1">
      <!-- 0 -->
      <defs>
       <path d="M 31.78125 66.40625 
Q 24.171875 66.40625 20.328125 58.90625 
Q 16.5 51.421875 16.5 36.375 
Q 16.5 21.390625 20.328125 13.890625 
Q 24.171875 6.390625 31.78125 6.390625 
Q 39.453125 6.390625 43.28125 13.890625 
Q 47.125 21.390625 47.125 36.375 
Q 47.125 51.421875 43.28125 58.90625 
Q 39.453125 66.40625 31.78125 66.40625 
z
M 31.78125 74.21875 
Q 44.046875 74.21875 50.515625 64.515625 
Q 56.984375 54.828125 56.984375 36.375 
Q 56.984375 17.96875 50.515625 8.265625 
Q 44.046875 -1.421875 31.78125 -1.421875 
Q 19.53125 -1.421875 13.0625 8.265625 
Q 6.59375 17.96875 6.59375 36.375 
Q 6.59375 54.828125 13.0625 64.515625 
Q 19.53125 74.21875 31.78125 74.21875 
z
" id="DejaVuSans-48"/>
      </defs>
      <g style="fill:#262626;" transform="translate(64.541029 459.938281)scale(0.11 -0.11)">
       <use xlink:href="#DejaVuSans-48"/>
      </g>
     </g>
    </g>
    <g id="xtick_2">
     <g id="line2d_2">
      <path clip-path="url(#p23f52fa196)" d="M 133.271778 442.08 
L 133.271778 7.2 
" style="fill:none;stroke:#ffffff;stroke-linecap:round;"/>
     </g>
     <g id="text_2">
      <!-- 2 -->
      <defs>
       <path d="M 19.1875 8.296875 
L 53.609375 8.296875 
L 53.609375 0 
L 7.328125 0 
L 7.328125 8.296875 
Q 12.9375 14.109375 22.625 23.890625 
Q 32.328125 33.6875 34.8125 36.53125 
Q 39.546875 41.84375 41.421875 45.53125 
Q 43.3125 49.21875 43.3125 52.78125 
Q 43.3125 58.59375 39.234375 62.25 
Q 35.15625 65.921875 28.609375 65.921875 
Q 23.96875 65.921875 18.8125 64.3125 
Q 13.671875 62.703125 7.8125 59.421875 
L 7.8125 69.390625 
Q 13.765625 71.78125 18.9375 73 
Q 24.125 74.21875 28.421875 74.21875 
Q 39.75 74.21875 46.484375 68.546875 
Q 53.21875 62.890625 53.21875 53.421875 
Q 53.21875 48.921875 51.53125 44.890625 
Q 49.859375 40.875 45.40625 35.40625 
Q 44.1875 33.984375 37.640625 27.21875 
Q 31.109375 20.453125 19.1875 8.296875 
z
" id="DejaVuSans-50"/>
      </defs>
      <g style="fill:#262626;" transform="translate(129.772403 459.938281)scale(0.11 -0.11)">
       <use xlink:href="#DejaVuSans-50"/>
      </g>
     </g>
    </g>
    <g id="xtick_3">
     <g id="line2d_3">
      <path clip-path="url(#p23f52fa196)" d="M 198.503152 442.08 
L 198.503152 7.2 
" style="fill:none;stroke:#ffffff;stroke-linecap:round;"/>
     </g>
     <g id="text_3">
      <!-- 4 -->
      <defs>
       <path d="M 37.796875 64.3125 
L 12.890625 25.390625 
L 37.796875 25.390625 
z
M 35.203125 72.90625 
L 47.609375 72.90625 
L 47.609375 25.390625 
L 58.015625 25.390625 
L 58.015625 17.1875 
L 47.609375 17.1875 
L 47.609375 0 
L 37.796875 0 
L 37.796875 17.1875 
L 4.890625 17.1875 
L 4.890625 26.703125 
z
" id="DejaVuSans-52"/>
      </defs>
      <g style="fill:#262626;" transform="translate(195.003777 459.938281)scale(0.11 -0.11)">
       <use xlink:href="#DejaVuSans-52"/>
      </g>
     </g>
    </g>
    <g id="xtick_4">
     <g id="line2d_4">
      <path clip-path="url(#p23f52fa196)" d="M 263.734525 442.08 
L 263.734525 7.2 
" style="fill:none;stroke:#ffffff;stroke-linecap:round;"/>
     </g>
     <g id="text_4">
      <!-- 6 -->
      <defs>
       <path d="M 33.015625 40.375 
Q 26.375 40.375 22.484375 35.828125 
Q 18.609375 31.296875 18.609375 23.390625 
Q 18.609375 15.53125 22.484375 10.953125 
Q 26.375 6.390625 33.015625 6.390625 
Q 39.65625 6.390625 43.53125 10.953125 
Q 47.40625 15.53125 47.40625 23.390625 
Q 47.40625 31.296875 43.53125 35.828125 
Q 39.65625 40.375 33.015625 40.375 
z
M 52.59375 71.296875 
L 52.59375 62.3125 
Q 48.875 64.0625 45.09375 64.984375 
Q 41.3125 65.921875 37.59375 65.921875 
Q 27.828125 65.921875 22.671875 59.328125 
Q 17.53125 52.734375 16.796875 39.40625 
Q 19.671875 43.65625 24.015625 45.921875 
Q 28.375 48.1875 33.59375 48.1875 
Q 44.578125 48.1875 50.953125 41.515625 
Q 57.328125 34.859375 57.328125 23.390625 
Q 57.328125 12.15625 50.6875 5.359375 
Q 44.046875 -1.421875 33.015625 -1.421875 
Q 20.359375 -1.421875 13.671875 8.265625 
Q 6.984375 17.96875 6.984375 36.375 
Q 6.984375 53.65625 15.1875 63.9375 
Q 23.390625 74.21875 37.203125 74.21875 
Q 40.921875 74.21875 44.703125 73.484375 
Q 48.484375 72.75 52.59375 71.296875 
z
" id="DejaVuSans-54"/>
      </defs>
      <g style="fill:#262626;" transform="translate(260.23515 459.938281)scale(0.11 -0.11)">
       <use xlink:href="#DejaVuSans-54"/>
      </g>
     </g>
    </g>
    <g id="xtick_5">
     <g id="line2d_5">
      <path clip-path="url(#p23f52fa196)" d="M 328.965899 442.08 
L 328.965899 7.2 
" style="fill:none;stroke:#ffffff;stroke-linecap:round;"/>
     </g>
     <g id="text_5">
      <!-- 8 -->
      <defs>
       <path d="M 31.78125 34.625 
Q 24.75 34.625 20.71875 30.859375 
Q 16.703125 27.09375 16.703125 20.515625 
Q 16.703125 13.921875 20.71875 10.15625 
Q 24.75 6.390625 31.78125 6.390625 
Q 38.8125 6.390625 42.859375 10.171875 
Q 46.921875 13.96875 46.921875 20.515625 
Q 46.921875 27.09375 42.890625 30.859375 
Q 38.875 34.625 31.78125 34.625 
z
M 21.921875 38.8125 
Q 15.578125 40.375 12.03125 44.71875 
Q 8.5 49.078125 8.5 55.328125 
Q 8.5 64.0625 14.71875 69.140625 
Q 20.953125 74.21875 31.78125 74.21875 
Q 42.671875 74.21875 48.875 69.140625 
Q 55.078125 64.0625 55.078125 55.328125 
Q 55.078125 49.078125 51.53125 44.71875 
Q 48 40.375 41.703125 38.8125 
Q 48.828125 37.15625 52.796875 32.3125 
Q 56.78125 27.484375 56.78125 20.515625 
Q 56.78125 9.90625 50.3125 4.234375 
Q 43.84375 -1.421875 31.78125 -1.421875 
Q 19.734375 -1.421875 13.25 4.234375 
Q 6.78125 9.90625 6.78125 20.515625 
Q 6.78125 27.484375 10.78125 32.3125 
Q 14.796875 37.15625 21.921875 38.8125 
z
M 18.3125 54.390625 
Q 18.3125 48.734375 21.84375 45.5625 
Q 25.390625 42.390625 31.78125 42.390625 
Q 38.140625 42.390625 41.71875 45.5625 
Q 45.3125 48.734375 45.3125 54.390625 
Q 45.3125 60.0625 41.71875 63.234375 
Q 38.140625 66.40625 31.78125 66.40625 
Q 25.390625 66.40625 21.84375 63.234375 
Q 18.3125 60.0625 18.3125 54.390625 
z
" id="DejaVuSans-56"/>
      </defs>
      <g style="fill:#262626;" transform="translate(325.466524 459.938281)scale(0.11 -0.11)">
       <use xlink:href="#DejaVuSans-56"/>
      </g>
     </g>
    </g>
    <g id="xtick_6">
     <g id="line2d_6">
      <path clip-path="url(#p23f52fa196)" d="M 394.197273 442.08 
L 394.197273 7.2 
" style="fill:none;stroke:#ffffff;stroke-linecap:round;"/>
     </g>
     <g id="text_6">
      <!-- 10 -->
      <defs>
       <path d="M 12.40625 8.296875 
L 28.515625 8.296875 
L 28.515625 63.921875 
L 10.984375 60.40625 
L 10.984375 69.390625 
L 28.421875 72.90625 
L 38.28125 72.90625 
L 38.28125 8.296875 
L 54.390625 8.296875 
L 54.390625 0 
L 12.40625 0 
z
" id="DejaVuSans-49"/>
      </defs>
      <g style="fill:#262626;" transform="translate(387.198523 459.938281)scale(0.11 -0.11)">
       <use xlink:href="#DejaVuSans-49"/>
       <use x="63.623047" xlink:href="#DejaVuSans-48"/>
      </g>
     </g>
    </g>
    <g id="text_7">
     <!-- Time -->
     <defs>
      <path d="M -0.296875 72.90625 
L 61.375 72.90625 
L 61.375 64.59375 
L 35.5 64.59375 
L 35.5 0 
L 25.59375 0 
L 25.59375 64.59375 
L -0.296875 64.59375 
z
" id="DejaVuSans-84"/>
      <path d="M 9.421875 54.6875 
L 18.40625 54.6875 
L 18.40625 0 
L 9.421875 0 
z
M 9.421875 75.984375 
L 18.40625 75.984375 
L 18.40625 64.59375 
L 9.421875 64.59375 
z
" id="DejaVuSans-105"/>
      <path d="M 52 44.1875 
Q 55.375 50.25 60.0625 53.125 
Q 64.75 56 71.09375 56 
Q 79.640625 56 84.28125 50.015625 
Q 88.921875 44.046875 88.921875 33.015625 
L 88.921875 0 
L 79.890625 0 
L 79.890625 32.71875 
Q 79.890625 40.578125 77.09375 44.375 
Q 74.3125 48.1875 68.609375 48.1875 
Q 61.625 48.1875 57.5625 43.546875 
Q 53.515625 38.921875 53.515625 30.90625 
L 53.515625 0 
L 44.484375 0 
L 44.484375 32.71875 
Q 44.484375 40.625 41.703125 44.40625 
Q 38.921875 48.1875 33.109375 48.1875 
Q 26.21875 48.1875 22.15625 43.53125 
Q 18.109375 38.875 18.109375 30.90625 
L 18.109375 0 
L 9.078125 0 
L 9.078125 54.6875 
L 18.109375 54.6875 
L 18.109375 46.1875 
Q 21.1875 51.21875 25.484375 53.609375 
Q 29.78125 56 35.6875 56 
Q 41.65625 56 45.828125 52.96875 
Q 50 49.953125 52 44.1875 
z
" id="DejaVuSans-109"/>
      <path d="M 56.203125 29.59375 
L 56.203125 25.203125 
L 14.890625 25.203125 
Q 15.484375 15.921875 20.484375 11.0625 
Q 25.484375 6.203125 34.421875 6.203125 
Q 39.59375 6.203125 44.453125 7.46875 
Q 49.3125 8.734375 54.109375 11.28125 
L 54.109375 2.78125 
Q 49.265625 0.734375 44.1875 -0.34375 
Q 39.109375 -1.421875 33.890625 -1.421875 
Q 20.796875 -1.421875 13.15625 6.1875 
Q 5.515625 13.8125 5.515625 26.8125 
Q 5.515625 40.234375 12.765625 48.109375 
Q 20.015625 56 32.328125 56 
Q 43.359375 56 49.78125 48.890625 
Q 56.203125 41.796875 56.203125 29.59375 
z
M 47.21875 32.234375 
Q 47.125 39.59375 43.09375 43.984375 
Q 39.0625 48.390625 32.421875 48.390625 
Q 24.90625 48.390625 20.390625 44.140625 
Q 15.875 39.890625 15.1875 32.171875 
z
" id="DejaVuSans-101"/>
     </defs>
     <g style="fill:#262626;" transform="translate(217.005 475.344063)scale(0.12 -0.12)">
      <use xlink:href="#DejaVuSans-84"/>
      <use x="61.037109" xlink:href="#DejaVuSans-105"/>
      <use x="88.820312" xlink:href="#DejaVuSans-109"/>
      <use x="186.232422" xlink:href="#DejaVuSans-101"/>
     </g>
    </g>
   </g>
   <g id="matplotlib.axis_2">
    <g id="ytick_1">
     <g id="line2d_7">
      <path clip-path="url(#p23f52fa196)" d="M 53.31 438.54439 
L 410.43 438.54439 
" style="fill:none;stroke:#ffffff;stroke-linecap:round;"/>
     </g>
     <g id="text_8">
      <!-- 0 -->
      <g style="fill:#262626;" transform="translate(36.81125 442.723531)scale(0.11 -0.11)">
       <use xlink:href="#DejaVuSans-48"/>
      </g>
     </g>
    </g>
    <g id="ytick_2">
     <g id="line2d_8">
      <path clip-path="url(#p23f52fa196)" d="M 53.31 367.832195 
L 410.43 367.832195 
" style="fill:none;stroke:#ffffff;stroke-linecap:round;"/>
     </g>
     <g id="text_9">
      <!-- 20 -->
      <g style="fill:#262626;" transform="translate(29.8125 372.011336)scale(0.11 -0.11)">
       <use xlink:href="#DejaVuSans-50"/>
       <use x="63.623047" xlink:href="#DejaVuSans-48"/>
      </g>
     </g>
    </g>
    <g id="ytick_3">
     <g id="line2d_9">
      <path clip-path="url(#p23f52fa196)" d="M 53.31 297.12 
L 410.43 297.12 
" style="fill:none;stroke:#ffffff;stroke-linecap:round;"/>
     </g>
     <g id="text_10">
      <!-- 40 -->
      <g style="fill:#262626;" transform="translate(29.8125 301.299141)scale(0.11 -0.11)">
       <use xlink:href="#DejaVuSans-52"/>
       <use x="63.623047" xlink:href="#DejaVuSans-48"/>
      </g>
     </g>
    </g>
    <g id="ytick_4">
     <g id="line2d_10">
      <path clip-path="url(#p23f52fa196)" d="M 53.31 226.407805 
L 410.43 226.407805 
" style="fill:none;stroke:#ffffff;stroke-linecap:round;"/>
     </g>
     <g id="text_11">
      <!-- 60 -->
      <g style="fill:#262626;" transform="translate(29.8125 230.586946)scale(0.11 -0.11)">
       <use xlink:href="#DejaVuSans-54"/>
       <use x="63.623047" xlink:href="#DejaVuSans-48"/>
      </g>
     </g>
    </g>
    <g id="ytick_5">
     <g id="line2d_11">
      <path clip-path="url(#p23f52fa196)" d="M 53.31 155.69561 
L 410.43 155.69561 
" style="fill:none;stroke:#ffffff;stroke-linecap:round;"/>
     </g>
     <g id="text_12">
      <!-- 80 -->
      <g style="fill:#262626;" transform="translate(29.8125 159.87475)scale(0.11 -0.11)">
       <use xlink:href="#DejaVuSans-56"/>
       <use x="63.623047" xlink:href="#DejaVuSans-48"/>
      </g>
     </g>
    </g>
    <g id="ytick_6">
     <g id="line2d_12">
      <path clip-path="url(#p23f52fa196)" d="M 53.31 84.983415 
L 410.43 84.983415 
" style="fill:none;stroke:#ffffff;stroke-linecap:round;"/>
     </g>
     <g id="text_13">
      <!-- 100 -->
      <g style="fill:#262626;" transform="translate(22.81375 89.162555)scale(0.11 -0.11)">
       <use xlink:href="#DejaVuSans-49"/>
       <use x="63.623047" xlink:href="#DejaVuSans-48"/>
       <use x="127.246094" xlink:href="#DejaVuSans-48"/>
      </g>
     </g>
    </g>
    <g id="ytick_7">
     <g id="line2d_13">
      <path clip-path="url(#p23f52fa196)" d="M 53.31 14.27122 
L 410.43 14.27122 
" style="fill:none;stroke:#ffffff;stroke-linecap:round;"/>
     </g>
     <g id="text_14">
      <!-- 120 -->
      <g style="fill:#262626;" transform="translate(22.81375 18.45036)scale(0.11 -0.11)">
       <use xlink:href="#DejaVuSans-49"/>
       <use x="63.623047" xlink:href="#DejaVuSans-50"/>
       <use x="127.246094" xlink:href="#DejaVuSans-48"/>
      </g>
     </g>
    </g>
    <g id="text_15">
     <!-- Customer ID -->
     <defs>
      <path d="M 64.40625 67.28125 
L 64.40625 56.890625 
Q 59.421875 61.53125 53.78125 63.8125 
Q 48.140625 66.109375 41.796875 66.109375 
Q 29.296875 66.109375 22.65625 58.46875 
Q 16.015625 50.828125 16.015625 36.375 
Q 16.015625 21.96875 22.65625 14.328125 
Q 29.296875 6.6875 41.796875 6.6875 
Q 48.140625 6.6875 53.78125 8.984375 
Q 59.421875 11.28125 64.40625 15.921875 
L 64.40625 5.609375 
Q 59.234375 2.09375 53.4375 0.328125 
Q 47.65625 -1.421875 41.21875 -1.421875 
Q 24.65625 -1.421875 15.125 8.703125 
Q 5.609375 18.84375 5.609375 36.375 
Q 5.609375 53.953125 15.125 64.078125 
Q 24.65625 74.21875 41.21875 74.21875 
Q 47.75 74.21875 53.53125 72.484375 
Q 59.328125 70.75 64.40625 67.28125 
z
" id="DejaVuSans-67"/>
      <path d="M 8.5 21.578125 
L 8.5 54.6875 
L 17.484375 54.6875 
L 17.484375 21.921875 
Q 17.484375 14.15625 20.5 10.265625 
Q 23.53125 6.390625 29.59375 6.390625 
Q 36.859375 6.390625 41.078125 11.03125 
Q 45.3125 15.671875 45.3125 23.6875 
L 45.3125 54.6875 
L 54.296875 54.6875 
L 54.296875 0 
L 45.3125 0 
L 45.3125 8.40625 
Q 42.046875 3.421875 37.71875 1 
Q 33.40625 -1.421875 27.6875 -1.421875 
Q 18.265625 -1.421875 13.375 4.4375 
Q 8.5 10.296875 8.5 21.578125 
z
M 31.109375 56 
z
" id="DejaVuSans-117"/>
      <path d="M 44.28125 53.078125 
L 44.28125 44.578125 
Q 40.484375 46.53125 36.375 47.5 
Q 32.28125 48.484375 27.875 48.484375 
Q 21.1875 48.484375 17.84375 46.4375 
Q 14.5 44.390625 14.5 40.28125 
Q 14.5 37.15625 16.890625 35.375 
Q 19.28125 33.59375 26.515625 31.984375 
L 29.59375 31.296875 
Q 39.15625 29.25 43.1875 25.515625 
Q 47.21875 21.78125 47.21875 15.09375 
Q 47.21875 7.46875 41.1875 3.015625 
Q 35.15625 -1.421875 24.609375 -1.421875 
Q 20.21875 -1.421875 15.453125 -0.5625 
Q 10.6875 0.296875 5.421875 2 
L 5.421875 11.28125 
Q 10.40625 8.6875 15.234375 7.390625 
Q 20.0625 6.109375 24.8125 6.109375 
Q 31.15625 6.109375 34.5625 8.28125 
Q 37.984375 10.453125 37.984375 14.40625 
Q 37.984375 18.0625 35.515625 20.015625 
Q 33.0625 21.96875 24.703125 23.78125 
L 21.578125 24.515625 
Q 13.234375 26.265625 9.515625 29.90625 
Q 5.8125 33.546875 5.8125 39.890625 
Q 5.8125 47.609375 11.28125 51.796875 
Q 16.75 56 26.8125 56 
Q 31.78125 56 36.171875 55.265625 
Q 40.578125 54.546875 44.28125 53.078125 
z
" id="DejaVuSans-115"/>
      <path d="M 18.3125 70.21875 
L 18.3125 54.6875 
L 36.8125 54.6875 
L 36.8125 47.703125 
L 18.3125 47.703125 
L 18.3125 18.015625 
Q 18.3125 11.328125 20.140625 9.421875 
Q 21.96875 7.515625 27.59375 7.515625 
L 36.8125 7.515625 
L 36.8125 0 
L 27.59375 0 
Q 17.1875 0 13.234375 3.875 
Q 9.28125 7.765625 9.28125 18.015625 
L 9.28125 47.703125 
L 2.6875 47.703125 
L 2.6875 54.6875 
L 9.28125 54.6875 
L 9.28125 70.21875 
z
" id="DejaVuSans-116"/>
      <path d="M 30.609375 48.390625 
Q 23.390625 48.390625 19.1875 42.75 
Q 14.984375 37.109375 14.984375 27.296875 
Q 14.984375 17.484375 19.15625 11.84375 
Q 23.34375 6.203125 30.609375 6.203125 
Q 37.796875 6.203125 41.984375 11.859375 
Q 46.1875 17.53125 46.1875 27.296875 
Q 46.1875 37.015625 41.984375 42.703125 
Q 37.796875 48.390625 30.609375 48.390625 
z
M 30.609375 56 
Q 42.328125 56 49.015625 48.375 
Q 55.71875 40.765625 55.71875 27.296875 
Q 55.71875 13.875 49.015625 6.21875 
Q 42.328125 -1.421875 30.609375 -1.421875 
Q 18.84375 -1.421875 12.171875 6.21875 
Q 5.515625 13.875 5.515625 27.296875 
Q 5.515625 40.765625 12.171875 48.375 
Q 18.84375 56 30.609375 56 
z
" id="DejaVuSans-111"/>
      <path d="M 41.109375 46.296875 
Q 39.59375 47.171875 37.8125 47.578125 
Q 36.03125 48 33.890625 48 
Q 26.265625 48 22.1875 43.046875 
Q 18.109375 38.09375 18.109375 28.8125 
L 18.109375 0 
L 9.078125 0 
L 9.078125 54.6875 
L 18.109375 54.6875 
L 18.109375 46.1875 
Q 20.953125 51.171875 25.484375 53.578125 
Q 30.03125 56 36.53125 56 
Q 37.453125 56 38.578125 55.875 
Q 39.703125 55.765625 41.0625 55.515625 
z
" id="DejaVuSans-114"/>
      <path id="DejaVuSans-32"/>
      <path d="M 9.8125 72.90625 
L 19.671875 72.90625 
L 19.671875 0 
L 9.8125 0 
z
" id="DejaVuSans-73"/>
      <path d="M 19.671875 64.796875 
L 19.671875 8.109375 
L 31.59375 8.109375 
Q 46.6875 8.109375 53.6875 14.9375 
Q 60.6875 21.78125 60.6875 36.53125 
Q 60.6875 51.171875 53.6875 57.984375 
Q 46.6875 64.796875 31.59375 64.796875 
z
M 9.8125 72.90625 
L 30.078125 72.90625 
Q 51.265625 72.90625 61.171875 64.09375 
Q 71.09375 55.28125 71.09375 36.53125 
Q 71.09375 17.671875 61.125 8.828125 
Q 51.171875 0 30.078125 0 
L 9.8125 0 
z
" id="DejaVuSans-68"/>
     </defs>
     <g style="fill:#262626;" transform="translate(16.318125 262.080938)rotate(-90)scale(0.12 -0.12)">
      <use xlink:href="#DejaVuSans-67"/>
      <use x="69.824219" xlink:href="#DejaVuSans-117"/>
      <use x="133.203125" xlink:href="#DejaVuSans-115"/>
      <use x="185.302734" xlink:href="#DejaVuSans-116"/>
      <use x="224.511719" xlink:href="#DejaVuSans-111"/>
      <use x="285.693359" xlink:href="#DejaVuSans-109"/>
      <use x="383.105469" xlink:href="#DejaVuSans-101"/>
      <use x="444.628906" xlink:href="#DejaVuSans-114"/>
      <use x="485.742188" xlink:href="#DejaVuSans-32"/>
      <use x="517.529297" xlink:href="#DejaVuSans-73"/>
      <use x="547.021484" xlink:href="#DejaVuSans-68"/>
     </g>
    </g>
   </g>
   <g id="line2d_14">
    <path clip-path="url(#p23f52fa196)" d="M 319.081531 438.54439 
L 323.061553 438.54439 
" style="fill:none;stroke:#55a868;stroke-linecap:round;stroke-width:1.5;"/>
   </g>
   <g id="line2d_15">
    <path clip-path="url(#p23f52fa196)" d="M 241.118961 431.473171 
L 326.857606 431.473171 
" style="fill:none;stroke:#55a868;stroke-linecap:round;stroke-width:1.5;"/>
   </g>
   <g id="line2d_16">
    <path clip-path="url(#p23f52fa196)" d="M 98.642344 427.937561 
L 148.535113 427.937561 
" style="fill:none;stroke:#55a868;stroke-linecap:round;stroke-width:1.5;"/>
   </g>
   <g id="line2d_17">
    <path clip-path="url(#p23f52fa196)" d="M 75.517359 424.401951 
L 110.390247 424.401951 
" style="fill:none;stroke:#55a868;stroke-linecap:round;stroke-width:1.5;"/>
   </g>
   <g id="line2d_18">
    <path clip-path="url(#p23f52fa196)" d="M 206.661791 420.866341 
L 380.276101 420.866341 
" style="fill:none;stroke:#55a868;stroke-linecap:round;stroke-width:1.5;"/>
   </g>
   <g id="line2d_19">
    <path clip-path="url(#p23f52fa196)" d="M 77.621231 417.330732 
L 179.077873 417.330732 
" style="fill:none;stroke:#55a868;stroke-linecap:round;stroke-width:1.5;"/>
   </g>
   <g id="line2d_20">
    <path clip-path="url(#p23f52fa196)" d="M 382.618927 413.795122 
L 384.145772 413.795122 
" style="fill:none;stroke:#55a868;stroke-linecap:round;stroke-width:1.5;"/>
   </g>
   <g id="line2d_21">
    <path clip-path="url(#p23f52fa196)" d="M 153.086975 406.723902 
L 154.275646 406.723902 
" style="fill:none;stroke:#55a868;stroke-linecap:round;stroke-width:1.5;"/>
   </g>
   <g id="line2d_22">
    <path clip-path="url(#p23f52fa196)" d="M 166.173617 396.117073 
L 221.339507 396.117073 
" style="fill:none;stroke:#55a868;stroke-linecap:round;stroke-width:1.5;"/>
   </g>
   <g id="line2d_23">
    <path clip-path="url(#p23f52fa196)" d="M 167.955148 392.581463 
L 292.712858 392.581463 
" style="fill:none;stroke:#55a868;stroke-linecap:round;stroke-width:1.5;"/>
   </g>
   <g id="line2d_24">
    <path clip-path="url(#p23f52fa196)" d="M 301.308505 381.974634 
L 318.511934 381.974634 
" style="fill:none;stroke:#55a868;stroke-linecap:round;stroke-width:1.5;"/>
   </g>
   <g id="line2d_25">
    <path clip-path="url(#p23f52fa196)" d="M 353.446509 378.439024 
L 379.703576 378.439024 
" style="fill:none;stroke:#55a868;stroke-linecap:round;stroke-width:1.5;"/>
   </g>
   <g id="line2d_26">
    <path clip-path="url(#p23f52fa196)" d="M 293.990782 374.903415 
L 345.90667 374.903415 
" style="fill:none;stroke:#55a868;stroke-linecap:round;stroke-width:1.5;"/>
   </g>
   <g id="line2d_27">
    <path clip-path="url(#p23f52fa196)" d="M 128.592221 364.296585 
L 170.358907 364.296585 
" style="fill:none;stroke:#55a868;stroke-linecap:round;stroke-width:1.5;"/>
   </g>
   <g id="line2d_28">
    <path clip-path="url(#p23f52fa196)" d="M 234.801042 360.760976 
L 289.232989 360.760976 
" style="fill:none;stroke:#55a868;stroke-linecap:round;stroke-width:1.5;"/>
   </g>
   <g id="line2d_29">
    <path clip-path="url(#p23f52fa196)" d="M 119.295818 357.225366 
L 142.596684 357.225366 
" style="fill:none;stroke:#55a868;stroke-linecap:round;stroke-width:1.5;"/>
   </g>
   <g id="line2d_30">
    <path clip-path="url(#p23f52fa196)" d="M 168.810166 353.689756 
L 221.789063 353.689756 
" style="fill:none;stroke:#55a868;stroke-linecap:round;stroke-width:1.5;"/>
   </g>
   <g id="line2d_31">
    <path clip-path="url(#p23f52fa196)" d="M 170.808625 346.618537 
L 172.946612 346.618537 
" style="fill:none;stroke:#55a868;stroke-linecap:round;stroke-width:1.5;"/>
   </g>
   <g id="line2d_32">
    <path clip-path="url(#p23f52fa196)" d="M 125.300614 339.547317 
L 306.008439 339.547317 
" style="fill:none;stroke:#55a868;stroke-linecap:round;stroke-width:1.5;"/>
   </g>
   <g id="line2d_33">
    <path clip-path="url(#p23f52fa196)" d="M 262.808194 332.476098 
L 393.444506 332.476098 
" style="fill:none;stroke:#55a868;stroke-linecap:round;stroke-width:1.5;"/>
   </g>
   <g id="line2d_34">
    <path clip-path="url(#p23f52fa196)" d="M 195.944025 328.940488 
L 196.516749 328.940488 
" style="fill:none;stroke:#55a868;stroke-linecap:round;stroke-width:1.5;"/>
   </g>
   <g id="line2d_35">
    <path clip-path="url(#p23f52fa196)" d="M 127.899223 321.869268 
L 224.101535 321.869268 
" style="fill:none;stroke:#55a868;stroke-linecap:round;stroke-width:1.5;"/>
   </g>
   <g id="line2d_36">
    <path clip-path="url(#p23f52fa196)" d="M 284.626858 318.333659 
L 290.34498 318.333659 
" style="fill:none;stroke:#55a868;stroke-linecap:round;stroke-width:1.5;"/>
   </g>
   <g id="line2d_37">
    <path clip-path="url(#p23f52fa196)" d="M 272.346684 314.798049 
L 277.942562 314.798049 
" style="fill:none;stroke:#55a868;stroke-linecap:round;stroke-width:1.5;"/>
   </g>
   <g id="line2d_38">
    <path clip-path="url(#p23f52fa196)" d="M 244.360575 307.726829 
L 246.280484 307.726829 
" style="fill:none;stroke:#55a868;stroke-linecap:round;stroke-width:1.5;"/>
   </g>
   <g id="line2d_39">
    <path clip-path="url(#p23f52fa196)" d="M 159.14001 290.04878 
L 175.277878 290.04878 
" style="fill:none;stroke:#55a868;stroke-linecap:round;stroke-width:1.5;"/>
   </g>
   <g id="line2d_40">
    <path clip-path="url(#p23f52fa196)" d="M 135.864012 275.906341 
L 161.609429 275.906341 
" style="fill:none;stroke:#55a868;stroke-linecap:round;stroke-width:1.5;"/>
   </g>
   <g id="line2d_41">
    <path clip-path="url(#p23f52fa196)" d="M 172.55694 258.228293 
L 368.263923 258.228293 
" style="fill:none;stroke:#55a868;stroke-linecap:round;stroke-width:1.5;"/>
   </g>
   <g id="line2d_42">
    <path clip-path="url(#p23f52fa196)" d="M 220.652391 233.479024 
L 236.703814 233.479024 
" style="fill:none;stroke:#55a868;stroke-linecap:round;stroke-width:1.5;"/>
   </g>
   <g id="line2d_43">
    <path clip-path="url(#p23f52fa196)" d="M 214.539406 229.943415 
L 383.066893 229.943415 
" style="fill:none;stroke:#55a868;stroke-linecap:round;stroke-width:1.5;"/>
   </g>
   <g id="line2d_44">
    <path clip-path="url(#p23f52fa196)" d="M 213.969768 226.407805 
L 386.503686 226.407805 
" style="fill:none;stroke:#55a868;stroke-linecap:round;stroke-width:1.5;"/>
   </g>
   <g id="line2d_45">
    <path clip-path="url(#p23f52fa196)" d="M 249.968123 222.872195 
L 268.62328 222.872195 
" style="fill:none;stroke:#55a868;stroke-linecap:round;stroke-width:1.5;"/>
   </g>
   <g id="line2d_46">
    <path clip-path="url(#p23f52fa196)" d="M 293.321447 215.800976 
L 326.487618 215.800976 
" style="fill:none;stroke:#55a868;stroke-linecap:round;stroke-width:1.5;"/>
   </g>
   <g id="line2d_47">
    <path clip-path="url(#p23f52fa196)" d="M 79.52803 212.265366 
L 83.644485 212.265366 
" style="fill:none;stroke:#55a868;stroke-linecap:round;stroke-width:1.5;"/>
   </g>
   <g id="line2d_48">
    <path clip-path="url(#p23f52fa196)" d="M 305.27731 194.587317 
L 318.802622 194.587317 
" style="fill:none;stroke:#55a868;stroke-linecap:round;stroke-width:1.5;"/>
   </g>
   <g id="line2d_49">
    <path clip-path="url(#p23f52fa196)" d="M 296.50878 191.051707 
L 323.707745 191.051707 
" style="fill:none;stroke:#55a868;stroke-linecap:round;stroke-width:1.5;"/>
   </g>
   <g id="line2d_50">
    <path clip-path="url(#p23f52fa196)" d="M 295.658577 176.909268 
L 332.637221 176.909268 
" style="fill:none;stroke:#55a868;stroke-linecap:round;stroke-width:1.5;"/>
   </g>
   <g id="line2d_51">
    <path clip-path="url(#p23f52fa196)" d="M 244.775077 173.373659 
L 248.120949 173.373659 
" style="fill:none;stroke:#55a868;stroke-linecap:round;stroke-width:1.5;"/>
   </g>
   <g id="line2d_52">
    <path clip-path="url(#p23f52fa196)" d="M 301.90121 162.766829 
L 366.84088 162.766829 
" style="fill:none;stroke:#55a868;stroke-linecap:round;stroke-width:1.5;"/>
   </g>
   <g id="line2d_53">
    <path clip-path="url(#p23f52fa196)" d="M 213.589047 152.16 
L 227.596189 152.16 
" style="fill:none;stroke:#55a868;stroke-linecap:round;stroke-width:1.5;"/>
   </g>
   <g id="line2d_54">
    <path clip-path="url(#p23f52fa196)" d="M 249.21881 130.946341 
L 331.355985 130.946341 
" style="fill:none;stroke:#55a868;stroke-linecap:round;stroke-width:1.5;"/>
   </g>
   <g id="line2d_55">
    <path clip-path="url(#p23f52fa196)" d="M 184.769745 127.410732 
L 188.606195 127.410732 
" style="fill:none;stroke:#55a868;stroke-linecap:round;stroke-width:1.5;"/>
   </g>
   <g id="line2d_56">
    <path clip-path="url(#p23f52fa196)" d="M 121.625145 123.875122 
L 185.218745 123.875122 
" style="fill:none;stroke:#55a868;stroke-linecap:round;stroke-width:1.5;"/>
   </g>
   <g id="line2d_57">
    <path clip-path="url(#p23f52fa196)" d="M 344.523694 116.803902 
L 356.639018 116.803902 
" style="fill:none;stroke:#55a868;stroke-linecap:round;stroke-width:1.5;"/>
   </g>
   <g id="line2d_58">
    <path clip-path="url(#p23f52fa196)" d="M 150.272594 106.197073 
L 189.796544 106.197073 
" style="fill:none;stroke:#55a868;stroke-linecap:round;stroke-width:1.5;"/>
   </g>
   <g id="line2d_59">
    <path clip-path="url(#p23f52fa196)" d="M 79.009978 102.661463 
L 204.803142 102.661463 
" style="fill:none;stroke:#55a868;stroke-linecap:round;stroke-width:1.5;"/>
   </g>
   <g id="line2d_60">
    <path clip-path="url(#p23f52fa196)" d="M 80.405142 95.590244 
L 99.301705 95.590244 
" style="fill:none;stroke:#55a868;stroke-linecap:round;stroke-width:1.5;"/>
   </g>
   <g id="line2d_61">
    <path clip-path="url(#p23f52fa196)" d="M 247.3933 435.00878 
L 394.197273 435.00878 
" style="fill:none;stroke:#c44e52;stroke-linecap:round;stroke-width:1.5;"/>
   </g>
   <g id="line2d_62">
    <path clip-path="url(#p23f52fa196)" d="M 289.857894 410.259512 
L 394.197273 410.259512 
" style="fill:none;stroke:#c44e52;stroke-linecap:round;stroke-width:1.5;"/>
   </g>
   <g id="line2d_63">
    <path clip-path="url(#p23f52fa196)" d="M 314.472636 403.188293 
L 394.197273 403.188293 
" style="fill:none;stroke:#c44e52;stroke-linecap:round;stroke-width:1.5;"/>
   </g>
   <g id="line2d_64">
    <path clip-path="url(#p23f52fa196)" d="M 316.401104 399.652683 
L 394.197273 399.652683 
" style="fill:none;stroke:#c44e52;stroke-linecap:round;stroke-width:1.5;"/>
   </g>
   <g id="line2d_65">
    <path clip-path="url(#p23f52fa196)" d="M 237.242117 389.045854 
L 394.197273 389.045854 
" style="fill:none;stroke:#c44e52;stroke-linecap:round;stroke-width:1.5;"/>
   </g>
   <g id="line2d_66">
    <path clip-path="url(#p23f52fa196)" d="M 391.441455 385.510244 
L 394.197273 385.510244 
" style="fill:none;stroke:#c44e52;stroke-linecap:round;stroke-width:1.5;"/>
   </g>
   <g id="line2d_67">
    <path clip-path="url(#p23f52fa196)" d="M 230.847279 371.367805 
L 394.197273 371.367805 
" style="fill:none;stroke:#c44e52;stroke-linecap:round;stroke-width:1.5;"/>
   </g>
   <g id="line2d_68">
    <path clip-path="url(#p23f52fa196)" d="M 282.927428 367.832195 
L 394.197273 367.832195 
" style="fill:none;stroke:#c44e52;stroke-linecap:round;stroke-width:1.5;"/>
   </g>
   <g id="line2d_69">
    <path clip-path="url(#p23f52fa196)" d="M 93.68614 350.154146 
L 394.197273 350.154146 
" style="fill:none;stroke:#c44e52;stroke-linecap:round;stroke-width:1.5;"/>
   </g>
   <g id="line2d_70">
    <path clip-path="url(#p23f52fa196)" d="M 243.418646 343.082927 
L 394.197273 343.082927 
" style="fill:none;stroke:#c44e52;stroke-linecap:round;stroke-width:1.5;"/>
   </g>
   <g id="line2d_71">
    <path clip-path="url(#p23f52fa196)" d="M 377.431757 336.011707 
L 394.197273 336.011707 
" style="fill:none;stroke:#c44e52;stroke-linecap:round;stroke-width:1.5;"/>
   </g>
   <g id="line2d_72">
    <path clip-path="url(#p23f52fa196)" d="M 297.541778 325.404878 
L 394.197273 325.404878 
" style="fill:none;stroke:#c44e52;stroke-linecap:round;stroke-width:1.5;"/>
   </g>
   <g id="line2d_73">
    <path clip-path="url(#p23f52fa196)" d="M 277.581919 311.262439 
L 394.197273 311.262439 
" style="fill:none;stroke:#c44e52;stroke-linecap:round;stroke-width:1.5;"/>
   </g>
   <g id="line2d_74">
    <path clip-path="url(#p23f52fa196)" d="M 325.634523 304.19122 
L 394.197273 304.19122 
" style="fill:none;stroke:#c44e52;stroke-linecap:round;stroke-width:1.5;"/>
   </g>
   <g id="line2d_75">
    <path clip-path="url(#p23f52fa196)" d="M 331.335427 300.65561 
L 394.197273 300.65561 
" style="fill:none;stroke:#c44e52;stroke-linecap:round;stroke-width:1.5;"/>
   </g>
   <g id="line2d_76">
    <path clip-path="url(#p23f52fa196)" d="M 74.108995 297.12 
L 394.197273 297.12 
" style="fill:none;stroke:#c44e52;stroke-linecap:round;stroke-width:1.5;"/>
   </g>
   <g id="line2d_77">
    <path clip-path="url(#p23f52fa196)" d="M 298.759925 293.58439 
L 394.197273 293.58439 
" style="fill:none;stroke:#c44e52;stroke-linecap:round;stroke-width:1.5;"/>
   </g>
   <g id="line2d_78">
    <path clip-path="url(#p23f52fa196)" d="M 296.957295 286.513171 
L 394.197273 286.513171 
" style="fill:none;stroke:#c44e52;stroke-linecap:round;stroke-width:1.5;"/>
   </g>
   <g id="line2d_79">
    <path clip-path="url(#p23f52fa196)" d="M 185.257494 282.977561 
L 394.197273 282.977561 
" style="fill:none;stroke:#c44e52;stroke-linecap:round;stroke-width:1.5;"/>
   </g>
   <g id="line2d_80">
    <path clip-path="url(#p23f52fa196)" d="M 299.013366 279.441951 
L 394.197273 279.441951 
" style="fill:none;stroke:#c44e52;stroke-linecap:round;stroke-width:1.5;"/>
   </g>
   <g id="line2d_81">
    <path clip-path="url(#p23f52fa196)" d="M 382.553446 272.370732 
L 394.197273 272.370732 
" style="fill:none;stroke:#c44e52;stroke-linecap:round;stroke-width:1.5;"/>
   </g>
   <g id="line2d_82">
    <path clip-path="url(#p23f52fa196)" d="M 386.667753 268.835122 
L 394.197273 268.835122 
" style="fill:none;stroke:#c44e52;stroke-linecap:round;stroke-width:1.5;"/>
   </g>
   <g id="line2d_83">
    <path clip-path="url(#p23f52fa196)" d="M 149.621508 265.299512 
L 394.197273 265.299512 
" style="fill:none;stroke:#c44e52;stroke-linecap:round;stroke-width:1.5;"/>
   </g>
   <g id="line2d_84">
    <path clip-path="url(#p23f52fa196)" d="M 101.977087 261.763902 
L 394.197273 261.763902 
" style="fill:none;stroke:#c44e52;stroke-linecap:round;stroke-width:1.5;"/>
   </g>
   <g id="line2d_85">
    <path clip-path="url(#p23f52fa196)" d="M 360.304953 254.692683 
L 394.197273 254.692683 
" style="fill:none;stroke:#c44e52;stroke-linecap:round;stroke-width:1.5;"/>
   </g>
   <g id="line2d_86">
    <path clip-path="url(#p23f52fa196)" d="M 377.489956 251.157073 
L 394.197273 251.157073 
" style="fill:none;stroke:#c44e52;stroke-linecap:round;stroke-width:1.5;"/>
   </g>
   <g id="line2d_87">
    <path clip-path="url(#p23f52fa196)" d="M 348.677844 247.621463 
L 394.197273 247.621463 
" style="fill:none;stroke:#c44e52;stroke-linecap:round;stroke-width:1.5;"/>
   </g>
   <g id="line2d_88">
    <path clip-path="url(#p23f52fa196)" d="M 321.121498 244.085854 
L 394.197273 244.085854 
" style="fill:none;stroke:#c44e52;stroke-linecap:round;stroke-width:1.5;"/>
   </g>
   <g id="line2d_89">
    <path clip-path="url(#p23f52fa196)" d="M 69.542727 240.550244 
L 394.197273 240.550244 
" style="fill:none;stroke:#c44e52;stroke-linecap:round;stroke-width:1.5;"/>
   </g>
   <g id="line2d_90">
    <path clip-path="url(#p23f52fa196)" d="M 162.08143 237.014634 
L 394.197273 237.014634 
" style="fill:none;stroke:#c44e52;stroke-linecap:round;stroke-width:1.5;"/>
   </g>
   <g id="line2d_91">
    <path clip-path="url(#p23f52fa196)" d="M 207.595407 219.336585 
L 394.197273 219.336585 
" style="fill:none;stroke:#c44e52;stroke-linecap:round;stroke-width:1.5;"/>
   </g>
   <g id="line2d_92">
    <path clip-path="url(#p23f52fa196)" d="M 245.451573 208.729756 
L 394.197273 208.729756 
" style="fill:none;stroke:#c44e52;stroke-linecap:round;stroke-width:1.5;"/>
   </g>
   <g id="line2d_93">
    <path clip-path="url(#p23f52fa196)" d="M 233.700919 205.194146 
L 394.197273 205.194146 
" style="fill:none;stroke:#c44e52;stroke-linecap:round;stroke-width:1.5;"/>
   </g>
   <g id="line2d_94">
    <path clip-path="url(#p23f52fa196)" d="M 220.689914 201.658537 
L 394.197273 201.658537 
" style="fill:none;stroke:#c44e52;stroke-linecap:round;stroke-width:1.5;"/>
   </g>
   <g id="line2d_95">
    <path clip-path="url(#p23f52fa196)" d="M 385.574079 198.122927 
L 394.197273 198.122927 
" style="fill:none;stroke:#c44e52;stroke-linecap:round;stroke-width:1.5;"/>
   </g>
   <g id="line2d_96">
    <path clip-path="url(#p23f52fa196)" d="M 236.138785 187.516098 
L 394.197273 187.516098 
" style="fill:none;stroke:#c44e52;stroke-linecap:round;stroke-width:1.5;"/>
   </g>
   <g id="line2d_97">
    <path clip-path="url(#p23f52fa196)" d="M 178.187082 183.980488 
L 394.197273 183.980488 
" style="fill:none;stroke:#c44e52;stroke-linecap:round;stroke-width:1.5;"/>
   </g>
   <g id="line2d_98">
    <path clip-path="url(#p23f52fa196)" d="M 103.14465 180.444878 
L 394.197273 180.444878 
" style="fill:none;stroke:#c44e52;stroke-linecap:round;stroke-width:1.5;"/>
   </g>
   <g id="line2d_99">
    <path clip-path="url(#p23f52fa196)" d="M 82.256568 169.838049 
L 394.197273 169.838049 
" style="fill:none;stroke:#c44e52;stroke-linecap:round;stroke-width:1.5;"/>
   </g>
   <g id="line2d_100">
    <path clip-path="url(#p23f52fa196)" d="M 92.381302 166.302439 
L 394.197273 166.302439 
" style="fill:none;stroke:#c44e52;stroke-linecap:round;stroke-width:1.5;"/>
   </g>
   <g id="line2d_101">
    <path clip-path="url(#p23f52fa196)" d="M 283.907862 159.23122 
L 394.197273 159.23122 
" style="fill:none;stroke:#c44e52;stroke-linecap:round;stroke-width:1.5;"/>
   </g>
   <g id="line2d_102">
    <path clip-path="url(#p23f52fa196)" d="M 239.169238 155.69561 
L 394.197273 155.69561 
" style="fill:none;stroke:#c44e52;stroke-linecap:round;stroke-width:1.5;"/>
   </g>
   <g id="line2d_103">
    <path clip-path="url(#p23f52fa196)" d="M 89.665277 148.62439 
L 394.197273 148.62439 
" style="fill:none;stroke:#c44e52;stroke-linecap:round;stroke-width:1.5;"/>
   </g>
   <g id="line2d_104">
    <path clip-path="url(#p23f52fa196)" d="M 310.947924 145.08878 
L 394.197273 145.08878 
" style="fill:none;stroke:#c44e52;stroke-linecap:round;stroke-width:1.5;"/>
   </g>
   <g id="line2d_105">
    <path clip-path="url(#p23f52fa196)" d="M 185.833657 141.553171 
L 394.197273 141.553171 
" style="fill:none;stroke:#c44e52;stroke-linecap:round;stroke-width:1.5;"/>
   </g>
   <g id="line2d_106">
    <path clip-path="url(#p23f52fa196)" d="M 135.014726 138.017561 
L 394.197273 138.017561 
" style="fill:none;stroke:#c44e52;stroke-linecap:round;stroke-width:1.5;"/>
   </g>
   <g id="line2d_107">
    <path clip-path="url(#p23f52fa196)" d="M 377.477483 134.481951 
L 394.197273 134.481951 
" style="fill:none;stroke:#c44e52;stroke-linecap:round;stroke-width:1.5;"/>
   </g>
   <g id="line2d_108">
    <path clip-path="url(#p23f52fa196)" d="M 324.12192 120.339512 
L 394.197273 120.339512 
" style="fill:none;stroke:#c44e52;stroke-linecap:round;stroke-width:1.5;"/>
   </g>
   <g id="line2d_109">
    <path clip-path="url(#p23f52fa196)" d="M 379.094882 113.268293 
L 394.197273 113.268293 
" style="fill:none;stroke:#c44e52;stroke-linecap:round;stroke-width:1.5;"/>
   </g>
   <g id="line2d_110">
    <path clip-path="url(#p23f52fa196)" d="M 104.258315 109.732683 
L 394.197273 109.732683 
" style="fill:none;stroke:#c44e52;stroke-linecap:round;stroke-width:1.5;"/>
   </g>
   <g id="line2d_111">
    <path clip-path="url(#p23f52fa196)" d="M 359.272536 99.125854 
L 394.197273 99.125854 
" style="fill:none;stroke:#c44e52;stroke-linecap:round;stroke-width:1.5;"/>
   </g>
   <g id="line2d_112">
    <path clip-path="url(#p23f52fa196)" d="M 284.145507 92.054634 
L 394.197273 92.054634 
" style="fill:none;stroke:#c44e52;stroke-linecap:round;stroke-width:1.5;"/>
   </g>
   <g id="line2d_113">
    <path clip-path="url(#p23f52fa196)" d="M 139.651048 88.519024 
L 394.197273 88.519024 
" style="fill:none;stroke:#c44e52;stroke-linecap:round;stroke-width:1.5;"/>
   </g>
   <g id="line2d_114">
    <defs>
     <path d="M 0 1.5 
C 0.397805 1.5 0.77937 1.341951 1.06066 1.06066 
C 1.341951 0.77937 1.5 0.397805 1.5 0 
C 1.5 -0.397805 1.341951 -0.77937 1.06066 -1.06066 
C 0.77937 -1.341951 0.397805 -1.5 0 -1.5 
C -0.397805 -1.5 -0.77937 -1.341951 -1.06066 -1.06066 
C -1.341951 -0.77937 -1.5 -0.397805 -1.5 0 
C -1.5 0.397805 -1.341951 0.77937 -1.06066 1.06066 
C -0.77937 1.341951 -0.397805 1.5 0 1.5 
z
" id="m0c96422d68" style="stroke:#4c72b0;"/>
    </defs>
    <g clip-path="url(#p23f52fa196)">
     <use style="fill:#4c72b0;stroke:#4c72b0;" x="319.081531" xlink:href="#m0c96422d68" y="438.54439"/>
     <use style="fill:#4c72b0;stroke:#4c72b0;" x="247.3933" xlink:href="#m0c96422d68" y="435.00878"/>
     <use style="fill:#4c72b0;stroke:#4c72b0;" x="241.118961" xlink:href="#m0c96422d68" y="431.473171"/>
     <use style="fill:#4c72b0;stroke:#4c72b0;" x="98.642344" xlink:href="#m0c96422d68" y="427.937561"/>
     <use style="fill:#4c72b0;stroke:#4c72b0;" x="75.517359" xlink:href="#m0c96422d68" y="424.401951"/>
     <use style="fill:#4c72b0;stroke:#4c72b0;" x="206.661791" xlink:href="#m0c96422d68" y="420.866341"/>
     <use style="fill:#4c72b0;stroke:#4c72b0;" x="77.621231" xlink:href="#m0c96422d68" y="417.330732"/>
     <use style="fill:#4c72b0;stroke:#4c72b0;" x="382.618927" xlink:href="#m0c96422d68" y="413.795122"/>
     <use style="fill:#4c72b0;stroke:#4c72b0;" x="289.857894" xlink:href="#m0c96422d68" y="410.259512"/>
     <use style="fill:#4c72b0;stroke:#4c72b0;" x="153.086975" xlink:href="#m0c96422d68" y="406.723902"/>
     <use style="fill:#4c72b0;stroke:#4c72b0;" x="314.472636" xlink:href="#m0c96422d68" y="403.188293"/>
     <use style="fill:#4c72b0;stroke:#4c72b0;" x="316.401104" xlink:href="#m0c96422d68" y="399.652683"/>
     <use style="fill:#4c72b0;stroke:#4c72b0;" x="166.173617" xlink:href="#m0c96422d68" y="396.117073"/>
     <use style="fill:#4c72b0;stroke:#4c72b0;" x="167.955148" xlink:href="#m0c96422d68" y="392.581463"/>
     <use style="fill:#4c72b0;stroke:#4c72b0;" x="237.242117" xlink:href="#m0c96422d68" y="389.045854"/>
     <use style="fill:#4c72b0;stroke:#4c72b0;" x="391.441455" xlink:href="#m0c96422d68" y="385.510244"/>
     <use style="fill:#4c72b0;stroke:#4c72b0;" x="301.308505" xlink:href="#m0c96422d68" y="381.974634"/>
     <use style="fill:#4c72b0;stroke:#4c72b0;" x="353.446509" xlink:href="#m0c96422d68" y="378.439024"/>
     <use style="fill:#4c72b0;stroke:#4c72b0;" x="293.990782" xlink:href="#m0c96422d68" y="374.903415"/>
     <use style="fill:#4c72b0;stroke:#4c72b0;" x="230.847279" xlink:href="#m0c96422d68" y="371.367805"/>
     <use style="fill:#4c72b0;stroke:#4c72b0;" x="282.927428" xlink:href="#m0c96422d68" y="367.832195"/>
     <use style="fill:#4c72b0;stroke:#4c72b0;" x="128.592221" xlink:href="#m0c96422d68" y="364.296585"/>
     <use style="fill:#4c72b0;stroke:#4c72b0;" x="234.801042" xlink:href="#m0c96422d68" y="360.760976"/>
     <use style="fill:#4c72b0;stroke:#4c72b0;" x="119.295818" xlink:href="#m0c96422d68" y="357.225366"/>
     <use style="fill:#4c72b0;stroke:#4c72b0;" x="168.810166" xlink:href="#m0c96422d68" y="353.689756"/>
     <use style="fill:#4c72b0;stroke:#4c72b0;" x="93.68614" xlink:href="#m0c96422d68" y="350.154146"/>
     <use style="fill:#4c72b0;stroke:#4c72b0;" x="170.808625" xlink:href="#m0c96422d68" y="346.618537"/>
     <use style="fill:#4c72b0;stroke:#4c72b0;" x="243.418646" xlink:href="#m0c96422d68" y="343.082927"/>
     <use style="fill:#4c72b0;stroke:#4c72b0;" x="125.300614" xlink:href="#m0c96422d68" y="339.547317"/>
     <use style="fill:#4c72b0;stroke:#4c72b0;" x="377.431757" xlink:href="#m0c96422d68" y="336.011707"/>
     <use style="fill:#4c72b0;stroke:#4c72b0;" x="262.808194" xlink:href="#m0c96422d68" y="332.476098"/>
     <use style="fill:#4c72b0;stroke:#4c72b0;" x="195.944025" xlink:href="#m0c96422d68" y="328.940488"/>
     <use style="fill:#4c72b0;stroke:#4c72b0;" x="297.541778" xlink:href="#m0c96422d68" y="325.404878"/>
     <use style="fill:#4c72b0;stroke:#4c72b0;" x="127.899223" xlink:href="#m0c96422d68" y="321.869268"/>
     <use style="fill:#4c72b0;stroke:#4c72b0;" x="284.626858" xlink:href="#m0c96422d68" y="318.333659"/>
     <use style="fill:#4c72b0;stroke:#4c72b0;" x="272.346684" xlink:href="#m0c96422d68" y="314.798049"/>
     <use style="fill:#4c72b0;stroke:#4c72b0;" x="277.581919" xlink:href="#m0c96422d68" y="311.262439"/>
     <use style="fill:#4c72b0;stroke:#4c72b0;" x="244.360575" xlink:href="#m0c96422d68" y="307.726829"/>
     <use style="fill:#4c72b0;stroke:#4c72b0;" x="325.634523" xlink:href="#m0c96422d68" y="304.19122"/>
     <use style="fill:#4c72b0;stroke:#4c72b0;" x="331.335427" xlink:href="#m0c96422d68" y="300.65561"/>
     <use style="fill:#4c72b0;stroke:#4c72b0;" x="74.108995" xlink:href="#m0c96422d68" y="297.12"/>
     <use style="fill:#4c72b0;stroke:#4c72b0;" x="298.759925" xlink:href="#m0c96422d68" y="293.58439"/>
     <use style="fill:#4c72b0;stroke:#4c72b0;" x="159.14001" xlink:href="#m0c96422d68" y="290.04878"/>
     <use style="fill:#4c72b0;stroke:#4c72b0;" x="296.957295" xlink:href="#m0c96422d68" y="286.513171"/>
     <use style="fill:#4c72b0;stroke:#4c72b0;" x="185.257494" xlink:href="#m0c96422d68" y="282.977561"/>
     <use style="fill:#4c72b0;stroke:#4c72b0;" x="299.013366" xlink:href="#m0c96422d68" y="279.441951"/>
     <use style="fill:#4c72b0;stroke:#4c72b0;" x="135.864012" xlink:href="#m0c96422d68" y="275.906341"/>
     <use style="fill:#4c72b0;stroke:#4c72b0;" x="382.553446" xlink:href="#m0c96422d68" y="272.370732"/>
     <use style="fill:#4c72b0;stroke:#4c72b0;" x="386.667753" xlink:href="#m0c96422d68" y="268.835122"/>
     <use style="fill:#4c72b0;stroke:#4c72b0;" x="149.621508" xlink:href="#m0c96422d68" y="265.299512"/>
     <use style="fill:#4c72b0;stroke:#4c72b0;" x="101.977087" xlink:href="#m0c96422d68" y="261.763902"/>
     <use style="fill:#4c72b0;stroke:#4c72b0;" x="172.55694" xlink:href="#m0c96422d68" y="258.228293"/>
     <use style="fill:#4c72b0;stroke:#4c72b0;" x="360.304953" xlink:href="#m0c96422d68" y="254.692683"/>
     <use style="fill:#4c72b0;stroke:#4c72b0;" x="377.489956" xlink:href="#m0c96422d68" y="251.157073"/>
     <use style="fill:#4c72b0;stroke:#4c72b0;" x="348.677844" xlink:href="#m0c96422d68" y="247.621463"/>
     <use style="fill:#4c72b0;stroke:#4c72b0;" x="321.121498" xlink:href="#m0c96422d68" y="244.085854"/>
     <use style="fill:#4c72b0;stroke:#4c72b0;" x="69.542727" xlink:href="#m0c96422d68" y="240.550244"/>
     <use style="fill:#4c72b0;stroke:#4c72b0;" x="162.08143" xlink:href="#m0c96422d68" y="237.014634"/>
     <use style="fill:#4c72b0;stroke:#4c72b0;" x="220.652391" xlink:href="#m0c96422d68" y="233.479024"/>
     <use style="fill:#4c72b0;stroke:#4c72b0;" x="214.539406" xlink:href="#m0c96422d68" y="229.943415"/>
     <use style="fill:#4c72b0;stroke:#4c72b0;" x="213.969768" xlink:href="#m0c96422d68" y="226.407805"/>
     <use style="fill:#4c72b0;stroke:#4c72b0;" x="249.968123" xlink:href="#m0c96422d68" y="222.872195"/>
     <use style="fill:#4c72b0;stroke:#4c72b0;" x="207.595407" xlink:href="#m0c96422d68" y="219.336585"/>
     <use style="fill:#4c72b0;stroke:#4c72b0;" x="293.321447" xlink:href="#m0c96422d68" y="215.800976"/>
     <use style="fill:#4c72b0;stroke:#4c72b0;" x="79.52803" xlink:href="#m0c96422d68" y="212.265366"/>
     <use style="fill:#4c72b0;stroke:#4c72b0;" x="245.451573" xlink:href="#m0c96422d68" y="208.729756"/>
     <use style="fill:#4c72b0;stroke:#4c72b0;" x="233.700919" xlink:href="#m0c96422d68" y="205.194146"/>
     <use style="fill:#4c72b0;stroke:#4c72b0;" x="220.689914" xlink:href="#m0c96422d68" y="201.658537"/>
     <use style="fill:#4c72b0;stroke:#4c72b0;" x="385.574079" xlink:href="#m0c96422d68" y="198.122927"/>
     <use style="fill:#4c72b0;stroke:#4c72b0;" x="305.27731" xlink:href="#m0c96422d68" y="194.587317"/>
     <use style="fill:#4c72b0;stroke:#4c72b0;" x="296.50878" xlink:href="#m0c96422d68" y="191.051707"/>
     <use style="fill:#4c72b0;stroke:#4c72b0;" x="236.138785" xlink:href="#m0c96422d68" y="187.516098"/>
     <use style="fill:#4c72b0;stroke:#4c72b0;" x="178.187082" xlink:href="#m0c96422d68" y="183.980488"/>
     <use style="fill:#4c72b0;stroke:#4c72b0;" x="103.14465" xlink:href="#m0c96422d68" y="180.444878"/>
     <use style="fill:#4c72b0;stroke:#4c72b0;" x="295.658577" xlink:href="#m0c96422d68" y="176.909268"/>
     <use style="fill:#4c72b0;stroke:#4c72b0;" x="244.775077" xlink:href="#m0c96422d68" y="173.373659"/>
     <use style="fill:#4c72b0;stroke:#4c72b0;" x="82.256568" xlink:href="#m0c96422d68" y="169.838049"/>
     <use style="fill:#4c72b0;stroke:#4c72b0;" x="92.381302" xlink:href="#m0c96422d68" y="166.302439"/>
     <use style="fill:#4c72b0;stroke:#4c72b0;" x="301.90121" xlink:href="#m0c96422d68" y="162.766829"/>
     <use style="fill:#4c72b0;stroke:#4c72b0;" x="283.907862" xlink:href="#m0c96422d68" y="159.23122"/>
     <use style="fill:#4c72b0;stroke:#4c72b0;" x="239.169238" xlink:href="#m0c96422d68" y="155.69561"/>
     <use style="fill:#4c72b0;stroke:#4c72b0;" x="213.589047" xlink:href="#m0c96422d68" y="152.16"/>
     <use style="fill:#4c72b0;stroke:#4c72b0;" x="89.665277" xlink:href="#m0c96422d68" y="148.62439"/>
     <use style="fill:#4c72b0;stroke:#4c72b0;" x="310.947924" xlink:href="#m0c96422d68" y="145.08878"/>
     <use style="fill:#4c72b0;stroke:#4c72b0;" x="185.833657" xlink:href="#m0c96422d68" y="141.553171"/>
     <use style="fill:#4c72b0;stroke:#4c72b0;" x="135.014726" xlink:href="#m0c96422d68" y="138.017561"/>
     <use style="fill:#4c72b0;stroke:#4c72b0;" x="377.477483" xlink:href="#m0c96422d68" y="134.481951"/>
     <use style="fill:#4c72b0;stroke:#4c72b0;" x="249.21881" xlink:href="#m0c96422d68" y="130.946341"/>
     <use style="fill:#4c72b0;stroke:#4c72b0;" x="184.769745" xlink:href="#m0c96422d68" y="127.410732"/>
     <use style="fill:#4c72b0;stroke:#4c72b0;" x="121.625145" xlink:href="#m0c96422d68" y="123.875122"/>
     <use style="fill:#4c72b0;stroke:#4c72b0;" x="324.12192" xlink:href="#m0c96422d68" y="120.339512"/>
     <use style="fill:#4c72b0;stroke:#4c72b0;" x="344.523694" xlink:href="#m0c96422d68" y="116.803902"/>
     <use style="fill:#4c72b0;stroke:#4c72b0;" x="379.094882" xlink:href="#m0c96422d68" y="113.268293"/>
     <use style="fill:#4c72b0;stroke:#4c72b0;" x="104.258315" xlink:href="#m0c96422d68" y="109.732683"/>
     <use style="fill:#4c72b0;stroke:#4c72b0;" x="150.272594" xlink:href="#m0c96422d68" y="106.197073"/>
     <use style="fill:#4c72b0;stroke:#4c72b0;" x="79.009978" xlink:href="#m0c96422d68" y="102.661463"/>
     <use style="fill:#4c72b0;stroke:#4c72b0;" x="359.272536" xlink:href="#m0c96422d68" y="99.125854"/>
     <use style="fill:#4c72b0;stroke:#4c72b0;" x="80.405142" xlink:href="#m0c96422d68" y="95.590244"/>
     <use style="fill:#4c72b0;stroke:#4c72b0;" x="284.145507" xlink:href="#m0c96422d68" y="92.054634"/>
     <use style="fill:#4c72b0;stroke:#4c72b0;" x="139.651048" xlink:href="#m0c96422d68" y="88.519024"/>
    </g>
   </g>
   <g id="line2d_115">
    <defs>
     <path d="M 0 1.5 
C 0.397805 1.5 0.77937 1.341951 1.06066 1.06066 
C 1.341951 0.77937 1.5 0.397805 1.5 0 
C 1.5 -0.397805 1.341951 -0.77937 1.06066 -1.06066 
C 0.77937 -1.341951 0.397805 -1.5 0 -1.5 
C -0.397805 -1.5 -0.77937 -1.341951 -1.06066 -1.06066 
C -1.341951 -0.77937 -1.5 -0.397805 -1.5 0 
C -1.5 0.397805 -1.341951 0.77937 -1.06066 1.06066 
C -0.77937 1.341951 -0.397805 1.5 0 1.5 
z
" id="m8ccdd187f3" style="stroke:#55a868;"/>
    </defs>
    <g clip-path="url(#p23f52fa196)">
     <use style="fill:#55a868;stroke:#55a868;" x="323.061553" xlink:href="#m8ccdd187f3" y="438.54439"/>
     <use style="fill:#55a868;stroke:#55a868;" x="326.857606" xlink:href="#m8ccdd187f3" y="431.473171"/>
     <use style="fill:#55a868;stroke:#55a868;" x="148.535113" xlink:href="#m8ccdd187f3" y="427.937561"/>
     <use style="fill:#55a868;stroke:#55a868;" x="110.390247" xlink:href="#m8ccdd187f3" y="424.401951"/>
     <use style="fill:#55a868;stroke:#55a868;" x="380.276101" xlink:href="#m8ccdd187f3" y="420.866341"/>
     <use style="fill:#55a868;stroke:#55a868;" x="179.077873" xlink:href="#m8ccdd187f3" y="417.330732"/>
     <use style="fill:#55a868;stroke:#55a868;" x="384.145772" xlink:href="#m8ccdd187f3" y="413.795122"/>
     <use style="fill:#55a868;stroke:#55a868;" x="154.275646" xlink:href="#m8ccdd187f3" y="406.723902"/>
     <use style="fill:#55a868;stroke:#55a868;" x="221.339507" xlink:href="#m8ccdd187f3" y="396.117073"/>
     <use style="fill:#55a868;stroke:#55a868;" x="292.712858" xlink:href="#m8ccdd187f3" y="392.581463"/>
     <use style="fill:#55a868;stroke:#55a868;" x="318.511934" xlink:href="#m8ccdd187f3" y="381.974634"/>
     <use style="fill:#55a868;stroke:#55a868;" x="379.703576" xlink:href="#m8ccdd187f3" y="378.439024"/>
     <use style="fill:#55a868;stroke:#55a868;" x="345.90667" xlink:href="#m8ccdd187f3" y="374.903415"/>
     <use style="fill:#55a868;stroke:#55a868;" x="170.358907" xlink:href="#m8ccdd187f3" y="364.296585"/>
     <use style="fill:#55a868;stroke:#55a868;" x="289.232989" xlink:href="#m8ccdd187f3" y="360.760976"/>
     <use style="fill:#55a868;stroke:#55a868;" x="142.596684" xlink:href="#m8ccdd187f3" y="357.225366"/>
     <use style="fill:#55a868;stroke:#55a868;" x="221.789063" xlink:href="#m8ccdd187f3" y="353.689756"/>
     <use style="fill:#55a868;stroke:#55a868;" x="172.946612" xlink:href="#m8ccdd187f3" y="346.618537"/>
     <use style="fill:#55a868;stroke:#55a868;" x="306.008439" xlink:href="#m8ccdd187f3" y="339.547317"/>
     <use style="fill:#55a868;stroke:#55a868;" x="393.444506" xlink:href="#m8ccdd187f3" y="332.476098"/>
     <use style="fill:#55a868;stroke:#55a868;" x="196.516749" xlink:href="#m8ccdd187f3" y="328.940488"/>
     <use style="fill:#55a868;stroke:#55a868;" x="224.101535" xlink:href="#m8ccdd187f3" y="321.869268"/>
     <use style="fill:#55a868;stroke:#55a868;" x="290.34498" xlink:href="#m8ccdd187f3" y="318.333659"/>
     <use style="fill:#55a868;stroke:#55a868;" x="277.942562" xlink:href="#m8ccdd187f3" y="314.798049"/>
     <use style="fill:#55a868;stroke:#55a868;" x="246.280484" xlink:href="#m8ccdd187f3" y="307.726829"/>
     <use style="fill:#55a868;stroke:#55a868;" x="175.277878" xlink:href="#m8ccdd187f3" y="290.04878"/>
     <use style="fill:#55a868;stroke:#55a868;" x="161.609429" xlink:href="#m8ccdd187f3" y="275.906341"/>
     <use style="fill:#55a868;stroke:#55a868;" x="368.263923" xlink:href="#m8ccdd187f3" y="258.228293"/>
     <use style="fill:#55a868;stroke:#55a868;" x="236.703814" xlink:href="#m8ccdd187f3" y="233.479024"/>
     <use style="fill:#55a868;stroke:#55a868;" x="383.066893" xlink:href="#m8ccdd187f3" y="229.943415"/>
     <use style="fill:#55a868;stroke:#55a868;" x="386.503686" xlink:href="#m8ccdd187f3" y="226.407805"/>
     <use style="fill:#55a868;stroke:#55a868;" x="268.62328" xlink:href="#m8ccdd187f3" y="222.872195"/>
     <use style="fill:#55a868;stroke:#55a868;" x="326.487618" xlink:href="#m8ccdd187f3" y="215.800976"/>
     <use style="fill:#55a868;stroke:#55a868;" x="83.644485" xlink:href="#m8ccdd187f3" y="212.265366"/>
     <use style="fill:#55a868;stroke:#55a868;" x="318.802622" xlink:href="#m8ccdd187f3" y="194.587317"/>
     <use style="fill:#55a868;stroke:#55a868;" x="323.707745" xlink:href="#m8ccdd187f3" y="191.051707"/>
     <use style="fill:#55a868;stroke:#55a868;" x="332.637221" xlink:href="#m8ccdd187f3" y="176.909268"/>
     <use style="fill:#55a868;stroke:#55a868;" x="248.120949" xlink:href="#m8ccdd187f3" y="173.373659"/>
     <use style="fill:#55a868;stroke:#55a868;" x="366.84088" xlink:href="#m8ccdd187f3" y="162.766829"/>
     <use style="fill:#55a868;stroke:#55a868;" x="227.596189" xlink:href="#m8ccdd187f3" y="152.16"/>
     <use style="fill:#55a868;stroke:#55a868;" x="331.355985" xlink:href="#m8ccdd187f3" y="130.946341"/>
     <use style="fill:#55a868;stroke:#55a868;" x="188.606195" xlink:href="#m8ccdd187f3" y="127.410732"/>
     <use style="fill:#55a868;stroke:#55a868;" x="185.218745" xlink:href="#m8ccdd187f3" y="123.875122"/>
     <use style="fill:#55a868;stroke:#55a868;" x="356.639018" xlink:href="#m8ccdd187f3" y="116.803902"/>
     <use style="fill:#55a868;stroke:#55a868;" x="189.796544" xlink:href="#m8ccdd187f3" y="106.197073"/>
     <use style="fill:#55a868;stroke:#55a868;" x="204.803142" xlink:href="#m8ccdd187f3" y="102.661463"/>
     <use style="fill:#55a868;stroke:#55a868;" x="99.301705" xlink:href="#m8ccdd187f3" y="95.590244"/>
    </g>
   </g>
   <g id="line2d_116"/>
   <g id="line2d_117">
    <path clip-path="url(#p23f52fa196)" d="M 394.197273 442.08 
L 394.197273 7.2 
" style="fill:none;stroke:#1a1a1a;stroke-dasharray:1.5,2.475;stroke-dashoffset:0;stroke-width:1.5;"/>
   </g>
   <g id="patch_3">
    <path d="M 53.31 442.08 
L 53.31 7.2 
" style="fill:none;stroke:#ffffff;stroke-linecap:square;stroke-linejoin:miter;stroke-width:1.25;"/>
   </g>
   <g id="patch_4">
    <path d="M 410.43 442.08 
L 410.43 7.2 
" style="fill:none;stroke:#ffffff;stroke-linecap:square;stroke-linejoin:miter;stroke-width:1.25;"/>
   </g>
   <g id="patch_5">
    <path d="M 53.31 442.08 
L 410.43 442.08 
" style="fill:none;stroke:#ffffff;stroke-linecap:square;stroke-linejoin:miter;stroke-width:1.25;"/>
   </g>
   <g id="patch_6">
    <path d="M 53.31 7.2 
L 410.43 7.2 
" style="fill:none;stroke:#ffffff;stroke-linecap:square;stroke-linejoin:miter;stroke-width:1.25;"/>
   </g>
   <g id="legend_1">
    <g id="patch_7">
     <path d="M 61.01 80.58375 
L 242.951719 80.58375 
Q 245.151719 80.58375 245.151719 78.38375 
L 245.151719 14.9 
Q 245.151719 12.7 242.951719 12.7 
L 61.01 12.7 
Q 58.81 12.7 58.81 14.9 
L 58.81 78.38375 
Q 58.81 80.58375 61.01 80.58375 
z
" style="fill:#eaeaf2;opacity:0.8;stroke:#cccccc;stroke-linejoin:miter;"/>
    </g>
    <g id="line2d_118"/>
    <g id="line2d_119">
     <g>
      <use style="fill:#4c72b0;stroke:#4c72b0;" x="74.21" xlink:href="#m0c96422d68" y="21.608281"/>
     </g>
    </g>
    <g id="text_16">
     <!-- First purchase -->
     <defs>
      <path d="M 9.8125 72.90625 
L 51.703125 72.90625 
L 51.703125 64.59375 
L 19.671875 64.59375 
L 19.671875 43.109375 
L 48.578125 43.109375 
L 48.578125 34.8125 
L 19.671875 34.8125 
L 19.671875 0 
L 9.8125 0 
z
" id="DejaVuSans-70"/>
      <path d="M 18.109375 8.203125 
L 18.109375 -20.796875 
L 9.078125 -20.796875 
L 9.078125 54.6875 
L 18.109375 54.6875 
L 18.109375 46.390625 
Q 20.953125 51.265625 25.265625 53.625 
Q 29.59375 56 35.59375 56 
Q 45.5625 56 51.78125 48.09375 
Q 58.015625 40.1875 58.015625 27.296875 
Q 58.015625 14.40625 51.78125 6.484375 
Q 45.5625 -1.421875 35.59375 -1.421875 
Q 29.59375 -1.421875 25.265625 0.953125 
Q 20.953125 3.328125 18.109375 8.203125 
z
M 48.6875 27.296875 
Q 48.6875 37.203125 44.609375 42.84375 
Q 40.53125 48.484375 33.40625 48.484375 
Q 26.265625 48.484375 22.1875 42.84375 
Q 18.109375 37.203125 18.109375 27.296875 
Q 18.109375 17.390625 22.1875 11.75 
Q 26.265625 6.109375 33.40625 6.109375 
Q 40.53125 6.109375 44.609375 11.75 
Q 48.6875 17.390625 48.6875 27.296875 
z
" id="DejaVuSans-112"/>
      <path d="M 48.78125 52.59375 
L 48.78125 44.1875 
Q 44.96875 46.296875 41.140625 47.34375 
Q 37.3125 48.390625 33.40625 48.390625 
Q 24.65625 48.390625 19.8125 42.84375 
Q 14.984375 37.3125 14.984375 27.296875 
Q 14.984375 17.28125 19.8125 11.734375 
Q 24.65625 6.203125 33.40625 6.203125 
Q 37.3125 6.203125 41.140625 7.25 
Q 44.96875 8.296875 48.78125 10.40625 
L 48.78125 2.09375 
Q 45.015625 0.34375 40.984375 -0.53125 
Q 36.96875 -1.421875 32.421875 -1.421875 
Q 20.0625 -1.421875 12.78125 6.34375 
Q 5.515625 14.109375 5.515625 27.296875 
Q 5.515625 40.671875 12.859375 48.328125 
Q 20.21875 56 33.015625 56 
Q 37.15625 56 41.109375 55.140625 
Q 45.0625 54.296875 48.78125 52.59375 
z
" id="DejaVuSans-99"/>
      <path d="M 54.890625 33.015625 
L 54.890625 0 
L 45.90625 0 
L 45.90625 32.71875 
Q 45.90625 40.484375 42.875 44.328125 
Q 39.84375 48.1875 33.796875 48.1875 
Q 26.515625 48.1875 22.3125 43.546875 
Q 18.109375 38.921875 18.109375 30.90625 
L 18.109375 0 
L 9.078125 0 
L 9.078125 75.984375 
L 18.109375 75.984375 
L 18.109375 46.1875 
Q 21.34375 51.125 25.703125 53.5625 
Q 30.078125 56 35.796875 56 
Q 45.21875 56 50.046875 50.171875 
Q 54.890625 44.34375 54.890625 33.015625 
z
" id="DejaVuSans-104"/>
      <path d="M 34.28125 27.484375 
Q 23.390625 27.484375 19.1875 25 
Q 14.984375 22.515625 14.984375 16.5 
Q 14.984375 11.71875 18.140625 8.90625 
Q 21.296875 6.109375 26.703125 6.109375 
Q 34.1875 6.109375 38.703125 11.40625 
Q 43.21875 16.703125 43.21875 25.484375 
L 43.21875 27.484375 
z
M 52.203125 31.203125 
L 52.203125 0 
L 43.21875 0 
L 43.21875 8.296875 
Q 40.140625 3.328125 35.546875 0.953125 
Q 30.953125 -1.421875 24.3125 -1.421875 
Q 15.921875 -1.421875 10.953125 3.296875 
Q 6 8.015625 6 15.921875 
Q 6 25.140625 12.171875 29.828125 
Q 18.359375 34.515625 30.609375 34.515625 
L 43.21875 34.515625 
L 43.21875 35.40625 
Q 43.21875 41.609375 39.140625 45 
Q 35.0625 48.390625 27.6875 48.390625 
Q 23 48.390625 18.546875 47.265625 
Q 14.109375 46.140625 10.015625 43.890625 
L 10.015625 52.203125 
Q 14.9375 54.109375 19.578125 55.046875 
Q 24.21875 56 28.609375 56 
Q 40.484375 56 46.34375 49.84375 
Q 52.203125 43.703125 52.203125 31.203125 
z
" id="DejaVuSans-97"/>
     </defs>
     <g style="fill:#262626;" transform="translate(94.01 25.458281)scale(0.11 -0.11)">
      <use xlink:href="#DejaVuSans-70"/>
      <use x="57.410156" xlink:href="#DejaVuSans-105"/>
      <use x="85.193359" xlink:href="#DejaVuSans-114"/>
      <use x="126.306641" xlink:href="#DejaVuSans-115"/>
      <use x="178.40625" xlink:href="#DejaVuSans-116"/>
      <use x="217.615234" xlink:href="#DejaVuSans-32"/>
      <use x="249.402344" xlink:href="#DejaVuSans-112"/>
      <use x="312.878906" xlink:href="#DejaVuSans-117"/>
      <use x="376.257812" xlink:href="#DejaVuSans-114"/>
      <use x="417.339844" xlink:href="#DejaVuSans-99"/>
      <use x="472.320312" xlink:href="#DejaVuSans-104"/>
      <use x="535.699219" xlink:href="#DejaVuSans-97"/>
      <use x="596.978516" xlink:href="#DejaVuSans-115"/>
      <use x="649.078125" xlink:href="#DejaVuSans-101"/>
     </g>
    </g>
    <g id="line2d_120"/>
    <g id="line2d_121">
     <g>
      <use style="fill:#55a868;stroke:#55a868;" x="74.21" xlink:href="#m8ccdd187f3" y="37.754219"/>
     </g>
    </g>
    <g id="text_17">
     <!-- Observed repeat purchase -->
     <defs>
      <path d="M 39.40625 66.21875 
Q 28.65625 66.21875 22.328125 58.203125 
Q 16.015625 50.203125 16.015625 36.375 
Q 16.015625 22.609375 22.328125 14.59375 
Q 28.65625 6.59375 39.40625 6.59375 
Q 50.140625 6.59375 56.421875 14.59375 
Q 62.703125 22.609375 62.703125 36.375 
Q 62.703125 50.203125 56.421875 58.203125 
Q 50.140625 66.21875 39.40625 66.21875 
z
M 39.40625 74.21875 
Q 54.734375 74.21875 63.90625 63.9375 
Q 73.09375 53.65625 73.09375 36.375 
Q 73.09375 19.140625 63.90625 8.859375 
Q 54.734375 -1.421875 39.40625 -1.421875 
Q 24.03125 -1.421875 14.8125 8.828125 
Q 5.609375 19.09375 5.609375 36.375 
Q 5.609375 53.65625 14.8125 63.9375 
Q 24.03125 74.21875 39.40625 74.21875 
z
" id="DejaVuSans-79"/>
      <path d="M 48.6875 27.296875 
Q 48.6875 37.203125 44.609375 42.84375 
Q 40.53125 48.484375 33.40625 48.484375 
Q 26.265625 48.484375 22.1875 42.84375 
Q 18.109375 37.203125 18.109375 27.296875 
Q 18.109375 17.390625 22.1875 11.75 
Q 26.265625 6.109375 33.40625 6.109375 
Q 40.53125 6.109375 44.609375 11.75 
Q 48.6875 17.390625 48.6875 27.296875 
z
M 18.109375 46.390625 
Q 20.953125 51.265625 25.265625 53.625 
Q 29.59375 56 35.59375 56 
Q 45.5625 56 51.78125 48.09375 
Q 58.015625 40.1875 58.015625 27.296875 
Q 58.015625 14.40625 51.78125 6.484375 
Q 45.5625 -1.421875 35.59375 -1.421875 
Q 29.59375 -1.421875 25.265625 0.953125 
Q 20.953125 3.328125 18.109375 8.203125 
L 18.109375 0 
L 9.078125 0 
L 9.078125 75.984375 
L 18.109375 75.984375 
z
" id="DejaVuSans-98"/>
      <path d="M 2.984375 54.6875 
L 12.5 54.6875 
L 29.59375 8.796875 
L 46.6875 54.6875 
L 56.203125 54.6875 
L 35.6875 0 
L 23.484375 0 
z
" id="DejaVuSans-118"/>
      <path d="M 45.40625 46.390625 
L 45.40625 75.984375 
L 54.390625 75.984375 
L 54.390625 0 
L 45.40625 0 
L 45.40625 8.203125 
Q 42.578125 3.328125 38.25 0.953125 
Q 33.9375 -1.421875 27.875 -1.421875 
Q 17.96875 -1.421875 11.734375 6.484375 
Q 5.515625 14.40625 5.515625 27.296875 
Q 5.515625 40.1875 11.734375 48.09375 
Q 17.96875 56 27.875 56 
Q 33.9375 56 38.25 53.625 
Q 42.578125 51.265625 45.40625 46.390625 
z
M 14.796875 27.296875 
Q 14.796875 17.390625 18.875 11.75 
Q 22.953125 6.109375 30.078125 6.109375 
Q 37.203125 6.109375 41.296875 11.75 
Q 45.40625 17.390625 45.40625 27.296875 
Q 45.40625 37.203125 41.296875 42.84375 
Q 37.203125 48.484375 30.078125 48.484375 
Q 22.953125 48.484375 18.875 42.84375 
Q 14.796875 37.203125 14.796875 27.296875 
z
" id="DejaVuSans-100"/>
     </defs>
     <g style="fill:#262626;" transform="translate(94.01 41.604219)scale(0.11 -0.11)">
      <use xlink:href="#DejaVuSans-79"/>
      <use x="78.710938" xlink:href="#DejaVuSans-98"/>
      <use x="142.1875" xlink:href="#DejaVuSans-115"/>
      <use x="194.287109" xlink:href="#DejaVuSans-101"/>
      <use x="255.810547" xlink:href="#DejaVuSans-114"/>
      <use x="296.923828" xlink:href="#DejaVuSans-118"/>
      <use x="356.103516" xlink:href="#DejaVuSans-101"/>
      <use x="417.626953" xlink:href="#DejaVuSans-100"/>
      <use x="481.103516" xlink:href="#DejaVuSans-32"/>
      <use x="512.890625" xlink:href="#DejaVuSans-114"/>
      <use x="553.972656" xlink:href="#DejaVuSans-101"/>
      <use x="615.496094" xlink:href="#DejaVuSans-112"/>
      <use x="678.972656" xlink:href="#DejaVuSans-101"/>
      <use x="740.496094" xlink:href="#DejaVuSans-97"/>
      <use x="801.775391" xlink:href="#DejaVuSans-116"/>
      <use x="840.984375" xlink:href="#DejaVuSans-32"/>
      <use x="872.771484" xlink:href="#DejaVuSans-112"/>
      <use x="936.248047" xlink:href="#DejaVuSans-117"/>
      <use x="999.626953" xlink:href="#DejaVuSans-114"/>
      <use x="1040.708984" xlink:href="#DejaVuSans-99"/>
      <use x="1095.689453" xlink:href="#DejaVuSans-104"/>
      <use x="1159.068359" xlink:href="#DejaVuSans-97"/>
      <use x="1220.347656" xlink:href="#DejaVuSans-115"/>
      <use x="1272.447266" xlink:href="#DejaVuSans-101"/>
     </g>
    </g>
    <g id="line2d_122">
     <path d="M 63.21 53.900156 
L 85.21 53.900156 
" style="fill:none;stroke:#c44e52;stroke-linecap:round;stroke-width:1.5;"/>
    </g>
    <g id="line2d_123"/>
    <g id="text_18">
     <!-- No repeat purchase yet -->
     <defs>
      <path d="M 9.8125 72.90625 
L 23.09375 72.90625 
L 55.421875 11.921875 
L 55.421875 72.90625 
L 64.984375 72.90625 
L 64.984375 0 
L 51.703125 0 
L 19.390625 60.984375 
L 19.390625 0 
L 9.8125 0 
z
" id="DejaVuSans-78"/>
      <path d="M 32.171875 -5.078125 
Q 28.375 -14.84375 24.75 -17.8125 
Q 21.140625 -20.796875 15.09375 -20.796875 
L 7.90625 -20.796875 
L 7.90625 -13.28125 
L 13.1875 -13.28125 
Q 16.890625 -13.28125 18.9375 -11.515625 
Q 21 -9.765625 23.484375 -3.21875 
L 25.09375 0.875 
L 2.984375 54.6875 
L 12.5 54.6875 
L 29.59375 11.921875 
L 46.6875 54.6875 
L 56.203125 54.6875 
z
" id="DejaVuSans-121"/>
     </defs>
     <g style="fill:#262626;" transform="translate(94.01 57.750156)scale(0.11 -0.11)">
      <use xlink:href="#DejaVuSans-78"/>
      <use x="74.804688" xlink:href="#DejaVuSans-111"/>
      <use x="135.986328" xlink:href="#DejaVuSans-32"/>
      <use x="167.773438" xlink:href="#DejaVuSans-114"/>
      <use x="208.855469" xlink:href="#DejaVuSans-101"/>
      <use x="270.378906" xlink:href="#DejaVuSans-112"/>
      <use x="333.855469" xlink:href="#DejaVuSans-101"/>
      <use x="395.378906" xlink:href="#DejaVuSans-97"/>
      <use x="456.658203" xlink:href="#DejaVuSans-116"/>
      <use x="495.867188" xlink:href="#DejaVuSans-32"/>
      <use x="527.654297" xlink:href="#DejaVuSans-112"/>
      <use x="591.130859" xlink:href="#DejaVuSans-117"/>
      <use x="654.509766" xlink:href="#DejaVuSans-114"/>
      <use x="695.591797" xlink:href="#DejaVuSans-99"/>
      <use x="750.572266" xlink:href="#DejaVuSans-104"/>
      <use x="813.951172" xlink:href="#DejaVuSans-97"/>
      <use x="875.230469" xlink:href="#DejaVuSans-115"/>
      <use x="927.330078" xlink:href="#DejaVuSans-101"/>
      <use x="988.853516" xlink:href="#DejaVuSans-32"/>
      <use x="1020.640625" xlink:href="#DejaVuSans-121"/>
      <use x="1079.820312" xlink:href="#DejaVuSans-101"/>
      <use x="1141.34375" xlink:href="#DejaVuSans-116"/>
     </g>
    </g>
    <g id="line2d_124">
     <path d="M 63.21 70.046094 
L 85.21 70.046094 
" style="fill:none;stroke:#1a1a1a;stroke-dasharray:1.5,2.475;stroke-dashoffset:0;stroke-width:1.5;"/>
    </g>
    <g id="line2d_125"/>
    <g id="text_19">
     <!-- Time of data collection -->
     <defs>
      <path d="M 37.109375 75.984375 
L 37.109375 68.5 
L 28.515625 68.5 
Q 23.6875 68.5 21.796875 66.546875 
Q 19.921875 64.59375 19.921875 59.515625 
L 19.921875 54.6875 
L 34.71875 54.6875 
L 34.71875 47.703125 
L 19.921875 47.703125 
L 19.921875 0 
L 10.890625 0 
L 10.890625 47.703125 
L 2.296875 47.703125 
L 2.296875 54.6875 
L 10.890625 54.6875 
L 10.890625 58.5 
Q 10.890625 67.625 15.140625 71.796875 
Q 19.390625 75.984375 28.609375 75.984375 
z
" id="DejaVuSans-102"/>
      <path d="M 9.421875 75.984375 
L 18.40625 75.984375 
L 18.40625 0 
L 9.421875 0 
z
" id="DejaVuSans-108"/>
      <path d="M 54.890625 33.015625 
L 54.890625 0 
L 45.90625 0 
L 45.90625 32.71875 
Q 45.90625 40.484375 42.875 44.328125 
Q 39.84375 48.1875 33.796875 48.1875 
Q 26.515625 48.1875 22.3125 43.546875 
Q 18.109375 38.921875 18.109375 30.90625 
L 18.109375 0 
L 9.078125 0 
L 9.078125 54.6875 
L 18.109375 54.6875 
L 18.109375 46.1875 
Q 21.34375 51.125 25.703125 53.5625 
Q 30.078125 56 35.796875 56 
Q 45.21875 56 50.046875 50.171875 
Q 54.890625 44.34375 54.890625 33.015625 
z
" id="DejaVuSans-110"/>
     </defs>
     <g style="fill:#262626;" transform="translate(94.01 73.896094)scale(0.11 -0.11)">
      <use xlink:href="#DejaVuSans-84"/>
      <use x="61.037109" xlink:href="#DejaVuSans-105"/>
      <use x="88.820312" xlink:href="#DejaVuSans-109"/>
      <use x="186.232422" xlink:href="#DejaVuSans-101"/>
      <use x="247.755859" xlink:href="#DejaVuSans-32"/>
      <use x="279.542969" xlink:href="#DejaVuSans-111"/>
      <use x="340.724609" xlink:href="#DejaVuSans-102"/>
      <use x="375.929688" xlink:href="#DejaVuSans-32"/>
      <use x="407.716797" xlink:href="#DejaVuSans-100"/>
      <use x="471.193359" xlink:href="#DejaVuSans-97"/>
      <use x="532.472656" xlink:href="#DejaVuSans-116"/>
      <use x="571.681641" xlink:href="#DejaVuSans-97"/>
      <use x="632.960938" xlink:href="#DejaVuSans-32"/>
      <use x="664.748047" xlink:href="#DejaVuSans-99"/>
      <use x="719.728516" xlink:href="#DejaVuSans-111"/>
      <use x="780.910156" xlink:href="#DejaVuSans-108"/>
      <use x="808.693359" xlink:href="#DejaVuSans-108"/>
      <use x="836.476562" xlink:href="#DejaVuSans-101"/>
      <use x="898" xlink:href="#DejaVuSans-99"/>
      <use x="952.980469" xlink:href="#DejaVuSans-116"/>
      <use x="992.189453" xlink:href="#DejaVuSans-105"/>
      <use x="1019.972656" xlink:href="#DejaVuSans-111"/>
      <use x="1081.154297" xlink:href="#DejaVuSans-110"/>
     </g>
    </g>
   </g>
  </g>
 </g>
 <defs>
  <clipPath id="p23f52fa196">
   <rect height="434.88" width="357.12" x="53.31" y="7.2"/>
  </clipPath>
 </defs>
</svg>
