<?xml version="1.0" encoding="utf-8" standalone="no"?>
<!DOCTYPE svg PUBLIC "-//W3C//DTD SVG 1.1//EN"
  "http://www.w3.org/Graphics/SVG/1.1/DTD/svg11.dtd">
<!-- Created with matplotlib (https://matplotlib.org/) -->
<svg height="276.073437pt" version="1.1" viewBox="0 0 420.48 276.073437" width="420.48pt" xmlns="http://www.w3.org/2000/svg" xmlns:xlink="http://www.w3.org/1999/xlink">
 <defs>
  <style type="text/css">
*{stroke-linecap:butt;stroke-linejoin:round;}
  </style>
 </defs>
 <g id="figure_1">
  <g id="patch_1">
   <path d="M 0 276.073437 
L 420.48 276.073437 
L 420.48 0 
L 0 0 
z
" style="fill:#ffffff;"/>
  </g>
  <g id="axes_1">
   <g id="patch_2">
    <path d="M 7.2 95.26 
L 413.28 95.26 
L 413.28 7.2 
L 7.2 7.2 
z
" style="fill:#eaeaf2;"/>
   </g>
   <g id="matplotlib.axis_1">
    <g id="xtick_1">
     <g id="line2d_1">
      <path clip-path="url(#p98cb30cb78)" d="M 32.565864 95.26 
L 32.565864 7.2 
" style="fill:none;stroke:#ffffff;stroke-linecap:round;"/>
     </g>
     <g id="text_1">
      <!-- −1.5 -->
      <defs>
       <path d="M 10.59375 35.5 
L 73.1875 35.5 
L 73.1875 27.203125 
L 10.59375 27.203125 
z
" id="DejaVuSans-8722"/>
       <path d="M 12.40625 8.296875 
L 28.515625 8.296875 
L 28.515625 63.921875 
L 10.984375 60.40625 
L 10.984375 69.390625 
L 28.421875 72.90625 
L 38.28125 72.90625 
L 38.28125 8.296875 
L 54.390625 8.296875 
L 54.390625 0 
L 12.40625 0 
z
" id="DejaVuSans-49"/>
       <path d="M 10.6875 12.40625 
L 21 12.40625 
L 21 0 
L 10.6875 0 
z
" id="DejaVuSans-46"/>
       <path d="M 10.796875 72.90625 
L 49.515625 72.90625 
L 49.515625 64.59375 
L 19.828125 64.59375 
L 19.828125 46.734375 
Q 21.96875 47.46875 24.109375 47.828125 
Q 26.265625 48.1875 28.421875 48.1875 
Q 40.625 48.1875 47.75 41.5 
Q 54.890625 34.8125 54.890625 23.390625 
Q 54.890625 11.625 47.5625 5.09375 
Q 40.234375 -1.421875 26.90625 -1.421875 
Q 22.3125 -1.421875 17.546875 -0.640625 
Q 12.796875 0.140625 7.71875 1.703125 
L 7.71875 11.625 
Q 12.109375 9.234375 16.796875 8.0625 
Q 21.484375 6.890625 26.703125 6.890625 
Q 35.15625 6.890625 40.078125 11.328125 
Q 45.015625 15.765625 45.015625 23.390625 
Q 45.015625 31 40.078125 35.4375 
Q 35.15625 39.890625 26.703125 39.890625 
Q 22.75 39.890625 18.8125 39.015625 
Q 14.890625 38.140625 10.796875 36.28125 
z
" id="DejaVuSans-53"/>
      </defs>
      <g style="fill:#262626;" transform="translate(19.210317 113.118281)scale(0.11 -0.11)">
       <use xlink:href="#DejaVuSans-8722"/>
       <use x="83.789062" xlink:href="#DejaVuSans-49"/>
       <use x="147.412109" xlink:href="#DejaVuSans-46"/>
       <use x="179.199219" xlink:href="#DejaVuSans-53"/>
      </g>
     </g>
    </g>
    <g id="xtick_2">
     <g id="line2d_2">
      <path clip-path="url(#p98cb30cb78)" d="M 92.243791 95.26 
L 92.243791 7.2 
" style="fill:none;stroke:#ffffff;stroke-linecap:round;"/>
     </g>
     <g id="text_2">
      <!-- −1.0 -->
      <defs>
       <path d="M 31.78125 66.40625 
Q 24.171875 66.40625 20.328125 58.90625 
Q 16.5 51.421875 16.5 36.375 
Q 16.5 21.390625 20.328125 13.890625 
Q 24.171875 6.390625 31.78125 6.390625 
Q 39.453125 6.390625 43.28125 13.890625 
Q 47.125 21.390625 47.125 36.375 
Q 47.125 51.421875 43.28125 58.90625 
Q 39.453125 66.40625 31.78125 66.40625 
z
M 31.78125 74.21875 
Q 44.046875 74.21875 50.515625 64.515625 
Q 56.984375 54.828125 56.984375 36.375 
Q 56.984375 17.96875 50.515625 8.265625 
Q 44.046875 -1.421875 31.78125 -1.421875 
Q 19.53125 -1.421875 13.0625 8.265625 
Q 6.59375 17.96875 6.59375 36.375 
Q 6.59375 54.828125 13.0625 64.515625 
Q 19.53125 74.21875 31.78125 74.21875 
z
" id="DejaVuSans-48"/>
      </defs>
      <g style="fill:#262626;" transform="translate(78.888244 113.118281)scale(0.11 -0.11)">
       <use xlink:href="#DejaVuSans-8722"/>
       <use x="83.789062" xlink:href="#DejaVuSans-49"/>
       <use x="147.412109" xlink:href="#DejaVuSans-46"/>
       <use x="179.199219" xlink:href="#DejaVuSans-48"/>
      </g>
     </g>
    </g>
    <g id="xtick_3">
     <g id="line2d_3">
      <path clip-path="url(#p98cb30cb78)" d="M 151.921718 95.26 
L 151.921718 7.2 
" style="fill:none;stroke:#ffffff;stroke-linecap:round;"/>
     </g>
     <g id="text_3">
      <!-- −0.5 -->
      <g style="fill:#262626;" transform="translate(138.566171 113.118281)scale(0.11 -0.11)">
       <use xlink:href="#DejaVuSans-8722"/>
       <use x="83.789062" xlink:href="#DejaVuSans-48"/>
       <use x="147.412109" xlink:href="#DejaVuSans-46"/>
       <use x="179.199219" xlink:href="#DejaVuSans-53"/>
      </g>
     </g>
    </g>
    <g id="xtick_4">
     <g id="line2d_4">
      <path clip-path="url(#p98cb30cb78)" d="M 211.599645 95.26 
L 211.599645 7.2 
" style="fill:none;stroke:#ffffff;stroke-linecap:round;"/>
     </g>
     <g id="text_4">
      <!-- 0.0 -->
      <g style="fill:#262626;" transform="translate(202.852926 113.118281)scale(0.11 -0.11)">
       <use xlink:href="#DejaVuSans-48"/>
       <use x="63.623047" xlink:href="#DejaVuSans-46"/>
       <use x="95.410156" xlink:href="#DejaVuSans-48"/>
      </g>
     </g>
    </g>
    <g id="xtick_5">
     <g id="line2d_5">
      <path clip-path="url(#p98cb30cb78)" d="M 271.277572 95.26 
L 271.277572 7.2 
" style="fill:none;stroke:#ffffff;stroke-linecap:round;"/>
     </g>
     <g id="text_5">
      <!-- 0.5 -->
      <g style="fill:#262626;" transform="translate(262.530853 113.118281)scale(0.11 -0.11)">
       <use xlink:href="#DejaVuSans-48"/>
       <use x="63.623047" xlink:href="#DejaVuSans-46"/>
       <use x="95.410156" xlink:href="#DejaVuSans-53"/>
      </g>
     </g>
    </g>
    <g id="xtick_6">
     <g id="line2d_6">
      <path clip-path="url(#p98cb30cb78)" d="M 330.955499 95.26 
L 330.955499 7.2 
" style="fill:none;stroke:#ffffff;stroke-linecap:round;"/>
     </g>
     <g id="text_6">
      <!-- 1.0 -->
      <g style="fill:#262626;" transform="translate(322.20878 113.118281)scale(0.11 -0.11)">
       <use xlink:href="#DejaVuSans-49"/>
       <use x="63.623047" xlink:href="#DejaVuSans-46"/>
       <use x="95.410156" xlink:href="#DejaVuSans-48"/>
      </g>
     </g>
    </g>
    <g id="xtick_7">
     <g id="line2d_7">
      <path clip-path="url(#p98cb30cb78)" d="M 390.633426 95.26 
L 390.633426 7.2 
" style="fill:none;stroke:#ffffff;stroke-linecap:round;"/>
     </g>
     <g id="text_7">
      <!-- 1.5 -->
      <g style="fill:#262626;" transform="translate(381.886707 113.118281)scale(0.11 -0.11)">
       <use xlink:href="#DejaVuSans-49"/>
       <use x="63.623047" xlink:href="#DejaVuSans-46"/>
       <use x="95.410156" xlink:href="#DejaVuSans-53"/>
      </g>
     </g>
    </g>
    <g id="text_8">
     <!-- Dense_weights -->
     <defs>
      <path d="M 19.671875 64.796875 
L 19.671875 8.109375 
L 31.59375 8.109375 
Q 46.6875 8.109375 53.6875 14.9375 
Q 60.6875 21.78125 60.6875 36.53125 
Q 60.6875 51.171875 53.6875 57.984375 
Q 46.6875 64.796875 31.59375 64.796875 
z
M 9.8125 72.90625 
L 30.078125 72.90625 
Q 51.265625 72.90625 61.171875 64.09375 
Q 71.09375 55.28125 71.09375 36.53125 
Q 71.09375 17.671875 61.125 8.828125 
Q 51.171875 0 30.078125 0 
L 9.8125 0 
z
" id="DejaVuSans-68"/>
      <path d="M 56.203125 29.59375 
L 56.203125 25.203125 
L 14.890625 25.203125 
Q 15.484375 15.921875 20.484375 11.0625 
Q 25.484375 6.203125 34.421875 6.203125 
Q 39.59375 6.203125 44.453125 7.46875 
Q 49.3125 8.734375 54.109375 11.28125 
L 54.109375 2.78125 
Q 49.265625 0.734375 44.1875 -0.34375 
Q 39.109375 -1.421875 33.890625 -1.421875 
Q 20.796875 -1.421875 13.15625 6.1875 
Q 5.515625 13.8125 5.515625 26.8125 
Q 5.515625 40.234375 12.765625 48.109375 
Q 20.015625 56 32.328125 56 
Q 43.359375 56 49.78125 48.890625 
Q 56.203125 41.796875 56.203125 29.59375 
z
M 47.21875 32.234375 
Q 47.125 39.59375 43.09375 43.984375 
Q 39.0625 48.390625 32.421875 48.390625 
Q 24.90625 48.390625 20.390625 44.140625 
Q 15.875 39.890625 15.1875 32.171875 
z
" id="DejaVuSans-101"/>
      <path d="M 54.890625 33.015625 
L 54.890625 0 
L 45.90625 0 
L 45.90625 32.71875 
Q 45.90625 40.484375 42.875 44.328125 
Q 39.84375 48.1875 33.796875 48.1875 
Q 26.515625 48.1875 22.3125 43.546875 
Q 18.109375 38.921875 18.109375 30.90625 
L 18.109375 0 
L 9.078125 0 
L 9.078125 54.6875 
L 18.109375 54.6875 
L 18.109375 46.1875 
Q 21.34375 51.125 25.703125 53.5625 
Q 30.078125 56 35.796875 56 
Q 45.21875 56 50.046875 50.171875 
Q 54.890625 44.34375 54.890625 33.015625 
z
" id="DejaVuSans-110"/>
      <path d="M 44.28125 53.078125 
L 44.28125 44.578125 
Q 40.484375 46.53125 36.375 47.5 
Q 32.28125 48.484375 27.875 48.484375 
Q 21.1875 48.484375 17.84375 46.4375 
Q 14.5 44.390625 14.5 40.28125 
Q 14.5 37.15625 16.890625 35.375 
Q 19.28125 33.59375 26.515625 31.984375 
L 29.59375 31.296875 
Q 39.15625 29.25 43.1875 25.515625 
Q 47.21875 21.78125 47.21875 15.09375 
Q 47.21875 7.46875 41.1875 3.015625 
Q 35.15625 -1.421875 24.609375 -1.421875 
Q 20.21875 -1.421875 15.453125 -0.5625 
Q 10.6875 0.296875 5.421875 2 
L 5.421875 11.28125 
Q 10.40625 8.6875 15.234375 7.390625 
Q 20.0625 6.109375 24.8125 6.109375 
Q 31.15625 6.109375 34.5625 8.28125 
Q 37.984375 10.453125 37.984375 14.40625 
Q 37.984375 18.0625 35.515625 20.015625 
Q 33.0625 21.96875 24.703125 23.78125 
L 21.578125 24.515625 
Q 13.234375 26.265625 9.515625 29.90625 
Q 5.8125 33.546875 5.8125 39.890625 
Q 5.8125 47.609375 11.28125 51.796875 
Q 16.75 56 26.8125 56 
Q 31.78125 56 36.171875 55.265625 
Q 40.578125 54.546875 44.28125 53.078125 
z
" id="DejaVuSans-115"/>
      <path d="M 50.984375 -16.609375 
L 50.984375 -23.578125 
L -0.984375 -23.578125 
L -0.984375 -16.609375 
z
" id="DejaVuSans-95"/>
      <path d="M 4.203125 54.6875 
L 13.1875 54.6875 
L 24.421875 12.015625 
L 35.59375 54.6875 
L 46.1875 54.6875 
L 57.421875 12.015625 
L 68.609375 54.6875 
L 77.59375 54.6875 
L 63.28125 0 
L 52.6875 0 
L 40.921875 44.828125 
L 29.109375 0 
L 18.5 0 
z
" id="DejaVuSans-119"/>
      <path d="M 9.421875 54.6875 
L 18.40625 54.6875 
L 18.40625 0 
L 9.421875 0 
z
M 9.421875 75.984375 
L 18.40625 75.984375 
L 18.40625 64.59375 
L 9.421875 64.59375 
z
" id="DejaVuSans-105"/>
      <path d="M 45.40625 27.984375 
Q 45.40625 37.75 41.375 43.109375 
Q 37.359375 48.484375 30.078125 48.484375 
Q 22.859375 48.484375 18.828125 43.109375 
Q 14.796875 37.75 14.796875 27.984375 
Q 14.796875 18.265625 18.828125 12.890625 
Q 22.859375 7.515625 30.078125 7.515625 
Q 37.359375 7.515625 41.375 12.890625 
Q 45.40625 18.265625 45.40625 27.984375 
z
M 54.390625 6.78125 
Q 54.390625 -7.171875 48.1875 -13.984375 
Q 42 -20.796875 29.203125 -20.796875 
Q 24.46875 -20.796875 20.265625 -20.09375 
Q 16.0625 -19.390625 12.109375 -17.921875 
L 12.109375 -9.1875 
Q 16.0625 -11.328125 19.921875 -12.34375 
Q 23.78125 -13.375 27.78125 -13.375 
Q 36.625 -13.375 41.015625 -8.765625 
Q 45.40625 -4.15625 45.40625 5.171875 
L 45.40625 9.625 
Q 42.625 4.78125 38.28125 2.390625 
Q 33.9375 0 27.875 0 
Q 17.828125 0 11.671875 7.65625 
Q 5.515625 15.328125 5.515625 27.984375 
Q 5.515625 40.671875 11.671875 48.328125 
Q 17.828125 56 27.875 56 
Q 33.9375 56 38.28125 53.609375 
Q 42.625 51.21875 45.40625 46.390625 
L 45.40625 54.6875 
L 54.390625 54.6875 
z
" id="DejaVuSans-103"/>
      <path d="M 54.890625 33.015625 
L 54.890625 0 
L 45.90625 0 
L 45.90625 32.71875 
Q 45.90625 40.484375 42.875 44.328125 
Q 39.84375 48.1875 33.796875 48.1875 
Q 26.515625 48.1875 22.3125 43.546875 
Q 18.109375 38.921875 18.109375 30.90625 
L 18.109375 0 
L 9.078125 0 
L 9.078125 75.984375 
L 18.109375 75.984375 
L 18.109375 46.1875 
Q 21.34375 51.125 25.703125 53.5625 
Q 30.078125 56 35.796875 56 
Q 45.21875 56 50.046875 50.171875 
Q 54.890625 44.34375 54.890625 33.015625 
z
" id="DejaVuSans-104"/>
      <path d="M 18.3125 70.21875 
L 18.3125 54.6875 
L 36.8125 54.6875 
L 36.8125 47.703125 
L 18.3125 47.703125 
L 18.3125 18.015625 
Q 18.3125 11.328125 20.140625 9.421875 
Q 21.96875 7.515625 27.59375 7.515625 
L 36.8125 7.515625 
L 36.8125 0 
L 27.59375 0 
Q 17.1875 0 13.234375 3.875 
Q 9.28125 7.765625 9.28125 18.015625 
L 9.28125 47.703125 
L 2.6875 47.703125 
L 2.6875 54.6875 
L 9.28125 54.6875 
L 9.28125 70.21875 
z
" id="DejaVuSans-116"/>
     </defs>
     <g style="fill:#262626;" transform="translate(164.953125 128.524062)scale(0.12 -0.12)">
      <use xlink:href="#DejaVuSans-68"/>
      <use x="77.001953" xlink:href="#DejaVuSans-101"/>
      <use x="138.525391" xlink:href="#DejaVuSans-110"/>
      <use x="201.904297" xlink:href="#DejaVuSans-115"/>
      <use x="254.003906" xlink:href="#DejaVuSans-101"/>
      <use x="315.527344" xlink:href="#DejaVuSans-95"/>
      <use x="365.527344" xlink:href="#DejaVuSans-119"/>
      <use x="447.314453" xlink:href="#DejaVuSans-101"/>
      <use x="508.837891" xlink:href="#DejaVuSans-105"/>
      <use x="536.621094" xlink:href="#DejaVuSans-103"/>
      <use x="600.097656" xlink:href="#DejaVuSans-104"/>
      <use x="663.476562" xlink:href="#DejaVuSans-116"/>
      <use x="702.685547" xlink:href="#DejaVuSans-115"/>
     </g>
    </g>
   </g>
   <g id="patch_3">
    <path clip-path="url(#p98cb30cb78)" d="M 155.761616 91.257273 
L 156.152237 91.256966 
L 156.542858 91.256912 
L 156.933478 91.256544 
L 157.324099 91.256112 
L 157.71472 91.255609 
L 158.105341 91.255331 
L 158.495962 91.255013 
L 158.886583 91.254344 
L 159.277204 91.253879 
L 159.667825 91.253351 
L 160.058446 91.252754 
L 160.449067 91.252081 
L 160.839688 91.251019 
L 161.230309 91.250119 
L 161.62093 91.249113 
L 162.01155 91.247993 
L 162.402171 91.246748 
L 162.792792 91.245064 
L 163.183413 91.243183 
L 163.574034 91.241398 
L 163.964655 91.239435 
L 164.355276 91.237285 
L 164.745897 91.234937 
L 165.136518 91.232382 
L 165.527139 91.229611 
L 165.91776 91.226617 
L 166.308381 91.22339 
L 166.699002 91.219927 
L 167.089622 91.216222 
L 167.480243 91.211658 
L 167.870864 91.207049 
L 168.261485 91.202432 
L 168.652106 91.196932 
L 169.042727 91.191366 
L 169.433348 91.185775 
L 169.823969 91.179288 
L 170.21459 91.172724 
L 170.605211 91.165514 
L 170.995832 91.158525 
L 171.386453 91.150937 
L 171.777073 91.143011 
L 172.167694 91.13475 
L 172.558315 91.125544 
L 172.948936 91.116824 
L 173.339557 91.107511 
L 173.730178 91.097561 
L 174.120799 91.087539 
L 174.51142 91.077185 
L 174.902041 91.066502 
L 175.292662 91.05549 
L 175.683283 91.044149 
L 176.073904 91.032785 
L 176.464525 91.02022 
L 176.855145 91.008141 
L 177.245766 90.995767 
L 178.027008 90.982792 
L 178.417629 90.969164 
L 178.80825 90.955433 
L 179.198871 90.94041 
L 179.589495 90.925459 
L 179.980116 90.909729 
L 180.370737 90.894065 
L 180.761358 90.877929 
L 181.151979 90.86161 
L 181.5426 90.844223 
L 181.933221 90.825344 
L 182.323844 90.80694 
L 182.714465 90.787643 
L 183.105085 90.767691 
L 183.495706 90.746754 
L 183.886329 90.725988 
L 184.27695 90.703992 
L 184.667571 90.681578 
L 185.058192 90.658176 
L 185.448813 90.633423 
L 185.839435 90.608743 
L 186.230056 90.582744 
L 186.620677 90.555943 
L 187.011298 90.528644 
L 187.401921 90.499365 
L 187.792542 90.469132 
L 188.183163 90.438848 
L 188.573784 90.406812 
L 188.964405 90.375327 
L 189.355027 90.340649 
L 189.745648 90.306669 
L 190.136269 90.271826 
L 190.52689 90.235813 
L 190.917513 90.198579 
L 191.308134 90.160676 
L 191.698755 90.119992 
L 192.089376 90.079569 
L 192.479998 90.038693 
L 192.870619 89.995288 
L 193.26124 89.951833 
L 193.651861 89.906943 
L 194.042482 89.860836 
L 194.433105 89.812852 
L 194.823726 89.763138 
L 195.214346 89.711264 
L 195.604967 89.659804 
L 195.99559 89.606262 
L 196.386211 89.550171 
L 196.776832 89.492526 
L 197.167453 89.432365 
L 197.558075 89.371024 
L 197.948696 89.306715 
L 198.339317 89.239806 
L 198.729938 89.171673 
L 199.12056 89.100264 
L 199.511181 89.025644 
L 199.901803 88.948525 
L 200.292424 88.870642 
L 200.683045 88.788582 
L 201.073667 88.702951 
L 201.464287 88.614445 
L 201.854909 88.523955 
L 202.24553 88.429215 
L 202.636152 88.330338 
L 203.026773 88.228603 
L 203.417395 88.122831 
L 203.808016 88.013845 
L 204.198637 87.901043 
L 204.589258 87.783736 
L 204.97988 87.664459 
L 205.370501 87.541348 
L 205.761122 87.414416 
L 206.151743 87.282404 
L 206.542365 87.1463 
L 206.932986 87.006924 
L 207.323607 86.863101 
L 207.714229 86.716318 
L 208.10485 86.565862 
L 208.495472 86.411145 
L 208.886093 86.250864 
L 209.276714 86.088706 
L 209.667335 85.924404 
L 210.057957 85.756407 
L 210.448578 85.581962 
L 210.839199 85.405506 
L 211.229821 85.225194 
L 211.620442 85.040601 
L 212.011063 84.849748 
L 212.401685 84.658436 
L 212.792306 84.460434 
L 213.182927 84.260394 
L 213.573549 84.054413 
L 213.96417 83.845118 
L 214.354791 83.632234 
L 214.745413 83.415492 
L 215.136034 83.19432 
L 215.526655 82.968658 
L 215.917277 82.738037 
L 216.307898 82.504123 
L 216.698519 82.266032 
L 217.08914 82.021354 
L 217.479762 81.772834 
L 217.870383 81.519225 
L 218.261004 81.25949 
L 218.651626 80.991865 
L 219.042247 80.724992 
L 219.432868 80.450327 
L 219.823489 80.168581 
L 220.214111 79.881893 
L 220.604732 79.59143 
L 220.995354 79.29132 
L 221.385975 78.987715 
L 221.776597 78.675385 
L 222.167218 78.35952 
L 222.557839 78.03868 
L 222.94846 77.709243 
L 223.339081 77.376851 
L 223.729703 77.036583 
L 224.120324 76.689404 
L 224.510946 76.334349 
L 224.901567 75.972078 
L 225.292188 75.605427 
L 225.682809 75.233261 
L 226.073431 74.852412 
L 226.464052 74.464152 
L 226.854673 74.072846 
L 227.245294 73.674729 
L 227.635917 73.268586 
L 228.026538 72.859069 
L 228.417158 72.438344 
L 228.807779 72.012608 
L 229.198402 71.5838 
L 229.589023 71.145189 
L 229.979644 70.697756 
L 230.370265 70.246818 
L 230.760886 69.788042 
L 231.151508 69.323511 
L 231.542129 68.851052 
L 231.93275 68.369395 
L 232.323371 67.881806 
L 232.713994 67.38579 
L 233.104615 66.884935 
L 233.495236 66.374643 
L 233.885857 65.857583 
L 234.276478 65.332862 
L 234.6671 64.803712 
L 235.057721 64.263927 
L 235.448342 63.717665 
L 235.838963 63.165143 
L 236.229586 62.601482 
L 236.620207 62.033643 
L 237.010828 61.455514 
L 237.401449 60.867785 
L 237.792069 60.276902 
L 238.182692 59.679362 
L 238.573313 59.078982 
L 238.963934 58.469201 
L 239.354555 57.852807 
L 239.745178 57.233936 
L 240.135799 56.605254 
L 240.526419 55.974855 
L 240.91704 55.342758 
L 241.307663 54.703802 
L 241.698282 54.062542 
L 242.088903 53.418865 
L 242.479528 52.770147 
L 242.870149 52.123238 
L 243.260769 51.476299 
L 243.65139 50.828823 
L 244.042011 50.180175 
L 244.432632 49.538431 
L 244.823253 48.896885 
L 245.213874 48.254874 
L 245.604495 47.613993 
L 245.995119 46.98039 
L 246.38574 46.346413 
L 246.776361 45.721903 
L 247.166982 45.102148 
L 247.557603 44.483323 
L 247.948224 43.869106 
L 248.338845 43.268754 
L 248.729466 42.672163 
L 249.120087 42.081883 
L 249.510711 41.500509 
L 249.901332 40.928624 
L 250.291953 40.359806 
L 250.682574 39.803319 
L 251.073195 39.25765 
L 251.463816 38.721996 
L 251.854437 38.191728 
L 252.245058 37.670239 
L 252.635682 37.159367 
L 253.026303 36.658315 
L 253.416924 36.168742 
L 253.807545 35.687481 
L 254.198166 35.214657 
L 254.588787 34.756939 
L 254.979408 34.309991 
L 255.370029 33.876764 
L 255.76065 33.449709 
L 256.151274 33.030919 
L 256.541895 32.626546 
L 256.932516 32.229129 
L 257.323137 31.843076 
L 257.713758 31.470144 
L 258.104379 31.106693 
L 258.495 30.750803 
L 258.885621 30.407159 
L 259.276241 30.073497 
L 259.666866 29.748861 
L 260.057487 29.43582 
L 260.448108 29.132515 
L 260.838729 28.840982 
L 261.22935 28.557354 
L 261.619971 28.279656 
L 262.010591 28.011502 
L 262.401212 27.755649 
L 262.791833 27.502739 
L 263.182458 27.262218 
L 263.573079 27.032233 
L 263.9637 26.808284 
L 264.354321 26.589536 
L 264.744941 26.382337 
L 265.135562 26.181583 
L 265.526183 25.992991 
L 265.916804 25.805828 
L 266.307425 25.625416 
L 266.69805 25.454889 
L 267.088671 25.284631 
L 267.479291 25.123813 
L 267.869912 24.968766 
L 268.260533 24.82519 
L 268.651154 24.685384 
L 269.041775 24.550088 
L 269.432396 24.425173 
L 269.823017 24.303282 
L 270.213641 24.186674 
L 270.604262 24.072681 
L 270.994883 23.966142 
L 271.385501 23.866473 
L 271.776125 23.770169 
L 272.16675 23.684139 
L 272.557367 23.605683 
L 272.947991 23.531968 
L 273.338609 23.464097 
L 273.729233 23.41076 
L 274.119851 23.361757 
L 274.510475 23.320648 
L 274.901092 23.282668 
L 275.291717 23.261855 
L 275.682341 23.247484 
L 276.072959 23.240356 
L 276.463583 23.242833 
L 276.854201 23.254483 
L 277.244825 23.277392 
L 277.635442 23.307842 
L 278.026067 23.357921 
L 278.416684 23.413227 
L 278.807309 23.481139 
L 279.197933 23.566405 
L 279.588551 23.659269 
L 279.979175 23.767305 
L 280.369792 23.885722 
L 280.760417 24.020438 
L 281.151034 24.170581 
L 281.541659 24.328758 
L 281.932276 24.505208 
L 282.322901 24.690486 
L 282.713525 24.89491 
L 283.104142 25.112462 
L 283.494767 25.343505 
L 283.885384 25.592761 
L 284.276009 25.851951 
L 284.666626 26.121167 
L 285.057251 26.409837 
L 285.447868 26.706067 
L 285.838492 27.017234 
L 286.229117 27.348062 
L 286.619734 27.687988 
L 287.010359 28.039023 
L 287.400976 28.403079 
L 287.791601 28.781475 
L 288.182218 29.164219 
L 288.572842 29.561775 
L 288.96346 29.969106 
L 289.354084 30.389166 
L 289.744709 30.816935 
L 290.135326 31.259586 
L 290.525951 31.703987 
L 290.916568 32.16001 
L 291.307192 32.624142 
L 291.69781 33.102237 
L 292.088434 33.579537 
L 292.479052 34.067008 
L 292.869676 34.562076 
L 293.260301 35.059877 
L 293.650918 35.566931 
L 294.041542 36.084141 
L 294.43216 36.603671 
L 294.822784 37.124793 
L 295.213402 37.648855 
L 295.604026 38.186329 
L 295.994644 38.727703 
L 296.385268 39.274895 
L 296.775892 39.82403 
L 297.16651 40.374374 
L 297.557134 40.932482 
L 297.947752 41.495177 
L 298.338376 42.056781 
L 298.728994 42.621358 
L 299.119618 43.187823 
L 299.510235 43.76377 
L 299.90086 44.341716 
L 300.291484 44.918419 
L 300.682102 45.498788 
L 301.072726 46.08263 
L 301.463344 46.664351 
L 301.853968 47.245674 
L 302.244585 47.830702 
L 302.63521 48.416216 
L 303.025827 49.002181 
L 303.416452 49.589808 
L 303.807076 50.175082 
L 304.197694 50.760797 
L 304.588318 51.344381 
L 304.978935 51.929827 
L 305.36956 52.51593 
L 305.760177 53.100446 
L 306.150802 53.680814 
L 306.541419 54.259575 
L 306.932044 54.833772 
L 307.322668 55.407958 
L 307.713285 55.980098 
L 308.10391 56.551469 
L 308.494527 57.115752 
L 308.885152 57.678351 
L 309.275769 58.237385 
L 309.666394 58.797175 
L 310.057011 59.35015 
L 310.447635 59.901521 
L 310.83826 60.451035 
L 311.228877 60.995906 
L 311.619502 61.53876 
L 312.010119 62.073015 
L 312.400744 62.605539 
L 312.791361 63.133979 
L 313.181985 63.654319 
L 313.572603 64.176052 
L 313.963227 64.692877 
L 314.353852 65.205051 
L 314.744469 65.71202 
L 315.135094 66.214002 
L 315.525711 66.711686 
L 315.916335 67.204643 
L 316.306953 67.68928 
L 316.697577 68.167917 
L 317.088195 68.646155 
L 317.478819 69.113016 
L 317.869444 69.574297 
L 318.260061 70.030184 
L 318.650685 70.485405 
L 319.041303 70.925391 
L 319.431927 71.365074 
L 319.822545 71.798663 
L 320.213169 72.225418 
L 320.603786 72.646494 
L 320.994411 73.059931 
L 321.385035 73.468632 
L 321.775653 73.86372 
L 322.166277 74.257029 
L 322.556895 74.645704 
L 322.947519 75.021926 
L 323.338136 75.395747 
L 323.728761 75.763287 
L 324.119385 76.124094 
L 324.510003 76.478045 
L 324.900627 76.825681 
L 325.291245 77.168409 
L 325.681869 77.500577 
L 326.072486 77.82909 
L 326.463111 78.150822 
L 326.853728 78.46684 
L 327.244353 78.775594 
L 327.634977 79.080471 
L 328.025595 79.379396 
L 328.416219 79.674784 
L 328.806836 79.961217 
L 329.197461 80.247367 
L 329.588078 80.525829 
L 329.978703 80.793687 
L 330.36932 81.057742 
L 330.759945 81.318376 
L 331.150569 81.573352 
L 331.541194 81.821218 
L 331.931804 82.067781 
L 332.322428 82.309497 
L 332.713053 82.549373 
L 333.103677 82.781188 
L 333.494287 83.008098 
L 333.884912 83.230015 
L 334.275536 83.449138 
L 334.666161 83.661868 
L 335.056785 83.873717 
L 335.447396 84.075848 
L 335.83802 84.275687 
L 336.228645 84.470901 
L 336.619269 84.662648 
L 337.009879 84.852963 
L 337.400504 85.036017 
L 337.791128 85.215746 
L 338.181753 85.390286 
L 338.572377 85.562928 
L 338.962987 85.732336 
L 339.353612 85.893508 
L 339.744236 86.053168 
L 340.134861 86.207948 
L 340.525471 86.359698 
L 340.916096 86.508701 
L 341.30672 86.653338 
L 341.697345 86.796846 
L 342.087969 86.935017 
L 342.478579 87.070897 
L 342.869204 87.203351 
L 343.259828 87.331899 
L 343.650453 87.456133 
L 344.041063 87.580494 
L 344.431687 87.700935 
L 344.822312 87.816505 
L 345.212936 87.930393 
L 345.603561 88.043315 
L 345.994171 88.152932 
L 346.384796 88.257218 
L 346.77542 88.359978 
L 347.166045 88.459488 
L 347.556655 88.556115 
L 347.947279 88.650217 
L 348.337904 88.742585 
L 348.728528 88.830411 
L 349.119153 88.91791 
L 349.509763 89.002235 
L 349.900387 89.084542 
L 350.291012 89.163468 
L 350.681636 89.241254 
L 351.072247 89.313804 
L 351.462871 89.384643 
L 351.853496 89.453158 
L 352.24412 89.522003 
L 352.634745 89.585571 
L 353.025355 89.646152 
L 353.415979 89.704396 
L 353.806604 89.762944 
L 354.197228 89.817524 
L 354.587838 89.870517 
L 354.978463 89.921081 
L 355.369087 89.968254 
L 355.759712 90.01462 
L 356.150336 90.059511 
L 356.540947 90.102112 
L 356.931571 90.142783 
L 357.322196 90.180542 
L 357.71282 90.218219 
L 358.10343 90.253533 
L 358.494055 90.286909 
L 358.884679 90.318724 
L 359.275304 90.348788 
L 359.665928 90.377217 
L 360.056538 90.404644 
L 360.447163 90.431098 
L 360.837787 90.455053 
L 361.228412 90.478876 
L 361.619022 90.501983 
L 362.009647 90.524931 
L 362.400271 90.546115 
L 362.790896 90.567576 
L 363.18152 90.58636 
L 363.57213 90.605448 
L 363.962755 90.623727 
L 364.353379 90.641039 
L 364.744004 90.658301 
L 365.134614 90.675513 
L 365.525238 90.691895 
L 365.915863 90.708093 
L 366.306487 90.724394 
L 366.697112 90.741566 
L 367.087722 90.757128 
L 367.478347 90.773149 
L 367.868971 90.789557 
L 368.259596 90.804723 
L 368.650206 90.819873 
L 369.04083 90.834739 
L 369.431455 90.850133 
L 369.822079 90.865437 
L 370.212704 90.88038 
L 370.603314 90.894993 
L 370.993938 90.910076 
L 371.384563 90.92474 
L 371.775187 90.939792 
L 372.165798 90.954345 
L 372.556422 90.968688 
L 372.947047 90.982799 
L 373.337668 90.996136 
L 373.728288 91.009541 
L 374.118909 91.022941 
L 374.50953 91.035751 
L 374.900151 91.048254 
L 375.290772 91.060689 
L 375.681393 91.072734 
L 376.072014 91.083856 
L 376.462635 91.094644 
L 376.853256 91.105601 
L 377.243877 91.115584 
L 377.634498 91.125193 
L 378.025119 91.134415 
L 378.41574 91.143239 
L 378.80636 91.151919 
L 379.196981 91.15989 
L 379.587602 91.167456 
L 379.978223 91.174618 
L 380.368844 91.181379 
L 380.759465 91.187742 
L 381.150086 91.193715 
L 381.540707 91.199307 
L 381.931328 91.204527 
L 382.321949 91.209907 
L 382.71257 91.214599 
L 383.103191 91.219189 
L 383.493811 91.223133 
L 383.884432 91.226757 
L 384.275053 91.229817 
L 384.665674 91.232632 
L 385.056295 91.235214 
L 385.446916 91.238096 
L 385.837537 91.240168 
L 386.228158 91.242056 
L 386.618779 91.24377 
L 387.0094 91.245583 
L 387.400021 91.247205 
L 387.790642 91.248391 
L 388.181263 91.249459 
L 388.571883 91.250938 
L 388.962504 91.251714 
L 389.353125 91.252408 
L 389.743746 91.253028 
L 390.134367 91.253839 
L 390.524988 91.254287 
L 390.915609 91.254944 
L 391.30623 91.255255 
L 391.696851 91.255528 
L 392.087472 91.255769 
L 392.478093 91.256502 
L 392.868714 91.256607 
L 393.259335 91.256699 
L 393.649955 91.25678 
L 394.040576 91.256851 
L 394.431197 91.256912 
L 394.821818 91.256966 
z
" style="fill:#1f77b4;opacity:0.4;stroke:#ffffff;stroke-linejoin:miter;"/>
   </g>
   <g id="patch_4">
    <path clip-path="url(#p98cb30cb78)" d="M 228.807779 91.257273 
L 228.807779 72.012608 
L 229.198402 71.5838 
L 229.589023 71.145189 
L 229.979644 70.697756 
L 230.370265 70.246818 
L 230.760886 69.788042 
L 231.151508 69.323511 
L 231.542129 68.851052 
L 231.93275 68.369395 
L 232.323371 67.881806 
L 232.713994 67.38579 
L 233.104615 66.884935 
L 233.495236 66.374643 
L 233.885857 65.857583 
L 234.276478 65.332862 
L 234.6671 64.803712 
L 235.057721 64.263927 
L 235.448342 63.717665 
L 235.838963 63.165143 
L 236.229586 62.601482 
L 236.620207 62.033643 
L 237.010828 61.455514 
L 237.401449 60.867785 
L 237.792069 60.276902 
L 238.182692 59.679362 
L 238.573313 59.078982 
L 238.963934 58.469201 
L 239.354555 57.852807 
L 239.745178 57.233936 
L 240.135799 56.605254 
L 240.526419 55.974855 
L 240.91704 55.342758 
L 241.307663 54.703802 
L 241.698282 54.062542 
L 242.088903 53.418865 
L 242.479528 52.770147 
L 242.870149 52.123238 
L 243.260769 51.476299 
L 243.65139 50.828823 
L 244.042011 50.180175 
L 244.432632 49.538431 
L 244.823253 48.896885 
L 245.213874 48.254874 
L 245.604495 47.613993 
L 245.995119 46.98039 
L 246.38574 46.346413 
L 246.776361 45.721903 
L 247.166982 45.102148 
L 247.557603 44.483323 
L 247.948224 43.869106 
L 248.338845 43.268754 
L 248.729466 42.672163 
L 249.120087 42.081883 
L 249.510711 41.500509 
L 249.901332 40.928624 
L 250.291953 40.359806 
L 250.682574 39.803319 
L 251.073195 39.25765 
L 251.463816 38.721996 
L 251.854437 38.191728 
L 252.245058 37.670239 
L 252.635682 37.159367 
L 253.026303 36.658315 
L 253.416924 36.168742 
L 253.807545 35.687481 
L 254.198166 35.214657 
L 254.588787 34.756939 
L 254.979408 34.309991 
L 255.370029 33.876764 
L 255.76065 33.449709 
L 256.151274 33.030919 
L 256.541895 32.626546 
L 256.932516 32.229129 
L 257.323137 31.843076 
L 257.713758 31.470144 
L 258.104379 31.106693 
L 258.495 30.750803 
L 258.885621 30.407159 
L 259.276241 30.073497 
L 259.666866 29.748861 
L 260.057487 29.43582 
L 260.448108 29.132515 
L 260.838729 28.840982 
L 261.22935 28.557354 
L 261.619971 28.279656 
L 262.010591 28.011502 
L 262.401212 27.755649 
L 262.791833 27.502739 
L 263.182458 27.262218 
L 263.573079 27.032233 
L 263.9637 26.808284 
L 264.354321 26.589536 
L 264.744941 26.382337 
L 265.135562 26.181583 
L 265.526183 25.992991 
L 265.916804 25.805828 
L 266.307425 25.625416 
L 266.69805 25.454889 
L 267.088671 25.284631 
L 267.479291 25.123813 
L 267.869912 24.968766 
L 268.260533 24.82519 
L 268.651154 24.685384 
L 269.041775 24.550088 
L 269.432396 24.425173 
L 269.823017 24.303282 
L 270.213641 24.186674 
L 270.604262 24.072681 
L 270.994883 23.966142 
L 271.385501 23.866473 
L 271.776125 23.770169 
L 272.16675 23.684139 
L 272.557367 23.605683 
L 272.947991 23.531968 
L 273.338609 23.464097 
L 273.729233 23.41076 
L 274.119851 23.361757 
L 274.510475 23.320648 
L 274.901092 23.282668 
L 275.291717 23.261855 
L 275.682341 23.247484 
L 276.072959 23.240356 
L 276.463583 23.242833 
L 276.854201 23.254483 
L 277.244825 23.277392 
L 277.635442 23.307842 
L 278.026067 23.357921 
L 278.416684 23.413227 
L 278.807309 23.481139 
L 279.197933 23.566405 
L 279.588551 23.659269 
L 279.979175 23.767305 
L 280.369792 23.885722 
L 280.760417 24.020438 
L 281.151034 24.170581 
L 281.541659 24.328758 
L 281.932276 24.505208 
L 282.322901 24.690486 
L 282.713525 24.89491 
L 283.104142 25.112462 
L 283.494767 25.343505 
L 283.885384 25.592761 
L 284.276009 25.851951 
L 284.666626 26.121167 
L 285.057251 26.409837 
L 285.447868 26.706067 
L 285.838492 27.017234 
L 286.229117 27.348062 
L 286.619734 27.687988 
L 287.010359 28.039023 
L 287.400976 28.403079 
L 287.791601 28.781475 
L 288.182218 29.164219 
L 288.572842 29.561775 
L 288.96346 29.969106 
L 289.354084 30.389166 
L 289.744709 30.816935 
L 290.135326 31.259586 
L 290.525951 31.703987 
L 290.916568 32.16001 
L 291.307192 32.624142 
L 291.69781 33.102237 
L 292.088434 33.579537 
L 292.479052 34.067008 
L 292.869676 34.562076 
L 293.260301 35.059877 
L 293.650918 35.566931 
L 294.041542 36.084141 
L 294.43216 36.603671 
L 294.822784 37.124793 
L 295.213402 37.648855 
L 295.604026 38.186329 
L 295.994644 38.727703 
L 296.385268 39.274895 
L 296.775892 39.82403 
L 297.16651 40.374374 
L 297.557134 40.932482 
L 297.947752 41.495177 
L 298.338376 42.056781 
L 298.728994 42.621358 
L 299.119618 43.187823 
L 299.510235 43.76377 
L 299.90086 44.341716 
L 300.291484 44.918419 
L 300.682102 45.498788 
L 301.072726 46.08263 
L 301.463344 46.664351 
L 301.853968 47.245674 
L 302.244585 47.830702 
L 302.63521 48.416216 
L 303.025827 49.002181 
L 303.416452 49.589808 
L 303.807076 50.175082 
L 304.197694 50.760797 
L 304.588318 51.344381 
L 304.978935 51.929827 
L 305.36956 52.51593 
L 305.760177 53.100446 
L 306.150802 53.680814 
L 306.541419 54.259575 
L 306.932044 54.833772 
L 307.322668 55.407958 
L 307.713285 55.980098 
L 308.10391 56.551469 
L 308.494527 57.115752 
L 308.885152 57.678351 
L 309.275769 58.237385 
L 309.666394 58.797175 
L 310.057011 59.35015 
L 310.447635 59.901521 
L 310.83826 60.451035 
L 311.228877 60.995906 
L 311.619502 61.53876 
L 312.010119 62.073015 
L 312.400744 62.605539 
L 312.791361 63.133979 
L 313.181985 63.654319 
L 313.572603 64.176052 
L 313.963227 64.692877 
L 314.353852 65.205051 
L 314.744469 65.71202 
L 315.135094 66.214002 
L 315.525711 66.711686 
L 315.916335 67.204643 
L 316.306953 67.68928 
L 316.697577 68.167917 
L 317.088195 68.646155 
L 317.478819 69.113016 
L 317.869444 69.574297 
L 318.260061 70.030184 
L 318.650685 70.485405 
L 319.041303 70.925391 
L 319.431927 71.365074 
L 319.431927 91.257273 
z
" style="fill:#1f77b4;opacity:0.4;stroke:#ffffff;stroke-linejoin:miter;"/>
   </g>
   <g id="patch_5">
    <path clip-path="url(#p98cb30cb78)" d="M 25.658182 91.257273 
L 26.072795 91.256966 
L 26.487409 91.256912 
L 26.902022 91.256851 
L 27.316636 91.25678 
L 27.731249 91.256699 
L 28.145862 91.256607 
L 28.560476 91.256502 
L 28.975089 91.256383 
L 29.389703 91.25625 
L 29.804316 91.256099 
L 30.21893 91.25593 
L 30.633543 91.255741 
L 31.048156 91.255531 
L 31.46277 91.255298 
L 31.877383 91.25504 
L 32.291997 91.254756 
L 32.70661 91.254444 
L 33.121224 91.254103 
L 33.535837 91.253424 
L 33.950451 91.252659 
L 34.365064 91.252106 
L 34.779677 91.251501 
L 35.194291 91.250842 
L 35.608904 91.249819 
L 36.023518 91.24899 
L 36.438131 91.24809 
L 36.852745 91.24681 
L 37.267358 91.245705 
L 37.681971 91.244513 
L 38.096585 91.243228 
L 38.511198 91.241848 
L 38.925812 91.240062 
L 39.340425 91.238427 
L 39.755039 91.236678 
L 40.169652 91.234813 
L 40.584266 91.232828 
L 40.998879 91.23072 
L 41.413492 91.228487 
L 41.828106 91.22582 
L 42.242719 91.22297 
L 42.657333 91.220237 
L 43.071946 91.217358 
L 43.48656 91.214024 
L 43.901173 91.210794 
L 44.315786 91.207101 
L 44.7304 91.203197 
L 45.145013 91.199382 
L 45.559627 91.195393 
L 45.97424 91.190926 
L 46.388854 91.186539 
L 46.803467 91.181974 
L 47.21808 91.176619 
L 47.632694 91.170982 
L 48.047307 91.164744 
L 48.461921 91.159065 
L 49.291148 91.152856 
L 49.705747 91.146368 
L 50.12036 91.138366 
L 50.53496 91.130469 
L 50.949573 91.122743 
L 51.364172 91.114344 
L 51.778786 91.105509 
L 52.193385 91.096214 
L 52.607998 91.086738 
L 53.022597 91.076493 
L 53.437211 91.066017 
L 53.85181 91.054715 
L 54.266424 91.041283 
L 54.681023 91.0291 
L 55.095636 91.015703 
L 55.510235 91.001878 
L 55.924849 90.986716 
L 56.339448 90.970993 
L 56.754061 90.954404 
L 57.168661 90.936288 
L 57.583274 90.917721 
L 57.997873 90.898131 
L 58.412487 90.875936 
L 58.827086 90.852969 
L 59.241699 90.827715 
L 59.656299 90.803009 
L 60.070912 90.776365 
L 60.485511 90.748244 
L 60.900125 90.717359 
L 61.314724 90.684668 
L 61.729337 90.650702 
L 62.143937 90.61456 
L 62.55855 90.575814 
L 62.973149 90.536124 
L 63.387763 90.493161 
L 63.802362 90.44819 
L 64.216975 90.40026 
L 64.631574 90.351033 
L 65.046188 90.2991 
L 65.460787 90.244046 
L 65.875401 90.187854 
L 66.29 90.127346 
L 66.704613 90.066163 
L 67.119212 90.000007 
L 67.533826 89.932738 
L 67.948425 89.859391 
L 68.363038 89.783967 
L 68.777638 89.707505 
L 69.192251 89.62632 
L 69.60685 89.543459 
L 70.021464 89.456986 
L 70.436063 89.365254 
L 70.850676 89.272473 
L 71.265276 89.175012 
L 71.679889 89.075057 
L 72.094488 88.970887 
L 72.509102 88.863868 
L 72.923701 88.751884 
L 73.338314 88.638648 
L 73.752914 88.519374 
L 74.167527 88.3979 
L 74.582126 88.272613 
L 74.99674 88.143463 
L 75.411339 88.010092 
L 75.825952 87.872086 
L 76.240551 87.730505 
L 76.655165 87.584452 
L 77.069764 87.433497 
L 77.484378 87.279903 
L 77.898977 87.122962 
L 78.31359 86.962151 
L 78.728189 86.796858 
L 79.142803 86.626367 
L 79.557402 86.451993 
L 79.972015 86.272218 
L 80.386615 86.092585 
L 80.801228 85.906722 
L 81.215827 85.715217 
L 81.630441 85.520296 
L 82.04504 85.318388 
L 82.459653 85.114155 
L 82.874253 84.906389 
L 83.288866 84.69187 
L 83.703465 84.473169 
L 84.118079 84.251836 
L 84.532678 84.019921 
L 84.947291 83.786151 
L 85.361891 83.545147 
L 85.776504 83.300071 
L 86.191103 83.049798 
L 86.605717 82.794298 
L 87.020316 82.53319 
L 87.434929 82.262368 
L 87.849528 81.987161 
L 88.264142 81.704355 
L 88.678741 81.415675 
L 89.093355 81.116438 
L 89.507954 80.813247 
L 89.922567 80.503459 
L 90.337166 80.186966 
L 90.75178 79.857897 
L 91.166379 79.521672 
L 91.580992 79.174844 
L 91.995592 78.824555 
L 92.410205 78.462656 
L 92.824811 78.091169 
L 93.239418 77.710731 
L 93.654024 77.321874 
L 94.06863 76.92696 
L 94.483237 76.520523 
L 94.897843 76.099914 
L 95.312449 75.672957 
L 95.727056 75.235668 
L 96.141662 74.786614 
L 96.556268 74.329234 
L 96.970875 73.861276 
L 97.385481 73.381942 
L 97.800087 72.892602 
L 98.214694 72.390802 
L 98.6293 71.87834 
L 99.043906 71.354943 
L 99.458513 70.823019 
L 99.873119 70.280808 
L 100.287725 69.728092 
L 100.702332 69.165883 
L 101.116938 68.590265 
L 101.531544 68.005663 
L 101.946151 67.410525 
L 102.360757 66.801495 
L 102.775363 66.186308 
L 103.18997 65.555121 
L 103.604576 64.92138 
L 104.019182 64.277046 
L 104.433788 63.621944 
L 104.848395 62.958885 
L 105.263001 62.283302 
L 105.677607 61.600962 
L 106.092214 60.905657 
L 106.50682 60.205106 
L 106.921426 59.498478 
L 107.336033 58.787742 
L 107.750639 58.068437 
L 108.165245 57.336176 
L 108.579852 56.601051 
L 108.994458 55.863014 
L 109.409064 55.112368 
L 109.823671 54.362719 
L 110.238277 53.603464 
L 110.652883 52.838448 
L 111.06749 52.067986 
L 111.482096 51.295789 
L 111.896702 50.518491 
L 112.311309 49.739734 
L 112.725915 48.954931 
L 113.140521 48.169783 
L 113.555128 47.384388 
L 113.969734 46.592308 
L 114.38434 45.800223 
L 114.798947 45.007284 
L 115.213553 44.210241 
L 115.628159 43.406821 
L 116.042765 42.609564 
L 116.457372 41.810031 
L 116.871978 41.013016 
L 117.286584 40.215734 
L 117.701191 39.418015 
L 118.115797 38.619353 
L 118.530403 37.82137 
L 118.94501 37.020965 
L 119.359616 36.228444 
L 119.774222 35.43811 
L 120.188829 34.651629 
L 120.603435 33.867333 
L 121.018041 33.088821 
L 121.432648 32.31349 
L 121.847254 31.544932 
L 122.26186 30.776471 
L 122.676467 30.016004 
L 123.091073 29.26358 
L 123.505679 28.519893 
L 123.920286 27.780784 
L 124.334892 27.054668 
L 124.749498 26.332923 
L 125.164105 25.62229 
L 125.578711 24.92335 
L 125.993317 24.236845 
L 126.407924 23.56599 
L 126.822537 22.905529 
L 127.237143 22.258093 
L 127.65175 21.625156 
L 128.066356 21.003092 
L 128.480962 20.402939 
L 128.895569 19.814133 
L 129.310175 19.24038 
L 129.724781 18.682995 
L 130.139388 18.147289 
L 130.553994 17.623294 
L 130.9686 17.125762 
L 131.383207 16.643658 
L 131.797813 16.181429 
L 132.212419 15.74226 
L 132.627025 15.316717 
L 133.041632 14.910934 
L 133.456238 14.523649 
L 133.870844 14.16033 
L 134.285451 13.816708 
L 134.700057 13.495516 
L 135.114663 13.195036 
L 135.52927 12.918665 
L 135.943876 12.656179 
L 136.358482 12.413028 
L 136.773089 12.192776 
L 137.187695 12.000874 
L 137.602301 11.827318 
L 138.016908 11.677387 
L 138.431514 11.542669 
L 138.84612 11.433836 
L 139.260727 11.350371 
L 139.675333 11.281898 
L 140.089939 11.236129 
L 140.504546 11.207364 
L 140.919152 11.202727 
L 141.333758 11.222684 
L 141.748365 11.256166 
L 142.162971 11.312246 
L 142.577577 11.38943 
L 142.992184 11.484777 
L 143.40679 11.603171 
L 143.821396 11.740889 
L 144.236002 11.895377 
L 144.650609 12.074494 
L 145.065215 12.26883 
L 145.479821 12.480613 
L 145.894428 12.706946 
L 146.309034 12.953065 
L 146.72364 13.215241 
L 147.138247 13.493013 
L 147.552853 13.789525 
L 147.967459 14.10018 
L 148.382066 14.425313 
L 148.796672 14.766138 
L 149.211278 15.119183 
L 149.625885 15.487832 
L 150.040491 15.865548 
L 150.455097 16.255969 
L 150.869704 16.657927 
L 151.28431 17.074611 
L 151.698916 17.501128 
L 152.113523 17.940148 
L 152.528129 18.393176 
L 152.942735 18.846897 
L 153.357342 19.309708 
L 153.771948 19.780314 
L 154.186554 20.263079 
L 154.601161 20.758939 
L 155.015767 21.260916 
L 155.430373 21.76465 
L 155.844979 22.28672 
L 156.259586 22.809149 
L 156.674192 23.341463 
L 157.088798 23.884609 
L 157.503405 24.433587 
L 157.918011 24.99077 
L 158.332617 25.555439 
L 158.747224 26.125083 
L 159.16183 26.707305 
L 159.576436 27.291918 
L 159.991043 27.884212 
L 160.405649 28.490018 
L 160.820255 29.101435 
L 161.234862 29.720518 
L 161.649468 30.349625 
L 162.064074 30.990338 
L 162.478681 31.632129 
L 162.893287 32.284659 
L 163.307893 32.943074 
L 163.7225 33.608844 
L 164.137106 34.28583 
L 164.551712 34.96989 
L 164.966319 35.659841 
L 165.380925 36.358623 
L 165.795535 37.059712 
L 166.210141 37.766654 
L 166.624747 38.480547 
L 167.039354 39.198704 
L 167.45396 39.921013 
L 167.868566 40.651949 
L 168.283173 41.383286 
L 168.697779 42.125923 
L 169.112385 42.868285 
L 169.526992 43.610026 
L 169.941598 44.35469 
L 170.356204 45.102341 
L 170.770811 45.846448 
L 171.185417 46.595382 
L 171.600023 47.343421 
L 172.01463 48.089847 
L 172.429236 48.833724 
L 172.843842 49.572546 
L 173.258449 50.306667 
L 173.673055 51.040538 
L 174.087661 51.772247 
L 174.502268 52.503228 
L 174.916874 53.224832 
L 175.33148 53.944477 
L 175.746087 54.65761 
L 176.160693 55.367319 
L 176.575299 56.065936 
L 176.989905 56.761721 
L 177.404512 57.449063 
L 177.819118 58.12952 
L 178.233724 58.805173 
L 178.648331 59.46819 
L 179.062937 60.130337 
L 179.477543 60.785768 
L 179.89215 61.434316 
L 180.306756 62.07497 
L 180.721362 62.707092 
L 181.135969 63.331778 
L 181.550575 63.948246 
L 181.965181 64.557572 
L 182.379788 65.161654 
L 182.794394 65.758998 
L 183.209 66.347594 
L 183.623607 66.925026 
L 184.038213 67.497803 
L 184.452819 68.061574 
L 184.867426 68.61942 
L 185.282034 69.168612 
L 185.69664 69.708061 
L 186.111246 70.245054 
L 186.525853 70.77188 
L 186.940459 71.29341 
L 187.355065 71.806171 
L 187.769672 72.311557 
L 188.184278 72.811043 
L 188.598884 73.3003 
L 189.013491 73.782816 
L 189.428097 74.257419 
L 189.842703 74.720996 
L 190.25731 75.177427 
L 190.671916 75.627173 
L 191.086522 76.065207 
L 191.501129 76.498336 
L 191.915735 76.923735 
L 192.330341 77.341874 
L 192.744947 77.748941 
L 193.159554 78.149575 
L 193.57416 78.542719 
L 193.988766 78.925607 
L 194.403373 79.301506 
L 194.817979 79.669509 
L 195.232585 80.031373 
L 195.647192 80.382163 
L 196.061798 80.727569 
L 196.476404 81.061737 
L 196.891012 81.388885 
L 197.305618 81.709646 
L 197.720224 82.019651 
L 198.134831 82.325114 
L 198.549437 82.61932 
L 198.964043 82.904716 
L 199.37865 83.188212 
L 199.793256 83.462717 
L 200.207862 83.729094 
L 200.622468 83.986712 
L 201.037075 84.237657 
L 201.451682 84.479803 
L 201.866288 84.718666 
L 202.280895 84.945331 
L 202.695501 85.167375 
L 203.110107 85.384549 
L 203.524714 85.592232 
L 203.93932 85.794052 
L 204.353926 85.986591 
L 204.768533 86.174801 
L 205.183139 86.356129 
L 205.597745 86.531044 
L 206.012352 86.700755 
L 206.426958 86.865015 
L 206.841565 87.020775 
L 207.256171 87.17383 
L 207.670777 87.319219 
L 208.085384 87.458503 
L 208.49999 87.595131 
L 208.914596 87.724757 
L 209.329203 87.849988 
L 209.743809 87.972024 
L 210.158416 88.088788 
L 210.573022 88.200891 
L 210.987628 88.310452 
L 211.402235 88.418247 
L 211.816841 88.522352 
L 212.231447 88.621941 
L 212.646054 88.71686 
L 213.06066 88.809868 
L 213.475267 88.900672 
L 213.889873 88.988551 
L 214.304479 89.071913 
L 214.719086 89.155636 
L 215.133692 89.235002 
L 215.548298 89.312534 
L 215.962905 89.389854 
L 216.377511 89.463387 
L 216.792118 89.535316 
L 217.206724 89.605409 
L 217.62133 89.6742 
L 218.035937 89.741136 
L 218.450543 89.806834 
L 218.865149 89.870466 
L 219.279756 89.933413 
L 219.694362 89.996058 
L 220.108968 90.057152 
L 220.523575 90.115372 
L 220.938182 90.170896 
L 221.352788 90.225176 
L 221.767394 90.277356 
L 222.182001 90.328746 
L 222.596607 90.378097 
L 223.011213 90.425999 
L 223.42582 90.472435 
L 223.840426 90.516047 
L 224.255032 90.558031 
L 224.669639 90.597581 
L 225.084245 90.636882 
L 225.498851 90.67414 
L 225.913458 90.708882 
L 226.328064 90.742796 
L 226.742671 90.774714 
L 227.157278 90.804127 
L 227.571884 90.831691 
L 227.98649 90.858281 
L 228.401096 90.883301 
L 228.815703 90.907558 
L 229.230309 90.929918 
L 229.644915 90.949692 
L 230.059522 90.969173 
L 230.474128 90.986406 
L 230.888734 91.003132 
L 231.303341 91.017708 
L 231.717947 91.031098 
L 232.132553 91.043088 
L 232.54716 91.05481 
L 232.961766 91.065407 
L 233.376372 91.074116 
L 233.790979 91.082426 
L 234.205585 91.089827 
L 234.620191 91.096378 
L 235.034798 91.102661 
L 235.449404 91.107349 
L 235.86401 91.111675 
L 236.278617 91.114865 
L 236.693223 91.117837 
L 237.107831 91.121113 
L 237.522437 91.123578 
L 237.937044 91.125597 
L 238.35165 91.126962 
L 238.766256 91.128025 
L 239.180863 91.12883 
L 239.595469 91.129157 
L 240.010075 91.129606 
L 240.424682 91.129907 
L 240.839288 91.129573 
L 241.253894 91.1295 
L 241.668499 91.129405 
L 242.083105 91.129052 
L 242.497711 91.129024 
L 242.912318 91.128773 
L 243.326928 91.128618 
L 243.741534 91.128832 
L 244.15614 91.128863 
L 244.570747 91.129286 
L 244.985353 91.129546 
L 245.399959 91.129955 
L 245.814566 91.131037 
L 246.229172 91.131671 
L 246.643778 91.132471 
L 247.058385 91.133434 
L 247.472991 91.134559 
L 247.887597 91.135842 
L 248.302203 91.137278 
L 248.71681 91.139122 
L 249.131416 91.141069 
L 249.546022 91.142857 
L 249.960629 91.144784 
L 250.375235 91.146842 
L 250.789841 91.149021 
L 251.204448 91.151312 
L 251.619054 91.153706 
L 252.03366 91.156194 
L 252.448267 91.158765 
L 252.862873 91.161411 
L 253.277479 91.164122 
L 253.692086 91.166888 
L 254.106692 91.169701 
L 254.521298 91.172552 
L 254.935905 91.175431 
L 255.350511 91.17833 
L 255.765117 91.181242 
L 256.179724 91.184157 
L 256.594337 91.187068 
L 257.00895 91.189968 
L 257.423564 91.192849 
L 257.838177 91.195706 
L 258.252791 91.19853 
L 258.667404 91.201317 
L 259.082018 91.204061 
L 259.496631 91.206755 
L 259.911245 91.209655 
L 260.325858 91.212197 
L 260.740471 91.21468 
L 261.155085 91.217101 
L 261.569698 91.219456 
L 261.984312 91.221741 
L 262.398925 91.223952 
L 262.813539 91.226087 
L 263.228152 91.228143 
L 263.642765 91.230118 
L 264.057379 91.232272 
L 264.471992 91.234042 
L 264.886606 91.235734 
L 265.301219 91.237346 
L 265.715833 91.238879 
L 266.130446 91.240332 
L 266.54506 91.241706 
L 266.959673 91.243001 
L 267.374286 91.244218 
L 267.7889 91.24536 
L 268.203513 91.246428 
L 268.618127 91.247684 
L 269.03274 91.24883 
L 269.447354 91.249613 
L 269.861967 91.250343 
L 270.27658 91.25102 
L 270.691194 91.251646 
L 271.105807 91.252222 
L 271.520421 91.252752 
L 271.935034 91.253238 
L 272.349648 91.253681 
L 272.764261 91.254084 
L 273.178874 91.254449 
L 273.593488 91.25504 
L 274.008101 91.255298 
L 274.422715 91.255531 
L 274.837328 91.255741 
L 275.251942 91.25593 
L 275.666555 91.256099 
L 276.081169 91.25625 
L 276.495782 91.256383 
L 276.910395 91.256502 
L 277.325009 91.256607 
L 277.739622 91.256699 
L 278.154236 91.25678 
L 278.568849 91.256851 
L 278.983463 91.256912 
L 279.398076 91.256966 
z
" style="fill:#ff7f0e;opacity:0.4;stroke:#ffffff;stroke-linejoin:miter;"/>
   </g>
   <g id="patch_6">
    <path clip-path="url(#p98cb30cb78)" d="M 101.116938 91.257273 
L 101.116938 68.590265 
L 101.531544 68.005663 
L 101.946151 67.410525 
L 102.360757 66.801495 
L 102.775363 66.186308 
L 103.18997 65.555121 
L 103.604576 64.92138 
L 104.019182 64.277046 
L 104.433788 63.621944 
L 104.848395 62.958885 
L 105.263001 62.283302 
L 105.677607 61.600962 
L 106.092214 60.905657 
L 106.50682 60.205106 
L 106.921426 59.498478 
L 107.336033 58.787742 
L 107.750639 58.068437 
L 108.165245 57.336176 
L 108.579852 56.601051 
L 108.994458 55.863014 
L 109.409064 55.112368 
L 109.823671 54.362719 
L 110.238277 53.603464 
L 110.652883 52.838448 
L 111.06749 52.067986 
L 111.482096 51.295789 
L 111.896702 50.518491 
L 112.311309 49.739734 
L 112.725915 48.954931 
L 113.140521 48.169783 
L 113.555128 47.384388 
L 113.969734 46.592308 
L 114.38434 45.800223 
L 114.798947 45.007284 
L 115.213553 44.210241 
L 115.628159 43.406821 
L 116.042765 42.609564 
L 116.457372 41.810031 
L 116.871978 41.013016 
L 117.286584 40.215734 
L 117.701191 39.418015 
L 118.115797 38.619353 
L 118.530403 37.82137 
L 118.94501 37.020965 
L 119.359616 36.228444 
L 119.774222 35.43811 
L 120.188829 34.651629 
L 120.603435 33.867333 
L 121.018041 33.088821 
L 121.432648 32.31349 
L 121.847254 31.544932 
L 122.26186 30.776471 
L 122.676467 30.016004 
L 123.091073 29.26358 
L 123.505679 28.519893 
L 123.920286 27.780784 
L 124.334892 27.054668 
L 124.749498 26.332923 
L 125.164105 25.62229 
L 125.578711 24.92335 
L 125.993317 24.236845 
L 126.407924 23.56599 
L 126.822537 22.905529 
L 127.237143 22.258093 
L 127.65175 21.625156 
L 128.066356 21.003092 
L 128.480962 20.402939 
L 128.895569 19.814133 
L 129.310175 19.24038 
L 129.724781 18.682995 
L 130.139388 18.147289 
L 130.553994 17.623294 
L 130.9686 17.125762 
L 131.383207 16.643658 
L 131.797813 16.181429 
L 132.212419 15.74226 
L 132.627025 15.316717 
L 133.041632 14.910934 
L 133.456238 14.523649 
L 133.870844 14.16033 
L 134.285451 13.816708 
L 134.700057 13.495516 
L 135.114663 13.195036 
L 135.52927 12.918665 
L 135.943876 12.656179 
L 136.358482 12.413028 
L 136.773089 12.192776 
L 137.187695 12.000874 
L 137.602301 11.827318 
L 138.016908 11.677387 
L 138.431514 11.542669 
L 138.84612 11.433836 
L 139.260727 11.350371 
L 139.675333 11.281898 
L 140.089939 11.236129 
L 140.504546 11.207364 
L 140.919152 11.202727 
L 141.333758 11.222684 
L 141.748365 11.256166 
L 142.162971 11.312246 
L 142.577577 11.38943 
L 142.992184 11.484777 
L 143.40679 11.603171 
L 143.821396 11.740889 
L 144.236002 11.895377 
L 144.650609 12.074494 
L 145.065215 12.26883 
L 145.479821 12.480613 
L 145.894428 12.706946 
L 146.309034 12.953065 
L 146.72364 13.215241 
L 147.138247 13.493013 
L 147.552853 13.789525 
L 147.967459 14.10018 
L 148.382066 14.425313 
L 148.796672 14.766138 
L 149.211278 15.119183 
L 149.625885 15.487832 
L 150.040491 15.865548 
L 150.455097 16.255969 
L 150.869704 16.657927 
L 151.28431 17.074611 
L 151.698916 17.501128 
L 152.113523 17.940148 
L 152.528129 18.393176 
L 152.942735 18.846897 
L 153.357342 19.309708 
L 153.771948 19.780314 
L 154.186554 20.263079 
L 154.601161 20.758939 
L 155.015767 21.260916 
L 155.430373 21.76465 
L 155.844979 22.28672 
L 156.259586 22.809149 
L 156.674192 23.341463 
L 157.088798 23.884609 
L 157.503405 24.433587 
L 157.918011 24.99077 
L 158.332617 25.555439 
L 158.747224 26.125083 
L 159.16183 26.707305 
L 159.576436 27.291918 
L 159.991043 27.884212 
L 160.405649 28.490018 
L 160.820255 29.101435 
L 161.234862 29.720518 
L 161.649468 30.349625 
L 162.064074 30.990338 
L 162.478681 31.632129 
L 162.893287 32.284659 
L 163.307893 32.943074 
L 163.7225 33.608844 
L 164.137106 34.28583 
L 164.551712 34.96989 
L 164.966319 35.659841 
L 165.380925 36.358623 
L 165.795535 37.059712 
L 166.210141 37.766654 
L 166.624747 38.480547 
L 167.039354 39.198704 
L 167.45396 39.921013 
L 167.868566 40.651949 
L 168.283173 41.383286 
L 168.697779 42.125923 
L 169.112385 42.868285 
L 169.526992 43.610026 
L 169.941598 44.35469 
L 170.356204 45.102341 
L 170.770811 45.846448 
L 171.185417 46.595382 
L 171.600023 47.343421 
L 172.01463 48.089847 
L 172.429236 48.833724 
L 172.843842 49.572546 
L 173.258449 50.306667 
L 173.673055 51.040538 
L 174.087661 51.772247 
L 174.502268 52.503228 
L 174.916874 53.224832 
L 175.33148 53.944477 
L 175.746087 54.65761 
L 176.160693 55.367319 
L 176.575299 56.065936 
L 176.989905 56.761721 
L 177.404512 57.449063 
L 177.819118 58.12952 
L 178.233724 58.805173 
L 178.648331 59.46819 
L 179.062937 60.130337 
L 179.477543 60.785768 
L 179.89215 61.434316 
L 180.306756 62.07497 
L 180.721362 62.707092 
L 181.135969 63.331778 
L 181.550575 63.948246 
L 181.965181 64.557572 
L 182.379788 65.161654 
L 182.794394 65.758998 
L 183.209 66.347594 
L 183.623607 66.925026 
L 184.038213 67.497803 
L 184.038213 91.257273 
z
" style="fill:#ff7f0e;opacity:0.4;stroke:#ffffff;stroke-linejoin:miter;"/>
   </g>
   <g id="line2d_8">
    <path clip-path="url(#p98cb30cb78)" d="M 330.955499 95.26 
L 330.955499 7.2 
" style="fill:none;stroke:#4c72b0;stroke-linecap:round;stroke-width:1.5;"/>
   </g>
   <g id="line2d_9">
    <path clip-path="url(#p98cb30cb78)" d="M 92.243791 95.26 
L 92.243791 7.2 
" style="fill:none;stroke:#dd8452;stroke-linecap:round;stroke-width:1.5;"/>
   </g>
   <g id="patch_7">
    <path d="M 7.2 95.26 
L 413.28 95.26 
" style="fill:none;stroke:#ffffff;stroke-linecap:square;stroke-linejoin:miter;stroke-width:1.25;"/>
   </g>
   <g id="legend_1">
    <g id="patch_8">
     <path d="M 340.807187 48.291875 
L 405.58 48.291875 
Q 407.78 48.291875 407.78 46.091875 
L 407.78 14.9 
Q 407.78 12.7 405.58 12.7 
L 340.807187 12.7 
Q 338.607187 12.7 338.607187 14.9 
L 338.607187 46.091875 
Q 338.607187 48.291875 340.807187 48.291875 
z
" style="fill:#eaeaf2;opacity:0.8;stroke:#cccccc;stroke-linejoin:miter;"/>
    </g>
    <g id="patch_9">
     <path d="M 343.007187 25.458281 
L 365.007187 25.458281 
L 365.007187 17.758281 
L 343.007187 17.758281 
z
" style="fill:#1f77b4;opacity:0.4;stroke:#ffffff;stroke-linejoin:miter;"/>
    </g>
    <g id="text_9">
     <!-- [0, 0] -->
     <defs>
      <path d="M 8.59375 75.984375 
L 29.296875 75.984375 
L 29.296875 69 
L 17.578125 69 
L 17.578125 -6.203125 
L 29.296875 -6.203125 
L 29.296875 -13.1875 
L 8.59375 -13.1875 
z
" id="DejaVuSans-91"/>
      <path d="M 11.71875 12.40625 
L 22.015625 12.40625 
L 22.015625 4 
L 14.015625 -11.625 
L 7.71875 -11.625 
L 11.71875 4 
z
" id="DejaVuSans-44"/>
      <path id="DejaVuSans-32"/>
      <path d="M 30.421875 75.984375 
L 30.421875 -13.1875 
L 9.71875 -13.1875 
L 9.71875 -6.203125 
L 21.390625 -6.203125 
L 21.390625 69 
L 9.71875 69 
L 9.71875 75.984375 
z
" id="DejaVuSans-93"/>
     </defs>
     <g style="fill:#262626;" transform="translate(373.807187 25.458281)scale(0.11 -0.11)">
      <use xlink:href="#DejaVuSans-91"/>
      <use x="39.013672" xlink:href="#DejaVuSans-48"/>
      <use x="102.636719" xlink:href="#DejaVuSans-44"/>
      <use x="134.423828" xlink:href="#DejaVuSans-32"/>
      <use x="166.210938" xlink:href="#DejaVuSans-48"/>
      <use x="229.833984" xlink:href="#DejaVuSans-93"/>
     </g>
    </g>
    <g id="patch_10">
     <path d="M 343.007187 41.604219 
L 365.007187 41.604219 
L 365.007187 33.904219 
L 343.007187 33.904219 
z
" style="fill:#ff7f0e;opacity:0.4;stroke:#ffffff;stroke-linejoin:miter;"/>
    </g>
    <g id="text_10">
     <!-- [1, 0] -->
     <g style="fill:#262626;" transform="translate(373.807187 41.604219)scale(0.11 -0.11)">
      <use xlink:href="#DejaVuSans-91"/>
      <use x="39.013672" xlink:href="#DejaVuSans-49"/>
      <use x="102.636719" xlink:href="#DejaVuSans-44"/>
      <use x="134.423828" xlink:href="#DejaVuSans-32"/>
      <use x="166.210938" xlink:href="#DejaVuSans-48"/>
      <use x="229.833984" xlink:href="#DejaVuSans-93"/>
     </g>
    </g>
   </g>
  </g>
  <g id="axes_2">
   <g id="patch_11">
    <path d="M 7.2 232.78 
L 413.28 232.78 
L 413.28 144.72 
L 7.2 144.72 
z
" style="fill:#eaeaf2;"/>
   </g>
   <g id="matplotlib.axis_2">
    <g id="xtick_8">
     <g id="line2d_10">
      <path clip-path="url(#p1138cbb659)" d="M 23.315436 232.78 
L 23.315436 144.72 
" style="fill:none;stroke:#ffffff;stroke-linecap:round;"/>
     </g>
     <g id="text_11">
      <!-- −1.5 -->
      <g style="fill:#262626;" transform="translate(9.959889 250.638281)scale(0.11 -0.11)">
       <use xlink:href="#DejaVuSans-8722"/>
       <use x="83.789062" xlink:href="#DejaVuSans-49"/>
       <use x="147.412109" xlink:href="#DejaVuSans-46"/>
       <use x="179.199219" xlink:href="#DejaVuSans-53"/>
      </g>
     </g>
    </g>
    <g id="xtick_9">
     <g id="line2d_11">
      <path clip-path="url(#p1138cbb659)" d="M 103.859938 232.78 
L 103.859938 144.72 
" style="fill:none;stroke:#ffffff;stroke-linecap:round;"/>
     </g>
     <g id="text_12">
      <!-- −1.0 -->
      <g style="fill:#262626;" transform="translate(90.504391 250.638281)scale(0.11 -0.11)">
       <use xlink:href="#DejaVuSans-8722"/>
       <use x="83.789062" xlink:href="#DejaVuSans-49"/>
       <use x="147.412109" xlink:href="#DejaVuSans-46"/>
       <use x="179.199219" xlink:href="#DejaVuSans-48"/>
      </g>
     </g>
    </g>
    <g id="xtick_10">
     <g id="line2d_12">
      <path clip-path="url(#p1138cbb659)" d="M 184.404439 232.78 
L 184.404439 144.72 
" style="fill:none;stroke:#ffffff;stroke-linecap:round;"/>
     </g>
     <g id="text_13">
      <!-- −0.5 -->
      <g style="fill:#262626;" transform="translate(171.048892 250.638281)scale(0.11 -0.11)">
       <use xlink:href="#DejaVuSans-8722"/>
       <use x="83.789062" xlink:href="#DejaVuSans-48"/>
       <use x="147.412109" xlink:href="#DejaVuSans-46"/>
       <use x="179.199219" xlink:href="#DejaVuSans-53"/>
      </g>
     </g>
    </g>
    <g id="xtick_11">
     <g id="line2d_13">
      <path clip-path="url(#p1138cbb659)" d="M 264.948941 232.78 
L 264.948941 144.72 
" style="fill:none;stroke:#ffffff;stroke-linecap:round;"/>
     </g>
     <g id="text_14">
      <!-- 0.0 -->
      <g style="fill:#262626;" transform="translate(256.202222 250.638281)scale(0.11 -0.11)">
       <use xlink:href="#DejaVuSans-48"/>
       <use x="63.623047" xlink:href="#DejaVuSans-46"/>
       <use x="95.410156" xlink:href="#DejaVuSans-48"/>
      </g>
     </g>
    </g>
    <g id="xtick_12">
     <g id="line2d_14">
      <path clip-path="url(#p1138cbb659)" d="M 345.493442 232.78 
L 345.493442 144.72 
" style="fill:none;stroke:#ffffff;stroke-linecap:round;"/>
     </g>
     <g id="text_15">
      <!-- 0.5 -->
      <g style="fill:#262626;" transform="translate(336.746723 250.638281)scale(0.11 -0.11)">
       <use xlink:href="#DejaVuSans-48"/>
       <use x="63.623047" xlink:href="#DejaVuSans-46"/>
       <use x="95.410156" xlink:href="#DejaVuSans-53"/>
      </g>
     </g>
    </g>
    <g id="text_16">
     <!-- Dense_bias -->
     <defs>
      <path d="M 48.6875 27.296875 
Q 48.6875 37.203125 44.609375 42.84375 
Q 40.53125 48.484375 33.40625 48.484375 
Q 26.265625 48.484375 22.1875 42.84375 
Q 18.109375 37.203125 18.109375 27.296875 
Q 18.109375 17.390625 22.1875 11.75 
Q 26.265625 6.109375 33.40625 6.109375 
Q 40.53125 6.109375 44.609375 11.75 
Q 48.6875 17.390625 48.6875 27.296875 
z
M 18.109375 46.390625 
Q 20.953125 51.265625 25.265625 53.625 
Q 29.59375 56 35.59375 56 
Q 45.5625 56 51.78125 48.09375 
Q 58.015625 40.1875 58.015625 27.296875 
Q 58.015625 14.40625 51.78125 6.484375 
Q 45.5625 -1.421875 35.59375 -1.421875 
Q 29.59375 -1.421875 25.265625 0.953125 
Q 20.953125 3.328125 18.109375 8.203125 
L 18.109375 0 
L 9.078125 0 
L 9.078125 75.984375 
L 18.109375 75.984375 
z
" id="DejaVuSans-98"/>
      <path d="M 34.28125 27.484375 
Q 23.390625 27.484375 19.1875 25 
Q 14.984375 22.515625 14.984375 16.5 
Q 14.984375 11.71875 18.140625 8.90625 
Q 21.296875 6.109375 26.703125 6.109375 
Q 34.1875 6.109375 38.703125 11.40625 
Q 43.21875 16.703125 43.21875 25.484375 
L 43.21875 27.484375 
z
M 52.203125 31.203125 
L 52.203125 0 
L 43.21875 0 
L 43.21875 8.296875 
Q 40.140625 3.328125 35.546875 0.953125 
Q 30.953125 -1.421875 24.3125 -1.421875 
Q 15.921875 -1.421875 10.953125 3.296875 
Q 6 8.015625 6 15.921875 
Q 6 25.140625 12.171875 29.828125 
Q 18.359375 34.515625 30.609375 34.515625 
L 43.21875 34.515625 
L 43.21875 35.40625 
Q 43.21875 41.609375 39.140625 45 
Q 35.0625 48.390625 27.6875 48.390625 
Q 23 48.390625 18.546875 47.265625 
Q 14.109375 46.140625 10.015625 43.890625 
L 10.015625 52.203125 
Q 14.9375 54.109375 19.578125 55.046875 
Q 24.21875 56 28.609375 56 
Q 40.484375 56 46.34375 49.84375 
Q 52.203125 43.703125 52.203125 31.203125 
z
" id="DejaVuSans-97"/>
     </defs>
     <g style="fill:#262626;" transform="translate(176.029687 266.044062)scale(0.12 -0.12)">
      <use xlink:href="#DejaVuSans-68"/>
      <use x="77.001953" xlink:href="#DejaVuSans-101"/>
      <use x="138.525391" xlink:href="#DejaVuSans-110"/>
      <use x="201.904297" xlink:href="#DejaVuSans-115"/>
      <use x="254.003906" xlink:href="#DejaVuSans-101"/>
      <use x="315.527344" xlink:href="#DejaVuSans-95"/>
      <use x="365.527344" xlink:href="#DejaVuSans-98"/>
      <use x="429.003906" xlink:href="#DejaVuSans-105"/>
      <use x="456.787109" xlink:href="#DejaVuSans-97"/>
      <use x="518.066406" xlink:href="#DejaVuSans-115"/>
     </g>
    </g>
   </g>
   <g id="patch_12">
    <path clip-path="url(#p1138cbb659)" d="M 25.658182 228.777273 
L 26.261396 228.77695 
L 26.86461 228.776894 
L 27.467825 228.776829 
L 28.071039 228.776754 
L 28.674253 228.776669 
L 29.277467 228.776572 
L 29.880681 228.776462 
L 30.483896 228.776337 
L 31.08711 228.775874 
L 31.690324 228.775659 
L 32.293538 228.775417 
L 32.896753 228.775144 
L 33.499967 228.774838 
L 34.103181 228.774173 
L 34.706395 228.773735 
L 35.30961 228.773247 
L 35.912824 228.772703 
L 36.516038 228.772101 
L 37.119252 228.771112 
L 37.722467 228.770322 
L 38.325681 228.769451 
L 38.928895 228.768494 
L 39.532109 228.767446 
L 40.135323 228.766301 
L 40.738538 228.765056 
L 41.341752 228.763704 
L 41.944966 228.762243 
L 42.54818 228.760667 
L 43.151395 228.758328 
L 43.754609 228.756402 
L 44.357823 228.754014 
L 44.961037 228.751426 
L 45.564252 228.748951 
L 46.167466 228.746311 
L 46.77068 228.743501 
L 47.373894 228.74052 
L 47.977109 228.737366 
L 48.580323 228.733069 
L 49.183537 228.729398 
L 49.786751 228.725528 
L 50.389965 228.720491 
L 50.99318 228.716055 
L 51.596394 228.711395 
L 52.199608 228.706187 
L 52.802822 228.700052 
L 53.406037 228.69416 
L 54.009251 228.687953 
L 54.612465 228.681096 
L 55.215679 228.674168 
L 55.818894 228.66656 
L 56.422108 228.658846 
L 57.025322 228.650738 
L 57.628536 228.642219 
L 58.231751 228.633272 
L 58.834965 228.623234 
L 60.041393 228.61262 
L 60.644588 228.602039 
L 61.247803 228.590274 
L 61.851017 228.578479 
L 62.454212 228.565757 
L 63.057426 228.552991 
L 63.660621 228.538645 
L 64.263835 228.523174 
L 64.86705 228.508092 
L 65.470245 228.490665 
L 66.073459 228.472848 
L 66.676673 228.454044 
L 67.279868 228.433882 
L 67.883082 228.412903 
L 68.486297 228.390136 
L 69.089492 228.36671 
L 69.692706 228.342349 
L 70.295901 228.31609 
L 70.899115 228.287457 
L 71.502329 228.25784 
L 72.105524 228.227919 
L 72.708739 228.194948 
L 73.311953 228.161199 
L 73.915148 228.125805 
L 74.518362 228.088078 
L 75.121576 228.048192 
L 75.724771 228.00733 
L 76.327986 227.962375 
L 76.9312 227.916132 
L 77.534395 227.868038 
L 78.137609 227.818734 
L 78.740804 227.766722 
L 79.344018 227.71251 
L 79.947233 227.656385 
L 80.550428 227.598045 
L 81.153642 227.537794 
L 81.756856 227.473734 
L 82.360051 227.40655 
L 82.963265 227.337062 
L 83.56648 227.266887 
L 84.169675 227.192445 
L 84.772889 227.116636 
L 85.376084 227.037392 
L 85.979298 226.954866 
L 86.582512 226.870866 
L 87.185707 226.784941 
L 87.788922 226.695269 
L 88.392136 226.602622 
L 88.995331 226.507914 
L 89.598545 226.410287 
L 90.201759 226.308734 
L 90.804954 226.204663 
L 91.408169 226.09844 
L 92.011364 225.990822 
L 92.614578 225.879147 
L 93.217792 225.762542 
L 93.820987 225.64548 
L 94.424201 225.525424 
L 95.027416 225.402023 
L 95.630611 225.276531 
L 96.233825 225.148425 
L 96.837039 225.015796 
L 97.440234 224.883181 
L 98.043448 224.744612 
L 98.646643 224.606305 
L 99.249858 224.463251 
L 99.853072 224.319298 
L 100.456267 224.171267 
L 101.059481 224.020849 
L 101.662695 223.866802 
L 102.26589 223.707615 
L 102.869105 223.548033 
L 103.472319 223.38561 
L 104.075514 223.219994 
L 104.678728 223.047543 
L 105.281933 222.876207 
L 105.885137 222.701835 
L 106.488352 222.5225 
L 107.091556 222.340728 
L 107.694761 222.154339 
L 108.297966 221.962071 
L 108.90118 221.766978 
L 109.504384 221.56912 
L 110.107589 221.364062 
L 110.710794 221.156619 
L 111.314008 220.945924 
L 111.917213 220.727535 
L 112.520417 220.500825 
L 113.123631 220.272739 
L 113.726836 220.0406 
L 114.330041 219.802889 
L 114.933245 219.557147 
L 115.53646 219.305043 
L 116.139664 219.050193 
L 116.742869 218.785759 
L 117.346074 218.518111 
L 117.949288 218.240393 
L 118.552492 217.954917 
L 119.155697 217.662681 
L 119.758911 217.363753 
L 120.362116 217.058674 
L 120.965321 216.746416 
L 121.568525 216.421773 
L 122.171739 216.088774 
L 122.774944 215.751391 
L 123.378149 215.403407 
L 123.981363 215.047873 
L 124.584568 214.685508 
L 125.187772 214.313679 
L 125.790977 213.930555 
L 126.394191 213.539505 
L 126.997396 213.144423 
L 127.6006 212.735067 
L 128.203805 212.315766 
L 128.807019 211.888618 
L 129.410224 211.454172 
L 130.013428 211.011192 
L 130.616643 210.559837 
L 131.219847 210.097612 
L 131.823052 209.624681 
L 132.426257 209.148719 
L 133.029471 208.664961 
L 133.632675 208.169958 
L 134.23588 207.66798 
L 134.839094 207.159028 
L 135.442299 206.640556 
L 136.045504 206.1124 
L 136.648708 205.576341 
L 137.251922 205.03492 
L 137.855127 204.486671 
L 138.458332 203.928035 
L 139.061536 203.364392 
L 139.664751 202.795599 
L 140.267955 202.22267 
L 140.87116 201.643155 
L 141.474374 201.058912 
L 142.077579 200.467938 
L 142.680783 199.869416 
L 143.283988 199.270685 
L 143.887202 198.662588 
L 144.490407 198.053066 
L 145.093611 197.437307 
L 145.696816 196.816999 
L 146.30003 196.192947 
L 146.903235 195.566877 
L 147.50644 194.932874 
L 148.109654 194.293635 
L 148.712858 193.650693 
L 149.316063 193.005903 
L 149.919268 192.357438 
L 150.522482 191.706377 
L 151.125687 191.047905 
L 151.728891 190.39048 
L 152.332106 189.721656 
L 152.93531 189.053437 
L 153.538515 188.386073 
L 154.141719 187.713116 
L 154.744934 187.035542 
L 155.348138 186.358904 
L 155.951343 185.678292 
L 156.554548 184.993091 
L 157.157762 184.304498 
L 157.760966 183.621363 
L 158.364171 182.929655 
L 158.967385 182.233507 
L 159.57059 181.539496 
L 160.173795 180.842671 
L 160.776999 180.146011 
L 161.380213 179.450481 
L 161.983418 178.75158 
L 162.586623 178.055752 
L 163.189827 177.357822 
L 163.793042 176.663956 
L 164.396246 175.968989 
L 164.999451 175.274691 
L 165.602665 174.587005 
L 166.20587 173.897085 
L 166.809074 173.210747 
L 167.412279 172.523295 
L 168.015493 171.843819 
L 168.618698 171.168737 
L 169.221902 170.502922 
L 169.825117 169.841256 
L 170.428321 169.17835 
L 171.031526 168.523978 
L 171.634731 167.874421 
L 172.237945 167.238209 
L 172.841149 166.599331 
L 173.444354 165.969199 
L 174.047559 165.347178 
L 174.650773 164.730015 
L 175.253978 164.123319 
L 175.857182 163.525082 
L 176.460396 162.929811 
L 177.063601 162.341888 
L 177.666806 161.765685 
L 178.27001 161.195835 
L 178.873225 160.628526 
L 179.476429 160.074918 
L 180.079634 159.532673 
L 180.682839 158.994396 
L 181.286053 158.468574 
L 181.889257 157.949419 
L 182.492462 157.443966 
L 183.095676 156.946648 
L 183.698881 156.455107 
L 184.302086 155.981326 
L 184.905295 155.514665 
L 185.5085 155.064294 
L 186.111709 154.624509 
L 186.714914 154.194668 
L 187.318123 153.777201 
L 187.921333 153.370547 
L 188.524537 152.978432 
L 189.127747 152.60341 
L 189.730951 152.244038 
L 190.334161 151.895319 
L 190.937365 151.563436 
L 191.540575 151.246323 
L 192.143779 150.946651 
L 192.746989 150.660647 
L 193.350198 150.393368 
L 193.953403 150.14627 
L 194.556612 149.915285 
L 195.159817 149.705298 
L 195.763026 149.517446 
L 196.366231 149.34509 
L 196.96944 149.193276 
L 197.572645 149.059867 
L 198.175855 148.945513 
L 198.779064 148.860412 
L 199.382269 148.796072 
L 199.985478 148.74899 
L 200.588683 148.723979 
L 201.191892 148.722727 
L 201.795097 148.740234 
L 202.398306 148.779163 
L 203.001511 148.843741 
L 203.60472 148.93295 
L 204.207925 149.041793 
L 204.811134 149.171 
L 205.414344 149.318918 
L 206.017548 149.497055 
L 206.620758 149.690841 
L 207.223962 149.898437 
L 207.827172 150.126529 
L 208.430376 150.375455 
L 209.033586 150.645682 
L 209.636791 150.936803 
L 210.24 151.249871 
L 210.843209 151.576575 
L 211.446414 151.921922 
L 212.049624 152.283948 
L 212.652828 152.66291 
L 213.256038 153.059762 
L 213.859242 153.470434 
L 214.462452 153.895579 
L 215.065656 154.33802 
L 215.668866 154.797512 
L 216.272075 155.269867 
L 216.87528 155.753126 
L 217.478489 156.250707 
L 218.081694 156.755557 
L 218.684903 157.274331 
L 219.288108 157.799347 
L 219.891317 158.342556 
L 220.494522 158.892525 
L 221.097731 159.449239 
L 221.700936 160.013373 
L 222.304145 160.58693 
L 222.907355 161.170493 
L 223.51056 161.76245 
L 224.113769 162.36325 
L 224.716974 162.970142 
L 225.320183 163.578071 
L 225.92339 164.195666 
L 226.526597 164.822488 
L 227.129804 165.448532 
L 227.733011 166.083718 
L 228.336218 166.72401 
L 228.939425 167.362802 
L 229.542632 168.008869 
L 230.145839 168.657812 
L 230.749049 169.311941 
L 231.352256 169.967595 
L 231.955463 170.629525 
L 232.55867 171.288993 
L 233.161877 171.951886 
L 233.765084 172.618699 
L 234.368291 173.28899 
L 234.971498 173.963001 
L 235.574705 174.634801 
L 236.177912 175.308166 
L 236.781122 175.981422 
L 237.384329 176.658343 
L 237.987536 177.340655 
L 238.590743 178.018683 
L 239.19395 178.69944 
L 239.797157 179.377687 
L 240.400364 180.058912 
L 241.003571 180.739376 
L 241.606778 181.421268 
L 242.209987 182.105265 
L 242.813194 182.787178 
L 243.416401 183.468912 
L 244.019608 184.154782 
L 244.622815 184.836765 
L 245.226022 185.517791 
L 245.829229 186.196323 
L 246.432436 186.879572 
L 247.035645 187.558235 
L 247.638852 188.233542 
L 248.242059 188.907904 
L 248.845266 189.576195 
L 249.448474 190.245984 
L 250.051681 190.910527 
L 250.654888 191.574183 
L 251.258095 192.235885 
L 251.861302 192.89145 
L 252.46451 193.543895 
L 253.067717 194.192196 
L 253.670924 194.837968 
L 254.274132 195.480707 
L 254.877339 196.117848 
L 255.480546 196.752085 
L 256.083754 197.380888 
L 256.686961 198.005354 
L 257.290168 198.620167 
L 257.893376 199.232599 
L 258.496583 199.839854 
L 259.09979 200.441992 
L 259.702997 201.036131 
L 260.306205 201.627537 
L 260.909412 202.213877 
L 261.512619 202.79005 
L 262.115827 203.358401 
L 262.719034 203.924613 
L 263.322241 204.480884 
L 263.925448 205.032968 
L 264.528656 205.575658 
L 265.131863 206.113979 
L 265.73507 206.645832 
L 266.338277 207.166503 
L 266.941485 207.682373 
L 267.544692 208.188791 
L 268.147899 208.689454 
L 268.751107 209.183077 
L 269.354314 209.672064 
L 269.957521 210.152696 
L 270.560729 210.621985 
L 271.163936 211.084171 
L 271.767143 211.539417 
L 272.37035 211.984188 
L 272.973557 212.425051 
L 273.576765 212.852405 
L 274.179972 213.274402 
L 274.78318 213.691925 
L 275.386386 214.099646 
L 275.989594 214.49647 
L 276.592801 214.882926 
L 277.196008 215.260939 
L 277.799215 215.628032 
L 278.402424 215.987308 
L 279.005631 216.342616 
L 279.608838 216.68532 
L 280.212045 217.020831 
L 280.815252 217.345732 
L 281.41846 217.664562 
L 282.021667 217.973748 
L 282.624874 218.276416 
L 283.228081 218.568999 
L 283.831288 218.853916 
L 284.434496 219.132706 
L 285.037703 219.402279 
L 285.64091 219.668045 
L 286.244118 219.925577 
L 286.847325 220.177691 
L 287.450532 220.421414 
L 288.053739 220.657833 
L 288.656948 220.886948 
L 289.260155 221.113805 
L 289.863362 221.334581 
L 290.466569 221.545702 
L 291.069776 221.753216 
L 291.672983 221.955697 
L 292.27619 222.15497 
L 292.879397 222.348436 
L 293.482604 222.540258 
L 294.085811 222.724652 
L 294.689021 222.905405 
L 295.292228 223.081162 
L 295.895435 223.25307 
L 296.498642 223.422626 
L 297.101849 223.588591 
L 297.705056 223.748504 
L 298.308263 223.90521 
L 298.91147 224.057332 
L 299.514677 224.207314 
L 300.117884 224.356693 
L 300.721094 224.500146 
L 301.324301 224.640296 
L 301.927508 224.776902 
L 302.530715 224.909768 
L 303.133922 225.039826 
L 303.737129 225.165955 
L 304.340336 225.287481 
L 304.943543 225.407406 
L 305.54675 225.523344 
L 306.149959 225.638487 
L 306.753164 225.750061 
L 307.356373 225.858462 
L 307.959578 225.966225 
L 308.562787 226.069472 
L 309.165997 226.169311 
L 309.769201 226.265591 
L 310.372411 226.358969 
L 310.975616 226.450872 
L 311.578825 226.537803 
L 312.18203 226.624523 
L 312.785239 226.707493 
L 313.388444 226.788842 
L 313.991653 226.866271 
L 314.594858 226.940852 
L 315.198067 227.0146 
L 315.801277 227.085115 
L 316.404481 227.153107 
L 317.007691 227.218916 
L 317.610895 227.283656 
L 318.214105 227.346084 
L 318.817309 227.405653 
L 319.420519 227.463043 
L 320.023723 227.518065 
L 320.626933 227.5708 
L 321.230142 227.622695 
L 321.833347 227.671694 
L 322.436556 227.719351 
L 323.039761 227.764526 
L 323.64297 227.807631 
L 324.246175 227.84875 
L 324.849385 227.890707 
L 325.452589 227.928497 
L 326.055799 227.965015 
L 326.659008 227.999711 
L 327.262213 228.032675 
L 327.865422 228.065039 
L 328.468627 228.095345 
L 329.071836 228.124328 
L 329.675041 228.152306 
L 330.27825 228.178185 
L 330.881455 228.203238 
L 331.484664 228.227726 
L 332.087874 228.250784 
L 332.691078 228.272503 
L 333.294288 228.293242 
L 333.897492 228.312215 
L 334.500702 228.330682 
L 335.103907 228.348619 
L 335.707116 228.36601 
L 336.310321 228.382845 
L 336.91353 228.39775 
L 337.516735 228.412306 
L 338.119944 228.427312 
L 338.723154 228.440432 
L 339.326358 228.453254 
L 339.929568 228.46658 
L 340.532772 228.477803 
L 341.135982 228.488558 
L 341.739186 228.498589 
L 342.342396 228.508231 
L 342.9456 228.517499 
L 343.54881 228.527231 
L 344.152019 228.535945 
L 344.755224 228.544582 
L 345.358433 228.553943 
L 345.961638 228.561417 
L 346.564843 228.569183 
L 347.168057 228.576074 
L 347.771261 228.582749 
L 348.374466 228.58922 
L 348.977671 228.5955 
L 349.580885 228.601874 
L 350.18409 228.607489 
L 350.787294 228.612995 
L 351.390508 228.618393 
L 351.993713 228.623689 
L 352.596918 228.629159 
L 353.200122 228.634215 
L 353.803337 228.639458 
L 354.406541 228.644572 
L 355.009746 228.649292 
L 355.61296 228.65394 
L 356.216165 228.659064 
L 356.819369 228.663482 
L 357.422574 228.667839 
L 358.025788 228.672131 
L 358.628993 228.676357 
L 359.232197 228.680515 
L 359.835402 228.6846 
L 360.438616 228.688886 
L 361.041821 228.692779 
L 361.645035 228.696874 
L 362.248249 228.701124 
L 362.851464 228.704943 
L 363.454678 228.708379 
L 364.057892 228.711752 
L 364.661106 228.715054 
L 365.264321 228.718556 
L 365.867535 228.721937 
L 366.470749 228.725199 
L 367.073963 228.728068 
L 367.677178 228.730863 
L 368.280392 228.733579 
L 368.883606 228.736212 
L 369.48682 228.738758 
L 370.090035 228.741214 
L 370.693249 228.743579 
L 371.296463 228.745849 
L 371.899677 228.748023 
L 372.502891 228.750102 
L 373.106106 228.752083 
L 373.70932 228.753968 
L 374.312534 228.755756 
L 374.915748 228.757449 
L 375.518963 228.759048 
L 376.122177 228.760554 
L 376.725391 228.761969 
L 377.328605 228.763295 
L 377.93182 228.764809 
L 378.535034 228.765923 
L 379.138248 228.767511 
L 379.741462 228.768393 
L 380.344677 228.769217 
L 380.947891 228.769985 
L 381.551105 228.770696 
L 382.154319 228.771355 
L 382.757533 228.771961 
L 383.360748 228.772519 
L 383.963962 228.773029 
L 384.567176 228.773495 
L 385.17039 228.773919 
L 385.773605 228.774303 
L 386.376819 228.774925 
L 386.980033 228.775196 
L 387.583247 228.775441 
L 388.186462 228.775662 
L 388.789676 228.775861 
L 389.39289 228.776038 
L 389.996104 228.776197 
L 390.599319 228.776337 
L 391.202533 228.776462 
L 391.805747 228.776572 
L 392.408961 228.776669 
L 393.012175 228.776754 
L 393.61539 228.776829 
L 394.218604 228.776894 
L 394.821818 228.77695 
z
" style="fill:#1f77b4;opacity:0.4;stroke:#ffffff;stroke-linejoin:miter;"/>
   </g>
   <g id="patch_13">
    <path clip-path="url(#p1138cbb659)" d="M 134.839094 228.777273 
L 134.839094 207.159028 
L 135.442299 206.640556 
L 136.045504 206.1124 
L 136.648708 205.576341 
L 137.251922 205.03492 
L 137.855127 204.486671 
L 138.458332 203.928035 
L 139.061536 203.364392 
L 139.664751 202.795599 
L 140.267955 202.22267 
L 140.87116 201.643155 
L 141.474374 201.058912 
L 142.077579 200.467938 
L 142.680783 199.869416 
L 143.283988 199.270685 
L 143.887202 198.662588 
L 144.490407 198.053066 
L 145.093611 197.437307 
L 145.696816 196.816999 
L 146.30003 196.192947 
L 146.903235 195.566877 
L 147.50644 194.932874 
L 148.109654 194.293635 
L 148.712858 193.650693 
L 149.316063 193.005903 
L 149.919268 192.357438 
L 150.522482 191.706377 
L 151.125687 191.047905 
L 151.728891 190.39048 
L 152.332106 189.721656 
L 152.93531 189.053437 
L 153.538515 188.386073 
L 154.141719 187.713116 
L 154.744934 187.035542 
L 155.348138 186.358904 
L 155.951343 185.678292 
L 156.554548 184.993091 
L 157.157762 184.304498 
L 157.760966 183.621363 
L 158.364171 182.929655 
L 158.967385 182.233507 
L 159.57059 181.539496 
L 160.173795 180.842671 
L 160.776999 180.146011 
L 161.380213 179.450481 
L 161.983418 178.75158 
L 162.586623 178.055752 
L 163.189827 177.357822 
L 163.793042 176.663956 
L 164.396246 175.968989 
L 164.999451 175.274691 
L 165.602665 174.587005 
L 166.20587 173.897085 
L 166.809074 173.210747 
L 167.412279 172.523295 
L 168.015493 171.843819 
L 168.618698 171.168737 
L 169.221902 170.502922 
L 169.825117 169.841256 
L 170.428321 169.17835 
L 171.031526 168.523978 
L 171.634731 167.874421 
L 172.237945 167.238209 
L 172.841149 166.599331 
L 173.444354 165.969199 
L 174.047559 165.347178 
L 174.650773 164.730015 
L 175.253978 164.123319 
L 175.857182 163.525082 
L 176.460396 162.929811 
L 177.063601 162.341888 
L 177.666806 161.765685 
L 178.27001 161.195835 
L 178.873225 160.628526 
L 179.476429 160.074918 
L 180.079634 159.532673 
L 180.682839 158.994396 
L 181.286053 158.468574 
L 181.889257 157.949419 
L 182.492462 157.443966 
L 183.095676 156.946648 
L 183.698881 156.455107 
L 184.302086 155.981326 
L 184.905295 155.514665 
L 185.5085 155.064294 
L 186.111709 154.624509 
L 186.714914 154.194668 
L 187.318123 153.777201 
L 187.921333 153.370547 
L 188.524537 152.978432 
L 189.127747 152.60341 
L 189.730951 152.244038 
L 190.334161 151.895319 
L 190.937365 151.563436 
L 191.540575 151.246323 
L 192.143779 150.946651 
L 192.746989 150.660647 
L 193.350198 150.393368 
L 193.953403 150.14627 
L 194.556612 149.915285 
L 195.159817 149.705298 
L 195.763026 149.517446 
L 196.366231 149.34509 
L 196.96944 149.193276 
L 197.572645 149.059867 
L 198.175855 148.945513 
L 198.779064 148.860412 
L 199.382269 148.796072 
L 199.985478 148.74899 
L 200.588683 148.723979 
L 201.191892 148.722727 
L 201.795097 148.740234 
L 202.398306 148.779163 
L 203.001511 148.843741 
L 203.60472 148.93295 
L 204.207925 149.041793 
L 204.811134 149.171 
L 205.414344 149.318918 
L 206.017548 149.497055 
L 206.620758 149.690841 
L 207.223962 149.898437 
L 207.827172 150.126529 
L 208.430376 150.375455 
L 209.033586 150.645682 
L 209.636791 150.936803 
L 210.24 151.249871 
L 210.843209 151.576575 
L 211.446414 151.921922 
L 212.049624 152.283948 
L 212.652828 152.66291 
L 213.256038 153.059762 
L 213.859242 153.470434 
L 214.462452 153.895579 
L 215.065656 154.33802 
L 215.668866 154.797512 
L 216.272075 155.269867 
L 216.87528 155.753126 
L 217.478489 156.250707 
L 218.081694 156.755557 
L 218.684903 157.274331 
L 219.288108 157.799347 
L 219.891317 158.342556 
L 220.494522 158.892525 
L 221.097731 159.449239 
L 221.700936 160.013373 
L 222.304145 160.58693 
L 222.907355 161.170493 
L 223.51056 161.76245 
L 224.113769 162.36325 
L 224.716974 162.970142 
L 225.320183 163.578071 
L 225.92339 164.195666 
L 226.526597 164.822488 
L 227.129804 165.448532 
L 227.733011 166.083718 
L 228.336218 166.72401 
L 228.939425 167.362802 
L 229.542632 168.008869 
L 230.145839 168.657812 
L 230.749049 169.311941 
L 231.352256 169.967595 
L 231.955463 170.629525 
L 232.55867 171.288993 
L 233.161877 171.951886 
L 233.765084 172.618699 
L 234.368291 173.28899 
L 234.971498 173.963001 
L 235.574705 174.634801 
L 236.177912 175.308166 
L 236.781122 175.981422 
L 237.384329 176.658343 
L 237.987536 177.340655 
L 238.590743 178.018683 
L 239.19395 178.69944 
L 239.797157 179.377687 
L 240.400364 180.058912 
L 241.003571 180.739376 
L 241.606778 181.421268 
L 242.209987 182.105265 
L 242.813194 182.787178 
L 243.416401 183.468912 
L 244.019608 184.154782 
L 244.622815 184.836765 
L 245.226022 185.517791 
L 245.829229 186.196323 
L 246.432436 186.879572 
L 247.035645 187.558235 
L 247.638852 188.233542 
L 248.242059 188.907904 
L 248.845266 189.576195 
L 249.448474 190.245984 
L 250.051681 190.910527 
L 250.654888 191.574183 
L 251.258095 192.235885 
L 251.861302 192.89145 
L 252.46451 193.543895 
L 253.067717 194.192196 
L 253.670924 194.837968 
L 254.274132 195.480707 
L 254.877339 196.117848 
L 255.480546 196.752085 
L 256.083754 197.380888 
L 256.686961 198.005354 
L 257.290168 198.620167 
L 257.893376 199.232599 
L 258.496583 199.839854 
L 259.09979 200.441992 
L 259.702997 201.036131 
L 260.306205 201.627537 
L 260.909412 202.213877 
L 261.512619 202.79005 
L 262.115827 203.358401 
L 262.719034 203.924613 
L 263.322241 204.480884 
L 263.925448 205.032968 
L 264.528656 205.575658 
L 265.131863 206.113979 
L 265.131863 228.777273 
z
" style="fill:#1f77b4;opacity:0.4;stroke:#ffffff;stroke-linejoin:miter;"/>
   </g>
   <g id="line2d_15">
    <path clip-path="url(#p1138cbb659)" d="M 13.357082 232.78 
L 13.357082 144.72 
" style="fill:none;stroke:#4c72b0;stroke-linecap:round;stroke-width:1.5;"/>
   </g>
   <g id="patch_14">
    <path d="M 7.2 232.78 
L 413.28 232.78 
" style="fill:none;stroke:#ffffff;stroke-linecap:square;stroke-linejoin:miter;stroke-width:1.25;"/>
   </g>
  </g>
 </g>
 <defs>
  <clipPath id="p98cb30cb78">
   <rect height="88.06" width="406.08" x="7.2" y="7.2"/>
  </clipPath>
  <clipPath id="p1138cbb659">
   <rect height="88.06" width="406.08" x="7.2" y="144.72"/>
  </clipPath>
 </defs>
</svg>
