<?xml version="1.0" encoding="utf-8" standalone="no"?>
<!DOCTYPE svg PUBLIC "-//W3C//DTD SVG 1.1//EN"
  "http://www.w3.org/Graphics/SVG/1.1/DTD/svg11.dtd">
<!-- Created with matplotlib (https://matplotlib.org/) -->
<svg height="267.599688pt" version="1.1" viewBox="0 0 400.16375 267.599688" width="400.16375pt" xmlns="http://www.w3.org/2000/svg" xmlns:xlink="http://www.w3.org/1999/xlink">
 <defs>
  <style type="text/css">
*{stroke-linecap:butt;stroke-linejoin:round;}
  </style>
 </defs>
 <g id="figure_1">
  <g id="patch_1">
   <path d="M 0 267.599688 
L 400.16375 267.599688 
L 400.16375 0 
L 0 0 
z
" style="fill:#ffffff;"/>
  </g>
  <g id="axes_1">
   <g id="patch_2">
    <path d="M 58.16375 224.64 
L 392.96375 224.64 
L 392.96375 7.2 
L 58.16375 7.2 
z
" style="fill:#eaeaf2;"/>
   </g>
   <g id="matplotlib.axis_1">
    <g id="xtick_1">
     <g id="line2d_1">
      <path clip-path="url(#p45ad3fb071)" d="M 131.503259 224.64 
L 131.503259 7.2 
" style="fill:none;stroke:#ffffff;stroke-linecap:round;"/>
     </g>
     <g id="text_1">
      <!-- $\mathdefault{10^{-1}}$ -->
      <defs>
       <path d="M 12.40625 8.296875 
L 28.515625 8.296875 
L 28.515625 63.921875 
L 10.984375 60.40625 
L 10.984375 69.390625 
L 28.421875 72.90625 
L 38.28125 72.90625 
L 38.28125 8.296875 
L 54.390625 8.296875 
L 54.390625 0 
L 12.40625 0 
z
" id="DejaVuSans-49"/>
       <path d="M 31.78125 66.40625 
Q 24.171875 66.40625 20.328125 58.90625 
Q 16.5 51.421875 16.5 36.375 
Q 16.5 21.390625 20.328125 13.890625 
Q 24.171875 6.390625 31.78125 6.390625 
Q 39.453125 6.390625 43.28125 13.890625 
Q 47.125 21.390625 47.125 36.375 
Q 47.125 51.421875 43.28125 58.90625 
Q 39.453125 66.40625 31.78125 66.40625 
z
M 31.78125 74.21875 
Q 44.046875 74.21875 50.515625 64.515625 
Q 56.984375 54.828125 56.984375 36.375 
Q 56.984375 17.96875 50.515625 8.265625 
Q 44.046875 -1.421875 31.78125 -1.421875 
Q 19.53125 -1.421875 13.0625 8.265625 
Q 6.59375 17.96875 6.59375 36.375 
Q 6.59375 54.828125 13.0625 64.515625 
Q 19.53125 74.21875 31.78125 74.21875 
z
" id="DejaVuSans-48"/>
       <path d="M 10.59375 35.5 
L 73.1875 35.5 
L 73.1875 27.203125 
L 10.59375 27.203125 
z
" id="DejaVuSans-8722"/>
      </defs>
      <g style="fill:#262626;" transform="translate(118.578259 242.498281)scale(0.11 -0.11)">
       <use transform="translate(0 0.684375)" xlink:href="#DejaVuSans-49"/>
       <use transform="translate(63.623047 0.684375)" xlink:href="#DejaVuSans-48"/>
       <use transform="translate(128.203125 38.965625)scale(0.7)" xlink:href="#DejaVuSans-8722"/>
       <use transform="translate(186.855469 38.965625)scale(0.7)" xlink:href="#DejaVuSans-49"/>
      </g>
     </g>
    </g>
    <g id="xtick_2">
     <g id="line2d_2">
      <path clip-path="url(#p45ad3fb071)" d="M 208.436129 224.64 
L 208.436129 7.2 
" style="fill:none;stroke:#ffffff;stroke-linecap:round;"/>
     </g>
     <g id="text_2">
      <!-- $\mathdefault{10^{0}}$ -->
      <g style="fill:#262626;" transform="translate(198.756129 242.498281)scale(0.11 -0.11)">
       <use transform="translate(0 0.765625)" xlink:href="#DejaVuSans-49"/>
       <use transform="translate(63.623047 0.765625)" xlink:href="#DejaVuSans-48"/>
       <use transform="translate(128.203125 39.046875)scale(0.7)" xlink:href="#DejaVuSans-48"/>
      </g>
     </g>
    </g>
    <g id="xtick_3">
     <g id="line2d_3">
      <path clip-path="url(#p45ad3fb071)" d="M 285.368999 224.64 
L 285.368999 7.2 
" style="fill:none;stroke:#ffffff;stroke-linecap:round;"/>
     </g>
     <g id="text_3">
      <!-- $\mathdefault{10^{1}}$ -->
      <g style="fill:#262626;" transform="translate(275.688999 242.498281)scale(0.11 -0.11)">
       <use transform="translate(0 0.684375)" xlink:href="#DejaVuSans-49"/>
       <use transform="translate(63.623047 0.684375)" xlink:href="#DejaVuSans-48"/>
       <use transform="translate(128.203125 38.965625)scale(0.7)" xlink:href="#DejaVuSans-49"/>
      </g>
     </g>
    </g>
    <g id="xtick_4">
     <g id="line2d_4">
      <path clip-path="url(#p45ad3fb071)" d="M 362.301869 224.64 
L 362.301869 7.2 
" style="fill:none;stroke:#ffffff;stroke-linecap:round;"/>
     </g>
     <g id="text_4">
      <!-- $\mathdefault{10^{2}}$ -->
      <defs>
       <path d="M 19.1875 8.296875 
L 53.609375 8.296875 
L 53.609375 0 
L 7.328125 0 
L 7.328125 8.296875 
Q 12.9375 14.109375 22.625 23.890625 
Q 32.328125 33.6875 34.8125 36.53125 
Q 39.546875 41.84375 41.421875 45.53125 
Q 43.3125 49.21875 43.3125 52.78125 
Q 43.3125 58.59375 39.234375 62.25 
Q 35.15625 65.921875 28.609375 65.921875 
Q 23.96875 65.921875 18.8125 64.3125 
Q 13.671875 62.703125 7.8125 59.421875 
L 7.8125 69.390625 
Q 13.765625 71.78125 18.9375 73 
Q 24.125 74.21875 28.421875 74.21875 
Q 39.75 74.21875 46.484375 68.546875 
Q 53.21875 62.890625 53.21875 53.421875 
Q 53.21875 48.921875 51.53125 44.890625 
Q 49.859375 40.875 45.40625 35.40625 
Q 44.1875 33.984375 37.640625 27.21875 
Q 31.109375 20.453125 19.1875 8.296875 
z
" id="DejaVuSans-50"/>
      </defs>
      <g style="fill:#262626;" transform="translate(352.621869 242.498281)scale(0.11 -0.11)">
       <use transform="translate(0 0.765625)" xlink:href="#DejaVuSans-49"/>
       <use transform="translate(63.623047 0.765625)" xlink:href="#DejaVuSans-48"/>
       <use transform="translate(128.203125 39.046875)scale(0.7)" xlink:href="#DejaVuSans-50"/>
      </g>
     </g>
    </g>
    <g id="xtick_5"/>
    <g id="xtick_6"/>
    <g id="xtick_7"/>
    <g id="xtick_8"/>
    <g id="xtick_9"/>
    <g id="xtick_10"/>
    <g id="xtick_11"/>
    <g id="xtick_12"/>
    <g id="xtick_13"/>
    <g id="xtick_14"/>
    <g id="xtick_15"/>
    <g id="xtick_16"/>
    <g id="xtick_17"/>
    <g id="xtick_18"/>
    <g id="xtick_19"/>
    <g id="xtick_20"/>
    <g id="xtick_21"/>
    <g id="xtick_22"/>
    <g id="xtick_23"/>
    <g id="xtick_24"/>
    <g id="xtick_25"/>
    <g id="xtick_26"/>
    <g id="xtick_27"/>
    <g id="xtick_28"/>
    <g id="xtick_29"/>
    <g id="xtick_30"/>
    <g id="xtick_31"/>
    <g id="xtick_32"/>
    <g id="xtick_33"/>
    <g id="xtick_34"/>
    <g id="xtick_35"/>
    <g id="xtick_36"/>
    <g id="xtick_37"/>
    <g id="text_5">
     <!-- True time to event -->
     <defs>
      <path d="M -0.296875 72.90625 
L 61.375 72.90625 
L 61.375 64.59375 
L 35.5 64.59375 
L 35.5 0 
L 25.59375 0 
L 25.59375 64.59375 
L -0.296875 64.59375 
z
" id="DejaVuSans-84"/>
      <path d="M 41.109375 46.296875 
Q 39.59375 47.171875 37.8125 47.578125 
Q 36.03125 48 33.890625 48 
Q 26.265625 48 22.1875 43.046875 
Q 18.109375 38.09375 18.109375 28.8125 
L 18.109375 0 
L 9.078125 0 
L 9.078125 54.6875 
L 18.109375 54.6875 
L 18.109375 46.1875 
Q 20.953125 51.171875 25.484375 53.578125 
Q 30.03125 56 36.53125 56 
Q 37.453125 56 38.578125 55.875 
Q 39.703125 55.765625 41.0625 55.515625 
z
" id="DejaVuSans-114"/>
      <path d="M 8.5 21.578125 
L 8.5 54.6875 
L 17.484375 54.6875 
L 17.484375 21.921875 
Q 17.484375 14.15625 20.5 10.265625 
Q 23.53125 6.390625 29.59375 6.390625 
Q 36.859375 6.390625 41.078125 11.03125 
Q 45.3125 15.671875 45.3125 23.6875 
L 45.3125 54.6875 
L 54.296875 54.6875 
L 54.296875 0 
L 45.3125 0 
L 45.3125 8.40625 
Q 42.046875 3.421875 37.71875 1 
Q 33.40625 -1.421875 27.6875 -1.421875 
Q 18.265625 -1.421875 13.375 4.4375 
Q 8.5 10.296875 8.5 21.578125 
z
M 31.109375 56 
z
" id="DejaVuSans-117"/>
      <path d="M 56.203125 29.59375 
L 56.203125 25.203125 
L 14.890625 25.203125 
Q 15.484375 15.921875 20.484375 11.0625 
Q 25.484375 6.203125 34.421875 6.203125 
Q 39.59375 6.203125 44.453125 7.46875 
Q 49.3125 8.734375 54.109375 11.28125 
L 54.109375 2.78125 
Q 49.265625 0.734375 44.1875 -0.34375 
Q 39.109375 -1.421875 33.890625 -1.421875 
Q 20.796875 -1.421875 13.15625 6.1875 
Q 5.515625 13.8125 5.515625 26.8125 
Q 5.515625 40.234375 12.765625 48.109375 
Q 20.015625 56 32.328125 56 
Q 43.359375 56 49.78125 48.890625 
Q 56.203125 41.796875 56.203125 29.59375 
z
M 47.21875 32.234375 
Q 47.125 39.59375 43.09375 43.984375 
Q 39.0625 48.390625 32.421875 48.390625 
Q 24.90625 48.390625 20.390625 44.140625 
Q 15.875 39.890625 15.1875 32.171875 
z
" id="DejaVuSans-101"/>
      <path id="DejaVuSans-32"/>
      <path d="M 18.3125 70.21875 
L 18.3125 54.6875 
L 36.8125 54.6875 
L 36.8125 47.703125 
L 18.3125 47.703125 
L 18.3125 18.015625 
Q 18.3125 11.328125 20.140625 9.421875 
Q 21.96875 7.515625 27.59375 7.515625 
L 36.8125 7.515625 
L 36.8125 0 
L 27.59375 0 
Q 17.1875 0 13.234375 3.875 
Q 9.28125 7.765625 9.28125 18.015625 
L 9.28125 47.703125 
L 2.6875 47.703125 
L 2.6875 54.6875 
L 9.28125 54.6875 
L 9.28125 70.21875 
z
" id="DejaVuSans-116"/>
      <path d="M 9.421875 54.6875 
L 18.40625 54.6875 
L 18.40625 0 
L 9.421875 0 
z
M 9.421875 75.984375 
L 18.40625 75.984375 
L 18.40625 64.59375 
L 9.421875 64.59375 
z
" id="DejaVuSans-105"/>
      <path d="M 52 44.1875 
Q 55.375 50.25 60.0625 53.125 
Q 64.75 56 71.09375 56 
Q 79.640625 56 84.28125 50.015625 
Q 88.921875 44.046875 88.921875 33.015625 
L 88.921875 0 
L 79.890625 0 
L 79.890625 32.71875 
Q 79.890625 40.578125 77.09375 44.375 
Q 74.3125 48.1875 68.609375 48.1875 
Q 61.625 48.1875 57.5625 43.546875 
Q 53.515625 38.921875 53.515625 30.90625 
L 53.515625 0 
L 44.484375 0 
L 44.484375 32.71875 
Q 44.484375 40.625 41.703125 44.40625 
Q 38.921875 48.1875 33.109375 48.1875 
Q 26.21875 48.1875 22.15625 43.53125 
Q 18.109375 38.875 18.109375 30.90625 
L 18.109375 0 
L 9.078125 0 
L 9.078125 54.6875 
L 18.109375 54.6875 
L 18.109375 46.1875 
Q 21.1875 51.21875 25.484375 53.609375 
Q 29.78125 56 35.6875 56 
Q 41.65625 56 45.828125 52.96875 
Q 50 49.953125 52 44.1875 
z
" id="DejaVuSans-109"/>
      <path d="M 30.609375 48.390625 
Q 23.390625 48.390625 19.1875 42.75 
Q 14.984375 37.109375 14.984375 27.296875 
Q 14.984375 17.484375 19.15625 11.84375 
Q 23.34375 6.203125 30.609375 6.203125 
Q 37.796875 6.203125 41.984375 11.859375 
Q 46.1875 17.53125 46.1875 27.296875 
Q 46.1875 37.015625 41.984375 42.703125 
Q 37.796875 48.390625 30.609375 48.390625 
z
M 30.609375 56 
Q 42.328125 56 49.015625 48.375 
Q 55.71875 40.765625 55.71875 27.296875 
Q 55.71875 13.875 49.015625 6.21875 
Q 42.328125 -1.421875 30.609375 -1.421875 
Q 18.84375 -1.421875 12.171875 6.21875 
Q 5.515625 13.875 5.515625 27.296875 
Q 5.515625 40.765625 12.171875 48.375 
Q 18.84375 56 30.609375 56 
z
" id="DejaVuSans-111"/>
      <path d="M 2.984375 54.6875 
L 12.5 54.6875 
L 29.59375 8.796875 
L 46.6875 54.6875 
L 56.203125 54.6875 
L 35.6875 0 
L 23.484375 0 
z
" id="DejaVuSans-118"/>
      <path d="M 54.890625 33.015625 
L 54.890625 0 
L 45.90625 0 
L 45.90625 32.71875 
Q 45.90625 40.484375 42.875 44.328125 
Q 39.84375 48.1875 33.796875 48.1875 
Q 26.515625 48.1875 22.3125 43.546875 
Q 18.109375 38.921875 18.109375 30.90625 
L 18.109375 0 
L 9.078125 0 
L 9.078125 54.6875 
L 18.109375 54.6875 
L 18.109375 46.1875 
Q 21.34375 51.125 25.703125 53.5625 
Q 30.078125 56 35.796875 56 
Q 45.21875 56 50.046875 50.171875 
Q 54.890625 44.34375 54.890625 33.015625 
z
" id="DejaVuSans-110"/>
     </defs>
     <g style="fill:#262626;" transform="translate(169.562188 257.904063)scale(0.12 -0.12)">
      <use xlink:href="#DejaVuSans-84"/>
      <use x="60.865234" xlink:href="#DejaVuSans-114"/>
      <use x="101.978516" xlink:href="#DejaVuSans-117"/>
      <use x="165.357422" xlink:href="#DejaVuSans-101"/>
      <use x="226.880859" xlink:href="#DejaVuSans-32"/>
      <use x="258.667969" xlink:href="#DejaVuSans-116"/>
      <use x="297.876953" xlink:href="#DejaVuSans-105"/>
      <use x="325.660156" xlink:href="#DejaVuSans-109"/>
      <use x="423.072266" xlink:href="#DejaVuSans-101"/>
      <use x="484.595703" xlink:href="#DejaVuSans-32"/>
      <use x="516.382812" xlink:href="#DejaVuSans-116"/>
      <use x="555.591797" xlink:href="#DejaVuSans-111"/>
      <use x="616.773438" xlink:href="#DejaVuSans-32"/>
      <use x="648.560547" xlink:href="#DejaVuSans-101"/>
      <use x="710.083984" xlink:href="#DejaVuSans-118"/>
      <use x="769.263672" xlink:href="#DejaVuSans-101"/>
      <use x="830.787109" xlink:href="#DejaVuSans-110"/>
      <use x="894.166016" xlink:href="#DejaVuSans-116"/>
     </g>
    </g>
   </g>
   <g id="matplotlib.axis_2">
    <g id="ytick_1">
     <g id="line2d_5">
      <path clip-path="url(#p45ad3fb071)" d="M 58.16375 214.756364 
L 392.96375 214.756364 
" style="fill:none;stroke:#ffffff;stroke-linecap:round;"/>
     </g>
     <g id="text_6">
      <!-- $\mathdefault{10^{-1}}$ -->
      <g style="fill:#262626;" transform="translate(22.81375 218.935504)scale(0.11 -0.11)">
       <use transform="translate(0 0.684375)" xlink:href="#DejaVuSans-49"/>
       <use transform="translate(63.623047 0.684375)" xlink:href="#DejaVuSans-48"/>
       <use transform="translate(128.203125 38.965625)scale(0.7)" xlink:href="#DejaVuSans-8722"/>
       <use transform="translate(186.855469 38.965625)scale(0.7)" xlink:href="#DejaVuSans-49"/>
      </g>
     </g>
    </g>
    <g id="ytick_2">
     <g id="line2d_6">
      <path clip-path="url(#p45ad3fb071)" d="M 58.16375 160.477471 
L 392.96375 160.477471 
" style="fill:none;stroke:#ffffff;stroke-linecap:round;"/>
     </g>
     <g id="text_7">
      <!-- $\mathdefault{10^{0}}$ -->
      <g style="fill:#262626;" transform="translate(29.30375 164.656612)scale(0.11 -0.11)">
       <use transform="translate(0 0.765625)" xlink:href="#DejaVuSans-49"/>
       <use transform="translate(63.623047 0.765625)" xlink:href="#DejaVuSans-48"/>
       <use transform="translate(128.203125 39.046875)scale(0.7)" xlink:href="#DejaVuSans-48"/>
      </g>
     </g>
    </g>
    <g id="ytick_3">
     <g id="line2d_7">
      <path clip-path="url(#p45ad3fb071)" d="M 58.16375 106.198579 
L 392.96375 106.198579 
" style="fill:none;stroke:#ffffff;stroke-linecap:round;"/>
     </g>
     <g id="text_8">
      <!-- $\mathdefault{10^{1}}$ -->
      <g style="fill:#262626;" transform="translate(29.30375 110.37772)scale(0.11 -0.11)">
       <use transform="translate(0 0.684375)" xlink:href="#DejaVuSans-49"/>
       <use transform="translate(63.623047 0.684375)" xlink:href="#DejaVuSans-48"/>
       <use transform="translate(128.203125 38.965625)scale(0.7)" xlink:href="#DejaVuSans-49"/>
      </g>
     </g>
    </g>
    <g id="ytick_4">
     <g id="line2d_8">
      <path clip-path="url(#p45ad3fb071)" d="M 58.16375 51.919687 
L 392.96375 51.919687 
" style="fill:none;stroke:#ffffff;stroke-linecap:round;"/>
     </g>
     <g id="text_9">
      <!-- $\mathdefault{10^{2}}$ -->
      <g style="fill:#262626;" transform="translate(29.30375 56.098827)scale(0.11 -0.11)">
       <use transform="translate(0 0.765625)" xlink:href="#DejaVuSans-49"/>
       <use transform="translate(63.623047 0.765625)" xlink:href="#DejaVuSans-48"/>
       <use transform="translate(128.203125 39.046875)scale(0.7)" xlink:href="#DejaVuSans-50"/>
      </g>
     </g>
    </g>
    <g id="ytick_5"/>
    <g id="ytick_6"/>
    <g id="ytick_7"/>
    <g id="ytick_8"/>
    <g id="ytick_9"/>
    <g id="ytick_10"/>
    <g id="ytick_11"/>
    <g id="ytick_12"/>
    <g id="ytick_13"/>
    <g id="ytick_14"/>
    <g id="ytick_15"/>
    <g id="ytick_16"/>
    <g id="ytick_17"/>
    <g id="ytick_18"/>
    <g id="ytick_19"/>
    <g id="ytick_20"/>
    <g id="ytick_21"/>
    <g id="ytick_22"/>
    <g id="ytick_23"/>
    <g id="ytick_24"/>
    <g id="ytick_25"/>
    <g id="ytick_26"/>
    <g id="ytick_27"/>
    <g id="ytick_28"/>
    <g id="ytick_29"/>
    <g id="ytick_30"/>
    <g id="ytick_31"/>
    <g id="ytick_32"/>
    <g id="ytick_33"/>
    <g id="ytick_34"/>
    <g id="ytick_35"/>
    <g id="ytick_36"/>
    <g id="text_10">
     <!-- Predicted time to event -->
     <defs>
      <path d="M 19.671875 64.796875 
L 19.671875 37.40625 
L 32.078125 37.40625 
Q 38.96875 37.40625 42.71875 40.96875 
Q 46.484375 44.53125 46.484375 51.125 
Q 46.484375 57.671875 42.71875 61.234375 
Q 38.96875 64.796875 32.078125 64.796875 
z
M 9.8125 72.90625 
L 32.078125 72.90625 
Q 44.34375 72.90625 50.609375 67.359375 
Q 56.890625 61.8125 56.890625 51.125 
Q 56.890625 40.328125 50.609375 34.8125 
Q 44.34375 29.296875 32.078125 29.296875 
L 19.671875 29.296875 
L 19.671875 0 
L 9.8125 0 
z
" id="DejaVuSans-80"/>
      <path d="M 45.40625 46.390625 
L 45.40625 75.984375 
L 54.390625 75.984375 
L 54.390625 0 
L 45.40625 0 
L 45.40625 8.203125 
Q 42.578125 3.328125 38.25 0.953125 
Q 33.9375 -1.421875 27.875 -1.421875 
Q 17.96875 -1.421875 11.734375 6.484375 
Q 5.515625 14.40625 5.515625 27.296875 
Q 5.515625 40.1875 11.734375 48.09375 
Q 17.96875 56 27.875 56 
Q 33.9375 56 38.25 53.625 
Q 42.578125 51.265625 45.40625 46.390625 
z
M 14.796875 27.296875 
Q 14.796875 17.390625 18.875 11.75 
Q 22.953125 6.109375 30.078125 6.109375 
Q 37.203125 6.109375 41.296875 11.75 
Q 45.40625 17.390625 45.40625 27.296875 
Q 45.40625 37.203125 41.296875 42.84375 
Q 37.203125 48.484375 30.078125 48.484375 
Q 22.953125 48.484375 18.875 42.84375 
Q 14.796875 37.203125 14.796875 27.296875 
z
" id="DejaVuSans-100"/>
      <path d="M 48.78125 52.59375 
L 48.78125 44.1875 
Q 44.96875 46.296875 41.140625 47.34375 
Q 37.3125 48.390625 33.40625 48.390625 
Q 24.65625 48.390625 19.8125 42.84375 
Q 14.984375 37.3125 14.984375 27.296875 
Q 14.984375 17.28125 19.8125 11.734375 
Q 24.65625 6.203125 33.40625 6.203125 
Q 37.3125 6.203125 41.140625 7.25 
Q 44.96875 8.296875 48.78125 10.40625 
L 48.78125 2.09375 
Q 45.015625 0.34375 40.984375 -0.53125 
Q 36.96875 -1.421875 32.421875 -1.421875 
Q 20.0625 -1.421875 12.78125 6.34375 
Q 5.515625 14.109375 5.515625 27.296875 
Q 5.515625 40.671875 12.859375 48.328125 
Q 20.21875 56 33.015625 56 
Q 37.15625 56 41.109375 55.140625 
Q 45.0625 54.296875 48.78125 52.59375 
z
" id="DejaVuSans-99"/>
     </defs>
     <g style="fill:#262626;" transform="translate(16.318125 186.710625)rotate(-90)scale(0.12 -0.12)">
      <use xlink:href="#DejaVuSans-80"/>
      <use x="60.287109" xlink:href="#DejaVuSans-114"/>
      <use x="101.369141" xlink:href="#DejaVuSans-101"/>
      <use x="162.892578" xlink:href="#DejaVuSans-100"/>
      <use x="226.369141" xlink:href="#DejaVuSans-105"/>
      <use x="254.152344" xlink:href="#DejaVuSans-99"/>
      <use x="309.132812" xlink:href="#DejaVuSans-116"/>
      <use x="348.341797" xlink:href="#DejaVuSans-101"/>
      <use x="409.865234" xlink:href="#DejaVuSans-100"/>
      <use x="473.341797" xlink:href="#DejaVuSans-32"/>
      <use x="505.128906" xlink:href="#DejaVuSans-116"/>
      <use x="544.337891" xlink:href="#DejaVuSans-105"/>
      <use x="572.121094" xlink:href="#DejaVuSans-109"/>
      <use x="669.533203" xlink:href="#DejaVuSans-101"/>
      <use x="731.056641" xlink:href="#DejaVuSans-32"/>
      <use x="762.84375" xlink:href="#DejaVuSans-116"/>
      <use x="802.052734" xlink:href="#DejaVuSans-111"/>
      <use x="863.234375" xlink:href="#DejaVuSans-32"/>
      <use x="895.021484" xlink:href="#DejaVuSans-101"/>
      <use x="956.544922" xlink:href="#DejaVuSans-118"/>
      <use x="1015.724609" xlink:href="#DejaVuSans-101"/>
      <use x="1077.248047" xlink:href="#DejaVuSans-110"/>
      <use x="1140.626953" xlink:href="#DejaVuSans-116"/>
     </g>
    </g>
   </g>
   <g id="line2d_9">
    <defs>
     <path d="M 0 1.5 
C 0.397805 1.5 0.77937 1.341951 1.06066 1.06066 
C 1.341951 0.77937 1.5 0.397805 1.5 0 
C 1.5 -0.397805 1.341951 -0.77937 1.06066 -1.06066 
C 0.77937 -1.341951 0.397805 -1.5 0 -1.5 
C -0.397805 -1.5 -0.77937 -1.341951 -1.06066 -1.06066 
C -1.341951 -0.77937 -1.5 -0.397805 -1.5 0 
C -1.5 0.397805 -1.341951 0.77937 -1.06066 1.06066 
C -0.77937 1.341951 -0.397805 1.5 0 1.5 
z
" id="m6a4cccb40f" style="stroke:#4c72b0;"/>
    </defs>
    <g clip-path="url(#p45ad3fb071)">
     <use style="fill:#4c72b0;stroke:#4c72b0;" x="138.154787" xlink:href="#m6a4cccb40f" y="136.468046"/>
     <use style="fill:#4c72b0;stroke:#4c72b0;" x="273.587105" xlink:href="#m6a4cccb40f" y="98.652133"/>
     <use style="fill:#4c72b0;stroke:#4c72b0;" x="240.728708" xlink:href="#m6a4cccb40f" y="152.605571"/>
     <use style="fill:#4c72b0;stroke:#4c72b0;" x="222.638789" xlink:href="#m6a4cccb40f" y="143.293276"/>
     <use style="fill:#4c72b0;stroke:#4c72b0;" x="210.671905" xlink:href="#m6a4cccb40f" y="139.980184"/>
     <use style="fill:#4c72b0;stroke:#4c72b0;" x="264.301624" xlink:href="#m6a4cccb40f" y="76.17084"/>
     <use style="fill:#4c72b0;stroke:#4c72b0;" x="246.352798" xlink:href="#m6a4cccb40f" y="151.330042"/>
     <use style="fill:#4c72b0;stroke:#4c72b0;" x="106.143757" xlink:href="#m6a4cccb40f" y="78.817671"/>
     <use style="fill:#4c72b0;stroke:#4c72b0;" x="258.629862" xlink:href="#m6a4cccb40f" y="90.624104"/>
     <use style="fill:#4c72b0;stroke:#4c72b0;" x="97.778566" xlink:href="#m6a4cccb40f" y="148.090527"/>
     <use style="fill:#4c72b0;stroke:#4c72b0;" x="292.748512" xlink:href="#m6a4cccb40f" y="93.960808"/>
     <use style="fill:#4c72b0;stroke:#4c72b0;" x="321.333713" xlink:href="#m6a4cccb40f" y="58.928446"/>
     <use style="fill:#4c72b0;stroke:#4c72b0;" x="225.995603" xlink:href="#m6a4cccb40f" y="115.434817"/>
     <use style="fill:#4c72b0;stroke:#4c72b0;" x="253.260363" xlink:href="#m6a4cccb40f" y="89.998922"/>
     <use style="fill:#4c72b0;stroke:#4c72b0;" x="272.657928" xlink:href="#m6a4cccb40f" y="132.651166"/>
     <use style="fill:#4c72b0;stroke:#4c72b0;" x="339.972831" xlink:href="#m6a4cccb40f" y="55.234398"/>
     <use style="fill:#4c72b0;stroke:#4c72b0;" x="187.063292" xlink:href="#m6a4cccb40f" y="148.266304"/>
     <use style="fill:#4c72b0;stroke:#4c72b0;" x="201.190567" xlink:href="#m6a4cccb40f" y="178.892845"/>
     <use style="fill:#4c72b0;stroke:#4c72b0;" x="223.966857" xlink:href="#m6a4cccb40f" y="141.761068"/>
     <use style="fill:#4c72b0;stroke:#4c72b0;" x="273.892825" xlink:href="#m6a4cccb40f" y="86.373028"/>
     <use style="fill:#4c72b0;stroke:#4c72b0;" x="341.248579" xlink:href="#m6a4cccb40f" y="67.406876"/>
     <use style="fill:#4c72b0;stroke:#4c72b0;" x="216.698988" xlink:href="#m6a4cccb40f" y="135.360046"/>
     <use style="fill:#4c72b0;stroke:#4c72b0;" x="225.548102" xlink:href="#m6a4cccb40f" y="124.854048"/>
     <use style="fill:#4c72b0;stroke:#4c72b0;" x="197.19974" xlink:href="#m6a4cccb40f" y="137.459391"/>
     <use style="fill:#4c72b0;stroke:#4c72b0;" x="224.644067" xlink:href="#m6a4cccb40f" y="124.411378"/>
     <use style="fill:#4c72b0;stroke:#4c72b0;" x="316.197889" xlink:href="#m6a4cccb40f" y="17.083636"/>
     <use style="fill:#4c72b0;stroke:#4c72b0;" x="117.392125" xlink:href="#m6a4cccb40f" y="127.57316"/>
     <use style="fill:#4c72b0;stroke:#4c72b0;" x="317.606562" xlink:href="#m6a4cccb40f" y="86.940781"/>
     <use style="fill:#4c72b0;stroke:#4c72b0;" x="265.639597" xlink:href="#m6a4cccb40f" y="110.094195"/>
     <use style="fill:#4c72b0;stroke:#4c72b0;" x="259.252923" xlink:href="#m6a4cccb40f" y="139.091232"/>
     <use style="fill:#4c72b0;stroke:#4c72b0;" x="254.798752" xlink:href="#m6a4cccb40f" y="141.220538"/>
     <use style="fill:#4c72b0;stroke:#4c72b0;" x="73.381932" xlink:href="#m6a4cccb40f" y="171.259042"/>
     <use style="fill:#4c72b0;stroke:#4c72b0;" x="313.00141" xlink:href="#m6a4cccb40f" y="34.225404"/>
     <use style="fill:#4c72b0;stroke:#4c72b0;" x="244.576035" xlink:href="#m6a4cccb40f" y="133.134158"/>
     <use style="fill:#4c72b0;stroke:#4c72b0;" x="150.261564" xlink:href="#m6a4cccb40f" y="177.60668"/>
     <use style="fill:#4c72b0;stroke:#4c72b0;" x="149.539532" xlink:href="#m6a4cccb40f" y="176.432802"/>
     <use style="fill:#4c72b0;stroke:#4c72b0;" x="263.866042" xlink:href="#m6a4cccb40f" y="106.593375"/>
     <use style="fill:#4c72b0;stroke:#4c72b0;" x="113.797474" xlink:href="#m6a4cccb40f" y="156.806334"/>
     <use style="fill:#4c72b0;stroke:#4c72b0;" x="330.022978" xlink:href="#m6a4cccb40f" y="60.757449"/>
     <use style="fill:#4c72b0;stroke:#4c72b0;" x="253.660072" xlink:href="#m6a4cccb40f" y="95.728213"/>
     <use style="fill:#4c72b0;stroke:#4c72b0;" x="313.429448" xlink:href="#m6a4cccb40f" y="115.64882"/>
     <use style="fill:#4c72b0;stroke:#4c72b0;" x="276.308286" xlink:href="#m6a4cccb40f" y="129.09664"/>
     <use style="fill:#4c72b0;stroke:#4c72b0;" x="184.926955" xlink:href="#m6a4cccb40f" y="163.413614"/>
     <use style="fill:#4c72b0;stroke:#4c72b0;" x="291.162103" xlink:href="#m6a4cccb40f" y="94.73395"/>
     <use style="fill:#4c72b0;stroke:#4c72b0;" x="283.714479" xlink:href="#m6a4cccb40f" y="78.181089"/>
     <use style="fill:#4c72b0;stroke:#4c72b0;" x="303.914129" xlink:href="#m6a4cccb40f" y="112.744408"/>
     <use style="fill:#4c72b0;stroke:#4c72b0;" x="200.533077" xlink:href="#m6a4cccb40f" y="105.232722"/>
     <use style="fill:#4c72b0;stroke:#4c72b0;" x="325.015006" xlink:href="#m6a4cccb40f" y="83.763867"/>
     <use style="fill:#4c72b0;stroke:#4c72b0;" x="344.783281" xlink:href="#m6a4cccb40f" y="52.223604"/>
     <use style="fill:#4c72b0;stroke:#4c72b0;" x="298.147025" xlink:href="#m6a4cccb40f" y="83.930549"/>
     <use style="fill:#4c72b0;stroke:#4c72b0;" x="337.533991" xlink:href="#m6a4cccb40f" y="74.90005"/>
     <use style="fill:#4c72b0;stroke:#4c72b0;" x="268.303734" xlink:href="#m6a4cccb40f" y="114.138299"/>
     <use style="fill:#4c72b0;stroke:#4c72b0;" x="227.181225" xlink:href="#m6a4cccb40f" y="171.360774"/>
     <use style="fill:#4c72b0;stroke:#4c72b0;" x="200.631771" xlink:href="#m6a4cccb40f" y="185.13512"/>
     <use style="fill:#4c72b0;stroke:#4c72b0;" x="346.168225" xlink:href="#m6a4cccb40f" y="57.349539"/>
     <use style="fill:#4c72b0;stroke:#4c72b0;" x="259.039887" xlink:href="#m6a4cccb40f" y="104.338657"/>
     <use style="fill:#4c72b0;stroke:#4c72b0;" x="377.745568" xlink:href="#m6a4cccb40f" y="40.472867"/>
     <use style="fill:#4c72b0;stroke:#4c72b0;" x="279.960988" xlink:href="#m6a4cccb40f" y="109.335727"/>
     <use style="fill:#4c72b0;stroke:#4c72b0;" x="184.747498" xlink:href="#m6a4cccb40f" y="164.207691"/>
     <use style="fill:#4c72b0;stroke:#4c72b0;" x="263.308053" xlink:href="#m6a4cccb40f" y="127.925467"/>
     <use style="fill:#4c72b0;stroke:#4c72b0;" x="264.093056" xlink:href="#m6a4cccb40f" y="121.351744"/>
     <use style="fill:#4c72b0;stroke:#4c72b0;" x="189.77009" xlink:href="#m6a4cccb40f" y="149.948479"/>
     <use style="fill:#4c72b0;stroke:#4c72b0;" x="276.055408" xlink:href="#m6a4cccb40f" y="128.590304"/>
     <use style="fill:#4c72b0;stroke:#4c72b0;" x="208.995339" xlink:href="#m6a4cccb40f" y="22.604691"/>
     <use style="fill:#4c72b0;stroke:#4c72b0;" x="139.280926" xlink:href="#m6a4cccb40f" y="144.923656"/>
     <use style="fill:#4c72b0;stroke:#4c72b0;" x="334.047231" xlink:href="#m6a4cccb40f" y="80.933003"/>
     <use style="fill:#4c72b0;stroke:#4c72b0;" x="280.252066" xlink:href="#m6a4cccb40f" y="85.825153"/>
     <use style="fill:#4c72b0;stroke:#4c72b0;" x="327.939984" xlink:href="#m6a4cccb40f" y="84.747455"/>
     <use style="fill:#4c72b0;stroke:#4c72b0;" x="291.675861" xlink:href="#m6a4cccb40f" y="123.969134"/>
     <use style="fill:#4c72b0;stroke:#4c72b0;" x="179.026291" xlink:href="#m6a4cccb40f" y="120.627002"/>
     <use style="fill:#4c72b0;stroke:#4c72b0;" x="202.368114" xlink:href="#m6a4cccb40f" y="142.552341"/>
     <use style="fill:#4c72b0;stroke:#4c72b0;" x="278.54059" xlink:href="#m6a4cccb40f" y="128.326479"/>
     <use style="fill:#4c72b0;stroke:#4c72b0;" x="301.897816" xlink:href="#m6a4cccb40f" y="47.434435"/>
     <use style="fill:#4c72b0;stroke:#4c72b0;" x="284.27787" xlink:href="#m6a4cccb40f" y="115.30376"/>
     <use style="fill:#4c72b0;stroke:#4c72b0;" x="212.630852" xlink:href="#m6a4cccb40f" y="164.445318"/>
     <use style="fill:#4c72b0;stroke:#4c72b0;" x="132.355893" xlink:href="#m6a4cccb40f" y="156.342682"/>
     <use style="fill:#4c72b0;stroke:#4c72b0;" x="349.020128" xlink:href="#m6a4cccb40f" y="58.712141"/>
     <use style="fill:#4c72b0;stroke:#4c72b0;" x="305.289228" xlink:href="#m6a4cccb40f" y="73.682693"/>
     <use style="fill:#4c72b0;stroke:#4c72b0;" x="231.445484" xlink:href="#m6a4cccb40f" y="162.950148"/>
     <use style="fill:#4c72b0;stroke:#4c72b0;" x="250.015502" xlink:href="#m6a4cccb40f" y="139.696396"/>
     <use style="fill:#4c72b0;stroke:#4c72b0;" x="314.994988" xlink:href="#m6a4cccb40f" y="98.908356"/>
     <use style="fill:#4c72b0;stroke:#4c72b0;" x="180.195843" xlink:href="#m6a4cccb40f" y="108.167162"/>
     <use style="fill:#4c72b0;stroke:#4c72b0;" x="289.246985" xlink:href="#m6a4cccb40f" y="30.608115"/>
     <use style="fill:#4c72b0;stroke:#4c72b0;" x="356.358429" xlink:href="#m6a4cccb40f" y="35.040997"/>
     <use style="fill:#4c72b0;stroke:#4c72b0;" x="365.467335" xlink:href="#m6a4cccb40f" y="42.461767"/>
     <use style="fill:#4c72b0;stroke:#4c72b0;" x="291.101189" xlink:href="#m6a4cccb40f" y="102.535746"/>
     <use style="fill:#4c72b0;stroke:#4c72b0;" x="268.655838" xlink:href="#m6a4cccb40f" y="138.070988"/>
     <use style="fill:#4c72b0;stroke:#4c72b0;" x="239.294921" xlink:href="#m6a4cccb40f" y="106.465604"/>
     <use style="fill:#4c72b0;stroke:#4c72b0;" x="136.92726" xlink:href="#m6a4cccb40f" y="127.84074"/>
     <use style="fill:#4c72b0;stroke:#4c72b0;" x="230.745652" xlink:href="#m6a4cccb40f" y="126.440289"/>
     <use style="fill:#4c72b0;stroke:#4c72b0;" x="328.764754" xlink:href="#m6a4cccb40f" y="91.185401"/>
     <use style="fill:#4c72b0;stroke:#4c72b0;" x="175.347957" xlink:href="#m6a4cccb40f" y="149.184823"/>
     <use style="fill:#4c72b0;stroke:#4c72b0;" x="280.777821" xlink:href="#m6a4cccb40f" y="135.728581"/>
     <use style="fill:#4c72b0;stroke:#4c72b0;" x="290.190882" xlink:href="#m6a4cccb40f" y="123.050734"/>
     <use style="fill:#4c72b0;stroke:#4c72b0;" x="214.854931" xlink:href="#m6a4cccb40f" y="163.128584"/>
     <use style="fill:#4c72b0;stroke:#4c72b0;" x="253.536524" xlink:href="#m6a4cccb40f" y="104.04121"/>
     <use style="fill:#4c72b0;stroke:#4c72b0;" x="356.230354" xlink:href="#m6a4cccb40f" y="56.665337"/>
     <use style="fill:#4c72b0;stroke:#4c72b0;" x="190.199676" xlink:href="#m6a4cccb40f" y="125.136469"/>
     <use style="fill:#4c72b0;stroke:#4c72b0;" x="271.645538" xlink:href="#m6a4cccb40f" y="94.719145"/>
     <use style="fill:#4c72b0;stroke:#4c72b0;" x="283.234631" xlink:href="#m6a4cccb40f" y="74.551779"/>
    </g>
   </g>
   <g id="line2d_10">
    <path clip-path="url(#p45ad3fb071)" d="M 131.503259 214.756364 
L 362.301869 51.919687 
" style="fill:none;stroke:#1a1a1a;stroke-dasharray:1.5,2.475;stroke-dashoffset:0;stroke-width:1.5;"/>
   </g>
   <g id="patch_3">
    <path d="M 58.16375 224.64 
L 58.16375 7.2 
" style="fill:none;stroke:#ffffff;stroke-linecap:square;stroke-linejoin:miter;stroke-width:1.25;"/>
   </g>
   <g id="patch_4">
    <path d="M 392.96375 224.64 
L 392.96375 7.2 
" style="fill:none;stroke:#ffffff;stroke-linecap:square;stroke-linejoin:miter;stroke-width:1.25;"/>
   </g>
   <g id="patch_5">
    <path d="M 58.16375 224.64 
L 392.96375 224.64 
" style="fill:none;stroke:#ffffff;stroke-linecap:square;stroke-linejoin:miter;stroke-width:1.25;"/>
   </g>
   <g id="patch_6">
    <path d="M 58.16375 7.2 
L 392.96375 7.2 
" style="fill:none;stroke:#ffffff;stroke-linecap:square;stroke-linejoin:miter;stroke-width:1.25;"/>
   </g>
  </g>
 </g>
 <defs>
  <clipPath id="p45ad3fb071">
   <rect height="217.44" width="334.8" x="58.16375" y="7.2"/>
  </clipPath>
 </defs>
</svg>
