<?xml version="1.0" encoding="utf-8" standalone="no"?>
<!DOCTYPE svg PUBLIC "-//W3C//DTD SVG 1.1//EN"
  "http://www.w3.org/Graphics/SVG/1.1/DTD/svg11.dtd">
<!-- Created with matplotlib (https://matplotlib.org/) -->
<svg height="282.717813pt" version="1.1" viewBox="0 0 391.807187 282.717813" width="391.807187pt" xmlns="http://www.w3.org/2000/svg" xmlns:xlink="http://www.w3.org/1999/xlink">
 <defs>
  <style type="text/css">
*{stroke-linecap:butt;stroke-linejoin:round;}
  </style>
 </defs>
 <g id="figure_1">
  <g id="patch_1">
   <path d="M 0 282.717813 
L 391.807187 282.717813 
L 391.807187 0 
L 0 0 
z
" style="fill:#ffffff;"/>
  </g>
  <g id="axes_1">
   <g id="patch_2">
    <path d="M 49.807187 239.758125 
L 384.607188 239.758125 
L 384.607188 22.318125 
L 49.807187 22.318125 
z
" style="fill:#eaeaf2;"/>
   </g>
   <g id="matplotlib.axis_1">
    <g id="xtick_1">
     <g id="line2d_1">
      <path clip-path="url(#p7fa46df5d5)" d="M 65.025369 239.758125 
L 65.025369 22.318125 
" style="fill:none;stroke:#ffffff;stroke-linecap:round;"/>
     </g>
     <g id="text_1">
      <!-- 0 -->
      <defs>
       <path d="M 31.78125 66.40625 
Q 24.171875 66.40625 20.328125 58.90625 
Q 16.5 51.421875 16.5 36.375 
Q 16.5 21.390625 20.328125 13.890625 
Q 24.171875 6.390625 31.78125 6.390625 
Q 39.453125 6.390625 43.28125 13.890625 
Q 47.125 21.390625 47.125 36.375 
Q 47.125 51.421875 43.28125 58.90625 
Q 39.453125 66.40625 31.78125 66.40625 
z
M 31.78125 74.21875 
Q 44.046875 74.21875 50.515625 64.515625 
Q 56.984375 54.828125 56.984375 36.375 
Q 56.984375 17.96875 50.515625 8.265625 
Q 44.046875 -1.421875 31.78125 -1.421875 
Q 19.53125 -1.421875 13.0625 8.265625 
Q 6.59375 17.96875 6.59375 36.375 
Q 6.59375 54.828125 13.0625 64.515625 
Q 19.53125 74.21875 31.78125 74.21875 
z
" id="DejaVuSans-48"/>
      </defs>
      <g style="fill:#262626;" transform="translate(61.525994 257.616406)scale(0.11 -0.11)">
       <use xlink:href="#DejaVuSans-48"/>
      </g>
     </g>
    </g>
    <g id="xtick_2">
     <g id="line2d_2">
      <path clip-path="url(#p7fa46df5d5)" d="M 125.898097 239.758125 
L 125.898097 22.318125 
" style="fill:none;stroke:#ffffff;stroke-linecap:round;"/>
     </g>
     <g id="text_2">
      <!-- 2 -->
      <defs>
       <path d="M 19.1875 8.296875 
L 53.609375 8.296875 
L 53.609375 0 
L 7.328125 0 
L 7.328125 8.296875 
Q 12.9375 14.109375 22.625 23.890625 
Q 32.328125 33.6875 34.8125 36.53125 
Q 39.546875 41.84375 41.421875 45.53125 
Q 43.3125 49.21875 43.3125 52.78125 
Q 43.3125 58.59375 39.234375 62.25 
Q 35.15625 65.921875 28.609375 65.921875 
Q 23.96875 65.921875 18.8125 64.3125 
Q 13.671875 62.703125 7.8125 59.421875 
L 7.8125 69.390625 
Q 13.765625 71.78125 18.9375 73 
Q 24.125 74.21875 28.421875 74.21875 
Q 39.75 74.21875 46.484375 68.546875 
Q 53.21875 62.890625 53.21875 53.421875 
Q 53.21875 48.921875 51.53125 44.890625 
Q 49.859375 40.875 45.40625 35.40625 
Q 44.1875 33.984375 37.640625 27.21875 
Q 31.109375 20.453125 19.1875 8.296875 
z
" id="DejaVuSans-50"/>
      </defs>
      <g style="fill:#262626;" transform="translate(122.398722 257.616406)scale(0.11 -0.11)">
       <use xlink:href="#DejaVuSans-50"/>
      </g>
     </g>
    </g>
    <g id="xtick_3">
     <g id="line2d_3">
      <path clip-path="url(#p7fa46df5d5)" d="M 186.770824 239.758125 
L 186.770824 22.318125 
" style="fill:none;stroke:#ffffff;stroke-linecap:round;"/>
     </g>
     <g id="text_3">
      <!-- 4 -->
      <defs>
       <path d="M 37.796875 64.3125 
L 12.890625 25.390625 
L 37.796875 25.390625 
z
M 35.203125 72.90625 
L 47.609375 72.90625 
L 47.609375 25.390625 
L 58.015625 25.390625 
L 58.015625 17.1875 
L 47.609375 17.1875 
L 47.609375 0 
L 37.796875 0 
L 37.796875 17.1875 
L 4.890625 17.1875 
L 4.890625 26.703125 
z
" id="DejaVuSans-52"/>
      </defs>
      <g style="fill:#262626;" transform="translate(183.271449 257.616406)scale(0.11 -0.11)">
       <use xlink:href="#DejaVuSans-52"/>
      </g>
     </g>
    </g>
    <g id="xtick_4">
     <g id="line2d_4">
      <path clip-path="url(#p7fa46df5d5)" d="M 247.643551 239.758125 
L 247.643551 22.318125 
" style="fill:none;stroke:#ffffff;stroke-linecap:round;"/>
     </g>
     <g id="text_4">
      <!-- 6 -->
      <defs>
       <path d="M 33.015625 40.375 
Q 26.375 40.375 22.484375 35.828125 
Q 18.609375 31.296875 18.609375 23.390625 
Q 18.609375 15.53125 22.484375 10.953125 
Q 26.375 6.390625 33.015625 6.390625 
Q 39.65625 6.390625 43.53125 10.953125 
Q 47.40625 15.53125 47.40625 23.390625 
Q 47.40625 31.296875 43.53125 35.828125 
Q 39.65625 40.375 33.015625 40.375 
z
M 52.59375 71.296875 
L 52.59375 62.3125 
Q 48.875 64.0625 45.09375 64.984375 
Q 41.3125 65.921875 37.59375 65.921875 
Q 27.828125 65.921875 22.671875 59.328125 
Q 17.53125 52.734375 16.796875 39.40625 
Q 19.671875 43.65625 24.015625 45.921875 
Q 28.375 48.1875 33.59375 48.1875 
Q 44.578125 48.1875 50.953125 41.515625 
Q 57.328125 34.859375 57.328125 23.390625 
Q 57.328125 12.15625 50.6875 5.359375 
Q 44.046875 -1.421875 33.015625 -1.421875 
Q 20.359375 -1.421875 13.671875 8.265625 
Q 6.984375 17.96875 6.984375 36.375 
Q 6.984375 53.65625 15.1875 63.9375 
Q 23.390625 74.21875 37.203125 74.21875 
Q 40.921875 74.21875 44.703125 73.484375 
Q 48.484375 72.75 52.59375 71.296875 
z
" id="DejaVuSans-54"/>
      </defs>
      <g style="fill:#262626;" transform="translate(244.144176 257.616406)scale(0.11 -0.11)">
       <use xlink:href="#DejaVuSans-54"/>
      </g>
     </g>
    </g>
    <g id="xtick_5">
     <g id="line2d_5">
      <path clip-path="url(#p7fa46df5d5)" d="M 308.516278 239.758125 
L 308.516278 22.318125 
" style="fill:none;stroke:#ffffff;stroke-linecap:round;"/>
     </g>
     <g id="text_5">
      <!-- 8 -->
      <defs>
       <path d="M 31.78125 34.625 
Q 24.75 34.625 20.71875 30.859375 
Q 16.703125 27.09375 16.703125 20.515625 
Q 16.703125 13.921875 20.71875 10.15625 
Q 24.75 6.390625 31.78125 6.390625 
Q 38.8125 6.390625 42.859375 10.171875 
Q 46.921875 13.96875 46.921875 20.515625 
Q 46.921875 27.09375 42.890625 30.859375 
Q 38.875 34.625 31.78125 34.625 
z
M 21.921875 38.8125 
Q 15.578125 40.375 12.03125 44.71875 
Q 8.5 49.078125 8.5 55.328125 
Q 8.5 64.0625 14.71875 69.140625 
Q 20.953125 74.21875 31.78125 74.21875 
Q 42.671875 74.21875 48.875 69.140625 
Q 55.078125 64.0625 55.078125 55.328125 
Q 55.078125 49.078125 51.53125 44.71875 
Q 48 40.375 41.703125 38.8125 
Q 48.828125 37.15625 52.796875 32.3125 
Q 56.78125 27.484375 56.78125 20.515625 
Q 56.78125 9.90625 50.3125 4.234375 
Q 43.84375 -1.421875 31.78125 -1.421875 
Q 19.734375 -1.421875 13.25 4.234375 
Q 6.78125 9.90625 6.78125 20.515625 
Q 6.78125 27.484375 10.78125 32.3125 
Q 14.796875 37.15625 21.921875 38.8125 
z
M 18.3125 54.390625 
Q 18.3125 48.734375 21.84375 45.5625 
Q 25.390625 42.390625 31.78125 42.390625 
Q 38.140625 42.390625 41.71875 45.5625 
Q 45.3125 48.734375 45.3125 54.390625 
Q 45.3125 60.0625 41.71875 63.234375 
Q 38.140625 66.40625 31.78125 66.40625 
Q 25.390625 66.40625 21.84375 63.234375 
Q 18.3125 60.0625 18.3125 54.390625 
z
" id="DejaVuSans-56"/>
      </defs>
      <g style="fill:#262626;" transform="translate(305.016903 257.616406)scale(0.11 -0.11)">
       <use xlink:href="#DejaVuSans-56"/>
      </g>
     </g>
    </g>
    <g id="xtick_6">
     <g id="line2d_6">
      <path clip-path="url(#p7fa46df5d5)" d="M 369.389006 239.758125 
L 369.389006 22.318125 
" style="fill:none;stroke:#ffffff;stroke-linecap:round;"/>
     </g>
     <g id="text_6">
      <!-- 10 -->
      <defs>
       <path d="M 12.40625 8.296875 
L 28.515625 8.296875 
L 28.515625 63.921875 
L 10.984375 60.40625 
L 10.984375 69.390625 
L 28.421875 72.90625 
L 38.28125 72.90625 
L 38.28125 8.296875 
L 54.390625 8.296875 
L 54.390625 0 
L 12.40625 0 
z
" id="DejaVuSans-49"/>
      </defs>
      <g style="fill:#262626;" transform="translate(362.390256 257.616406)scale(0.11 -0.11)">
       <use xlink:href="#DejaVuSans-49"/>
       <use x="63.623047" xlink:href="#DejaVuSans-48"/>
      </g>
     </g>
    </g>
    <g id="text_7">
     <!-- Time to next event -->
     <defs>
      <path d="M -0.296875 72.90625 
L 61.375 72.90625 
L 61.375 64.59375 
L 35.5 64.59375 
L 35.5 0 
L 25.59375 0 
L 25.59375 64.59375 
L -0.296875 64.59375 
z
" id="DejaVuSans-84"/>
      <path d="M 9.421875 54.6875 
L 18.40625 54.6875 
L 18.40625 0 
L 9.421875 0 
z
M 9.421875 75.984375 
L 18.40625 75.984375 
L 18.40625 64.59375 
L 9.421875 64.59375 
z
" id="DejaVuSans-105"/>
      <path d="M 52 44.1875 
Q 55.375 50.25 60.0625 53.125 
Q 64.75 56 71.09375 56 
Q 79.640625 56 84.28125 50.015625 
Q 88.921875 44.046875 88.921875 33.015625 
L 88.921875 0 
L 79.890625 0 
L 79.890625 32.71875 
Q 79.890625 40.578125 77.09375 44.375 
Q 74.3125 48.1875 68.609375 48.1875 
Q 61.625 48.1875 57.5625 43.546875 
Q 53.515625 38.921875 53.515625 30.90625 
L 53.515625 0 
L 44.484375 0 
L 44.484375 32.71875 
Q 44.484375 40.625 41.703125 44.40625 
Q 38.921875 48.1875 33.109375 48.1875 
Q 26.21875 48.1875 22.15625 43.53125 
Q 18.109375 38.875 18.109375 30.90625 
L 18.109375 0 
L 9.078125 0 
L 9.078125 54.6875 
L 18.109375 54.6875 
L 18.109375 46.1875 
Q 21.1875 51.21875 25.484375 53.609375 
Q 29.78125 56 35.6875 56 
Q 41.65625 56 45.828125 52.96875 
Q 50 49.953125 52 44.1875 
z
" id="DejaVuSans-109"/>
      <path d="M 56.203125 29.59375 
L 56.203125 25.203125 
L 14.890625 25.203125 
Q 15.484375 15.921875 20.484375 11.0625 
Q 25.484375 6.203125 34.421875 6.203125 
Q 39.59375 6.203125 44.453125 7.46875 
Q 49.3125 8.734375 54.109375 11.28125 
L 54.109375 2.78125 
Q 49.265625 0.734375 44.1875 -0.34375 
Q 39.109375 -1.421875 33.890625 -1.421875 
Q 20.796875 -1.421875 13.15625 6.1875 
Q 5.515625 13.8125 5.515625 26.8125 
Q 5.515625 40.234375 12.765625 48.109375 
Q 20.015625 56 32.328125 56 
Q 43.359375 56 49.78125 48.890625 
Q 56.203125 41.796875 56.203125 29.59375 
z
M 47.21875 32.234375 
Q 47.125 39.59375 43.09375 43.984375 
Q 39.0625 48.390625 32.421875 48.390625 
Q 24.90625 48.390625 20.390625 44.140625 
Q 15.875 39.890625 15.1875 32.171875 
z
" id="DejaVuSans-101"/>
      <path id="DejaVuSans-32"/>
      <path d="M 18.3125 70.21875 
L 18.3125 54.6875 
L 36.8125 54.6875 
L 36.8125 47.703125 
L 18.3125 47.703125 
L 18.3125 18.015625 
Q 18.3125 11.328125 20.140625 9.421875 
Q 21.96875 7.515625 27.59375 7.515625 
L 36.8125 7.515625 
L 36.8125 0 
L 27.59375 0 
Q 17.1875 0 13.234375 3.875 
Q 9.28125 7.765625 9.28125 18.015625 
L 9.28125 47.703125 
L 2.6875 47.703125 
L 2.6875 54.6875 
L 9.28125 54.6875 
L 9.28125 70.21875 
z
" id="DejaVuSans-116"/>
      <path d="M 30.609375 48.390625 
Q 23.390625 48.390625 19.1875 42.75 
Q 14.984375 37.109375 14.984375 27.296875 
Q 14.984375 17.484375 19.15625 11.84375 
Q 23.34375 6.203125 30.609375 6.203125 
Q 37.796875 6.203125 41.984375 11.859375 
Q 46.1875 17.53125 46.1875 27.296875 
Q 46.1875 37.015625 41.984375 42.703125 
Q 37.796875 48.390625 30.609375 48.390625 
z
M 30.609375 56 
Q 42.328125 56 49.015625 48.375 
Q 55.71875 40.765625 55.71875 27.296875 
Q 55.71875 13.875 49.015625 6.21875 
Q 42.328125 -1.421875 30.609375 -1.421875 
Q 18.84375 -1.421875 12.171875 6.21875 
Q 5.515625 13.875 5.515625 27.296875 
Q 5.515625 40.765625 12.171875 48.375 
Q 18.84375 56 30.609375 56 
z
" id="DejaVuSans-111"/>
      <path d="M 54.890625 33.015625 
L 54.890625 0 
L 45.90625 0 
L 45.90625 32.71875 
Q 45.90625 40.484375 42.875 44.328125 
Q 39.84375 48.1875 33.796875 48.1875 
Q 26.515625 48.1875 22.3125 43.546875 
Q 18.109375 38.921875 18.109375 30.90625 
L 18.109375 0 
L 9.078125 0 
L 9.078125 54.6875 
L 18.109375 54.6875 
L 18.109375 46.1875 
Q 21.34375 51.125 25.703125 53.5625 
Q 30.078125 56 35.796875 56 
Q 45.21875 56 50.046875 50.171875 
Q 54.890625 44.34375 54.890625 33.015625 
z
" id="DejaVuSans-110"/>
      <path d="M 54.890625 54.6875 
L 35.109375 28.078125 
L 55.90625 0 
L 45.3125 0 
L 29.390625 21.484375 
L 13.484375 0 
L 2.875 0 
L 24.125 28.609375 
L 4.6875 54.6875 
L 15.28125 54.6875 
L 29.78125 35.203125 
L 44.28125 54.6875 
z
" id="DejaVuSans-120"/>
      <path d="M 2.984375 54.6875 
L 12.5 54.6875 
L 29.59375 8.796875 
L 46.6875 54.6875 
L 56.203125 54.6875 
L 35.6875 0 
L 23.484375 0 
z
" id="DejaVuSans-118"/>
     </defs>
     <g style="fill:#262626;" transform="translate(160.111562 273.022188)scale(0.12 -0.12)">
      <use xlink:href="#DejaVuSans-84"/>
      <use x="61.037109" xlink:href="#DejaVuSans-105"/>
      <use x="88.820312" xlink:href="#DejaVuSans-109"/>
      <use x="186.232422" xlink:href="#DejaVuSans-101"/>
      <use x="247.755859" xlink:href="#DejaVuSans-32"/>
      <use x="279.542969" xlink:href="#DejaVuSans-116"/>
      <use x="318.751953" xlink:href="#DejaVuSans-111"/>
      <use x="379.933594" xlink:href="#DejaVuSans-32"/>
      <use x="411.720703" xlink:href="#DejaVuSans-110"/>
      <use x="475.099609" xlink:href="#DejaVuSans-101"/>
      <use x="536.607422" xlink:href="#DejaVuSans-120"/>
      <use x="595.787109" xlink:href="#DejaVuSans-116"/>
      <use x="634.996094" xlink:href="#DejaVuSans-32"/>
      <use x="666.783203" xlink:href="#DejaVuSans-101"/>
      <use x="728.306641" xlink:href="#DejaVuSans-118"/>
      <use x="787.486328" xlink:href="#DejaVuSans-101"/>
      <use x="849.009766" xlink:href="#DejaVuSans-110"/>
      <use x="912.388672" xlink:href="#DejaVuSans-116"/>
     </g>
    </g>
   </g>
   <g id="matplotlib.axis_2">
    <g id="ytick_1">
     <g id="line2d_7">
      <path clip-path="url(#p7fa46df5d5)" d="M 49.807187 229.874489 
L 384.607188 229.874489 
" style="fill:none;stroke:#ffffff;stroke-linecap:round;"/>
     </g>
     <g id="text_8">
      <!-- 0.0 -->
      <defs>
       <path d="M 10.6875 12.40625 
L 21 12.40625 
L 21 0 
L 10.6875 0 
z
" id="DejaVuSans-46"/>
      </defs>
      <g style="fill:#262626;" transform="translate(22.81375 234.053629)scale(0.11 -0.11)">
       <use xlink:href="#DejaVuSans-48"/>
       <use x="63.623047" xlink:href="#DejaVuSans-46"/>
       <use x="95.410156" xlink:href="#DejaVuSans-48"/>
      </g>
     </g>
    </g>
    <g id="ytick_2">
     <g id="line2d_8">
      <path clip-path="url(#p7fa46df5d5)" d="M 49.807187 190.339943 
L 384.607188 190.339943 
" style="fill:none;stroke:#ffffff;stroke-linecap:round;"/>
     </g>
     <g id="text_9">
      <!-- 0.2 -->
      <g style="fill:#262626;" transform="translate(22.81375 194.519084)scale(0.11 -0.11)">
       <use xlink:href="#DejaVuSans-48"/>
       <use x="63.623047" xlink:href="#DejaVuSans-46"/>
       <use x="95.410156" xlink:href="#DejaVuSans-50"/>
      </g>
     </g>
    </g>
    <g id="ytick_3">
     <g id="line2d_9">
      <path clip-path="url(#p7fa46df5d5)" d="M 49.807187 150.805398 
L 384.607188 150.805398 
" style="fill:none;stroke:#ffffff;stroke-linecap:round;"/>
     </g>
     <g id="text_10">
      <!-- 0.4 -->
      <g style="fill:#262626;" transform="translate(22.81375 154.984538)scale(0.11 -0.11)">
       <use xlink:href="#DejaVuSans-48"/>
       <use x="63.623047" xlink:href="#DejaVuSans-46"/>
       <use x="95.410156" xlink:href="#DejaVuSans-52"/>
      </g>
     </g>
    </g>
    <g id="ytick_4">
     <g id="line2d_10">
      <path clip-path="url(#p7fa46df5d5)" d="M 49.807187 111.270852 
L 384.607188 111.270852 
" style="fill:none;stroke:#ffffff;stroke-linecap:round;"/>
     </g>
     <g id="text_11">
      <!-- 0.6 -->
      <g style="fill:#262626;" transform="translate(22.81375 115.449993)scale(0.11 -0.11)">
       <use xlink:href="#DejaVuSans-48"/>
       <use x="63.623047" xlink:href="#DejaVuSans-46"/>
       <use x="95.410156" xlink:href="#DejaVuSans-54"/>
      </g>
     </g>
    </g>
    <g id="ytick_5">
     <g id="line2d_11">
      <path clip-path="url(#p7fa46df5d5)" d="M 49.807187 71.736307 
L 384.607188 71.736307 
" style="fill:none;stroke:#ffffff;stroke-linecap:round;"/>
     </g>
     <g id="text_12">
      <!-- 0.8 -->
      <g style="fill:#262626;" transform="translate(22.81375 75.915447)scale(0.11 -0.11)">
       <use xlink:href="#DejaVuSans-48"/>
       <use x="63.623047" xlink:href="#DejaVuSans-46"/>
       <use x="95.410156" xlink:href="#DejaVuSans-56"/>
      </g>
     </g>
    </g>
    <g id="ytick_6">
     <g id="line2d_12">
      <path clip-path="url(#p7fa46df5d5)" d="M 49.807187 32.201761 
L 384.607188 32.201761 
" style="fill:none;stroke:#ffffff;stroke-linecap:round;"/>
     </g>
     <g id="text_13">
      <!-- 1.0 -->
      <g style="fill:#262626;" transform="translate(22.81375 36.380902)scale(0.11 -0.11)">
       <use xlink:href="#DejaVuSans-49"/>
       <use x="63.623047" xlink:href="#DejaVuSans-46"/>
       <use x="95.410156" xlink:href="#DejaVuSans-48"/>
      </g>
     </g>
    </g>
    <g id="text_14">
     <!-- Probability -->
     <defs>
      <path d="M 19.671875 64.796875 
L 19.671875 37.40625 
L 32.078125 37.40625 
Q 38.96875 37.40625 42.71875 40.96875 
Q 46.484375 44.53125 46.484375 51.125 
Q 46.484375 57.671875 42.71875 61.234375 
Q 38.96875 64.796875 32.078125 64.796875 
z
M 9.8125 72.90625 
L 32.078125 72.90625 
Q 44.34375 72.90625 50.609375 67.359375 
Q 56.890625 61.8125 56.890625 51.125 
Q 56.890625 40.328125 50.609375 34.8125 
Q 44.34375 29.296875 32.078125 29.296875 
L 19.671875 29.296875 
L 19.671875 0 
L 9.8125 0 
z
" id="DejaVuSans-80"/>
      <path d="M 41.109375 46.296875 
Q 39.59375 47.171875 37.8125 47.578125 
Q 36.03125 48 33.890625 48 
Q 26.265625 48 22.1875 43.046875 
Q 18.109375 38.09375 18.109375 28.8125 
L 18.109375 0 
L 9.078125 0 
L 9.078125 54.6875 
L 18.109375 54.6875 
L 18.109375 46.1875 
Q 20.953125 51.171875 25.484375 53.578125 
Q 30.03125 56 36.53125 56 
Q 37.453125 56 38.578125 55.875 
Q 39.703125 55.765625 41.0625 55.515625 
z
" id="DejaVuSans-114"/>
      <path d="M 48.6875 27.296875 
Q 48.6875 37.203125 44.609375 42.84375 
Q 40.53125 48.484375 33.40625 48.484375 
Q 26.265625 48.484375 22.1875 42.84375 
Q 18.109375 37.203125 18.109375 27.296875 
Q 18.109375 17.390625 22.1875 11.75 
Q 26.265625 6.109375 33.40625 6.109375 
Q 40.53125 6.109375 44.609375 11.75 
Q 48.6875 17.390625 48.6875 27.296875 
z
M 18.109375 46.390625 
Q 20.953125 51.265625 25.265625 53.625 
Q 29.59375 56 35.59375 56 
Q 45.5625 56 51.78125 48.09375 
Q 58.015625 40.1875 58.015625 27.296875 
Q 58.015625 14.40625 51.78125 6.484375 
Q 45.5625 -1.421875 35.59375 -1.421875 
Q 29.59375 -1.421875 25.265625 0.953125 
Q 20.953125 3.328125 18.109375 8.203125 
L 18.109375 0 
L 9.078125 0 
L 9.078125 75.984375 
L 18.109375 75.984375 
z
" id="DejaVuSans-98"/>
      <path d="M 34.28125 27.484375 
Q 23.390625 27.484375 19.1875 25 
Q 14.984375 22.515625 14.984375 16.5 
Q 14.984375 11.71875 18.140625 8.90625 
Q 21.296875 6.109375 26.703125 6.109375 
Q 34.1875 6.109375 38.703125 11.40625 
Q 43.21875 16.703125 43.21875 25.484375 
L 43.21875 27.484375 
z
M 52.203125 31.203125 
L 52.203125 0 
L 43.21875 0 
L 43.21875 8.296875 
Q 40.140625 3.328125 35.546875 0.953125 
Q 30.953125 -1.421875 24.3125 -1.421875 
Q 15.921875 -1.421875 10.953125 3.296875 
Q 6 8.015625 6 15.921875 
Q 6 25.140625 12.171875 29.828125 
Q 18.359375 34.515625 30.609375 34.515625 
L 43.21875 34.515625 
L 43.21875 35.40625 
Q 43.21875 41.609375 39.140625 45 
Q 35.0625 48.390625 27.6875 48.390625 
Q 23 48.390625 18.546875 47.265625 
Q 14.109375 46.140625 10.015625 43.890625 
L 10.015625 52.203125 
Q 14.9375 54.109375 19.578125 55.046875 
Q 24.21875 56 28.609375 56 
Q 40.484375 56 46.34375 49.84375 
Q 52.203125 43.703125 52.203125 31.203125 
z
" id="DejaVuSans-97"/>
      <path d="M 9.421875 75.984375 
L 18.40625 75.984375 
L 18.40625 0 
L 9.421875 0 
z
" id="DejaVuSans-108"/>
      <path d="M 32.171875 -5.078125 
Q 28.375 -14.84375 24.75 -17.8125 
Q 21.140625 -20.796875 15.09375 -20.796875 
L 7.90625 -20.796875 
L 7.90625 -13.28125 
L 13.1875 -13.28125 
Q 16.890625 -13.28125 18.9375 -11.515625 
Q 21 -9.765625 23.484375 -3.21875 
L 25.09375 0.875 
L 2.984375 54.6875 
L 12.5 54.6875 
L 29.59375 11.921875 
L 46.6875 54.6875 
L 56.203125 54.6875 
z
" id="DejaVuSans-121"/>
     </defs>
     <g style="fill:#262626;" transform="translate(16.318125 162.99)rotate(-90)scale(0.12 -0.12)">
      <use xlink:href="#DejaVuSans-80"/>
      <use x="60.287109" xlink:href="#DejaVuSans-114"/>
      <use x="101.369141" xlink:href="#DejaVuSans-111"/>
      <use x="162.550781" xlink:href="#DejaVuSans-98"/>
      <use x="226.027344" xlink:href="#DejaVuSans-97"/>
      <use x="287.306641" xlink:href="#DejaVuSans-98"/>
      <use x="350.783203" xlink:href="#DejaVuSans-105"/>
      <use x="378.566406" xlink:href="#DejaVuSans-108"/>
      <use x="406.349609" xlink:href="#DejaVuSans-105"/>
      <use x="434.132812" xlink:href="#DejaVuSans-116"/>
      <use x="473.341797" xlink:href="#DejaVuSans-121"/>
     </g>
    </g>
   </g>
   <g id="line2d_13">
    <path clip-path="url(#p7fa46df5d5)" d="M 65.025369 32.201761 
L 67.465158 47.42881 
L 69.904947 61.482905 
L 72.344735 74.454378 
L 74.784524 86.42665 
L 77.224313 97.476669 
L 79.664101 107.675494 
L 82.10389 117.08868 
L 84.543679 125.776754 
L 86.983467 133.795575 
L 89.423256 141.19669 
L 91.863045 148.027687 
L 94.912781 155.831282 
L 97.962516 162.890842 
L 101.012252 169.277326 
L 104.061988 175.054899 
L 107.111724 180.281612 
L 110.16146 185.009991 
L 113.211196 189.287547 
L 116.260931 193.157264 
L 119.310667 196.658027 
L 122.360403 199.82501 
L 125.410139 202.690046 
L 128.459875 205.281919 
L 132.119558 208.06808 
L 135.779241 210.538589 
L 139.438924 212.729207 
L 143.098607 214.671645 
L 147.368237 216.661478 
L 151.637867 218.390873 
L 155.907497 219.893912 
L 160.787075 221.37233 
L 166.276599 222.775449 
L 171.766124 223.947011 
L 177.865595 225.023425 
L 184.575014 225.983135 
L 192.504327 226.875618 
L 201.043588 227.609262 
L 211.412689 228.263266 
L 223.611633 228.795319 
L 238.860312 229.220595 
L 258.378621 229.530137 
L 287.046138 229.740229 
L 337.061806 229.84853 
L 369.389006 229.865514 
L 369.389006 229.865514 
" style="fill:none;stroke:#4c72b0;stroke-linecap:round;stroke-width:1.5;"/>
   </g>
   <g id="line2d_14">
    <path clip-path="url(#p7fa46df5d5)" d="M 65.025369 229.874489 
L 66.245264 229.82013 
L 66.855211 229.625535 
L 67.465158 229.16269 
L 68.075105 228.302386 
L 68.685052 226.925388 
L 69.294999 224.931834 
L 69.904947 222.246477 
L 70.514894 218.820853 
L 71.734788 209.687437 
L 72.954682 197.645792 
L 74.174577 183.12238 
L 76.004418 158.098887 
L 80.274048 97.430777 
L 82.10389 75.578684 
L 83.323784 63.46657 
L 84.543679 53.572975 
L 85.763573 45.992665 
L 86.37352 43.073704 
L 86.983467 40.727229 
L 87.593414 38.941705 
L 88.203362 37.701875 
L 88.813309 36.989192 
L 89.423256 36.782591 
L 90.033203 37.058437 
L 90.64315 37.791738 
L 91.253098 38.955726 
L 91.863045 40.522926 
L 93.082939 44.75307 
L 94.302833 50.253407 
L 95.522728 56.797531 
L 97.352569 68.098758 
L 99.792358 84.916076 
L 106.501777 132.353426 
L 108.941565 147.777598 
L 111.381354 161.611518 
L 113.211196 170.869344 
L 115.041037 179.1652 
L 116.870879 186.527601 
L 118.70072 193.005294 
L 120.530562 198.660518 
L 122.360403 203.562981 
L 124.190245 207.785722 
L 126.020086 211.401587 
L 127.849928 214.481072 
L 129.679769 217.090692 
L 131.509611 219.291878 
L 133.339452 221.140557 
L 135.169294 222.686966 
L 136.999135 223.975643 
L 138.828977 225.045783 
L 141.268765 226.19097 
L 143.708554 227.076047 
L 146.75829 227.900275 
L 149.808026 228.489482 
L 153.467709 228.975476 
L 158.347286 229.374538 
L 164.446758 229.638035 
L 174.205912 229.805282 
L 194.334169 229.869499 
L 369.389006 229.874489 
L 369.389006 229.874489 
" style="fill:none;stroke:#dd8452;stroke-linecap:round;stroke-width:1.5;"/>
   </g>
   <g id="line2d_15">
    <path clip-path="url(#p7fa46df5d5)" d="M 65.025369 229.874489 
L 79.054154 229.789624 
L 82.10389 229.540654 
L 83.933731 229.218457 
L 85.763573 228.689973 
L 87.593414 227.881034 
L 88.813309 227.147107 
L 90.033203 226.230367 
L 91.253098 225.108777 
L 92.472992 223.762283 
L 93.692886 222.173617 
L 94.912781 220.329015 
L 96.742622 217.0623 
L 98.572464 213.185968 
L 100.402305 208.712037 
L 102.232147 203.678002 
L 104.671935 196.204589 
L 107.721671 185.936703 
L 116.870879 154.099043 
L 119.310667 146.695166 
L 121.140509 141.737894 
L 122.97035 137.375112 
L 124.800192 133.664256 
L 126.020086 131.572955 
L 127.23998 129.797175 
L 128.459875 128.341424 
L 129.679769 127.206785 
L 130.899663 126.391633 
L 132.119558 125.891407 
L 133.339452 125.699286 
L 134.559346 125.805986 
L 135.779241 126.200148 
L 136.999135 126.868871 
L 138.219029 127.797486 
L 139.438924 128.970417 
L 141.268765 131.150934 
L 143.098607 133.783875 
L 144.928448 136.808016 
L 147.368237 141.341953 
L 150.417973 147.615062 
L 154.687603 157.063501 
L 163.226863 176.123198 
L 166.886546 183.686928 
L 169.936282 189.53158 
L 172.986018 194.903797 
L 176.035754 199.777622 
L 178.475542 203.31359 
L 180.915331 206.531528 
L 183.35512 209.441276 
L 185.794908 212.05664 
L 188.234697 214.394252 
L 190.674486 216.47254 
L 193.114274 218.311146 
L 196.16401 220.302766 
L 199.213746 221.989847 
L 202.263482 223.409686 
L 205.313218 224.597377 
L 208.972901 225.761329 
L 212.632584 226.687164 
L 216.902214 227.523828 
L 221.781791 228.229025 
L 227.271316 228.784289 
L 233.980735 229.224442 
L 242.519995 229.544667 
L 254.718938 229.753757 
L 276.067089 229.855425 
L 354.750274 229.874478 
L 369.389006 229.874486 
L 369.389006 229.874486 
" style="fill:none;stroke:#55a868;stroke-linecap:round;stroke-width:1.5;"/>
   </g>
   <g id="line2d_16">
    <path clip-path="url(#p7fa46df5d5)" d="M 65.025369 229.874489 
L 110.771407 229.76695 
L 116.870879 229.534493 
L 121.750456 229.134047 
L 125.410139 228.635798 
L 129.069822 227.906325 
L 132.119558 227.079637 
L 135.169294 226.01898 
L 138.219029 224.694843 
L 141.268765 223.083187 
L 144.318501 221.167453 
L 147.368237 218.940288 
L 150.417973 216.404808 
L 153.467709 213.575258 
L 157.127392 209.828233 
L 160.787075 205.759239 
L 165.666652 199.979893 
L 177.865595 185.306475 
L 181.525278 181.297896 
L 184.575014 178.23338 
L 187.62475 175.473515 
L 190.674486 173.060812 
L 193.114274 171.403131 
L 195.554063 170.00225 
L 197.993852 168.866833 
L 200.43364 168.002355 
L 202.873429 167.410069 
L 205.313218 167.088279 
L 207.753006 167.031489 
L 210.192795 167.231462 
L 212.632584 167.677207 
L 215.072372 168.355615 
L 217.512161 169.251529 
L 220.561897 170.651627 
L 223.611633 172.329897 
L 226.661369 174.249414 
L 230.321052 176.817824 
L 234.590682 180.097633 
L 240.080206 184.610029 
L 257.768674 199.406553 
L 263.258199 203.595857 
L 268.137776 207.040821 
L 273.017353 210.193903 
L 277.286983 212.702653 
L 281.556614 214.97624 
L 285.826244 217.018969 
L 290.095874 218.839565 
L 294.975451 220.66364 
L 299.855029 222.234493 
L 304.734606 223.575671 
L 310.22413 224.840205 
L 315.713655 225.878994 
L 321.813127 226.808044 
L 328.522545 227.603315 
L 336.451859 228.300185 
L 345.601066 228.858218 
L 356.580115 229.285087 
L 369.389006 229.570034 
L 369.389006 229.570034 
" style="fill:none;stroke:#c44e52;stroke-linecap:round;stroke-width:1.5;"/>
   </g>
   <g id="patch_3">
    <path d="M 49.807187 239.758125 
L 49.807187 22.318125 
" style="fill:none;stroke:#ffffff;stroke-linecap:square;stroke-linejoin:miter;stroke-width:1.25;"/>
   </g>
   <g id="patch_4">
    <path d="M 384.607188 239.758125 
L 384.607188 22.318125 
" style="fill:none;stroke:#ffffff;stroke-linecap:square;stroke-linejoin:miter;stroke-width:1.25;"/>
   </g>
   <g id="patch_5">
    <path d="M 49.807187 239.758125 
L 384.607188 239.758125 
" style="fill:none;stroke:#ffffff;stroke-linecap:square;stroke-linejoin:miter;stroke-width:1.25;"/>
   </g>
   <g id="patch_6">
    <path d="M 49.807187 22.318125 
L 384.607188 22.318125 
" style="fill:none;stroke:#ffffff;stroke-linecap:square;stroke-linejoin:miter;stroke-width:1.25;"/>
   </g>
   <g id="text_15">
    <!-- Gamma Distribution -->
    <defs>
     <path d="M 59.515625 10.40625 
L 59.515625 29.984375 
L 43.40625 29.984375 
L 43.40625 38.09375 
L 69.28125 38.09375 
L 69.28125 6.78125 
Q 63.578125 2.734375 56.6875 0.65625 
Q 49.8125 -1.421875 42 -1.421875 
Q 24.90625 -1.421875 15.25 8.5625 
Q 5.609375 18.5625 5.609375 36.375 
Q 5.609375 54.25 15.25 64.234375 
Q 24.90625 74.21875 42 74.21875 
Q 49.125 74.21875 55.546875 72.453125 
Q 61.96875 70.703125 67.390625 67.28125 
L 67.390625 56.78125 
Q 61.921875 61.421875 55.765625 63.765625 
Q 49.609375 66.109375 42.828125 66.109375 
Q 29.4375 66.109375 22.71875 58.640625 
Q 16.015625 51.171875 16.015625 36.375 
Q 16.015625 21.625 22.71875 14.15625 
Q 29.4375 6.6875 42.828125 6.6875 
Q 48.046875 6.6875 52.140625 7.59375 
Q 56.25 8.5 59.515625 10.40625 
z
" id="DejaVuSans-71"/>
     <path d="M 19.671875 64.796875 
L 19.671875 8.109375 
L 31.59375 8.109375 
Q 46.6875 8.109375 53.6875 14.9375 
Q 60.6875 21.78125 60.6875 36.53125 
Q 60.6875 51.171875 53.6875 57.984375 
Q 46.6875 64.796875 31.59375 64.796875 
z
M 9.8125 72.90625 
L 30.078125 72.90625 
Q 51.265625 72.90625 61.171875 64.09375 
Q 71.09375 55.28125 71.09375 36.53125 
Q 71.09375 17.671875 61.125 8.828125 
Q 51.171875 0 30.078125 0 
L 9.8125 0 
z
" id="DejaVuSans-68"/>
     <path d="M 44.28125 53.078125 
L 44.28125 44.578125 
Q 40.484375 46.53125 36.375 47.5 
Q 32.28125 48.484375 27.875 48.484375 
Q 21.1875 48.484375 17.84375 46.4375 
Q 14.5 44.390625 14.5 40.28125 
Q 14.5 37.15625 16.890625 35.375 
Q 19.28125 33.59375 26.515625 31.984375 
L 29.59375 31.296875 
Q 39.15625 29.25 43.1875 25.515625 
Q 47.21875 21.78125 47.21875 15.09375 
Q 47.21875 7.46875 41.1875 3.015625 
Q 35.15625 -1.421875 24.609375 -1.421875 
Q 20.21875 -1.421875 15.453125 -0.5625 
Q 10.6875 0.296875 5.421875 2 
L 5.421875 11.28125 
Q 10.40625 8.6875 15.234375 7.390625 
Q 20.0625 6.109375 24.8125 6.109375 
Q 31.15625 6.109375 34.5625 8.28125 
Q 37.984375 10.453125 37.984375 14.40625 
Q 37.984375 18.0625 35.515625 20.015625 
Q 33.0625 21.96875 24.703125 23.78125 
L 21.578125 24.515625 
Q 13.234375 26.265625 9.515625 29.90625 
Q 5.8125 33.546875 5.8125 39.890625 
Q 5.8125 47.609375 11.28125 51.796875 
Q 16.75 56 26.8125 56 
Q 31.78125 56 36.171875 55.265625 
Q 40.578125 54.546875 44.28125 53.078125 
z
" id="DejaVuSans-115"/>
     <path d="M 8.5 21.578125 
L 8.5 54.6875 
L 17.484375 54.6875 
L 17.484375 21.921875 
Q 17.484375 14.15625 20.5 10.265625 
Q 23.53125 6.390625 29.59375 6.390625 
Q 36.859375 6.390625 41.078125 11.03125 
Q 45.3125 15.671875 45.3125 23.6875 
L 45.3125 54.6875 
L 54.296875 54.6875 
L 54.296875 0 
L 45.3125 0 
L 45.3125 8.40625 
Q 42.046875 3.421875 37.71875 1 
Q 33.40625 -1.421875 27.6875 -1.421875 
Q 18.265625 -1.421875 13.375 4.4375 
Q 8.5 10.296875 8.5 21.578125 
z
M 31.109375 56 
z
" id="DejaVuSans-117"/>
    </defs>
    <g style="fill:#262626;" transform="translate(156.60625 16.318125)scale(0.12 -0.12)">
     <use xlink:href="#DejaVuSans-71"/>
     <use x="77.490234" xlink:href="#DejaVuSans-97"/>
     <use x="138.769531" xlink:href="#DejaVuSans-109"/>
     <use x="236.181641" xlink:href="#DejaVuSans-109"/>
     <use x="333.59375" xlink:href="#DejaVuSans-97"/>
     <use x="394.873047" xlink:href="#DejaVuSans-32"/>
     <use x="426.660156" xlink:href="#DejaVuSans-68"/>
     <use x="503.662109" xlink:href="#DejaVuSans-105"/>
     <use x="531.445312" xlink:href="#DejaVuSans-115"/>
     <use x="583.544922" xlink:href="#DejaVuSans-116"/>
     <use x="622.753906" xlink:href="#DejaVuSans-114"/>
     <use x="663.867188" xlink:href="#DejaVuSans-105"/>
     <use x="691.650391" xlink:href="#DejaVuSans-98"/>
     <use x="755.126953" xlink:href="#DejaVuSans-117"/>
     <use x="818.505859" xlink:href="#DejaVuSans-116"/>
     <use x="857.714844" xlink:href="#DejaVuSans-105"/>
     <use x="885.498047" xlink:href="#DejaVuSans-111"/>
     <use x="946.679688" xlink:href="#DejaVuSans-110"/>
    </g>
   </g>
   <g id="legend_1">
    <g id="patch_7">
     <path d="M 228.995 95.976875 
L 376.907188 95.976875 
Q 379.107188 95.976875 379.107188 93.776875 
L 379.107188 30.018125 
Q 379.107188 27.818125 376.907188 27.818125 
L 228.995 27.818125 
Q 226.795 27.818125 226.795 30.018125 
L 226.795 93.776875 
Q 226.795 95.976875 228.995 95.976875 
z
" style="fill:#eaeaf2;opacity:0.8;stroke:#cccccc;stroke-linejoin:miter;"/>
    </g>
    <g id="line2d_17">
     <path d="M 231.195 36.795156 
L 253.195 36.795156 
" style="fill:none;stroke:#4c72b0;stroke-linecap:round;stroke-width:1.5;"/>
    </g>
    <g id="line2d_18"/>
    <g id="text_16">
     <!-- Gamma(α=1, β=1) -->
     <defs>
      <path d="M 31 75.875 
Q 24.46875 64.65625 21.28125 53.65625 
Q 18.109375 42.671875 18.109375 31.390625 
Q 18.109375 20.125 21.3125 9.0625 
Q 24.515625 -2 31 -13.1875 
L 23.1875 -13.1875 
Q 15.875 -1.703125 12.234375 9.375 
Q 8.59375 20.453125 8.59375 31.390625 
Q 8.59375 42.28125 12.203125 53.3125 
Q 15.828125 64.359375 23.1875 75.875 
z
" id="DejaVuSans-40"/>
      <path d="M 41.3125 25.4375 
L 39.15625 36.71875 
Q 36.96875 48.296875 28.265625 48.296875 
Q 21.734375 48.296875 18.75 42.921875 
Q 14.984375 36.1875 14.984375 27.296875 
Q 14.984375 16.546875 18.65625 11.421875 
Q 22.359375 6.203125 28.265625 6.203125 
Q 34.8125 6.203125 38.328125 16.609375 
z
M 46.34375 40.375 
L 51.171875 54.6875 
L 59.1875 54.6875 
L 49.171875 25.046875 
L 51.125 14.359375 
Q 51.5625 11.96875 53.265625 9.96875 
Q 55.28125 7.625 56.84375 7.625 
L 61.140625 7.625 
L 61.140625 0 
L 55.765625 0 
Q 51.171875 0 47.078125 4.109375 
Q 45.0625 6.15625 44.234375 10.453125 
Q 42 5.03125 37.40625 0.78125 
Q 35.25 -1.21875 28.265625 -1.21875 
Q 16.796875 -1.21875 11.234375 6.203125 
Q 5.515625 13.875 5.515625 27.296875 
Q 5.515625 41.65625 11.71875 48.390625 
Q 18.609375 55.90625 28.265625 55.90625 
Q 43.453125 55.90625 46.34375 40.375 
z
" id="DejaVuSans-945"/>
      <path d="M 10.59375 45.40625 
L 73.1875 45.40625 
L 73.1875 37.203125 
L 10.59375 37.203125 
z
M 10.59375 25.484375 
L 73.1875 25.484375 
L 73.1875 17.1875 
L 10.59375 17.1875 
z
" id="DejaVuSans-61"/>
      <path d="M 11.71875 12.40625 
L 22.015625 12.40625 
L 22.015625 4 
L 14.015625 -11.625 
L 7.71875 -11.625 
L 11.71875 4 
z
" id="DejaVuSans-44"/>
      <path d="M 18.40625 3.375 
L 18.40625 -20.796875 
L 9.375 -20.796875 
L 9.375 54.34375 
Q 9.375 76.609375 30.171875 76.609375 
Q 51.375 76.609375 51.375 57.8125 
Q 51.375 44.4375 42.96875 39.546875 
Q 56.640625 35.15625 56.640625 22.125 
Q 56.640625 -1.03125 33.109375 -1.03125 
Q 22.75 -1.03125 18.40625 3.375 
z
M 18.40625 15.09375 
Q 23.828125 6.640625 33.453125 6.640625 
Q 47.515625 6.640625 47.515625 21.96875 
Q 47.515625 35.75 24.859375 34.671875 
L 24.859375 42.96875 
Q 42.578125 42.96875 42.578125 58.59375 
Q 42.578125 69.28125 31.15625 69.28125 
Q 18.40625 69.28125 18.40625 54.046875 
z
" id="DejaVuSans-946"/>
      <path d="M 8.015625 75.875 
L 15.828125 75.875 
Q 23.140625 64.359375 26.78125 53.3125 
Q 30.421875 42.28125 30.421875 31.390625 
Q 30.421875 20.453125 26.78125 9.375 
Q 23.140625 -1.703125 15.828125 -13.1875 
L 8.015625 -13.1875 
Q 14.5 -2 17.703125 9.0625 
Q 20.90625 20.125 20.90625 31.390625 
Q 20.90625 42.671875 17.703125 53.65625 
Q 14.5 64.65625 8.015625 75.875 
z
" id="DejaVuSans-41"/>
     </defs>
     <g style="fill:#262626;" transform="translate(261.995 40.645156)scale(0.11 -0.11)">
      <use xlink:href="#DejaVuSans-71"/>
      <use x="77.490234" xlink:href="#DejaVuSans-97"/>
      <use x="138.769531" xlink:href="#DejaVuSans-109"/>
      <use x="236.181641" xlink:href="#DejaVuSans-109"/>
      <use x="333.59375" xlink:href="#DejaVuSans-97"/>
      <use x="394.873047" xlink:href="#DejaVuSans-40"/>
      <use x="433.886719" xlink:href="#DejaVuSans-945"/>
      <use x="499.804688" xlink:href="#DejaVuSans-61"/>
      <use x="583.59375" xlink:href="#DejaVuSans-49"/>
      <use x="647.216797" xlink:href="#DejaVuSans-44"/>
      <use x="679.003906" xlink:href="#DejaVuSans-32"/>
      <use x="710.791016" xlink:href="#DejaVuSans-946"/>
      <use x="774.609375" xlink:href="#DejaVuSans-61"/>
      <use x="858.398438" xlink:href="#DejaVuSans-49"/>
      <use x="922.021484" xlink:href="#DejaVuSans-41"/>
     </g>
    </g>
    <g id="line2d_19">
     <path d="M 231.195 53.009844 
L 253.195 53.009844 
" style="fill:none;stroke:#dd8452;stroke-linecap:round;stroke-width:1.5;"/>
    </g>
    <g id="line2d_20"/>
    <g id="text_17">
     <!-- Gamma(α=5, β=5) -->
     <defs>
      <path d="M 10.796875 72.90625 
L 49.515625 72.90625 
L 49.515625 64.59375 
L 19.828125 64.59375 
L 19.828125 46.734375 
Q 21.96875 47.46875 24.109375 47.828125 
Q 26.265625 48.1875 28.421875 48.1875 
Q 40.625 48.1875 47.75 41.5 
Q 54.890625 34.8125 54.890625 23.390625 
Q 54.890625 11.625 47.5625 5.09375 
Q 40.234375 -1.421875 26.90625 -1.421875 
Q 22.3125 -1.421875 17.546875 -0.640625 
Q 12.796875 0.140625 7.71875 1.703125 
L 7.71875 11.625 
Q 12.109375 9.234375 16.796875 8.0625 
Q 21.484375 6.890625 26.703125 6.890625 
Q 35.15625 6.890625 40.078125 11.328125 
Q 45.015625 15.765625 45.015625 23.390625 
Q 45.015625 31 40.078125 35.4375 
Q 35.15625 39.890625 26.703125 39.890625 
Q 22.75 39.890625 18.8125 39.015625 
Q 14.890625 38.140625 10.796875 36.28125 
z
" id="DejaVuSans-53"/>
     </defs>
     <g style="fill:#262626;" transform="translate(261.995 56.859844)scale(0.11 -0.11)">
      <use xlink:href="#DejaVuSans-71"/>
      <use x="77.490234" xlink:href="#DejaVuSans-97"/>
      <use x="138.769531" xlink:href="#DejaVuSans-109"/>
      <use x="236.181641" xlink:href="#DejaVuSans-109"/>
      <use x="333.59375" xlink:href="#DejaVuSans-97"/>
      <use x="394.873047" xlink:href="#DejaVuSans-40"/>
      <use x="433.886719" xlink:href="#DejaVuSans-945"/>
      <use x="499.804688" xlink:href="#DejaVuSans-61"/>
      <use x="583.59375" xlink:href="#DejaVuSans-53"/>
      <use x="647.216797" xlink:href="#DejaVuSans-44"/>
      <use x="679.003906" xlink:href="#DejaVuSans-32"/>
      <use x="710.791016" xlink:href="#DejaVuSans-946"/>
      <use x="774.609375" xlink:href="#DejaVuSans-61"/>
      <use x="858.398438" xlink:href="#DejaVuSans-53"/>
      <use x="922.021484" xlink:href="#DejaVuSans-41"/>
     </g>
    </g>
    <g id="line2d_21">
     <path d="M 231.195 69.224531 
L 253.195 69.224531 
" style="fill:none;stroke:#55a868;stroke-linecap:round;stroke-width:1.5;"/>
    </g>
    <g id="line2d_22"/>
    <g id="text_18">
     <!-- Gamma(α=10, β=4) -->
     <g style="fill:#262626;" transform="translate(261.995 73.074531)scale(0.11 -0.11)">
      <use xlink:href="#DejaVuSans-71"/>
      <use x="77.490234" xlink:href="#DejaVuSans-97"/>
      <use x="138.769531" xlink:href="#DejaVuSans-109"/>
      <use x="236.181641" xlink:href="#DejaVuSans-109"/>
      <use x="333.59375" xlink:href="#DejaVuSans-97"/>
      <use x="394.873047" xlink:href="#DejaVuSans-40"/>
      <use x="433.886719" xlink:href="#DejaVuSans-945"/>
      <use x="499.804688" xlink:href="#DejaVuSans-61"/>
      <use x="583.59375" xlink:href="#DejaVuSans-49"/>
      <use x="647.216797" xlink:href="#DejaVuSans-48"/>
      <use x="710.839844" xlink:href="#DejaVuSans-44"/>
      <use x="742.626953" xlink:href="#DejaVuSans-32"/>
      <use x="774.414062" xlink:href="#DejaVuSans-946"/>
      <use x="838.232422" xlink:href="#DejaVuSans-61"/>
      <use x="922.021484" xlink:href="#DejaVuSans-52"/>
      <use x="985.644531" xlink:href="#DejaVuSans-41"/>
     </g>
    </g>
    <g id="line2d_23">
     <path d="M 231.195 85.439219 
L 253.195 85.439219 
" style="fill:none;stroke:#c44e52;stroke-linecap:round;stroke-width:1.5;"/>
    </g>
    <g id="line2d_24"/>
    <g id="text_19">
     <!-- Gamma(α=15, β=3) -->
     <defs>
      <path d="M 40.578125 39.3125 
Q 47.65625 37.796875 51.625 33 
Q 55.609375 28.21875 55.609375 21.1875 
Q 55.609375 10.40625 48.1875 4.484375 
Q 40.765625 -1.421875 27.09375 -1.421875 
Q 22.515625 -1.421875 17.65625 -0.515625 
Q 12.796875 0.390625 7.625 2.203125 
L 7.625 11.71875 
Q 11.71875 9.328125 16.59375 8.109375 
Q 21.484375 6.890625 26.8125 6.890625 
Q 36.078125 6.890625 40.9375 10.546875 
Q 45.796875 14.203125 45.796875 21.1875 
Q 45.796875 27.640625 41.28125 31.265625 
Q 36.765625 34.90625 28.71875 34.90625 
L 20.21875 34.90625 
L 20.21875 43.015625 
L 29.109375 43.015625 
Q 36.375 43.015625 40.234375 45.921875 
Q 44.09375 48.828125 44.09375 54.296875 
Q 44.09375 59.90625 40.109375 62.90625 
Q 36.140625 65.921875 28.71875 65.921875 
Q 24.65625 65.921875 20.015625 65.03125 
Q 15.375 64.15625 9.8125 62.3125 
L 9.8125 71.09375 
Q 15.4375 72.65625 20.34375 73.4375 
Q 25.25 74.21875 29.59375 74.21875 
Q 40.828125 74.21875 47.359375 69.109375 
Q 53.90625 64.015625 53.90625 55.328125 
Q 53.90625 49.265625 50.4375 45.09375 
Q 46.96875 40.921875 40.578125 39.3125 
z
" id="DejaVuSans-51"/>
     </defs>
     <g style="fill:#262626;" transform="translate(261.995 89.289219)scale(0.11 -0.11)">
      <use xlink:href="#DejaVuSans-71"/>
      <use x="77.490234" xlink:href="#DejaVuSans-97"/>
      <use x="138.769531" xlink:href="#DejaVuSans-109"/>
      <use x="236.181641" xlink:href="#DejaVuSans-109"/>
      <use x="333.59375" xlink:href="#DejaVuSans-97"/>
      <use x="394.873047" xlink:href="#DejaVuSans-40"/>
      <use x="433.886719" xlink:href="#DejaVuSans-945"/>
      <use x="499.804688" xlink:href="#DejaVuSans-61"/>
      <use x="583.59375" xlink:href="#DejaVuSans-49"/>
      <use x="647.216797" xlink:href="#DejaVuSans-53"/>
      <use x="710.839844" xlink:href="#DejaVuSans-44"/>
      <use x="742.626953" xlink:href="#DejaVuSans-32"/>
      <use x="774.414062" xlink:href="#DejaVuSans-946"/>
      <use x="838.232422" xlink:href="#DejaVuSans-61"/>
      <use x="922.021484" xlink:href="#DejaVuSans-51"/>
      <use x="985.644531" xlink:href="#DejaVuSans-41"/>
     </g>
    </g>
   </g>
  </g>
 </g>
 <defs>
  <clipPath id="p7fa46df5d5">
   <rect height="217.44" width="334.8" x="49.807187" y="22.318125"/>
  </clipPath>
 </defs>
</svg>
