<svg height="319.8" viewBox="0 0 562.2 239.9" width="749.5" xmlns="http://www.w3.org/2000/svg" xmlns:xlink="http://www.w3.org/1999/xlink"><defs><style>*{stroke-linecap:butt;stroke-linejoin:round}</style></defs><g id="figure_1"><path d="M0 239.9h562.2V0H0z" fill="#fff" id="patch_1"/><g id="axes_1"><path d="M58.2 196.8h215.2V7.2H58.2z" fill="#eaeaf2" id="patch_2"/><g id="matplotlib.axis_1"><g id="xtick_1"><path clip-path="url(#p453124f69a)" d="M84.2 196.8V7.2" fill="none" stroke="#fff" stroke-linecap="round" id="line2d_1"/><g id="text_1"><defs><path d="M10.6 35.5h62.6v-8.3H10.6z" id="DejaVuSans-8722"/><path d="M19.2 8.3h34.4V0H7.3v8.3l15.3 15.6q9.7 9.8 12.2 12.6 4.7 5.3 6.6 9 2 3.7 2 7.3 0 5.8-4.2 9.5-4 3.6-10.6 3.6-4.6 0-9.8-1.6-5.1-1.6-11-4.9v10q6 2.4 11.1 3.6 5.2 1.2 9.5 1.2 11.4 0 18-5.7 6.8-5.6 6.8-15 0-4.6-1.7-8.6-1.6-4-6-9.5l-7.9-8.2L19.2 8.3z" id="DejaVuSans-50"/></defs><g transform="matrix(.11 0 0 -.11 76 214.6)" fill="#262626"><use xlink:href="#DejaVuSans-8722"/><use x="83.8" xlink:href="#DejaVuSans-50"/></g></g></g><g id="xtick_2"><path clip-path="url(#p453124f69a)" d="M151.2 196.8V7.2" fill="none" stroke="#fff" stroke-linecap="round" id="line2d_2"/><g id="text_2"><defs><path d="M31.8 66.4q-7.6 0-11.5-7.5-3.8-7.5-3.8-22.5t3.8-22.5q3.9-7.5 11.5-7.5 7.7 0 11.5 7.5T47 36.4q0 15-3.8 22.5t-11.5 7.5zm0 7.8q12.2 0 18.7-9.7T57 36.4Q57 18 50.5 8.3 44-1.4 31.8-1.4 19.5-1.4 13 8.3q-6.5 9.7-6.5 28 0 18.5 6.5 28.2 6.4 9.7 18.7 9.7z" id="DejaVuSans-48"/></defs><use xlink:href="#DejaVuSans-48" transform="matrix(.11 0 0 -.11 147.7 214.6)" fill="#262626"/></g></g><g id="xtick_3"><path clip-path="url(#p453124f69a)" d="M218.2 196.8V7.2" fill="none" stroke="#fff" stroke-linecap="round" id="line2d_3"/><use xlink:href="#DejaVuSans-50" transform="matrix(.11 0 0 -.11 214.7 214.6)" fill="#262626" id="text_3"/></g><g id="text_4"><defs><path d="M54.9 54.7L35 28 56 0H45.3l-16 21.5L13.6 0H2.9L24 28.6l-19.4 26h10.6l14.5-19.4 14.5 19.5z" id="DejaVuSans-120"/><path d="M51-16.6v-7H-1v7z" id="DejaVuSans-95"/></defs><g transform="matrix(.12 0 0 -.12 155.4 229.8)" fill="#262626"><use xlink:href="#DejaVuSans-120"/><use x="59.2" xlink:href="#DejaVuSans-95"/><use x="109.2" xlink:href="#DejaVuSans-48"/></g></g></g><g id="matplotlib.axis_2"><g id="ytick_1"><path clip-path="url(#p453124f69a)" d="M58.2 155.3h215.2" fill="none" stroke="#fff" stroke-linecap="round" id="line2d_4"/><g id="text_5"><defs><path d="M12.4 8.3h16.1v55.6L11 60.4v9l17.4 3.5h9.9V8.3h16V0H12.5z" id="DejaVuSans-49"/></defs><g transform="matrix(.11 0 0 -.11 22.8 159.4)" fill="#262626"><use transform="translate(0 .7)" xlink:href="#DejaVuSans-49"/><use transform="translate(63.6 .7)" xlink:href="#DejaVuSans-48"/><use transform="matrix(.7 0 0 .7 128.2 39)" xlink:href="#DejaVuSans-8722"/><use transform="matrix(.7 0 0 .7 186.9 39)" xlink:href="#DejaVuSans-49"/></g></g></g><g id="ytick_2"><path clip-path="url(#p453124f69a)" d="M58.2 111.7h215.2" fill="none" stroke="#fff" stroke-linecap="round" id="line2d_5"/><g transform="matrix(.11 0 0 -.11 29.3 115.9)" fill="#262626" id="text_6"><use transform="translate(0 .8)" xlink:href="#DejaVuSans-49"/><use transform="translate(63.6 .8)" xlink:href="#DejaVuSans-48"/><use transform="matrix(.7 0 0 .7 128.2 39)" xlink:href="#DejaVuSans-48"/></g></g><g id="ytick_3"><path clip-path="url(#p453124f69a)" d="M58.2 68.1h215.2" fill="none" stroke="#fff" stroke-linecap="round" id="line2d_6"/><g transform="matrix(.11 0 0 -.11 29.3 72.3)" fill="#262626" id="text_7"><use transform="translate(0 .7)" xlink:href="#DejaVuSans-49"/><use transform="translate(63.6 .7)" xlink:href="#DejaVuSans-48"/><use transform="matrix(.7 0 0 .7 128.2 39)" xlink:href="#DejaVuSans-49"/></g></g><g id="ytick_4"><path clip-path="url(#p453124f69a)" d="M58.2 24.6h215.2" fill="none" stroke="#fff" stroke-linecap="round" id="line2d_7"/><g transform="matrix(.11 0 0 -.11 29.3 28.7)" fill="#262626" id="text_8"><use transform="translate(0 .8)" xlink:href="#DejaVuSans-49"/><use transform="translate(63.6 .8)" xlink:href="#DejaVuSans-48"/><use transform="matrix(.7 0 0 .7 128.2 39)" xlink:href="#DejaVuSans-50"/></g></g><g id="text_9"><defs><path d="M-.3 73h61.7v-8.4H35.5V0h-10v64.6H-.2z" id="DejaVuSans-84"/><path d="M9.4 54.7h9V0h-9zm0 21.3h9V64.6h-9z" id="DejaVuSans-105"/><path d="M52 44.2q3.4 6 8 9Q64.9 56 71 56q8.6 0 13.3-6 4.6-6 4.6-17V0h-9v32.7q0 7.9-2.8 11.7-2.8 3.8-8.5 3.8-7 0-11-4.7-4-4.6-4-12.6V0h-9.1v32.7q0 8-2.8 11.7-2.8 3.8-8.6 3.8-6.9 0-11-4.7-4-4.6-4-12.6V0h-9v54.7h9v-8.5q3 5 7.4 7.4Q29.8 56 35.7 56q6 0 10.1-3 4.2-3 6.2-8.8z" id="DejaVuSans-109"/><path d="M56.2 29.6v-4.4H14.9q.6-9.3 5.6-14.1 5-4.9 14-4.9 5 0 10 1.3 4.8 1.2 9.6 3.8V2.8q-4.8-2-10-3.1-5-1.1-10.2-1.1-13.1 0-20.7 7.6-7.7 7.6-7.7 20.6 0 13.4 7.3 21.3Q20 56 32.3 56q11 0 17.5-7.1 6.4-7.1 6.4-19.3zm-9 2.6q0 7.4-4.1 11.8-4 4.4-10.7 4.4-7.5 0-12-4.3-4.5-4.2-5.2-12z" id="DejaVuSans-101"/><path d="M18.3 70.2V54.7h18.5v-7H18.3V18q0-6.7 1.8-8.6 1.9-1.9 7.5-1.9h9.2V0h-9.2Q17.2 0 13.2 3.9T9.2 18v29.7H2.8v7h6.6v15.5z" id="DejaVuSans-116"/><path d="M30.6 48.4q-7.2 0-11.4-5.6Q15 37 15 27.3t4.2-15.5q4.1-5.6 11.4-5.6 7.2 0 11.4 5.7 4.2 5.6 4.2 15.4 0 9.7-4.2 15.4-4.2 5.7-11.4 5.7zm0 7.6q11.7 0 18.4-7.6 6.7-7.6 6.7-21.1 0-13.4-6.7-21-6.7-7.7-18.4-7.7-11.8 0-18.4 7.6Q5.5 14 5.5 27.3q0 13.5 6.7 21Q18.8 56 30.6 56z" id="DejaVuSans-111"/><path d="M3 54.7h9.5l17-45.9 17.2 45.9h9.5L35.7 0H23.5z" id="DejaVuSans-118"/><path d="M54.9 33V0h-9v32.7q0 7.8-3 11.6-3 3.9-9.1 3.9-7.3 0-11.5-4.7Q18.1 39 18.1 31V0h-9v54.7h9v-8.5q3.2 5 7.6 7.4Q30.1 56 35.8 56q9.4 0 14.2-5.8Q55 44.3 55 33z" id="DejaVuSans-110"/></defs><g transform="matrix(0 -.12 -.12 0 16.3 143.8)" fill="#262626"><use xlink:href="#DejaVuSans-84"/><use x="61" xlink:href="#DejaVuSans-105"/><use x="88.8" xlink:href="#DejaVuSans-109"/><use x="186.2" xlink:href="#DejaVuSans-101"/><use x="247.8" xlink:href="#DejaVuSans-32"/><use x="279.5" xlink:href="#DejaVuSans-116"/><use x="318.8" xlink:href="#DejaVuSans-111"/><use x="379.9" xlink:href="#DejaVuSans-32"/><use x="411.7" xlink:href="#DejaVuSans-101"/><use x="473.2" xlink:href="#DejaVuSans-118"/><use x="532.4" xlink:href="#DejaVuSans-101"/><use x="593.9" xlink:href="#DejaVuSans-110"/><use x="657.3" xlink:href="#DejaVuSans-116"/></g></g></g><g id="line2d_8"><defs><path d="M0 1.5a1.5 1.5 0 100-3 1.5 1.5 0 000 3z" id="m1444d7611f" stroke="#4c72b0"/></defs><g clip-path="url(#p453124f69a)" fill="#4c72b0" stroke="#4c72b0"><use x="166.9" xlink:href="#m1444d7611f" y="151.5"/><use x="100.6" xlink:href="#m1444d7611f" y="74.8"/><use x="191.8" xlink:href="#m1444d7611f" y="93.4"/><use x="155.2" xlink:href="#m1444d7611f" y="103.6"/><use x="122.3" xlink:href="#m1444d7611f" y="110.4"/><use x="134.6" xlink:href="#m1444d7611f" y="80.1"/><use x="175.3" xlink:href="#m1444d7611f" y="90.2"/><use x="116.4" xlink:href="#m1444d7611f" y="169.6"/><use x="136.9" xlink:href="#m1444d7611f" y="83.3"/><use x="160.4" xlink:href="#m1444d7611f" y="174.3"/><use x="128.6" xlink:href="#m1444d7611f" y="63.9"/><use x="101.7" xlink:href="#m1444d7611f" y="47.8"/><use x="164.7" xlink:href="#m1444d7611f" y="101.7"/><use x="93.7" xlink:href="#m1444d7611f" y="86.3"/><use x="138.8" xlink:href="#m1444d7611f" y="75.3"/><use x="106.1" xlink:href="#m1444d7611f" y="37.2"/><use x="187.2" xlink:href="#m1444d7611f" y="123.8"/><use x="206.2" xlink:href="#m1444d7611f" y="115.8"/><use x="163.1" xlink:href="#m1444d7611f" y="102.9"/><use x="91.7" xlink:href="#m1444d7611f" y="74.6"/><use x="107.8" xlink:href="#m1444d7611f" y="36.5"/><use x="160.4" xlink:href="#m1444d7611f" y="107"/><use x="150.7" xlink:href="#m1444d7611f" y="102"/><use x="151" xlink:href="#m1444d7611f" y="118.1"/><use x="181.2" xlink:href="#m1444d7611f" y="102.5"/><use x="110.8" xlink:href="#m1444d7611f" y="50.7"/><use x="199.1" xlink:href="#m1444d7611f" y="163.2"/><use x="112" xlink:href="#m1444d7611f" y="49.9"/><use x="164.9" xlink:href="#m1444d7611f" y="79.3"/><use x="155.6" xlink:href="#m1444d7611f" y="82.9"/><use x="148.6" xlink:href="#m1444d7611f" y="85.4"/><use x="189" xlink:href="#m1444d7611f" y="188.2"/><use x="103.8" xlink:href="#m1444d7611f" y="52.5"/><use x="185.5" xlink:href="#m1444d7611f" y="91.2"/><use x="180.5" xlink:href="#m1444d7611f" y="144.6"/><use x="183.8" xlink:href="#m1444d7611f" y="145"/><use x="137.4" xlink:href="#m1444d7611f" y="80.3"/><use x="169.5" xlink:href="#m1444d7611f" y="165.3"/><use x="110.1" xlink:href="#m1444d7611f" y="42.8"/><use x="108.3" xlink:href="#m1444d7611f" y="86.1"/><use x="147.1" xlink:href="#m1444d7611f" y="52.2"/><use x="174.5" xlink:href="#m1444d7611f" y="73.3"/><use x="183.3" xlink:href="#m1444d7611f" y="125"/><use x="130.4" xlink:href="#m1444d7611f" y="64.8"/><use x="126.6" xlink:href="#m1444d7611f" y="69.1"/><use x="157.1" xlink:href="#m1444d7611f" y="57.6"/><use x="146" xlink:href="#m1444d7611f" y="116.2"/><use x="78.2" xlink:href="#m1444d7611f" y="45.7"/><use x="119.2" xlink:href="#m1444d7611f" y="34.5"/><use x="92.8" xlink:href="#m1444d7611f" y="60.9"/><use x="139.6" xlink:href="#m1444d7611f" y="38.6"/><use x="174.3" xlink:href="#m1444d7611f" y="77.8"/><use x="231.5" xlink:href="#m1444d7611f" y="101.1"/><use x="263.7" xlink:href="#m1444d7611f" y="116.1"/><use x="109.8" xlink:href="#m1444d7611f" y="33.7"/><use x="134.8" xlink:href="#m1444d7611f" y="83"/><use x="78.1" xlink:href="#m1444d7611f" y="15.8"/><use x="154" xlink:href="#m1444d7611f" y="71.2"/><use x="202.1" xlink:href="#m1444d7611f" y="125.1"/><use x="171.3" xlink:href="#m1444d7611f" y="80.6"/><use x="155.6" xlink:href="#m1444d7611f" y="80.2"/><use x="231.9" xlink:href="#m1444d7611f" y="122.3"/><use x="158.1" xlink:href="#m1444d7611f" y="73.4"/><use x="77" xlink:href="#m1444d7611f" y="111.4"/><use x="193.6" xlink:href="#m1444d7611f" y="150.8"/><use x="122.2" xlink:href="#m1444d7611f" y="40.6"/><use x="116.1" xlink:href="#m1444d7611f" y="71"/><use x="118.1" xlink:href="#m1444d7611f" y="44"/><use x="193.5" xlink:href="#m1444d7611f" y="64.6"/><use x="153.9" xlink:href="#m1444d7611f" y="128.3"/><use x="169.2" xlink:href="#m1444d7611f" y="115.1"/><use x="163.6" xlink:href="#m1444d7611f" y="72"/><use x="67.9" xlink:href="#m1444d7611f" y="58.8"/><use x="152.2" xlink:href="#m1444d7611f" y="68.7"/><use x="188.9" xlink:href="#m1444d7611f" y="109.3"/><use x="200.6" xlink:href="#m1444d7611f" y="154.8"/><use x="108.2" xlink:href="#m1444d7611f" y="32.1"/><use x="115.3" xlink:href="#m1444d7611f" y="56.8"/><use x="230" xlink:href="#m1444d7611f" y="98.7"/><use x="158.6" xlink:href="#m1444d7611f" y="88.1"/><use x="176.6" xlink:href="#m1444d7611f" y="51.3"/><use x="118.9" xlink:href="#m1444d7611f" y="127.7"/><use x="106.3" xlink:href="#m1444d7611f" y="65.9"/><use x="106.7" xlink:href="#m1444d7611f" y="27.9"/><use x="93.6" xlink:href="#m1444d7611f" y="22.8"/><use x="158.8" xlink:href="#m1444d7611f" y="64.9"/><use x="190.4" xlink:href="#m1444d7611f" y="77.6"/><use x="111.1" xlink:href="#m1444d7611f" y="94.2"/><use x="141" xlink:href="#m1444d7611f" y="152.2"/><use x="161.5" xlink:href="#m1444d7611f" y="99.1"/><use x="164.1" xlink:href="#m1444d7611f" y="43.6"/><use x="204.4" xlink:href="#m1444d7611f" y="130.4"/><use x="167" xlink:href="#m1444d7611f" y="70.7"/><use x="150.7" xlink:href="#m1444d7611f" y="65.4"/><use x="173" xlink:href="#m1444d7611f" y="108.1"/><use x="113.1" xlink:href="#m1444d7611f" y="86.2"/><use x="127.9" xlink:href="#m1444d7611f" y="28"/><use x="166.7" xlink:href="#m1444d7611f" y="122"/><use x="134.5" xlink:href="#m1444d7611f" y="75.9"/><use x="74.4" xlink:href="#m1444d7611f" y="69.3"/></g></g><g id="line2d_9"><defs><path d="M0 3a3 3 0 100-6 3 3 0 000 6z" id="m0526be6353" stroke="#c44e52"/></defs><g clip-path="url(#p453124f69a)" fill="#c44e52" stroke="#c44e52"><use x="100.6" xlink:href="#m0526be6353" y="74.8"/><use x="136.9" xlink:href="#m0526be6353" y="83.3"/><use x="128.6" xlink:href="#m0526be6353" y="63.9"/><use x="101.7" xlink:href="#m0526be6353" y="47.8"/><use x="138.8" xlink:href="#m0526be6353" y="75.3"/><use x="106.1" xlink:href="#m0526be6353" y="37.2"/><use x="91.7" xlink:href="#m0526be6353" y="74.6"/><use x="107.8" xlink:href="#m0526be6353" y="36.5"/><use x="110.8" xlink:href="#m0526be6353" y="50.7"/><use x="112" xlink:href="#m0526be6353" y="49.9"/><use x="155.6" xlink:href="#m0526be6353" y="82.9"/><use x="103.8" xlink:href="#m0526be6353" y="52.5"/><use x="137.4" xlink:href="#m0526be6353" y="80.3"/><use x="110.1" xlink:href="#m0526be6353" y="42.8"/><use x="108.3" xlink:href="#m0526be6353" y="86.1"/><use x="147.1" xlink:href="#m0526be6353" y="52.2"/><use x="174.5" xlink:href="#m0526be6353" y="73.3"/><use x="130.4" xlink:href="#m0526be6353" y="64.8"/><use x="126.6" xlink:href="#m0526be6353" y="69.1"/><use x="157.1" xlink:href="#m0526be6353" y="57.6"/><use x="78.2" xlink:href="#m0526be6353" y="45.7"/><use x="119.2" xlink:href="#m0526be6353" y="34.5"/><use x="92.8" xlink:href="#m0526be6353" y="60.9"/><use x="139.6" xlink:href="#m0526be6353" y="38.6"/><use x="231.5" xlink:href="#m0526be6353" y="101.1"/><use x="263.7" xlink:href="#m0526be6353" y="116.1"/><use x="109.8" xlink:href="#m0526be6353" y="33.7"/><use x="134.8" xlink:href="#m0526be6353" y="83"/><use x="78.1" xlink:href="#m0526be6353" y="15.8"/><use x="154" xlink:href="#m0526be6353" y="71.2"/><use x="158.1" xlink:href="#m0526be6353" y="73.4"/><use x="122.2" xlink:href="#m0526be6353" y="40.6"/><use x="116.1" xlink:href="#m0526be6353" y="71"/><use x="118.1" xlink:href="#m0526be6353" y="44"/><use x="193.5" xlink:href="#m0526be6353" y="64.6"/><use x="163.6" xlink:href="#m0526be6353" y="72"/><use x="67.9" xlink:href="#m0526be6353" y="58.8"/><use x="152.2" xlink:href="#m0526be6353" y="68.7"/><use x="108.2" xlink:href="#m0526be6353" y="32.1"/><use x="115.3" xlink:href="#m0526be6353" y="56.8"/><use x="158.6" xlink:href="#m0526be6353" y="88.1"/><use x="176.6" xlink:href="#m0526be6353" y="51.3"/><use x="106.3" xlink:href="#m0526be6353" y="65.9"/><use x="106.7" xlink:href="#m0526be6353" y="27.9"/><use x="93.6" xlink:href="#m0526be6353" y="22.8"/><use x="158.8" xlink:href="#m0526be6353" y="64.9"/><use x="190.4" xlink:href="#m0526be6353" y="77.6"/><use x="164.1" xlink:href="#m0526be6353" y="43.6"/><use x="167" xlink:href="#m0526be6353" y="70.7"/><use x="150.7" xlink:href="#m0526be6353" y="65.4"/><use x="127.9" xlink:href="#m0526be6353" y="28"/><use x="134.5" xlink:href="#m0526be6353" y="75.9"/><use x="74.4" xlink:href="#m0526be6353" y="69.3"/></g></g><path d="M58.2 196.8V7.2" fill="none" stroke="#fff" stroke-linecap="square" stroke-width="1.3" id="patch_3"/><path d="M273.4 196.8V7.2" fill="none" stroke="#fff" stroke-linecap="square" stroke-width="1.3" id="patch_4"/><path d="M58.2 196.8h215.2" fill="none" stroke="#fff" stroke-linecap="square" stroke-width="1.3" id="patch_5"/><path d="M58.2 7.2h215.2" fill="none" stroke="#fff" stroke-linecap="square" stroke-width="1.3" id="patch_6"/><g id="legend_1"><path d="M177.6 48.3h88.1q2.2 0 2.2-2.2V14.9q0-2.2-2.2-2.2h-88q-2.3 0-2.3 2.2v31.2q0 2.2 2.2 2.2z" fill="#eaeaf2" opacity=".8" stroke="#ccc" id="patch_7"/><use x="190.8" xlink:href="#m1444d7611f" y="21.6" fill="#4c72b0" stroke="#4c72b0" id="line2d_11"/><g id="text_10"><defs><path d="M39.4 66.2q-10.7 0-17-8-6.4-8-6.4-21.8t6.3-21.8q6.4-8 17.1-8 10.7 0 17 8 6.3 8 6.3 21.8t-6.3 21.8q-6.3 8-17 8zm0 8Q54.7 74.2 64 64q9.2-10.2 9.2-27.5T63.9 8.9Q54.7-1.4 39.4-1.4 24-1.4 14.8 8.8 5.6 19.1 5.6 36.4t9.2 27.5Q24 74.2 39.4 74.2z" id="DejaVuSans-79"/><path d="M48.7 27.3q0 9.9-4 15.5-4.2 5.7-11.3 5.7-7.1 0-11.2-5.7-4-5.6-4-15.5 0-10 4-15.6t11.2-5.6q7.1 0 11.2 5.7 4 5.6 4 15.5zM18 46.3q2.9 5 7.2 7.3Q29.6 56 35.6 56q10 0 16.2-8Q58 40.3 58 27.4q0-12.9-6.2-20.8-6.2-8-16.2-8-6 0-10.3 2.5Q21 3.3 18 8.2V0h-9v76h9z" id="DejaVuSans-98"/><path d="M44.3 53v-8.4q-3.8 2-8 2.9-4 1-8.4 1-6.7 0-10-2-3.4-2.1-3.4-6.2 0-3.1 2.4-5 2.4-1.7 9.6-3.3l3-.7q9.7-2 13.7-5.8 4-3.7 4-10.4 0-7.6-6-12-6-4.5-16.6-4.5-4.4 0-9.1.8-4.8.9-10 2.6v9.3q5-2.6 9.7-4 4.9-1.2 9.6-1.2 6.4 0 9.8 2.2 3.4 2.2 3.4 6.1 0 3.7-2.5 5.6-2.4 2-10.8 3.8l-3.1.7q-8.4 1.8-12 5.4-3.8 3.6-3.8 10 0 7.7 5.5 11.9Q16.7 56 26.8 56q5 0 9.4-.7 4.4-.8 8-2.2z" id="DejaVuSans-115"/><path d="M41.1 46.3q-1.5.9-3.3 1.3-1.8.4-4 .4-7.5 0-11.6-5-4-5-4-14.2V0H9v54.7h9v-8.5q2.9 5 7.4 7.4Q30 56 36.5 56l2-.1 2.6-.4z" id="DejaVuSans-114"/><path d="M45.4 46.4V76h9V0h-9v8.2Q42.6 3.3 38.3 1q-4.4-2.4-10.4-2.4-10 0-16.2 7.9-6.2 8-6.2 20.8 0 12.9 6.2 20.8Q18 56 28 56q6 0 10.4-2.4 4.3-2.3 7.1-7.2zM14.8 27.3q0-10 4-15.6Q23 6.2 30.2 6.2q7.1 0 11.2 5.7 4.1 5.6 4.1 15.5t-4.1 15.5q-4.1 5.7-11.2 5.7t-11.2-5.7q-4.1-5.6-4.1-15.5z" id="DejaVuSans-100"/></defs><g transform="matrix(.11 0 0 -.11 210.6 25.5)" fill="#262626"><use xlink:href="#DejaVuSans-79"/><use x="78.7" xlink:href="#DejaVuSans-98"/><use x="142.2" xlink:href="#DejaVuSans-115"/><use x="194.3" xlink:href="#DejaVuSans-101"/><use x="255.8" xlink:href="#DejaVuSans-114"/><use x="296.9" xlink:href="#DejaVuSans-118"/><use x="356.1" xlink:href="#DejaVuSans-101"/><use x="417.6" xlink:href="#DejaVuSans-100"/></g></g><use x="190.8" xlink:href="#m0526be6353" y="37.8" fill="#c44e52" stroke="#c44e52" id="line2d_13"/><g id="text_11"><defs><path d="M64.4 67.3V56.9q-5 4.6-10.6 7Q48 66 41.8 66q-12.5 0-19.1-7.6Q16 50.8 16 36.4q0-14.4 6.7-22 6.6-7.7 19.1-7.7 6.3 0 12 2.3 5.6 2.3 10.6 7V5.5q-5.2-3.5-11-5.3-5.7-1.7-12.2-1.7-16.5 0-26 10.1-9.6 10.1-9.6 27.7T15.1 64q9.6 10.1 26.1 10.1 6.5 0 12.3-1.7 5.8-1.8 11-5.2z" id="DejaVuSans-67"/></defs><g transform="matrix(.11 0 0 -.11 210.6 41.6)" fill="#262626"><use xlink:href="#DejaVuSans-67"/><use x="69.8" xlink:href="#DejaVuSans-101"/><use x="131.3" xlink:href="#DejaVuSans-110"/><use x="194.7" xlink:href="#DejaVuSans-115"/><use x="246.8" xlink:href="#DejaVuSans-111"/><use x="308" xlink:href="#DejaVuSans-114"/><use x="349.1" xlink:href="#DejaVuSans-101"/><use x="410.6" xlink:href="#DejaVuSans-100"/></g></g></g></g><g id="axes_2"><path d="M339.7 196.8H555V7.2H339.7z" fill="#eaeaf2" id="patch_8"/><g id="matplotlib.axis_3"><g id="xtick_4"><path clip-path="url(#p869de31faf)" d="M358.1 196.8V7.2" fill="none" stroke="#fff" stroke-linecap="round" id="line2d_14"/><g transform="matrix(.11 0 0 -.11 350 214.6)" fill="#262626" id="text_12"><use xlink:href="#DejaVuSans-8722"/><use x="83.8" xlink:href="#DejaVuSans-50"/></g></g><g id="xtick_5"><path clip-path="url(#p869de31faf)" d="M399.1 196.8V7.2" fill="none" stroke="#fff" stroke-linecap="round" id="line2d_15"/><g transform="matrix(.11 0 0 -.11 391 214.6)" fill="#262626" id="text_13"><use xlink:href="#DejaVuSans-8722"/><use x="83.8" xlink:href="#DejaVuSans-49"/></g></g><g id="xtick_6"><path clip-path="url(#p869de31faf)" d="M440 196.8V7.2" fill="none" stroke="#fff" stroke-linecap="round" id="line2d_16"/><use xlink:href="#DejaVuSans-48" transform="matrix(.11 0 0 -.11 436.6 214.6)" fill="#262626" id="text_14"/></g><g id="xtick_7"><path clip-path="url(#p869de31faf)" d="M481 196.8V7.2" fill="none" stroke="#fff" stroke-linecap="round" id="line2d_17"/><use xlink:href="#DejaVuSans-49" transform="matrix(.11 0 0 -.11 477.5 214.6)" fill="#262626" id="text_15"/></g><g id="xtick_8"><path clip-path="url(#p869de31faf)" d="M522 196.8V7.2" fill="none" stroke="#fff" stroke-linecap="round" id="line2d_18"/><use xlink:href="#DejaVuSans-50" transform="matrix(.11 0 0 -.11 518.5 214.6)" fill="#262626" id="text_16"/></g><g transform="matrix(.12 0 0 -.12 437 229.7)" fill="#262626" id="text_17"><use xlink:href="#DejaVuSans-120"/><use x="59.2" xlink:href="#DejaVuSans-95"/><use x="109.2" xlink:href="#DejaVuSans-49"/></g></g><g id="matplotlib.axis_4"><g id="ytick_38"><path clip-path="url(#p869de31faf)" d="M339.7 155.3H555" fill="none" stroke="#fff" stroke-linecap="round" id="line2d_19"/><g transform="matrix(.11 0 0 -.11 304.3 159.4)" fill="#262626" id="text_18"><use transform="translate(0 .7)" xlink:href="#DejaVuSans-49"/><use transform="translate(63.6 .7)" xlink:href="#DejaVuSans-48"/><use transform="matrix(.7 0 0 .7 128.2 39)" xlink:href="#DejaVuSans-8722"/><use transform="matrix(.7 0 0 .7 186.9 39)" xlink:href="#DejaVuSans-49"/></g></g><g id="ytick_39"><path clip-path="url(#p869de31faf)" d="M339.7 111.7H555" fill="none" stroke="#fff" stroke-linecap="round" id="line2d_20"/><g transform="matrix(.11 0 0 -.11 310.8 115.9)" fill="#262626" id="text_19"><use transform="translate(0 .8)" xlink:href="#DejaVuSans-49"/><use transform="translate(63.6 .8)" xlink:href="#DejaVuSans-48"/><use transform="matrix(.7 0 0 .7 128.2 39)" xlink:href="#DejaVuSans-48"/></g></g><g id="ytick_40"><path clip-path="url(#p869de31faf)" d="M339.7 68.1H555" fill="none" stroke="#fff" stroke-linecap="round" id="line2d_21"/><g transform="matrix(.11 0 0 -.11 310.8 72.3)" fill="#262626" id="text_20"><use transform="translate(0 .7)" xlink:href="#DejaVuSans-49"/><use transform="translate(63.6 .7)" xlink:href="#DejaVuSans-48"/><use transform="matrix(.7 0 0 .7 128.2 39)" xlink:href="#DejaVuSans-49"/></g></g><g id="ytick_41"><path clip-path="url(#p869de31faf)" d="M339.7 24.6H555" fill="none" stroke="#fff" stroke-linecap="round" id="line2d_22"/><g transform="matrix(.11 0 0 -.11 310.8 28.7)" fill="#262626" id="text_21"><use transform="translate(0 .8)" xlink:href="#DejaVuSans-49"/><use transform="translate(63.6 .8)" xlink:href="#DejaVuSans-48"/><use transform="matrix(.7 0 0 .7 128.2 39)" xlink:href="#DejaVuSans-50"/></g></g><g transform="matrix(0 -.12 -.12 0 297.8 143.8)" fill="#262626" id="text_22"><use xlink:href="#DejaVuSans-84"/><use x="61" xlink:href="#DejaVuSans-105"/><use x="88.8" xlink:href="#DejaVuSans-109"/><use x="186.2" xlink:href="#DejaVuSans-101"/><use x="247.8" xlink:href="#DejaVuSans-32"/><use x="279.5" xlink:href="#DejaVuSans-116"/><use x="318.8" xlink:href="#DejaVuSans-111"/><use x="379.9" xlink:href="#DejaVuSans-32"/><use x="411.7" xlink:href="#DejaVuSans-101"/><use x="473.2" xlink:href="#DejaVuSans-118"/><use x="532.4" xlink:href="#DejaVuSans-101"/><use x="593.9" xlink:href="#DejaVuSans-110"/><use x="657.3" xlink:href="#DejaVuSans-116"/></g></g><g clip-path="url(#p869de31faf)" fill="#4c72b0" stroke="#4c72b0" id="line2d_23"><use x="428.5" xlink:href="#m1444d7611f" y="151.5"/><use x="393.5" xlink:href="#m1444d7611f" y="74.8"/><use x="433" xlink:href="#m1444d7611f" y="93.4"/><use x="397.3" xlink:href="#m1444d7611f" y="103.6"/><use x="353.8" xlink:href="#m1444d7611f" y="110.4"/><use x="484" xlink:href="#m1444d7611f" y="80.1"/><use x="411.1" xlink:href="#m1444d7611f" y="90.2"/><use x="451.2" xlink:href="#m1444d7611f" y="169.6"/><use x="463.3" xlink:href="#m1444d7611f" y="83.3"/><use x="395.5" xlink:href="#m1444d7611f" y="174.3"/><use x="444.7" xlink:href="#m1444d7611f" y="63.9"/><use x="461.6" xlink:href="#m1444d7611f" y="47.8"/><use x="463.7" xlink:href="#m1444d7611f" y="101.7"/><use x="397.5" xlink:href="#m1444d7611f" y="86.3"/><use x="392.6" xlink:href="#m1444d7611f" y="75.3"/><use x="474.7" xlink:href="#m1444d7611f" y="37.2"/><use x="435.6" xlink:href="#m1444d7611f" y="123.8"/><use x="379.9" xlink:href="#m1444d7611f" y="115.8"/><use x="412.4" xlink:href="#m1444d7611f" y="102.9"/><use x="400.4" xlink:href="#m1444d7611f" y="74.6"/><use x="457" xlink:href="#m1444d7611f" y="36.5"/><use x="420.7" xlink:href="#m1444d7611f" y="107"/><use x="425.2" xlink:href="#m1444d7611f" y="102"/><use x="402.2" xlink:href="#m1444d7611f" y="118.1"/><use x="473.1" xlink:href="#m1444d7611f" y="102.5"/><use x="545.2" xlink:href="#m1444d7611f" y="50.7"/><use x="495" xlink:href="#m1444d7611f" y="163.2"/><use x="430.8" xlink:href="#m1444d7611f" y="49.9"/><use x="473.4" xlink:href="#m1444d7611f" y="79.3"/><use x="406.2" xlink:href="#m1444d7611f" y="82.9"/><use x="391.4" xlink:href="#m1444d7611f" y="85.4"/><use x="381.2" xlink:href="#m1444d7611f" y="188.2"/><use x="505.9" xlink:href="#m1444d7611f" y="52.5"/><use x="463.4" xlink:href="#m1444d7611f" y="91.2"/><use x="349.5" xlink:href="#m1444d7611f" y="144.6"/><use x="357.9" xlink:href="#m1444d7611f" y="145"/><use x="436.8" xlink:href="#m1444d7611f" y="80.3"/><use x="390.1" xlink:href="#m1444d7611f" y="165.3"/><use x="471.6" xlink:href="#m1444d7611f" y="42.8"/><use x="410.3" xlink:href="#m1444d7611f" y="86.1"/><use x="436.1" xlink:href="#m1444d7611f" y="52.2"/><use x="454.1" xlink:href="#m1444d7611f" y="73.3"/><use x="394.6" xlink:href="#m1444d7611f" y="125"/><use x="446.2" xlink:href="#m1444d7611f" y="64.8"/><use x="468.2" xlink:href="#m1444d7611f" y="69.1"/><use x="456.6" xlink:href="#m1444d7611f" y="57.6"/><use x="452.4" xlink:href="#m1444d7611f" y="116.2"/><use x="383.9" xlink:href="#m1444d7611f" y="45.7"/><use x="500" xlink:href="#m1444d7611f" y="34.5"/><use x="406.2" xlink:href="#m1444d7611f" y="60.9"/><use x="493.9" xlink:href="#m1444d7611f" y="38.6"/><use x="480.9" xlink:href="#m1444d7611f" y="77.8"/><use x="440.7" xlink:href="#m1444d7611f" y="101.1"/><use x="427.1" xlink:href="#m1444d7611f" y="116.1"/><use x="476.8" xlink:href="#m1444d7611f" y="33.7"/><use x="436.7" xlink:href="#m1444d7611f" y="83"/><use x="455.6" xlink:href="#m1444d7611f" y="15.8"/><use x="457.8" xlink:href="#m1444d7611f" y="71.2"/><use x="419.8" xlink:href="#m1444d7611f" y="125.1"/><use x="451.3" xlink:href="#m1444d7611f" y="80.6"/><use x="439.1" xlink:href="#m1444d7611f" y="80.2"/><use x="499.5" xlink:href="#m1444d7611f" y="122.3"/><use x="429.7" xlink:href="#m1444d7611f" y="73.4"/><use x="483.6" xlink:href="#m1444d7611f" y="111.4"/><use x="452.3" xlink:href="#m1444d7611f" y="150.8"/><use x="456.8" xlink:href="#m1444d7611f" y="40.6"/><use x="439" xlink:href="#m1444d7611f" y="71"/><use x="443.9" xlink:href="#m1444d7611f" y="44"/><use x="492.9" xlink:href="#m1444d7611f" y="64.6"/><use x="437.8" xlink:href="#m1444d7611f" y="128.3"/><use x="420" xlink:href="#m1444d7611f" y="115.1"/><use x="438.6" xlink:href="#m1444d7611f" y="72"/><use x="428.5" xlink:href="#m1444d7611f" y="58.8"/><use x="444.5" xlink:href="#m1444d7611f" y="68.7"/><use x="400" xlink:href="#m1444d7611f" y="109.3"/><use x="437.4" xlink:href="#m1444d7611f" y="154.8"/><use x="472.1" xlink:href="#m1444d7611f" y="32.1"/><use x="458.1" xlink:href="#m1444d7611f" y="56.8"/><use x="464" xlink:href="#m1444d7611f" y="98.7"/><use x="409.6" xlink:href="#m1444d7611f" y="88.1"/><use x="510.9" xlink:href="#m1444d7611f" y="51.3"/><use x="405.4" xlink:href="#m1444d7611f" y="127.7"/><use x="515.7" xlink:href="#m1444d7611f" y="65.9"/><use x="509" xlink:href="#m1444d7611f" y="27.9"/><use x="476.5" xlink:href="#m1444d7611f" y="22.8"/><use x="477" xlink:href="#m1444d7611f" y="64.9"/><use x="461.4" xlink:href="#m1444d7611f" y="77.6"/><use x="396.4" xlink:href="#m1444d7611f" y="94.2"/><use x="404.9" xlink:href="#m1444d7611f" y="152.2"/><use x="438.9" xlink:href="#m1444d7611f" y="99.1"/><use x="504.6" xlink:href="#m1444d7611f" y="43.6"/><use x="459.6" xlink:href="#m1444d7611f" y="130.4"/><use x="430.1" xlink:href="#m1444d7611f" y="70.7"/><use x="428.4" xlink:href="#m1444d7611f" y="65.4"/><use x="380.2" xlink:href="#m1444d7611f" y="108.1"/><use x="403.6" xlink:href="#m1444d7611f" y="86.2"/><use x="506.2" xlink:href="#m1444d7611f" y="28"/><use x="449.4" xlink:href="#m1444d7611f" y="122"/><use x="452.6" xlink:href="#m1444d7611f" y="75.9"/><use x="393.6" xlink:href="#m1444d7611f" y="69.3"/></g><g clip-path="url(#p869de31faf)" fill="#c44e52" stroke="#c44e52" id="line2d_24"><use x="393.5" xlink:href="#m0526be6353" y="74.8"/><use x="463.3" xlink:href="#m0526be6353" y="83.3"/><use x="444.7" xlink:href="#m0526be6353" y="63.9"/><use x="461.6" xlink:href="#m0526be6353" y="47.8"/><use x="392.6" xlink:href="#m0526be6353" y="75.3"/><use x="474.7" xlink:href="#m0526be6353" y="37.2"/><use x="400.4" xlink:href="#m0526be6353" y="74.6"/><use x="457" xlink:href="#m0526be6353" y="36.5"/><use x="545.2" xlink:href="#m0526be6353" y="50.7"/><use x="430.8" xlink:href="#m0526be6353" y="49.9"/><use x="406.2" xlink:href="#m0526be6353" y="82.9"/><use x="505.9" xlink:href="#m0526be6353" y="52.5"/><use x="436.8" xlink:href="#m0526be6353" y="80.3"/><use x="471.6" xlink:href="#m0526be6353" y="42.8"/><use x="410.3" xlink:href="#m0526be6353" y="86.1"/><use x="436.1" xlink:href="#m0526be6353" y="52.2"/><use x="454.1" xlink:href="#m0526be6353" y="73.3"/><use x="446.2" xlink:href="#m0526be6353" y="64.8"/><use x="468.2" xlink:href="#m0526be6353" y="69.1"/><use x="456.6" xlink:href="#m0526be6353" y="57.6"/><use x="383.9" xlink:href="#m0526be6353" y="45.7"/><use x="500" xlink:href="#m0526be6353" y="34.5"/><use x="406.2" xlink:href="#m0526be6353" y="60.9"/><use x="493.9" xlink:href="#m0526be6353" y="38.6"/><use x="440.7" xlink:href="#m0526be6353" y="101.1"/><use x="427.1" xlink:href="#m0526be6353" y="116.1"/><use x="476.8" xlink:href="#m0526be6353" y="33.7"/><use x="436.7" xlink:href="#m0526be6353" y="83"/><use x="455.6" xlink:href="#m0526be6353" y="15.8"/><use x="457.8" xlink:href="#m0526be6353" y="71.2"/><use x="429.7" xlink:href="#m0526be6353" y="73.4"/><use x="456.8" xlink:href="#m0526be6353" y="40.6"/><use x="439" xlink:href="#m0526be6353" y="71"/><use x="443.9" xlink:href="#m0526be6353" y="44"/><use x="492.9" xlink:href="#m0526be6353" y="64.6"/><use x="438.6" xlink:href="#m0526be6353" y="72"/><use x="428.5" xlink:href="#m0526be6353" y="58.8"/><use x="444.5" xlink:href="#m0526be6353" y="68.7"/><use x="472.1" xlink:href="#m0526be6353" y="32.1"/><use x="458.1" xlink:href="#m0526be6353" y="56.8"/><use x="409.6" xlink:href="#m0526be6353" y="88.1"/><use x="510.9" xlink:href="#m0526be6353" y="51.3"/><use x="515.7" xlink:href="#m0526be6353" y="65.9"/><use x="509" xlink:href="#m0526be6353" y="27.9"/><use x="476.5" xlink:href="#m0526be6353" y="22.8"/><use x="477" xlink:href="#m0526be6353" y="64.9"/><use x="461.4" xlink:href="#m0526be6353" y="77.6"/><use x="504.6" xlink:href="#m0526be6353" y="43.6"/><use x="430.1" xlink:href="#m0526be6353" y="70.7"/><use x="428.4" xlink:href="#m0526be6353" y="65.4"/><use x="506.2" xlink:href="#m0526be6353" y="28"/><use x="452.6" xlink:href="#m0526be6353" y="75.9"/><use x="393.6" xlink:href="#m0526be6353" y="69.3"/></g><path d="M339.7 196.8V7.2" fill="none" stroke="#fff" stroke-linecap="square" stroke-width="1.3" id="patch_9"/><path d="M555 196.8V7.2" fill="none" stroke="#fff" stroke-linecap="square" stroke-width="1.3" id="patch_10"/><path d="M339.7 196.8H555" fill="none" stroke="#fff" stroke-linecap="square" stroke-width="1.3" id="patch_11"/><path d="M339.7 7.2H555" fill="none" stroke="#fff" stroke-linecap="square" stroke-width="1.3" id="patch_12"/></g></g><defs><clipPath id="p453124f69a"><path d="M58.2 7.2h215.3v189.6H58.2z"/></clipPath><clipPath id="p869de31faf"><path d="M339.7 7.2H555v189.6H339.7z"/></clipPath></defs></svg>