<?xml version="1.0" encoding="utf-8" standalone="no"?>
<!DOCTYPE svg PUBLIC "-//W3C//DTD SVG 1.1//EN"
  "http://www.w3.org/Graphics/SVG/1.1/DTD/svg11.dtd">
<!-- Created with matplotlib (https://matplotlib.org/) -->
<svg height="276.073437pt" version="1.1" viewBox="0 0 433.561447 276.073437" width="433.561447pt" xmlns="http://www.w3.org/2000/svg" xmlns:xlink="http://www.w3.org/1999/xlink">
 <defs>
  <style type="text/css">
*{stroke-linecap:butt;stroke-linejoin:round;}
  </style>
 </defs>
 <g id="figure_1">
  <g id="patch_1">
   <path d="M 0 276.073437 
L 433.561447 276.073437 
L 433.561447 0 
L 0 0 
z
" style="fill:#ffffff;"/>
  </g>
  <g id="axes_1">
   <g id="patch_2">
    <path d="M 11.572449 95.26 
L 417.652449 95.26 
L 417.652449 7.2 
L 11.572449 7.2 
z
" style="fill:#eaeaf2;"/>
   </g>
   <g id="matplotlib.axis_1">
    <g id="xtick_1">
     <g id="line2d_1">
      <path clip-path="url(#p3bafedf6ba)" d="M 49.211666 95.26 
L 49.211666 7.2 
" style="fill:none;stroke:#ffffff;stroke-linecap:round;"/>
     </g>
     <g id="text_1">
      <!-- −1.0 -->
      <defs>
       <path d="M 10.59375 35.5 
L 73.1875 35.5 
L 73.1875 27.203125 
L 10.59375 27.203125 
z
" id="DejaVuSans-8722"/>
       <path d="M 12.40625 8.296875 
L 28.515625 8.296875 
L 28.515625 63.921875 
L 10.984375 60.40625 
L 10.984375 69.390625 
L 28.421875 72.90625 
L 38.28125 72.90625 
L 38.28125 8.296875 
L 54.390625 8.296875 
L 54.390625 0 
L 12.40625 0 
z
" id="DejaVuSans-49"/>
       <path d="M 10.6875 12.40625 
L 21 12.40625 
L 21 0 
L 10.6875 0 
z
" id="DejaVuSans-46"/>
       <path d="M 31.78125 66.40625 
Q 24.171875 66.40625 20.328125 58.90625 
Q 16.5 51.421875 16.5 36.375 
Q 16.5 21.390625 20.328125 13.890625 
Q 24.171875 6.390625 31.78125 6.390625 
Q 39.453125 6.390625 43.28125 13.890625 
Q 47.125 21.390625 47.125 36.375 
Q 47.125 51.421875 43.28125 58.90625 
Q 39.453125 66.40625 31.78125 66.40625 
z
M 31.78125 74.21875 
Q 44.046875 74.21875 50.515625 64.515625 
Q 56.984375 54.828125 56.984375 36.375 
Q 56.984375 17.96875 50.515625 8.265625 
Q 44.046875 -1.421875 31.78125 -1.421875 
Q 19.53125 -1.421875 13.0625 8.265625 
Q 6.59375 17.96875 6.59375 36.375 
Q 6.59375 54.828125 13.0625 64.515625 
Q 19.53125 74.21875 31.78125 74.21875 
z
" id="DejaVuSans-48"/>
      </defs>
      <g style="fill:#262626;" transform="translate(35.856119 113.118281)scale(0.11 -0.11)">
       <use xlink:href="#DejaVuSans-8722"/>
       <use x="83.789062" xlink:href="#DejaVuSans-49"/>
       <use x="147.412109" xlink:href="#DejaVuSans-46"/>
       <use x="179.199219" xlink:href="#DejaVuSans-48"/>
      </g>
     </g>
    </g>
    <g id="xtick_2">
     <g id="line2d_2">
      <path clip-path="url(#p3bafedf6ba)" d="M 129.994618 95.26 
L 129.994618 7.2 
" style="fill:none;stroke:#ffffff;stroke-linecap:round;"/>
     </g>
     <g id="text_2">
      <!-- −0.5 -->
      <defs>
       <path d="M 10.796875 72.90625 
L 49.515625 72.90625 
L 49.515625 64.59375 
L 19.828125 64.59375 
L 19.828125 46.734375 
Q 21.96875 47.46875 24.109375 47.828125 
Q 26.265625 48.1875 28.421875 48.1875 
Q 40.625 48.1875 47.75 41.5 
Q 54.890625 34.8125 54.890625 23.390625 
Q 54.890625 11.625 47.5625 5.09375 
Q 40.234375 -1.421875 26.90625 -1.421875 
Q 22.3125 -1.421875 17.546875 -0.640625 
Q 12.796875 0.140625 7.71875 1.703125 
L 7.71875 11.625 
Q 12.109375 9.234375 16.796875 8.0625 
Q 21.484375 6.890625 26.703125 6.890625 
Q 35.15625 6.890625 40.078125 11.328125 
Q 45.015625 15.765625 45.015625 23.390625 
Q 45.015625 31 40.078125 35.4375 
Q 35.15625 39.890625 26.703125 39.890625 
Q 22.75 39.890625 18.8125 39.015625 
Q 14.890625 38.140625 10.796875 36.28125 
z
" id="DejaVuSans-53"/>
      </defs>
      <g style="fill:#262626;" transform="translate(116.639071 113.118281)scale(0.11 -0.11)">
       <use xlink:href="#DejaVuSans-8722"/>
       <use x="83.789062" xlink:href="#DejaVuSans-48"/>
       <use x="147.412109" xlink:href="#DejaVuSans-46"/>
       <use x="179.199219" xlink:href="#DejaVuSans-53"/>
      </g>
     </g>
    </g>
    <g id="xtick_3">
     <g id="line2d_3">
      <path clip-path="url(#p3bafedf6ba)" d="M 210.777569 95.26 
L 210.777569 7.2 
" style="fill:none;stroke:#ffffff;stroke-linecap:round;"/>
     </g>
     <g id="text_3">
      <!-- 0.0 -->
      <g style="fill:#262626;" transform="translate(202.030851 113.118281)scale(0.11 -0.11)">
       <use xlink:href="#DejaVuSans-48"/>
       <use x="63.623047" xlink:href="#DejaVuSans-46"/>
       <use x="95.410156" xlink:href="#DejaVuSans-48"/>
      </g>
     </g>
    </g>
    <g id="xtick_4">
     <g id="line2d_4">
      <path clip-path="url(#p3bafedf6ba)" d="M 291.560521 95.26 
L 291.560521 7.2 
" style="fill:none;stroke:#ffffff;stroke-linecap:round;"/>
     </g>
     <g id="text_4">
      <!-- 0.5 -->
      <g style="fill:#262626;" transform="translate(282.813802 113.118281)scale(0.11 -0.11)">
       <use xlink:href="#DejaVuSans-48"/>
       <use x="63.623047" xlink:href="#DejaVuSans-46"/>
       <use x="95.410156" xlink:href="#DejaVuSans-53"/>
      </g>
     </g>
    </g>
    <g id="xtick_5">
     <g id="line2d_5">
      <path clip-path="url(#p3bafedf6ba)" d="M 372.343473 95.26 
L 372.343473 7.2 
" style="fill:none;stroke:#ffffff;stroke-linecap:round;"/>
     </g>
     <g id="text_5">
      <!-- 1.0 -->
      <g style="fill:#262626;" transform="translate(363.596754 113.118281)scale(0.11 -0.11)">
       <use xlink:href="#DejaVuSans-49"/>
       <use x="63.623047" xlink:href="#DejaVuSans-46"/>
       <use x="95.410156" xlink:href="#DejaVuSans-48"/>
      </g>
     </g>
    </g>
    <g id="text_6">
     <!-- Dense_weights -->
     <defs>
      <path d="M 19.671875 64.796875 
L 19.671875 8.109375 
L 31.59375 8.109375 
Q 46.6875 8.109375 53.6875 14.9375 
Q 60.6875 21.78125 60.6875 36.53125 
Q 60.6875 51.171875 53.6875 57.984375 
Q 46.6875 64.796875 31.59375 64.796875 
z
M 9.8125 72.90625 
L 30.078125 72.90625 
Q 51.265625 72.90625 61.171875 64.09375 
Q 71.09375 55.28125 71.09375 36.53125 
Q 71.09375 17.671875 61.125 8.828125 
Q 51.171875 0 30.078125 0 
L 9.8125 0 
z
" id="DejaVuSans-68"/>
      <path d="M 56.203125 29.59375 
L 56.203125 25.203125 
L 14.890625 25.203125 
Q 15.484375 15.921875 20.484375 11.0625 
Q 25.484375 6.203125 34.421875 6.203125 
Q 39.59375 6.203125 44.453125 7.46875 
Q 49.3125 8.734375 54.109375 11.28125 
L 54.109375 2.78125 
Q 49.265625 0.734375 44.1875 -0.34375 
Q 39.109375 -1.421875 33.890625 -1.421875 
Q 20.796875 -1.421875 13.15625 6.1875 
Q 5.515625 13.8125 5.515625 26.8125 
Q 5.515625 40.234375 12.765625 48.109375 
Q 20.015625 56 32.328125 56 
Q 43.359375 56 49.78125 48.890625 
Q 56.203125 41.796875 56.203125 29.59375 
z
M 47.21875 32.234375 
Q 47.125 39.59375 43.09375 43.984375 
Q 39.0625 48.390625 32.421875 48.390625 
Q 24.90625 48.390625 20.390625 44.140625 
Q 15.875 39.890625 15.1875 32.171875 
z
" id="DejaVuSans-101"/>
      <path d="M 54.890625 33.015625 
L 54.890625 0 
L 45.90625 0 
L 45.90625 32.71875 
Q 45.90625 40.484375 42.875 44.328125 
Q 39.84375 48.1875 33.796875 48.1875 
Q 26.515625 48.1875 22.3125 43.546875 
Q 18.109375 38.921875 18.109375 30.90625 
L 18.109375 0 
L 9.078125 0 
L 9.078125 54.6875 
L 18.109375 54.6875 
L 18.109375 46.1875 
Q 21.34375 51.125 25.703125 53.5625 
Q 30.078125 56 35.796875 56 
Q 45.21875 56 50.046875 50.171875 
Q 54.890625 44.34375 54.890625 33.015625 
z
" id="DejaVuSans-110"/>
      <path d="M 44.28125 53.078125 
L 44.28125 44.578125 
Q 40.484375 46.53125 36.375 47.5 
Q 32.28125 48.484375 27.875 48.484375 
Q 21.1875 48.484375 17.84375 46.4375 
Q 14.5 44.390625 14.5 40.28125 
Q 14.5 37.15625 16.890625 35.375 
Q 19.28125 33.59375 26.515625 31.984375 
L 29.59375 31.296875 
Q 39.15625 29.25 43.1875 25.515625 
Q 47.21875 21.78125 47.21875 15.09375 
Q 47.21875 7.46875 41.1875 3.015625 
Q 35.15625 -1.421875 24.609375 -1.421875 
Q 20.21875 -1.421875 15.453125 -0.5625 
Q 10.6875 0.296875 5.421875 2 
L 5.421875 11.28125 
Q 10.40625 8.6875 15.234375 7.390625 
Q 20.0625 6.109375 24.8125 6.109375 
Q 31.15625 6.109375 34.5625 8.28125 
Q 37.984375 10.453125 37.984375 14.40625 
Q 37.984375 18.0625 35.515625 20.015625 
Q 33.0625 21.96875 24.703125 23.78125 
L 21.578125 24.515625 
Q 13.234375 26.265625 9.515625 29.90625 
Q 5.8125 33.546875 5.8125 39.890625 
Q 5.8125 47.609375 11.28125 51.796875 
Q 16.75 56 26.8125 56 
Q 31.78125 56 36.171875 55.265625 
Q 40.578125 54.546875 44.28125 53.078125 
z
" id="DejaVuSans-115"/>
      <path d="M 50.984375 -16.609375 
L 50.984375 -23.578125 
L -0.984375 -23.578125 
L -0.984375 -16.609375 
z
" id="DejaVuSans-95"/>
      <path d="M 4.203125 54.6875 
L 13.1875 54.6875 
L 24.421875 12.015625 
L 35.59375 54.6875 
L 46.1875 54.6875 
L 57.421875 12.015625 
L 68.609375 54.6875 
L 77.59375 54.6875 
L 63.28125 0 
L 52.6875 0 
L 40.921875 44.828125 
L 29.109375 0 
L 18.5 0 
z
" id="DejaVuSans-119"/>
      <path d="M 9.421875 54.6875 
L 18.40625 54.6875 
L 18.40625 0 
L 9.421875 0 
z
M 9.421875 75.984375 
L 18.40625 75.984375 
L 18.40625 64.59375 
L 9.421875 64.59375 
z
" id="DejaVuSans-105"/>
      <path d="M 45.40625 27.984375 
Q 45.40625 37.75 41.375 43.109375 
Q 37.359375 48.484375 30.078125 48.484375 
Q 22.859375 48.484375 18.828125 43.109375 
Q 14.796875 37.75 14.796875 27.984375 
Q 14.796875 18.265625 18.828125 12.890625 
Q 22.859375 7.515625 30.078125 7.515625 
Q 37.359375 7.515625 41.375 12.890625 
Q 45.40625 18.265625 45.40625 27.984375 
z
M 54.390625 6.78125 
Q 54.390625 -7.171875 48.1875 -13.984375 
Q 42 -20.796875 29.203125 -20.796875 
Q 24.46875 -20.796875 20.265625 -20.09375 
Q 16.0625 -19.390625 12.109375 -17.921875 
L 12.109375 -9.1875 
Q 16.0625 -11.328125 19.921875 -12.34375 
Q 23.78125 -13.375 27.78125 -13.375 
Q 36.625 -13.375 41.015625 -8.765625 
Q 45.40625 -4.15625 45.40625 5.171875 
L 45.40625 9.625 
Q 42.625 4.78125 38.28125 2.390625 
Q 33.9375 0 27.875 0 
Q 17.828125 0 11.671875 7.65625 
Q 5.515625 15.328125 5.515625 27.984375 
Q 5.515625 40.671875 11.671875 48.328125 
Q 17.828125 56 27.875 56 
Q 33.9375 56 38.28125 53.609375 
Q 42.625 51.21875 45.40625 46.390625 
L 45.40625 54.6875 
L 54.390625 54.6875 
z
" id="DejaVuSans-103"/>
      <path d="M 54.890625 33.015625 
L 54.890625 0 
L 45.90625 0 
L 45.90625 32.71875 
Q 45.90625 40.484375 42.875 44.328125 
Q 39.84375 48.1875 33.796875 48.1875 
Q 26.515625 48.1875 22.3125 43.546875 
Q 18.109375 38.921875 18.109375 30.90625 
L 18.109375 0 
L 9.078125 0 
L 9.078125 75.984375 
L 18.109375 75.984375 
L 18.109375 46.1875 
Q 21.34375 51.125 25.703125 53.5625 
Q 30.078125 56 35.796875 56 
Q 45.21875 56 50.046875 50.171875 
Q 54.890625 44.34375 54.890625 33.015625 
z
" id="DejaVuSans-104"/>
      <path d="M 18.3125 70.21875 
L 18.3125 54.6875 
L 36.8125 54.6875 
L 36.8125 47.703125 
L 18.3125 47.703125 
L 18.3125 18.015625 
Q 18.3125 11.328125 20.140625 9.421875 
Q 21.96875 7.515625 27.59375 7.515625 
L 36.8125 7.515625 
L 36.8125 0 
L 27.59375 0 
Q 17.1875 0 13.234375 3.875 
Q 9.28125 7.765625 9.28125 18.015625 
L 9.28125 47.703125 
L 2.6875 47.703125 
L 2.6875 54.6875 
L 9.28125 54.6875 
L 9.28125 70.21875 
z
" id="DejaVuSans-116"/>
     </defs>
     <g style="fill:#262626;" transform="translate(169.325574 128.524062)scale(0.12 -0.12)">
      <use xlink:href="#DejaVuSans-68"/>
      <use x="77.001953" xlink:href="#DejaVuSans-101"/>
      <use x="138.525391" xlink:href="#DejaVuSans-110"/>
      <use x="201.904297" xlink:href="#DejaVuSans-115"/>
      <use x="254.003906" xlink:href="#DejaVuSans-101"/>
      <use x="315.527344" xlink:href="#DejaVuSans-95"/>
      <use x="365.527344" xlink:href="#DejaVuSans-119"/>
      <use x="447.314453" xlink:href="#DejaVuSans-101"/>
      <use x="508.837891" xlink:href="#DejaVuSans-105"/>
      <use x="536.621094" xlink:href="#DejaVuSans-103"/>
      <use x="600.097656" xlink:href="#DejaVuSans-104"/>
      <use x="663.476562" xlink:href="#DejaVuSans-116"/>
      <use x="702.685547" xlink:href="#DejaVuSans-115"/>
     </g>
    </g>
   </g>
   <g id="patch_3">
    <path clip-path="url(#p3bafedf6ba)" d="M 190.874405 91.257273 
L 191.214797 91.256615 
L 191.555189 91.256172 
L 191.895581 91.255982 
L 192.235973 91.255765 
L 192.576365 91.255516 
L 192.916757 91.255232 
L 193.257149 91.254909 
L 193.597541 91.254543 
L 193.937932 91.254129 
L 194.278324 91.253663 
L 194.618716 91.25314 
L 194.959108 91.252555 
L 195.2995 91.251903 
L 195.639892 91.251179 
L 195.980284 91.250377 
L 196.320676 91.249492 
L 196.661068 91.24852 
L 197.00146 91.247454 
L 197.341852 91.246292 
L 197.682244 91.245027 
L 198.022636 91.243656 
L 198.363028 91.242176 
L 198.703419 91.240584 
L 199.043811 91.238878 
L 199.384203 91.237057 
L 199.724595 91.23512 
L 200.064987 91.233069 
L 200.405379 91.230904 
L 200.745771 91.22863 
L 201.086163 91.22625 
L 201.426555 91.223442 
L 201.766947 91.220812 
L 202.107339 91.21809 
L 202.447731 91.214626 
L 202.788123 91.211631 
L 203.128515 91.208555 
L 203.468907 91.205082 
L 203.809298 91.201164 
L 204.14969 91.197734 
L 204.490082 91.194245 
L 204.830474 91.190705 
L 205.170866 91.186797 
L 205.511258 91.183131 
L 205.85165 91.179108 
L 206.192042 91.175339 
L 206.532434 91.170892 
L 206.872826 91.166975 
L 207.213218 91.163033 
L 207.55361 91.159069 
L 207.894002 91.155083 
L 208.234394 91.150745 
L 208.574785 91.146655 
L 208.915177 91.14187 
L 209.255569 91.137255 
L 209.595961 91.131858 
L 210.276745 91.127188 
L 210.617137 91.121404 
L 210.957529 91.116289 
L 211.297921 91.110655 
L 211.638313 91.104751 
L 211.978705 91.098873 
L 212.319097 91.092716 
L 212.659489 91.085924 
L 212.999881 91.078413 
L 213.340273 91.070751 
L 213.680665 91.06098 
L 214.021056 91.052395 
L 214.361448 91.042634 
L 214.70184 91.032541 
L 215.042232 91.022131 
L 215.382624 91.010769 
L 215.723016 90.998376 
L 216.063408 90.984868 
L 216.4038 90.971142 
L 216.744192 90.956615 
L 217.084584 90.940938 
L 217.424976 90.924039 
L 217.765368 90.906167 
L 218.105759 90.887953 
L 218.446151 90.867845 
L 218.786543 90.846979 
L 219.126935 90.825057 
L 219.467327 90.803048 
L 219.807719 90.779136 
L 220.148111 90.754147 
L 220.488503 90.727742 
L 220.828895 90.700843 
L 221.169287 90.673549 
L 221.509679 90.644332 
L 221.850071 90.613371 
L 222.190463 90.582524 
L 222.530855 90.550359 
L 222.871247 90.51552 
L 223.211639 90.480033 
L 223.552031 90.442996 
L 223.892423 90.404992 
L 224.232815 90.365394 
L 224.573207 90.323138 
L 224.913599 90.28158 
L 225.253991 90.238421 
L 225.594383 90.193259 
L 225.934773 90.145298 
L 226.275165 90.097224 
L 226.615557 90.046284 
L 226.955949 89.994834 
L 227.296341 89.941376 
L 227.636733 89.88613 
L 227.977125 89.82936 
L 228.317517 89.770399 
L 228.657909 89.708471 
L 228.998301 89.646295 
L 229.338693 89.581814 
L 229.679085 89.514824 
L 230.019477 89.445489 
L 230.359869 89.372528 
L 230.700261 89.297671 
L 231.040653 89.218636 
L 231.381045 89.136375 
L 231.721437 89.052686 
L 232.061829 88.966744 
L 232.402221 88.875618 
L 232.742613 88.781475 
L 233.083005 88.684255 
L 233.423397 88.582924 
L 233.763789 88.479573 
L 234.104181 88.371423 
L 234.444573 88.260156 
L 234.784965 88.145144 
L 235.125357 88.025667 
L 235.465748 87.902215 
L 235.80614 87.774069 
L 236.146532 87.642378 
L 236.486924 87.505224 
L 236.827316 87.363656 
L 237.167708 87.217286 
L 237.5081 87.064358 
L 237.848492 86.909402 
L 238.188884 86.7502 
L 238.529276 86.585794 
L 238.869668 86.415398 
L 239.21006 86.240734 
L 239.550452 86.062523 
L 239.890844 85.877623 
L 240.231236 85.688654 
L 240.571628 85.495467 
L 240.91202 85.295102 
L 241.252412 85.09045 
L 241.592804 84.879429 
L 241.933194 84.667321 
L 242.273585 84.445504 
L 242.613977 84.218475 
L 242.954369 83.986317 
L 243.294761 83.749021 
L 243.635153 83.506861 
L 243.975545 83.257929 
L 244.315937 83.003606 
L 244.656329 82.743556 
L 244.996721 82.477347 
L 245.337113 82.206517 
L 245.677505 81.925749 
L 246.017897 81.637573 
L 246.358289 81.344662 
L 246.698681 81.046514 
L 247.039073 80.741624 
L 247.379465 80.432135 
L 247.719857 80.116319 
L 248.060249 79.792819 
L 248.400641 79.462138 
L 248.741033 79.122195 
L 249.081425 78.776482 
L 249.421817 78.424291 
L 249.762209 78.065623 
L 250.102601 77.699614 
L 250.442993 77.325577 
L 250.783385 76.946888 
L 251.123777 76.560249 
L 251.464169 76.168477 
L 251.804563 75.771729 
L 252.144953 75.368815 
L 252.485342 74.952552 
L 252.825737 74.529006 
L 253.166126 74.102849 
L 253.50652 73.669256 
L 253.84691 73.229677 
L 254.187304 72.784178 
L 254.527694 72.32937 
L 254.868088 71.870178 
L 255.208478 71.403008 
L 255.548872 70.929828 
L 255.889262 70.450043 
L 256.229656 69.966715 
L 256.570046 69.479311 
L 256.91044 68.983853 
L 257.25083 68.481728 
L 257.591224 67.973002 
L 257.931614 67.457566 
L 258.272008 66.938753 
L 258.612398 66.415989 
L 258.952792 65.886056 
L 259.293182 65.344638 
L 259.633576 64.798878 
L 259.973965 64.245811 
L 260.31436 63.686937 
L 260.654749 63.126029 
L 260.995144 62.560469 
L 261.335533 61.985726 
L 261.675928 61.404586 
L 262.016317 60.817314 
L 262.356712 60.225544 
L 262.697101 59.630622 
L 263.037496 59.0201 
L 263.377885 58.407098 
L 263.71828 57.791123 
L 264.058669 57.164241 
L 264.399063 56.527727 
L 264.739453 55.883758 
L 265.079847 55.234201 
L 265.420237 54.575834 
L 265.760631 53.912885 
L 266.101021 53.235665 
L 266.441415 52.555767 
L 266.781805 51.865945 
L 267.122199 51.16728 
L 267.462589 50.464768 
L 267.802983 49.757895 
L 268.143373 49.037981 
L 268.483767 48.315236 
L 268.824157 47.577744 
L 269.164551 46.838697 
L 269.504941 46.090149 
L 269.845335 45.331499 
L 270.185725 44.573335 
L 270.526119 43.808694 
L 270.866508 43.037569 
L 271.206903 42.257079 
L 271.547292 41.48008 
L 271.887687 40.691268 
L 272.228076 39.900746 
L 272.568471 39.10934 
L 272.90886 38.313896 
L 273.249255 37.516006 
L 273.589644 36.714853 
L 273.930034 35.916648 
L 274.270428 35.114577 
L 274.610818 34.313576 
L 274.951212 33.518282 
L 275.291602 32.721711 
L 275.631996 31.92773 
L 275.972386 31.138684 
L 276.31278 30.35357 
L 276.65317 29.5711 
L 276.993564 28.799913 
L 277.333953 28.035145 
L 277.674348 27.274947 
L 278.014737 26.526367 
L 278.355132 25.78178 
L 278.695521 25.05259 
L 279.035916 24.334918 
L 279.376305 23.629491 
L 279.7167 22.940561 
L 280.057089 22.257828 
L 280.397484 21.593339 
L 280.737873 20.947204 
L 281.078268 20.321296 
L 281.418657 19.710253 
L 281.759051 19.115787 
L 282.099441 18.53985 
L 282.439835 17.985519 
L 282.780225 17.450539 
L 283.120619 16.939157 
L 283.461009 16.446931 
L 283.801403 15.977816 
L 284.141793 15.527702 
L 284.482187 15.104843 
L 284.822577 14.706244 
L 285.162971 14.324582 
L 285.503361 13.970233 
L 285.843755 13.638888 
L 286.184145 13.331768 
L 286.524539 13.044037 
L 286.864929 12.783567 
L 287.205323 12.539571 
L 287.545713 12.321614 
L 287.886107 12.12283 
L 288.226496 11.946937 
L 288.566891 11.79316 
L 288.90728 11.657732 
L 289.247675 11.541475 
L 289.588064 11.446091 
L 289.928459 11.365689 
L 290.268848 11.301623 
L 290.609243 11.261233 
L 290.949632 11.23373 
L 291.290027 11.21656 
L 291.630416 11.21832 
L 291.970811 11.232703 
L 292.311205 11.265205 
L 292.65159 11.310513 
L 292.991984 11.366475 
L 293.332378 11.43239 
L 293.672773 11.511207 
L 294.013158 11.606852 
L 294.353552 11.707754 
L 294.693946 11.822164 
L 295.034341 11.949396 
L 295.374725 12.089491 
L 295.71512 12.239682 
L 296.055514 12.405499 
L 296.395899 12.576475 
L 296.736293 12.760506 
L 297.076688 12.958955 
L 297.417082 13.174667 
L 297.757467 13.400284 
L 298.097861 13.644564 
L 298.438256 13.895202 
L 298.77865 14.152287 
L 299.119035 14.426559 
L 299.459429 14.716357 
L 299.799823 15.02039 
L 300.140218 15.339278 
L 300.480603 15.669686 
L 300.820997 16.016648 
L 301.161391 16.380934 
L 301.501786 16.760915 
L 301.84217 17.151348 
L 302.182565 17.559758 
L 302.522959 17.986223 
L 302.863354 18.422122 
L 303.203738 18.869485 
L 303.544133 19.331523 
L 303.884527 19.805679 
L 304.224921 20.297393 
L 304.565306 20.79577 
L 304.905701 21.31063 
L 305.246095 21.835446 
L 305.586489 22.365321 
L 305.926874 22.907104 
L 306.267268 23.459472 
L 306.607663 24.019064 
L 306.948057 24.595685 
L 307.288442 25.174222 
L 307.628836 25.760098 
L 307.969231 26.352881 
L 308.309625 26.945022 
L 308.65001 27.546083 
L 308.990404 28.150573 
L 309.330799 28.765304 
L 309.671193 29.375505 
L 310.011578 29.993939 
L 310.351972 30.613895 
L 310.692366 31.233815 
L 311.032761 31.857677 
L 311.373146 32.48564 
L 311.71354 33.115433 
L 312.053934 33.743918 
L 312.394329 34.375412 
L 312.734713 35.008224 
L 313.075108 35.632884 
L 313.415502 36.262326 
L 313.755897 36.895695 
L 314.096281 37.522928 
L 314.436676 38.152693 
L 314.77707 38.785998 
L 315.117464 39.41603 
L 315.457849 40.047432 
L 315.798244 40.679949 
L 316.138638 41.311208 
L 316.479023 41.949017 
L 316.819417 42.582388 
L 317.159811 43.21831 
L 317.500206 43.852429 
L 317.840591 44.484982 
L 318.180985 45.123701 
L 318.521379 45.762433 
L 318.861774 46.399386 
L 319.202158 47.034778 
L 319.542553 47.671828 
L 319.882947 48.314102 
L 320.223342 48.958578 
L 320.563726 49.600686 
L 320.904121 50.244641 
L 321.244515 50.888719 
L 321.584909 51.534465 
L 321.925294 52.183297 
L 322.265689 52.835247 
L 322.606083 53.479574 
L 322.946477 54.122791 
L 323.286862 54.771471 
L 323.627256 55.41628 
L 323.967651 56.060708 
L 324.308045 56.704446 
L 324.64843 57.350389 
L 324.988824 57.993335 
L 325.329219 58.637438 
L 325.669613 59.273969 
L 326.009998 59.909644 
L 326.350392 60.539746 
L 326.690787 61.167092 
L 327.031181 61.789176 
L 327.371566 62.409012 
L 327.71196 63.021658 
L 328.052354 63.631878 
L 328.392749 64.236259 
L 328.733134 64.834074 
L 329.073528 65.429033 
L 329.413922 66.016811 
L 329.754317 66.594606 
L 330.094701 67.166149 
L 330.435096 67.72592 
L 330.77549 68.280655 
L 331.115885 68.827055 
L 331.456269 69.369416 
L 331.796664 69.900758 
L 332.137058 70.4194 
L 332.477452 70.93193 
L 332.817837 71.433181 
L 333.158232 71.927748 
L 333.498626 72.412863 
L 333.83902 72.889226 
L 334.179405 73.354728 
L 334.519799 73.814999 
L 334.860194 74.262922 
L 335.200588 74.700187 
L 335.540973 75.129304 
L 335.881367 75.551235 
L 336.221762 75.959346 
L 336.562156 76.363911 
L 336.902541 76.761979 
L 337.242935 77.147671 
L 337.58333 77.525944 
L 337.923714 77.89382 
L 338.264109 78.253395 
L 338.604503 78.605504 
L 338.944897 78.946518 
L 339.285282 79.28381 
L 339.625677 79.60727 
L 339.966071 79.925685 
L 340.306465 80.238895 
L 340.64685 80.54237 
L 340.987244 80.843988 
L 341.327639 81.13696 
L 341.668033 81.423084 
L 342.008418 81.700554 
L 342.348812 81.972604 
L 342.689207 82.238036 
L 343.029601 82.495608 
L 343.369986 82.747406 
L 343.71038 82.995449 
L 344.050775 83.233822 
L 344.391169 83.471287 
L 344.731554 83.700256 
L 345.071948 83.921801 
L 345.412343 84.138802 
L 345.752737 84.352269 
L 346.093122 84.560313 
L 346.433516 84.762232 
L 346.77391 84.958238 
L 347.114305 85.151041 
L 347.45469 85.335359 
L 347.795084 85.515938 
L 348.135478 85.693326 
L 348.475873 85.86573 
L 348.816257 86.032672 
L 349.156652 86.195199 
L 349.497046 86.352031 
L 349.837441 86.505689 
L 350.177825 86.654091 
L 350.51822 86.799715 
L 350.858614 86.940819 
L 351.199008 87.081765 
L 351.539393 87.216999 
L 351.879788 87.346059 
L 352.220182 87.473367 
L 352.560576 87.595389 
L 352.900961 87.713892 
L 353.241355 87.828383 
L 353.58175 87.939618 
L 353.922144 88.049417 
L 354.262529 88.156777 
L 354.602923 88.258904 
L 354.943318 88.357906 
L 355.283712 88.455305 
L 355.624097 88.551004 
L 355.964491 88.644645 
L 356.304886 88.734815 
L 356.64528 88.823952 
L 356.985665 88.909106 
L 357.326059 88.99108 
L 357.666453 89.073397 
L 358.006848 89.150721 
L 358.347233 89.226028 
L 358.687627 89.30045 
L 359.028021 89.372439 
L 359.368406 89.441523 
L 359.7088 89.508702 
L 360.049195 89.573993 
L 360.389589 89.637412 
L 360.729974 89.699538 
L 361.070368 89.759468 
L 361.410763 89.817789 
L 361.751157 89.872811 
L 362.091542 89.926786 
L 362.431936 89.979915 
L 362.772331 90.030694 
L 363.112725 90.079253 
L 363.45311 90.125988 
L 363.793504 90.171799 
L 364.133898 90.216063 
L 364.474293 90.25937 
L 364.814678 90.299996 
L 365.155072 90.340395 
L 365.495466 90.378745 
L 365.835861 90.414625 
L 366.176245 90.450198 
L 366.51664 90.484233 
L 366.857034 90.517926 
L 367.197429 90.548944 
L 367.537813 90.579225 
L 367.878208 90.608464 
L 368.218602 90.636962 
L 368.558996 90.664423 
L 368.899381 90.691157 
L 369.239776 90.717151 
L 369.58017 90.741559 
L 369.920564 90.765343 
L 370.260949 90.78737 
L 370.601343 90.809473 
L 370.941738 90.830696 
L 371.282132 90.849951 
L 371.622517 90.868555 
L 371.962911 90.887348 
L 372.303306 90.904809 
L 372.6437 90.921605 
L 372.984085 90.938308 
L 373.324489 90.954842 
L 373.664874 90.969751 
L 374.005258 90.983479 
L 374.345662 90.997244 
L 374.686047 91.010128 
L 375.026432 91.022751 
L 375.366836 91.034804 
L 375.707221 91.045748 
L 376.047625 91.057643 
L 376.388009 91.067491 
L 376.728394 91.0775 
L 377.068798 91.086755 
L 377.409183 91.095599 
L 377.749568 91.104883 
L 378.089972 91.113377 
L 378.430356 91.121157 
L 378.77076 91.128013 
L 379.111145 91.134605 
L 379.45153 91.14094 
L 379.791934 91.147024 
L 380.132319 91.152863 
L 380.47271 91.158465 
L 380.813102 91.164116 
L 381.153494 91.169223 
L 381.493886 91.174122 
L 381.834278 91.178819 
L 382.17467 91.183879 
L 382.515062 91.188107 
L 382.855454 91.192444 
L 383.195846 91.196292 
L 383.536238 91.200263 
L 383.87663 91.204039 
L 384.217022 91.207629 
L 384.557414 91.210762 
L 384.897806 91.214046 
L 385.238198 91.216881 
L 385.578589 91.220155 
L 385.918981 91.222944 
L 386.259373 91.225305 
L 386.599765 91.227564 
L 386.940157 91.230001 
L 387.280549 91.232012 
L 387.620941 91.233927 
L 387.961333 91.235745 
L 388.301725 91.237746 
L 388.642117 91.239328 
L 388.982509 91.240821 
L 389.322901 91.242227 
L 389.663293 91.243825 
L 390.003685 91.245016 
L 390.344076 91.24613 
L 390.684468 91.247168 
L 391.02486 91.248134 
L 391.365252 91.249308 
L 391.705644 91.250091 
L 392.046036 91.250815 
L 392.386428 91.251482 
L 392.72682 91.252094 
L 393.067212 91.252654 
L 393.407604 91.253165 
L 393.747996 91.253629 
L 394.088388 91.25405 
L 394.42878 91.25443 
L 394.769172 91.254772 
L 395.109564 91.255079 
L 395.449955 91.255633 
L 395.790347 91.255835 
L 396.130739 91.256016 
L 396.471131 91.256177 
L 396.811523 91.25632 
L 397.151915 91.256447 
L 397.492307 91.25656 
L 397.832699 91.256658 
L 398.173091 91.256745 
L 398.513483 91.256821 
L 398.853875 91.256887 
L 399.194267 91.256944 
z
" style="fill:#1f77b4;opacity:0.4;stroke:#ffffff;stroke-linejoin:miter;"/>
   </g>
   <g id="patch_4">
    <path clip-path="url(#p3bafedf6ba)" d="M 256.570046 91.257273 
L 256.570046 69.479311 
L 256.91044 68.983853 
L 257.25083 68.481728 
L 257.591224 67.973002 
L 257.931614 67.457566 
L 258.272008 66.938753 
L 258.612398 66.415989 
L 258.952792 65.886056 
L 259.293182 65.344638 
L 259.633576 64.798878 
L 259.973965 64.245811 
L 260.31436 63.686937 
L 260.654749 63.126029 
L 260.995144 62.560469 
L 261.335533 61.985726 
L 261.675928 61.404586 
L 262.016317 60.817314 
L 262.356712 60.225544 
L 262.697101 59.630622 
L 263.037496 59.0201 
L 263.377885 58.407098 
L 263.71828 57.791123 
L 264.058669 57.164241 
L 264.399063 56.527727 
L 264.739453 55.883758 
L 265.079847 55.234201 
L 265.420237 54.575834 
L 265.760631 53.912885 
L 266.101021 53.235665 
L 266.441415 52.555767 
L 266.781805 51.865945 
L 267.122199 51.16728 
L 267.462589 50.464768 
L 267.802983 49.757895 
L 268.143373 49.037981 
L 268.483767 48.315236 
L 268.824157 47.577744 
L 269.164551 46.838697 
L 269.504941 46.090149 
L 269.845335 45.331499 
L 270.185725 44.573335 
L 270.526119 43.808694 
L 270.866508 43.037569 
L 271.206903 42.257079 
L 271.547292 41.48008 
L 271.887687 40.691268 
L 272.228076 39.900746 
L 272.568471 39.10934 
L 272.90886 38.313896 
L 273.249255 37.516006 
L 273.589644 36.714853 
L 273.930034 35.916648 
L 274.270428 35.114577 
L 274.610818 34.313576 
L 274.951212 33.518282 
L 275.291602 32.721711 
L 275.631996 31.92773 
L 275.972386 31.138684 
L 276.31278 30.35357 
L 276.65317 29.5711 
L 276.993564 28.799913 
L 277.333953 28.035145 
L 277.674348 27.274947 
L 278.014737 26.526367 
L 278.355132 25.78178 
L 278.695521 25.05259 
L 279.035916 24.334918 
L 279.376305 23.629491 
L 279.7167 22.940561 
L 280.057089 22.257828 
L 280.397484 21.593339 
L 280.737873 20.947204 
L 281.078268 20.321296 
L 281.418657 19.710253 
L 281.759051 19.115787 
L 282.099441 18.53985 
L 282.439835 17.985519 
L 282.780225 17.450539 
L 283.120619 16.939157 
L 283.461009 16.446931 
L 283.801403 15.977816 
L 284.141793 15.527702 
L 284.482187 15.104843 
L 284.822577 14.706244 
L 285.162971 14.324582 
L 285.503361 13.970233 
L 285.843755 13.638888 
L 286.184145 13.331768 
L 286.524539 13.044037 
L 286.864929 12.783567 
L 287.205323 12.539571 
L 287.545713 12.321614 
L 287.886107 12.12283 
L 288.226496 11.946937 
L 288.566891 11.79316 
L 288.90728 11.657732 
L 289.247675 11.541475 
L 289.588064 11.446091 
L 289.928459 11.365689 
L 290.268848 11.301623 
L 290.609243 11.261233 
L 290.949632 11.23373 
L 291.290027 11.21656 
L 291.630416 11.21832 
L 291.970811 11.232703 
L 292.311205 11.265205 
L 292.65159 11.310513 
L 292.991984 11.366475 
L 293.332378 11.43239 
L 293.672773 11.511207 
L 294.013158 11.606852 
L 294.353552 11.707754 
L 294.693946 11.822164 
L 295.034341 11.949396 
L 295.374725 12.089491 
L 295.71512 12.239682 
L 296.055514 12.405499 
L 296.395899 12.576475 
L 296.736293 12.760506 
L 297.076688 12.958955 
L 297.417082 13.174667 
L 297.757467 13.400284 
L 298.097861 13.644564 
L 298.438256 13.895202 
L 298.77865 14.152287 
L 299.119035 14.426559 
L 299.459429 14.716357 
L 299.799823 15.02039 
L 300.140218 15.339278 
L 300.480603 15.669686 
L 300.820997 16.016648 
L 301.161391 16.380934 
L 301.501786 16.760915 
L 301.84217 17.151348 
L 302.182565 17.559758 
L 302.522959 17.986223 
L 302.863354 18.422122 
L 303.203738 18.869485 
L 303.544133 19.331523 
L 303.884527 19.805679 
L 304.224921 20.297393 
L 304.565306 20.79577 
L 304.905701 21.31063 
L 305.246095 21.835446 
L 305.586489 22.365321 
L 305.926874 22.907104 
L 306.267268 23.459472 
L 306.607663 24.019064 
L 306.948057 24.595685 
L 307.288442 25.174222 
L 307.628836 25.760098 
L 307.969231 26.352881 
L 308.309625 26.945022 
L 308.65001 27.546083 
L 308.990404 28.150573 
L 309.330799 28.765304 
L 309.671193 29.375505 
L 310.011578 29.993939 
L 310.351972 30.613895 
L 310.692366 31.233815 
L 311.032761 31.857677 
L 311.373146 32.48564 
L 311.71354 33.115433 
L 312.053934 33.743918 
L 312.394329 34.375412 
L 312.734713 35.008224 
L 313.075108 35.632884 
L 313.415502 36.262326 
L 313.755897 36.895695 
L 314.096281 37.522928 
L 314.436676 38.152693 
L 314.77707 38.785998 
L 315.117464 39.41603 
L 315.457849 40.047432 
L 315.798244 40.679949 
L 316.138638 41.311208 
L 316.479023 41.949017 
L 316.819417 42.582388 
L 317.159811 43.21831 
L 317.500206 43.852429 
L 317.840591 44.484982 
L 318.180985 45.123701 
L 318.521379 45.762433 
L 318.861774 46.399386 
L 319.202158 47.034778 
L 319.542553 47.671828 
L 319.882947 48.314102 
L 320.223342 48.958578 
L 320.563726 49.600686 
L 320.904121 50.244641 
L 321.244515 50.888719 
L 321.584909 51.534465 
L 321.925294 52.183297 
L 322.265689 52.835247 
L 322.606083 53.479574 
L 322.946477 54.122791 
L 323.286862 54.771471 
L 323.627256 55.41628 
L 323.967651 56.060708 
L 324.308045 56.704446 
L 324.64843 57.350389 
L 324.988824 57.993335 
L 325.329219 58.637438 
L 325.669613 59.273969 
L 326.009998 59.909644 
L 326.350392 60.539746 
L 326.690787 61.167092 
L 327.031181 61.789176 
L 327.371566 62.409012 
L 327.71196 63.021658 
L 328.052354 63.631878 
L 328.392749 64.236259 
L 328.733134 64.834074 
L 329.073528 65.429033 
L 329.413922 66.016811 
L 329.754317 66.594606 
L 330.094701 67.166149 
L 330.435096 67.72592 
L 330.77549 68.280655 
L 330.77549 91.257273 
z
" style="fill:#1f77b4;opacity:0.4;stroke:#ffffff;stroke-linejoin:miter;"/>
   </g>
   <g id="patch_5">
    <path clip-path="url(#p3bafedf6ba)" d="M 30.03063 91.257273 
L 30.417422 91.256944 
L 30.804215 91.256887 
L 31.191007 91.256821 
L 31.577799 91.256745 
L 31.964591 91.256658 
L 32.351383 91.256231 
L 32.738175 91.256061 
L 33.124967 91.255868 
L 33.511759 91.255649 
L 33.898551 91.255401 
L 34.285343 91.255122 
L 34.672135 91.254807 
L 35.058928 91.254455 
L 35.44572 91.254062 
L 35.832512 91.253625 
L 36.219304 91.25314 
L 36.606096 91.252275 
L 36.992888 91.251627 
L 37.37968 91.250913 
L 37.766472 91.250128 
L 38.153264 91.249268 
L 38.540056 91.24833 
L 38.926849 91.247309 
L 39.313641 91.246202 
L 39.700433 91.245005 
L 40.087225 91.243717 
L 40.474017 91.242334 
L 40.860809 91.240526 
L 41.247601 91.238892 
L 41.634393 91.237152 
L 42.021185 91.235304 
L 42.407977 91.23302 
L 42.794769 91.230902 
L 43.181562 91.22867 
L 43.568354 91.226326 
L 43.955146 91.223872 
L 44.341938 91.220983 
L 44.72873 91.217934 
L 45.115522 91.215051 
L 45.502314 91.212058 
L 45.889106 91.20896 
L 46.275898 91.205762 
L 46.66269 91.202141 
L 47.049482 91.198704 
L 47.436275 91.195178 
L 47.823067 91.19157 
L 48.209859 91.187886 
L 48.596651 91.184134 
L 48.983443 91.179335 
L 49.370235 91.174969 
L 49.757027 91.170474 
L 50.143819 91.165848 
L 50.530611 91.161413 
L 50.917403 91.156891 
L 51.304196 91.152285 
L 52.07778 91.147264 
L 52.464562 91.142429 
L 52.851354 91.13717 
L 53.238146 91.132086 
L 53.624938 91.126564 
L 54.011721 91.120872 
L 54.398513 91.115326 
L 54.785305 91.109312 
L 55.172088 91.103094 
L 55.55888 91.096657 
L 55.945672 91.089985 
L 56.332464 91.083061 
L 56.719246 91.075867 
L 57.106038 91.068386 
L 57.49283 91.060929 
L 57.879623 91.05222 
L 58.266405 91.04405 
L 58.653197 91.035571 
L 59.039989 91.026445 
L 59.426772 91.017265 
L 59.813564 91.007743 
L 60.200356 90.996562 
L 60.587148 90.984475 
L 60.97393 90.973034 
L 61.360723 90.96111 
L 61.747515 90.94836 
L 62.134297 90.935046 
L 62.521089 90.921477 
L 62.907881 90.907365 
L 63.294673 90.892372 
L 63.681456 90.876761 
L 64.068248 90.861177 
L 64.45504 90.844404 
L 64.841822 90.826989 
L 65.228615 90.808264 
L 65.615407 90.789418 
L 66.002199 90.769224 
L 66.388981 90.749199 
L 66.775773 90.728172 
L 67.162565 90.705422 
L 67.549348 90.681424 
L 67.93614 90.656081 
L 68.322932 90.629945 
L 68.709724 90.60334 
L 69.096507 90.57632 
L 69.483299 90.548298 
L 69.870091 90.518911 
L 70.256883 90.488071 
L 70.643665 90.456665 
L 71.030457 90.423441 
L 71.41725 90.38858 
L 71.804032 90.350655 
L 72.190824 90.312608 
L 72.577616 90.27396 
L 72.964408 90.233828 
L 73.351191 90.191179 
L 73.737983 90.145801 
L 74.124775 90.097734 
L 74.511557 90.049402 
L 74.89835 89.998458 
L 75.285142 89.94538 
L 75.671934 89.890092 
L 76.058716 89.831482 
L 76.445508 89.77029 
L 76.8323 89.70548 
L 77.219083 89.638757 
L 77.605875 89.570827 
L 77.992667 89.499576 
L 78.379459 89.426482 
L 78.766242 89.349021 
L 79.153034 89.269177 
L 79.539826 89.187331 
L 79.926608 89.099667 
L 80.3134 89.008243 
L 80.700192 88.913587 
L 81.086984 88.815728 
L 81.473767 88.713668 
L 81.860559 88.609542 
L 82.247351 88.501598 
L 82.634143 88.388443 
L 83.020926 88.27339 
L 83.407718 88.155083 
L 83.79451 88.030952 
L 84.181292 87.9016 
L 84.568084 87.770335 
L 84.954877 87.632565 
L 85.341669 87.492479 
L 85.728451 87.348384 
L 86.115243 87.200542 
L 86.502035 87.048013 
L 86.888818 86.890728 
L 87.27561 86.729219 
L 87.662402 86.5651 
L 88.049194 86.39595 
L 88.435977 86.221893 
L 88.822769 86.042527 
L 89.209561 85.859026 
L 89.596343 85.670412 
L 89.983135 85.476863 
L 90.369927 85.280515 
L 90.756719 85.079671 
L 91.143502 84.874031 
L 91.530294 84.662203 
L 91.917086 84.443551 
L 92.303869 84.219969 
L 92.690661 83.996184 
L 93.077453 83.7667 
L 93.464245 83.527186 
L 93.851027 83.285272 
L 94.237819 83.034219 
L 94.624611 82.780901 
L 95.011404 82.522846 
L 95.398186 82.256447 
L 95.784978 81.985102 
L 96.17177 81.709543 
L 96.558553 81.427027 
L 96.945345 81.13599 
L 97.332137 80.8418 
L 97.718929 80.541032 
L 98.105711 80.231587 
L 98.492504 79.918204 
L 98.879296 79.597325 
L 99.266078 79.268068 
L 99.65287 78.932047 
L 100.039662 78.592825 
L 100.426454 78.24112 
L 100.813237 77.888113 
L 101.200029 77.52544 
L 101.586821 77.156867 
L 101.973603 76.775476 
L 102.360396 76.391341 
L 102.747188 75.999942 
L 103.13398 75.600616 
L 103.520762 75.196943 
L 103.907554 74.78424 
L 104.294346 74.366972 
L 104.681139 73.93956 
L 105.067921 73.502397 
L 105.454713 73.057611 
L 105.841505 72.609462 
L 106.228288 72.155387 
L 106.61508 71.694891 
L 107.001872 71.22246 
L 107.388664 70.743942 
L 107.775446 70.257887 
L 108.162238 69.767422 
L 108.549031 69.270323 
L 108.935813 68.761456 
L 109.322605 68.244319 
L 109.709397 67.724079 
L 110.096189 67.195012 
L 110.482972 66.655665 
L 110.869764 66.113251 
L 111.256556 65.564548 
L 111.643338 65.003575 
L 112.030131 64.439228 
L 112.416923 63.864576 
L 112.803715 63.279558 
L 113.190497 62.697435 
L 113.577289 62.103509 
L 113.964081 61.50334 
L 114.350864 60.890592 
L 114.737656 60.272467 
L 115.124448 59.654025 
L 115.51124 59.024776 
L 115.898023 58.390834 
L 116.284815 57.744603 
L 116.671607 57.09654 
L 117.058399 56.440728 
L 117.445181 55.776141 
L 117.831973 55.10801 
L 118.218765 54.43162 
L 118.605548 53.758753 
L 118.99234 53.080649 
L 119.379132 52.398914 
L 119.765924 51.712179 
L 120.152707 51.023125 
L 120.539499 50.330027 
L 120.926291 49.626913 
L 121.313073 48.920534 
L 121.699865 48.214721 
L 122.086658 47.507848 
L 122.47345 46.801201 
L 122.860232 46.093031 
L 123.247024 45.383269 
L 123.633816 44.673884 
L 124.020599 43.956584 
L 124.407391 43.242102 
L 124.794183 42.525031 
L 125.180975 41.806076 
L 125.567757 41.093943 
L 125.95455 40.370682 
L 126.341342 39.653362 
L 126.728124 38.934382 
L 127.114916 38.216565 
L 127.501708 37.498414 
L 127.8885 36.780523 
L 128.275283 36.066691 
L 128.662075 35.3492 
L 129.048867 34.632792 
L 129.435659 33.921038 
L 129.822442 33.211495 
L 130.209234 32.5038 
L 130.596021 31.792315 
L 130.982813 31.083575 
L 131.3696 30.380071 
L 131.756392 29.679078 
L 132.14318 28.985056 
L 132.529972 28.29581 
L 132.916759 27.613295 
L 133.303546 26.933063 
L 133.690338 26.258719 
L 134.077126 25.591849 
L 134.463918 24.930588 
L 134.850705 24.275961 
L 135.237497 23.636758 
L 135.624285 23.00943 
L 136.011072 22.38734 
L 136.397864 21.776793 
L 136.784651 21.181561 
L 137.171443 20.602348 
L 137.558231 20.036485 
L 137.945023 19.47908 
L 138.33181 18.935385 
L 138.718602 18.408969 
L 139.105389 17.902071 
L 139.492177 17.412314 
L 139.878969 16.937976 
L 140.265756 16.488405 
L 140.652548 16.050536 
L 141.039335 15.627003 
L 141.426127 15.230963 
L 141.812915 14.848057 
L 142.199702 14.487512 
L 142.586494 14.146543 
L 142.973281 13.826671 
L 143.360073 13.525232 
L 143.746861 13.2426 
L 144.133653 12.978973 
L 144.52044 12.728594 
L 144.907232 12.504374 
L 145.294019 12.306776 
L 145.680807 12.118731 
L 146.067599 11.94744 
L 146.454386 11.796822 
L 146.841178 11.662578 
L 147.227965 11.547687 
L 147.614758 11.444876 
L 148.001545 11.365133 
L 148.388337 11.303291 
L 148.775124 11.255993 
L 149.161912 11.221865 
L 149.548704 11.204965 
L 149.935491 11.202727 
L 150.322283 11.217157 
L 150.70907 11.246511 
L 151.095862 11.291816 
L 151.48265 11.348204 
L 151.869437 11.417617 
L 152.256229 11.504207 
L 152.643016 11.606622 
L 153.029808 11.716705 
L 153.416596 11.844362 
L 153.803388 11.990559 
L 154.190175 12.143829 
L 154.576967 12.310117 
L 154.963754 12.496518 
L 155.350542 12.688788 
L 155.737334 12.90171 
L 156.124121 13.128698 
L 156.510913 13.356231 
L 156.8977 13.607249 
L 157.284493 13.872405 
L 157.67128 14.155839 
L 158.058067 14.452771 
L 158.444859 14.761136 
L 158.831646 15.081168 
L 159.218439 15.41723 
L 159.605226 15.772263 
L 159.992018 16.140134 
L 160.378805 16.523134 
L 160.765597 16.922144 
L 161.152385 17.331287 
L 161.539172 17.758361 
L 161.925964 18.18977 
L 162.312751 18.638977 
L 162.699543 19.100373 
L 163.086331 19.576361 
L 163.473123 20.065429 
L 163.85991 20.567629 
L 164.246697 21.087022 
L 164.633489 21.619904 
L 165.020277 22.15939 
L 165.407069 22.712151 
L 165.793856 23.273226 
L 166.180648 23.844808 
L 166.567435 24.431808 
L 166.954227 25.025442 
L 167.341015 25.634117 
L 167.727802 26.246754 
L 168.114594 26.866794 
L 168.501381 27.494032 
L 168.888173 28.12453 
L 169.274961 28.775471 
L 169.661753 29.423205 
L 170.04854 30.079306 
L 170.43533 30.74096 
L 170.822119 31.406383 
L 171.208909 32.075429 
L 171.595699 32.749427 
L 171.982486 33.429187 
L 172.369276 34.112287 
L 172.756066 34.795647 
L 173.142855 35.482489 
L 173.529645 36.17394 
L 173.916435 36.872797 
L 174.303224 37.567963 
L 174.690014 38.267078 
L 175.076801 38.966381 
L 175.463591 39.664048 
L 175.850381 40.363187 
L 176.23717 41.060223 
L 176.62396 41.76278 
L 177.01075 42.462252 
L 177.397539 43.16182 
L 177.784329 43.862658 
L 178.171116 44.565036 
L 178.557906 45.261147 
L 178.944696 45.953468 
L 179.331485 46.645599 
L 179.718275 47.3387 
L 180.105065 48.029366 
L 180.491854 48.712156 
L 180.878644 49.395665 
L 181.265431 50.079415 
L 181.652221 50.761633 
L 182.039011 51.439932 
L 182.4258 52.112464 
L 182.81259 52.778648 
L 183.19938 53.444621 
L 183.58617 54.104719 
L 183.972959 54.762057 
L 184.359746 55.419275 
L 184.746536 56.066885 
L 185.133326 56.713239 
L 185.520116 57.353935 
L 185.906905 57.991108 
L 186.293695 58.622664 
L 186.680485 59.246362 
L 187.067274 59.870639 
L 187.454062 60.484782 
L 187.840851 61.102628 
L 188.227641 61.706351 
L 188.614431 62.30317 
L 189.00122 62.898634 
L 189.38801 63.491595 
L 189.7748 64.076375 
L 190.161589 64.656061 
L 190.548377 65.229294 
L 190.935168 65.798189 
L 191.321956 66.358877 
L 191.708746 66.913738 
L 192.095535 67.463917 
L 192.482325 68.005697 
L 192.869114 68.540141 
L 193.255903 69.069583 
L 193.642693 69.595292 
L 194.029483 70.111941 
L 194.416271 70.620486 
L 194.803061 71.122498 
L 195.18985 71.618211 
L 195.57664 72.105737 
L 195.963429 72.58508 
L 196.350218 73.05751 
L 196.737008 73.518333 
L 197.123798 73.970933 
L 197.510587 74.418278 
L 197.897376 74.857421 
L 198.284166 75.285685 
L 198.670955 75.70894 
L 199.057745 76.120028 
L 199.444533 76.525425 
L 199.831323 76.925523 
L 200.218113 77.312792 
L 200.604902 77.691339 
L 200.991692 78.063332 
L 201.378481 78.425529 
L 201.76527 78.778001 
L 202.152059 79.127772 
L 202.538849 79.465791 
L 202.925638 79.796928 
L 203.312428 80.118312 
L 203.699217 80.433714 
L 204.086007 80.743431 
L 204.472796 81.044686 
L 204.859585 81.338368 
L 205.246374 81.626703 
L 205.633164 81.906904 
L 206.019953 82.183297 
L 206.406743 82.453428 
L 206.793532 82.717243 
L 207.180321 82.974955 
L 207.567111 83.227327 
L 207.9539 83.472789 
L 208.34069 83.713659 
L 208.727479 83.947679 
L 209.114268 84.177458 
L 209.501058 84.402474 
L 209.887847 84.620808 
L 210.274637 84.836365 
L 210.661426 85.047567 
L 211.048215 85.25425 
L 211.435005 85.458982 
L 211.821794 85.657702 
L 212.208584 85.850118 
L 212.595373 86.03692 
L 212.982162 86.22024 
L 213.368952 86.399129 
L 213.755741 86.574457 
L 214.14253 86.747793 
L 214.52932 86.915205 
L 214.916109 87.076389 
L 215.302899 87.23416 
L 215.689688 87.387226 
L 216.076477 87.536209 
L 216.463267 87.680847 
L 216.850056 87.8206 
L 217.236846 87.956688 
L 217.623635 88.090937 
L 218.010425 88.217075 
L 218.397214 88.341606 
L 218.784003 88.461685 
L 219.170792 88.576542 
L 219.557582 88.689163 
L 219.944371 88.79595 
L 220.331161 88.900287 
L 220.71795 88.999473 
L 221.104739 89.095143 
L 221.491529 89.186414 
L 221.878318 89.273995 
L 222.265108 89.358272 
L 222.651897 89.439549 
L 223.038686 89.515309 
L 223.425476 89.58958 
L 223.812266 89.659885 
L 224.199054 89.728089 
L 224.585844 89.792213 
L 224.972633 89.852232 
L 225.359423 89.910657 
L 225.746212 89.964053 
L 226.133001 90.017064 
L 226.519791 90.067223 
L 226.906581 90.113292 
L 227.293369 90.159826 
L 227.680159 90.203719 
L 228.066949 90.244306 
L 228.453738 90.283276 
L 228.840527 90.319561 
L 229.227316 90.354507 
L 229.614106 90.38703 
L 230.000896 90.419578 
L 230.387684 90.451163 
L 230.774474 90.480679 
L 231.161262 90.509151 
L 231.548052 90.535507 
L 231.934842 90.561078 
L 232.321631 90.586445 
L 232.708421 90.609035 
L 233.095211 90.631421 
L 233.482001 90.652442 
L 233.86879 90.673629 
L 234.255577 90.693776 
L 234.642367 90.712698 
L 235.029157 90.731921 
L 235.415947 90.749947 
L 235.802736 90.767746 
L 236.189526 90.784186 
L 236.576316 90.800266 
L 236.963105 90.815998 
L 237.349893 90.831113 
L 237.736682 90.846502 
L 238.123472 90.861525 
L 238.510262 90.876476 
L 238.897051 90.891606 
L 239.283841 90.90517 
L 239.670631 90.918207 
L 240.05742 90.932712 
L 240.444208 90.945631 
L 240.830997 90.957724 
L 241.217787 90.969636 
L 241.604577 90.981915 
L 241.991366 90.993628 
L 242.378156 91.00482 
L 242.764946 91.015809 
L 243.151735 91.026863 
L 243.538523 91.037931 
L 243.925312 91.04813 
L 244.312102 91.058106 
L 244.698892 91.067851 
L 245.085681 91.077355 
L 245.472474 91.086891 
L 245.859266 91.09585 
L 246.246058 91.105113 
L 246.63285 91.114029 
L 247.019642 91.122883 
L 247.406434 91.130524 
L 247.793226 91.138207 
L 248.180018 91.145604 
L 248.56681 91.152713 
L 248.953602 91.159255 
L 249.340395 91.165834 
L 249.727187 91.171842 
L 250.113979 91.177605 
L 250.500771 91.18312 
L 250.887563 91.188386 
L 251.274355 91.193401 
L 251.661147 91.198167 
L 252.047939 91.202965 
L 252.434731 91.207196 
L 252.821523 91.211193 
L 253.208315 91.215238 
L 253.595108 91.219293 
L 253.9819 91.222489 
L 254.368692 91.225488 
L 254.755484 91.228295 
L 255.142276 91.231472 
L 255.529068 91.233823 
L 255.91586 91.236012 
L 256.302652 91.238322 
L 256.689444 91.240158 
L 257.076236 91.242133 
L 257.463028 91.243654 
L 257.849821 91.245053 
L 258.236613 91.246336 
L 258.623405 91.24751 
L 259.010197 91.248859 
L 259.396989 91.24979 
L 259.783781 91.250635 
L 260.170573 91.2514 
L 260.557365 91.252091 
L 260.944157 91.252992 
L 261.330949 91.253786 
L 261.717742 91.254206 
L 262.104534 91.254582 
L 262.491326 91.25492 
L 262.878118 91.25522 
L 263.26491 91.255488 
L 263.651702 91.255725 
L 264.038494 91.255934 
L 264.425286 91.256119 
L 264.812078 91.25656 
L 265.19887 91.256658 
L 265.585662 91.256745 
L 265.972455 91.256821 
L 266.359247 91.256887 
L 266.746039 91.256944 
z
" style="fill:#ff7f0e;opacity:0.4;stroke:#ffffff;stroke-linejoin:miter;"/>
   </g>
   <g id="patch_6">
    <path clip-path="url(#p3bafedf6ba)" d="M 108.549031 91.257273 
L 108.549031 69.270323 
L 108.935813 68.761456 
L 109.322605 68.244319 
L 109.709397 67.724079 
L 110.096189 67.195012 
L 110.482972 66.655665 
L 110.869764 66.113251 
L 111.256556 65.564548 
L 111.643338 65.003575 
L 112.030131 64.439228 
L 112.416923 63.864576 
L 112.803715 63.279558 
L 113.190497 62.697435 
L 113.577289 62.103509 
L 113.964081 61.50334 
L 114.350864 60.890592 
L 114.737656 60.272467 
L 115.124448 59.654025 
L 115.51124 59.024776 
L 115.898023 58.390834 
L 116.284815 57.744603 
L 116.671607 57.09654 
L 117.058399 56.440728 
L 117.445181 55.776141 
L 117.831973 55.10801 
L 118.218765 54.43162 
L 118.605548 53.758753 
L 118.99234 53.080649 
L 119.379132 52.398914 
L 119.765924 51.712179 
L 120.152707 51.023125 
L 120.539499 50.330027 
L 120.926291 49.626913 
L 121.313073 48.920534 
L 121.699865 48.214721 
L 122.086658 47.507848 
L 122.47345 46.801201 
L 122.860232 46.093031 
L 123.247024 45.383269 
L 123.633816 44.673884 
L 124.020599 43.956584 
L 124.407391 43.242102 
L 124.794183 42.525031 
L 125.180975 41.806076 
L 125.567757 41.093943 
L 125.95455 40.370682 
L 126.341342 39.653362 
L 126.728124 38.934382 
L 127.114916 38.216565 
L 127.501708 37.498414 
L 127.8885 36.780523 
L 128.275283 36.066691 
L 128.662075 35.3492 
L 129.048867 34.632792 
L 129.435659 33.921038 
L 129.822442 33.211495 
L 130.209234 32.5038 
L 130.596021 31.792315 
L 130.982813 31.083575 
L 131.3696 30.380071 
L 131.756392 29.679078 
L 132.14318 28.985056 
L 132.529972 28.29581 
L 132.916759 27.613295 
L 133.303546 26.933063 
L 133.690338 26.258719 
L 134.077126 25.591849 
L 134.463918 24.930588 
L 134.850705 24.275961 
L 135.237497 23.636758 
L 135.624285 23.00943 
L 136.011072 22.38734 
L 136.397864 21.776793 
L 136.784651 21.181561 
L 137.171443 20.602348 
L 137.558231 20.036485 
L 137.945023 19.47908 
L 138.33181 18.935385 
L 138.718602 18.408969 
L 139.105389 17.902071 
L 139.492177 17.412314 
L 139.878969 16.937976 
L 140.265756 16.488405 
L 140.652548 16.050536 
L 141.039335 15.627003 
L 141.426127 15.230963 
L 141.812915 14.848057 
L 142.199702 14.487512 
L 142.586494 14.146543 
L 142.973281 13.826671 
L 143.360073 13.525232 
L 143.746861 13.2426 
L 144.133653 12.978973 
L 144.52044 12.728594 
L 144.907232 12.504374 
L 145.294019 12.306776 
L 145.680807 12.118731 
L 146.067599 11.94744 
L 146.454386 11.796822 
L 146.841178 11.662578 
L 147.227965 11.547687 
L 147.614758 11.444876 
L 148.001545 11.365133 
L 148.388337 11.303291 
L 148.775124 11.255993 
L 149.161912 11.221865 
L 149.548704 11.204965 
L 149.935491 11.202727 
L 150.322283 11.217157 
L 150.70907 11.246511 
L 151.095862 11.291816 
L 151.48265 11.348204 
L 151.869437 11.417617 
L 152.256229 11.504207 
L 152.643016 11.606622 
L 153.029808 11.716705 
L 153.416596 11.844362 
L 153.803388 11.990559 
L 154.190175 12.143829 
L 154.576967 12.310117 
L 154.963754 12.496518 
L 155.350542 12.688788 
L 155.737334 12.90171 
L 156.124121 13.128698 
L 156.510913 13.356231 
L 156.8977 13.607249 
L 157.284493 13.872405 
L 157.67128 14.155839 
L 158.058067 14.452771 
L 158.444859 14.761136 
L 158.831646 15.081168 
L 159.218439 15.41723 
L 159.605226 15.772263 
L 159.992018 16.140134 
L 160.378805 16.523134 
L 160.765597 16.922144 
L 161.152385 17.331287 
L 161.539172 17.758361 
L 161.925964 18.18977 
L 162.312751 18.638977 
L 162.699543 19.100373 
L 163.086331 19.576361 
L 163.473123 20.065429 
L 163.85991 20.567629 
L 164.246697 21.087022 
L 164.633489 21.619904 
L 165.020277 22.15939 
L 165.407069 22.712151 
L 165.793856 23.273226 
L 166.180648 23.844808 
L 166.567435 24.431808 
L 166.954227 25.025442 
L 167.341015 25.634117 
L 167.727802 26.246754 
L 168.114594 26.866794 
L 168.501381 27.494032 
L 168.888173 28.12453 
L 169.274961 28.775471 
L 169.661753 29.423205 
L 170.04854 30.079306 
L 170.43533 30.74096 
L 170.822119 31.406383 
L 171.208909 32.075429 
L 171.595699 32.749427 
L 171.982486 33.429187 
L 172.369276 34.112287 
L 172.756066 34.795647 
L 173.142855 35.482489 
L 173.529645 36.17394 
L 173.916435 36.872797 
L 174.303224 37.567963 
L 174.690014 38.267078 
L 175.076801 38.966381 
L 175.463591 39.664048 
L 175.850381 40.363187 
L 176.23717 41.060223 
L 176.62396 41.76278 
L 177.01075 42.462252 
L 177.397539 43.16182 
L 177.784329 43.862658 
L 178.171116 44.565036 
L 178.557906 45.261147 
L 178.944696 45.953468 
L 179.331485 46.645599 
L 179.718275 47.3387 
L 180.105065 48.029366 
L 180.491854 48.712156 
L 180.878644 49.395665 
L 181.265431 50.079415 
L 181.652221 50.761633 
L 182.039011 51.439932 
L 182.4258 52.112464 
L 182.81259 52.778648 
L 183.19938 53.444621 
L 183.58617 54.104719 
L 183.972959 54.762057 
L 184.359746 55.419275 
L 184.746536 56.066885 
L 185.133326 56.713239 
L 185.520116 57.353935 
L 185.906905 57.991108 
L 186.293695 58.622664 
L 186.680485 59.246362 
L 187.067274 59.870639 
L 187.454062 60.484782 
L 187.840851 61.102628 
L 188.227641 61.706351 
L 188.614431 62.30317 
L 189.00122 62.898634 
L 189.38801 63.491595 
L 189.7748 64.076375 
L 190.161589 64.656061 
L 190.548377 65.229294 
L 190.935168 65.798189 
L 191.321956 66.358877 
L 191.708746 66.913738 
L 191.708746 91.257273 
z
" style="fill:#ff7f0e;opacity:0.4;stroke:#ffffff;stroke-linejoin:miter;"/>
   </g>
   <g id="line2d_6">
    <path clip-path="url(#p3bafedf6ba)" d="M 372.343473 95.26 
L 372.343473 7.2 
" style="fill:none;stroke:#4c72b0;stroke-linecap:round;stroke-width:1.5;"/>
   </g>
   <g id="line2d_7">
    <path clip-path="url(#p3bafedf6ba)" d="M 49.211666 95.26 
L 49.211666 7.2 
" style="fill:none;stroke:#dd8452;stroke-linecap:round;stroke-width:1.5;"/>
   </g>
   <g id="patch_7">
    <path d="M 11.572449 95.26 
L 417.652449 95.26 
" style="fill:none;stroke:#ffffff;stroke-linecap:square;stroke-linejoin:miter;stroke-width:1.25;"/>
   </g>
   <g id="legend_1">
    <g id="patch_8">
     <path d="M 345.179636 48.291875 
L 409.952449 48.291875 
Q 412.152449 48.291875 412.152449 46.091875 
L 412.152449 14.9 
Q 412.152449 12.7 409.952449 12.7 
L 345.179636 12.7 
Q 342.979636 12.7 342.979636 14.9 
L 342.979636 46.091875 
Q 342.979636 48.291875 345.179636 48.291875 
z
" style="fill:#eaeaf2;opacity:0.8;stroke:#cccccc;stroke-linejoin:miter;"/>
    </g>
    <g id="patch_9">
     <path d="M 347.379636 25.458281 
L 369.379636 25.458281 
L 369.379636 17.758281 
L 347.379636 17.758281 
z
" style="fill:#1f77b4;opacity:0.4;stroke:#ffffff;stroke-linejoin:miter;"/>
    </g>
    <g id="text_7">
     <!-- [0, 0] -->
     <defs>
      <path d="M 8.59375 75.984375 
L 29.296875 75.984375 
L 29.296875 69 
L 17.578125 69 
L 17.578125 -6.203125 
L 29.296875 -6.203125 
L 29.296875 -13.1875 
L 8.59375 -13.1875 
z
" id="DejaVuSans-91"/>
      <path d="M 11.71875 12.40625 
L 22.015625 12.40625 
L 22.015625 4 
L 14.015625 -11.625 
L 7.71875 -11.625 
L 11.71875 4 
z
" id="DejaVuSans-44"/>
      <path id="DejaVuSans-32"/>
      <path d="M 30.421875 75.984375 
L 30.421875 -13.1875 
L 9.71875 -13.1875 
L 9.71875 -6.203125 
L 21.390625 -6.203125 
L 21.390625 69 
L 9.71875 69 
L 9.71875 75.984375 
z
" id="DejaVuSans-93"/>
     </defs>
     <g style="fill:#262626;" transform="translate(378.179636 25.458281)scale(0.11 -0.11)">
      <use xlink:href="#DejaVuSans-91"/>
      <use x="39.013672" xlink:href="#DejaVuSans-48"/>
      <use x="102.636719" xlink:href="#DejaVuSans-44"/>
      <use x="134.423828" xlink:href="#DejaVuSans-32"/>
      <use x="166.210938" xlink:href="#DejaVuSans-48"/>
      <use x="229.833984" xlink:href="#DejaVuSans-93"/>
     </g>
    </g>
    <g id="patch_10">
     <path d="M 347.379636 41.604219 
L 369.379636 41.604219 
L 369.379636 33.904219 
L 347.379636 33.904219 
z
" style="fill:#ff7f0e;opacity:0.4;stroke:#ffffff;stroke-linejoin:miter;"/>
    </g>
    <g id="text_8">
     <!-- [1, 0] -->
     <g style="fill:#262626;" transform="translate(378.179636 41.604219)scale(0.11 -0.11)">
      <use xlink:href="#DejaVuSans-91"/>
      <use x="39.013672" xlink:href="#DejaVuSans-49"/>
      <use x="102.636719" xlink:href="#DejaVuSans-44"/>
      <use x="134.423828" xlink:href="#DejaVuSans-32"/>
      <use x="166.210938" xlink:href="#DejaVuSans-48"/>
      <use x="229.833984" xlink:href="#DejaVuSans-93"/>
     </g>
    </g>
   </g>
  </g>
  <g id="axes_2">
   <g id="patch_11">
    <path d="M 11.572449 232.78 
L 417.652449 232.78 
L 417.652449 144.72 
L 11.572449 144.72 
z
" style="fill:#eaeaf2;"/>
   </g>
   <g id="matplotlib.axis_2">
    <g id="xtick_6">
     <g id="line2d_8">
      <path clip-path="url(#pd7d88dd319)" d="M 20.555547 232.78 
L 20.555547 144.72 
" style="fill:none;stroke:#ffffff;stroke-linecap:round;"/>
     </g>
     <g id="text_9">
      <!-- −1.6 -->
      <defs>
       <path d="M 33.015625 40.375 
Q 26.375 40.375 22.484375 35.828125 
Q 18.609375 31.296875 18.609375 23.390625 
Q 18.609375 15.53125 22.484375 10.953125 
Q 26.375 6.390625 33.015625 6.390625 
Q 39.65625 6.390625 43.53125 10.953125 
Q 47.40625 15.53125 47.40625 23.390625 
Q 47.40625 31.296875 43.53125 35.828125 
Q 39.65625 40.375 33.015625 40.375 
z
M 52.59375 71.296875 
L 52.59375 62.3125 
Q 48.875 64.0625 45.09375 64.984375 
Q 41.3125 65.921875 37.59375 65.921875 
Q 27.828125 65.921875 22.671875 59.328125 
Q 17.53125 52.734375 16.796875 39.40625 
Q 19.671875 43.65625 24.015625 45.921875 
Q 28.375 48.1875 33.59375 48.1875 
Q 44.578125 48.1875 50.953125 41.515625 
Q 57.328125 34.859375 57.328125 23.390625 
Q 57.328125 12.15625 50.6875 5.359375 
Q 44.046875 -1.421875 33.015625 -1.421875 
Q 20.359375 -1.421875 13.671875 8.265625 
Q 6.984375 17.96875 6.984375 36.375 
Q 6.984375 53.65625 15.1875 63.9375 
Q 23.390625 74.21875 37.203125 74.21875 
Q 40.921875 74.21875 44.703125 73.484375 
Q 48.484375 72.75 52.59375 71.296875 
z
" id="DejaVuSans-54"/>
      </defs>
      <g style="fill:#262626;" transform="translate(7.2 250.638281)scale(0.11 -0.11)">
       <use xlink:href="#DejaVuSans-8722"/>
       <use x="83.789062" xlink:href="#DejaVuSans-49"/>
       <use x="147.412109" xlink:href="#DejaVuSans-46"/>
       <use x="179.199219" xlink:href="#DejaVuSans-54"/>
      </g>
     </g>
    </g>
    <g id="xtick_7">
     <g id="line2d_9">
      <path clip-path="url(#pd7d88dd319)" d="M 70.187945 232.78 
L 70.187945 144.72 
" style="fill:none;stroke:#ffffff;stroke-linecap:round;"/>
     </g>
     <g id="text_10">
      <!-- −1.4 -->
      <defs>
       <path d="M 37.796875 64.3125 
L 12.890625 25.390625 
L 37.796875 25.390625 
z
M 35.203125 72.90625 
L 47.609375 72.90625 
L 47.609375 25.390625 
L 58.015625 25.390625 
L 58.015625 17.1875 
L 47.609375 17.1875 
L 47.609375 0 
L 37.796875 0 
L 37.796875 17.1875 
L 4.890625 17.1875 
L 4.890625 26.703125 
z
" id="DejaVuSans-52"/>
      </defs>
      <g style="fill:#262626;" transform="translate(56.832398 250.638281)scale(0.11 -0.11)">
       <use xlink:href="#DejaVuSans-8722"/>
       <use x="83.789062" xlink:href="#DejaVuSans-49"/>
       <use x="147.412109" xlink:href="#DejaVuSans-46"/>
       <use x="179.199219" xlink:href="#DejaVuSans-52"/>
      </g>
     </g>
    </g>
    <g id="xtick_8">
     <g id="line2d_10">
      <path clip-path="url(#pd7d88dd319)" d="M 119.820342 232.78 
L 119.820342 144.72 
" style="fill:none;stroke:#ffffff;stroke-linecap:round;"/>
     </g>
     <g id="text_11">
      <!-- −1.2 -->
      <defs>
       <path d="M 19.1875 8.296875 
L 53.609375 8.296875 
L 53.609375 0 
L 7.328125 0 
L 7.328125 8.296875 
Q 12.9375 14.109375 22.625 23.890625 
Q 32.328125 33.6875 34.8125 36.53125 
Q 39.546875 41.84375 41.421875 45.53125 
Q 43.3125 49.21875 43.3125 52.78125 
Q 43.3125 58.59375 39.234375 62.25 
Q 35.15625 65.921875 28.609375 65.921875 
Q 23.96875 65.921875 18.8125 64.3125 
Q 13.671875 62.703125 7.8125 59.421875 
L 7.8125 69.390625 
Q 13.765625 71.78125 18.9375 73 
Q 24.125 74.21875 28.421875 74.21875 
Q 39.75 74.21875 46.484375 68.546875 
Q 53.21875 62.890625 53.21875 53.421875 
Q 53.21875 48.921875 51.53125 44.890625 
Q 49.859375 40.875 45.40625 35.40625 
Q 44.1875 33.984375 37.640625 27.21875 
Q 31.109375 20.453125 19.1875 8.296875 
z
" id="DejaVuSans-50"/>
      </defs>
      <g style="fill:#262626;" transform="translate(106.464795 250.638281)scale(0.11 -0.11)">
       <use xlink:href="#DejaVuSans-8722"/>
       <use x="83.789062" xlink:href="#DejaVuSans-49"/>
       <use x="147.412109" xlink:href="#DejaVuSans-46"/>
       <use x="179.199219" xlink:href="#DejaVuSans-50"/>
      </g>
     </g>
    </g>
    <g id="xtick_9">
     <g id="line2d_11">
      <path clip-path="url(#pd7d88dd319)" d="M 169.45274 232.78 
L 169.45274 144.72 
" style="fill:none;stroke:#ffffff;stroke-linecap:round;"/>
     </g>
     <g id="text_12">
      <!-- −1.0 -->
      <g style="fill:#262626;" transform="translate(156.097193 250.638281)scale(0.11 -0.11)">
       <use xlink:href="#DejaVuSans-8722"/>
       <use x="83.789062" xlink:href="#DejaVuSans-49"/>
       <use x="147.412109" xlink:href="#DejaVuSans-46"/>
       <use x="179.199219" xlink:href="#DejaVuSans-48"/>
      </g>
     </g>
    </g>
    <g id="xtick_10">
     <g id="line2d_12">
      <path clip-path="url(#pd7d88dd319)" d="M 219.085138 232.78 
L 219.085138 144.72 
" style="fill:none;stroke:#ffffff;stroke-linecap:round;"/>
     </g>
     <g id="text_13">
      <!-- −0.8 -->
      <defs>
       <path d="M 31.78125 34.625 
Q 24.75 34.625 20.71875 30.859375 
Q 16.703125 27.09375 16.703125 20.515625 
Q 16.703125 13.921875 20.71875 10.15625 
Q 24.75 6.390625 31.78125 6.390625 
Q 38.8125 6.390625 42.859375 10.171875 
Q 46.921875 13.96875 46.921875 20.515625 
Q 46.921875 27.09375 42.890625 30.859375 
Q 38.875 34.625 31.78125 34.625 
z
M 21.921875 38.8125 
Q 15.578125 40.375 12.03125 44.71875 
Q 8.5 49.078125 8.5 55.328125 
Q 8.5 64.0625 14.71875 69.140625 
Q 20.953125 74.21875 31.78125 74.21875 
Q 42.671875 74.21875 48.875 69.140625 
Q 55.078125 64.0625 55.078125 55.328125 
Q 55.078125 49.078125 51.53125 44.71875 
Q 48 40.375 41.703125 38.8125 
Q 48.828125 37.15625 52.796875 32.3125 
Q 56.78125 27.484375 56.78125 20.515625 
Q 56.78125 9.90625 50.3125 4.234375 
Q 43.84375 -1.421875 31.78125 -1.421875 
Q 19.734375 -1.421875 13.25 4.234375 
Q 6.78125 9.90625 6.78125 20.515625 
Q 6.78125 27.484375 10.78125 32.3125 
Q 14.796875 37.15625 21.921875 38.8125 
z
M 18.3125 54.390625 
Q 18.3125 48.734375 21.84375 45.5625 
Q 25.390625 42.390625 31.78125 42.390625 
Q 38.140625 42.390625 41.71875 45.5625 
Q 45.3125 48.734375 45.3125 54.390625 
Q 45.3125 60.0625 41.71875 63.234375 
Q 38.140625 66.40625 31.78125 66.40625 
Q 25.390625 66.40625 21.84375 63.234375 
Q 18.3125 60.0625 18.3125 54.390625 
z
" id="DejaVuSans-56"/>
      </defs>
      <g style="fill:#262626;" transform="translate(205.729591 250.638281)scale(0.11 -0.11)">
       <use xlink:href="#DejaVuSans-8722"/>
       <use x="83.789062" xlink:href="#DejaVuSans-48"/>
       <use x="147.412109" xlink:href="#DejaVuSans-46"/>
       <use x="179.199219" xlink:href="#DejaVuSans-56"/>
      </g>
     </g>
    </g>
    <g id="xtick_11">
     <g id="line2d_13">
      <path clip-path="url(#pd7d88dd319)" d="M 268.717535 232.78 
L 268.717535 144.72 
" style="fill:none;stroke:#ffffff;stroke-linecap:round;"/>
     </g>
     <g id="text_14">
      <!-- −0.6 -->
      <g style="fill:#262626;" transform="translate(255.361988 250.638281)scale(0.11 -0.11)">
       <use xlink:href="#DejaVuSans-8722"/>
       <use x="83.789062" xlink:href="#DejaVuSans-48"/>
       <use x="147.412109" xlink:href="#DejaVuSans-46"/>
       <use x="179.199219" xlink:href="#DejaVuSans-54"/>
      </g>
     </g>
    </g>
    <g id="xtick_12">
     <g id="line2d_14">
      <path clip-path="url(#pd7d88dd319)" d="M 318.349933 232.78 
L 318.349933 144.72 
" style="fill:none;stroke:#ffffff;stroke-linecap:round;"/>
     </g>
     <g id="text_15">
      <!-- −0.4 -->
      <g style="fill:#262626;" transform="translate(304.994386 250.638281)scale(0.11 -0.11)">
       <use xlink:href="#DejaVuSans-8722"/>
       <use x="83.789062" xlink:href="#DejaVuSans-48"/>
       <use x="147.412109" xlink:href="#DejaVuSans-46"/>
       <use x="179.199219" xlink:href="#DejaVuSans-52"/>
      </g>
     </g>
    </g>
    <g id="xtick_13">
     <g id="line2d_15">
      <path clip-path="url(#pd7d88dd319)" d="M 367.982331 232.78 
L 367.982331 144.72 
" style="fill:none;stroke:#ffffff;stroke-linecap:round;"/>
     </g>
     <g id="text_16">
      <!-- −0.2 -->
      <g style="fill:#262626;" transform="translate(354.626784 250.638281)scale(0.11 -0.11)">
       <use xlink:href="#DejaVuSans-8722"/>
       <use x="83.789062" xlink:href="#DejaVuSans-48"/>
       <use x="147.412109" xlink:href="#DejaVuSans-46"/>
       <use x="179.199219" xlink:href="#DejaVuSans-50"/>
      </g>
     </g>
    </g>
    <g id="xtick_14">
     <g id="line2d_16">
      <path clip-path="url(#pd7d88dd319)" d="M 417.614728 232.78 
L 417.614728 144.72 
" style="fill:none;stroke:#ffffff;stroke-linecap:round;"/>
     </g>
     <g id="text_17">
      <!-- 0.0 -->
      <g style="fill:#262626;" transform="translate(408.86801 250.638281)scale(0.11 -0.11)">
       <use xlink:href="#DejaVuSans-48"/>
       <use x="63.623047" xlink:href="#DejaVuSans-46"/>
       <use x="95.410156" xlink:href="#DejaVuSans-48"/>
      </g>
     </g>
    </g>
    <g id="text_18">
     <!-- Dense_bias -->
     <defs>
      <path d="M 48.6875 27.296875 
Q 48.6875 37.203125 44.609375 42.84375 
Q 40.53125 48.484375 33.40625 48.484375 
Q 26.265625 48.484375 22.1875 42.84375 
Q 18.109375 37.203125 18.109375 27.296875 
Q 18.109375 17.390625 22.1875 11.75 
Q 26.265625 6.109375 33.40625 6.109375 
Q 40.53125 6.109375 44.609375 11.75 
Q 48.6875 17.390625 48.6875 27.296875 
z
M 18.109375 46.390625 
Q 20.953125 51.265625 25.265625 53.625 
Q 29.59375 56 35.59375 56 
Q 45.5625 56 51.78125 48.09375 
Q 58.015625 40.1875 58.015625 27.296875 
Q 58.015625 14.40625 51.78125 6.484375 
Q 45.5625 -1.421875 35.59375 -1.421875 
Q 29.59375 -1.421875 25.265625 0.953125 
Q 20.953125 3.328125 18.109375 8.203125 
L 18.109375 0 
L 9.078125 0 
L 9.078125 75.984375 
L 18.109375 75.984375 
z
" id="DejaVuSans-98"/>
      <path d="M 34.28125 27.484375 
Q 23.390625 27.484375 19.1875 25 
Q 14.984375 22.515625 14.984375 16.5 
Q 14.984375 11.71875 18.140625 8.90625 
Q 21.296875 6.109375 26.703125 6.109375 
Q 34.1875 6.109375 38.703125 11.40625 
Q 43.21875 16.703125 43.21875 25.484375 
L 43.21875 27.484375 
z
M 52.203125 31.203125 
L 52.203125 0 
L 43.21875 0 
L 43.21875 8.296875 
Q 40.140625 3.328125 35.546875 0.953125 
Q 30.953125 -1.421875 24.3125 -1.421875 
Q 15.921875 -1.421875 10.953125 3.296875 
Q 6 8.015625 6 15.921875 
Q 6 25.140625 12.171875 29.828125 
Q 18.359375 34.515625 30.609375 34.515625 
L 43.21875 34.515625 
L 43.21875 35.40625 
Q 43.21875 41.609375 39.140625 45 
Q 35.0625 48.390625 27.6875 48.390625 
Q 23 48.390625 18.546875 47.265625 
Q 14.109375 46.140625 10.015625 43.890625 
L 10.015625 52.203125 
Q 14.9375 54.109375 19.578125 55.046875 
Q 24.21875 56 28.609375 56 
Q 40.484375 56 46.34375 49.84375 
Q 52.203125 43.703125 52.203125 31.203125 
z
" id="DejaVuSans-97"/>
     </defs>
     <g style="fill:#262626;" transform="translate(180.402136 266.044062)scale(0.12 -0.12)">
      <use xlink:href="#DejaVuSans-68"/>
      <use x="77.001953" xlink:href="#DejaVuSans-101"/>
      <use x="138.525391" xlink:href="#DejaVuSans-110"/>
      <use x="201.904297" xlink:href="#DejaVuSans-115"/>
      <use x="254.003906" xlink:href="#DejaVuSans-101"/>
      <use x="315.527344" xlink:href="#DejaVuSans-95"/>
      <use x="365.527344" xlink:href="#DejaVuSans-98"/>
      <use x="429.003906" xlink:href="#DejaVuSans-105"/>
      <use x="456.787109" xlink:href="#DejaVuSans-97"/>
      <use x="518.066406" xlink:href="#DejaVuSans-115"/>
     </g>
    </g>
   </g>
   <g id="patch_12">
    <path clip-path="url(#pd7d88dd319)" d="M 64.564389 228.777273 
L 65.111175 228.776964 
L 65.657962 228.776911 
L 66.204748 228.776849 
L 66.751535 228.776778 
L 67.298321 228.776696 
L 67.845108 228.776604 
L 68.391894 228.776499 
L 68.938681 228.77638 
L 69.485467 228.776245 
L 70.032254 228.776094 
L 70.579041 228.775924 
L 71.125827 228.775735 
L 71.672614 228.775524 
L 72.2194 228.775289 
L 72.766187 228.775031 
L 73.312973 228.774745 
L 73.85976 228.774432 
L 74.406546 228.774089 
L 74.953333 228.773715 
L 75.50012 228.773309 
L 76.046906 228.772869 
L 76.593693 228.772395 
L 77.140479 228.771886 
L 77.687266 228.77134 
L 78.234052 228.770759 
L 78.780839 228.770141 
L 79.327625 228.769488 
L 79.874412 228.7688 
L 80.421198 228.768077 
L 80.967985 228.767323 
L 81.514772 228.766537 
L 82.061558 228.765724 
L 82.608345 228.764885 
L 83.155131 228.764024 
L 83.701918 228.763144 
L 84.248704 228.76225 
L 84.795491 228.761346 
L 85.342277 228.760437 
L 85.889064 228.759528 
L 86.435851 228.758624 
L 86.982637 228.757731 
L 87.529424 228.756856 
L 88.07621 228.756004 
L 88.622997 228.75518 
L 89.169783 228.754392 
L 89.71657 228.753336 
L 90.263356 228.752273 
L 90.810143 228.751509 
L 91.35693 228.750786 
L 91.903716 228.750105 
L 92.450503 228.74947 
L 92.997289 228.748881 
L 93.544076 228.74834 
L 94.090862 228.747846 
L 94.637649 228.747399 
L 95.731222 228.746998 
L 96.278008 228.74633 
L 96.824765 228.745957 
L 97.371552 228.745611 
L 97.918339 228.744979 
L 98.465125 228.744616 
L 99.011882 228.743945 
L 99.558669 228.743212 
L 100.105455 228.742708 
L 100.652242 228.742159 
L 101.198999 228.741552 
L 101.745785 228.740568 
L 102.292572 228.739756 
L 102.839358 228.738841 
L 103.386115 228.73781 
L 103.932902 228.736339 
L 104.479688 228.73498 
L 105.026475 228.732841 
L 105.573261 228.731034 
L 106.120018 228.728714 
L 106.666805 228.72643 
L 107.213592 228.72391 
L 107.760378 228.72114 
L 108.307135 228.71811 
L 108.853922 228.714813 
L 109.400708 228.710623 
L 109.947495 228.706353 
L 110.494252 228.70142 
L 111.041038 228.696376 
L 111.587825 228.690639 
L 112.134611 228.684453 
L 112.681368 228.678107 
L 113.228155 228.671022 
L 113.774941 228.664058 
L 114.321728 228.656689 
L 114.868515 228.648913 
L 115.415271 228.640729 
L 115.962058 228.631524 
L 116.508845 228.621809 
L 117.055631 228.612188 
L 117.602388 228.601834 
L 118.149175 228.591314 
L 118.695961 228.580061 
L 119.242748 228.568645 
L 119.789505 228.556811 
L 120.336291 228.544261 
L 120.883078 228.531258 
L 121.429864 228.517498 
L 121.976621 228.503859 
L 122.523408 228.48767 
L 123.070194 228.472579 
L 123.616981 228.456709 
L 124.163738 228.44032 
L 124.710525 228.422173 
L 125.257311 228.403901 
L 125.804098 228.384959 
L 126.350884 228.365632 
L 126.897641 228.346209 
L 127.444428 228.325544 
L 127.991214 228.303568 
L 128.538001 228.281384 
L 129.084758 228.257825 
L 129.631544 228.234606 
L 130.178331 228.209736 
L 130.725117 228.183654 
L 131.271874 228.157188 
L 131.818661 228.129777 
L 132.365447 228.100147 
L 132.912234 228.069582 
L 133.458991 228.037136 
L 134.005778 228.00386 
L 134.552564 227.968844 
L 135.099351 227.933491 
L 135.646137 227.89607 
L 136.192894 227.855787 
L 136.739681 227.814808 
L 137.286467 227.769836 
L 137.833254 227.723176 
L 138.380011 227.676634 
L 138.926797 227.62618 
L 139.473584 227.574184 
L 140.02037 227.519446 
L 140.567127 227.460573 
L 141.113914 227.398728 
L 141.660701 227.335304 
L 142.207487 227.269497 
L 142.754244 227.199456 
L 143.301031 227.125187 
L 143.847817 227.047038 
L 144.394604 226.965753 
L 144.94139 226.880076 
L 145.488147 226.790409 
L 146.034934 226.697252 
L 146.58172 226.596904 
L 147.128507 226.494601 
L 147.675264 226.386046 
L 148.22205 226.273919 
L 148.768837 226.156467 
L 149.315623 226.033193 
L 149.86238 225.907239 
L 150.409167 225.774305 
L 150.955954 225.636138 
L 151.50274 225.490454 
L 152.049497 225.341072 
L 152.596284 225.188596 
L 153.14307 225.028497 
L 153.689857 224.862191 
L 154.236643 224.689515 
L 154.7834 224.510912 
L 155.330187 224.327226 
L 155.876973 224.137614 
L 156.42376 223.943562 
L 156.970517 223.740355 
L 157.517303 223.532897 
L 158.06409 223.318085 
L 158.610876 223.095098 
L 159.157633 222.86505 
L 159.70442 222.628398 
L 160.251207 222.386618 
L 160.797993 222.136484 
L 161.34475 221.881714 
L 161.891537 221.616516 
L 162.438323 221.344529 
L 162.98511 221.06631 
L 163.531896 220.780737 
L 164.078653 220.487793 
L 164.62544 220.186496 
L 165.172226 219.878755 
L 165.719013 219.562264 
L 166.26577 219.237679 
L 166.812556 218.90153 
L 167.359343 218.555979 
L 167.90613 218.206009 
L 168.452886 217.845214 
L 168.999673 217.477741 
L 169.54646 217.102319 
L 170.093231 216.718398 
L 170.640018 216.325866 
L 171.18679 215.923743 
L 171.733576 215.514335 
L 172.280348 215.099743 
L 172.827135 214.67442 
L 173.373921 214.241968 
L 173.920693 213.797166 
L 174.467479 213.344614 
L 175.014251 212.8836 
L 175.561038 212.416405 
L 176.107809 211.942819 
L 176.654596 211.459186 
L 177.201368 210.968812 
L 177.748154 210.471272 
L 178.294926 209.966553 
L 178.841713 209.453944 
L 179.388484 208.935617 
L 179.935271 208.408552 
L 180.482043 207.872265 
L 181.028829 207.332688 
L 181.575601 206.786813 
L 182.122388 206.232309 
L 182.669159 205.670743 
L 183.215946 205.104036 
L 183.762732 204.536607 
L 184.309504 203.959655 
L 184.856291 203.370484 
L 185.403062 202.778548 
L 185.949849 202.184644 
L 186.496621 201.584553 
L 187.043407 200.979038 
L 187.590179 200.369213 
L 188.136966 199.753626 
L 188.683737 199.134448 
L 189.230524 198.510365 
L 189.777296 197.877502 
L 190.324082 197.241457 
L 190.870854 196.601176 
L 191.417641 195.95965 
L 191.964412 195.309948 
L 192.511199 194.662965 
L 193.057985 194.00562 
L 193.604757 193.35088 
L 194.151544 192.687836 
L 194.698316 192.025625 
L 195.245102 191.36145 
L 195.791874 190.68955 
L 196.33866 190.01955 
L 196.885432 189.344164 
L 197.432219 188.667657 
L 197.97899 187.986397 
L 198.525777 187.309201 
L 199.072549 186.625971 
L 199.619335 185.940634 
L 200.166107 185.250235 
L 200.712894 184.561209 
L 201.259665 183.873335 
L 201.806452 183.184078 
L 202.353224 182.494528 
L 202.90001 181.803044 
L 203.446797 181.107724 
L 203.993569 180.414473 
L 204.540355 179.723838 
L 205.087127 179.030457 
L 205.633913 178.334734 
L 206.180685 177.642629 
L 206.727472 176.946536 
L 207.274243 176.251879 
L 207.82103 175.559916 
L 208.367802 174.862004 
L 208.914588 174.168198 
L 209.46136 173.474638 
L 210.008147 172.77912 
L 210.554918 172.086098 
L 211.101705 171.392052 
L 211.648477 170.700922 
L 212.195263 170.005851 
L 212.74205 169.316651 
L 213.288822 168.630428 
L 213.835608 167.941448 
L 214.38238 167.259088 
L 214.929166 166.576567 
L 215.475938 165.904734 
L 216.022725 165.228981 
L 216.569496 164.559461 
L 217.116283 163.894785 
L 217.663055 163.232715 
L 218.209841 162.57988 
L 218.756613 161.929607 
L 219.3034 161.288874 
L 219.850171 160.653813 
L 220.396958 160.032535 
L 220.94373 159.4167 
L 221.490516 158.805027 
L 222.037288 158.212169 
L 222.584075 157.623962 
L 223.130861 157.050699 
L 223.677633 156.48956 
L 224.224419 155.942167 
L 224.771191 155.406486 
L 225.317978 154.889672 
L 225.86475 154.392694 
L 226.411536 153.907124 
L 226.958308 153.442309 
L 227.505094 152.997087 
L 228.051866 152.574877 
L 228.598653 152.171855 
L 229.145424 151.782446 
L 229.692211 151.416871 
L 230.238983 151.072034 
L 230.785769 150.744309 
L 231.332541 150.447419 
L 231.879328 150.17497 
L 232.426114 149.922938 
L 232.972886 149.695728 
L 233.519672 149.487651 
L 234.066444 149.307508 
L 234.613231 149.149776 
L 235.160003 149.023229 
L 235.706789 148.915893 
L 236.253561 148.832608 
L 236.800347 148.772447 
L 237.347119 148.733751 
L 237.893906 148.722727 
L 238.440677 148.733619 
L 238.987464 148.767894 
L 239.534236 148.821158 
L 240.081022 148.900971 
L 240.627794 148.995146 
L 241.174581 149.115112 
L 241.721367 149.256265 
L 242.268139 149.412129 
L 242.814926 149.590819 
L 243.361697 149.78553 
L 243.908484 150.004663 
L 244.455256 150.23548 
L 245.002042 150.484059 
L 245.548814 150.749473 
L 246.0956 151.037769 
L 246.642372 151.336956 
L 247.189159 151.646299 
L 247.735931 151.972892 
L 248.282717 152.315095 
L 248.829489 152.66942 
L 249.376275 153.041616 
L 249.923047 153.421216 
L 250.469834 153.817234 
L 251.016605 154.232271 
L 251.563392 154.655089 
L 252.110179 155.087877 
L 252.65695 155.530881 
L 253.203737 155.989915 
L 253.750509 156.456127 
L 254.297295 156.938398 
L 254.844067 157.425318 
L 255.390853 157.929224 
L 255.937625 158.437909 
L 256.484412 158.959645 
L 257.031184 159.496157 
L 257.57797 160.034278 
L 258.124742 160.584375 
L 258.671528 161.145428 
L 259.2183 161.714932 
L 259.765087 162.289417 
L 260.311858 162.878264 
L 260.858645 163.473039 
L 261.405432 164.080936 
L 261.952203 164.68715 
L 262.49899 165.30201 
L 263.045762 165.928596 
L 263.592548 166.561119 
L 264.13932 167.198397 
L 264.686106 167.846514 
L 265.232878 168.499698 
L 265.779665 169.156935 
L 266.326437 169.823366 
L 266.873223 170.49805 
L 267.419995 171.174204 
L 267.966781 171.859743 
L 268.513553 172.549033 
L 269.06034 173.244131 
L 269.607111 173.946851 
L 270.153898 174.652759 
L 270.70067 175.361684 
L 271.247456 176.078023 
L 271.794243 176.797194 
L 272.341015 177.52121 
L 272.887801 178.249091 
L 273.434573 178.986874 
L 273.98136 179.723804 
L 274.528131 180.460963 
L 275.074918 181.201982 
L 275.62169 181.94562 
L 276.168476 182.694337 
L 276.715248 183.439298 
L 277.262034 184.193413 
L 277.808806 184.946049 
L 278.355593 185.698752 
L 278.902365 186.453494 
L 279.449151 187.208411 
L 279.995923 187.964697 
L 280.542709 188.716071 
L 281.089496 189.471634 
L 281.636268 190.218394 
L 282.183054 190.967659 
L 282.729826 191.716469 
L 283.276613 192.455206 
L 283.823384 193.194055 
L 284.370171 193.928079 
L 284.916943 194.657988 
L 285.463729 195.382158 
L 286.010501 196.102943 
L 286.557287 196.814395 
L 287.104059 197.516226 
L 287.650846 198.217433 
L 288.197618 198.90929 
L 288.744404 199.592394 
L 289.291176 200.267593 
L 289.837962 200.93566 
L 290.384734 201.597347 
L 290.931521 202.250028 
L 291.478307 202.891584 
L 292.025079 203.528924 
L 292.571866 204.148651 
L 293.118637 204.758826 
L 293.665416 205.363434 
L 294.212196 205.95593 
L 294.758975 206.540134 
L 295.305754 207.11356 
L 295.852541 207.677238 
L 296.39932 208.226973 
L 296.946099 208.770813 
L 297.492878 209.302799 
L 298.039657 209.822463 
L 298.586436 210.332902 
L 299.133215 210.830473 
L 299.679995 211.318337 
L 300.226774 211.794522 
L 300.773553 212.262568 
L 301.320332 212.71602 
L 301.867111 213.164393 
L 302.41389 213.598492 
L 302.96067 214.022858 
L 303.507449 214.437754 
L 304.054228 214.838947 
L 304.601007 215.233792 
L 305.147794 215.612889 
L 305.694573 215.986204 
L 306.241352 216.346218 
L 306.788131 216.698866 
L 307.33491 217.041673 
L 307.881689 217.375732 
L 308.428468 217.703375 
L 308.975248 218.019566 
L 309.522027 218.326548 
L 310.068806 218.626582 
L 310.615585 218.916181 
L 311.162364 219.2034 
L 311.709143 219.480664 
L 312.255923 219.748751 
L 312.802702 220.013876 
L 313.349481 220.27319 
L 313.89626 220.526144 
L 314.443039 220.773096 
L 314.989826 221.012283 
L 315.536605 221.24848 
L 316.083384 221.481084 
L 316.630163 221.707287 
L 317.176942 221.93035 
L 317.723721 222.146058 
L 318.270501 222.358789 
L 318.81728 222.57004 
L 319.364059 222.778756 
L 319.910838 222.981458 
L 320.457617 223.18196 
L 321.004396 223.37794 
L 321.551176 223.568502 
L 322.097955 223.756323 
L 322.644734 223.940477 
L 323.191513 224.125654 
L 323.738292 224.303506 
L 324.285071 224.475313 
L 324.831858 224.644244 
L 325.378637 224.811091 
L 325.925416 224.972619 
L 326.472195 225.129734 
L 327.018975 225.283456 
L 327.565754 225.43285 
L 328.112533 225.577078 
L 328.659312 225.718304 
L 329.206091 225.855218 
L 329.75287 225.987233 
L 330.299649 226.11464 
L 330.846429 226.238218 
L 331.393208 226.356539 
L 331.939987 226.471287 
L 332.486766 226.581546 
L 333.033545 226.687342 
L 333.580324 226.787667 
L 334.127104 226.884048 
L 334.67389 226.974657 
L 335.220669 227.062425 
L 335.767448 227.145929 
L 336.314228 227.226825 
L 336.861007 227.302387 
L 337.407786 227.374831 
L 337.954565 227.442878 
L 338.501344 227.507521 
L 339.048123 227.568618 
L 339.594902 227.627427 
L 340.141682 227.682907 
L 340.688461 227.734979 
L 341.23524 227.784387 
L 341.782019 227.833091 
L 342.328798 227.876747 
L 342.875577 227.91981 
L 343.422357 227.959003 
L 343.969136 227.997324 
L 344.515922 228.033405 
L 345.062701 228.068187 
L 345.609481 228.1017 
L 346.15626 228.132403 
L 346.703039 228.161097 
L 347.249818 228.188474 
L 347.796597 228.214339 
L 348.343376 228.240107 
L 348.890156 228.263577 
L 349.436935 228.286033 
L 349.983714 228.308568 
L 350.530493 228.329231 
L 351.077272 228.349515 
L 351.624051 228.368856 
L 352.17083 228.386781 
L 352.71761 228.404724 
L 353.264389 228.420763 
L 353.811168 228.436151 
L 354.357954 228.45117 
L 354.904734 228.465276 
L 355.451513 228.478795 
L 355.998288 228.491746 
L 356.545071 228.503884 
L 357.09185 228.515532 
L 357.638629 228.526962 
L 358.185409 228.537365 
L 358.732188 228.547362 
L 359.278967 228.557226 
L 359.825746 228.56614 
L 360.372525 228.574989 
L 360.919304 228.583214 
L 361.466087 228.59113 
L 362.012866 228.598748 
L 362.559645 228.606338 
L 363.106425 228.613347 
L 363.653204 228.620356 
L 364.199983 228.626813 
L 364.746762 228.633038 
L 365.293541 228.639042 
L 365.84032 228.645359 
L 366.387103 228.651135 
L 366.933882 228.656695 
L 367.480662 228.662053 
L 368.027441 228.667484 
L 368.57422 228.672437 
L 369.121006 228.677493 
L 369.667793 228.681837 
L 370.21458 228.686347 
L 370.761366 228.690722 
L 371.308153 228.694969 
L 371.854939 228.698832 
L 372.401726 228.702878 
L 372.948512 228.706804 
L 373.495299 228.710349 
L 374.042085 228.71382 
L 374.588872 228.717212 
L 375.135658 228.720522 
L 375.682445 228.723744 
L 376.229232 228.726876 
L 376.776018 228.730177 
L 377.322805 228.733078 
L 377.869591 228.735885 
L 378.416378 228.739118 
L 378.963164 228.741646 
L 379.509951 228.744082 
L 380.056737 228.746685 
L 380.603524 228.748887 
L 381.150311 228.750994 
L 381.697097 228.753005 
L 382.243884 228.755179 
L 382.79067 228.756951 
L 383.337457 228.758629 
L 383.884243 228.760213 
L 384.43103 228.761704 
L 384.977816 228.763101 
L 385.524603 228.764407 
L 386.071389 228.765623 
L 386.618176 228.767014 
L 387.164963 228.76802 
L 387.711749 228.769211 
L 388.258536 228.770028 
L 388.805322 228.770781 
L 389.352109 228.771473 
L 389.898895 228.772106 
L 390.445682 228.772683 
L 390.992468 228.773207 
L 391.539255 228.773682 
L 392.086042 228.774111 
L 392.632828 228.774496 
L 393.179615 228.774841 
L 393.726401 228.77515 
L 394.273188 228.775425 
L 394.819974 228.775669 
L 395.366761 228.775884 
L 395.913547 228.776075 
L 396.460334 228.776242 
L 397.007121 228.776388 
L 397.553907 228.776778 
L 398.100694 228.776849 
L 398.64748 228.776911 
L 399.194267 228.776964 
z
" style="fill:#1f77b4;opacity:0.4;stroke:#ffffff;stroke-linejoin:miter;"/>
   </g>
   <g id="patch_13">
    <path clip-path="url(#pd7d88dd319)" d="M 183.215946 228.777273 
L 183.215946 205.104036 
L 183.762732 204.536607 
L 184.309504 203.959655 
L 184.856291 203.370484 
L 185.403062 202.778548 
L 185.949849 202.184644 
L 186.496621 201.584553 
L 187.043407 200.979038 
L 187.590179 200.369213 
L 188.136966 199.753626 
L 188.683737 199.134448 
L 189.230524 198.510365 
L 189.777296 197.877502 
L 190.324082 197.241457 
L 190.870854 196.601176 
L 191.417641 195.95965 
L 191.964412 195.309948 
L 192.511199 194.662965 
L 193.057985 194.00562 
L 193.604757 193.35088 
L 194.151544 192.687836 
L 194.698316 192.025625 
L 195.245102 191.36145 
L 195.791874 190.68955 
L 196.33866 190.01955 
L 196.885432 189.344164 
L 197.432219 188.667657 
L 197.97899 187.986397 
L 198.525777 187.309201 
L 199.072549 186.625971 
L 199.619335 185.940634 
L 200.166107 185.250235 
L 200.712894 184.561209 
L 201.259665 183.873335 
L 201.806452 183.184078 
L 202.353224 182.494528 
L 202.90001 181.803044 
L 203.446797 181.107724 
L 203.993569 180.414473 
L 204.540355 179.723838 
L 205.087127 179.030457 
L 205.633913 178.334734 
L 206.180685 177.642629 
L 206.727472 176.946536 
L 207.274243 176.251879 
L 207.82103 175.559916 
L 208.367802 174.862004 
L 208.914588 174.168198 
L 209.46136 173.474638 
L 210.008147 172.77912 
L 210.554918 172.086098 
L 211.101705 171.392052 
L 211.648477 170.700922 
L 212.195263 170.005851 
L 212.74205 169.316651 
L 213.288822 168.630428 
L 213.835608 167.941448 
L 214.38238 167.259088 
L 214.929166 166.576567 
L 215.475938 165.904734 
L 216.022725 165.228981 
L 216.569496 164.559461 
L 217.116283 163.894785 
L 217.663055 163.232715 
L 218.209841 162.57988 
L 218.756613 161.929607 
L 219.3034 161.288874 
L 219.850171 160.653813 
L 220.396958 160.032535 
L 220.94373 159.4167 
L 221.490516 158.805027 
L 222.037288 158.212169 
L 222.584075 157.623962 
L 223.130861 157.050699 
L 223.677633 156.48956 
L 224.224419 155.942167 
L 224.771191 155.406486 
L 225.317978 154.889672 
L 225.86475 154.392694 
L 226.411536 153.907124 
L 226.958308 153.442309 
L 227.505094 152.997087 
L 228.051866 152.574877 
L 228.598653 152.171855 
L 229.145424 151.782446 
L 229.692211 151.416871 
L 230.238983 151.072034 
L 230.785769 150.744309 
L 231.332541 150.447419 
L 231.879328 150.17497 
L 232.426114 149.922938 
L 232.972886 149.695728 
L 233.519672 149.487651 
L 234.066444 149.307508 
L 234.613231 149.149776 
L 235.160003 149.023229 
L 235.706789 148.915893 
L 236.253561 148.832608 
L 236.800347 148.772447 
L 237.347119 148.733751 
L 237.893906 148.722727 
L 238.440677 148.733619 
L 238.987464 148.767894 
L 239.534236 148.821158 
L 240.081022 148.900971 
L 240.627794 148.995146 
L 241.174581 149.115112 
L 241.721367 149.256265 
L 242.268139 149.412129 
L 242.814926 149.590819 
L 243.361697 149.78553 
L 243.908484 150.004663 
L 244.455256 150.23548 
L 245.002042 150.484059 
L 245.548814 150.749473 
L 246.0956 151.037769 
L 246.642372 151.336956 
L 247.189159 151.646299 
L 247.735931 151.972892 
L 248.282717 152.315095 
L 248.829489 152.66942 
L 249.376275 153.041616 
L 249.923047 153.421216 
L 250.469834 153.817234 
L 251.016605 154.232271 
L 251.563392 154.655089 
L 252.110179 155.087877 
L 252.65695 155.530881 
L 253.203737 155.989915 
L 253.750509 156.456127 
L 254.297295 156.938398 
L 254.844067 157.425318 
L 255.390853 157.929224 
L 255.937625 158.437909 
L 256.484412 158.959645 
L 257.031184 159.496157 
L 257.57797 160.034278 
L 258.124742 160.584375 
L 258.671528 161.145428 
L 259.2183 161.714932 
L 259.765087 162.289417 
L 260.311858 162.878264 
L 260.858645 163.473039 
L 261.405432 164.080936 
L 261.952203 164.68715 
L 262.49899 165.30201 
L 263.045762 165.928596 
L 263.592548 166.561119 
L 264.13932 167.198397 
L 264.686106 167.846514 
L 265.232878 168.499698 
L 265.779665 169.156935 
L 266.326437 169.823366 
L 266.873223 170.49805 
L 267.419995 171.174204 
L 267.966781 171.859743 
L 268.513553 172.549033 
L 269.06034 173.244131 
L 269.607111 173.946851 
L 270.153898 174.652759 
L 270.70067 175.361684 
L 271.247456 176.078023 
L 271.794243 176.797194 
L 272.341015 177.52121 
L 272.887801 178.249091 
L 273.434573 178.986874 
L 273.98136 179.723804 
L 274.528131 180.460963 
L 275.074918 181.201982 
L 275.62169 181.94562 
L 276.168476 182.694337 
L 276.715248 183.439298 
L 277.262034 184.193413 
L 277.808806 184.946049 
L 278.355593 185.698752 
L 278.902365 186.453494 
L 279.449151 187.208411 
L 279.995923 187.964697 
L 280.542709 188.716071 
L 281.089496 189.471634 
L 281.636268 190.218394 
L 282.183054 190.967659 
L 282.729826 191.716469 
L 283.276613 192.455206 
L 283.823384 193.194055 
L 284.370171 193.928079 
L 284.916943 194.657988 
L 285.463729 195.382158 
L 286.010501 196.102943 
L 286.557287 196.814395 
L 287.104059 197.516226 
L 287.650846 198.217433 
L 288.197618 198.90929 
L 288.744404 199.592394 
L 289.291176 200.267593 
L 289.837962 200.93566 
L 290.384734 201.597347 
L 290.931521 202.250028 
L 291.478307 202.891584 
L 292.025079 203.528924 
L 292.571866 204.148651 
L 293.118637 204.758826 
L 293.118637 228.777273 
z
" style="fill:#1f77b4;opacity:0.4;stroke:#ffffff;stroke-linejoin:miter;"/>
   </g>
   <g id="line2d_17">
    <path clip-path="url(#pd7d88dd319)" d="M 30.03063 232.78 
L 30.03063 144.72 
" style="fill:none;stroke:#4c72b0;stroke-linecap:round;stroke-width:1.5;"/>
   </g>
   <g id="patch_14">
    <path d="M 11.572449 232.78 
L 417.652449 232.78 
" style="fill:none;stroke:#ffffff;stroke-linecap:square;stroke-linejoin:miter;stroke-width:1.25;"/>
   </g>
  </g>
 </g>
 <defs>
  <clipPath id="p3bafedf6ba">
   <rect height="88.06" width="406.08" x="11.572449" y="7.2"/>
  </clipPath>
  <clipPath id="pd7d88dd319">
   <rect height="88.06" width="406.08" x="11.572449" y="144.72"/>
  </clipPath>
 </defs>
</svg>
