<?xml version="1.0" encoding="utf-8" standalone="no"?>
<!DOCTYPE svg PUBLIC "-//W3C//DTD SVG 1.1//EN"
  "http://www.w3.org/Graphics/SVG/1.1/DTD/svg11.dtd">
<!-- Created with matplotlib (https://matplotlib.org/) -->
<svg height="276.073437pt" version="1.1" viewBox="0 0 419.530438 276.073437" width="419.530438pt" xmlns="http://www.w3.org/2000/svg" xmlns:xlink="http://www.w3.org/1999/xlink">
 <defs>
  <style type="text/css">
*{stroke-linecap:butt;stroke-linejoin:round;}
  </style>
 </defs>
 <g id="figure_1">
  <g id="patch_1">
   <path d="M 0 276.073437 
L 419.530438 276.073437 
L 419.530438 0 
L 0 0 
z
" style="fill:#ffffff;"/>
  </g>
  <g id="axes_1">
   <g id="patch_2">
    <path d="M 7.2 95.26 
L 405.585519 95.26 
L 405.585519 7.2 
L 7.2 7.2 
z
" style="fill:#eaeaf2;"/>
   </g>
   <g id="matplotlib.axis_1">
    <g id="xtick_1">
     <g id="line2d_1">
      <path clip-path="url(#p1ef60408f1)" d="M 40.296584 95.26 
L 40.296584 7.2 
" style="fill:none;stroke:#ffffff;stroke-linecap:round;"/>
     </g>
     <g id="text_1">
      <!-- −2 -->
      <defs>
       <path d="M 10.59375 35.5 
L 73.1875 35.5 
L 73.1875 27.203125 
L 10.59375 27.203125 
z
" id="DejaVuSans-8722"/>
       <path d="M 19.1875 8.296875 
L 53.609375 8.296875 
L 53.609375 0 
L 7.328125 0 
L 7.328125 8.296875 
Q 12.9375 14.109375 22.625 23.890625 
Q 32.328125 33.6875 34.8125 36.53125 
Q 39.546875 41.84375 41.421875 45.53125 
Q 43.3125 49.21875 43.3125 52.78125 
Q 43.3125 58.59375 39.234375 62.25 
Q 35.15625 65.921875 28.609375 65.921875 
Q 23.96875 65.921875 18.8125 64.3125 
Q 13.671875 62.703125 7.8125 59.421875 
L 7.8125 69.390625 
Q 13.765625 71.78125 18.9375 73 
Q 24.125 74.21875 28.421875 74.21875 
Q 39.75 74.21875 46.484375 68.546875 
Q 53.21875 62.890625 53.21875 53.421875 
Q 53.21875 48.921875 51.53125 44.890625 
Q 49.859375 40.875 45.40625 35.40625 
Q 44.1875 33.984375 37.640625 27.21875 
Q 31.109375 20.453125 19.1875 8.296875 
z
" id="DejaVuSans-50"/>
      </defs>
      <g style="fill:#262626;" transform="translate(32.188381 113.118281)scale(0.11 -0.11)">
       <use xlink:href="#DejaVuSans-8722"/>
       <use x="83.789062" xlink:href="#DejaVuSans-50"/>
      </g>
     </g>
    </g>
    <g id="xtick_2">
     <g id="line2d_2">
      <path clip-path="url(#p1ef60408f1)" d="M 119.716386 95.26 
L 119.716386 7.2 
" style="fill:none;stroke:#ffffff;stroke-linecap:round;"/>
     </g>
     <g id="text_2">
      <!-- −1 -->
      <defs>
       <path d="M 12.40625 8.296875 
L 28.515625 8.296875 
L 28.515625 63.921875 
L 10.984375 60.40625 
L 10.984375 69.390625 
L 28.421875 72.90625 
L 38.28125 72.90625 
L 38.28125 8.296875 
L 54.390625 8.296875 
L 54.390625 0 
L 12.40625 0 
z
" id="DejaVuSans-49"/>
      </defs>
      <g style="fill:#262626;" transform="translate(111.608183 113.118281)scale(0.11 -0.11)">
       <use xlink:href="#DejaVuSans-8722"/>
       <use x="83.789062" xlink:href="#DejaVuSans-49"/>
      </g>
     </g>
    </g>
    <g id="xtick_3">
     <g id="line2d_3">
      <path clip-path="url(#p1ef60408f1)" d="M 199.136187 95.26 
L 199.136187 7.2 
" style="fill:none;stroke:#ffffff;stroke-linecap:round;"/>
     </g>
     <g id="text_3">
      <!-- 0 -->
      <defs>
       <path d="M 31.78125 66.40625 
Q 24.171875 66.40625 20.328125 58.90625 
Q 16.5 51.421875 16.5 36.375 
Q 16.5 21.390625 20.328125 13.890625 
Q 24.171875 6.390625 31.78125 6.390625 
Q 39.453125 6.390625 43.28125 13.890625 
Q 47.125 21.390625 47.125 36.375 
Q 47.125 51.421875 43.28125 58.90625 
Q 39.453125 66.40625 31.78125 66.40625 
z
M 31.78125 74.21875 
Q 44.046875 74.21875 50.515625 64.515625 
Q 56.984375 54.828125 56.984375 36.375 
Q 56.984375 17.96875 50.515625 8.265625 
Q 44.046875 -1.421875 31.78125 -1.421875 
Q 19.53125 -1.421875 13.0625 8.265625 
Q 6.59375 17.96875 6.59375 36.375 
Q 6.59375 54.828125 13.0625 64.515625 
Q 19.53125 74.21875 31.78125 74.21875 
z
" id="DejaVuSans-48"/>
      </defs>
      <g style="fill:#262626;" transform="translate(195.636812 113.118281)scale(0.11 -0.11)">
       <use xlink:href="#DejaVuSans-48"/>
      </g>
     </g>
    </g>
    <g id="xtick_4">
     <g id="line2d_4">
      <path clip-path="url(#p1ef60408f1)" d="M 278.555989 95.26 
L 278.555989 7.2 
" style="fill:none;stroke:#ffffff;stroke-linecap:round;"/>
     </g>
     <g id="text_4">
      <!-- 1 -->
      <g style="fill:#262626;" transform="translate(275.056614 113.118281)scale(0.11 -0.11)">
       <use xlink:href="#DejaVuSans-49"/>
      </g>
     </g>
    </g>
    <g id="xtick_5">
     <g id="line2d_5">
      <path clip-path="url(#p1ef60408f1)" d="M 357.975791 95.26 
L 357.975791 7.2 
" style="fill:none;stroke:#ffffff;stroke-linecap:round;"/>
     </g>
     <g id="text_5">
      <!-- 2 -->
      <g style="fill:#262626;" transform="translate(354.476416 113.118281)scale(0.11 -0.11)">
       <use xlink:href="#DejaVuSans-50"/>
      </g>
     </g>
    </g>
    <g id="text_6">
     <!-- Dense_weights -->
     <defs>
      <path d="M 19.671875 64.796875 
L 19.671875 8.109375 
L 31.59375 8.109375 
Q 46.6875 8.109375 53.6875 14.9375 
Q 60.6875 21.78125 60.6875 36.53125 
Q 60.6875 51.171875 53.6875 57.984375 
Q 46.6875 64.796875 31.59375 64.796875 
z
M 9.8125 72.90625 
L 30.078125 72.90625 
Q 51.265625 72.90625 61.171875 64.09375 
Q 71.09375 55.28125 71.09375 36.53125 
Q 71.09375 17.671875 61.125 8.828125 
Q 51.171875 0 30.078125 0 
L 9.8125 0 
z
" id="DejaVuSans-68"/>
      <path d="M 56.203125 29.59375 
L 56.203125 25.203125 
L 14.890625 25.203125 
Q 15.484375 15.921875 20.484375 11.0625 
Q 25.484375 6.203125 34.421875 6.203125 
Q 39.59375 6.203125 44.453125 7.46875 
Q 49.3125 8.734375 54.109375 11.28125 
L 54.109375 2.78125 
Q 49.265625 0.734375 44.1875 -0.34375 
Q 39.109375 -1.421875 33.890625 -1.421875 
Q 20.796875 -1.421875 13.15625 6.1875 
Q 5.515625 13.8125 5.515625 26.8125 
Q 5.515625 40.234375 12.765625 48.109375 
Q 20.015625 56 32.328125 56 
Q 43.359375 56 49.78125 48.890625 
Q 56.203125 41.796875 56.203125 29.59375 
z
M 47.21875 32.234375 
Q 47.125 39.59375 43.09375 43.984375 
Q 39.0625 48.390625 32.421875 48.390625 
Q 24.90625 48.390625 20.390625 44.140625 
Q 15.875 39.890625 15.1875 32.171875 
z
" id="DejaVuSans-101"/>
      <path d="M 54.890625 33.015625 
L 54.890625 0 
L 45.90625 0 
L 45.90625 32.71875 
Q 45.90625 40.484375 42.875 44.328125 
Q 39.84375 48.1875 33.796875 48.1875 
Q 26.515625 48.1875 22.3125 43.546875 
Q 18.109375 38.921875 18.109375 30.90625 
L 18.109375 0 
L 9.078125 0 
L 9.078125 54.6875 
L 18.109375 54.6875 
L 18.109375 46.1875 
Q 21.34375 51.125 25.703125 53.5625 
Q 30.078125 56 35.796875 56 
Q 45.21875 56 50.046875 50.171875 
Q 54.890625 44.34375 54.890625 33.015625 
z
" id="DejaVuSans-110"/>
      <path d="M 44.28125 53.078125 
L 44.28125 44.578125 
Q 40.484375 46.53125 36.375 47.5 
Q 32.28125 48.484375 27.875 48.484375 
Q 21.1875 48.484375 17.84375 46.4375 
Q 14.5 44.390625 14.5 40.28125 
Q 14.5 37.15625 16.890625 35.375 
Q 19.28125 33.59375 26.515625 31.984375 
L 29.59375 31.296875 
Q 39.15625 29.25 43.1875 25.515625 
Q 47.21875 21.78125 47.21875 15.09375 
Q 47.21875 7.46875 41.1875 3.015625 
Q 35.15625 -1.421875 24.609375 -1.421875 
Q 20.21875 -1.421875 15.453125 -0.5625 
Q 10.6875 0.296875 5.421875 2 
L 5.421875 11.28125 
Q 10.40625 8.6875 15.234375 7.390625 
Q 20.0625 6.109375 24.8125 6.109375 
Q 31.15625 6.109375 34.5625 8.28125 
Q 37.984375 10.453125 37.984375 14.40625 
Q 37.984375 18.0625 35.515625 20.015625 
Q 33.0625 21.96875 24.703125 23.78125 
L 21.578125 24.515625 
Q 13.234375 26.265625 9.515625 29.90625 
Q 5.8125 33.546875 5.8125 39.890625 
Q 5.8125 47.609375 11.28125 51.796875 
Q 16.75 56 26.8125 56 
Q 31.78125 56 36.171875 55.265625 
Q 40.578125 54.546875 44.28125 53.078125 
z
" id="DejaVuSans-115"/>
      <path d="M 50.984375 -16.609375 
L 50.984375 -23.578125 
L -0.984375 -23.578125 
L -0.984375 -16.609375 
z
" id="DejaVuSans-95"/>
      <path d="M 4.203125 54.6875 
L 13.1875 54.6875 
L 24.421875 12.015625 
L 35.59375 54.6875 
L 46.1875 54.6875 
L 57.421875 12.015625 
L 68.609375 54.6875 
L 77.59375 54.6875 
L 63.28125 0 
L 52.6875 0 
L 40.921875 44.828125 
L 29.109375 0 
L 18.5 0 
z
" id="DejaVuSans-119"/>
      <path d="M 9.421875 54.6875 
L 18.40625 54.6875 
L 18.40625 0 
L 9.421875 0 
z
M 9.421875 75.984375 
L 18.40625 75.984375 
L 18.40625 64.59375 
L 9.421875 64.59375 
z
" id="DejaVuSans-105"/>
      <path d="M 45.40625 27.984375 
Q 45.40625 37.75 41.375 43.109375 
Q 37.359375 48.484375 30.078125 48.484375 
Q 22.859375 48.484375 18.828125 43.109375 
Q 14.796875 37.75 14.796875 27.984375 
Q 14.796875 18.265625 18.828125 12.890625 
Q 22.859375 7.515625 30.078125 7.515625 
Q 37.359375 7.515625 41.375 12.890625 
Q 45.40625 18.265625 45.40625 27.984375 
z
M 54.390625 6.78125 
Q 54.390625 -7.171875 48.1875 -13.984375 
Q 42 -20.796875 29.203125 -20.796875 
Q 24.46875 -20.796875 20.265625 -20.09375 
Q 16.0625 -19.390625 12.109375 -17.921875 
L 12.109375 -9.1875 
Q 16.0625 -11.328125 19.921875 -12.34375 
Q 23.78125 -13.375 27.78125 -13.375 
Q 36.625 -13.375 41.015625 -8.765625 
Q 45.40625 -4.15625 45.40625 5.171875 
L 45.40625 9.625 
Q 42.625 4.78125 38.28125 2.390625 
Q 33.9375 0 27.875 0 
Q 17.828125 0 11.671875 7.65625 
Q 5.515625 15.328125 5.515625 27.984375 
Q 5.515625 40.671875 11.671875 48.328125 
Q 17.828125 56 27.875 56 
Q 33.9375 56 38.28125 53.609375 
Q 42.625 51.21875 45.40625 46.390625 
L 45.40625 54.6875 
L 54.390625 54.6875 
z
" id="DejaVuSans-103"/>
      <path d="M 54.890625 33.015625 
L 54.890625 0 
L 45.90625 0 
L 45.90625 32.71875 
Q 45.90625 40.484375 42.875 44.328125 
Q 39.84375 48.1875 33.796875 48.1875 
Q 26.515625 48.1875 22.3125 43.546875 
Q 18.109375 38.921875 18.109375 30.90625 
L 18.109375 0 
L 9.078125 0 
L 9.078125 75.984375 
L 18.109375 75.984375 
L 18.109375 46.1875 
Q 21.34375 51.125 25.703125 53.5625 
Q 30.078125 56 35.796875 56 
Q 45.21875 56 50.046875 50.171875 
Q 54.890625 44.34375 54.890625 33.015625 
z
" id="DejaVuSans-104"/>
      <path d="M 18.3125 70.21875 
L 18.3125 54.6875 
L 36.8125 54.6875 
L 36.8125 47.703125 
L 18.3125 47.703125 
L 18.3125 18.015625 
Q 18.3125 11.328125 20.140625 9.421875 
Q 21.96875 7.515625 27.59375 7.515625 
L 36.8125 7.515625 
L 36.8125 0 
L 27.59375 0 
Q 17.1875 0 13.234375 3.875 
Q 9.28125 7.765625 9.28125 18.015625 
L 9.28125 47.703125 
L 2.6875 47.703125 
L 2.6875 54.6875 
L 9.28125 54.6875 
L 9.28125 70.21875 
z
" id="DejaVuSans-116"/>
     </defs>
     <g style="fill:#262626;" transform="translate(161.105884 128.524062)scale(0.12 -0.12)">
      <use xlink:href="#DejaVuSans-68"/>
      <use x="77.001953" xlink:href="#DejaVuSans-101"/>
      <use x="138.525391" xlink:href="#DejaVuSans-110"/>
      <use x="201.904297" xlink:href="#DejaVuSans-115"/>
      <use x="254.003906" xlink:href="#DejaVuSans-101"/>
      <use x="315.527344" xlink:href="#DejaVuSans-95"/>
      <use x="365.527344" xlink:href="#DejaVuSans-119"/>
      <use x="447.314453" xlink:href="#DejaVuSans-101"/>
      <use x="508.837891" xlink:href="#DejaVuSans-105"/>
      <use x="536.621094" xlink:href="#DejaVuSans-103"/>
      <use x="600.097656" xlink:href="#DejaVuSans-104"/>
      <use x="663.476562" xlink:href="#DejaVuSans-116"/>
      <use x="702.685547" xlink:href="#DejaVuSans-115"/>
     </g>
    </g>
   </g>
   <g id="patch_3">
    <path clip-path="url(#p1ef60408f1)" d="M 195.261818 91.257273 
L 195.575895 91.256967 
L 195.889972 91.256913 
L 196.20405 91.256852 
L 196.518127 91.256782 
L 196.832205 91.256701 
L 197.146282 91.256609 
L 197.46036 91.256505 
L 197.774437 91.256386 
L 198.088515 91.256253 
L 198.402592 91.256103 
L 198.716669 91.255629 
L 199.030747 91.255387 
L 199.344824 91.255117 
L 199.658902 91.254814 
L 199.972979 91.254476 
L 200.287057 91.254101 
L 200.601134 91.253686 
L 200.915211 91.253227 
L 201.229289 91.252723 
L 201.543366 91.25217 
L 201.857444 91.251565 
L 202.171521 91.250907 
L 202.485599 91.249886 
L 202.799676 91.249059 
L 203.113754 91.247858 
L 203.427831 91.246838 
L 203.741908 91.245737 
L 204.055986 91.244552 
L 204.370063 91.243279 
L 204.684141 91.241917 
L 204.998218 91.240464 
L 205.312296 91.238918 
L 205.626373 91.237278 
L 205.94045 91.235545 
L 206.254528 91.233717 
L 206.568605 91.231797 
L 206.882683 91.229785 
L 207.19676 91.227685 
L 207.510838 91.225498 
L 207.824915 91.223229 
L 208.138993 91.220882 
L 208.45307 91.218157 
L 208.767147 91.215619 
L 209.081225 91.213012 
L 209.395302 91.210345 
L 209.70938 91.207318 
L 210.023457 91.204499 
L 210.337535 91.201634 
L 210.651612 91.198732 
L 210.965689 91.195801 
L 211.279767 91.19285 
L 211.593844 91.189889 
L 211.907922 91.186621 
L 212.221999 91.183614 
L 212.536077 91.180004 
L 213.164232 91.176918 
L 213.478309 91.173843 
L 213.792385 91.170786 
L 214.106463 91.167752 
L 214.42054 91.16444 
L 214.734618 91.161416 
L 215.048695 91.15781 
L 215.362771 91.154743 
L 215.676849 91.151084 
L 215.990926 91.147337 
L 216.305004 91.144098 
L 216.619081 91.14084 
L 216.933157 91.137252 
L 217.247235 91.133883 
L 217.561312 91.130464 
L 217.87539 91.126679 
L 218.189466 91.123073 
L 218.503543 91.119376 
L 218.817621 91.115572 
L 219.131698 91.111035 
L 219.445776 91.106563 
L 219.759853 91.102178 
L 220.07393 91.097604 
L 220.388008 91.092212 
L 220.702083 91.086797 
L 221.01616 91.081382 
L 221.330238 91.075384 
L 221.644315 91.069348 
L 221.958393 91.062997 
L 222.27247 91.055403 
L 222.586548 91.048229 
L 222.900625 91.039769 
L 223.214702 91.031691 
L 223.528777 91.022594 
L 223.842855 91.013592 
L 224.156932 91.003549 
L 224.47101 90.99297 
L 224.785087 90.981536 
L 225.099165 90.9701 
L 225.413242 90.958138 
L 225.72732 90.945344 
L 226.041397 90.932582 
L 226.355474 90.919036 
L 226.669549 90.905278 
L 226.983627 90.890755 
L 227.297704 90.874821 
L 227.611782 90.858243 
L 227.925859 90.841932 
L 228.239937 90.824503 
L 228.554014 90.805251 
L 228.868092 90.786403 
L 229.182169 90.766301 
L 229.496244 90.745438 
L 229.810321 90.723171 
L 230.124399 90.700585 
L 230.438476 90.677118 
L 230.752554 90.652725 
L 231.066631 90.628531 
L 231.380709 90.60255 
L 231.694786 90.575247 
L 232.008864 90.547734 
L 232.322941 90.517652 
L 232.637016 90.486516 
L 232.951093 90.453978 
L 233.265171 90.41964 
L 233.579248 90.384879 
L 233.893326 90.34796 
L 234.207403 90.309563 
L 234.521481 90.269946 
L 234.835558 90.228552 
L 235.149636 90.184077 
L 235.463713 90.136537 
L 235.777788 90.08842 
L 236.091865 90.03625 
L 236.405943 89.981769 
L 236.72002 89.9243 
L 237.034098 89.861847 
L 237.348175 89.799432 
L 237.662253 89.732277 
L 237.97633 89.663613 
L 238.290408 89.590892 
L 238.604483 89.515116 
L 238.918562 89.434429 
L 239.23264 89.351306 
L 239.546717 89.263123 
L 239.860795 89.173545 
L 240.174867 89.079252 
L 240.488945 88.982172 
L 240.803022 88.878162 
L 241.1171 88.770018 
L 241.431177 88.659521 
L 241.745255 88.542959 
L 242.059332 88.424244 
L 242.373409 88.300336 
L 242.687487 88.172561 
L 243.001564 88.040959 
L 243.315642 87.908025 
L 243.629719 87.768742 
L 243.943797 87.625113 
L 244.257874 87.476496 
L 244.571952 87.324015 
L 244.886029 87.165882 
L 245.200106 87.006373 
L 245.514184 86.84353 
L 245.828261 86.675699 
L 246.142334 86.500575 
L 246.456411 86.322486 
L 246.770489 86.140103 
L 247.084566 85.95278 
L 247.398644 85.760325 
L 247.712721 85.56196 
L 248.026799 85.359182 
L 248.340876 85.153505 
L 248.654953 84.94069 
L 248.969031 84.722078 
L 249.283108 84.49988 
L 249.597186 84.273605 
L 249.911263 84.041212 
L 250.225341 83.801189 
L 250.539418 83.555204 
L 250.853496 83.305546 
L 251.167573 83.047804 
L 251.48165 82.783432 
L 251.795728 82.512631 
L 252.109805 82.238569 
L 252.423878 81.956789 
L 252.737955 81.665795 
L 253.052033 81.368043 
L 253.36611 81.06223 
L 253.680188 80.750264 
L 253.994265 80.430086 
L 254.308343 80.103799 
L 254.62242 79.769072 
L 254.936497 79.428537 
L 255.250575 79.077912 
L 255.564652 78.718156 
L 255.87873 78.34866 
L 256.192807 77.972244 
L 256.506885 77.587555 
L 256.820962 77.194245 
L 257.13504 76.792893 
L 257.449117 76.383394 
L 257.763194 75.966417 
L 258.077272 75.542759 
L 258.391345 75.105716 
L 258.705422 74.662459 
L 259.019499 74.212505 
L 259.333577 73.755289 
L 259.647654 73.286992 
L 259.961732 72.815424 
L 260.275809 72.333343 
L 260.589887 71.841129 
L 260.903964 71.339377 
L 261.218041 70.832252 
L 261.532119 70.31698 
L 261.846196 69.79604 
L 262.160274 69.268654 
L 262.474351 68.734006 
L 262.788429 68.189344 
L 263.102506 67.634158 
L 263.416584 67.079334 
L 263.730661 66.515894 
L 264.044738 65.944264 
L 264.358811 65.36868 
L 264.672889 64.788681 
L 264.986966 64.202473 
L 265.301043 63.612295 
L 265.615121 63.017772 
L 265.929198 62.416475 
L 266.243276 61.808096 
L 266.557353 61.191519 
L 266.871431 60.577151 
L 267.185508 59.958484 
L 267.499585 59.329764 
L 267.813663 58.700955 
L 268.12774 58.065354 
L 268.441818 57.426572 
L 268.755895 56.784441 
L 269.069973 56.138673 
L 269.38405 55.485957 
L 269.698128 54.831205 
L 270.012205 54.171902 
L 270.326278 53.512688 
L 270.640355 52.850335 
L 270.954433 52.177258 
L 271.26851 51.505481 
L 271.582587 50.835753 
L 271.896665 50.161235 
L 272.210742 49.483583 
L 272.52482 48.80289 
L 272.838897 48.119862 
L 273.152975 47.437438 
L 273.467052 46.751886 
L 273.78113 46.066177 
L 274.095207 45.381858 
L 274.409284 44.693262 
L 274.723362 44.009229 
L 275.037439 43.324994 
L 275.351517 42.646225 
L 275.665594 41.964261 
L 275.979672 41.284744 
L 276.293744 40.610487 
L 276.607822 39.937614 
L 276.921899 39.266905 
L 277.235977 38.601683 
L 277.550054 37.941605 
L 277.864131 37.289228 
L 278.178209 36.643718 
L 278.492286 36.00464 
L 278.806368 35.376342 
L 279.120446 34.752916 
L 279.434514 34.135975 
L 279.748591 33.531145 
L 280.062669 32.935926 
L 280.376746 32.340925 
L 280.690824 31.761042 
L 281.004901 31.192832 
L 281.318979 30.635793 
L 281.633056 30.087943 
L 281.947133 29.552619 
L 282.261211 29.027494 
L 282.575288 28.512694 
L 282.889366 28.00708 
L 283.203443 27.513112 
L 283.517521 27.0284 
L 283.831598 26.556389 
L 284.145675 26.093861 
L 284.459753 25.6411 
L 284.77383 25.199243 
L 285.087908 24.770108 
L 285.401985 24.358647 
L 285.716063 23.951976 
L 286.03014 23.553743 
L 286.344218 23.168089 
L 286.658295 22.787441 
L 286.972372 22.419805 
L 287.28645 22.063397 
L 287.600527 21.715261 
L 287.914605 21.378982 
L 288.228682 21.055103 
L 288.54276 20.743434 
L 288.856837 20.434153 
L 289.170914 20.14074 
L 289.484992 19.856662 
L 289.799069 19.582833 
L 290.113147 19.320803 
L 290.427224 19.071406 
L 290.741302 18.83563 
L 291.055379 18.610049 
L 291.369447 18.394275 
L 291.683524 18.188236 
L 291.997602 17.995769 
L 292.311679 17.818073 
L 292.625757 17.648446 
L 292.939834 17.491434 
L 293.253912 17.352799 
L 293.567989 17.228442 
L 293.882067 17.115295 
L 294.196144 17.011998 
L 294.510221 16.922956 
L 294.824299 16.851815 
L 295.138376 16.790125 
L 295.452454 16.748774 
L 295.766531 16.721933 
L 296.080609 16.713327 
L 296.394686 16.715427 
L 296.708763 16.73688 
L 297.022841 16.768299 
L 297.336918 16.813772 
L 297.650996 16.875087 
L 297.965073 16.954162 
L 298.279151 17.049482 
L 298.593228 17.155438 
L 298.907306 17.280754 
L 299.221383 17.419442 
L 299.53546 17.572411 
L 299.849538 17.734887 
L 300.163615 17.914786 
L 300.477693 18.110803 
L 300.79177 18.320736 
L 301.105848 18.5471 
L 301.419925 18.791052 
L 301.734002 19.051926 
L 302.04808 19.322438 
L 302.362157 19.607776 
L 302.676235 19.910674 
L 302.990312 20.22665 
L 303.30439 20.557644 
L 303.618458 20.904304 
L 303.932535 21.262004 
L 304.246612 21.637849 
L 304.56069 22.028673 
L 304.874767 22.431965 
L 305.188845 22.851526 
L 305.502922 23.281951 
L 305.817 23.726996 
L 306.131077 24.194356 
L 306.445155 24.669107 
L 306.759232 25.152337 
L 307.073309 25.650587 
L 307.387387 26.164157 
L 307.701464 26.68798 
L 308.015542 27.226884 
L 308.329619 27.775137 
L 308.643697 28.333869 
L 308.957774 28.903373 
L 309.271851 29.483751 
L 309.585929 30.075772 
L 309.900006 30.674718 
L 310.214084 31.280963 
L 310.528161 31.894835 
L 310.842239 32.520708 
L 311.156316 33.155714 
L 311.470394 33.793111 
L 311.784471 34.438007 
L 312.098548 35.09144 
L 312.412626 35.74592 
L 312.726703 36.408745 
L 313.040781 37.071242 
L 313.354858 37.736393 
L 313.668936 38.403605 
L 313.983013 39.07428 
L 314.29709 39.750169 
L 314.611168 40.431319 
L 314.925245 41.109468 
L 315.239323 41.791626 
L 315.553391 42.479478 
L 315.867468 43.163292 
L 316.181546 43.848939 
L 316.495623 44.537534 
L 316.8097 45.226246 
L 317.123778 45.912782 
L 317.437855 46.600873 
L 317.751933 47.291975 
L 318.06601 47.982552 
L 318.380088 48.670795 
L 318.694165 49.358486 
L 319.008243 50.045862 
L 319.32232 50.733399 
L 319.636397 51.419503 
L 319.950475 52.103962 
L 320.264552 52.786536 
L 320.57863 53.461908 
L 320.892707 54.142815 
L 321.206785 54.820943 
L 321.520862 55.497416 
L 321.834939 56.174428 
L 322.149017 56.844813 
L 322.463094 57.508882 
L 322.777172 58.171877 
L 323.091249 58.830151 
L 323.405327 59.482691 
L 323.719404 60.129556 
L 324.033482 60.777264 
L 324.347559 61.414704 
L 324.661636 62.045836 
L 324.975714 62.671236 
L 325.289791 63.287919 
L 325.603869 63.898173 
L 325.917946 64.501346 
L 326.232024 65.098771 
L 326.546101 65.688357 
L 326.860178 66.272044 
L 327.174256 66.846377 
L 327.488333 67.40813 
L 327.802401 67.967023 
L 328.116479 68.515797 
L 328.430556 69.050188 
L 328.744634 69.580061 
L 329.058711 70.101673 
L 329.372788 70.616235 
L 329.686866 71.119887 
L 330.000943 71.615327 
L 330.315021 72.10189 
L 330.629098 72.576398 
L 330.943176 73.045129 
L 331.257253 73.503947 
L 331.571331 73.955877 
L 331.885408 74.396677 
L 332.199485 74.832206 
L 332.513563 75.260411 
L 332.82764 75.680713 
L 333.141718 76.093245 
L 333.455795 76.498449 
L 333.769873 76.893213 
L 334.08395 77.279499 
L 334.398027 77.660922 
L 334.712105 78.033545 
L 335.026182 78.402826 
L 335.34026 78.762489 
L 335.654337 79.111233 
L 335.968415 79.454013 
L 336.282492 79.790187 
L 336.59657 80.11848 
L 336.910647 80.440646 
L 337.224724 80.753888 
L 337.538802 81.060598 
L 337.852879 81.364156 
L 338.166957 81.656695 
L 338.481034 81.944583 
L 338.795112 82.223099 
L 339.109189 82.496826 
L 339.423266 82.761182 
L 339.737334 83.021049 
L 340.051412 83.273571 
L 340.365489 83.518725 
L 340.679567 83.758245 
L 340.993644 83.99184 
L 341.307722 84.216211 
L 341.621799 84.437071 
L 341.935876 84.65205 
L 342.249954 84.861447 
L 342.564031 85.065055 
L 342.878109 85.262551 
L 343.192186 85.453296 
L 343.506264 85.6375 
L 343.820341 85.82042 
L 344.134419 85.996967 
L 344.448496 86.167182 
L 344.762573 86.333153 
L 345.076651 86.493851 
L 345.390728 86.650542 
L 345.704806 86.801114 
L 346.018883 86.948249 
L 346.332961 87.091422 
L 346.647038 87.231203 
L 346.961115 87.365183 
L 347.275193 87.495531 
L 347.58927 87.622327 
L 347.903348 87.742753 
L 348.217425 87.861664 
L 348.531503 87.977772 
L 348.84558 88.089992 
L 349.159658 88.198713 
L 349.473735 88.305105 
L 349.787812 88.40675 
L 350.10189 88.506032 
L 350.415967 88.600824 
L 350.730045 88.694015 
L 351.044122 88.782609 
L 351.3582 88.867716 
L 351.672277 88.95029 
L 351.986345 89.030374 
L 352.300422 89.108794 
L 352.6145 89.184397 
L 352.928577 89.256251 
L 353.242655 89.328046 
L 353.556732 89.397682 
L 353.87081 89.463906 
L 354.184887 89.528008 
L 354.498965 89.590313 
L 354.813042 89.649807 
L 355.127119 89.706939 
L 355.441197 89.761843 
L 355.755274 89.816978 
L 356.069352 89.868718 
L 356.383429 89.919716 
L 356.697507 89.968068 
L 357.011584 90.015808 
L 357.325661 90.061808 
L 357.639739 90.105895 
L 357.953816 90.149489 
L 358.267884 90.192501 
L 358.581962 90.232778 
L 358.896039 90.27162 
L 359.210117 90.309615 
L 359.524194 90.345967 
L 359.838271 90.382083 
L 360.152349 90.417341 
L 360.466426 90.450955 
L 360.780504 90.484343 
L 361.094581 90.51585 
L 361.408659 90.546676 
L 361.722736 90.576282 
L 362.036814 90.604734 
L 362.350891 90.631573 
L 362.664968 90.659268 
L 362.979046 90.68524 
L 363.293123 90.709899 
L 363.607201 90.73438 
L 363.921278 90.757825 
L 364.235356 90.780549 
L 364.549433 90.802562 
L 364.86351 90.825173 
L 365.177588 90.845334 
L 365.491665 90.865403 
L 365.805743 90.885042 
L 366.11982 90.903705 
L 366.433898 90.921194 
L 366.747975 90.93786 
L 367.062053 90.954005 
L 367.37613 90.970406 
L 367.690207 90.986163 
L 368.004285 91.001294 
L 368.318362 91.015296 
L 368.63244 91.028525 
L 368.946517 91.041545 
L 369.260595 91.054315 
L 369.574672 91.066023 
L 369.888749 91.077541 
L 370.202827 91.088312 
L 370.516904 91.098903 
L 370.830982 91.109539 
L 371.145059 91.119369 
L 371.459137 91.128716 
L 371.773214 91.137074 
L 372.087292 91.145318 
L 372.401369 91.15341 
L 372.715446 91.160802 
L 373.029524 91.16781 
L 373.343601 91.174702 
L 373.657679 91.180931 
L 373.971756 91.187071 
L 374.285834 91.192573 
L 374.599911 91.197495 
L 374.913988 91.202405 
L 375.228066 91.206749 
L 375.542143 91.210839 
L 375.856221 91.214939 
L 376.170298 91.218498 
L 376.484376 91.221829 
L 376.798453 91.225198 
L 377.11253 91.228054 
L 377.426608 91.23123 
L 377.740685 91.233615 
L 378.054763 91.235828 
L 378.36884 91.238137 
L 378.682918 91.240508 
L 378.996995 91.242136 
L 379.311073 91.243638 
L 379.62515 91.245019 
L 379.939227 91.246547 
L 380.253305 91.247668 
L 380.567382 91.248692 
L 380.88146 91.249886 
L 381.195537 91.250695 
L 381.509615 91.251431 
L 381.823692 91.252097 
L 382.137769 91.252959 
L 382.451847 91.253461 
L 382.765924 91.253914 
L 383.080002 91.254321 
L 383.394079 91.254946 
L 383.708157 91.255231 
L 384.022234 91.255747 
L 384.336312 91.255935 
L 384.650389 91.256103 
L 384.964466 91.256253 
L 385.278544 91.256386 
L 385.592621 91.256505 
L 385.906699 91.256609 
L 386.220776 91.256701 
L 386.534854 91.256782 
L 386.848931 91.256852 
L 387.163008 91.256913 
L 387.477086 91.256967 
z
" style="fill:#1f77b4;opacity:0.4;stroke:#ffffff;stroke-linejoin:miter;"/>
   </g>
   <g id="patch_4">
    <path clip-path="url(#p1ef60408f1)" d="M 262.160274 91.257273 
L 262.160274 69.268654 
L 262.474351 68.734006 
L 262.788429 68.189344 
L 263.102506 67.634158 
L 263.416584 67.079334 
L 263.730661 66.515894 
L 264.044738 65.944264 
L 264.358811 65.36868 
L 264.672889 64.788681 
L 264.986966 64.202473 
L 265.301043 63.612295 
L 265.615121 63.017772 
L 265.929198 62.416475 
L 266.243276 61.808096 
L 266.557353 61.191519 
L 266.871431 60.577151 
L 267.185508 59.958484 
L 267.499585 59.329764 
L 267.813663 58.700955 
L 268.12774 58.065354 
L 268.441818 57.426572 
L 268.755895 56.784441 
L 269.069973 56.138673 
L 269.38405 55.485957 
L 269.698128 54.831205 
L 270.012205 54.171902 
L 270.326278 53.512688 
L 270.640355 52.850335 
L 270.954433 52.177258 
L 271.26851 51.505481 
L 271.582587 50.835753 
L 271.896665 50.161235 
L 272.210742 49.483583 
L 272.52482 48.80289 
L 272.838897 48.119862 
L 273.152975 47.437438 
L 273.467052 46.751886 
L 273.78113 46.066177 
L 274.095207 45.381858 
L 274.409284 44.693262 
L 274.723362 44.009229 
L 275.037439 43.324994 
L 275.351517 42.646225 
L 275.665594 41.964261 
L 275.979672 41.284744 
L 276.293744 40.610487 
L 276.607822 39.937614 
L 276.921899 39.266905 
L 277.235977 38.601683 
L 277.550054 37.941605 
L 277.864131 37.289228 
L 278.178209 36.643718 
L 278.492286 36.00464 
L 278.806368 35.376342 
L 279.120446 34.752916 
L 279.434514 34.135975 
L 279.748591 33.531145 
L 280.062669 32.935926 
L 280.376746 32.340925 
L 280.690824 31.761042 
L 281.004901 31.192832 
L 281.318979 30.635793 
L 281.633056 30.087943 
L 281.947133 29.552619 
L 282.261211 29.027494 
L 282.575288 28.512694 
L 282.889366 28.00708 
L 283.203443 27.513112 
L 283.517521 27.0284 
L 283.831598 26.556389 
L 284.145675 26.093861 
L 284.459753 25.6411 
L 284.77383 25.199243 
L 285.087908 24.770108 
L 285.401985 24.358647 
L 285.716063 23.951976 
L 286.03014 23.553743 
L 286.344218 23.168089 
L 286.658295 22.787441 
L 286.972372 22.419805 
L 287.28645 22.063397 
L 287.600527 21.715261 
L 287.914605 21.378982 
L 288.228682 21.055103 
L 288.54276 20.743434 
L 288.856837 20.434153 
L 289.170914 20.14074 
L 289.484992 19.856662 
L 289.799069 19.582833 
L 290.113147 19.320803 
L 290.427224 19.071406 
L 290.741302 18.83563 
L 291.055379 18.610049 
L 291.369447 18.394275 
L 291.683524 18.188236 
L 291.997602 17.995769 
L 292.311679 17.818073 
L 292.625757 17.648446 
L 292.939834 17.491434 
L 293.253912 17.352799 
L 293.567989 17.228442 
L 293.882067 17.115295 
L 294.196144 17.011998 
L 294.510221 16.922956 
L 294.824299 16.851815 
L 295.138376 16.790125 
L 295.452454 16.748774 
L 295.766531 16.721933 
L 296.080609 16.713327 
L 296.394686 16.715427 
L 296.708763 16.73688 
L 297.022841 16.768299 
L 297.336918 16.813772 
L 297.650996 16.875087 
L 297.965073 16.954162 
L 298.279151 17.049482 
L 298.593228 17.155438 
L 298.907306 17.280754 
L 299.221383 17.419442 
L 299.53546 17.572411 
L 299.849538 17.734887 
L 300.163615 17.914786 
L 300.477693 18.110803 
L 300.79177 18.320736 
L 301.105848 18.5471 
L 301.419925 18.791052 
L 301.734002 19.051926 
L 302.04808 19.322438 
L 302.362157 19.607776 
L 302.676235 19.910674 
L 302.990312 20.22665 
L 303.30439 20.557644 
L 303.618458 20.904304 
L 303.932535 21.262004 
L 304.246612 21.637849 
L 304.56069 22.028673 
L 304.874767 22.431965 
L 305.188845 22.851526 
L 305.502922 23.281951 
L 305.817 23.726996 
L 306.131077 24.194356 
L 306.445155 24.669107 
L 306.759232 25.152337 
L 307.073309 25.650587 
L 307.387387 26.164157 
L 307.701464 26.68798 
L 308.015542 27.226884 
L 308.329619 27.775137 
L 308.643697 28.333869 
L 308.957774 28.903373 
L 309.271851 29.483751 
L 309.585929 30.075772 
L 309.900006 30.674718 
L 310.214084 31.280963 
L 310.528161 31.894835 
L 310.842239 32.520708 
L 311.156316 33.155714 
L 311.470394 33.793111 
L 311.784471 34.438007 
L 312.098548 35.09144 
L 312.412626 35.74592 
L 312.726703 36.408745 
L 313.040781 37.071242 
L 313.354858 37.736393 
L 313.668936 38.403605 
L 313.983013 39.07428 
L 314.29709 39.750169 
L 314.611168 40.431319 
L 314.925245 41.109468 
L 315.239323 41.791626 
L 315.553391 42.479478 
L 315.867468 43.163292 
L 316.181546 43.848939 
L 316.495623 44.537534 
L 316.8097 45.226246 
L 317.123778 45.912782 
L 317.437855 46.600873 
L 317.751933 47.291975 
L 318.06601 47.982552 
L 318.380088 48.670795 
L 318.694165 49.358486 
L 319.008243 50.045862 
L 319.32232 50.733399 
L 319.636397 51.419503 
L 319.950475 52.103962 
L 320.264552 52.786536 
L 320.57863 53.461908 
L 320.892707 54.142815 
L 321.206785 54.820943 
L 321.520862 55.497416 
L 321.834939 56.174428 
L 322.149017 56.844813 
L 322.463094 57.508882 
L 322.777172 58.171877 
L 323.091249 58.830151 
L 323.405327 59.482691 
L 323.719404 60.129556 
L 324.033482 60.777264 
L 324.347559 61.414704 
L 324.661636 62.045836 
L 324.975714 62.671236 
L 325.289791 63.287919 
L 325.603869 63.898173 
L 325.917946 64.501346 
L 326.232024 65.098771 
L 326.546101 65.688357 
L 326.860178 66.272044 
L 327.174256 66.846377 
L 327.488333 67.40813 
L 327.802401 67.967023 
L 328.116479 68.515797 
L 328.430556 69.050188 
L 328.430556 91.257273 
z
" style="fill:#1f77b4;opacity:0.4;stroke:#ffffff;stroke-linejoin:miter;"/>
   </g>
   <g id="patch_5">
    <path clip-path="url(#p1ef60408f1)" d="M 25.308433 91.257273 
L 25.615409 91.256967 
L 25.922386 91.256913 
L 26.229363 91.256852 
L 26.53634 91.256782 
L 26.843316 91.256701 
L 27.150293 91.256609 
L 27.45727 91.256505 
L 27.764247 91.256386 
L 28.071223 91.256253 
L 28.3782 91.256103 
L 28.685177 91.255935 
L 28.992154 91.255747 
L 29.29913 91.255537 
L 29.606107 91.255305 
L 29.913084 91.255048 
L 30.220061 91.254459 
L 30.527037 91.254095 
L 30.834014 91.253693 
L 31.140991 91.253252 
L 31.447968 91.252768 
L 31.754944 91.251934 
L 32.061921 91.251306 
L 32.368898 91.250621 
L 32.675875 91.249876 
L 32.982851 91.249068 
L 33.289828 91.248195 
L 33.596805 91.247254 
L 33.903782 91.246244 
L 34.210759 91.245161 
L 34.517735 91.244005 
L 34.824712 91.242775 
L 35.131689 91.241469 
L 35.438666 91.240087 
L 35.745642 91.238323 
L 36.052619 91.236737 
L 36.359596 91.235069 
L 36.666573 91.233014 
L 36.973549 91.231132 
L 37.280526 91.229165 
L 37.587503 91.226808 
L 37.89448 91.224621 
L 38.201456 91.222347 
L 38.508433 91.219987 
L 38.81541 91.217546 
L 39.122387 91.215024 
L 39.429363 91.212121 
L 39.73634 91.209398 
L 40.043317 91.2066 
L 40.350294 91.203423 
L 40.65727 91.200126 
L 40.964247 91.19701 
L 41.271224 91.193512 
L 41.578201 91.190194 
L 41.885177 91.186799 
L 42.192154 91.183328 
L 42.806108 91.179784 
L 43.113075 91.176169 
L 43.420052 91.171874 
L 43.727028 91.168018 
L 44.033996 91.164082 
L 44.340972 91.159456 
L 44.64794 91.155256 
L 44.954916 91.150963 
L 45.261893 91.146574 
L 45.568861 91.141478 
L 45.875837 91.136485 
L 46.182814 91.131019 
L 46.489781 91.125322 
L 46.796758 91.119375 
L 47.103725 91.112851 
L 47.410702 91.106592 
L 47.717679 91.10006 
L 48.024646 91.09293 
L 48.331623 91.086046 
L 48.6386 91.078569 
L 48.945567 91.071043 
L 49.252544 91.062273 
L 49.559511 91.053922 
L 49.866488 91.04397 
L 50.173464 91.034328 
L 50.480432 91.023885 
L 50.787409 91.012255 
L 51.094385 91.000828 
L 51.401353 90.988794 
L 51.708329 90.976124 
L 52.015297 90.962178 
L 52.322273 90.948045 
L 52.62925 90.932871 
L 52.936217 90.916881 
L 53.243194 90.89943 
L 53.550171 90.880378 
L 53.857138 90.860795 
L 54.164115 90.840112 
L 54.471092 90.817667 
L 54.778059 90.794527 
L 55.085036 90.76951 
L 55.392003 90.743374 
L 55.69898 90.716412 
L 56.005957 90.685915 
L 56.312924 90.655137 
L 56.619901 90.623021 
L 56.926877 90.590168 
L 57.233845 90.554538 
L 57.540821 90.517419 
L 57.847789 90.478191 
L 58.154765 90.437056 
L 58.461742 90.39396 
L 58.768709 90.348846 
L 59.075686 90.300131 
L 59.382663 90.250559 
L 59.68963 90.199083 
L 59.996607 90.145705 
L 60.303574 90.08917 
L 60.610551 90.031126 
L 60.917528 89.970813 
L 61.224495 89.905459 
L 61.531472 89.837326 
L 61.838449 89.768477 
L 62.145416 89.695845 
L 62.452393 89.620419 
L 62.759369 89.542765 
L 63.066337 89.461417 
L 63.373313 89.377112 
L 63.680281 89.289503 
L 63.987257 89.199724 
L 64.294234 89.107285 
L 64.601201 89.012225 
L 64.908178 88.913026 
L 65.215155 88.811327 
L 65.522122 88.706358 
L 65.829099 88.594716 
L 66.136066 88.48159 
L 66.443043 88.367236 
L 66.75002 88.248027 
L 67.056987 88.126784 
L 67.363964 88.002186 
L 67.670941 87.872679 
L 67.977908 87.740724 
L 68.284885 87.604936 
L 68.591852 87.464908 
L 68.898829 87.322614 
L 69.205805 87.175173 
L 69.512773 87.025013 
L 69.819749 86.870709 
L 70.126726 86.714561 
L 70.433693 86.553112 
L 70.74067 86.386937 
L 71.047638 86.219524 
L 71.354614 86.048755 
L 71.661591 85.871274 
L 71.968558 85.688089 
L 72.275535 85.501522 
L 72.582512 85.309478 
L 72.889479 85.113531 
L 73.196456 84.911519 
L 73.503433 84.703978 
L 73.8104 84.492179 
L 74.117377 84.274535 
L 74.424344 84.053238 
L 74.731321 83.82574 
L 75.038297 83.589583 
L 75.345265 83.347433 
L 75.652241 83.097367 
L 75.959218 82.843226 
L 76.266186 82.579476 
L 76.573162 82.306425 
L 76.88013 82.027803 
L 77.187106 81.739479 
L 77.494083 81.443376 
L 77.80105 81.138348 
L 78.108027 80.825351 
L 78.415004 80.504425 
L 78.721971 80.176381 
L 79.028948 79.831926 
L 79.335915 79.477714 
L 79.642892 79.114183 
L 79.949869 78.742723 
L 80.256836 78.360791 
L 80.563813 77.968544 
L 80.870789 77.562495 
L 81.177757 77.153016 
L 81.484734 76.730261 
L 81.79171 76.296844 
L 82.098678 75.852852 
L 82.405654 75.396726 
L 82.712622 74.929817 
L 83.019598 74.453116 
L 83.326575 73.965911 
L 83.633542 73.468507 
L 83.940519 72.95709 
L 84.247496 72.436926 
L 84.554463 71.90718 
L 84.86144 71.370673 
L 85.168407 70.820363 
L 85.475384 70.263148 
L 85.782361 69.695887 
L 86.089328 69.11959 
L 86.396305 68.533794 
L 86.703282 67.941707 
L 87.010249 67.344043 
L 87.317226 66.731092 
L 87.624193 66.112776 
L 87.93117 65.49055 
L 88.238146 64.857711 
L 88.545114 64.218037 
L 88.85209 63.574803 
L 89.159067 62.922111 
L 89.466034 62.264899 
L 89.773011 61.603363 
L 90.079978 60.939389 
L 90.386955 60.263413 
L 90.693932 59.58634 
L 91.000899 58.905717 
L 91.307876 58.218146 
L 91.614853 57.531865 
L 91.92182 56.834084 
L 92.228797 56.138024 
L 92.535774 55.439256 
L 92.842741 54.740519 
L 93.149718 54.035188 
L 93.456685 53.326823 
L 93.763662 52.616475 
L 94.070638 51.908675 
L 94.377606 51.195006 
L 94.684582 50.480896 
L 94.991559 49.760315 
L 95.298526 49.041018 
L 95.605503 48.322293 
L 95.912471 47.606093 
L 96.219447 46.882624 
L 96.526424 46.153869 
L 96.833391 45.431597 
L 97.140368 44.708509 
L 97.447345 43.986542 
L 97.754312 43.262043 
L 98.061289 42.534172 
L 98.368256 41.81094 
L 98.675233 41.084679 
L 98.98221 40.361212 
L 99.289177 39.640031 
L 99.596154 38.921544 
L 99.90313 38.203329 
L 100.210098 37.485763 
L 100.517074 36.770636 
L 100.824051 36.055659 
L 101.131019 35.344475 
L 101.437995 34.635708 
L 101.744963 33.929408 
L 102.051939 33.234888 
L 102.358916 32.540014 
L 102.665883 31.852675 
L 102.97286 31.17017 
L 103.279837 30.49262 
L 103.586804 29.819939 
L 103.893781 29.15529 
L 104.200748 28.491808 
L 104.507725 27.837998 
L 104.814702 27.196494 
L 105.121669 26.55985 
L 105.428646 25.92799 
L 105.735622 25.303551 
L 106.04259 24.688677 
L 106.349567 24.087503 
L 106.656534 23.496294 
L 106.963511 22.915623 
L 107.270487 22.339652 
L 107.577455 21.775733 
L 107.884431 21.222183 
L 108.191408 20.677056 
L 108.498375 20.140078 
L 108.805352 19.613191 
L 109.112319 19.103489 
L 109.419296 18.608594 
L 109.726273 18.126848 
L 110.03324 17.656924 
L 110.340217 17.195389 
L 110.647194 16.749502 
L 110.954161 16.322156 
L 111.261138 15.902834 
L 111.568115 15.502946 
L 111.875082 15.119028 
L 112.182059 14.747703 
L 112.489026 14.393326 
L 112.796003 14.053862 
L 113.102979 13.728259 
L 113.409947 13.428037 
L 113.716923 13.14524 
L 114.0239 12.876963 
L 114.330867 12.626919 
L 114.637844 12.396109 
L 114.944811 12.181875 
L 115.251788 11.993355 
L 115.558765 11.820451 
L 115.865732 11.670616 
L 116.172709 11.536033 
L 116.479686 11.424545 
L 116.786653 11.334534 
L 117.09363 11.270588 
L 117.400597 11.224051 
L 117.707574 11.202957 
L 118.014551 11.202727 
L 118.321518 11.230928 
L 118.628495 11.277746 
L 118.935471 11.342112 
L 119.242439 11.42819 
L 119.549415 11.546157 
L 119.856387 11.67754 
L 120.163359 11.830595 
L 120.470336 12.007644 
L 120.777308 12.205894 
L 121.08428 12.420727 
L 121.391252 12.654549 
L 121.698229 12.916102 
L 122.005201 13.196619 
L 122.312173 13.492251 
L 122.619145 13.811619 
L 122.926122 14.14885 
L 123.233094 14.503544 
L 123.540066 14.877821 
L 123.847038 15.267594 
L 124.154015 15.672231 
L 124.460987 16.089489 
L 124.767959 16.533364 
L 125.074931 16.984562 
L 125.381907 17.449102 
L 125.688879 17.933658 
L 125.995852 18.428004 
L 126.302824 18.943761 
L 126.6098 19.463196 
L 126.916772 19.998406 
L 127.223744 20.542959 
L 127.530716 21.105087 
L 127.837693 21.679843 
L 128.144665 22.262647 
L 128.451637 22.850414 
L 128.758609 23.456155 
L 129.065586 24.070947 
L 129.372558 24.697716 
L 129.67953 25.332561 
L 129.986507 25.974214 
L 130.293479 26.62437 
L 130.600451 27.287402 
L 130.907423 27.963721 
L 131.2144 28.63924 
L 131.521372 29.323565 
L 131.828344 30.017149 
L 132.135316 30.720751 
L 132.442292 31.435369 
L 132.749264 32.15018 
L 133.056236 32.876899 
L 133.363208 33.607965 
L 133.670185 34.346678 
L 133.977157 35.087058 
L 134.284129 35.837098 
L 134.591101 36.597582 
L 134.898078 37.358169 
L 135.20505 38.124196 
L 135.512022 38.894378 
L 135.818994 39.667764 
L 136.125971 40.445281 
L 136.432943 41.219228 
L 136.739915 42.000525 
L 137.046887 42.781822 
L 137.353864 43.563939 
L 137.660836 44.347634 
L 137.967808 45.134294 
L 138.27478 45.917499 
L 138.581756 46.706105 
L 138.888728 47.487459 
L 139.1957 48.26317 
L 139.502677 49.040433 
L 139.809649 49.81536 
L 140.116621 50.58767 
L 140.423593 51.358301 
L 140.73057 52.120405 
L 141.037542 52.875891 
L 141.344514 53.627899 
L 141.651486 54.377067 
L 141.958463 55.118985 
L 142.265435 55.856059 
L 142.572407 56.585948 
L 142.879379 57.313186 
L 143.186356 58.030213 
L 143.493328 58.735327 
L 143.8003 59.432866 
L 144.107272 60.122074 
L 144.414248 60.806115 
L 144.72122 61.484253 
L 145.028192 62.153041 
L 145.335164 62.810001 
L 145.642141 63.463455 
L 145.949113 64.104578 
L 146.256085 64.737631 
L 146.563057 65.365165 
L 146.870034 65.981893 
L 147.177006 66.590375 
L 147.483978 67.192257 
L 147.79095 67.784213 
L 148.097927 68.366123 
L 148.404899 68.941693 
L 148.711871 69.505733 
L 149.018848 70.06145 
L 149.32582 70.610616 
L 149.632792 71.147323 
L 149.939764 71.67371 
L 150.24674 72.192289 
L 150.553712 72.707268 
L 150.860684 73.210909 
L 151.167657 73.705228 
L 151.474633 74.185727 
L 151.781605 74.660975 
L 152.088577 75.123659 
L 152.395549 75.579581 
L 152.702526 76.022984 
L 153.009498 76.459465 
L 153.31647 76.889951 
L 153.623442 77.308557 
L 153.930419 77.713899 
L 154.237391 78.116083 
L 154.544363 78.50984 
L 154.851335 78.892218 
L 155.158312 79.266701 
L 155.465284 79.633652 
L 155.772256 79.991351 
L 156.079228 80.340265 
L 156.386205 80.678133 
L 156.693177 81.008987 
L 157.000149 81.329902 
L 157.307121 81.642758 
L 157.614097 81.9457 
L 157.921069 82.241628 
L 158.228041 82.530506 
L 158.535018 82.812116 
L 158.84199 83.086476 
L 159.148962 83.350673 
L 159.455937 83.609922 
L 159.762909 83.861965 
L 160.069883 84.103272 
L 160.376855 84.338412 
L 160.683829 84.566354 
L 160.990801 84.791179 
L 161.297776 85.005412 
L 161.604748 85.214212 
L 161.911722 85.415526 
L 162.218694 85.610935 
L 162.525669 85.801271 
L 162.832641 85.987042 
L 163.139615 86.164325 
L 163.446587 86.337357 
L 163.753561 86.505774 
L 164.060533 86.667502 
L 164.367508 86.826523 
L 164.67448 86.977655 
L 164.981454 87.124318 
L 165.288426 87.266318 
L 165.595401 87.404544 
L 165.902373 87.537948 
L 166.209347 87.665706 
L 166.516319 87.789696 
L 166.823293 87.909191 
L 167.130265 88.026189 
L 167.43724 88.137722 
L 167.744214 88.245403 
L 168.051186 88.349095 
L 168.358161 88.451864 
L 168.665133 88.549264 
L 168.972107 88.642175 
L 169.279079 88.73369 
L 169.586053 88.821852 
L 169.893025 88.906793 
L 170.2 88.988899 
L 170.506972 89.068294 
L 170.813946 89.145319 
L 171.120918 89.218975 
L 171.427893 89.289984 
L 171.734865 89.360273 
L 172.041839 89.426807 
L 172.348811 89.490613 
L 172.655785 89.552874 
L 172.962757 89.612308 
L 173.269732 89.670655 
L 173.576704 89.7281 
L 173.883678 89.782985 
L 174.19065 89.835732 
L 174.497625 89.886447 
L 174.804597 89.934188 
L 175.111571 89.98076 
L 175.418543 90.026405 
L 175.725517 90.06925 
L 176.03249 90.11239 
L 176.339464 90.154039 
L 176.646436 90.192944 
L 176.95341 90.231946 
L 177.260385 90.268004 
L 177.567357 90.304 
L 177.874331 90.338485 
L 178.181303 90.372316 
L 178.488277 90.404661 
L 178.79525 90.435343 
L 179.102224 90.46469 
L 179.409196 90.494065 
L 179.716169 90.522593 
L 180.023142 90.548979 
L 180.330116 90.574987 
L 180.637089 90.598745 
L 180.944062 90.622565 
L 181.251035 90.645298 
L 181.558008 90.667791 
L 181.864983 90.689208 
L 182.171956 90.709105 
L 182.478929 90.729191 
L 182.785902 90.748319 
L 183.092876 90.767601 
L 183.399849 90.785383 
L 183.706822 90.802866 
L 184.013795 90.819772 
L 184.320768 90.835612 
L 184.627742 90.851529 
L 184.934715 90.86642 
L 185.241688 90.880648 
L 185.548661 90.895565 
L 185.855634 90.909458 
L 186.162608 90.922955 
L 186.469581 90.935811 
L 186.776554 90.948077 
L 187.083527 90.96006 
L 187.3905 90.972539 
L 187.697474 90.984094 
L 188.004447 90.995602 
L 188.31142 91.006504 
L 188.618393 91.01685 
L 188.925366 91.027199 
L 189.23234 91.037248 
L 189.539313 91.047257 
L 189.846287 91.056928 
L 190.15326 91.066266 
L 190.460233 91.074759 
L 190.767206 91.083531 
L 191.074179 91.091716 
L 191.381153 91.09936 
L 191.688126 91.107024 
L 191.995099 91.114664 
L 192.302072 91.121981 
L 192.609045 91.128726 
L 192.916019 91.134947 
L 193.222992 91.141207 
L 193.529965 91.147464 
L 193.836939 91.152905 
L 194.143912 91.158141 
L 194.450885 91.163172 
L 194.757858 91.168001 
L 195.064832 91.17263 
L 195.371805 91.177064 
L 195.678778 91.181566 
L 195.985751 91.185583 
L 196.292728 91.189426 
L 196.599705 91.193359 
L 196.906682 91.197091 
L 197.213658 91.200632 
L 197.520635 91.203733 
L 197.827612 91.206705 
L 198.134589 91.209812 
L 198.441565 91.212498 
L 198.748542 91.215334 
L 199.055519 91.217762 
L 199.362496 91.220352 
L 199.669472 91.222546 
L 199.976449 91.224912 
L 200.283426 91.226892 
L 200.590403 91.228794 
L 200.897379 91.230618 
L 201.204356 91.232365 
L 201.511333 91.234036 
L 201.81831 91.235632 
L 202.125286 91.237414 
L 202.432263 91.238823 
L 202.73924 91.240167 
L 203.046217 91.241444 
L 203.353193 91.242916 
L 203.66017 91.244284 
L 203.967147 91.245295 
L 204.274124 91.246514 
L 204.5811 91.247381 
L 204.888077 91.248202 
L 205.195054 91.248977 
L 205.502031 91.249706 
L 205.809007 91.250389 
L 206.115984 91.251027 
L 206.422961 91.251622 
L 206.729938 91.252433 
L 207.036914 91.252903 
L 207.343891 91.25334 
L 207.650868 91.253743 
L 207.957845 91.254114 
L 208.264821 91.254454 
L 208.571798 91.254765 
L 208.878775 91.255048 
L 209.185752 91.255305 
L 209.492728 91.255537 
L 209.799705 91.255747 
L 210.106682 91.255935 
L 210.413659 91.256103 
L 210.720635 91.256253 
L 211.027612 91.256386 
L 211.334589 91.256505 
L 211.641566 91.256609 
L 211.948542 91.256701 
L 212.255519 91.256782 
L 212.562496 91.256852 
L 212.869473 91.256913 
L 213.176449 91.256967 
z
" style="fill:#ff7f0e;opacity:0.4;stroke:#ffffff;stroke-linejoin:miter;"/>
   </g>
   <g id="patch_6">
    <path clip-path="url(#p1ef60408f1)" d="M 86.396305 91.257273 
L 86.396305 68.533794 
L 86.703282 67.941707 
L 87.010249 67.344043 
L 87.317226 66.731092 
L 87.624193 66.112776 
L 87.93117 65.49055 
L 88.238146 64.857711 
L 88.545114 64.218037 
L 88.85209 63.574803 
L 89.159067 62.922111 
L 89.466034 62.264899 
L 89.773011 61.603363 
L 90.079978 60.939389 
L 90.386955 60.263413 
L 90.693932 59.58634 
L 91.000899 58.905717 
L 91.307876 58.218146 
L 91.614853 57.531865 
L 91.92182 56.834084 
L 92.228797 56.138024 
L 92.535774 55.439256 
L 92.842741 54.740519 
L 93.149718 54.035188 
L 93.456685 53.326823 
L 93.763662 52.616475 
L 94.070638 51.908675 
L 94.377606 51.195006 
L 94.684582 50.480896 
L 94.991559 49.760315 
L 95.298526 49.041018 
L 95.605503 48.322293 
L 95.912471 47.606093 
L 96.219447 46.882624 
L 96.526424 46.153869 
L 96.833391 45.431597 
L 97.140368 44.708509 
L 97.447345 43.986542 
L 97.754312 43.262043 
L 98.061289 42.534172 
L 98.368256 41.81094 
L 98.675233 41.084679 
L 98.98221 40.361212 
L 99.289177 39.640031 
L 99.596154 38.921544 
L 99.90313 38.203329 
L 100.210098 37.485763 
L 100.517074 36.770636 
L 100.824051 36.055659 
L 101.131019 35.344475 
L 101.437995 34.635708 
L 101.744963 33.929408 
L 102.051939 33.234888 
L 102.358916 32.540014 
L 102.665883 31.852675 
L 102.97286 31.17017 
L 103.279837 30.49262 
L 103.586804 29.819939 
L 103.893781 29.15529 
L 104.200748 28.491808 
L 104.507725 27.837998 
L 104.814702 27.196494 
L 105.121669 26.55985 
L 105.428646 25.92799 
L 105.735622 25.303551 
L 106.04259 24.688677 
L 106.349567 24.087503 
L 106.656534 23.496294 
L 106.963511 22.915623 
L 107.270487 22.339652 
L 107.577455 21.775733 
L 107.884431 21.222183 
L 108.191408 20.677056 
L 108.498375 20.140078 
L 108.805352 19.613191 
L 109.112319 19.103489 
L 109.419296 18.608594 
L 109.726273 18.126848 
L 110.03324 17.656924 
L 110.340217 17.195389 
L 110.647194 16.749502 
L 110.954161 16.322156 
L 111.261138 15.902834 
L 111.568115 15.502946 
L 111.875082 15.119028 
L 112.182059 14.747703 
L 112.489026 14.393326 
L 112.796003 14.053862 
L 113.102979 13.728259 
L 113.409947 13.428037 
L 113.716923 13.14524 
L 114.0239 12.876963 
L 114.330867 12.626919 
L 114.637844 12.396109 
L 114.944811 12.181875 
L 115.251788 11.993355 
L 115.558765 11.820451 
L 115.865732 11.670616 
L 116.172709 11.536033 
L 116.479686 11.424545 
L 116.786653 11.334534 
L 117.09363 11.270588 
L 117.400597 11.224051 
L 117.707574 11.202957 
L 118.014551 11.202727 
L 118.321518 11.230928 
L 118.628495 11.277746 
L 118.935471 11.342112 
L 119.242439 11.42819 
L 119.549415 11.546157 
L 119.856387 11.67754 
L 120.163359 11.830595 
L 120.470336 12.007644 
L 120.777308 12.205894 
L 121.08428 12.420727 
L 121.391252 12.654549 
L 121.698229 12.916102 
L 122.005201 13.196619 
L 122.312173 13.492251 
L 122.619145 13.811619 
L 122.926122 14.14885 
L 123.233094 14.503544 
L 123.540066 14.877821 
L 123.847038 15.267594 
L 124.154015 15.672231 
L 124.460987 16.089489 
L 124.767959 16.533364 
L 125.074931 16.984562 
L 125.381907 17.449102 
L 125.688879 17.933658 
L 125.995852 18.428004 
L 126.302824 18.943761 
L 126.6098 19.463196 
L 126.916772 19.998406 
L 127.223744 20.542959 
L 127.530716 21.105087 
L 127.837693 21.679843 
L 128.144665 22.262647 
L 128.451637 22.850414 
L 128.758609 23.456155 
L 129.065586 24.070947 
L 129.372558 24.697716 
L 129.67953 25.332561 
L 129.986507 25.974214 
L 130.293479 26.62437 
L 130.600451 27.287402 
L 130.907423 27.963721 
L 131.2144 28.63924 
L 131.521372 29.323565 
L 131.828344 30.017149 
L 132.135316 30.720751 
L 132.442292 31.435369 
L 132.749264 32.15018 
L 133.056236 32.876899 
L 133.363208 33.607965 
L 133.670185 34.346678 
L 133.977157 35.087058 
L 134.284129 35.837098 
L 134.591101 36.597582 
L 134.898078 37.358169 
L 135.20505 38.124196 
L 135.512022 38.894378 
L 135.818994 39.667764 
L 136.125971 40.445281 
L 136.432943 41.219228 
L 136.739915 42.000525 
L 137.046887 42.781822 
L 137.353864 43.563939 
L 137.660836 44.347634 
L 137.967808 45.134294 
L 138.27478 45.917499 
L 138.581756 46.706105 
L 138.888728 47.487459 
L 139.1957 48.26317 
L 139.502677 49.040433 
L 139.809649 49.81536 
L 140.116621 50.58767 
L 140.423593 51.358301 
L 140.73057 52.120405 
L 141.037542 52.875891 
L 141.344514 53.627899 
L 141.651486 54.377067 
L 141.958463 55.118985 
L 142.265435 55.856059 
L 142.572407 56.585948 
L 142.879379 57.313186 
L 143.186356 58.030213 
L 143.493328 58.735327 
L 143.8003 59.432866 
L 144.107272 60.122074 
L 144.414248 60.806115 
L 144.72122 61.484253 
L 145.028192 62.153041 
L 145.335164 62.810001 
L 145.642141 63.463455 
L 145.949113 64.104578 
L 146.256085 64.737631 
L 146.563057 65.365165 
L 146.870034 65.981893 
L 147.177006 66.590375 
L 147.483978 67.192257 
L 147.79095 67.784213 
L 147.79095 91.257273 
z
" style="fill:#ff7f0e;opacity:0.4;stroke:#ffffff;stroke-linejoin:miter;"/>
   </g>
   <g id="line2d_6">
    <path clip-path="url(#p1ef60408f1)" d="M 278.555989 95.26 
L 278.555989 7.2 
" style="fill:none;stroke:#4c72b0;stroke-linecap:round;stroke-width:1.5;"/>
   </g>
   <g id="line2d_7">
    <path clip-path="url(#p1ef60408f1)" d="M 119.716386 95.26 
L 119.716386 7.2 
" style="fill:none;stroke:#dd8452;stroke-linecap:round;stroke-width:1.5;"/>
   </g>
   <g id="patch_7">
    <path d="M 7.2 95.26 
L 405.585519 95.26 
" style="fill:none;stroke:#ffffff;stroke-linecap:square;stroke-linejoin:miter;stroke-width:1.25;"/>
   </g>
   <g id="legend_1">
    <g id="patch_8">
     <path d="M 333.112706 48.291875 
L 397.885519 48.291875 
Q 400.085519 48.291875 400.085519 46.091875 
L 400.085519 14.9 
Q 400.085519 12.7 397.885519 12.7 
L 333.112706 12.7 
Q 330.912706 12.7 330.912706 14.9 
L 330.912706 46.091875 
Q 330.912706 48.291875 333.112706 48.291875 
z
" style="fill:#eaeaf2;opacity:0.8;stroke:#cccccc;stroke-linejoin:miter;"/>
    </g>
    <g id="patch_9">
     <path d="M 335.312706 25.458281 
L 357.312706 25.458281 
L 357.312706 17.758281 
L 335.312706 17.758281 
z
" style="fill:#1f77b4;opacity:0.4;stroke:#ffffff;stroke-linejoin:miter;"/>
    </g>
    <g id="text_7">
     <!-- [0, 0] -->
     <defs>
      <path d="M 8.59375 75.984375 
L 29.296875 75.984375 
L 29.296875 69 
L 17.578125 69 
L 17.578125 -6.203125 
L 29.296875 -6.203125 
L 29.296875 -13.1875 
L 8.59375 -13.1875 
z
" id="DejaVuSans-91"/>
      <path d="M 11.71875 12.40625 
L 22.015625 12.40625 
L 22.015625 4 
L 14.015625 -11.625 
L 7.71875 -11.625 
L 11.71875 4 
z
" id="DejaVuSans-44"/>
      <path id="DejaVuSans-32"/>
      <path d="M 30.421875 75.984375 
L 30.421875 -13.1875 
L 9.71875 -13.1875 
L 9.71875 -6.203125 
L 21.390625 -6.203125 
L 21.390625 69 
L 9.71875 69 
L 9.71875 75.984375 
z
" id="DejaVuSans-93"/>
     </defs>
     <g style="fill:#262626;" transform="translate(366.112706 25.458281)scale(0.11 -0.11)">
      <use xlink:href="#DejaVuSans-91"/>
      <use x="39.013672" xlink:href="#DejaVuSans-48"/>
      <use x="102.636719" xlink:href="#DejaVuSans-44"/>
      <use x="134.423828" xlink:href="#DejaVuSans-32"/>
      <use x="166.210938" xlink:href="#DejaVuSans-48"/>
      <use x="229.833984" xlink:href="#DejaVuSans-93"/>
     </g>
    </g>
    <g id="patch_10">
     <path d="M 335.312706 41.604219 
L 357.312706 41.604219 
L 357.312706 33.904219 
L 335.312706 33.904219 
z
" style="fill:#ff7f0e;opacity:0.4;stroke:#ffffff;stroke-linejoin:miter;"/>
    </g>
    <g id="text_8">
     <!-- [1, 0] -->
     <g style="fill:#262626;" transform="translate(366.112706 41.604219)scale(0.11 -0.11)">
      <use xlink:href="#DejaVuSans-91"/>
      <use x="39.013672" xlink:href="#DejaVuSans-49"/>
      <use x="102.636719" xlink:href="#DejaVuSans-44"/>
      <use x="134.423828" xlink:href="#DejaVuSans-32"/>
      <use x="166.210938" xlink:href="#DejaVuSans-48"/>
      <use x="229.833984" xlink:href="#DejaVuSans-93"/>
     </g>
    </g>
   </g>
  </g>
  <g id="axes_2">
   <g id="patch_11">
    <path d="M 7.2 232.78 
L 405.585519 232.78 
L 405.585519 144.72 
L 7.2 144.72 
z
" style="fill:#eaeaf2;"/>
   </g>
   <g id="matplotlib.axis_2">
    <g id="xtick_6">
     <g id="line2d_8">
      <path clip-path="url(#p42260f6262)" d="M 27.656088 232.78 
L 27.656088 144.72 
" style="fill:none;stroke:#ffffff;stroke-linecap:round;"/>
     </g>
     <g id="text_9">
      <!-- −3.0 -->
      <defs>
       <path d="M 40.578125 39.3125 
Q 47.65625 37.796875 51.625 33 
Q 55.609375 28.21875 55.609375 21.1875 
Q 55.609375 10.40625 48.1875 4.484375 
Q 40.765625 -1.421875 27.09375 -1.421875 
Q 22.515625 -1.421875 17.65625 -0.515625 
Q 12.796875 0.390625 7.625 2.203125 
L 7.625 11.71875 
Q 11.71875 9.328125 16.59375 8.109375 
Q 21.484375 6.890625 26.8125 6.890625 
Q 36.078125 6.890625 40.9375 10.546875 
Q 45.796875 14.203125 45.796875 21.1875 
Q 45.796875 27.640625 41.28125 31.265625 
Q 36.765625 34.90625 28.71875 34.90625 
L 20.21875 34.90625 
L 20.21875 43.015625 
L 29.109375 43.015625 
Q 36.375 43.015625 40.234375 45.921875 
Q 44.09375 48.828125 44.09375 54.296875 
Q 44.09375 59.90625 40.109375 62.90625 
Q 36.140625 65.921875 28.71875 65.921875 
Q 24.65625 65.921875 20.015625 65.03125 
Q 15.375 64.15625 9.8125 62.3125 
L 9.8125 71.09375 
Q 15.4375 72.65625 20.34375 73.4375 
Q 25.25 74.21875 29.59375 74.21875 
Q 40.828125 74.21875 47.359375 69.109375 
Q 53.90625 64.015625 53.90625 55.328125 
Q 53.90625 49.265625 50.4375 45.09375 
Q 46.96875 40.921875 40.578125 39.3125 
z
" id="DejaVuSans-51"/>
       <path d="M 10.6875 12.40625 
L 21 12.40625 
L 21 0 
L 10.6875 0 
z
" id="DejaVuSans-46"/>
      </defs>
      <g style="fill:#262626;" transform="translate(14.300541 250.638281)scale(0.11 -0.11)">
       <use xlink:href="#DejaVuSans-8722"/>
       <use x="83.789062" xlink:href="#DejaVuSans-51"/>
       <use x="147.412109" xlink:href="#DejaVuSans-46"/>
       <use x="179.199219" xlink:href="#DejaVuSans-48"/>
      </g>
     </g>
    </g>
    <g id="xtick_7">
     <g id="line2d_9">
      <path clip-path="url(#p42260f6262)" d="M 101.919849 232.78 
L 101.919849 144.72 
" style="fill:none;stroke:#ffffff;stroke-linecap:round;"/>
     </g>
     <g id="text_10">
      <!-- −2.5 -->
      <defs>
       <path d="M 10.796875 72.90625 
L 49.515625 72.90625 
L 49.515625 64.59375 
L 19.828125 64.59375 
L 19.828125 46.734375 
Q 21.96875 47.46875 24.109375 47.828125 
Q 26.265625 48.1875 28.421875 48.1875 
Q 40.625 48.1875 47.75 41.5 
Q 54.890625 34.8125 54.890625 23.390625 
Q 54.890625 11.625 47.5625 5.09375 
Q 40.234375 -1.421875 26.90625 -1.421875 
Q 22.3125 -1.421875 17.546875 -0.640625 
Q 12.796875 0.140625 7.71875 1.703125 
L 7.71875 11.625 
Q 12.109375 9.234375 16.796875 8.0625 
Q 21.484375 6.890625 26.703125 6.890625 
Q 35.15625 6.890625 40.078125 11.328125 
Q 45.015625 15.765625 45.015625 23.390625 
Q 45.015625 31 40.078125 35.4375 
Q 35.15625 39.890625 26.703125 39.890625 
Q 22.75 39.890625 18.8125 39.015625 
Q 14.890625 38.140625 10.796875 36.28125 
z
" id="DejaVuSans-53"/>
      </defs>
      <g style="fill:#262626;" transform="translate(88.564302 250.638281)scale(0.11 -0.11)">
       <use xlink:href="#DejaVuSans-8722"/>
       <use x="83.789062" xlink:href="#DejaVuSans-50"/>
       <use x="147.412109" xlink:href="#DejaVuSans-46"/>
       <use x="179.199219" xlink:href="#DejaVuSans-53"/>
      </g>
     </g>
    </g>
    <g id="xtick_8">
     <g id="line2d_10">
      <path clip-path="url(#p42260f6262)" d="M 176.183609 232.78 
L 176.183609 144.72 
" style="fill:none;stroke:#ffffff;stroke-linecap:round;"/>
     </g>
     <g id="text_11">
      <!-- −2.0 -->
      <g style="fill:#262626;" transform="translate(162.828062 250.638281)scale(0.11 -0.11)">
       <use xlink:href="#DejaVuSans-8722"/>
       <use x="83.789062" xlink:href="#DejaVuSans-50"/>
       <use x="147.412109" xlink:href="#DejaVuSans-46"/>
       <use x="179.199219" xlink:href="#DejaVuSans-48"/>
      </g>
     </g>
    </g>
    <g id="xtick_9">
     <g id="line2d_11">
      <path clip-path="url(#p42260f6262)" d="M 250.44737 232.78 
L 250.44737 144.72 
" style="fill:none;stroke:#ffffff;stroke-linecap:round;"/>
     </g>
     <g id="text_12">
      <!-- −1.5 -->
      <g style="fill:#262626;" transform="translate(237.091823 250.638281)scale(0.11 -0.11)">
       <use xlink:href="#DejaVuSans-8722"/>
       <use x="83.789062" xlink:href="#DejaVuSans-49"/>
       <use x="147.412109" xlink:href="#DejaVuSans-46"/>
       <use x="179.199219" xlink:href="#DejaVuSans-53"/>
      </g>
     </g>
    </g>
    <g id="xtick_10">
     <g id="line2d_12">
      <path clip-path="url(#p42260f6262)" d="M 324.71113 232.78 
L 324.71113 144.72 
" style="fill:none;stroke:#ffffff;stroke-linecap:round;"/>
     </g>
     <g id="text_13">
      <!-- −1.0 -->
      <g style="fill:#262626;" transform="translate(311.355583 250.638281)scale(0.11 -0.11)">
       <use xlink:href="#DejaVuSans-8722"/>
       <use x="83.789062" xlink:href="#DejaVuSans-49"/>
       <use x="147.412109" xlink:href="#DejaVuSans-46"/>
       <use x="179.199219" xlink:href="#DejaVuSans-48"/>
      </g>
     </g>
    </g>
    <g id="xtick_11">
     <g id="line2d_13">
      <path clip-path="url(#p42260f6262)" d="M 398.974891 232.78 
L 398.974891 144.72 
" style="fill:none;stroke:#ffffff;stroke-linecap:round;"/>
     </g>
     <g id="text_14">
      <!-- −0.5 -->
      <g style="fill:#262626;" transform="translate(385.619344 250.638281)scale(0.11 -0.11)">
       <use xlink:href="#DejaVuSans-8722"/>
       <use x="83.789062" xlink:href="#DejaVuSans-48"/>
       <use x="147.412109" xlink:href="#DejaVuSans-46"/>
       <use x="179.199219" xlink:href="#DejaVuSans-53"/>
      </g>
     </g>
    </g>
    <g id="text_15">
     <!-- Dense_bias -->
     <defs>
      <path d="M 48.6875 27.296875 
Q 48.6875 37.203125 44.609375 42.84375 
Q 40.53125 48.484375 33.40625 48.484375 
Q 26.265625 48.484375 22.1875 42.84375 
Q 18.109375 37.203125 18.109375 27.296875 
Q 18.109375 17.390625 22.1875 11.75 
Q 26.265625 6.109375 33.40625 6.109375 
Q 40.53125 6.109375 44.609375 11.75 
Q 48.6875 17.390625 48.6875 27.296875 
z
M 18.109375 46.390625 
Q 20.953125 51.265625 25.265625 53.625 
Q 29.59375 56 35.59375 56 
Q 45.5625 56 51.78125 48.09375 
Q 58.015625 40.1875 58.015625 27.296875 
Q 58.015625 14.40625 51.78125 6.484375 
Q 45.5625 -1.421875 35.59375 -1.421875 
Q 29.59375 -1.421875 25.265625 0.953125 
Q 20.953125 3.328125 18.109375 8.203125 
L 18.109375 0 
L 9.078125 0 
L 9.078125 75.984375 
L 18.109375 75.984375 
z
" id="DejaVuSans-98"/>
      <path d="M 34.28125 27.484375 
Q 23.390625 27.484375 19.1875 25 
Q 14.984375 22.515625 14.984375 16.5 
Q 14.984375 11.71875 18.140625 8.90625 
Q 21.296875 6.109375 26.703125 6.109375 
Q 34.1875 6.109375 38.703125 11.40625 
Q 43.21875 16.703125 43.21875 25.484375 
L 43.21875 27.484375 
z
M 52.203125 31.203125 
L 52.203125 0 
L 43.21875 0 
L 43.21875 8.296875 
Q 40.140625 3.328125 35.546875 0.953125 
Q 30.953125 -1.421875 24.3125 -1.421875 
Q 15.921875 -1.421875 10.953125 3.296875 
Q 6 8.015625 6 15.921875 
Q 6 25.140625 12.171875 29.828125 
Q 18.359375 34.515625 30.609375 34.515625 
L 43.21875 34.515625 
L 43.21875 35.40625 
Q 43.21875 41.609375 39.140625 45 
Q 35.0625 48.390625 27.6875 48.390625 
Q 23 48.390625 18.546875 47.265625 
Q 14.109375 46.140625 10.015625 43.890625 
L 10.015625 52.203125 
Q 14.9375 54.109375 19.578125 55.046875 
Q 24.21875 56 28.609375 56 
Q 40.484375 56 46.34375 49.84375 
Q 52.203125 43.703125 52.203125 31.203125 
z
" id="DejaVuSans-97"/>
     </defs>
     <g style="fill:#262626;" transform="translate(172.182447 266.044062)scale(0.12 -0.12)">
      <use xlink:href="#DejaVuSans-68"/>
      <use x="77.001953" xlink:href="#DejaVuSans-101"/>
      <use x="138.525391" xlink:href="#DejaVuSans-110"/>
      <use x="201.904297" xlink:href="#DejaVuSans-115"/>
      <use x="254.003906" xlink:href="#DejaVuSans-101"/>
      <use x="315.527344" xlink:href="#DejaVuSans-95"/>
      <use x="365.527344" xlink:href="#DejaVuSans-98"/>
      <use x="429.003906" xlink:href="#DejaVuSans-105"/>
      <use x="456.787109" xlink:href="#DejaVuSans-97"/>
      <use x="518.066406" xlink:href="#DejaVuSans-115"/>
     </g>
    </g>
   </g>
   <g id="patch_12">
    <path clip-path="url(#p42260f6262)" d="M 25.308433 228.777273 
L 25.900198 228.776964 
L 26.491963 228.77691 
L 27.083728 228.776848 
L 27.675494 228.776777 
L 28.267259 228.776695 
L 28.859024 228.776603 
L 29.450789 228.776497 
L 30.042555 228.776378 
L 30.63432 228.776243 
L 31.226085 228.776092 
L 31.817851 228.775922 
L 32.409616 228.775732 
L 33.001381 228.775521 
L 33.593146 228.775286 
L 34.184912 228.775027 
L 34.776677 228.774741 
L 35.368442 228.774118 
L 35.960207 228.773721 
L 36.551973 228.773284 
L 37.143738 228.772806 
L 37.735503 228.772284 
L 38.327268 228.771717 
L 38.919034 228.771101 
L 39.510799 228.770435 
L 40.102564 228.769718 
L 40.694329 228.768948 
L 41.286095 228.768123 
L 41.87786 228.767244 
L 42.469625 228.766309 
L 43.061391 228.765318 
L 43.653156 228.764272 
L 44.244921 228.763171 
L 44.836686 228.762017 
L 45.428452 228.760811 
L 46.020217 228.759555 
L 46.611982 228.758253 
L 47.203747 228.756907 
L 47.795513 228.755521 
L 48.387278 228.7541 
L 48.979043 228.752648 
L 49.570808 228.751172 
L 50.162574 228.749676 
L 50.754339 228.748168 
L 51.346104 228.746653 
L 51.937869 228.74514 
L 52.529635 228.743635 
L 53.1214 228.742147 
L 53.713165 228.740682 
L 54.304931 228.73925 
L 54.896696 228.737858 
L 55.488461 228.736515 
L 56.080226 228.735227 
L 56.671992 228.734004 
L 57.263757 228.732853 
L 57.855522 228.731781 
L 59.039053 228.730795 
L 59.630853 228.729901 
L 60.222619 228.729105 
L 60.814419 228.728412 
L 61.406184 228.727828 
L 61.997985 228.727046 
L 62.58975 228.726635 
L 63.181551 228.726334 
L 63.773316 228.726143 
L 64.365117 228.726061 
L 64.956882 228.726089 
L 65.548683 228.726223 
L 66.140448 228.726461 
L 66.732249 228.726798 
L 67.324014 228.727231 
L 67.915815 228.727754 
L 68.50758 228.728051 
L 69.099345 228.728371 
L 69.691146 228.729007 
L 70.282911 228.729686 
L 70.874712 228.730399 
L 71.466477 228.731134 
L 72.058278 228.73188 
L 72.650043 228.732624 
L 73.241844 228.733355 
L 73.833609 228.733752 
L 74.42541 228.734366 
L 75.017175 228.734922 
L 75.608976 228.735408 
L 76.200741 228.735812 
L 76.792542 228.736121 
L 77.384307 228.736324 
L 77.976072 228.736411 
L 78.567873 228.736063 
L 79.159638 228.735217 
L 79.751439 228.734422 
L 80.343204 228.733706 
L 80.935005 228.731564 
L 81.52677 228.729933 
L 82.118571 228.728317 
L 82.710336 228.726135 
L 83.302137 228.723013 
L 83.893902 228.719134 
L 84.485703 228.71503 
L 85.077468 228.710709 
L 85.669268 228.706186 
L 86.261034 228.701174 
L 86.852834 228.695643 
L 87.4446 228.689876 
L 88.036365 228.68297 
L 88.628166 228.676033 
L 89.219931 228.66728 
L 89.811732 228.658637 
L 90.403497 228.648665 
L 90.995297 228.638768 
L 91.587063 228.627823 
L 92.178863 228.615747 
L 92.770629 228.603025 
L 93.362429 228.589358 
L 93.954195 228.57414 
L 94.545995 228.558464 
L 95.137761 228.541773 
L 95.729561 228.524035 
L 96.321326 228.504293 
L 96.913127 228.482362 
L 97.504892 228.460195 
L 98.096658 228.436086 
L 98.688458 228.410815 
L 99.280224 228.384387 
L 99.872024 228.35527 
L 100.46379 228.32538 
L 101.05559 228.294203 
L 101.647355 228.261139 
L 102.239156 228.226995 
L 102.830921 228.190614 
L 103.422722 228.152547 
L 104.014487 228.112467 
L 104.606288 228.070306 
L 105.198053 228.027539 
L 105.789854 227.982504 
L 106.381619 227.936341 
L 106.973384 227.887617 
L 107.565185 227.837427 
L 108.15695 227.785518 
L 108.748751 227.730052 
L 109.340516 227.673193 
L 109.932317 227.614404 
L 110.524082 227.553978 
L 111.115883 227.491642 
L 111.707648 227.428623 
L 112.299449 227.362343 
L 112.891214 227.295022 
L 113.483015 227.225258 
L 114.07478 227.154798 
L 114.666581 227.07921 
L 115.258346 227.003477 
L 115.850147 226.926054 
L 116.441912 226.846665 
L 117.033677 226.762823 
L 117.625478 226.677482 
L 118.217243 226.590418 
L 118.809044 226.502605 
L 119.400809 226.411177 
L 119.99261 226.31833 
L 120.584375 226.22202 
L 121.176176 226.123251 
L 121.767941 226.023523 
L 122.359742 225.919971 
L 122.951507 225.811401 
L 123.543308 225.699819 
L 124.135073 225.586676 
L 124.726873 225.470289 
L 125.318639 225.350237 
L 125.910439 225.226344 
L 126.502205 225.100581 
L 127.09397 224.970031 
L 127.685771 224.837448 
L 128.277536 224.69894 
L 128.869337 224.556482 
L 129.461102 224.409373 
L 130.052903 224.259533 
L 130.644668 224.104911 
L 131.236468 223.947128 
L 131.828234 223.785016 
L 132.420034 223.617529 
L 133.0118 223.444076 
L 133.6036 223.264294 
L 134.195366 223.081183 
L 134.787166 222.894232 
L 135.378932 222.700708 
L 135.970732 222.498447 
L 136.562497 222.287714 
L 137.154263 222.072515 
L 137.746063 221.852038 
L 138.337829 221.625365 
L 138.929629 221.389597 
L 139.521395 221.147238 
L 140.113195 220.895058 
L 140.704961 220.636773 
L 141.296761 220.372216 
L 141.888526 220.097784 
L 142.480327 219.812068 
L 143.072092 219.519956 
L 143.663893 219.218604 
L 144.255658 218.906879 
L 144.847459 218.581909 
L 145.439224 218.249609 
L 146.03099 217.904739 
L 146.62279 217.554253 
L 147.214555 217.191607 
L 147.806356 216.81884 
L 148.398121 216.433996 
L 148.989922 216.037379 
L 149.581687 215.633884 
L 150.173488 215.216034 
L 150.765253 214.787885 
L 151.357054 214.347534 
L 151.948819 213.899842 
L 152.54062 213.436888 
L 153.132385 212.965062 
L 153.724186 212.480814 
L 154.315951 211.987593 
L 154.907752 211.482706 
L 155.499517 210.96937 
L 156.091282 210.444924 
L 156.683083 209.911569 
L 157.274848 209.367532 
L 157.866649 208.815992 
L 158.458414 208.255509 
L 159.050215 207.68287 
L 159.64198 207.103321 
L 160.233781 206.512705 
L 160.825546 205.916649 
L 161.417347 205.308852 
L 162.009112 204.695039 
L 162.600913 204.072507 
L 163.192678 203.443482 
L 163.784479 202.806591 
L 164.376244 202.161147 
L 164.968044 201.505231 
L 165.55981 200.844745 
L 166.151575 200.174312 
L 166.743376 199.497282 
L 167.335141 198.814422 
L 167.926942 198.121154 
L 168.518707 197.420735 
L 169.110508 196.716073 
L 169.702273 195.999107 
L 170.294073 195.276117 
L 170.885839 194.547356 
L 171.477639 193.809352 
L 172.069405 193.066291 
L 172.661205 192.314032 
L 173.252971 191.559089 
L 173.844771 190.794562 
L 174.436537 190.026687 
L 175.028302 189.25257 
L 175.620103 188.474479 
L 176.211885 187.693813 
L 176.803668 186.906549 
L 177.395451 186.115929 
L 177.987234 185.313492 
L 178.579017 184.511219 
L 179.1708 183.708899 
L 179.762566 182.904193 
L 180.354349 182.098631 
L 180.946132 181.293177 
L 181.537914 180.489062 
L 182.129697 179.682955 
L 182.72148 178.877235 
L 183.313263 178.07756 
L 183.905046 177.281393 
L 184.496829 176.483025 
L 185.088612 175.689875 
L 185.680395 174.899356 
L 186.272178 174.118712 
L 186.863961 173.34002 
L 187.455744 172.571929 
L 188.047527 171.807635 
L 188.63931 171.052948 
L 189.231093 170.308734 
L 189.822858 169.571891 
L 190.414641 168.84117 
L 191.006424 168.121089 
L 191.598207 167.410013 
L 192.18999 166.706212 
L 192.781773 166.011323 
L 193.373556 165.328581 
L 193.965339 164.654303 
L 194.557122 163.99503 
L 195.148905 163.341248 
L 195.740688 162.696927 
L 196.332471 162.059784 
L 196.924254 161.43603 
L 197.516037 160.822676 
L 198.10782 160.224281 
L 198.699603 159.635319 
L 199.291368 159.060531 
L 199.883151 158.501457 
L 200.474934 157.951477 
L 201.066717 157.41671 
L 201.6585 156.892288 
L 202.250283 156.384518 
L 202.842066 155.889922 
L 203.433849 155.408974 
L 204.025632 154.939933 
L 204.617415 154.48495 
L 205.209198 154.046198 
L 205.800981 153.621012 
L 206.392764 153.213282 
L 206.984547 152.82006 
L 207.57633 152.441239 
L 208.168113 152.081116 
L 208.759896 151.742748 
L 209.351661 151.416558 
L 209.943444 151.102386 
L 210.535227 150.810747 
L 211.12701 150.540754 
L 211.718793 150.286753 
L 212.310576 150.051892 
L 212.902359 149.830571 
L 213.494142 149.633795 
L 214.085925 149.455875 
L 214.677708 149.294406 
L 215.269491 149.155671 
L 215.861273 149.035163 
L 216.453056 148.932313 
L 217.044839 148.852853 
L 217.636622 148.792606 
L 218.228405 148.751662 
L 218.820171 148.72912 
L 219.411954 148.722727 
L 220.003737 148.739677 
L 220.59552 148.7722 
L 221.187302 148.829216 
L 221.779085 148.899219 
L 222.370868 148.992553 
L 222.962651 149.103102 
L 223.554434 149.229234 
L 224.146217 149.370771 
L 224.738 149.532137 
L 225.329783 149.715933 
L 225.921566 149.913081 
L 226.513349 150.126282 
L 227.105132 150.354673 
L 227.696915 150.602415 
L 228.28868 150.862774 
L 228.880463 151.143063 
L 229.472246 151.432219 
L 230.064029 151.736877 
L 230.655812 152.057386 
L 231.247595 152.395837 
L 231.839378 152.739274 
L 232.431161 153.099186 
L 233.022944 153.471025 
L 233.614727 153.849151 
L 234.20651 154.247353 
L 234.798293 154.65275 
L 235.390076 155.069546 
L 235.981859 155.49866 
L 236.573642 155.941387 
L 237.165425 156.387776 
L 237.757208 156.847367 
L 238.348973 157.31569 
L 238.940756 157.796661 
L 239.532539 158.282872 
L 240.124322 158.783361 
L 240.716105 159.292373 
L 241.307888 159.811966 
L 241.899671 160.338603 
L 242.491454 160.873477 
L 243.083237 161.420903 
L 243.67502 161.975807 
L 244.266803 162.549392 
L 244.858586 163.131217 
L 245.450369 163.717283 
L 246.042152 164.313872 
L 246.633935 164.922394 
L 247.225718 165.542735 
L 247.817483 166.170436 
L 248.409266 166.81188 
L 249.001049 167.46208 
L 249.592832 168.121229 
L 250.184615 168.789911 
L 250.776398 169.474993 
L 251.368181 170.167809 
L 251.959964 170.87176 
L 252.551747 171.580182 
L 253.14353 172.301268 
L 253.735313 173.029009 
L 254.327096 173.767386 
L 254.918879 174.514251 
L 255.510662 175.266896 
L 256.102444 176.027794 
L 256.694227 176.79783 
L 257.28601 177.572607 
L 257.877776 178.353804 
L 258.469559 179.142509 
L 259.061342 179.93489 
L 259.653125 180.730529 
L 260.244908 181.529719 
L 260.836691 182.327827 
L 261.428473 183.133294 
L 262.020256 183.940272 
L 262.612039 184.74851 
L 263.203822 185.554159 
L 263.795605 186.359002 
L 264.387388 187.157927 
L 264.979171 187.959153 
L 265.570954 188.756687 
L 266.162737 189.547968 
L 266.75452 190.33726 
L 267.346285 191.120196 
L 267.938068 191.902994 
L 268.529851 192.679157 
L 269.121634 193.452428 
L 269.713417 194.216452 
L 270.3052 194.975721 
L 270.896983 195.728987 
L 271.488766 196.475261 
L 272.080549 197.214012 
L 272.672332 197.944825 
L 273.264115 198.667278 
L 273.855898 199.382412 
L 274.447681 200.088271 
L 275.039464 200.782113 
L 275.631247 201.471062 
L 276.22303 202.155821 
L 276.814795 202.8253 
L 277.406578 203.48417 
L 277.998361 204.13388 
L 278.590144 204.774976 
L 279.181927 205.405215 
L 279.77371 206.023501 
L 280.365493 206.631435 
L 280.957276 207.232563 
L 281.549059 207.82033 
L 282.140842 208.3958 
L 282.732625 208.966862 
L 283.324408 209.521544 
L 283.916191 210.066565 
L 284.507974 210.598256 
L 285.099757 211.124829 
L 285.69154 211.641223 
L 286.283323 212.142803 
L 286.875088 212.634945 
L 287.466871 213.11101 
L 288.058654 213.581813 
L 288.650437 214.036884 
L 289.24222 214.481876 
L 289.834003 214.91845 
L 290.425786 215.3447 
L 291.017569 215.756798 
L 291.609352 216.156538 
L 292.201135 216.547222 
L 292.792918 216.930032 
L 293.384701 217.298518 
L 293.976484 217.657029 
L 294.568267 218.0054 
L 295.16005 218.340868 
L 295.751833 218.671405 
L 296.343598 218.988986 
L 296.935381 219.296848 
L 297.527164 219.593713 
L 298.118947 219.88612 
L 298.71073 220.168284 
L 299.302513 220.440105 
L 299.894296 220.707103 
L 300.486079 220.96058 
L 301.077862 221.209475 
L 301.669644 221.447774 
L 302.261427 221.681343 
L 302.85321 221.903734 
L 303.444993 222.124569 
L 304.036776 222.336222 
L 304.628559 222.541448 
L 305.220342 222.739734 
L 305.812125 222.933831 
L 306.403891 223.120856 
L 306.995673 223.301544 
L 307.587456 223.478909 
L 308.179239 223.651815 
L 308.771022 223.820144 
L 309.362805 223.983866 
L 309.954588 224.145294 
L 310.546371 224.300373 
L 311.138154 224.450666 
L 311.729937 224.599613 
L 312.32172 224.74542 
L 312.913503 224.884733 
L 313.505286 225.021805 
L 314.097069 225.155527 
L 314.688852 225.28575 
L 315.280635 225.415235 
L 315.8724 225.540815 
L 316.464183 225.662382 
L 317.055966 225.780147 
L 317.647749 225.894861 
L 318.239532 226.008696 
L 318.831315 226.119291 
L 319.423098 226.228575 
L 320.014881 226.332938 
L 320.606664 226.434822 
L 321.198447 226.533418 
L 321.79023 226.630873 
L 322.382013 226.725638 
L 322.973796 226.81644 
L 323.565579 226.905049 
L 324.157362 226.991392 
L 324.749136 227.075147 
L 325.340919 227.15604 
L 325.932702 227.234106 
L 326.524485 227.30964 
L 327.116268 227.384208 
L 327.708042 227.454944 
L 328.299825 227.523359 
L 328.891608 227.589167 
L 329.483391 227.65187 
L 330.075174 227.711318 
L 330.666957 227.769491 
L 331.25874 227.824141 
L 331.850523 227.876257 
L 332.442306 227.92695 
L 333.03408 227.975337 
L 333.625863 228.020937 
L 334.217646 228.064405 
L 334.809429 228.106309 
L 335.401212 228.145302 
L 335.992995 228.18314 
L 336.584778 228.218439 
L 337.176561 228.251345 
L 337.768335 228.283045 
L 338.360118 228.313509 
L 338.951901 228.342193 
L 339.543684 228.368388 
L 340.135467 228.392552 
L 340.72725 228.415872 
L 341.319033 228.438841 
L 341.910815 228.459 
L 342.50259 228.477946 
L 343.094373 228.496783 
L 343.686156 228.514618 
L 344.277938 228.529915 
L 344.869721 228.544006 
L 345.461504 228.558028 
L 346.053287 228.570595 
L 346.64507 228.582109 
L 347.236844 228.593446 
L 347.828627 228.604303 
L 348.42041 228.614431 
L 349.012193 228.623098 
L 349.603976 228.631527 
L 350.195759 228.639711 
L 350.787542 228.647121 
L 351.379325 228.654103 
L 351.971099 228.660165 
L 352.562882 228.666467 
L 353.154665 228.672684 
L 353.746448 228.678543 
L 354.338231 228.683289 
L 354.929996 228.687857 
L 355.521762 228.69252 
L 356.113527 228.696984 
L 356.705292 228.700999 
L 357.297058 228.705668 
L 357.888823 228.709562 
L 358.480588 228.713047 
L 359.072353 228.716431 
L 359.664119 228.720241 
L 360.255884 228.723346 
L 360.847649 228.726626 
L 361.439414 228.729514 
L 362.03118 228.732317 
L 362.622945 228.735556 
L 363.21471 228.738363 
L 363.806475 228.740786 
L 364.398241 228.743131 
L 364.990006 228.745657 
L 365.581771 228.747795 
L 366.173536 228.749851 
L 366.765302 228.751824 
L 367.357067 228.753709 
L 367.948832 228.755506 
L 368.540598 228.757739 
L 369.132363 228.759277 
L 369.724128 228.760737 
L 370.315893 228.762118 
L 370.907659 228.76342 
L 371.499424 228.764644 
L 372.091189 228.765789 
L 372.682954 228.766858 
L 373.27472 228.767853 
L 373.866485 228.768775 
L 374.45825 228.769889 
L 375.050015 228.770634 
L 375.641781 228.771321 
L 376.233546 228.771951 
L 376.825311 228.772528 
L 377.417076 228.773054 
L 378.008842 228.773532 
L 378.600607 228.773965 
L 379.192372 228.774357 
L 379.784138 228.774709 
L 380.375903 228.775025 
L 380.967668 228.775307 
L 381.559433 228.775559 
L 382.151199 228.775783 
L 382.742964 228.776243 
L 383.334729 228.776378 
L 383.926494 228.776497 
L 384.51826 228.776603 
L 385.110025 228.776695 
L 385.70179 228.776777 
L 386.293555 228.776848 
L 386.885321 228.77691 
L 387.477086 228.776964 
z
" style="fill:#1f77b4;opacity:0.4;stroke:#ffffff;stroke-linejoin:miter;"/>
   </g>
   <g id="patch_13">
    <path clip-path="url(#p42260f6262)" d="M 161.417347 228.777273 
L 161.417347 205.308852 
L 162.009112 204.695039 
L 162.600913 204.072507 
L 163.192678 203.443482 
L 163.784479 202.806591 
L 164.376244 202.161147 
L 164.968044 201.505231 
L 165.55981 200.844745 
L 166.151575 200.174312 
L 166.743376 199.497282 
L 167.335141 198.814422 
L 167.926942 198.121154 
L 168.518707 197.420735 
L 169.110508 196.716073 
L 169.702273 195.999107 
L 170.294073 195.276117 
L 170.885839 194.547356 
L 171.477639 193.809352 
L 172.069405 193.066291 
L 172.661205 192.314032 
L 173.252971 191.559089 
L 173.844771 190.794562 
L 174.436537 190.026687 
L 175.028302 189.25257 
L 175.620103 188.474479 
L 176.211885 187.693813 
L 176.803668 186.906549 
L 177.395451 186.115929 
L 177.987234 185.313492 
L 178.579017 184.511219 
L 179.1708 183.708899 
L 179.762566 182.904193 
L 180.354349 182.098631 
L 180.946132 181.293177 
L 181.537914 180.489062 
L 182.129697 179.682955 
L 182.72148 178.877235 
L 183.313263 178.07756 
L 183.905046 177.281393 
L 184.496829 176.483025 
L 185.088612 175.689875 
L 185.680395 174.899356 
L 186.272178 174.118712 
L 186.863961 173.34002 
L 187.455744 172.571929 
L 188.047527 171.807635 
L 188.63931 171.052948 
L 189.231093 170.308734 
L 189.822858 169.571891 
L 190.414641 168.84117 
L 191.006424 168.121089 
L 191.598207 167.410013 
L 192.18999 166.706212 
L 192.781773 166.011323 
L 193.373556 165.328581 
L 193.965339 164.654303 
L 194.557122 163.99503 
L 195.148905 163.341248 
L 195.740688 162.696927 
L 196.332471 162.059784 
L 196.924254 161.43603 
L 197.516037 160.822676 
L 198.10782 160.224281 
L 198.699603 159.635319 
L 199.291368 159.060531 
L 199.883151 158.501457 
L 200.474934 157.951477 
L 201.066717 157.41671 
L 201.6585 156.892288 
L 202.250283 156.384518 
L 202.842066 155.889922 
L 203.433849 155.408974 
L 204.025632 154.939933 
L 204.617415 154.48495 
L 205.209198 154.046198 
L 205.800981 153.621012 
L 206.392764 153.213282 
L 206.984547 152.82006 
L 207.57633 152.441239 
L 208.168113 152.081116 
L 208.759896 151.742748 
L 209.351661 151.416558 
L 209.943444 151.102386 
L 210.535227 150.810747 
L 211.12701 150.540754 
L 211.718793 150.286753 
L 212.310576 150.051892 
L 212.902359 149.830571 
L 213.494142 149.633795 
L 214.085925 149.455875 
L 214.677708 149.294406 
L 215.269491 149.155671 
L 215.861273 149.035163 
L 216.453056 148.932313 
L 217.044839 148.852853 
L 217.636622 148.792606 
L 218.228405 148.751662 
L 218.820171 148.72912 
L 219.411954 148.722727 
L 220.003737 148.739677 
L 220.59552 148.7722 
L 221.187302 148.829216 
L 221.779085 148.899219 
L 222.370868 148.992553 
L 222.962651 149.103102 
L 223.554434 149.229234 
L 224.146217 149.370771 
L 224.738 149.532137 
L 225.329783 149.715933 
L 225.921566 149.913081 
L 226.513349 150.126282 
L 227.105132 150.354673 
L 227.696915 150.602415 
L 228.28868 150.862774 
L 228.880463 151.143063 
L 229.472246 151.432219 
L 230.064029 151.736877 
L 230.655812 152.057386 
L 231.247595 152.395837 
L 231.839378 152.739274 
L 232.431161 153.099186 
L 233.022944 153.471025 
L 233.614727 153.849151 
L 234.20651 154.247353 
L 234.798293 154.65275 
L 235.390076 155.069546 
L 235.981859 155.49866 
L 236.573642 155.941387 
L 237.165425 156.387776 
L 237.757208 156.847367 
L 238.348973 157.31569 
L 238.940756 157.796661 
L 239.532539 158.282872 
L 240.124322 158.783361 
L 240.716105 159.292373 
L 241.307888 159.811966 
L 241.899671 160.338603 
L 242.491454 160.873477 
L 243.083237 161.420903 
L 243.67502 161.975807 
L 244.266803 162.549392 
L 244.858586 163.131217 
L 245.450369 163.717283 
L 246.042152 164.313872 
L 246.633935 164.922394 
L 247.225718 165.542735 
L 247.817483 166.170436 
L 248.409266 166.81188 
L 249.001049 167.46208 
L 249.592832 168.121229 
L 250.184615 168.789911 
L 250.776398 169.474993 
L 251.368181 170.167809 
L 251.959964 170.87176 
L 252.551747 171.580182 
L 253.14353 172.301268 
L 253.735313 173.029009 
L 254.327096 173.767386 
L 254.918879 174.514251 
L 255.510662 175.266896 
L 256.102444 176.027794 
L 256.694227 176.79783 
L 257.28601 177.572607 
L 257.877776 178.353804 
L 258.469559 179.142509 
L 259.061342 179.93489 
L 259.653125 180.730529 
L 260.244908 181.529719 
L 260.836691 182.327827 
L 261.428473 183.133294 
L 262.020256 183.940272 
L 262.612039 184.74851 
L 263.203822 185.554159 
L 263.795605 186.359002 
L 264.387388 187.157927 
L 264.979171 187.959153 
L 265.570954 188.756687 
L 266.162737 189.547968 
L 266.75452 190.33726 
L 267.346285 191.120196 
L 267.938068 191.902994 
L 268.529851 192.679157 
L 269.121634 193.452428 
L 269.713417 194.216452 
L 270.3052 194.975721 
L 270.896983 195.728987 
L 271.488766 196.475261 
L 272.080549 197.214012 
L 272.672332 197.944825 
L 273.264115 198.667278 
L 273.855898 199.382412 
L 274.447681 200.088271 
L 275.039464 200.782113 
L 275.631247 201.471062 
L 276.22303 202.155821 
L 276.814795 202.8253 
L 277.406578 203.48417 
L 277.406578 228.777273 
z
" style="fill:#1f77b4;opacity:0.4;stroke:#ffffff;stroke-linejoin:miter;"/>
   </g>
   <g id="line2d_14">
    <path clip-path="url(#p42260f6262)" d="M 241.265553 232.78 
L 241.265553 144.72 
" style="fill:none;stroke:#4c72b0;stroke-linecap:round;stroke-width:1.5;"/>
   </g>
   <g id="patch_14">
    <path d="M 7.2 232.78 
L 405.585519 232.78 
" style="fill:none;stroke:#ffffff;stroke-linecap:square;stroke-linejoin:miter;stroke-width:1.25;"/>
   </g>
  </g>
 </g>
 <defs>
  <clipPath id="p1ef60408f1">
   <rect height="88.06" width="398.385519" x="7.2" y="7.2"/>
  </clipPath>
  <clipPath id="p42260f6262">
   <rect height="88.06" width="398.385519" x="7.2" y="144.72"/>
  </clipPath>
 </defs>
</svg>
