<svg height="368.1" viewBox="0 0 419.5 276.1" width="559.4" xmlns="http://www.w3.org/2000/svg" xmlns:xlink="http://www.w3.org/1999/xlink"><defs><style>*{stroke-linecap:butt;stroke-linejoin:round}</style></defs><g id="figure_1"><path d="M0 276h419.5V0H0z" fill="#fff" id="patch_1"/><g id="axes_1"><path d="M7.2 95.3h398.4V7.2H7.2z" fill="#eaeaf2" id="patch_2"/><g id="matplotlib.axis_1"><g id="xtick_1"><path clip-path="url(#p1ef60408f1)" d="M40.3 95.3V7.2" fill="none" stroke="#fff" stroke-linecap="round" id="line2d_1"/><g id="text_1"><defs><path d="M10.6 35.5h62.6v-8.3H10.6z" id="DejaVuSans-8722"/><path d="M19.2 8.3h34.4V0H7.3v8.3l15.3 15.6q9.7 9.8 12.2 12.6 4.7 5.3 6.6 9 2 3.7 2 7.3 0 5.8-4.2 9.5-4 3.6-10.6 3.6-4.6 0-9.8-1.6-5.1-1.6-11-4.9v10q6 2.4 11.1 3.6 5.2 1.2 9.5 1.2 11.4 0 18-5.7 6.8-5.6 6.8-15 0-4.6-1.7-8.6-1.6-4-6-9.5l-7.9-8.2L19.2 8.3z" id="DejaVuSans-50"/></defs><g transform="matrix(.11 0 0 -.11 32.2 113.1)" fill="#262626"><use xlink:href="#DejaVuSans-8722"/><use x="83.8" xlink:href="#DejaVuSans-50"/></g></g></g><g id="xtick_2"><path clip-path="url(#p1ef60408f1)" d="M119.7 95.3V7.2" fill="none" stroke="#fff" stroke-linecap="round" id="line2d_2"/><g id="text_2"><defs><path d="M12.4 8.3h16.1v55.6L11 60.4v9l17.4 3.5h9.9V8.3h16V0H12.5z" id="DejaVuSans-49"/></defs><g transform="matrix(.11 0 0 -.11 111.6 113.1)" fill="#262626"><use xlink:href="#DejaVuSans-8722"/><use x="83.8" xlink:href="#DejaVuSans-49"/></g></g></g><g id="xtick_3"><path clip-path="url(#p1ef60408f1)" d="M199.1 95.3V7.2" fill="none" stroke="#fff" stroke-linecap="round" id="line2d_3"/><g id="text_3"><defs><path d="M31.8 66.4q-7.6 0-11.5-7.5-3.8-7.5-3.8-22.5t3.8-22.5q3.9-7.5 11.5-7.5 7.7 0 11.5 7.5T47 36.4q0 15-3.8 22.5t-11.5 7.5zm0 7.8q12.2 0 18.7-9.7T57 36.4Q57 18 50.5 8.3 44-1.4 31.8-1.4 19.5-1.4 13 8.3q-6.5 9.7-6.5 28 0 18.5 6.5 28.2 6.4 9.7 18.7 9.7z" id="DejaVuSans-48"/></defs><use xlink:href="#DejaVuSans-48" transform="matrix(.11 0 0 -.11 195.6 113.1)" fill="#262626"/></g></g><g id="xtick_4"><path clip-path="url(#p1ef60408f1)" d="M278.6 95.3V7.2" fill="none" stroke="#fff" stroke-linecap="round" id="line2d_4"/><use xlink:href="#DejaVuSans-49" transform="matrix(.11 0 0 -.11 275 113.1)" fill="#262626" id="text_4"/></g><g id="xtick_5"><path clip-path="url(#p1ef60408f1)" d="M358 95.3V7.2" fill="none" stroke="#fff" stroke-linecap="round" id="line2d_5"/><use xlink:href="#DejaVuSans-50" transform="matrix(.11 0 0 -.11 354.5 113.1)" fill="#262626" id="text_5"/></g><g id="text_6"><defs><path d="M19.7 64.8V8.1h11.9q15 0 22 6.8 7 6.9 7 21.6 0 14.7-7 21.5-7 6.8-22 6.8zm-9.9 8.1h20.3q21.2 0 31-8.8 10-8.8 10-27.6T61 8.8Q51.1 0 30.1 0H9.8z" id="DejaVuSans-68"/><path d="M56.2 29.6v-4.4H14.9q.6-9.3 5.6-14.1 5-4.9 14-4.9 5 0 10 1.3 4.8 1.2 9.6 3.8V2.8q-4.8-2-10-3.1-5-1.1-10.2-1.1-13.1 0-20.7 7.6-7.7 7.6-7.7 20.6 0 13.4 7.3 21.3Q20 56 32.3 56q11 0 17.5-7.1 6.4-7.1 6.4-19.3zm-9 2.6q0 7.4-4.1 11.8-4 4.4-10.7 4.4-7.5 0-12-4.3-4.5-4.2-5.2-12z" id="DejaVuSans-101"/><path d="M54.9 33V0h-9v32.7q0 7.8-3 11.6-3 3.9-9.1 3.9-7.3 0-11.5-4.7Q18.1 39 18.1 31V0h-9v54.7h9v-8.5q3.2 5 7.6 7.4Q30.1 56 35.8 56q9.4 0 14.2-5.8Q55 44.3 55 33z" id="DejaVuSans-110"/><path d="M44.3 53v-8.4q-3.8 2-8 2.9-4 1-8.4 1-6.7 0-10-2-3.4-2.1-3.4-6.2 0-3.1 2.4-5 2.4-1.7 9.6-3.3l3-.7q9.7-2 13.7-5.8 4-3.7 4-10.4 0-7.6-6-12-6-4.5-16.6-4.5-4.4 0-9.1.8-4.8.9-10 2.6v9.3q5-2.6 9.7-4 4.9-1.2 9.6-1.2 6.4 0 9.8 2.2 3.4 2.2 3.4 6.1 0 3.7-2.5 5.6-2.4 2-10.8 3.8l-3.1.7q-8.4 1.8-12 5.4-3.8 3.6-3.8 10 0 7.7 5.5 11.9Q16.7 56 26.8 56q5 0 9.4-.7 4.4-.8 8-2.2z" id="DejaVuSans-115"/><path d="M51-16.6v-7H-1v7z" id="DejaVuSans-95"/><path d="M4.2 54.7h9L24.4 12l11.2 42.7h10.6L57.4 12l11.2 42.7h9L63.3 0H52.7L40.9 44.8 29.1 0H18.5z" id="DejaVuSans-119"/><path d="M9.4 54.7h9V0h-9zm0 21.3h9V64.6h-9z" id="DejaVuSans-105"/><path d="M45.4 28q0 9.8-4 15.1-4 5.4-11.3 5.4-7.2 0-11.3-5.4-4-5.4-4-15.1t4-15.1q4-5.4 11.3-5.4 7.3 0 11.3 5.4 4 5.4 4 15zm9-21.2q0-14-6.2-20.8-6.2-6.8-19-6.8-4.7 0-9 .7-4.1.7-8 2.2v8.7q3.9-2.1 7.7-3.1 3.9-1 7.9-1 8.8 0 13.2 4.5 4.4 4.6 4.4 14v4.4q-2.8-4.8-7.1-7.2Q33.9 0 27.9 0q-10 0-16.2 7.7Q5.5 15.3 5.5 28q0 12.7 6.2 20.3Q17.8 56 27.9 56q6 0 10.4-2.4 4.3-2.4 7.1-7.2v8.3h9z" id="DejaVuSans-103"/><path d="M54.9 33V0h-9v32.7q0 7.8-3 11.6-3 3.9-9.1 3.9-7.3 0-11.5-4.7Q18.1 39 18.1 31V0h-9v76h9V46.2q3.2 5 7.6 7.4Q30.1 56 35.8 56q9.4 0 14.2-5.8Q55 44.3 55 33z" id="DejaVuSans-104"/><path d="M18.3 70.2V54.7h18.5v-7H18.3V18q0-6.7 1.8-8.6 1.9-1.9 7.5-1.9h9.2V0h-9.2Q17.2 0 13.2 3.9T9.2 18v29.7H2.8v7h6.6v15.5z" id="DejaVuSans-116"/></defs><g transform="matrix(.12 0 0 -.12 161.1 128.5)" fill="#262626"><use xlink:href="#DejaVuSans-68"/><use x="77" xlink:href="#DejaVuSans-101"/><use x="138.5" xlink:href="#DejaVuSans-110"/><use x="201.9" xlink:href="#DejaVuSans-115"/><use x="254" xlink:href="#DejaVuSans-101"/><use x="315.5" xlink:href="#DejaVuSans-95"/><use x="365.5" xlink:href="#DejaVuSans-119"/><use x="447.3" xlink:href="#DejaVuSans-101"/><use x="508.8" xlink:href="#DejaVuSans-105"/><use x="536.6" xlink:href="#DejaVuSans-103"/><use x="600.1" xlink:href="#DejaVuSans-104"/><use x="663.5" xlink:href="#DejaVuSans-116"/><use x="702.7" xlink:href="#DejaVuSans-115"/></g></g></g><path clip-path="url(#p1ef60408f1)" d="M195.3 91.3H209.7l.3-.1H219.4l.4-.1H223.8l.4-.1h2.5l.3-.1h1.6l.3-.1H229.8l.3-.1h1l.3-.1H232.3l.3-.1h.7l.3-.1h.6l.3-.1h.3l.3-.1h.4l.3-.1h.3l.3-.1h.3l.3-.1.3-.1h.4l.3-.1.3-.1h.3l.3-.2h.3l.3-.1.4-.1.3-.1.3-.1.3-.1.3-.1.3-.1.3-.2h.4l.3-.2.3-.1.3-.2h.3l.3-.2.3-.2.4-.1.3-.2.3-.1.3-.2.3-.2.3-.1.3-.2.4-.2.3-.2.3-.1.3-.2.3-.2.3-.2.3-.2.4-.3.3-.2.3-.2.3-.2.3-.3.3-.2.3-.2.4-.3.3-.3.3-.2.3-.3.3-.3.3-.2.3-.3.4-.3.3-.3.3-.3.3-.4.3-.3.3-.3.3-.4.4-.3.3-.4.3-.4.3-.3.3-.4.3-.4.3-.4.3-.4.4-.4.3-.5.3-.4.3-.4.3-.5.3-.4.3-.5.4-.5.3-.5.3-.5.3-.5.3-.5.3-.5.3-.5.4-.5.3-.6.3-.5.3-.6.3-.5.3-.6.3-.6.4-.5.3-.6.3-.6.3-.6.3-.6.3-.6.3-.6.4-.6.3-.6.3-.6.3-.7.3-.6.3-.6.3-.7.4-.6.3-.7.3-.6.3-.7.3-.6.3-.7.3-.6.4-.7.3-.7.3-.7.3-.6.3-.7.3-.7.3-.7.4-.7.3-.6.3-.7.3-.7.3-.7.3-.7.3-.7.4-.7.3-.6.3-.7.3-.7.3-.7.3-.6.3-.7.4-.7.3-.6.3-.7.3-.6.3-.6.3-.6.3-.7.3-.6.4-.6.3-.6.3-.5.3-.6.3-.6.3-.5.3-.5.4-.6.3-.5.3-.5.3-.5.3-.5.3-.4.3-.5.4-.5.3-.4.3-.4.3-.4.3-.4.3-.4.3-.4.4-.4.3-.4.3-.3.3-.4.3-.3.3-.3.3-.4.4-.3.3-.3.3-.2.3-.3.3-.3.3-.2.3-.3.4-.2.3-.2.3-.2.3-.2.3-.2.3-.2.3-.1.4-.1.3-.2h.3l.3-.2h.3l.3-.1.3-.1h2.6l.3.2h.3l.3.2h.3l.3.2.3.2.3.1.4.2.3.2.3.2.3.2.3.3.3.3.3.2.4.3.3.3.3.3.3.4.3.3.3.4.3.3.4.4.3.4.3.5.3.4.3.4.3.5.3.5.4.5.3.5.3.5.3.5.3.5.3.6.3.5.4.6.3.6.3.6.3.6.3.6.3.6.3.6.4.7.3.6.3.6.3.7.3.6.3.7.3.7.4.6.3.7.3.7.3.7.3.6.3.7.3.7.4.7.3.7.3.6.3.7.3.7.3.7.3.7.4.7.3.7.3.7.3.7.3.6.3.7.3.7.4.7.3.7.3.7.3.6.3.7.3.7.3.7.3.6.4.7.3.7.3.6.3.7.3.6.3.7.3.6.4.6.3.7.3.6.3.6.3.6.3.6.3.6.4.6.3.5.3.6.3.6.3.5.3.6.3.5.4.5.3.5.3.5.3.5.3.5.3.5.3.4.4.5.3.5.3.4.3.4.3.5.3.4.3.4.4.4.3.4.3.4.3.4.3.3.3.4.3.4.4.3.3.4.3.3.3.3.3.3.3.4.3.3.4.3.3.3.3.2.3.3.3.3.3.3.3.2.4.3.3.2.3.3.3.2.3.2.3.2.3.3.3.2.4.2.3.2.3.2.3.1.3.2.3.2.3.2.4.1.3.2.3.2.3.1.3.1.3.2.3.1.4.2.3.1.3.1.3.1.3.2h.3l.3.2.4.1.3.1.3.1.3.1.3.1h.3l.3.2h.4l.3.2h.3l.3.1h.3l.3.2h.3l.4.1h.3l.3.1h.3l.3.1.3.1h.3l.4.1h.3l.3.1h.3l.3.1h.3l.3.1h.7l.3.1h.3l.3.1h.6l.4.1h.6l.3.1h.6l.3.1h1l.3.1H364.2l.3.1h1.3l.3.1h1.6l.3.1H370.2l.3.1H374.3l.3.1H387.5z" fill="#1f77b4" opacity=".4" stroke="#fff" id="patch_3"/><path clip-path="url(#p1ef60408f1)" d="M262.2 91.3v-22l.3-.6.3-.5.3-.6.3-.5.3-.6.3-.6.4-.5.3-.6.3-.6.3-.6.3-.6.3-.6.3-.6.4-.6.3-.6.3-.6.3-.7.3-.6.3-.6.3-.7.4-.6.3-.7.3-.6.3-.7.3-.6.3-.7.3-.6.4-.7.3-.7.3-.7.3-.6.3-.7.3-.7.3-.7.4-.7.3-.6.3-.7.3-.7.3-.7.3-.7.3-.7.4-.7.3-.6.3-.7.3-.7.3-.7.3-.6.3-.7.4-.7.3-.6.3-.7.3-.6.3-.6.3-.6.3-.7.3-.6.4-.6.3-.6.3-.5.3-.6.3-.6.3-.5.3-.5.4-.6.3-.5.3-.5.3-.5.3-.5.3-.4.3-.5.4-.5.3-.4.3-.4.3-.4.3-.4.3-.4.3-.4.4-.4.3-.4.3-.3.3-.4.3-.3.3-.3.3-.4.4-.3.3-.3.3-.2.3-.3.3-.3.3-.2.3-.3.4-.2.3-.2.3-.2.3-.2.3-.2.3-.2.3-.1.4-.1.3-.2h.3l.3-.2h.3l.3-.1.3-.1h2.6l.3.2h.3l.3.2h.3l.3.2.3.2.3.1.4.2.3.2.3.2.3.2.3.3.3.3.3.2.4.3.3.3.3.3.3.4.3.3.3.4.3.3.4.4.3.4.3.5.3.4.3.4.3.5.3.5.4.5.3.5.3.5.3.5.3.5.3.6.3.5.4.6.3.6.3.6.3.6.3.6.3.6.3.6.4.7.3.6.3.6.3.7.3.6.3.7.3.7.4.6.3.7.3.7.3.7.3.6.3.7.3.7.4.7.3.7.3.6.3.7.3.7.3.7.3.7.4.7.3.7.3.7.3.7.3.6.3.7.3.7.4.7.3.7.3.7.3.6.3.7.3.7.3.7.3.6.4.7.3.7.3.6.3.7.3.6.3.7.3.6.4.6.3.7.3.6.3.6.3.6.3.6.3.6.4.6.3.5.3.6.3.6.3.5.3.6v22.2z" fill="#1f77b4" opacity=".4" stroke="#fff" id="patch_4"/><path clip-path="url(#p1ef60408f1)" d="M25.3 91.3H40l.4-.1H47.4l.3-.1H50.8l.3-.1h1.8l.3-.1h1.3l.3-.1H55.7l.3-.1h.6l.3-.1h.6l.3-.1h.4l.3-.1h.3l.3-.1h.3l.3-.1h.3l.3-.1h.3l.3-.1h.3l.3-.2h.3l.3-.1h.4l.3-.2h.3l.3-.1.3-.1.3-.1h.3l.3-.2h.3l.3-.2h.3l.3-.2.3-.1.3-.1.4-.2h.3l.3-.2.3-.1.3-.2.3-.1.3-.1.3-.2.3-.1.3-.2.3-.1.3-.2.3-.1.3-.2.3-.2.4-.2.3-.1.3-.2.3-.2.3-.2.3-.2.3-.2.3-.2.3-.2.3-.2.3-.2.3-.3.3-.2.3-.3.4-.2.3-.3.3-.2.3-.3.3-.3.3-.3.3-.3.3-.3.3-.3.3-.3.3-.3.3-.4.3-.3.3-.4.3-.4.4-.3.3-.4.3-.4.3-.4.3-.5.3-.4.3-.4.3-.5.3-.5.3-.4.3-.5.3-.5.3-.5.3-.6.4-.5.3-.5.3-.6.3-.5.3-.6.3-.6.3-.6.3-.6.3-.6.3-.6.3-.6.3-.6.3-.6.3-.7.4-.6.3-.7.3-.6.3-.7.3-.7.3-.6.3-.7.3-.7.3-.7.3-.7.3-.7.3-.7.3-.7.3-.7.3-.7.4-.7.3-.7.3-.7.3-.7.3-.7.3-.7.3-.8.3-.7.3-.7.3-.7.3-.7.3-.8.3-.7.3-.7.4-.7.3-.8.3-.7.3-.7.3-.7.3-.8.3-.7.3-.7.3-.7.3-.7.3-.7.3-.8.3-.7.3-.7.4-.7.3-.7.3-.6.3-.7.3-.7.3-.7.3-.6.3-.7.3-.7.3-.6.3-.6.3-.7.3-.6.3-.6.3-.6.4-.6.3-.6.3-.6.3-.5.3-.6.3-.5.3-.6.3-.5.3-.5.3-.5.3-.5.3-.4.3-.5.3-.5.4-.4.3-.4.3-.4.3-.4.3-.4.3-.3.3-.3.3-.4.3-.3.3-.3.3-.2.3-.3.3-.2.3-.2.4-.2.3-.2.3-.1.3-.2h.3l.3-.2h.6l.3-.1H118.6l.3.1.3.1.3.1.4.2.3.1.3.2.3.2.3.2.3.3.3.2.3.3.3.3.3.3.3.3.3.4.3.4.3.4.4.4.3.4.3.4.3.5.3.4.3.5.3.5.3.5.3.6.3.5.3.5.3.6.3.6.3.6.4.6.3.6.3.6.3.6.3.6.3.7.3.6.3.7.3.7.3.6.3.7.3.7.3.7.3.7.3.8.4.7.3.7.3.7.3.8.3.7.3.8.3.8.3.7.3.8.3.8.3.7.3.8.3.8.3.8.4.8.3.7.3.8.3.8.3.8.3.8.3.8.3.7.3.8.3.8.3.8.3.7.3.8.3.7.4.8.3.7.3.8.3.7.3.7.3.7.3.7.3.7.3.7.3.7.3.7.3.7.3.6.3.7.3.6.4.6.3.7.3.6.3.6.3.6.3.6.3.6.3.5.3.6.3.6.3.5.3.5.3.6.3.5.4.5.3.5.3.5.3.5.3.5.3.4.3.5.3.4.3.5.3.4.3.4.3.4.3.4.3.4.4.4.3.4.3.3.3.4.3.3.3.4.3.3.3.3.3.3.3.3.3.3.3.3.3.3.3.3.3.3.4.2.3.3.3.2.3.2.3.3.3.2.3.2.3.2.3.2.3.2.3.2.3.2.3.2.3.1.4.2.3.2.3.1.3.2.3.1.3.2.3.1.3.1.3.2h.3l.3.2.3.1.3.1.3.1.4.1.3.2h.3l.3.1.3.1.3.1.3.1h.3l.3.2h.3l.3.1h.3l.3.2h.6l.4.2h.6l.3.1h.3l.3.1h.3l.3.1h.3l.3.1h.3l.3.1h.6l.4.1h.3l.3.1h.6l.3.1H179.4l.3.1h.6l.3.1h1.3l.3.1h1.2l.3.1h1.5l.3.1h2.2l.3.1H191.1l.3.1H196.6l.3.1H213.2z" fill="#ff7f0e" opacity=".4" stroke="#fff" id="patch_5"/><path clip-path="url(#p1ef60408f1)" d="M86.4 91.3V68.5l.3-.6.3-.6.3-.6.3-.6.3-.6.3-.6.3-.7.4-.6.3-.7.3-.6.3-.7.3-.7.3-.6.3-.7.3-.7.3-.7.3-.7.3-.7.3-.7.3-.7.3-.7.3-.7.4-.7.3-.7.3-.7.3-.7.3-.7.3-.7.3-.8.3-.7.3-.7.3-.7.3-.7.3-.8.3-.7.3-.7.4-.7.3-.8.3-.7.3-.7.3-.7.3-.8.3-.7.3-.7.3-.7.3-.7.3-.7.3-.8.3-.7.3-.7.4-.7.3-.7.3-.6.3-.7.3-.7.3-.7.3-.6.3-.7.3-.7.3-.6.3-.6.3-.7.3-.6.3-.6.3-.6.4-.6.3-.6.3-.6.3-.5.3-.6.3-.5.3-.6.3-.5.3-.5.3-.5.3-.5.3-.4.3-.5.3-.5.4-.4.3-.4.3-.4.3-.4.3-.4.3-.3.3-.3.3-.4.3-.3.3-.3.3-.2.3-.3.3-.2.3-.2.4-.2.3-.2.3-.1.3-.2h.3l.3-.2h.6l.3-.1H118.6l.3.1.3.1.3.1.4.2.3.1.3.2.3.2.3.2.3.3.3.2.3.3.3.3.3.3.3.3.3.4.3.4.3.4.4.4.3.4.3.4.3.5.3.4.3.5.3.5.3.5.3.6.3.5.3.5.3.6.3.6.3.6.4.6.3.6.3.6.3.6.3.6.3.7.3.6.3.7.3.7.3.6.3.7.3.7.3.7.3.7.3.8.4.7.3.7.3.7.3.8.3.7.3.8.3.8.3.7.3.8.3.8.3.7.3.8.3.8.3.8.4.8.3.7.3.8.3.8.3.8.3.8.3.8.3.7.3.8.3.8.3.8.3.7.3.8.3.7.4.8.3.7.3.8.3.7.3.7.3.7.3.7.3.7.3.7.3.7.3.7.3.7.3.6.3.7.3.6.4.6.3.7.3.6.3.6.3.6.3.6v23.5z" fill="#ff7f0e" opacity=".4" stroke="#fff" id="patch_6"/><path clip-path="url(#p1ef60408f1)" d="M278.6 95.3V7.2" fill="none" stroke="#4c72b0" stroke-linecap="round" stroke-width="1.5" id="line2d_6"/><path clip-path="url(#p1ef60408f1)" d="M119.7 95.3V7.2" fill="none" stroke="#dd8452" stroke-linecap="round" stroke-width="1.5" id="line2d_7"/><path d="M7.2 95.3h398.4" fill="none" stroke="#fff" stroke-linecap="square" stroke-width="1.3" id="patch_7"/><g id="legend_1"><path d="M333.1 48.3H398q2.2 0 2.2-2.2V14.9q0-2.2-2.2-2.2H333q-2.2 0-2.2 2.2v31.2q0 2.2 2.2 2.2z" fill="#eaeaf2" opacity=".8" stroke="#ccc" id="patch_8"/><path d="M335.3 25.5h22v-7.7h-22z" fill="#1f77b4" opacity=".4" stroke="#fff" id="patch_9"/><g id="text_7"><defs><path d="M8.6 76h20.7v-7H17.6V-6.2h11.7v-7H8.6z" id="DejaVuSans-91"/><path d="M11.7 12.4H22V4l-8-15.6H7.7l4 15.6z" id="DejaVuSans-44"/><path d="M30.4 76v-89.2H9.7v7h11.7V69H9.7v7z" id="DejaVuSans-93"/></defs><g transform="matrix(.11 0 0 -.11 366.1 25.5)" fill="#262626"><use xlink:href="#DejaVuSans-91"/><use x="39" xlink:href="#DejaVuSans-48"/><use x="102.6" xlink:href="#DejaVuSans-44"/><use x="134.4" xlink:href="#DejaVuSans-32"/><use x="166.2" xlink:href="#DejaVuSans-48"/><use x="229.8" xlink:href="#DejaVuSans-93"/></g></g><path d="M335.3 41.6h22v-7.7h-22z" fill="#ff7f0e" opacity=".4" stroke="#fff" id="patch_10"/><g transform="matrix(.11 0 0 -.11 366.1 41.6)" fill="#262626" id="text_8"><use xlink:href="#DejaVuSans-91"/><use x="39" xlink:href="#DejaVuSans-49"/><use x="102.6" xlink:href="#DejaVuSans-44"/><use x="134.4" xlink:href="#DejaVuSans-32"/><use x="166.2" xlink:href="#DejaVuSans-48"/><use x="229.8" xlink:href="#DejaVuSans-93"/></g></g></g><g id="axes_2"><path d="M7.2 232.8h398.4v-88H7.2z" fill="#eaeaf2" id="patch_11"/><g id="matplotlib.axis_2"><g id="xtick_6"><path clip-path="url(#p42260f6262)" d="M27.7 232.8v-88" fill="none" stroke="#fff" stroke-linecap="round" id="line2d_8"/><g id="text_9"><defs><path d="M40.6 39.3q7-1.5 11-6.3t4-11.8q0-10.8-7.4-16.7-7.4-6-21.1-6-4.6 0-9.4 1-4.9.9-10 2.7v9.5q4-2.4 8.9-3.6Q21.5 7 26.8 7q9.3 0 14.1 3.6 4.9 3.7 4.9 10.7 0 6.4-4.5 10Q36.8 35 28.7 35h-8.5V43h9q7.2 0 11 3 3.9 2.8 3.9 8.3 0 5.6-4 8.6t-11.4 3q-4 0-8.7-.9-4.6-.8-10.2-2.7v8.8q5.6 1.6 10.5 2.3 5 .8 9.3.8 11.2 0 17.8-5 6.5-5.2 6.5-13.9 0-6-3.5-10.2-3.4-4.2-9.8-5.8z" id="DejaVuSans-51"/><path d="M10.7 12.4H21V0H10.7z" id="DejaVuSans-46"/></defs><g transform="matrix(.11 0 0 -.11 14.3 250.6)" fill="#262626"><use xlink:href="#DejaVuSans-8722"/><use x="83.8" xlink:href="#DejaVuSans-51"/><use x="147.4" xlink:href="#DejaVuSans-46"/><use x="179.2" xlink:href="#DejaVuSans-48"/></g></g></g><g id="xtick_7"><path clip-path="url(#p42260f6262)" d="M102 232.8v-88" fill="none" stroke="#fff" stroke-linecap="round" id="line2d_9"/><g id="text_10"><defs><path d="M10.8 73h38.7v-8.4H19.8V46.7q2.2.8 4.3 1.1 2.2.4 4.3.4 12.2 0 19.4-6.7 7-6.7 7-18.1 0-11.8-7.2-18.3-7.4-6.5-20.7-6.5-4.6 0-9.4.8-4.7.7-9.8 2.3v10q4.4-2.5 9.1-3.6 4.7-1.2 9.9-1.2 8.5 0 13.4 4.4 5 4.5 5 12 0 7.7-5 12.1Q35 40 26.7 40q-4 0-7.9-.9-4-.9-8-2.7z" id="DejaVuSans-53"/></defs><g transform="matrix(.11 0 0 -.11 88.6 250.6)" fill="#262626"><use xlink:href="#DejaVuSans-8722"/><use x="83.8" xlink:href="#DejaVuSans-50"/><use x="147.4" xlink:href="#DejaVuSans-46"/><use x="179.2" xlink:href="#DejaVuSans-53"/></g></g></g><g id="xtick_8"><path clip-path="url(#p42260f6262)" d="M176.2 232.8v-88" fill="none" stroke="#fff" stroke-linecap="round" id="line2d_10"/><g transform="matrix(.11 0 0 -.11 162.8 250.6)" fill="#262626" id="text_11"><use xlink:href="#DejaVuSans-8722"/><use x="83.8" xlink:href="#DejaVuSans-50"/><use x="147.4" xlink:href="#DejaVuSans-46"/><use x="179.2" xlink:href="#DejaVuSans-48"/></g></g><g id="xtick_9"><path clip-path="url(#p42260f6262)" d="M250.4 232.8v-88" fill="none" stroke="#fff" stroke-linecap="round" id="line2d_11"/><g transform="matrix(.11 0 0 -.11 237 250.6)" fill="#262626" id="text_12"><use xlink:href="#DejaVuSans-8722"/><use x="83.8" xlink:href="#DejaVuSans-49"/><use x="147.4" xlink:href="#DejaVuSans-46"/><use x="179.2" xlink:href="#DejaVuSans-53"/></g></g><g id="xtick_10"><path clip-path="url(#p42260f6262)" d="M324.7 232.8v-88" fill="none" stroke="#fff" stroke-linecap="round" id="line2d_12"/><g transform="matrix(.11 0 0 -.11 311.4 250.6)" fill="#262626" id="text_13"><use xlink:href="#DejaVuSans-8722"/><use x="83.8" xlink:href="#DejaVuSans-49"/><use x="147.4" xlink:href="#DejaVuSans-46"/><use x="179.2" xlink:href="#DejaVuSans-48"/></g></g><g id="xtick_11"><path clip-path="url(#p42260f6262)" d="M399 232.8v-88" fill="none" stroke="#fff" stroke-linecap="round" id="line2d_13"/><g transform="matrix(.11 0 0 -.11 385.6 250.6)" fill="#262626" id="text_14"><use xlink:href="#DejaVuSans-8722"/><use x="83.8" xlink:href="#DejaVuSans-48"/><use x="147.4" xlink:href="#DejaVuSans-46"/><use x="179.2" xlink:href="#DejaVuSans-53"/></g></g><g id="text_15"><defs><path d="M48.7 27.3q0 9.9-4 15.5-4.2 5.7-11.3 5.7-7.1 0-11.2-5.7-4-5.6-4-15.5 0-10 4-15.6t11.2-5.6q7.1 0 11.2 5.7 4 5.6 4 15.5zM18 46.3q2.9 5 7.2 7.3Q29.6 56 35.6 56q10 0 16.2-8Q58 40.3 58 27.4q0-12.9-6.2-20.8-6.2-8-16.2-8-6 0-10.3 2.5Q21 3.3 18 8.2V0h-9v76h9z" id="DejaVuSans-98"/><path d="M34.3 27.5q-11 0-15.1-2.5-4.2-2.5-4.2-8.5 0-4.8 3.1-7.6 3.2-2.8 8.6-2.8 7.5 0 12 5.3t4.5 14v2zm17.9 3.7V0h-9v8.3q-3-5-7.7-7.3Q31-1.4 24.3-1.4 16-1.4 11 3.3 6 8 6 15.9q0 9.2 6.2 14 6.2 4.6 18.4 4.6h12.6v1q0 6.1-4 9.5-4.1 3.4-11.5 3.4-4.7 0-9.2-1.1-4.4-1.2-8.5-3.4v8.3q5 2 9.6 2.8 4.6 1 9 1 11.9 0 17.7-6.2 5.9-6.1 5.9-18.6z" id="DejaVuSans-97"/></defs><g transform="matrix(.12 0 0 -.12 172.2 266)" fill="#262626"><use xlink:href="#DejaVuSans-68"/><use x="77" xlink:href="#DejaVuSans-101"/><use x="138.5" xlink:href="#DejaVuSans-110"/><use x="201.9" xlink:href="#DejaVuSans-115"/><use x="254" xlink:href="#DejaVuSans-101"/><use x="315.5" xlink:href="#DejaVuSans-95"/><use x="365.5" xlink:href="#DejaVuSans-98"/><use x="429" xlink:href="#DejaVuSans-105"/><use x="456.8" xlink:href="#DejaVuSans-97"/><use x="518.1" xlink:href="#DejaVuSans-115"/></g></g></g><path clip-path="url(#p42260f6262)" d="M25.3 228.8H85.7l.6-.1H92.2l.6-.1h2.9l.6-.1h2.4l.6-.1h1.2l.6-.1h1.1l.6-.1h1.2l.6-.1h.6l.6-.1h.6l.6-.1h.6l.6-.1h.5l.6-.1h.6l.6-.1.6-.1h.6l.6-.1.6-.1h.6l.6-.1.6-.1.6-.1h.6l.5-.2h.6l.6-.1.6-.1.6-.1h.6l.6-.2h.6l.6-.2h.6l.6-.2h.6l.5-.2.6-.1.6-.1.6-.1.6-.2.6-.1.6-.1.6-.2.6-.1.6-.1.6-.2.6-.1.5-.2.6-.2.6-.1.6-.2.6-.2.6-.1.6-.2.6-.2.6-.2.6-.2.6-.2.6-.2.5-.2.6-.3.6-.2.6-.3.6-.2.6-.3.6-.2.6-.3.6-.3.6-.3.6-.3.6-.3.5-.3.6-.4.6-.3.6-.3.6-.4.6-.4.6-.4.6-.4.6-.4.6-.4.6-.4.6-.5.5-.4.6-.5.6-.4.6-.5.6-.5.6-.5.6-.5.6-.6.6-.5.6-.5.6-.6.6-.5.6-.6.5-.6.6-.6.6-.6.6-.6.6-.6.6-.6.6-.7.6-.6.6-.6.6-.7.6-.7.6-.6.5-.7.6-.7.6-.7.6-.7.6-.7.6-.7.6-.7.6-.8.6-.7.6-.7.6-.8.6-.7.5-.8.6-.8.6-.7.6-.8.6-.8.6-.8.6-.8.6-.8.6-.8.6-.8.6-.8.6-.8.5-.8.6-.8.6-.8.6-.8.6-.8.6-.8.6-.8.6-.8.6-.8.6-.8.6-.8.6-.7.5-.8.6-.7.6-.8.6-.7.6-.8.6-.7.6-.7.6-.7.6-.7.6-.7.6-.6.6-.7.5-.7.6-.6.6-.6.6-.7.6-.6.6-.6.6-.6.6-.5.6-.6.6-.5.6-.6.6-.5.6-.5.5-.5.6-.5.6-.5.6-.4.6-.5.6-.4.6-.4.6-.4.6-.4.6-.3.6-.4.6-.3.5-.3.6-.3.6-.3.6-.2.6-.2.6-.3.6-.2.6-.1.6-.2.6-.1.6-.2h.6l.5-.1.6-.1h3.6l.6.1h.6l.6.2.6.1.5.2.6.1.6.2.6.2.6.2.6.3.6.2.6.3.6.2.6.3.6.3.6.4.5.3.6.3.6.4.6.4.6.3.6.4.6.5.6.4.6.4.6.4.6.5.6.4.5.5.6.5.6.5.6.5.6.5.6.5.6.5.6.6.6.5.6.6.6.5.6.6.6.6.5.6.6.6.6.6.6.7.6.6.6.7.6.6.6.7.6.7.6.7.6.7.6.7.5.7.6.7.6.8.6.7.6.8.6.7.6.8.6.8.6.8.6.7.6.8.6.8.5.8.6.8.6.8.6.8.6.8.6.9.6.8.6.8.6.8.6.8.6.7.6.8.5.8.6.8.6.8.6.8.6.7.6.8.6.7.6.8.6.7.6.7.6.8.6.7.5.7.6.7.6.7.6.7.6.6.6.7.6.6.6.7.6.6.6.6.6.6.6.6.5.6.6.6.6.6.6.5.6.6.6.5.6.5.6.5.6.5.6.5.6.5.6.5.6.4.5.5.6.4.6.4.6.5.6.4.6.3.6.4.6.4.6.4.6.3.6.3.6.4.5.3.6.3.6.3.6.3.6.3.6.2.6.3.6.3.6.2.6.2.6.3.6.2.5.2.6.2.6.2.6.2.6.2.6.2.6.2.6.2.6.2.6.1.6.2.6.1.5.2.6.2.6.1.6.1.6.2.6.1.6.2h.6l.6.2.6.1.6.2h.6l.5.2.6.1.6.1.6.1.6.1.6.1.6.1.6.1.6.1.6.1.6.1h.6l.5.2h.6l.6.1.6.1h.6l.6.2h1.2l.6.2h1.2l.6.1h.6l.5.1h.6l.6.1h.6l.6.1h1.2l.6.1h1.2l.6.1H340l.6.1H342.5l.6.1h4.1l.6.1H355.5l.6.1H387.5z" fill="#1f77b4" opacity=".4" stroke="#fff" id="patch_12"/><path clip-path="url(#p42260f6262)" d="M161.4 228.8v-23.5l.6-.6.6-.6.6-.7.6-.6.6-.6.6-.7.6-.7.6-.6.5-.7.6-.7.6-.7.6-.7.6-.7.6-.7.6-.7.6-.8.6-.7.6-.7.6-.8.6-.7.5-.8.6-.8.6-.7.6-.8.6-.8.6-.8.6-.8.6-.8.6-.8.6-.8.6-.8.6-.8.5-.8.6-.8.6-.8.6-.8.6-.8.6-.8.6-.8.6-.8.6-.8.6-.8.6-.8.6-.7.5-.8.6-.7.6-.8.6-.7.6-.8.6-.7.6-.7.6-.7.6-.7.6-.7.6-.6.6-.7.5-.7.6-.6.6-.6.6-.7.6-.6.6-.6.6-.6.6-.5.6-.6.6-.5.6-.6.6-.5.6-.5.5-.5.6-.5.6-.5.6-.4.6-.5.6-.4.6-.4.6-.4.6-.4.6-.3.6-.4.6-.3.5-.3.6-.3.6-.3.6-.2.6-.2.6-.3.6-.2.6-.1.6-.2.6-.1.6-.2h.6l.5-.1.6-.1h3.6l.6.1h.6l.6.2.6.1.5.2.6.1.6.2.6.2.6.2.6.3.6.2.6.3.6.2.6.3.6.3.6.4.5.3.6.3.6.4.6.4.6.3.6.4.6.5.6.4.6.4.6.4.6.5.6.4.5.5.6.5.6.5.6.5.6.5.6.5.6.5.6.6.6.5.6.6.6.5.6.6.6.6.5.6.6.6.6.6.6.7.6.6.6.7.6.6.6.7.6.7.6.7.6.7.6.7.5.7.6.7.6.8.6.7.6.8.6.7.6.8.6.8.6.8.6.7.6.8.6.8.5.8.6.8.6.8.6.8.6.8.6.9.6.8.6.8.6.8.6.8.6.7.6.8.5.8.6.8.6.8.6.8.6.7.6.8.6.7.6.8.6.7.6.7.6.8.6.7.5.7.6.7.6.7.6.7.6.6.6.7v25.3z" fill="#1f77b4" opacity=".4" stroke="#fff" id="patch_13"/><path clip-path="url(#p42260f6262)" d="M241.3 232.8v-88" fill="none" stroke="#4c72b0" stroke-linecap="round" stroke-width="1.5" id="line2d_14"/><path d="M7.2 232.8h398.4" fill="none" stroke="#fff" stroke-linecap="square" stroke-width="1.3" id="patch_14"/></g></g><defs><clipPath id="p1ef60408f1"><path d="M7.2 7.2h398.4v88.1H7.2z"/></clipPath><clipPath id="p42260f6262"><path d="M7.2 144.7h398.4v88.1H7.2z"/></clipPath></defs></svg>