<svg height="646.7" viewBox="0 0 417.6 485" width="556.8" xmlns="http://www.w3.org/2000/svg" xmlns:xlink="http://www.w3.org/1999/xlink"><defs><style>*{stroke-linecap:butt;stroke-linejoin:round}</style></defs><g id="figure_1"><path d="M0 485h417.6V0H0z" fill="#fff" id="patch_1"/><g id="axes_1"><path d="M53.3 442h357.1V7.3h-357z" fill="#eaeaf2" id="patch_2"/><g id="matplotlib.axis_1"><g id="xtick_1"><path clip-path="url(#p23f52fa196)" d="M68 442V7.3" fill="none" stroke="#fff" stroke-linecap="round" id="line2d_1"/><g id="text_1"><defs><path d="M31.8 66.4q-7.6 0-11.5-7.5-3.8-7.5-3.8-22.5t3.8-22.5q3.9-7.5 11.5-7.5 7.7 0 11.5 7.5T47 36.4q0 15-3.8 22.5t-11.5 7.5zm0 7.8q12.2 0 18.7-9.7T57 36.4Q57 18 50.5 8.3 44-1.4 31.8-1.4 19.5-1.4 13 8.3q-6.5 9.7-6.5 28 0 18.5 6.5 28.2 6.4 9.7 18.7 9.7z" id="DejaVuSans-48"/></defs><use xlink:href="#DejaVuSans-48" transform="matrix(.11 0 0 -.11 64.5 460)" fill="#262626"/></g></g><g id="xtick_2"><path clip-path="url(#p23f52fa196)" d="M133.3 442V7.3" fill="none" stroke="#fff" stroke-linecap="round" id="line2d_2"/><g id="text_2"><defs><path d="M19.2 8.3h34.4V0H7.3v8.3l15.3 15.6q9.7 9.8 12.2 12.6 4.7 5.3 6.6 9 2 3.7 2 7.3 0 5.8-4.2 9.5-4 3.6-10.6 3.6-4.6 0-9.8-1.6-5.1-1.6-11-4.9v10q6 2.4 11.1 3.6 5.2 1.2 9.5 1.2 11.4 0 18-5.7 6.8-5.6 6.8-15 0-4.6-1.7-8.6-1.6-4-6-9.5l-7.9-8.2L19.2 8.3z" id="DejaVuSans-50"/></defs><use xlink:href="#DejaVuSans-50" transform="matrix(.11 0 0 -.11 129.8 460)" fill="#262626"/></g></g><g id="xtick_3"><path clip-path="url(#p23f52fa196)" d="M198.5 442V7.3" fill="none" stroke="#fff" stroke-linecap="round" id="line2d_3"/><g id="text_3"><defs><path d="M37.8 64.3l-25-39h25zM35.2 73h12.4V25.4H58v-8.2H47.6V0h-9.8v17.2h-33v9.5z" id="DejaVuSans-52"/></defs><use xlink:href="#DejaVuSans-52" transform="matrix(.11 0 0 -.11 195 460)" fill="#262626"/></g></g><g id="xtick_4"><path clip-path="url(#p23f52fa196)" d="M263.7 442V7.3" fill="none" stroke="#fff" stroke-linecap="round" id="line2d_4"/><g id="text_4"><defs><path d="M33 40.4q-6.6 0-10.5-4.6-3.9-4.5-3.9-12.4T22.5 11Q26.4 6.4 33 6.4q6.7 0 10.5 4.6 4 4.5 4 12.4t-4 12.4q-3.8 4.6-10.5 4.6zm19.6 30.9v-9Q48.9 64.1 45 65q-3.8 1-7.5 1-9.8 0-15-6.7-5-6.6-5.8-19.9 2.9 4.3 7.2 6.5 4.4 2.3 9.6 2.3 11 0 17.4-6.7 6.3-6.6 6.3-18.1 0-11.2-6.6-18Q44-1.4 33-1.4q-12.6 0-19.3 9.7Q7 18 7 36.3 7 53.8 15.2 64q8.2 10.3 22 10.3 3.7 0 7.5-.7 3.8-.8 7.9-2.2z" id="DejaVuSans-54"/></defs><use xlink:href="#DejaVuSans-54" transform="matrix(.11 0 0 -.11 260.2 460)" fill="#262626"/></g></g><g id="xtick_5"><path clip-path="url(#p23f52fa196)" d="M329 442V7.3" fill="none" stroke="#fff" stroke-linecap="round" id="line2d_5"/><g id="text_5"><defs><path d="M31.8 34.6q-7 0-11-3.7-4.1-3.8-4.1-10.4 0-6.6 4-10.3 4-3.8 11-3.8 7.1 0 11.2 3.8 4 3.8 4 10.3 0 6.6-4 10.4-4 3.7-11.1 3.7zm-9.9 4.2q-6.3 1.6-9.9 6Q8.5 49 8.5 55.2q0 8.8 6.2 13.8 6.3 5.1 17 5.1 11 0 17.2-5Q55 64 55 55.2q0-6.2-3.6-10.6-3.5-4.3-9.8-5.9 7.1-1.6 11.1-6.5 4-4.8 4-11.8 0-10.6-6.5-16.3-6.5-5.6-18.5-5.6T13.2 4.2Q6.8 10 6.8 20.5q0 7 4 11.8 4 4.9 11.1 6.5zm-3.6 15.6q0-5.7 3.5-8.8 3.6-3.2 10-3.2 6.3 0 10 3.2 3.5 3.1 3.5 8.8 0 5.7-3.6 8.8-3.6 3.2-10 3.2-6.3 0-9.9-3.2-3.5-3.1-3.5-8.8z" id="DejaVuSans-56"/></defs><use xlink:href="#DejaVuSans-56" transform="matrix(.11 0 0 -.11 325.5 460)" fill="#262626"/></g></g><g id="xtick_6"><path clip-path="url(#p23f52fa196)" d="M394.2 442V7.3" fill="none" stroke="#fff" stroke-linecap="round" id="line2d_6"/><g id="text_6"><defs><path d="M12.4 8.3h16.1v55.6L11 60.4v9l17.4 3.5h9.9V8.3h16V0H12.5z" id="DejaVuSans-49"/></defs><g transform="matrix(.11 0 0 -.11 387.2 460)" fill="#262626"><use xlink:href="#DejaVuSans-49"/><use x="63.6" xlink:href="#DejaVuSans-48"/></g></g></g><g id="text_7"><defs><path d="M-.3 73h61.7v-8.4H35.5V0h-10v64.6H-.2z" id="DejaVuSans-84"/><path d="M9.4 54.7h9V0h-9zm0 21.3h9V64.6h-9z" id="DejaVuSans-105"/><path d="M52 44.2q3.4 6 8 9Q64.9 56 71 56q8.6 0 13.3-6 4.6-6 4.6-17V0h-9v32.7q0 7.9-2.8 11.7-2.8 3.8-8.5 3.8-7 0-11-4.7-4-4.6-4-12.6V0h-9.1v32.7q0 8-2.8 11.7-2.8 3.8-8.6 3.8-6.9 0-11-4.7-4-4.6-4-12.6V0h-9v54.7h9v-8.5q3 5 7.4 7.4Q29.8 56 35.7 56q6 0 10.1-3 4.2-3 6.2-8.8z" id="DejaVuSans-109"/><path d="M56.2 29.6v-4.4H14.9q.6-9.3 5.6-14.1 5-4.9 14-4.9 5 0 10 1.3 4.8 1.2 9.6 3.8V2.8q-4.8-2-10-3.1-5-1.1-10.2-1.1-13.1 0-20.7 7.6-7.7 7.6-7.7 20.6 0 13.4 7.3 21.3Q20 56 32.3 56q11 0 17.5-7.1 6.4-7.1 6.4-19.3zm-9 2.6q0 7.4-4.1 11.8-4 4.4-10.7 4.4-7.5 0-12-4.3-4.5-4.2-5.2-12z" id="DejaVuSans-101"/></defs><g transform="matrix(.12 0 0 -.12 217 475.3)" fill="#262626"><use xlink:href="#DejaVuSans-84"/><use x="61" xlink:href="#DejaVuSans-105"/><use x="88.8" xlink:href="#DejaVuSans-109"/><use x="186.2" xlink:href="#DejaVuSans-101"/></g></g></g><g id="matplotlib.axis_2"><g id="ytick_1"><path clip-path="url(#p23f52fa196)" d="M53.3 438.5h357.1" fill="none" stroke="#fff" stroke-linecap="round" id="line2d_7"/><use xlink:href="#DejaVuSans-48" transform="matrix(.11 0 0 -.11 36.8 442.7)" fill="#262626" id="text_8"/></g><g id="ytick_2"><path clip-path="url(#p23f52fa196)" d="M53.3 367.8h357.1" fill="none" stroke="#fff" stroke-linecap="round" id="line2d_8"/><g transform="matrix(.11 0 0 -.11 29.8 372)" fill="#262626" id="text_9"><use xlink:href="#DejaVuSans-50"/><use x="63.6" xlink:href="#DejaVuSans-48"/></g></g><g id="ytick_3"><path clip-path="url(#p23f52fa196)" d="M53.3 297.1h357.1" fill="none" stroke="#fff" stroke-linecap="round" id="line2d_9"/><g transform="matrix(.11 0 0 -.11 29.8 301.3)" fill="#262626" id="text_10"><use xlink:href="#DejaVuSans-52"/><use x="63.6" xlink:href="#DejaVuSans-48"/></g></g><g id="ytick_4"><path clip-path="url(#p23f52fa196)" d="M53.3 226.4h357.1" fill="none" stroke="#fff" stroke-linecap="round" id="line2d_10"/><g transform="matrix(.11 0 0 -.11 29.8 230.6)" fill="#262626" id="text_11"><use xlink:href="#DejaVuSans-54"/><use x="63.6" xlink:href="#DejaVuSans-48"/></g></g><g id="ytick_5"><path clip-path="url(#p23f52fa196)" d="M53.3 155.7h357.1" fill="none" stroke="#fff" stroke-linecap="round" id="line2d_11"/><g transform="matrix(.11 0 0 -.11 29.8 159.9)" fill="#262626" id="text_12"><use xlink:href="#DejaVuSans-56"/><use x="63.6" xlink:href="#DejaVuSans-48"/></g></g><g id="ytick_6"><path clip-path="url(#p23f52fa196)" d="M53.3 85h357.1" fill="none" stroke="#fff" stroke-linecap="round" id="line2d_12"/><g transform="matrix(.11 0 0 -.11 22.8 89.2)" fill="#262626" id="text_13"><use xlink:href="#DejaVuSans-49"/><use x="63.6" xlink:href="#DejaVuSans-48"/><use x="127.2" xlink:href="#DejaVuSans-48"/></g></g><g id="ytick_7"><path clip-path="url(#p23f52fa196)" d="M53.3 14.3h357.1" fill="none" stroke="#fff" stroke-linecap="round" id="line2d_13"/><g transform="matrix(.11 0 0 -.11 22.8 18.5)" fill="#262626" id="text_14"><use xlink:href="#DejaVuSans-49"/><use x="63.6" xlink:href="#DejaVuSans-50"/><use x="127.2" xlink:href="#DejaVuSans-48"/></g></g><g id="text_15"><defs><path d="M64.4 67.3V56.9q-5 4.6-10.6 7Q48 66 41.8 66q-12.5 0-19.1-7.6Q16 50.8 16 36.4q0-14.4 6.7-22 6.6-7.7 19.1-7.7 6.3 0 12 2.3 5.6 2.3 10.6 7V5.5q-5.2-3.5-11-5.3-5.7-1.7-12.2-1.7-16.5 0-26 10.1-9.6 10.1-9.6 27.7T15.1 64q9.6 10.1 26.1 10.1 6.5 0 12.3-1.7 5.8-1.8 11-5.2z" id="DejaVuSans-67"/><path d="M8.5 21.6v33h9V22q0-7.7 3-11.6 3-4 9-4 7.4 0 11.6 4.7 4.2 4.7 4.2 12.7v31h9V0h-9v8.4Q42 3.4 37.7 1q-4.3-2.4-10-2.4-9.4 0-14.3 5.8-4.9 5.9-4.9 17.2zM31.1 56z" id="DejaVuSans-117"/><path d="M44.3 53v-8.4q-3.8 2-8 2.9-4 1-8.4 1-6.7 0-10-2-3.4-2.1-3.4-6.2 0-3.1 2.4-5 2.4-1.7 9.6-3.3l3-.7q9.7-2 13.7-5.8 4-3.7 4-10.4 0-7.6-6-12-6-4.5-16.6-4.5-4.4 0-9.1.8-4.8.9-10 2.6v9.3q5-2.6 9.7-4 4.9-1.2 9.6-1.2 6.4 0 9.8 2.2 3.4 2.2 3.4 6.1 0 3.7-2.5 5.6-2.4 2-10.8 3.8l-3.1.7q-8.4 1.8-12 5.4-3.8 3.6-3.8 10 0 7.7 5.5 11.9Q16.7 56 26.8 56q5 0 9.4-.7 4.4-.8 8-2.2z" id="DejaVuSans-115"/><path d="M18.3 70.2V54.7h18.5v-7H18.3V18q0-6.7 1.8-8.6 1.9-1.9 7.5-1.9h9.2V0h-9.2Q17.2 0 13.2 3.9T9.2 18v29.7H2.8v7h6.6v15.5z" id="DejaVuSans-116"/><path d="M30.6 48.4q-7.2 0-11.4-5.6Q15 37 15 27.3t4.2-15.5q4.1-5.6 11.4-5.6 7.2 0 11.4 5.7 4.2 5.6 4.2 15.4 0 9.7-4.2 15.4-4.2 5.7-11.4 5.7zm0 7.6q11.7 0 18.4-7.6 6.7-7.6 6.7-21.1 0-13.4-6.7-21-6.7-7.7-18.4-7.7-11.8 0-18.4 7.6Q5.5 14 5.5 27.3q0 13.5 6.7 21Q18.8 56 30.6 56z" id="DejaVuSans-111"/><path d="M41.1 46.3q-1.5.9-3.3 1.3-1.8.4-4 .4-7.5 0-11.6-5-4-5-4-14.2V0H9v54.7h9v-8.5q2.9 5 7.4 7.4Q30 56 36.5 56l2-.1 2.6-.4z" id="DejaVuSans-114"/><path d="M9.8 73h9.9V0H9.8z" id="DejaVuSans-73"/><path d="M19.7 64.8V8.1h11.9q15 0 22 6.8 7 6.9 7 21.6 0 14.7-7 21.5-7 6.8-22 6.8zm-9.9 8.1h20.3q21.2 0 31-8.8 10-8.8 10-27.6T61 8.8Q51.1 0 30.1 0H9.8z" id="DejaVuSans-68"/></defs><g transform="matrix(0 -.12 -.12 0 16.3 262)" fill="#262626"><use xlink:href="#DejaVuSans-67"/><use x="69.8" xlink:href="#DejaVuSans-117"/><use x="133.2" xlink:href="#DejaVuSans-115"/><use x="185.3" xlink:href="#DejaVuSans-116"/><use x="224.5" xlink:href="#DejaVuSans-111"/><use x="285.7" xlink:href="#DejaVuSans-109"/><use x="383.1" xlink:href="#DejaVuSans-101"/><use x="444.6" xlink:href="#DejaVuSans-114"/><use x="485.7" xlink:href="#DejaVuSans-32"/><use x="517.5" xlink:href="#DejaVuSans-73"/><use x="547" xlink:href="#DejaVuSans-68"/></g></g></g><path clip-path="url(#p23f52fa196)" d="M319 438.5h4" fill="none" stroke="#55a868" stroke-linecap="round" stroke-width="1.5" id="line2d_14"/><path clip-path="url(#p23f52fa196)" d="M241.1 431.5H327" fill="none" stroke="#55a868" stroke-linecap="round" stroke-width="1.5" id="line2d_15"/><path clip-path="url(#p23f52fa196)" d="M98.6 428h50" fill="none" stroke="#55a868" stroke-linecap="round" stroke-width="1.5" id="line2d_16"/><path clip-path="url(#p23f52fa196)" d="M75.5 424.4h34.9" fill="none" stroke="#55a868" stroke-linecap="round" stroke-width="1.5" id="line2d_17"/><path clip-path="url(#p23f52fa196)" d="M206.7 420.9h173.6" fill="none" stroke="#55a868" stroke-linecap="round" stroke-width="1.5" id="line2d_18"/><path clip-path="url(#p23f52fa196)" d="M77.6 417.3h101.5" fill="none" stroke="#55a868" stroke-linecap="round" stroke-width="1.5" id="line2d_19"/><path clip-path="url(#p23f52fa196)" d="M382.6 413.8h1.5" fill="none" stroke="#55a868" stroke-linecap="round" stroke-width="1.5" id="line2d_20"/><path clip-path="url(#p23f52fa196)" d="M153 406.7h1.3" fill="none" stroke="#55a868" stroke-linecap="round" stroke-width="1.5" id="line2d_21"/><path clip-path="url(#p23f52fa196)" d="M166.2 396.1h55.1" fill="none" stroke="#55a868" stroke-linecap="round" stroke-width="1.5" id="line2d_22"/><path clip-path="url(#p23f52fa196)" d="M168 392.6h124.7" fill="none" stroke="#55a868" stroke-linecap="round" stroke-width="1.5" id="line2d_23"/><path clip-path="url(#p23f52fa196)" d="M301.3 382h17.2" fill="none" stroke="#55a868" stroke-linecap="round" stroke-width="1.5" id="line2d_24"/><path clip-path="url(#p23f52fa196)" d="M353.4 378.4h26.3" fill="none" stroke="#55a868" stroke-linecap="round" stroke-width="1.5" id="line2d_25"/><path clip-path="url(#p23f52fa196)" d="M294 374.9h52" fill="none" stroke="#55a868" stroke-linecap="round" stroke-width="1.5" id="line2d_26"/><path clip-path="url(#p23f52fa196)" d="M128.6 364.3h41.8" fill="none" stroke="#55a868" stroke-linecap="round" stroke-width="1.5" id="line2d_27"/><path clip-path="url(#p23f52fa196)" d="M234.8 360.8h54.4" fill="none" stroke="#55a868" stroke-linecap="round" stroke-width="1.5" id="line2d_28"/><path clip-path="url(#p23f52fa196)" d="M119.3 357.2h23.3" fill="none" stroke="#55a868" stroke-linecap="round" stroke-width="1.5" id="line2d_29"/><path clip-path="url(#p23f52fa196)" d="M168.8 353.7h53" fill="none" stroke="#55a868" stroke-linecap="round" stroke-width="1.5" id="line2d_30"/><path clip-path="url(#p23f52fa196)" d="M170.8 346.6h2.1" fill="none" stroke="#55a868" stroke-linecap="round" stroke-width="1.5" id="line2d_31"/><path clip-path="url(#p23f52fa196)" d="M125.3 339.5H306" fill="none" stroke="#55a868" stroke-linecap="round" stroke-width="1.5" id="line2d_32"/><path clip-path="url(#p23f52fa196)" d="M262.8 332.5h130.6" fill="none" stroke="#55a868" stroke-linecap="round" stroke-width="1.5" id="line2d_33"/><path clip-path="url(#p23f52fa196)" d="M196 329h.5" fill="none" stroke="#55a868" stroke-linecap="round" stroke-width="1.5" id="line2d_34"/><path clip-path="url(#p23f52fa196)" d="M127.9 321.9h96.2" fill="none" stroke="#55a868" stroke-linecap="round" stroke-width="1.5" id="line2d_35"/><path clip-path="url(#p23f52fa196)" d="M284.6 318.3h5.7" fill="none" stroke="#55a868" stroke-linecap="round" stroke-width="1.5" id="line2d_36"/><path clip-path="url(#p23f52fa196)" d="M272.3 314.8h5.6" fill="none" stroke="#55a868" stroke-linecap="round" stroke-width="1.5" id="line2d_37"/><path clip-path="url(#p23f52fa196)" d="M244.4 307.7h1.9" fill="none" stroke="#55a868" stroke-linecap="round" stroke-width="1.5" id="line2d_38"/><path clip-path="url(#p23f52fa196)" d="M159.1 290h16.2" fill="none" stroke="#55a868" stroke-linecap="round" stroke-width="1.5" id="line2d_39"/><path clip-path="url(#p23f52fa196)" d="M135.9 276h25.7" fill="none" stroke="#55a868" stroke-linecap="round" stroke-width="1.5" id="line2d_40"/><path clip-path="url(#p23f52fa196)" d="M172.6 258.2h195.7" fill="none" stroke="#55a868" stroke-linecap="round" stroke-width="1.5" id="line2d_41"/><path clip-path="url(#p23f52fa196)" d="M220.7 233.5h16" fill="none" stroke="#55a868" stroke-linecap="round" stroke-width="1.5" id="line2d_42"/><path clip-path="url(#p23f52fa196)" d="M214.5 230h168.6" fill="none" stroke="#55a868" stroke-linecap="round" stroke-width="1.5" id="line2d_43"/><path clip-path="url(#p23f52fa196)" d="M214 226.4h172.5" fill="none" stroke="#55a868" stroke-linecap="round" stroke-width="1.5" id="line2d_44"/><path clip-path="url(#p23f52fa196)" d="M250 222.9h18.6" fill="none" stroke="#55a868" stroke-linecap="round" stroke-width="1.5" id="line2d_45"/><path clip-path="url(#p23f52fa196)" d="M293.3 215.8h33.2" fill="none" stroke="#55a868" stroke-linecap="round" stroke-width="1.5" id="line2d_46"/><path clip-path="url(#p23f52fa196)" d="M79.5 212.3h4.1" fill="none" stroke="#55a868" stroke-linecap="round" stroke-width="1.5" id="line2d_47"/><path clip-path="url(#p23f52fa196)" d="M305.3 194.6h13.5" fill="none" stroke="#55a868" stroke-linecap="round" stroke-width="1.5" id="line2d_48"/><path clip-path="url(#p23f52fa196)" d="M296.5 191h27.2" fill="none" stroke="#55a868" stroke-linecap="round" stroke-width="1.5" id="line2d_49"/><path clip-path="url(#p23f52fa196)" d="M295.7 177h37" fill="none" stroke="#55a868" stroke-linecap="round" stroke-width="1.5" id="line2d_50"/><path clip-path="url(#p23f52fa196)" d="M244.8 173.4h3.3" fill="none" stroke="#55a868" stroke-linecap="round" stroke-width="1.5" id="line2d_51"/><path clip-path="url(#p23f52fa196)" d="M301.9 162.8h65" fill="none" stroke="#55a868" stroke-linecap="round" stroke-width="1.5" id="line2d_52"/><path clip-path="url(#p23f52fa196)" d="M213.6 152.2h14" fill="none" stroke="#55a868" stroke-linecap="round" stroke-width="1.5" id="line2d_53"/><path clip-path="url(#p23f52fa196)" d="M249.2 131h82.2" fill="none" stroke="#55a868" stroke-linecap="round" stroke-width="1.5" id="line2d_54"/><path clip-path="url(#p23f52fa196)" d="M184.8 127.4h3.8" fill="none" stroke="#55a868" stroke-linecap="round" stroke-width="1.5" id="line2d_55"/><path clip-path="url(#p23f52fa196)" d="M121.6 123.9h63.6" fill="none" stroke="#55a868" stroke-linecap="round" stroke-width="1.5" id="line2d_56"/><path clip-path="url(#p23f52fa196)" d="M344.5 116.8h12.1" fill="none" stroke="#55a868" stroke-linecap="round" stroke-width="1.5" id="line2d_57"/><path clip-path="url(#p23f52fa196)" d="M150.3 106.2h39.5" fill="none" stroke="#55a868" stroke-linecap="round" stroke-width="1.5" id="line2d_58"/><path clip-path="url(#p23f52fa196)" d="M79 102.7h125.8" fill="none" stroke="#55a868" stroke-linecap="round" stroke-width="1.5" id="line2d_59"/><path clip-path="url(#p23f52fa196)" d="M80.4 95.6h18.9" fill="none" stroke="#55a868" stroke-linecap="round" stroke-width="1.5" id="line2d_60"/><path clip-path="url(#p23f52fa196)" d="M247.4 435h146.8" fill="none" stroke="#c44e52" stroke-linecap="round" stroke-width="1.5" id="line2d_61"/><path clip-path="url(#p23f52fa196)" d="M289.9 410.3h104.3" fill="none" stroke="#c44e52" stroke-linecap="round" stroke-width="1.5" id="line2d_62"/><path clip-path="url(#p23f52fa196)" d="M314.5 403.2h79.7" fill="none" stroke="#c44e52" stroke-linecap="round" stroke-width="1.5" id="line2d_63"/><path clip-path="url(#p23f52fa196)" d="M316.4 399.7h77.8" fill="none" stroke="#c44e52" stroke-linecap="round" stroke-width="1.5" id="line2d_64"/><path clip-path="url(#p23f52fa196)" d="M237.2 389h157" fill="none" stroke="#c44e52" stroke-linecap="round" stroke-width="1.5" id="line2d_65"/><path clip-path="url(#p23f52fa196)" d="M391.4 385.5h2.8" fill="none" stroke="#c44e52" stroke-linecap="round" stroke-width="1.5" id="line2d_66"/><path clip-path="url(#p23f52fa196)" d="M230.8 371.4h163.4" fill="none" stroke="#c44e52" stroke-linecap="round" stroke-width="1.5" id="line2d_67"/><path clip-path="url(#p23f52fa196)" d="M283 367.8h111.2" fill="none" stroke="#c44e52" stroke-linecap="round" stroke-width="1.5" id="line2d_68"/><path clip-path="url(#p23f52fa196)" d="M93.7 350.2h300.5" fill="none" stroke="#c44e52" stroke-linecap="round" stroke-width="1.5" id="line2d_69"/><path clip-path="url(#p23f52fa196)" d="M243.4 343h150.8" fill="none" stroke="#c44e52" stroke-linecap="round" stroke-width="1.5" id="line2d_70"/><path clip-path="url(#p23f52fa196)" d="M377.4 336h16.8" fill="none" stroke="#c44e52" stroke-linecap="round" stroke-width="1.5" id="line2d_71"/><path clip-path="url(#p23f52fa196)" d="M297.5 325.4h96.7" fill="none" stroke="#c44e52" stroke-linecap="round" stroke-width="1.5" id="line2d_72"/><path clip-path="url(#p23f52fa196)" d="M277.6 311.3h116.6" fill="none" stroke="#c44e52" stroke-linecap="round" stroke-width="1.5" id="line2d_73"/><path clip-path="url(#p23f52fa196)" d="M325.6 304.2h68.6" fill="none" stroke="#c44e52" stroke-linecap="round" stroke-width="1.5" id="line2d_74"/><path clip-path="url(#p23f52fa196)" d="M331.3 300.7h62.9" fill="none" stroke="#c44e52" stroke-linecap="round" stroke-width="1.5" id="line2d_75"/><path clip-path="url(#p23f52fa196)" d="M74.1 297.1h320.1" fill="none" stroke="#c44e52" stroke-linecap="round" stroke-width="1.5" id="line2d_76"/><path clip-path="url(#p23f52fa196)" d="M298.8 293.6h95.4" fill="none" stroke="#c44e52" stroke-linecap="round" stroke-width="1.5" id="line2d_77"/><path clip-path="url(#p23f52fa196)" d="M297 286.5h97.2" fill="none" stroke="#c44e52" stroke-linecap="round" stroke-width="1.5" id="line2d_78"/><path clip-path="url(#p23f52fa196)" d="M185.3 283h208.9" fill="none" stroke="#c44e52" stroke-linecap="round" stroke-width="1.5" id="line2d_79"/><path clip-path="url(#p23f52fa196)" d="M299 279.4h95.2" fill="none" stroke="#c44e52" stroke-linecap="round" stroke-width="1.5" id="line2d_80"/><path clip-path="url(#p23f52fa196)" d="M382.6 272.4h11.6" fill="none" stroke="#c44e52" stroke-linecap="round" stroke-width="1.5" id="line2d_81"/><path clip-path="url(#p23f52fa196)" d="M386.7 268.8h7.5" fill="none" stroke="#c44e52" stroke-linecap="round" stroke-width="1.5" id="line2d_82"/><path clip-path="url(#p23f52fa196)" d="M149.6 265.3h244.6" fill="none" stroke="#c44e52" stroke-linecap="round" stroke-width="1.5" id="line2d_83"/><path clip-path="url(#p23f52fa196)" d="M102 261.8h292.2" fill="none" stroke="#c44e52" stroke-linecap="round" stroke-width="1.5" id="line2d_84"/><path clip-path="url(#p23f52fa196)" d="M360.3 254.7h33.9" fill="none" stroke="#c44e52" stroke-linecap="round" stroke-width="1.5" id="line2d_85"/><path clip-path="url(#p23f52fa196)" d="M377.5 251.2h16.7" fill="none" stroke="#c44e52" stroke-linecap="round" stroke-width="1.5" id="line2d_86"/><path clip-path="url(#p23f52fa196)" d="M348.7 247.6h45.5" fill="none" stroke="#c44e52" stroke-linecap="round" stroke-width="1.5" id="line2d_87"/><path clip-path="url(#p23f52fa196)" d="M321.1 244h73.1" fill="none" stroke="#c44e52" stroke-linecap="round" stroke-width="1.5" id="line2d_88"/><path clip-path="url(#p23f52fa196)" d="M69.5 240.6h324.7" fill="none" stroke="#c44e52" stroke-linecap="round" stroke-width="1.5" id="line2d_89"/><path clip-path="url(#p23f52fa196)" d="M162 237h232.2" fill="none" stroke="#c44e52" stroke-linecap="round" stroke-width="1.5" id="line2d_90"/><path clip-path="url(#p23f52fa196)" d="M207.6 219.3h186.6" fill="none" stroke="#c44e52" stroke-linecap="round" stroke-width="1.5" id="line2d_91"/><path clip-path="url(#p23f52fa196)" d="M245.5 208.7h148.7" fill="none" stroke="#c44e52" stroke-linecap="round" stroke-width="1.5" id="line2d_92"/><path clip-path="url(#p23f52fa196)" d="M233.7 205.2h160.5" fill="none" stroke="#c44e52" stroke-linecap="round" stroke-width="1.5" id="line2d_93"/><path clip-path="url(#p23f52fa196)" d="M220.7 201.7h173.5" fill="none" stroke="#c44e52" stroke-linecap="round" stroke-width="1.5" id="line2d_94"/><path clip-path="url(#p23f52fa196)" d="M385.6 198.1h8.6" fill="none" stroke="#c44e52" stroke-linecap="round" stroke-width="1.5" id="line2d_95"/><path clip-path="url(#p23f52fa196)" d="M236.1 187.5h158.1" fill="none" stroke="#c44e52" stroke-linecap="round" stroke-width="1.5" id="line2d_96"/><path clip-path="url(#p23f52fa196)" d="M178.2 184h216" fill="none" stroke="#c44e52" stroke-linecap="round" stroke-width="1.5" id="line2d_97"/><path clip-path="url(#p23f52fa196)" d="M103.1 180.4h291.1" fill="none" stroke="#c44e52" stroke-linecap="round" stroke-width="1.5" id="line2d_98"/><path clip-path="url(#p23f52fa196)" d="M82.3 169.8h311.9" fill="none" stroke="#c44e52" stroke-linecap="round" stroke-width="1.5" id="line2d_99"/><path clip-path="url(#p23f52fa196)" d="M92.4 166.3h301.8" fill="none" stroke="#c44e52" stroke-linecap="round" stroke-width="1.5" id="line2d_100"/><path clip-path="url(#p23f52fa196)" d="M284 159.2h110.2" fill="none" stroke="#c44e52" stroke-linecap="round" stroke-width="1.5" id="line2d_101"/><path clip-path="url(#p23f52fa196)" d="M239.2 155.7h155" fill="none" stroke="#c44e52" stroke-linecap="round" stroke-width="1.5" id="line2d_102"/><path clip-path="url(#p23f52fa196)" d="M89.7 148.6h304.5" fill="none" stroke="#c44e52" stroke-linecap="round" stroke-width="1.5" id="line2d_103"/><path clip-path="url(#p23f52fa196)" d="M311 145h83.2" fill="none" stroke="#c44e52" stroke-linecap="round" stroke-width="1.5" id="line2d_104"/><path clip-path="url(#p23f52fa196)" d="M185.8 141.6h208.4" fill="none" stroke="#c44e52" stroke-linecap="round" stroke-width="1.5" id="line2d_105"/><path clip-path="url(#p23f52fa196)" d="M135 138h259.2" fill="none" stroke="#c44e52" stroke-linecap="round" stroke-width="1.5" id="line2d_106"/><path clip-path="url(#p23f52fa196)" d="M377.5 134.5h16.7" fill="none" stroke="#c44e52" stroke-linecap="round" stroke-width="1.5" id="line2d_107"/><path clip-path="url(#p23f52fa196)" d="M324.1 120.3h70.1" fill="none" stroke="#c44e52" stroke-linecap="round" stroke-width="1.5" id="line2d_108"/><path clip-path="url(#p23f52fa196)" d="M379 113.3h15.2" fill="none" stroke="#c44e52" stroke-linecap="round" stroke-width="1.5" id="line2d_109"/><path clip-path="url(#p23f52fa196)" d="M104.3 109.7h289.9" fill="none" stroke="#c44e52" stroke-linecap="round" stroke-width="1.5" id="line2d_110"/><path clip-path="url(#p23f52fa196)" d="M359.3 99.1h34.9" fill="none" stroke="#c44e52" stroke-linecap="round" stroke-width="1.5" id="line2d_111"/><path clip-path="url(#p23f52fa196)" d="M284.1 92h110.1" fill="none" stroke="#c44e52" stroke-linecap="round" stroke-width="1.5" id="line2d_112"/><path clip-path="url(#p23f52fa196)" d="M139.7 88.5h254.5" fill="none" stroke="#c44e52" stroke-linecap="round" stroke-width="1.5" id="line2d_113"/><g id="line2d_114"><defs><path d="M0 1.5a1.5 1.5 0 100-3 1.5 1.5 0 000 3z" id="m0c96422d68" stroke="#4c72b0"/></defs><g clip-path="url(#p23f52fa196)" fill="#4c72b0" stroke="#4c72b0"><use x="319.1" xlink:href="#m0c96422d68" y="438.5"/><use x="247.4" xlink:href="#m0c96422d68" y="435"/><use x="241.1" xlink:href="#m0c96422d68" y="431.5"/><use x="98.6" xlink:href="#m0c96422d68" y="427.9"/><use x="75.5" xlink:href="#m0c96422d68" y="424.4"/><use x="206.7" xlink:href="#m0c96422d68" y="420.9"/><use x="77.6" xlink:href="#m0c96422d68" y="417.3"/><use x="382.6" xlink:href="#m0c96422d68" y="413.8"/><use x="289.9" xlink:href="#m0c96422d68" y="410.3"/><use x="153.1" xlink:href="#m0c96422d68" y="406.7"/><use x="314.5" xlink:href="#m0c96422d68" y="403.2"/><use x="316.4" xlink:href="#m0c96422d68" y="399.7"/><use x="166.2" xlink:href="#m0c96422d68" y="396.1"/><use x="168" xlink:href="#m0c96422d68" y="392.6"/><use x="237.2" xlink:href="#m0c96422d68" y="389"/><use x="391.4" xlink:href="#m0c96422d68" y="385.5"/><use x="301.3" xlink:href="#m0c96422d68" y="382"/><use x="353.4" xlink:href="#m0c96422d68" y="378.4"/><use x="294" xlink:href="#m0c96422d68" y="374.9"/><use x="230.8" xlink:href="#m0c96422d68" y="371.4"/><use x="282.9" xlink:href="#m0c96422d68" y="367.8"/><use x="128.6" xlink:href="#m0c96422d68" y="364.3"/><use x="234.8" xlink:href="#m0c96422d68" y="360.8"/><use x="119.3" xlink:href="#m0c96422d68" y="357.2"/><use x="168.8" xlink:href="#m0c96422d68" y="353.7"/><use x="93.7" xlink:href="#m0c96422d68" y="350.2"/><use x="170.8" xlink:href="#m0c96422d68" y="346.6"/><use x="243.4" xlink:href="#m0c96422d68" y="343.1"/><use x="125.3" xlink:href="#m0c96422d68" y="339.5"/><use x="377.4" xlink:href="#m0c96422d68" y="336"/><use x="262.8" xlink:href="#m0c96422d68" y="332.5"/><use x="195.9" xlink:href="#m0c96422d68" y="328.9"/><use x="297.5" xlink:href="#m0c96422d68" y="325.4"/><use x="127.9" xlink:href="#m0c96422d68" y="321.9"/><use x="284.6" xlink:href="#m0c96422d68" y="318.3"/><use x="272.3" xlink:href="#m0c96422d68" y="314.8"/><use x="277.6" xlink:href="#m0c96422d68" y="311.3"/><use x="244.4" xlink:href="#m0c96422d68" y="307.7"/><use x="325.6" xlink:href="#m0c96422d68" y="304.2"/><use x="331.3" xlink:href="#m0c96422d68" y="300.7"/><use x="74.1" xlink:href="#m0c96422d68" y="297.1"/><use x="298.8" xlink:href="#m0c96422d68" y="293.6"/><use x="159.1" xlink:href="#m0c96422d68" y="290"/><use x="297" xlink:href="#m0c96422d68" y="286.5"/><use x="185.3" xlink:href="#m0c96422d68" y="283"/><use x="299" xlink:href="#m0c96422d68" y="279.4"/><use x="135.9" xlink:href="#m0c96422d68" y="275.9"/><use x="382.6" xlink:href="#m0c96422d68" y="272.4"/><use x="386.7" xlink:href="#m0c96422d68" y="268.8"/><use x="149.6" xlink:href="#m0c96422d68" y="265.3"/><use x="102" xlink:href="#m0c96422d68" y="261.8"/><use x="172.6" xlink:href="#m0c96422d68" y="258.2"/><use x="360.3" xlink:href="#m0c96422d68" y="254.7"/><use x="377.5" xlink:href="#m0c96422d68" y="251.2"/><use x="348.7" xlink:href="#m0c96422d68" y="247.6"/><use x="321.1" xlink:href="#m0c96422d68" y="244.1"/><use x="69.5" xlink:href="#m0c96422d68" y="240.6"/><use x="162.1" xlink:href="#m0c96422d68" y="237"/><use x="220.7" xlink:href="#m0c96422d68" y="233.5"/><use x="214.5" xlink:href="#m0c96422d68" y="229.9"/><use x="214" xlink:href="#m0c96422d68" y="226.4"/><use x="250" xlink:href="#m0c96422d68" y="222.9"/><use x="207.6" xlink:href="#m0c96422d68" y="219.3"/><use x="293.3" xlink:href="#m0c96422d68" y="215.8"/><use x="79.5" xlink:href="#m0c96422d68" y="212.3"/><use x="245.5" xlink:href="#m0c96422d68" y="208.7"/><use x="233.7" xlink:href="#m0c96422d68" y="205.2"/><use x="220.7" xlink:href="#m0c96422d68" y="201.7"/><use x="385.6" xlink:href="#m0c96422d68" y="198.1"/><use x="305.3" xlink:href="#m0c96422d68" y="194.6"/><use x="296.5" xlink:href="#m0c96422d68" y="191.1"/><use x="236.1" xlink:href="#m0c96422d68" y="187.5"/><use x="178.2" xlink:href="#m0c96422d68" y="184"/><use x="103.1" xlink:href="#m0c96422d68" y="180.4"/><use x="295.7" xlink:href="#m0c96422d68" y="176.9"/><use x="244.8" xlink:href="#m0c96422d68" y="173.4"/><use x="82.3" xlink:href="#m0c96422d68" y="169.8"/><use x="92.4" xlink:href="#m0c96422d68" y="166.3"/><use x="301.9" xlink:href="#m0c96422d68" y="162.8"/><use x="283.9" xlink:href="#m0c96422d68" y="159.2"/><use x="239.2" xlink:href="#m0c96422d68" y="155.7"/><use x="213.6" xlink:href="#m0c96422d68" y="152.2"/><use x="89.7" xlink:href="#m0c96422d68" y="148.6"/><use x="310.9" xlink:href="#m0c96422d68" y="145.1"/><use x="185.8" xlink:href="#m0c96422d68" y="141.6"/><use x="135" xlink:href="#m0c96422d68" y="138"/><use x="377.5" xlink:href="#m0c96422d68" y="134.5"/><use x="249.2" xlink:href="#m0c96422d68" y="130.9"/><use x="184.8" xlink:href="#m0c96422d68" y="127.4"/><use x="121.6" xlink:href="#m0c96422d68" y="123.9"/><use x="324.1" xlink:href="#m0c96422d68" y="120.3"/><use x="344.5" xlink:href="#m0c96422d68" y="116.8"/><use x="379.1" xlink:href="#m0c96422d68" y="113.3"/><use x="104.3" xlink:href="#m0c96422d68" y="109.7"/><use x="150.3" xlink:href="#m0c96422d68" y="106.2"/><use x="79" xlink:href="#m0c96422d68" y="102.7"/><use x="359.3" xlink:href="#m0c96422d68" y="99.1"/><use x="80.4" xlink:href="#m0c96422d68" y="95.6"/><use x="284.1" xlink:href="#m0c96422d68" y="92.1"/><use x="139.7" xlink:href="#m0c96422d68" y="88.5"/></g></g><g id="line2d_115"><defs><path d="M0 1.5a1.5 1.5 0 100-3 1.5 1.5 0 000 3z" id="m8ccdd187f3" stroke="#55a868"/></defs><g clip-path="url(#p23f52fa196)" fill="#55a868" stroke="#55a868"><use x="323.1" xlink:href="#m8ccdd187f3" y="438.5"/><use x="326.9" xlink:href="#m8ccdd187f3" y="431.5"/><use x="148.5" xlink:href="#m8ccdd187f3" y="427.9"/><use x="110.4" xlink:href="#m8ccdd187f3" y="424.4"/><use x="380.3" xlink:href="#m8ccdd187f3" y="420.9"/><use x="179.1" xlink:href="#m8ccdd187f3" y="417.3"/><use x="384.1" xlink:href="#m8ccdd187f3" y="413.8"/><use x="154.3" xlink:href="#m8ccdd187f3" y="406.7"/><use x="221.3" xlink:href="#m8ccdd187f3" y="396.1"/><use x="292.7" xlink:href="#m8ccdd187f3" y="392.6"/><use x="318.5" xlink:href="#m8ccdd187f3" y="382"/><use x="379.7" xlink:href="#m8ccdd187f3" y="378.4"/><use x="345.9" xlink:href="#m8ccdd187f3" y="374.9"/><use x="170.4" xlink:href="#m8ccdd187f3" y="364.3"/><use x="289.2" xlink:href="#m8ccdd187f3" y="360.8"/><use x="142.6" xlink:href="#m8ccdd187f3" y="357.2"/><use x="221.8" xlink:href="#m8ccdd187f3" y="353.7"/><use x="172.9" xlink:href="#m8ccdd187f3" y="346.6"/><use x="306" xlink:href="#m8ccdd187f3" y="339.5"/><use x="393.4" xlink:href="#m8ccdd187f3" y="332.5"/><use x="196.5" xlink:href="#m8ccdd187f3" y="328.9"/><use x="224.1" xlink:href="#m8ccdd187f3" y="321.9"/><use x="290.3" xlink:href="#m8ccdd187f3" y="318.3"/><use x="277.9" xlink:href="#m8ccdd187f3" y="314.8"/><use x="246.3" xlink:href="#m8ccdd187f3" y="307.7"/><use x="175.3" xlink:href="#m8ccdd187f3" y="290"/><use x="161.6" xlink:href="#m8ccdd187f3" y="275.9"/><use x="368.3" xlink:href="#m8ccdd187f3" y="258.2"/><use x="236.7" xlink:href="#m8ccdd187f3" y="233.5"/><use x="383.1" xlink:href="#m8ccdd187f3" y="229.9"/><use x="386.5" xlink:href="#m8ccdd187f3" y="226.4"/><use x="268.6" xlink:href="#m8ccdd187f3" y="222.9"/><use x="326.5" xlink:href="#m8ccdd187f3" y="215.8"/><use x="83.6" xlink:href="#m8ccdd187f3" y="212.3"/><use x="318.8" xlink:href="#m8ccdd187f3" y="194.6"/><use x="323.7" xlink:href="#m8ccdd187f3" y="191.1"/><use x="332.6" xlink:href="#m8ccdd187f3" y="176.9"/><use x="248.1" xlink:href="#m8ccdd187f3" y="173.4"/><use x="366.8" xlink:href="#m8ccdd187f3" y="162.8"/><use x="227.6" xlink:href="#m8ccdd187f3" y="152.2"/><use x="331.4" xlink:href="#m8ccdd187f3" y="130.9"/><use x="188.6" xlink:href="#m8ccdd187f3" y="127.4"/><use x="185.2" xlink:href="#m8ccdd187f3" y="123.9"/><use x="356.6" xlink:href="#m8ccdd187f3" y="116.8"/><use x="189.8" xlink:href="#m8ccdd187f3" y="106.2"/><use x="204.8" xlink:href="#m8ccdd187f3" y="102.7"/><use x="99.3" xlink:href="#m8ccdd187f3" y="95.6"/></g></g><path clip-path="url(#p23f52fa196)" d="M394.2 442V7.3" fill="none" stroke="#1a1a1a" stroke-dasharray="1.5,2.475" stroke-width="1.5" id="line2d_117"/><path d="M53.3 442V7.3" fill="none" stroke="#fff" stroke-linecap="square" stroke-width="1.3" id="patch_3"/><path d="M410.4 442V7.3" fill="none" stroke="#fff" stroke-linecap="square" stroke-width="1.3" id="patch_4"/><path d="M53.3 442h357.1" fill="none" stroke="#fff" stroke-linecap="square" stroke-width="1.3" id="patch_5"/><path d="M53.3 7.2h357.1" fill="none" stroke="#fff" stroke-linecap="square" stroke-width="1.3" id="patch_6"/><g id="legend_1"><path d="M61 80.6h182q2.2 0 2.2-2.2V14.9q0-2.2-2.2-2.2H61q-2.2 0-2.2 2.2v63.5q0 2.2 2.2 2.2z" fill="#eaeaf2" opacity=".8" stroke="#ccc" id="patch_7"/><use x="74.2" xlink:href="#m0c96422d68" y="21.6" fill="#4c72b0" stroke="#4c72b0" id="line2d_119"/><g id="text_16"><defs><path d="M9.8 73h41.9v-8.4h-32V43h28.9v-8.3h-29V0H9.9z" id="DejaVuSans-70"/><path d="M18.1 8.2v-29h-9v75.5h9v-8.3q2.9 4.9 7.2 7.2Q29.6 56 35.6 56q10 0 16.2-8Q58 40.3 58 27.4q0-12.9-6.2-20.8-6.2-8-16.2-8-6 0-10.3 2.5Q21 3.3 18 8.2zm30.6 19.1q0 9.9-4 15.5-4.2 5.7-11.3 5.7-7.1 0-11.2-5.7-4-5.6-4-15.5 0-10 4-15.6t11.2-5.6q7.1 0 11.2 5.7 4 5.6 4 15.5z" id="DejaVuSans-112"/><path d="M48.8 52.6v-8.4Q45 46.3 41 47.3q-3.8 1-7.7 1-8.7 0-13.6-5.5Q15 37.3 15 27.3t4.8-15.6q4.9-5.5 13.6-5.5 4 0 7.7 1 3.9 1.1 7.7 3.2V2.1Q45 .3 41-.5q-4-1-8.6-1-12.3 0-19.6 7.8-7.3 7.8-7.3 21 0 13.4 7.4 21Q20.2 56 33 56q4.2 0 8.1-.9 4-.8 7.7-2.5z" id="DejaVuSans-99"/><path d="M54.9 33V0h-9v32.7q0 7.8-3 11.6-3 3.9-9.1 3.9-7.3 0-11.5-4.7Q18.1 39 18.1 31V0h-9v76h9V46.2q3.2 5 7.6 7.4Q30.1 56 35.8 56q9.4 0 14.2-5.8Q55 44.3 55 33z" id="DejaVuSans-104"/><path d="M34.3 27.5q-11 0-15.1-2.5-4.2-2.5-4.2-8.5 0-4.8 3.1-7.6 3.2-2.8 8.6-2.8 7.5 0 12 5.3t4.5 14v2zm17.9 3.7V0h-9v8.3q-3-5-7.7-7.3Q31-1.4 24.3-1.4 16-1.4 11 3.3 6 8 6 15.9q0 9.2 6.2 14 6.2 4.6 18.4 4.6h12.6v1q0 6.1-4 9.5-4.1 3.4-11.5 3.4-4.7 0-9.2-1.1-4.4-1.2-8.5-3.4v8.3q5 2 9.6 2.8 4.6 1 9 1 11.9 0 17.7-6.2 5.9-6.1 5.9-18.6z" id="DejaVuSans-97"/></defs><g transform="matrix(.11 0 0 -.11 94 25.5)" fill="#262626"><use xlink:href="#DejaVuSans-70"/><use x="57.4" xlink:href="#DejaVuSans-105"/><use x="85.2" xlink:href="#DejaVuSans-114"/><use x="126.3" xlink:href="#DejaVuSans-115"/><use x="178.4" xlink:href="#DejaVuSans-116"/><use x="217.6" xlink:href="#DejaVuSans-32"/><use x="249.4" xlink:href="#DejaVuSans-112"/><use x="312.9" xlink:href="#DejaVuSans-117"/><use x="376.3" xlink:href="#DejaVuSans-114"/><use x="417.3" xlink:href="#DejaVuSans-99"/><use x="472.3" xlink:href="#DejaVuSans-104"/><use x="535.7" xlink:href="#DejaVuSans-97"/><use x="597" xlink:href="#DejaVuSans-115"/><use x="649.1" xlink:href="#DejaVuSans-101"/></g></g><use x="74.2" xlink:href="#m8ccdd187f3" y="37.8" fill="#55a868" stroke="#55a868" id="line2d_121"/><g id="text_17"><defs><path d="M39.4 66.2q-10.7 0-17-8-6.4-8-6.4-21.8t6.3-21.8q6.4-8 17.1-8 10.7 0 17 8 6.3 8 6.3 21.8t-6.3 21.8q-6.3 8-17 8zm0 8Q54.7 74.2 64 64q9.2-10.2 9.2-27.5T63.9 8.9Q54.7-1.4 39.4-1.4 24-1.4 14.8 8.8 5.6 19.1 5.6 36.4t9.2 27.5Q24 74.2 39.4 74.2z" id="DejaVuSans-79"/><path d="M48.7 27.3q0 9.9-4 15.5-4.2 5.7-11.3 5.7-7.1 0-11.2-5.7-4-5.6-4-15.5 0-10 4-15.6t11.2-5.6q7.1 0 11.2 5.7 4 5.6 4 15.5zM18 46.3q2.9 5 7.2 7.3Q29.6 56 35.6 56q10 0 16.2-8Q58 40.3 58 27.4q0-12.9-6.2-20.8-6.2-8-16.2-8-6 0-10.3 2.5Q21 3.3 18 8.2V0h-9v76h9z" id="DejaVuSans-98"/><path d="M3 54.7h9.5l17-45.9 17.2 45.9h9.5L35.7 0H23.5z" id="DejaVuSans-118"/><path d="M45.4 46.4V76h9V0h-9v8.2Q42.6 3.3 38.3 1q-4.4-2.4-10.4-2.4-10 0-16.2 7.9-6.2 8-6.2 20.8 0 12.9 6.2 20.8Q18 56 28 56q6 0 10.4-2.4 4.3-2.3 7.1-7.2zM14.8 27.3q0-10 4-15.6Q23 6.2 30.2 6.2q7.1 0 11.2 5.7 4.1 5.6 4.1 15.5t-4.1 15.5q-4.1 5.7-11.2 5.7t-11.2-5.7q-4.1-5.6-4.1-15.5z" id="DejaVuSans-100"/></defs><g transform="matrix(.11 0 0 -.11 94 41.6)" fill="#262626"><use xlink:href="#DejaVuSans-79"/><use x="78.7" xlink:href="#DejaVuSans-98"/><use x="142.2" xlink:href="#DejaVuSans-115"/><use x="194.3" xlink:href="#DejaVuSans-101"/><use x="255.8" xlink:href="#DejaVuSans-114"/><use x="296.9" xlink:href="#DejaVuSans-118"/><use x="356.1" xlink:href="#DejaVuSans-101"/><use x="417.6" xlink:href="#DejaVuSans-100"/><use x="481.1" xlink:href="#DejaVuSans-32"/><use x="512.9" xlink:href="#DejaVuSans-114"/><use x="554" xlink:href="#DejaVuSans-101"/><use x="615.5" xlink:href="#DejaVuSans-112"/><use x="679" xlink:href="#DejaVuSans-101"/><use x="740.5" xlink:href="#DejaVuSans-97"/><use x="801.8" xlink:href="#DejaVuSans-116"/><use x="841" xlink:href="#DejaVuSans-32"/><use x="872.8" xlink:href="#DejaVuSans-112"/><use x="936.2" xlink:href="#DejaVuSans-117"/><use x="999.6" xlink:href="#DejaVuSans-114"/><use x="1040.7" xlink:href="#DejaVuSans-99"/><use x="1095.7" xlink:href="#DejaVuSans-104"/><use x="1159.1" xlink:href="#DejaVuSans-97"/><use x="1220.3" xlink:href="#DejaVuSans-115"/><use x="1272.4" xlink:href="#DejaVuSans-101"/></g></g><path d="M63.2 53.9h22" fill="none" stroke="#c44e52" stroke-linecap="round" stroke-width="1.5" id="line2d_122"/><g id="text_18"><defs><path d="M9.8 73h13.3l32.3-61v61H65V0H51.7L19.4 61V0H9.8z" id="DejaVuSans-78"/><path d="M32.2-5q-3.8-9.8-7.5-12.8-3.6-3-9.6-3H7.9v7.5h5.3q3.7 0 5.7 1.8 2.1 1.7 4.6 8.3l1.6 4L3 54.8h9.5l17-42.8 17.2 42.8h9.5z" id="DejaVuSans-121"/></defs><g transform="matrix(.11 0 0 -.11 94 57.8)" fill="#262626"><use xlink:href="#DejaVuSans-78"/><use x="74.8" xlink:href="#DejaVuSans-111"/><use x="136" xlink:href="#DejaVuSans-32"/><use x="167.8" xlink:href="#DejaVuSans-114"/><use x="208.9" xlink:href="#DejaVuSans-101"/><use x="270.4" xlink:href="#DejaVuSans-112"/><use x="333.9" xlink:href="#DejaVuSans-101"/><use x="395.4" xlink:href="#DejaVuSans-97"/><use x="456.7" xlink:href="#DejaVuSans-116"/><use x="495.9" xlink:href="#DejaVuSans-32"/><use x="527.7" xlink:href="#DejaVuSans-112"/><use x="591.1" xlink:href="#DejaVuSans-117"/><use x="654.5" xlink:href="#DejaVuSans-114"/><use x="695.6" xlink:href="#DejaVuSans-99"/><use x="750.6" xlink:href="#DejaVuSans-104"/><use x="814" xlink:href="#DejaVuSans-97"/><use x="875.2" xlink:href="#DejaVuSans-115"/><use x="927.3" xlink:href="#DejaVuSans-101"/><use x="988.9" xlink:href="#DejaVuSans-32"/><use x="1020.6" xlink:href="#DejaVuSans-121"/><use x="1079.8" xlink:href="#DejaVuSans-101"/><use x="1141.3" xlink:href="#DejaVuSans-116"/></g></g><path d="M63.2 70h22" fill="none" stroke="#1a1a1a" stroke-dasharray="1.5,2.475" stroke-width="1.5" id="line2d_124"/><g id="text_19"><defs><path d="M37.1 76v-7.5h-8.6q-4.8 0-6.7-2-1.9-2-1.9-7v-4.8h14.8v-7H20V0h-9v47.7H2.3v7h8.6v3.8q0 9.1 4.2 13.3Q19.4 76 28.6 76z" id="DejaVuSans-102"/><path d="M9.4 76h9V0h-9z" id="DejaVuSans-108"/><path d="M54.9 33V0h-9v32.7q0 7.8-3 11.6-3 3.9-9.1 3.9-7.3 0-11.5-4.7Q18.1 39 18.1 31V0h-9v54.7h9v-8.5q3.2 5 7.6 7.4Q30.1 56 35.8 56q9.4 0 14.2-5.8Q55 44.3 55 33z" id="DejaVuSans-110"/></defs><g transform="matrix(.11 0 0 -.11 94 73.9)" fill="#262626"><use xlink:href="#DejaVuSans-84"/><use x="61" xlink:href="#DejaVuSans-105"/><use x="88.8" xlink:href="#DejaVuSans-109"/><use x="186.2" xlink:href="#DejaVuSans-101"/><use x="247.8" xlink:href="#DejaVuSans-32"/><use x="279.5" xlink:href="#DejaVuSans-111"/><use x="340.7" xlink:href="#DejaVuSans-102"/><use x="375.9" xlink:href="#DejaVuSans-32"/><use x="407.7" xlink:href="#DejaVuSans-100"/><use x="471.2" xlink:href="#DejaVuSans-97"/><use x="532.5" xlink:href="#DejaVuSans-116"/><use x="571.7" xlink:href="#DejaVuSans-97"/><use x="633" xlink:href="#DejaVuSans-32"/><use x="664.7" xlink:href="#DejaVuSans-99"/><use x="719.7" xlink:href="#DejaVuSans-111"/><use x="780.9" xlink:href="#DejaVuSans-108"/><use x="808.7" xlink:href="#DejaVuSans-108"/><use x="836.5" xlink:href="#DejaVuSans-101"/><use x="898" xlink:href="#DejaVuSans-99"/><use x="953" xlink:href="#DejaVuSans-116"/><use x="992.2" xlink:href="#DejaVuSans-105"/><use x="1020" xlink:href="#DejaVuSans-111"/><use x="1081.2" xlink:href="#DejaVuSans-110"/></g></g></g></g></g><defs><clipPath id="p23f52fa196"><path d="M53.3 7.2h357.1v434.9H53.3z"/></clipPath></defs></svg>