<svg height="364.8" viewBox="0 0 396.5 273.6" width="528.7" xmlns="http://www.w3.org/2000/svg" xmlns:xlink="http://www.w3.org/1999/xlink"><defs><style>*{stroke-linecap:butt;stroke-linejoin:round}</style></defs><g id="figure_1"><path d="M0 273.6h396.5V0H0z" fill="#fff" id="patch_1"/><g id="axes_1"><path d="M48.5 230.6h334.8V13.2H48.5z" fill="#eaeaf2" id="patch_2"/><g id="matplotlib.axis_1"><g id="xtick_1"><path clip-path="url(#pae25b889e3)" d="M83.8 230.6V13.2" fill="none" stroke="#fff" stroke-linecap="round" id="line2d_1"/><g id="text_1"><defs><path d="M10.6 35.5h62.6v-8.3H10.6z" id="DejaVuSans-8722"/><path d="M19.2 8.3h34.4V0H7.3v8.3l15.3 15.6q9.7 9.8 12.2 12.6 4.7 5.3 6.6 9 2 3.7 2 7.3 0 5.8-4.2 9.5-4 3.6-10.6 3.6-4.6 0-9.8-1.6-5.1-1.6-11-4.9v10q6 2.4 11.1 3.6 5.2 1.2 9.5 1.2 11.4 0 18-5.7 6.8-5.6 6.8-15 0-4.6-1.7-8.6-1.6-4-6-9.5l-7.9-8.2L19.2 8.3z" id="DejaVuSans-50"/></defs><g transform="matrix(.11 0 0 -.11 75.7 248.5)" fill="#262626"><use xlink:href="#DejaVuSans-8722"/><use x="83.8" xlink:href="#DejaVuSans-50"/></g></g></g><g id="xtick_2"><path clip-path="url(#pae25b889e3)" d="M138 230.6V13.2" fill="none" stroke="#fff" stroke-linecap="round" id="line2d_2"/><g id="text_2"><defs><path d="M12.4 8.3h16.1v55.6L11 60.4v9l17.4 3.5h9.9V8.3h16V0H12.5z" id="DejaVuSans-49"/></defs><g transform="matrix(.11 0 0 -.11 129.9 248.5)" fill="#262626"><use xlink:href="#DejaVuSans-8722"/><use x="83.8" xlink:href="#DejaVuSans-49"/></g></g></g><g id="xtick_3"><path clip-path="url(#pae25b889e3)" d="M192.1 230.6V13.2" fill="none" stroke="#fff" stroke-linecap="round" id="line2d_3"/><g id="text_3"><defs><path d="M31.8 66.4q-7.6 0-11.5-7.5-3.8-7.5-3.8-22.5t3.8-22.5q3.9-7.5 11.5-7.5 7.7 0 11.5 7.5T47 36.4q0 15-3.8 22.5t-11.5 7.5zm0 7.8q12.2 0 18.7-9.7T57 36.4Q57 18 50.5 8.3 44-1.4 31.8-1.4 19.5-1.4 13 8.3q-6.5 9.7-6.5 28 0 18.5 6.5 28.2 6.4 9.7 18.7 9.7z" id="DejaVuSans-48"/></defs><use xlink:href="#DejaVuSans-48" transform="matrix(.11 0 0 -.11 188.6 248.5)" fill="#262626"/></g></g><g id="xtick_4"><path clip-path="url(#pae25b889e3)" d="M246.3 230.6V13.2" fill="none" stroke="#fff" stroke-linecap="round" id="line2d_4"/><use xlink:href="#DejaVuSans-49" transform="matrix(.11 0 0 -.11 242.8 248.5)" fill="#262626" id="text_4"/></g><g id="xtick_5"><path clip-path="url(#pae25b889e3)" d="M300.5 230.6V13.2" fill="none" stroke="#fff" stroke-linecap="round" id="line2d_5"/><use xlink:href="#DejaVuSans-50" transform="matrix(.11 0 0 -.11 297 248.5)" fill="#262626" id="text_5"/></g><g id="xtick_6"><path clip-path="url(#pae25b889e3)" d="M354.6 230.6V13.2" fill="none" stroke="#fff" stroke-linecap="round" id="line2d_6"/><g id="text_6"><defs><path d="M40.6 39.3q7-1.5 11-6.3t4-11.8q0-10.8-7.4-16.7-7.4-6-21.1-6-4.6 0-9.4 1-4.9.9-10 2.7v9.5q4-2.4 8.9-3.6Q21.5 7 26.8 7q9.3 0 14.1 3.6 4.9 3.7 4.9 10.7 0 6.4-4.5 10Q36.8 35 28.7 35h-8.5V43h9q7.2 0 11 3 3.9 2.8 3.9 8.3 0 5.6-4 8.6t-11.4 3q-4 0-8.7-.9-4.6-.8-10.2-2.7v8.8q5.6 1.6 10.5 2.3 5 .8 9.3.8 11.2 0 17.8-5 6.5-5.2 6.5-13.9 0-6-3.5-10.2-3.4-4.2-9.8-5.8z" id="DejaVuSans-51"/></defs><use xlink:href="#DejaVuSans-51" transform="matrix(.11 0 0 -.11 351.1 248.5)" fill="#262626"/></g></g><g id="text_7"><defs><path d="M54.9 54.7L35 28 56 0H45.3l-16 21.5L13.6 0H2.9L24 28.6l-19.4 26h10.6l14.5-19.4 14.5 19.5z" id="DejaVuSans-120"/></defs><use xlink:href="#DejaVuSans-120" transform="matrix(.12 0 0 -.12 212.4 263.9)" fill="#262626"/></g></g><g id="matplotlib.axis_2"><g id="ytick_1"><path clip-path="url(#pae25b889e3)" d="M48.5 212.1h334.8" fill="none" stroke="#fff" stroke-linecap="round" id="line2d_7"/><g id="text_8"><defs><path d="M33 40.4q-6.6 0-10.5-4.6-3.9-4.5-3.9-12.4T22.5 11Q26.4 6.4 33 6.4q6.7 0 10.5 4.6 4 4.5 4 12.4t-4 12.4q-3.8 4.6-10.5 4.6zm19.6 30.9v-9Q48.9 64.1 45 65q-3.8 1-7.5 1-9.8 0-15-6.7-5-6.6-5.8-19.9 2.9 4.3 7.2 6.5 4.4 2.3 9.6 2.3 11 0 17.4-6.7 6.3-6.6 6.3-18.1 0-11.2-6.6-18Q44-1.4 33-1.4q-12.6 0-19.3 9.7Q7 18 7 36.3 7 53.8 15.2 64q8.2 10.3 22 10.3 3.7 0 7.5-.7 3.8-.8 7.9-2.2z" id="DejaVuSans-54"/></defs><g transform="matrix(.11 0 0 -.11 22.8 216.3)" fill="#262626"><use xlink:href="#DejaVuSans-8722"/><use x="83.8" xlink:href="#DejaVuSans-54"/></g></g></g><g id="ytick_2"><path clip-path="url(#pae25b889e3)" d="M48.5 180.2h334.8" fill="none" stroke="#fff" stroke-linecap="round" id="line2d_8"/><g id="text_9"><defs><path d="M37.8 64.3l-25-39h25zM35.2 73h12.4V25.4H58v-8.2H47.6V0h-9.8v17.2h-33v9.5z" id="DejaVuSans-52"/></defs><g transform="matrix(.11 0 0 -.11 22.8 184.4)" fill="#262626"><use xlink:href="#DejaVuSans-8722"/><use x="83.8" xlink:href="#DejaVuSans-52"/></g></g></g><g id="ytick_3"><path clip-path="url(#pae25b889e3)" d="M48.5 148.3h334.8" fill="none" stroke="#fff" stroke-linecap="round" id="line2d_9"/><g transform="matrix(.11 0 0 -.11 22.8 152.5)" fill="#262626" id="text_10"><use xlink:href="#DejaVuSans-8722"/><use x="83.8" xlink:href="#DejaVuSans-50"/></g></g><g id="ytick_4"><path clip-path="url(#pae25b889e3)" d="M48.5 116.4h334.8" fill="none" stroke="#fff" stroke-linecap="round" id="line2d_10"/><use xlink:href="#DejaVuSans-48" transform="matrix(.11 0 0 -.11 32 120.6)" fill="#262626" id="text_11"/></g><g id="ytick_5"><path clip-path="url(#pae25b889e3)" d="M48.5 84.5h334.8" fill="none" stroke="#fff" stroke-linecap="round" id="line2d_11"/><use xlink:href="#DejaVuSans-50" transform="matrix(.11 0 0 -.11 32 88.7)" fill="#262626" id="text_12"/></g><g id="ytick_6"><path clip-path="url(#pae25b889e3)" d="M48.5 52.6h334.8" fill="none" stroke="#fff" stroke-linecap="round" id="line2d_12"/><use xlink:href="#DejaVuSans-52" transform="matrix(.11 0 0 -.11 32 56.8)" fill="#262626" id="text_13"/></g><g id="ytick_7"><path clip-path="url(#pae25b889e3)" d="M48.5 20.7h334.8" fill="none" stroke="#fff" stroke-linecap="round" id="line2d_13"/><use xlink:href="#DejaVuSans-54" transform="matrix(.11 0 0 -.11 32 24.9)" fill="#262626" id="text_14"/></g><g id="text_15"><defs><path d="M32.2-5q-3.8-9.8-7.5-12.8-3.6-3-9.6-3H7.9v7.5h5.3q3.7 0 5.7 1.8 2.1 1.7 4.6 8.3l1.6 4L3 54.8h9.5l17-42.8 17.2 42.8h9.5z" id="DejaVuSans-121"/></defs><use xlink:href="#DejaVuSans-121" transform="matrix(0 -.12 -.12 0 16.3 125.5)" fill="#262626"/></g></g><g id="line2d_14"><defs><path d="M0 1.5a1.5 1.5 0 100-3 1.5 1.5 0 000 3z" id="m577e7e1c98" stroke="#4c72b0"/></defs><g clip-path="url(#pae25b889e3)" fill="#4c72b0" stroke="#4c72b0"><use x="181" xlink:href="#m577e7e1c98" y="163.9"/><use x="218.1" xlink:href="#m577e7e1c98" y="126.1"/><use x="164" xlink:href="#m577e7e1c98" y="149.4"/><use x="162" xlink:href="#m577e7e1c98" y="164.9"/><use x="298.6" xlink:href="#m577e7e1c98" y="77.3"/><use x="267.6" xlink:href="#m577e7e1c98" y="88.5"/><use x="197.2" xlink:href="#m577e7e1c98" y="111.9"/><use x="207.4" xlink:href="#m577e7e1c98" y="107.7"/><use x="233.8" xlink:href="#m577e7e1c98" y="117.2"/><use x="259.6" xlink:href="#m577e7e1c98" y="67.4"/><use x="246.7" xlink:href="#m577e7e1c98" y="108.7"/><use x="121.9" xlink:href="#m577e7e1c98" y="166.4"/><use x="207" xlink:href="#m577e7e1c98" y="108.8"/><use x="204.5" xlink:href="#m577e7e1c98" y="150.1"/><use x="265.4" xlink:href="#m577e7e1c98" y="105.5"/><use x="240.1" xlink:href="#m577e7e1c98" y="110.5"/><use x="83.7" xlink:href="#m577e7e1c98" y="192.7"/><use x="172" xlink:href="#m577e7e1c98" y="147.3"/><use x="282.5" xlink:href="#m577e7e1c98" y="68.4"/><use x="168.4" xlink:href="#m577e7e1c98" y="172.6"/><use x="162.9" xlink:href="#m577e7e1c98" y="185.5"/><use x="218" xlink:href="#m577e7e1c98" y="135.8"/><use x="368.1" xlink:href="#m577e7e1c98" y="23.1"/><use x="136.8" xlink:href="#m577e7e1c98" y="153.7"/><use x="160.9" xlink:href="#m577e7e1c98" y="155.1"/><use x="198.9" xlink:href="#m577e7e1c98" y="130.6"/><use x="208.5" xlink:href="#m577e7e1c98" y="121"/><use x="220.5" xlink:href="#m577e7e1c98" y="125.3"/><use x="192.2" xlink:href="#m577e7e1c98" y="139"/><use x="264.9" xlink:href="#m577e7e1c98" y="89.8"/><use x="153.5" xlink:href="#m577e7e1c98" y="174.6"/><use x="147.1" xlink:href="#m577e7e1c98" y="187.6"/><use x="63.7" xlink:href="#m577e7e1c98" y="181.9"/><use x="91.3" xlink:href="#m577e7e1c98" y="175.9"/><use x="145.5" xlink:href="#m577e7e1c98" y="152.5"/><use x="222.5" xlink:href="#m577e7e1c98" y="105.6"/><use x="123.6" xlink:href="#m577e7e1c98" y="151.9"/><use x="198.6" xlink:href="#m577e7e1c98" y="135.6"/><use x="134.5" xlink:href="#m577e7e1c98" y="171.1"/><use x="210.2" xlink:href="#m577e7e1c98" y="113.8"/><use x="64.3" xlink:href="#m577e7e1c98" y="220.8"/><use x="181.3" xlink:href="#m577e7e1c98" y="117.7"/><use x="108.6" xlink:href="#m577e7e1c98" y="173.4"/><use x="139.6" xlink:href="#m577e7e1c98" y="173.7"/><use x="121.3" xlink:href="#m577e7e1c98" y="171.1"/><use x="207.6" xlink:href="#m577e7e1c98" y="129.5"/><use x="212.6" xlink:href="#m577e7e1c98" y="124.6"/><use x="151.3" xlink:href="#m577e7e1c98" y="156.7"/><use x="210.1" xlink:href="#m577e7e1c98" y="110.9"/><use x="265.2" xlink:href="#m577e7e1c98" y="79.2"/><use x="195.9" xlink:href="#m577e7e1c98" y="142.2"/><use x="205.5" xlink:href="#m577e7e1c98" y="113"/><use x="191.5" xlink:href="#m577e7e1c98" y="137.6"/><use x="246.6" xlink:href="#m577e7e1c98" y="127.1"/><use x="264" xlink:href="#m577e7e1c98" y="83.2"/><use x="142.3" xlink:href="#m577e7e1c98" y="186.6"/><use x="108.2" xlink:href="#m577e7e1c98" y="187.6"/><use x="193.3" xlink:href="#m577e7e1c98" y="115"/><use x="233.2" xlink:href="#m577e7e1c98" y="88.7"/><use x="156.4" xlink:href="#m577e7e1c98" y="157.4"/><use x="238.9" xlink:href="#m577e7e1c98" y="111.5"/><use x="191.6" xlink:href="#m577e7e1c98" y="134.5"/><use x="194.8" xlink:href="#m577e7e1c98" y="160.2"/><use x="228.4" xlink:href="#m577e7e1c98" y="78"/><use x="238.3" xlink:href="#m577e7e1c98" y="117.5"/><use x="140.4" xlink:href="#m577e7e1c98" y="139.9"/><use x="190.9" xlink:href="#m577e7e1c98" y="134.9"/><use x="67.3" xlink:href="#m577e7e1c98" y="186.3"/><use x="156.8" xlink:href="#m577e7e1c98" y="122.5"/><use x="126.1" xlink:href="#m577e7e1c98" y="159.3"/><use x="120" xlink:href="#m577e7e1c98" y="139.4"/><use x="250.3" xlink:href="#m577e7e1c98" y="108.9"/><use x="231.3" xlink:href="#m577e7e1c98" y="97.7"/><use x="229.5" xlink:href="#m577e7e1c98" y="124.2"/><use x="246.4" xlink:href="#m577e7e1c98" y="119.8"/><use x="164.9" xlink:href="#m577e7e1c98" y="155.9"/><use x="158.4" xlink:href="#m577e7e1c98" y="166.9"/><use x="142.2" xlink:href="#m577e7e1c98" y="175.1"/><use x="152.8" xlink:href="#m577e7e1c98" y="148.6"/><use x="204.2" xlink:href="#m577e7e1c98" y="134.1"/><use x="194.9" xlink:href="#m577e7e1c98" y="139.8"/><use x="129.4" xlink:href="#m577e7e1c98" y="175.2"/><use x="236.4" xlink:href="#m577e7e1c98" y="121.1"/><use x="215.6" xlink:href="#m577e7e1c98" y="90.5"/><use x="246.9" xlink:href="#m577e7e1c98" y="80.8"/><use x="291" xlink:href="#m577e7e1c98" y="53.9"/><use x="138.1" xlink:href="#m577e7e1c98" y="179.7"/><use x="238.2" xlink:href="#m577e7e1c98" y="115.3"/><use x="185" xlink:href="#m577e7e1c98" y="142.9"/><use x="241.6" xlink:href="#m577e7e1c98" y="107.9"/><use x="202.3" xlink:href="#m577e7e1c98" y="138.1"/><use x="309.6" xlink:href="#m577e7e1c98" y="74.8"/><use x="185.9" xlink:href="#m577e7e1c98" y="122.6"/><use x="300.7" xlink:href="#m577e7e1c98" y="64.2"/><use x="193.7" xlink:href="#m577e7e1c98" y="119.9"/><use x="235.2" xlink:href="#m577e7e1c98" y="92.5"/><use x="198.5" xlink:href="#m577e7e1c98" y="144.9"/><use x="151.6" xlink:href="#m577e7e1c98" y="178.8"/><use x="223.8" xlink:href="#m577e7e1c98" y="93"/><use x="200.4" xlink:href="#m577e7e1c98" y="123.5"/></g></g><path d="M48.5 230.6V13.2" fill="none" stroke="#fff" stroke-linecap="square" stroke-width="1.3" id="patch_3"/><path d="M383.3 230.6V13.2" fill="none" stroke="#fff" stroke-linecap="square" stroke-width="1.3" id="patch_4"/><path d="M48.5 230.6h334.8" fill="none" stroke="#fff" stroke-linecap="square" stroke-width="1.3" id="patch_5"/><path d="M48.5 13.2h334.8" fill="none" stroke="#fff" stroke-linecap="square" stroke-width="1.3" id="patch_6"/></g></g><defs><clipPath id="pae25b889e3"><path d="M48.5 13.2h334.8v217.4H48.5z"/></clipPath></defs></svg>