<?xml version="1.0" encoding="utf-8" standalone="no"?>
<!DOCTYPE svg PUBLIC "-//W3C//DTD SVG 1.1//EN"
  "http://www.w3.org/Graphics/SVG/1.1/DTD/svg11.dtd">
<!-- Created with matplotlib (https://matplotlib.org/) -->
<svg height="265.797813pt" version="1.1" viewBox="0 0 388.120313 265.797813" width="388.120313pt" xmlns="http://www.w3.org/2000/svg" xmlns:xlink="http://www.w3.org/1999/xlink">
 <defs>
  <style type="text/css">
*{stroke-linecap:butt;stroke-linejoin:round;}
  </style>
 </defs>
 <g id="figure_1">
  <g id="patch_1">
   <path d="M 0 265.797813 
L 388.120313 265.797813 
L 388.120313 0 
L 0 0 
z
" style="fill:none;"/>
  </g>
  <g id="axes_1">
   <g id="patch_2">
    <path d="M 42.620313 228.14 
L 377.420313 228.14 
L 377.420313 10.7 
L 42.620313 10.7 
z
" style="fill:#ffffff;"/>
   </g>
   <g id="matplotlib.axis_1">
    <g id="xtick_1">
     <g id="line2d_1">
      <defs>
       <path d="M 0 0 
L 0 3.5 
" id="m251bf3d373" style="stroke:#000000;stroke-width:0.8;"/>
      </defs>
      <g>
       <use style="stroke:#000000;stroke-width:0.8;" x="67.224145" xlink:href="#m251bf3d373" y="228.14"/>
      </g>
     </g>
     <g id="text_1">
      <!-- −0.50 -->
      <defs>
       <path d="M 10.59375 35.5 
L 73.1875 35.5 
L 73.1875 27.203125 
L 10.59375 27.203125 
z
" id="DejaVuSans-8722"/>
       <path d="M 31.78125 66.40625 
Q 24.171875 66.40625 20.328125 58.90625 
Q 16.5 51.421875 16.5 36.375 
Q 16.5 21.390625 20.328125 13.890625 
Q 24.171875 6.390625 31.78125 6.390625 
Q 39.453125 6.390625 43.28125 13.890625 
Q 47.125 21.390625 47.125 36.375 
Q 47.125 51.421875 43.28125 58.90625 
Q 39.453125 66.40625 31.78125 66.40625 
z
M 31.78125 74.21875 
Q 44.046875 74.21875 50.515625 64.515625 
Q 56.984375 54.828125 56.984375 36.375 
Q 56.984375 17.96875 50.515625 8.265625 
Q 44.046875 -1.421875 31.78125 -1.421875 
Q 19.53125 -1.421875 13.0625 8.265625 
Q 6.59375 17.96875 6.59375 36.375 
Q 6.59375 54.828125 13.0625 64.515625 
Q 19.53125 74.21875 31.78125 74.21875 
z
" id="DejaVuSans-48"/>
       <path d="M 10.6875 12.40625 
L 21 12.40625 
L 21 0 
L 10.6875 0 
z
" id="DejaVuSans-46"/>
       <path d="M 10.796875 72.90625 
L 49.515625 72.90625 
L 49.515625 64.59375 
L 19.828125 64.59375 
L 19.828125 46.734375 
Q 21.96875 47.46875 24.109375 47.828125 
Q 26.265625 48.1875 28.421875 48.1875 
Q 40.625 48.1875 47.75 41.5 
Q 54.890625 34.8125 54.890625 23.390625 
Q 54.890625 11.625 47.5625 5.09375 
Q 40.234375 -1.421875 26.90625 -1.421875 
Q 22.3125 -1.421875 17.546875 -0.640625 
Q 12.796875 0.140625 7.71875 1.703125 
L 7.71875 11.625 
Q 12.109375 9.234375 16.796875 8.0625 
Q 21.484375 6.890625 26.703125 6.890625 
Q 35.15625 6.890625 40.078125 11.328125 
Q 45.015625 15.765625 45.015625 23.390625 
Q 45.015625 31 40.078125 35.4375 
Q 35.15625 39.890625 26.703125 39.890625 
Q 22.75 39.890625 18.8125 39.015625 
Q 14.890625 38.140625 10.796875 36.28125 
z
" id="DejaVuSans-53"/>
      </defs>
      <g transform="translate(51.901489 242.738438)scale(0.1 -0.1)">
       <use xlink:href="#DejaVuSans-8722"/>
       <use x="83.789062" xlink:href="#DejaVuSans-48"/>
       <use x="147.412109" xlink:href="#DejaVuSans-46"/>
       <use x="179.199219" xlink:href="#DejaVuSans-53"/>
       <use x="242.822266" xlink:href="#DejaVuSans-48"/>
      </g>
     </g>
    </g>
    <g id="xtick_2">
     <g id="line2d_2">
      <g>
       <use style="stroke:#000000;stroke-width:0.8;" x="112.925132" xlink:href="#m251bf3d373" y="228.14"/>
      </g>
     </g>
     <g id="text_2">
      <!-- −0.25 -->
      <defs>
       <path d="M 19.1875 8.296875 
L 53.609375 8.296875 
L 53.609375 0 
L 7.328125 0 
L 7.328125 8.296875 
Q 12.9375 14.109375 22.625 23.890625 
Q 32.328125 33.6875 34.8125 36.53125 
Q 39.546875 41.84375 41.421875 45.53125 
Q 43.3125 49.21875 43.3125 52.78125 
Q 43.3125 58.59375 39.234375 62.25 
Q 35.15625 65.921875 28.609375 65.921875 
Q 23.96875 65.921875 18.8125 64.3125 
Q 13.671875 62.703125 7.8125 59.421875 
L 7.8125 69.390625 
Q 13.765625 71.78125 18.9375 73 
Q 24.125 74.21875 28.421875 74.21875 
Q 39.75 74.21875 46.484375 68.546875 
Q 53.21875 62.890625 53.21875 53.421875 
Q 53.21875 48.921875 51.53125 44.890625 
Q 49.859375 40.875 45.40625 35.40625 
Q 44.1875 33.984375 37.640625 27.21875 
Q 31.109375 20.453125 19.1875 8.296875 
z
" id="DejaVuSans-50"/>
      </defs>
      <g transform="translate(97.602476 242.738438)scale(0.1 -0.1)">
       <use xlink:href="#DejaVuSans-8722"/>
       <use x="83.789062" xlink:href="#DejaVuSans-48"/>
       <use x="147.412109" xlink:href="#DejaVuSans-46"/>
       <use x="179.199219" xlink:href="#DejaVuSans-50"/>
       <use x="242.822266" xlink:href="#DejaVuSans-53"/>
      </g>
     </g>
    </g>
    <g id="xtick_3">
     <g id="line2d_3">
      <g>
       <use style="stroke:#000000;stroke-width:0.8;" x="158.626119" xlink:href="#m251bf3d373" y="228.14"/>
      </g>
     </g>
     <g id="text_3">
      <!-- 0.00 -->
      <g transform="translate(147.493306 242.738438)scale(0.1 -0.1)">
       <use xlink:href="#DejaVuSans-48"/>
       <use x="63.623047" xlink:href="#DejaVuSans-46"/>
       <use x="95.410156" xlink:href="#DejaVuSans-48"/>
       <use x="159.033203" xlink:href="#DejaVuSans-48"/>
      </g>
     </g>
    </g>
    <g id="xtick_4">
     <g id="line2d_4">
      <g>
       <use style="stroke:#000000;stroke-width:0.8;" x="204.327106" xlink:href="#m251bf3d373" y="228.14"/>
      </g>
     </g>
     <g id="text_4">
      <!-- 0.25 -->
      <g transform="translate(193.194293 242.738438)scale(0.1 -0.1)">
       <use xlink:href="#DejaVuSans-48"/>
       <use x="63.623047" xlink:href="#DejaVuSans-46"/>
       <use x="95.410156" xlink:href="#DejaVuSans-50"/>
       <use x="159.033203" xlink:href="#DejaVuSans-53"/>
      </g>
     </g>
    </g>
    <g id="xtick_5">
     <g id="line2d_5">
      <g>
       <use style="stroke:#000000;stroke-width:0.8;" x="250.028093" xlink:href="#m251bf3d373" y="228.14"/>
      </g>
     </g>
     <g id="text_5">
      <!-- 0.50 -->
      <g transform="translate(238.89528 242.738438)scale(0.1 -0.1)">
       <use xlink:href="#DejaVuSans-48"/>
       <use x="63.623047" xlink:href="#DejaVuSans-46"/>
       <use x="95.410156" xlink:href="#DejaVuSans-53"/>
       <use x="159.033203" xlink:href="#DejaVuSans-48"/>
      </g>
     </g>
    </g>
    <g id="xtick_6">
     <g id="line2d_6">
      <g>
       <use style="stroke:#000000;stroke-width:0.8;" x="295.72908" xlink:href="#m251bf3d373" y="228.14"/>
      </g>
     </g>
     <g id="text_6">
      <!-- 0.75 -->
      <defs>
       <path d="M 8.203125 72.90625 
L 55.078125 72.90625 
L 55.078125 68.703125 
L 28.609375 0 
L 18.3125 0 
L 43.21875 64.59375 
L 8.203125 64.59375 
z
" id="DejaVuSans-55"/>
      </defs>
      <g transform="translate(284.596267 242.738438)scale(0.1 -0.1)">
       <use xlink:href="#DejaVuSans-48"/>
       <use x="63.623047" xlink:href="#DejaVuSans-46"/>
       <use x="95.410156" xlink:href="#DejaVuSans-55"/>
       <use x="159.033203" xlink:href="#DejaVuSans-53"/>
      </g>
     </g>
    </g>
    <g id="xtick_7">
     <g id="line2d_7">
      <g>
       <use style="stroke:#000000;stroke-width:0.8;" x="341.430067" xlink:href="#m251bf3d373" y="228.14"/>
      </g>
     </g>
     <g id="text_7">
      <!-- 1.00 -->
      <defs>
       <path d="M 12.40625 8.296875 
L 28.515625 8.296875 
L 28.515625 63.921875 
L 10.984375 60.40625 
L 10.984375 69.390625 
L 28.421875 72.90625 
L 38.28125 72.90625 
L 38.28125 8.296875 
L 54.390625 8.296875 
L 54.390625 0 
L 12.40625 0 
z
" id="DejaVuSans-49"/>
      </defs>
      <g transform="translate(330.297254 242.738438)scale(0.1 -0.1)">
       <use xlink:href="#DejaVuSans-49"/>
       <use x="63.623047" xlink:href="#DejaVuSans-46"/>
       <use x="95.410156" xlink:href="#DejaVuSans-48"/>
       <use x="159.033203" xlink:href="#DejaVuSans-48"/>
      </g>
     </g>
    </g>
    <g id="text_8">
     <!-- w_0 -->
     <defs>
      <path d="M 4.203125 54.6875 
L 13.1875 54.6875 
L 24.421875 12.015625 
L 35.59375 54.6875 
L 46.1875 54.6875 
L 57.421875 12.015625 
L 68.609375 54.6875 
L 77.59375 54.6875 
L 63.28125 0 
L 52.6875 0 
L 40.921875 44.828125 
L 29.109375 0 
L 18.5 0 
z
" id="DejaVuSans-119"/>
      <path d="M 50.984375 -16.609375 
L 50.984375 -23.578125 
L -0.984375 -23.578125 
L -0.984375 -16.609375 
z
" id="DejaVuSans-95"/>
     </defs>
     <g transform="translate(200.25 256.24)scale(0.1 -0.1)">
      <use xlink:href="#DejaVuSans-119"/>
      <use x="81.787109" xlink:href="#DejaVuSans-95"/>
      <use x="131.787109" xlink:href="#DejaVuSans-48"/>
     </g>
    </g>
   </g>
   <g id="matplotlib.axis_2">
    <g id="ytick_1">
     <g id="line2d_8">
      <defs>
       <path d="M 0 0 
L -3.5 0 
" id="m520d782ec0" style="stroke:#000000;stroke-width:0.8;"/>
      </defs>
      <g>
       <use style="stroke:#000000;stroke-width:0.8;" x="42.620313" xlink:href="#m520d782ec0" y="205.781396"/>
      </g>
     </g>
     <g id="text_9">
      <!-- −3 -->
      <defs>
       <path d="M 40.578125 39.3125 
Q 47.65625 37.796875 51.625 33 
Q 55.609375 28.21875 55.609375 21.1875 
Q 55.609375 10.40625 48.1875 4.484375 
Q 40.765625 -1.421875 27.09375 -1.421875 
Q 22.515625 -1.421875 17.65625 -0.515625 
Q 12.796875 0.390625 7.625 2.203125 
L 7.625 11.71875 
Q 11.71875 9.328125 16.59375 8.109375 
Q 21.484375 6.890625 26.8125 6.890625 
Q 36.078125 6.890625 40.9375 10.546875 
Q 45.796875 14.203125 45.796875 21.1875 
Q 45.796875 27.640625 41.28125 31.265625 
Q 36.765625 34.90625 28.71875 34.90625 
L 20.21875 34.90625 
L 20.21875 43.015625 
L 29.109375 43.015625 
Q 36.375 43.015625 40.234375 45.921875 
Q 44.09375 48.828125 44.09375 54.296875 
Q 44.09375 59.90625 40.109375 62.90625 
Q 36.140625 65.921875 28.71875 65.921875 
Q 24.65625 65.921875 20.015625 65.03125 
Q 15.375 64.15625 9.8125 62.3125 
L 9.8125 71.09375 
Q 15.4375 72.65625 20.34375 73.4375 
Q 25.25 74.21875 29.59375 74.21875 
Q 40.828125 74.21875 47.359375 69.109375 
Q 53.90625 64.015625 53.90625 55.328125 
Q 53.90625 49.265625 50.4375 45.09375 
Q 46.96875 40.921875 40.578125 39.3125 
z
" id="DejaVuSans-51"/>
      </defs>
      <g transform="translate(20.878125 209.580615)scale(0.1 -0.1)">
       <use xlink:href="#DejaVuSans-8722"/>
       <use x="83.789062" xlink:href="#DejaVuSans-51"/>
      </g>
     </g>
    </g>
    <g id="ytick_2">
     <g id="line2d_9">
      <g>
       <use style="stroke:#000000;stroke-width:0.8;" x="42.620313" xlink:href="#m520d782ec0" y="166.371783"/>
      </g>
     </g>
     <g id="text_10">
      <!-- −2 -->
      <g transform="translate(20.878125 170.171002)scale(0.1 -0.1)">
       <use xlink:href="#DejaVuSans-8722"/>
       <use x="83.789062" xlink:href="#DejaVuSans-50"/>
      </g>
     </g>
    </g>
    <g id="ytick_3">
     <g id="line2d_10">
      <g>
       <use style="stroke:#000000;stroke-width:0.8;" x="42.620313" xlink:href="#m520d782ec0" y="126.96217"/>
      </g>
     </g>
     <g id="text_11">
      <!-- −1 -->
      <g transform="translate(20.878125 130.761389)scale(0.1 -0.1)">
       <use xlink:href="#DejaVuSans-8722"/>
       <use x="83.789062" xlink:href="#DejaVuSans-49"/>
      </g>
     </g>
    </g>
    <g id="ytick_4">
     <g id="line2d_11">
      <g>
       <use style="stroke:#000000;stroke-width:0.8;" x="42.620313" xlink:href="#m520d782ec0" y="87.552558"/>
      </g>
     </g>
     <g id="text_12">
      <!-- 0 -->
      <g transform="translate(29.257813 91.351776)scale(0.1 -0.1)">
       <use xlink:href="#DejaVuSans-48"/>
      </g>
     </g>
    </g>
    <g id="ytick_5">
     <g id="line2d_12">
      <g>
       <use style="stroke:#000000;stroke-width:0.8;" x="42.620313" xlink:href="#m520d782ec0" y="48.142945"/>
      </g>
     </g>
     <g id="text_13">
      <!-- 1 -->
      <g transform="translate(29.257813 51.942163)scale(0.1 -0.1)">
       <use xlink:href="#DejaVuSans-49"/>
      </g>
     </g>
    </g>
    <g id="text_14">
     <!-- b -->
     <defs>
      <path d="M 48.6875 27.296875 
Q 48.6875 37.203125 44.609375 42.84375 
Q 40.53125 48.484375 33.40625 48.484375 
Q 26.265625 48.484375 22.1875 42.84375 
Q 18.109375 37.203125 18.109375 27.296875 
Q 18.109375 17.390625 22.1875 11.75 
Q 26.265625 6.109375 33.40625 6.109375 
Q 40.53125 6.109375 44.609375 11.75 
Q 48.6875 17.390625 48.6875 27.296875 
z
M 18.109375 46.390625 
Q 20.953125 51.265625 25.265625 53.625 
Q 29.59375 56 35.59375 56 
Q 45.5625 56 51.78125 48.09375 
Q 58.015625 40.1875 58.015625 27.296875 
Q 58.015625 14.40625 51.78125 6.484375 
Q 45.5625 -1.421875 35.59375 -1.421875 
Q 29.59375 -1.421875 25.265625 0.953125 
Q 20.953125 3.328125 18.109375 8.203125 
L 18.109375 0 
L 9.078125 0 
L 9.078125 75.984375 
L 18.109375 75.984375 
z
" id="DejaVuSans-98"/>
     </defs>
     <g transform="translate(14.798438 122.594219)rotate(-90)scale(0.1 -0.1)">
      <use xlink:href="#DejaVuSans-98"/>
     </g>
    </g>
   </g>
   <g id="LineCollection_1"/>
   <g id="LineCollection_2">
    <path clip-path="url(#p8dcde00170)" d="M 133.929403 175.455441 
L 137.311222 176.005296 
L 140.69304 176.100605 
L 147.456676 175.896496 
L 151.630922 175.427273 
L 154.220313 174.97329 
L 157.602131 174.039133 
L 160.983949 172.830509 
L 164.365767 171.749912 
L 167.747585 171.003836 
L 174.511222 170.266992 
L 177.89304 169.480219 
L 181.274858 168.104657 
L 187.852204 164.445455 
L 188.038494 164.336208 
L 192.123891 162.249091 
L 194.802131 161.207151 
L 198.42805 160.052727 
L 201.565767 159.257289 
L 205.853306 157.856364 
L 208.329403 156.744319 
L 211.711222 154.70284 
L 216.782484 151.267273 
L 222.597103 146.874545 
L 225.809786 144.678182 
L 229.506576 142.481818 
L 237.896329 138.089091 
L 238.765767 137.5519 
L 241.148163 135.892727 
L 243.404165 133.696364 
L 245.529403 131.10317 
L 248.911222 127.710191 
L 252.37727 124.910909 
L 255.722962 122.714545 
L 264.17632 118.321818 
L 267.524228 116.125455 
L 272.821058 111.732727 
L 274.786932 109.536364 
L 276.098904 107.34 
L 276.921002 105.143636 
L 278.64411 98.554545 
L 279.594279 96.358182 
L 280.874039 94.161818 
L 282.016801 91.965455 
L 282.687873 89.769091 
L 282.815018 87.572727 
L 282.534421 85.376364 
L 282.052088 83.18 
L 281.258849 80.983636 
L 279.347585 78.749367 
L 275.717621 76.590909 
L 272.583949 74.377571 
L 271.678256 72.198182 
L 271.095869 70.001818 
L 269.202131 68.243434 
L 267.846696 67.805455 
L 265.820313 67.495834 
L 252.29304 66.373362 
L 248.911222 65.977165 
L 238.765767 64.046651 
L 235.383949 64.139408 
L 232.002131 65.179046 
L 227.232202 67.805455 
L 221.856676 70.140689 
L 215.09304 72.553417 
L 209.887359 74.394545 
L 208.329403 74.985095 
L 200.284414 78.787273 
L 198.183949 79.575586 
L 191.420313 81.498695 
L 187.34223 83.18 
L 183.489701 85.376364 
L 171.129403 92.997828 
L 167.747585 95.557185 
L 166.697055 96.358182 
L 161.255919 100.750909 
L 160.983949 100.968238 
L 154.220313 105.965742 
L 147.456676 110.885689 
L 146.090774 111.732727 
L 133.929403 118.387708 
L 131.423443 120.518182 
L 129.977333 122.714545 
L 129.076346 124.910909 
L 127.815912 129.303636 
L 126.746421 131.5 
L 124.74842 133.696364 
L 123.783949 134.499489 
L 118.352837 138.089091 
L 116.629583 140.285455 
L 116.044509 142.481818 
L 116.084183 144.678182 
L 116.238679 146.874545 
L 116.088052 149.070909 
L 115.348241 151.267273 
L 112.539908 155.66 
L 112.345051 157.856364 
L 115.456107 162.249091 
L 117.194055 164.445455 
L 119.329692 166.641818 
L 120.402131 167.375064 
L 127.165767 171.151598 
L 130.547585 173.777841 
L 133.929403 175.455441 
L 133.929403 175.455441 
" style="fill:none;stroke:#222a2f;stroke-width:1.5;"/>
   </g>
   <g id="LineCollection_3">
    <path clip-path="url(#p8dcde00170)" d="M 133.929403 164.76651 
L 137.311222 165.492789 
L 140.69304 165.641518 
L 147.456676 165.459217 
L 154.220313 165.340231 
L 160.983949 164.794289 
L 167.747585 164.20814 
L 171.129403 163.972097 
L 174.511222 163.548845 
L 177.89304 162.61723 
L 181.274858 161.113938 
L 184.656676 159.345536 
L 188.038494 157.715403 
L 194.802131 154.873054 
L 201.565767 151.550207 
L 202.116826 151.267273 
L 204.947585 149.991015 
L 208.329403 148.264967 
L 211.711222 146.167636 
L 215.09304 143.929751 
L 218.474858 141.987686 
L 225.238494 138.692947 
L 230.740808 135.892727 
L 232.002131 135.131524 
L 234.101323 133.696364 
L 236.545406 131.5 
L 242.147585 125.590915 
L 245.529403 122.361052 
L 248.911222 119.733998 
L 255.674858 115.387301 
L 257.44317 113.929091 
L 259.307305 111.732727 
L 260.939398 109.536364 
L 262.438494 107.326785 
L 264.212074 105.143636 
L 265.82313 102.947273 
L 267.276064 100.750909 
L 268.221667 98.554545 
L 268.718522 96.358182 
L 268.939952 94.161818 
L 269.008299 91.965455 
L 268.819188 89.769091 
L 268.053388 87.572727 
L 266.376676 85.376364 
L 265.820313 84.956366 
L 264.013876 83.18 
L 262.438494 82.037289 
L 261.506598 80.983636 
L 259.056676 78.587295 
L 256.509639 76.590909 
L 255.674858 76.105209 
L 252.29304 75.275401 
L 248.911222 75.296779 
L 242.147585 75.862089 
L 238.765767 75.698331 
L 232.002131 74.828291 
L 228.620313 74.83668 
L 225.238494 75.396409 
L 221.67558 76.590909 
L 215.09304 79.15865 
L 209.98356 80.983636 
L 208.329403 81.597164 
L 204.712737 83.18 
L 201.565767 84.386776 
L 198.183949 85.506616 
L 194.802131 86.519565 
L 191.420313 87.826384 
L 181.274858 93.084432 
L 177.89304 94.970629 
L 174.511222 97.274666 
L 164.054508 105.143636 
L 159.073164 109.536364 
L 156.51348 111.732727 
L 153.256783 113.929091 
L 145.595933 118.321818 
L 142.427649 120.518182 
L 139.872701 122.714545 
L 138.105982 124.910909 
L 137.057123 127.107273 
L 136.263116 129.303636 
L 135.295963 131.5 
L 133.739921 133.696364 
L 130.547585 136.603864 
L 128.714356 138.089091 
L 126.359337 140.285455 
L 124.95841 142.481818 
L 124.635632 144.678182 
L 125.07145 146.874545 
L 125.987314 149.070909 
L 127.165767 151.504506 
L 127.871505 153.463636 
L 128.183109 155.66 
L 128.110499 157.856364 
L 128.262841 160.052727 
L 129.522734 162.249091 
L 130.547585 163.038079 
L 133.929403 164.76651 
L 133.929403 164.76651 
" style="fill:none;stroke:#21313c;stroke-width:1.5;"/>
   </g>
   <g id="LineCollection_4">
    <path clip-path="url(#p8dcde00170)" d="M 150.838494 160.181593 
L 154.220313 160.4415 
L 157.602131 160.456283 
L 162.333055 160.052727 
L 167.747585 159.293261 
L 171.129403 158.79853 
L 175.453711 157.856364 
L 177.89304 157.187017 
L 188.038494 153.246379 
L 192.557061 151.267273 
L 197.095171 149.070909 
L 206.299633 144.678182 
L 209.910906 142.481818 
L 213.45222 140.285455 
L 215.09304 139.359127 
L 226.082911 133.696364 
L 229.473953 131.5 
L 232.118888 129.303636 
L 236.575672 124.910909 
L 242.147585 119.048284 
L 245.529403 116.077977 
L 248.911222 113.533481 
L 251.069609 111.732727 
L 253.083419 109.536364 
L 256.243587 105.143636 
L 257.718038 102.947273 
L 259.056676 100.508411 
L 259.888537 98.554545 
L 260.03697 96.358182 
L 259.056676 93.872357 
L 256.530547 89.769091 
L 255.562602 87.572727 
L 254.747767 85.376364 
L 253.297664 83.18 
L 252.29304 82.317029 
L 248.911222 80.933679 
L 245.529403 80.6818 
L 238.765767 80.707652 
L 235.383949 80.369858 
L 232.002131 79.915546 
L 228.620313 79.830182 
L 225.238494 80.423275 
L 216.590596 83.18 
L 215.09304 83.635031 
L 210.294778 85.376364 
L 204.947585 87.580265 
L 198.183949 89.970879 
L 193.668806 91.965455 
L 181.140216 98.554545 
L 174.065114 102.947273 
L 170.520398 105.143636 
L 167.586004 107.34 
L 160.077267 113.929091 
L 156.957044 116.125455 
L 149.913081 120.518182 
L 147.095635 122.714545 
L 144.95311 124.910909 
L 143.599796 127.107273 
L 141.91064 131.5 
L 140.69304 133.701942 
L 138.60687 135.892727 
L 132.793962 140.285455 
L 131.119821 142.481818 
L 130.761918 144.678182 
L 131.590503 146.874545 
L 133.929403 149.973517 
L 135.315648 151.267273 
L 140.69304 156.968791 
L 141.961403 157.856364 
L 144.074858 158.730456 
L 147.456676 159.633464 
L 150.838494 160.181593 
L 150.838494 160.181593 
" style="fill:none;stroke:#21394a;stroke-width:1.5;"/>
   </g>
   <g id="LineCollection_5">
    <path clip-path="url(#p8dcde00170)" d="M 157.602131 155.734335 
L 161.162593 155.66 
L 171.129403 154.60886 
L 174.511222 154.034032 
L 177.89304 153.113365 
L 188.038494 149.843638 
L 191.420313 148.524441 
L 199.530873 144.678182 
L 203.759989 142.481818 
L 204.947585 141.79937 
L 211.711222 137.542254 
L 218.474858 133.998921 
L 221.856676 132.145902 
L 225.238494 130.042917 
L 226.298905 129.303636 
L 229.072803 127.107273 
L 233.804115 122.714545 
L 237.976558 118.321818 
L 238.765767 117.391942 
L 248.49616 107.34 
L 250.167739 105.143636 
L 251.559955 102.947273 
L 252.566799 100.750909 
L 252.980588 98.554545 
L 252.599107 96.358182 
L 251.403288 94.161818 
L 249.95648 91.965455 
L 248.911222 89.734135 
L 247.715747 87.572727 
L 245.529403 85.778648 
L 243.901635 85.376364 
L 242.147585 85.153328 
L 228.620313 84.984683 
L 225.066697 85.376364 
L 221.856676 85.99576 
L 218.474858 86.793305 
L 215.09304 87.828964 
L 208.329403 90.529254 
L 198.183949 94.060508 
L 191.420313 97.464497 
L 185.29989 100.750909 
L 177.89304 105.29635 
L 174.100398 107.34 
L 170.711617 109.536364 
L 159.299216 118.321818 
L 153.125121 122.714545 
L 150.838494 124.933566 
L 149.260078 127.107273 
L 148.295378 129.303636 
L 146.791916 133.696364 
L 145.789551 135.892727 
L 144.074858 138.663823 
L 139.461996 142.481818 
L 138.963799 144.678182 
L 140.69304 146.582779 
L 141.197863 146.874545 
L 144.074858 147.965281 
L 147.456676 149.558082 
L 150.838494 152.595366 
L 151.755459 153.463636 
L 154.220313 154.92735 
L 157.602131 155.734335 
L 157.602131 155.734335 
" style="fill:none;stroke:#214157;stroke-width:1.5;"/>
   </g>
   <g id="LineCollection_6">
    <path clip-path="url(#p8dcde00170)" d="M 160.983949 149.768208 
L 164.365767 150.494592 
L 167.747585 150.797764 
L 171.129403 150.744725 
L 174.511222 150.246715 
L 177.89304 149.43817 
L 179.309687 149.070909 
L 181.274858 148.630893 
L 184.656676 147.874029 
L 188.038494 146.936414 
L 188.201159 146.874545 
L 191.420313 145.603436 
L 193.356661 144.678182 
L 194.802131 143.922052 
L 197.582926 142.481818 
L 198.183949 142.168845 
L 201.565767 140.38318 
L 201.734404 140.285455 
L 204.947585 138.384649 
L 205.404352 138.089091 
L 208.329403 136.284546 
L 208.989203 135.892727 
L 211.711222 134.412834 
L 213.085707 133.696364 
L 215.09304 132.661011 
L 217.242737 131.5 
L 218.474858 130.778666 
L 220.888594 129.303636 
L 221.856676 128.649677 
L 224.064045 127.107273 
L 225.238494 126.227601 
L 226.874241 124.910909 
L 228.620313 123.472497 
L 229.469366 122.714545 
L 231.86501 120.518182 
L 232.002131 120.384884 
L 234.000458 118.321818 
L 235.383949 116.654161 
L 235.843861 116.125455 
L 237.516473 113.929091 
L 238.765767 112.186847 
L 239.15429 111.732727 
L 240.886691 109.536364 
L 242.147585 107.850761 
L 242.57405 107.34 
L 244.166397 105.143636 
L 245.509909 102.947273 
L 245.529403 102.886645 
L 246.220808 100.750909 
L 245.942181 98.554545 
L 245.529403 97.902343 
L 244.028294 96.358182 
L 242.147585 95.091323 
L 239.875131 94.161818 
L 238.765767 93.654528 
L 235.383949 92.69693 
L 232.002131 92.156838 
L 230.423442 91.965455 
L 228.620313 91.723475 
L 225.238494 91.356974 
L 221.856676 91.284426 
L 218.474858 91.702927 
L 217.544349 91.965455 
L 215.09304 92.55016 
L 211.711222 93.571696 
L 209.612109 94.161818 
L 208.329403 94.454717 
L 204.947585 95.217204 
L 201.565767 96.190187 
L 201.146881 96.358182 
L 198.183949 97.473892 
L 195.952194 98.554545 
L 194.802131 99.068992 
L 191.493891 100.750909 
L 191.420313 100.78823 
L 188.038494 102.709843 
L 187.655272 102.947273 
L 184.656676 105.032517 
L 184.48914 105.143636 
L 181.274858 107.299563 
L 181.20407 107.34 
L 177.89304 109.171451 
L 177.221634 109.536364 
L 174.511222 110.994849 
L 173.346431 111.732727 
L 171.129403 113.087388 
L 169.96494 113.929091 
L 167.747585 115.498769 
L 166.933099 116.125455 
L 164.365767 118.135866 
L 164.119882 118.321818 
L 161.301694 120.518182 
L 160.983949 120.77982 
L 158.451742 122.714545 
L 157.602131 123.453305 
L 155.969378 124.910909 
L 154.220313 127.092624 
L 154.208995 127.107273 
L 153.088589 129.303636 
L 152.379177 131.5 
L 151.855026 133.696364 
L 151.484515 135.892727 
L 151.40826 138.089091 
L 151.794854 140.285455 
L 152.75369 142.481818 
L 154.220313 144.524739 
L 154.330657 144.678182 
L 156.261569 146.874545 
L 157.602131 148.051669 
L 159.404363 149.070909 
L 160.983949 149.768208 
" style="fill:none;stroke:#214964;stroke-width:1.5;"/>
   </g>
   <g id="LineCollection_7">
    <path clip-path="url(#p8dcde00170)" d="M 164.365767 145.80026 
L 167.747585 146.560906 
L 171.129403 146.671931 
L 174.511222 146.358772 
L 177.89304 145.943228 
L 181.274858 145.527637 
L 184.656676 144.957204 
L 185.665537 144.678182 
L 188.038494 143.939283 
L 191.240855 142.481818 
L 191.420313 142.391113 
L 194.802131 140.589555 
L 195.393854 140.285455 
L 198.183949 138.996987 
L 199.952659 138.089091 
L 201.565767 137.324271 
L 204.048765 135.892727 
L 204.947585 135.405794 
L 207.93109 133.696364 
L 208.329403 133.478837 
L 211.711222 131.682285 
L 212.057761 131.5 
L 215.09304 129.773769 
L 215.889209 129.303636 
L 218.474858 127.573152 
L 219.165999 127.107273 
L 221.856676 125.146137 
L 222.172718 124.910909 
L 225.077474 122.714545 
L 225.238494 122.593334 
L 227.785574 120.518182 
L 228.620313 119.796639 
L 230.155859 118.321818 
L 232.002131 116.192556 
L 232.058023 116.125455 
L 233.455073 113.929091 
L 234.624778 111.732727 
L 235.383949 110.277639 
L 235.81359 109.536364 
L 237.041177 107.34 
L 238.113106 105.143636 
L 238.700226 102.947273 
L 238.177108 100.750909 
L 235.383949 98.633782 
L 235.241573 98.554545 
L 232.002131 97.386733 
L 228.620313 96.526082 
L 227.715021 96.358182 
L 225.238494 95.888322 
L 221.856676 95.599939 
L 218.474858 95.787902 
L 215.247044 96.358182 
L 215.09304 96.382124 
L 211.711222 97.033331 
L 208.329403 97.632662 
L 204.947585 98.271615 
L 203.899865 98.554545 
L 201.565767 99.148516 
L 198.183949 100.36583 
L 197.336653 100.750909 
L 194.802131 101.849816 
L 192.684584 102.947273 
L 191.420313 103.652559 
L 189.127484 105.143636 
L 188.038494 105.933099 
L 186.122949 107.34 
L 184.656676 108.403708 
L 182.906321 109.536364 
L 181.274858 110.546336 
L 179.138117 111.732727 
L 177.89304 112.418273 
L 175.132189 113.929091 
L 174.511222 114.274993 
L 171.513896 116.125455 
L 171.129403 116.387593 
L 168.550149 118.321818 
L 167.747585 119.023794 
L 165.993942 120.518182 
L 164.365767 122.036101 
L 163.557238 122.714545 
L 161.088447 124.910909 
L 160.983949 125.014341 
L 159.017712 127.107273 
L 157.602131 129.255868 
L 157.574452 129.303636 
L 156.793976 131.5 
L 156.387026 133.696364 
L 156.287804 135.892727 
L 156.610754 138.089091 
L 157.517671 140.285455 
L 157.602131 140.41569 
L 159.222202 142.481818 
L 160.983949 144.080362 
L 161.991226 144.678182 
L 164.365767 145.80026 
" style="fill:none;stroke:#205072;stroke-width:1.5;"/>
   </g>
   <g id="LineCollection_8">
    <path clip-path="url(#p8dcde00170)" d="M 174.511222 142.535302 
L 177.89304 142.588803 
L 179.964169 142.481818 
L 181.274858 142.412924 
L 184.656676 141.745071 
L 188.038494 140.427637 
L 188.320731 140.285455 
L 191.420313 138.794668 
L 192.999978 138.089091 
L 194.802131 137.434233 
L 198.183949 136.147197 
L 198.715198 135.892727 
L 201.565767 134.615316 
L 203.251298 133.696364 
L 204.947585 132.805199 
L 207.327882 131.5 
L 208.329403 130.932165 
L 211.186689 129.303636 
L 211.711222 128.959863 
L 214.503962 127.107273 
L 215.09304 126.658533 
L 217.447832 124.910909 
L 218.474858 124.109973 
L 220.345299 122.714545 
L 221.856676 121.577851 
L 223.261676 120.518182 
L 225.238494 118.942309 
L 225.954525 118.321818 
L 228.009086 116.125455 
L 228.620313 115.111427 
L 229.294547 113.929091 
L 230.029105 111.732727 
L 230.655525 109.536364 
L 231.43926 107.34 
L 232.002131 105.269675 
L 232.036812 105.143636 
L 232.002131 104.905677 
L 231.658819 102.947273 
L 229.255346 100.750909 
L 228.620313 100.458534 
L 225.238494 99.38659 
L 221.856676 98.949848 
L 218.474858 99.089197 
L 215.09304 99.591742 
L 211.711222 100.134835 
L 208.329403 100.598829 
L 207.380698 100.750909 
L 204.947585 101.132413 
L 201.565767 101.90775 
L 198.390362 102.947273 
L 198.183949 103.013906 
L 194.802131 104.515188 
L 193.686539 105.143636 
L 191.420313 106.561159 
L 190.338829 107.34 
L 188.038494 109.025571 
L 187.331781 109.536364 
L 184.656676 111.360527 
L 184.056871 111.732727 
L 181.274858 113.44711 
L 180.406848 113.929091 
L 177.89304 115.367071 
L 176.539603 116.125455 
L 174.511222 117.380162 
L 173.12768 118.321818 
L 171.129403 119.996776 
L 170.536005 120.518182 
L 168.483703 122.714545 
L 167.747585 123.60197 
L 166.508913 124.910909 
L 164.445609 127.107273 
L 164.365767 127.207972 
L 162.71874 129.303636 
L 161.688056 131.5 
L 161.367134 133.696364 
L 161.680415 135.892727 
L 162.681641 138.089091 
L 164.365767 140.071498 
L 164.668759 140.285455 
L 167.747585 141.691137 
L 171.129403 142.323186 
L 173.4755 142.481818 
L 174.511222 142.535302 
" style="fill:none;stroke:#20587f;stroke-width:1.5;"/>
   </g>
   <g id="LineCollection_9">
    <path clip-path="url(#p8dcde00170)" d="M 177.89304 138.831408 
L 181.274858 138.84689 
L 184.458674 138.089091 
L 184.656676 138.038232 
L 188.038494 136.681359 
L 190.242547 135.892727 
L 191.420313 135.532401 
L 194.802131 134.629827 
L 197.726837 133.696364 
L 198.183949 133.556009 
L 201.565767 132.086108 
L 202.683073 131.5 
L 204.947585 130.293911 
L 206.691187 129.303636 
L 208.329403 128.265869 
L 210.097865 127.107273 
L 211.711222 125.881041 
L 212.99072 124.910909 
L 215.09304 123.187776 
L 215.700243 122.714545 
L 218.437019 120.518182 
L 218.474858 120.485129 
L 221.138442 118.321818 
L 221.856676 117.597119 
L 223.315474 116.125455 
L 224.580408 113.929091 
L 224.932715 111.732727 
L 224.806492 109.536364 
L 224.735799 107.34 
L 224.448744 105.143636 
L 221.856676 103.215505 
L 218.474858 103.013836 
L 215.09304 103.363872 
L 211.711222 103.593768 
L 208.329403 103.762993 
L 204.947585 104.079637 
L 201.565767 104.6973 
L 200.107158 105.143636 
L 198.183949 105.75865 
L 194.856562 107.34 
L 194.802131 107.36778 
L 191.501438 109.536364 
L 191.420313 109.587745 
L 188.32546 111.732727 
L 188.038494 111.92547 
L 185.057748 113.929091 
L 184.656676 114.218372 
L 181.703587 116.125455 
L 181.274858 116.42664 
L 178.201813 118.321818 
L 177.89304 118.541128 
L 175.279508 120.518182 
L 174.511222 121.279748 
L 173.207403 122.714545 
L 171.600392 124.910909 
L 171.129403 125.640578 
L 170.098235 127.107273 
L 168.841931 129.303636 
L 168.308986 131.5 
L 168.899194 133.696364 
L 170.744356 135.892727 
L 171.129403 136.177098 
L 174.511222 138.063018 
L 174.590741 138.089091 
L 177.89304 138.831408 
" style="fill:none;stroke:#20608c;stroke-width:1.5;"/>
   </g>
   <g id="LineCollection_10">
    <path clip-path="url(#p8dcde00170)" d="M 181.274858 134.149021 
L 183.818624 133.696364 
L 184.656676 133.517329 
L 188.038494 132.594036 
L 191.420313 132.161879 
L 194.802131 131.746138 
L 195.736688 131.5 
L 198.183949 130.857595 
L 201.565767 129.478171 
L 201.896348 129.303636 
L 204.947585 127.578653 
L 205.691669 127.107273 
L 208.329403 125.192793 
L 208.701051 124.910909 
L 211.300173 122.714545 
L 211.711222 122.339086 
L 213.778252 120.518182 
L 215.09304 119.254798 
L 216.13529 118.321818 
L 218.07282 116.125455 
L 218.474858 115.232767 
L 219.07799 113.929091 
L 218.726572 111.732727 
L 218.474858 111.365632 
L 216.459225 109.536364 
L 215.09304 108.809877 
L 211.711222 107.81843 
L 208.329403 107.344719 
L 207.35324 107.34 
L 204.947585 107.330606 
L 204.879754 107.34 
L 201.565767 107.834825 
L 198.183949 108.909609 
L 196.934158 109.536364 
L 194.802131 110.622204 
L 193.043339 111.732727 
L 191.420313 112.723836 
L 189.632863 113.929091 
L 188.038494 115.10384 
L 186.641422 116.125455 
L 184.656676 117.798885 
L 183.923764 118.321818 
L 181.274858 120.418088 
L 181.135868 120.518182 
L 178.802637 122.714545 
L 177.89304 123.771935 
L 177.117431 124.910909 
L 176.011215 127.107273 
L 175.380552 129.303636 
L 175.942489 131.5 
L 177.89304 133.442837 
L 178.729728 133.696364 
L 181.274858 134.149021 
" style="fill:none;stroke:#20689a;stroke-width:1.5;"/>
   </g>
   <g id="LineCollection_11">
    <path clip-path="url(#p8dcde00170)" d="M 194.802131 127.787858 
L 198.183949 127.59502 
L 199.508609 127.107273 
L 201.565767 126.294276 
L 203.79804 124.910909 
L 204.947585 124.087112 
L 206.557909 122.714545 
L 208.329403 121.025278 
L 208.850958 120.518182 
L 210.669119 118.321818 
L 211.711222 116.577848 
L 211.983176 116.125455 
L 211.842974 113.929091 
L 211.711222 113.788384 
L 208.329403 111.992616 
L 206.536938 111.732727 
L 204.947585 111.581217 
L 203.163229 111.732727 
L 201.565767 111.88911 
L 198.183949 112.912496 
L 195.963166 113.929091 
L 194.802131 114.514662 
L 192.384328 116.125455 
L 191.420313 117.021741 
L 190.195645 118.321818 
L 189.052483 120.518182 
L 188.954488 122.714545 
L 189.969648 124.910909 
L 191.420313 126.283964 
L 192.639913 127.107273 
L 194.802131 127.787858 
" style="fill:none;stroke:#1f6fa7;stroke-width:1.5;"/>
   </g>
   <g id="LineCollection_12"/>
   <g id="patch_3">
    <path d="M 42.620313 228.14 
L 42.620313 10.7 
" style="fill:none;stroke:#000000;stroke-linecap:square;stroke-linejoin:miter;stroke-width:0.8;"/>
   </g>
   <g id="patch_4">
    <path d="M 377.420313 228.14 
L 377.420313 10.7 
" style="fill:none;stroke:#000000;stroke-linecap:square;stroke-linejoin:miter;stroke-width:0.8;"/>
   </g>
   <g id="patch_5">
    <path d="M 42.620313 228.14 
L 377.420313 228.14 
" style="fill:none;stroke:#000000;stroke-linecap:square;stroke-linejoin:miter;stroke-width:0.8;"/>
   </g>
   <g id="patch_6">
    <path d="M 42.620313 10.7 
L 377.420313 10.7 
" style="fill:none;stroke:#000000;stroke-linecap:square;stroke-linejoin:miter;stroke-width:0.8;"/>
   </g>
  </g>
 </g>
 <defs>
  <clipPath id="p8dcde00170">
   <rect height="217.44" width="334.8" x="42.620313" y="10.7"/>
  </clipPath>
 </defs>
</svg>
