<svg height="373.5" viewBox="0 0 424.8 280.2" width="566.4" xmlns="http://www.w3.org/2000/svg" xmlns:xlink="http://www.w3.org/1999/xlink"><defs><style>*{stroke-linecap:butt;stroke-linejoin:round}</style></defs><g id="figure_1"><path d="M0 280.2h424.8V0H0z" fill="none" id="patch_1"/><g id="axes_1"><path d="M10.7 57.8h403.4V7.2H10.7z" fill="#fff" id="patch_2"/><path clip-path="url(#p70dc3b2a4d)" d="M29 55.5H92.6l.6-.1H99l.6-.1h3.6l.6-.1h2.4l.6-.1H108.7l.6-.1h1.2l.6-.1h1.2l.6-.1h1.2l.6-.1h1.2l.6-.1h.6l.6-.1h.6l.6-.1h.6l.6-.1h.6l.6-.1h.6l.6-.1.6-.1h.6l.6-.1.6-.1h.6l.6-.1.6-.1.6-.1h.6l.6-.2h.6l.6-.1.6-.1.6-.1.6-.1.6-.1.6-.1.6-.1.6-.1.6-.1.6-.1.6-.1.6-.1.6-.2h.6l.6-.2.6-.1.6-.2.6-.1.6-.2h.6l.6-.2.6-.2.6-.1.6-.2.6-.2.6-.1.6-.2.6-.2.6-.1.6-.2.6-.2.6-.2.6-.2.6-.2.6-.2.6-.2.6-.2.6-.2.6-.3.6-.2.6-.2.6-.3.6-.2.6-.3.6-.2.6-.3.6-.2.6-.3.6-.3.6-.2.6-.3.6-.3.6-.3.6-.3.6-.3.6-.3.6-.4.6-.3.6-.3.6-.3.6-.4.6-.3.6-.4.6-.3.6-.4.6-.4.6-.4.6-.3.6-.4.6-.4.6-.4.6-.4.6-.4.5-.4.6-.4.6-.5.6-.4.6-.4.6-.4.6-.5.6-.4.6-.5.6-.4.6-.5.6-.4.6-.5.6-.5.6-.4.6-.5.6-.5.6-.4.6-.5.6-.5.6-.4.6-.5.6-.5.6-.5.6-.4.6-.5.6-.5.6-.4.6-.5.6-.5.6-.4.6-.5.6-.4.6-.5.6-.4.6-.4.6-.5.6-.4.6-.4.6-.4.6-.4.6-.4.6-.4.6-.4.6-.4.6-.3.6-.4.6-.3.6-.4.6-.3.6-.3.6-.3.6-.3.6-.3.6-.3.6-.2.6-.3.6-.3.6-.2.6-.2.6-.2.6-.3.6-.2.6-.2.6-.1.6-.2.6-.2.6-.1.6-.2.6-.1.6-.1.6-.2h.6l.6-.2h.6l.6-.2h.6l.6-.1h.6l.6-.1h.6l.6-.1H223.8l.6-.1h2.4l.6.1h.6l.6.1h.6l.6.2h.6l.6.2h.6l.6.2.6.1.6.2.6.1.6.2.6.2.6.2.6.2.6.2.6.2.6.3.6.2.6.3.6.3.6.3.6.3.6.3.6.3.6.3.6.4.6.3.6.4.6.4.6.4.6.4.6.4.6.4.6.4.6.5.6.4.6.5.6.4.5.5.6.4.6.5.6.5.6.5.6.4.6.5.6.5.6.5.6.5.6.5.6.5.6.5.6.5.6.5.6.5.6.5.6.5.6.4.6.5.6.5.6.5.6.5.6.5.6.4.6.5.6.5.6.4.6.5.6.4.6.5.6.4.6.4.6.5.6.4.6.4.6.4.6.4.6.4.6.4.6.4.6.4.6.3.6.4.6.4.6.3.6.4.6.3.6.4.6.3.6.3.6.4.6.3.6.3.6.3.6.3.6.3.6.3.6.3.6.3.6.2.6.3.6.3.6.2.6.3.6.3.6.2.6.3.6.2.6.2.6.2.6.3.6.2.6.2.6.2.6.2.6.2.6.2.6.2.6.2.6.2.6.1.6.2.6.2.6.2.6.1.6.2.6.1.6.2.6.1.6.2.6.1.6.1.6.2h.6l.6.2.6.1.6.2h.6l.6.2h.6l.6.2h.6l.6.2h.6l.6.2h.6l.6.2h.6l.6.1.6.1h.6l.6.2h.6l.6.1h.6l.6.1.6.1h.6l.6.1h.6l.6.1.6.1h.6l.6.1h.6l.6.1h1.2l.6.1h.6l.5.1h1.2l.6.1H333.4l.6.1H335.8l.6.1h2.4l.6.1h4.2l.6.1H350.8l.6.1H379.6l.6.1H395.8z" fill="#1f77b4" opacity=".4" id="patch_3"/><path clip-path="url(#p70dc3b2a4d)" d="M151.3 55.5V48l.6-.2.6-.3.6-.2.6-.2.6-.3.6-.2.6-.3.6-.2.6-.3.6-.2.6-.3.6-.3.6-.2.6-.3.6-.3.6-.3.6-.3.6-.3.6-.3.6-.4.6-.3.6-.3.6-.3.6-.4.6-.3.6-.4.6-.3.6-.4.6-.4.6-.4.6-.3.6-.4.6-.4.6-.4.6-.4.6-.4.5-.4.6-.4.6-.5.6-.4.6-.4.6-.4.6-.5.6-.4.6-.5.6-.4.6-.5.6-.4.6-.5.6-.5.6-.4.6-.5.6-.5.6-.4.6-.5.6-.5.6-.4.6-.5.6-.5.6-.5.6-.4.6-.5.6-.5.6-.4.6-.5.6-.5.6-.4.6-.5.6-.4.6-.5.6-.4.6-.4.6-.5.6-.4.6-.4.6-.4.6-.4.6-.4.6-.4.6-.4.6-.4.6-.3.6-.4.6-.3.6-.4.6-.3.6-.3.6-.3.6-.3.6-.3.6-.3.6-.2.6-.3.6-.3.6-.2.6-.2.6-.2.6-.3.6-.2.6-.2.6-.1.6-.2.6-.2.6-.1.6-.2.6-.1.6-.1.6-.2h.6l.6-.2h.6l.6-.2h.6l.6-.1h.6l.6-.1h.6l.6-.1H223.8l.6-.1h2.4l.6.1h.6l.6.1h.6l.6.2h.6l.6.2h.6l.6.2.6.1.6.2.6.1.6.2.6.2.6.2.6.2.6.2.6.2.6.3.6.2.6.3.6.3.6.3.6.3.6.3.6.3.6.3.6.4.6.3.6.4.6.4.6.4.6.4.6.4.6.4.6.4.6.5.6.4.6.5.6.4.5.5.6.4.6.5.6.5.6.5.6.4.6.5.6.5.6.5.6.5.6.5.6.5.6.5.6.5.6.5.6.5.6.5.6.5.6.4.6.5.6.5.6.5.6.5.6.5.6.4.6.5.6.5.6.4.6.5.6.4.6.5.6.4.6.4.6.5.6.4.6.4.6.4.6.4.6.4.6.4.6.4.6.4.6.3.6.4.6.4.6.3.6.4.6.3.6.4.6.3.6.3.6.4.6.3.6.3.6.3.6.3.6.3.6.3.6.3.6.3.6.2.6.3.6.3.6.2.6.3.6.3.6.2.6.3v8.3z" fill="#1f77b4" opacity=".4" id="patch_4"/><g id="matplotlib.axis_1"><g id="xtick_1"><g id="line2d_1"><defs><path d="M0 0v3.5" id="m90d5c38588" stroke="#000" stroke-width=".8"/></defs><use x="80" xlink:href="#m90d5c38588" y="57.8" stroke="#000" stroke-width=".8"/></g><g id="text_1"><defs><path d="M12.4 8.3h16.1v55.6L11 60.4v9l17.4 3.5h9.9V8.3h16V0H12.5z" id="DejaVuSans-49"/><path d="M10.7 12.4H21V0H10.7z" id="DejaVuSans-46"/><path d="M33 40.4q-6.6 0-10.5-4.6-3.9-4.5-3.9-12.4T22.5 11Q26.4 6.4 33 6.4q6.7 0 10.5 4.6 4 4.5 4 12.4t-4 12.4q-3.8 4.6-10.5 4.6zm19.6 30.9v-9Q48.9 64.1 45 65q-3.8 1-7.5 1-9.8 0-15-6.7-5-6.6-5.8-19.9 2.9 4.3 7.2 6.5 4.4 2.3 9.6 2.3 11 0 17.4-6.7 6.3-6.6 6.3-18.1 0-11.2-6.6-18Q44-1.4 33-1.4q-12.6 0-19.3 9.7Q7 18 7 36.3 7 53.8 15.2 64q8.2 10.3 22 10.3 3.7 0 7.5-.7 3.8-.8 7.9-2.2z" id="DejaVuSans-54"/></defs><g transform="matrix(.1 0 0 -.1 72 72.4)"><use xlink:href="#DejaVuSans-49"/><use x="63.6" xlink:href="#DejaVuSans-46"/><use x="95.4" xlink:href="#DejaVuSans-54"/></g></g></g><g id="xtick_2"><use x="164.3" xlink:href="#m90d5c38588" y="57.8" stroke="#000" stroke-width=".8" id="line2d_2"/><g id="text_2"><defs><path d="M31.8 34.6q-7 0-11-3.7-4.1-3.8-4.1-10.4 0-6.6 4-10.3 4-3.8 11-3.8 7.1 0 11.2 3.8 4 3.8 4 10.3 0 6.6-4 10.4-4 3.7-11.1 3.7zm-9.9 4.2q-6.3 1.6-9.9 6Q8.5 49 8.5 55.2q0 8.8 6.2 13.8 6.3 5.1 17 5.1 11 0 17.2-5Q55 64 55 55.2q0-6.2-3.6-10.6-3.5-4.3-9.8-5.9 7.1-1.6 11.1-6.5 4-4.8 4-11.8 0-10.6-6.5-16.3-6.5-5.6-18.5-5.6T13.2 4.2Q6.8 10 6.8 20.5q0 7 4 11.8 4 4.9 11.1 6.5zm-3.6 15.6q0-5.7 3.5-8.8 3.6-3.2 10-3.2 6.3 0 10 3.2 3.5 3.1 3.5 8.8 0 5.7-3.6 8.8-3.6 3.2-10 3.2-6.3 0-9.9-3.2-3.5-3.1-3.5-8.8z" id="DejaVuSans-56"/></defs><g transform="matrix(.1 0 0 -.1 156.3 72.4)"><use xlink:href="#DejaVuSans-49"/><use x="63.6" xlink:href="#DejaVuSans-46"/><use x="95.4" xlink:href="#DejaVuSans-56"/></g></g></g><g id="xtick_3"><use x="248.5" xlink:href="#m90d5c38588" y="57.8" stroke="#000" stroke-width=".8" id="line2d_3"/><g id="text_3"><defs><path d="M19.2 8.3h34.4V0H7.3v8.3l15.3 15.6q9.7 9.8 12.2 12.6 4.7 5.3 6.6 9 2 3.7 2 7.3 0 5.8-4.2 9.5-4 3.6-10.6 3.6-4.6 0-9.8-1.6-5.1-1.6-11-4.9v10q6 2.4 11.1 3.6 5.2 1.2 9.5 1.2 11.4 0 18-5.7 6.8-5.6 6.8-15 0-4.6-1.7-8.6-1.6-4-6-9.5l-7.9-8.2L19.2 8.3z" id="DejaVuSans-50"/><path d="M31.8 66.4q-7.6 0-11.5-7.5-3.8-7.5-3.8-22.5t3.8-22.5q3.9-7.5 11.5-7.5 7.7 0 11.5 7.5T47 36.4q0 15-3.8 22.5t-11.5 7.5zm0 7.8q12.2 0 18.7-9.7T57 36.4Q57 18 50.5 8.3 44-1.4 31.8-1.4 19.5-1.4 13 8.3q-6.5 9.7-6.5 28 0 18.5 6.5 28.2 6.4 9.7 18.7 9.7z" id="DejaVuSans-48"/></defs><g transform="matrix(.1 0 0 -.1 240.6 72.4)"><use xlink:href="#DejaVuSans-50"/><use x="63.6" xlink:href="#DejaVuSans-46"/><use x="95.4" xlink:href="#DejaVuSans-48"/></g></g></g><g id="xtick_4"><use x="332.7" xlink:href="#m90d5c38588" y="57.8" stroke="#000" stroke-width=".8" id="line2d_4"/><g transform="matrix(.1 0 0 -.1 324.8 72.4)" id="text_4"><use xlink:href="#DejaVuSans-50"/><use x="63.6" xlink:href="#DejaVuSans-46"/><use x="95.4" xlink:href="#DejaVuSans-50"/></g></g><g id="text_5"><defs><path d="M3.3 73h10l15.3-61.7L44 72.9h11l15.4-61.6 15.3 61.6h10L77.3 0H64.9L49.5 63.3 34 0H21.6z" id="DejaVuSans-87"/><path d="M56.2 29.6v-4.4H14.9q.6-9.3 5.6-14.1 5-4.9 14-4.9 5 0 10 1.3 4.8 1.2 9.6 3.8V2.8q-4.8-2-10-3.1-5-1.1-10.2-1.1-13.1 0-20.7 7.6-7.7 7.6-7.7 20.6 0 13.4 7.3 21.3Q20 56 32.3 56q11 0 17.5-7.1 6.4-7.1 6.4-19.3zm-9 2.6q0 7.4-4.1 11.8-4 4.4-10.7 4.4-7.5 0-12-4.3-4.5-4.2-5.2-12z" id="DejaVuSans-101"/><path d="M9.4 54.7h9V0h-9zm0 21.3h9V64.6h-9z" id="DejaVuSans-105"/><path d="M45.4 28q0 9.8-4 15.1-4 5.4-11.3 5.4-7.2 0-11.3-5.4-4-5.4-4-15.1t4-15.1q4-5.4 11.3-5.4 7.3 0 11.3 5.4 4 5.4 4 15zm9-21.2q0-14-6.2-20.8-6.2-6.8-19-6.8-4.7 0-9 .7-4.1.7-8 2.2v8.7q3.9-2.1 7.7-3.1 3.9-1 7.9-1 8.8 0 13.2 4.5 4.4 4.6 4.4 14v4.4q-2.8-4.8-7.1-7.2Q33.9 0 27.9 0q-10 0-16.2 7.7Q5.5 15.3 5.5 28q0 12.7 6.2 20.3Q17.8 56 27.9 56q6 0 10.4-2.4 4.3-2.4 7.1-7.2v8.3h9z" id="DejaVuSans-103"/><path d="M54.9 33V0h-9v32.7q0 7.8-3 11.6-3 3.9-9.1 3.9-7.3 0-11.5-4.7Q18.1 39 18.1 31V0h-9v76h9V46.2q3.2 5 7.6 7.4Q30.1 56 35.8 56q9.4 0 14.2-5.8Q55 44.3 55 33z" id="DejaVuSans-104"/><path d="M18.3 70.2V54.7h18.5v-7H18.3V18q0-6.7 1.8-8.6 1.9-1.9 7.5-1.9h9.2V0h-9.2Q17.2 0 13.2 3.9T9.2 18v29.7H2.8v7h6.6v15.5z" id="DejaVuSans-116"/></defs><g transform="matrix(.1 0 0 -.1 194.7 86)"><use xlink:href="#DejaVuSans-87"/><use x="98.8" xlink:href="#DejaVuSans-101"/><use x="160.3" xlink:href="#DejaVuSans-105"/><use x="188.1" xlink:href="#DejaVuSans-103"/><use x="251.6" xlink:href="#DejaVuSans-104"/><use x="315" xlink:href="#DejaVuSans-116"/></g></g></g><path d="M10.7 57.8h403.4" fill="none" stroke="#000" stroke-linecap="square" stroke-width=".8" id="patch_5"/></g><g id="axes_2"><path d="M10.7 150.2h403.4V99.6H10.7z" fill="#fff" id="patch_6"/><path clip-path="url(#p8add885e2b)" d="M29 147.9H58.4l.6-.1H66.8l.6-.1h4.8l.6-.1H77l.6-.1h3.6l.6-.1h3l.6-.1h2.4l.6-.1H90.2l.6-.1H92.6l.6-.1h1.2l.6-.1H96l.6-.1H98l.6-.1h.6l.6-.1h.6l.6-.1h.6l.6-.1h.6l.6-.1h.6l.6-.1.6-.1h.6l.6-.1.6-.1h.6l.6-.2h.6l.6-.1.6-.1.6-.1h.6l.6-.2h.6l.6-.2h.6l.6-.2.6-.1.6-.1.6-.1.6-.1.6-.2.6-.1.6-.1.6-.2h.6l.6-.2.6-.2.6-.1.6-.2.6-.1.6-.2.6-.1.6-.2.6-.1.6-.2.6-.2.6-.1.6-.2.6-.2.6-.1.6-.2.6-.2.6-.2.6-.2.6-.2.6-.1.6-.2.6-.2.6-.2.6-.2.6-.2.6-.3.6-.2.6-.2.6-.2.6-.2.6-.3.6-.2.6-.2.6-.3.6-.2.6-.3.6-.2.6-.3.6-.3.6-.2.6-.3.6-.3.6-.3.6-.3.6-.3.6-.3.6-.3.6-.3.6-.3.6-.3.6-.4.6-.3.6-.3.6-.4.6-.3.6-.4.6-.3.6-.4.6-.4.6-.4.6-.3.6-.4.6-.4.6-.4.6-.4.6-.4.6-.4.6-.4.6-.4.6-.4.6-.4.6-.5.6-.4.6-.4.6-.4.6-.5.6-.4.6-.4.6-.5.6-.4.6-.4.6-.5.6-.4.6-.4.6-.5.6-.4.6-.4.6-.5.6-.4.5-.4.6-.4.6-.5.6-.4.6-.4.6-.4.6-.4.6-.4.6-.4.6-.4.6-.3.6-.4.6-.4.6-.3.6-.4.6-.3.6-.4.6-.3.6-.3.6-.4.6-.3.6-.3.6-.3.6-.3.6-.3.6-.2.6-.3.6-.3.6-.3.6-.2.6-.3.6-.2.6-.2.6-.3.6-.2.6-.2.6-.2.6-.2.6-.2.6-.2.6-.2.6-.2.6-.1.6-.2.6-.1.6-.2.6-.1.6-.2h.6l.6-.2.6-.1.6-.1.6-.1.6-.1.6-.1h.6l.6-.1.6-.1h.6l.6-.1h.6l.6-.1h2.4l.6-.1h3.6l.6.1h1.2l.6.1.6.1h.6l.6.1.6.1.6.1h.6l.6.2.6.1.6.1.6.2h.6l.6.2.6.2.6.2.6.1.6.2.6.2.6.2.6.2.6.2.6.3.6.2.6.2.6.3.6.3.6.2.6.3.6.3.6.3.6.3.6.3.6.3.6.3.6.3.6.4.6.3.6.3.6.3.6.4.6.3.6.4.6.3.6.4.6.4.6.3.6.4.6.3.6.4.6.4.6.4.6.3.6.4.5.4.6.4.6.4.6.4.6.4.6.4.6.4.6.4.6.4.6.4.6.4.6.5.6.4.6.4.6.4.6.5.6.4.6.4.6.4.6.4.6.5.6.4.6.4.6.4.6.5.6.4.6.4.6.4.6.4.6.4.6.4.6.4.6.4.6.4.6.4.6.4.6.3.6.4.6.4.6.3.6.4.6.4.6.3.6.3.6.4.6.3.6.3.6.4.6.3.6.3.6.3.6.3.6.3.6.3.6.3.6.3.6.3.6.2.6.3.6.3.6.2.6.3.6.2.6.3.6.2.6.3.6.2.6.2.6.3.6.2.6.2.6.2.6.3.6.2.6.2.6.2.6.2.6.2.6.2.6.2.6.1.6.2.6.2.6.2.6.1.6.2.6.2.6.1.6.2.6.1.6.2.6.1.6.1.6.2.6.1.6.1.6.1.6.2h.6l.6.2h.6l.6.2h.6l.6.2h.6l.6.1.6.1.6.1h.6l.6.2h.6l.6.1h.6l.6.1h.6l.6.1.6.1h.6l.6.1h.6l.6.1h1.2l.6.1h.6l.6.1h1.2l.6.1h1.2l.5.1h1.2l.6.1H333.4l.6.1H335.8l.6.1H338.2l.6.1h2.4l.6.1h3l.6.1h3l.6.1h4.2l.6.1H359.8l.6.1H382l.6.1H395.8z" fill="#1f77b4" opacity=".4" id="patch_7"/><path clip-path="url(#p8add885e2b)" d="M132.1 147.9v-7.6l.6-.2.6-.2.6-.2.6-.2.6-.2.6-.3.6-.2.6-.2.6-.2.6-.2.6-.3.6-.2.6-.2.6-.3.6-.2.6-.3.6-.2.6-.3.6-.3.6-.2.6-.3.6-.3.6-.3.6-.3.6-.3.6-.3.6-.3.6-.3.6-.3.6-.3.6-.4.6-.3.6-.3.6-.4.6-.3.6-.4.6-.3.6-.4.6-.4.6-.4.6-.3.6-.4.6-.4.6-.4.6-.4.6-.4.6-.4.6-.4.6-.4.6-.4.6-.4.6-.5.6-.4.6-.4.6-.4.6-.5.6-.4.6-.4.6-.5.6-.4.6-.4.6-.5.6-.4.6-.4.6-.5.6-.4.6-.4.6-.5.6-.4.5-.4.6-.4.6-.5.6-.4.6-.4.6-.4.6-.4.6-.4.6-.4.6-.4.6-.3.6-.4.6-.4.6-.3.6-.4.6-.3.6-.4.6-.3.6-.3.6-.4.6-.3.6-.3.6-.3.6-.3.6-.3.6-.2.6-.3.6-.3.6-.3.6-.2.6-.3.6-.2.6-.2.6-.3.6-.2.6-.2.6-.2.6-.2.6-.2.6-.2.6-.2.6-.2.6-.1.6-.2.6-.1.6-.2.6-.1.6-.2h.6l.6-.2.6-.1.6-.1.6-.1.6-.1.6-.1h.6l.6-.1.6-.1h.6l.6-.1h.6l.6-.1h2.4l.6-.1h3.6l.6.1h1.2l.6.1.6.1h.6l.6.1.6.1.6.1h.6l.6.2.6.1.6.1.6.2h.6l.6.2.6.2.6.2.6.1.6.2.6.2.6.2.6.2.6.2.6.3.6.2.6.2.6.3.6.3.6.2.6.3.6.3.6.3.6.3.6.3.6.3.6.3.6.3.6.4.6.3.6.3.6.3.6.4.6.3.6.4.6.3.6.4.6.4.6.3.6.4.6.3.6.4.6.4.6.4.6.3.6.4.5.4.6.4.6.4.6.4.6.4.6.4.6.4.6.4.6.4.6.4.6.4.6.5.6.4.6.4.6.4.6.5.6.4.6.4.6.4.6.4.6.5.6.4.6.4.6.4.6.5.6.4.6.4.6.4.6.4.6.4.6.4.6.4.6.4.6.4.6.4.6.4.6.3.6.4.6.4.6.3.6.4.6.4.6.3.6.3.6.4.6.3.6.3.6.4.6.3.6.3.6.3.6.3.6.3.6.3.6.3.6.3.6.3.6.2.6.3.6.3.6.2.6.3.6.2.6.3.6.2.6.3.6.2v8.6z" fill="#1f77b4" opacity=".4" id="patch_8"/><g id="matplotlib.axis_2"><g id="xtick_5"><use x="60.9" xlink:href="#m90d5c38588" y="150.2" stroke="#000" stroke-width=".8" id="line2d_5"/><g id="text_6"><defs><path d="M10.6 35.5h62.6v-8.3H10.6z" id="DejaVuSans-8722"/><path d="M37.8 64.3l-25-39h25zM35.2 73h12.4V25.4H58v-8.2H47.6V0h-9.8v17.2h-33v9.5z" id="DejaVuSans-52"/></defs><g transform="matrix(.1 0 0 -.1 48.8 164.8)"><use xlink:href="#DejaVuSans-8722"/><use x="83.8" xlink:href="#DejaVuSans-49"/><use x="147.4" xlink:href="#DejaVuSans-46"/><use x="179.2" xlink:href="#DejaVuSans-52"/></g></g></g><g id="xtick_6"><use x="146.5" xlink:href="#m90d5c38588" y="150.2" stroke="#000" stroke-width=".8" id="line2d_6"/><g transform="matrix(.1 0 0 -.1 134.4 164.8)" id="text_7"><use xlink:href="#DejaVuSans-8722"/><use x="83.8" xlink:href="#DejaVuSans-49"/><use x="147.4" xlink:href="#DejaVuSans-46"/><use x="179.2" xlink:href="#DejaVuSans-50"/></g></g><g id="xtick_7"><use x="232.2" xlink:href="#m90d5c38588" y="150.2" stroke="#000" stroke-width=".8" id="line2d_7"/><g transform="matrix(.1 0 0 -.1 220 164.8)" id="text_8"><use xlink:href="#DejaVuSans-8722"/><use x="83.8" xlink:href="#DejaVuSans-49"/><use x="147.4" xlink:href="#DejaVuSans-46"/><use x="179.2" xlink:href="#DejaVuSans-48"/></g></g><g id="xtick_8"><use x="317.8" xlink:href="#m90d5c38588" y="150.2" stroke="#000" stroke-width=".8" id="line2d_8"/><g transform="matrix(.1 0 0 -.1 305.7 164.8)" id="text_9"><use xlink:href="#DejaVuSans-8722"/><use x="83.8" xlink:href="#DejaVuSans-48"/><use x="147.4" xlink:href="#DejaVuSans-46"/><use x="179.2" xlink:href="#DejaVuSans-56"/></g></g><g id="xtick_9"><use x="403.5" xlink:href="#m90d5c38588" y="150.2" stroke="#000" stroke-width=".8" id="line2d_9"/><g transform="matrix(.1 0 0 -.1 391.3 164.8)" id="text_10"><use xlink:href="#DejaVuSans-8722"/><use x="83.8" xlink:href="#DejaVuSans-48"/><use x="147.4" xlink:href="#DejaVuSans-46"/><use x="179.2" xlink:href="#DejaVuSans-54"/></g></g><g id="text_11"><defs><path d="M19.7 34.8V8.1h15.8q8 0 11.8 3.3 3.8 3.3 3.8 10 0 7-3.8 10.2-3.8 3.2-11.8 3.2zm0 30v-22h14.6q7.2 0 10.7 2.7 3.6 2.8 3.6 8.3 0 5.5-3.6 8.3-3.5 2.7-10.7 2.7zm-9.9 8.1H35q11.3 0 17.4-4.7 6.1-4.7 6.1-13.3 0-6.7-3.1-10.7-3.1-4-9.2-4.9 7.3-1.5 11.3-6.5 4-5 4-12.4 0-9.8-6.6-15Q48.3 0 35.9 0H10z" id="DejaVuSans-66"/><path d="M34.3 27.5q-11 0-15.1-2.5-4.2-2.5-4.2-8.5 0-4.8 3.1-7.6 3.2-2.8 8.6-2.8 7.5 0 12 5.3t4.5 14v2zm17.9 3.7V0h-9v8.3q-3-5-7.7-7.3Q31-1.4 24.3-1.4 16-1.4 11 3.3 6 8 6 15.9q0 9.2 6.2 14 6.2 4.6 18.4 4.6h12.6v1q0 6.1-4 9.5-4.1 3.4-11.5 3.4-4.7 0-9.2-1.1-4.4-1.2-8.5-3.4v8.3q5 2 9.6 2.8 4.6 1 9 1 11.9 0 17.7-6.2 5.9-6.1 5.9-18.6z" id="DejaVuSans-97"/><path d="M44.3 53v-8.4q-3.8 2-8 2.9-4 1-8.4 1-6.7 0-10-2-3.4-2.1-3.4-6.2 0-3.1 2.4-5 2.4-1.7 9.6-3.3l3-.7q9.7-2 13.7-5.8 4-3.7 4-10.4 0-7.6-6-12-6-4.5-16.6-4.5-4.4 0-9.1.8-4.8.9-10 2.6v9.3q5-2.6 9.7-4 4.9-1.2 9.6-1.2 6.4 0 9.8 2.2 3.4 2.2 3.4 6.1 0 3.7-2.5 5.6-2.4 2-10.8 3.8l-3.1.7q-8.4 1.8-12 5.4-3.8 3.6-3.8 10 0 7.7 5.5 11.9Q16.7 56 26.8 56q5 0 9.4-.7 4.4-.8 8-2.2z" id="DejaVuSans-115"/></defs><g transform="matrix(.1 0 0 -.1 202 178.5)"><use xlink:href="#DejaVuSans-66"/><use x="68.6" xlink:href="#DejaVuSans-105"/><use x="96.4" xlink:href="#DejaVuSans-97"/><use x="157.7" xlink:href="#DejaVuSans-115"/></g></g></g><path d="M10.7 150.2h403.4" fill="none" stroke="#000" stroke-linecap="square" stroke-width=".8" id="patch_9"/></g><g id="axes_3"><path d="M10.7 242.6h403.4V192H10.7z" fill="#fff" id="patch_10"/><path clip-path="url(#pd86ef97352)" d="M29 240.3H52.4l.6-.1h3l.6-.1H58.4l.6-.1h.6l.6-.1h1.2l.6-.1 1.2-.1h.6l.6-.1.6-.1h.6l.6-.2h.6l.6-.2h.6l.6-.2.6-.1.6-.1.6-.2.6-.1.6-.2.6-.2.6-.2.6-.2.6-.2.6-.2.6-.2.6-.3.6-.2.6-.3.6-.3.6-.3.6-.3.6-.3.6-.4.6-.3.6-.4.6-.4.6-.4.6-.4.6-.4.6-.5.6-.5.6-.4.6-.5.6-.6.6-.5.6-.5.6-.6.6-.5.6-.6.6-.6.6-.6.6-.7.6-.6.6-.6.6-.7.6-.7.6-.6.6-.7.6-.7.5-.7.6-.7.6-.7.6-.7.6-.7.6-.7.6-.8.6-.7.6-.7.6-.7.6-.7.6-.8.6-.7.6-.7.6-.7.6-.7.6-.7.6-.7.6-.6.6-.7.6-.7.6-.6.6-.6.6-.7.6-.6.6-.6.6-.5.6-.6.6-.5.6-.6.6-.5.6-.5.6-.4.6-.5.6-.4.6-.4.6-.4.6-.4.6-.3.6-.3.6-.3.6-.3.6-.3.6-.2.6-.2.6-.2.6-.1.6-.2h.6l.6-.2h1.2l.6-.1H129.1l.6.1.6.1.6.1.6.1.6.2.6.1.6.2.6.2.6.2.6.3.6.2.6.3.6.2.6.3.6.3.6.4.6.3.6.4.6.3.6.4.6.4.6.4.6.4.6.4.6.4.6.4.6.5.6.4.6.5.6.5.6.4.6.5.6.5.6.5.6.5.6.5.6.5.6.5.6.5.6.5.6.5.6.5.6.6.6.5.6.5.6.5.6.6.6.5.6.5.6.5.6.5.6.5.6.5.6.6.6.5.6.5.6.4.6.5.6.5.6.5.6.5.6.5.6.4.6.5.6.4.6.5.6.4.6.5.6.4.6.4.6.4.6.5.6.4.6.4.5.3.6.4.6.4.6.4.6.3.6.4.6.4.6.3.6.3.6.4.6.3.6.3.6.3.6.3.6.3.6.3.6.3.6.3.6.3.6.2.6.3.6.2.6.3.6.2.6.3.6.2.6.2.6.2.6.2.6.2.6.2.6.2.6.2.6.2.6.2.6.1.6.2.6.2.6.1.6.2.6.1.6.1.6.2.6.1.6.1.6.2h.6l.6.2.6.1.6.1.6.1.6.1.6.1.6.1.6.1.6.1h.6l.6.2h.6l.6.2h.6l.6.1.6.1h.6l.6.2h.6l.6.1h.6l.6.1.6.1h.6l.6.1h.6l.6.2h1.2l.6.1h.6l.6.1h.6l.6.1h.6l.6.1h.6l.6.1h1.2l.6.1h1.2l.6.1h1.2l.6.1h1.2l.6.1H233.4l.6.1h1.2l.6.1h2.4l.6.1H240.6l.6.1h2.4l.6.1h3l.6.1h3.5l.6.1H257.3l.6.1H267.5l.6.1H335.2l.6.1H395.8z" fill="#1f77b4" opacity=".4" id="patch_11"/><path clip-path="url(#pd86ef97352)" d="M90.2 240.3v-13.8l.6-.6.6-.7.6-.6.6-.6.6-.7.6-.7.6-.6.6-.7.6-.7.5-.7.6-.7.6-.7.6-.7.6-.7.6-.7.6-.8.6-.7.6-.7.6-.7.6-.7.6-.8.6-.7.6-.7.6-.7.6-.7.6-.7.6-.7.6-.6.6-.7.6-.7.6-.6.6-.6.6-.7.6-.6.6-.6.6-.5.6-.6.6-.5.6-.6.6-.5.6-.5.6-.4.6-.5.6-.4.6-.4.6-.4.6-.4.6-.3.6-.3.6-.3.6-.3.6-.3.6-.2.6-.2.6-.2.6-.1.6-.2h.6l.6-.2h1.2l.6-.1H129.1l.6.1.6.1.6.1.6.1.6.2.6.1.6.2.6.2.6.2.6.3.6.2.6.3.6.2.6.3.6.3.6.4.6.3.6.4.6.3.6.4.6.4.6.4.6.4.6.4.6.4.6.4.6.5.6.4.6.5.6.5.6.4.6.5.6.5.6.5.6.5.6.5.6.5.6.5.6.5.6.5.6.5.6.5.6.6.6.5.6.5.6.5.6.6.6.5.6.5.6.5.6.5.6.5.6.5.6.6.6.5.6.5.6.4.6.5.6.5.6.5.6.5.6.5.6.4.6.5.6.4.6.5.6.4.6.5.6.4.6.4.6.4.6.5.6.4.6.4.5.3.6.4.6.4.6.4.6.3.6.4.6.4.6.3.6.3.6.4.6.3.6.3.6.3.6.3.6.3.6.3.6.3.6.3.6.3.6.2.6.3.6.2.6.3.6.2.6.3.6.2.6.2.6.2.6.2.6.2.6.2.6.2.6.2.6.2.6.2.6.1.6.2.6.2.6.1.6.2.6.1.6.1.6.2.6.1v4.6z" fill="#1f77b4" opacity=".4" id="patch_12"/><g id="matplotlib.axis_3"><g id="xtick_10"><use x="49.5" xlink:href="#m90d5c38588" y="242.6" stroke="#000" stroke-width=".8" id="line2d_10"/><g id="text_12"><defs><path d="M10.8 73h38.7v-8.4H19.8V46.7q2.2.8 4.3 1.1 2.2.4 4.3.4 12.2 0 19.4-6.7 7-6.7 7-18.1 0-11.8-7.2-18.3-7.4-6.5-20.7-6.5-4.6 0-9.4.8-4.7.7-9.8 2.3v10q4.4-2.5 9.1-3.6 4.7-1.2 9.9-1.2 8.5 0 13.4 4.4 5 4.5 5 12 0 7.7-5 12.1Q35 40 26.7 40q-4 0-7.9-.9-4-.9-8-2.7z" id="DejaVuSans-53"/></defs><g transform="matrix(.1 0 0 -.1 38.4 257.2)"><use xlink:href="#DejaVuSans-48"/><use x="63.6" xlink:href="#DejaVuSans-46"/><use x="95.4" xlink:href="#DejaVuSans-53"/><use x="159" xlink:href="#DejaVuSans-48"/></g></g></g><g id="xtick_11"><use x="95.6" xlink:href="#m90d5c38588" y="242.6" stroke="#000" stroke-width=".8" id="line2d_11"/><g id="text_13"><defs><path d="M8.2 73h46.9v-4.3L28.6 0H18.3l25 64.6H8.1z" id="DejaVuSans-55"/></defs><g transform="matrix(.1 0 0 -.1 84.5 257.2)"><use xlink:href="#DejaVuSans-48"/><use x="63.6" xlink:href="#DejaVuSans-46"/><use x="95.4" xlink:href="#DejaVuSans-55"/><use x="159" xlink:href="#DejaVuSans-53"/></g></g></g><g id="xtick_12"><use x="141.7" xlink:href="#m90d5c38588" y="242.6" stroke="#000" stroke-width=".8" id="line2d_12"/><g transform="matrix(.1 0 0 -.1 130.6 257.2)" id="text_14"><use xlink:href="#DejaVuSans-49"/><use x="63.6" xlink:href="#DejaVuSans-46"/><use x="95.4" xlink:href="#DejaVuSans-48"/><use x="159" xlink:href="#DejaVuSans-48"/></g></g><g id="xtick_13"><use x="187.8" xlink:href="#m90d5c38588" y="242.6" stroke="#000" stroke-width=".8" id="line2d_13"/><g transform="matrix(.1 0 0 -.1 176.7 257.2)" id="text_15"><use xlink:href="#DejaVuSans-49"/><use x="63.6" xlink:href="#DejaVuSans-46"/><use x="95.4" xlink:href="#DejaVuSans-50"/><use x="159" xlink:href="#DejaVuSans-53"/></g></g><g id="xtick_14"><use x="233.9" xlink:href="#m90d5c38588" y="242.6" stroke="#000" stroke-width=".8" id="line2d_14"/><g transform="matrix(.1 0 0 -.1 222.8 257.2)" id="text_16"><use xlink:href="#DejaVuSans-49"/><use x="63.6" xlink:href="#DejaVuSans-46"/><use x="95.4" xlink:href="#DejaVuSans-53"/><use x="159" xlink:href="#DejaVuSans-48"/></g></g><g id="xtick_15"><use x="280" xlink:href="#m90d5c38588" y="242.6" stroke="#000" stroke-width=".8" id="line2d_15"/><g transform="matrix(.1 0 0 -.1 268.9 257.2)" id="text_17"><use xlink:href="#DejaVuSans-49"/><use x="63.6" xlink:href="#DejaVuSans-46"/><use x="95.4" xlink:href="#DejaVuSans-55"/><use x="159" xlink:href="#DejaVuSans-53"/></g></g><g id="xtick_16"><use x="326.1" xlink:href="#m90d5c38588" y="242.6" stroke="#000" stroke-width=".8" id="line2d_16"/><g transform="matrix(.1 0 0 -.1 315 257.2)" id="text_18"><use xlink:href="#DejaVuSans-50"/><use x="63.6" xlink:href="#DejaVuSans-46"/><use x="95.4" xlink:href="#DejaVuSans-48"/><use x="159" xlink:href="#DejaVuSans-48"/></g></g><g id="xtick_17"><use x="372.2" xlink:href="#m90d5c38588" y="242.6" stroke="#000" stroke-width=".8" id="line2d_17"/><g transform="matrix(.1 0 0 -.1 361 257.2)" id="text_19"><use xlink:href="#DejaVuSans-50"/><use x="63.6" xlink:href="#DejaVuSans-46"/><use x="95.4" xlink:href="#DejaVuSans-50"/><use x="159" xlink:href="#DejaVuSans-53"/></g></g><g id="text_20"><defs><path d="M53.5 70.5V61q-5.6 2.7-10.6 4-5 1.3-9.6 1.3-8 0-12.4-3.1t-4.4-8.9q0-4.8 3-7.3 2.8-2.5 11-4l5.9-1.2q11-2.1 16.3-7.4 5.2-5.3 5.2-14.2 0-10.6-7.1-16Q43.7-1.5 30-1.5q-5.2 0-11 1.1Q13 1 6.9 3.3v10.2q6-3.4 11.8-5.1Q24.4 6.6 30 6.6q8.4 0 13 3.3t4.6 9.5q0 5.4-3.3 8.4t-10.8 4.5l-6 1.2q-11 2.2-16 6.9t-5 13q0 9.7 7 15.3 6.7 5.5 18.7 5.5 5.1 0 10.4-1 5.4-.8 11-2.7z" id="DejaVuSans-83"/><path d="M45.4 46.4V76h9V0h-9v8.2Q42.6 3.3 38.3 1q-4.4-2.4-10.4-2.4-10 0-16.2 7.9-6.2 8-6.2 20.8 0 12.9 6.2 20.8Q18 56 28 56q6 0 10.4-2.4 4.3-2.3 7.1-7.2zM14.8 27.3q0-10 4-15.6Q23 6.2 30.2 6.2q7.1 0 11.2 5.7 4.1 5.6 4.1 15.5t-4.1 15.5q-4.1 5.7-11.2 5.7t-11.2-5.7q-4.1-5.6-4.1-15.5z" id="DejaVuSans-100"/></defs><g transform="matrix(.1 0 0 -.1 204 270.9)"><use xlink:href="#DejaVuSans-83"/><use x="63.5" xlink:href="#DejaVuSans-116"/><use x="102.7" xlink:href="#DejaVuSans-100"/></g></g></g><path d="M10.7 242.6h403.4" fill="none" stroke="#000" stroke-linecap="square" stroke-width=".8" id="patch_13"/></g></g><defs><clipPath id="p70dc3b2a4d"><path d="M10.7 7.2h403.4v50.6H10.7z"/></clipPath><clipPath id="p8add885e2b"><path d="M10.7 99.6h403.4v50.6H10.7z"/></clipPath><clipPath id="pd86ef97352"><path d="M10.7 192h403.4v50.6H10.7z"/></clipPath></defs></svg>