<?xml version="1.0" encoding="utf-8" standalone="no"?>
<!DOCTYPE svg PUBLIC "-//W3C//DTD SVG 1.1//EN"
  "http://www.w3.org/Graphics/SVG/1.1/DTD/svg11.dtd">
<!-- Created with matplotlib (https://matplotlib.org/) -->
<svg height="273.599688pt" version="1.1" viewBox="0 0 414.023594 273.599688" width="414.023594pt" xmlns="http://www.w3.org/2000/svg" xmlns:xlink="http://www.w3.org/1999/xlink">
 <defs>
  <style type="text/css">
*{stroke-linecap:butt;stroke-linejoin:round;}
  </style>
 </defs>
 <g id="figure_1">
  <g id="patch_1">
   <path d="M 0 273.599688 
L 414.023594 273.599688 
L 414.023594 0 
L 0 0 
z
" style="fill:#ffffff;"/>
  </g>
  <g id="axes_1">
   <g id="patch_2">
    <path d="M 66.023594 230.64 
L 400.823594 230.64 
L 400.823594 13.2 
L 66.023594 13.2 
z
" style="fill:#eaeaf2;"/>
   </g>
   <g id="matplotlib.axis_1">
    <g id="xtick_1">
     <g id="line2d_1">
      <path clip-path="url(#pf75fa28303)" d="M 81.241776 230.64 
L 81.241776 13.2 
" style="fill:none;stroke:#ffffff;stroke-linecap:round;"/>
     </g>
     <g id="text_1">
      <!-- −3 -->
      <defs>
       <path d="M 10.59375 35.5 
L 73.1875 35.5 
L 73.1875 27.203125 
L 10.59375 27.203125 
z
" id="DejaVuSans-8722"/>
       <path d="M 40.578125 39.3125 
Q 47.65625 37.796875 51.625 33 
Q 55.609375 28.21875 55.609375 21.1875 
Q 55.609375 10.40625 48.1875 4.484375 
Q 40.765625 -1.421875 27.09375 -1.421875 
Q 22.515625 -1.421875 17.65625 -0.515625 
Q 12.796875 0.390625 7.625 2.203125 
L 7.625 11.71875 
Q 11.71875 9.328125 16.59375 8.109375 
Q 21.484375 6.890625 26.8125 6.890625 
Q 36.078125 6.890625 40.9375 10.546875 
Q 45.796875 14.203125 45.796875 21.1875 
Q 45.796875 27.640625 41.28125 31.265625 
Q 36.765625 34.90625 28.71875 34.90625 
L 20.21875 34.90625 
L 20.21875 43.015625 
L 29.109375 43.015625 
Q 36.375 43.015625 40.234375 45.921875 
Q 44.09375 48.828125 44.09375 54.296875 
Q 44.09375 59.90625 40.109375 62.90625 
Q 36.140625 65.921875 28.71875 65.921875 
Q 24.65625 65.921875 20.015625 65.03125 
Q 15.375 64.15625 9.8125 62.3125 
L 9.8125 71.09375 
Q 15.4375 72.65625 20.34375 73.4375 
Q 25.25 74.21875 29.59375 74.21875 
Q 40.828125 74.21875 47.359375 69.109375 
Q 53.90625 64.015625 53.90625 55.328125 
Q 53.90625 49.265625 50.4375 45.09375 
Q 46.96875 40.921875 40.578125 39.3125 
z
" id="DejaVuSans-51"/>
      </defs>
      <g style="fill:#262626;" transform="translate(73.133572 248.498281)scale(0.11 -0.11)">
       <use xlink:href="#DejaVuSans-8722"/>
       <use x="83.789062" xlink:href="#DejaVuSans-51"/>
      </g>
     </g>
    </g>
    <g id="xtick_2">
     <g id="line2d_2">
      <path clip-path="url(#pf75fa28303)" d="M 129.948188 230.64 
L 129.948188 13.2 
" style="fill:none;stroke:#ffffff;stroke-linecap:round;"/>
     </g>
     <g id="text_2">
      <!-- −2 -->
      <defs>
       <path d="M 19.1875 8.296875 
L 53.609375 8.296875 
L 53.609375 0 
L 7.328125 0 
L 7.328125 8.296875 
Q 12.9375 14.109375 22.625 23.890625 
Q 32.328125 33.6875 34.8125 36.53125 
Q 39.546875 41.84375 41.421875 45.53125 
Q 43.3125 49.21875 43.3125 52.78125 
Q 43.3125 58.59375 39.234375 62.25 
Q 35.15625 65.921875 28.609375 65.921875 
Q 23.96875 65.921875 18.8125 64.3125 
Q 13.671875 62.703125 7.8125 59.421875 
L 7.8125 69.390625 
Q 13.765625 71.78125 18.9375 73 
Q 24.125 74.21875 28.421875 74.21875 
Q 39.75 74.21875 46.484375 68.546875 
Q 53.21875 62.890625 53.21875 53.421875 
Q 53.21875 48.921875 51.53125 44.890625 
Q 49.859375 40.875 45.40625 35.40625 
Q 44.1875 33.984375 37.640625 27.21875 
Q 31.109375 20.453125 19.1875 8.296875 
z
" id="DejaVuSans-50"/>
      </defs>
      <g style="fill:#262626;" transform="translate(121.839985 248.498281)scale(0.11 -0.11)">
       <use xlink:href="#DejaVuSans-8722"/>
       <use x="83.789062" xlink:href="#DejaVuSans-50"/>
      </g>
     </g>
    </g>
    <g id="xtick_3">
     <g id="line2d_3">
      <path clip-path="url(#pf75fa28303)" d="M 178.654601 230.64 
L 178.654601 13.2 
" style="fill:none;stroke:#ffffff;stroke-linecap:round;"/>
     </g>
     <g id="text_3">
      <!-- −1 -->
      <defs>
       <path d="M 12.40625 8.296875 
L 28.515625 8.296875 
L 28.515625 63.921875 
L 10.984375 60.40625 
L 10.984375 69.390625 
L 28.421875 72.90625 
L 38.28125 72.90625 
L 38.28125 8.296875 
L 54.390625 8.296875 
L 54.390625 0 
L 12.40625 0 
z
" id="DejaVuSans-49"/>
      </defs>
      <g style="fill:#262626;" transform="translate(170.546398 248.498281)scale(0.11 -0.11)">
       <use xlink:href="#DejaVuSans-8722"/>
       <use x="83.789062" xlink:href="#DejaVuSans-49"/>
      </g>
     </g>
    </g>
    <g id="xtick_4">
     <g id="line2d_4">
      <path clip-path="url(#pf75fa28303)" d="M 227.361014 230.64 
L 227.361014 13.2 
" style="fill:none;stroke:#ffffff;stroke-linecap:round;"/>
     </g>
     <g id="text_4">
      <!-- 0 -->
      <defs>
       <path d="M 31.78125 66.40625 
Q 24.171875 66.40625 20.328125 58.90625 
Q 16.5 51.421875 16.5 36.375 
Q 16.5 21.390625 20.328125 13.890625 
Q 24.171875 6.390625 31.78125 6.390625 
Q 39.453125 6.390625 43.28125 13.890625 
Q 47.125 21.390625 47.125 36.375 
Q 47.125 51.421875 43.28125 58.90625 
Q 39.453125 66.40625 31.78125 66.40625 
z
M 31.78125 74.21875 
Q 44.046875 74.21875 50.515625 64.515625 
Q 56.984375 54.828125 56.984375 36.375 
Q 56.984375 17.96875 50.515625 8.265625 
Q 44.046875 -1.421875 31.78125 -1.421875 
Q 19.53125 -1.421875 13.0625 8.265625 
Q 6.59375 17.96875 6.59375 36.375 
Q 6.59375 54.828125 13.0625 64.515625 
Q 19.53125 74.21875 31.78125 74.21875 
z
" id="DejaVuSans-48"/>
      </defs>
      <g style="fill:#262626;" transform="translate(223.861639 248.498281)scale(0.11 -0.11)">
       <use xlink:href="#DejaVuSans-48"/>
      </g>
     </g>
    </g>
    <g id="xtick_5">
     <g id="line2d_5">
      <path clip-path="url(#pf75fa28303)" d="M 276.067427 230.64 
L 276.067427 13.2 
" style="fill:none;stroke:#ffffff;stroke-linecap:round;"/>
     </g>
     <g id="text_5">
      <!-- 1 -->
      <g style="fill:#262626;" transform="translate(272.568052 248.498281)scale(0.11 -0.11)">
       <use xlink:href="#DejaVuSans-49"/>
      </g>
     </g>
    </g>
    <g id="xtick_6">
     <g id="line2d_6">
      <path clip-path="url(#pf75fa28303)" d="M 324.773839 230.64 
L 324.773839 13.2 
" style="fill:none;stroke:#ffffff;stroke-linecap:round;"/>
     </g>
     <g id="text_6">
      <!-- 2 -->
      <g style="fill:#262626;" transform="translate(321.274464 248.498281)scale(0.11 -0.11)">
       <use xlink:href="#DejaVuSans-50"/>
      </g>
     </g>
    </g>
    <g id="xtick_7">
     <g id="line2d_7">
      <path clip-path="url(#pf75fa28303)" d="M 373.480252 230.64 
L 373.480252 13.2 
" style="fill:none;stroke:#ffffff;stroke-linecap:round;"/>
     </g>
     <g id="text_7">
      <!-- 3 -->
      <g style="fill:#262626;" transform="translate(369.980877 248.498281)scale(0.11 -0.11)">
       <use xlink:href="#DejaVuSans-51"/>
      </g>
     </g>
    </g>
    <g id="text_8">
     <!-- x -->
     <defs>
      <path d="M 54.890625 54.6875 
L 35.109375 28.078125 
L 55.90625 0 
L 45.3125 0 
L 29.390625 21.484375 
L 13.484375 0 
L 2.875 0 
L 24.125 28.609375 
L 4.6875 54.6875 
L 15.28125 54.6875 
L 29.78125 35.203125 
L 44.28125 54.6875 
z
" id="DejaVuSans-120"/>
     </defs>
     <g style="fill:#262626;" transform="translate(229.872344 263.904063)scale(0.12 -0.12)">
      <use xlink:href="#DejaVuSans-120"/>
     </g>
    </g>
   </g>
   <g id="matplotlib.axis_2">
    <g id="ytick_1">
     <g id="line2d_8">
      <path clip-path="url(#pf75fa28303)" d="M 66.023594 221.798609 
L 400.823594 221.798609 
" style="fill:none;stroke:#ffffff;stroke-linecap:round;"/>
     </g>
     <g id="text_9">
      <!-- −10.0 -->
      <defs>
       <path d="M 10.6875 12.40625 
L 21 12.40625 
L 21 0 
L 10.6875 0 
z
" id="DejaVuSans-46"/>
      </defs>
      <g style="fill:#262626;" transform="translate(22.81375 225.977749)scale(0.11 -0.11)">
       <use xlink:href="#DejaVuSans-8722"/>
       <use x="83.789062" xlink:href="#DejaVuSans-49"/>
       <use x="147.412109" xlink:href="#DejaVuSans-48"/>
       <use x="211.035156" xlink:href="#DejaVuSans-46"/>
       <use x="242.822266" xlink:href="#DejaVuSans-48"/>
      </g>
     </g>
    </g>
    <g id="ytick_2">
     <g id="line2d_9">
      <path clip-path="url(#pf75fa28303)" d="M 66.023594 193.506941 
L 400.823594 193.506941 
" style="fill:none;stroke:#ffffff;stroke-linecap:round;"/>
     </g>
     <g id="text_10">
      <!-- −7.5 -->
      <defs>
       <path d="M 8.203125 72.90625 
L 55.078125 72.90625 
L 55.078125 68.703125 
L 28.609375 0 
L 18.3125 0 
L 43.21875 64.59375 
L 8.203125 64.59375 
z
" id="DejaVuSans-55"/>
       <path d="M 10.796875 72.90625 
L 49.515625 72.90625 
L 49.515625 64.59375 
L 19.828125 64.59375 
L 19.828125 46.734375 
Q 21.96875 47.46875 24.109375 47.828125 
Q 26.265625 48.1875 28.421875 48.1875 
Q 40.625 48.1875 47.75 41.5 
Q 54.890625 34.8125 54.890625 23.390625 
Q 54.890625 11.625 47.5625 5.09375 
Q 40.234375 -1.421875 26.90625 -1.421875 
Q 22.3125 -1.421875 17.546875 -0.640625 
Q 12.796875 0.140625 7.71875 1.703125 
L 7.71875 11.625 
Q 12.109375 9.234375 16.796875 8.0625 
Q 21.484375 6.890625 26.703125 6.890625 
Q 35.15625 6.890625 40.078125 11.328125 
Q 45.015625 15.765625 45.015625 23.390625 
Q 45.015625 31 40.078125 35.4375 
Q 35.15625 39.890625 26.703125 39.890625 
Q 22.75 39.890625 18.8125 39.015625 
Q 14.890625 38.140625 10.796875 36.28125 
z
" id="DejaVuSans-53"/>
      </defs>
      <g style="fill:#262626;" transform="translate(29.8125 197.686081)scale(0.11 -0.11)">
       <use xlink:href="#DejaVuSans-8722"/>
       <use x="83.789062" xlink:href="#DejaVuSans-55"/>
       <use x="147.412109" xlink:href="#DejaVuSans-46"/>
       <use x="179.199219" xlink:href="#DejaVuSans-53"/>
      </g>
     </g>
    </g>
    <g id="ytick_3">
     <g id="line2d_10">
      <path clip-path="url(#pf75fa28303)" d="M 66.023594 165.215273 
L 400.823594 165.215273 
" style="fill:none;stroke:#ffffff;stroke-linecap:round;"/>
     </g>
     <g id="text_11">
      <!-- −5.0 -->
      <g style="fill:#262626;" transform="translate(29.8125 169.394413)scale(0.11 -0.11)">
       <use xlink:href="#DejaVuSans-8722"/>
       <use x="83.789062" xlink:href="#DejaVuSans-53"/>
       <use x="147.412109" xlink:href="#DejaVuSans-46"/>
       <use x="179.199219" xlink:href="#DejaVuSans-48"/>
      </g>
     </g>
    </g>
    <g id="ytick_4">
     <g id="line2d_11">
      <path clip-path="url(#pf75fa28303)" d="M 66.023594 136.923604 
L 400.823594 136.923604 
" style="fill:none;stroke:#ffffff;stroke-linecap:round;"/>
     </g>
     <g id="text_12">
      <!-- −2.5 -->
      <g style="fill:#262626;" transform="translate(29.8125 141.102745)scale(0.11 -0.11)">
       <use xlink:href="#DejaVuSans-8722"/>
       <use x="83.789062" xlink:href="#DejaVuSans-50"/>
       <use x="147.412109" xlink:href="#DejaVuSans-46"/>
       <use x="179.199219" xlink:href="#DejaVuSans-53"/>
      </g>
     </g>
    </g>
    <g id="ytick_5">
     <g id="line2d_12">
      <path clip-path="url(#pf75fa28303)" d="M 66.023594 108.631936 
L 400.823594 108.631936 
" style="fill:none;stroke:#ffffff;stroke-linecap:round;"/>
     </g>
     <g id="text_13">
      <!-- 0.0 -->
      <g style="fill:#262626;" transform="translate(39.030156 112.811077)scale(0.11 -0.11)">
       <use xlink:href="#DejaVuSans-48"/>
       <use x="63.623047" xlink:href="#DejaVuSans-46"/>
       <use x="95.410156" xlink:href="#DejaVuSans-48"/>
      </g>
     </g>
    </g>
    <g id="ytick_6">
     <g id="line2d_13">
      <path clip-path="url(#pf75fa28303)" d="M 66.023594 80.340268 
L 400.823594 80.340268 
" style="fill:none;stroke:#ffffff;stroke-linecap:round;"/>
     </g>
     <g id="text_14">
      <!-- 2.5 -->
      <g style="fill:#262626;" transform="translate(39.030156 84.519409)scale(0.11 -0.11)">
       <use xlink:href="#DejaVuSans-50"/>
       <use x="63.623047" xlink:href="#DejaVuSans-46"/>
       <use x="95.410156" xlink:href="#DejaVuSans-53"/>
      </g>
     </g>
    </g>
    <g id="ytick_7">
     <g id="line2d_14">
      <path clip-path="url(#pf75fa28303)" d="M 66.023594 52.0486 
L 400.823594 52.0486 
" style="fill:none;stroke:#ffffff;stroke-linecap:round;"/>
     </g>
     <g id="text_15">
      <!-- 5.0 -->
      <g style="fill:#262626;" transform="translate(39.030156 56.227741)scale(0.11 -0.11)">
       <use xlink:href="#DejaVuSans-53"/>
       <use x="63.623047" xlink:href="#DejaVuSans-46"/>
       <use x="95.410156" xlink:href="#DejaVuSans-48"/>
      </g>
     </g>
    </g>
    <g id="ytick_8">
     <g id="line2d_15">
      <path clip-path="url(#pf75fa28303)" d="M 66.023594 23.756932 
L 400.823594 23.756932 
" style="fill:none;stroke:#ffffff;stroke-linecap:round;"/>
     </g>
     <g id="text_16">
      <!-- 7.5 -->
      <g style="fill:#262626;" transform="translate(39.030156 27.936073)scale(0.11 -0.11)">
       <use xlink:href="#DejaVuSans-55"/>
       <use x="63.623047" xlink:href="#DejaVuSans-46"/>
       <use x="95.410156" xlink:href="#DejaVuSans-53"/>
      </g>
     </g>
    </g>
    <g id="text_17">
     <!-- y -->
     <defs>
      <path d="M 32.171875 -5.078125 
Q 28.375 -14.84375 24.75 -17.8125 
Q 21.140625 -20.796875 15.09375 -20.796875 
L 7.90625 -20.796875 
L 7.90625 -13.28125 
L 13.1875 -13.28125 
Q 16.890625 -13.28125 18.9375 -11.515625 
Q 21 -9.765625 23.484375 -3.21875 
L 25.09375 0.875 
L 2.984375 54.6875 
L 12.5 54.6875 
L 29.59375 11.921875 
L 46.6875 54.6875 
L 56.203125 54.6875 
z
" id="DejaVuSans-121"/>
     </defs>
     <g style="fill:#262626;" transform="translate(16.318125 125.47125)rotate(-90)scale(0.12 -0.12)">
      <use xlink:href="#DejaVuSans-121"/>
     </g>
    </g>
   </g>
   <g id="line2d_16">
    <path clip-path="url(#pf75fa28303)" d="M 81.241776 190.827438 
L 373.480252 46.905075 
" style="fill:none;stroke:#c44e52;stroke-linecap:round;stroke-opacity:0.1;stroke-width:1.5;"/>
   </g>
   <g id="line2d_17">
    <path clip-path="url(#pf75fa28303)" d="M 81.241776 188.112341 
L 373.480252 38.876398 
" style="fill:none;stroke:#c44e52;stroke-linecap:round;stroke-opacity:0.1;stroke-width:1.5;"/>
   </g>
   <g id="line2d_18">
    <path clip-path="url(#pf75fa28303)" d="M 81.241776 166.940348 
L 373.480252 23.083636 
" style="fill:none;stroke:#c44e52;stroke-linecap:round;stroke-opacity:0.1;stroke-width:1.5;"/>
   </g>
   <g id="line2d_19">
    <path clip-path="url(#pf75fa28303)" d="M 81.241776 185.338507 
L 373.480252 66.163762 
" style="fill:none;stroke:#c44e52;stroke-linecap:round;stroke-opacity:0.1;stroke-width:1.5;"/>
   </g>
   <g id="line2d_20">
    <path clip-path="url(#pf75fa28303)" d="M 81.241776 165.432373 
L 373.480252 67.809371 
" style="fill:none;stroke:#c44e52;stroke-linecap:round;stroke-opacity:0.1;stroke-width:1.5;"/>
   </g>
   <g id="line2d_21">
    <path clip-path="url(#pf75fa28303)" d="M 81.241776 194.182789 
L 373.480252 55.616416 
" style="fill:none;stroke:#c44e52;stroke-linecap:round;stroke-opacity:0.1;stroke-width:1.5;"/>
   </g>
   <g id="line2d_22">
    <path clip-path="url(#pf75fa28303)" d="M 81.241776 195.500186 
L 373.480252 72.949515 
" style="fill:none;stroke:#c44e52;stroke-linecap:round;stroke-opacity:0.1;stroke-width:1.5;"/>
   </g>
   <g id="line2d_23">
    <path clip-path="url(#pf75fa28303)" d="M 81.241776 189.83344 
L 373.480252 73.896457 
" style="fill:none;stroke:#c44e52;stroke-linecap:round;stroke-opacity:0.1;stroke-width:1.5;"/>
   </g>
   <g id="line2d_24">
    <path clip-path="url(#pf75fa28303)" d="M 81.241776 193.263701 
L 373.480252 58.285828 
" style="fill:none;stroke:#c44e52;stroke-linecap:round;stroke-opacity:0.1;stroke-width:1.5;"/>
   </g>
   <g id="line2d_25">
    <path clip-path="url(#pf75fa28303)" d="M 81.241776 183.53925 
L 373.480252 33.593954 
" style="fill:none;stroke:#c44e52;stroke-linecap:round;stroke-opacity:0.1;stroke-width:1.5;"/>
   </g>
   <g id="line2d_26">
    <path clip-path="url(#pf75fa28303)" d="M 81.241776 176.111964 
L 373.480252 53.144958 
" style="fill:none;stroke:#c44e52;stroke-linecap:round;stroke-opacity:0.1;stroke-width:1.5;"/>
   </g>
   <g id="line2d_27">
    <path clip-path="url(#pf75fa28303)" d="M 81.241776 185.487318 
L 373.480252 75.863423 
" style="fill:none;stroke:#c44e52;stroke-linecap:round;stroke-opacity:0.1;stroke-width:1.5;"/>
   </g>
   <g id="line2d_28">
    <path clip-path="url(#pf75fa28303)" d="M 81.241776 175.080009 
L 373.480252 58.087981 
" style="fill:none;stroke:#c44e52;stroke-linecap:round;stroke-opacity:0.1;stroke-width:1.5;"/>
   </g>
   <g id="line2d_29">
    <path clip-path="url(#pf75fa28303)" d="M 81.241776 186.184811 
L 373.480252 48.342544 
" style="fill:none;stroke:#c44e52;stroke-linecap:round;stroke-opacity:0.1;stroke-width:1.5;"/>
   </g>
   <g id="line2d_30">
    <path clip-path="url(#pf75fa28303)" d="M 81.241776 220.756364 
L 373.480252 36.011255 
" style="fill:none;stroke:#c44e52;stroke-linecap:round;stroke-opacity:0.1;stroke-width:1.5;"/>
   </g>
   <g id="line2d_31">
    <path clip-path="url(#pf75fa28303)" d="M 81.241776 173.196976 
L 373.480252 33.239239 
" style="fill:none;stroke:#c44e52;stroke-linecap:round;stroke-opacity:0.1;stroke-width:1.5;"/>
   </g>
   <g id="line2d_32">
    <path clip-path="url(#pf75fa28303)" d="M 81.241776 184.318646 
L 373.480252 47.613187 
" style="fill:none;stroke:#c44e52;stroke-linecap:round;stroke-opacity:0.1;stroke-width:1.5;"/>
   </g>
   <g id="line2d_33">
    <path clip-path="url(#pf75fa28303)" d="M 81.241776 180.291413 
L 373.480252 66.974602 
" style="fill:none;stroke:#c44e52;stroke-linecap:round;stroke-opacity:0.1;stroke-width:1.5;"/>
   </g>
   <g id="line2d_34">
    <path clip-path="url(#pf75fa28303)" d="M 81.241776 182.024264 
L 373.480252 67.843666 
" style="fill:none;stroke:#c44e52;stroke-linecap:round;stroke-opacity:0.1;stroke-width:1.5;"/>
   </g>
   <g id="line2d_35">
    <path clip-path="url(#pf75fa28303)" d="M 81.241776 191.531653 
L 373.480252 84.192737 
" style="fill:none;stroke:#c44e52;stroke-linecap:round;stroke-opacity:0.1;stroke-width:1.5;"/>
   </g>
   <g id="line2d_36">
    <path clip-path="url(#pf75fa28303)" d="M 81.241776 176.137617 
L 373.480252 43.853919 
" style="fill:none;stroke:#c44e52;stroke-linecap:round;stroke-opacity:0.1;stroke-width:1.5;"/>
   </g>
   <g id="line2d_37">
    <path clip-path="url(#pf75fa28303)" d="M 81.241776 178.051161 
L 373.480252 52.248211 
" style="fill:none;stroke:#c44e52;stroke-linecap:round;stroke-opacity:0.1;stroke-width:1.5;"/>
   </g>
   <g id="line2d_38">
    <path clip-path="url(#pf75fa28303)" d="M 81.241776 197.83022 
L 373.480252 66.277584 
" style="fill:none;stroke:#c44e52;stroke-linecap:round;stroke-opacity:0.1;stroke-width:1.5;"/>
   </g>
   <g id="line2d_39">
    <path clip-path="url(#pf75fa28303)" d="M 81.241776 182.423972 
L 373.480252 48.652114 
" style="fill:none;stroke:#c44e52;stroke-linecap:round;stroke-opacity:0.1;stroke-width:1.5;"/>
   </g>
   <g id="line2d_40">
    <path clip-path="url(#pf75fa28303)" d="M 81.241776 196.31033 
L 373.480252 52.027798 
" style="fill:none;stroke:#c44e52;stroke-linecap:round;stroke-opacity:0.1;stroke-width:1.5;"/>
   </g>
   <g id="line2d_41">
    <path clip-path="url(#pf75fa28303)" d="M 81.241776 196.400365 
L 373.480252 65.757409 
" style="fill:none;stroke:#c44e52;stroke-linecap:round;stroke-opacity:0.1;stroke-width:1.5;"/>
   </g>
   <g id="line2d_42">
    <path clip-path="url(#pf75fa28303)" d="M 81.241776 177.214776 
L 373.480252 48.52131 
" style="fill:none;stroke:#c44e52;stroke-linecap:round;stroke-opacity:0.1;stroke-width:1.5;"/>
   </g>
   <g id="line2d_43">
    <path clip-path="url(#pf75fa28303)" d="M 81.241776 190.401078 
L 373.480252 51.887361 
" style="fill:none;stroke:#c44e52;stroke-linecap:round;stroke-opacity:0.1;stroke-width:1.5;"/>
   </g>
   <g id="line2d_44">
    <path clip-path="url(#pf75fa28303)" d="M 81.241776 183.264167 
L 373.480252 53.035394 
" style="fill:none;stroke:#c44e52;stroke-linecap:round;stroke-opacity:0.1;stroke-width:1.5;"/>
   </g>
   <g id="line2d_45">
    <path clip-path="url(#pf75fa28303)" d="M 81.241776 184.741902 
L 373.480252 57.861136 
" style="fill:none;stroke:#c44e52;stroke-linecap:round;stroke-opacity:0.1;stroke-width:1.5;"/>
   </g>
   <g id="line2d_46">
    <path clip-path="url(#pf75fa28303)" d="M 81.241776 190.68419 
L 373.480252 51.195287 
" style="fill:none;stroke:#c44e52;stroke-linecap:round;stroke-opacity:0.1;stroke-width:1.5;"/>
   </g>
   <g id="line2d_47">
    <path clip-path="url(#pf75fa28303)" d="M 81.241776 191.88687 
L 373.480252 47.7503 
" style="fill:none;stroke:#c44e52;stroke-linecap:round;stroke-opacity:0.1;stroke-width:1.5;"/>
   </g>
   <g id="line2d_48">
    <path clip-path="url(#pf75fa28303)" d="M 81.241776 185.264876 
L 373.480252 55.380391 
" style="fill:none;stroke:#c44e52;stroke-linecap:round;stroke-opacity:0.1;stroke-width:1.5;"/>
   </g>
   <g id="line2d_49">
    <path clip-path="url(#pf75fa28303)" d="M 81.241776 189.620479 
L 373.480252 66.240356 
" style="fill:none;stroke:#c44e52;stroke-linecap:round;stroke-opacity:0.1;stroke-width:1.5;"/>
   </g>
   <g id="line2d_50">
    <path clip-path="url(#pf75fa28303)" d="M 81.241776 192.743151 
L 373.480252 70.485714 
" style="fill:none;stroke:#c44e52;stroke-linecap:round;stroke-opacity:0.1;stroke-width:1.5;"/>
   </g>
   <g id="line2d_51">
    <path clip-path="url(#pf75fa28303)" d="M 81.241776 186.556642 
L 373.480252 46.531442 
" style="fill:none;stroke:#c44e52;stroke-linecap:round;stroke-opacity:0.1;stroke-width:1.5;"/>
   </g>
   <g id="line2d_52">
    <path clip-path="url(#pf75fa28303)" d="M 81.241776 191.010795 
L 373.480252 51.841262 
" style="fill:none;stroke:#c44e52;stroke-linecap:round;stroke-opacity:0.1;stroke-width:1.5;"/>
   </g>
   <g id="line2d_53">
    <path clip-path="url(#pf75fa28303)" d="M 81.241776 176.000564 
L 373.480252 54.825359 
" style="fill:none;stroke:#c44e52;stroke-linecap:round;stroke-opacity:0.1;stroke-width:1.5;"/>
   </g>
   <g id="line2d_54">
    <path clip-path="url(#pf75fa28303)" d="M 81.241776 175.887282 
L 373.480252 37.836317 
" style="fill:none;stroke:#c44e52;stroke-linecap:round;stroke-opacity:0.1;stroke-width:1.5;"/>
   </g>
   <g id="line2d_55">
    <path clip-path="url(#pf75fa28303)" d="M 81.241776 199.529874 
L 373.480252 51.159553 
" style="fill:none;stroke:#c44e52;stroke-linecap:round;stroke-opacity:0.1;stroke-width:1.5;"/>
   </g>
   <g id="line2d_56">
    <path clip-path="url(#pf75fa28303)" d="M 81.241776 197.488921 
L 373.480252 50.166716 
" style="fill:none;stroke:#c44e52;stroke-linecap:round;stroke-opacity:0.1;stroke-width:1.5;"/>
   </g>
   <g id="line2d_57">
    <path clip-path="url(#pf75fa28303)" d="M 81.241776 199.575149 
L 373.480252 55.59243 
" style="fill:none;stroke:#c44e52;stroke-linecap:round;stroke-opacity:0.1;stroke-width:1.5;"/>
   </g>
   <g id="line2d_58">
    <path clip-path="url(#pf75fa28303)" d="M 81.241776 177.339207 
L 373.480252 48.005686 
" style="fill:none;stroke:#c44e52;stroke-linecap:round;stroke-opacity:0.1;stroke-width:1.5;"/>
   </g>
   <g id="line2d_59">
    <path clip-path="url(#pf75fa28303)" d="M 81.241776 179.747669 
L 373.480252 46.796482 
" style="fill:none;stroke:#c44e52;stroke-linecap:round;stroke-opacity:0.1;stroke-width:1.5;"/>
   </g>
   <g id="line2d_60">
    <path clip-path="url(#pf75fa28303)" d="M 81.241776 180.057487 
L 373.480252 52.535165 
" style="fill:none;stroke:#c44e52;stroke-linecap:round;stroke-opacity:0.1;stroke-width:1.5;"/>
   </g>
   <g id="line2d_61">
    <path clip-path="url(#pf75fa28303)" d="M 81.241776 154.235901 
L 373.480252 59.135126 
" style="fill:none;stroke:#c44e52;stroke-linecap:round;stroke-opacity:0.1;stroke-width:1.5;"/>
   </g>
   <g id="line2d_62">
    <path clip-path="url(#pf75fa28303)" d="M 81.241776 197.832621 
L 373.480252 75.514424 
" style="fill:none;stroke:#c44e52;stroke-linecap:round;stroke-opacity:0.1;stroke-width:1.5;"/>
   </g>
   <g id="line2d_63">
    <path clip-path="url(#pf75fa28303)" d="M 81.241776 193.081746 
L 373.480252 54.544427 
" style="fill:none;stroke:#c44e52;stroke-linecap:round;stroke-opacity:0.1;stroke-width:1.5;"/>
   </g>
   <g id="line2d_64">
    <path clip-path="url(#pf75fa28303)" d="M 81.241776 187.490245 
L 373.480252 66.49156 
" style="fill:none;stroke:#c44e52;stroke-linecap:round;stroke-opacity:0.1;stroke-width:1.5;"/>
   </g>
   <g id="line2d_65">
    <path clip-path="url(#pf75fa28303)" d="M 81.241776 182.672398 
L 373.480252 44.061603 
" style="fill:none;stroke:#c44e52;stroke-linecap:round;stroke-opacity:0.1;stroke-width:1.5;"/>
   </g>
   <g id="line2d_66">
    <path clip-path="url(#pf75fa28303)" d="M 81.241776 192.500445 
L 373.480252 36.246427 
" style="fill:none;stroke:#c44e52;stroke-linecap:round;stroke-opacity:0.1;stroke-width:1.5;"/>
   </g>
   <g id="line2d_67">
    <path clip-path="url(#pf75fa28303)" d="M 81.241776 172.140776 
L 373.480252 45.727218 
" style="fill:none;stroke:#c44e52;stroke-linecap:round;stroke-opacity:0.1;stroke-width:1.5;"/>
   </g>
   <g id="line2d_68">
    <path clip-path="url(#pf75fa28303)" d="M 81.241776 194.875338 
L 373.480252 54.095193 
" style="fill:none;stroke:#c44e52;stroke-linecap:round;stroke-opacity:0.1;stroke-width:1.5;"/>
   </g>
   <g id="line2d_69">
    <path clip-path="url(#pf75fa28303)" d="M 81.241776 165.617128 
L 373.480252 35.439516 
" style="fill:none;stroke:#c44e52;stroke-linecap:round;stroke-opacity:0.1;stroke-width:1.5;"/>
   </g>
   <g id="line2d_70">
    <path clip-path="url(#pf75fa28303)" d="M 81.241776 184.151676 
L 373.480252 53.683003 
" style="fill:none;stroke:#c44e52;stroke-linecap:round;stroke-opacity:0.1;stroke-width:1.5;"/>
   </g>
   <g id="line2d_71">
    <path clip-path="url(#pf75fa28303)" d="M 81.241776 202.617455 
L 373.480252 58.185761 
" style="fill:none;stroke:#c44e52;stroke-linecap:round;stroke-opacity:0.1;stroke-width:1.5;"/>
   </g>
   <g id="line2d_72">
    <path clip-path="url(#pf75fa28303)" d="M 81.241776 189.290808 
L 373.480252 52.628293 
" style="fill:none;stroke:#c44e52;stroke-linecap:round;stroke-opacity:0.1;stroke-width:1.5;"/>
   </g>
   <g id="line2d_73">
    <path clip-path="url(#pf75fa28303)" d="M 81.241776 184.040735 
L 373.480252 58.988193 
" style="fill:none;stroke:#c44e52;stroke-linecap:round;stroke-opacity:0.1;stroke-width:1.5;"/>
   </g>
   <g id="line2d_74">
    <path clip-path="url(#pf75fa28303)" d="M 81.241776 196.576616 
L 373.480252 67.849321 
" style="fill:none;stroke:#c44e52;stroke-linecap:round;stroke-opacity:0.1;stroke-width:1.5;"/>
   </g>
   <g id="line2d_75">
    <path clip-path="url(#pf75fa28303)" d="M 81.241776 200.826928 
L 373.480252 72.587559 
" style="fill:none;stroke:#c44e52;stroke-linecap:round;stroke-opacity:0.1;stroke-width:1.5;"/>
   </g>
   <g id="line2d_76">
    <path clip-path="url(#pf75fa28303)" d="M 81.241776 167.990283 
L 373.480252 46.458242 
" style="fill:none;stroke:#c44e52;stroke-linecap:round;stroke-opacity:0.1;stroke-width:1.5;"/>
   </g>
   <g id="line2d_77">
    <path clip-path="url(#pf75fa28303)" d="M 81.241776 183.427257 
L 373.480252 53.088665 
" style="fill:none;stroke:#c44e52;stroke-linecap:round;stroke-opacity:0.1;stroke-width:1.5;"/>
   </g>
   <g id="line2d_78">
    <path clip-path="url(#pf75fa28303)" d="M 81.241776 182.44471 
L 373.480252 47.597555 
" style="fill:none;stroke:#c44e52;stroke-linecap:round;stroke-opacity:0.1;stroke-width:1.5;"/>
   </g>
   <g id="line2d_79">
    <path clip-path="url(#pf75fa28303)" d="M 81.241776 199.086328 
L 373.480252 35.843196 
" style="fill:none;stroke:#c44e52;stroke-linecap:round;stroke-opacity:0.1;stroke-width:1.5;"/>
   </g>
   <g id="line2d_80">
    <path clip-path="url(#pf75fa28303)" d="M 81.241776 186.966845 
L 373.480252 51.505898 
" style="fill:none;stroke:#c44e52;stroke-linecap:round;stroke-opacity:0.1;stroke-width:1.5;"/>
   </g>
   <g id="line2d_81">
    <path clip-path="url(#pf75fa28303)" d="M 81.241776 184.5136 
L 373.480252 55.816032 
" style="fill:none;stroke:#c44e52;stroke-linecap:round;stroke-opacity:0.1;stroke-width:1.5;"/>
   </g>
   <g id="line2d_82">
    <path clip-path="url(#pf75fa28303)" d="M 81.241776 175.793949 
L 373.480252 51.680741 
" style="fill:none;stroke:#c44e52;stroke-linecap:round;stroke-opacity:0.1;stroke-width:1.5;"/>
   </g>
   <g id="line2d_83">
    <path clip-path="url(#pf75fa28303)" d="M 81.241776 183.153804 
L 373.480252 76.184455 
" style="fill:none;stroke:#c44e52;stroke-linecap:round;stroke-opacity:0.1;stroke-width:1.5;"/>
   </g>
   <g id="line2d_84">
    <path clip-path="url(#pf75fa28303)" d="M 81.241776 171.45093 
L 373.480252 56.336939 
" style="fill:none;stroke:#c44e52;stroke-linecap:round;stroke-opacity:0.1;stroke-width:1.5;"/>
   </g>
   <g id="line2d_85">
    <path clip-path="url(#pf75fa28303)" d="M 81.241776 175.834199 
L 373.480252 67.053359 
" style="fill:none;stroke:#c44e52;stroke-linecap:round;stroke-opacity:0.1;stroke-width:1.5;"/>
   </g>
   <g id="line2d_86">
    <path clip-path="url(#pf75fa28303)" d="M 81.241776 184.849632 
L 373.480252 51.178073 
" style="fill:none;stroke:#c44e52;stroke-linecap:round;stroke-opacity:0.1;stroke-width:1.5;"/>
   </g>
   <g id="line2d_87">
    <path clip-path="url(#pf75fa28303)" d="M 81.241776 183.952572 
L 373.480252 45.951382 
" style="fill:none;stroke:#c44e52;stroke-linecap:round;stroke-opacity:0.1;stroke-width:1.5;"/>
   </g>
   <g id="line2d_88">
    <path clip-path="url(#pf75fa28303)" d="M 81.241776 189.916202 
L 373.480252 57.84403 
" style="fill:none;stroke:#c44e52;stroke-linecap:round;stroke-opacity:0.1;stroke-width:1.5;"/>
   </g>
   <g id="line2d_89">
    <path clip-path="url(#pf75fa28303)" d="M 81.241776 195.742125 
L 373.480252 64.129273 
" style="fill:none;stroke:#c44e52;stroke-linecap:round;stroke-opacity:0.1;stroke-width:1.5;"/>
   </g>
   <g id="line2d_90">
    <path clip-path="url(#pf75fa28303)" d="M 81.241776 187.822133 
L 373.480252 70.715892 
" style="fill:none;stroke:#c44e52;stroke-linecap:round;stroke-opacity:0.1;stroke-width:1.5;"/>
   </g>
   <g id="line2d_91">
    <path clip-path="url(#pf75fa28303)" d="M 81.241776 160.728407 
L 373.480252 61.489454 
" style="fill:none;stroke:#c44e52;stroke-linecap:round;stroke-opacity:0.1;stroke-width:1.5;"/>
   </g>
   <g id="line2d_92">
    <path clip-path="url(#pf75fa28303)" d="M 81.241776 178.964696 
L 373.480252 49.186328 
" style="fill:none;stroke:#c44e52;stroke-linecap:round;stroke-opacity:0.1;stroke-width:1.5;"/>
   </g>
   <g id="line2d_93">
    <path clip-path="url(#pf75fa28303)" d="M 81.241776 171.844972 
L 373.480252 46.053975 
" style="fill:none;stroke:#c44e52;stroke-linecap:round;stroke-opacity:0.1;stroke-width:1.5;"/>
   </g>
   <g id="line2d_94">
    <path clip-path="url(#pf75fa28303)" d="M 81.241776 204.373823 
L 373.480252 69.432887 
" style="fill:none;stroke:#c44e52;stroke-linecap:round;stroke-opacity:0.1;stroke-width:1.5;"/>
   </g>
   <g id="line2d_95">
    <path clip-path="url(#pf75fa28303)" d="M 81.241776 191.836626 
L 373.480252 60.985702 
" style="fill:none;stroke:#c44e52;stroke-linecap:round;stroke-opacity:0.1;stroke-width:1.5;"/>
   </g>
   <g id="line2d_96">
    <path clip-path="url(#pf75fa28303)" d="M 81.241776 181.306563 
L 373.480252 54.306918 
" style="fill:none;stroke:#c44e52;stroke-linecap:round;stroke-opacity:0.1;stroke-width:1.5;"/>
   </g>
   <g id="line2d_97">
    <path clip-path="url(#pf75fa28303)" d="M 81.241776 213.757461 
L 373.480252 57.144282 
" style="fill:none;stroke:#c44e52;stroke-linecap:round;stroke-opacity:0.1;stroke-width:1.5;"/>
   </g>
   <g id="line2d_98">
    <path clip-path="url(#pf75fa28303)" d="M 81.241776 178.378155 
L 373.480252 57.093482 
" style="fill:none;stroke:#c44e52;stroke-linecap:round;stroke-opacity:0.1;stroke-width:1.5;"/>
   </g>
   <g id="line2d_99">
    <path clip-path="url(#pf75fa28303)" d="M 81.241776 184.777706 
L 373.480252 69.780144 
" style="fill:none;stroke:#c44e52;stroke-linecap:round;stroke-opacity:0.1;stroke-width:1.5;"/>
   </g>
   <g id="line2d_100">
    <path clip-path="url(#pf75fa28303)" d="M 81.241776 189.640671 
L 373.480252 64.286597 
" style="fill:none;stroke:#c44e52;stroke-linecap:round;stroke-opacity:0.1;stroke-width:1.5;"/>
   </g>
   <g id="line2d_101">
    <path clip-path="url(#pf75fa28303)" d="M 81.241776 197.746584 
L 373.480252 56.944401 
" style="fill:none;stroke:#c44e52;stroke-linecap:round;stroke-opacity:0.1;stroke-width:1.5;"/>
   </g>
   <g id="line2d_102">
    <path clip-path="url(#pf75fa28303)" d="M 81.241776 193.708942 
L 373.480252 30.89027 
" style="fill:none;stroke:#c44e52;stroke-linecap:round;stroke-opacity:0.1;stroke-width:1.5;"/>
   </g>
   <g id="line2d_103">
    <path clip-path="url(#pf75fa28303)" d="M 81.241776 192.414737 
L 373.480252 50.290634 
" style="fill:none;stroke:#c44e52;stroke-linecap:round;stroke-opacity:0.1;stroke-width:1.5;"/>
   </g>
   <g id="line2d_104">
    <path clip-path="url(#pf75fa28303)" d="M 81.241776 194.913656 
L 373.480252 57.514311 
" style="fill:none;stroke:#c44e52;stroke-linecap:round;stroke-opacity:0.1;stroke-width:1.5;"/>
   </g>
   <g id="line2d_105">
    <path clip-path="url(#pf75fa28303)" d="M 81.241776 183.071539 
L 373.480252 60.4938 
" style="fill:none;stroke:#c44e52;stroke-linecap:round;stroke-opacity:0.1;stroke-width:1.5;"/>
   </g>
   <g id="line2d_106">
    <path clip-path="url(#pf75fa28303)" d="M 81.241776 176.398983 
L 373.480252 46.470503 
" style="fill:none;stroke:#c44e52;stroke-linecap:round;stroke-opacity:0.1;stroke-width:1.5;"/>
   </g>
   <g id="line2d_107">
    <path clip-path="url(#pf75fa28303)" d="M 81.241776 186.984674 
L 373.480252 62.021309 
" style="fill:none;stroke:#c44e52;stroke-linecap:round;stroke-opacity:0.1;stroke-width:1.5;"/>
   </g>
   <g id="line2d_108">
    <path clip-path="url(#pf75fa28303)" d="M 81.241776 179.668334 
L 373.480252 48.625494 
" style="fill:none;stroke:#c44e52;stroke-linecap:round;stroke-opacity:0.1;stroke-width:1.5;"/>
   </g>
   <g id="line2d_109">
    <path clip-path="url(#pf75fa28303)" d="M 81.241776 174.359216 
L 373.480252 56.506483 
" style="fill:none;stroke:#c44e52;stroke-linecap:round;stroke-opacity:0.1;stroke-width:1.5;"/>
   </g>
   <g id="line2d_110">
    <path clip-path="url(#pf75fa28303)" d="M 81.241776 192.158401 
L 373.480252 45.250571 
" style="fill:none;stroke:#c44e52;stroke-linecap:round;stroke-opacity:0.1;stroke-width:1.5;"/>
   </g>
   <g id="line2d_111">
    <path clip-path="url(#pf75fa28303)" d="M 81.241776 190.197555 
L 373.480252 65.971482 
" style="fill:none;stroke:#c44e52;stroke-linecap:round;stroke-opacity:0.1;stroke-width:1.5;"/>
   </g>
   <g id="line2d_112">
    <path clip-path="url(#pf75fa28303)" d="M 81.241776 187.52287 
L 373.480252 64.763829 
" style="fill:none;stroke:#c44e52;stroke-linecap:round;stroke-opacity:0.1;stroke-width:1.5;"/>
   </g>
   <g id="line2d_113">
    <path clip-path="url(#pf75fa28303)" d="M 81.241776 184.127814 
L 373.480252 55.044499 
" style="fill:none;stroke:#c44e52;stroke-linecap:round;stroke-opacity:0.1;stroke-width:1.5;"/>
   </g>
   <g id="line2d_114">
    <path clip-path="url(#pf75fa28303)" d="M 81.241776 203.081744 
L 373.480252 76.176684 
" style="fill:none;stroke:#c44e52;stroke-linecap:round;stroke-opacity:0.1;stroke-width:1.5;"/>
   </g>
   <g id="line2d_115">
    <path clip-path="url(#pf75fa28303)" d="M 81.241776 162.650466 
L 373.480252 53.937802 
" style="fill:none;stroke:#c44e52;stroke-linecap:round;stroke-opacity:0.1;stroke-width:1.5;"/>
   </g>
   <g id="line2d_116">
    <defs>
     <path d="M 0 1.5 
C 0.397805 1.5 0.77937 1.341951 1.06066 1.06066 
C 1.341951 0.77937 1.5 0.397805 1.5 0 
C 1.5 -0.397805 1.341951 -0.77937 1.06066 -1.06066 
C 0.77937 -1.341951 0.397805 -1.5 0 -1.5 
C -0.397805 -1.5 -0.77937 -1.341951 -1.06066 -1.06066 
C -1.341951 -0.77937 -1.5 -0.397805 -1.5 0 
C -1.5 0.397805 -1.341951 0.77937 -1.06066 1.06066 
C -0.77937 1.341951 -0.397805 1.5 0 1.5 
z
" id="mbf252e9863" style="stroke:#4c72b0;"/>
    </defs>
    <g clip-path="url(#pf75fa28303)">
     <use style="fill:#4c72b0;stroke:#4c72b0;" x="217.390438" xlink:href="#mbf252e9863" y="142.29984"/>
     <use style="fill:#4c72b0;stroke:#4c72b0;" x="250.688626" xlink:href="#mbf252e9863" y="115.474598"/>
     <use style="fill:#4c72b0;stroke:#4c72b0;" x="202.061016" xlink:href="#mbf252e9863" y="132.074883"/>
     <use style="fill:#4c72b0;stroke:#4c72b0;" x="200.293385" xlink:href="#mbf252e9863" y="143.039887"/>
     <use style="fill:#4c72b0;stroke:#4c72b0;" x="323.107136" xlink:href="#mbf252e9863" y="80.917546"/>
     <use style="fill:#4c72b0;stroke:#4c72b0;" x="295.228812" xlink:href="#mbf252e9863" y="88.82157"/>
     <use style="fill:#4c72b0;stroke:#4c72b0;" x="231.886223" xlink:href="#mbf252e9863" y="105.449623"/>
     <use style="fill:#4c72b0;stroke:#4c72b0;" x="241.083858" xlink:href="#mbf252e9863" y="102.470907"/>
     <use style="fill:#4c72b0;stroke:#4c72b0;" x="264.817345" xlink:href="#mbf252e9863" y="109.214094"/>
     <use style="fill:#4c72b0;stroke:#4c72b0;" x="288.070376" xlink:href="#mbf252e9863" y="73.838057"/>
     <use style="fill:#4c72b0;stroke:#4c72b0;" x="276.417596" xlink:href="#mbf252e9863" y="103.136065"/>
     <use style="fill:#4c72b0;stroke:#4c72b0;" x="164.226732" xlink:href="#mbf252e9863" y="144.114671"/>
     <use style="fill:#4c72b0;stroke:#4c72b0;" x="240.75487" xlink:href="#mbf252e9863" y="103.200479"/>
     <use style="fill:#4c72b0;stroke:#4c72b0;" x="238.510539" xlink:href="#mbf252e9863" y="132.526456"/>
     <use style="fill:#4c72b0;stroke:#4c72b0;" x="293.25674" xlink:href="#mbf252e9863" y="100.898729"/>
     <use style="fill:#4c72b0;stroke:#4c72b0;" x="270.535809" xlink:href="#mbf252e9863" y="104.444409"/>
     <use style="fill:#4c72b0;stroke:#4c72b0;" x="129.868445" xlink:href="#mbf252e9863" y="162.757154"/>
     <use style="fill:#4c72b0;stroke:#4c72b0;" x="209.249898" xlink:href="#mbf252e9863" y="130.553295"/>
     <use style="fill:#4c72b0;stroke:#4c72b0;" x="308.653249" xlink:href="#mbf252e9863" y="74.600355"/>
     <use style="fill:#4c72b0;stroke:#4c72b0;" x="205.999856" xlink:href="#mbf252e9863" y="148.535911"/>
     <use style="fill:#4c72b0;stroke:#4c72b0;" x="201.072144" xlink:href="#mbf252e9863" y="157.658909"/>
     <use style="fill:#4c72b0;stroke:#4c72b0;" x="250.593243" xlink:href="#mbf252e9863" y="122.357495"/>
     <use style="fill:#4c72b0;stroke:#4c72b0;" x="385.605412" xlink:href="#mbf252e9863" y="42.412517"/>
     <use style="fill:#4c72b0;stroke:#4c72b0;" x="177.620687" xlink:href="#mbf252e9863" y="135.116841"/>
     <use style="fill:#4c72b0;stroke:#4c72b0;" x="199.253162" xlink:href="#mbf252e9863" y="136.117222"/>
     <use style="fill:#4c72b0;stroke:#4c72b0;" x="233.406516" xlink:href="#mbf252e9863" y="118.713951"/>
     <use style="fill:#4c72b0;stroke:#4c72b0;" x="242.100235" xlink:href="#mbf252e9863" y="111.881129"/>
     <use style="fill:#4c72b0;stroke:#4c72b0;" x="252.872072" xlink:href="#mbf252e9863" y="114.957965"/>
     <use style="fill:#4c72b0;stroke:#4c72b0;" x="227.406811" xlink:href="#mbf252e9863" y="124.647102"/>
     <use style="fill:#4c72b0;stroke:#4c72b0;" x="292.813171" xlink:href="#mbf252e9863" y="89.726168"/>
     <use style="fill:#4c72b0;stroke:#4c72b0;" x="192.606845" xlink:href="#mbf252e9863" y="149.951727"/>
     <use style="fill:#4c72b0;stroke:#4c72b0;" x="186.878508" xlink:href="#mbf252e9863" y="159.139888"/>
     <use style="fill:#4c72b0;stroke:#4c72b0;" x="111.915534" xlink:href="#mbf252e9863" y="155.095085"/>
     <use style="fill:#4c72b0;stroke:#4c72b0;" x="136.73003" xlink:href="#mbf252e9863" y="150.871543"/>
     <use style="fill:#4c72b0;stroke:#4c72b0;" x="185.436608" xlink:href="#mbf252e9863" y="134.248057"/>
     <use style="fill:#4c72b0;stroke:#4c72b0;" x="254.643683" xlink:href="#mbf252e9863" y="100.98815"/>
     <use style="fill:#4c72b0;stroke:#4c72b0;" x="165.701887" xlink:href="#mbf252e9863" y="133.813209"/>
     <use style="fill:#4c72b0;stroke:#4c72b0;" x="233.197363" xlink:href="#mbf252e9863" y="122.222115"/>
     <use style="fill:#4c72b0;stroke:#4c72b0;" x="175.561138" xlink:href="#mbf252e9863" y="147.429718"/>
     <use style="fill:#4c72b0;stroke:#4c72b0;" x="243.574536" xlink:href="#mbf252e9863" y="106.769701"/>
     <use style="fill:#4c72b0;stroke:#4c72b0;" x="112.442185" xlink:href="#mbf252e9863" y="182.67495"/>
     <use style="fill:#4c72b0;stroke:#4c72b0;" x="217.641992" xlink:href="#mbf252e9863" y="109.520522"/>
     <use style="fill:#4c72b0;stroke:#4c72b0;" x="152.255943" xlink:href="#mbf252e9863" y="149.100635"/>
     <use style="fill:#4c72b0;stroke:#4c72b0;" x="180.07995" xlink:href="#mbf252e9863" y="149.31433"/>
     <use style="fill:#4c72b0;stroke:#4c72b0;" x="163.700261" xlink:href="#mbf252e9863" y="147.41507"/>
     <use style="fill:#4c72b0;stroke:#4c72b0;" x="241.308083" xlink:href="#mbf252e9863" y="117.900578"/>
     <use style="fill:#4c72b0;stroke:#4c72b0;" x="245.771264" xlink:href="#mbf252e9863" y="114.475012"/>
     <use style="fill:#4c72b0;stroke:#4c72b0;" x="190.641906" xlink:href="#mbf252e9863" y="137.205551"/>
     <use style="fill:#4c72b0;stroke:#4c72b0;" x="243.49675" xlink:href="#mbf252e9863" y="104.751541"/>
     <use style="fill:#4c72b0;stroke:#4c72b0;" x="293.102113" xlink:href="#mbf252e9863" y="82.207556"/>
     <use style="fill:#4c72b0;stroke:#4c72b0;" x="230.764457" xlink:href="#mbf252e9863" y="126.935776"/>
     <use style="fill:#4c72b0;stroke:#4c72b0;" x="239.375625" xlink:href="#mbf252e9863" y="106.239207"/>
     <use style="fill:#4c72b0;stroke:#4c72b0;" x="226.783278" xlink:href="#mbf252e9863" y="123.660428"/>
     <use style="fill:#4c72b0;stroke:#4c72b0;" x="276.301785" xlink:href="#mbf252e9863" y="116.19336"/>
     <use style="fill:#4c72b0;stroke:#4c72b0;" x="292.0039" xlink:href="#mbf252e9863" y="85.077707"/>
     <use style="fill:#4c72b0;stroke:#4c72b0;" x="182.58708" xlink:href="#mbf252e9863" y="158.450884"/>
     <use style="fill:#4c72b0;stroke:#4c72b0;" x="151.909594" xlink:href="#mbf252e9863" y="159.168784"/>
     <use style="fill:#4c72b0;stroke:#4c72b0;" x="228.441546" xlink:href="#mbf252e9863" y="107.610248"/>
     <use style="fill:#4c72b0;stroke:#4c72b0;" x="264.298161" xlink:href="#mbf252e9863" y="88.9785"/>
     <use style="fill:#4c72b0;stroke:#4c72b0;" x="195.189244" xlink:href="#mbf252e9863" y="137.7016"/>
     <use style="fill:#4c72b0;stroke:#4c72b0;" x="269.374194" xlink:href="#mbf252e9863" y="105.135901"/>
     <use style="fill:#4c72b0;stroke:#4c72b0;" x="226.872396" xlink:href="#mbf252e9863" y="121.496846"/>
     <use style="fill:#4c72b0;stroke:#4c72b0;" x="229.79679" xlink:href="#mbf252e9863" y="139.693572"/>
     <use style="fill:#4c72b0;stroke:#4c72b0;" x="260.004812" xlink:href="#mbf252e9863" y="81.36851"/>
     <use style="fill:#4c72b0;stroke:#4c72b0;" x="268.905882" xlink:href="#mbf252e9863" y="109.435842"/>
     <use style="fill:#4c72b0;stroke:#4c72b0;" x="180.804072" xlink:href="#mbf252e9863" y="125.285214"/>
     <use style="fill:#4c72b0;stroke:#4c72b0;" x="226.216738" xlink:href="#mbf252e9863" y="121.731477"/>
     <use style="fill:#4c72b0;stroke:#4c72b0;" x="115.130052" xlink:href="#mbf252e9863" y="158.211168"/>
     <use style="fill:#4c72b0;stroke:#4c72b0;" x="195.581596" xlink:href="#mbf252e9863" y="112.979275"/>
     <use style="fill:#4c72b0;stroke:#4c72b0;" x="168.021893" xlink:href="#mbf252e9863" y="139.075706"/>
     <use style="fill:#4c72b0;stroke:#4c72b0;" x="162.454378" xlink:href="#mbf252e9863" y="124.93427"/>
     <use style="fill:#4c72b0;stroke:#4c72b0;" x="279.702027" xlink:href="#mbf252e9863" y="103.314858"/>
     <use style="fill:#4c72b0;stroke:#4c72b0;" x="262.606996" xlink:href="#mbf252e9863" y="95.338792"/>
     <use style="fill:#4c72b0;stroke:#4c72b0;" x="260.968529" xlink:href="#mbf252e9863" y="114.162697"/>
     <use style="fill:#4c72b0;stroke:#4c72b0;" x="276.1426" xlink:href="#mbf252e9863" y="111.017083"/>
     <use style="fill:#4c72b0;stroke:#4c72b0;" x="202.857431" xlink:href="#mbf252e9863" y="136.661122"/>
     <use style="fill:#4c72b0;stroke:#4c72b0;" x="197.052269" xlink:href="#mbf252e9863" y="144.435495"/>
     <use style="fill:#4c72b0;stroke:#4c72b0;" x="182.494195" xlink:href="#mbf252e9863" y="150.290442"/>
     <use style="fill:#4c72b0;stroke:#4c72b0;" x="191.989759" xlink:href="#mbf252e9863" y="131.460727"/>
     <use style="fill:#4c72b0;stroke:#4c72b0;" x="238.217456" xlink:href="#mbf252e9863" y="121.216224"/>
     <use style="fill:#4c72b0;stroke:#4c72b0;" x="229.860437" xlink:href="#mbf252e9863" y="125.208847"/>
     <use style="fill:#4c72b0;stroke:#4c72b0;" x="170.97265" xlink:href="#mbf252e9863" y="150.368717"/>
     <use style="fill:#4c72b0;stroke:#4c72b0;" x="267.13988" xlink:href="#mbf252e9863" y="111.949338"/>
     <use style="fill:#4c72b0;stroke:#4c72b0;" x="248.480582" xlink:href="#mbf252e9863" y="90.272595"/>
     <use style="fill:#4c72b0;stroke:#4c72b0;" x="276.590385" xlink:href="#mbf252e9863" y="83.381239"/>
     <use style="fill:#4c72b0;stroke:#4c72b0;" x="316.24414" xlink:href="#mbf252e9863" y="64.273144"/>
     <use style="fill:#4c72b0;stroke:#4c72b0;" x="178.775479" xlink:href="#mbf252e9863" y="153.552482"/>
     <use style="fill:#4c72b0;stroke:#4c72b0;" x="268.790256" xlink:href="#mbf252e9863" y="107.879683"/>
     <use style="fill:#4c72b0;stroke:#4c72b0;" x="220.952341" xlink:href="#mbf252e9863" y="127.404657"/>
     <use style="fill:#4c72b0;stroke:#4c72b0;" x="271.801433" xlink:href="#mbf252e9863" y="102.573079"/>
     <use style="fill:#4c72b0;stroke:#4c72b0;" x="236.528081" xlink:href="#mbf252e9863" y="123.998565"/>
     <use style="fill:#4c72b0;stroke:#4c72b0;" x="333.027701" xlink:href="#mbf252e9863" y="79.090701"/>
     <use style="fill:#4c72b0;stroke:#4c72b0;" x="221.763273" xlink:href="#mbf252e9863" y="113.057673"/>
     <use style="fill:#4c72b0;stroke:#4c72b0;" x="324.953926" xlink:href="#mbf252e9863" y="71.577909"/>
     <use style="fill:#4c72b0;stroke:#4c72b0;" x="228.803218" xlink:href="#mbf252e9863" y="111.116911"/>
     <use style="fill:#4c72b0;stroke:#4c72b0;" x="266.094942" xlink:href="#mbf252e9863" y="91.640086"/>
     <use style="fill:#4c72b0;stroke:#4c72b0;" x="233.113716" xlink:href="#mbf252e9863" y="128.828601"/>
     <use style="fill:#4c72b0;stroke:#4c72b0;" x="190.902729" xlink:href="#mbf252e9863" y="152.885527"/>
     <use style="fill:#4c72b0;stroke:#4c72b0;" x="255.852792" xlink:href="#mbf252e9863" y="92.035508"/>
     <use style="fill:#4c72b0;stroke:#4c72b0;" x="234.797342" xlink:href="#mbf252e9863" y="113.638109"/>
    </g>
   </g>
   <g id="patch_3">
    <path d="M 66.023594 230.64 
L 66.023594 13.2 
" style="fill:none;stroke:#ffffff;stroke-linecap:square;stroke-linejoin:miter;stroke-width:1.25;"/>
   </g>
   <g id="patch_4">
    <path d="M 400.823594 230.64 
L 400.823594 13.2 
" style="fill:none;stroke:#ffffff;stroke-linecap:square;stroke-linejoin:miter;stroke-width:1.25;"/>
   </g>
   <g id="patch_5">
    <path d="M 66.023594 230.64 
L 400.823594 230.64 
" style="fill:none;stroke:#ffffff;stroke-linecap:square;stroke-linejoin:miter;stroke-width:1.25;"/>
   </g>
   <g id="patch_6">
    <path d="M 66.023594 13.2 
L 400.823594 13.2 
" style="fill:none;stroke:#ffffff;stroke-linecap:square;stroke-linejoin:miter;stroke-width:1.25;"/>
   </g>
  </g>
 </g>
 <defs>
  <clipPath id="pf75fa28303">
   <rect height="217.44" width="334.8" x="66.023594" y="13.2"/>
  </clipPath>
 </defs>
</svg>
