<?xml version="1.0" encoding="utf-8" standalone="no"?>
<!DOCTYPE svg PUBLIC "-//W3C//DTD SVG 1.1//EN"
  "http://www.w3.org/Graphics/SVG/1.1/DTD/svg11.dtd">
<!-- Created with matplotlib (https://matplotlib.org/) -->
<svg height="267.599687pt" version="1.1" viewBox="0 0 390.530156 267.599687" width="390.530156pt" xmlns="http://www.w3.org/2000/svg" xmlns:xlink="http://www.w3.org/1999/xlink">
 <defs>
  <style type="text/css">
*{stroke-linecap:butt;stroke-linejoin:round;}
  </style>
 </defs>
 <g id="figure_1">
  <g id="patch_1">
   <path d="M 0 267.599687 
L 390.530156 267.599687 
L 390.530156 0 
L 0 0 
z
" style="fill:#ffffff;"/>
  </g>
  <g id="axes_1">
   <g id="patch_2">
    <path d="M 48.530156 224.64 
L 383.330156 224.64 
L 383.330156 7.2 
L 48.530156 7.2 
z
" style="fill:#eaeaf2;"/>
   </g>
   <g id="matplotlib.axis_1">
    <g id="xtick_1">
     <g id="line2d_1">
      <path clip-path="url(#p03f378e470)" d="M 63.748338 224.64 
L 63.748338 7.2 
" style="fill:none;stroke:#ffffff;stroke-linecap:round;"/>
     </g>
     <g id="text_1">
      <!-- −3 -->
      <defs>
       <path d="M 10.59375 35.5 
L 73.1875 35.5 
L 73.1875 27.203125 
L 10.59375 27.203125 
z
" id="DejaVuSans-8722"/>
       <path d="M 40.578125 39.3125 
Q 47.65625 37.796875 51.625 33 
Q 55.609375 28.21875 55.609375 21.1875 
Q 55.609375 10.40625 48.1875 4.484375 
Q 40.765625 -1.421875 27.09375 -1.421875 
Q 22.515625 -1.421875 17.65625 -0.515625 
Q 12.796875 0.390625 7.625 2.203125 
L 7.625 11.71875 
Q 11.71875 9.328125 16.59375 8.109375 
Q 21.484375 6.890625 26.8125 6.890625 
Q 36.078125 6.890625 40.9375 10.546875 
Q 45.796875 14.203125 45.796875 21.1875 
Q 45.796875 27.640625 41.28125 31.265625 
Q 36.765625 34.90625 28.71875 34.90625 
L 20.21875 34.90625 
L 20.21875 43.015625 
L 29.109375 43.015625 
Q 36.375 43.015625 40.234375 45.921875 
Q 44.09375 48.828125 44.09375 54.296875 
Q 44.09375 59.90625 40.109375 62.90625 
Q 36.140625 65.921875 28.71875 65.921875 
Q 24.65625 65.921875 20.015625 65.03125 
Q 15.375 64.15625 9.8125 62.3125 
L 9.8125 71.09375 
Q 15.4375 72.65625 20.34375 73.4375 
Q 25.25 74.21875 29.59375 74.21875 
Q 40.828125 74.21875 47.359375 69.109375 
Q 53.90625 64.015625 53.90625 55.328125 
Q 53.90625 49.265625 50.4375 45.09375 
Q 46.96875 40.921875 40.578125 39.3125 
z
" id="DejaVuSans-51"/>
      </defs>
      <g style="fill:#262626;" transform="translate(55.640135 242.498281)scale(0.11 -0.11)">
       <use xlink:href="#DejaVuSans-8722"/>
       <use x="83.789062" xlink:href="#DejaVuSans-51"/>
      </g>
     </g>
    </g>
    <g id="xtick_2">
     <g id="line2d_2">
      <path clip-path="url(#p03f378e470)" d="M 112.454751 224.64 
L 112.454751 7.2 
" style="fill:none;stroke:#ffffff;stroke-linecap:round;"/>
     </g>
     <g id="text_2">
      <!-- −2 -->
      <defs>
       <path d="M 19.1875 8.296875 
L 53.609375 8.296875 
L 53.609375 0 
L 7.328125 0 
L 7.328125 8.296875 
Q 12.9375 14.109375 22.625 23.890625 
Q 32.328125 33.6875 34.8125 36.53125 
Q 39.546875 41.84375 41.421875 45.53125 
Q 43.3125 49.21875 43.3125 52.78125 
Q 43.3125 58.59375 39.234375 62.25 
Q 35.15625 65.921875 28.609375 65.921875 
Q 23.96875 65.921875 18.8125 64.3125 
Q 13.671875 62.703125 7.8125 59.421875 
L 7.8125 69.390625 
Q 13.765625 71.78125 18.9375 73 
Q 24.125 74.21875 28.421875 74.21875 
Q 39.75 74.21875 46.484375 68.546875 
Q 53.21875 62.890625 53.21875 53.421875 
Q 53.21875 48.921875 51.53125 44.890625 
Q 49.859375 40.875 45.40625 35.40625 
Q 44.1875 33.984375 37.640625 27.21875 
Q 31.109375 20.453125 19.1875 8.296875 
z
" id="DejaVuSans-50"/>
      </defs>
      <g style="fill:#262626;" transform="translate(104.346548 242.498281)scale(0.11 -0.11)">
       <use xlink:href="#DejaVuSans-8722"/>
       <use x="83.789062" xlink:href="#DejaVuSans-50"/>
      </g>
     </g>
    </g>
    <g id="xtick_3">
     <g id="line2d_3">
      <path clip-path="url(#p03f378e470)" d="M 161.161164 224.64 
L 161.161164 7.2 
" style="fill:none;stroke:#ffffff;stroke-linecap:round;"/>
     </g>
     <g id="text_3">
      <!-- −1 -->
      <defs>
       <path d="M 12.40625 8.296875 
L 28.515625 8.296875 
L 28.515625 63.921875 
L 10.984375 60.40625 
L 10.984375 69.390625 
L 28.421875 72.90625 
L 38.28125 72.90625 
L 38.28125 8.296875 
L 54.390625 8.296875 
L 54.390625 0 
L 12.40625 0 
z
" id="DejaVuSans-49"/>
      </defs>
      <g style="fill:#262626;" transform="translate(153.05296 242.498281)scale(0.11 -0.11)">
       <use xlink:href="#DejaVuSans-8722"/>
       <use x="83.789062" xlink:href="#DejaVuSans-49"/>
      </g>
     </g>
    </g>
    <g id="xtick_4">
     <g id="line2d_4">
      <path clip-path="url(#p03f378e470)" d="M 209.867576 224.64 
L 209.867576 7.2 
" style="fill:none;stroke:#ffffff;stroke-linecap:round;"/>
     </g>
     <g id="text_4">
      <!-- 0 -->
      <defs>
       <path d="M 31.78125 66.40625 
Q 24.171875 66.40625 20.328125 58.90625 
Q 16.5 51.421875 16.5 36.375 
Q 16.5 21.390625 20.328125 13.890625 
Q 24.171875 6.390625 31.78125 6.390625 
Q 39.453125 6.390625 43.28125 13.890625 
Q 47.125 21.390625 47.125 36.375 
Q 47.125 51.421875 43.28125 58.90625 
Q 39.453125 66.40625 31.78125 66.40625 
z
M 31.78125 74.21875 
Q 44.046875 74.21875 50.515625 64.515625 
Q 56.984375 54.828125 56.984375 36.375 
Q 56.984375 17.96875 50.515625 8.265625 
Q 44.046875 -1.421875 31.78125 -1.421875 
Q 19.53125 -1.421875 13.0625 8.265625 
Q 6.59375 17.96875 6.59375 36.375 
Q 6.59375 54.828125 13.0625 64.515625 
Q 19.53125 74.21875 31.78125 74.21875 
z
" id="DejaVuSans-48"/>
      </defs>
      <g style="fill:#262626;" transform="translate(206.368201 242.498281)scale(0.11 -0.11)">
       <use xlink:href="#DejaVuSans-48"/>
      </g>
     </g>
    </g>
    <g id="xtick_5">
     <g id="line2d_5">
      <path clip-path="url(#p03f378e470)" d="M 258.573989 224.64 
L 258.573989 7.2 
" style="fill:none;stroke:#ffffff;stroke-linecap:round;"/>
     </g>
     <g id="text_5">
      <!-- 1 -->
      <g style="fill:#262626;" transform="translate(255.074614 242.498281)scale(0.11 -0.11)">
       <use xlink:href="#DejaVuSans-49"/>
      </g>
     </g>
    </g>
    <g id="xtick_6">
     <g id="line2d_6">
      <path clip-path="url(#p03f378e470)" d="M 307.280402 224.64 
L 307.280402 7.2 
" style="fill:none;stroke:#ffffff;stroke-linecap:round;"/>
     </g>
     <g id="text_6">
      <!-- 2 -->
      <g style="fill:#262626;" transform="translate(303.781027 242.498281)scale(0.11 -0.11)">
       <use xlink:href="#DejaVuSans-50"/>
      </g>
     </g>
    </g>
    <g id="xtick_7">
     <g id="line2d_7">
      <path clip-path="url(#p03f378e470)" d="M 355.986815 224.64 
L 355.986815 7.2 
" style="fill:none;stroke:#ffffff;stroke-linecap:round;"/>
     </g>
     <g id="text_7">
      <!-- 3 -->
      <g style="fill:#262626;" transform="translate(352.48744 242.498281)scale(0.11 -0.11)">
       <use xlink:href="#DejaVuSans-51"/>
      </g>
     </g>
    </g>
    <g id="text_8">
     <!-- x -->
     <defs>
      <path d="M 54.890625 54.6875 
L 35.109375 28.078125 
L 55.90625 0 
L 45.3125 0 
L 29.390625 21.484375 
L 13.484375 0 
L 2.875 0 
L 24.125 28.609375 
L 4.6875 54.6875 
L 15.28125 54.6875 
L 29.78125 35.203125 
L 44.28125 54.6875 
z
" id="DejaVuSans-120"/>
     </defs>
     <g style="fill:#262626;" transform="translate(212.378906 257.904062)scale(0.12 -0.12)">
      <use xlink:href="#DejaVuSans-120"/>
     </g>
    </g>
   </g>
   <g id="matplotlib.axis_2">
    <g id="ytick_1">
     <g id="line2d_8">
      <path clip-path="url(#p03f378e470)" d="M 48.530156 200.679981 
L 383.330156 200.679981 
" style="fill:none;stroke:#ffffff;stroke-linecap:round;"/>
     </g>
     <g id="text_9">
      <!-- −8 -->
      <defs>
       <path d="M 31.78125 34.625 
Q 24.75 34.625 20.71875 30.859375 
Q 16.703125 27.09375 16.703125 20.515625 
Q 16.703125 13.921875 20.71875 10.15625 
Q 24.75 6.390625 31.78125 6.390625 
Q 38.8125 6.390625 42.859375 10.171875 
Q 46.921875 13.96875 46.921875 20.515625 
Q 46.921875 27.09375 42.890625 30.859375 
Q 38.875 34.625 31.78125 34.625 
z
M 21.921875 38.8125 
Q 15.578125 40.375 12.03125 44.71875 
Q 8.5 49.078125 8.5 55.328125 
Q 8.5 64.0625 14.71875 69.140625 
Q 20.953125 74.21875 31.78125 74.21875 
Q 42.671875 74.21875 48.875 69.140625 
Q 55.078125 64.0625 55.078125 55.328125 
Q 55.078125 49.078125 51.53125 44.71875 
Q 48 40.375 41.703125 38.8125 
Q 48.828125 37.15625 52.796875 32.3125 
Q 56.78125 27.484375 56.78125 20.515625 
Q 56.78125 9.90625 50.3125 4.234375 
Q 43.84375 -1.421875 31.78125 -1.421875 
Q 19.734375 -1.421875 13.25 4.234375 
Q 6.78125 9.90625 6.78125 20.515625 
Q 6.78125 27.484375 10.78125 32.3125 
Q 14.796875 37.15625 21.921875 38.8125 
z
M 18.3125 54.390625 
Q 18.3125 48.734375 21.84375 45.5625 
Q 25.390625 42.390625 31.78125 42.390625 
Q 38.140625 42.390625 41.71875 45.5625 
Q 45.3125 48.734375 45.3125 54.390625 
Q 45.3125 60.0625 41.71875 63.234375 
Q 38.140625 66.40625 31.78125 66.40625 
Q 25.390625 66.40625 21.84375 63.234375 
Q 18.3125 60.0625 18.3125 54.390625 
z
" id="DejaVuSans-56"/>
      </defs>
      <g style="fill:#262626;" transform="translate(22.81375 204.859121)scale(0.11 -0.11)">
       <use xlink:href="#DejaVuSans-8722"/>
       <use x="83.789062" xlink:href="#DejaVuSans-56"/>
      </g>
     </g>
    </g>
    <g id="ytick_2">
     <g id="line2d_9">
      <path clip-path="url(#p03f378e470)" d="M 48.530156 176.427109 
L 383.330156 176.427109 
" style="fill:none;stroke:#ffffff;stroke-linecap:round;"/>
     </g>
     <g id="text_10">
      <!-- −6 -->
      <defs>
       <path d="M 33.015625 40.375 
Q 26.375 40.375 22.484375 35.828125 
Q 18.609375 31.296875 18.609375 23.390625 
Q 18.609375 15.53125 22.484375 10.953125 
Q 26.375 6.390625 33.015625 6.390625 
Q 39.65625 6.390625 43.53125 10.953125 
Q 47.40625 15.53125 47.40625 23.390625 
Q 47.40625 31.296875 43.53125 35.828125 
Q 39.65625 40.375 33.015625 40.375 
z
M 52.59375 71.296875 
L 52.59375 62.3125 
Q 48.875 64.0625 45.09375 64.984375 
Q 41.3125 65.921875 37.59375 65.921875 
Q 27.828125 65.921875 22.671875 59.328125 
Q 17.53125 52.734375 16.796875 39.40625 
Q 19.671875 43.65625 24.015625 45.921875 
Q 28.375 48.1875 33.59375 48.1875 
Q 44.578125 48.1875 50.953125 41.515625 
Q 57.328125 34.859375 57.328125 23.390625 
Q 57.328125 12.15625 50.6875 5.359375 
Q 44.046875 -1.421875 33.015625 -1.421875 
Q 20.359375 -1.421875 13.671875 8.265625 
Q 6.984375 17.96875 6.984375 36.375 
Q 6.984375 53.65625 15.1875 63.9375 
Q 23.390625 74.21875 37.203125 74.21875 
Q 40.921875 74.21875 44.703125 73.484375 
Q 48.484375 72.75 52.59375 71.296875 
z
" id="DejaVuSans-54"/>
      </defs>
      <g style="fill:#262626;" transform="translate(22.81375 180.60625)scale(0.11 -0.11)">
       <use xlink:href="#DejaVuSans-8722"/>
       <use x="83.789062" xlink:href="#DejaVuSans-54"/>
      </g>
     </g>
    </g>
    <g id="ytick_3">
     <g id="line2d_10">
      <path clip-path="url(#p03f378e470)" d="M 48.530156 152.174237 
L 383.330156 152.174237 
" style="fill:none;stroke:#ffffff;stroke-linecap:round;"/>
     </g>
     <g id="text_11">
      <!-- −4 -->
      <defs>
       <path d="M 37.796875 64.3125 
L 12.890625 25.390625 
L 37.796875 25.390625 
z
M 35.203125 72.90625 
L 47.609375 72.90625 
L 47.609375 25.390625 
L 58.015625 25.390625 
L 58.015625 17.1875 
L 47.609375 17.1875 
L 47.609375 0 
L 37.796875 0 
L 37.796875 17.1875 
L 4.890625 17.1875 
L 4.890625 26.703125 
z
" id="DejaVuSans-52"/>
      </defs>
      <g style="fill:#262626;" transform="translate(22.81375 156.353378)scale(0.11 -0.11)">
       <use xlink:href="#DejaVuSans-8722"/>
       <use x="83.789062" xlink:href="#DejaVuSans-52"/>
      </g>
     </g>
    </g>
    <g id="ytick_4">
     <g id="line2d_11">
      <path clip-path="url(#p03f378e470)" d="M 48.530156 127.921365 
L 383.330156 127.921365 
" style="fill:none;stroke:#ffffff;stroke-linecap:round;"/>
     </g>
     <g id="text_12">
      <!-- −2 -->
      <g style="fill:#262626;" transform="translate(22.81375 132.100506)scale(0.11 -0.11)">
       <use xlink:href="#DejaVuSans-8722"/>
       <use x="83.789062" xlink:href="#DejaVuSans-50"/>
      </g>
     </g>
    </g>
    <g id="ytick_5">
     <g id="line2d_12">
      <path clip-path="url(#p03f378e470)" d="M 48.530156 103.668493 
L 383.330156 103.668493 
" style="fill:none;stroke:#ffffff;stroke-linecap:round;"/>
     </g>
     <g id="text_13">
      <!-- 0 -->
      <g style="fill:#262626;" transform="translate(32.031406 107.847634)scale(0.11 -0.11)">
       <use xlink:href="#DejaVuSans-48"/>
      </g>
     </g>
    </g>
    <g id="ytick_6">
     <g id="line2d_13">
      <path clip-path="url(#p03f378e470)" d="M 48.530156 79.415621 
L 383.330156 79.415621 
" style="fill:none;stroke:#ffffff;stroke-linecap:round;"/>
     </g>
     <g id="text_14">
      <!-- 2 -->
      <g style="fill:#262626;" transform="translate(32.031406 83.594762)scale(0.11 -0.11)">
       <use xlink:href="#DejaVuSans-50"/>
      </g>
     </g>
    </g>
    <g id="ytick_7">
     <g id="line2d_14">
      <path clip-path="url(#p03f378e470)" d="M 48.530156 55.162749 
L 383.330156 55.162749 
" style="fill:none;stroke:#ffffff;stroke-linecap:round;"/>
     </g>
     <g id="text_15">
      <!-- 4 -->
      <g style="fill:#262626;" transform="translate(32.031406 59.34189)scale(0.11 -0.11)">
       <use xlink:href="#DejaVuSans-52"/>
      </g>
     </g>
    </g>
    <g id="ytick_8">
     <g id="line2d_15">
      <path clip-path="url(#p03f378e470)" d="M 48.530156 30.909877 
L 383.330156 30.909877 
" style="fill:none;stroke:#ffffff;stroke-linecap:round;"/>
     </g>
     <g id="text_16">
      <!-- 6 -->
      <g style="fill:#262626;" transform="translate(32.031406 35.089018)scale(0.11 -0.11)">
       <use xlink:href="#DejaVuSans-54"/>
      </g>
     </g>
    </g>
    <g id="text_17">
     <!-- y -->
     <defs>
      <path d="M 32.171875 -5.078125 
Q 28.375 -14.84375 24.75 -17.8125 
Q 21.140625 -20.796875 15.09375 -20.796875 
L 7.90625 -20.796875 
L 7.90625 -13.28125 
L 13.1875 -13.28125 
Q 16.890625 -13.28125 18.9375 -11.515625 
Q 21 -9.765625 23.484375 -3.21875 
L 25.09375 0.875 
L 2.984375 54.6875 
L 12.5 54.6875 
L 29.59375 11.921875 
L 46.6875 54.6875 
L 56.203125 54.6875 
z
" id="DejaVuSans-121"/>
     </defs>
     <g style="fill:#262626;" transform="translate(16.318125 119.47125)rotate(-90)scale(0.12 -0.12)">
      <use xlink:href="#DejaVuSans-121"/>
     </g>
    </g>
   </g>
   <g id="PolyCollection_1">
    <defs>
     <path d="M 63.748338 -112.674189 
L 63.748338 -52.843324 
L 66.700239 -54.366582 
L 69.65214 -57.415781 
L 72.604053 -56.691358 
L 75.555954 -60.020535 
L 78.507855 -62.368349 
L 81.459756 -63.789591 
L 84.411668 -65.651381 
L 87.363569 -68.150873 
L 90.31547 -67.158772 
L 93.267371 -68.688011 
L 96.219284 -69.507006 
L 99.171185 -70.932072 
L 102.123086 -74.197029 
L 105.074987 -75.95995 
L 108.026899 -78.171679 
L 110.9788 -78.807813 
L 113.930701 -79.468604 
L 116.882608 -83.522286 
L 119.834509 -84.202888 
L 122.786416 -83.728756 
L 125.738317 -86.133148 
L 128.690224 -87.569893 
L 131.642125 -90.110251 
L 134.594031 -91.372042 
L 137.545932 -92.960194 
L 140.497839 -96.211918 
L 143.44974 -96.194035 
L 146.401647 -97.522129 
L 149.353548 -98.77314 
L 152.305455 -101.119261 
L 155.257356 -101.644849 
L 158.209263 -104.998829 
L 161.161164 -105.675159 
L 164.113067 -107.044603 
L 167.064971 -108.099542 
L 170.016875 -109.328533 
L 172.968779 -111.008614 
L 175.920683 -112.312848 
L 178.872587 -115.270564 
L 181.824491 -115.342585 
L 184.776395 -119.115465 
L 187.728297 -116.795418 
L 190.680201 -121.070653 
L 193.632105 -121.638709 
L 196.584009 -121.555976 
L 199.535913 -125.52432 
L 202.487817 -126.503516 
L 205.439721 -126.246801 
L 208.391624 -128.020496 
L 211.343528 -130.940341 
L 214.295432 -131.972652 
L 217.247336 -134.589537 
L 220.19924 -134.052142 
L 223.151144 -136.106473 
L 226.103048 -137.012446 
L 229.054952 -137.039877 
L 232.006856 -140.017192 
L 234.958758 -140.504308 
L 237.910662 -142.533201 
L 240.862566 -142.491266 
L 243.81447 -145.633583 
L 246.766374 -145.255854 
L 249.718277 -146.859498 
L 252.670181 -148.724566 
L 255.622085 -150.404134 
L 258.573989 -152.992124 
L 261.52589 -151.257897 
L 264.477797 -153.973558 
L 267.429698 -154.675642 
L 270.381605 -158.644398 
L 273.333506 -158.232745 
L 276.285412 -160.793704 
L 279.237313 -160.445949 
L 282.18922 -163.14581 
L 285.141121 -161.016596 
L 288.093028 -163.919415 
L 291.044929 -165.037287 
L 293.996836 -166.773195 
L 296.948737 -167.749252 
L 299.900644 -169.485619 
L 302.852545 -170.496287 
L 305.804451 -173.389972 
L 308.756352 -171.315788 
L 311.708253 -175.253055 
L 314.660166 -174.658118 
L 317.612067 -175.519778 
L 320.563968 -177.972213 
L 323.515869 -179.927269 
L 326.467782 -180.851979 
L 329.419683 -181.180338 
L 332.371584 -184.640533 
L 335.323485 -182.376102 
L 338.275397 -185.346982 
L 341.227298 -186.103999 
L 344.179199 -186.205576 
L 347.1311 -189.18343 
L 350.083013 -188.390633 
L 353.034914 -191.407859 
L 355.986815 -193.799474 
L 355.986815 -248.957969 
L 355.986815 -248.957969 
L 353.034914 -250.516051 
L 350.083013 -247.061058 
L 347.1311 -244.168435 
L 344.179199 -243.536711 
L 341.227298 -241.1647 
L 338.275397 -241.357668 
L 335.323485 -237.686805 
L 332.371584 -235.935859 
L 329.419683 -236.963402 
L 326.467782 -233.874571 
L 323.515869 -232.541448 
L 320.563968 -229.334453 
L 317.612067 -228.356643 
L 314.660166 -227.538405 
L 311.708253 -225.183517 
L 308.756352 -224.925986 
L 305.804451 -221.194284 
L 302.852545 -221.826713 
L 299.900644 -219.445254 
L 296.948737 -218.373711 
L 293.996836 -216.806436 
L 291.044929 -216.819958 
L 288.093028 -213.569896 
L 285.141121 -210.788995 
L 282.18922 -209.151979 
L 279.237313 -208.554736 
L 276.285412 -206.22888 
L 273.333506 -204.828261 
L 270.381605 -203.155866 
L 267.429698 -203.419993 
L 264.477797 -201.180098 
L 261.52589 -200.653296 
L 258.573989 -196.667992 
L 255.622085 -196.906398 
L 252.670181 -194.91566 
L 249.718277 -192.937065 
L 246.766374 -191.175135 
L 243.81447 -189.665191 
L 240.862566 -187.048641 
L 237.910662 -187.085011 
L 234.958758 -186.222137 
L 232.006856 -184.505507 
L 229.054952 -182.537952 
L 226.103048 -181.389749 
L 223.151144 -180.639854 
L 220.19924 -178.02827 
L 217.247336 -178.167595 
L 214.295432 -176.426594 
L 211.343528 -174.497726 
L 208.391624 -172.784274 
L 205.439721 -170.724477 
L 202.487817 -168.386947 
L 199.535913 -170.395079 
L 196.584009 -168.312048 
L 193.632105 -165.44226 
L 190.680201 -164.244252 
L 187.728297 -163.98497 
L 184.776395 -163.802079 
L 181.824491 -159.515984 
L 178.872587 -160.433455 
L 175.920683 -157.202822 
L 172.968779 -156.305146 
L 170.016875 -154.835342 
L 167.064971 -152.726857 
L 164.113067 -150.98961 
L 161.161164 -149.771174 
L 158.209263 -152.808074 
L 155.257356 -147.737365 
L 152.305455 -148.440419 
L 149.353548 -146.69364 
L 146.401647 -146.019076 
L 143.44974 -145.313907 
L 140.497839 -142.753257 
L 137.545932 -140.053405 
L 134.594031 -140.818974 
L 131.642125 -139.804799 
L 128.690224 -137.799184 
L 125.738317 -137.053018 
L 122.786416 -134.807918 
L 119.834509 -135.110308 
L 116.882608 -133.663793 
L 113.930701 -132.187881 
L 110.9788 -130.118148 
L 108.026899 -130.407183 
L 105.074987 -129.337287 
L 102.123086 -127.279496 
L 99.171185 -126.612124 
L 96.219284 -126.442479 
L 93.267371 -123.514837 
L 90.31547 -124.301513 
L 87.363569 -121.45114 
L 84.411668 -120.747545 
L 81.459756 -119.599412 
L 78.507855 -117.104939 
L 75.555954 -114.339388 
L 72.604053 -112.974763 
L 69.65214 -114.608293 
L 66.700239 -112.497301 
L 63.748338 -112.674189 
z
" id="m32c5e0ff35" style="stroke:#ffffff;stroke-opacity:0.2;"/>
    </defs>
    <g clip-path="url(#p03f378e470)">
     <use style="fill:#4c72b0;fill-opacity:0.2;stroke:#ffffff;stroke-opacity:0.2;" x="0" xlink:href="#m32c5e0ff35" y="267.599687"/>
    </g>
   </g>
   <g id="line2d_16">
    <defs>
     <path d="M 0 1.5 
C 0.397805 1.5 0.77937 1.341951 1.06066 1.06066 
C 1.341951 0.77937 1.5 0.397805 1.5 0 
C 1.5 -0.397805 1.341951 -0.77937 1.06066 -1.06066 
C 0.77937 -1.341951 0.397805 -1.5 0 -1.5 
C -0.397805 -1.5 -0.77937 -1.341951 -1.06066 -1.06066 
C -1.341951 -0.77937 -1.5 -0.397805 -1.5 0 
C -1.5 0.397805 -1.341951 0.77937 -1.06066 1.06066 
C -0.77937 1.341951 -0.397805 1.5 0 1.5 
z
" id="mf6947a1e6a" style="stroke:#4c72b0;"/>
    </defs>
    <g clip-path="url(#p03f378e470)">
     <use style="fill:#4c72b0;stroke:#4c72b0;" x="199.897001" xlink:href="#mf6947a1e6a" y="139.745518"/>
     <use style="fill:#4c72b0;stroke:#4c72b0;" x="233.195189" xlink:href="#mf6947a1e6a" y="111.000785"/>
     <use style="fill:#4c72b0;stroke:#4c72b0;" x="184.567579" xlink:href="#mf6947a1e6a" y="128.788909"/>
     <use style="fill:#4c72b0;stroke:#4c72b0;" x="182.799948" xlink:href="#mf6947a1e6a" y="140.538519"/>
     <use style="fill:#4c72b0;stroke:#4c72b0;" x="305.613698" xlink:href="#mf6947a1e6a" y="73.970989"/>
     <use style="fill:#4c72b0;stroke:#4c72b0;" x="277.735374" xlink:href="#mf6947a1e6a" y="82.440588"/>
     <use style="fill:#4c72b0;stroke:#4c72b0;" x="214.392786" xlink:href="#mf6947a1e6a" y="100.258469"/>
     <use style="fill:#4c72b0;stroke:#4c72b0;" x="223.590421" xlink:href="#mf6947a1e6a" y="97.066609"/>
     <use style="fill:#4c72b0;stroke:#4c72b0;" x="247.323908" xlink:href="#mf6947a1e6a" y="104.292307"/>
     <use style="fill:#4c72b0;stroke:#4c72b0;" x="270.576939" xlink:href="#mf6947a1e6a" y="66.384923"/>
     <use style="fill:#4c72b0;stroke:#4c72b0;" x="258.924159" xlink:href="#mf6947a1e6a" y="97.779362"/>
     <use style="fill:#4c72b0;stroke:#4c72b0;" x="146.733295" xlink:href="#mf6947a1e6a" y="141.69021"/>
     <use style="fill:#4c72b0;stroke:#4c72b0;" x="223.261432" xlink:href="#mf6947a1e6a" y="97.848385"/>
     <use style="fill:#4c72b0;stroke:#4c72b0;" x="221.017101" xlink:href="#mf6947a1e6a" y="129.272795"/>
     <use style="fill:#4c72b0;stroke:#4c72b0;" x="275.763302" xlink:href="#mf6947a1e6a" y="95.381933"/>
     <use style="fill:#4c72b0;stroke:#4c72b0;" x="253.042371" xlink:href="#mf6947a1e6a" y="99.181326"/>
     <use style="fill:#4c72b0;stroke:#4c72b0;" x="112.375008" xlink:href="#mf6947a1e6a" y="161.666663"/>
     <use style="fill:#4c72b0;stroke:#4c72b0;" x="191.75646" xlink:href="#mf6947a1e6a" y="127.158444"/>
     <use style="fill:#4c72b0;stroke:#4c72b0;" x="291.159812" xlink:href="#mf6947a1e6a" y="67.201768"/>
     <use style="fill:#4c72b0;stroke:#4c72b0;" x="188.506418" xlink:href="#mf6947a1e6a" y="146.427813"/>
     <use style="fill:#4c72b0;stroke:#4c72b0;" x="183.578706" xlink:href="#mf6947a1e6a" y="156.203611"/>
     <use style="fill:#4c72b0;stroke:#4c72b0;" x="233.099805" xlink:href="#mf6947a1e6a" y="118.37619"/>
     <use style="fill:#4c72b0;stroke:#4c72b0;" x="368.111974" xlink:href="#mf6947a1e6a" y="32.710716"/>
     <use style="fill:#4c72b0;stroke:#4c72b0;" x="160.127249" xlink:href="#mf6947a1e6a" y="132.048536"/>
     <use style="fill:#4c72b0;stroke:#4c72b0;" x="181.759725" xlink:href="#mf6947a1e6a" y="133.1205"/>
     <use style="fill:#4c72b0;stroke:#4c72b0;" x="215.913079" xlink:href="#mf6947a1e6a" y="114.471931"/>
     <use style="fill:#4c72b0;stroke:#4c72b0;" x="224.606797" xlink:href="#mf6947a1e6a" y="107.150183"/>
     <use style="fill:#4c72b0;stroke:#4c72b0;" x="235.378635" xlink:href="#mf6947a1e6a" y="110.447183"/>
     <use style="fill:#4c72b0;stroke:#4c72b0;" x="209.913374" xlink:href="#mf6947a1e6a" y="120.82963"/>
     <use style="fill:#4c72b0;stroke:#4c72b0;" x="275.319733" xlink:href="#mf6947a1e6a" y="83.409915"/>
     <use style="fill:#4c72b0;stroke:#4c72b0;" x="175.113407" xlink:href="#mf6947a1e6a" y="147.944939"/>
     <use style="fill:#4c72b0;stroke:#4c72b0;" x="169.38507" xlink:href="#mf6947a1e6a" y="157.790561"/>
     <use style="fill:#4c72b0;stroke:#4c72b0;" x="94.422096" xlink:href="#mf6947a1e6a" y="153.456331"/>
     <use style="fill:#4c72b0;stroke:#4c72b0;" x="119.236592" xlink:href="#mf6947a1e6a" y="148.930572"/>
     <use style="fill:#4c72b0;stroke:#4c72b0;" x="167.943171" xlink:href="#mf6947a1e6a" y="131.117586"/>
     <use style="fill:#4c72b0;stroke:#4c72b0;" x="237.150245" xlink:href="#mf6947a1e6a" y="95.477752"/>
     <use style="fill:#4c72b0;stroke:#4c72b0;" x="148.20845" xlink:href="#mf6947a1e6a" y="130.651622"/>
     <use style="fill:#4c72b0;stroke:#4c72b0;" x="215.703926" xlink:href="#mf6947a1e6a" y="118.231122"/>
     <use style="fill:#4c72b0;stroke:#4c72b0;" x="158.0677" xlink:href="#mf6947a1e6a" y="145.242466"/>
     <use style="fill:#4c72b0;stroke:#4c72b0;" x="226.081099" xlink:href="#mf6947a1e6a" y="101.673005"/>
     <use style="fill:#4c72b0;stroke:#4c72b0;" x="94.948747" xlink:href="#mf6947a1e6a" y="183.009685"/>
     <use style="fill:#4c72b0;stroke:#4c72b0;" x="200.148555" xlink:href="#mf6947a1e6a" y="104.620662"/>
     <use style="fill:#4c72b0;stroke:#4c72b0;" x="134.762506" xlink:href="#mf6947a1e6a" y="147.032946"/>
     <use style="fill:#4c72b0;stroke:#4c72b0;" x="162.586513" xlink:href="#mf6947a1e6a" y="147.261932"/>
     <use style="fill:#4c72b0;stroke:#4c72b0;" x="146.206824" xlink:href="#mf6947a1e6a" y="145.22677"/>
     <use style="fill:#4c72b0;stroke:#4c72b0;" x="223.814645" xlink:href="#mf6947a1e6a" y="113.600357"/>
     <use style="fill:#4c72b0;stroke:#4c72b0;" x="228.277826" xlink:href="#mf6947a1e6a" y="109.929672"/>
     <use style="fill:#4c72b0;stroke:#4c72b0;" x="173.148468" xlink:href="#mf6947a1e6a" y="134.286704"/>
     <use style="fill:#4c72b0;stroke:#4c72b0;" x="226.003312" xlink:href="#mf6947a1e6a" y="99.510435"/>
     <use style="fill:#4c72b0;stroke:#4c72b0;" x="275.608676" xlink:href="#mf6947a1e6a" y="75.353305"/>
     <use style="fill:#4c72b0;stroke:#4c72b0;" x="213.271019" xlink:href="#mf6947a1e6a" y="123.282072"/>
     <use style="fill:#4c72b0;stroke:#4c72b0;" x="221.882187" xlink:href="#mf6947a1e6a" y="101.104551"/>
     <use style="fill:#4c72b0;stroke:#4c72b0;" x="209.28984" xlink:href="#mf6947a1e6a" y="119.772355"/>
     <use style="fill:#4c72b0;stroke:#4c72b0;" x="258.808347" xlink:href="#mf6947a1e6a" y="111.770977"/>
     <use style="fill:#4c72b0;stroke:#4c72b0;" x="274.510463" xlink:href="#mf6947a1e6a" y="78.428831"/>
     <use style="fill:#4c72b0;stroke:#4c72b0;" x="165.093643" xlink:href="#mf6947a1e6a" y="157.052255"/>
     <use style="fill:#4c72b0;stroke:#4c72b0;" x="134.416157" xlink:href="#mf6947a1e6a" y="157.821526"/>
     <use style="fill:#4c72b0;stroke:#4c72b0;" x="210.948109" xlink:href="#mf6947a1e6a" y="102.573698"/>
     <use style="fill:#4c72b0;stroke:#4c72b0;" x="246.804724" xlink:href="#mf6947a1e6a" y="82.608747"/>
     <use style="fill:#4c72b0;stroke:#4c72b0;" x="177.695807" xlink:href="#mf6947a1e6a" y="134.818248"/>
     <use style="fill:#4c72b0;stroke:#4c72b0;" x="251.880757" xlink:href="#mf6947a1e6a" y="99.922298"/>
     <use style="fill:#4c72b0;stroke:#4c72b0;" x="209.378958" xlink:href="#mf6947a1e6a" y="117.453956"/>
     <use style="fill:#4c72b0;stroke:#4c72b0;" x="212.303353" xlink:href="#mf6947a1e6a" y="136.952757"/>
     <use style="fill:#4c72b0;stroke:#4c72b0;" x="242.511374" xlink:href="#mf6947a1e6a" y="74.454221"/>
     <use style="fill:#4c72b0;stroke:#4c72b0;" x="251.412445" xlink:href="#mf6947a1e6a" y="104.529923"/>
     <use style="fill:#4c72b0;stroke:#4c72b0;" x="163.310634" xlink:href="#mf6947a1e6a" y="121.513403"/>
     <use style="fill:#4c72b0;stroke:#4c72b0;" x="208.723301" xlink:href="#mf6947a1e6a" y="117.705377"/>
     <use style="fill:#4c72b0;stroke:#4c72b0;" x="97.636614" xlink:href="#mf6947a1e6a" y="156.795387"/>
     <use style="fill:#4c72b0;stroke:#4c72b0;" x="178.088159" xlink:href="#mf6947a1e6a" y="108.326907"/>
     <use style="fill:#4c72b0;stroke:#4c72b0;" x="150.528456" xlink:href="#mf6947a1e6a" y="136.29068"/>
     <use style="fill:#4c72b0;stroke:#4c72b0;" x="144.960941" xlink:href="#mf6947a1e6a" y="121.137347"/>
     <use style="fill:#4c72b0;stroke:#4c72b0;" x="262.20859" xlink:href="#mf6947a1e6a" y="97.970949"/>
     <use style="fill:#4c72b0;stroke:#4c72b0;" x="245.113559" xlink:href="#mf6947a1e6a" y="89.424153"/>
     <use style="fill:#4c72b0;stroke:#4c72b0;" x="243.475091" xlink:href="#mf6947a1e6a" y="109.59501"/>
     <use style="fill:#4c72b0;stroke:#4c72b0;" x="258.649163" xlink:href="#mf6947a1e6a" y="106.22431"/>
     <use style="fill:#4c72b0;stroke:#4c72b0;" x="185.363994" xlink:href="#mf6947a1e6a" y="133.703319"/>
     <use style="fill:#4c72b0;stroke:#4c72b0;" x="179.558831" xlink:href="#mf6947a1e6a" y="142.03399"/>
     <use style="fill:#4c72b0;stroke:#4c72b0;" x="165.000757" xlink:href="#mf6947a1e6a" y="148.30789"/>
     <use style="fill:#4c72b0;stroke:#4c72b0;" x="174.496321" xlink:href="#mf6947a1e6a" y="128.130807"/>
     <use style="fill:#4c72b0;stroke:#4c72b0;" x="220.724019" xlink:href="#mf6947a1e6a" y="117.153255"/>
     <use style="fill:#4c72b0;stroke:#4c72b0;" x="212.367" xlink:href="#mf6947a1e6a" y="121.431571"/>
     <use style="fill:#4c72b0;stroke:#4c72b0;" x="153.479213" xlink:href="#mf6947a1e6a" y="148.391766"/>
     <use style="fill:#4c72b0;stroke:#4c72b0;" x="249.646442" xlink:href="#mf6947a1e6a" y="107.223273"/>
     <use style="fill:#4c72b0;stroke:#4c72b0;" x="230.987145" xlink:href="#mf6947a1e6a" y="83.995442"/>
     <use style="fill:#4c72b0;stroke:#4c72b0;" x="259.096947" xlink:href="#mf6947a1e6a" y="76.610972"/>
     <use style="fill:#4c72b0;stroke:#4c72b0;" x="298.750703" xlink:href="#mf6947a1e6a" y="56.13559"/>
     <use style="fill:#4c72b0;stroke:#4c72b0;" x="161.282041" xlink:href="#mf6947a1e6a" y="151.803346"/>
     <use style="fill:#4c72b0;stroke:#4c72b0;" x="251.296819" xlink:href="#mf6947a1e6a" y="102.862412"/>
     <use style="fill:#4c72b0;stroke:#4c72b0;" x="203.458904" xlink:href="#mf6947a1e6a" y="123.784503"/>
     <use style="fill:#4c72b0;stroke:#4c72b0;" x="254.307996" xlink:href="#mf6947a1e6a" y="97.176091"/>
     <use style="fill:#4c72b0;stroke:#4c72b0;" x="219.034643" xlink:href="#mf6947a1e6a" y="120.134687"/>
     <use style="fill:#4c72b0;stroke:#4c72b0;" x="315.534263" xlink:href="#mf6947a1e6a" y="72.013423"/>
     <use style="fill:#4c72b0;stroke:#4c72b0;" x="204.269836" xlink:href="#mf6947a1e6a" y="108.410915"/>
     <use style="fill:#4c72b0;stroke:#4c72b0;" x="307.460489" xlink:href="#mf6947a1e6a" y="63.96305"/>
     <use style="fill:#4c72b0;stroke:#4c72b0;" x="211.309781" xlink:href="#mf6947a1e6a" y="106.331281"/>
     <use style="fill:#4c72b0;stroke:#4c72b0;" x="248.601505" xlink:href="#mf6947a1e6a" y="85.460784"/>
     <use style="fill:#4c72b0;stroke:#4c72b0;" x="215.620279" xlink:href="#mf6947a1e6a" y="125.310339"/>
     <use style="fill:#4c72b0;stroke:#4c72b0;" x="173.409291" xlink:href="#mf6947a1e6a" y="151.088667"/>
     <use style="fill:#4c72b0;stroke:#4c72b0;" x="238.359355" xlink:href="#mf6947a1e6a" y="85.8845"/>
     <use style="fill:#4c72b0;stroke:#4c72b0;" x="217.303904" xlink:href="#mf6947a1e6a" y="109.032884"/>
    </g>
   </g>
   <g id="patch_3">
    <path d="M 48.530156 224.64 
L 48.530156 7.2 
" style="fill:none;stroke:#ffffff;stroke-linecap:square;stroke-linejoin:miter;stroke-width:1.25;"/>
   </g>
   <g id="patch_4">
    <path d="M 383.330156 224.64 
L 383.330156 7.2 
" style="fill:none;stroke:#ffffff;stroke-linecap:square;stroke-linejoin:miter;stroke-width:1.25;"/>
   </g>
   <g id="patch_5">
    <path d="M 48.530156 224.64 
L 383.330156 224.64 
" style="fill:none;stroke:#ffffff;stroke-linecap:square;stroke-linejoin:miter;stroke-width:1.25;"/>
   </g>
   <g id="patch_6">
    <path d="M 48.530156 7.2 
L 383.330156 7.2 
" style="fill:none;stroke:#ffffff;stroke-linecap:square;stroke-linejoin:miter;stroke-width:1.25;"/>
   </g>
   <g id="legend_1">
    <g id="patch_7">
     <path d="M 56.230156 48.291875 
L 219.461563 48.291875 
Q 221.661563 48.291875 221.661563 46.091875 
L 221.661563 14.9 
Q 221.661563 12.7 219.461563 12.7 
L 56.230156 12.7 
Q 54.030156 12.7 54.030156 14.9 
L 54.030156 46.091875 
Q 54.030156 48.291875 56.230156 48.291875 
z
" style="fill:#eaeaf2;opacity:0.8;stroke:#cccccc;stroke-linejoin:miter;"/>
    </g>
    <g id="line2d_17"/>
    <g id="line2d_18">
     <g>
      <use style="fill:#4c72b0;stroke:#4c72b0;" x="69.430156" xlink:href="#mf6947a1e6a" y="21.608281"/>
     </g>
    </g>
    <g id="text_18">
     <!-- Data -->
     <defs>
      <path d="M 19.671875 64.796875 
L 19.671875 8.109375 
L 31.59375 8.109375 
Q 46.6875 8.109375 53.6875 14.9375 
Q 60.6875 21.78125 60.6875 36.53125 
Q 60.6875 51.171875 53.6875 57.984375 
Q 46.6875 64.796875 31.59375 64.796875 
z
M 9.8125 72.90625 
L 30.078125 72.90625 
Q 51.265625 72.90625 61.171875 64.09375 
Q 71.09375 55.28125 71.09375 36.53125 
Q 71.09375 17.671875 61.125 8.828125 
Q 51.171875 0 30.078125 0 
L 9.8125 0 
z
" id="DejaVuSans-68"/>
      <path d="M 34.28125 27.484375 
Q 23.390625 27.484375 19.1875 25 
Q 14.984375 22.515625 14.984375 16.5 
Q 14.984375 11.71875 18.140625 8.90625 
Q 21.296875 6.109375 26.703125 6.109375 
Q 34.1875 6.109375 38.703125 11.40625 
Q 43.21875 16.703125 43.21875 25.484375 
L 43.21875 27.484375 
z
M 52.203125 31.203125 
L 52.203125 0 
L 43.21875 0 
L 43.21875 8.296875 
Q 40.140625 3.328125 35.546875 0.953125 
Q 30.953125 -1.421875 24.3125 -1.421875 
Q 15.921875 -1.421875 10.953125 3.296875 
Q 6 8.015625 6 15.921875 
Q 6 25.140625 12.171875 29.828125 
Q 18.359375 34.515625 30.609375 34.515625 
L 43.21875 34.515625 
L 43.21875 35.40625 
Q 43.21875 41.609375 39.140625 45 
Q 35.0625 48.390625 27.6875 48.390625 
Q 23 48.390625 18.546875 47.265625 
Q 14.109375 46.140625 10.015625 43.890625 
L 10.015625 52.203125 
Q 14.9375 54.109375 19.578125 55.046875 
Q 24.21875 56 28.609375 56 
Q 40.484375 56 46.34375 49.84375 
Q 52.203125 43.703125 52.203125 31.203125 
z
" id="DejaVuSans-97"/>
      <path d="M 18.3125 70.21875 
L 18.3125 54.6875 
L 36.8125 54.6875 
L 36.8125 47.703125 
L 18.3125 47.703125 
L 18.3125 18.015625 
Q 18.3125 11.328125 20.140625 9.421875 
Q 21.96875 7.515625 27.59375 7.515625 
L 36.8125 7.515625 
L 36.8125 0 
L 27.59375 0 
Q 17.1875 0 13.234375 3.875 
Q 9.28125 7.765625 9.28125 18.015625 
L 9.28125 47.703125 
L 2.6875 47.703125 
L 2.6875 54.6875 
L 9.28125 54.6875 
L 9.28125 70.21875 
z
" id="DejaVuSans-116"/>
     </defs>
     <g style="fill:#262626;" transform="translate(89.230156 25.458281)scale(0.11 -0.11)">
      <use xlink:href="#DejaVuSans-68"/>
      <use x="77.001953" xlink:href="#DejaVuSans-97"/>
      <use x="138.28125" xlink:href="#DejaVuSans-116"/>
      <use x="177.490234" xlink:href="#DejaVuSans-97"/>
     </g>
    </g>
    <g id="patch_8">
     <path d="M 58.430156 41.604219 
L 80.430156 41.604219 
L 80.430156 33.904219 
L 58.430156 33.904219 
z
" style="fill:#4c72b0;opacity:0.2;stroke:#ffffff;stroke-linejoin:miter;"/>
    </g>
    <g id="text_19">
     <!-- 90% Predictive interval -->
     <defs>
      <path d="M 10.984375 1.515625 
L 10.984375 10.5 
Q 14.703125 8.734375 18.5 7.8125 
Q 22.3125 6.890625 25.984375 6.890625 
Q 35.75 6.890625 40.890625 13.453125 
Q 46.046875 20.015625 46.78125 33.40625 
Q 43.953125 29.203125 39.59375 26.953125 
Q 35.25 24.703125 29.984375 24.703125 
Q 19.046875 24.703125 12.671875 31.3125 
Q 6.296875 37.9375 6.296875 49.421875 
Q 6.296875 60.640625 12.9375 67.421875 
Q 19.578125 74.21875 30.609375 74.21875 
Q 43.265625 74.21875 49.921875 64.515625 
Q 56.59375 54.828125 56.59375 36.375 
Q 56.59375 19.140625 48.40625 8.859375 
Q 40.234375 -1.421875 26.421875 -1.421875 
Q 22.703125 -1.421875 18.890625 -0.6875 
Q 15.09375 0.046875 10.984375 1.515625 
z
M 30.609375 32.421875 
Q 37.25 32.421875 41.125 36.953125 
Q 45.015625 41.5 45.015625 49.421875 
Q 45.015625 57.28125 41.125 61.84375 
Q 37.25 66.40625 30.609375 66.40625 
Q 23.96875 66.40625 20.09375 61.84375 
Q 16.21875 57.28125 16.21875 49.421875 
Q 16.21875 41.5 20.09375 36.953125 
Q 23.96875 32.421875 30.609375 32.421875 
z
" id="DejaVuSans-57"/>
      <path d="M 72.703125 32.078125 
Q 68.453125 32.078125 66.03125 28.46875 
Q 63.625 24.859375 63.625 18.40625 
Q 63.625 12.0625 66.03125 8.421875 
Q 68.453125 4.78125 72.703125 4.78125 
Q 76.859375 4.78125 79.265625 8.421875 
Q 81.6875 12.0625 81.6875 18.40625 
Q 81.6875 24.8125 79.265625 28.4375 
Q 76.859375 32.078125 72.703125 32.078125 
z
M 72.703125 38.28125 
Q 80.421875 38.28125 84.953125 32.90625 
Q 89.5 27.546875 89.5 18.40625 
Q 89.5 9.28125 84.9375 3.921875 
Q 80.375 -1.421875 72.703125 -1.421875 
Q 64.890625 -1.421875 60.34375 3.921875 
Q 55.8125 9.28125 55.8125 18.40625 
Q 55.8125 27.59375 60.375 32.9375 
Q 64.9375 38.28125 72.703125 38.28125 
z
M 22.3125 68.015625 
Q 18.109375 68.015625 15.6875 64.375 
Q 13.28125 60.75 13.28125 54.390625 
Q 13.28125 47.953125 15.671875 44.328125 
Q 18.0625 40.71875 22.3125 40.71875 
Q 26.5625 40.71875 28.96875 44.328125 
Q 31.390625 47.953125 31.390625 54.390625 
Q 31.390625 60.6875 28.953125 64.34375 
Q 26.515625 68.015625 22.3125 68.015625 
z
M 66.40625 74.21875 
L 74.21875 74.21875 
L 28.609375 -1.421875 
L 20.796875 -1.421875 
z
M 22.3125 74.21875 
Q 30.03125 74.21875 34.609375 68.875 
Q 39.203125 63.53125 39.203125 54.390625 
Q 39.203125 45.171875 34.640625 39.84375 
Q 30.078125 34.515625 22.3125 34.515625 
Q 14.546875 34.515625 10.03125 39.859375 
Q 5.515625 45.21875 5.515625 54.390625 
Q 5.515625 63.484375 10.046875 68.84375 
Q 14.59375 74.21875 22.3125 74.21875 
z
" id="DejaVuSans-37"/>
      <path id="DejaVuSans-32"/>
      <path d="M 19.671875 64.796875 
L 19.671875 37.40625 
L 32.078125 37.40625 
Q 38.96875 37.40625 42.71875 40.96875 
Q 46.484375 44.53125 46.484375 51.125 
Q 46.484375 57.671875 42.71875 61.234375 
Q 38.96875 64.796875 32.078125 64.796875 
z
M 9.8125 72.90625 
L 32.078125 72.90625 
Q 44.34375 72.90625 50.609375 67.359375 
Q 56.890625 61.8125 56.890625 51.125 
Q 56.890625 40.328125 50.609375 34.8125 
Q 44.34375 29.296875 32.078125 29.296875 
L 19.671875 29.296875 
L 19.671875 0 
L 9.8125 0 
z
" id="DejaVuSans-80"/>
      <path d="M 41.109375 46.296875 
Q 39.59375 47.171875 37.8125 47.578125 
Q 36.03125 48 33.890625 48 
Q 26.265625 48 22.1875 43.046875 
Q 18.109375 38.09375 18.109375 28.8125 
L 18.109375 0 
L 9.078125 0 
L 9.078125 54.6875 
L 18.109375 54.6875 
L 18.109375 46.1875 
Q 20.953125 51.171875 25.484375 53.578125 
Q 30.03125 56 36.53125 56 
Q 37.453125 56 38.578125 55.875 
Q 39.703125 55.765625 41.0625 55.515625 
z
" id="DejaVuSans-114"/>
      <path d="M 56.203125 29.59375 
L 56.203125 25.203125 
L 14.890625 25.203125 
Q 15.484375 15.921875 20.484375 11.0625 
Q 25.484375 6.203125 34.421875 6.203125 
Q 39.59375 6.203125 44.453125 7.46875 
Q 49.3125 8.734375 54.109375 11.28125 
L 54.109375 2.78125 
Q 49.265625 0.734375 44.1875 -0.34375 
Q 39.109375 -1.421875 33.890625 -1.421875 
Q 20.796875 -1.421875 13.15625 6.1875 
Q 5.515625 13.8125 5.515625 26.8125 
Q 5.515625 40.234375 12.765625 48.109375 
Q 20.015625 56 32.328125 56 
Q 43.359375 56 49.78125 48.890625 
Q 56.203125 41.796875 56.203125 29.59375 
z
M 47.21875 32.234375 
Q 47.125 39.59375 43.09375 43.984375 
Q 39.0625 48.390625 32.421875 48.390625 
Q 24.90625 48.390625 20.390625 44.140625 
Q 15.875 39.890625 15.1875 32.171875 
z
" id="DejaVuSans-101"/>
      <path d="M 45.40625 46.390625 
L 45.40625 75.984375 
L 54.390625 75.984375 
L 54.390625 0 
L 45.40625 0 
L 45.40625 8.203125 
Q 42.578125 3.328125 38.25 0.953125 
Q 33.9375 -1.421875 27.875 -1.421875 
Q 17.96875 -1.421875 11.734375 6.484375 
Q 5.515625 14.40625 5.515625 27.296875 
Q 5.515625 40.1875 11.734375 48.09375 
Q 17.96875 56 27.875 56 
Q 33.9375 56 38.25 53.625 
Q 42.578125 51.265625 45.40625 46.390625 
z
M 14.796875 27.296875 
Q 14.796875 17.390625 18.875 11.75 
Q 22.953125 6.109375 30.078125 6.109375 
Q 37.203125 6.109375 41.296875 11.75 
Q 45.40625 17.390625 45.40625 27.296875 
Q 45.40625 37.203125 41.296875 42.84375 
Q 37.203125 48.484375 30.078125 48.484375 
Q 22.953125 48.484375 18.875 42.84375 
Q 14.796875 37.203125 14.796875 27.296875 
z
" id="DejaVuSans-100"/>
      <path d="M 9.421875 54.6875 
L 18.40625 54.6875 
L 18.40625 0 
L 9.421875 0 
z
M 9.421875 75.984375 
L 18.40625 75.984375 
L 18.40625 64.59375 
L 9.421875 64.59375 
z
" id="DejaVuSans-105"/>
      <path d="M 48.78125 52.59375 
L 48.78125 44.1875 
Q 44.96875 46.296875 41.140625 47.34375 
Q 37.3125 48.390625 33.40625 48.390625 
Q 24.65625 48.390625 19.8125 42.84375 
Q 14.984375 37.3125 14.984375 27.296875 
Q 14.984375 17.28125 19.8125 11.734375 
Q 24.65625 6.203125 33.40625 6.203125 
Q 37.3125 6.203125 41.140625 7.25 
Q 44.96875 8.296875 48.78125 10.40625 
L 48.78125 2.09375 
Q 45.015625 0.34375 40.984375 -0.53125 
Q 36.96875 -1.421875 32.421875 -1.421875 
Q 20.0625 -1.421875 12.78125 6.34375 
Q 5.515625 14.109375 5.515625 27.296875 
Q 5.515625 40.671875 12.859375 48.328125 
Q 20.21875 56 33.015625 56 
Q 37.15625 56 41.109375 55.140625 
Q 45.0625 54.296875 48.78125 52.59375 
z
" id="DejaVuSans-99"/>
      <path d="M 2.984375 54.6875 
L 12.5 54.6875 
L 29.59375 8.796875 
L 46.6875 54.6875 
L 56.203125 54.6875 
L 35.6875 0 
L 23.484375 0 
z
" id="DejaVuSans-118"/>
      <path d="M 54.890625 33.015625 
L 54.890625 0 
L 45.90625 0 
L 45.90625 32.71875 
Q 45.90625 40.484375 42.875 44.328125 
Q 39.84375 48.1875 33.796875 48.1875 
Q 26.515625 48.1875 22.3125 43.546875 
Q 18.109375 38.921875 18.109375 30.90625 
L 18.109375 0 
L 9.078125 0 
L 9.078125 54.6875 
L 18.109375 54.6875 
L 18.109375 46.1875 
Q 21.34375 51.125 25.703125 53.5625 
Q 30.078125 56 35.796875 56 
Q 45.21875 56 50.046875 50.171875 
Q 54.890625 44.34375 54.890625 33.015625 
z
" id="DejaVuSans-110"/>
      <path d="M 9.421875 75.984375 
L 18.40625 75.984375 
L 18.40625 0 
L 9.421875 0 
z
" id="DejaVuSans-108"/>
     </defs>
     <g style="fill:#262626;" transform="translate(89.230156 41.604219)scale(0.11 -0.11)">
      <use xlink:href="#DejaVuSans-57"/>
      <use x="63.623047" xlink:href="#DejaVuSans-48"/>
      <use x="127.246094" xlink:href="#DejaVuSans-37"/>
      <use x="222.265625" xlink:href="#DejaVuSans-32"/>
      <use x="254.052734" xlink:href="#DejaVuSans-80"/>
      <use x="314.339844" xlink:href="#DejaVuSans-114"/>
      <use x="355.421875" xlink:href="#DejaVuSans-101"/>
      <use x="416.945312" xlink:href="#DejaVuSans-100"/>
      <use x="480.421875" xlink:href="#DejaVuSans-105"/>
      <use x="508.205078" xlink:href="#DejaVuSans-99"/>
      <use x="563.185547" xlink:href="#DejaVuSans-116"/>
      <use x="602.394531" xlink:href="#DejaVuSans-105"/>
      <use x="630.177734" xlink:href="#DejaVuSans-118"/>
      <use x="689.357422" xlink:href="#DejaVuSans-101"/>
      <use x="750.880859" xlink:href="#DejaVuSans-32"/>
      <use x="782.667969" xlink:href="#DejaVuSans-105"/>
      <use x="810.451172" xlink:href="#DejaVuSans-110"/>
      <use x="873.830078" xlink:href="#DejaVuSans-116"/>
      <use x="913.039062" xlink:href="#DejaVuSans-101"/>
      <use x="974.5625" xlink:href="#DejaVuSans-114"/>
      <use x="1015.675781" xlink:href="#DejaVuSans-118"/>
      <use x="1074.855469" xlink:href="#DejaVuSans-97"/>
      <use x="1136.134766" xlink:href="#DejaVuSans-108"/>
     </g>
    </g>
   </g>
  </g>
 </g>
 <defs>
  <clipPath id="p03f378e470">
   <rect height="217.44" width="334.8" x="48.530156" y="7.2"/>
  </clipPath>
 </defs>
</svg>
