<?xml version="1.0" encoding="utf-8" standalone="no"?>
<!DOCTYPE svg PUBLIC "-//W3C//DTD SVG 1.1//EN"
  "http://www.w3.org/Graphics/SVG/1.1/DTD/svg11.dtd">
<!-- Created with matplotlib (https://matplotlib.org/) -->
<svg height="262.19625pt" version="1.1" viewBox="0 0 356.2 262.19625" width="356.2pt" xmlns="http://www.w3.org/2000/svg" xmlns:xlink="http://www.w3.org/1999/xlink">
 <defs>
  <style type="text/css">
*{stroke-linecap:butt;stroke-linejoin:round;}
  </style>
 </defs>
 <g id="figure_1">
  <g id="patch_1">
   <path d="M 0 262.19625 
L 356.2 262.19625 
L 356.2 0 
L 0 0 
z
" style="fill:none;"/>
  </g>
  <g id="axes_1">
   <g id="patch_2">
    <path d="M 10.7 224.64 
L 345.5 224.64 
L 345.5 7.2 
L 10.7 7.2 
z
" style="fill:#ffffff;"/>
   </g>
   <g id="patch_3">
    <path clip-path="url(#pac9349cdc7)" d="M 25.918182 214.756364 
L 26.415505 214.755658 
L 26.912829 214.755534 
L 27.410152 214.755393 
L 27.907475 214.75523 
L 28.404799 214.755044 
L 28.902122 214.754832 
L 29.399445 214.754591 
L 29.896769 214.754318 
L 30.394092 214.75401 
L 30.891415 214.753664 
L 31.388739 214.753276 
L 31.886062 214.752842 
L 32.383386 214.752359 
L 32.880709 214.751116 
L 33.378032 214.7504 
L 33.875356 214.749605 
L 34.372679 214.748725 
L 34.870002 214.747754 
L 35.367326 214.746686 
L 35.864649 214.745515 
L 36.361972 214.744235 
L 36.859296 214.742841 
L 37.356619 214.741329 
L 37.853943 214.739692 
L 38.351266 214.737926 
L 38.848589 214.736029 
L 39.345913 214.733997 
L 39.843236 214.731828 
L 40.340559 214.72952 
L 40.837883 214.727074 
L 41.335206 214.724491 
L 41.83253 214.721772 
L 42.329853 214.718921 
L 42.827176 214.715942 
L 43.3245 214.712842 
L 43.821823 214.708216 
L 44.319146 214.704652 
L 44.81647 214.700955 
L 45.313793 214.697134 
L 45.811116 214.693196 
L 46.30844 214.688446 
L 46.805763 214.684183 
L 47.303087 214.679109 
L 47.80041 214.673817 
L 48.297733 214.669006 
L 48.795057 214.663374 
L 49.29238 214.658218 
L 49.789703 214.652234 
L 50.287027 214.646009 
L 50.78435 214.639526 
L 51.281673 214.633472 
L 51.778997 214.626535 
L 52.27632 214.619995 
L 52.773644 214.613243 
L 53.270967 214.606264 
L 54.265614 214.599044 
L 54.762937 214.590155 
L 55.26026 214.582158 
L 55.757611 214.573124 
L 56.254934 214.562907 
L 56.752258 214.552753 
L 57.249581 214.54272 
L 57.746905 214.532175 
L 58.244228 214.521083 
L 58.741551 214.509412 
L 59.238875 214.496421 
L 59.736225 214.48125 
L 60.233549 214.467138 
L 60.730872 214.451544 
L 61.228195 214.435022 
L 61.725519 214.416819 
L 62.222842 214.398888 
L 62.720166 214.37859 
L 63.217489 214.358485 
L 63.71484 214.337353 
L 64.212163 214.315184 
L 64.709486 214.29056 
L 65.20681 214.264648 
L 65.704133 214.238129 
L 66.201456 214.208985 
L 66.69878 214.179792 
L 67.196103 214.149354 
L 67.693454 214.116972 
L 68.190777 214.083243 
L 68.688101 214.04746 
L 69.185424 214.010209 
L 69.682747 213.972185 
L 70.180071 213.933496 
L 70.677394 213.891449 
L 71.174717 213.849226 
L 71.672068 213.804929 
L 72.169392 213.760555 
L 72.666715 213.714215 
L 73.164038 213.665099 
L 73.661362 213.615074 
L 74.158685 213.562106 
L 74.656008 213.509448 
L 75.153332 213.45669 
L 75.650682 213.401225 
L 76.148006 213.341401 
L 76.645329 213.283048 
L 77.142653 213.221023 
L 77.639976 213.157046 
L 78.137299 213.08962 
L 78.634623 213.019112 
L 79.131946 212.949502 
L 79.629297 212.877004 
L 80.12662 212.800706 
L 80.623943 212.722378 
L 81.121267 212.642005 
L 81.61859 212.557465 
L 82.115914 212.467701 
L 82.613237 212.372799 
L 83.11056 212.277259 
L 83.607911 212.17591 
L 84.105234 212.073164 
L 84.602558 211.962242 
L 85.099881 211.848618 
L 85.597204 211.73312 
L 86.094528 211.61393 
L 86.591851 211.488932 
L 87.089202 211.358502 
L 87.586525 211.2217 
L 88.083849 211.078171 
L 88.581172 210.930356 
L 89.078495 210.774701 
L 89.575819 210.614954 
L 90.073142 210.447186 
L 90.570465 210.273043 
L 91.067816 210.092375 
L 91.56514 209.902926 
L 92.062463 209.708428 
L 92.559786 209.507658 
L 93.05711 209.296378 
L 93.554433 209.084466 
L 94.051756 208.858853 
L 94.54908 208.629608 
L 95.04643 208.393077 
L 95.543754 208.143564 
L 96.041077 207.886408 
L 96.538401 207.62086 
L 97.035724 207.350305 
L 97.533047 207.066736 
L 98.030371 206.77771 
L 98.527694 206.48367 
L 99.025045 206.178794 
L 99.522368 205.861194 
L 100.019691 205.532708 
L 100.517015 205.192952 
L 101.014338 204.843125 
L 101.511662 204.482303 
L 102.008985 204.115079 
L 102.506308 203.735477 
L 103.003659 203.342267 
L 103.500982 202.934748 
L 103.998306 202.515564 
L 104.495629 202.086688 
L 104.992952 201.641876 
L 105.490276 201.181601 
L 105.987599 200.713538 
L 106.484923 200.230418 
L 106.982273 199.733746 
L 107.479597 199.220517 
L 107.97692 198.691373 
L 108.474243 198.145732 
L 108.971567 197.583797 
L 109.46889 197.006473 
L 109.966213 196.409964 
L 110.463537 195.799567 
L 110.960888 195.169142 
L 111.458211 194.52084 
L 111.955534 193.847067 
L 112.452858 193.159728 
L 112.950181 192.448427 
L 113.447504 191.714311 
L 113.944828 190.954491 
L 114.442151 190.175582 
L 114.939502 189.379727 
L 115.436825 188.553112 
L 115.934149 187.707622 
L 116.431472 186.834835 
L 116.928795 185.937308 
L 117.426119 185.019587 
L 117.923442 184.073923 
L 118.420793 183.10105 
L 118.918116 182.101924 
L 119.415439 181.079376 
L 119.912763 180.033023 
L 120.410086 178.955901 
L 120.90741 177.86462 
L 121.404733 176.752968 
L 121.902056 175.606331 
L 122.399407 174.435894 
L 122.89673 173.247264 
L 123.394054 172.022635 
L 123.891377 170.786248 
L 124.3887 169.53057 
L 124.886024 168.244548 
L 125.383347 166.933694 
L 125.880671 165.603805 
L 126.378021 164.254791 
L 126.875345 162.892226 
L 127.372668 161.50724 
L 127.869991 160.104081 
L 128.367315 158.674908 
L 128.864638 157.241721 
L 129.361961 155.784637 
L 129.859285 154.310519 
L 130.356636 152.816971 
L 130.853959 151.309951 
L 131.351282 149.783045 
L 131.848606 148.252706 
L 132.345929 146.68962 
L 132.843252 145.125006 
L 133.340576 143.529304 
L 133.837899 141.922943 
L 134.33525 140.296689 
L 134.832573 138.652466 
L 135.329897 136.98471 
L 135.82722 135.3087 
L 136.324543 133.615177 
L 136.821867 131.896446 
L 137.31919 130.157298 
L 137.816513 128.401637 
L 138.313864 126.630582 
L 138.811187 124.831039 
L 139.308511 123.014465 
L 139.805834 121.185685 
L 140.303158 119.342336 
L 140.800481 117.471026 
L 141.297804 115.571306 
L 141.795128 113.649459 
L 142.292465 111.719991 
L 142.789788 109.765207 
L 143.287125 107.796843 
L 143.784448 105.823006 
L 144.281772 103.822601 
L 144.779095 101.805145 
L 145.276432 99.774253 
L 145.773756 97.737011 
L 146.271079 95.691995 
L 146.768402 93.629974 
L 147.265739 91.565726 
L 147.763063 89.487863 
L 148.260386 87.417091 
L 148.757723 85.335646 
L 149.255047 83.246701 
L 149.75237 81.172898 
L 150.249693 79.090015 
L 150.74703 77.007112 
L 151.244354 74.939325 
L 151.741677 72.878958 
L 152.239 70.83523 
L 152.736337 68.790071 
L 153.233661 66.764825 
L 153.730984 64.753924 
L 154.228308 62.755999 
L 154.725645 60.779251 
L 155.222968 58.836032 
L 155.720291 56.915244 
L 156.217615 55.021898 
L 156.714952 53.149267 
L 157.212275 51.306594 
L 157.709598 49.490186 
L 158.206922 47.716094 
L 158.704259 45.979223 
L 159.201582 44.281665 
L 159.698906 42.628163 
L 160.196229 41.0003 
L 160.693566 39.423192 
L 161.190889 37.88715 
L 161.688213 36.394023 
L 162.185536 34.958216 
L 162.682873 33.572153 
L 163.180196 32.232222 
L 163.67752 30.940602 
L 164.174843 29.701235 
L 164.67218 28.520098 
L 165.169504 27.392822 
L 165.666827 26.328444 
L 166.16415 25.302941 
L 166.661487 24.353686 
L 167.158811 23.457553 
L 167.656134 22.612301 
L 168.153457 21.837649 
L 168.650795 21.119697 
L 169.148118 20.465049 
L 169.645441 19.870786 
L 170.142765 19.327296 
L 170.640102 18.84083 
L 171.137425 18.426338 
L 171.634748 18.051668 
L 172.132072 17.741943 
L 172.629409 17.498676 
L 173.126732 17.310936 
L 173.624056 17.172549 
L 174.121379 17.103374 
L 174.618716 17.083636 
L 175.116039 17.110136 
L 175.613363 17.205382 
L 176.110686 17.359166 
L 176.608023 17.550693 
L 177.105346 17.797444 
L 177.60267 18.108826 
L 178.100007 18.471198 
L 178.59733 18.885157 
L 179.094654 19.369303 
L 179.591977 19.890324 
L 180.089314 20.469442 
L 180.586637 21.11175 
L 181.083961 21.803714 
L 181.581284 22.55066 
L 182.078621 23.347089 
L 182.575944 24.189986 
L 183.073268 25.094714 
L 183.570591 26.046494 
L 184.067928 27.062644 
L 184.565252 28.121691 
L 185.062575 29.235243 
L 185.559898 30.399703 
L 186.057235 31.619039 
L 186.554559 32.882548 
L 187.051882 34.201508 
L 187.549205 35.55983 
L 188.046543 36.978782 
L 188.543866 38.426772 
L 189.041189 39.937161 
L 189.538513 41.483223 
L 190.03585 43.073223 
L 190.533173 44.703829 
L 191.030496 46.375706 
L 191.52782 48.075353 
L 192.025157 49.811533 
L 192.52248 51.581547 
L 193.019804 53.384263 
L 193.517127 55.211701 
L 194.014464 57.055678 
L 194.511787 58.931998 
L 195.009111 60.827687 
L 195.506434 62.726763 
L 196.003771 64.643542 
L 196.501094 66.583844 
L 196.998418 68.543508 
L 197.495741 70.5101 
L 197.993078 72.4744 
L 198.490402 74.451651 
L 198.987725 76.425198 
L 199.485048 78.390868 
L 199.982385 80.369961 
L 200.479709 82.349708 
L 200.977032 84.31453 
L 201.474355 86.276101 
L 201.971692 88.229114 
L 202.469016 90.179677 
L 202.966339 92.121509 
L 203.463663 94.056487 
L 203.961 95.966475 
L 204.458323 97.878574 
L 204.955646 99.781296 
L 205.45297 101.667508 
L 205.950307 103.550684 
L 206.44763 105.421602 
L 206.944953 107.27539 
L 207.442277 109.117007 
L 207.939614 110.941234 
L 208.436937 112.764711 
L 208.934261 114.57816 
L 209.431598 116.376434 
L 209.928921 118.161894 
L 210.426244 119.939585 
L 210.923568 121.699432 
L 211.420905 123.452237 
L 211.918228 125.193366 
L 212.415552 126.93037 
L 212.912875 128.658553 
L 213.410212 130.374835 
L 213.907535 132.073643 
L 214.404859 133.761023 
L 214.902182 135.439891 
L 215.399519 137.101214 
L 215.896842 138.763488 
L 216.394166 140.411093 
L 216.891489 142.049087 
L 217.388826 143.673162 
L 217.88615 145.273834 
L 218.383473 146.862581 
L 218.880796 148.443375 
L 219.378133 150.009806 
L 219.875457 151.562125 
L 220.37278 153.091009 
L 220.870103 154.600294 
L 221.36744 156.088859 
L 221.864764 157.572747 
L 222.362087 159.016995 
L 222.859411 160.447011 
L 223.356748 161.864845 
L 223.854071 163.241021 
L 224.351394 164.601252 
L 224.848718 165.934646 
L 225.346055 167.24631 
L 225.843378 168.537167 
L 226.340701 169.796804 
L 226.838025 171.025863 
L 227.335362 172.239691 
L 227.832685 173.421971 
L 228.330009 174.568423 
L 228.827332 175.686087 
L 229.324669 176.7878 
L 229.821992 177.851545 
L 230.319316 178.895931 
L 230.816639 179.921081 
L 231.313976 180.90547 
L 231.8113 181.86717 
L 232.308623 182.811031 
L 232.805946 183.726505 
L 233.303283 184.619484 
L 233.800607 185.489788 
L 234.29793 186.333088 
L 234.795253 187.152526 
L 235.29259 187.955192 
L 235.789914 188.732016 
L 236.287237 189.487884 
L 236.784561 190.232116 
L 237.281898 190.953135 
L 237.779221 191.66072 
L 238.276544 192.350645 
L 238.773868 193.018472 
L 239.271205 193.676958 
L 239.768528 194.314886 
L 240.265851 194.936377 
L 240.763188 195.547451 
L 241.260512 196.146744 
L 241.757835 196.727732 
L 242.255159 197.2973 
L 242.752496 197.853102 
L 243.249819 198.395571 
L 243.747142 198.924889 
L 244.244466 199.446102 
L 244.741803 199.951004 
L 245.239126 200.444545 
L 245.736449 200.925533 
L 246.233773 201.390568 
L 246.73111 201.846368 
L 247.228433 202.289649 
L 247.725757 202.718124 
L 248.22308 203.140153 
L 248.720417 203.549149 
L 249.21774 203.946536 
L 249.715064 204.33783 
L 250.212387 204.71164 
L 250.709724 205.073125 
L 251.207048 205.429182 
L 251.704371 205.772596 
L 252.201694 206.102582 
L 252.699031 206.420314 
L 253.196355 206.731021 
L 253.693678 207.03078 
L 254.191001 207.320493 
L 254.688338 207.603368 
L 255.185662 207.876164 
L 255.682985 208.136173 
L 256.180309 208.388343 
L 256.677639 208.63811 
L 257.174969 208.872732 
L 257.672292 209.099436 
L 258.169623 209.320801 
L 258.666946 209.53066 
L 259.164276 209.735814 
L 259.661599 209.936679 
L 260.15893 210.128839 
L 260.656253 210.311589 
L 261.153583 210.486172 
L 261.650907 210.65488 
L 262.148237 210.821491 
L 262.64556 210.982039 
L 263.14289 211.136186 
L 263.640214 211.284277 
L 264.137544 211.426634 
L 264.634867 211.56056 
L 265.132197 211.692189 
L 265.629521 211.822549 
L 266.126851 211.945929 
L 266.624174 212.064699 
L 267.121505 212.180293 
L 267.618828 212.29154 
L 268.116158 212.399263 
L 268.613482 212.501172 
L 269.110812 212.601938 
L 269.608135 212.700131 
L 270.105465 212.796346 
L 270.602789 212.888094 
L 271.100119 212.97807 
L 271.597449 213.064369 
L 272.094772 213.145381 
L 272.592103 213.22455 
L 273.089426 213.299401 
L 273.586756 213.37444 
L 274.08408 213.445693 
L 274.58141 213.514592 
L 275.078733 213.582845 
L 275.576063 213.645999 
L 276.073387 213.70818 
L 276.570717 213.769205 
L 277.06804 213.825322 
L 277.565371 213.878752 
L 278.062694 213.930788 
L 278.560024 213.980129 
L 279.057347 214.029277 
L 279.554678 214.07496 
L 280.052001 214.118006 
L 280.549331 214.159726 
L 281.046655 214.19884 
L 281.543985 214.235468 
L 282.041308 214.272118 
L 282.538638 214.306728 
L 283.035962 214.338753 
L 283.533292 214.36894 
L 284.030615 214.397334 
L 284.527945 214.425179 
L 285.025269 214.449942 
L 285.522599 214.474281 
L 286.019922 214.495665 
L 286.517253 214.514353 
L 287.014576 214.531779 
L 287.511906 214.549169 
L 288.00923 214.563972 
L 288.50656 214.577632 
L 289.003883 214.590786 
L 289.501213 214.602182 
L 289.998537 214.613769 
L 290.495867 214.623007 
L 290.99319 214.631953 
L 291.49052 214.639961 
L 291.987844 214.648291 
L 292.485174 214.653822 
L 292.982497 214.658715 
L 293.479828 214.663013 
L 293.977151 214.666761 
L 294.474481 214.671803 
L 294.971805 214.674313 
L 295.469135 214.677647 
L 295.966458 214.679864 
L 296.463788 214.68232 
L 296.961112 214.683176 
L 297.458442 214.684472 
L 297.955765 214.685549 
L 298.453095 214.685848 
L 298.950419 214.686102 
L 299.447749 214.686933 
L 299.945072 214.687073 
L 300.442403 214.687249 
L 300.939726 214.687477 
L 301.437056 214.687775 
L 301.93438 214.688156 
L 302.43171 214.688632 
L 302.929033 214.689214 
L 303.426356 214.690509 
L 303.92368 214.691232 
L 304.421003 214.692091 
L 304.918327 214.693685 
L 305.41565 214.694722 
L 305.912973 214.695901 
L 306.410297 214.697817 
L 306.90762 214.69917 
L 307.404943 214.700654 
L 307.902267 214.702259 
L 308.39959 214.70397 
L 308.896913 214.705775 
L 309.394237 214.707661 
L 309.89156 214.709613 
L 310.388884 214.711617 
L 310.886207 214.713661 
L 311.38353 214.71573 
L 311.880854 214.717812 
L 312.378177 214.719894 
L 312.8755 214.721964 
L 313.372824 214.724011 
L 313.870147 214.726026 
L 314.36747 214.727997 
L 314.864794 214.729918 
L 315.362117 214.731781 
L 315.859441 214.73358 
L 316.356764 214.735308 
L 316.854087 214.736962 
L 317.351411 214.738538 
L 317.848734 214.740034 
L 318.346057 214.741448 
L 318.843381 214.74278 
L 319.340704 214.744028 
L 319.838028 214.745195 
L 320.335351 214.74628 
L 320.832674 214.747287 
L 321.329998 214.748217 
L 321.827321 214.749073 
L 322.324644 214.749858 
L 322.821968 214.750576 
L 323.319291 214.751229 
L 323.816614 214.751822 
L 324.313938 214.752359 
L 324.811261 214.752842 
L 325.308585 214.753276 
L 325.805908 214.753664 
L 326.303231 214.75401 
L 326.800555 214.754318 
L 327.297878 214.754591 
L 327.795201 214.754832 
L 328.292525 214.755044 
L 328.789848 214.75523 
L 329.287171 214.755393 
L 329.784495 214.755534 
L 330.281818 214.755658 
z
" style="fill:#1f77b4;opacity:0.4;"/>
   </g>
   <g id="patch_4">
    <path clip-path="url(#pac9349cdc7)" d="M 117.923442 214.756364 
L 117.923442 184.073923 
L 118.420793 183.10105 
L 118.918116 182.101924 
L 119.415439 181.079376 
L 119.912763 180.033023 
L 120.410086 178.955901 
L 120.90741 177.86462 
L 121.404733 176.752968 
L 121.902056 175.606331 
L 122.399407 174.435894 
L 122.89673 173.247264 
L 123.394054 172.022635 
L 123.891377 170.786248 
L 124.3887 169.53057 
L 124.886024 168.244548 
L 125.383347 166.933694 
L 125.880671 165.603805 
L 126.378021 164.254791 
L 126.875345 162.892226 
L 127.372668 161.50724 
L 127.869991 160.104081 
L 128.367315 158.674908 
L 128.864638 157.241721 
L 129.361961 155.784637 
L 129.859285 154.310519 
L 130.356636 152.816971 
L 130.853959 151.309951 
L 131.351282 149.783045 
L 131.848606 148.252706 
L 132.345929 146.68962 
L 132.843252 145.125006 
L 133.340576 143.529304 
L 133.837899 141.922943 
L 134.33525 140.296689 
L 134.832573 138.652466 
L 135.329897 136.98471 
L 135.82722 135.3087 
L 136.324543 133.615177 
L 136.821867 131.896446 
L 137.31919 130.157298 
L 137.816513 128.401637 
L 138.313864 126.630582 
L 138.811187 124.831039 
L 139.308511 123.014465 
L 139.805834 121.185685 
L 140.303158 119.342336 
L 140.800481 117.471026 
L 141.297804 115.571306 
L 141.795128 113.649459 
L 142.292465 111.719991 
L 142.789788 109.765207 
L 143.287125 107.796843 
L 143.784448 105.823006 
L 144.281772 103.822601 
L 144.779095 101.805145 
L 145.276432 99.774253 
L 145.773756 97.737011 
L 146.271079 95.691995 
L 146.768402 93.629974 
L 147.265739 91.565726 
L 147.763063 89.487863 
L 148.260386 87.417091 
L 148.757723 85.335646 
L 149.255047 83.246701 
L 149.75237 81.172898 
L 150.249693 79.090015 
L 150.74703 77.007112 
L 151.244354 74.939325 
L 151.741677 72.878958 
L 152.239 70.83523 
L 152.736337 68.790071 
L 153.233661 66.764825 
L 153.730984 64.753924 
L 154.228308 62.755999 
L 154.725645 60.779251 
L 155.222968 58.836032 
L 155.720291 56.915244 
L 156.217615 55.021898 
L 156.714952 53.149267 
L 157.212275 51.306594 
L 157.709598 49.490186 
L 158.206922 47.716094 
L 158.704259 45.979223 
L 159.201582 44.281665 
L 159.698906 42.628163 
L 160.196229 41.0003 
L 160.693566 39.423192 
L 161.190889 37.88715 
L 161.688213 36.394023 
L 162.185536 34.958216 
L 162.682873 33.572153 
L 163.180196 32.232222 
L 163.67752 30.940602 
L 164.174843 29.701235 
L 164.67218 28.520098 
L 165.169504 27.392822 
L 165.666827 26.328444 
L 166.16415 25.302941 
L 166.661487 24.353686 
L 167.158811 23.457553 
L 167.656134 22.612301 
L 168.153457 21.837649 
L 168.650795 21.119697 
L 169.148118 20.465049 
L 169.645441 19.870786 
L 170.142765 19.327296 
L 170.640102 18.84083 
L 171.137425 18.426338 
L 171.634748 18.051668 
L 172.132072 17.741943 
L 172.629409 17.498676 
L 173.126732 17.310936 
L 173.624056 17.172549 
L 174.121379 17.103374 
L 174.618716 17.083636 
L 175.116039 17.110136 
L 175.613363 17.205382 
L 176.110686 17.359166 
L 176.608023 17.550693 
L 177.105346 17.797444 
L 177.60267 18.108826 
L 178.100007 18.471198 
L 178.59733 18.885157 
L 179.094654 19.369303 
L 179.591977 19.890324 
L 180.089314 20.469442 
L 180.586637 21.11175 
L 181.083961 21.803714 
L 181.581284 22.55066 
L 182.078621 23.347089 
L 182.575944 24.189986 
L 183.073268 25.094714 
L 183.570591 26.046494 
L 184.067928 27.062644 
L 184.565252 28.121691 
L 185.062575 29.235243 
L 185.559898 30.399703 
L 186.057235 31.619039 
L 186.554559 32.882548 
L 187.051882 34.201508 
L 187.549205 35.55983 
L 188.046543 36.978782 
L 188.543866 38.426772 
L 189.041189 39.937161 
L 189.538513 41.483223 
L 190.03585 43.073223 
L 190.533173 44.703829 
L 191.030496 46.375706 
L 191.52782 48.075353 
L 192.025157 49.811533 
L 192.52248 51.581547 
L 193.019804 53.384263 
L 193.517127 55.211701 
L 194.014464 57.055678 
L 194.511787 58.931998 
L 195.009111 60.827687 
L 195.506434 62.726763 
L 196.003771 64.643542 
L 196.501094 66.583844 
L 196.998418 68.543508 
L 197.495741 70.5101 
L 197.993078 72.4744 
L 198.490402 74.451651 
L 198.987725 76.425198 
L 199.485048 78.390868 
L 199.982385 80.369961 
L 200.479709 82.349708 
L 200.977032 84.31453 
L 201.474355 86.276101 
L 201.971692 88.229114 
L 202.469016 90.179677 
L 202.966339 92.121509 
L 203.463663 94.056487 
L 203.961 95.966475 
L 204.458323 97.878574 
L 204.955646 99.781296 
L 205.45297 101.667508 
L 205.950307 103.550684 
L 206.44763 105.421602 
L 206.944953 107.27539 
L 207.442277 109.117007 
L 207.939614 110.941234 
L 208.436937 112.764711 
L 208.934261 114.57816 
L 209.431598 116.376434 
L 209.928921 118.161894 
L 210.426244 119.939585 
L 210.923568 121.699432 
L 211.420905 123.452237 
L 211.918228 125.193366 
L 212.415552 126.93037 
L 212.912875 128.658553 
L 213.410212 130.374835 
L 213.907535 132.073643 
L 214.404859 133.761023 
L 214.902182 135.439891 
L 215.399519 137.101214 
L 215.896842 138.763488 
L 216.394166 140.411093 
L 216.891489 142.049087 
L 217.388826 143.673162 
L 217.88615 145.273834 
L 218.383473 146.862581 
L 218.880796 148.443375 
L 219.378133 150.009806 
L 219.875457 151.562125 
L 220.37278 153.091009 
L 220.870103 154.600294 
L 221.36744 156.088859 
L 221.864764 157.572747 
L 222.362087 159.016995 
L 222.859411 160.447011 
L 223.356748 161.864845 
L 223.854071 163.241021 
L 224.351394 164.601252 
L 224.848718 165.934646 
L 225.346055 167.24631 
L 225.843378 168.537167 
L 226.340701 169.796804 
L 226.838025 171.025863 
L 227.335362 172.239691 
L 227.832685 173.421971 
L 228.330009 174.568423 
L 228.827332 175.686087 
L 229.324669 176.7878 
L 229.821992 177.851545 
L 230.319316 178.895931 
L 230.816639 179.921081 
L 231.313976 180.90547 
L 231.8113 181.86717 
L 232.308623 182.811031 
L 232.805946 183.726505 
L 233.303283 184.619484 
L 233.303283 214.756364 
z
" style="fill:#1f77b4;opacity:0.4;"/>
   </g>
   <g id="matplotlib.axis_1">
    <g id="xtick_1">
     <g id="line2d_1">
      <defs>
       <path d="M 0 0 
L 0 3.5 
" id="md19e838b30" style="stroke:#000000;stroke-width:0.8;"/>
      </defs>
      <g>
       <use style="stroke:#000000;stroke-width:0.8;" x="27.192489" xlink:href="#md19e838b30" y="224.64"/>
      </g>
     </g>
     <g id="text_1">
      <!-- −12 -->
      <defs>
       <path d="M 10.59375 35.5 
L 73.1875 35.5 
L 73.1875 27.203125 
L 10.59375 27.203125 
z
" id="DejaVuSans-8722"/>
       <path d="M 12.40625 8.296875 
L 28.515625 8.296875 
L 28.515625 63.921875 
L 10.984375 60.40625 
L 10.984375 69.390625 
L 28.421875 72.90625 
L 38.28125 72.90625 
L 38.28125 8.296875 
L 54.390625 8.296875 
L 54.390625 0 
L 12.40625 0 
z
" id="DejaVuSans-49"/>
       <path d="M 19.1875 8.296875 
L 53.609375 8.296875 
L 53.609375 0 
L 7.328125 0 
L 7.328125 8.296875 
Q 12.9375 14.109375 22.625 23.890625 
Q 32.328125 33.6875 34.8125 36.53125 
Q 39.546875 41.84375 41.421875 45.53125 
Q 43.3125 49.21875 43.3125 52.78125 
Q 43.3125 58.59375 39.234375 62.25 
Q 35.15625 65.921875 28.609375 65.921875 
Q 23.96875 65.921875 18.8125 64.3125 
Q 13.671875 62.703125 7.8125 59.421875 
L 7.8125 69.390625 
Q 13.765625 71.78125 18.9375 73 
Q 24.125 74.21875 28.421875 74.21875 
Q 39.75 74.21875 46.484375 68.546875 
Q 53.21875 62.890625 53.21875 53.421875 
Q 53.21875 48.921875 51.53125 44.890625 
Q 49.859375 40.875 45.40625 35.40625 
Q 44.1875 33.984375 37.640625 27.21875 
Q 31.109375 20.453125 19.1875 8.296875 
z
" id="DejaVuSans-50"/>
      </defs>
      <g transform="translate(16.640145 239.238437)scale(0.1 -0.1)">
       <use xlink:href="#DejaVuSans-8722"/>
       <use x="83.789062" xlink:href="#DejaVuSans-49"/>
       <use x="147.412109" xlink:href="#DejaVuSans-50"/>
      </g>
     </g>
    </g>
    <g id="xtick_2">
     <g id="line2d_2">
      <g>
       <use style="stroke:#000000;stroke-width:0.8;" x="84.5454" xlink:href="#md19e838b30" y="224.64"/>
      </g>
     </g>
     <g id="text_2">
      <!-- −10 -->
      <defs>
       <path d="M 31.78125 66.40625 
Q 24.171875 66.40625 20.328125 58.90625 
Q 16.5 51.421875 16.5 36.375 
Q 16.5 21.390625 20.328125 13.890625 
Q 24.171875 6.390625 31.78125 6.390625 
Q 39.453125 6.390625 43.28125 13.890625 
Q 47.125 21.390625 47.125 36.375 
Q 47.125 51.421875 43.28125 58.90625 
Q 39.453125 66.40625 31.78125 66.40625 
z
M 31.78125 74.21875 
Q 44.046875 74.21875 50.515625 64.515625 
Q 56.984375 54.828125 56.984375 36.375 
Q 56.984375 17.96875 50.515625 8.265625 
Q 44.046875 -1.421875 31.78125 -1.421875 
Q 19.53125 -1.421875 13.0625 8.265625 
Q 6.59375 17.96875 6.59375 36.375 
Q 6.59375 54.828125 13.0625 64.515625 
Q 19.53125 74.21875 31.78125 74.21875 
z
" id="DejaVuSans-48"/>
      </defs>
      <g transform="translate(73.993057 239.238437)scale(0.1 -0.1)">
       <use xlink:href="#DejaVuSans-8722"/>
       <use x="83.789062" xlink:href="#DejaVuSans-49"/>
       <use x="147.412109" xlink:href="#DejaVuSans-48"/>
      </g>
     </g>
    </g>
    <g id="xtick_3">
     <g id="line2d_3">
      <g>
       <use style="stroke:#000000;stroke-width:0.8;" x="141.898312" xlink:href="#md19e838b30" y="224.64"/>
      </g>
     </g>
     <g id="text_3">
      <!-- −8 -->
      <defs>
       <path d="M 31.78125 34.625 
Q 24.75 34.625 20.71875 30.859375 
Q 16.703125 27.09375 16.703125 20.515625 
Q 16.703125 13.921875 20.71875 10.15625 
Q 24.75 6.390625 31.78125 6.390625 
Q 38.8125 6.390625 42.859375 10.171875 
Q 46.921875 13.96875 46.921875 20.515625 
Q 46.921875 27.09375 42.890625 30.859375 
Q 38.875 34.625 31.78125 34.625 
z
M 21.921875 38.8125 
Q 15.578125 40.375 12.03125 44.71875 
Q 8.5 49.078125 8.5 55.328125 
Q 8.5 64.0625 14.71875 69.140625 
Q 20.953125 74.21875 31.78125 74.21875 
Q 42.671875 74.21875 48.875 69.140625 
Q 55.078125 64.0625 55.078125 55.328125 
Q 55.078125 49.078125 51.53125 44.71875 
Q 48 40.375 41.703125 38.8125 
Q 48.828125 37.15625 52.796875 32.3125 
Q 56.78125 27.484375 56.78125 20.515625 
Q 56.78125 9.90625 50.3125 4.234375 
Q 43.84375 -1.421875 31.78125 -1.421875 
Q 19.734375 -1.421875 13.25 4.234375 
Q 6.78125 9.90625 6.78125 20.515625 
Q 6.78125 27.484375 10.78125 32.3125 
Q 14.796875 37.15625 21.921875 38.8125 
z
M 18.3125 54.390625 
Q 18.3125 48.734375 21.84375 45.5625 
Q 25.390625 42.390625 31.78125 42.390625 
Q 38.140625 42.390625 41.71875 45.5625 
Q 45.3125 48.734375 45.3125 54.390625 
Q 45.3125 60.0625 41.71875 63.234375 
Q 38.140625 66.40625 31.78125 66.40625 
Q 25.390625 66.40625 21.84375 63.234375 
Q 18.3125 60.0625 18.3125 54.390625 
z
" id="DejaVuSans-56"/>
      </defs>
      <g transform="translate(134.527218 239.238437)scale(0.1 -0.1)">
       <use xlink:href="#DejaVuSans-8722"/>
       <use x="83.789062" xlink:href="#DejaVuSans-56"/>
      </g>
     </g>
    </g>
    <g id="xtick_4">
     <g id="line2d_4">
      <g>
       <use style="stroke:#000000;stroke-width:0.8;" x="199.251223" xlink:href="#md19e838b30" y="224.64"/>
      </g>
     </g>
     <g id="text_4">
      <!-- −6 -->
      <defs>
       <path d="M 33.015625 40.375 
Q 26.375 40.375 22.484375 35.828125 
Q 18.609375 31.296875 18.609375 23.390625 
Q 18.609375 15.53125 22.484375 10.953125 
Q 26.375 6.390625 33.015625 6.390625 
Q 39.65625 6.390625 43.53125 10.953125 
Q 47.40625 15.53125 47.40625 23.390625 
Q 47.40625 31.296875 43.53125 35.828125 
Q 39.65625 40.375 33.015625 40.375 
z
M 52.59375 71.296875 
L 52.59375 62.3125 
Q 48.875 64.0625 45.09375 64.984375 
Q 41.3125 65.921875 37.59375 65.921875 
Q 27.828125 65.921875 22.671875 59.328125 
Q 17.53125 52.734375 16.796875 39.40625 
Q 19.671875 43.65625 24.015625 45.921875 
Q 28.375 48.1875 33.59375 48.1875 
Q 44.578125 48.1875 50.953125 41.515625 
Q 57.328125 34.859375 57.328125 23.390625 
Q 57.328125 12.15625 50.6875 5.359375 
Q 44.046875 -1.421875 33.015625 -1.421875 
Q 20.359375 -1.421875 13.671875 8.265625 
Q 6.984375 17.96875 6.984375 36.375 
Q 6.984375 53.65625 15.1875 63.9375 
Q 23.390625 74.21875 37.203125 74.21875 
Q 40.921875 74.21875 44.703125 73.484375 
Q 48.484375 72.75 52.59375 71.296875 
z
" id="DejaVuSans-54"/>
      </defs>
      <g transform="translate(191.880129 239.238437)scale(0.1 -0.1)">
       <use xlink:href="#DejaVuSans-8722"/>
       <use x="83.789062" xlink:href="#DejaVuSans-54"/>
      </g>
     </g>
    </g>
    <g id="xtick_5">
     <g id="line2d_5">
      <g>
       <use style="stroke:#000000;stroke-width:0.8;" x="256.604134" xlink:href="#md19e838b30" y="224.64"/>
      </g>
     </g>
     <g id="text_5">
      <!-- −4 -->
      <defs>
       <path d="M 37.796875 64.3125 
L 12.890625 25.390625 
L 37.796875 25.390625 
z
M 35.203125 72.90625 
L 47.609375 72.90625 
L 47.609375 25.390625 
L 58.015625 25.390625 
L 58.015625 17.1875 
L 47.609375 17.1875 
L 47.609375 0 
L 37.796875 0 
L 37.796875 17.1875 
L 4.890625 17.1875 
L 4.890625 26.703125 
z
" id="DejaVuSans-52"/>
      </defs>
      <g transform="translate(249.23304 239.238437)scale(0.1 -0.1)">
       <use xlink:href="#DejaVuSans-8722"/>
       <use x="83.789062" xlink:href="#DejaVuSans-52"/>
      </g>
     </g>
    </g>
    <g id="xtick_6">
     <g id="line2d_6">
      <g>
       <use style="stroke:#000000;stroke-width:0.8;" x="313.957045" xlink:href="#md19e838b30" y="224.64"/>
      </g>
     </g>
     <g id="text_6">
      <!-- −2 -->
      <g transform="translate(306.585952 239.238437)scale(0.1 -0.1)">
       <use xlink:href="#DejaVuSans-8722"/>
       <use x="83.789062" xlink:href="#DejaVuSans-50"/>
      </g>
     </g>
    </g>
    <g id="text_7">
     <!-- Predicted dependent variable value -->
     <defs>
      <path d="M 19.671875 64.796875 
L 19.671875 37.40625 
L 32.078125 37.40625 
Q 38.96875 37.40625 42.71875 40.96875 
Q 46.484375 44.53125 46.484375 51.125 
Q 46.484375 57.671875 42.71875 61.234375 
Q 38.96875 64.796875 32.078125 64.796875 
z
M 9.8125 72.90625 
L 32.078125 72.90625 
Q 44.34375 72.90625 50.609375 67.359375 
Q 56.890625 61.8125 56.890625 51.125 
Q 56.890625 40.328125 50.609375 34.8125 
Q 44.34375 29.296875 32.078125 29.296875 
L 19.671875 29.296875 
L 19.671875 0 
L 9.8125 0 
z
" id="DejaVuSans-80"/>
      <path d="M 41.109375 46.296875 
Q 39.59375 47.171875 37.8125 47.578125 
Q 36.03125 48 33.890625 48 
Q 26.265625 48 22.1875 43.046875 
Q 18.109375 38.09375 18.109375 28.8125 
L 18.109375 0 
L 9.078125 0 
L 9.078125 54.6875 
L 18.109375 54.6875 
L 18.109375 46.1875 
Q 20.953125 51.171875 25.484375 53.578125 
Q 30.03125 56 36.53125 56 
Q 37.453125 56 38.578125 55.875 
Q 39.703125 55.765625 41.0625 55.515625 
z
" id="DejaVuSans-114"/>
      <path d="M 56.203125 29.59375 
L 56.203125 25.203125 
L 14.890625 25.203125 
Q 15.484375 15.921875 20.484375 11.0625 
Q 25.484375 6.203125 34.421875 6.203125 
Q 39.59375 6.203125 44.453125 7.46875 
Q 49.3125 8.734375 54.109375 11.28125 
L 54.109375 2.78125 
Q 49.265625 0.734375 44.1875 -0.34375 
Q 39.109375 -1.421875 33.890625 -1.421875 
Q 20.796875 -1.421875 13.15625 6.1875 
Q 5.515625 13.8125 5.515625 26.8125 
Q 5.515625 40.234375 12.765625 48.109375 
Q 20.015625 56 32.328125 56 
Q 43.359375 56 49.78125 48.890625 
Q 56.203125 41.796875 56.203125 29.59375 
z
M 47.21875 32.234375 
Q 47.125 39.59375 43.09375 43.984375 
Q 39.0625 48.390625 32.421875 48.390625 
Q 24.90625 48.390625 20.390625 44.140625 
Q 15.875 39.890625 15.1875 32.171875 
z
" id="DejaVuSans-101"/>
      <path d="M 45.40625 46.390625 
L 45.40625 75.984375 
L 54.390625 75.984375 
L 54.390625 0 
L 45.40625 0 
L 45.40625 8.203125 
Q 42.578125 3.328125 38.25 0.953125 
Q 33.9375 -1.421875 27.875 -1.421875 
Q 17.96875 -1.421875 11.734375 6.484375 
Q 5.515625 14.40625 5.515625 27.296875 
Q 5.515625 40.1875 11.734375 48.09375 
Q 17.96875 56 27.875 56 
Q 33.9375 56 38.25 53.625 
Q 42.578125 51.265625 45.40625 46.390625 
z
M 14.796875 27.296875 
Q 14.796875 17.390625 18.875 11.75 
Q 22.953125 6.109375 30.078125 6.109375 
Q 37.203125 6.109375 41.296875 11.75 
Q 45.40625 17.390625 45.40625 27.296875 
Q 45.40625 37.203125 41.296875 42.84375 
Q 37.203125 48.484375 30.078125 48.484375 
Q 22.953125 48.484375 18.875 42.84375 
Q 14.796875 37.203125 14.796875 27.296875 
z
" id="DejaVuSans-100"/>
      <path d="M 9.421875 54.6875 
L 18.40625 54.6875 
L 18.40625 0 
L 9.421875 0 
z
M 9.421875 75.984375 
L 18.40625 75.984375 
L 18.40625 64.59375 
L 9.421875 64.59375 
z
" id="DejaVuSans-105"/>
      <path d="M 48.78125 52.59375 
L 48.78125 44.1875 
Q 44.96875 46.296875 41.140625 47.34375 
Q 37.3125 48.390625 33.40625 48.390625 
Q 24.65625 48.390625 19.8125 42.84375 
Q 14.984375 37.3125 14.984375 27.296875 
Q 14.984375 17.28125 19.8125 11.734375 
Q 24.65625 6.203125 33.40625 6.203125 
Q 37.3125 6.203125 41.140625 7.25 
Q 44.96875 8.296875 48.78125 10.40625 
L 48.78125 2.09375 
Q 45.015625 0.34375 40.984375 -0.53125 
Q 36.96875 -1.421875 32.421875 -1.421875 
Q 20.0625 -1.421875 12.78125 6.34375 
Q 5.515625 14.109375 5.515625 27.296875 
Q 5.515625 40.671875 12.859375 48.328125 
Q 20.21875 56 33.015625 56 
Q 37.15625 56 41.109375 55.140625 
Q 45.0625 54.296875 48.78125 52.59375 
z
" id="DejaVuSans-99"/>
      <path d="M 18.3125 70.21875 
L 18.3125 54.6875 
L 36.8125 54.6875 
L 36.8125 47.703125 
L 18.3125 47.703125 
L 18.3125 18.015625 
Q 18.3125 11.328125 20.140625 9.421875 
Q 21.96875 7.515625 27.59375 7.515625 
L 36.8125 7.515625 
L 36.8125 0 
L 27.59375 0 
Q 17.1875 0 13.234375 3.875 
Q 9.28125 7.765625 9.28125 18.015625 
L 9.28125 47.703125 
L 2.6875 47.703125 
L 2.6875 54.6875 
L 9.28125 54.6875 
L 9.28125 70.21875 
z
" id="DejaVuSans-116"/>
      <path id="DejaVuSans-32"/>
      <path d="M 18.109375 8.203125 
L 18.109375 -20.796875 
L 9.078125 -20.796875 
L 9.078125 54.6875 
L 18.109375 54.6875 
L 18.109375 46.390625 
Q 20.953125 51.265625 25.265625 53.625 
Q 29.59375 56 35.59375 56 
Q 45.5625 56 51.78125 48.09375 
Q 58.015625 40.1875 58.015625 27.296875 
Q 58.015625 14.40625 51.78125 6.484375 
Q 45.5625 -1.421875 35.59375 -1.421875 
Q 29.59375 -1.421875 25.265625 0.953125 
Q 20.953125 3.328125 18.109375 8.203125 
z
M 48.6875 27.296875 
Q 48.6875 37.203125 44.609375 42.84375 
Q 40.53125 48.484375 33.40625 48.484375 
Q 26.265625 48.484375 22.1875 42.84375 
Q 18.109375 37.203125 18.109375 27.296875 
Q 18.109375 17.390625 22.1875 11.75 
Q 26.265625 6.109375 33.40625 6.109375 
Q 40.53125 6.109375 44.609375 11.75 
Q 48.6875 17.390625 48.6875 27.296875 
z
" id="DejaVuSans-112"/>
      <path d="M 54.890625 33.015625 
L 54.890625 0 
L 45.90625 0 
L 45.90625 32.71875 
Q 45.90625 40.484375 42.875 44.328125 
Q 39.84375 48.1875 33.796875 48.1875 
Q 26.515625 48.1875 22.3125 43.546875 
Q 18.109375 38.921875 18.109375 30.90625 
L 18.109375 0 
L 9.078125 0 
L 9.078125 54.6875 
L 18.109375 54.6875 
L 18.109375 46.1875 
Q 21.34375 51.125 25.703125 53.5625 
Q 30.078125 56 35.796875 56 
Q 45.21875 56 50.046875 50.171875 
Q 54.890625 44.34375 54.890625 33.015625 
z
" id="DejaVuSans-110"/>
      <path d="M 2.984375 54.6875 
L 12.5 54.6875 
L 29.59375 8.796875 
L 46.6875 54.6875 
L 56.203125 54.6875 
L 35.6875 0 
L 23.484375 0 
z
" id="DejaVuSans-118"/>
      <path d="M 34.28125 27.484375 
Q 23.390625 27.484375 19.1875 25 
Q 14.984375 22.515625 14.984375 16.5 
Q 14.984375 11.71875 18.140625 8.90625 
Q 21.296875 6.109375 26.703125 6.109375 
Q 34.1875 6.109375 38.703125 11.40625 
Q 43.21875 16.703125 43.21875 25.484375 
L 43.21875 27.484375 
z
M 52.203125 31.203125 
L 52.203125 0 
L 43.21875 0 
L 43.21875 8.296875 
Q 40.140625 3.328125 35.546875 0.953125 
Q 30.953125 -1.421875 24.3125 -1.421875 
Q 15.921875 -1.421875 10.953125 3.296875 
Q 6 8.015625 6 15.921875 
Q 6 25.140625 12.171875 29.828125 
Q 18.359375 34.515625 30.609375 34.515625 
L 43.21875 34.515625 
L 43.21875 35.40625 
Q 43.21875 41.609375 39.140625 45 
Q 35.0625 48.390625 27.6875 48.390625 
Q 23 48.390625 18.546875 47.265625 
Q 14.109375 46.140625 10.015625 43.890625 
L 10.015625 52.203125 
Q 14.9375 54.109375 19.578125 55.046875 
Q 24.21875 56 28.609375 56 
Q 40.484375 56 46.34375 49.84375 
Q 52.203125 43.703125 52.203125 31.203125 
z
" id="DejaVuSans-97"/>
      <path d="M 48.6875 27.296875 
Q 48.6875 37.203125 44.609375 42.84375 
Q 40.53125 48.484375 33.40625 48.484375 
Q 26.265625 48.484375 22.1875 42.84375 
Q 18.109375 37.203125 18.109375 27.296875 
Q 18.109375 17.390625 22.1875 11.75 
Q 26.265625 6.109375 33.40625 6.109375 
Q 40.53125 6.109375 44.609375 11.75 
Q 48.6875 17.390625 48.6875 27.296875 
z
M 18.109375 46.390625 
Q 20.953125 51.265625 25.265625 53.625 
Q 29.59375 56 35.59375 56 
Q 45.5625 56 51.78125 48.09375 
Q 58.015625 40.1875 58.015625 27.296875 
Q 58.015625 14.40625 51.78125 6.484375 
Q 45.5625 -1.421875 35.59375 -1.421875 
Q 29.59375 -1.421875 25.265625 0.953125 
Q 20.953125 3.328125 18.109375 8.203125 
L 18.109375 0 
L 9.078125 0 
L 9.078125 75.984375 
L 18.109375 75.984375 
z
" id="DejaVuSans-98"/>
      <path d="M 9.421875 75.984375 
L 18.40625 75.984375 
L 18.40625 0 
L 9.421875 0 
z
" id="DejaVuSans-108"/>
      <path d="M 8.5 21.578125 
L 8.5 54.6875 
L 17.484375 54.6875 
L 17.484375 21.921875 
Q 17.484375 14.15625 20.5 10.265625 
Q 23.53125 6.390625 29.59375 6.390625 
Q 36.859375 6.390625 41.078125 11.03125 
Q 45.3125 15.671875 45.3125 23.6875 
L 45.3125 54.6875 
L 54.296875 54.6875 
L 54.296875 0 
L 45.3125 0 
L 45.3125 8.40625 
Q 42.046875 3.421875 37.71875 1 
Q 33.40625 -1.421875 27.6875 -1.421875 
Q 18.265625 -1.421875 13.375 4.4375 
Q 8.5 10.296875 8.5 21.578125 
z
M 31.109375 56 
z
" id="DejaVuSans-117"/>
     </defs>
     <g transform="translate(88.785156 252.916562)scale(0.1 -0.1)">
      <use xlink:href="#DejaVuSans-80"/>
      <use x="60.287109" xlink:href="#DejaVuSans-114"/>
      <use x="101.369141" xlink:href="#DejaVuSans-101"/>
      <use x="162.892578" xlink:href="#DejaVuSans-100"/>
      <use x="226.369141" xlink:href="#DejaVuSans-105"/>
      <use x="254.152344" xlink:href="#DejaVuSans-99"/>
      <use x="309.132812" xlink:href="#DejaVuSans-116"/>
      <use x="348.341797" xlink:href="#DejaVuSans-101"/>
      <use x="409.865234" xlink:href="#DejaVuSans-100"/>
      <use x="473.341797" xlink:href="#DejaVuSans-32"/>
      <use x="505.128906" xlink:href="#DejaVuSans-100"/>
      <use x="568.605469" xlink:href="#DejaVuSans-101"/>
      <use x="630.128906" xlink:href="#DejaVuSans-112"/>
      <use x="693.605469" xlink:href="#DejaVuSans-101"/>
      <use x="755.128906" xlink:href="#DejaVuSans-110"/>
      <use x="818.507812" xlink:href="#DejaVuSans-100"/>
      <use x="881.984375" xlink:href="#DejaVuSans-101"/>
      <use x="943.507812" xlink:href="#DejaVuSans-110"/>
      <use x="1006.886719" xlink:href="#DejaVuSans-116"/>
      <use x="1046.095703" xlink:href="#DejaVuSans-32"/>
      <use x="1077.882812" xlink:href="#DejaVuSans-118"/>
      <use x="1137.0625" xlink:href="#DejaVuSans-97"/>
      <use x="1198.341797" xlink:href="#DejaVuSans-114"/>
      <use x="1239.455078" xlink:href="#DejaVuSans-105"/>
      <use x="1267.238281" xlink:href="#DejaVuSans-97"/>
      <use x="1328.517578" xlink:href="#DejaVuSans-98"/>
      <use x="1391.994141" xlink:href="#DejaVuSans-108"/>
      <use x="1419.777344" xlink:href="#DejaVuSans-101"/>
      <use x="1481.300781" xlink:href="#DejaVuSans-32"/>
      <use x="1513.087891" xlink:href="#DejaVuSans-118"/>
      <use x="1572.267578" xlink:href="#DejaVuSans-97"/>
      <use x="1633.546875" xlink:href="#DejaVuSans-108"/>
      <use x="1661.330078" xlink:href="#DejaVuSans-117"/>
      <use x="1724.708984" xlink:href="#DejaVuSans-101"/>
     </g>
    </g>
   </g>
   <g id="patch_5">
    <path d="M 10.7 224.64 
L 345.5 224.64 
" style="fill:none;stroke:#000000;stroke-linecap:square;stroke-linejoin:miter;stroke-width:0.8;"/>
   </g>
  </g>
 </g>
 <defs>
  <clipPath id="pac9349cdc7">
   <rect height="217.44" width="334.8" x="10.7" y="7.2"/>
  </clipPath>
 </defs>
</svg>
