<?xml version="1.0" encoding="utf-8" standalone="no"?>
<!DOCTYPE svg PUBLIC "-//W3C//DTD SVG 1.1//EN"
  "http://www.w3.org/Graphics/SVG/1.1/DTD/svg11.dtd">
<!-- Created with matplotlib (https://matplotlib.org/) -->
<svg height="252.018125pt" version="1.1" viewBox="0 0 390.345312 252.018125" width="390.345312pt" xmlns="http://www.w3.org/2000/svg" xmlns:xlink="http://www.w3.org/1999/xlink">
 <defs>
  <style type="text/css">
*{stroke-linecap:butt;stroke-linejoin:round;}
  </style>
 </defs>
 <g id="figure_1">
  <g id="patch_1">
   <path d="M 0 252.018125 
L 390.345312 252.018125 
L 390.345312 0 
L 0 0 
z
" style="fill:none;"/>
  </g>
  <g id="axes_1">
   <g id="patch_2">
    <path d="M 44.845313 228.14 
L 379.645313 228.14 
L 379.645313 10.7 
L 44.845313 10.7 
z
" style="fill:#ffffff;"/>
   </g>
   <g id="matplotlib.axis_1">
    <g id="xtick_1">
     <g id="line2d_1">
      <defs>
       <path d="M 0 0 
L 0 3.5 
" id="m0f23c56015" style="stroke:#000000;stroke-width:0.8;"/>
      </defs>
      <g>
       <use style="stroke:#000000;stroke-width:0.8;" x="75.161675" xlink:href="#m0f23c56015" y="228.14"/>
      </g>
     </g>
     <g id="text_1">
      <!-- −0.8 -->
      <defs>
       <path d="M 10.59375 35.5 
L 73.1875 35.5 
L 73.1875 27.203125 
L 10.59375 27.203125 
z
" id="DejaVuSans-8722"/>
       <path d="M 31.78125 66.40625 
Q 24.171875 66.40625 20.328125 58.90625 
Q 16.5 51.421875 16.5 36.375 
Q 16.5 21.390625 20.328125 13.890625 
Q 24.171875 6.390625 31.78125 6.390625 
Q 39.453125 6.390625 43.28125 13.890625 
Q 47.125 21.390625 47.125 36.375 
Q 47.125 51.421875 43.28125 58.90625 
Q 39.453125 66.40625 31.78125 66.40625 
z
M 31.78125 74.21875 
Q 44.046875 74.21875 50.515625 64.515625 
Q 56.984375 54.828125 56.984375 36.375 
Q 56.984375 17.96875 50.515625 8.265625 
Q 44.046875 -1.421875 31.78125 -1.421875 
Q 19.53125 -1.421875 13.0625 8.265625 
Q 6.59375 17.96875 6.59375 36.375 
Q 6.59375 54.828125 13.0625 64.515625 
Q 19.53125 74.21875 31.78125 74.21875 
z
" id="DejaVuSans-48"/>
       <path d="M 10.6875 12.40625 
L 21 12.40625 
L 21 0 
L 10.6875 0 
z
" id="DejaVuSans-46"/>
       <path d="M 31.78125 34.625 
Q 24.75 34.625 20.71875 30.859375 
Q 16.703125 27.09375 16.703125 20.515625 
Q 16.703125 13.921875 20.71875 10.15625 
Q 24.75 6.390625 31.78125 6.390625 
Q 38.8125 6.390625 42.859375 10.171875 
Q 46.921875 13.96875 46.921875 20.515625 
Q 46.921875 27.09375 42.890625 30.859375 
Q 38.875 34.625 31.78125 34.625 
z
M 21.921875 38.8125 
Q 15.578125 40.375 12.03125 44.71875 
Q 8.5 49.078125 8.5 55.328125 
Q 8.5 64.0625 14.71875 69.140625 
Q 20.953125 74.21875 31.78125 74.21875 
Q 42.671875 74.21875 48.875 69.140625 
Q 55.078125 64.0625 55.078125 55.328125 
Q 55.078125 49.078125 51.53125 44.71875 
Q 48 40.375 41.703125 38.8125 
Q 48.828125 37.15625 52.796875 32.3125 
Q 56.78125 27.484375 56.78125 20.515625 
Q 56.78125 9.90625 50.3125 4.234375 
Q 43.84375 -1.421875 31.78125 -1.421875 
Q 19.734375 -1.421875 13.25 4.234375 
Q 6.78125 9.90625 6.78125 20.515625 
Q 6.78125 27.484375 10.78125 32.3125 
Q 14.796875 37.15625 21.921875 38.8125 
z
M 18.3125 54.390625 
Q 18.3125 48.734375 21.84375 45.5625 
Q 25.390625 42.390625 31.78125 42.390625 
Q 38.140625 42.390625 41.71875 45.5625 
Q 45.3125 48.734375 45.3125 54.390625 
Q 45.3125 60.0625 41.71875 63.234375 
Q 38.140625 66.40625 31.78125 66.40625 
Q 25.390625 66.40625 21.84375 63.234375 
Q 18.3125 60.0625 18.3125 54.390625 
z
" id="DejaVuSans-56"/>
      </defs>
      <g transform="translate(63.020269 242.738437)scale(0.1 -0.1)">
       <use xlink:href="#DejaVuSans-8722"/>
       <use x="83.789062" xlink:href="#DejaVuSans-48"/>
       <use x="147.412109" xlink:href="#DejaVuSans-46"/>
       <use x="179.199219" xlink:href="#DejaVuSans-56"/>
      </g>
     </g>
    </g>
    <g id="xtick_2">
     <g id="line2d_2">
      <g>
       <use style="stroke:#000000;stroke-width:0.8;" x="120.732563" xlink:href="#m0f23c56015" y="228.14"/>
      </g>
     </g>
     <g id="text_2">
      <!-- −0.6 -->
      <defs>
       <path d="M 33.015625 40.375 
Q 26.375 40.375 22.484375 35.828125 
Q 18.609375 31.296875 18.609375 23.390625 
Q 18.609375 15.53125 22.484375 10.953125 
Q 26.375 6.390625 33.015625 6.390625 
Q 39.65625 6.390625 43.53125 10.953125 
Q 47.40625 15.53125 47.40625 23.390625 
Q 47.40625 31.296875 43.53125 35.828125 
Q 39.65625 40.375 33.015625 40.375 
z
M 52.59375 71.296875 
L 52.59375 62.3125 
Q 48.875 64.0625 45.09375 64.984375 
Q 41.3125 65.921875 37.59375 65.921875 
Q 27.828125 65.921875 22.671875 59.328125 
Q 17.53125 52.734375 16.796875 39.40625 
Q 19.671875 43.65625 24.015625 45.921875 
Q 28.375 48.1875 33.59375 48.1875 
Q 44.578125 48.1875 50.953125 41.515625 
Q 57.328125 34.859375 57.328125 23.390625 
Q 57.328125 12.15625 50.6875 5.359375 
Q 44.046875 -1.421875 33.015625 -1.421875 
Q 20.359375 -1.421875 13.671875 8.265625 
Q 6.984375 17.96875 6.984375 36.375 
Q 6.984375 53.65625 15.1875 63.9375 
Q 23.390625 74.21875 37.203125 74.21875 
Q 40.921875 74.21875 44.703125 73.484375 
Q 48.484375 72.75 52.59375 71.296875 
z
" id="DejaVuSans-54"/>
      </defs>
      <g transform="translate(108.591157 242.738437)scale(0.1 -0.1)">
       <use xlink:href="#DejaVuSans-8722"/>
       <use x="83.789062" xlink:href="#DejaVuSans-48"/>
       <use x="147.412109" xlink:href="#DejaVuSans-46"/>
       <use x="179.199219" xlink:href="#DejaVuSans-54"/>
      </g>
     </g>
    </g>
    <g id="xtick_3">
     <g id="line2d_3">
      <g>
       <use style="stroke:#000000;stroke-width:0.8;" x="166.303452" xlink:href="#m0f23c56015" y="228.14"/>
      </g>
     </g>
     <g id="text_3">
      <!-- −0.4 -->
      <defs>
       <path d="M 37.796875 64.3125 
L 12.890625 25.390625 
L 37.796875 25.390625 
z
M 35.203125 72.90625 
L 47.609375 72.90625 
L 47.609375 25.390625 
L 58.015625 25.390625 
L 58.015625 17.1875 
L 47.609375 17.1875 
L 47.609375 0 
L 37.796875 0 
L 37.796875 17.1875 
L 4.890625 17.1875 
L 4.890625 26.703125 
z
" id="DejaVuSans-52"/>
      </defs>
      <g transform="translate(154.162045 242.738437)scale(0.1 -0.1)">
       <use xlink:href="#DejaVuSans-8722"/>
       <use x="83.789062" xlink:href="#DejaVuSans-48"/>
       <use x="147.412109" xlink:href="#DejaVuSans-46"/>
       <use x="179.199219" xlink:href="#DejaVuSans-52"/>
      </g>
     </g>
    </g>
    <g id="xtick_4">
     <g id="line2d_4">
      <g>
       <use style="stroke:#000000;stroke-width:0.8;" x="211.87434" xlink:href="#m0f23c56015" y="228.14"/>
      </g>
     </g>
     <g id="text_4">
      <!-- −0.2 -->
      <defs>
       <path d="M 19.1875 8.296875 
L 53.609375 8.296875 
L 53.609375 0 
L 7.328125 0 
L 7.328125 8.296875 
Q 12.9375 14.109375 22.625 23.890625 
Q 32.328125 33.6875 34.8125 36.53125 
Q 39.546875 41.84375 41.421875 45.53125 
Q 43.3125 49.21875 43.3125 52.78125 
Q 43.3125 58.59375 39.234375 62.25 
Q 35.15625 65.921875 28.609375 65.921875 
Q 23.96875 65.921875 18.8125 64.3125 
Q 13.671875 62.703125 7.8125 59.421875 
L 7.8125 69.390625 
Q 13.765625 71.78125 18.9375 73 
Q 24.125 74.21875 28.421875 74.21875 
Q 39.75 74.21875 46.484375 68.546875 
Q 53.21875 62.890625 53.21875 53.421875 
Q 53.21875 48.921875 51.53125 44.890625 
Q 49.859375 40.875 45.40625 35.40625 
Q 44.1875 33.984375 37.640625 27.21875 
Q 31.109375 20.453125 19.1875 8.296875 
z
" id="DejaVuSans-50"/>
      </defs>
      <g transform="translate(199.732934 242.738437)scale(0.1 -0.1)">
       <use xlink:href="#DejaVuSans-8722"/>
       <use x="83.789062" xlink:href="#DejaVuSans-48"/>
       <use x="147.412109" xlink:href="#DejaVuSans-46"/>
       <use x="179.199219" xlink:href="#DejaVuSans-50"/>
      </g>
     </g>
    </g>
    <g id="xtick_5">
     <g id="line2d_5">
      <g>
       <use style="stroke:#000000;stroke-width:0.8;" x="257.445228" xlink:href="#m0f23c56015" y="228.14"/>
      </g>
     </g>
     <g id="text_5">
      <!-- 0.0 -->
      <g transform="translate(249.493665 242.738437)scale(0.1 -0.1)">
       <use xlink:href="#DejaVuSans-48"/>
       <use x="63.623047" xlink:href="#DejaVuSans-46"/>
       <use x="95.410156" xlink:href="#DejaVuSans-48"/>
      </g>
     </g>
    </g>
    <g id="xtick_6">
     <g id="line2d_6">
      <g>
       <use style="stroke:#000000;stroke-width:0.8;" x="303.016116" xlink:href="#m0f23c56015" y="228.14"/>
      </g>
     </g>
     <g id="text_6">
      <!-- 0.2 -->
      <g transform="translate(295.064554 242.738437)scale(0.1 -0.1)">
       <use xlink:href="#DejaVuSans-48"/>
       <use x="63.623047" xlink:href="#DejaVuSans-46"/>
       <use x="95.410156" xlink:href="#DejaVuSans-50"/>
      </g>
     </g>
    </g>
    <g id="xtick_7">
     <g id="line2d_7">
      <g>
       <use style="stroke:#000000;stroke-width:0.8;" x="348.587004" xlink:href="#m0f23c56015" y="228.14"/>
      </g>
     </g>
     <g id="text_7">
      <!-- 0.4 -->
      <g transform="translate(340.635442 242.738437)scale(0.1 -0.1)">
       <use xlink:href="#DejaVuSans-48"/>
       <use x="63.623047" xlink:href="#DejaVuSans-46"/>
       <use x="95.410156" xlink:href="#DejaVuSans-52"/>
      </g>
     </g>
    </g>
   </g>
   <g id="matplotlib.axis_2">
    <g id="ytick_1">
     <g id="line2d_8">
      <defs>
       <path d="M 0 0 
L -3.5 0 
" id="m83199ff6ec" style="stroke:#000000;stroke-width:0.8;"/>
      </defs>
      <g>
       <use style="stroke:#000000;stroke-width:0.8;" x="44.845313" xlink:href="#m83199ff6ec" y="218.488456"/>
      </g>
     </g>
     <g id="text_8">
      <!-- −2.00 -->
      <g transform="translate(7.2 222.287675)scale(0.1 -0.1)">
       <use xlink:href="#DejaVuSans-8722"/>
       <use x="83.789062" xlink:href="#DejaVuSans-50"/>
       <use x="147.412109" xlink:href="#DejaVuSans-46"/>
       <use x="179.199219" xlink:href="#DejaVuSans-48"/>
       <use x="242.822266" xlink:href="#DejaVuSans-48"/>
      </g>
     </g>
    </g>
    <g id="ytick_2">
     <g id="line2d_9">
      <g>
       <use style="stroke:#000000;stroke-width:0.8;" x="44.845313" xlink:href="#m83199ff6ec" y="189.646823"/>
      </g>
     </g>
     <g id="text_9">
      <!-- −1.75 -->
      <defs>
       <path d="M 12.40625 8.296875 
L 28.515625 8.296875 
L 28.515625 63.921875 
L 10.984375 60.40625 
L 10.984375 69.390625 
L 28.421875 72.90625 
L 38.28125 72.90625 
L 38.28125 8.296875 
L 54.390625 8.296875 
L 54.390625 0 
L 12.40625 0 
z
" id="DejaVuSans-49"/>
       <path d="M 8.203125 72.90625 
L 55.078125 72.90625 
L 55.078125 68.703125 
L 28.609375 0 
L 18.3125 0 
L 43.21875 64.59375 
L 8.203125 64.59375 
z
" id="DejaVuSans-55"/>
       <path d="M 10.796875 72.90625 
L 49.515625 72.90625 
L 49.515625 64.59375 
L 19.828125 64.59375 
L 19.828125 46.734375 
Q 21.96875 47.46875 24.109375 47.828125 
Q 26.265625 48.1875 28.421875 48.1875 
Q 40.625 48.1875 47.75 41.5 
Q 54.890625 34.8125 54.890625 23.390625 
Q 54.890625 11.625 47.5625 5.09375 
Q 40.234375 -1.421875 26.90625 -1.421875 
Q 22.3125 -1.421875 17.546875 -0.640625 
Q 12.796875 0.140625 7.71875 1.703125 
L 7.71875 11.625 
Q 12.109375 9.234375 16.796875 8.0625 
Q 21.484375 6.890625 26.703125 6.890625 
Q 35.15625 6.890625 40.078125 11.328125 
Q 45.015625 15.765625 45.015625 23.390625 
Q 45.015625 31 40.078125 35.4375 
Q 35.15625 39.890625 26.703125 39.890625 
Q 22.75 39.890625 18.8125 39.015625 
Q 14.890625 38.140625 10.796875 36.28125 
z
" id="DejaVuSans-53"/>
      </defs>
      <g transform="translate(7.2 193.446042)scale(0.1 -0.1)">
       <use xlink:href="#DejaVuSans-8722"/>
       <use x="83.789062" xlink:href="#DejaVuSans-49"/>
       <use x="147.412109" xlink:href="#DejaVuSans-46"/>
       <use x="179.199219" xlink:href="#DejaVuSans-55"/>
       <use x="242.822266" xlink:href="#DejaVuSans-53"/>
      </g>
     </g>
    </g>
    <g id="ytick_3">
     <g id="line2d_10">
      <g>
       <use style="stroke:#000000;stroke-width:0.8;" x="44.845313" xlink:href="#m83199ff6ec" y="160.80519"/>
      </g>
     </g>
     <g id="text_10">
      <!-- −1.50 -->
      <g transform="translate(7.2 164.604409)scale(0.1 -0.1)">
       <use xlink:href="#DejaVuSans-8722"/>
       <use x="83.789062" xlink:href="#DejaVuSans-49"/>
       <use x="147.412109" xlink:href="#DejaVuSans-46"/>
       <use x="179.199219" xlink:href="#DejaVuSans-53"/>
       <use x="242.822266" xlink:href="#DejaVuSans-48"/>
      </g>
     </g>
    </g>
    <g id="ytick_4">
     <g id="line2d_11">
      <g>
       <use style="stroke:#000000;stroke-width:0.8;" x="44.845313" xlink:href="#m83199ff6ec" y="131.963557"/>
      </g>
     </g>
     <g id="text_11">
      <!-- −1.25 -->
      <g transform="translate(7.2 135.762776)scale(0.1 -0.1)">
       <use xlink:href="#DejaVuSans-8722"/>
       <use x="83.789062" xlink:href="#DejaVuSans-49"/>
       <use x="147.412109" xlink:href="#DejaVuSans-46"/>
       <use x="179.199219" xlink:href="#DejaVuSans-50"/>
       <use x="242.822266" xlink:href="#DejaVuSans-53"/>
      </g>
     </g>
    </g>
    <g id="ytick_5">
     <g id="line2d_12">
      <g>
       <use style="stroke:#000000;stroke-width:0.8;" x="44.845313" xlink:href="#m83199ff6ec" y="103.121925"/>
      </g>
     </g>
     <g id="text_12">
      <!-- −1.00 -->
      <g transform="translate(7.2 106.921143)scale(0.1 -0.1)">
       <use xlink:href="#DejaVuSans-8722"/>
       <use x="83.789062" xlink:href="#DejaVuSans-49"/>
       <use x="147.412109" xlink:href="#DejaVuSans-46"/>
       <use x="179.199219" xlink:href="#DejaVuSans-48"/>
       <use x="242.822266" xlink:href="#DejaVuSans-48"/>
      </g>
     </g>
    </g>
    <g id="ytick_6">
     <g id="line2d_13">
      <g>
       <use style="stroke:#000000;stroke-width:0.8;" x="44.845313" xlink:href="#m83199ff6ec" y="74.280292"/>
      </g>
     </g>
     <g id="text_13">
      <!-- −0.75 -->
      <g transform="translate(7.2 78.079511)scale(0.1 -0.1)">
       <use xlink:href="#DejaVuSans-8722"/>
       <use x="83.789062" xlink:href="#DejaVuSans-48"/>
       <use x="147.412109" xlink:href="#DejaVuSans-46"/>
       <use x="179.199219" xlink:href="#DejaVuSans-55"/>
       <use x="242.822266" xlink:href="#DejaVuSans-53"/>
      </g>
     </g>
    </g>
    <g id="ytick_7">
     <g id="line2d_14">
      <g>
       <use style="stroke:#000000;stroke-width:0.8;" x="44.845313" xlink:href="#m83199ff6ec" y="45.438659"/>
      </g>
     </g>
     <g id="text_14">
      <!-- −0.50 -->
      <g transform="translate(7.2 49.237878)scale(0.1 -0.1)">
       <use xlink:href="#DejaVuSans-8722"/>
       <use x="83.789062" xlink:href="#DejaVuSans-48"/>
       <use x="147.412109" xlink:href="#DejaVuSans-46"/>
       <use x="179.199219" xlink:href="#DejaVuSans-53"/>
       <use x="242.822266" xlink:href="#DejaVuSans-48"/>
      </g>
     </g>
    </g>
    <g id="ytick_8">
     <g id="line2d_15">
      <g>
       <use style="stroke:#000000;stroke-width:0.8;" x="44.845313" xlink:href="#m83199ff6ec" y="16.597026"/>
      </g>
     </g>
     <g id="text_15">
      <!-- −0.25 -->
      <g transform="translate(7.2 20.396245)scale(0.1 -0.1)">
       <use xlink:href="#DejaVuSans-8722"/>
       <use x="83.789062" xlink:href="#DejaVuSans-48"/>
       <use x="147.412109" xlink:href="#DejaVuSans-46"/>
       <use x="179.199219" xlink:href="#DejaVuSans-50"/>
       <use x="242.822266" xlink:href="#DejaVuSans-53"/>
      </g>
     </g>
    </g>
   </g>
   <g id="LineCollection_1"/>
   <g id="LineCollection_2">
    <path clip-path="url(#p823d844c36)" d="M 247.754403 171.2055 
L 251.136222 171.558322 
L 254.51804 171.467077 
L 261.281676 170.684766 
L 264.663494 170.137975 
L 268.045313 169.28119 
L 271.427131 168.105691 
L 279.753952 164.445455 
L 281.572585 163.723965 
L 286.835394 162.249091 
L 288.336222 161.889491 
L 291.71804 160.915227 
L 293.736243 160.052727 
L 295.099858 159.303742 
L 296.888708 157.856364 
L 298.22279 155.66 
L 300.187542 149.070909 
L 300.782564 146.874545 
L 301.467335 142.481818 
L 301.863494 139.954079 
L 302.784518 135.892727 
L 302.723519 133.696364 
L 301.863494 131.430562 
L 300.767182 129.303636 
L 299.455252 127.107273 
L 298.481676 125.718213 
L 298.056534 124.910909 
L 296.679677 122.714545 
L 295.099858 120.384006 
L 294.235207 118.321818 
L 294.016824 116.125455 
L 294.239283 113.929091 
L 294.312858 111.732727 
L 293.794972 109.536364 
L 292.338112 107.34 
L 291.71804 106.740528 
L 288.336222 104.030415 
L 286.809955 102.947273 
L 284.103973 100.750909 
L 281.572585 98.521064 
L 278.190767 96.253319 
L 268.045313 91.742132 
L 264.663494 89.501375 
L 259.824299 85.376364 
L 257.899858 84.028857 
L 254.51804 82.332875 
L 251.136222 80.936792 
L 247.021554 78.787273 
L 240.990767 75.023914 
L 239.648952 74.394545 
L 237.608949 73.565308 
L 234.227131 72.694767 
L 230.845313 72.128145 
L 227.463494 71.455263 
L 224.081676 70.435866 
L 223.040054 70.001818 
L 217.31804 66.717528 
L 213.936222 65.62824 
L 210.554403 65.630811 
L 207.172585 66.06207 
L 203.790767 66.302559 
L 200.408949 66.23237 
L 197.027131 66.000767 
L 193.423867 65.609091 
L 190.263494 64.752071 
L 185.98915 63.412727 
L 183.499858 62.898258 
L 180.11804 62.828048 
L 176.730792 63.412727 
L 169.972585 65.650428 
L 166.590767 66.339583 
L 159.827131 66.458648 
L 156.445312 67.180927 
L 154.944036 67.805455 
L 153.063494 68.836207 
L 142.91804 75.714306 
L 141.909986 76.590909 
L 139.536222 78.809301 
L 138.069938 80.983636 
L 137.220876 83.18 
L 136.154403 87.840974 
L 134.831916 91.965455 
L 134.657276 94.161818 
L 135.254901 96.358182 
L 136.457904 98.554545 
L 137.27165 100.750909 
L 137.077933 102.947273 
L 135.284068 107.34 
L 135.261492 109.536364 
L 136.154403 111.837535 
L 137.57542 113.929091 
L 144.613324 122.714545 
L 146.299858 125.290633 
L 147.087997 127.107273 
L 148.176809 129.303636 
L 149.681676 130.682903 
L 150.800863 131.5 
L 156.445312 134.046131 
L 159.853127 135.892727 
L 163.208949 138.264997 
L 166.590767 141.066778 
L 170.354879 144.678182 
L 173.354403 147.638114 
L 176.736222 149.73278 
L 183.499858 152.5051 
L 186.881676 154.198687 
L 190.263494 155.760225 
L 197.027131 158.466293 
L 201.19858 160.052727 
L 203.790767 160.818185 
L 210.554403 162.488909 
L 217.31804 165.078155 
L 220.699858 165.85284 
L 224.081676 166.096633 
L 227.463494 166.128671 
L 230.845313 166.306398 
L 234.227131 166.854931 
L 237.608949 167.870038 
L 244.372585 170.383814 
L 247.754403 171.2055 
L 247.754403 171.2055 
" style="fill:none;stroke:#222a30;stroke-width:1.5;"/>
   </g>
   <g id="LineCollection_3">
    <path clip-path="url(#p823d844c36)" d="M 261.281676 160.707007 
L 264.663494 160.859869 
L 268.142996 160.052727 
L 272.147128 157.856364 
L 274.997431 155.66 
L 278.580113 153.463636 
L 281.572585 152.227523 
L 284.954403 150.468795 
L 286.492478 149.070909 
L 287.909192 146.874545 
L 288.419116 144.678182 
L 288.336222 142.081208 
L 288.08679 140.285455 
L 286.672298 133.696364 
L 287.042284 131.5 
L 287.729934 129.303636 
L 288.076236 127.107273 
L 287.727184 124.910909 
L 286.694451 122.714545 
L 284.954403 119.769034 
L 284.28897 118.321818 
L 283.451633 116.125455 
L 282.215947 113.929091 
L 281.572585 113.257971 
L 279.639451 111.732727 
L 278.190767 110.820076 
L 276.418324 109.536364 
L 274.261879 107.34 
L 272.564916 105.143636 
L 270.560367 102.947273 
L 268.045313 100.657474 
L 264.663494 98.091155 
L 257.899858 93.028096 
L 256.484156 91.965455 
L 254.51804 90.652609 
L 251.136222 88.936435 
L 244.372585 86.379152 
L 240.990767 84.902485 
L 237.608949 83.397183 
L 236.835632 83.18 
L 234.227131 82.248594 
L 230.845313 81.753655 
L 227.463494 81.594965 
L 223.712813 80.983636 
L 220.699858 79.688088 
L 219.196868 78.787273 
L 213.936222 76.168337 
L 209.398099 74.394545 
L 207.172585 73.782983 
L 203.790767 73.221254 
L 200.408949 72.925041 
L 197.027131 72.859509 
L 183.499858 73.221014 
L 180.11804 73.830892 
L 178.652193 74.394545 
L 176.736222 75.002834 
L 169.972585 77.971906 
L 164.182124 80.983636 
L 159.827131 83.461931 
L 157.045595 85.376364 
L 155.333338 87.572727 
L 153.063494 92.525985 
L 152.063991 94.161818 
L 150.879422 96.358182 
L 150.083317 98.554545 
L 148.597029 105.143636 
L 148.319401 107.34 
L 148.797286 109.536364 
L 151.726863 113.929091 
L 153.447161 116.125455 
L 154.995314 118.321818 
L 157.003296 120.518182 
L 161.964743 124.910909 
L 164.037773 127.107273 
L 166.590767 129.533928 
L 169.972585 132.078233 
L 171.949594 133.696364 
L 173.924665 135.892727 
L 175.460349 138.089091 
L 177.307807 140.285455 
L 180.459561 142.481818 
L 183.499858 143.573526 
L 190.263494 145.075017 
L 195.178754 146.874545 
L 197.027131 147.693025 
L 207.172585 151.47523 
L 210.554403 152.679719 
L 217.31804 154.528884 
L 224.081676 156.091523 
L 230.845313 157.912297 
L 234.227131 158.629124 
L 237.608949 158.733216 
L 240.990767 157.608707 
L 244.372585 155.945568 
L 245.643716 155.66 
L 247.754403 155.419676 
L 249.62088 155.66 
L 251.136222 155.977512 
L 255.367666 157.856364 
L 257.899858 159.366318 
L 261.281676 160.707007 
L 261.281676 160.707007 
" style="fill:none;stroke:#21333f;stroke-width:1.5;"/>
   </g>
   <g id="LineCollection_4">
    <path clip-path="url(#p823d844c36)" d="M 227.463494 151.572386 
L 230.845313 151.85569 
L 234.227131 151.884739 
L 238.702516 151.267273 
L 244.372585 150.20211 
L 247.754403 149.894975 
L 251.136222 149.987138 
L 257.899858 150.651584 
L 261.281676 150.582519 
L 264.663494 149.897738 
L 266.884213 149.070909 
L 268.045313 148.493508 
L 270.889972 146.874545 
L 271.427131 146.326982 
L 273.287699 144.678182 
L 274.139216 142.481818 
L 273.653577 138.089091 
L 273.837295 135.892727 
L 274.808949 133.577449 
L 278.352147 129.303636 
L 279.615272 127.107273 
L 279.945578 124.910909 
L 279.5477 122.714545 
L 278.730205 120.518182 
L 277.594542 118.321818 
L 275.763789 116.125455 
L 274.808949 115.368481 
L 269.66552 111.732727 
L 267.288244 109.536364 
L 263.528163 105.143636 
L 261.259126 102.947273 
L 254.51804 97.286407 
L 253.495614 96.358182 
L 250.574236 94.161818 
L 247.754403 92.695482 
L 244.372585 91.345195 
L 237.608949 88.864477 
L 234.227131 87.913699 
L 230.845313 87.429643 
L 224.081676 87.132207 
L 220.699858 86.567479 
L 217.31804 85.360358 
L 213.422425 83.18 
L 210.554403 81.686205 
L 207.172585 80.634285 
L 203.790767 80.096744 
L 193.645313 79.678957 
L 186.881676 79.109296 
L 183.499858 79.134818 
L 180.11804 79.588621 
L 176.736222 80.494403 
L 173.354403 81.807817 
L 169.972585 83.524314 
L 167.26103 85.376364 
L 165.282545 87.572727 
L 163.162975 91.965455 
L 160.466535 96.358182 
L 159.528461 98.554545 
L 158.92403 100.750909 
L 158.067893 102.947273 
L 156.92523 105.143636 
L 156.084655 107.34 
L 156.102697 109.536364 
L 157.02841 111.732727 
L 158.503506 113.929091 
L 160.258901 116.125455 
L 163.208949 119.032903 
L 173.354403 126.755863 
L 176.866186 129.303636 
L 180.11804 132.148395 
L 181.627427 133.696364 
L 183.533497 135.892727 
L 186.107974 138.089091 
L 186.881676 138.499183 
L 190.263494 139.646525 
L 193.645313 140.46195 
L 197.027131 141.429916 
L 200.408949 142.575664 
L 210.59109 146.874545 
L 217.31804 149.519065 
L 220.699858 150.485324 
L 225.031615 151.267273 
L 227.463494 151.572386 
L 227.463494 151.572386 
" style="fill:none;stroke:#213b4e;stroke-width:1.5;"/>
   </g>
   <g id="LineCollection_5">
    <path clip-path="url(#p823d844c36)" d="M 230.845313 147.199571 
L 234.227131 147.219019 
L 237.548789 146.874545 
L 237.608949 146.86812 
L 240.990767 146.24106 
L 244.372585 145.642455 
L 247.754403 145.283565 
L 251.136222 145.162294 
L 254.51804 145.033918 
L 256.613926 144.678182 
L 257.899858 144.376839 
L 260.757959 142.481818 
L 261.281676 141.968486 
L 262.498357 140.285455 
L 263.871592 138.089091 
L 264.663494 136.610123 
L 265.054375 135.892727 
L 266.142157 133.696364 
L 267.492371 131.5 
L 268.045313 130.912572 
L 269.886939 129.303636 
L 271.427131 128.088889 
L 272.462951 127.107273 
L 273.765891 124.910909 
L 273.961825 122.714545 
L 273.377366 120.518182 
L 271.983267 118.321818 
L 271.427131 117.80191 
L 269.449091 116.125455 
L 268.045313 115.162078 
L 266.324507 113.929091 
L 264.663494 112.631782 
L 263.596691 111.732727 
L 261.357051 109.536364 
L 261.281676 109.455871 
L 259.108053 107.34 
L 257.899858 106.245457 
L 256.365193 105.143636 
L 254.51804 103.818281 
L 253.169161 102.947273 
L 251.136222 101.332557 
L 250.502405 100.750909 
L 248.324757 98.554545 
L 247.754403 98.069777 
L 245.502362 96.358182 
L 244.372585 95.734634 
L 240.990767 94.251775 
L 240.724702 94.161818 
L 237.608949 93.140037 
L 234.227131 92.307975 
L 232.022636 91.965455 
L 230.845313 91.770699 
L 227.463494 91.41997 
L 224.081676 91.079806 
L 220.699858 90.572066 
L 217.430577 89.769091 
L 217.31804 89.737813 
L 213.936222 88.387527 
L 212.005204 87.572727 
L 210.554403 86.915593 
L 207.172585 85.915114 
L 203.790767 85.527111 
L 200.408949 85.565917 
L 197.027131 85.833847 
L 193.645313 86.080042 
L 190.263494 85.96529 
L 186.979114 85.376364 
L 186.881676 85.361501 
L 183.499858 85.006348 
L 180.11804 85.145107 
L 179.051861 85.376364 
L 176.736222 86.057518 
L 174.012268 87.572727 
L 173.354403 88.301509 
L 172.516271 89.769091 
L 171.96504 91.965455 
L 171.352828 94.161818 
L 170.418257 96.358182 
L 169.972585 97.213496 
L 169.293939 98.554545 
L 168.05669 100.750909 
L 166.590767 102.913266 
L 166.568242 102.947273 
L 164.832559 105.143636 
L 163.328585 107.34 
L 163.208949 107.856942 
L 162.875239 109.536364 
L 163.208949 110.576464 
L 163.622698 111.732727 
L 165.179833 113.929091 
L 166.590767 115.519324 
L 167.146933 116.125455 
L 169.713098 118.321818 
L 169.972585 118.511495 
L 172.607346 120.518182 
L 173.354403 121.065599 
L 175.562473 122.714545 
L 176.736222 123.569243 
L 178.617491 124.910909 
L 180.11804 126.049796 
L 181.447025 127.107273 
L 183.499858 128.909454 
L 183.936802 129.303636 
L 186.408088 131.5 
L 186.881676 131.923823 
L 189.160647 133.696364 
L 190.263494 134.46106 
L 193.038221 135.892727 
L 193.645313 136.140073 
L 197.027131 137.271461 
L 199.67601 138.089091 
L 200.408949 138.31696 
L 203.790767 139.514002 
L 205.743477 140.285455 
L 207.172585 140.891465 
L 210.554403 142.231311 
L 211.306008 142.481818 
L 213.936222 143.423923 
L 217.31804 144.407043 
L 218.413329 144.678182 
L 220.699858 145.390284 
L 224.081676 146.250182 
L 227.463494 146.858501 
L 227.620451 146.874545 
L 230.845313 147.199571 
" style="fill:none;stroke:#21445c;stroke-width:1.5;"/>
   </g>
   <g id="LineCollection_6">
    <path clip-path="url(#p823d844c36)" d="M 230.845313 142.525175 
L 232.517248 142.481818 
L 234.227131 142.440475 
L 237.608949 142.124069 
L 240.990767 141.679239 
L 244.372585 141.204529 
L 247.754403 140.746809 
L 250.71238 140.285455 
L 251.136222 140.214394 
L 254.51804 139.218431 
L 256.372481 138.089091 
L 257.899858 136.841423 
L 258.704767 135.892727 
L 259.96177 133.696364 
L 260.810622 131.5 
L 261.281676 130.420245 
L 261.87138 129.303636 
L 263.784203 127.107273 
L 264.663494 126.286641 
L 266.275573 124.910909 
L 267.633456 122.714545 
L 267.336642 120.518182 
L 265.701408 118.321818 
L 264.663494 117.455076 
L 263.094094 116.125455 
L 261.281676 114.683976 
L 260.356229 113.929091 
L 257.933498 111.732727 
L 257.899858 111.700996 
L 255.207258 109.536364 
L 254.51804 109.022647 
L 251.537179 107.34 
L 251.136222 107.113714 
L 247.754403 105.26881 
L 247.566337 105.143636 
L 245.07357 102.947273 
L 244.372585 102.152039 
L 243.15891 100.750909 
L 240.990767 98.850781 
L 240.561065 98.554545 
L 237.608949 97.193426 
L 234.87666 96.358182 
L 234.227131 96.188045 
L 230.845313 95.478812 
L 227.463494 94.904969 
L 224.081676 94.403617 
L 222.430913 94.161818 
L 220.699858 93.86679 
L 217.31804 93.215628 
L 213.936222 92.338974 
L 212.736581 91.965455 
L 210.554403 91.178101 
L 207.172585 90.173809 
L 203.790767 89.82848 
L 200.408949 90.305677 
L 197.027131 91.314765 
L 195.093881 91.965455 
L 193.645313 92.414342 
L 190.263494 93.235635 
L 186.881676 93.927417 
L 185.874601 94.161818 
L 183.499858 94.738952 
L 180.174695 96.358182 
L 180.11804 96.398464 
L 177.93301 98.554545 
L 176.736222 100.316708 
L 176.45006 100.750909 
L 175.09058 102.947273 
L 173.570036 105.143636 
L 173.354403 105.525392 
L 172.32342 107.34 
L 171.857691 109.536364 
L 172.289453 111.732727 
L 173.342928 113.929091 
L 173.354403 113.944053 
L 174.869446 116.125455 
L 176.736222 118.168287 
L 176.865452 118.321818 
L 179.423652 120.518182 
L 180.11804 121.019415 
L 182.66103 122.714545 
L 183.499858 123.29383 
L 185.835446 124.910909 
L 186.881676 125.799309 
L 188.361492 127.107273 
L 190.263494 128.796778 
L 190.872784 129.303636 
L 193.645313 131.305199 
L 193.95237 131.5 
L 197.027131 133.172985 
L 198.142279 133.696364 
L 200.408949 134.580086 
L 203.790767 135.842012 
L 203.920416 135.892727 
L 207.172585 137.136359 
L 209.531317 138.089091 
L 210.554403 138.503914 
L 213.936222 139.706886 
L 215.998367 140.285455 
L 217.31804 140.641908 
L 220.699858 141.34174 
L 224.081676 141.907934 
L 227.463494 142.326383 
L 230.188148 142.481818 
L 230.845313 142.525175 
" style="fill:none;stroke:#204d6b;stroke-width:1.5;"/>
   </g>
   <g id="LineCollection_7">
    <path clip-path="url(#p823d844c36)" d="M 227.463494 138.403159 
L 230.845313 138.504138 
L 234.227131 138.416297 
L 237.608949 138.212255 
L 238.851759 138.089091 
L 240.990767 137.889764 
L 244.372585 137.391046 
L 247.754403 136.632439 
L 249.974905 135.892727 
L 251.136222 135.338147 
L 253.339672 133.696364 
L 254.51804 131.972819 
L 254.768865 131.5 
L 255.543067 129.303636 
L 256.208406 127.107273 
L 256.879556 124.910909 
L 257.540118 122.714545 
L 257.655091 120.518182 
L 256.238511 118.321818 
L 254.51804 116.497312 
L 254.165297 116.125455 
L 251.825671 113.929091 
L 251.136222 113.377917 
L 248.911191 111.732727 
L 247.754403 111.111238 
L 245.074673 109.536364 
L 244.372585 109.145683 
L 242.094619 107.34 
L 240.990767 106.313091 
L 240.022784 105.143636 
L 238.144858 102.947273 
L 237.608949 102.434955 
L 235.683402 100.750909 
L 234.227131 99.950473 
L 230.864026 98.554545 
L 230.845313 98.548701 
L 227.463494 97.630013 
L 224.081676 96.99668 
L 220.699858 96.563293 
L 218.391011 96.358182 
L 217.31804 96.243516 
L 213.936222 95.949137 
L 210.554403 95.627244 
L 207.172585 95.411494 
L 203.790767 95.637239 
L 200.408949 96.284981 
L 200.052114 96.358182 
L 197.027131 96.893575 
L 193.645313 97.427856 
L 190.263494 98.057402 
L 188.612107 98.554545 
L 186.881676 99.375434 
L 185.207714 100.750909 
L 183.852429 102.947273 
L 183.499858 103.633571 
L 182.742982 105.143636 
L 181.580622 107.34 
L 180.946837 109.536364 
L 181.163841 111.732727 
L 181.900029 113.929091 
L 182.880383 116.125455 
L 183.499858 116.968208 
L 184.619589 118.321818 
L 186.881676 120.012136 
L 187.550873 120.518182 
L 190.263494 122.36536 
L 190.675031 122.714545 
L 193.126134 124.910909 
L 193.645313 125.385749 
L 195.645724 127.107273 
L 197.027131 128.122341 
L 198.843126 129.303636 
L 200.408949 130.19479 
L 202.867226 131.5 
L 203.790767 131.91549 
L 207.172585 133.362798 
L 208.035942 133.696364 
L 210.554403 134.640247 
L 213.936222 135.791367 
L 214.312944 135.892727 
L 217.31804 136.718117 
L 220.699858 137.465769 
L 224.081676 138.073979 
L 224.210982 138.089091 
L 227.463494 138.403159 
" style="fill:none;stroke:#20557a;stroke-width:1.5;"/>
   </g>
   <g id="LineCollection_8">
    <path clip-path="url(#p823d844c36)" d="M 234.227131 134.06551 
L 237.608949 134.360733 
L 240.990767 134.219678 
L 243.495924 133.696364 
L 244.372585 133.452311 
L 247.754403 131.549561 
L 247.814145 131.5 
L 249.298768 129.303636 
L 249.676494 127.107273 
L 248.920244 124.910909 
L 247.754403 123.643882 
L 246.791954 122.714545 
L 244.372585 120.777515 
L 244.035614 120.518182 
L 241.894199 118.321818 
L 240.990767 117.081597 
L 240.196144 116.125455 
L 238.554317 113.929091 
L 237.608949 112.527907 
L 237.195634 111.732727 
L 236.309134 109.536364 
L 235.457927 107.34 
L 234.272169 105.143636 
L 234.227131 105.090321 
L 232.456318 102.947273 
L 230.845313 101.803145 
L 228.939948 100.750909 
L 227.463494 100.192747 
L 224.081676 99.383256 
L 220.699858 99.028532 
L 217.31804 99.060324 
L 213.936222 99.39158 
L 210.554403 99.882636 
L 207.172585 100.410879 
L 205.03225 100.750909 
L 203.790767 100.93419 
L 200.408949 101.472872 
L 197.027131 102.191332 
L 194.749019 102.947273 
L 193.645313 103.526258 
L 191.682539 105.143636 
L 190.369216 107.34 
L 190.263494 107.891297 
L 189.927892 109.536364 
L 190.263494 111.280661 
L 190.343853 111.732727 
L 191.206544 113.929091 
L 192.313653 116.125455 
L 193.645313 117.954683 
L 193.846105 118.321818 
L 195.580219 120.518182 
L 197.027131 121.957131 
L 197.797558 122.714545 
L 200.408949 124.773 
L 200.623218 124.910909 
L 203.790767 126.904509 
L 204.134296 127.107273 
L 207.172585 128.912866 
L 207.887681 129.303636 
L 210.554403 130.529739 
L 213.54925 131.5 
L 213.936222 131.618656 
L 217.31804 132.304618 
L 220.699858 132.699706 
L 224.081676 132.935267 
L 227.463494 133.158437 
L 230.845313 133.551835 
L 231.678719 133.696364 
L 234.227131 134.06551 
" style="fill:none;stroke:#205e88;stroke-width:1.5;"/>
   </g>
   <g id="LineCollection_9">
    <path clip-path="url(#p823d844c36)" d="M 213.936222 127.709046 
L 217.31804 128.641032 
L 220.699858 128.976196 
L 224.081676 128.900935 
L 227.463494 128.600996 
L 230.845313 128.324363 
L 234.227131 128.355321 
L 237.608949 128.64406 
L 240.990767 127.822348 
L 241.566924 127.107273 
L 240.990767 125.410141 
L 240.787178 124.910909 
L 238.199982 122.714545 
L 237.608949 122.278967 
L 235.295666 120.518182 
L 234.227131 119.722832 
L 232.253938 118.321818 
L 230.845313 117.177872 
L 229.538709 116.125455 
L 228.110287 113.929091 
L 228.157298 111.732727 
L 228.990764 109.536364 
L 229.468651 107.34 
L 228.861105 105.143636 
L 227.463494 103.697573 
L 226.329872 102.947273 
L 224.081676 102.16565 
L 220.699858 101.844685 
L 217.31804 102.250152 
L 214.471754 102.947273 
L 213.936222 103.12366 
L 210.554403 104.108077 
L 207.172585 104.77197 
L 204.812937 105.143636 
L 203.790767 105.367598 
L 200.408949 106.636055 
L 199.393009 107.34 
L 198.246402 109.536364 
L 198.164931 111.732727 
L 198.353221 113.929091 
L 198.728146 116.125455 
L 199.612361 118.321818 
L 200.408949 119.341922 
L 201.399556 120.518182 
L 203.790767 122.308857 
L 204.489167 122.714545 
L 207.172585 124.193259 
L 208.582926 124.910909 
L 210.554403 126.04974 
L 212.604382 127.107273 
L 213.936222 127.709046 
" style="fill:none;stroke:#206697;stroke-width:1.5;"/>
   </g>
   <g id="LineCollection_10">
    <path clip-path="url(#p823d844c36)" d="M 220.699858 125.022132 
L 222.336108 124.910909 
L 224.081676 124.583524 
L 226.491712 122.714545 
L 224.690008 120.518182 
L 224.081676 120.089169 
L 221.849271 118.321818 
L 220.699858 116.774502 
L 220.301309 116.125455 
L 219.430894 113.929091 
L 218.86183 111.732727 
L 218.009155 109.536364 
L 217.31804 109.040274 
L 213.936222 109.290128 
L 213.151506 109.536364 
L 210.554403 110.299248 
L 207.518924 111.732727 
L 207.172585 111.923084 
L 205.263622 113.929091 
L 204.4621 116.125455 
L 205.223326 118.321818 
L 207.172585 120.007295 
L 208.118956 120.518182 
L 210.554403 121.55625 
L 213.540746 122.714545 
L 213.936222 122.894238 
L 217.31804 124.211842 
L 219.99403 124.910909 
L 220.699858 125.022132 
" style="fill:none;stroke:#1f6fa6;stroke-width:1.5;"/>
   </g>
   <g id="LineCollection_11"/>
   <g id="patch_3">
    <path d="M 44.845313 228.14 
L 44.845313 10.7 
" style="fill:none;stroke:#000000;stroke-linecap:square;stroke-linejoin:miter;stroke-width:0.8;"/>
   </g>
   <g id="patch_4">
    <path d="M 379.645313 228.14 
L 379.645313 10.7 
" style="fill:none;stroke:#000000;stroke-linecap:square;stroke-linejoin:miter;stroke-width:0.8;"/>
   </g>
   <g id="patch_5">
    <path d="M 44.845313 228.14 
L 379.645313 228.14 
" style="fill:none;stroke:#000000;stroke-linecap:square;stroke-linejoin:miter;stroke-width:0.8;"/>
   </g>
   <g id="patch_6">
    <path d="M 44.845313 10.7 
L 379.645313 10.7 
" style="fill:none;stroke:#000000;stroke-linecap:square;stroke-linejoin:miter;stroke-width:0.8;"/>
   </g>
  </g>
 </g>
 <defs>
  <clipPath id="p823d844c36">
   <rect height="217.44" width="334.8" x="44.845313" y="10.7"/>
  </clipPath>
 </defs>
</svg>
