<?xml version="1.0" encoding="utf-8" standalone="no"?>
<!DOCTYPE svg PUBLIC "-//W3C//DTD SVG 1.1//EN"
  "http://www.w3.org/Graphics/SVG/1.1/DTD/svg11.dtd">
<!-- Created with matplotlib (https://matplotlib.org/) -->
<svg height="280.15625pt" version="1.1" viewBox="0 0 424.8 280.15625" width="424.8pt" xmlns="http://www.w3.org/2000/svg" xmlns:xlink="http://www.w3.org/1999/xlink">
 <defs>
  <style type="text/css">
*{stroke-linecap:butt;stroke-linejoin:round;}
  </style>
 </defs>
 <g id="figure_1">
  <g id="patch_1">
   <path d="M 0 280.15625 
L 424.8 280.15625 
L 424.8 0 
L 0 0 
z
" style="fill:none;"/>
  </g>
  <g id="axes_1">
   <g id="patch_2">
    <path d="M 10.7 57.8 
L 414.1 57.8 
L 414.1 7.2 
L 10.7 7.2 
z
" style="fill:#ffffff;"/>
   </g>
   <g id="patch_3">
    <path clip-path="url(#p70dc3b2a4d)" d="M 29.036364 55.5 
L 29.635575 55.499826 
L 30.234787 55.499796 
L 30.833999 55.499761 
L 31.433211 55.49972 
L 32.032422 55.499675 
L 32.631634 55.499622 
L 33.230846 55.499563 
L 33.830058 55.499496 
L 34.429269 55.49942 
L 35.028481 55.499334 
L 35.627693 55.499238 
L 36.226904 55.499131 
L 36.826116 55.499012 
L 37.425328 55.49888 
L 38.02454 55.498734 
L 38.623751 55.498573 
L 39.222963 55.498396 
L 39.822175 55.498202 
L 40.421387 55.497991 
L 41.020598 55.497762 
L 41.61981 55.497513 
L 42.219022 55.497246 
L 42.818234 55.496958 
L 43.417445 55.49665 
L 44.016657 55.496322 
L 44.615869 55.495973 
L 45.21508 55.495604 
L 45.814292 55.495215 
L 46.413504 55.494807 
L 47.012716 55.494381 
L 47.611927 55.493938 
L 48.211139 55.493478 
L 48.810351 55.493005 
L 49.409563 55.492518 
L 50.008774 55.492022 
L 50.607986 55.491343 
L 51.207198 55.490802 
L 51.80641 55.490253 
L 52.405621 55.4897 
L 53.004833 55.489144 
L 53.604045 55.488587 
L 54.203257 55.488034 
L 54.802468 55.487485 
L 55.40168 55.486944 
L 56.000892 55.486413 
L 56.600103 55.485896 
L 57.199315 55.485393 
L 57.798527 55.484908 
L 58.397739 55.484442 
L 58.99695 55.483997 
L 59.596162 55.483576 
L 60.195374 55.483178 
L 60.794586 55.482806 
L 61.393797 55.482459 
L 61.993009 55.482138 
L 63.191433 55.481845 
L 63.790695 55.481403 
L 64.389906 55.48113 
L 64.989168 55.480878 
L 65.58838 55.480646 
L 66.187592 55.48043 
L 66.786854 55.480229 
L 67.386065 55.480042 
L 67.985277 55.479865 
L 68.584539 55.479696 
L 69.183751 55.479534 
L 69.783013 55.479374 
L 70.382224 55.479215 
L 70.981436 55.479055 
L 71.580698 55.478891 
L 72.17991 55.478721 
L 72.779172 55.47837 
L 73.378384 55.477979 
L 73.977595 55.477717 
L 74.576857 55.47726 
L 75.176069 55.476575 
L 75.775281 55.476149 
L 76.374543 55.475683 
L 76.973754 55.475175 
L 77.573016 55.474621 
L 78.172228 55.473845 
L 78.77144 55.472988 
L 79.370702 55.47187 
L 79.969913 55.470974 
L 80.569175 55.469828 
L 81.168387 55.468744 
L 81.767599 55.46757 
L 82.366861 55.466126 
L 82.966073 55.464552 
L 83.565335 55.46301 
L 84.164546 55.460826 
L 84.763758 55.458946 
L 85.36302 55.45657 
L 85.962232 55.453978 
L 86.561443 55.451153 
L 87.160705 55.448251 
L 87.759917 55.445283 
L 88.359179 55.44209 
L 88.958391 55.438486 
L 89.557602 55.434431 
L 90.156864 55.430054 
L 90.756076 55.425509 
L 91.355338 55.420285 
L 91.95455 55.41448 
L 92.553762 55.40891 
L 93.153024 55.402973 
L 93.752235 55.396135 
L 94.351447 55.388991 
L 94.950709 55.381375 
L 95.549921 55.37327 
L 96.149183 55.364312 
L 96.748394 55.355295 
L 97.347606 55.345738 
L 97.946868 55.335109 
L 98.54608 55.323507 
L 99.145342 55.311722 
L 99.744553 55.299119 
L 100.343765 55.285477 
L 100.943027 55.271933 
L 101.542239 55.257043 
L 102.141451 55.241724 
L 102.740713 55.225489 
L 103.339924 55.208294 
L 103.939186 55.190437 
L 104.538398 55.171753 
L 105.13761 55.152048 
L 105.736872 55.131796 
L 106.336083 55.110338 
L 106.935345 55.088121 
L 107.534557 55.064632 
L 108.133769 55.040837 
L 108.733031 55.014741 
L 109.332243 54.988878 
L 109.931454 54.960662 
L 110.530716 54.932279 
L 111.129928 54.902647 
L 111.72919 54.871545 
L 112.328402 54.838715 
L 112.927613 54.804385 
L 113.526875 54.769527 
L 114.126087 54.733371 
L 114.725349 54.695891 
L 115.324561 54.656014 
L 115.923772 54.615101 
L 116.523034 54.573192 
L 117.122246 54.529818 
L 117.721508 54.48391 
L 118.32072 54.436981 
L 118.919932 54.387537 
L 119.519193 54.337517 
L 120.118405 54.285342 
L 120.717617 54.230905 
L 121.316879 54.175309 
L 121.916091 54.118811 
L 122.515353 54.058934 
L 123.114564 53.996429 
L 123.713776 53.93219 
L 124.313038 53.866057 
L 124.91225 53.798196 
L 125.511512 53.727419 
L 126.110723 53.655641 
L 126.709935 53.580768 
L 127.309197 53.503654 
L 127.908409 53.424611 
L 128.507621 53.343668 
L 129.106883 53.259815 
L 129.706094 53.173441 
L 130.305356 53.083965 
L 130.904568 52.993469 
L 131.50378 52.898695 
L 132.103042 52.801586 
L 132.702253 52.70319 
L 133.301515 52.602479 
L 133.900727 52.4979 
L 134.499939 52.391291 
L 135.099201 52.280644 
L 135.698412 52.166564 
L 136.297624 52.051517 
L 136.896886 51.932141 
L 137.496098 51.810408 
L 138.09536 51.683599 
L 138.694572 51.554971 
L 139.293783 51.42262 
L 139.893045 51.286203 
L 140.492257 51.148645 
L 141.091519 51.006311 
L 141.690731 50.861694 
L 142.289942 50.711417 
L 142.889204 50.558923 
L 143.488416 50.401678 
L 144.087628 50.239438 
L 144.68689 50.07646 
L 145.286101 49.908161 
L 145.885363 49.734559 
L 146.484575 49.555698 
L 147.083787 49.375362 
L 147.683049 49.189995 
L 148.282261 49.000444 
L 148.881523 48.805659 
L 149.480734 48.605926 
L 150.079946 48.401778 
L 150.679208 48.191472 
L 151.27842 47.978291 
L 151.877682 47.760597 
L 152.476893 47.536669 
L 153.076105 47.308945 
L 153.675367 47.07514 
L 154.274579 46.837827 
L 154.873791 46.594491 
L 155.473052 46.348421 
L 156.072264 46.094381 
L 156.671526 45.836128 
L 157.270738 45.572555 
L 157.86995 45.304864 
L 158.469212 45.030588 
L 159.068423 44.752182 
L 159.667685 44.465571 
L 160.266897 44.17417 
L 160.866109 43.878673 
L 161.465371 43.577502 
L 162.064582 43.27168 
L 162.663794 42.958728 
L 163.263056 42.641257 
L 163.862268 42.31686 
L 164.46153 41.986739 
L 165.060741 41.651651 
L 165.659953 41.309868 
L 166.259215 40.961253 
L 166.858427 40.60985 
L 167.457689 40.253833 
L 168.056901 39.891222 
L 168.656112 39.521366 
L 169.255374 39.145856 
L 169.854586 38.768576 
L 170.453798 38.381813 
L 171.05306 37.991182 
L 171.652271 37.595831 
L 172.251533 37.196431 
L 172.850745 36.789646 
L 173.449957 36.380392 
L 174.049219 35.964671 
L 174.648431 35.542123 
L 175.247692 35.115018 
L 175.846904 34.688113 
L 176.446116 34.251432 
L 177.045378 33.815166 
L 177.64459 33.375035 
L 178.243801 32.926345 
L 178.843063 32.477606 
L 179.442275 32.026227 
L 180.041537 31.571789 
L 180.640749 31.110157 
L 181.23996 30.646902 
L 181.839222 30.182994 
L 182.438434 29.715725 
L 183.037696 29.245804 
L 183.636908 28.773408 
L 184.23612 28.30243 
L 184.835381 27.830715 
L 185.434593 27.358738 
L 186.033855 26.885681 
L 186.633067 26.411857 
L 187.232279 25.937594 
L 187.831541 25.467299 
L 188.430752 24.998641 
L 189.029964 24.529016 
L 189.629226 24.064996 
L 190.228438 23.603057 
L 190.8277 23.14406 
L 191.426911 22.684896 
L 192.026123 22.231054 
L 192.625385 21.780733 
L 193.224597 21.332925 
L 193.823859 20.89295 
L 194.423071 20.456524 
L 195.022282 20.027291 
L 195.621544 19.60306 
L 196.220756 19.184479 
L 196.819968 18.775123 
L 197.41923 18.372521 
L 198.018441 17.976552 
L 198.617703 17.589431 
L 199.216915 17.208837 
L 199.816127 16.836474 
L 200.415389 16.469683 
L 201.0146 16.115611 
L 201.613862 15.770525 
L 202.213074 15.435903 
L 202.812286 15.109254 
L 203.411548 14.792342 
L 204.01076 14.484727 
L 204.609971 14.186669 
L 205.209233 13.900814 
L 205.808445 13.621515 
L 206.407707 13.353487 
L 207.006919 13.092975 
L 207.60613 12.842634 
L 208.205392 12.602667 
L 208.804604 12.371148 
L 209.403866 12.15123 
L 210.003078 11.939297 
L 210.602289 11.73895 
L 211.201551 11.546625 
L 211.800763 11.362705 
L 212.400025 11.189584 
L 212.999237 11.024996 
L 213.598449 10.870483 
L 214.197711 10.72429 
L 214.796922 10.585182 
L 215.396134 10.454862 
L 215.995396 10.334195 
L 216.594608 10.221673 
L 217.19387 10.120297 
L 217.793081 10.027071 
L 218.392293 9.938901 
L 218.991555 9.856651 
L 219.590767 9.786706 
L 220.190029 9.722072 
L 220.78924 9.666499 
L 221.388452 9.618741 
L 221.987714 9.579272 
L 222.586926 9.545063 
L 223.186138 9.521044 
L 223.7854 9.506226 
L 224.384611 9.5 
L 224.983873 9.500974 
L 225.583085 9.513131 
L 226.182297 9.533294 
L 226.781559 9.563912 
L 227.38077 9.605553 
L 227.980032 9.654856 
L 228.579244 9.71323 
L 229.178456 9.782771 
L 229.777718 9.862669 
L 230.376929 9.951954 
L 230.976141 10.054823 
L 231.575403 10.167126 
L 232.174615 10.289737 
L 232.773877 10.426434 
L 233.373089 10.574004 
L 233.9723 10.731397 
L 234.571562 10.899159 
L 235.170774 11.079715 
L 235.770036 11.275583 
L 236.369248 11.482048 
L 236.968459 11.697826 
L 237.567721 11.931306 
L 238.166933 12.171016 
L 238.766145 12.424833 
L 239.365407 12.692207 
L 239.964619 12.972886 
L 240.56388 13.261748 
L 241.163092 13.564864 
L 241.762304 13.880464 
L 242.361566 14.208551 
L 242.960778 14.542241 
L 243.56004 14.892516 
L 244.159251 15.249872 
L 244.758463 15.617917 
L 245.357725 15.999628 
L 245.956937 16.387577 
L 246.556199 16.785268 
L 247.15541 17.191836 
L 247.754622 17.610618 
L 248.353884 18.035641 
L 248.953146 18.467436 
L 249.552358 18.909007 
L 250.151569 19.356531 
L 250.750781 19.811161 
L 251.349993 20.268323 
L 251.949205 20.73281 
L 252.548517 21.201961 
L 253.147729 21.677154 
L 253.74694 22.157071 
L 254.346152 22.641166 
L 254.945364 23.126166 
L 255.544676 23.612958 
L 256.143888 24.103719 
L 256.743099 24.595377 
L 257.342311 25.089975 
L 257.941523 25.585058 
L 258.540835 26.083077 
L 259.140047 26.57971 
L 259.739259 27.077607 
L 260.33847 27.573925 
L 260.937682 28.066522 
L 261.536994 28.560775 
L 262.136206 29.049638 
L 262.735418 29.537568 
L 263.334629 30.023762 
L 263.933841 30.503927 
L 264.533153 30.981821 
L 265.132365 31.456538 
L 265.731577 31.927702 
L 266.330788 32.394875 
L 266.93 32.857065 
L 267.529312 33.317221 
L 268.128524 33.769586 
L 268.727736 34.216517 
L 269.326948 34.65801 
L 269.926159 35.095994 
L 270.525371 35.526403 
L 271.124683 35.953858 
L 271.723895 36.374673 
L 272.323107 36.789322 
L 272.922318 37.200253 
L 273.52153 37.60351 
L 274.120842 38.004386 
L 274.720054 38.396215 
L 275.319266 38.78334 
L 275.918477 39.1644 
L 276.517689 39.540017 
L 277.117001 39.909644 
L 277.716213 40.271939 
L 278.315425 40.630787 
L 278.914637 40.982463 
L 279.513848 41.328117 
L 280.11316 41.670677 
L 280.712372 42.0068 
L 281.311584 42.334815 
L 281.910796 42.660133 
L 282.510007 42.980072 
L 283.10932 43.294321 
L 283.708531 43.603516 
L 284.307743 43.904843 
L 284.906955 44.202632 
L 285.506167 44.496641 
L 286.105378 44.786491 
L 286.70469 45.068826 
L 287.303902 45.347291 
L 287.903114 45.620319 
L 288.502326 45.886398 
L 289.101537 46.148949 
L 289.70085 46.407605 
L 290.300061 46.661951 
L 290.899273 46.909398 
L 291.498485 47.1514 
L 292.097696 47.389068 
L 292.697009 47.62138 
L 293.29622 47.848738 
L 293.895432 48.072229 
L 294.494644 48.288492 
L 295.093856 48.501464 
L 295.693168 48.710839 
L 296.292379 48.914006 
L 296.891591 49.114178 
L 297.490803 49.310122 
L 298.090015 49.499644 
L 298.689327 49.686316 
L 299.288539 49.868915 
L 299.88775 50.04555 
L 300.486962 50.218898 
L 301.086174 50.387076 
L 301.685486 50.552512 
L 302.284698 50.713259 
L 302.883909 50.8693 
L 303.483121 51.022627 
L 304.082333 51.171673 
L 304.681545 51.315981 
L 305.280857 51.460357 
L 305.880068 51.598233 
L 306.47928 51.730709 
L 307.078492 51.86095 
L 307.677704 51.989433 
L 308.277016 52.11361 
L 308.876228 52.235472 
L 309.475439 52.351488 
L 310.074651 52.466824 
L 310.673863 52.577662 
L 311.273175 52.685778 
L 311.872387 52.7903 
L 312.471598 52.893303 
L 313.07081 52.993299 
L 313.670022 53.090067 
L 314.269334 53.184459 
L 314.868546 53.275727 
L 315.467757 53.364718 
L 316.066969 53.450208 
L 316.666181 53.533109 
L 317.265493 53.614373 
L 317.864705 53.692572 
L 318.463917 53.76916 
L 319.063128 53.842565 
L 319.66234 53.913531 
L 320.261552 53.982399 
L 320.860864 54.048278 
L 321.460076 54.112789 
L 322.059287 54.174794 
L 322.658499 54.235111 
L 323.257711 54.293699 
L 323.857023 54.349346 
L 324.456235 54.40266 
L 325.055447 54.454162 
L 325.654658 54.504156 
L 326.25387 54.551278 
L 326.853182 54.596155 
L 327.452394 54.640363 
L 328.051606 54.682878 
L 328.650817 54.721951 
L 329.250029 54.760668 
L 329.849341 54.797238 
L 330.448553 54.832395 
L 331.047765 54.866449 
L 331.646976 54.898784 
L 332.246188 54.92874 
L 332.8455 54.957536 
L 333.444712 54.985628 
L 334.043924 55.01163 
L 334.643136 55.036447 
L 335.242347 55.060115 
L 335.841659 55.08267 
L 336.440871 55.104596 
L 337.040083 55.12527 
L 337.639295 55.144914 
L 338.238506 55.162979 
L 338.837718 55.180636 
L 339.43703 55.197404 
L 340.036242 55.213028 
L 340.635454 55.228629 
L 341.234665 55.242645 
L 341.833877 55.256275 
L 342.433189 55.26891 
L 343.032401 55.281371 
L 343.631613 55.292877 
L 344.230825 55.303658 
L 344.830036 55.314505 
L 345.429348 55.32461 
L 346.02856 55.333441 
L 346.627772 55.34262 
L 347.226984 55.350418 
L 347.826195 55.358184 
L 348.425508 55.36573 
L 349.024719 55.373049 
L 349.623931 55.379395 
L 350.223143 55.38547 
L 350.822355 55.391575 
L 351.421667 55.39708 
L 352.020878 55.402339 
L 352.62009 55.407506 
L 353.219302 55.412564 
L 353.818514 55.417058 
L 354.417725 55.421637 
L 355.017038 55.426115 
L 355.616249 55.430778 
L 356.215461 55.434539 
L 356.814673 55.437808 
L 357.413884 55.441084 
L 358.013197 55.444051 
L 358.612408 55.447332 
L 359.21162 55.450121 
L 359.810832 55.452625 
L 360.410044 55.455171 
L 361.009356 55.457441 
L 361.608567 55.459762 
L 362.207779 55.461967 
L 362.806991 55.463914 
L 363.406203 55.46578 
L 364.005414 55.467716 
L 364.604626 55.469407 
L 365.203838 55.471029 
L 365.80305 55.472734 
L 366.402261 55.474205 
L 367.001473 55.475618 
L 367.600685 55.476976 
L 368.199897 55.478429 
L 368.799108 55.479659 
L 369.39832 55.481138 
L 369.997532 55.482378 
L 370.596743 55.48341 
L 371.195955 55.484406 
L 371.795167 55.485367 
L 372.394379 55.486293 
L 372.99359 55.487183 
L 373.592802 55.488037 
L 374.192014 55.488856 
L 374.791226 55.489638 
L 375.390437 55.490386 
L 375.989649 55.491097 
L 376.588861 55.492069 
L 377.188073 55.492813 
L 377.787284 55.493357 
L 378.386496 55.493877 
L 378.985708 55.49437 
L 379.58492 55.494838 
L 380.184131 55.495279 
L 380.783343 55.495693 
L 381.382555 55.496082 
L 381.981766 55.496446 
L 382.580978 55.496784 
L 383.18019 55.497246 
L 383.779402 55.497513 
L 384.378613 55.497762 
L 384.977825 55.497991 
L 385.577037 55.498202 
L 386.176249 55.498396 
L 386.77546 55.498573 
L 387.374672 55.498734 
L 387.973884 55.49888 
L 388.573096 55.499012 
L 389.172307 55.499131 
L 389.771519 55.499238 
L 390.370731 55.499334 
L 390.969942 55.49942 
L 391.569154 55.499496 
L 392.168366 55.499563 
L 392.767578 55.499622 
L 393.366789 55.499675 
L 393.966001 55.49972 
L 394.565213 55.499761 
L 395.164425 55.499796 
L 395.763636 55.499826 
z
" style="fill:#1f77b4;opacity:0.4;"/>
   </g>
   <g id="patch_4">
    <path clip-path="url(#p70dc3b2a4d)" d="M 151.27842 55.5 
L 151.27842 47.978291 
L 151.877682 47.760597 
L 152.476893 47.536669 
L 153.076105 47.308945 
L 153.675367 47.07514 
L 154.274579 46.837827 
L 154.873791 46.594491 
L 155.473052 46.348421 
L 156.072264 46.094381 
L 156.671526 45.836128 
L 157.270738 45.572555 
L 157.86995 45.304864 
L 158.469212 45.030588 
L 159.068423 44.752182 
L 159.667685 44.465571 
L 160.266897 44.17417 
L 160.866109 43.878673 
L 161.465371 43.577502 
L 162.064582 43.27168 
L 162.663794 42.958728 
L 163.263056 42.641257 
L 163.862268 42.31686 
L 164.46153 41.986739 
L 165.060741 41.651651 
L 165.659953 41.309868 
L 166.259215 40.961253 
L 166.858427 40.60985 
L 167.457689 40.253833 
L 168.056901 39.891222 
L 168.656112 39.521366 
L 169.255374 39.145856 
L 169.854586 38.768576 
L 170.453798 38.381813 
L 171.05306 37.991182 
L 171.652271 37.595831 
L 172.251533 37.196431 
L 172.850745 36.789646 
L 173.449957 36.380392 
L 174.049219 35.964671 
L 174.648431 35.542123 
L 175.247692 35.115018 
L 175.846904 34.688113 
L 176.446116 34.251432 
L 177.045378 33.815166 
L 177.64459 33.375035 
L 178.243801 32.926345 
L 178.843063 32.477606 
L 179.442275 32.026227 
L 180.041537 31.571789 
L 180.640749 31.110157 
L 181.23996 30.646902 
L 181.839222 30.182994 
L 182.438434 29.715725 
L 183.037696 29.245804 
L 183.636908 28.773408 
L 184.23612 28.30243 
L 184.835381 27.830715 
L 185.434593 27.358738 
L 186.033855 26.885681 
L 186.633067 26.411857 
L 187.232279 25.937594 
L 187.831541 25.467299 
L 188.430752 24.998641 
L 189.029964 24.529016 
L 189.629226 24.064996 
L 190.228438 23.603057 
L 190.8277 23.14406 
L 191.426911 22.684896 
L 192.026123 22.231054 
L 192.625385 21.780733 
L 193.224597 21.332925 
L 193.823859 20.89295 
L 194.423071 20.456524 
L 195.022282 20.027291 
L 195.621544 19.60306 
L 196.220756 19.184479 
L 196.819968 18.775123 
L 197.41923 18.372521 
L 198.018441 17.976552 
L 198.617703 17.589431 
L 199.216915 17.208837 
L 199.816127 16.836474 
L 200.415389 16.469683 
L 201.0146 16.115611 
L 201.613862 15.770525 
L 202.213074 15.435903 
L 202.812286 15.109254 
L 203.411548 14.792342 
L 204.01076 14.484727 
L 204.609971 14.186669 
L 205.209233 13.900814 
L 205.808445 13.621515 
L 206.407707 13.353487 
L 207.006919 13.092975 
L 207.60613 12.842634 
L 208.205392 12.602667 
L 208.804604 12.371148 
L 209.403866 12.15123 
L 210.003078 11.939297 
L 210.602289 11.73895 
L 211.201551 11.546625 
L 211.800763 11.362705 
L 212.400025 11.189584 
L 212.999237 11.024996 
L 213.598449 10.870483 
L 214.197711 10.72429 
L 214.796922 10.585182 
L 215.396134 10.454862 
L 215.995396 10.334195 
L 216.594608 10.221673 
L 217.19387 10.120297 
L 217.793081 10.027071 
L 218.392293 9.938901 
L 218.991555 9.856651 
L 219.590767 9.786706 
L 220.190029 9.722072 
L 220.78924 9.666499 
L 221.388452 9.618741 
L 221.987714 9.579272 
L 222.586926 9.545063 
L 223.186138 9.521044 
L 223.7854 9.506226 
L 224.384611 9.5 
L 224.983873 9.500974 
L 225.583085 9.513131 
L 226.182297 9.533294 
L 226.781559 9.563912 
L 227.38077 9.605553 
L 227.980032 9.654856 
L 228.579244 9.71323 
L 229.178456 9.782771 
L 229.777718 9.862669 
L 230.376929 9.951954 
L 230.976141 10.054823 
L 231.575403 10.167126 
L 232.174615 10.289737 
L 232.773877 10.426434 
L 233.373089 10.574004 
L 233.9723 10.731397 
L 234.571562 10.899159 
L 235.170774 11.079715 
L 235.770036 11.275583 
L 236.369248 11.482048 
L 236.968459 11.697826 
L 237.567721 11.931306 
L 238.166933 12.171016 
L 238.766145 12.424833 
L 239.365407 12.692207 
L 239.964619 12.972886 
L 240.56388 13.261748 
L 241.163092 13.564864 
L 241.762304 13.880464 
L 242.361566 14.208551 
L 242.960778 14.542241 
L 243.56004 14.892516 
L 244.159251 15.249872 
L 244.758463 15.617917 
L 245.357725 15.999628 
L 245.956937 16.387577 
L 246.556199 16.785268 
L 247.15541 17.191836 
L 247.754622 17.610618 
L 248.353884 18.035641 
L 248.953146 18.467436 
L 249.552358 18.909007 
L 250.151569 19.356531 
L 250.750781 19.811161 
L 251.349993 20.268323 
L 251.949205 20.73281 
L 252.548517 21.201961 
L 253.147729 21.677154 
L 253.74694 22.157071 
L 254.346152 22.641166 
L 254.945364 23.126166 
L 255.544676 23.612958 
L 256.143888 24.103719 
L 256.743099 24.595377 
L 257.342311 25.089975 
L 257.941523 25.585058 
L 258.540835 26.083077 
L 259.140047 26.57971 
L 259.739259 27.077607 
L 260.33847 27.573925 
L 260.937682 28.066522 
L 261.536994 28.560775 
L 262.136206 29.049638 
L 262.735418 29.537568 
L 263.334629 30.023762 
L 263.933841 30.503927 
L 264.533153 30.981821 
L 265.132365 31.456538 
L 265.731577 31.927702 
L 266.330788 32.394875 
L 266.93 32.857065 
L 267.529312 33.317221 
L 268.128524 33.769586 
L 268.727736 34.216517 
L 269.326948 34.65801 
L 269.926159 35.095994 
L 270.525371 35.526403 
L 271.124683 35.953858 
L 271.723895 36.374673 
L 272.323107 36.789322 
L 272.922318 37.200253 
L 273.52153 37.60351 
L 274.120842 38.004386 
L 274.720054 38.396215 
L 275.319266 38.78334 
L 275.918477 39.1644 
L 276.517689 39.540017 
L 277.117001 39.909644 
L 277.716213 40.271939 
L 278.315425 40.630787 
L 278.914637 40.982463 
L 279.513848 41.328117 
L 280.11316 41.670677 
L 280.712372 42.0068 
L 281.311584 42.334815 
L 281.910796 42.660133 
L 282.510007 42.980072 
L 283.10932 43.294321 
L 283.708531 43.603516 
L 284.307743 43.904843 
L 284.906955 44.202632 
L 285.506167 44.496641 
L 286.105378 44.786491 
L 286.70469 45.068826 
L 287.303902 45.347291 
L 287.903114 45.620319 
L 288.502326 45.886398 
L 289.101537 46.148949 
L 289.70085 46.407605 
L 290.300061 46.661951 
L 290.899273 46.909398 
L 291.498485 47.1514 
L 291.498485 55.5 
z
" style="fill:#1f77b4;opacity:0.4;"/>
   </g>
   <g id="matplotlib.axis_1">
    <g id="xtick_1">
     <g id="line2d_1">
      <defs>
       <path d="M 0 0 
L 0 3.5 
" id="m90d5c38588" style="stroke:#000000;stroke-width:0.8;"/>
      </defs>
      <g>
       <use style="stroke:#000000;stroke-width:0.8;" x="80.025386" xlink:href="#m90d5c38588" y="57.8"/>
      </g>
     </g>
     <g id="text_1">
      <!-- 1.6 -->
      <defs>
       <path d="M 12.40625 8.296875 
L 28.515625 8.296875 
L 28.515625 63.921875 
L 10.984375 60.40625 
L 10.984375 69.390625 
L 28.421875 72.90625 
L 38.28125 72.90625 
L 38.28125 8.296875 
L 54.390625 8.296875 
L 54.390625 0 
L 12.40625 0 
z
" id="DejaVuSans-49"/>
       <path d="M 10.6875 12.40625 
L 21 12.40625 
L 21 0 
L 10.6875 0 
z
" id="DejaVuSans-46"/>
       <path d="M 33.015625 40.375 
Q 26.375 40.375 22.484375 35.828125 
Q 18.609375 31.296875 18.609375 23.390625 
Q 18.609375 15.53125 22.484375 10.953125 
Q 26.375 6.390625 33.015625 6.390625 
Q 39.65625 6.390625 43.53125 10.953125 
Q 47.40625 15.53125 47.40625 23.390625 
Q 47.40625 31.296875 43.53125 35.828125 
Q 39.65625 40.375 33.015625 40.375 
z
M 52.59375 71.296875 
L 52.59375 62.3125 
Q 48.875 64.0625 45.09375 64.984375 
Q 41.3125 65.921875 37.59375 65.921875 
Q 27.828125 65.921875 22.671875 59.328125 
Q 17.53125 52.734375 16.796875 39.40625 
Q 19.671875 43.65625 24.015625 45.921875 
Q 28.375 48.1875 33.59375 48.1875 
Q 44.578125 48.1875 50.953125 41.515625 
Q 57.328125 34.859375 57.328125 23.390625 
Q 57.328125 12.15625 50.6875 5.359375 
Q 44.046875 -1.421875 33.015625 -1.421875 
Q 20.359375 -1.421875 13.671875 8.265625 
Q 6.984375 17.96875 6.984375 36.375 
Q 6.984375 53.65625 15.1875 63.9375 
Q 23.390625 74.21875 37.203125 74.21875 
Q 40.921875 74.21875 44.703125 73.484375 
Q 48.484375 72.75 52.59375 71.296875 
z
" id="DejaVuSans-54"/>
      </defs>
      <g transform="translate(72.073823 72.398437)scale(0.1 -0.1)">
       <use xlink:href="#DejaVuSans-49"/>
       <use x="63.623047" xlink:href="#DejaVuSans-46"/>
       <use x="95.410156" xlink:href="#DejaVuSans-54"/>
      </g>
     </g>
    </g>
    <g id="xtick_2">
     <g id="line2d_2">
      <g>
       <use style="stroke:#000000;stroke-width:0.8;" x="164.264574" xlink:href="#m90d5c38588" y="57.8"/>
      </g>
     </g>
     <g id="text_2">
      <!-- 1.8 -->
      <defs>
       <path d="M 31.78125 34.625 
Q 24.75 34.625 20.71875 30.859375 
Q 16.703125 27.09375 16.703125 20.515625 
Q 16.703125 13.921875 20.71875 10.15625 
Q 24.75 6.390625 31.78125 6.390625 
Q 38.8125 6.390625 42.859375 10.171875 
Q 46.921875 13.96875 46.921875 20.515625 
Q 46.921875 27.09375 42.890625 30.859375 
Q 38.875 34.625 31.78125 34.625 
z
M 21.921875 38.8125 
Q 15.578125 40.375 12.03125 44.71875 
Q 8.5 49.078125 8.5 55.328125 
Q 8.5 64.0625 14.71875 69.140625 
Q 20.953125 74.21875 31.78125 74.21875 
Q 42.671875 74.21875 48.875 69.140625 
Q 55.078125 64.0625 55.078125 55.328125 
Q 55.078125 49.078125 51.53125 44.71875 
Q 48 40.375 41.703125 38.8125 
Q 48.828125 37.15625 52.796875 32.3125 
Q 56.78125 27.484375 56.78125 20.515625 
Q 56.78125 9.90625 50.3125 4.234375 
Q 43.84375 -1.421875 31.78125 -1.421875 
Q 19.734375 -1.421875 13.25 4.234375 
Q 6.78125 9.90625 6.78125 20.515625 
Q 6.78125 27.484375 10.78125 32.3125 
Q 14.796875 37.15625 21.921875 38.8125 
z
M 18.3125 54.390625 
Q 18.3125 48.734375 21.84375 45.5625 
Q 25.390625 42.390625 31.78125 42.390625 
Q 38.140625 42.390625 41.71875 45.5625 
Q 45.3125 48.734375 45.3125 54.390625 
Q 45.3125 60.0625 41.71875 63.234375 
Q 38.140625 66.40625 31.78125 66.40625 
Q 25.390625 66.40625 21.84375 63.234375 
Q 18.3125 60.0625 18.3125 54.390625 
z
" id="DejaVuSans-56"/>
      </defs>
      <g transform="translate(156.313012 72.398437)scale(0.1 -0.1)">
       <use xlink:href="#DejaVuSans-49"/>
       <use x="63.623047" xlink:href="#DejaVuSans-46"/>
       <use x="95.410156" xlink:href="#DejaVuSans-56"/>
      </g>
     </g>
    </g>
    <g id="xtick_3">
     <g id="line2d_3">
      <g>
       <use style="stroke:#000000;stroke-width:0.8;" x="248.503762" xlink:href="#m90d5c38588" y="57.8"/>
      </g>
     </g>
     <g id="text_3">
      <!-- 2.0 -->
      <defs>
       <path d="M 19.1875 8.296875 
L 53.609375 8.296875 
L 53.609375 0 
L 7.328125 0 
L 7.328125 8.296875 
Q 12.9375 14.109375 22.625 23.890625 
Q 32.328125 33.6875 34.8125 36.53125 
Q 39.546875 41.84375 41.421875 45.53125 
Q 43.3125 49.21875 43.3125 52.78125 
Q 43.3125 58.59375 39.234375 62.25 
Q 35.15625 65.921875 28.609375 65.921875 
Q 23.96875 65.921875 18.8125 64.3125 
Q 13.671875 62.703125 7.8125 59.421875 
L 7.8125 69.390625 
Q 13.765625 71.78125 18.9375 73 
Q 24.125 74.21875 28.421875 74.21875 
Q 39.75 74.21875 46.484375 68.546875 
Q 53.21875 62.890625 53.21875 53.421875 
Q 53.21875 48.921875 51.53125 44.890625 
Q 49.859375 40.875 45.40625 35.40625 
Q 44.1875 33.984375 37.640625 27.21875 
Q 31.109375 20.453125 19.1875 8.296875 
z
" id="DejaVuSans-50"/>
       <path d="M 31.78125 66.40625 
Q 24.171875 66.40625 20.328125 58.90625 
Q 16.5 51.421875 16.5 36.375 
Q 16.5 21.390625 20.328125 13.890625 
Q 24.171875 6.390625 31.78125 6.390625 
Q 39.453125 6.390625 43.28125 13.890625 
Q 47.125 21.390625 47.125 36.375 
Q 47.125 51.421875 43.28125 58.90625 
Q 39.453125 66.40625 31.78125 66.40625 
z
M 31.78125 74.21875 
Q 44.046875 74.21875 50.515625 64.515625 
Q 56.984375 54.828125 56.984375 36.375 
Q 56.984375 17.96875 50.515625 8.265625 
Q 44.046875 -1.421875 31.78125 -1.421875 
Q 19.53125 -1.421875 13.0625 8.265625 
Q 6.59375 17.96875 6.59375 36.375 
Q 6.59375 54.828125 13.0625 64.515625 
Q 19.53125 74.21875 31.78125 74.21875 
z
" id="DejaVuSans-48"/>
      </defs>
      <g transform="translate(240.5522 72.398437)scale(0.1 -0.1)">
       <use xlink:href="#DejaVuSans-50"/>
       <use x="63.623047" xlink:href="#DejaVuSans-46"/>
       <use x="95.410156" xlink:href="#DejaVuSans-48"/>
      </g>
     </g>
    </g>
    <g id="xtick_4">
     <g id="line2d_4">
      <g>
       <use style="stroke:#000000;stroke-width:0.8;" x="332.74295" xlink:href="#m90d5c38588" y="57.8"/>
      </g>
     </g>
     <g id="text_4">
      <!-- 2.2 -->
      <g transform="translate(324.791388 72.398437)scale(0.1 -0.1)">
       <use xlink:href="#DejaVuSans-50"/>
       <use x="63.623047" xlink:href="#DejaVuSans-46"/>
       <use x="95.410156" xlink:href="#DejaVuSans-50"/>
      </g>
     </g>
    </g>
    <g id="text_5">
     <!-- Weight -->
     <defs>
      <path d="M 3.328125 72.90625 
L 13.28125 72.90625 
L 28.609375 11.28125 
L 43.890625 72.90625 
L 54.984375 72.90625 
L 70.3125 11.28125 
L 85.59375 72.90625 
L 95.609375 72.90625 
L 77.296875 0 
L 64.890625 0 
L 49.515625 63.28125 
L 33.984375 0 
L 21.578125 0 
z
" id="DejaVuSans-87"/>
      <path d="M 56.203125 29.59375 
L 56.203125 25.203125 
L 14.890625 25.203125 
Q 15.484375 15.921875 20.484375 11.0625 
Q 25.484375 6.203125 34.421875 6.203125 
Q 39.59375 6.203125 44.453125 7.46875 
Q 49.3125 8.734375 54.109375 11.28125 
L 54.109375 2.78125 
Q 49.265625 0.734375 44.1875 -0.34375 
Q 39.109375 -1.421875 33.890625 -1.421875 
Q 20.796875 -1.421875 13.15625 6.1875 
Q 5.515625 13.8125 5.515625 26.8125 
Q 5.515625 40.234375 12.765625 48.109375 
Q 20.015625 56 32.328125 56 
Q 43.359375 56 49.78125 48.890625 
Q 56.203125 41.796875 56.203125 29.59375 
z
M 47.21875 32.234375 
Q 47.125 39.59375 43.09375 43.984375 
Q 39.0625 48.390625 32.421875 48.390625 
Q 24.90625 48.390625 20.390625 44.140625 
Q 15.875 39.890625 15.1875 32.171875 
z
" id="DejaVuSans-101"/>
      <path d="M 9.421875 54.6875 
L 18.40625 54.6875 
L 18.40625 0 
L 9.421875 0 
z
M 9.421875 75.984375 
L 18.40625 75.984375 
L 18.40625 64.59375 
L 9.421875 64.59375 
z
" id="DejaVuSans-105"/>
      <path d="M 45.40625 27.984375 
Q 45.40625 37.75 41.375 43.109375 
Q 37.359375 48.484375 30.078125 48.484375 
Q 22.859375 48.484375 18.828125 43.109375 
Q 14.796875 37.75 14.796875 27.984375 
Q 14.796875 18.265625 18.828125 12.890625 
Q 22.859375 7.515625 30.078125 7.515625 
Q 37.359375 7.515625 41.375 12.890625 
Q 45.40625 18.265625 45.40625 27.984375 
z
M 54.390625 6.78125 
Q 54.390625 -7.171875 48.1875 -13.984375 
Q 42 -20.796875 29.203125 -20.796875 
Q 24.46875 -20.796875 20.265625 -20.09375 
Q 16.0625 -19.390625 12.109375 -17.921875 
L 12.109375 -9.1875 
Q 16.0625 -11.328125 19.921875 -12.34375 
Q 23.78125 -13.375 27.78125 -13.375 
Q 36.625 -13.375 41.015625 -8.765625 
Q 45.40625 -4.15625 45.40625 5.171875 
L 45.40625 9.625 
Q 42.625 4.78125 38.28125 2.390625 
Q 33.9375 0 27.875 0 
Q 17.828125 0 11.671875 7.65625 
Q 5.515625 15.328125 5.515625 27.984375 
Q 5.515625 40.671875 11.671875 48.328125 
Q 17.828125 56 27.875 56 
Q 33.9375 56 38.28125 53.609375 
Q 42.625 51.21875 45.40625 46.390625 
L 45.40625 54.6875 
L 54.390625 54.6875 
z
" id="DejaVuSans-103"/>
      <path d="M 54.890625 33.015625 
L 54.890625 0 
L 45.90625 0 
L 45.90625 32.71875 
Q 45.90625 40.484375 42.875 44.328125 
Q 39.84375 48.1875 33.796875 48.1875 
Q 26.515625 48.1875 22.3125 43.546875 
Q 18.109375 38.921875 18.109375 30.90625 
L 18.109375 0 
L 9.078125 0 
L 9.078125 75.984375 
L 18.109375 75.984375 
L 18.109375 46.1875 
Q 21.34375 51.125 25.703125 53.5625 
Q 30.078125 56 35.796875 56 
Q 45.21875 56 50.046875 50.171875 
Q 54.890625 44.34375 54.890625 33.015625 
z
" id="DejaVuSans-104"/>
      <path d="M 18.3125 70.21875 
L 18.3125 54.6875 
L 36.8125 54.6875 
L 36.8125 47.703125 
L 18.3125 47.703125 
L 18.3125 18.015625 
Q 18.3125 11.328125 20.140625 9.421875 
Q 21.96875 7.515625 27.59375 7.515625 
L 36.8125 7.515625 
L 36.8125 0 
L 27.59375 0 
Q 17.1875 0 13.234375 3.875 
Q 9.28125 7.765625 9.28125 18.015625 
L 9.28125 47.703125 
L 2.6875 47.703125 
L 2.6875 54.6875 
L 9.28125 54.6875 
L 9.28125 70.21875 
z
" id="DejaVuSans-116"/>
     </defs>
     <g transform="translate(194.691406 86.076562)scale(0.1 -0.1)">
      <use xlink:href="#DejaVuSans-87"/>
      <use x="98.798828" xlink:href="#DejaVuSans-101"/>
      <use x="160.322266" xlink:href="#DejaVuSans-105"/>
      <use x="188.105469" xlink:href="#DejaVuSans-103"/>
      <use x="251.582031" xlink:href="#DejaVuSans-104"/>
      <use x="314.960938" xlink:href="#DejaVuSans-116"/>
     </g>
    </g>
   </g>
   <g id="patch_5">
    <path d="M 10.7 57.8 
L 414.1 57.8 
" style="fill:none;stroke:#000000;stroke-linecap:square;stroke-linejoin:miter;stroke-width:0.8;"/>
   </g>
  </g>
  <g id="axes_2">
   <g id="patch_6">
    <path d="M 10.7 150.2 
L 414.1 150.2 
L 414.1 99.6 
L 10.7 99.6 
z
" style="fill:#ffffff;"/>
   </g>
   <g id="patch_7">
    <path clip-path="url(#p8add885e2b)" d="M 29.036364 147.9 
L 29.635577 147.899799 
L 30.23479 147.899764 
L 30.834003 147.899724 
L 31.433216 147.899678 
L 32.032429 147.899625 
L 32.631641 147.899565 
L 33.230854 147.899496 
L 33.830067 147.899419 
L 34.42928 147.899131 
L 35.028493 147.898997 
L 35.627706 147.898847 
L 36.226919 147.898677 
L 36.826132 147.898487 
L 37.425345 147.898274 
L 38.024558 147.898038 
L 38.623771 147.897574 
L 39.222984 147.897047 
L 39.822197 147.896249 
L 40.42141 147.895739 
L 41.020623 147.895172 
L 41.619836 147.894342 
L 42.219049 147.893612 
L 42.818262 147.892805 
L 43.417475 147.891917 
L 44.016688 147.890941 
L 44.615901 147.889872 
L 45.215114 147.888504 
L 45.814327 147.886797 
L 46.41354 147.885307 
L 47.012753 147.883486 
L 47.611966 147.881494 
L 48.211179 147.879519 
L 48.810392 147.877384 
L 49.409605 147.875082 
L 50.008818 147.872606 
L 50.608031 147.869952 
L 51.207244 147.866713 
L 51.806457 147.863415 
L 52.40567 147.859881 
L 53.004883 147.8563 
L 53.604096 147.852499 
L 54.203309 147.848273 
L 54.802522 147.843989 
L 55.401734 147.839072 
L 56.000947 147.834255 
L 56.60016 147.828997 
L 57.199373 147.823466 
L 57.798586 147.817458 
L 58.397799 147.81154 
L 58.997012 147.804772 
L 59.596225 147.798259 
L 60.195438 147.791494 
L 60.794651 147.784484 
L 61.393864 147.777036 
L 61.993077 147.769124 
L 63.191503 147.761322 
L 63.790767 147.752695 
L 64.38998 147.744356 
L 64.989193 147.735603 
L 65.588457 147.726615 
L 66.18767 147.7174 
L 66.786883 147.707966 
L 67.386147 147.698323 
L 67.98536 147.687877 
L 68.584573 147.677738 
L 69.183837 147.667001 
L 69.78305 147.656004 
L 70.382314 147.645147 
L 70.981527 147.634293 
L 71.58074 147.62268 
L 72.180004 147.611415 
L 72.779217 147.599795 
L 73.37843 147.587591 
L 73.977694 147.575136 
L 74.576907 147.562824 
L 75.17612 147.550112 
L 75.775384 147.537565 
L 76.374597 147.524444 
L 76.97381 147.511281 
L 77.573074 147.497504 
L 78.172287 147.483239 
L 78.7715 147.46904 
L 79.370764 147.454755 
L 79.969977 147.44021 
L 80.569241 147.424795 
L 81.168454 147.409204 
L 81.767667 147.393051 
L 82.366931 147.376686 
L 82.966144 147.360324 
L 83.565357 147.343218 
L 84.164621 147.325292 
L 84.763834 147.306864 
L 85.363047 147.287908 
L 85.962311 147.268804 
L 86.561524 147.248791 
L 87.160737 147.227586 
L 87.760001 147.206062 
L 88.359214 147.183845 
L 88.958427 147.161104 
L 89.557691 147.13804 
L 90.156904 147.113689 
L 90.756117 147.088528 
L 91.355381 147.062722 
L 91.954594 147.036469 
L 92.553807 147.007799 
L 93.153071 146.97982 
L 93.752284 146.949972 
L 94.351548 146.91846 
L 94.950761 146.886336 
L 95.549974 146.853439 
L 96.149238 146.818784 
L 96.748451 146.782625 
L 97.347664 146.745639 
L 97.946928 146.706863 
L 98.546141 146.666203 
L 99.145353 146.624329 
L 99.744618 146.580434 
L 100.34383 146.533782 
L 100.943043 146.486128 
L 101.542307 146.43574 
L 102.14152 146.384575 
L 102.740733 146.331374 
L 103.339997 146.2755 
L 103.93921 146.217188 
L 104.538474 146.156729 
L 105.137687 146.093281 
L 105.7369 146.028276 
L 106.336164 145.959775 
L 106.935377 145.888926 
L 107.53459 145.8155 
L 108.133854 145.739103 
L 108.733067 145.660721 
L 109.33228 145.578814 
L 109.931544 145.493429 
L 110.530757 145.404869 
L 111.12997 145.312866 
L 111.729234 145.218125 
L 112.328447 145.120884 
L 112.92766 145.021405 
L 113.526924 144.917969 
L 114.126137 144.811072 
L 114.72535 144.702503 
L 115.324614 144.588284 
L 115.923827 144.472838 
L 116.52304 144.353339 
L 117.122304 144.22984 
L 117.721517 144.104412 
L 118.320781 143.975479 
L 118.919994 143.844935 
L 119.519207 143.711233 
L 120.118471 143.573811 
L 120.717684 143.432603 
L 121.316897 143.289324 
L 121.916161 143.143515 
L 122.515374 142.994658 
L 123.114587 142.843914 
L 123.713851 142.689259 
L 124.313064 142.531746 
L 124.912277 142.372137 
L 125.511541 142.20952 
L 126.110754 142.046085 
L 126.709967 141.879317 
L 127.309231 141.709893 
L 127.908444 141.537688 
L 128.507708 141.362443 
L 129.106921 141.18362 
L 129.706134 141.003369 
L 130.305398 140.8201 
L 130.904611 140.636091 
L 131.503824 140.448634 
L 132.103088 140.256611 
L 132.702301 140.063224 
L 133.301514 139.866467 
L 133.900778 139.664986 
L 134.499991 139.461615 
L 135.099204 139.255196 
L 135.698468 139.046086 
L 136.297681 138.831136 
L 136.896894 138.613183 
L 137.496158 138.3901 
L 138.095371 138.163234 
L 138.694584 137.934231 
L 139.293848 137.699497 
L 139.893061 137.460507 
L 140.492274 137.217659 
L 141.091538 136.970285 
L 141.690751 136.718556 
L 142.290015 136.462053 
L 142.889228 136.20231 
L 143.488441 135.934696 
L 144.087705 135.663189 
L 144.686918 135.388486 
L 145.286131 135.107957 
L 145.885395 134.821067 
L 146.484608 134.529467 
L 147.083821 134.232835 
L 147.683085 133.931281 
L 148.282298 133.622986 
L 148.881511 133.309702 
L 149.480775 132.990294 
L 150.079988 132.666931 
L 150.679201 132.338254 
L 151.278465 132.001341 
L 151.877678 131.66408 
L 152.476942 131.320366 
L 153.076155 130.970695 
L 153.675368 130.615178 
L 154.274632 130.257605 
L 154.873845 129.891536 
L 155.473058 129.521123 
L 156.072322 129.147792 
L 156.671534 128.770858 
L 157.270747 128.388363 
L 157.870011 128.000345 
L 158.469224 127.607782 
L 159.068437 127.210865 
L 159.667701 126.810323 
L 160.266914 126.405634 
L 160.866127 125.998261 
L 161.465391 125.586914 
L 162.064604 125.172341 
L 162.663817 124.753346 
L 163.263081 124.334309 
L 163.862294 123.912043 
L 164.461507 123.482536 
L 165.060771 123.055083 
L 165.659984 122.625211 
L 166.259248 122.194944 
L 166.858461 121.761603 
L 167.457674 121.327402 
L 168.056938 120.891531 
L 168.656151 120.457231 
L 169.255364 120.023266 
L 169.854628 119.589269 
L 170.453841 119.154238 
L 171.053054 118.721108 
L 171.652318 118.287791 
L 172.251531 117.857929 
L 172.850744 117.425638 
L 173.450008 116.999079 
L 174.049221 116.57747 
L 174.648434 116.158206 
L 175.247698 115.740115 
L 175.846911 115.326084 
L 176.446175 114.917629 
L 177.045388 114.512678 
L 177.644601 114.113697 
L 178.243865 113.720522 
L 178.843078 113.330382 
L 179.442291 112.944924 
L 180.041555 112.566229 
L 180.640768 112.19398 
L 181.239981 111.825869 
L 181.839245 111.463939 
L 182.438458 111.1121 
L 183.037671 110.764262 
L 183.636935 110.420091 
L 184.236148 110.083673 
L 184.835361 109.755184 
L 185.434625 109.434652 
L 186.033838 109.120626 
L 186.633051 108.813435 
L 187.232315 108.512926 
L 187.831528 108.219848 
L 188.430741 107.932577 
L 189.030005 107.651517 
L 189.629218 107.375564 
L 190.228482 107.105887 
L 190.827695 106.842938 
L 191.426908 106.587543 
L 192.026172 106.338943 
L 192.625385 106.09821 
L 193.224598 105.858818 
L 193.823862 105.628157 
L 194.423075 105.406818 
L 195.022288 105.190688 
L 195.621552 104.985007 
L 196.220765 104.782395 
L 196.819978 104.585714 
L 197.419242 104.398909 
L 198.018455 104.216371 
L 198.617668 104.04003 
L 199.216932 103.873185 
L 199.816145 103.709844 
L 200.415409 103.556442 
L 201.014622 103.40936 
L 201.613835 103.270905 
L 202.213099 103.137766 
L 202.812312 103.011996 
L 203.411525 102.892572 
L 204.010789 102.781471 
L 204.610002 102.676744 
L 205.209215 102.577224 
L 205.808479 102.486521 
L 206.407692 102.401359 
L 207.006905 102.325458 
L 207.606169 102.256416 
L 208.205382 102.19404 
L 208.804595 102.138566 
L 209.403859 102.085386 
L 210.003072 102.040114 
L 210.602285 102.004813 
L 211.201549 101.972283 
L 211.800762 101.943746 
L 212.399974 101.921811 
L 212.999238 101.909004 
L 213.598451 101.902223 
L 214.197715 101.9 
L 214.796928 101.901466 
L 215.396141 101.91164 
L 215.995405 101.925339 
L 216.594618 101.947257 
L 217.193831 101.972133 
L 217.793095 102.003581 
L 218.392308 102.045643 
L 218.991521 102.087812 
L 219.590785 102.139203 
L 220.189998 102.197292 
L 220.789211 102.26081 
L 221.388475 102.333582 
L 221.987688 102.415294 
L 222.586901 102.502469 
L 223.186165 102.593891 
L 223.785378 102.69309 
L 224.384642 102.802857 
L 224.983855 102.921875 
L 225.583068 103.050728 
L 226.182332 103.18647 
L 226.781545 103.332641 
L 227.380758 103.487159 
L 227.980022 103.651062 
L 228.579235 103.825288 
L 229.178448 104.006824 
L 229.777712 104.198711 
L 230.376925 104.397914 
L 230.976138 104.608225 
L 231.575402 104.830983 
L 232.174615 105.057291 
L 232.773854 105.293464 
L 233.373092 105.538363 
L 233.972305 105.793842 
L 234.571544 106.056569 
L 235.170782 106.327926 
L 235.769995 106.60506 
L 236.369234 106.887402 
L 236.968472 107.177171 
L 237.567685 107.476213 
L 238.166924 107.779827 
L 238.766162 108.089985 
L 239.365375 108.405961 
L 239.964614 108.72803 
L 240.563852 109.05122 
L 241.16309 109.378155 
L 241.762303 109.711078 
L 242.361542 110.04989 
L 242.96078 110.391342 
L 243.559993 110.735531 
L 244.159232 111.085028 
L 244.75847 111.43663 
L 245.357709 111.790694 
L 245.956922 112.151169 
L 246.55616 112.515051 
L 247.155399 112.87862 
L 247.754612 113.247223 
L 248.35385 113.619977 
L 248.953089 113.99381 
L 249.552302 114.368421 
L 250.15154 114.747735 
L 250.750779 115.134533 
L 251.349992 115.522566 
L 251.94923 115.912014 
L 252.548469 116.302346 
L 253.147707 116.696895 
L 253.74692 117.094551 
L 254.346159 117.496143 
L 254.945397 117.900137 
L 255.54461 118.308319 
L 256.143849 118.717484 
L 256.743087 119.132266 
L 257.342326 119.548662 
L 257.941539 119.967195 
L 258.540777 120.386201 
L 259.140016 120.806974 
L 259.739229 121.227762 
L 260.338467 121.653447 
L 260.937706 122.07906 
L 261.536919 122.50007 
L 262.136157 122.923671 
L 262.735396 123.344908 
L 263.334609 123.770559 
L 263.933847 124.194462 
L 264.533086 124.614607 
L 265.132324 125.035046 
L 265.731537 125.45466 
L 266.330776 125.872027 
L 266.930014 126.288069 
L 267.529227 126.698838 
L 268.128466 127.108499 
L 268.727704 127.511862 
L 269.326942 127.914494 
L 269.926155 128.311475 
L 270.525394 128.708153 
L 271.124632 129.097858 
L 271.723845 129.48458 
L 272.323084 129.868065 
L 272.922322 130.243448 
L 273.521535 130.616172 
L 274.120774 130.982272 
L 274.720012 131.343362 
L 275.319225 131.699883 
L 275.918464 132.050245 
L 276.517702 132.400702 
L 277.116941 132.742913 
L 277.716154 133.080307 
L 278.315392 133.413792 
L 278.914631 133.742973 
L 279.513844 134.067125 
L 280.113082 134.383522 
L 280.712321 134.694666 
L 281.311559 135.00218 
L 281.910772 135.306916 
L 282.510011 135.604687 
L 283.109249 135.899484 
L 283.708462 136.186779 
L 284.307701 136.470947 
L 284.906939 136.750741 
L 285.506152 137.024562 
L 286.105391 137.29487 
L 286.704629 137.560237 
L 287.303842 137.822275 
L 287.903081 138.082111 
L 288.502319 138.33335 
L 289.101558 138.582728 
L 289.700771 138.829127 
L 290.300009 139.072558 
L 290.899248 139.311007 
L 291.498461 139.545209 
L 292.097699 139.775623 
L 292.696938 140.000905 
L 293.296176 140.224207 
L 293.895389 140.442516 
L 294.494628 140.656509 
L 295.093866 140.866608 
L 295.693079 141.072966 
L 296.292318 141.276752 
L 296.891556 141.476794 
L 297.490769 141.67278 
L 298.090007 141.864217 
L 298.689246 142.052157 
L 299.288459 142.237164 
L 299.887697 142.418093 
L 300.486936 142.593405 
L 301.086174 142.764797 
L 301.685387 142.933789 
L 302.284626 143.09761 
L 302.883864 143.257747 
L 303.483077 143.414806 
L 304.082316 143.567596 
L 304.681554 143.715763 
L 305.280793 143.860198 
L 305.880006 144.001035 
L 306.479244 144.135845 
L 307.078483 144.268252 
L 307.677696 144.397525 
L 308.276934 144.520904 
L 308.876173 144.6397 
L 309.475386 144.755068 
L 310.074624 144.866465 
L 310.673863 144.974638 
L 311.273076 145.07839 
L 311.872314 145.178372 
L 312.471553 145.275345 
L 313.070791 145.367248 
L 313.670004 145.455926 
L 314.269243 145.543162 
L 314.868481 145.625857 
L 315.467694 145.706 
L 316.066933 145.783591 
L 316.666171 145.858985 
L 317.26541 145.929916 
L 317.864623 145.997397 
L 318.463861 146.06285 
L 319.0631 146.124742 
L 319.662313 146.185876 
L 320.261551 146.243192 
L 320.86079 146.298879 
L 321.460003 146.35239 
L 322.059241 146.404323 
L 322.65848 146.453009 
L 323.257693 146.501793 
L 323.856931 146.546876 
L 324.45617 146.5905 
L 325.055408 146.632704 
L 325.654621 146.673531 
L 326.253859 146.711835 
L 326.853098 146.74955 
L 327.452311 146.78526 
L 328.051549 146.819645 
L 328.650788 146.854826 
L 329.250026 146.887976 
L 329.849239 146.919457 
L 330.448478 146.949784 
L 331.047716 146.979207 
L 331.646929 147.007433 
L 332.246168 147.0349 
L 332.845406 147.061816 
L 333.444619 147.08751 
L 334.043858 147.113122 
L 334.643096 147.13809 
L 335.242309 147.16262 
L 335.841548 147.18655 
L 336.440786 147.209405 
L 337.040025 147.232318 
L 337.639238 147.254207 
L 338.238476 147.27586 
L 338.837715 147.296924 
L 339.436928 147.317099 
L 340.036166 147.337154 
L 340.635405 147.357231 
L 341.234643 147.376423 
L 341.833856 147.395498 
L 342.433095 147.414251 
L 343.032333 147.433359 
L 343.631546 147.451349 
L 344.230785 147.468846 
L 344.830023 147.485866 
L 345.429236 147.503275 
L 346.028475 147.519929 
L 346.627713 147.53622 
L 347.226926 147.552308 
L 347.826165 147.567817 
L 348.425403 147.583109 
L 349.024642 147.597977 
L 349.623855 147.612417 
L 350.223093 147.626253 
L 350.822332 147.64019 
L 351.421545 147.65329 
L 352.020783 147.665611 
L 352.620022 147.677545 
L 353.21926 147.689423 
L 353.818473 147.700506 
L 354.417711 147.71102 
L 355.01695 147.721329 
L 355.616163 147.731231 
L 356.215401 147.740559 
L 356.81464 147.749682 
L 357.413853 147.758574 
L 358.013091 147.767047 
L 358.61233 147.77494 
L 359.211543 147.782462 
L 359.810781 147.789622 
L 360.41002 147.796261 
L 361.009258 147.802924 
L 361.608471 147.809057 
L 362.20771 147.815042 
L 362.806923 147.820695 
L 363.406136 147.82603 
L 364.005349 147.830723 
L 364.604562 147.835181 
L 365.203775 147.839411 
L 365.802988 147.843762 
L 366.402201 147.847678 
L 367.001414 147.8512 
L 367.600627 147.854706 
L 368.19984 147.858176 
L 368.799053 147.861083 
L 369.398266 147.863834 
L 369.997478 147.866605 
L 370.596691 147.869034 
L 371.195904 147.871497 
L 371.795117 147.873802 
L 372.39433 147.876128 
L 372.993543 147.877946 
L 373.592756 147.879832 
L 374.191969 147.881931 
L 374.791182 147.883347 
L 375.390395 147.884682 
L 375.989608 147.88611 
L 376.588821 147.887265 
L 377.188034 147.88852 
L 377.787247 147.889509 
L 378.38646 147.890434 
L 378.985673 147.891469 
L 379.584886 147.892247 
L 380.184099 147.893141 
L 380.783312 147.893787 
L 381.382525 147.894386 
L 381.981738 147.894941 
L 382.580951 147.895452 
L 383.180164 147.895922 
L 383.779377 147.896353 
L 384.37859 147.896917 
L 384.977803 147.89725 
L 385.577016 147.897554 
L 386.176229 147.89783 
L 386.775442 147.89808 
L 387.374655 147.898306 
L 387.973868 147.898509 
L 388.573081 147.898862 
L 389.172294 147.898999 
L 389.771507 147.899123 
L 390.37072 147.899233 
L 390.969933 147.899331 
L 391.569146 147.899419 
L 392.168359 147.899496 
L 392.767571 147.899565 
L 393.366784 147.899625 
L 393.965997 147.899678 
L 394.56521 147.899724 
L 395.164423 147.899764 
L 395.763636 147.899799 
z
" style="fill:#1f77b4;opacity:0.4;"/>
   </g>
   <g id="patch_8">
    <path clip-path="url(#p8add885e2b)" d="M 132.103088 147.9 
L 132.103088 140.256611 
L 132.702301 140.063224 
L 133.301514 139.866467 
L 133.900778 139.664986 
L 134.499991 139.461615 
L 135.099204 139.255196 
L 135.698468 139.046086 
L 136.297681 138.831136 
L 136.896894 138.613183 
L 137.496158 138.3901 
L 138.095371 138.163234 
L 138.694584 137.934231 
L 139.293848 137.699497 
L 139.893061 137.460507 
L 140.492274 137.217659 
L 141.091538 136.970285 
L 141.690751 136.718556 
L 142.290015 136.462053 
L 142.889228 136.20231 
L 143.488441 135.934696 
L 144.087705 135.663189 
L 144.686918 135.388486 
L 145.286131 135.107957 
L 145.885395 134.821067 
L 146.484608 134.529467 
L 147.083821 134.232835 
L 147.683085 133.931281 
L 148.282298 133.622986 
L 148.881511 133.309702 
L 149.480775 132.990294 
L 150.079988 132.666931 
L 150.679201 132.338254 
L 151.278465 132.001341 
L 151.877678 131.66408 
L 152.476942 131.320366 
L 153.076155 130.970695 
L 153.675368 130.615178 
L 154.274632 130.257605 
L 154.873845 129.891536 
L 155.473058 129.521123 
L 156.072322 129.147792 
L 156.671534 128.770858 
L 157.270747 128.388363 
L 157.870011 128.000345 
L 158.469224 127.607782 
L 159.068437 127.210865 
L 159.667701 126.810323 
L 160.266914 126.405634 
L 160.866127 125.998261 
L 161.465391 125.586914 
L 162.064604 125.172341 
L 162.663817 124.753346 
L 163.263081 124.334309 
L 163.862294 123.912043 
L 164.461507 123.482536 
L 165.060771 123.055083 
L 165.659984 122.625211 
L 166.259248 122.194944 
L 166.858461 121.761603 
L 167.457674 121.327402 
L 168.056938 120.891531 
L 168.656151 120.457231 
L 169.255364 120.023266 
L 169.854628 119.589269 
L 170.453841 119.154238 
L 171.053054 118.721108 
L 171.652318 118.287791 
L 172.251531 117.857929 
L 172.850744 117.425638 
L 173.450008 116.999079 
L 174.049221 116.57747 
L 174.648434 116.158206 
L 175.247698 115.740115 
L 175.846911 115.326084 
L 176.446175 114.917629 
L 177.045388 114.512678 
L 177.644601 114.113697 
L 178.243865 113.720522 
L 178.843078 113.330382 
L 179.442291 112.944924 
L 180.041555 112.566229 
L 180.640768 112.19398 
L 181.239981 111.825869 
L 181.839245 111.463939 
L 182.438458 111.1121 
L 183.037671 110.764262 
L 183.636935 110.420091 
L 184.236148 110.083673 
L 184.835361 109.755184 
L 185.434625 109.434652 
L 186.033838 109.120626 
L 186.633051 108.813435 
L 187.232315 108.512926 
L 187.831528 108.219848 
L 188.430741 107.932577 
L 189.030005 107.651517 
L 189.629218 107.375564 
L 190.228482 107.105887 
L 190.827695 106.842938 
L 191.426908 106.587543 
L 192.026172 106.338943 
L 192.625385 106.09821 
L 193.224598 105.858818 
L 193.823862 105.628157 
L 194.423075 105.406818 
L 195.022288 105.190688 
L 195.621552 104.985007 
L 196.220765 104.782395 
L 196.819978 104.585714 
L 197.419242 104.398909 
L 198.018455 104.216371 
L 198.617668 104.04003 
L 199.216932 103.873185 
L 199.816145 103.709844 
L 200.415409 103.556442 
L 201.014622 103.40936 
L 201.613835 103.270905 
L 202.213099 103.137766 
L 202.812312 103.011996 
L 203.411525 102.892572 
L 204.010789 102.781471 
L 204.610002 102.676744 
L 205.209215 102.577224 
L 205.808479 102.486521 
L 206.407692 102.401359 
L 207.006905 102.325458 
L 207.606169 102.256416 
L 208.205382 102.19404 
L 208.804595 102.138566 
L 209.403859 102.085386 
L 210.003072 102.040114 
L 210.602285 102.004813 
L 211.201549 101.972283 
L 211.800762 101.943746 
L 212.399974 101.921811 
L 212.999238 101.909004 
L 213.598451 101.902223 
L 214.197715 101.9 
L 214.796928 101.901466 
L 215.396141 101.91164 
L 215.995405 101.925339 
L 216.594618 101.947257 
L 217.193831 101.972133 
L 217.793095 102.003581 
L 218.392308 102.045643 
L 218.991521 102.087812 
L 219.590785 102.139203 
L 220.189998 102.197292 
L 220.789211 102.26081 
L 221.388475 102.333582 
L 221.987688 102.415294 
L 222.586901 102.502469 
L 223.186165 102.593891 
L 223.785378 102.69309 
L 224.384642 102.802857 
L 224.983855 102.921875 
L 225.583068 103.050728 
L 226.182332 103.18647 
L 226.781545 103.332641 
L 227.380758 103.487159 
L 227.980022 103.651062 
L 228.579235 103.825288 
L 229.178448 104.006824 
L 229.777712 104.198711 
L 230.376925 104.397914 
L 230.976138 104.608225 
L 231.575402 104.830983 
L 232.174615 105.057291 
L 232.773854 105.293464 
L 233.373092 105.538363 
L 233.972305 105.793842 
L 234.571544 106.056569 
L 235.170782 106.327926 
L 235.769995 106.60506 
L 236.369234 106.887402 
L 236.968472 107.177171 
L 237.567685 107.476213 
L 238.166924 107.779827 
L 238.766162 108.089985 
L 239.365375 108.405961 
L 239.964614 108.72803 
L 240.563852 109.05122 
L 241.16309 109.378155 
L 241.762303 109.711078 
L 242.361542 110.04989 
L 242.96078 110.391342 
L 243.559993 110.735531 
L 244.159232 111.085028 
L 244.75847 111.43663 
L 245.357709 111.790694 
L 245.956922 112.151169 
L 246.55616 112.515051 
L 247.155399 112.87862 
L 247.754612 113.247223 
L 248.35385 113.619977 
L 248.953089 113.99381 
L 249.552302 114.368421 
L 250.15154 114.747735 
L 250.750779 115.134533 
L 251.349992 115.522566 
L 251.94923 115.912014 
L 252.548469 116.302346 
L 253.147707 116.696895 
L 253.74692 117.094551 
L 254.346159 117.496143 
L 254.945397 117.900137 
L 255.54461 118.308319 
L 256.143849 118.717484 
L 256.743087 119.132266 
L 257.342326 119.548662 
L 257.941539 119.967195 
L 258.540777 120.386201 
L 259.140016 120.806974 
L 259.739229 121.227762 
L 260.338467 121.653447 
L 260.937706 122.07906 
L 261.536919 122.50007 
L 262.136157 122.923671 
L 262.735396 123.344908 
L 263.334609 123.770559 
L 263.933847 124.194462 
L 264.533086 124.614607 
L 265.132324 125.035046 
L 265.731537 125.45466 
L 266.330776 125.872027 
L 266.930014 126.288069 
L 267.529227 126.698838 
L 268.128466 127.108499 
L 268.727704 127.511862 
L 269.326942 127.914494 
L 269.926155 128.311475 
L 270.525394 128.708153 
L 271.124632 129.097858 
L 271.723845 129.48458 
L 272.323084 129.868065 
L 272.922322 130.243448 
L 273.521535 130.616172 
L 274.120774 130.982272 
L 274.720012 131.343362 
L 275.319225 131.699883 
L 275.918464 132.050245 
L 276.517702 132.400702 
L 277.116941 132.742913 
L 277.716154 133.080307 
L 278.315392 133.413792 
L 278.914631 133.742973 
L 279.513844 134.067125 
L 280.113082 134.383522 
L 280.712321 134.694666 
L 281.311559 135.00218 
L 281.910772 135.306916 
L 282.510011 135.604687 
L 283.109249 135.899484 
L 283.708462 136.186779 
L 284.307701 136.470947 
L 284.906939 136.750741 
L 285.506152 137.024562 
L 286.105391 137.29487 
L 286.704629 137.560237 
L 287.303842 137.822275 
L 287.903081 138.082111 
L 288.502319 138.33335 
L 289.101558 138.582728 
L 289.700771 138.829127 
L 290.300009 139.072558 
L 290.899248 139.311007 
L 290.899248 147.9 
z
" style="fill:#1f77b4;opacity:0.4;"/>
   </g>
   <g id="matplotlib.axis_2">
    <g id="xtick_5">
     <g id="line2d_5">
      <g>
       <use style="stroke:#000000;stroke-width:0.8;" x="60.905051" xlink:href="#m90d5c38588" y="150.2"/>
      </g>
     </g>
     <g id="text_6">
      <!-- 1.4 -->
      <defs>
       <path d="M 10.59375 35.5 
L 73.1875 35.5 
L 73.1875 27.203125 
L 10.59375 27.203125 
z
" id="DejaVuSans-8722"/>
       <path d="M 37.796875 64.3125 
L 12.890625 25.390625 
L 37.796875 25.390625 
z
M 35.203125 72.90625 
L 47.609375 72.90625 
L 47.609375 25.390625 
L 58.015625 25.390625 
L 58.015625 17.1875 
L 47.609375 17.1875 
L 47.609375 0 
L 37.796875 0 
L 37.796875 17.1875 
L 4.890625 17.1875 
L 4.890625 26.703125 
z
" id="DejaVuSans-52"/>
      </defs>
      <g transform="translate(48.763644 164.798437)scale(0.1 -0.1)">
       <use xlink:href="#DejaVuSans-8722"/>
       <use x="83.789062" xlink:href="#DejaVuSans-49"/>
       <use x="147.412109" xlink:href="#DejaVuSans-46"/>
       <use x="179.199219" xlink:href="#DejaVuSans-52"/>
      </g>
     </g>
    </g>
    <g id="xtick_6">
     <g id="line2d_6">
      <g>
       <use style="stroke:#000000;stroke-width:0.8;" x="146.543738" xlink:href="#m90d5c38588" y="150.2"/>
      </g>
     </g>
     <g id="text_7">
      <!-- 1.2 -->
      <g transform="translate(134.402332 164.798437)scale(0.1 -0.1)">
       <use xlink:href="#DejaVuSans-8722"/>
       <use x="83.789062" xlink:href="#DejaVuSans-49"/>
       <use x="147.412109" xlink:href="#DejaVuSans-46"/>
       <use x="179.199219" xlink:href="#DejaVuSans-50"/>
      </g>
     </g>
    </g>
    <g id="xtick_7">
     <g id="line2d_7">
      <g>
       <use style="stroke:#000000;stroke-width:0.8;" x="232.182425" xlink:href="#m90d5c38588" y="150.2"/>
      </g>
     </g>
     <g id="text_8">
      <!-- 1.0 -->
      <g transform="translate(220.041019 164.798437)scale(0.1 -0.1)">
       <use xlink:href="#DejaVuSans-8722"/>
       <use x="83.789062" xlink:href="#DejaVuSans-49"/>
       <use x="147.412109" xlink:href="#DejaVuSans-46"/>
       <use x="179.199219" xlink:href="#DejaVuSans-48"/>
      </g>
     </g>
    </g>
    <g id="xtick_8">
     <g id="line2d_8">
      <g>
       <use style="stroke:#000000;stroke-width:0.8;" x="317.821112" xlink:href="#m90d5c38588" y="150.2"/>
      </g>
     </g>
     <g id="text_9">
      <!-- 0.8 -->
      <g transform="translate(305.679706 164.798437)scale(0.1 -0.1)">
       <use xlink:href="#DejaVuSans-8722"/>
       <use x="83.789062" xlink:href="#DejaVuSans-48"/>
       <use x="147.412109" xlink:href="#DejaVuSans-46"/>
       <use x="179.199219" xlink:href="#DejaVuSans-56"/>
      </g>
     </g>
    </g>
    <g id="xtick_9">
     <g id="line2d_9">
      <g>
       <use style="stroke:#000000;stroke-width:0.8;" x="403.459799" xlink:href="#m90d5c38588" y="150.2"/>
      </g>
     </g>
     <g id="text_10">
      <!-- 0.6 -->
      <g transform="translate(391.318393 164.798437)scale(0.1 -0.1)">
       <use xlink:href="#DejaVuSans-8722"/>
       <use x="83.789062" xlink:href="#DejaVuSans-48"/>
       <use x="147.412109" xlink:href="#DejaVuSans-46"/>
       <use x="179.199219" xlink:href="#DejaVuSans-54"/>
      </g>
     </g>
    </g>
    <g id="text_11">
     <!-- Bias -->
     <defs>
      <path d="M 19.671875 34.8125 
L 19.671875 8.109375 
L 35.5 8.109375 
Q 43.453125 8.109375 47.28125 11.40625 
Q 51.125 14.703125 51.125 21.484375 
Q 51.125 28.328125 47.28125 31.5625 
Q 43.453125 34.8125 35.5 34.8125 
z
M 19.671875 64.796875 
L 19.671875 42.828125 
L 34.28125 42.828125 
Q 41.5 42.828125 45.03125 45.53125 
Q 48.578125 48.25 48.578125 53.8125 
Q 48.578125 59.328125 45.03125 62.0625 
Q 41.5 64.796875 34.28125 64.796875 
z
M 9.8125 72.90625 
L 35.015625 72.90625 
Q 46.296875 72.90625 52.390625 68.21875 
Q 58.5 63.53125 58.5 54.890625 
Q 58.5 48.1875 55.375 44.234375 
Q 52.25 40.28125 46.1875 39.3125 
Q 53.46875 37.75 57.5 32.78125 
Q 61.53125 27.828125 61.53125 20.40625 
Q 61.53125 10.640625 54.890625 5.3125 
Q 48.25 0 35.984375 0 
L 9.8125 0 
z
" id="DejaVuSans-66"/>
      <path d="M 34.28125 27.484375 
Q 23.390625 27.484375 19.1875 25 
Q 14.984375 22.515625 14.984375 16.5 
Q 14.984375 11.71875 18.140625 8.90625 
Q 21.296875 6.109375 26.703125 6.109375 
Q 34.1875 6.109375 38.703125 11.40625 
Q 43.21875 16.703125 43.21875 25.484375 
L 43.21875 27.484375 
z
M 52.203125 31.203125 
L 52.203125 0 
L 43.21875 0 
L 43.21875 8.296875 
Q 40.140625 3.328125 35.546875 0.953125 
Q 30.953125 -1.421875 24.3125 -1.421875 
Q 15.921875 -1.421875 10.953125 3.296875 
Q 6 8.015625 6 15.921875 
Q 6 25.140625 12.171875 29.828125 
Q 18.359375 34.515625 30.609375 34.515625 
L 43.21875 34.515625 
L 43.21875 35.40625 
Q 43.21875 41.609375 39.140625 45 
Q 35.0625 48.390625 27.6875 48.390625 
Q 23 48.390625 18.546875 47.265625 
Q 14.109375 46.140625 10.015625 43.890625 
L 10.015625 52.203125 
Q 14.9375 54.109375 19.578125 55.046875 
Q 24.21875 56 28.609375 56 
Q 40.484375 56 46.34375 49.84375 
Q 52.203125 43.703125 52.203125 31.203125 
z
" id="DejaVuSans-97"/>
      <path d="M 44.28125 53.078125 
L 44.28125 44.578125 
Q 40.484375 46.53125 36.375 47.5 
Q 32.28125 48.484375 27.875 48.484375 
Q 21.1875 48.484375 17.84375 46.4375 
Q 14.5 44.390625 14.5 40.28125 
Q 14.5 37.15625 16.890625 35.375 
Q 19.28125 33.59375 26.515625 31.984375 
L 29.59375 31.296875 
Q 39.15625 29.25 43.1875 25.515625 
Q 47.21875 21.78125 47.21875 15.09375 
Q 47.21875 7.46875 41.1875 3.015625 
Q 35.15625 -1.421875 24.609375 -1.421875 
Q 20.21875 -1.421875 15.453125 -0.5625 
Q 10.6875 0.296875 5.421875 2 
L 5.421875 11.28125 
Q 10.40625 8.6875 15.234375 7.390625 
Q 20.0625 6.109375 24.8125 6.109375 
Q 31.15625 6.109375 34.5625 8.28125 
Q 37.984375 10.453125 37.984375 14.40625 
Q 37.984375 18.0625 35.515625 20.015625 
Q 33.0625 21.96875 24.703125 23.78125 
L 21.578125 24.515625 
Q 13.234375 26.265625 9.515625 29.90625 
Q 5.8125 33.546875 5.8125 39.890625 
Q 5.8125 47.609375 11.28125 51.796875 
Q 16.75 56 26.8125 56 
Q 31.78125 56 36.171875 55.265625 
Q 40.578125 54.546875 44.28125 53.078125 
z
" id="DejaVuSans-115"/>
     </defs>
     <g transform="translate(201.911719 178.476562)scale(0.1 -0.1)">
      <use xlink:href="#DejaVuSans-66"/>
      <use x="68.603516" xlink:href="#DejaVuSans-105"/>
      <use x="96.386719" xlink:href="#DejaVuSans-97"/>
      <use x="157.666016" xlink:href="#DejaVuSans-115"/>
     </g>
    </g>
   </g>
   <g id="patch_9">
    <path d="M 10.7 150.2 
L 414.1 150.2 
" style="fill:none;stroke:#000000;stroke-linecap:square;stroke-linejoin:miter;stroke-width:0.8;"/>
   </g>
  </g>
  <g id="axes_3">
   <g id="patch_10">
    <path d="M 10.7 242.6 
L 414.1 242.6 
L 414.1 192 
L 10.7 192 
z
" style="fill:#ffffff;"/>
   </g>
   <g id="patch_11">
    <path clip-path="url(#pd86ef97352)" d="M 29.036364 240.3 
L 29.635588 240.29987 
L 30.234813 240.299847 
L 30.834037 240.299821 
L 31.433262 240.299791 
L 32.032486 240.299757 
L 32.631711 240.299718 
L 33.230935 240.299674 
L 33.830159 240.299493 
L 34.429384 240.299284 
L 35.028608 240.299041 
L 35.627833 240.298891 
L 36.227057 240.298721 
L 36.826282 240.298398 
L 37.425506 240.298159 
L 38.024731 240.29776 
L 38.623955 240.297436 
L 39.22318 240.297072 
L 39.822404 240.296276 
L 40.421629 240.295627 
L 41.020853 240.294765 
L 41.620078 240.293789 
L 42.219302 240.292687 
L 42.818527 240.291187 
L 43.417751 240.290008 
L 44.016976 240.288308 
L 44.6162 240.286271 
L 45.215425 240.283852 
L 45.814649 240.281262 
L 46.413874 240.278105 
L 47.013098 240.274564 
L 47.612323 240.270862 
L 48.211547 240.265702 
L 48.810772 240.260686 
L 49.409996 240.254843 
L 50.00922 240.248076 
L 50.608445 240.24106 
L 51.207669 240.232641 
L 51.806894 240.223425 
L 52.406118 240.212702 
L 53.005343 240.200815 
L 53.604567 240.187794 
L 54.203792 240.173032 
L 54.803016 240.156741 
L 55.402241 240.138273 
L 56.001465 240.117927 
L 56.60069 240.094769 
L 57.199914 240.069283 
L 57.799139 240.042581 
L 58.398363 240.011832 
L 58.997588 239.978022 
L 59.596812 239.941689 
L 60.196037 239.901416 
L 60.795261 239.857776 
L 61.394486 239.810049 
L 61.99371 239.757161 
L 63.192159 239.699584 
L 63.791395 239.637001 
L 64.390619 239.568956 
L 64.989843 239.495221 
L 65.589079 239.416227 
L 66.188303 239.329799 
L 66.787528 239.236037 
L 67.386763 239.135639 
L 67.985988 239.027406 
L 68.585212 238.9122 
L 69.184448 238.786936 
L 69.783672 238.65573 
L 70.382897 238.512044 
L 70.982132 238.359706 
L 71.581357 238.197571 
L 72.180592 238.024759 
L 72.779817 237.839919 
L 73.379041 237.643624 
L 73.978277 237.435848 
L 74.577501 237.217553 
L 75.176726 236.985003 
L 75.775961 236.740127 
L 76.375186 236.481895 
L 76.97441 236.210476 
L 77.573645 235.926145 
L 78.17287 235.626828 
L 78.772094 235.311723 
L 79.37133 234.983212 
L 79.970554 234.640398 
L 80.569779 234.280985 
L 81.169014 233.908975 
L 81.768239 233.518465 
L 82.367463 233.113233 
L 82.966699 232.693876 
L 83.565923 232.258016 
L 84.165148 231.806669 
L 84.764383 231.339112 
L 85.363608 230.857257 
L 85.962832 230.357912 
L 86.562068 229.846314 
L 87.161292 229.319655 
L 87.760517 228.777231 
L 88.359752 228.220031 
L 88.958977 227.650638 
L 89.558201 227.068685 
L 90.157437 226.470845 
L 90.756661 225.859805 
L 91.355896 225.239984 
L 91.955121 224.606643 
L 92.554345 223.964028 
L 93.153581 223.30809 
L 93.752805 222.645572 
L 94.35203 221.972616 
L 94.951265 221.291483 
L 95.55049 220.604093 
L 96.149714 219.908953 
L 96.74895 219.207712 
L 97.348174 218.499831 
L 97.947399 217.78992 
L 98.546634 217.074443 
L 99.145859 216.356764 
L 99.745083 215.636675 
L 100.344319 214.917044 
L 100.943543 214.195376 
L 101.542768 213.472995 
L 102.142003 212.754181 
L 102.741228 212.036161 
L 103.340452 211.323086 
L 103.939688 210.611221 
L 104.538912 209.905995 
L 105.138136 209.208325 
L 105.737372 208.517175 
L 106.336596 207.835195 
L 106.935821 207.160542 
L 107.535056 206.49432 
L 108.134281 205.838234 
L 108.733505 205.193518 
L 109.332741 204.561551 
L 109.931965 203.942118 
L 110.531201 203.334507 
L 111.130425 202.742745 
L 111.72965 202.166703 
L 112.328885 201.607915 
L 112.92811 201.065866 
L 113.527334 200.539184 
L 114.12657 200.031808 
L 114.725794 199.542222 
L 115.325019 199.071958 
L 115.924254 198.623944 
L 116.523479 198.19429 
L 117.122703 197.785302 
L 117.721939 197.399267 
L 118.321163 197.034581 
L 118.920387 196.689956 
L 119.519623 196.369955 
L 120.118847 196.07363 
L 120.718072 195.798584 
L 121.317307 195.54722 
L 121.916532 195.319621 
L 122.515756 195.115016 
L 123.114992 194.932684 
L 123.714216 194.773559 
L 124.313441 194.638665 
L 124.912676 194.526328 
L 125.511901 194.43553 
L 126.111125 194.368042 
L 126.710361 194.323781 
L 127.309585 194.30068 
L 127.90881 194.3 
L 128.508045 194.320579 
L 129.10727 194.361795 
L 129.706505 194.425097 
L 130.30573 194.509028 
L 130.904954 194.61234 
L 131.504189 194.73672 
L 132.103414 194.878233 
L 132.702638 195.038043 
L 133.301874 195.217661 
L 133.901098 195.415754 
L 134.500323 195.629712 
L 135.099558 195.860086 
L 135.698783 196.106484 
L 136.298007 196.371131 
L 136.897243 196.647544 
L 137.496467 196.941665 
L 138.095692 197.248868 
L 138.694927 197.56964 
L 139.294152 197.904388 
L 139.893376 198.252543 
L 140.492612 198.612942 
L 141.091836 198.985469 
L 141.691061 199.367184 
L 142.290296 199.761986 
L 142.889521 200.166587 
L 143.488745 200.581538 
L 144.08797 201.005956 
L 144.687216 201.438251 
L 145.28644 201.878732 
L 145.885665 202.331013 
L 146.484889 202.788278 
L 147.084114 203.253024 
L 147.683338 203.726063 
L 148.282585 204.203197 
L 148.881809 204.690197 
L 149.481034 205.181968 
L 150.080258 205.675868 
L 150.679483 206.176046 
L 151.278707 206.679954 
L 151.877954 207.188536 
L 152.477178 207.698752 
L 153.076403 208.214401 
L 153.675627 208.729033 
L 154.274852 209.246212 
L 154.874076 209.766486 
L 155.473323 210.288283 
L 156.072547 210.80841 
L 156.671772 211.328032 
L 157.270996 211.850654 
L 157.870221 212.371641 
L 158.469467 212.888407 
L 159.068691 213.405958 
L 159.667916 213.920063 
L 160.26714 214.434806 
L 160.866365 214.944165 
L 161.465589 215.451503 
L 162.064836 215.954595 
L 162.66406 216.453724 
L 163.263285 216.949587 
L 163.862509 217.4409 
L 164.461734 217.929968 
L 165.060958 218.411451 
L 165.660205 218.889921 
L 166.259429 219.361778 
L 166.858654 219.828466 
L 167.457878 220.288229 
L 168.057103 220.743731 
L 168.656327 221.194724 
L 169.255574 221.636759 
L 169.854798 222.073939 
L 170.454023 222.502721 
L 171.053247 222.928111 
L 171.652472 223.345361 
L 172.251696 223.753972 
L 172.850942 224.157079 
L 173.450167 224.552578 
L 174.049391 224.942916 
L 174.648616 225.3282 
L 175.24784 225.706441 
L 175.847087 226.077933 
L 176.446311 226.442195 
L 177.045536 226.800246 
L 177.64476 227.152971 
L 178.243985 227.49704 
L 178.843209 227.834581 
L 179.442456 228.164751 
L 180.04168 228.488942 
L 180.640905 228.809055 
L 181.240129 229.121094 
L 181.839354 229.427704 
L 182.438578 229.727181 
L 183.037825 230.019332 
L 183.637049 230.30634 
L 184.236274 230.587351 
L 184.835498 230.860167 
L 185.434723 231.126526 
L 186.033947 231.388963 
L 186.633193 231.642487 
L 187.232418 231.889005 
L 187.831642 232.130928 
L 188.430867 232.365211 
L 189.030091 232.593529 
L 189.629316 232.815576 
L 190.228562 233.032563 
L 190.827787 233.243045 
L 191.427011 233.446182 
L 192.026236 233.643745 
L 192.62546 233.835365 
L 193.224685 234.021719 
L 193.823931 234.201169 
L 194.423156 234.375077 
L 195.02238 234.543317 
L 195.621605 234.705922 
L 196.220829 234.863702 
L 196.820076 235.016249 
L 197.4193 235.163484 
L 198.018525 235.306384 
L 198.617749 235.443006 
L 199.216973 235.577673 
L 199.816198 235.707753 
L 200.415444 235.83291 
L 201.014669 235.953834 
L 201.613893 236.072368 
L 202.213118 236.187655 
L 202.812342 236.299047 
L 203.411567 236.406714 
L 204.010813 236.51246 
L 204.610038 236.615841 
L 205.209262 236.716361 
L 205.808487 236.814402 
L 206.407711 236.909524 
L 207.006936 237.002644 
L 207.606182 237.093718 
L 208.205407 237.182197 
L 208.804631 237.269335 
L 209.403856 237.354319 
L 210.00308 237.437472 
L 210.602305 237.518477 
L 211.201551 237.597503 
L 211.800776 237.67539 
L 212.4 237.752736 
L 212.999224 237.825831 
L 213.598449 237.898468 
L 214.197695 237.968795 
L 214.79692 238.03747 
L 215.396144 238.104126 
L 215.995369 238.168582 
L 216.594593 238.231255 
L 217.193818 238.293678 
L 217.793064 238.353616 
L 218.392289 238.412061 
L 218.991513 238.468445 
L 219.590738 238.523506 
L 220.189962 238.576077 
L 220.789187 238.627507 
L 221.388433 238.677095 
L 221.987658 238.724546 
L 222.586882 238.770413 
L 223.186107 238.815303 
L 223.785331 238.858731 
L 224.384556 238.900296 
L 224.983802 238.941307 
L 225.583027 238.980562 
L 226.182251 239.018414 
L 226.781475 239.054955 
L 227.3807 239.090259 
L 227.979924 239.123937 
L 228.579171 239.157341 
L 229.178395 239.190324 
L 229.77762 239.221422 
L 230.376844 239.252057 
L 230.976069 239.282113 
L 231.575315 239.310397 
L 232.17454 239.33833 
L 232.773764 239.365687 
L 233.372989 239.392926 
L 233.972213 239.419677 
L 234.571438 239.445518 
L 235.170684 239.471069 
L 235.769909 239.495785 
L 236.369133 239.520533 
L 236.968358 239.544814 
L 237.567582 239.568758 
L 238.166807 239.591918 
L 238.766053 239.614469 
L 239.365277 239.637106 
L 239.964502 239.658983 
L 240.563726 239.680372 
L 241.162951 239.701613 
L 241.762175 239.722216 
L 242.361422 239.74254 
L 242.960646 239.76233 
L 243.559871 239.781592 
L 244.159095 239.800439 
L 244.75832 239.819296 
L 245.357544 239.837528 
L 245.956791 239.855018 
L 246.556015 239.872014 
L 247.15524 239.888415 
L 247.754464 239.903897 
L 248.353689 239.919402 
L 248.952913 239.934183 
L 249.55216 239.948713 
L 250.151384 239.962289 
L 250.750609 239.975532 
L 251.349833 239.988199 
L 251.949058 240.000748 
L 252.548304 240.012907 
L 253.147528 240.024448 
L 253.746753 240.035402 
L 254.345977 240.046129 
L 254.945202 240.056165 
L 255.544426 240.066114 
L 256.143673 240.075054 
L 256.742897 240.083866 
L 257.342122 240.092302 
L 257.941346 240.10027 
L 258.540571 240.108354 
L 259.139795 240.115728 
L 259.739042 240.122686 
L 260.338266 240.129262 
L 260.937491 240.135706 
L 261.536715 240.142013 
L 262.13594 240.148069 
L 262.735164 240.153999 
L 263.334411 240.159801 
L 263.933635 240.164922 
L 264.53286 240.17 
L 265.132084 240.175025 
L 265.731309 240.180079 
L 266.330533 240.184587 
L 266.929779 240.188853 
L 267.529004 240.193342 
L 268.128228 240.197784 
L 268.727453 240.201618 
L 269.326677 240.205587 
L 269.925924 240.209324 
L 270.525148 240.212962 
L 271.124373 240.2165 
L 271.723597 240.219941 
L 272.322822 240.223396 
L 272.922046 240.226626 
L 273.521293 240.229873 
L 274.120517 240.233119 
L 274.719742 240.236018 
L 275.318966 240.238717 
L 275.918191 240.241455 
L 276.517415 240.243989 
L 277.116662 240.246445 
L 277.715886 240.248931 
L 278.315111 240.251318 
L 278.914335 240.253493 
L 279.51356 240.255586 
L 280.112784 240.257594 
L 280.71203 240.259625 
L 281.311255 240.261442 
L 281.910479 240.263173 
L 282.509704 240.264928 
L 283.108928 240.26647 
L 283.708153 240.267929 
L 284.307399 240.269415 
L 284.906624 240.270803 
L 285.505848 240.272096 
L 286.105073 240.273188 
L 286.704297 240.274081 
L 287.303544 240.275124 
L 287.902768 240.275972 
L 288.501993 240.276755 
L 289.101217 240.277587 
L 289.700442 240.278233 
L 290.299666 240.278825 
L 290.898913 240.279367 
L 291.498137 240.27986 
L 292.097362 240.280418 
L 292.696586 240.280918 
L 293.295811 240.281255 
L 293.895035 240.28156 
L 294.494281 240.281837 
L 295.093506 240.282199 
L 295.69273 240.282411 
L 296.291955 240.282604 
L 296.891179 240.282781 
L 297.490404 240.282944 
L 298.08965 240.283094 
L 298.688875 240.283233 
L 299.288099 240.283362 
L 299.887324 240.283483 
L 300.486548 240.283707 
L 301.085773 240.283797 
L 301.685019 240.283995 
L 302.284244 240.284172 
L 302.883468 240.284221 
L 303.482693 240.284271 
L 304.081917 240.284322 
L 304.681142 240.284374 
L 305.280388 240.284425 
L 305.879613 240.284475 
L 306.478837 240.284524 
L 307.078061 240.284572 
L 307.677286 240.284618 
L 308.276532 240.284663 
L 308.875757 240.284706 
L 309.474981 240.284748 
L 310.074206 240.28479 
L 310.67343 240.284831 
L 311.272655 240.284873 
L 311.871901 240.284917 
L 312.471126 240.284963 
L 313.07035 240.285124 
L 313.669575 240.285162 
L 314.268799 240.28521 
L 314.868024 240.285268 
L 315.46727 240.285337 
L 316.066495 240.285419 
L 316.665719 240.285515 
L 317.264944 240.285625 
L 317.864168 240.285752 
L 318.463393 240.285896 
L 319.062639 240.286058 
L 319.661864 240.286239 
L 320.261088 240.286439 
L 320.860312 240.286659 
L 321.459537 240.286898 
L 322.058761 240.287157 
L 322.658008 240.287435 
L 323.257232 240.287732 
L 323.856457 240.288047 
L 324.455681 240.288379 
L 325.054906 240.288727 
L 325.654152 240.289089 
L 326.253377 240.289465 
L 326.852579 240.289852 
L 327.451826 240.290248 
L 328.051072 240.290652 
L 328.650275 240.291062 
L 329.249521 240.291345 
L 329.848724 240.291738 
L 330.44797 240.292128 
L 331.047217 240.292511 
L 331.646419 240.292886 
L 332.245666 240.293251 
L 332.844868 240.293714 
L 333.444115 240.294035 
L 334.043317 240.294341 
L 334.642563 240.294631 
L 335.24181 240.294903 
L 335.841012 240.295154 
L 336.440259 240.295384 
L 337.039461 240.29559 
L 337.638708 240.295771 
L 338.237954 240.295926 
L 338.837157 240.296054 
L 339.436403 240.296155 
L 340.035606 240.296227 
L 340.634852 240.296271 
L 341.234055 240.296285 
L 341.833301 240.296271 
L 342.432548 240.296227 
L 343.03175 240.296155 
L 343.630997 240.296054 
L 344.230199 240.295926 
L 344.829446 240.295771 
L 345.428692 240.29559 
L 346.027895 240.295384 
L 346.627141 240.295154 
L 347.226344 240.294903 
L 347.82559 240.294631 
L 348.424836 240.294341 
L 349.024039 240.294035 
L 349.623285 240.293714 
L 350.222488 240.293381 
L 350.821734 240.293039 
L 351.420937 240.29269 
L 352.020183 240.292336 
L 352.61943 240.291981 
L 353.218632 240.291628 
L 353.817879 240.291388 
L 354.417081 240.291029 
L 355.016328 240.290681 
L 355.615574 240.290349 
L 356.214777 240.290034 
L 356.814023 240.289738 
L 357.413226 240.289465 
L 358.012472 240.289216 
L 358.611675 240.288993 
L 359.210921 240.288798 
L 359.810168 240.288633 
L 360.40937 240.2885 
L 361.008616 240.288398 
L 361.607819 240.28833 
L 362.207065 240.288296 
L 362.80629 240.288296 
L 363.405514 240.28833 
L 364.004739 240.288398 
L 364.603963 240.2885 
L 365.203188 240.288633 
L 365.802412 240.288798 
L 366.401637 240.288993 
L 367.000861 240.289216 
L 367.600086 240.289465 
L 368.19931 240.289738 
L 368.798535 240.290034 
L 369.397759 240.290349 
L 369.996984 240.290681 
L 370.596208 240.291029 
L 371.195433 240.291388 
L 371.794657 240.291758 
L 372.393882 240.292134 
L 372.993106 240.292515 
L 373.592331 240.292899 
L 374.191555 240.293282 
L 374.79078 240.293664 
L 375.390004 240.294041 
L 375.989228 240.294412 
L 376.588453 240.294775 
L 377.187677 240.295129 
L 377.786902 240.295472 
L 378.386126 240.295803 
L 378.985351 240.296121 
L 379.584575 240.296426 
L 380.1838 240.296717 
L 380.783024 240.296992 
L 381.382249 240.297253 
L 381.981473 240.297498 
L 382.580698 240.297728 
L 383.179922 240.297943 
L 383.779147 240.298143 
L 384.378371 240.298328 
L 384.977596 240.298499 
L 385.57682 240.298657 
L 386.176045 240.298802 
L 386.775269 240.298934 
L 387.374494 240.299054 
L 387.973718 240.299163 
L 388.572943 240.299262 
L 389.172167 240.299351 
L 389.771392 240.299431 
L 390.370616 240.299503 
L 390.969841 240.299567 
L 391.569065 240.299623 
L 392.168289 240.299674 
L 392.767514 240.299718 
L 393.366738 240.299757 
L 393.965963 240.299791 
L 394.565187 240.299821 
L 395.164412 240.299847 
L 395.763636 240.29987 
z
" style="fill:#1f77b4;opacity:0.4;"/>
   </g>
   <g id="patch_12">
    <path clip-path="url(#pd86ef97352)" d="M 90.157437 240.3 
L 90.157437 226.470845 
L 90.756661 225.859805 
L 91.355896 225.239984 
L 91.955121 224.606643 
L 92.554345 223.964028 
L 93.153581 223.30809 
L 93.752805 222.645572 
L 94.35203 221.972616 
L 94.951265 221.291483 
L 95.55049 220.604093 
L 96.149714 219.908953 
L 96.74895 219.207712 
L 97.348174 218.499831 
L 97.947399 217.78992 
L 98.546634 217.074443 
L 99.145859 216.356764 
L 99.745083 215.636675 
L 100.344319 214.917044 
L 100.943543 214.195376 
L 101.542768 213.472995 
L 102.142003 212.754181 
L 102.741228 212.036161 
L 103.340452 211.323086 
L 103.939688 210.611221 
L 104.538912 209.905995 
L 105.138136 209.208325 
L 105.737372 208.517175 
L 106.336596 207.835195 
L 106.935821 207.160542 
L 107.535056 206.49432 
L 108.134281 205.838234 
L 108.733505 205.193518 
L 109.332741 204.561551 
L 109.931965 203.942118 
L 110.531201 203.334507 
L 111.130425 202.742745 
L 111.72965 202.166703 
L 112.328885 201.607915 
L 112.92811 201.065866 
L 113.527334 200.539184 
L 114.12657 200.031808 
L 114.725794 199.542222 
L 115.325019 199.071958 
L 115.924254 198.623944 
L 116.523479 198.19429 
L 117.122703 197.785302 
L 117.721939 197.399267 
L 118.321163 197.034581 
L 118.920387 196.689956 
L 119.519623 196.369955 
L 120.118847 196.07363 
L 120.718072 195.798584 
L 121.317307 195.54722 
L 121.916532 195.319621 
L 122.515756 195.115016 
L 123.114992 194.932684 
L 123.714216 194.773559 
L 124.313441 194.638665 
L 124.912676 194.526328 
L 125.511901 194.43553 
L 126.111125 194.368042 
L 126.710361 194.323781 
L 127.309585 194.30068 
L 127.90881 194.3 
L 128.508045 194.320579 
L 129.10727 194.361795 
L 129.706505 194.425097 
L 130.30573 194.509028 
L 130.904954 194.61234 
L 131.504189 194.73672 
L 132.103414 194.878233 
L 132.702638 195.038043 
L 133.301874 195.217661 
L 133.901098 195.415754 
L 134.500323 195.629712 
L 135.099558 195.860086 
L 135.698783 196.106484 
L 136.298007 196.371131 
L 136.897243 196.647544 
L 137.496467 196.941665 
L 138.095692 197.248868 
L 138.694927 197.56964 
L 139.294152 197.904388 
L 139.893376 198.252543 
L 140.492612 198.612942 
L 141.091836 198.985469 
L 141.691061 199.367184 
L 142.290296 199.761986 
L 142.889521 200.166587 
L 143.488745 200.581538 
L 144.08797 201.005956 
L 144.687216 201.438251 
L 145.28644 201.878732 
L 145.885665 202.331013 
L 146.484889 202.788278 
L 147.084114 203.253024 
L 147.683338 203.726063 
L 148.282585 204.203197 
L 148.881809 204.690197 
L 149.481034 205.181968 
L 150.080258 205.675868 
L 150.679483 206.176046 
L 151.278707 206.679954 
L 151.877954 207.188536 
L 152.477178 207.698752 
L 153.076403 208.214401 
L 153.675627 208.729033 
L 154.274852 209.246212 
L 154.874076 209.766486 
L 155.473323 210.288283 
L 156.072547 210.80841 
L 156.671772 211.328032 
L 157.270996 211.850654 
L 157.870221 212.371641 
L 158.469467 212.888407 
L 159.068691 213.405958 
L 159.667916 213.920063 
L 160.26714 214.434806 
L 160.866365 214.944165 
L 161.465589 215.451503 
L 162.064836 215.954595 
L 162.66406 216.453724 
L 163.263285 216.949587 
L 163.862509 217.4409 
L 164.461734 217.929968 
L 165.060958 218.411451 
L 165.660205 218.889921 
L 166.259429 219.361778 
L 166.858654 219.828466 
L 167.457878 220.288229 
L 168.057103 220.743731 
L 168.656327 221.194724 
L 169.255574 221.636759 
L 169.854798 222.073939 
L 170.454023 222.502721 
L 171.053247 222.928111 
L 171.652472 223.345361 
L 172.251696 223.753972 
L 172.850942 224.157079 
L 173.450167 224.552578 
L 174.049391 224.942916 
L 174.648616 225.3282 
L 175.24784 225.706441 
L 175.847087 226.077933 
L 176.446311 226.442195 
L 177.045536 226.800246 
L 177.64476 227.152971 
L 178.243985 227.49704 
L 178.843209 227.834581 
L 179.442456 228.164751 
L 180.04168 228.488942 
L 180.640905 228.809055 
L 181.240129 229.121094 
L 181.839354 229.427704 
L 182.438578 229.727181 
L 183.037825 230.019332 
L 183.637049 230.30634 
L 184.236274 230.587351 
L 184.835498 230.860167 
L 185.434723 231.126526 
L 186.033947 231.388963 
L 186.633193 231.642487 
L 187.232418 231.889005 
L 187.831642 232.130928 
L 188.430867 232.365211 
L 189.030091 232.593529 
L 189.629316 232.815576 
L 190.228562 233.032563 
L 190.827787 233.243045 
L 191.427011 233.446182 
L 192.026236 233.643745 
L 192.62546 233.835365 
L 193.224685 234.021719 
L 193.823931 234.201169 
L 194.423156 234.375077 
L 195.02238 234.543317 
L 195.621605 234.705922 
L 196.220829 234.863702 
L 196.820076 235.016249 
L 197.4193 235.163484 
L 198.018525 235.306384 
L 198.617749 235.443006 
L 199.216973 235.577673 
L 199.816198 235.707753 
L 199.816198 240.3 
z
" style="fill:#1f77b4;opacity:0.4;"/>
   </g>
   <g id="matplotlib.axis_3">
    <g id="xtick_10">
     <g id="line2d_10">
      <g>
       <use style="stroke:#000000;stroke-width:0.8;" x="49.490804" xlink:href="#m90d5c38588" y="242.6"/>
      </g>
     </g>
     <g id="text_12">
      <!-- 0.50 -->
      <defs>
       <path d="M 10.796875 72.90625 
L 49.515625 72.90625 
L 49.515625 64.59375 
L 19.828125 64.59375 
L 19.828125 46.734375 
Q 21.96875 47.46875 24.109375 47.828125 
Q 26.265625 48.1875 28.421875 48.1875 
Q 40.625 48.1875 47.75 41.5 
Q 54.890625 34.8125 54.890625 23.390625 
Q 54.890625 11.625 47.5625 5.09375 
Q 40.234375 -1.421875 26.90625 -1.421875 
Q 22.3125 -1.421875 17.546875 -0.640625 
Q 12.796875 0.140625 7.71875 1.703125 
L 7.71875 11.625 
Q 12.109375 9.234375 16.796875 8.0625 
Q 21.484375 6.890625 26.703125 6.890625 
Q 35.15625 6.890625 40.078125 11.328125 
Q 45.015625 15.765625 45.015625 23.390625 
Q 45.015625 31 40.078125 35.4375 
Q 35.15625 39.890625 26.703125 39.890625 
Q 22.75 39.890625 18.8125 39.015625 
Q 14.890625 38.140625 10.796875 36.28125 
z
" id="DejaVuSans-53"/>
      </defs>
      <g transform="translate(38.357992 257.198437)scale(0.1 -0.1)">
       <use xlink:href="#DejaVuSans-48"/>
       <use x="63.623047" xlink:href="#DejaVuSans-46"/>
       <use x="95.410156" xlink:href="#DejaVuSans-53"/>
       <use x="159.033203" xlink:href="#DejaVuSans-48"/>
      </g>
     </g>
    </g>
    <g id="xtick_11">
     <g id="line2d_11">
      <g>
       <use style="stroke:#000000;stroke-width:0.8;" x="95.591718" xlink:href="#m90d5c38588" y="242.6"/>
      </g>
     </g>
     <g id="text_13">
      <!-- 0.75 -->
      <defs>
       <path d="M 8.203125 72.90625 
L 55.078125 72.90625 
L 55.078125 68.703125 
L 28.609375 0 
L 18.3125 0 
L 43.21875 64.59375 
L 8.203125 64.59375 
z
" id="DejaVuSans-55"/>
      </defs>
      <g transform="translate(84.458906 257.198437)scale(0.1 -0.1)">
       <use xlink:href="#DejaVuSans-48"/>
       <use x="63.623047" xlink:href="#DejaVuSans-46"/>
       <use x="95.410156" xlink:href="#DejaVuSans-55"/>
       <use x="159.033203" xlink:href="#DejaVuSans-53"/>
      </g>
     </g>
    </g>
    <g id="xtick_12">
     <g id="line2d_12">
      <g>
       <use style="stroke:#000000;stroke-width:0.8;" x="141.692632" xlink:href="#m90d5c38588" y="242.6"/>
      </g>
     </g>
     <g id="text_14">
      <!-- 1.00 -->
      <g transform="translate(130.55982 257.198437)scale(0.1 -0.1)">
       <use xlink:href="#DejaVuSans-49"/>
       <use x="63.623047" xlink:href="#DejaVuSans-46"/>
       <use x="95.410156" xlink:href="#DejaVuSans-48"/>
       <use x="159.033203" xlink:href="#DejaVuSans-48"/>
      </g>
     </g>
    </g>
    <g id="xtick_13">
     <g id="line2d_13">
      <g>
       <use style="stroke:#000000;stroke-width:0.8;" x="187.793547" xlink:href="#m90d5c38588" y="242.6"/>
      </g>
     </g>
     <g id="text_15">
      <!-- 1.25 -->
      <g transform="translate(176.660734 257.198437)scale(0.1 -0.1)">
       <use xlink:href="#DejaVuSans-49"/>
       <use x="63.623047" xlink:href="#DejaVuSans-46"/>
       <use x="95.410156" xlink:href="#DejaVuSans-50"/>
       <use x="159.033203" xlink:href="#DejaVuSans-53"/>
      </g>
     </g>
    </g>
    <g id="xtick_14">
     <g id="line2d_14">
      <g>
       <use style="stroke:#000000;stroke-width:0.8;" x="233.894461" xlink:href="#m90d5c38588" y="242.6"/>
      </g>
     </g>
     <g id="text_16">
      <!-- 1.50 -->
      <g transform="translate(222.761648 257.198437)scale(0.1 -0.1)">
       <use xlink:href="#DejaVuSans-49"/>
       <use x="63.623047" xlink:href="#DejaVuSans-46"/>
       <use x="95.410156" xlink:href="#DejaVuSans-53"/>
       <use x="159.033203" xlink:href="#DejaVuSans-48"/>
      </g>
     </g>
    </g>
    <g id="xtick_15">
     <g id="line2d_15">
      <g>
       <use style="stroke:#000000;stroke-width:0.8;" x="279.995375" xlink:href="#m90d5c38588" y="242.6"/>
      </g>
     </g>
     <g id="text_17">
      <!-- 1.75 -->
      <g transform="translate(268.862562 257.198437)scale(0.1 -0.1)">
       <use xlink:href="#DejaVuSans-49"/>
       <use x="63.623047" xlink:href="#DejaVuSans-46"/>
       <use x="95.410156" xlink:href="#DejaVuSans-55"/>
       <use x="159.033203" xlink:href="#DejaVuSans-53"/>
      </g>
     </g>
    </g>
    <g id="xtick_16">
     <g id="line2d_16">
      <g>
       <use style="stroke:#000000;stroke-width:0.8;" x="326.096289" xlink:href="#m90d5c38588" y="242.6"/>
      </g>
     </g>
     <g id="text_18">
      <!-- 2.00 -->
      <g transform="translate(314.963476 257.198437)scale(0.1 -0.1)">
       <use xlink:href="#DejaVuSans-50"/>
       <use x="63.623047" xlink:href="#DejaVuSans-46"/>
       <use x="95.410156" xlink:href="#DejaVuSans-48"/>
       <use x="159.033203" xlink:href="#DejaVuSans-48"/>
      </g>
     </g>
    </g>
    <g id="xtick_17">
     <g id="line2d_17">
      <g>
       <use style="stroke:#000000;stroke-width:0.8;" x="372.197203" xlink:href="#m90d5c38588" y="242.6"/>
      </g>
     </g>
     <g id="text_19">
      <!-- 2.25 -->
      <g transform="translate(361.064391 257.198437)scale(0.1 -0.1)">
       <use xlink:href="#DejaVuSans-50"/>
       <use x="63.623047" xlink:href="#DejaVuSans-46"/>
       <use x="95.410156" xlink:href="#DejaVuSans-50"/>
       <use x="159.033203" xlink:href="#DejaVuSans-53"/>
      </g>
     </g>
    </g>
    <g id="text_20">
     <!-- Std -->
     <defs>
      <path d="M 53.515625 70.515625 
L 53.515625 60.890625 
Q 47.90625 63.578125 42.921875 64.890625 
Q 37.9375 66.21875 33.296875 66.21875 
Q 25.25 66.21875 20.875 63.09375 
Q 16.5 59.96875 16.5 54.203125 
Q 16.5 49.359375 19.40625 46.890625 
Q 22.3125 44.4375 30.421875 42.921875 
L 36.375 41.703125 
Q 47.40625 39.59375 52.65625 34.296875 
Q 57.90625 29 57.90625 20.125 
Q 57.90625 9.515625 50.796875 4.046875 
Q 43.703125 -1.421875 29.984375 -1.421875 
Q 24.8125 -1.421875 18.96875 -0.25 
Q 13.140625 0.921875 6.890625 3.21875 
L 6.890625 13.375 
Q 12.890625 10.015625 18.65625 8.296875 
Q 24.421875 6.59375 29.984375 6.59375 
Q 38.421875 6.59375 43.015625 9.90625 
Q 47.609375 13.234375 47.609375 19.390625 
Q 47.609375 24.75 44.3125 27.78125 
Q 41.015625 30.8125 33.5 32.328125 
L 27.484375 33.5 
Q 16.453125 35.6875 11.515625 40.375 
Q 6.59375 45.0625 6.59375 53.421875 
Q 6.59375 63.09375 13.40625 68.65625 
Q 20.21875 74.21875 32.171875 74.21875 
Q 37.3125 74.21875 42.625 73.28125 
Q 47.953125 72.359375 53.515625 70.515625 
z
" id="DejaVuSans-83"/>
      <path d="M 45.40625 46.390625 
L 45.40625 75.984375 
L 54.390625 75.984375 
L 54.390625 0 
L 45.40625 0 
L 45.40625 8.203125 
Q 42.578125 3.328125 38.25 0.953125 
Q 33.9375 -1.421875 27.875 -1.421875 
Q 17.96875 -1.421875 11.734375 6.484375 
Q 5.515625 14.40625 5.515625 27.296875 
Q 5.515625 40.1875 11.734375 48.09375 
Q 17.96875 56 27.875 56 
Q 33.9375 56 38.25 53.625 
Q 42.578125 51.265625 45.40625 46.390625 
z
M 14.796875 27.296875 
Q 14.796875 17.390625 18.875 11.75 
Q 22.953125 6.109375 30.078125 6.109375 
Q 37.203125 6.109375 41.296875 11.75 
Q 45.40625 17.390625 45.40625 27.296875 
Q 45.40625 37.203125 41.296875 42.84375 
Q 37.203125 48.484375 30.078125 48.484375 
Q 22.953125 48.484375 18.875 42.84375 
Q 14.796875 37.203125 14.796875 27.296875 
z
" id="DejaVuSans-100"/>
     </defs>
     <g transform="translate(204.091406 270.876562)scale(0.1 -0.1)">
      <use xlink:href="#DejaVuSans-83"/>
      <use x="63.476562" xlink:href="#DejaVuSans-116"/>
      <use x="102.685547" xlink:href="#DejaVuSans-100"/>
     </g>
    </g>
   </g>
   <g id="patch_13">
    <path d="M 10.7 242.6 
L 414.1 242.6 
" style="fill:none;stroke:#000000;stroke-linecap:square;stroke-linejoin:miter;stroke-width:0.8;"/>
   </g>
  </g>
 </g>
 <defs>
  <clipPath id="p70dc3b2a4d">
   <rect height="50.6" width="403.4" x="10.7" y="7.2"/>
  </clipPath>
  <clipPath id="p8add885e2b">
   <rect height="50.6" width="403.4" x="10.7" y="99.6"/>
  </clipPath>
  <clipPath id="pd86ef97352">
   <rect height="50.6" width="403.4" x="10.7" y="192"/>
  </clipPath>
 </defs>
</svg>
