<?xml version="1.0" encoding="utf-8" standalone="no"?>
<!DOCTYPE svg PUBLIC "-//W3C//DTD SVG 1.1//EN"
  "http://www.w3.org/Graphics/SVG/1.1/DTD/svg11.dtd">
<!-- Created with matplotlib (https://matplotlib.org/) -->
<svg height="273.599688pt" version="1.1" viewBox="0 0 396.530156 273.599688" width="396.530156pt" xmlns="http://www.w3.org/2000/svg" xmlns:xlink="http://www.w3.org/1999/xlink">
 <defs>
  <style type="text/css">
*{stroke-linecap:butt;stroke-linejoin:round;}
  </style>
 </defs>
 <g id="figure_1">
  <g id="patch_1">
   <path d="M 0 273.599688 
L 396.530156 273.599688 
L 396.530156 0 
L 0 0 
z
" style="fill:#ffffff;"/>
  </g>
  <g id="axes_1">
   <g id="patch_2">
    <path d="M 48.530156 230.64 
L 383.330156 230.64 
L 383.330156 13.2 
L 48.530156 13.2 
z
" style="fill:#eaeaf2;"/>
   </g>
   <g id="matplotlib.axis_1">
    <g id="xtick_1">
     <g id="line2d_1">
      <path clip-path="url(#p5d0df29f24)" d="M 63.748338 230.64 
L 63.748338 13.2 
" style="fill:none;stroke:#ffffff;stroke-linecap:round;"/>
     </g>
     <g id="text_1">
      <!-- −3 -->
      <defs>
       <path d="M 10.59375 35.5 
L 73.1875 35.5 
L 73.1875 27.203125 
L 10.59375 27.203125 
z
" id="DejaVuSans-8722"/>
       <path d="M 40.578125 39.3125 
Q 47.65625 37.796875 51.625 33 
Q 55.609375 28.21875 55.609375 21.1875 
Q 55.609375 10.40625 48.1875 4.484375 
Q 40.765625 -1.421875 27.09375 -1.421875 
Q 22.515625 -1.421875 17.65625 -0.515625 
Q 12.796875 0.390625 7.625 2.203125 
L 7.625 11.71875 
Q 11.71875 9.328125 16.59375 8.109375 
Q 21.484375 6.890625 26.8125 6.890625 
Q 36.078125 6.890625 40.9375 10.546875 
Q 45.796875 14.203125 45.796875 21.1875 
Q 45.796875 27.640625 41.28125 31.265625 
Q 36.765625 34.90625 28.71875 34.90625 
L 20.21875 34.90625 
L 20.21875 43.015625 
L 29.109375 43.015625 
Q 36.375 43.015625 40.234375 45.921875 
Q 44.09375 48.828125 44.09375 54.296875 
Q 44.09375 59.90625 40.109375 62.90625 
Q 36.140625 65.921875 28.71875 65.921875 
Q 24.65625 65.921875 20.015625 65.03125 
Q 15.375 64.15625 9.8125 62.3125 
L 9.8125 71.09375 
Q 15.4375 72.65625 20.34375 73.4375 
Q 25.25 74.21875 29.59375 74.21875 
Q 40.828125 74.21875 47.359375 69.109375 
Q 53.90625 64.015625 53.90625 55.328125 
Q 53.90625 49.265625 50.4375 45.09375 
Q 46.96875 40.921875 40.578125 39.3125 
z
" id="DejaVuSans-51"/>
      </defs>
      <g style="fill:#262626;" transform="translate(55.640135 248.498281)scale(0.11 -0.11)">
       <use xlink:href="#DejaVuSans-8722"/>
       <use x="83.789062" xlink:href="#DejaVuSans-51"/>
      </g>
     </g>
    </g>
    <g id="xtick_2">
     <g id="line2d_2">
      <path clip-path="url(#p5d0df29f24)" d="M 112.454751 230.64 
L 112.454751 13.2 
" style="fill:none;stroke:#ffffff;stroke-linecap:round;"/>
     </g>
     <g id="text_2">
      <!-- −2 -->
      <defs>
       <path d="M 19.1875 8.296875 
L 53.609375 8.296875 
L 53.609375 0 
L 7.328125 0 
L 7.328125 8.296875 
Q 12.9375 14.109375 22.625 23.890625 
Q 32.328125 33.6875 34.8125 36.53125 
Q 39.546875 41.84375 41.421875 45.53125 
Q 43.3125 49.21875 43.3125 52.78125 
Q 43.3125 58.59375 39.234375 62.25 
Q 35.15625 65.921875 28.609375 65.921875 
Q 23.96875 65.921875 18.8125 64.3125 
Q 13.671875 62.703125 7.8125 59.421875 
L 7.8125 69.390625 
Q 13.765625 71.78125 18.9375 73 
Q 24.125 74.21875 28.421875 74.21875 
Q 39.75 74.21875 46.484375 68.546875 
Q 53.21875 62.890625 53.21875 53.421875 
Q 53.21875 48.921875 51.53125 44.890625 
Q 49.859375 40.875 45.40625 35.40625 
Q 44.1875 33.984375 37.640625 27.21875 
Q 31.109375 20.453125 19.1875 8.296875 
z
" id="DejaVuSans-50"/>
      </defs>
      <g style="fill:#262626;" transform="translate(104.346548 248.498281)scale(0.11 -0.11)">
       <use xlink:href="#DejaVuSans-8722"/>
       <use x="83.789062" xlink:href="#DejaVuSans-50"/>
      </g>
     </g>
    </g>
    <g id="xtick_3">
     <g id="line2d_3">
      <path clip-path="url(#p5d0df29f24)" d="M 161.161164 230.64 
L 161.161164 13.2 
" style="fill:none;stroke:#ffffff;stroke-linecap:round;"/>
     </g>
     <g id="text_3">
      <!-- −1 -->
      <defs>
       <path d="M 12.40625 8.296875 
L 28.515625 8.296875 
L 28.515625 63.921875 
L 10.984375 60.40625 
L 10.984375 69.390625 
L 28.421875 72.90625 
L 38.28125 72.90625 
L 38.28125 8.296875 
L 54.390625 8.296875 
L 54.390625 0 
L 12.40625 0 
z
" id="DejaVuSans-49"/>
      </defs>
      <g style="fill:#262626;" transform="translate(153.05296 248.498281)scale(0.11 -0.11)">
       <use xlink:href="#DejaVuSans-8722"/>
       <use x="83.789062" xlink:href="#DejaVuSans-49"/>
      </g>
     </g>
    </g>
    <g id="xtick_4">
     <g id="line2d_4">
      <path clip-path="url(#p5d0df29f24)" d="M 209.867576 230.64 
L 209.867576 13.2 
" style="fill:none;stroke:#ffffff;stroke-linecap:round;"/>
     </g>
     <g id="text_4">
      <!-- 0 -->
      <defs>
       <path d="M 31.78125 66.40625 
Q 24.171875 66.40625 20.328125 58.90625 
Q 16.5 51.421875 16.5 36.375 
Q 16.5 21.390625 20.328125 13.890625 
Q 24.171875 6.390625 31.78125 6.390625 
Q 39.453125 6.390625 43.28125 13.890625 
Q 47.125 21.390625 47.125 36.375 
Q 47.125 51.421875 43.28125 58.90625 
Q 39.453125 66.40625 31.78125 66.40625 
z
M 31.78125 74.21875 
Q 44.046875 74.21875 50.515625 64.515625 
Q 56.984375 54.828125 56.984375 36.375 
Q 56.984375 17.96875 50.515625 8.265625 
Q 44.046875 -1.421875 31.78125 -1.421875 
Q 19.53125 -1.421875 13.0625 8.265625 
Q 6.59375 17.96875 6.59375 36.375 
Q 6.59375 54.828125 13.0625 64.515625 
Q 19.53125 74.21875 31.78125 74.21875 
z
" id="DejaVuSans-48"/>
      </defs>
      <g style="fill:#262626;" transform="translate(206.368201 248.498281)scale(0.11 -0.11)">
       <use xlink:href="#DejaVuSans-48"/>
      </g>
     </g>
    </g>
    <g id="xtick_5">
     <g id="line2d_5">
      <path clip-path="url(#p5d0df29f24)" d="M 258.573989 230.64 
L 258.573989 13.2 
" style="fill:none;stroke:#ffffff;stroke-linecap:round;"/>
     </g>
     <g id="text_5">
      <!-- 1 -->
      <g style="fill:#262626;" transform="translate(255.074614 248.498281)scale(0.11 -0.11)">
       <use xlink:href="#DejaVuSans-49"/>
      </g>
     </g>
    </g>
    <g id="xtick_6">
     <g id="line2d_6">
      <path clip-path="url(#p5d0df29f24)" d="M 307.280402 230.64 
L 307.280402 13.2 
" style="fill:none;stroke:#ffffff;stroke-linecap:round;"/>
     </g>
     <g id="text_6">
      <!-- 2 -->
      <g style="fill:#262626;" transform="translate(303.781027 248.498281)scale(0.11 -0.11)">
       <use xlink:href="#DejaVuSans-50"/>
      </g>
     </g>
    </g>
    <g id="xtick_7">
     <g id="line2d_7">
      <path clip-path="url(#p5d0df29f24)" d="M 355.986815 230.64 
L 355.986815 13.2 
" style="fill:none;stroke:#ffffff;stroke-linecap:round;"/>
     </g>
     <g id="text_7">
      <!-- 3 -->
      <g style="fill:#262626;" transform="translate(352.48744 248.498281)scale(0.11 -0.11)">
       <use xlink:href="#DejaVuSans-51"/>
      </g>
     </g>
    </g>
    <g id="text_8">
     <!-- x -->
     <defs>
      <path d="M 54.890625 54.6875 
L 35.109375 28.078125 
L 55.90625 0 
L 45.3125 0 
L 29.390625 21.484375 
L 13.484375 0 
L 2.875 0 
L 24.125 28.609375 
L 4.6875 54.6875 
L 15.28125 54.6875 
L 29.78125 35.203125 
L 44.28125 54.6875 
z
" id="DejaVuSans-120"/>
     </defs>
     <g style="fill:#262626;" transform="translate(212.378906 263.904063)scale(0.12 -0.12)">
      <use xlink:href="#DejaVuSans-120"/>
     </g>
    </g>
   </g>
   <g id="matplotlib.axis_2">
    <g id="ytick_1">
     <g id="line2d_8">
      <path clip-path="url(#p5d0df29f24)" d="M 48.530156 214.645395 
L 383.330156 214.645395 
" style="fill:none;stroke:#ffffff;stroke-linecap:round;"/>
     </g>
     <g id="text_9">
      <!-- −8 -->
      <defs>
       <path d="M 31.78125 34.625 
Q 24.75 34.625 20.71875 30.859375 
Q 16.703125 27.09375 16.703125 20.515625 
Q 16.703125 13.921875 20.71875 10.15625 
Q 24.75 6.390625 31.78125 6.390625 
Q 38.8125 6.390625 42.859375 10.171875 
Q 46.921875 13.96875 46.921875 20.515625 
Q 46.921875 27.09375 42.890625 30.859375 
Q 38.875 34.625 31.78125 34.625 
z
M 21.921875 38.8125 
Q 15.578125 40.375 12.03125 44.71875 
Q 8.5 49.078125 8.5 55.328125 
Q 8.5 64.0625 14.71875 69.140625 
Q 20.953125 74.21875 31.78125 74.21875 
Q 42.671875 74.21875 48.875 69.140625 
Q 55.078125 64.0625 55.078125 55.328125 
Q 55.078125 49.078125 51.53125 44.71875 
Q 48 40.375 41.703125 38.8125 
Q 48.828125 37.15625 52.796875 32.3125 
Q 56.78125 27.484375 56.78125 20.515625 
Q 56.78125 9.90625 50.3125 4.234375 
Q 43.84375 -1.421875 31.78125 -1.421875 
Q 19.734375 -1.421875 13.25 4.234375 
Q 6.78125 9.90625 6.78125 20.515625 
Q 6.78125 27.484375 10.78125 32.3125 
Q 14.796875 37.15625 21.921875 38.8125 
z
M 18.3125 54.390625 
Q 18.3125 48.734375 21.84375 45.5625 
Q 25.390625 42.390625 31.78125 42.390625 
Q 38.140625 42.390625 41.71875 45.5625 
Q 45.3125 48.734375 45.3125 54.390625 
Q 45.3125 60.0625 41.71875 63.234375 
Q 38.140625 66.40625 31.78125 66.40625 
Q 25.390625 66.40625 21.84375 63.234375 
Q 18.3125 60.0625 18.3125 54.390625 
z
" id="DejaVuSans-56"/>
      </defs>
      <g style="fill:#262626;" transform="translate(22.81375 218.824535)scale(0.11 -0.11)">
       <use xlink:href="#DejaVuSans-8722"/>
       <use x="83.789062" xlink:href="#DejaVuSans-56"/>
      </g>
     </g>
    </g>
    <g id="ytick_2">
     <g id="line2d_9">
      <path clip-path="url(#p5d0df29f24)" d="M 48.530156 188.106957 
L 383.330156 188.106957 
" style="fill:none;stroke:#ffffff;stroke-linecap:round;"/>
     </g>
     <g id="text_10">
      <!-- −6 -->
      <defs>
       <path d="M 33.015625 40.375 
Q 26.375 40.375 22.484375 35.828125 
Q 18.609375 31.296875 18.609375 23.390625 
Q 18.609375 15.53125 22.484375 10.953125 
Q 26.375 6.390625 33.015625 6.390625 
Q 39.65625 6.390625 43.53125 10.953125 
Q 47.40625 15.53125 47.40625 23.390625 
Q 47.40625 31.296875 43.53125 35.828125 
Q 39.65625 40.375 33.015625 40.375 
z
M 52.59375 71.296875 
L 52.59375 62.3125 
Q 48.875 64.0625 45.09375 64.984375 
Q 41.3125 65.921875 37.59375 65.921875 
Q 27.828125 65.921875 22.671875 59.328125 
Q 17.53125 52.734375 16.796875 39.40625 
Q 19.671875 43.65625 24.015625 45.921875 
Q 28.375 48.1875 33.59375 48.1875 
Q 44.578125 48.1875 50.953125 41.515625 
Q 57.328125 34.859375 57.328125 23.390625 
Q 57.328125 12.15625 50.6875 5.359375 
Q 44.046875 -1.421875 33.015625 -1.421875 
Q 20.359375 -1.421875 13.671875 8.265625 
Q 6.984375 17.96875 6.984375 36.375 
Q 6.984375 53.65625 15.1875 63.9375 
Q 23.390625 74.21875 37.203125 74.21875 
Q 40.921875 74.21875 44.703125 73.484375 
Q 48.484375 72.75 52.59375 71.296875 
z
" id="DejaVuSans-54"/>
      </defs>
      <g style="fill:#262626;" transform="translate(22.81375 192.286098)scale(0.11 -0.11)">
       <use xlink:href="#DejaVuSans-8722"/>
       <use x="83.789062" xlink:href="#DejaVuSans-54"/>
      </g>
     </g>
    </g>
    <g id="ytick_3">
     <g id="line2d_10">
      <path clip-path="url(#p5d0df29f24)" d="M 48.530156 161.56852 
L 383.330156 161.56852 
" style="fill:none;stroke:#ffffff;stroke-linecap:round;"/>
     </g>
     <g id="text_11">
      <!-- −4 -->
      <defs>
       <path d="M 37.796875 64.3125 
L 12.890625 25.390625 
L 37.796875 25.390625 
z
M 35.203125 72.90625 
L 47.609375 72.90625 
L 47.609375 25.390625 
L 58.015625 25.390625 
L 58.015625 17.1875 
L 47.609375 17.1875 
L 47.609375 0 
L 37.796875 0 
L 37.796875 17.1875 
L 4.890625 17.1875 
L 4.890625 26.703125 
z
" id="DejaVuSans-52"/>
      </defs>
      <g style="fill:#262626;" transform="translate(22.81375 165.747661)scale(0.11 -0.11)">
       <use xlink:href="#DejaVuSans-8722"/>
       <use x="83.789062" xlink:href="#DejaVuSans-52"/>
      </g>
     </g>
    </g>
    <g id="ytick_4">
     <g id="line2d_11">
      <path clip-path="url(#p5d0df29f24)" d="M 48.530156 135.030083 
L 383.330156 135.030083 
" style="fill:none;stroke:#ffffff;stroke-linecap:round;"/>
     </g>
     <g id="text_12">
      <!-- −2 -->
      <g style="fill:#262626;" transform="translate(22.81375 139.209223)scale(0.11 -0.11)">
       <use xlink:href="#DejaVuSans-8722"/>
       <use x="83.789062" xlink:href="#DejaVuSans-50"/>
      </g>
     </g>
    </g>
    <g id="ytick_5">
     <g id="line2d_12">
      <path clip-path="url(#p5d0df29f24)" d="M 48.530156 108.491645 
L 383.330156 108.491645 
" style="fill:none;stroke:#ffffff;stroke-linecap:round;"/>
     </g>
     <g id="text_13">
      <!-- 0 -->
      <g style="fill:#262626;" transform="translate(32.031406 112.670786)scale(0.11 -0.11)">
       <use xlink:href="#DejaVuSans-48"/>
      </g>
     </g>
    </g>
    <g id="ytick_6">
     <g id="line2d_13">
      <path clip-path="url(#p5d0df29f24)" d="M 48.530156 81.953208 
L 383.330156 81.953208 
" style="fill:none;stroke:#ffffff;stroke-linecap:round;"/>
     </g>
     <g id="text_14">
      <!-- 2 -->
      <g style="fill:#262626;" transform="translate(32.031406 86.132348)scale(0.11 -0.11)">
       <use xlink:href="#DejaVuSans-50"/>
      </g>
     </g>
    </g>
    <g id="ytick_7">
     <g id="line2d_14">
      <path clip-path="url(#p5d0df29f24)" d="M 48.530156 55.41477 
L 383.330156 55.41477 
" style="fill:none;stroke:#ffffff;stroke-linecap:round;"/>
     </g>
     <g id="text_15">
      <!-- 4 -->
      <g style="fill:#262626;" transform="translate(32.031406 59.593911)scale(0.11 -0.11)">
       <use xlink:href="#DejaVuSans-52"/>
      </g>
     </g>
    </g>
    <g id="ytick_8">
     <g id="line2d_15">
      <path clip-path="url(#p5d0df29f24)" d="M 48.530156 28.876333 
L 383.330156 28.876333 
" style="fill:none;stroke:#ffffff;stroke-linecap:round;"/>
     </g>
     <g id="text_16">
      <!-- 6 -->
      <g style="fill:#262626;" transform="translate(32.031406 33.055473)scale(0.11 -0.11)">
       <use xlink:href="#DejaVuSans-54"/>
      </g>
     </g>
    </g>
    <g id="text_17">
     <!-- y -->
     <defs>
      <path d="M 32.171875 -5.078125 
Q 28.375 -14.84375 24.75 -17.8125 
Q 21.140625 -20.796875 15.09375 -20.796875 
L 7.90625 -20.796875 
L 7.90625 -13.28125 
L 13.1875 -13.28125 
Q 16.890625 -13.28125 18.9375 -11.515625 
Q 21 -9.765625 23.484375 -3.21875 
L 25.09375 0.875 
L 2.984375 54.6875 
L 12.5 54.6875 
L 29.59375 11.921875 
L 46.6875 54.6875 
L 56.203125 54.6875 
z
" id="DejaVuSans-121"/>
     </defs>
     <g style="fill:#262626;" transform="translate(16.318125 125.47125)rotate(-90)scale(0.12 -0.12)">
      <use xlink:href="#DejaVuSans-121"/>
     </g>
    </g>
   </g>
   <g id="PolyCollection_1">
    <defs>
     <path d="M 63.748338 -96.359041 
L 63.748338 -52.843324 
L 66.700239 -55.139113 
L 69.65214 -54.887208 
L 72.604053 -55.591807 
L 75.555954 -56.360076 
L 78.507855 -60.333954 
L 81.459756 -62.566377 
L 84.411668 -64.722062 
L 87.363569 -65.880644 
L 90.31547 -65.84909 
L 93.267371 -66.626359 
L 96.219284 -70.410016 
L 99.171185 -70.402437 
L 102.123086 -72.331116 
L 105.074987 -75.954923 
L 108.026899 -75.093644 
L 110.9788 -78.040141 
L 113.930701 -79.569839 
L 116.882608 -81.63411 
L 119.834509 -82.57032 
L 122.786416 -83.855311 
L 125.738317 -87.715706 
L 128.690224 -86.227436 
L 131.642125 -89.909324 
L 134.594031 -90.433848 
L 137.545932 -91.165655 
L 140.497839 -95.420006 
L 143.44974 -95.296756 
L 146.401647 -96.946958 
L 149.353548 -98.582197 
L 152.305455 -99.652409 
L 155.257356 -102.231065 
L 158.209263 -101.97888 
L 161.161164 -103.712185 
L 164.113067 -105.209799 
L 167.064971 -108.994294 
L 170.016875 -109.283731 
L 172.968779 -109.878337 
L 175.920683 -112.530352 
L 178.872587 -113.891433 
L 181.824491 -115.918479 
L 184.776395 -115.080067 
L 187.728297 -117.811584 
L 190.680201 -120.786276 
L 193.632105 -120.69527 
L 196.584009 -123.200172 
L 199.535913 -124.92616 
L 202.487817 -123.309503 
L 205.439721 -126.052684 
L 208.391624 -128.707566 
L 211.343528 -131.6397 
L 214.295432 -131.316264 
L 217.247336 -134.551175 
L 220.19924 -134.011639 
L 223.151144 -138.053088 
L 226.103048 -137.80029 
L 229.054952 -141.645181 
L 232.006856 -141.736341 
L 234.958758 -143.843321 
L 237.910662 -144.693727 
L 240.862566 -146.780244 
L 243.81447 -149.266998 
L 246.766374 -148.769374 
L 249.718277 -150.966067 
L 252.670181 -152.165059 
L 255.622085 -152.494744 
L 258.573989 -155.16989 
L 261.52589 -158.250978 
L 264.477797 -158.473338 
L 267.429698 -160.005434 
L 270.381605 -162.48535 
L 273.333506 -163.715 
L 276.285412 -165.358959 
L 279.237313 -166.548092 
L 282.18922 -169.73103 
L 285.141121 -169.161661 
L 288.093028 -170.755894 
L 291.044929 -173.36357 
L 293.996836 -174.226795 
L 296.948737 -174.512418 
L 299.900644 -178.177028 
L 302.852545 -180.207507 
L 305.804451 -179.486276 
L 308.756352 -180.457826 
L 311.708253 -183.793393 
L 314.660166 -184.782712 
L 317.612067 -186.582782 
L 320.563968 -186.906914 
L 323.515869 -189.686663 
L 326.467782 -191.380465 
L 329.419683 -192.79882 
L 332.371584 -195.561766 
L 335.323485 -196.941319 
L 338.275397 -197.002222 
L 341.227298 -199.580706 
L 344.179199 -200.274245 
L 347.1311 -203.802374 
L 350.083013 -202.988164 
L 353.034914 -203.85945 
L 355.986815 -206.338627 
L 355.986815 -250.516051 
L 355.986815 -250.516051 
L 353.034914 -249.403351 
L 350.083013 -247.118691 
L 347.1311 -244.200579 
L 344.179199 -244.551419 
L 341.227298 -241.687829 
L 338.275397 -242.137328 
L 335.323485 -239.170721 
L 332.371584 -237.392135 
L 329.419683 -235.385417 
L 326.467782 -231.394425 
L 323.515869 -232.702991 
L 320.563968 -231.42282 
L 317.612067 -230.825216 
L 314.660166 -228.371046 
L 311.708253 -226.1598 
L 308.756352 -224.466586 
L 305.804451 -223.20833 
L 302.852545 -222.857204 
L 299.900644 -220.083974 
L 296.948737 -219.492071 
L 293.996836 -216.584319 
L 291.044929 -215.337803 
L 288.093028 -212.185364 
L 285.141121 -212.813629 
L 282.18922 -211.677936 
L 279.237313 -207.286384 
L 276.285412 -207.848673 
L 273.333506 -206.0118 
L 270.381605 -203.468728 
L 267.429698 -203.393894 
L 264.477797 -202.790821 
L 261.52589 -198.149367 
L 258.573989 -200.446682 
L 255.622085 -197.22731 
L 252.670181 -196.38456 
L 249.718277 -194.984503 
L 246.766374 -192.686531 
L 243.81447 -189.792499 
L 240.862566 -189.329392 
L 237.910662 -187.869111 
L 234.958758 -185.663149 
L 232.006856 -184.709846 
L 229.054952 -184.001486 
L 226.103048 -180.398388 
L 223.151144 -180.02262 
L 220.19924 -178.879619 
L 217.247336 -175.697452 
L 214.295432 -174.536243 
L 211.343528 -174.243388 
L 208.391624 -172.43833 
L 205.439721 -169.32393 
L 202.487817 -168.343186 
L 199.535913 -167.320517 
L 196.584009 -165.576209 
L 193.632105 -165.108013 
L 190.680201 -160.835199 
L 187.728297 -159.312902 
L 184.776395 -159.149534 
L 181.824491 -155.831196 
L 178.872587 -156.001162 
L 175.920683 -154.991066 
L 172.968779 -152.830181 
L 170.016875 -151.873516 
L 167.064971 -148.698813 
L 164.113067 -147.278152 
L 161.161164 -144.985585 
L 158.209263 -146.120458 
L 155.257356 -143.731382 
L 152.305455 -141.218604 
L 149.353548 -142.845647 
L 146.401647 -139.878484 
L 143.44974 -137.279702 
L 140.497839 -135.497513 
L 137.545932 -133.826782 
L 134.594031 -132.753045 
L 131.642125 -130.535745 
L 128.690224 -131.492885 
L 125.738317 -128.605892 
L 122.786416 -126.51626 
L 119.834509 -125.214065 
L 116.882608 -124.503453 
L 113.930701 -123.473492 
L 110.9788 -121.519357 
L 108.026899 -118.140697 
L 105.074987 -119.011722 
L 102.123086 -115.774384 
L 99.171185 -112.506461 
L 96.219284 -113.581937 
L 93.267371 -111.646185 
L 90.31547 -109.74514 
L 87.363569 -108.826431 
L 84.411668 -105.637381 
L 81.459756 -105.040845 
L 78.507855 -104.654012 
L 75.555954 -101.736042 
L 72.604053 -102.018819 
L 69.65214 -98.981026 
L 66.700239 -95.511999 
L 63.748338 -96.359041 
z
" id="m1085f2a92f" style="stroke:#ffffff;stroke-opacity:0.2;"/>
    </defs>
    <g clip-path="url(#p5d0df29f24)">
     <use style="fill:#4c72b0;fill-opacity:0.2;stroke:#ffffff;stroke-opacity:0.2;" x="0" xlink:href="#m1085f2a92f" y="273.599688"/>
    </g>
   </g>
   <g id="line2d_16">
    <defs>
     <path d="M 0 1.5 
C 0.397805 1.5 0.77937 1.341951 1.06066 1.06066 
C 1.341951 0.77937 1.5 0.397805 1.5 0 
C 1.5 -0.397805 1.341951 -0.77937 1.06066 -1.06066 
C 0.77937 -1.341951 0.397805 -1.5 0 -1.5 
C -0.397805 -1.5 -0.77937 -1.341951 -1.06066 -1.06066 
C -1.341951 -0.77937 -1.5 -0.397805 -1.5 0 
C -1.5 0.397805 -1.341951 0.77937 -1.06066 1.06066 
C -0.77937 1.341951 -0.397805 1.5 0 1.5 
z
" id="mbe7a76446a" style="stroke:#4c72b0;"/>
    </defs>
    <g clip-path="url(#p5d0df29f24)">
     <use style="fill:#4c72b0;stroke:#4c72b0;" x="199.897001" xlink:href="#mbe7a76446a" y="147.968531"/>
     <use style="fill:#4c72b0;stroke:#4c72b0;" x="233.195189" xlink:href="#mbe7a76446a" y="116.514924"/>
     <use style="fill:#4c72b0;stroke:#4c72b0;" x="184.567579" xlink:href="#mbe7a76446a" y="135.979383"/>
     <use style="fill:#4c72b0;stroke:#4c72b0;" x="182.799948" xlink:href="#mbe7a76446a" y="148.836264"/>
     <use style="fill:#4c72b0;stroke:#4c72b0;" x="305.613698" xlink:href="#mbe7a76446a" y="75.995479"/>
     <use style="fill:#4c72b0;stroke:#4c72b0;" x="277.735374" xlink:href="#mbe7a76446a" y="85.263244"/>
     <use style="fill:#4c72b0;stroke:#4c72b0;" x="214.392786" xlink:href="#mbe7a76446a" y="104.760263"/>
     <use style="fill:#4c72b0;stroke:#4c72b0;" x="223.590421" xlink:href="#mbe7a76446a" y="101.267607"/>
     <use style="fill:#4c72b0;stroke:#4c72b0;" x="247.323908" xlink:href="#mbe7a76446a" y="109.174247"/>
     <use style="fill:#4c72b0;stroke:#4c72b0;" x="270.576939" xlink:href="#mbe7a76446a" y="67.69451"/>
     <use style="fill:#4c72b0;stroke:#4c72b0;" x="258.924159" xlink:href="#mbe7a76446a" y="102.047529"/>
     <use style="fill:#4c72b0;stroke:#4c72b0;" x="146.733295" xlink:href="#mbe7a76446a" y="150.096489"/>
     <use style="fill:#4c72b0;stroke:#4c72b0;" x="223.261432" xlink:href="#mbe7a76446a" y="102.123057"/>
     <use style="fill:#4c72b0;stroke:#4c72b0;" x="221.017101" xlink:href="#mbe7a76446a" y="136.50887"/>
     <use style="fill:#4c72b0;stroke:#4c72b0;" x="275.763302" xlink:href="#mbe7a76446a" y="99.424168"/>
     <use style="fill:#4c72b0;stroke:#4c72b0;" x="253.042371" xlink:href="#mbe7a76446a" y="103.581612"/>
     <use style="fill:#4c72b0;stroke:#4c72b0;" x="112.375008" xlink:href="#mbe7a76446a" y="171.955503"/>
     <use style="fill:#4c72b0;stroke:#4c72b0;" x="191.75646" xlink:href="#mbe7a76446a" y="134.195264"/>
     <use style="fill:#4c72b0;stroke:#4c72b0;" x="291.159812" xlink:href="#mbe7a76446a" y="68.588333"/>
     <use style="fill:#4c72b0;stroke:#4c72b0;" x="188.506418" xlink:href="#mbe7a76446a" y="155.280559"/>
     <use style="fill:#4c72b0;stroke:#4c72b0;" x="183.578706" xlink:href="#mbe7a76446a" y="165.977618"/>
     <use style="fill:#4c72b0;stroke:#4c72b0;" x="233.099805" xlink:href="#mbe7a76446a" y="124.58538"/>
     <use style="fill:#4c72b0;stroke:#4c72b0;" x="368.111974" xlink:href="#mbe7a76446a" y="30.846881"/>
     <use style="fill:#4c72b0;stroke:#4c72b0;" x="160.127249" xlink:href="#mbe7a76446a" y="139.546194"/>
     <use style="fill:#4c72b0;stroke:#4c72b0;" x="181.759725" xlink:href="#mbe7a76446a" y="140.719178"/>
     <use style="fill:#4c72b0;stroke:#4c72b0;" x="215.913079" xlink:href="#mbe7a76446a" y="120.313188"/>
     <use style="fill:#4c72b0;stroke:#4c72b0;" x="224.606797" xlink:href="#mbe7a76446a" y="112.301446"/>
     <use style="fill:#4c72b0;stroke:#4c72b0;" x="235.378635" xlink:href="#mbe7a76446a" y="115.909152"/>
     <use style="fill:#4c72b0;stroke:#4c72b0;" x="209.913374" xlink:href="#mbe7a76446a" y="127.27003"/>
     <use style="fill:#4c72b0;stroke:#4c72b0;" x="275.319733" xlink:href="#mbe7a76446a" y="86.32392"/>
     <use style="fill:#4c72b0;stroke:#4c72b0;" x="175.113407" xlink:href="#mbe7a76446a" y="156.940657"/>
     <use style="fill:#4c72b0;stroke:#4c72b0;" x="169.38507" xlink:href="#mbe7a76446a" y="167.714121"/>
     <use style="fill:#4c72b0;stroke:#4c72b0;" x="94.422096" xlink:href="#mbe7a76446a" y="162.971437"/>
     <use style="fill:#4c72b0;stroke:#4c72b0;" x="119.236592" xlink:href="#mbe7a76446a" y="158.019176"/>
     <use style="fill:#4c72b0;stroke:#4c72b0;" x="167.943171" xlink:href="#mbe7a76446a" y="138.527512"/>
     <use style="fill:#4c72b0;stroke:#4c72b0;" x="237.150245" xlink:href="#mbe7a76446a" y="99.529017"/>
     <use style="fill:#4c72b0;stroke:#4c72b0;" x="148.20845" xlink:href="#mbe7a76446a" y="138.017636"/>
     <use style="fill:#4c72b0;stroke:#4c72b0;" x="215.703926" xlink:href="#mbe7a76446a" y="124.426641"/>
     <use style="fill:#4c72b0;stroke:#4c72b0;" x="158.0677" xlink:href="#mbe7a76446a" y="153.983506"/>
     <use style="fill:#4c72b0;stroke:#4c72b0;" x="226.081099" xlink:href="#mbe7a76446a" y="106.308104"/>
     <use style="fill:#4c72b0;stroke:#4c72b0;" x="94.948747" xlink:href="#mbe7a76446a" y="195.309868"/>
     <use style="fill:#4c72b0;stroke:#4c72b0;" x="200.148555" xlink:href="#mbe7a76446a" y="109.533545"/>
     <use style="fill:#4c72b0;stroke:#4c72b0;" x="134.762506" xlink:href="#mbe7a76446a" y="155.942719"/>
     <use style="fill:#4c72b0;stroke:#4c72b0;" x="162.586513" xlink:href="#mbe7a76446a" y="156.193285"/>
     <use style="fill:#4c72b0;stroke:#4c72b0;" x="146.206824" xlink:href="#mbe7a76446a" y="153.966331"/>
     <use style="fill:#4c72b0;stroke:#4c72b0;" x="223.814645" xlink:href="#mbe7a76446a" y="119.359477"/>
     <use style="fill:#4c72b0;stroke:#4c72b0;" x="228.277826" xlink:href="#mbe7a76446a" y="115.342871"/>
     <use style="fill:#4c72b0;stroke:#4c72b0;" x="173.148468" xlink:href="#mbe7a76446a" y="141.995285"/>
     <use style="fill:#4c72b0;stroke:#4c72b0;" x="226.003312" xlink:href="#mbe7a76446a" y="103.941735"/>
     <use style="fill:#4c72b0;stroke:#4c72b0;" x="275.608676" xlink:href="#mbe7a76446a" y="77.508063"/>
     <use style="fill:#4c72b0;stroke:#4c72b0;" x="213.271019" xlink:href="#mbe7a76446a" y="129.953587"/>
     <use style="fill:#4c72b0;stroke:#4c72b0;" x="221.882187" xlink:href="#mbe7a76446a" y="105.68608"/>
     <use style="fill:#4c72b0;stroke:#4c72b0;" x="209.28984" xlink:href="#mbe7a76446a" y="126.113118"/>
     <use style="fill:#4c72b0;stroke:#4c72b0;" x="258.808347" xlink:href="#mbe7a76446a" y="117.357699"/>
     <use style="fill:#4c72b0;stroke:#4c72b0;" x="274.510463" xlink:href="#mbe7a76446a" y="80.873423"/>
     <use style="fill:#4c72b0;stroke:#4c72b0;" x="165.093643" xlink:href="#mbe7a76446a" y="166.906238"/>
     <use style="fill:#4c72b0;stroke:#4c72b0;" x="134.416157" xlink:href="#mbe7a76446a" y="167.748003"/>
     <use style="fill:#4c72b0;stroke:#4c72b0;" x="210.948109" xlink:href="#mbe7a76446a" y="107.293677"/>
     <use style="fill:#4c72b0;stroke:#4c72b0;" x="246.804724" xlink:href="#mbe7a76446a" y="85.44725"/>
     <use style="fill:#4c72b0;stroke:#4c72b0;" x="177.695807" xlink:href="#mbe7a76446a" y="142.576921"/>
     <use style="fill:#4c72b0;stroke:#4c72b0;" x="251.880757" xlink:href="#mbe7a76446a" y="104.392412"/>
     <use style="fill:#4c72b0;stroke:#4c72b0;" x="209.378958" xlink:href="#mbe7a76446a" y="123.576236"/>
     <use style="fill:#4c72b0;stroke:#4c72b0;" x="212.303353" xlink:href="#mbe7a76446a" y="144.912583"/>
     <use style="fill:#4c72b0;stroke:#4c72b0;" x="242.511374" xlink:href="#mbe7a76446a" y="76.524251"/>
     <use style="fill:#4c72b0;stroke:#4c72b0;" x="251.412445" xlink:href="#mbe7a76446a" y="109.434255"/>
     <use style="fill:#4c72b0;stroke:#4c72b0;" x="163.310634" xlink:href="#mbe7a76446a" y="128.018241"/>
     <use style="fill:#4c72b0;stroke:#4c72b0;" x="208.723301" xlink:href="#mbe7a76446a" y="123.85135"/>
     <use style="fill:#4c72b0;stroke:#4c72b0;" x="97.636614" xlink:href="#mbe7a76446a" y="166.625162"/>
     <use style="fill:#4c72b0;stroke:#4c72b0;" x="178.088159" xlink:href="#mbe7a76446a" y="113.589063"/>
     <use style="fill:#4c72b0;stroke:#4c72b0;" x="150.528456" xlink:href="#mbe7a76446a" y="144.188113"/>
     <use style="fill:#4c72b0;stroke:#4c72b0;" x="144.960941" xlink:href="#mbe7a76446a" y="127.606746"/>
     <use style="fill:#4c72b0;stroke:#4c72b0;" x="262.20859" xlink:href="#mbe7a76446a" y="102.257171"/>
     <use style="fill:#4c72b0;stroke:#4c72b0;" x="245.113559" xlink:href="#mbe7a76446a" y="92.904933"/>
     <use style="fill:#4c72b0;stroke:#4c72b0;" x="243.475091" xlink:href="#mbe7a76446a" y="114.976671"/>
     <use style="fill:#4c72b0;stroke:#4c72b0;" x="258.649163" xlink:href="#mbe7a76446a" y="111.288319"/>
     <use style="fill:#4c72b0;stroke:#4c72b0;" x="185.363994" xlink:href="#mbe7a76446a" y="141.356921"/>
     <use style="fill:#4c72b0;stroke:#4c72b0;" x="179.558831" xlink:href="#mbe7a76446a" y="150.472666"/>
     <use style="fill:#4c72b0;stroke:#4c72b0;" x="165.000757" xlink:href="#mbe7a76446a" y="157.337813"/>
     <use style="fill:#4c72b0;stroke:#4c72b0;" x="174.496321" xlink:href="#mbe7a76446a" y="135.259262"/>
     <use style="fill:#4c72b0;stroke:#4c72b0;" x="220.724019" xlink:href="#mbe7a76446a" y="123.247196"/>
     <use style="fill:#4c72b0;stroke:#4c72b0;" x="212.367" xlink:href="#mbe7a76446a" y="127.928697"/>
     <use style="fill:#4c72b0;stroke:#4c72b0;" x="153.479213" xlink:href="#mbe7a76446a" y="157.429593"/>
     <use style="fill:#4c72b0;stroke:#4c72b0;" x="249.646442" xlink:href="#mbe7a76446a" y="112.381423"/>
     <use style="fill:#4c72b0;stroke:#4c72b0;" x="230.987145" xlink:href="#mbe7a76446a" y="86.964626"/>
     <use style="fill:#4c72b0;stroke:#4c72b0;" x="259.096947" xlink:href="#mbe7a76446a" y="78.884251"/>
     <use style="fill:#4c72b0;stroke:#4c72b0;" x="298.750703" xlink:href="#mbe7a76446a" y="56.47929"/>
     <use style="fill:#4c72b0;stroke:#4c72b0;" x="161.282041" xlink:href="#mbe7a76446a" y="161.162677"/>
     <use style="fill:#4c72b0;stroke:#4c72b0;" x="251.296819" xlink:href="#mbe7a76446a" y="107.6096"/>
     <use style="fill:#4c72b0;stroke:#4c72b0;" x="203.458904" xlink:href="#mbe7a76446a" y="130.503367"/>
     <use style="fill:#4c72b0;stroke:#4c72b0;" x="254.307996" xlink:href="#mbe7a76446a" y="101.387406"/>
     <use style="fill:#4c72b0;stroke:#4c72b0;" x="219.034643" xlink:href="#mbe7a76446a" y="126.509596"/>
     <use style="fill:#4c72b0;stroke:#4c72b0;" x="315.534263" xlink:href="#mbe7a76446a" y="73.853433"/>
     <use style="fill:#4c72b0;stroke:#4c72b0;" x="204.269836" xlink:href="#mbe7a76446a" y="113.680988"/>
     <use style="fill:#4c72b0;stroke:#4c72b0;" x="307.460489" xlink:href="#mbe7a76446a" y="65.044402"/>
     <use style="fill:#4c72b0;stroke:#4c72b0;" x="211.309781" xlink:href="#mbe7a76446a" y="111.405371"/>
     <use style="fill:#4c72b0;stroke:#4c72b0;" x="248.601505" xlink:href="#mbe7a76446a" y="88.56806"/>
     <use style="fill:#4c72b0;stroke:#4c72b0;" x="215.620279" xlink:href="#mbe7a76446a" y="132.172996"/>
     <use style="fill:#4c72b0;stroke:#4c72b0;" x="173.409291" xlink:href="#mbe7a76446a" y="160.380647"/>
     <use style="fill:#4c72b0;stroke:#4c72b0;" x="238.359355" xlink:href="#mbe7a76446a" y="89.031707"/>
     <use style="fill:#4c72b0;stroke:#4c72b0;" x="217.303904" xlink:href="#mbe7a76446a" y="114.361571"/>
    </g>
   </g>
   <g id="patch_3">
    <path d="M 48.530156 230.64 
L 48.530156 13.2 
" style="fill:none;stroke:#ffffff;stroke-linecap:square;stroke-linejoin:miter;stroke-width:1.25;"/>
   </g>
   <g id="patch_4">
    <path d="M 383.330156 230.64 
L 383.330156 13.2 
" style="fill:none;stroke:#ffffff;stroke-linecap:square;stroke-linejoin:miter;stroke-width:1.25;"/>
   </g>
   <g id="patch_5">
    <path d="M 48.530156 230.64 
L 383.330156 230.64 
" style="fill:none;stroke:#ffffff;stroke-linecap:square;stroke-linejoin:miter;stroke-width:1.25;"/>
   </g>
   <g id="patch_6">
    <path d="M 48.530156 13.2 
L 383.330156 13.2 
" style="fill:none;stroke:#ffffff;stroke-linecap:square;stroke-linejoin:miter;stroke-width:1.25;"/>
   </g>
   <g id="legend_1">
    <g id="patch_7">
     <path d="M 56.230156 54.291875 
L 219.461563 54.291875 
Q 221.661563 54.291875 221.661563 52.091875 
L 221.661563 20.9 
Q 221.661563 18.7 219.461563 18.7 
L 56.230156 18.7 
Q 54.030156 18.7 54.030156 20.9 
L 54.030156 52.091875 
Q 54.030156 54.291875 56.230156 54.291875 
z
" style="fill:#eaeaf2;opacity:0.8;stroke:#cccccc;stroke-linejoin:miter;"/>
    </g>
    <g id="line2d_17"/>
    <g id="line2d_18">
     <g>
      <use style="fill:#4c72b0;stroke:#4c72b0;" x="69.430156" xlink:href="#mbe7a76446a" y="27.608281"/>
     </g>
    </g>
    <g id="text_18">
     <!-- Data -->
     <defs>
      <path d="M 19.671875 64.796875 
L 19.671875 8.109375 
L 31.59375 8.109375 
Q 46.6875 8.109375 53.6875 14.9375 
Q 60.6875 21.78125 60.6875 36.53125 
Q 60.6875 51.171875 53.6875 57.984375 
Q 46.6875 64.796875 31.59375 64.796875 
z
M 9.8125 72.90625 
L 30.078125 72.90625 
Q 51.265625 72.90625 61.171875 64.09375 
Q 71.09375 55.28125 71.09375 36.53125 
Q 71.09375 17.671875 61.125 8.828125 
Q 51.171875 0 30.078125 0 
L 9.8125 0 
z
" id="DejaVuSans-68"/>
      <path d="M 34.28125 27.484375 
Q 23.390625 27.484375 19.1875 25 
Q 14.984375 22.515625 14.984375 16.5 
Q 14.984375 11.71875 18.140625 8.90625 
Q 21.296875 6.109375 26.703125 6.109375 
Q 34.1875 6.109375 38.703125 11.40625 
Q 43.21875 16.703125 43.21875 25.484375 
L 43.21875 27.484375 
z
M 52.203125 31.203125 
L 52.203125 0 
L 43.21875 0 
L 43.21875 8.296875 
Q 40.140625 3.328125 35.546875 0.953125 
Q 30.953125 -1.421875 24.3125 -1.421875 
Q 15.921875 -1.421875 10.953125 3.296875 
Q 6 8.015625 6 15.921875 
Q 6 25.140625 12.171875 29.828125 
Q 18.359375 34.515625 30.609375 34.515625 
L 43.21875 34.515625 
L 43.21875 35.40625 
Q 43.21875 41.609375 39.140625 45 
Q 35.0625 48.390625 27.6875 48.390625 
Q 23 48.390625 18.546875 47.265625 
Q 14.109375 46.140625 10.015625 43.890625 
L 10.015625 52.203125 
Q 14.9375 54.109375 19.578125 55.046875 
Q 24.21875 56 28.609375 56 
Q 40.484375 56 46.34375 49.84375 
Q 52.203125 43.703125 52.203125 31.203125 
z
" id="DejaVuSans-97"/>
      <path d="M 18.3125 70.21875 
L 18.3125 54.6875 
L 36.8125 54.6875 
L 36.8125 47.703125 
L 18.3125 47.703125 
L 18.3125 18.015625 
Q 18.3125 11.328125 20.140625 9.421875 
Q 21.96875 7.515625 27.59375 7.515625 
L 36.8125 7.515625 
L 36.8125 0 
L 27.59375 0 
Q 17.1875 0 13.234375 3.875 
Q 9.28125 7.765625 9.28125 18.015625 
L 9.28125 47.703125 
L 2.6875 47.703125 
L 2.6875 54.6875 
L 9.28125 54.6875 
L 9.28125 70.21875 
z
" id="DejaVuSans-116"/>
     </defs>
     <g style="fill:#262626;" transform="translate(89.230156 31.458281)scale(0.11 -0.11)">
      <use xlink:href="#DejaVuSans-68"/>
      <use x="77.001953" xlink:href="#DejaVuSans-97"/>
      <use x="138.28125" xlink:href="#DejaVuSans-116"/>
      <use x="177.490234" xlink:href="#DejaVuSans-97"/>
     </g>
    </g>
    <g id="patch_8">
     <path d="M 58.430156 47.604219 
L 80.430156 47.604219 
L 80.430156 39.904219 
L 58.430156 39.904219 
z
" style="fill:#4c72b0;opacity:0.2;stroke:#ffffff;stroke-linejoin:miter;"/>
    </g>
    <g id="text_19">
     <!-- 90% Predictive interval -->
     <defs>
      <path d="M 10.984375 1.515625 
L 10.984375 10.5 
Q 14.703125 8.734375 18.5 7.8125 
Q 22.3125 6.890625 25.984375 6.890625 
Q 35.75 6.890625 40.890625 13.453125 
Q 46.046875 20.015625 46.78125 33.40625 
Q 43.953125 29.203125 39.59375 26.953125 
Q 35.25 24.703125 29.984375 24.703125 
Q 19.046875 24.703125 12.671875 31.3125 
Q 6.296875 37.9375 6.296875 49.421875 
Q 6.296875 60.640625 12.9375 67.421875 
Q 19.578125 74.21875 30.609375 74.21875 
Q 43.265625 74.21875 49.921875 64.515625 
Q 56.59375 54.828125 56.59375 36.375 
Q 56.59375 19.140625 48.40625 8.859375 
Q 40.234375 -1.421875 26.421875 -1.421875 
Q 22.703125 -1.421875 18.890625 -0.6875 
Q 15.09375 0.046875 10.984375 1.515625 
z
M 30.609375 32.421875 
Q 37.25 32.421875 41.125 36.953125 
Q 45.015625 41.5 45.015625 49.421875 
Q 45.015625 57.28125 41.125 61.84375 
Q 37.25 66.40625 30.609375 66.40625 
Q 23.96875 66.40625 20.09375 61.84375 
Q 16.21875 57.28125 16.21875 49.421875 
Q 16.21875 41.5 20.09375 36.953125 
Q 23.96875 32.421875 30.609375 32.421875 
z
" id="DejaVuSans-57"/>
      <path d="M 72.703125 32.078125 
Q 68.453125 32.078125 66.03125 28.46875 
Q 63.625 24.859375 63.625 18.40625 
Q 63.625 12.0625 66.03125 8.421875 
Q 68.453125 4.78125 72.703125 4.78125 
Q 76.859375 4.78125 79.265625 8.421875 
Q 81.6875 12.0625 81.6875 18.40625 
Q 81.6875 24.8125 79.265625 28.4375 
Q 76.859375 32.078125 72.703125 32.078125 
z
M 72.703125 38.28125 
Q 80.421875 38.28125 84.953125 32.90625 
Q 89.5 27.546875 89.5 18.40625 
Q 89.5 9.28125 84.9375 3.921875 
Q 80.375 -1.421875 72.703125 -1.421875 
Q 64.890625 -1.421875 60.34375 3.921875 
Q 55.8125 9.28125 55.8125 18.40625 
Q 55.8125 27.59375 60.375 32.9375 
Q 64.9375 38.28125 72.703125 38.28125 
z
M 22.3125 68.015625 
Q 18.109375 68.015625 15.6875 64.375 
Q 13.28125 60.75 13.28125 54.390625 
Q 13.28125 47.953125 15.671875 44.328125 
Q 18.0625 40.71875 22.3125 40.71875 
Q 26.5625 40.71875 28.96875 44.328125 
Q 31.390625 47.953125 31.390625 54.390625 
Q 31.390625 60.6875 28.953125 64.34375 
Q 26.515625 68.015625 22.3125 68.015625 
z
M 66.40625 74.21875 
L 74.21875 74.21875 
L 28.609375 -1.421875 
L 20.796875 -1.421875 
z
M 22.3125 74.21875 
Q 30.03125 74.21875 34.609375 68.875 
Q 39.203125 63.53125 39.203125 54.390625 
Q 39.203125 45.171875 34.640625 39.84375 
Q 30.078125 34.515625 22.3125 34.515625 
Q 14.546875 34.515625 10.03125 39.859375 
Q 5.515625 45.21875 5.515625 54.390625 
Q 5.515625 63.484375 10.046875 68.84375 
Q 14.59375 74.21875 22.3125 74.21875 
z
" id="DejaVuSans-37"/>
      <path id="DejaVuSans-32"/>
      <path d="M 19.671875 64.796875 
L 19.671875 37.40625 
L 32.078125 37.40625 
Q 38.96875 37.40625 42.71875 40.96875 
Q 46.484375 44.53125 46.484375 51.125 
Q 46.484375 57.671875 42.71875 61.234375 
Q 38.96875 64.796875 32.078125 64.796875 
z
M 9.8125 72.90625 
L 32.078125 72.90625 
Q 44.34375 72.90625 50.609375 67.359375 
Q 56.890625 61.8125 56.890625 51.125 
Q 56.890625 40.328125 50.609375 34.8125 
Q 44.34375 29.296875 32.078125 29.296875 
L 19.671875 29.296875 
L 19.671875 0 
L 9.8125 0 
z
" id="DejaVuSans-80"/>
      <path d="M 41.109375 46.296875 
Q 39.59375 47.171875 37.8125 47.578125 
Q 36.03125 48 33.890625 48 
Q 26.265625 48 22.1875 43.046875 
Q 18.109375 38.09375 18.109375 28.8125 
L 18.109375 0 
L 9.078125 0 
L 9.078125 54.6875 
L 18.109375 54.6875 
L 18.109375 46.1875 
Q 20.953125 51.171875 25.484375 53.578125 
Q 30.03125 56 36.53125 56 
Q 37.453125 56 38.578125 55.875 
Q 39.703125 55.765625 41.0625 55.515625 
z
" id="DejaVuSans-114"/>
      <path d="M 56.203125 29.59375 
L 56.203125 25.203125 
L 14.890625 25.203125 
Q 15.484375 15.921875 20.484375 11.0625 
Q 25.484375 6.203125 34.421875 6.203125 
Q 39.59375 6.203125 44.453125 7.46875 
Q 49.3125 8.734375 54.109375 11.28125 
L 54.109375 2.78125 
Q 49.265625 0.734375 44.1875 -0.34375 
Q 39.109375 -1.421875 33.890625 -1.421875 
Q 20.796875 -1.421875 13.15625 6.1875 
Q 5.515625 13.8125 5.515625 26.8125 
Q 5.515625 40.234375 12.765625 48.109375 
Q 20.015625 56 32.328125 56 
Q 43.359375 56 49.78125 48.890625 
Q 56.203125 41.796875 56.203125 29.59375 
z
M 47.21875 32.234375 
Q 47.125 39.59375 43.09375 43.984375 
Q 39.0625 48.390625 32.421875 48.390625 
Q 24.90625 48.390625 20.390625 44.140625 
Q 15.875 39.890625 15.1875 32.171875 
z
" id="DejaVuSans-101"/>
      <path d="M 45.40625 46.390625 
L 45.40625 75.984375 
L 54.390625 75.984375 
L 54.390625 0 
L 45.40625 0 
L 45.40625 8.203125 
Q 42.578125 3.328125 38.25 0.953125 
Q 33.9375 -1.421875 27.875 -1.421875 
Q 17.96875 -1.421875 11.734375 6.484375 
Q 5.515625 14.40625 5.515625 27.296875 
Q 5.515625 40.1875 11.734375 48.09375 
Q 17.96875 56 27.875 56 
Q 33.9375 56 38.25 53.625 
Q 42.578125 51.265625 45.40625 46.390625 
z
M 14.796875 27.296875 
Q 14.796875 17.390625 18.875 11.75 
Q 22.953125 6.109375 30.078125 6.109375 
Q 37.203125 6.109375 41.296875 11.75 
Q 45.40625 17.390625 45.40625 27.296875 
Q 45.40625 37.203125 41.296875 42.84375 
Q 37.203125 48.484375 30.078125 48.484375 
Q 22.953125 48.484375 18.875 42.84375 
Q 14.796875 37.203125 14.796875 27.296875 
z
" id="DejaVuSans-100"/>
      <path d="M 9.421875 54.6875 
L 18.40625 54.6875 
L 18.40625 0 
L 9.421875 0 
z
M 9.421875 75.984375 
L 18.40625 75.984375 
L 18.40625 64.59375 
L 9.421875 64.59375 
z
" id="DejaVuSans-105"/>
      <path d="M 48.78125 52.59375 
L 48.78125 44.1875 
Q 44.96875 46.296875 41.140625 47.34375 
Q 37.3125 48.390625 33.40625 48.390625 
Q 24.65625 48.390625 19.8125 42.84375 
Q 14.984375 37.3125 14.984375 27.296875 
Q 14.984375 17.28125 19.8125 11.734375 
Q 24.65625 6.203125 33.40625 6.203125 
Q 37.3125 6.203125 41.140625 7.25 
Q 44.96875 8.296875 48.78125 10.40625 
L 48.78125 2.09375 
Q 45.015625 0.34375 40.984375 -0.53125 
Q 36.96875 -1.421875 32.421875 -1.421875 
Q 20.0625 -1.421875 12.78125 6.34375 
Q 5.515625 14.109375 5.515625 27.296875 
Q 5.515625 40.671875 12.859375 48.328125 
Q 20.21875 56 33.015625 56 
Q 37.15625 56 41.109375 55.140625 
Q 45.0625 54.296875 48.78125 52.59375 
z
" id="DejaVuSans-99"/>
      <path d="M 2.984375 54.6875 
L 12.5 54.6875 
L 29.59375 8.796875 
L 46.6875 54.6875 
L 56.203125 54.6875 
L 35.6875 0 
L 23.484375 0 
z
" id="DejaVuSans-118"/>
      <path d="M 54.890625 33.015625 
L 54.890625 0 
L 45.90625 0 
L 45.90625 32.71875 
Q 45.90625 40.484375 42.875 44.328125 
Q 39.84375 48.1875 33.796875 48.1875 
Q 26.515625 48.1875 22.3125 43.546875 
Q 18.109375 38.921875 18.109375 30.90625 
L 18.109375 0 
L 9.078125 0 
L 9.078125 54.6875 
L 18.109375 54.6875 
L 18.109375 46.1875 
Q 21.34375 51.125 25.703125 53.5625 
Q 30.078125 56 35.796875 56 
Q 45.21875 56 50.046875 50.171875 
Q 54.890625 44.34375 54.890625 33.015625 
z
" id="DejaVuSans-110"/>
      <path d="M 9.421875 75.984375 
L 18.40625 75.984375 
L 18.40625 0 
L 9.421875 0 
z
" id="DejaVuSans-108"/>
     </defs>
     <g style="fill:#262626;" transform="translate(89.230156 47.604219)scale(0.11 -0.11)">
      <use xlink:href="#DejaVuSans-57"/>
      <use x="63.623047" xlink:href="#DejaVuSans-48"/>
      <use x="127.246094" xlink:href="#DejaVuSans-37"/>
      <use x="222.265625" xlink:href="#DejaVuSans-32"/>
      <use x="254.052734" xlink:href="#DejaVuSans-80"/>
      <use x="314.339844" xlink:href="#DejaVuSans-114"/>
      <use x="355.421875" xlink:href="#DejaVuSans-101"/>
      <use x="416.945312" xlink:href="#DejaVuSans-100"/>
      <use x="480.421875" xlink:href="#DejaVuSans-105"/>
      <use x="508.205078" xlink:href="#DejaVuSans-99"/>
      <use x="563.185547" xlink:href="#DejaVuSans-116"/>
      <use x="602.394531" xlink:href="#DejaVuSans-105"/>
      <use x="630.177734" xlink:href="#DejaVuSans-118"/>
      <use x="689.357422" xlink:href="#DejaVuSans-101"/>
      <use x="750.880859" xlink:href="#DejaVuSans-32"/>
      <use x="782.667969" xlink:href="#DejaVuSans-105"/>
      <use x="810.451172" xlink:href="#DejaVuSans-110"/>
      <use x="873.830078" xlink:href="#DejaVuSans-116"/>
      <use x="913.039062" xlink:href="#DejaVuSans-101"/>
      <use x="974.5625" xlink:href="#DejaVuSans-114"/>
      <use x="1015.675781" xlink:href="#DejaVuSans-118"/>
      <use x="1074.855469" xlink:href="#DejaVuSans-97"/>
      <use x="1136.134766" xlink:href="#DejaVuSans-108"/>
     </g>
    </g>
   </g>
  </g>
 </g>
 <defs>
  <clipPath id="p5d0df29f24">
   <rect height="217.44" width="334.8" x="48.530156" y="13.2"/>
  </clipPath>
 </defs>
</svg>
