<?xml version="1.0" encoding="utf-8" standalone="no"?>
<!DOCTYPE svg PUBLIC "-//W3C//DTD SVG 1.1//EN"
  "http://www.w3.org/Graphics/SVG/1.1/DTD/svg11.dtd">
<!-- Created with matplotlib (https://matplotlib.org/) -->
<svg height="262.19625pt" version="1.1" viewBox="0 0 359.661316 262.19625" width="359.661316pt" xmlns="http://www.w3.org/2000/svg" xmlns:xlink="http://www.w3.org/1999/xlink">
 <defs>
  <style type="text/css">
*{stroke-linecap:butt;stroke-linejoin:round;}
  </style>
 </defs>
 <g id="figure_1">
  <g id="patch_1">
   <path d="M 0 262.19625 
L 359.661316 262.19625 
L 359.661316 0 
L 0 0 
z
" style="fill:none;"/>
  </g>
  <g id="axes_1">
   <g id="patch_2">
    <path d="M 14.161316 224.64 
L 348.961316 224.64 
L 348.961316 7.2 
L 14.161316 7.2 
z
" style="fill:#ffffff;"/>
   </g>
   <g id="patch_3">
    <path clip-path="url(#p41593f3e25)" d="M 29.379498 214.756364 
L 29.876821 214.657564 
L 30.374145 214.64034 
L 30.871469 214.620511 
L 31.368793 214.597757 
L 31.866116 214.571732 
L 32.36344 214.542064 
L 32.860764 214.508354 
L 33.358088 214.470178 
L 33.855411 214.42709 
L 34.352735 214.378621 
L 34.850059 214.32428 
L 35.347382 214.263565 
L 35.844706 214.195957 
L 36.34203 214.120934 
L 36.839354 214.037969 
L 37.336677 213.946542 
L 37.834001 213.846142 
L 38.331325 213.73628 
L 38.828649 213.616493 
L 39.325972 213.486356 
L 39.823296 213.34549 
L 40.32062 213.193572 
L 40.817944 213.030347 
L 41.315267 212.855636 
L 41.812591 212.669347 
L 42.309915 212.471485 
L 42.807238 212.262164 
L 43.304562 212.04161 
L 43.801886 211.810173 
L 44.29921 211.568335 
L 44.796533 211.316711 
L 45.293857 211.056054 
L 45.791181 210.787258 
L 46.288505 210.511359 
L 46.785828 210.229526 
L 47.283152 209.943067 
L 47.780476 209.653413 
L 48.277799 209.362112 
L 48.775123 209.070818 
L 49.272447 208.781278 
L 49.769771 208.495314 
L 50.267094 208.214805 
L 50.764418 207.941669 
L 51.261742 207.677842 
L 51.759066 207.425251 
L 52.256389 207.1858 
L 52.753713 206.961337 
L 53.251037 206.753636 
L 53.748361 206.465572 
L 54.245684 206.279073 
L 54.743008 206.01257 
L 55.240332 205.847367 
L 55.737655 205.700008 
L 56.234979 205.570675 
L 56.732303 205.45929 
L 57.72695 205.365508 
L 58.224274 205.28871 
L 58.721611 205.228003 
L 59.218935 205.182225 
L 59.716259 205.14995 
L 60.213582 205.129507 
L 60.71092 205.118993 
L 61.208243 205.116295 
L 61.705567 205.119119 
L 62.202891 205.125019 
L 62.700214 205.131431 
L 63.197552 205.135708 
L 63.694875 205.13516 
L 64.192199 205.028298 
L 64.689523 204.992847 
L 65.18686 204.942063 
L 65.684184 204.873188 
L 66.181507 204.783613 
L 66.678831 204.670912 
L 67.176168 204.532885 
L 67.673492 204.169997 
L 68.170816 203.941357 
L 68.668139 203.677296 
L 69.165463 203.376219 
L 69.6628 203.036858 
L 70.160124 202.55949 
L 70.657448 202.123923 
L 71.154778 201.546976 
L 71.652102 201.008874 
L 72.149432 200.425629 
L 72.646756 199.797458 
L 73.14408 199.124878 
L 73.64141 198.408703 
L 74.138734 197.650024 
L 74.636064 196.850195 
L 75.133388 196.010811 
L 75.630718 195.133696 
L 76.128042 194.220875 
L 76.625373 193.17576 
L 77.122696 192.181102 
L 77.620027 191.155245 
L 78.117351 190.100527 
L 78.614674 189.019375 
L 79.112005 187.914299 
L 79.609328 186.787878 
L 80.106659 185.64276 
L 80.603983 184.481655 
L 81.101313 183.307339 
L 81.598637 182.122658 
L 82.095967 180.930536 
L 82.593291 179.733981 
L 83.090621 178.536099 
L 83.587945 177.340106 
L 84.085269 176.149336 
L 84.582599 174.967261 
L 85.079923 173.797493 
L 85.577253 172.643797 
L 86.074577 171.593986 
L 86.571908 170.471502 
L 87.069231 169.280343 
L 87.566562 168.205057 
L 88.063885 167.1658 
L 88.561209 166.166729 
L 89.05854 165.21209 
L 89.555863 164.306192 
L 90.053194 163.453363 
L 90.550517 162.657914 
L 91.047848 161.924093 
L 91.545172 161.256035 
L 92.042502 160.657709 
L 92.539826 160.13287 
L 93.037156 159.684997 
L 93.53448 159.317249 
L 94.031804 158.933609 
L 94.529134 158.618008 
L 95.026458 158.468533 
L 95.523788 158.402064 
L 96.021112 158.418782 
L 96.518442 158.518245 
L 97.015766 158.69938 
L 97.513097 158.960469 
L 98.01042 159.299152 
L 98.507751 159.712442 
L 99.005074 160.196741 
L 99.502398 160.747878 
L 99.999729 161.361145 
L 100.497052 161.932551 
L 100.994383 162.636856 
L 101.491706 163.285103 
L 101.989037 164.051084 
L 102.486361 164.843803 
L 102.983691 165.655968 
L 103.481015 166.480191 
L 103.978339 167.210275 
L 104.475669 167.920473 
L 104.972993 168.601017 
L 105.470323 169.340863 
L 105.967647 169.949769 
L 106.464977 170.600877 
L 106.962301 171.203159 
L 107.459631 171.749906 
L 107.956955 172.136093 
L 108.454286 172.536409 
L 108.951609 172.861573 
L 109.448933 173.00799 
L 109.946263 173.235756 
L 110.443587 173.276544 
L 110.940918 173.309649 
L 111.438241 173.151731 
L 111.935572 172.89935 
L 112.432896 172.452199 
L 112.930226 171.989871 
L 113.42755 171.428135 
L 113.92488 170.767337 
L 114.422204 170.008513 
L 114.919528 169.15337 
L 115.416858 168.204278 
L 115.914182 167.164259 
L 116.411512 165.938171 
L 116.908836 164.710666 
L 117.406166 163.402449 
L 117.90349 161.821081 
L 118.40082 160.234216 
L 118.898144 158.660103 
L 119.395468 157.020667 
L 119.892798 155.406016 
L 120.390122 153.642115 
L 120.887452 151.834487 
L 121.384776 149.990208 
L 121.882107 148.11668 
L 122.37943 146.221596 
L 122.876761 144.312901 
L 123.374085 142.566528 
L 123.871415 140.629527 
L 124.368739 138.608672 
L 124.866062 136.692438 
L 125.363393 134.706027 
L 125.860717 132.822784 
L 126.358047 130.867287 
L 126.855371 129.026768 
L 127.352698 127.223435 
L 127.850025 125.378947 
L 128.347352 123.580091 
L 128.844679 121.829083 
L 129.342006 120.226184 
L 129.839333 118.690459 
L 130.33666 117.125471 
L 130.833987 115.713344 
L 131.331314 114.371015 
L 131.828642 113.098645 
L 132.325969 111.782026 
L 132.823292 110.600128 
L 133.320619 109.382594 
L 133.817946 108.306618 
L 134.315274 107.185484 
L 134.812601 106.195023 
L 135.309928 105.147267 
L 135.807255 104.118119 
L 136.304582 103.197805 
L 136.801909 102.29566 
L 137.299236 101.404762 
L 137.79656 100.320559 
L 138.293887 99.199337 
L 138.791214 98.226821 
L 139.288541 97.12888 
L 139.785868 96.07867 
L 140.283195 94.985254 
L 140.780522 93.84213 
L 141.277849 92.445858 
L 141.775176 91.152108 
L 142.272503 89.689504 
L 142.769827 88.318401 
L 143.267154 86.77105 
L 143.764481 85.143809 
L 144.261808 83.435341 
L 144.759136 81.546662 
L 145.256463 79.659145 
L 145.75379 77.592021 
L 146.251117 75.429976 
L 146.748444 73.273506 
L 147.245771 71.043595 
L 147.743098 68.746217 
L 148.240422 66.388411 
L 148.737749 63.978241 
L 149.235076 61.524735 
L 149.732403 59.121712 
L 150.22973 56.683181 
L 150.727057 54.138572 
L 151.224384 51.49961 
L 151.721711 48.959022 
L 152.219038 46.247912 
L 152.716365 43.740028 
L 153.213689 41.280313 
L 153.711016 38.881634 
L 154.208343 36.556908 
L 154.70567 34.121398 
L 155.202997 31.948558 
L 155.700325 29.882484 
L 156.197652 28.018531 
L 156.694979 26.18704 
L 157.192304 24.580864 
L 157.689631 23.028903 
L 158.186958 21.638554 
L 158.684285 20.417681 
L 159.181612 19.373347 
L 159.678938 18.595658 
L 160.176265 17.993187 
L 160.673592 17.572146 
L 161.170919 17.253693 
L 161.668246 17.123562 
L 162.165572 17.083636 
L 162.662899 17.328721 
L 163.160226 17.773262 
L 163.657553 18.399782 
L 164.15488 19.204573 
L 164.652207 20.098926 
L 165.149532 21.341479 
L 165.646859 22.562228 
L 166.144187 24.032702 
L 166.641514 25.660435 
L 167.138841 27.436244 
L 167.636166 29.350423 
L 168.133493 31.476699 
L 168.63082 33.623905 
L 169.128147 35.879793 
L 169.625474 38.233147 
L 170.122801 40.672673 
L 170.620127 43.187091 
L 171.117454 45.765224 
L 171.614781 48.396085 
L 172.112107 51.152852 
L 172.609434 53.844535 
L 173.106761 56.460978 
L 173.604088 59.340709 
L 174.101415 62.113128 
L 174.598741 64.78602 
L 175.096068 67.4495 
L 175.593395 70.095674 
L 176.090721 72.717475 
L 176.588048 75.308678 
L 177.085375 77.86392 
L 177.582702 80.378705 
L 178.080028 82.849395 
L 178.577356 85.273207 
L 179.074682 87.648188 
L 179.572009 89.874393 
L 180.069336 92.215711 
L 180.566662 94.210081 
L 181.063989 96.302623 
L 181.561316 98.310916 
L 182.058643 100.334007 
L 182.555969 102.290494 
L 183.053296 104.099121 
L 183.550623 105.943262 
L 184.04795 107.727151 
L 184.545276 109.453801 
L 185.042603 111.042278 
L 185.53993 112.592185 
L 186.037257 114.188311 
L 186.534584 115.65095 
L 187.03191 117.079577 
L 187.529237 118.376027 
L 188.026564 119.790196 
L 188.52389 121.057423 
L 189.021217 122.374494 
L 189.518544 123.559792 
L 190.015871 124.69581 
L 190.513197 125.780744 
L 191.010525 126.911179 
L 191.507851 127.889229 
L 192.005178 128.81076 
L 192.502505 129.687449 
L 192.999831 130.516075 
L 193.497158 131.461249 
L 193.994484 132.326416 
L 194.491812 132.845739 
L 194.989139 133.477528 
L 195.486465 133.953814 
L 195.983792 134.271357 
L 196.481118 134.607815 
L 196.978445 135.044647 
L 197.475772 135.218754 
L 197.973099 135.311179 
L 198.470425 135.320758 
L 198.967752 135.064149 
L 199.465079 134.902247 
L 199.962406 134.568841 
L 200.459733 134.329318 
L 200.95706 133.920723 
L 201.454386 133.527779 
L 201.951713 132.858862 
L 202.44904 132.196019 
L 202.946367 131.473223 
L 203.443694 130.693967 
L 203.941019 129.862232 
L 204.438346 128.982419 
L 204.935674 128.059283 
L 205.433001 126.999061 
L 205.930328 125.987381 
L 206.427653 124.945466 
L 206.92498 123.962376 
L 207.422307 122.763851 
L 207.919634 121.801735 
L 208.416961 120.6354 
L 208.914287 119.466383 
L 209.411614 118.298524 
L 209.908941 117.13555 
L 210.406268 116.148839 
L 210.903595 114.980584 
L 211.400921 113.831263 
L 211.898248 112.604908 
L 212.395575 111.385895 
L 212.892902 110.27322 
L 213.390229 109.185216 
L 213.887556 108.124114 
L 214.384883 107.092196 
L 214.88221 105.993027 
L 215.379534 105.009461 
L 215.876861 104.059951 
L 216.374188 103.146986 
L 216.871515 102.273229 
L 217.368842 101.42662 
L 217.866169 100.69383 
L 218.363496 99.911847 
L 218.860823 99.182138 
L 219.35815 98.492663 
L 219.855478 97.846202 
L 220.352805 97.245419 
L 220.850128 96.692817 
L 221.347455 96.289496 
L 221.844782 95.857129 
L 222.34211 95.496546 
L 222.839437 95.209713 
L 223.336764 94.998467 
L 223.834091 94.864468 
L 224.331418 94.809149 
L 224.828745 94.833662 
L 225.326072 94.938847 
L 225.823396 95.12519 
L 226.320723 95.392803 
L 226.81805 95.741403 
L 227.315377 96.071506 
L 227.812704 96.562403 
L 228.310031 97.128439 
L 228.807358 97.851336 
L 229.304685 98.547923 
L 229.802012 99.215092 
L 230.299339 99.931049 
L 230.796663 100.788403 
L 231.29399 101.698907 
L 231.791317 102.658047 
L 232.288644 103.562408 
L 232.785971 104.587714 
L 233.283299 105.546358 
L 233.780626 106.61385 
L 234.277953 107.701257 
L 234.77528 108.803671 
L 235.272607 110.000259 
L 235.769934 111.105888 
L 236.267258 112.185066 
L 236.764585 113.316996 
L 237.261912 114.429875 
L 237.759239 115.437101 
L 238.256566 116.432861 
L 238.753893 117.412962 
L 239.251217 118.373622 
L 239.748547 119.311468 
L 240.245871 120.22352 
L 240.743201 121.107186 
L 241.240525 121.960242 
L 241.737856 122.682025 
L 242.235179 123.451389 
L 242.73251 124.182971 
L 243.229833 124.959482 
L 243.727164 125.683285 
L 244.224488 126.271702 
L 244.721811 126.822771 
L 245.219142 127.336075 
L 245.716465 127.895426 
L 246.213796 128.320466 
L 246.71112 128.710395 
L 247.20845 129.149901 
L 247.705774 129.45955 
L 248.203104 129.739525 
L 248.700428 129.991664 
L 249.197752 130.218256 
L 249.695082 130.422052 
L 250.192406 130.690145 
L 250.689736 130.845546 
L 251.18706 130.990899 
L 251.68439 131.115575 
L 252.181714 131.223995 
L 252.679045 131.335601 
L 253.176368 131.455247 
L 253.673699 131.671948 
L 254.171022 131.810408 
L 254.668346 132.142449 
L 255.165677 132.312144 
L 255.663 132.605872 
L 256.160331 132.847883 
L 256.657655 133.14154 
L 257.154985 133.491257 
L 257.652309 134.068997 
L 258.149639 134.517353 
L 258.646963 134.938131 
L 259.144293 135.514302 
L 259.641617 136.163811 
L 260.138941 136.887932 
L 260.636271 137.687333 
L 261.133595 138.645928 
L 261.630925 139.582431 
L 262.128249 140.594074 
L 262.625579 141.678625 
L 263.122903 142.917087 
L 263.620234 144.125303 
L 264.117557 145.298914 
L 264.614881 146.613399 
L 265.112212 147.979203 
L 265.609535 149.390206 
L 266.106866 150.839906 
L 266.604189 152.321494 
L 267.10152 153.827928 
L 267.598844 155.435903 
L 268.096174 157.041408 
L 268.593498 158.555116 
L 269.090828 160.068227 
L 269.588152 161.573368 
L 270.085476 163.06347 
L 270.582806 164.615726 
L 271.08013 166.043234 
L 271.57746 167.438788 
L 272.074784 168.796948 
L 272.572114 170.112886 
L 273.069438 171.466299 
L 273.566768 172.67302 
L 274.064092 173.828758 
L 274.561423 174.931132 
L 275.058746 176.06235 
L 275.55607 177.040782 
L 276.053401 178.048555 
L 276.550724 178.905135 
L 277.048055 179.611017 
L 277.545378 180.347686 
L 278.042709 181.032641 
L 278.540033 181.568954 
L 279.037363 182.139306 
L 279.534687 182.662199 
L 280.03201 183.140306 
L 280.529341 183.576535 
L 281.026665 183.973956 
L 281.523995 184.335753 
L 282.021319 184.665159 
L 282.518649 184.96541 
L 283.015973 185.323576 
L 283.513303 185.562103 
L 284.010627 185.782496 
L 284.507958 185.987315 
L 285.005281 186.178939 
L 285.502605 186.443427 
L 285.999935 186.685973 
L 286.497259 186.8262 
L 286.99459 186.963909 
L 287.491913 187.099901 
L 287.989244 187.318666 
L 288.486567 187.439973 
L 288.983898 187.646499 
L 289.481222 187.757453 
L 289.978552 187.871127 
L 290.475876 187.986943 
L 290.9732 188.104278 
L 291.47053 188.222495 
L 291.967854 188.508738 
L 292.465184 188.601138 
L 292.962508 188.69629 
L 293.459838 188.793337 
L 293.957162 188.891591 
L 294.454492 188.990556 
L 294.951816 189.089946 
L 295.44914 189.189695 
L 295.946464 189.289974 
L 296.443801 189.39119 
L 296.941124 189.493989 
L 297.438448 189.683135 
L 297.935772 189.779086 
L 298.433109 189.881704 
L 298.930433 189.99226 
L 299.427756 190.112206 
L 299.92508 190.243145 
L 300.422417 190.386794 
L 300.919741 190.544949 
L 301.417065 190.719441 
L 301.914389 190.912097 
L 302.411712 191.124697 
L 302.909049 191.35893 
L 303.406373 191.616358 
L 303.903697 191.898372 
L 304.401021 192.206162 
L 304.898358 192.54068 
L 305.395681 192.902619 
L 305.893005 193.292382 
L 306.390329 193.710077 
L 306.887653 194.155493 
L 307.384976 194.711993 
L 307.8823 195.19809 
L 308.379624 195.711189 
L 308.876948 196.249619 
L 309.374271 196.811453 
L 309.871595 197.394527 
L 310.368919 197.996468 
L 310.866242 198.614721 
L 311.363566 199.246584 
L 311.86089 199.889239 
L 312.358214 200.539791 
L 312.855537 201.195301 
L 313.352861 201.85283 
L 313.850185 202.509464 
L 314.347509 203.246244 
L 314.844832 203.879779 
L 315.342156 204.506001 
L 315.83948 205.122222 
L 316.336804 205.725952 
L 316.834127 206.314917 
L 317.331451 206.887074 
L 317.828775 207.440624 
L 318.326098 207.974011 
L 318.823422 208.485934 
L 319.320746 208.975336 
L 319.81807 209.525295 
L 320.315393 209.954593 
L 320.812717 210.361436 
L 321.310041 210.745469 
L 321.807365 211.106556 
L 322.304688 211.444762 
L 322.802012 211.76034 
L 323.299336 212.053702 
L 323.796659 212.325406 
L 324.293983 212.576134 
L 324.791307 212.806671 
L 325.288631 213.017885 
L 325.785954 213.210712 
L 326.283278 213.386135 
L 326.780602 213.54517 
L 327.277926 213.68885 
L 327.775249 213.818214 
L 328.272573 213.934291 
L 328.769897 214.038095 
L 329.267221 214.130611 
L 329.764544 214.21279 
L 330.261868 214.285547 
L 330.759192 214.349747 
L 331.256515 214.406211 
L 331.753839 214.455709 
L 332.251163 214.498958 
L 332.748487 214.620511 
L 333.24581 214.64034 
L 333.743134 214.657564 
z
" style="fill:#1f77b4;opacity:0.4;"/>
   </g>
   <g id="matplotlib.axis_1">
    <g id="xtick_1">
     <g id="line2d_1">
      <defs>
       <path d="M 0 0 
L 0 3.5 
" id="m2af9602a6e" style="stroke:#000000;stroke-width:0.8;"/>
      </defs>
      <g>
       <use style="stroke:#000000;stroke-width:0.8;" x="14.571094" xlink:href="#m2af9602a6e" y="224.64"/>
      </g>
     </g>
     <g id="text_1">
      <!-- −3 -->
      <defs>
       <path d="M 10.59375 35.5 
L 73.1875 35.5 
L 73.1875 27.203125 
L 10.59375 27.203125 
z
" id="DejaVuSans-8722"/>
       <path d="M 40.578125 39.3125 
Q 47.65625 37.796875 51.625 33 
Q 55.609375 28.21875 55.609375 21.1875 
Q 55.609375 10.40625 48.1875 4.484375 
Q 40.765625 -1.421875 27.09375 -1.421875 
Q 22.515625 -1.421875 17.65625 -0.515625 
Q 12.796875 0.390625 7.625 2.203125 
L 7.625 11.71875 
Q 11.71875 9.328125 16.59375 8.109375 
Q 21.484375 6.890625 26.8125 6.890625 
Q 36.078125 6.890625 40.9375 10.546875 
Q 45.796875 14.203125 45.796875 21.1875 
Q 45.796875 27.640625 41.28125 31.265625 
Q 36.765625 34.90625 28.71875 34.90625 
L 20.21875 34.90625 
L 20.21875 43.015625 
L 29.109375 43.015625 
Q 36.375 43.015625 40.234375 45.921875 
Q 44.09375 48.828125 44.09375 54.296875 
Q 44.09375 59.90625 40.109375 62.90625 
Q 36.140625 65.921875 28.71875 65.921875 
Q 24.65625 65.921875 20.015625 65.03125 
Q 15.375 64.15625 9.8125 62.3125 
L 9.8125 71.09375 
Q 15.4375 72.65625 20.34375 73.4375 
Q 25.25 74.21875 29.59375 74.21875 
Q 40.828125 74.21875 47.359375 69.109375 
Q 53.90625 64.015625 53.90625 55.328125 
Q 53.90625 49.265625 50.4375 45.09375 
Q 46.96875 40.921875 40.578125 39.3125 
z
" id="DejaVuSans-51"/>
      </defs>
      <g transform="translate(7.2 239.238437)scale(0.1 -0.1)">
       <use xlink:href="#DejaVuSans-8722"/>
       <use x="83.789062" xlink:href="#DejaVuSans-51"/>
      </g>
     </g>
    </g>
    <g id="xtick_2">
     <g id="line2d_2">
      <g>
       <use style="stroke:#000000;stroke-width:0.8;" x="70.738009" xlink:href="#m2af9602a6e" y="224.64"/>
      </g>
     </g>
     <g id="text_2">
      <!-- −2 -->
      <defs>
       <path d="M 19.1875 8.296875 
L 53.609375 8.296875 
L 53.609375 0 
L 7.328125 0 
L 7.328125 8.296875 
Q 12.9375 14.109375 22.625 23.890625 
Q 32.328125 33.6875 34.8125 36.53125 
Q 39.546875 41.84375 41.421875 45.53125 
Q 43.3125 49.21875 43.3125 52.78125 
Q 43.3125 58.59375 39.234375 62.25 
Q 35.15625 65.921875 28.609375 65.921875 
Q 23.96875 65.921875 18.8125 64.3125 
Q 13.671875 62.703125 7.8125 59.421875 
L 7.8125 69.390625 
Q 13.765625 71.78125 18.9375 73 
Q 24.125 74.21875 28.421875 74.21875 
Q 39.75 74.21875 46.484375 68.546875 
Q 53.21875 62.890625 53.21875 53.421875 
Q 53.21875 48.921875 51.53125 44.890625 
Q 49.859375 40.875 45.40625 35.40625 
Q 44.1875 33.984375 37.640625 27.21875 
Q 31.109375 20.453125 19.1875 8.296875 
z
" id="DejaVuSans-50"/>
      </defs>
      <g transform="translate(63.366916 239.238437)scale(0.1 -0.1)">
       <use xlink:href="#DejaVuSans-8722"/>
       <use x="83.789062" xlink:href="#DejaVuSans-50"/>
      </g>
     </g>
    </g>
    <g id="xtick_3">
     <g id="line2d_3">
      <g>
       <use style="stroke:#000000;stroke-width:0.8;" x="126.904925" xlink:href="#m2af9602a6e" y="224.64"/>
      </g>
     </g>
     <g id="text_3">
      <!-- −1 -->
      <defs>
       <path d="M 12.40625 8.296875 
L 28.515625 8.296875 
L 28.515625 63.921875 
L 10.984375 60.40625 
L 10.984375 69.390625 
L 28.421875 72.90625 
L 38.28125 72.90625 
L 38.28125 8.296875 
L 54.390625 8.296875 
L 54.390625 0 
L 12.40625 0 
z
" id="DejaVuSans-49"/>
      </defs>
      <g transform="translate(119.533831 239.238437)scale(0.1 -0.1)">
       <use xlink:href="#DejaVuSans-8722"/>
       <use x="83.789062" xlink:href="#DejaVuSans-49"/>
      </g>
     </g>
    </g>
    <g id="xtick_4">
     <g id="line2d_4">
      <g>
       <use style="stroke:#000000;stroke-width:0.8;" x="183.071841" xlink:href="#m2af9602a6e" y="224.64"/>
      </g>
     </g>
     <g id="text_4">
      <!-- 0 -->
      <defs>
       <path d="M 31.78125 66.40625 
Q 24.171875 66.40625 20.328125 58.90625 
Q 16.5 51.421875 16.5 36.375 
Q 16.5 21.390625 20.328125 13.890625 
Q 24.171875 6.390625 31.78125 6.390625 
Q 39.453125 6.390625 43.28125 13.890625 
Q 47.125 21.390625 47.125 36.375 
Q 47.125 51.421875 43.28125 58.90625 
Q 39.453125 66.40625 31.78125 66.40625 
z
M 31.78125 74.21875 
Q 44.046875 74.21875 50.515625 64.515625 
Q 56.984375 54.828125 56.984375 36.375 
Q 56.984375 17.96875 50.515625 8.265625 
Q 44.046875 -1.421875 31.78125 -1.421875 
Q 19.53125 -1.421875 13.0625 8.265625 
Q 6.59375 17.96875 6.59375 36.375 
Q 6.59375 54.828125 13.0625 64.515625 
Q 19.53125 74.21875 31.78125 74.21875 
z
" id="DejaVuSans-48"/>
      </defs>
      <g transform="translate(179.890591 239.238437)scale(0.1 -0.1)">
       <use xlink:href="#DejaVuSans-48"/>
      </g>
     </g>
    </g>
    <g id="xtick_5">
     <g id="line2d_5">
      <g>
       <use style="stroke:#000000;stroke-width:0.8;" x="239.238756" xlink:href="#m2af9602a6e" y="224.64"/>
      </g>
     </g>
     <g id="text_5">
      <!-- 1 -->
      <g transform="translate(236.057506 239.238437)scale(0.1 -0.1)">
       <use xlink:href="#DejaVuSans-49"/>
      </g>
     </g>
    </g>
    <g id="xtick_6">
     <g id="line2d_6">
      <g>
       <use style="stroke:#000000;stroke-width:0.8;" x="295.405672" xlink:href="#m2af9602a6e" y="224.64"/>
      </g>
     </g>
     <g id="text_6">
      <!-- 2 -->
      <g transform="translate(292.224422 239.238437)scale(0.1 -0.1)">
       <use xlink:href="#DejaVuSans-50"/>
      </g>
     </g>
    </g>
    <g id="text_7">
     <!-- Residual (True - Predicted) -->
     <defs>
      <path d="M 44.390625 34.1875 
Q 47.5625 33.109375 50.5625 29.59375 
Q 53.5625 26.078125 56.59375 19.921875 
L 66.609375 0 
L 56 0 
L 46.6875 18.703125 
Q 43.0625 26.03125 39.671875 28.421875 
Q 36.28125 30.8125 30.421875 30.8125 
L 19.671875 30.8125 
L 19.671875 0 
L 9.8125 0 
L 9.8125 72.90625 
L 32.078125 72.90625 
Q 44.578125 72.90625 50.734375 67.671875 
Q 56.890625 62.453125 56.890625 51.90625 
Q 56.890625 45.015625 53.6875 40.46875 
Q 50.484375 35.9375 44.390625 34.1875 
z
M 19.671875 64.796875 
L 19.671875 38.921875 
L 32.078125 38.921875 
Q 39.203125 38.921875 42.84375 42.21875 
Q 46.484375 45.515625 46.484375 51.90625 
Q 46.484375 58.296875 42.84375 61.546875 
Q 39.203125 64.796875 32.078125 64.796875 
z
" id="DejaVuSans-82"/>
      <path d="M 56.203125 29.59375 
L 56.203125 25.203125 
L 14.890625 25.203125 
Q 15.484375 15.921875 20.484375 11.0625 
Q 25.484375 6.203125 34.421875 6.203125 
Q 39.59375 6.203125 44.453125 7.46875 
Q 49.3125 8.734375 54.109375 11.28125 
L 54.109375 2.78125 
Q 49.265625 0.734375 44.1875 -0.34375 
Q 39.109375 -1.421875 33.890625 -1.421875 
Q 20.796875 -1.421875 13.15625 6.1875 
Q 5.515625 13.8125 5.515625 26.8125 
Q 5.515625 40.234375 12.765625 48.109375 
Q 20.015625 56 32.328125 56 
Q 43.359375 56 49.78125 48.890625 
Q 56.203125 41.796875 56.203125 29.59375 
z
M 47.21875 32.234375 
Q 47.125 39.59375 43.09375 43.984375 
Q 39.0625 48.390625 32.421875 48.390625 
Q 24.90625 48.390625 20.390625 44.140625 
Q 15.875 39.890625 15.1875 32.171875 
z
" id="DejaVuSans-101"/>
      <path d="M 44.28125 53.078125 
L 44.28125 44.578125 
Q 40.484375 46.53125 36.375 47.5 
Q 32.28125 48.484375 27.875 48.484375 
Q 21.1875 48.484375 17.84375 46.4375 
Q 14.5 44.390625 14.5 40.28125 
Q 14.5 37.15625 16.890625 35.375 
Q 19.28125 33.59375 26.515625 31.984375 
L 29.59375 31.296875 
Q 39.15625 29.25 43.1875 25.515625 
Q 47.21875 21.78125 47.21875 15.09375 
Q 47.21875 7.46875 41.1875 3.015625 
Q 35.15625 -1.421875 24.609375 -1.421875 
Q 20.21875 -1.421875 15.453125 -0.5625 
Q 10.6875 0.296875 5.421875 2 
L 5.421875 11.28125 
Q 10.40625 8.6875 15.234375 7.390625 
Q 20.0625 6.109375 24.8125 6.109375 
Q 31.15625 6.109375 34.5625 8.28125 
Q 37.984375 10.453125 37.984375 14.40625 
Q 37.984375 18.0625 35.515625 20.015625 
Q 33.0625 21.96875 24.703125 23.78125 
L 21.578125 24.515625 
Q 13.234375 26.265625 9.515625 29.90625 
Q 5.8125 33.546875 5.8125 39.890625 
Q 5.8125 47.609375 11.28125 51.796875 
Q 16.75 56 26.8125 56 
Q 31.78125 56 36.171875 55.265625 
Q 40.578125 54.546875 44.28125 53.078125 
z
" id="DejaVuSans-115"/>
      <path d="M 9.421875 54.6875 
L 18.40625 54.6875 
L 18.40625 0 
L 9.421875 0 
z
M 9.421875 75.984375 
L 18.40625 75.984375 
L 18.40625 64.59375 
L 9.421875 64.59375 
z
" id="DejaVuSans-105"/>
      <path d="M 45.40625 46.390625 
L 45.40625 75.984375 
L 54.390625 75.984375 
L 54.390625 0 
L 45.40625 0 
L 45.40625 8.203125 
Q 42.578125 3.328125 38.25 0.953125 
Q 33.9375 -1.421875 27.875 -1.421875 
Q 17.96875 -1.421875 11.734375 6.484375 
Q 5.515625 14.40625 5.515625 27.296875 
Q 5.515625 40.1875 11.734375 48.09375 
Q 17.96875 56 27.875 56 
Q 33.9375 56 38.25 53.625 
Q 42.578125 51.265625 45.40625 46.390625 
z
M 14.796875 27.296875 
Q 14.796875 17.390625 18.875 11.75 
Q 22.953125 6.109375 30.078125 6.109375 
Q 37.203125 6.109375 41.296875 11.75 
Q 45.40625 17.390625 45.40625 27.296875 
Q 45.40625 37.203125 41.296875 42.84375 
Q 37.203125 48.484375 30.078125 48.484375 
Q 22.953125 48.484375 18.875 42.84375 
Q 14.796875 37.203125 14.796875 27.296875 
z
" id="DejaVuSans-100"/>
      <path d="M 8.5 21.578125 
L 8.5 54.6875 
L 17.484375 54.6875 
L 17.484375 21.921875 
Q 17.484375 14.15625 20.5 10.265625 
Q 23.53125 6.390625 29.59375 6.390625 
Q 36.859375 6.390625 41.078125 11.03125 
Q 45.3125 15.671875 45.3125 23.6875 
L 45.3125 54.6875 
L 54.296875 54.6875 
L 54.296875 0 
L 45.3125 0 
L 45.3125 8.40625 
Q 42.046875 3.421875 37.71875 1 
Q 33.40625 -1.421875 27.6875 -1.421875 
Q 18.265625 -1.421875 13.375 4.4375 
Q 8.5 10.296875 8.5 21.578125 
z
M 31.109375 56 
z
" id="DejaVuSans-117"/>
      <path d="M 34.28125 27.484375 
Q 23.390625 27.484375 19.1875 25 
Q 14.984375 22.515625 14.984375 16.5 
Q 14.984375 11.71875 18.140625 8.90625 
Q 21.296875 6.109375 26.703125 6.109375 
Q 34.1875 6.109375 38.703125 11.40625 
Q 43.21875 16.703125 43.21875 25.484375 
L 43.21875 27.484375 
z
M 52.203125 31.203125 
L 52.203125 0 
L 43.21875 0 
L 43.21875 8.296875 
Q 40.140625 3.328125 35.546875 0.953125 
Q 30.953125 -1.421875 24.3125 -1.421875 
Q 15.921875 -1.421875 10.953125 3.296875 
Q 6 8.015625 6 15.921875 
Q 6 25.140625 12.171875 29.828125 
Q 18.359375 34.515625 30.609375 34.515625 
L 43.21875 34.515625 
L 43.21875 35.40625 
Q 43.21875 41.609375 39.140625 45 
Q 35.0625 48.390625 27.6875 48.390625 
Q 23 48.390625 18.546875 47.265625 
Q 14.109375 46.140625 10.015625 43.890625 
L 10.015625 52.203125 
Q 14.9375 54.109375 19.578125 55.046875 
Q 24.21875 56 28.609375 56 
Q 40.484375 56 46.34375 49.84375 
Q 52.203125 43.703125 52.203125 31.203125 
z
" id="DejaVuSans-97"/>
      <path d="M 9.421875 75.984375 
L 18.40625 75.984375 
L 18.40625 0 
L 9.421875 0 
z
" id="DejaVuSans-108"/>
      <path id="DejaVuSans-32"/>
      <path d="M 31 75.875 
Q 24.46875 64.65625 21.28125 53.65625 
Q 18.109375 42.671875 18.109375 31.390625 
Q 18.109375 20.125 21.3125 9.0625 
Q 24.515625 -2 31 -13.1875 
L 23.1875 -13.1875 
Q 15.875 -1.703125 12.234375 9.375 
Q 8.59375 20.453125 8.59375 31.390625 
Q 8.59375 42.28125 12.203125 53.3125 
Q 15.828125 64.359375 23.1875 75.875 
z
" id="DejaVuSans-40"/>
      <path d="M -0.296875 72.90625 
L 61.375 72.90625 
L 61.375 64.59375 
L 35.5 64.59375 
L 35.5 0 
L 25.59375 0 
L 25.59375 64.59375 
L -0.296875 64.59375 
z
" id="DejaVuSans-84"/>
      <path d="M 41.109375 46.296875 
Q 39.59375 47.171875 37.8125 47.578125 
Q 36.03125 48 33.890625 48 
Q 26.265625 48 22.1875 43.046875 
Q 18.109375 38.09375 18.109375 28.8125 
L 18.109375 0 
L 9.078125 0 
L 9.078125 54.6875 
L 18.109375 54.6875 
L 18.109375 46.1875 
Q 20.953125 51.171875 25.484375 53.578125 
Q 30.03125 56 36.53125 56 
Q 37.453125 56 38.578125 55.875 
Q 39.703125 55.765625 41.0625 55.515625 
z
" id="DejaVuSans-114"/>
      <path d="M 4.890625 31.390625 
L 31.203125 31.390625 
L 31.203125 23.390625 
L 4.890625 23.390625 
z
" id="DejaVuSans-45"/>
      <path d="M 19.671875 64.796875 
L 19.671875 37.40625 
L 32.078125 37.40625 
Q 38.96875 37.40625 42.71875 40.96875 
Q 46.484375 44.53125 46.484375 51.125 
Q 46.484375 57.671875 42.71875 61.234375 
Q 38.96875 64.796875 32.078125 64.796875 
z
M 9.8125 72.90625 
L 32.078125 72.90625 
Q 44.34375 72.90625 50.609375 67.359375 
Q 56.890625 61.8125 56.890625 51.125 
Q 56.890625 40.328125 50.609375 34.8125 
Q 44.34375 29.296875 32.078125 29.296875 
L 19.671875 29.296875 
L 19.671875 0 
L 9.8125 0 
z
" id="DejaVuSans-80"/>
      <path d="M 48.78125 52.59375 
L 48.78125 44.1875 
Q 44.96875 46.296875 41.140625 47.34375 
Q 37.3125 48.390625 33.40625 48.390625 
Q 24.65625 48.390625 19.8125 42.84375 
Q 14.984375 37.3125 14.984375 27.296875 
Q 14.984375 17.28125 19.8125 11.734375 
Q 24.65625 6.203125 33.40625 6.203125 
Q 37.3125 6.203125 41.140625 7.25 
Q 44.96875 8.296875 48.78125 10.40625 
L 48.78125 2.09375 
Q 45.015625 0.34375 40.984375 -0.53125 
Q 36.96875 -1.421875 32.421875 -1.421875 
Q 20.0625 -1.421875 12.78125 6.34375 
Q 5.515625 14.109375 5.515625 27.296875 
Q 5.515625 40.671875 12.859375 48.328125 
Q 20.21875 56 33.015625 56 
Q 37.15625 56 41.109375 55.140625 
Q 45.0625 54.296875 48.78125 52.59375 
z
" id="DejaVuSans-99"/>
      <path d="M 18.3125 70.21875 
L 18.3125 54.6875 
L 36.8125 54.6875 
L 36.8125 47.703125 
L 18.3125 47.703125 
L 18.3125 18.015625 
Q 18.3125 11.328125 20.140625 9.421875 
Q 21.96875 7.515625 27.59375 7.515625 
L 36.8125 7.515625 
L 36.8125 0 
L 27.59375 0 
Q 17.1875 0 13.234375 3.875 
Q 9.28125 7.765625 9.28125 18.015625 
L 9.28125 47.703125 
L 2.6875 47.703125 
L 2.6875 54.6875 
L 9.28125 54.6875 
L 9.28125 70.21875 
z
" id="DejaVuSans-116"/>
      <path d="M 8.015625 75.875 
L 15.828125 75.875 
Q 23.140625 64.359375 26.78125 53.3125 
Q 30.421875 42.28125 30.421875 31.390625 
Q 30.421875 20.453125 26.78125 9.375 
Q 23.140625 -1.703125 15.828125 -13.1875 
L 8.015625 -13.1875 
Q 14.5 -2 17.703125 9.0625 
Q 20.90625 20.125 20.90625 31.390625 
Q 20.90625 42.671875 17.703125 53.65625 
Q 14.5 64.65625 8.015625 75.875 
z
" id="DejaVuSans-41"/>
     </defs>
     <g transform="translate(114.739441 252.916562)scale(0.1 -0.1)">
      <use xlink:href="#DejaVuSans-82"/>
      <use x="69.419922" xlink:href="#DejaVuSans-101"/>
      <use x="130.943359" xlink:href="#DejaVuSans-115"/>
      <use x="183.042969" xlink:href="#DejaVuSans-105"/>
      <use x="210.826172" xlink:href="#DejaVuSans-100"/>
      <use x="274.302734" xlink:href="#DejaVuSans-117"/>
      <use x="337.681641" xlink:href="#DejaVuSans-97"/>
      <use x="398.960938" xlink:href="#DejaVuSans-108"/>
      <use x="426.744141" xlink:href="#DejaVuSans-32"/>
      <use x="458.53125" xlink:href="#DejaVuSans-40"/>
      <use x="497.544922" xlink:href="#DejaVuSans-84"/>
      <use x="558.410156" xlink:href="#DejaVuSans-114"/>
      <use x="599.523438" xlink:href="#DejaVuSans-117"/>
      <use x="662.902344" xlink:href="#DejaVuSans-101"/>
      <use x="724.425781" xlink:href="#DejaVuSans-32"/>
      <use x="756.212891" xlink:href="#DejaVuSans-45"/>
      <use x="792.296875" xlink:href="#DejaVuSans-32"/>
      <use x="824.083984" xlink:href="#DejaVuSans-80"/>
      <use x="884.371094" xlink:href="#DejaVuSans-114"/>
      <use x="925.453125" xlink:href="#DejaVuSans-101"/>
      <use x="986.976562" xlink:href="#DejaVuSans-100"/>
      <use x="1050.453125" xlink:href="#DejaVuSans-105"/>
      <use x="1078.236328" xlink:href="#DejaVuSans-99"/>
      <use x="1133.216797" xlink:href="#DejaVuSans-116"/>
      <use x="1172.425781" xlink:href="#DejaVuSans-101"/>
      <use x="1233.949219" xlink:href="#DejaVuSans-100"/>
      <use x="1297.425781" xlink:href="#DejaVuSans-41"/>
     </g>
    </g>
   </g>
   <g id="patch_4">
    <path d="M 14.161316 224.64 
L 348.961316 224.64 
" style="fill:none;stroke:#000000;stroke-linecap:square;stroke-linejoin:miter;stroke-width:0.8;"/>
   </g>
  </g>
 </g>
 <defs>
  <clipPath id="p41593f3e25">
   <rect height="217.44" width="334.8" x="14.161316" y="7.2"/>
  </clipPath>
 </defs>
</svg>
