<svg height="364.8" viewBox="0 0 396.5 273.6" width="528.7" xmlns="http://www.w3.org/2000/svg" xmlns:xlink="http://www.w3.org/1999/xlink"><defs><style>*{stroke-linecap:butt;stroke-linejoin:round}</style></defs><g id="figure_1"><path d="M0 273.6h396.5V0H0z" fill="#fff" id="patch_1"/><g id="axes_1"><path d="M48.5 230.6h334.8V13.2H48.5z" fill="#eaeaf2" id="patch_2"/><g id="matplotlib.axis_1"><g id="xtick_1"><path clip-path="url(#p5d0df29f24)" d="M63.7 230.6V13.2" fill="none" stroke="#fff" stroke-linecap="round" id="line2d_1"/><g id="text_1"><defs><path d="M10.6 35.5h62.6v-8.3H10.6z" id="DejaVuSans-8722"/><path d="M40.6 39.3q7-1.5 11-6.3t4-11.8q0-10.8-7.4-16.7-7.4-6-21.1-6-4.6 0-9.4 1-4.9.9-10 2.7v9.5q4-2.4 8.9-3.6Q21.5 7 26.8 7q9.3 0 14.1 3.6 4.9 3.7 4.9 10.7 0 6.4-4.5 10Q36.8 35 28.7 35h-8.5V43h9q7.2 0 11 3 3.9 2.8 3.9 8.3 0 5.6-4 8.6t-11.4 3q-4 0-8.7-.9-4.6-.8-10.2-2.7v8.8q5.6 1.6 10.5 2.3 5 .8 9.3.8 11.2 0 17.8-5 6.5-5.2 6.5-13.9 0-6-3.5-10.2-3.4-4.2-9.8-5.8z" id="DejaVuSans-51"/></defs><g transform="matrix(.11 0 0 -.11 55.6 248.5)" fill="#262626"><use xlink:href="#DejaVuSans-8722"/><use x="83.8" xlink:href="#DejaVuSans-51"/></g></g></g><g id="xtick_2"><path clip-path="url(#p5d0df29f24)" d="M112.5 230.6V13.2" fill="none" stroke="#fff" stroke-linecap="round" id="line2d_2"/><g id="text_2"><defs><path d="M19.2 8.3h34.4V0H7.3v8.3l15.3 15.6q9.7 9.8 12.2 12.6 4.7 5.3 6.6 9 2 3.7 2 7.3 0 5.8-4.2 9.5-4 3.6-10.6 3.6-4.6 0-9.8-1.6-5.1-1.6-11-4.9v10q6 2.4 11.1 3.6 5.2 1.2 9.5 1.2 11.4 0 18-5.7 6.8-5.6 6.8-15 0-4.6-1.7-8.6-1.6-4-6-9.5l-7.9-8.2L19.2 8.3z" id="DejaVuSans-50"/></defs><g transform="matrix(.11 0 0 -.11 104.3 248.5)" fill="#262626"><use xlink:href="#DejaVuSans-8722"/><use x="83.8" xlink:href="#DejaVuSans-50"/></g></g></g><g id="xtick_3"><path clip-path="url(#p5d0df29f24)" d="M161.2 230.6V13.2" fill="none" stroke="#fff" stroke-linecap="round" id="line2d_3"/><g id="text_3"><defs><path d="M12.4 8.3h16.1v55.6L11 60.4v9l17.4 3.5h9.9V8.3h16V0H12.5z" id="DejaVuSans-49"/></defs><g transform="matrix(.11 0 0 -.11 153 248.5)" fill="#262626"><use xlink:href="#DejaVuSans-8722"/><use x="83.8" xlink:href="#DejaVuSans-49"/></g></g></g><g id="xtick_4"><path clip-path="url(#p5d0df29f24)" d="M209.9 230.6V13.2" fill="none" stroke="#fff" stroke-linecap="round" id="line2d_4"/><g id="text_4"><defs><path d="M31.8 66.4q-7.6 0-11.5-7.5-3.8-7.5-3.8-22.5t3.8-22.5q3.9-7.5 11.5-7.5 7.7 0 11.5 7.5T47 36.4q0 15-3.8 22.5t-11.5 7.5zm0 7.8q12.2 0 18.7-9.7T57 36.4Q57 18 50.5 8.3 44-1.4 31.8-1.4 19.5-1.4 13 8.3q-6.5 9.7-6.5 28 0 18.5 6.5 28.2 6.4 9.7 18.7 9.7z" id="DejaVuSans-48"/></defs><use xlink:href="#DejaVuSans-48" transform="matrix(.11 0 0 -.11 206.4 248.5)" fill="#262626"/></g></g><g id="xtick_5"><path clip-path="url(#p5d0df29f24)" d="M258.6 230.6V13.2" fill="none" stroke="#fff" stroke-linecap="round" id="line2d_5"/><use xlink:href="#DejaVuSans-49" transform="matrix(.11 0 0 -.11 255 248.5)" fill="#262626" id="text_5"/></g><g id="xtick_6"><path clip-path="url(#p5d0df29f24)" d="M307.3 230.6V13.2" fill="none" stroke="#fff" stroke-linecap="round" id="line2d_6"/><use xlink:href="#DejaVuSans-50" transform="matrix(.11 0 0 -.11 303.8 248.5)" fill="#262626" id="text_6"/></g><g id="xtick_7"><path clip-path="url(#p5d0df29f24)" d="M356 230.6V13.2" fill="none" stroke="#fff" stroke-linecap="round" id="line2d_7"/><use xlink:href="#DejaVuSans-51" transform="matrix(.11 0 0 -.11 352.5 248.5)" fill="#262626" id="text_7"/></g><g id="text_8"><defs><path d="M54.9 54.7L35 28 56 0H45.3l-16 21.5L13.6 0H2.9L24 28.6l-19.4 26h10.6l14.5-19.4 14.5 19.5z" id="DejaVuSans-120"/></defs><use xlink:href="#DejaVuSans-120" transform="matrix(.12 0 0 -.12 212.4 263.9)" fill="#262626"/></g></g><g id="matplotlib.axis_2"><g id="ytick_1"><path clip-path="url(#p5d0df29f24)" d="M48.5 214.6h334.8" fill="none" stroke="#fff" stroke-linecap="round" id="line2d_8"/><g id="text_9"><defs><path d="M31.8 34.6q-7 0-11-3.7-4.1-3.8-4.1-10.4 0-6.6 4-10.3 4-3.8 11-3.8 7.1 0 11.2 3.8 4 3.8 4 10.3 0 6.6-4 10.4-4 3.7-11.1 3.7zm-9.9 4.2q-6.3 1.6-9.9 6Q8.5 49 8.5 55.2q0 8.8 6.2 13.8 6.3 5.1 17 5.1 11 0 17.2-5Q55 64 55 55.2q0-6.2-3.6-10.6-3.5-4.3-9.8-5.9 7.1-1.6 11.1-6.5 4-4.8 4-11.8 0-10.6-6.5-16.3-6.5-5.6-18.5-5.6T13.2 4.2Q6.8 10 6.8 20.5q0 7 4 11.8 4 4.9 11.1 6.5zm-3.6 15.6q0-5.7 3.5-8.8 3.6-3.2 10-3.2 6.3 0 10 3.2 3.5 3.1 3.5 8.8 0 5.7-3.6 8.8-3.6 3.2-10 3.2-6.3 0-9.9-3.2-3.5-3.1-3.5-8.8z" id="DejaVuSans-56"/></defs><g transform="matrix(.11 0 0 -.11 22.8 218.8)" fill="#262626"><use xlink:href="#DejaVuSans-8722"/><use x="83.8" xlink:href="#DejaVuSans-56"/></g></g></g><g id="ytick_2"><path clip-path="url(#p5d0df29f24)" d="M48.5 188.1h334.8" fill="none" stroke="#fff" stroke-linecap="round" id="line2d_9"/><g id="text_10"><defs><path d="M33 40.4q-6.6 0-10.5-4.6-3.9-4.5-3.9-12.4T22.5 11Q26.4 6.4 33 6.4q6.7 0 10.5 4.6 4 4.5 4 12.4t-4 12.4q-3.8 4.6-10.5 4.6zm19.6 30.9v-9Q48.9 64.1 45 65q-3.8 1-7.5 1-9.8 0-15-6.7-5-6.6-5.8-19.9 2.9 4.3 7.2 6.5 4.4 2.3 9.6 2.3 11 0 17.4-6.7 6.3-6.6 6.3-18.1 0-11.2-6.6-18Q44-1.4 33-1.4q-12.6 0-19.3 9.7Q7 18 7 36.3 7 53.8 15.2 64q8.2 10.3 22 10.3 3.7 0 7.5-.7 3.8-.8 7.9-2.2z" id="DejaVuSans-54"/></defs><g transform="matrix(.11 0 0 -.11 22.8 192.3)" fill="#262626"><use xlink:href="#DejaVuSans-8722"/><use x="83.8" xlink:href="#DejaVuSans-54"/></g></g></g><g id="ytick_3"><path clip-path="url(#p5d0df29f24)" d="M48.5 161.6h334.8" fill="none" stroke="#fff" stroke-linecap="round" id="line2d_10"/><g id="text_11"><defs><path d="M37.8 64.3l-25-39h25zM35.2 73h12.4V25.4H58v-8.2H47.6V0h-9.8v17.2h-33v9.5z" id="DejaVuSans-52"/></defs><g transform="matrix(.11 0 0 -.11 22.8 165.7)" fill="#262626"><use xlink:href="#DejaVuSans-8722"/><use x="83.8" xlink:href="#DejaVuSans-52"/></g></g></g><g id="ytick_4"><path clip-path="url(#p5d0df29f24)" d="M48.5 135h334.8" fill="none" stroke="#fff" stroke-linecap="round" id="line2d_11"/><g transform="matrix(.11 0 0 -.11 22.8 139.2)" fill="#262626" id="text_12"><use xlink:href="#DejaVuSans-8722"/><use x="83.8" xlink:href="#DejaVuSans-50"/></g></g><g id="ytick_5"><path clip-path="url(#p5d0df29f24)" d="M48.5 108.5h334.8" fill="none" stroke="#fff" stroke-linecap="round" id="line2d_12"/><use xlink:href="#DejaVuSans-48" transform="matrix(.11 0 0 -.11 32 112.7)" fill="#262626" id="text_13"/></g><g id="ytick_6"><path clip-path="url(#p5d0df29f24)" d="M48.5 82h334.8" fill="none" stroke="#fff" stroke-linecap="round" id="line2d_13"/><use xlink:href="#DejaVuSans-50" transform="matrix(.11 0 0 -.11 32 86.1)" fill="#262626" id="text_14"/></g><g id="ytick_7"><path clip-path="url(#p5d0df29f24)" d="M48.5 55.4h334.8" fill="none" stroke="#fff" stroke-linecap="round" id="line2d_14"/><use xlink:href="#DejaVuSans-52" transform="matrix(.11 0 0 -.11 32 59.6)" fill="#262626" id="text_15"/></g><g id="ytick_8"><path clip-path="url(#p5d0df29f24)" d="M48.5 28.9h334.8" fill="none" stroke="#fff" stroke-linecap="round" id="line2d_15"/><use xlink:href="#DejaVuSans-54" transform="matrix(.11 0 0 -.11 32 33)" fill="#262626" id="text_16"/></g><g id="text_17"><defs><path d="M32.2-5q-3.8-9.8-7.5-12.8-3.6-3-9.6-3H7.9v7.5h5.3q3.7 0 5.7 1.8 2.1 1.7 4.6 8.3l1.6 4L3 54.8h9.5l17-42.8 17.2 42.8h9.5z" id="DejaVuSans-121"/></defs><use xlink:href="#DejaVuSans-121" transform="matrix(0 -.12 -.12 0 16.3 125.5)" fill="#262626"/></g></g><g id="PolyCollection_1"><defs><path d="M63.7-96.4v43.6l3-2.3 3 .2 2.9-.7 3-.8 3-4 2.9-2.2 3-2.1 2.9-1.2h3l2.9-.7 3-3.8h2.9l3-2L105-76l3 1 2.9-3 3-1.6 2.9-2 3-1 2.9-1.3 3-3.8 2.9 1.5 3-3.7 2.9-.5 3-.8 2.9-4.2 3 .1 2.9-1.6 3-1.7 3-1 2.9-2.6 3 .2 2.9-1.7 3-1.5 2.9-3.8 3-.3 2.9-.6 3-2.6 2.9-1.4 3-2 2.9.8 3-2.7 2.9-3 3 .1 2.9-2.5 3-1.7 2.9 1.6 3-2.8 2.9-2.6 3-3 2.9.4 3-3.3 2.9.6 3-4 2.9.2 3-3.8 3-.1 2.9-2.1 3-.9 2.9-2 3-2.6 2.9.5 3-2.2 2.9-1.2 3-.3 2.9-2.7 3-3 2.9-.3 3-1.5 2.9-2.5 3-1.2 2.9-1.7 3-1.1 2.9-3.2 3 .5 2.9-1.6 3-2.6 2.9-.8 3-.3 2.9-3.7 3-2 2.9.7 3-1 3-3.3 2.9-1 3-1.8 2.9-.3 3-2.8 2.9-1.7 3-1.4 2.9-2.8 3-1.3 2.9-.1 3-2.6 2.9-.7 3-3.5 2.9.8 3-.9 2.9-2.4v-44.2h0l-3 1.1-3 2.3-2.9 2.9-3-.4-2.9 3-3-.5-2.9 3-3 1.7-2.9 2-3 4-2.9-1.3-3 1.3-2.9.6-3 2.4-2.9 2.2-3 1.7-2.9 1.3-3 .3-2.9 2.8-3 .6-2.9 3-3 1.2-3 3.1-2.9-.6-3 1.1-2.9 4.4-3-.5-2.9 1.8-3 2.5-2.9.1-3 .6-2.9 4.7-3-2.3-2.9 3.2-3 .8-2.9 1.4-3 2.3-2.9 3-3 .4-2.9 1.4-3 2.2-2.9 1-3 .7-2.9 3.6-3 .4-2.9 1.1-3 3.2-2.9 1.2-3 .3-3 1.8-2.9 3-3 1-2.9 1-3 1.8-2.9.5-3 4.3-2.9 1.5-3 .2-2.9 3.3-3-.2-2.9 1-3 2.2-2.9 1-3 3.1-2.9 1.4-3 2.3-2.9-1.1-3 2.4-2.9 2.5-3-1.6-2.9 3-3 2.5-2.9 1.8-3 1.7-3 1-2.9 2.3-3-1-2.9 2.9-3 2-2.9 1.4-3 .7-2.9 1-3 2-2.9 3.4-3-1-2.9 3.3-3 3.3-2.9-1-3 1.9-2.9 1.9-3 .9-2.9 3.2-3 .6-2.9.3-3 3-2.9-.3-3 3-2.9 3.5-3-.9z" id="m1085f2a92f" stroke="#fff" stroke-opacity=".2"/></defs><g clip-path="url(#p5d0df29f24)"><use xlink:href="#m1085f2a92f" y="273.6" fill="#4c72b0" fill-opacity=".2" stroke="#fff" stroke-opacity=".2"/></g></g><g id="line2d_16"><defs><path d="M0 1.5a1.5 1.5 0 100-3 1.5 1.5 0 000 3z" id="mbe7a76446a" stroke="#4c72b0"/></defs><g clip-path="url(#p5d0df29f24)" fill="#4c72b0" stroke="#4c72b0"><use x="199.9" xlink:href="#mbe7a76446a" y="148"/><use x="233.2" xlink:href="#mbe7a76446a" y="116.5"/><use x="184.6" xlink:href="#mbe7a76446a" y="136"/><use x="182.8" xlink:href="#mbe7a76446a" y="148.8"/><use x="305.6" xlink:href="#mbe7a76446a" y="76"/><use x="277.7" xlink:href="#mbe7a76446a" y="85.3"/><use x="214.4" xlink:href="#mbe7a76446a" y="104.8"/><use x="223.6" xlink:href="#mbe7a76446a" y="101.3"/><use x="247.3" xlink:href="#mbe7a76446a" y="109.2"/><use x="270.6" xlink:href="#mbe7a76446a" y="67.7"/><use x="258.9" xlink:href="#mbe7a76446a" y="102"/><use x="146.7" xlink:href="#mbe7a76446a" y="150.1"/><use x="223.3" xlink:href="#mbe7a76446a" y="102.1"/><use x="221" xlink:href="#mbe7a76446a" y="136.5"/><use x="275.8" xlink:href="#mbe7a76446a" y="99.4"/><use x="253" xlink:href="#mbe7a76446a" y="103.6"/><use x="112.4" xlink:href="#mbe7a76446a" y="172"/><use x="191.8" xlink:href="#mbe7a76446a" y="134.2"/><use x="291.2" xlink:href="#mbe7a76446a" y="68.6"/><use x="188.5" xlink:href="#mbe7a76446a" y="155.3"/><use x="183.6" xlink:href="#mbe7a76446a" y="166"/><use x="233.1" xlink:href="#mbe7a76446a" y="124.6"/><use x="368.1" xlink:href="#mbe7a76446a" y="30.8"/><use x="160.1" xlink:href="#mbe7a76446a" y="139.5"/><use x="181.8" xlink:href="#mbe7a76446a" y="140.7"/><use x="215.9" xlink:href="#mbe7a76446a" y="120.3"/><use x="224.6" xlink:href="#mbe7a76446a" y="112.3"/><use x="235.4" xlink:href="#mbe7a76446a" y="115.9"/><use x="209.9" xlink:href="#mbe7a76446a" y="127.3"/><use x="275.3" xlink:href="#mbe7a76446a" y="86.3"/><use x="175.1" xlink:href="#mbe7a76446a" y="156.9"/><use x="169.4" xlink:href="#mbe7a76446a" y="167.7"/><use x="94.4" xlink:href="#mbe7a76446a" y="163"/><use x="119.2" xlink:href="#mbe7a76446a" y="158"/><use x="167.9" xlink:href="#mbe7a76446a" y="138.5"/><use x="237.2" xlink:href="#mbe7a76446a" y="99.5"/><use x="148.2" xlink:href="#mbe7a76446a" y="138"/><use x="215.7" xlink:href="#mbe7a76446a" y="124.4"/><use x="158.1" xlink:href="#mbe7a76446a" y="154"/><use x="226.1" xlink:href="#mbe7a76446a" y="106.3"/><use x="94.9" xlink:href="#mbe7a76446a" y="195.3"/><use x="200.1" xlink:href="#mbe7a76446a" y="109.5"/><use x="134.8" xlink:href="#mbe7a76446a" y="155.9"/><use x="162.6" xlink:href="#mbe7a76446a" y="156.2"/><use x="146.2" xlink:href="#mbe7a76446a" y="154"/><use x="223.8" xlink:href="#mbe7a76446a" y="119.4"/><use x="228.3" xlink:href="#mbe7a76446a" y="115.3"/><use x="173.1" xlink:href="#mbe7a76446a" y="142"/><use x="226" xlink:href="#mbe7a76446a" y="103.9"/><use x="275.6" xlink:href="#mbe7a76446a" y="77.5"/><use x="213.3" xlink:href="#mbe7a76446a" y="130"/><use x="221.9" xlink:href="#mbe7a76446a" y="105.7"/><use x="209.3" xlink:href="#mbe7a76446a" y="126.1"/><use x="258.8" xlink:href="#mbe7a76446a" y="117.4"/><use x="274.5" xlink:href="#mbe7a76446a" y="80.9"/><use x="165.1" xlink:href="#mbe7a76446a" y="166.9"/><use x="134.4" xlink:href="#mbe7a76446a" y="167.7"/><use x="210.9" xlink:href="#mbe7a76446a" y="107.3"/><use x="246.8" xlink:href="#mbe7a76446a" y="85.4"/><use x="177.7" xlink:href="#mbe7a76446a" y="142.6"/><use x="251.9" xlink:href="#mbe7a76446a" y="104.4"/><use x="209.4" xlink:href="#mbe7a76446a" y="123.6"/><use x="212.3" xlink:href="#mbe7a76446a" y="144.9"/><use x="242.5" xlink:href="#mbe7a76446a" y="76.5"/><use x="251.4" xlink:href="#mbe7a76446a" y="109.4"/><use x="163.3" xlink:href="#mbe7a76446a" y="128"/><use x="208.7" xlink:href="#mbe7a76446a" y="123.9"/><use x="97.6" xlink:href="#mbe7a76446a" y="166.6"/><use x="178.1" xlink:href="#mbe7a76446a" y="113.6"/><use x="150.5" xlink:href="#mbe7a76446a" y="144.2"/><use x="145" xlink:href="#mbe7a76446a" y="127.6"/><use x="262.2" xlink:href="#mbe7a76446a" y="102.3"/><use x="245.1" xlink:href="#mbe7a76446a" y="92.9"/><use x="243.5" xlink:href="#mbe7a76446a" y="115"/><use x="258.6" xlink:href="#mbe7a76446a" y="111.3"/><use x="185.4" xlink:href="#mbe7a76446a" y="141.4"/><use x="179.6" xlink:href="#mbe7a76446a" y="150.5"/><use x="165" xlink:href="#mbe7a76446a" y="157.3"/><use x="174.5" xlink:href="#mbe7a76446a" y="135.3"/><use x="220.7" xlink:href="#mbe7a76446a" y="123.2"/><use x="212.4" xlink:href="#mbe7a76446a" y="127.9"/><use x="153.5" xlink:href="#mbe7a76446a" y="157.4"/><use x="249.6" xlink:href="#mbe7a76446a" y="112.4"/><use x="231" xlink:href="#mbe7a76446a" y="87"/><use x="259.1" xlink:href="#mbe7a76446a" y="78.9"/><use x="298.8" xlink:href="#mbe7a76446a" y="56.5"/><use x="161.3" xlink:href="#mbe7a76446a" y="161.2"/><use x="251.3" xlink:href="#mbe7a76446a" y="107.6"/><use x="203.5" xlink:href="#mbe7a76446a" y="130.5"/><use x="254.3" xlink:href="#mbe7a76446a" y="101.4"/><use x="219" xlink:href="#mbe7a76446a" y="126.5"/><use x="315.5" xlink:href="#mbe7a76446a" y="73.9"/><use x="204.3" xlink:href="#mbe7a76446a" y="113.7"/><use x="307.5" xlink:href="#mbe7a76446a" y="65"/><use x="211.3" xlink:href="#mbe7a76446a" y="111.4"/><use x="248.6" xlink:href="#mbe7a76446a" y="88.6"/><use x="215.6" xlink:href="#mbe7a76446a" y="132.2"/><use x="173.4" xlink:href="#mbe7a76446a" y="160.4"/><use x="238.4" xlink:href="#mbe7a76446a" y="89"/><use x="217.3" xlink:href="#mbe7a76446a" y="114.4"/></g></g><path d="M48.5 230.6V13.2" fill="none" stroke="#fff" stroke-linecap="square" stroke-width="1.3" id="patch_3"/><path d="M383.3 230.6V13.2" fill="none" stroke="#fff" stroke-linecap="square" stroke-width="1.3" id="patch_4"/><path d="M48.5 230.6h334.8" fill="none" stroke="#fff" stroke-linecap="square" stroke-width="1.3" id="patch_5"/><path d="M48.5 13.2h334.8" fill="none" stroke="#fff" stroke-linecap="square" stroke-width="1.3" id="patch_6"/><g id="legend_1"><path d="M56.2 54.3h163.3q2.2 0 2.2-2.2V20.9q0-2.2-2.2-2.2H56.2q-2.2 0-2.2 2.2v31.2q0 2.2 2.2 2.2z" fill="#eaeaf2" opacity=".8" stroke="#ccc" id="patch_7"/><use x="69.4" xlink:href="#mbe7a76446a" y="27.6" fill="#4c72b0" stroke="#4c72b0" id="line2d_18"/><g id="text_18"><defs><path d="M19.7 64.8V8.1h11.9q15 0 22 6.8 7 6.9 7 21.6 0 14.7-7 21.5-7 6.8-22 6.8zm-9.9 8.1h20.3q21.2 0 31-8.8 10-8.8 10-27.6T61 8.8Q51.1 0 30.1 0H9.8z" id="DejaVuSans-68"/><path d="M34.3 27.5q-11 0-15.1-2.5-4.2-2.5-4.2-8.5 0-4.8 3.1-7.6 3.2-2.8 8.6-2.8 7.5 0 12 5.3t4.5 14v2zm17.9 3.7V0h-9v8.3q-3-5-7.7-7.3Q31-1.4 24.3-1.4 16-1.4 11 3.3 6 8 6 15.9q0 9.2 6.2 14 6.2 4.6 18.4 4.6h12.6v1q0 6.1-4 9.5-4.1 3.4-11.5 3.4-4.7 0-9.2-1.1-4.4-1.2-8.5-3.4v8.3q5 2 9.6 2.8 4.6 1 9 1 11.9 0 17.7-6.2 5.9-6.1 5.9-18.6z" id="DejaVuSans-97"/><path d="M18.3 70.2V54.7h18.5v-7H18.3V18q0-6.7 1.8-8.6 1.9-1.9 7.5-1.9h9.2V0h-9.2Q17.2 0 13.2 3.9T9.2 18v29.7H2.8v7h6.6v15.5z" id="DejaVuSans-116"/></defs><g transform="matrix(.11 0 0 -.11 89.2 31.5)" fill="#262626"><use xlink:href="#DejaVuSans-68"/><use x="77" xlink:href="#DejaVuSans-97"/><use x="138.3" xlink:href="#DejaVuSans-116"/><use x="177.5" xlink:href="#DejaVuSans-97"/></g></g><path d="M58.4 47.6h22v-7.7h-22z" fill="#4c72b0" opacity=".2" stroke="#fff" id="patch_8"/><g id="text_19"><defs><path d="M45.4 46.4V76h9V0h-9v8.2Q42.6 3.3 38.3 1q-4.4-2.4-10.4-2.4-10 0-16.2 7.9-6.2 8-6.2 20.8 0 12.9 6.2 20.8Q18 56 28 56q6 0 10.4-2.4 4.3-2.3 7.1-7.2zM14.8 27.3q0-10 4-15.6Q23 6.2 30.2 6.2q7.1 0 11.2 5.7 4.1 5.6 4.1 15.5t-4.1 15.5q-4.1 5.7-11.2 5.7t-11.2-5.7q-4.1-5.6-4.1-15.5z" id="DejaVuSans-100"/><path d="M11 1.5v9q3.7-1.8 7.5-2.7 3.8-1 7.5-1 9.8 0 14.9 6.7 5.1 6.5 5.9 20-2.8-4.3-7.2-6.5-4.4-2.3-9.6-2.3-11 0-17.3 6.6Q6.3 38 6.3 49.4q0 11.2 6.6 18 6.7 6.8 17.7 6.8 12.7 0 19.3-9.7 6.7-9.7 6.7-28.1 0-17.3-8.2-27.5-8.2-10.3-22-10.3-3.7 0-7.5.7t-8 2.2zm19.6 31q6.6 0 10.5 4.5 4 4.5 4 12.4t-4 12.4q-3.9 4.6-10.5 4.6t-10.5-4.6q-3.9-4.5-3.9-12.4T20.1 37q3.9-4.6 10.5-4.6z" id="DejaVuSans-57"/><path d="M19.7 64.8V37.4H32q6.9 0 10.6 3.6 3.8 3.5 3.8 10.1t-3.8 10.1q-3.7 3.6-10.6 3.6zm-9.9 8.1h22.3q12.2 0 18.5-5.5Q57 61.8 57 51q0-10.8-6.3-16.3t-18.5-5.5H19.7V0H9.8z" id="DejaVuSans-80"/><path d="M41.1 46.3q-1.5.9-3.3 1.3-1.8.4-4 .4-7.5 0-11.6-5-4-5-4-14.2V0H9v54.7h9v-8.5q2.9 5 7.4 7.4Q30 56 36.5 56l2-.1 2.6-.4z" id="DejaVuSans-114"/><path d="M56.2 29.6v-4.4H14.9q.6-9.3 5.6-14.1 5-4.9 14-4.9 5 0 10 1.3 4.8 1.2 9.6 3.8V2.8q-4.8-2-10-3.1-5-1.1-10.2-1.1-13.1 0-20.7 7.6-7.7 7.6-7.7 20.6 0 13.4 7.3 21.3Q20 56 32.3 56q11 0 17.5-7.1 6.4-7.1 6.4-19.3zm-9 2.6q0 7.4-4.1 11.8-4 4.4-10.7 4.4-7.5 0-12-4.3-4.5-4.2-5.2-12z" id="DejaVuSans-101"/><path d="M72.7 32q-4.2 0-6.7-3.5-2.4-3.6-2.4-10t2.4-10q2.5-3.7 6.7-3.7t6.6 3.6q2.4 3.7 2.4 10 0 6.4-2.4 10-2.4 3.7-6.6 3.7zm0 6.3q7.7 0 12.3-5.4 4.5-5.4 4.5-14.5T84.9 4q-4.5-5.3-12.2-5.3-7.8 0-12.4 5.3-4.5 5.4-4.5 14.5 0 9.2 4.6 14.5 4.5 5.4 12.3 5.4zM22.3 68q-4.2 0-6.6-3.6-2.4-3.7-2.4-10 0-6.4 2.4-10 2.4-3.7 6.6-3.7 4.3 0 6.7 3.6 2.4 3.7 2.4 10 0 6.4-2.4 10-2.5 3.7-6.7 3.7zm44.1 6.2h7.8L28.6-1.4h-7.8zm-44 0q7.6 0 12.2-5.3 4.6-5.4 4.6-14.5 0-9.2-4.6-14.6-4.5-5.3-12.3-5.3-7.8 0-12.3 5.4-4.5 5.3-4.5 14.5 0 9 4.5 14.4 4.6 5.4 12.3 5.4z" id="DejaVuSans-37"/><path d="M9.4 54.7h9V0h-9zm0 21.3h9V64.6h-9z" id="DejaVuSans-105"/><path d="M48.8 52.6v-8.4Q45 46.3 41 47.3q-3.8 1-7.7 1-8.7 0-13.6-5.5Q15 37.3 15 27.3t4.8-15.6q4.9-5.5 13.6-5.5 4 0 7.7 1 3.9 1.1 7.7 3.2V2.1Q45 .3 41-.5q-4-1-8.6-1-12.3 0-19.6 7.8-7.3 7.8-7.3 21 0 13.4 7.4 21Q20.2 56 33 56q4.2 0 8.1-.9 4-.8 7.7-2.5z" id="DejaVuSans-99"/><path d="M3 54.7h9.5l17-45.9 17.2 45.9h9.5L35.7 0H23.5z" id="DejaVuSans-118"/><path d="M54.9 33V0h-9v32.7q0 7.8-3 11.6-3 3.9-9.1 3.9-7.3 0-11.5-4.7Q18.1 39 18.1 31V0h-9v54.7h9v-8.5q3.2 5 7.6 7.4Q30.1 56 35.8 56q9.4 0 14.2-5.8Q55 44.3 55 33z" id="DejaVuSans-110"/><path d="M9.4 76h9V0h-9z" id="DejaVuSans-108"/></defs><g transform="matrix(.11 0 0 -.11 89.2 47.6)" fill="#262626"><use xlink:href="#DejaVuSans-57"/><use x="63.6" xlink:href="#DejaVuSans-48"/><use x="127.2" xlink:href="#DejaVuSans-37"/><use x="222.3" xlink:href="#DejaVuSans-32"/><use x="254.1" xlink:href="#DejaVuSans-80"/><use x="314.3" xlink:href="#DejaVuSans-114"/><use x="355.4" xlink:href="#DejaVuSans-101"/><use x="416.9" xlink:href="#DejaVuSans-100"/><use x="480.4" xlink:href="#DejaVuSans-105"/><use x="508.2" xlink:href="#DejaVuSans-99"/><use x="563.2" xlink:href="#DejaVuSans-116"/><use x="602.4" xlink:href="#DejaVuSans-105"/><use x="630.2" xlink:href="#DejaVuSans-118"/><use x="689.4" xlink:href="#DejaVuSans-101"/><use x="750.9" xlink:href="#DejaVuSans-32"/><use x="782.7" xlink:href="#DejaVuSans-105"/><use x="810.5" xlink:href="#DejaVuSans-110"/><use x="873.8" xlink:href="#DejaVuSans-116"/><use x="913" xlink:href="#DejaVuSans-101"/><use x="974.6" xlink:href="#DejaVuSans-114"/><use x="1015.7" xlink:href="#DejaVuSans-118"/><use x="1074.9" xlink:href="#DejaVuSans-97"/><use x="1136.1" xlink:href="#DejaVuSans-108"/></g></g></g></g></g><defs><clipPath id="p5d0df29f24"><path d="M48.5 13.2h334.8v217.4H48.5z"/></clipPath></defs></svg>