<svg height="354.4" viewBox="0 0 388.1 265.8" width="517.5" xmlns="http://www.w3.org/2000/svg" xmlns:xlink="http://www.w3.org/1999/xlink"><defs><style>*{stroke-linecap:butt;stroke-linejoin:round}</style></defs><g id="figure_1"><path d="M0 265.8h388.1V0H0z" fill="none" id="patch_1"/><g id="axes_1"><path d="M42.6 228.1h334.8V10.7H42.6z" fill="#fff" id="patch_2"/><g id="matplotlib.axis_1"><g id="xtick_1"><g id="line2d_1"><defs><path d="M0 0v3.5" id="m251bf3d373" stroke="#000" stroke-width=".8"/></defs><use x="67.2" xlink:href="#m251bf3d373" y="228.1" stroke="#000" stroke-width=".8"/></g><g id="text_1"><defs><path d="M10.6 35.5h62.6v-8.3H10.6z" id="DejaVuSans-8722"/><path d="M31.8 66.4q-7.6 0-11.5-7.5-3.8-7.5-3.8-22.5t3.8-22.5q3.9-7.5 11.5-7.5 7.7 0 11.5 7.5T47 36.4q0 15-3.8 22.5t-11.5 7.5zm0 7.8q12.2 0 18.7-9.7T57 36.4Q57 18 50.5 8.3 44-1.4 31.8-1.4 19.5-1.4 13 8.3q-6.5 9.7-6.5 28 0 18.5 6.5 28.2 6.4 9.7 18.7 9.7z" id="DejaVuSans-48"/><path d="M10.7 12.4H21V0H10.7z" id="DejaVuSans-46"/><path d="M10.8 73h38.7v-8.4H19.8V46.7q2.2.8 4.3 1.1 2.2.4 4.3.4 12.2 0 19.4-6.7 7-6.7 7-18.1 0-11.8-7.2-18.3-7.4-6.5-20.7-6.5-4.6 0-9.4.8-4.7.7-9.8 2.3v10q4.4-2.5 9.1-3.6 4.7-1.2 9.9-1.2 8.5 0 13.4 4.4 5 4.5 5 12 0 7.7-5 12.1Q35 40 26.7 40q-4 0-7.9-.9-4-.9-8-2.7z" id="DejaVuSans-53"/></defs><g transform="matrix(.1 0 0 -.1 51.9 242.7)"><use xlink:href="#DejaVuSans-8722"/><use x="83.8" xlink:href="#DejaVuSans-48"/><use x="147.4" xlink:href="#DejaVuSans-46"/><use x="179.2" xlink:href="#DejaVuSans-53"/><use x="242.8" xlink:href="#DejaVuSans-48"/></g></g></g><g id="xtick_2"><use x="112.9" xlink:href="#m251bf3d373" y="228.1" stroke="#000" stroke-width=".8" id="line2d_2"/><g id="text_2"><defs><path d="M19.2 8.3h34.4V0H7.3v8.3l15.3 15.6q9.7 9.8 12.2 12.6 4.7 5.3 6.6 9 2 3.7 2 7.3 0 5.8-4.2 9.5-4 3.6-10.6 3.6-4.6 0-9.8-1.6-5.1-1.6-11-4.9v10q6 2.4 11.1 3.6 5.2 1.2 9.5 1.2 11.4 0 18-5.7 6.8-5.6 6.8-15 0-4.6-1.7-8.6-1.6-4-6-9.5l-7.9-8.2L19.2 8.3z" id="DejaVuSans-50"/></defs><g transform="matrix(.1 0 0 -.1 97.6 242.7)"><use xlink:href="#DejaVuSans-8722"/><use x="83.8" xlink:href="#DejaVuSans-48"/><use x="147.4" xlink:href="#DejaVuSans-46"/><use x="179.2" xlink:href="#DejaVuSans-50"/><use x="242.8" xlink:href="#DejaVuSans-53"/></g></g></g><g id="xtick_3"><use x="158.6" xlink:href="#m251bf3d373" y="228.1" stroke="#000" stroke-width=".8" id="line2d_3"/><g transform="matrix(.1 0 0 -.1 147.5 242.7)" id="text_3"><use xlink:href="#DejaVuSans-48"/><use x="63.6" xlink:href="#DejaVuSans-46"/><use x="95.4" xlink:href="#DejaVuSans-48"/><use x="159" xlink:href="#DejaVuSans-48"/></g></g><g id="xtick_4"><use x="204.3" xlink:href="#m251bf3d373" y="228.1" stroke="#000" stroke-width=".8" id="line2d_4"/><g transform="matrix(.1 0 0 -.1 193.2 242.7)" id="text_4"><use xlink:href="#DejaVuSans-48"/><use x="63.6" xlink:href="#DejaVuSans-46"/><use x="95.4" xlink:href="#DejaVuSans-50"/><use x="159" xlink:href="#DejaVuSans-53"/></g></g><g id="xtick_5"><use x="250" xlink:href="#m251bf3d373" y="228.1" stroke="#000" stroke-width=".8" id="line2d_5"/><g transform="matrix(.1 0 0 -.1 238.9 242.7)" id="text_5"><use xlink:href="#DejaVuSans-48"/><use x="63.6" xlink:href="#DejaVuSans-46"/><use x="95.4" xlink:href="#DejaVuSans-53"/><use x="159" xlink:href="#DejaVuSans-48"/></g></g><g id="xtick_6"><use x="295.7" xlink:href="#m251bf3d373" y="228.1" stroke="#000" stroke-width=".8" id="line2d_6"/><g id="text_6"><defs><path d="M8.2 73h46.9v-4.3L28.6 0H18.3l25 64.6H8.1z" id="DejaVuSans-55"/></defs><g transform="matrix(.1 0 0 -.1 284.6 242.7)"><use xlink:href="#DejaVuSans-48"/><use x="63.6" xlink:href="#DejaVuSans-46"/><use x="95.4" xlink:href="#DejaVuSans-55"/><use x="159" xlink:href="#DejaVuSans-53"/></g></g></g><g id="xtick_7"><use x="341.4" xlink:href="#m251bf3d373" y="228.1" stroke="#000" stroke-width=".8" id="line2d_7"/><g id="text_7"><defs><path d="M12.4 8.3h16.1v55.6L11 60.4v9l17.4 3.5h9.9V8.3h16V0H12.5z" id="DejaVuSans-49"/></defs><g transform="matrix(.1 0 0 -.1 330.3 242.7)"><use xlink:href="#DejaVuSans-49"/><use x="63.6" xlink:href="#DejaVuSans-46"/><use x="95.4" xlink:href="#DejaVuSans-48"/><use x="159" xlink:href="#DejaVuSans-48"/></g></g></g><g id="text_8"><defs><path d="M4.2 54.7h9L24.4 12l11.2 42.7h10.6L57.4 12l11.2 42.7h9L63.3 0H52.7L40.9 44.8 29.1 0H18.5z" id="DejaVuSans-119"/><path d="M51-16.6v-7H-1v7z" id="DejaVuSans-95"/></defs><g transform="matrix(.1 0 0 -.1 200.3 256.2)"><use xlink:href="#DejaVuSans-119"/><use x="81.8" xlink:href="#DejaVuSans-95"/><use x="131.8" xlink:href="#DejaVuSans-48"/></g></g></g><g id="matplotlib.axis_2"><g id="ytick_1"><g id="line2d_8"><defs><path d="M0 0h-3.5" id="m520d782ec0" stroke="#000" stroke-width=".8"/></defs><use x="42.6" xlink:href="#m520d782ec0" y="205.8" stroke="#000" stroke-width=".8"/></g><g id="text_9"><defs><path d="M40.6 39.3q7-1.5 11-6.3t4-11.8q0-10.8-7.4-16.7-7.4-6-21.1-6-4.6 0-9.4 1-4.9.9-10 2.7v9.5q4-2.4 8.9-3.6Q21.5 7 26.8 7q9.3 0 14.1 3.6 4.9 3.7 4.9 10.7 0 6.4-4.5 10Q36.8 35 28.7 35h-8.5V43h9q7.2 0 11 3 3.9 2.8 3.9 8.3 0 5.6-4 8.6t-11.4 3q-4 0-8.7-.9-4.6-.8-10.2-2.7v8.8q5.6 1.6 10.5 2.3 5 .8 9.3.8 11.2 0 17.8-5 6.5-5.2 6.5-13.9 0-6-3.5-10.2-3.4-4.2-9.8-5.8z" id="DejaVuSans-51"/></defs><g transform="matrix(.1 0 0 -.1 20.9 209.6)"><use xlink:href="#DejaVuSans-8722"/><use x="83.8" xlink:href="#DejaVuSans-51"/></g></g></g><g id="ytick_2"><use x="42.6" xlink:href="#m520d782ec0" y="166.4" stroke="#000" stroke-width=".8" id="line2d_9"/><g transform="matrix(.1 0 0 -.1 20.9 170.2)" id="text_10"><use xlink:href="#DejaVuSans-8722"/><use x="83.8" xlink:href="#DejaVuSans-50"/></g></g><g id="ytick_3"><use x="42.6" xlink:href="#m520d782ec0" y="127" stroke="#000" stroke-width=".8" id="line2d_10"/><g transform="matrix(.1 0 0 -.1 20.9 130.8)" id="text_11"><use xlink:href="#DejaVuSans-8722"/><use x="83.8" xlink:href="#DejaVuSans-49"/></g></g><g id="ytick_4"><use x="42.6" xlink:href="#m520d782ec0" y="87.6" stroke="#000" stroke-width=".8" id="line2d_11"/><use xlink:href="#DejaVuSans-48" transform="matrix(.1 0 0 -.1 29.3 91.4)" id="text_12"/></g><g id="ytick_5"><use x="42.6" xlink:href="#m520d782ec0" y="48.1" stroke="#000" stroke-width=".8" id="line2d_12"/><use xlink:href="#DejaVuSans-49" transform="matrix(.1 0 0 -.1 29.3 52)" id="text_13"/></g><g id="text_14"><defs><path d="M48.7 27.3q0 9.9-4 15.5-4.2 5.7-11.3 5.7-7.1 0-11.2-5.7-4-5.6-4-15.5 0-10 4-15.6t11.2-5.6q7.1 0 11.2 5.7 4 5.6 4 15.5zM18 46.3q2.9 5 7.2 7.3Q29.6 56 35.6 56q10 0 16.2-8Q58 40.3 58 27.4q0-12.9-6.2-20.8-6.2-8-16.2-8-6 0-10.3 2.5Q21 3.3 18 8.2V0h-9v76h9z" id="DejaVuSans-98"/></defs><use xlink:href="#DejaVuSans-98" transform="matrix(0 -.1 -.1 0 14.8 122.6)"/></g></g><path clip-path="url(#p8dcde00170)" d="M134 175.5l3.3.5 3.4.1 6.8-.2 4.1-.5 2.6-.4 3.4-1 3.4-1.2 3.4-1 3.3-.8 6.8-.7 3.4-.8 3.4-1.4 6.6-3.7h.1l4.1-2.2 2.7-1 3.6-1.1 3.2-.8 4.3-1.4 2.4-1.2 3.4-2 5-3.4 5.9-4.4 3.2-2.2 3.7-2.2 8.4-4.4.9-.5 2.3-1.7 2.3-2.2 2.1-2.6 3.4-3.4 3.5-2.8 3.3-2.2 8.5-4.4 3.3-2.2 5.3-4.4 2-2.2 1.3-2.2.8-2.2 1.7-6.5 1-2.2 1.3-2.2L282 92l.7-2.2.1-2.2-.3-2.2-.4-2.2-.8-2.2-2-2.3-3.6-2.1-3.1-2.2-1-2.2-.5-2.2-1.9-1.8-1.4-.4-2-.3-13.5-1.1-3.4-.4-10.1-2-3.4.1-3.4 1-4.8 2.7-5.3 2.3-6.8 2.5-5.2 1.8-1.6.6-8 3.8-2.1.8-6.8 1.9-4 1.7-4 2.2-12.3 7.6-3.4 2.6-1 .8-5.4 4.4-.3.2-6.8 5-6.7 4.9-1.4.8-12.2 6.7-2.5 2.1-1.4 2.2-1 2.2-1.2 4.4-1 2.2-2 2.2-1 .8-5.4 3.6-1.8 2.2-.6 2.2v2.2l.2 2.2-.1 2.2-.8 2.2-2.8 4.4-.2 2.2 3.2 4.3 1.7 2.2 2.1 2.2 1.1.8 6.8 3.8 3.3 2.6 3.4 1.7h0" fill="none" stroke="#222a2f" stroke-width="1.5" id="LineCollection_2"/><path clip-path="url(#p8dcde00170)" d="M134 164.8l3.3.7 3.4.1 6.8-.1 6.7-.2 6.8-.5 6.7-.6 3.4-.2 3.4-.5 3.4-.9 3.4-1.5 3.4-1.8 3.3-1.6 6.8-2.8 6.8-3.3.5-.3 2.8-1.3 3.4-1.7 3.4-2.1 3.4-2.3 3.4-2 6.7-3.2 5.5-2.8 1.3-.8 2.1-1.4 2.4-2.2 5.6-6 3.4-3.1 3.4-2.7 6.8-4.3 1.7-1.5 2-2.2 1.5-2.2 1.5-2.2 1.8-2.2 1.6-2.2 1.5-2.1 1-2.2.4-2.2.2-2.2.1-2.2-.2-2.2-.7-2.2-1.7-2.2-.6-.4-1.8-1.8-1.6-1.2-.9-1-2.4-2.4-2.6-2-.8-.5-3.4-.8h-3.4l-6.8.6-3.3-.2-6.8-.9h-3.4l-3.4.6-3.5 1.2-6.6 2.6L210 81l-1.7.6-3.6 1.6-3.1 1.2-3.4 1.1-3.4 1-3.4 1.3-10.1 5.3-3.4 1.9-3.4 2.3-10.4 7.8-5 4.4-2.6 2.2-3.2 2.2-7.7 4.4-3.2 2.2-2.5 2.2-1.8 2.2-1 2.2-.8 2.2-1 2.2-1.6 2.2-3.2 2.9-1.8 1.5-2.3 2.2-1.4 2.2-.4 2.2.5 2.2.9 2.2 1.2 2.4.7 2 .3 2.2v4.4l1.3 2.1 1 .8 3.4 1.8h0" fill="none" stroke="#21313c" stroke-width="1.5" id="LineCollection_3"/><path clip-path="url(#p8dcde00170)" d="M150.8 160.2l3.4.2h3.4l4.7-.3 5.4-.8 3.4-.5 4.4-1 2.4-.6 10.1-4 4.6-2 4.5-2.1 9.2-4.4 3.6-2.2 3.6-2.2 1.6-1 11-5.6 3.4-2.2 2.6-2.2 4.5-4.4 5.5-5.9 3.4-3 3.4-2.5 2.2-1.8 2-2.2 3.1-4.4 1.5-2.2 1.4-2.4.8-2 .1-2.1-1-2.5-2.5-4.1-1-2.2-.8-2.2-1.4-2.2-1-.9-3.4-1.4-3.4-.2h-6.7l-3.4-.3-3.4-.5h-3.4l-3.4.5-8.6 2.8-1.5.4-4.8 1.8-5.4 2.2-6.7 2.4-4.5 2-12.6 6.6-7 4.3-3.6 2.2-3 2.2-7.4 6.6-3.1 2.2-7 4.4-2.9 2.2-2.1 2.2-1.4 2.2-1.7 4.4-1.2 2.2-2 2.2-6 4.4-1.6 2.2-.3 2.2.8 2.2 2.3 3 1.4 1.4 5.4 5.7 1.3.9 2 .8 3.5 1 3.3.5h0" fill="none" stroke="#21394a" stroke-width="1.5" id="LineCollection_4"/><path clip-path="url(#p8dcde00170)" d="M157.6 155.7h3.6l10-1 3.3-.7 3.4-.9 10.1-3.3 3.4-1.3 8.1-3.8 4.3-2.2 1.1-.7 6.8-4.3 6.8-3.5 3.4-1.9 3.3-2 1.1-.8 2.8-2.2 4.7-4.4 4.2-4.4.8-1 9.7-10 1.7-2.2 1.4-2.2 1-2.1.4-2.2-.4-2.2-1.2-2.2L250 92l-1-2.3-1.3-2.1-2.2-1.8-1.6-.4-1.8-.2-13.5-.2-3.5.4-3.2.6-3.4.8-3.4 1-6.8 2.7-10.1 3.6-6.8 3.4-6.1 3.3-7.4 4.5-3.8 2-3.4 2.2-11.4 8.8-6.2 4.4-2.3 2.2-1.5 2.2-1 2.2-1.5 4.4-1 2.2-1.7 2.8-4.6 3.8-.5 2.2 1.7 1.9.5.3 2.9 1 3.4 1.7 3.3 3 1 .9 2.4 1.4 3.4.8h0" fill="none" stroke="#214157" stroke-width="1.5" id="LineCollection_5"/><path clip-path="url(#p8dcde00170)" d="M161 149.8l3.4.7 3.3.3h3.4l3.4-.6 3.4-.8 1.4-.3 2-.5 3.4-.7 3.3-1h.2l3.2-1.3 2-1 1.4-.7 2.8-1.4.6-.3 3.4-1.8.1-.1 3.2-2 .5-.2 3-1.8.6-.4 2.7-1.5 1.4-.7 2-1 2.1-1.2 1.3-.7 2.4-1.5 1-.7 2.2-1.5 1.1-.9 1.7-1.3 1.7-1.4.9-.8 2.4-2.2.1-.1 2-2 1.4-1.7.4-.6 1.7-2.2 1.3-1.7.4-.5 1.7-2.2 1.2-1.6.5-.6 1.6-2.2 1.3-2.2h0l.7-2.1-.3-2.2-.4-.7-1.5-1.5-1.9-1.3-2.2-1-1.1-.4-3.4-1-3.4-.5-1.6-.2-1.8-.3-3.4-.3-3.3-.1-3.4.4-1 .3-2.4.6-3.4 1-2 .6-1.4.3-3.4.7-3.3 1-.5.2-3 1-2.1 1.2-1.2.5-3.3 1.7h0l-3.5 2-.3.1-3 2.1-.2.1-3.2 2.2h-.1l-3.3 1.9-.7.3-2.7 1.5-1.2.7-2.2 1.4-1.1.8-2.3 1.6-.8.6-2.5 2-.3.2-2.8 2.2-.3.3-2.5 2-.9.7-1.6 1.4-1.8 2.2h0l-1.1 2.2-.7 2.2-.5 2.2-.4 2.2v2.2l.3 2.2 1 2.2 1.4 2 .1.2 2 2.2 1.3 1.2 1.8 1 1.6.7" fill="none" stroke="#214964" stroke-width="1.5" id="LineCollection_6"/><path clip-path="url(#p8dcde00170)" d="M164.4 145.8l3.3.8h3.4l3.4-.2 3.4-.5 3.4-.4 3.4-.5 1-.3 2.3-.8 3.2-1.4.2-.1 3.4-1.8.6-.3 2.8-1.3 1.8-1 1.6-.7 2.4-1.4 1-.5 3-1.7.3-.2 3.4-1.8.4-.2 3-1.7.8-.5 2.6-1.7.7-.5 2.7-2 .3-.2 2.9-2.2.1-.1 2.6-2 .8-.8 1.6-1.5 1.8-2.1h0l1.5-2.3 1.1-2.2.8-1.4.4-.8 1.2-2.2 1.1-2.2.6-2.2-.5-2.1-2.8-2.2h-.2l-3.2-1.2-3.4-.9-.9-.1-2.5-.5-3.3-.3-3.4.2-3.3.6h-.1l-3.4.6-3.4.6-3.4.7-1 .3-2.3.5-3.4 1.3-.9.4-2.5 1-2.1 1.1-1.3.8-2.3 1.4-1 .8-2 1.4-1.4 1.1-1.8 1.1-1.6 1-2.2 1.2-1.2.7-2.8 1.5-.6.4-3 1.8-.4.3-2.5 2-.9.6-1.7 1.5-1.6 1.5-.8.7-2.5 2.2-.1.1-2 2.1-1.4 2.2h0l-.8 2.2-.4 2.2-.1 2.2.3 2.2 1 2.2v.1l1.6 2 1.8 1.7 1 .6 2.4 1.1" fill="none" stroke="#205072" stroke-width="1.5" id="LineCollection_7"/><path clip-path="url(#p8dcde00170)" d="M174.5 142.5H181.3l3.4-.8 3.3-1.3.3-.1 3.1-1.5 1.6-.7 1.8-.7 3.4-1.3.5-.2 2.9-1.3 1.7-.9 1.6-.9 2.4-1.3 1-.6 2.9-1.6.5-.3 2.8-1.9.6-.4 2.3-1.8 1-.8 2-1.4 1.5-1.1 1.4-1 2-1.7.7-.6 2-2.2.6-1 .7-1.2.7-2.2.7-2.2.7-2.2.6-2v-.4l-.3-2-2.4-2.1-.7-.3-3.4-1.1-3.3-.5-3.4.2-3.4.5-3.4.5-3.4.5-1 .2-2.4.3-3.3.8-3.2 1-.2.1-3.4 1.5-1.1.6-2.3 1.5-1 .7-2.4 1.7-.7.5-2.6 1.9-.6.3-2.8 1.7-.9.5-2.5 1.5-1.4.7-2 1.3-1.4 1-2 1.6-.6.5-2 2.2-.8.9-1.2 1.3-2 2.2-.1.1-1.7 2.1-1 2.2-.3 2.2.3 2.2 1 2.2 1.7 2 .3.2 3 1.4 3.4.6 2.4.2h1" fill="none" stroke="#20587f" stroke-width="1.5" id="LineCollection_8"/><path clip-path="url(#p8dcde00170)" d="M177.9 138.8h3.4l3.2-.7h.2l3.3-1.4 2.2-.8 1.2-.4 3.4-.9 3-.9.4-.1 3.4-1.5 1-.6 2.3-1.2 1.8-1 1.6-1 1.8-1.2 1.6-1.2 1.3-1 2-1.7.7-.5 2.7-2.2h0l2.7-2.2.8-.7 1.4-1.5 1.3-2.2.3-2.2v-2.2l-.2-2.2-.3-2.2-2.5-1.9-3.4-.2-3.4.4-3.4.2-3.4.2-3.4.3-3.3.6-1.5.4-2 .7-3.2 1.5h-.1l-3.3 2.2h0l-3.2 2.2-.3.2-3 2-.3.3-3 2-.4.2-3.1 2-.3.1-2.6 2-.8.8-1.3 1.4-1.6 2.2-.5.7-1 1.5-1.3 2.2-.5 2.2.6 2.2 1.8 2.2.4.3 3.4 1.9h0l3.4.7" fill="none" stroke="#20608c" stroke-width="1.5" id="LineCollection_9"/><path clip-path="url(#p8dcde00170)" d="M181.3 134.1l2.5-.4.9-.2 3.3-1 3.4-.3 3.4-.5 1-.2 2.4-.6 3.4-1.4.3-.2 3-1.7.8-.5 2.6-2 .4-.2 2.6-2.2.4-.4 2-1.8 1.4-1.2 1-1 2-2.2.4-.9.6-1.3-.4-2.2-.2-.3-2-1.9-1.4-.7-3.4-1-3.4-.5H205h0l-3.3.5-3.4 1.1-1.3.6-2.1 1.1-1.8 1.1-1.6 1-1.8 1.2-1.6 1.2-1.4 1-2 1.7-.7.5-2.6 2.1-.2.1-2.3 2.2-1 1-.7 1.2-1 2.2-.7 2.2.5 2.2 2 2 .8.2 2.6.4" fill="none" stroke="#20689a" stroke-width="1.5" id="LineCollection_10"/><path clip-path="url(#p8dcde00170)" d="M194.8 127.8l3.4-.2 1.3-.5 2-.8 2.3-1.4 1.1-.8 1.7-1.4 1.7-1.7.6-.5 1.8-2.2 1-1.7.3-.5-.2-2.2v-.1l-3.5-1.8-1.8-.3-1.6-.1-1.7.1-1.6.2-3.4 1-2.2 1-1.2.6-2.4 1.6-1 1-1.2 1.2-1.1 2.2-.1 2.2 1 2.2 1.4 1.4 1.2.8 2.2.7" fill="none" stroke="#1f6fa7" stroke-width="1.5" id="LineCollection_11"/><path d="M42.6 228.1V10.7" fill="none" stroke="#000" stroke-linecap="square" stroke-width=".8" id="patch_3"/><path d="M377.4 228.1V10.7" fill="none" stroke="#000" stroke-linecap="square" stroke-width=".8" id="patch_4"/><path d="M42.6 228.1h334.8" fill="none" stroke="#000" stroke-linecap="square" stroke-width=".8" id="patch_5"/><path d="M42.6 10.7h334.8" fill="none" stroke="#000" stroke-linecap="square" stroke-width=".8" id="patch_6"/></g></g><defs><clipPath id="p8dcde00170"><path d="M42.6 10.7h334.8v217.4H42.6z"/></clipPath></defs></svg>