<?xml version="1.0" encoding="utf-8" standalone="no"?>
<!DOCTYPE svg PUBLIC "-//W3C//DTD SVG 1.1//EN"
  "http://www.w3.org/Graphics/SVG/1.1/DTD/svg11.dtd">
<!-- Created with matplotlib (https://matplotlib.org/) -->
<svg height="273.599688pt" version="1.1" viewBox="0 0 396.530156 273.599688" width="396.530156pt" xmlns="http://www.w3.org/2000/svg" xmlns:xlink="http://www.w3.org/1999/xlink">
 <defs>
  <style type="text/css">
*{stroke-linecap:butt;stroke-linejoin:round;}
  </style>
 </defs>
 <g id="figure_1">
  <g id="patch_1">
   <path d="M 0 273.599688 
L 396.530156 273.599688 
L 396.530156 0 
L 0 0 
z
" style="fill:#ffffff;"/>
  </g>
  <g id="axes_1">
   <g id="patch_2">
    <path d="M 48.530156 230.64 
L 383.330156 230.64 
L 383.330156 13.2 
L 48.530156 13.2 
z
" style="fill:#eaeaf2;"/>
   </g>
   <g id="matplotlib.axis_1">
    <g id="xtick_1">
     <g id="line2d_1">
      <path clip-path="url(#p53a7d5fa0a)" d="M 63.748338 230.64 
L 63.748338 13.2 
" style="fill:none;stroke:#ffffff;stroke-linecap:round;"/>
     </g>
     <g id="text_1">
      <!-- −3 -->
      <defs>
       <path d="M 10.59375 35.5 
L 73.1875 35.5 
L 73.1875 27.203125 
L 10.59375 27.203125 
z
" id="DejaVuSans-8722"/>
       <path d="M 40.578125 39.3125 
Q 47.65625 37.796875 51.625 33 
Q 55.609375 28.21875 55.609375 21.1875 
Q 55.609375 10.40625 48.1875 4.484375 
Q 40.765625 -1.421875 27.09375 -1.421875 
Q 22.515625 -1.421875 17.65625 -0.515625 
Q 12.796875 0.390625 7.625 2.203125 
L 7.625 11.71875 
Q 11.71875 9.328125 16.59375 8.109375 
Q 21.484375 6.890625 26.8125 6.890625 
Q 36.078125 6.890625 40.9375 10.546875 
Q 45.796875 14.203125 45.796875 21.1875 
Q 45.796875 27.640625 41.28125 31.265625 
Q 36.765625 34.90625 28.71875 34.90625 
L 20.21875 34.90625 
L 20.21875 43.015625 
L 29.109375 43.015625 
Q 36.375 43.015625 40.234375 45.921875 
Q 44.09375 48.828125 44.09375 54.296875 
Q 44.09375 59.90625 40.109375 62.90625 
Q 36.140625 65.921875 28.71875 65.921875 
Q 24.65625 65.921875 20.015625 65.03125 
Q 15.375 64.15625 9.8125 62.3125 
L 9.8125 71.09375 
Q 15.4375 72.65625 20.34375 73.4375 
Q 25.25 74.21875 29.59375 74.21875 
Q 40.828125 74.21875 47.359375 69.109375 
Q 53.90625 64.015625 53.90625 55.328125 
Q 53.90625 49.265625 50.4375 45.09375 
Q 46.96875 40.921875 40.578125 39.3125 
z
" id="DejaVuSans-51"/>
      </defs>
      <g style="fill:#262626;" transform="translate(55.640135 248.498281)scale(0.11 -0.11)">
       <use xlink:href="#DejaVuSans-8722"/>
       <use x="83.789062" xlink:href="#DejaVuSans-51"/>
      </g>
     </g>
    </g>
    <g id="xtick_2">
     <g id="line2d_2">
      <path clip-path="url(#p53a7d5fa0a)" d="M 112.454751 230.64 
L 112.454751 13.2 
" style="fill:none;stroke:#ffffff;stroke-linecap:round;"/>
     </g>
     <g id="text_2">
      <!-- −2 -->
      <defs>
       <path d="M 19.1875 8.296875 
L 53.609375 8.296875 
L 53.609375 0 
L 7.328125 0 
L 7.328125 8.296875 
Q 12.9375 14.109375 22.625 23.890625 
Q 32.328125 33.6875 34.8125 36.53125 
Q 39.546875 41.84375 41.421875 45.53125 
Q 43.3125 49.21875 43.3125 52.78125 
Q 43.3125 58.59375 39.234375 62.25 
Q 35.15625 65.921875 28.609375 65.921875 
Q 23.96875 65.921875 18.8125 64.3125 
Q 13.671875 62.703125 7.8125 59.421875 
L 7.8125 69.390625 
Q 13.765625 71.78125 18.9375 73 
Q 24.125 74.21875 28.421875 74.21875 
Q 39.75 74.21875 46.484375 68.546875 
Q 53.21875 62.890625 53.21875 53.421875 
Q 53.21875 48.921875 51.53125 44.890625 
Q 49.859375 40.875 45.40625 35.40625 
Q 44.1875 33.984375 37.640625 27.21875 
Q 31.109375 20.453125 19.1875 8.296875 
z
" id="DejaVuSans-50"/>
      </defs>
      <g style="fill:#262626;" transform="translate(104.346548 248.498281)scale(0.11 -0.11)">
       <use xlink:href="#DejaVuSans-8722"/>
       <use x="83.789062" xlink:href="#DejaVuSans-50"/>
      </g>
     </g>
    </g>
    <g id="xtick_3">
     <g id="line2d_3">
      <path clip-path="url(#p53a7d5fa0a)" d="M 161.161164 230.64 
L 161.161164 13.2 
" style="fill:none;stroke:#ffffff;stroke-linecap:round;"/>
     </g>
     <g id="text_3">
      <!-- −1 -->
      <defs>
       <path d="M 12.40625 8.296875 
L 28.515625 8.296875 
L 28.515625 63.921875 
L 10.984375 60.40625 
L 10.984375 69.390625 
L 28.421875 72.90625 
L 38.28125 72.90625 
L 38.28125 8.296875 
L 54.390625 8.296875 
L 54.390625 0 
L 12.40625 0 
z
" id="DejaVuSans-49"/>
      </defs>
      <g style="fill:#262626;" transform="translate(153.05296 248.498281)scale(0.11 -0.11)">
       <use xlink:href="#DejaVuSans-8722"/>
       <use x="83.789062" xlink:href="#DejaVuSans-49"/>
      </g>
     </g>
    </g>
    <g id="xtick_4">
     <g id="line2d_4">
      <path clip-path="url(#p53a7d5fa0a)" d="M 209.867576 230.64 
L 209.867576 13.2 
" style="fill:none;stroke:#ffffff;stroke-linecap:round;"/>
     </g>
     <g id="text_4">
      <!-- 0 -->
      <defs>
       <path d="M 31.78125 66.40625 
Q 24.171875 66.40625 20.328125 58.90625 
Q 16.5 51.421875 16.5 36.375 
Q 16.5 21.390625 20.328125 13.890625 
Q 24.171875 6.390625 31.78125 6.390625 
Q 39.453125 6.390625 43.28125 13.890625 
Q 47.125 21.390625 47.125 36.375 
Q 47.125 51.421875 43.28125 58.90625 
Q 39.453125 66.40625 31.78125 66.40625 
z
M 31.78125 74.21875 
Q 44.046875 74.21875 50.515625 64.515625 
Q 56.984375 54.828125 56.984375 36.375 
Q 56.984375 17.96875 50.515625 8.265625 
Q 44.046875 -1.421875 31.78125 -1.421875 
Q 19.53125 -1.421875 13.0625 8.265625 
Q 6.59375 17.96875 6.59375 36.375 
Q 6.59375 54.828125 13.0625 64.515625 
Q 19.53125 74.21875 31.78125 74.21875 
z
" id="DejaVuSans-48"/>
      </defs>
      <g style="fill:#262626;" transform="translate(206.368201 248.498281)scale(0.11 -0.11)">
       <use xlink:href="#DejaVuSans-48"/>
      </g>
     </g>
    </g>
    <g id="xtick_5">
     <g id="line2d_5">
      <path clip-path="url(#p53a7d5fa0a)" d="M 258.573989 230.64 
L 258.573989 13.2 
" style="fill:none;stroke:#ffffff;stroke-linecap:round;"/>
     </g>
     <g id="text_5">
      <!-- 1 -->
      <g style="fill:#262626;" transform="translate(255.074614 248.498281)scale(0.11 -0.11)">
       <use xlink:href="#DejaVuSans-49"/>
      </g>
     </g>
    </g>
    <g id="xtick_6">
     <g id="line2d_6">
      <path clip-path="url(#p53a7d5fa0a)" d="M 307.280402 230.64 
L 307.280402 13.2 
" style="fill:none;stroke:#ffffff;stroke-linecap:round;"/>
     </g>
     <g id="text_6">
      <!-- 2 -->
      <g style="fill:#262626;" transform="translate(303.781027 248.498281)scale(0.11 -0.11)">
       <use xlink:href="#DejaVuSans-50"/>
      </g>
     </g>
    </g>
    <g id="xtick_7">
     <g id="line2d_7">
      <path clip-path="url(#p53a7d5fa0a)" d="M 355.986815 230.64 
L 355.986815 13.2 
" style="fill:none;stroke:#ffffff;stroke-linecap:round;"/>
     </g>
     <g id="text_7">
      <!-- 3 -->
      <g style="fill:#262626;" transform="translate(352.48744 248.498281)scale(0.11 -0.11)">
       <use xlink:href="#DejaVuSans-51"/>
      </g>
     </g>
    </g>
    <g id="text_8">
     <!-- x -->
     <defs>
      <path d="M 54.890625 54.6875 
L 35.109375 28.078125 
L 55.90625 0 
L 45.3125 0 
L 29.390625 21.484375 
L 13.484375 0 
L 2.875 0 
L 24.125 28.609375 
L 4.6875 54.6875 
L 15.28125 54.6875 
L 29.78125 35.203125 
L 44.28125 54.6875 
z
" id="DejaVuSans-120"/>
     </defs>
     <g style="fill:#262626;" transform="translate(212.378906 263.904063)scale(0.12 -0.12)">
      <use xlink:href="#DejaVuSans-120"/>
     </g>
    </g>
   </g>
   <g id="matplotlib.axis_2">
    <g id="ytick_1">
     <g id="line2d_8">
      <path clip-path="url(#p53a7d5fa0a)" d="M 48.530156 207.434765 
L 383.330156 207.434765 
" style="fill:none;stroke:#ffffff;stroke-linecap:round;"/>
     </g>
     <g id="text_9">
      <!-- −6 -->
      <defs>
       <path d="M 33.015625 40.375 
Q 26.375 40.375 22.484375 35.828125 
Q 18.609375 31.296875 18.609375 23.390625 
Q 18.609375 15.53125 22.484375 10.953125 
Q 26.375 6.390625 33.015625 6.390625 
Q 39.65625 6.390625 43.53125 10.953125 
Q 47.40625 15.53125 47.40625 23.390625 
Q 47.40625 31.296875 43.53125 35.828125 
Q 39.65625 40.375 33.015625 40.375 
z
M 52.59375 71.296875 
L 52.59375 62.3125 
Q 48.875 64.0625 45.09375 64.984375 
Q 41.3125 65.921875 37.59375 65.921875 
Q 27.828125 65.921875 22.671875 59.328125 
Q 17.53125 52.734375 16.796875 39.40625 
Q 19.671875 43.65625 24.015625 45.921875 
Q 28.375 48.1875 33.59375 48.1875 
Q 44.578125 48.1875 50.953125 41.515625 
Q 57.328125 34.859375 57.328125 23.390625 
Q 57.328125 12.15625 50.6875 5.359375 
Q 44.046875 -1.421875 33.015625 -1.421875 
Q 20.359375 -1.421875 13.671875 8.265625 
Q 6.984375 17.96875 6.984375 36.375 
Q 6.984375 53.65625 15.1875 63.9375 
Q 23.390625 74.21875 37.203125 74.21875 
Q 40.921875 74.21875 44.703125 73.484375 
Q 48.484375 72.75 52.59375 71.296875 
z
" id="DejaVuSans-54"/>
      </defs>
      <g style="fill:#262626;" transform="translate(22.81375 211.613906)scale(0.11 -0.11)">
       <use xlink:href="#DejaVuSans-8722"/>
       <use x="83.789062" xlink:href="#DejaVuSans-54"/>
      </g>
     </g>
    </g>
    <g id="ytick_2">
     <g id="line2d_9">
      <path clip-path="url(#p53a7d5fa0a)" d="M 48.530156 176.324575 
L 383.330156 176.324575 
" style="fill:none;stroke:#ffffff;stroke-linecap:round;"/>
     </g>
     <g id="text_10">
      <!-- −4 -->
      <defs>
       <path d="M 37.796875 64.3125 
L 12.890625 25.390625 
L 37.796875 25.390625 
z
M 35.203125 72.90625 
L 47.609375 72.90625 
L 47.609375 25.390625 
L 58.015625 25.390625 
L 58.015625 17.1875 
L 47.609375 17.1875 
L 47.609375 0 
L 37.796875 0 
L 37.796875 17.1875 
L 4.890625 17.1875 
L 4.890625 26.703125 
z
" id="DejaVuSans-52"/>
      </defs>
      <g style="fill:#262626;" transform="translate(22.81375 180.503715)scale(0.11 -0.11)">
       <use xlink:href="#DejaVuSans-8722"/>
       <use x="83.789062" xlink:href="#DejaVuSans-52"/>
      </g>
     </g>
    </g>
    <g id="ytick_3">
     <g id="line2d_10">
      <path clip-path="url(#p53a7d5fa0a)" d="M 48.530156 145.214384 
L 383.330156 145.214384 
" style="fill:none;stroke:#ffffff;stroke-linecap:round;"/>
     </g>
     <g id="text_11">
      <!-- −2 -->
      <g style="fill:#262626;" transform="translate(22.81375 149.393525)scale(0.11 -0.11)">
       <use xlink:href="#DejaVuSans-8722"/>
       <use x="83.789062" xlink:href="#DejaVuSans-50"/>
      </g>
     </g>
    </g>
    <g id="ytick_4">
     <g id="line2d_11">
      <path clip-path="url(#p53a7d5fa0a)" d="M 48.530156 114.104194 
L 383.330156 114.104194 
" style="fill:none;stroke:#ffffff;stroke-linecap:round;"/>
     </g>
     <g id="text_12">
      <!-- 0 -->
      <g style="fill:#262626;" transform="translate(32.031406 118.283335)scale(0.11 -0.11)">
       <use xlink:href="#DejaVuSans-48"/>
      </g>
     </g>
    </g>
    <g id="ytick_5">
     <g id="line2d_12">
      <path clip-path="url(#p53a7d5fa0a)" d="M 48.530156 82.994004 
L 383.330156 82.994004 
" style="fill:none;stroke:#ffffff;stroke-linecap:round;"/>
     </g>
     <g id="text_13">
      <!-- 2 -->
      <g style="fill:#262626;" transform="translate(32.031406 87.173145)scale(0.11 -0.11)">
       <use xlink:href="#DejaVuSans-50"/>
      </g>
     </g>
    </g>
    <g id="ytick_6">
     <g id="line2d_13">
      <path clip-path="url(#p53a7d5fa0a)" d="M 48.530156 51.883814 
L 383.330156 51.883814 
" style="fill:none;stroke:#ffffff;stroke-linecap:round;"/>
     </g>
     <g id="text_14">
      <!-- 4 -->
      <g style="fill:#262626;" transform="translate(32.031406 56.062955)scale(0.11 -0.11)">
       <use xlink:href="#DejaVuSans-52"/>
      </g>
     </g>
    </g>
    <g id="ytick_7">
     <g id="line2d_14">
      <path clip-path="url(#p53a7d5fa0a)" d="M 48.530156 20.773624 
L 383.330156 20.773624 
" style="fill:none;stroke:#ffffff;stroke-linecap:round;"/>
     </g>
     <g id="text_15">
      <!-- 6 -->
      <g style="fill:#262626;" transform="translate(32.031406 24.952764)scale(0.11 -0.11)">
       <use xlink:href="#DejaVuSans-54"/>
      </g>
     </g>
    </g>
    <g id="text_16">
     <!-- y -->
     <defs>
      <path d="M 32.171875 -5.078125 
Q 28.375 -14.84375 24.75 -17.8125 
Q 21.140625 -20.796875 15.09375 -20.796875 
L 7.90625 -20.796875 
L 7.90625 -13.28125 
L 13.1875 -13.28125 
Q 16.890625 -13.28125 18.9375 -11.515625 
Q 21 -9.765625 23.484375 -3.21875 
L 25.09375 0.875 
L 2.984375 54.6875 
L 12.5 54.6875 
L 29.59375 11.921875 
L 46.6875 54.6875 
L 56.203125 54.6875 
z
" id="DejaVuSans-121"/>
     </defs>
     <g style="fill:#262626;" transform="translate(16.318125 125.47125)rotate(-90)scale(0.12 -0.12)">
      <use xlink:href="#DejaVuSans-121"/>
     </g>
    </g>
   </g>
   <g id="line2d_15">
    <path clip-path="url(#p53a7d5fa0a)" d="M 63.748338 220.756364 
L 355.986815 40.008549 
" style="fill:none;stroke:#c44e52;stroke-linecap:round;stroke-width:1.5;"/>
   </g>
   <g id="line2d_16">
    <defs>
     <path d="M 0 1.5 
C 0.397805 1.5 0.77937 1.341951 1.06066 1.06066 
C 1.341951 0.77937 1.5 0.397805 1.5 0 
C 1.5 -0.397805 1.341951 -0.77937 1.06066 -1.06066 
C 0.77937 -1.341951 0.397805 -1.5 0 -1.5 
C -0.397805 -1.5 -0.77937 -1.341951 -1.06066 -1.06066 
C -1.341951 -0.77937 -1.5 -0.397805 -1.5 0 
C -1.5 0.397805 -1.341951 0.77937 -1.06066 1.06066 
C -0.77937 1.341951 -0.397805 1.5 0 1.5 
z
" id="m65efba4556" style="stroke:#4c72b0;"/>
    </defs>
    <g clip-path="url(#p53a7d5fa0a)">
     <use style="fill:#4c72b0;stroke:#4c72b0;" x="199.897001" xlink:href="#m65efba4556" y="160.381728"/>
     <use style="fill:#4c72b0;stroke:#4c72b0;" x="233.195189" xlink:href="#m65efba4556" y="123.509637"/>
     <use style="fill:#4c72b0;stroke:#4c72b0;" x="184.567579" xlink:href="#m65efba4556" y="146.32722"/>
     <use style="fill:#4c72b0;stroke:#4c72b0;" x="182.799948" xlink:href="#m65efba4556" y="161.398944"/>
     <use style="fill:#4c72b0;stroke:#4c72b0;" x="305.613698" xlink:href="#m65efba4556" y="76.009943"/>
     <use style="fill:#4c72b0;stroke:#4c72b0;" x="277.735374" xlink:href="#m65efba4556" y="86.874257"/>
     <use style="fill:#4c72b0;stroke:#4c72b0;" x="214.392786" xlink:href="#m65efba4556" y="109.730011"/>
     <use style="fill:#4c72b0;stroke:#4c72b0;" x="223.590421" xlink:href="#m65efba4556" y="105.635677"/>
     <use style="fill:#4c72b0;stroke:#4c72b0;" x="247.323908" xlink:href="#m65efba4556" y="114.904387"/>
     <use style="fill:#4c72b0;stroke:#4c72b0;" x="270.576939" xlink:href="#m65efba4556" y="66.278974"/>
     <use style="fill:#4c72b0;stroke:#4c72b0;" x="258.924159" xlink:href="#m65efba4556" y="106.549956"/>
     <use style="fill:#4c72b0;stroke:#4c72b0;" x="146.733295" xlink:href="#m65efba4556" y="162.876267"/>
     <use style="fill:#4c72b0;stroke:#4c72b0;" x="223.261432" xlink:href="#m65efba4556" y="106.638495"/>
     <use style="fill:#4c72b0;stroke:#4c72b0;" x="221.017101" xlink:href="#m65efba4556" y="146.947921"/>
     <use style="fill:#4c72b0;stroke:#4c72b0;" x="275.763302" xlink:href="#m65efba4556" y="103.474671"/>
     <use style="fill:#4c72b0;stroke:#4c72b0;" x="253.042371" xlink:href="#m65efba4556" y="108.348314"/>
     <use style="fill:#4c72b0;stroke:#4c72b0;" x="112.375008" xlink:href="#m65efba4556" y="188.500913"/>
     <use style="fill:#4c72b0;stroke:#4c72b0;" x="191.75646" xlink:href="#m65efba4556" y="144.235753"/>
     <use style="fill:#4c72b0;stroke:#4c72b0;" x="291.159812" xlink:href="#m65efba4556" y="67.326775"/>
     <use style="fill:#4c72b0;stroke:#4c72b0;" x="188.506418" xlink:href="#m65efba4556" y="168.953392"/>
     <use style="fill:#4c72b0;stroke:#4c72b0;" x="183.578706" xlink:href="#m65efba4556" y="181.493224"/>
     <use style="fill:#4c72b0;stroke:#4c72b0;" x="233.099805" xlink:href="#m65efba4556" y="132.970382"/>
     <use style="fill:#4c72b0;stroke:#4c72b0;" x="368.111974" xlink:href="#m65efba4556" y="23.083636"/>
     <use style="fill:#4c72b0;stroke:#4c72b0;" x="160.127249" xlink:href="#m65efba4556" y="150.508482"/>
     <use style="fill:#4c72b0;stroke:#4c72b0;" x="181.759725" xlink:href="#m65efba4556" y="151.883536"/>
     <use style="fill:#4c72b0;stroke:#4c72b0;" x="215.913079" xlink:href="#m65efba4556" y="127.962223"/>
     <use style="fill:#4c72b0;stroke:#4c72b0;" x="224.606797" xlink:href="#m65efba4556" y="118.570306"/>
     <use style="fill:#4c72b0;stroke:#4c72b0;" x="235.378635" xlink:href="#m65efba4556" y="122.799508"/>
     <use style="fill:#4c72b0;stroke:#4c72b0;" x="209.913374" xlink:href="#m65efba4556" y="136.117514"/>
     <use style="fill:#4c72b0;stroke:#4c72b0;" x="275.319733" xlink:href="#m65efba4556" y="88.117655"/>
     <use style="fill:#4c72b0;stroke:#4c72b0;" x="175.113407" xlink:href="#m65efba4556" y="170.899474"/>
     <use style="fill:#4c72b0;stroke:#4c72b0;" x="169.38507" xlink:href="#m65efba4556" y="183.528873"/>
     <use style="fill:#4c72b0;stroke:#4c72b0;" x="94.422096" xlink:href="#m65efba4556" y="177.969171"/>
     <use style="fill:#4c72b0;stroke:#4c72b0;" x="119.236592" xlink:href="#m65efba4556" y="172.163788"/>
     <use style="fill:#4c72b0;stroke:#4c72b0;" x="167.943171" xlink:href="#m65efba4556" y="149.314312"/>
     <use style="fill:#4c72b0;stroke:#4c72b0;" x="237.150245" xlink:href="#m65efba4556" y="103.597583"/>
     <use style="fill:#4c72b0;stroke:#4c72b0;" x="148.20845" xlink:href="#m65efba4556" y="148.716601"/>
     <use style="fill:#4c72b0;stroke:#4c72b0;" x="215.703926" xlink:href="#m65efba4556" y="132.784298"/>
     <use style="fill:#4c72b0;stroke:#4c72b0;" x="158.0677" xlink:href="#m65efba4556" y="167.432897"/>
     <use style="fill:#4c72b0;stroke:#4c72b0;" x="226.081099" xlink:href="#m65efba4556" y="111.544496"/>
     <use style="fill:#4c72b0;stroke:#4c72b0;" x="94.948747" xlink:href="#m65efba4556" y="215.878515"/>
     <use style="fill:#4c72b0;stroke:#4c72b0;" x="200.148555" xlink:href="#m65efba4556" y="115.325581"/>
     <use style="fill:#4c72b0;stroke:#4c72b0;" x="134.762506" xlink:href="#m65efba4556" y="169.729622"/>
     <use style="fill:#4c72b0;stroke:#4c72b0;" x="162.586513" xlink:href="#m65efba4556" y="170.023352"/>
     <use style="fill:#4c72b0;stroke:#4c72b0;" x="146.206824" xlink:href="#m65efba4556" y="167.412763"/>
     <use style="fill:#4c72b0;stroke:#4c72b0;" x="223.814645" xlink:href="#m65efba4556" y="126.844218"/>
     <use style="fill:#4c72b0;stroke:#4c72b0;" x="228.277826" xlink:href="#m65efba4556" y="122.135675"/>
     <use style="fill:#4c72b0;stroke:#4c72b0;" x="173.148468" xlink:href="#m65efba4556" y="153.379476"/>
     <use style="fill:#4c72b0;stroke:#4c72b0;" x="226.003312" xlink:href="#m65efba4556" y="108.770476"/>
     <use style="fill:#4c72b0;stroke:#4c72b0;" x="275.608676" xlink:href="#m65efba4556" y="77.783099"/>
     <use style="fill:#4c72b0;stroke:#4c72b0;" x="213.271019" xlink:href="#m65efba4556" y="139.263366"/>
     <use style="fill:#4c72b0;stroke:#4c72b0;" x="221.882187" xlink:href="#m65efba4556" y="110.815317"/>
     <use style="fill:#4c72b0;stroke:#4c72b0;" x="209.28984" xlink:href="#m65efba4556" y="134.761302"/>
     <use style="fill:#4c72b0;stroke:#4c72b0;" x="258.808347" xlink:href="#m65efba4556" y="124.497595"/>
     <use style="fill:#4c72b0;stroke:#4c72b0;" x="274.510463" xlink:href="#m65efba4556" y="81.728206"/>
     <use style="fill:#4c72b0;stroke:#4c72b0;" x="165.093643" xlink:href="#m65efba4556" y="182.581816"/>
     <use style="fill:#4c72b0;stroke:#4c72b0;" x="134.416157" xlink:href="#m65efba4556" y="183.568592"/>
     <use style="fill:#4c72b0;stroke:#4c72b0;" x="210.948109" xlink:href="#m65efba4556" y="112.699853"/>
     <use style="fill:#4c72b0;stroke:#4c72b0;" x="246.804724" xlink:href="#m65efba4556" y="87.089962"/>
     <use style="fill:#4c72b0;stroke:#4c72b0;" x="177.695807" xlink:href="#m65efba4556" y="154.06131"/>
     <use style="fill:#4c72b0;stroke:#4c72b0;" x="251.880757" xlink:href="#m65efba4556" y="109.29879"/>
     <use style="fill:#4c72b0;stroke:#4c72b0;" x="209.378958" xlink:href="#m65efba4556" y="131.787394"/>
     <use style="fill:#4c72b0;stroke:#4c72b0;" x="212.303353" xlink:href="#m65efba4556" y="156.799335"/>
     <use style="fill:#4c72b0;stroke:#4c72b0;" x="242.511374" xlink:href="#m65efba4556" y="76.629806"/>
     <use style="fill:#4c72b0;stroke:#4c72b0;" x="251.412445" xlink:href="#m65efba4556" y="115.209187"/>
     <use style="fill:#4c72b0;stroke:#4c72b0;" x="163.310634" xlink:href="#m65efba4556" y="136.994619"/>
     <use style="fill:#4c72b0;stroke:#4c72b0;" x="208.723301" xlink:href="#m65efba4556" y="132.109902"/>
     <use style="fill:#4c72b0;stroke:#4c72b0;" x="97.636614" xlink:href="#m65efba4556" y="182.25232"/>
     <use style="fill:#4c72b0;stroke:#4c72b0;" x="178.088159" xlink:href="#m65efba4556" y="120.07974"/>
     <use style="fill:#4c72b0;stroke:#4c72b0;" x="150.528456" xlink:href="#m65efba4556" y="155.95006"/>
     <use style="fill:#4c72b0;stroke:#4c72b0;" x="144.960941" xlink:href="#m65efba4556" y="136.512236"/>
     <use style="fill:#4c72b0;stroke:#4c72b0;" x="262.20859" xlink:href="#m65efba4556" y="106.795713"/>
     <use style="fill:#4c72b0;stroke:#4c72b0;" x="245.113559" xlink:href="#m65efba4556" y="95.832373"/>
     <use style="fill:#4c72b0;stroke:#4c72b0;" x="243.475091" xlink:href="#m65efba4556" y="121.70639"/>
     <use style="fill:#4c72b0;stroke:#4c72b0;" x="258.649163" xlink:href="#m65efba4556" y="117.382649"/>
     <use style="fill:#4c72b0;stroke:#4c72b0;" x="185.363994" xlink:href="#m65efba4556" y="152.631142"/>
     <use style="fill:#4c72b0;stroke:#4c72b0;" x="179.558831" xlink:href="#m65efba4556" y="163.317248"/>
     <use style="fill:#4c72b0;stroke:#4c72b0;" x="165.000757" xlink:href="#m65efba4556" y="171.365047"/>
     <use style="fill:#4c72b0;stroke:#4c72b0;" x="174.496321" xlink:href="#m65efba4556" y="145.483045"/>
     <use style="fill:#4c72b0;stroke:#4c72b0;" x="220.724019" xlink:href="#m65efba4556" y="131.401671"/>
     <use style="fill:#4c72b0;stroke:#4c72b0;" x="212.367" xlink:href="#m65efba4556" y="136.88965"/>
     <use style="fill:#4c72b0;stroke:#4c72b0;" x="153.479213" xlink:href="#m65efba4556" y="171.472638"/>
     <use style="fill:#4c72b0;stroke:#4c72b0;" x="249.646442" xlink:href="#m65efba4556" y="118.664061"/>
     <use style="fill:#4c72b0;stroke:#4c72b0;" x="230.987145" xlink:href="#m65efba4556" y="88.868735"/>
     <use style="fill:#4c72b0;stroke:#4c72b0;" x="259.096947" xlink:href="#m65efba4556" y="79.396361"/>
     <use style="fill:#4c72b0;stroke:#4c72b0;" x="298.750703" xlink:href="#m65efba4556" y="53.131718"/>
     <use style="fill:#4c72b0;stroke:#4c72b0;" x="161.282041" xlink:href="#m65efba4556" y="175.848818"/>
     <use style="fill:#4c72b0;stroke:#4c72b0;" x="251.296819" xlink:href="#m65efba4556" y="113.0702"/>
     <use style="fill:#4c72b0;stroke:#4c72b0;" x="203.458904" xlink:href="#m65efba4556" y="139.907856"/>
     <use style="fill:#4c72b0;stroke:#4c72b0;" x="254.307996" xlink:href="#m65efba4556" y="105.776115"/>
     <use style="fill:#4c72b0;stroke:#4c72b0;" x="219.034643" xlink:href="#m65efba4556" y="135.226082"/>
     <use style="fill:#4c72b0;stroke:#4c72b0;" x="315.534263" xlink:href="#m65efba4556" y="73.498889"/>
     <use style="fill:#4c72b0;stroke:#4c72b0;" x="204.269836" xlink:href="#m65efba4556" y="120.187501"/>
     <use style="fill:#4c72b0;stroke:#4c72b0;" x="307.460489" xlink:href="#m65efba4556" y="63.172334"/>
     <use style="fill:#4c72b0;stroke:#4c72b0;" x="211.309781" xlink:href="#m65efba4556" y="117.519865"/>
     <use style="fill:#4c72b0;stroke:#4c72b0;" x="248.601505" xlink:href="#m65efba4556" y="90.748391"/>
     <use style="fill:#4c72b0;stroke:#4c72b0;" x="215.620279" xlink:href="#m65efba4556" y="141.86511"/>
     <use style="fill:#4c72b0;stroke:#4c72b0;" x="173.409291" xlink:href="#m65efba4556" y="174.932068"/>
     <use style="fill:#4c72b0;stroke:#4c72b0;" x="238.359355" xlink:href="#m65efba4556" y="91.29191"/>
     <use style="fill:#4c72b0;stroke:#4c72b0;" x="217.303904" xlink:href="#m65efba4556" y="120.985327"/>
    </g>
   </g>
   <g id="patch_3">
    <path d="M 48.530156 230.64 
L 48.530156 13.2 
" style="fill:none;stroke:#ffffff;stroke-linecap:square;stroke-linejoin:miter;stroke-width:1.25;"/>
   </g>
   <g id="patch_4">
    <path d="M 383.330156 230.64 
L 383.330156 13.2 
" style="fill:none;stroke:#ffffff;stroke-linecap:square;stroke-linejoin:miter;stroke-width:1.25;"/>
   </g>
   <g id="patch_5">
    <path d="M 48.530156 230.64 
L 383.330156 230.64 
" style="fill:none;stroke:#ffffff;stroke-linecap:square;stroke-linejoin:miter;stroke-width:1.25;"/>
   </g>
   <g id="patch_6">
    <path d="M 48.530156 13.2 
L 383.330156 13.2 
" style="fill:none;stroke:#ffffff;stroke-linecap:square;stroke-linejoin:miter;stroke-width:1.25;"/>
   </g>
   <g id="legend_1">
    <g id="patch_7">
     <path d="M 56.230156 54.291875 
L 146.505781 54.291875 
Q 148.705781 54.291875 148.705781 52.091875 
L 148.705781 20.9 
Q 148.705781 18.7 146.505781 18.7 
L 56.230156 18.7 
Q 54.030156 18.7 54.030156 20.9 
L 54.030156 52.091875 
Q 54.030156 54.291875 56.230156 54.291875 
z
" style="fill:#eaeaf2;opacity:0.8;stroke:#cccccc;stroke-linejoin:miter;"/>
    </g>
    <g id="line2d_17">
     <path d="M 58.430156 27.608281 
L 80.430156 27.608281 
" style="fill:none;stroke:#c44e52;stroke-linecap:round;stroke-width:1.5;"/>
    </g>
    <g id="line2d_18"/>
    <g id="text_17">
     <!-- Prediction -->
     <defs>
      <path d="M 19.671875 64.796875 
L 19.671875 37.40625 
L 32.078125 37.40625 
Q 38.96875 37.40625 42.71875 40.96875 
Q 46.484375 44.53125 46.484375 51.125 
Q 46.484375 57.671875 42.71875 61.234375 
Q 38.96875 64.796875 32.078125 64.796875 
z
M 9.8125 72.90625 
L 32.078125 72.90625 
Q 44.34375 72.90625 50.609375 67.359375 
Q 56.890625 61.8125 56.890625 51.125 
Q 56.890625 40.328125 50.609375 34.8125 
Q 44.34375 29.296875 32.078125 29.296875 
L 19.671875 29.296875 
L 19.671875 0 
L 9.8125 0 
z
" id="DejaVuSans-80"/>
      <path d="M 41.109375 46.296875 
Q 39.59375 47.171875 37.8125 47.578125 
Q 36.03125 48 33.890625 48 
Q 26.265625 48 22.1875 43.046875 
Q 18.109375 38.09375 18.109375 28.8125 
L 18.109375 0 
L 9.078125 0 
L 9.078125 54.6875 
L 18.109375 54.6875 
L 18.109375 46.1875 
Q 20.953125 51.171875 25.484375 53.578125 
Q 30.03125 56 36.53125 56 
Q 37.453125 56 38.578125 55.875 
Q 39.703125 55.765625 41.0625 55.515625 
z
" id="DejaVuSans-114"/>
      <path d="M 56.203125 29.59375 
L 56.203125 25.203125 
L 14.890625 25.203125 
Q 15.484375 15.921875 20.484375 11.0625 
Q 25.484375 6.203125 34.421875 6.203125 
Q 39.59375 6.203125 44.453125 7.46875 
Q 49.3125 8.734375 54.109375 11.28125 
L 54.109375 2.78125 
Q 49.265625 0.734375 44.1875 -0.34375 
Q 39.109375 -1.421875 33.890625 -1.421875 
Q 20.796875 -1.421875 13.15625 6.1875 
Q 5.515625 13.8125 5.515625 26.8125 
Q 5.515625 40.234375 12.765625 48.109375 
Q 20.015625 56 32.328125 56 
Q 43.359375 56 49.78125 48.890625 
Q 56.203125 41.796875 56.203125 29.59375 
z
M 47.21875 32.234375 
Q 47.125 39.59375 43.09375 43.984375 
Q 39.0625 48.390625 32.421875 48.390625 
Q 24.90625 48.390625 20.390625 44.140625 
Q 15.875 39.890625 15.1875 32.171875 
z
" id="DejaVuSans-101"/>
      <path d="M 45.40625 46.390625 
L 45.40625 75.984375 
L 54.390625 75.984375 
L 54.390625 0 
L 45.40625 0 
L 45.40625 8.203125 
Q 42.578125 3.328125 38.25 0.953125 
Q 33.9375 -1.421875 27.875 -1.421875 
Q 17.96875 -1.421875 11.734375 6.484375 
Q 5.515625 14.40625 5.515625 27.296875 
Q 5.515625 40.1875 11.734375 48.09375 
Q 17.96875 56 27.875 56 
Q 33.9375 56 38.25 53.625 
Q 42.578125 51.265625 45.40625 46.390625 
z
M 14.796875 27.296875 
Q 14.796875 17.390625 18.875 11.75 
Q 22.953125 6.109375 30.078125 6.109375 
Q 37.203125 6.109375 41.296875 11.75 
Q 45.40625 17.390625 45.40625 27.296875 
Q 45.40625 37.203125 41.296875 42.84375 
Q 37.203125 48.484375 30.078125 48.484375 
Q 22.953125 48.484375 18.875 42.84375 
Q 14.796875 37.203125 14.796875 27.296875 
z
" id="DejaVuSans-100"/>
      <path d="M 9.421875 54.6875 
L 18.40625 54.6875 
L 18.40625 0 
L 9.421875 0 
z
M 9.421875 75.984375 
L 18.40625 75.984375 
L 18.40625 64.59375 
L 9.421875 64.59375 
z
" id="DejaVuSans-105"/>
      <path d="M 48.78125 52.59375 
L 48.78125 44.1875 
Q 44.96875 46.296875 41.140625 47.34375 
Q 37.3125 48.390625 33.40625 48.390625 
Q 24.65625 48.390625 19.8125 42.84375 
Q 14.984375 37.3125 14.984375 27.296875 
Q 14.984375 17.28125 19.8125 11.734375 
Q 24.65625 6.203125 33.40625 6.203125 
Q 37.3125 6.203125 41.140625 7.25 
Q 44.96875 8.296875 48.78125 10.40625 
L 48.78125 2.09375 
Q 45.015625 0.34375 40.984375 -0.53125 
Q 36.96875 -1.421875 32.421875 -1.421875 
Q 20.0625 -1.421875 12.78125 6.34375 
Q 5.515625 14.109375 5.515625 27.296875 
Q 5.515625 40.671875 12.859375 48.328125 
Q 20.21875 56 33.015625 56 
Q 37.15625 56 41.109375 55.140625 
Q 45.0625 54.296875 48.78125 52.59375 
z
" id="DejaVuSans-99"/>
      <path d="M 18.3125 70.21875 
L 18.3125 54.6875 
L 36.8125 54.6875 
L 36.8125 47.703125 
L 18.3125 47.703125 
L 18.3125 18.015625 
Q 18.3125 11.328125 20.140625 9.421875 
Q 21.96875 7.515625 27.59375 7.515625 
L 36.8125 7.515625 
L 36.8125 0 
L 27.59375 0 
Q 17.1875 0 13.234375 3.875 
Q 9.28125 7.765625 9.28125 18.015625 
L 9.28125 47.703125 
L 2.6875 47.703125 
L 2.6875 54.6875 
L 9.28125 54.6875 
L 9.28125 70.21875 
z
" id="DejaVuSans-116"/>
      <path d="M 30.609375 48.390625 
Q 23.390625 48.390625 19.1875 42.75 
Q 14.984375 37.109375 14.984375 27.296875 
Q 14.984375 17.484375 19.15625 11.84375 
Q 23.34375 6.203125 30.609375 6.203125 
Q 37.796875 6.203125 41.984375 11.859375 
Q 46.1875 17.53125 46.1875 27.296875 
Q 46.1875 37.015625 41.984375 42.703125 
Q 37.796875 48.390625 30.609375 48.390625 
z
M 30.609375 56 
Q 42.328125 56 49.015625 48.375 
Q 55.71875 40.765625 55.71875 27.296875 
Q 55.71875 13.875 49.015625 6.21875 
Q 42.328125 -1.421875 30.609375 -1.421875 
Q 18.84375 -1.421875 12.171875 6.21875 
Q 5.515625 13.875 5.515625 27.296875 
Q 5.515625 40.765625 12.171875 48.375 
Q 18.84375 56 30.609375 56 
z
" id="DejaVuSans-111"/>
      <path d="M 54.890625 33.015625 
L 54.890625 0 
L 45.90625 0 
L 45.90625 32.71875 
Q 45.90625 40.484375 42.875 44.328125 
Q 39.84375 48.1875 33.796875 48.1875 
Q 26.515625 48.1875 22.3125 43.546875 
Q 18.109375 38.921875 18.109375 30.90625 
L 18.109375 0 
L 9.078125 0 
L 9.078125 54.6875 
L 18.109375 54.6875 
L 18.109375 46.1875 
Q 21.34375 51.125 25.703125 53.5625 
Q 30.078125 56 35.796875 56 
Q 45.21875 56 50.046875 50.171875 
Q 54.890625 44.34375 54.890625 33.015625 
z
" id="DejaVuSans-110"/>
     </defs>
     <g style="fill:#262626;" transform="translate(89.230156 31.458281)scale(0.11 -0.11)">
      <use xlink:href="#DejaVuSans-80"/>
      <use x="60.287109" xlink:href="#DejaVuSans-114"/>
      <use x="101.369141" xlink:href="#DejaVuSans-101"/>
      <use x="162.892578" xlink:href="#DejaVuSans-100"/>
      <use x="226.369141" xlink:href="#DejaVuSans-105"/>
      <use x="254.152344" xlink:href="#DejaVuSans-99"/>
      <use x="309.132812" xlink:href="#DejaVuSans-116"/>
      <use x="348.341797" xlink:href="#DejaVuSans-105"/>
      <use x="376.125" xlink:href="#DejaVuSans-111"/>
      <use x="437.306641" xlink:href="#DejaVuSans-110"/>
     </g>
    </g>
    <g id="line2d_19"/>
    <g id="line2d_20">
     <g>
      <use style="fill:#4c72b0;stroke:#4c72b0;" x="69.430156" xlink:href="#m65efba4556" y="43.754219"/>
     </g>
    </g>
    <g id="text_18">
     <!-- Data -->
     <defs>
      <path d="M 19.671875 64.796875 
L 19.671875 8.109375 
L 31.59375 8.109375 
Q 46.6875 8.109375 53.6875 14.9375 
Q 60.6875 21.78125 60.6875 36.53125 
Q 60.6875 51.171875 53.6875 57.984375 
Q 46.6875 64.796875 31.59375 64.796875 
z
M 9.8125 72.90625 
L 30.078125 72.90625 
Q 51.265625 72.90625 61.171875 64.09375 
Q 71.09375 55.28125 71.09375 36.53125 
Q 71.09375 17.671875 61.125 8.828125 
Q 51.171875 0 30.078125 0 
L 9.8125 0 
z
" id="DejaVuSans-68"/>
      <path d="M 34.28125 27.484375 
Q 23.390625 27.484375 19.1875 25 
Q 14.984375 22.515625 14.984375 16.5 
Q 14.984375 11.71875 18.140625 8.90625 
Q 21.296875 6.109375 26.703125 6.109375 
Q 34.1875 6.109375 38.703125 11.40625 
Q 43.21875 16.703125 43.21875 25.484375 
L 43.21875 27.484375 
z
M 52.203125 31.203125 
L 52.203125 0 
L 43.21875 0 
L 43.21875 8.296875 
Q 40.140625 3.328125 35.546875 0.953125 
Q 30.953125 -1.421875 24.3125 -1.421875 
Q 15.921875 -1.421875 10.953125 3.296875 
Q 6 8.015625 6 15.921875 
Q 6 25.140625 12.171875 29.828125 
Q 18.359375 34.515625 30.609375 34.515625 
L 43.21875 34.515625 
L 43.21875 35.40625 
Q 43.21875 41.609375 39.140625 45 
Q 35.0625 48.390625 27.6875 48.390625 
Q 23 48.390625 18.546875 47.265625 
Q 14.109375 46.140625 10.015625 43.890625 
L 10.015625 52.203125 
Q 14.9375 54.109375 19.578125 55.046875 
Q 24.21875 56 28.609375 56 
Q 40.484375 56 46.34375 49.84375 
Q 52.203125 43.703125 52.203125 31.203125 
z
" id="DejaVuSans-97"/>
     </defs>
     <g style="fill:#262626;" transform="translate(89.230156 47.604219)scale(0.11 -0.11)">
      <use xlink:href="#DejaVuSans-68"/>
      <use x="77.001953" xlink:href="#DejaVuSans-97"/>
      <use x="138.28125" xlink:href="#DejaVuSans-116"/>
      <use x="177.490234" xlink:href="#DejaVuSans-97"/>
     </g>
    </g>
   </g>
  </g>
 </g>
 <defs>
  <clipPath id="p53a7d5fa0a">
   <rect height="217.44" width="334.8" x="48.530156" y="13.2"/>
  </clipPath>
 </defs>
</svg>
