<?xml version="1.0" encoding="utf-8" standalone="no"?>
<!DOCTYPE svg PUBLIC "-//W3C//DTD SVG 1.1//EN"
  "http://www.w3.org/Graphics/SVG/1.1/DTD/svg11.dtd">
<!-- Created with matplotlib (https://matplotlib.org/) -->
<svg height="273.599688pt" version="1.1" viewBox="0 0 396.530156 273.599688" width="396.530156pt" xmlns="http://www.w3.org/2000/svg" xmlns:xlink="http://www.w3.org/1999/xlink">
 <defs>
  <style type="text/css">
*{stroke-linecap:butt;stroke-linejoin:round;}
  </style>
 </defs>
 <g id="figure_1">
  <g id="patch_1">
   <path d="M 0 273.599688 
L 396.530156 273.599688 
L 396.530156 0 
L 0 0 
z
" style="fill:#ffffff;"/>
  </g>
  <g id="axes_1">
   <g id="patch_2">
    <path d="M 48.530156 230.64 
L 383.330156 230.64 
L 383.330156 13.2 
L 48.530156 13.2 
z
" style="fill:#eaeaf2;"/>
   </g>
   <g id="matplotlib.axis_1">
    <g id="xtick_1">
     <g id="line2d_1">
      <path clip-path="url(#pae25b889e3)" d="M 83.802 230.64 
L 83.802 13.2 
" style="fill:none;stroke:#ffffff;stroke-linecap:round;"/>
     </g>
     <g id="text_1">
      <!-- −2 -->
      <defs>
       <path d="M 10.59375 35.5 
L 73.1875 35.5 
L 73.1875 27.203125 
L 10.59375 27.203125 
z
" id="DejaVuSans-8722"/>
       <path d="M 19.1875 8.296875 
L 53.609375 8.296875 
L 53.609375 0 
L 7.328125 0 
L 7.328125 8.296875 
Q 12.9375 14.109375 22.625 23.890625 
Q 32.328125 33.6875 34.8125 36.53125 
Q 39.546875 41.84375 41.421875 45.53125 
Q 43.3125 49.21875 43.3125 52.78125 
Q 43.3125 58.59375 39.234375 62.25 
Q 35.15625 65.921875 28.609375 65.921875 
Q 23.96875 65.921875 18.8125 64.3125 
Q 13.671875 62.703125 7.8125 59.421875 
L 7.8125 69.390625 
Q 13.765625 71.78125 18.9375 73 
Q 24.125 74.21875 28.421875 74.21875 
Q 39.75 74.21875 46.484375 68.546875 
Q 53.21875 62.890625 53.21875 53.421875 
Q 53.21875 48.921875 51.53125 44.890625 
Q 49.859375 40.875 45.40625 35.40625 
Q 44.1875 33.984375 37.640625 27.21875 
Q 31.109375 20.453125 19.1875 8.296875 
z
" id="DejaVuSans-50"/>
      </defs>
      <g style="fill:#262626;" transform="translate(75.693797 248.498281)scale(0.11 -0.11)">
       <use xlink:href="#DejaVuSans-8722"/>
       <use x="83.789062" xlink:href="#DejaVuSans-50"/>
      </g>
     </g>
    </g>
    <g id="xtick_2">
     <g id="line2d_2">
      <path clip-path="url(#pae25b889e3)" d="M 137.967178 230.64 
L 137.967178 13.2 
" style="fill:none;stroke:#ffffff;stroke-linecap:round;"/>
     </g>
     <g id="text_2">
      <!-- −1 -->
      <defs>
       <path d="M 12.40625 8.296875 
L 28.515625 8.296875 
L 28.515625 63.921875 
L 10.984375 60.40625 
L 10.984375 69.390625 
L 28.421875 72.90625 
L 38.28125 72.90625 
L 38.28125 8.296875 
L 54.390625 8.296875 
L 54.390625 0 
L 12.40625 0 
z
" id="DejaVuSans-49"/>
      </defs>
      <g style="fill:#262626;" transform="translate(129.858975 248.498281)scale(0.11 -0.11)">
       <use xlink:href="#DejaVuSans-8722"/>
       <use x="83.789062" xlink:href="#DejaVuSans-49"/>
      </g>
     </g>
    </g>
    <g id="xtick_3">
     <g id="line2d_3">
      <path clip-path="url(#pae25b889e3)" d="M 192.132356 230.64 
L 192.132356 13.2 
" style="fill:none;stroke:#ffffff;stroke-linecap:round;"/>
     </g>
     <g id="text_3">
      <!-- 0 -->
      <defs>
       <path d="M 31.78125 66.40625 
Q 24.171875 66.40625 20.328125 58.90625 
Q 16.5 51.421875 16.5 36.375 
Q 16.5 21.390625 20.328125 13.890625 
Q 24.171875 6.390625 31.78125 6.390625 
Q 39.453125 6.390625 43.28125 13.890625 
Q 47.125 21.390625 47.125 36.375 
Q 47.125 51.421875 43.28125 58.90625 
Q 39.453125 66.40625 31.78125 66.40625 
z
M 31.78125 74.21875 
Q 44.046875 74.21875 50.515625 64.515625 
Q 56.984375 54.828125 56.984375 36.375 
Q 56.984375 17.96875 50.515625 8.265625 
Q 44.046875 -1.421875 31.78125 -1.421875 
Q 19.53125 -1.421875 13.0625 8.265625 
Q 6.59375 17.96875 6.59375 36.375 
Q 6.59375 54.828125 13.0625 64.515625 
Q 19.53125 74.21875 31.78125 74.21875 
z
" id="DejaVuSans-48"/>
      </defs>
      <g style="fill:#262626;" transform="translate(188.632981 248.498281)scale(0.11 -0.11)">
       <use xlink:href="#DejaVuSans-48"/>
      </g>
     </g>
    </g>
    <g id="xtick_4">
     <g id="line2d_4">
      <path clip-path="url(#pae25b889e3)" d="M 246.297533 230.64 
L 246.297533 13.2 
" style="fill:none;stroke:#ffffff;stroke-linecap:round;"/>
     </g>
     <g id="text_4">
      <!-- 1 -->
      <g style="fill:#262626;" transform="translate(242.798158 248.498281)scale(0.11 -0.11)">
       <use xlink:href="#DejaVuSans-49"/>
      </g>
     </g>
    </g>
    <g id="xtick_5">
     <g id="line2d_5">
      <path clip-path="url(#pae25b889e3)" d="M 300.462711 230.64 
L 300.462711 13.2 
" style="fill:none;stroke:#ffffff;stroke-linecap:round;"/>
     </g>
     <g id="text_5">
      <!-- 2 -->
      <g style="fill:#262626;" transform="translate(296.963336 248.498281)scale(0.11 -0.11)">
       <use xlink:href="#DejaVuSans-50"/>
      </g>
     </g>
    </g>
    <g id="xtick_6">
     <g id="line2d_6">
      <path clip-path="url(#pae25b889e3)" d="M 354.627889 230.64 
L 354.627889 13.2 
" style="fill:none;stroke:#ffffff;stroke-linecap:round;"/>
     </g>
     <g id="text_6">
      <!-- 3 -->
      <defs>
       <path d="M 40.578125 39.3125 
Q 47.65625 37.796875 51.625 33 
Q 55.609375 28.21875 55.609375 21.1875 
Q 55.609375 10.40625 48.1875 4.484375 
Q 40.765625 -1.421875 27.09375 -1.421875 
Q 22.515625 -1.421875 17.65625 -0.515625 
Q 12.796875 0.390625 7.625 2.203125 
L 7.625 11.71875 
Q 11.71875 9.328125 16.59375 8.109375 
Q 21.484375 6.890625 26.8125 6.890625 
Q 36.078125 6.890625 40.9375 10.546875 
Q 45.796875 14.203125 45.796875 21.1875 
Q 45.796875 27.640625 41.28125 31.265625 
Q 36.765625 34.90625 28.71875 34.90625 
L 20.21875 34.90625 
L 20.21875 43.015625 
L 29.109375 43.015625 
Q 36.375 43.015625 40.234375 45.921875 
Q 44.09375 48.828125 44.09375 54.296875 
Q 44.09375 59.90625 40.109375 62.90625 
Q 36.140625 65.921875 28.71875 65.921875 
Q 24.65625 65.921875 20.015625 65.03125 
Q 15.375 64.15625 9.8125 62.3125 
L 9.8125 71.09375 
Q 15.4375 72.65625 20.34375 73.4375 
Q 25.25 74.21875 29.59375 74.21875 
Q 40.828125 74.21875 47.359375 69.109375 
Q 53.90625 64.015625 53.90625 55.328125 
Q 53.90625 49.265625 50.4375 45.09375 
Q 46.96875 40.921875 40.578125 39.3125 
z
" id="DejaVuSans-51"/>
      </defs>
      <g style="fill:#262626;" transform="translate(351.128514 248.498281)scale(0.11 -0.11)">
       <use xlink:href="#DejaVuSans-51"/>
      </g>
     </g>
    </g>
    <g id="text_7">
     <!-- x -->
     <defs>
      <path d="M 54.890625 54.6875 
L 35.109375 28.078125 
L 55.90625 0 
L 45.3125 0 
L 29.390625 21.484375 
L 13.484375 0 
L 2.875 0 
L 24.125 28.609375 
L 4.6875 54.6875 
L 15.28125 54.6875 
L 29.78125 35.203125 
L 44.28125 54.6875 
z
" id="DejaVuSans-120"/>
     </defs>
     <g style="fill:#262626;" transform="translate(212.378906 263.904063)scale(0.12 -0.12)">
      <use xlink:href="#DejaVuSans-120"/>
     </g>
    </g>
   </g>
   <g id="matplotlib.axis_2">
    <g id="ytick_1">
     <g id="line2d_7">
      <path clip-path="url(#pae25b889e3)" d="M 48.530156 212.098981 
L 383.330156 212.098981 
" style="fill:none;stroke:#ffffff;stroke-linecap:round;"/>
     </g>
     <g id="text_8">
      <!-- −6 -->
      <defs>
       <path d="M 33.015625 40.375 
Q 26.375 40.375 22.484375 35.828125 
Q 18.609375 31.296875 18.609375 23.390625 
Q 18.609375 15.53125 22.484375 10.953125 
Q 26.375 6.390625 33.015625 6.390625 
Q 39.65625 6.390625 43.53125 10.953125 
Q 47.40625 15.53125 47.40625 23.390625 
Q 47.40625 31.296875 43.53125 35.828125 
Q 39.65625 40.375 33.015625 40.375 
z
M 52.59375 71.296875 
L 52.59375 62.3125 
Q 48.875 64.0625 45.09375 64.984375 
Q 41.3125 65.921875 37.59375 65.921875 
Q 27.828125 65.921875 22.671875 59.328125 
Q 17.53125 52.734375 16.796875 39.40625 
Q 19.671875 43.65625 24.015625 45.921875 
Q 28.375 48.1875 33.59375 48.1875 
Q 44.578125 48.1875 50.953125 41.515625 
Q 57.328125 34.859375 57.328125 23.390625 
Q 57.328125 12.15625 50.6875 5.359375 
Q 44.046875 -1.421875 33.015625 -1.421875 
Q 20.359375 -1.421875 13.671875 8.265625 
Q 6.984375 17.96875 6.984375 36.375 
Q 6.984375 53.65625 15.1875 63.9375 
Q 23.390625 74.21875 37.203125 74.21875 
Q 40.921875 74.21875 44.703125 73.484375 
Q 48.484375 72.75 52.59375 71.296875 
z
" id="DejaVuSans-54"/>
      </defs>
      <g style="fill:#262626;" transform="translate(22.81375 216.278121)scale(0.11 -0.11)">
       <use xlink:href="#DejaVuSans-8722"/>
       <use x="83.789062" xlink:href="#DejaVuSans-54"/>
      </g>
     </g>
    </g>
    <g id="ytick_2">
     <g id="line2d_8">
      <path clip-path="url(#pae25b889e3)" d="M 48.530156 180.20168 
L 383.330156 180.20168 
" style="fill:none;stroke:#ffffff;stroke-linecap:round;"/>
     </g>
     <g id="text_9">
      <!-- −4 -->
      <defs>
       <path d="M 37.796875 64.3125 
L 12.890625 25.390625 
L 37.796875 25.390625 
z
M 35.203125 72.90625 
L 47.609375 72.90625 
L 47.609375 25.390625 
L 58.015625 25.390625 
L 58.015625 17.1875 
L 47.609375 17.1875 
L 47.609375 0 
L 37.796875 0 
L 37.796875 17.1875 
L 4.890625 17.1875 
L 4.890625 26.703125 
z
" id="DejaVuSans-52"/>
      </defs>
      <g style="fill:#262626;" transform="translate(22.81375 184.380821)scale(0.11 -0.11)">
       <use xlink:href="#DejaVuSans-8722"/>
       <use x="83.789062" xlink:href="#DejaVuSans-52"/>
      </g>
     </g>
    </g>
    <g id="ytick_3">
     <g id="line2d_9">
      <path clip-path="url(#pae25b889e3)" d="M 48.530156 148.30438 
L 383.330156 148.30438 
" style="fill:none;stroke:#ffffff;stroke-linecap:round;"/>
     </g>
     <g id="text_10">
      <!-- −2 -->
      <g style="fill:#262626;" transform="translate(22.81375 152.483521)scale(0.11 -0.11)">
       <use xlink:href="#DejaVuSans-8722"/>
       <use x="83.789062" xlink:href="#DejaVuSans-50"/>
      </g>
     </g>
    </g>
    <g id="ytick_4">
     <g id="line2d_10">
      <path clip-path="url(#pae25b889e3)" d="M 48.530156 116.40708 
L 383.330156 116.40708 
" style="fill:none;stroke:#ffffff;stroke-linecap:round;"/>
     </g>
     <g id="text_11">
      <!-- 0 -->
      <g style="fill:#262626;" transform="translate(32.031406 120.58622)scale(0.11 -0.11)">
       <use xlink:href="#DejaVuSans-48"/>
      </g>
     </g>
    </g>
    <g id="ytick_5">
     <g id="line2d_11">
      <path clip-path="url(#pae25b889e3)" d="M 48.530156 84.509779 
L 383.330156 84.509779 
" style="fill:none;stroke:#ffffff;stroke-linecap:round;"/>
     </g>
     <g id="text_12">
      <!-- 2 -->
      <g style="fill:#262626;" transform="translate(32.031406 88.68892)scale(0.11 -0.11)">
       <use xlink:href="#DejaVuSans-50"/>
      </g>
     </g>
    </g>
    <g id="ytick_6">
     <g id="line2d_12">
      <path clip-path="url(#pae25b889e3)" d="M 48.530156 52.612479 
L 383.330156 52.612479 
" style="fill:none;stroke:#ffffff;stroke-linecap:round;"/>
     </g>
     <g id="text_13">
      <!-- 4 -->
      <g style="fill:#262626;" transform="translate(32.031406 56.79162)scale(0.11 -0.11)">
       <use xlink:href="#DejaVuSans-52"/>
      </g>
     </g>
    </g>
    <g id="ytick_7">
     <g id="line2d_13">
      <path clip-path="url(#pae25b889e3)" d="M 48.530156 20.715179 
L 383.330156 20.715179 
" style="fill:none;stroke:#ffffff;stroke-linecap:round;"/>
     </g>
     <g id="text_14">
      <!-- 6 -->
      <g style="fill:#262626;" transform="translate(32.031406 24.894319)scale(0.11 -0.11)">
       <use xlink:href="#DejaVuSans-54"/>
      </g>
     </g>
    </g>
    <g id="text_15">
     <!-- y -->
     <defs>
      <path d="M 32.171875 -5.078125 
Q 28.375 -14.84375 24.75 -17.8125 
Q 21.140625 -20.796875 15.09375 -20.796875 
L 7.90625 -20.796875 
L 7.90625 -13.28125 
L 13.1875 -13.28125 
Q 16.890625 -13.28125 18.9375 -11.515625 
Q 21 -9.765625 23.484375 -3.21875 
L 25.09375 0.875 
L 2.984375 54.6875 
L 12.5 54.6875 
L 29.59375 11.921875 
L 46.6875 54.6875 
L 56.203125 54.6875 
z
" id="DejaVuSans-121"/>
     </defs>
     <g style="fill:#262626;" transform="translate(16.318125 125.47125)rotate(-90)scale(0.12 -0.12)">
      <use xlink:href="#DejaVuSans-121"/>
     </g>
    </g>
   </g>
   <g id="line2d_14">
    <defs>
     <path d="M 0 1.5 
C 0.397805 1.5 0.77937 1.341951 1.06066 1.06066 
C 1.341951 0.77937 1.5 0.397805 1.5 0 
C 1.5 -0.397805 1.341951 -0.77937 1.06066 -1.06066 
C 0.77937 -1.341951 0.397805 -1.5 0 -1.5 
C -0.397805 -1.5 -0.77937 -1.341951 -1.06066 -1.06066 
C -1.341951 -0.77937 -1.5 -0.397805 -1.5 0 
C -1.5 0.397805 -1.341951 0.77937 -1.06066 1.06066 
C -0.77937 1.341951 -0.397805 1.5 0 1.5 
z
" id="m577e7e1c98" style="stroke:#4c72b0;"/>
    </defs>
    <g clip-path="url(#pae25b889e3)">
     <use style="fill:#4c72b0;stroke:#4c72b0;" x="181.044329" xlink:href="#m577e7e1c98" y="163.855468"/>
     <use style="fill:#4c72b0;stroke:#4c72b0;" x="218.074407" xlink:href="#m577e7e1c98" y="126.050487"/>
     <use style="fill:#4c72b0;stroke:#4c72b0;" x="163.996864" xlink:href="#m577e7e1c98" y="149.445371"/>
     <use style="fill:#4c72b0;stroke:#4c72b0;" x="162.031126" xlink:href="#m577e7e1c98" y="164.898421"/>
     <use style="fill:#4c72b0;stroke:#4c72b0;" x="298.609212" xlink:href="#m577e7e1c98" y="77.349016"/>
     <use style="fill:#4c72b0;stroke:#4c72b0;" x="267.606428" xlink:href="#m577e7e1c98" y="88.488206"/>
     <use style="fill:#4c72b0;stroke:#4c72b0;" x="197.164727" xlink:href="#m577e7e1c98" y="111.922226"/>
     <use style="fill:#4c72b0;stroke:#4c72b0;" x="207.393186" xlink:href="#m577e7e1c98" y="107.724303"/>
     <use style="fill:#4c72b0;stroke:#4c72b0;" x="233.786601" xlink:href="#m577e7e1c98" y="117.227518"/>
     <use style="fill:#4c72b0;stroke:#4c72b0;" x="259.645712" xlink:href="#m577e7e1c98" y="67.371847"/>
     <use style="fill:#4c72b0;stroke:#4c72b0;" x="246.686948" xlink:href="#m577e7e1c98" y="108.661714"/>
     <use style="fill:#4c72b0;stroke:#4c72b0;" x="121.922307" xlink:href="#m577e7e1c98" y="166.413121"/>
     <use style="fill:#4c72b0;stroke:#4c72b0;" x="207.027326" xlink:href="#m577e7e1c98" y="108.752493"/>
     <use style="fill:#4c72b0;stroke:#4c72b0;" x="204.531462" xlink:href="#m577e7e1c98" y="150.081777"/>
     <use style="fill:#4c72b0;stroke:#4c72b0;" x="265.413337" xlink:href="#m577e7e1c98" y="105.508622"/>
     <use style="fill:#4c72b0;stroke:#4c72b0;" x="240.14596" xlink:href="#m577e7e1c98" y="110.505572"/>
     <use style="fill:#4c72b0;stroke:#4c72b0;" x="83.71332" xlink:href="#m577e7e1c98" y="192.686089"/>
     <use style="fill:#4c72b0;stroke:#4c72b0;" x="171.991439" xlink:href="#m577e7e1c98" y="147.300988"/>
     <use style="fill:#4c72b0;stroke:#4c72b0;" x="282.535408" xlink:href="#m577e7e1c98" y="68.446158"/>
     <use style="fill:#4c72b0;stroke:#4c72b0;" x="168.377149" xlink:href="#m577e7e1c98" y="172.644002"/>
     <use style="fill:#4c72b0;stroke:#4c72b0;" x="162.897164" xlink:href="#m577e7e1c98" y="185.5011"/>
     <use style="fill:#4c72b0;stroke:#4c72b0;" x="217.968333" xlink:href="#m577e7e1c98" y="135.750596"/>
     <use style="fill:#4c72b0;stroke:#4c72b0;" x="368.111974" xlink:href="#m577e7e1c98" y="23.083636"/>
     <use style="fill:#4c72b0;stroke:#4c72b0;" x="136.817388" xlink:href="#m577e7e1c98" y="153.732422"/>
     <use style="fill:#4c72b0;stroke:#4c72b0;" x="160.87432" xlink:href="#m577e7e1c98" y="155.142266"/>
     <use style="fill:#4c72b0;stroke:#4c72b0;" x="198.855407" xlink:href="#m577e7e1c98" y="130.615727"/>
     <use style="fill:#4c72b0;stroke:#4c72b0;" x="208.523473" xlink:href="#m577e7e1c98" y="120.986187"/>
     <use style="fill:#4c72b0;stroke:#4c72b0;" x="220.502562" xlink:href="#m577e7e1c98" y="125.322392"/>
     <use style="fill:#4c72b0;stroke:#4c72b0;" x="192.183286" xlink:href="#m577e7e1c98" y="138.977353"/>
     <use style="fill:#4c72b0;stroke:#4c72b0;" x="264.920055" xlink:href="#m577e7e1c98" y="89.763062"/>
     <use style="fill:#4c72b0;stroke:#4c72b0;" x="153.483117" xlink:href="#m577e7e1c98" y="174.639321"/>
     <use style="fill:#4c72b0;stroke:#4c72b0;" x="147.112778" xlink:href="#m577e7e1c98" y="187.588253"/>
     <use style="fill:#4c72b0;stroke:#4c72b0;" x="63.748338" xlink:href="#m577e7e1c98" y="181.887887"/>
     <use style="fill:#4c72b0;stroke:#4c72b0;" x="91.343916" xlink:href="#m577e7e1c98" y="175.935623"/>
     <use style="fill:#4c72b0;stroke:#4c72b0;" x="145.509277" xlink:href="#m577e7e1c98" y="152.508039"/>
     <use style="fill:#4c72b0;stroke:#4c72b0;" x="222.472726" xlink:href="#m577e7e1c98" y="105.634643"/>
     <use style="fill:#4c72b0;stroke:#4c72b0;" x="123.56279" xlink:href="#m577e7e1c98" y="151.895205"/>
     <use style="fill:#4c72b0;stroke:#4c72b0;" x="198.622813" xlink:href="#m577e7e1c98" y="135.559804"/>
     <use style="fill:#4c72b0;stroke:#4c72b0;" x="134.527015" xlink:href="#m577e7e1c98" y="171.085037"/>
     <use style="fill:#4c72b0;stroke:#4c72b0;" x="210.163006" xlink:href="#m577e7e1c98" y="113.782619"/>
     <use style="fill:#4c72b0;stroke:#4c72b0;" x="64.334013" xlink:href="#m577e7e1c98" y="220.756364"/>
     <use style="fill:#4c72b0;stroke:#4c72b0;" x="181.324076" xlink:href="#m577e7e1c98" y="117.659369"/>
     <use style="fill:#4c72b0;stroke:#4c72b0;" x="108.609894" xlink:href="#m577e7e1c98" y="173.439871"/>
     <use style="fill:#4c72b0;stroke:#4c72b0;" x="139.552273" xlink:href="#m577e7e1c98" y="173.741033"/>
     <use style="fill:#4c72b0;stroke:#4c72b0;" x="121.336832" xlink:href="#m577e7e1c98" y="171.064394"/>
     <use style="fill:#4c72b0;stroke:#4c72b0;" x="207.64254" xlink:href="#m577e7e1c98" y="129.469435"/>
     <use style="fill:#4c72b0;stroke:#4c72b0;" x="212.605932" xlink:href="#m577e7e1c98" y="124.641763"/>
     <use style="fill:#4c72b0;stroke:#4c72b0;" x="151.297958" xlink:href="#m577e7e1c98" y="156.676054"/>
     <use style="fill:#4c72b0;stroke:#4c72b0;" x="210.076502" xlink:href="#m577e7e1c98" y="110.938414"/>
     <use style="fill:#4c72b0;stroke:#4c72b0;" x="265.24138" xlink:href="#m577e7e1c98" y="79.167034"/>
     <use style="fill:#4c72b0;stroke:#4c72b0;" x="195.917239" xlink:href="#m577e7e1c98" y="142.202796"/>
     <use style="fill:#4c72b0;stroke:#4c72b0;" x="205.493502" xlink:href="#m577e7e1c98" y="113.034992"/>
     <use style="fill:#4c72b0;stroke:#4c72b0;" x="191.48987" xlink:href="#m577e7e1c98" y="137.586827"/>
     <use style="fill:#4c72b0;stroke:#4c72b0;" x="246.558157" xlink:href="#m577e7e1c98" y="127.063441"/>
     <use style="fill:#4c72b0;stroke:#4c72b0;" x="264.020086" xlink:href="#m577e7e1c98" y="83.211956"/>
     <use style="fill:#4c72b0;stroke:#4c72b0;" x="142.340389" xlink:href="#m577e7e1c98" y="186.617235"/>
     <use style="fill:#4c72b0;stroke:#4c72b0;" x="108.224728" xlink:href="#m577e7e1c98" y="187.628977"/>
     <use style="fill:#4c72b0;stroke:#4c72b0;" x="193.333988" xlink:href="#m577e7e1c98" y="114.967208"/>
     <use style="fill:#4c72b0;stroke:#4c72b0;" x="233.209229" xlink:href="#m577e7e1c98" y="88.709368"/>
     <use style="fill:#4c72b0;stroke:#4c72b0;" x="156.354939" xlink:href="#m577e7e1c98" y="157.375139"/>
     <use style="fill:#4c72b0;stroke:#4c72b0;" x="238.854158" xlink:href="#m577e7e1c98" y="111.480095"/>
     <use style="fill:#4c72b0;stroke:#4c72b0;" x="191.588976" xlink:href="#m577e7e1c98" y="134.537677"/>
     <use style="fill:#4c72b0;stroke:#4c72b0;" x="194.841121" xlink:href="#m577e7e1c98" y="160.182438"/>
     <use style="fill:#4c72b0;stroke:#4c72b0;" x="228.434703" xlink:href="#m577e7e1c98" y="77.984562"/>
     <use style="fill:#4c72b0;stroke:#4c72b0;" x="238.33336" xlink:href="#m577e7e1c98" y="117.54003"/>
     <use style="fill:#4c72b0;stroke:#4c72b0;" x="140.35755" xlink:href="#m577e7e1c98" y="139.876648"/>
     <use style="fill:#4c72b0;stroke:#4c72b0;" x="190.859836" xlink:href="#m577e7e1c98" y="134.868344"/>
     <use style="fill:#4c72b0;stroke:#4c72b0;" x="67.323123" xlink:href="#m577e7e1c98" y="186.279402"/>
     <use style="fill:#4c72b0;stroke:#4c72b0;" x="156.791264" xlink:href="#m577e7e1c98" y="122.533811"/>
     <use style="fill:#4c72b0;stroke:#4c72b0;" x="126.142811" xlink:href="#m577e7e1c98" y="159.311676"/>
     <use style="fill:#4c72b0;stroke:#4c72b0;" x="119.951317" xlink:href="#m577e7e1c98" y="139.382061"/>
     <use style="fill:#4c72b0;stroke:#4c72b0;" x="250.339481" xlink:href="#m577e7e1c98" y="108.913688"/>
     <use style="fill:#4c72b0;stroke:#4c72b0;" x="231.328527" xlink:href="#m577e7e1c98" y="97.672968"/>
     <use style="fill:#4c72b0;stroke:#4c72b0;" x="229.506428" xlink:href="#m577e7e1c98" y="124.201616"/>
     <use style="fill:#4c72b0;stroke:#4c72b0;" x="246.381132" xlink:href="#m577e7e1c98" y="119.768482"/>
     <use style="fill:#4c72b0;stroke:#4c72b0;" x="164.882537" xlink:href="#m577e7e1c98" y="155.908787"/>
     <use style="fill:#4c72b0;stroke:#4c72b0;" x="158.426762" xlink:href="#m577e7e1c98" y="166.86526"/>
     <use style="fill:#4c72b0;stroke:#4c72b0;" x="142.237093" xlink:href="#m577e7e1c98" y="175.116673"/>
     <use style="fill:#4c72b0;stroke:#4c72b0;" x="152.796871" xlink:href="#m577e7e1c98" y="148.579838"/>
     <use style="fill:#4c72b0;stroke:#4c72b0;" x="204.205533" xlink:href="#m577e7e1c98" y="134.142195"/>
     <use style="fill:#4c72b0;stroke:#4c72b0;" x="194.911901" xlink:href="#m577e7e1c98" y="139.769024"/>
     <use style="fill:#4c72b0;stroke:#4c72b0;" x="129.424273" xlink:href="#m577e7e1c98" y="175.226986"/>
     <use style="fill:#4c72b0;stroke:#4c72b0;" x="236.369433" xlink:href="#m577e7e1c98" y="121.082315"/>
     <use style="fill:#4c72b0;stroke:#4c72b0;" x="215.618897" xlink:href="#m577e7e1c98" y="90.533145"/>
     <use style="fill:#4c72b0;stroke:#4c72b0;" x="246.879102" xlink:href="#m577e7e1c98" y="80.821113"/>
     <use style="fill:#4c72b0;stroke:#4c72b0;" x="290.977047" xlink:href="#m577e7e1c98" y="53.891956"/>
     <use style="fill:#4c72b0;stroke:#4c72b0;" x="138.101603" xlink:href="#m577e7e1c98" y="179.713886"/>
     <use style="fill:#4c72b0;stroke:#4c72b0;" x="238.204775" xlink:href="#m577e7e1c98" y="115.346925"/>
     <use style="fill:#4c72b0;stroke:#4c72b0;" x="185.005432" xlink:href="#m577e7e1c98" y="142.863592"/>
     <use style="fill:#4c72b0;stroke:#4c72b0;" x="241.553429" xlink:href="#m577e7e1c98" y="107.868294"/>
     <use style="fill:#4c72b0;stroke:#4c72b0;" x="202.326821" xlink:href="#m577e7e1c98" y="138.063366"/>
     <use style="fill:#4c72b0;stroke:#4c72b0;" x="309.641623" xlink:href="#m577e7e1c98" y="74.774431"/>
     <use style="fill:#4c72b0;stroke:#4c72b0;" x="185.907249" xlink:href="#m577e7e1c98" y="122.644298"/>
     <use style="fill:#4c72b0;stroke:#4c72b0;" x="300.662981" xlink:href="#m577e7e1c98" y="64.186607"/>
     <use style="fill:#4c72b0;stroke:#4c72b0;" x="193.736195" xlink:href="#m577e7e1c98" y="119.90917"/>
     <use style="fill:#4c72b0;stroke:#4c72b0;" x="235.207384" xlink:href="#m577e7e1c98" y="92.460358"/>
     <use style="fill:#4c72b0;stroke:#4c72b0;" x="198.529791" xlink:href="#m577e7e1c98" y="144.870366"/>
     <use style="fill:#4c72b0;stroke:#4c72b0;" x="151.588013" xlink:href="#m577e7e1c98" y="178.773942"/>
     <use style="fill:#4c72b0;stroke:#4c72b0;" x="223.817347" xlink:href="#m577e7e1c98" y="93.017629"/>
     <use style="fill:#4c72b0;stroke:#4c72b0;" x="200.402109" xlink:href="#m577e7e1c98" y="123.46231"/>
    </g>
   </g>
   <g id="patch_3">
    <path d="M 48.530156 230.64 
L 48.530156 13.2 
" style="fill:none;stroke:#ffffff;stroke-linecap:square;stroke-linejoin:miter;stroke-width:1.25;"/>
   </g>
   <g id="patch_4">
    <path d="M 383.330156 230.64 
L 383.330156 13.2 
" style="fill:none;stroke:#ffffff;stroke-linecap:square;stroke-linejoin:miter;stroke-width:1.25;"/>
   </g>
   <g id="patch_5">
    <path d="M 48.530156 230.64 
L 383.330156 230.64 
" style="fill:none;stroke:#ffffff;stroke-linecap:square;stroke-linejoin:miter;stroke-width:1.25;"/>
   </g>
   <g id="patch_6">
    <path d="M 48.530156 13.2 
L 383.330156 13.2 
" style="fill:none;stroke:#ffffff;stroke-linecap:square;stroke-linejoin:miter;stroke-width:1.25;"/>
   </g>
  </g>
 </g>
 <defs>
  <clipPath id="pae25b889e3">
   <rect height="217.44" width="334.8" x="48.530156" y="13.2"/>
  </clipPath>
 </defs>
</svg>
