<svg height="349.6" viewBox="0 0 395.3 262.2" width="527.1" xmlns="http://www.w3.org/2000/svg" xmlns:xlink="http://www.w3.org/1999/xlink"><defs><style>*{stroke-linecap:butt;stroke-linejoin:round}</style></defs><g id="figure_1"><path d="M0 262.2h395.3V0H0z" fill="none" id="patch_1"/><g id="axes_1"><path d="M53.3 224.6h334.8V7.2H53.3z" fill="#fff" id="patch_2"/><g id="matplotlib.axis_1"><g id="xtick_1"><g id="line2d_1"><defs><path d="M0 0v3.5" id="m987402a7ae" stroke="#000" stroke-width=".8"/></defs><use x="68.5" xlink:href="#m987402a7ae" y="224.6" stroke="#000" stroke-width=".8"/></g><g id="text_1"><defs><path d="M31.8 66.4q-7.6 0-11.5-7.5-3.8-7.5-3.8-22.5t3.8-22.5q3.9-7.5 11.5-7.5 7.7 0 11.5 7.5T47 36.4q0 15-3.8 22.5t-11.5 7.5zm0 7.8q12.2 0 18.7-9.7T57 36.4Q57 18 50.5 8.3 44-1.4 31.8-1.4 19.5-1.4 13 8.3q-6.5 9.7-6.5 28 0 18.5 6.5 28.2 6.4 9.7 18.7 9.7z" id="DejaVuSans-48"/></defs><use xlink:href="#DejaVuSans-48" transform="matrix(.1 0 0 -.1 65.4 239.2)"/></g></g><g id="xtick_2"><use x="108.9" xlink:href="#m987402a7ae" y="224.6" stroke="#000" stroke-width=".8" id="line2d_2"/><g id="text_2"><defs><path d="M12.4 8.3h16.1v55.6L11 60.4v9l17.4 3.5h9.9V8.3h16V0H12.5z" id="DejaVuSans-49"/></defs><g transform="matrix(.1 0 0 -.1 99.4 239.2)"><use xlink:href="#DejaVuSans-49"/><use x="63.6" xlink:href="#DejaVuSans-48"/><use x="127.2" xlink:href="#DejaVuSans-48"/></g></g></g><g id="xtick_3"><use x="149.3" xlink:href="#m987402a7ae" y="224.6" stroke="#000" stroke-width=".8" id="line2d_3"/><g id="text_3"><defs><path d="M19.2 8.3h34.4V0H7.3v8.3l15.3 15.6q9.7 9.8 12.2 12.6 4.7 5.3 6.6 9 2 3.7 2 7.3 0 5.8-4.2 9.5-4 3.6-10.6 3.6-4.6 0-9.8-1.6-5.1-1.6-11-4.9v10q6 2.4 11.1 3.6 5.2 1.2 9.5 1.2 11.4 0 18-5.7 6.8-5.6 6.8-15 0-4.6-1.7-8.6-1.6-4-6-9.5l-7.9-8.2L19.2 8.3z" id="DejaVuSans-50"/></defs><g transform="matrix(.1 0 0 -.1 139.7 239.2)"><use xlink:href="#DejaVuSans-50"/><use x="63.6" xlink:href="#DejaVuSans-48"/><use x="127.2" xlink:href="#DejaVuSans-48"/></g></g></g><g id="xtick_4"><use x="189.6" xlink:href="#m987402a7ae" y="224.6" stroke="#000" stroke-width=".8" id="line2d_4"/><g id="text_4"><defs><path d="M40.6 39.3q7-1.5 11-6.3t4-11.8q0-10.8-7.4-16.7-7.4-6-21.1-6-4.6 0-9.4 1-4.9.9-10 2.7v9.5q4-2.4 8.9-3.6Q21.5 7 26.8 7q9.3 0 14.1 3.6 4.9 3.7 4.9 10.7 0 6.4-4.5 10Q36.8 35 28.7 35h-8.5V43h9q7.2 0 11 3 3.9 2.8 3.9 8.3 0 5.6-4 8.6t-11.4 3q-4 0-8.7-.9-4.6-.8-10.2-2.7v8.8q5.6 1.6 10.5 2.3 5 .8 9.3.8 11.2 0 17.8-5 6.5-5.2 6.5-13.9 0-6-3.5-10.2-3.4-4.2-9.8-5.8z" id="DejaVuSans-51"/></defs><g transform="matrix(.1 0 0 -.1 180.1 239.2)"><use xlink:href="#DejaVuSans-51"/><use x="63.6" xlink:href="#DejaVuSans-48"/><use x="127.2" xlink:href="#DejaVuSans-48"/></g></g></g><g id="xtick_5"><use x="230" xlink:href="#m987402a7ae" y="224.6" stroke="#000" stroke-width=".8" id="line2d_5"/><g id="text_5"><defs><path d="M37.8 64.3l-25-39h25zM35.2 73h12.4V25.4H58v-8.2H47.6V0h-9.8v17.2h-33v9.5z" id="DejaVuSans-52"/></defs><g transform="matrix(.1 0 0 -.1 220.5 239.2)"><use xlink:href="#DejaVuSans-52"/><use x="63.6" xlink:href="#DejaVuSans-48"/><use x="127.2" xlink:href="#DejaVuSans-48"/></g></g></g><g id="xtick_6"><use x="270.4" xlink:href="#m987402a7ae" y="224.6" stroke="#000" stroke-width=".8" id="line2d_6"/><g id="text_6"><defs><path d="M10.8 73h38.7v-8.4H19.8V46.7q2.2.8 4.3 1.1 2.2.4 4.3.4 12.2 0 19.4-6.7 7-6.7 7-18.1 0-11.8-7.2-18.3-7.4-6.5-20.7-6.5-4.6 0-9.4.8-4.7.7-9.8 2.3v10q4.4-2.5 9.1-3.6 4.7-1.2 9.9-1.2 8.5 0 13.4 4.4 5 4.5 5 12 0 7.7-5 12.1Q35 40 26.7 40q-4 0-7.9-.9-4-.9-8-2.7z" id="DejaVuSans-53"/></defs><g transform="matrix(.1 0 0 -.1 260.8 239.2)"><use xlink:href="#DejaVuSans-53"/><use x="63.6" xlink:href="#DejaVuSans-48"/><use x="127.2" xlink:href="#DejaVuSans-48"/></g></g></g><g id="xtick_7"><use x="310.7" xlink:href="#m987402a7ae" y="224.6" stroke="#000" stroke-width=".8" id="line2d_7"/><g id="text_7"><defs><path d="M33 40.4q-6.6 0-10.5-4.6-3.9-4.5-3.9-12.4T22.5 11Q26.4 6.4 33 6.4q6.7 0 10.5 4.6 4 4.5 4 12.4t-4 12.4q-3.8 4.6-10.5 4.6zm19.6 30.9v-9Q48.9 64.1 45 65q-3.8 1-7.5 1-9.8 0-15-6.7-5-6.6-5.8-19.9 2.9 4.3 7.2 6.5 4.4 2.3 9.6 2.3 11 0 17.4-6.7 6.3-6.6 6.3-18.1 0-11.2-6.6-18Q44-1.4 33-1.4q-12.6 0-19.3 9.7Q7 18 7 36.3 7 53.8 15.2 64q8.2 10.3 22 10.3 3.7 0 7.5-.7 3.8-.8 7.9-2.2z" id="DejaVuSans-54"/></defs><g transform="matrix(.1 0 0 -.1 301.2 239.2)"><use xlink:href="#DejaVuSans-54"/><use x="63.6" xlink:href="#DejaVuSans-48"/><use x="127.2" xlink:href="#DejaVuSans-48"/></g></g></g><g id="xtick_8"><use x="351.1" xlink:href="#m987402a7ae" y="224.6" stroke="#000" stroke-width=".8" id="line2d_8"/><g id="text_8"><defs><path d="M8.2 73h46.9v-4.3L28.6 0H18.3l25 64.6H8.1z" id="DejaVuSans-55"/></defs><g transform="matrix(.1 0 0 -.1 341.6 239.2)"><use xlink:href="#DejaVuSans-55"/><use x="63.6" xlink:href="#DejaVuSans-48"/><use x="127.2" xlink:href="#DejaVuSans-48"/></g></g></g><g id="text_9"><defs><path d="M19.7 64.8V8.1h11.9q15 0 22 6.8 7 6.9 7 21.6 0 14.7-7 21.5-7 6.8-22 6.8zm-9.9 8.1h20.3q21.2 0 31-8.8 10-8.8 10-27.6T61 8.8Q51.1 0 30.1 0H9.8z" id="DejaVuSans-68"/><path d="M34.3 27.5q-11 0-15.1-2.5-4.2-2.5-4.2-8.5 0-4.8 3.1-7.6 3.2-2.8 8.6-2.8 7.5 0 12 5.3t4.5 14v2zm17.9 3.7V0h-9v8.3q-3-5-7.7-7.3Q31-1.4 24.3-1.4 16-1.4 11 3.3 6 8 6 15.9q0 9.2 6.2 14 6.2 4.6 18.4 4.6h12.6v1q0 6.1-4 9.5-4.1 3.4-11.5 3.4-4.7 0-9.2-1.1-4.4-1.2-8.5-3.4v8.3q5 2 9.6 2.8 4.6 1 9 1 11.9 0 17.7-6.2 5.9-6.1 5.9-18.6z" id="DejaVuSans-97"/><path d="M32.2-5q-3.8-9.8-7.5-12.8-3.6-3-9.6-3H7.9v7.5h5.3q3.7 0 5.7 1.8 2.1 1.7 4.6 8.3l1.6 4L3 54.8h9.5l17-42.8 17.2 42.8h9.5z" id="DejaVuSans-121"/><path d="M44.3 53v-8.4q-3.8 2-8 2.9-4 1-8.4 1-6.7 0-10-2-3.4-2.1-3.4-6.2 0-3.1 2.4-5 2.4-1.7 9.6-3.3l3-.7q9.7-2 13.7-5.8 4-3.7 4-10.4 0-7.6-6-12-6-4.5-16.6-4.5-4.4 0-9.1.8-4.8.9-10 2.6v9.3q5-2.6 9.7-4 4.9-1.2 9.6-1.2 6.4 0 9.8 2.2 3.4 2.2 3.4 6.1 0 3.7-2.5 5.6-2.4 2-10.8 3.8l-3.1.7q-8.4 1.8-12 5.4-3.8 3.6-3.8 10 0 7.7 5.5 11.9Q16.7 56 26.8 56q5 0 9.4-.7 4.4-.8 8-2.2z" id="DejaVuSans-115"/><path d="M9.4 54.7h9V0h-9zm0 21.3h9V64.6h-9z" id="DejaVuSans-105"/><path d="M54.9 33V0h-9v32.7q0 7.8-3 11.6-3 3.9-9.1 3.9-7.3 0-11.5-4.7Q18.1 39 18.1 31V0h-9v54.7h9v-8.5q3.2 5 7.6 7.4Q30.1 56 35.8 56q9.4 0 14.2-5.8Q55 44.3 55 33z" id="DejaVuSans-110"/><path d="M48.8 52.6v-8.4Q45 46.3 41 47.3q-3.8 1-7.7 1-8.7 0-13.6-5.5Q15 37.3 15 27.3t4.8-15.6q4.9-5.5 13.6-5.5 4 0 7.7 1 3.9 1.1 7.7 3.2V2.1Q45 .3 41-.5q-4-1-8.6-1-12.3 0-19.6 7.8-7.3 7.8-7.3 21 0 13.4 7.4 21Q20.2 56 33 56q4.2 0 8.1-.9 4-.8 7.7-2.5z" id="DejaVuSans-99"/><path d="M56.2 29.6v-4.4H14.9q.6-9.3 5.6-14.1 5-4.9 14-4.9 5 0 10 1.3 4.8 1.2 9.6 3.8V2.8q-4.8-2-10-3.1-5-1.1-10.2-1.1-13.1 0-20.7 7.6-7.7 7.6-7.7 20.6 0 13.4 7.3 21.3Q20 56 32.3 56q11 0 17.5-7.1 6.4-7.1 6.4-19.3zm-9 2.6q0 7.4-4.1 11.8-4 4.4-10.7 4.4-7.5 0-12-4.3-4.5-4.2-5.2-12z" id="DejaVuSans-101"/><path d="M25.4 73h8.3L8.3-9.4H0z" id="DejaVuSans-47"/></defs><g transform="matrix(.1 0 0 -.1 166.4 253)"><use xlink:href="#DejaVuSans-68"/><use x="77" xlink:href="#DejaVuSans-97"/><use x="138.3" xlink:href="#DejaVuSans-121"/><use x="197.5" xlink:href="#DejaVuSans-115"/><use x="249.6" xlink:href="#DejaVuSans-32"/><use x="281.3" xlink:href="#DejaVuSans-115"/><use x="333.4" xlink:href="#DejaVuSans-105"/><use x="361.2" xlink:href="#DejaVuSans-110"/><use x="424.6" xlink:href="#DejaVuSans-99"/><use x="479.6" xlink:href="#DejaVuSans-101"/><use x="541.1" xlink:href="#DejaVuSans-32"/><use x="572.9" xlink:href="#DejaVuSans-49"/><use x="636.5" xlink:href="#DejaVuSans-49"/><use x="700.1" xlink:href="#DejaVuSans-47"/><use x="733.8" xlink:href="#DejaVuSans-50"/><use x="797.5" xlink:href="#DejaVuSans-47"/><use x="831.2" xlink:href="#DejaVuSans-50"/><use x="894.8" xlink:href="#DejaVuSans-48"/><use x="958.4" xlink:href="#DejaVuSans-49"/><use x="1022" xlink:href="#DejaVuSans-54"/></g></g></g><g id="matplotlib.axis_2"><g id="ytick_1"><g id="line2d_9"><defs><path d="M0 0h-3.5" id="mcb075bb22b" stroke="#000" stroke-width=".8"/></defs><use x="53.3" xlink:href="#mcb075bb22b" y="191.6" stroke="#000" stroke-width=".8"/></g><g transform="matrix(.1 0 0 -.1 20.9 195.4)" id="text_10"><use xlink:href="#DejaVuSans-50"/><use x="63.6" xlink:href="#DejaVuSans-50"/><use x="127.2" xlink:href="#DejaVuSans-48"/><use x="190.9" xlink:href="#DejaVuSans-48"/></g></g><g id="ytick_2"><use x="53.3" xlink:href="#mcb075bb22b" y="151.4" stroke="#000" stroke-width=".8" id="line2d_10"/><g transform="matrix(.1 0 0 -.1 20.9 155.2)" id="text_11"><use xlink:href="#DejaVuSans-50"/><use x="63.6" xlink:href="#DejaVuSans-52"/><use x="127.2" xlink:href="#DejaVuSans-48"/><use x="190.9" xlink:href="#DejaVuSans-48"/></g></g><g id="ytick_3"><use x="53.3" xlink:href="#mcb075bb22b" y="111.1" stroke="#000" stroke-width=".8" id="line2d_11"/><g transform="matrix(.1 0 0 -.1 20.9 114.9)" id="text_12"><use xlink:href="#DejaVuSans-50"/><use x="63.6" xlink:href="#DejaVuSans-54"/><use x="127.2" xlink:href="#DejaVuSans-48"/><use x="190.9" xlink:href="#DejaVuSans-48"/></g></g><g id="ytick_4"><use x="53.3" xlink:href="#mcb075bb22b" y="70.8" stroke="#000" stroke-width=".8" id="line2d_12"/><g id="text_13"><defs><path d="M31.8 34.6q-7 0-11-3.7-4.1-3.8-4.1-10.4 0-6.6 4-10.3 4-3.8 11-3.8 7.1 0 11.2 3.8 4 3.8 4 10.3 0 6.6-4 10.4-4 3.7-11.1 3.7zm-9.9 4.2q-6.3 1.6-9.9 6Q8.5 49 8.5 55.2q0 8.8 6.2 13.8 6.3 5.1 17 5.1 11 0 17.2-5Q55 64 55 55.2q0-6.2-3.6-10.6-3.5-4.3-9.8-5.9 7.1-1.6 11.1-6.5 4-4.8 4-11.8 0-10.6-6.5-16.3-6.5-5.6-18.5-5.6T13.2 4.2Q6.8 10 6.8 20.5q0 7 4 11.8 4 4.9 11.1 6.5zm-3.6 15.6q0-5.7 3.5-8.8 3.6-3.2 10-3.2 6.3 0 10 3.2 3.5 3.1 3.5 8.8 0 5.7-3.6 8.8-3.6 3.2-10 3.2-6.3 0-9.9-3.2-3.5-3.1-3.5-8.8z" id="DejaVuSans-56"/></defs><g transform="matrix(.1 0 0 -.1 20.9 74.6)"><use xlink:href="#DejaVuSans-50"/><use x="63.6" xlink:href="#DejaVuSans-56"/><use x="127.2" xlink:href="#DejaVuSans-48"/><use x="190.9" xlink:href="#DejaVuSans-48"/></g></g></g><g id="ytick_5"><use x="53.3" xlink:href="#mcb075bb22b" y="30.6" stroke="#000" stroke-width=".8" id="line2d_13"/><g transform="matrix(.1 0 0 -.1 20.9 34.4)" id="text_14"><use xlink:href="#DejaVuSans-51"/><use x="63.6" xlink:href="#DejaVuSans-48"/><use x="127.2" xlink:href="#DejaVuSans-48"/><use x="190.9" xlink:href="#DejaVuSans-48"/></g></g><g id="text_15"><defs><path d="M53.5 70.5V61q-5.6 2.7-10.6 4-5 1.3-9.6 1.3-8 0-12.4-3.1t-4.4-8.9q0-4.8 3-7.3 2.8-2.5 11-4l5.9-1.2q11-2.1 16.3-7.4 5.2-5.3 5.2-14.2 0-10.6-7.1-16Q43.7-1.5 30-1.5q-5.2 0-11 1.1Q13 1 6.9 3.3v10.2q6-3.4 11.8-5.1Q24.4 6.6 30 6.6q8.4 0 13 3.3t4.6 9.5q0 5.4-3.3 8.4t-10.8 4.5l-6 1.2q-11 2.2-16 6.9t-5 13q0 9.7 7 15.3 6.7 5.5 18.7 5.5 5.1 0 10.4-1 5.4-.8 11-2.7z" id="DejaVuSans-83"/><path d="M24.3 39.2q-4.4-4-6.5-7.9-2-4-2-8.2 0-7.1 5-11.9 5.3-4.7 13-4.7 4.7 0 8.8 1.5 4 1.6 7.6 4.7zm6.9 5.5L56 19.3q2.9 4.3 4.5 9.3 1.6 5 2 10.5h9q-.6-6.4-3.1-12.7-2.6-6.3-7.1-12.5L74.9 0H62.6l-7 7.2Q50.6 2.8 45 .7q-5.6-2.1-12-2.1-11.8 0-19.2 6.7Q6.3 12 6.3 22.5q0 6.3 3.3 11.8 3.2 5.5 9.8 10.3-2.4 3-3.6 6.1-1.2 3-1.2 6 0 7.9 5.4 12.7 5.4 4.8 14.4 4.8 4 0 8.1-.9 4-.8 8.2-2.6v-8.9q-4.3 2.3-8.1 3.5-3.9 1.2-7.2 1.2-5.1 0-8.3-2.7-3.2-2.7-3.2-7 0-2.5 1.4-5 1.5-2.5 5.9-7.1z" id="DejaVuSans-38"/><path d="M19.7 64.8V37.4H32q6.9 0 10.6 3.6 3.8 3.5 3.8 10.1t-3.8 10.1q-3.7 3.6-10.6 3.6zm-9.9 8.1h22.3q12.2 0 18.5-5.5Q57 61.8 57 51q0-10.8-6.3-16.3t-18.5-5.5H19.7V0H9.8z" id="DejaVuSans-80"/></defs><g transform="matrix(0 -.1 -.1 0 14.8 137.1)"><use xlink:href="#DejaVuSans-83"/><use x="63.5" xlink:href="#DejaVuSans-38"/><use x="141.5" xlink:href="#DejaVuSans-80"/><use x="201.8" xlink:href="#DejaVuSans-32"/><use x="233.5" xlink:href="#DejaVuSans-53"/><use x="297.2" xlink:href="#DejaVuSans-48"/><use x="360.8" xlink:href="#DejaVuSans-48"/></g></g></g><path clip-path="url(#pe24f35dce6)" d="M68.5 212.2l.4 1.9.5.7.4-9.4.4-1.6.4-4.8.4-.8.4.6h.4l.4-3.2.4.7.4-2 .4 1 .4-3.3.4-1 .4-.3.4-1.8.4 2.4.4-.6.4 1.2.4 1.5.4-.1.4-2.6.4-1.5.4-5.9.4-1 .4-2.6.4.5.4-3 .5 3.7.4-1.8.4.8.4-.9.4-1.6.8 2 .4-.6.4-1 .4 3.8.4.1.4 2.1.4-3.8.4-2.6.4.3.4-1.6.4 1.7h.4l.4-1.3.4 1 .4-.9.4 1.4.4-.8.4 1.6.4-1.5.4 1.2.9-6.7.8.8.4 2.7.4.5.4-.2.4-.2.4-3.4.4 1 .4-.1.4-.3.4-2.7.4-1.6 1.2-6.7.4.4.4-.8.4-2.9.4.6.4-.2.4-.8.4-.4.4 1.2.4-6.5.4 2.8.4-.2.9 3 .4 1 .4-.4.4-1.5.4-.2.4 1.6.4-4 1.2 2.4.4 6 .4-1 1.2 1.4.4-3.4.4-.5.4-1.4.8 1.9.4-.3.4 1.4.4-.9.4.4.4-.3.4.7.4 1.8.5 3.2.4-4 .4 1.3.4.8.4-3.5.4 1.4.4-5.1.4-3 .4.3.4-.3.4 1 .4-.9.4-.6.4.7.4-.3.4-2h.4l.4.5.4-.6.4 1 .4.8.4-2.3.4.3.4 8.8.4-1.7.8-5.7.5-1 .4-1.1.4-2.2.4-.1.4.6.4.2.4-3.7.4-1.8.4.6.4 1.4.4-.8.4-.1.8.8.4-2.2.4.5.4 1.1.4-.1.4-4.1.4 3.3.8.5.4-.7.4-.2.4 4 .4-4.3.4 4.2.5-.7.4-1.2.4-.7.4 4.6.4-3.1.4-.5.4.4.4-3.5.4-1 .4-2.3h.4l.4-.2.4-2.7.8.3.4.5.4-1.5.4-.1.4.5.4.6.4.4.4-1.2.4-.3.4 1.1.8-1.7.4 1.2.5.2.4 7.2.4-.7.4-4.9.4.3.4-.7.4 7.6.4 1 .4-.6.4-5 .4 1.8.4 1 .4-.8.4-.2.4-.5.8-5 .4-1 .4 3.7.4-1.5h.4l.4.8.4-5.4.4-1.7.4-.3.4.5.8-1.6.5-.6.4-.3.4 1.5.4-.3.4 1.1h.4l.4-2 .4-.7.8-3.8.4-1.1.4-.7.4-2.9.4.6.4 1 .8-2.2.4.9.4-.5.4-.9 1.2-.9.4-2.6.4 2 .4-.8.4 2.4.5-.6.4-4.2.4 1.7.4-.5.4-.8.4-.1.4-1.7.4-.6h.4l.4-.7.4 2 .4.5.4-.6.4 1.3.4 2.8.4-4.2.4 1.4.4-.7.4-3.4.4.4.4-1 .4.1.4-5.1.4.1.4-4.3.4 1.1.4.6.5 2h.4l.4-1.5.4-3 .4-1.7.4-.8.4.2.4 2.2.4-4.8.4-2.9.4 1.8.4.4.4-1 .4.2.4.6.4-.4.4-1 .4 2.8.8-8 .4-2.2.4-3.8.8-1.7.4.7.8-7.7.4 2 .5-5.3.4 1 .4-2.5.4-4.6.4-1.3.4.4.4-.4.4-6.7.4 3.8.4 6.3.4-.3.4.4.4 12 .4 22.8.4-9.3.4 2.8.4 20.2.8-15 .4-1.5.8-13.7.4-.2.8 6.2.4-.5.9-15.3 1.2 20.6.4-2.8.4-6 .4-1.4.4.3.4-2.5.4-9.6.4.7.8 6.8.4.4.4-1 .4 8 .4-.8.4 1 .8 24.9.4-14.2.4 9.3.4 1.5.4-7.2.4 11.8.8-12.6.5-3.7.4 11.8.4-1.8.4-8.8.4 3 .4-4.4.4 1.6.4-4.4.4-5.7.4-.5.4 3.1.4 4.7h.4l.4 7.1.4-1 .4-5.5.4-.6.4 4.4.4-1.3.4 3.8.4 1.2.4-6.8.4-1.8.4.1.8-10.3.4-1 .5-.4.4 3.8.4-2.3.4.5.4 1.4.4-4 .4 1.7.4-1.7.8 2.4.4 6.3.4-6.9.4 3.8.4-6 .4-2.4.4-.4.4-4.7.4.4.4-1.8.4-.5.4-1 .4 2.2.4-1.3.4.5.4 1.2.4 2.3.4-1 .4 3.5.5-1 .4 7.6.4-1.2.4 4.7.4-3.3.4-.4.4-1.7.4 2.7 1.2-14.3.4-2 .4 4 .4-4.8.4-.6.4.5.4-2.2.4-1.2.4 2.2.4.6.4-1 .4-2.8.4-5.1.4 1.7.8 7 .4-2.8.5.6.8-5.4.8-3.6.4.1.4.8.4 4.1.4 2.3.4-3.6.4 4.3.4-4.5.8-3.3.4-1.2.4.3.4 1 .8-8 .4-.2.4-3.3.4 2.6.4-.1.4 1 .4 1.6.4 2.1.4 1.3.5-1.1.4-2.2.4-.2.4-3 .4-.2.4 3.2.4-3 .4-.8.4-4.6.4.2.4 2 .4.9.4 1.9.4-1.6h.4l.4-2.2.4.3.4-.4.4 4.8.4 3.2.4.2.4.8.4 19.1.4 11.5.4-7.8.4 3.3.4-11.9.4.2.5 8.1.4.2.8 5.5.4 17 .4-10 .4 9.5.4 3.5.4-8.3.8-11.7.4 3.5.8-6.5.4-11.8.4 1.5.4 5.2.4 11 .4.8.4 4.1.4-5.7.4-1.2.8 19 .4-1.7.4 3.5.4-8.2.5-1.7.4-12.5.4 1.3.4-4.6.4-6 .4 18.1.4.9.4 12.6.4-.9.4.2.4-2.9.4.1.8 21h.4l.8 15.9.4 10.2.4 13.2.4-23.5.4-4.2.4.6.4-4.2.4-.7.4 12.5.4-16.9.4-3.6.5-5 .8-4.4h.4l.4 2.8.4-5.6.4-1.1.4-4 .4-7 .4 7.6.4-1.2.4-.7.4-4.5.4 4.2.4.7.4-8.2.4-4.7.4-.5.4-3.6.4-2.6.4 1.2.4 5.1.8-.7.4-7 .4-1.7.4 1.5.5-6 .8-1.9.4 2 .4-3.6.4-.7.8.8.4 1.5.4-3.8.4 2.2.4.6.8 8.2.4 1.2.4-8.1.4-1.7.4-3.9.4.5.8-5 .4.2.4 1.6.4-6.1.4 10.9.4.5.4-4 .4 2.5.5-2 .4-3.8.4-6.6h.4l.8-2.5.4-2.6.4-.7.4 3.6.4-2h.4l.4-3.9.4.4.4-.3.4 1.3.4-1 .4-.5.4-5.2.4 1.3.4.2.4-2.7.8-1.2.4 4.4.4 1.3.4-5.7.4 2.7.5 9.7.4 1 .4 1.7.4-2.2.4 14 1.2-13 .8 7.3.4-4.8.4 1.6.4 6.8.4-.7.8 8.6.4-1.1.4 7.4.4 1.5.4-11.8 1.2-14.1.4-2.7.4.2.4 1.2.4-2.4.5 1 .4-.6.4-5.7.4-1.7.4-5.6.4.7.4 1 .4 5.7.4.7.4-2.2.4-3.4.4-4.6.4-1.7.4-4.6.4 1 .4 3 .4-.7.4-2.7.4-1.4.4-2.8.4-.1.4 2 .4 4 .4-2.2.4 3.8.4-1.7.4-4.1.4-2.9.5 3.2.4-4.5.4 1 .4 1.6.8 12 .4 4.3.4 17.6.4-7.4.4-.5.4-10.9.4 4 .4 7 .4-8.6.4 17.3.4-1.5.8-15.3.4 4.7.4-4.8.4.3.4 15.2.4-6.3.4 1.9.4-3.8.4-7.4.4-.3.5 4 .8-14 .4-.6.4.1.4-.2.4-4.3.4-1.8.4.5.4 1.9.4-1.6.4-.2h.4l.4 3h.4l.4 5 .4-3.6.4 1.5.4 3.1.4-3 .4 7.4.4 10.6.4-4.6.4-8.4.4 2.7.4 9.2.4-5.3.5-3.8.4-6.5.4.9.4-6 .4 1.2.4-1.6.4 2.3.4-4.1.4 2.2.4-1.8.4-1.1.4-2.5.4-3.4.4.5.4-2 .4 1.9.4-6h0" fill="none" stroke="#1f77b4" stroke-linecap="square" stroke-width="1.5" id="line2d_14"/><path d="M53.3 224.6V7.2" fill="none" stroke="#000" stroke-linecap="square" stroke-width=".8" id="patch_3"/><path d="M388.1 224.6V7.2" fill="none" stroke="#000" stroke-linecap="square" stroke-width=".8" id="patch_4"/><path d="M53.3 224.6h334.8" fill="none" stroke="#000" stroke-linecap="square" stroke-width=".8" id="patch_5"/><path d="M53.3 7.2h334.8" fill="none" stroke="#000" stroke-linecap="square" stroke-width=".8" id="patch_6"/></g></g><defs><clipPath id="pe24f35dce6"><path d="M53.3 7.2h334.8v217.4H53.3z"/></clipPath></defs></svg>