<?xml version="1.0" encoding="utf-8" standalone="no"?>
<!DOCTYPE svg PUBLIC "-//W3C//DTD SVG 1.1//EN"
  "http://www.w3.org/Graphics/SVG/1.1/DTD/svg11.dtd">
<!-- Created with matplotlib (https://matplotlib.org/) -->
<svg height="248.518125pt" version="1.1" viewBox="0 0 386.845313 248.518125" width="386.845313pt" xmlns="http://www.w3.org/2000/svg" xmlns:xlink="http://www.w3.org/1999/xlink">
 <defs>
  <style type="text/css">
*{stroke-linecap:butt;stroke-linejoin:round;}
  </style>
 </defs>
 <g id="figure_1">
  <g id="patch_1">
   <path d="M 0 248.518125 
L 386.845313 248.518125 
L 386.845313 0 
L 0 0 
z
" style="fill:none;"/>
  </g>
  <g id="axes_1">
   <g id="patch_2">
    <path d="M 44.845313 224.64 
L 379.645313 224.64 
L 379.645313 7.2 
L 44.845313 7.2 
z
" style="fill:#ffffff;"/>
   </g>
   <g id="matplotlib.axis_1">
    <g id="xtick_1">
     <g id="line2d_1">
      <defs>
       <path d="M 0 0 
L 0 3.5 
" id="m5d31ba8b2a" style="stroke:#000000;stroke-width:0.8;"/>
      </defs>
      <g>
       <use style="stroke:#000000;stroke-width:0.8;" x="60.063494" xlink:href="#m5d31ba8b2a" y="224.64"/>
      </g>
     </g>
     <g id="text_1">
      <!-- 0 -->
      <defs>
       <path d="M 31.78125 66.40625 
Q 24.171875 66.40625 20.328125 58.90625 
Q 16.5 51.421875 16.5 36.375 
Q 16.5 21.390625 20.328125 13.890625 
Q 24.171875 6.390625 31.78125 6.390625 
Q 39.453125 6.390625 43.28125 13.890625 
Q 47.125 21.390625 47.125 36.375 
Q 47.125 51.421875 43.28125 58.90625 
Q 39.453125 66.40625 31.78125 66.40625 
z
M 31.78125 74.21875 
Q 44.046875 74.21875 50.515625 64.515625 
Q 56.984375 54.828125 56.984375 36.375 
Q 56.984375 17.96875 50.515625 8.265625 
Q 44.046875 -1.421875 31.78125 -1.421875 
Q 19.53125 -1.421875 13.0625 8.265625 
Q 6.59375 17.96875 6.59375 36.375 
Q 6.59375 54.828125 13.0625 64.515625 
Q 19.53125 74.21875 31.78125 74.21875 
z
" id="DejaVuSans-48"/>
      </defs>
      <g transform="translate(56.882244 239.238437)scale(0.1 -0.1)">
       <use xlink:href="#DejaVuSans-48"/>
      </g>
     </g>
    </g>
    <g id="xtick_2">
     <g id="line2d_2">
      <g>
       <use style="stroke:#000000;stroke-width:0.8;" x="100.483632" xlink:href="#m5d31ba8b2a" y="224.64"/>
      </g>
     </g>
     <g id="text_2">
      <!-- 100 -->
      <defs>
       <path d="M 12.40625 8.296875 
L 28.515625 8.296875 
L 28.515625 63.921875 
L 10.984375 60.40625 
L 10.984375 69.390625 
L 28.421875 72.90625 
L 38.28125 72.90625 
L 38.28125 8.296875 
L 54.390625 8.296875 
L 54.390625 0 
L 12.40625 0 
z
" id="DejaVuSans-49"/>
      </defs>
      <g transform="translate(90.939882 239.238437)scale(0.1 -0.1)">
       <use xlink:href="#DejaVuSans-49"/>
       <use x="63.623047" xlink:href="#DejaVuSans-48"/>
       <use x="127.246094" xlink:href="#DejaVuSans-48"/>
      </g>
     </g>
    </g>
    <g id="xtick_3">
     <g id="line2d_3">
      <g>
       <use style="stroke:#000000;stroke-width:0.8;" x="140.90377" xlink:href="#m5d31ba8b2a" y="224.64"/>
      </g>
     </g>
     <g id="text_3">
      <!-- 200 -->
      <defs>
       <path d="M 19.1875 8.296875 
L 53.609375 8.296875 
L 53.609375 0 
L 7.328125 0 
L 7.328125 8.296875 
Q 12.9375 14.109375 22.625 23.890625 
Q 32.328125 33.6875 34.8125 36.53125 
Q 39.546875 41.84375 41.421875 45.53125 
Q 43.3125 49.21875 43.3125 52.78125 
Q 43.3125 58.59375 39.234375 62.25 
Q 35.15625 65.921875 28.609375 65.921875 
Q 23.96875 65.921875 18.8125 64.3125 
Q 13.671875 62.703125 7.8125 59.421875 
L 7.8125 69.390625 
Q 13.765625 71.78125 18.9375 73 
Q 24.125 74.21875 28.421875 74.21875 
Q 39.75 74.21875 46.484375 68.546875 
Q 53.21875 62.890625 53.21875 53.421875 
Q 53.21875 48.921875 51.53125 44.890625 
Q 49.859375 40.875 45.40625 35.40625 
Q 44.1875 33.984375 37.640625 27.21875 
Q 31.109375 20.453125 19.1875 8.296875 
z
" id="DejaVuSans-50"/>
      </defs>
      <g transform="translate(131.36002 239.238437)scale(0.1 -0.1)">
       <use xlink:href="#DejaVuSans-50"/>
       <use x="63.623047" xlink:href="#DejaVuSans-48"/>
       <use x="127.246094" xlink:href="#DejaVuSans-48"/>
      </g>
     </g>
    </g>
    <g id="xtick_4">
     <g id="line2d_4">
      <g>
       <use style="stroke:#000000;stroke-width:0.8;" x="181.323907" xlink:href="#m5d31ba8b2a" y="224.64"/>
      </g>
     </g>
     <g id="text_4">
      <!-- 300 -->
      <defs>
       <path d="M 40.578125 39.3125 
Q 47.65625 37.796875 51.625 33 
Q 55.609375 28.21875 55.609375 21.1875 
Q 55.609375 10.40625 48.1875 4.484375 
Q 40.765625 -1.421875 27.09375 -1.421875 
Q 22.515625 -1.421875 17.65625 -0.515625 
Q 12.796875 0.390625 7.625 2.203125 
L 7.625 11.71875 
Q 11.71875 9.328125 16.59375 8.109375 
Q 21.484375 6.890625 26.8125 6.890625 
Q 36.078125 6.890625 40.9375 10.546875 
Q 45.796875 14.203125 45.796875 21.1875 
Q 45.796875 27.640625 41.28125 31.265625 
Q 36.765625 34.90625 28.71875 34.90625 
L 20.21875 34.90625 
L 20.21875 43.015625 
L 29.109375 43.015625 
Q 36.375 43.015625 40.234375 45.921875 
Q 44.09375 48.828125 44.09375 54.296875 
Q 44.09375 59.90625 40.109375 62.90625 
Q 36.140625 65.921875 28.71875 65.921875 
Q 24.65625 65.921875 20.015625 65.03125 
Q 15.375 64.15625 9.8125 62.3125 
L 9.8125 71.09375 
Q 15.4375 72.65625 20.34375 73.4375 
Q 25.25 74.21875 29.59375 74.21875 
Q 40.828125 74.21875 47.359375 69.109375 
Q 53.90625 64.015625 53.90625 55.328125 
Q 53.90625 49.265625 50.4375 45.09375 
Q 46.96875 40.921875 40.578125 39.3125 
z
" id="DejaVuSans-51"/>
      </defs>
      <g transform="translate(171.780157 239.238437)scale(0.1 -0.1)">
       <use xlink:href="#DejaVuSans-51"/>
       <use x="63.623047" xlink:href="#DejaVuSans-48"/>
       <use x="127.246094" xlink:href="#DejaVuSans-48"/>
      </g>
     </g>
    </g>
    <g id="xtick_5">
     <g id="line2d_5">
      <g>
       <use style="stroke:#000000;stroke-width:0.8;" x="221.744045" xlink:href="#m5d31ba8b2a" y="224.64"/>
      </g>
     </g>
     <g id="text_5">
      <!-- 400 -->
      <defs>
       <path d="M 37.796875 64.3125 
L 12.890625 25.390625 
L 37.796875 25.390625 
z
M 35.203125 72.90625 
L 47.609375 72.90625 
L 47.609375 25.390625 
L 58.015625 25.390625 
L 58.015625 17.1875 
L 47.609375 17.1875 
L 47.609375 0 
L 37.796875 0 
L 37.796875 17.1875 
L 4.890625 17.1875 
L 4.890625 26.703125 
z
" id="DejaVuSans-52"/>
      </defs>
      <g transform="translate(212.200295 239.238437)scale(0.1 -0.1)">
       <use xlink:href="#DejaVuSans-52"/>
       <use x="63.623047" xlink:href="#DejaVuSans-48"/>
       <use x="127.246094" xlink:href="#DejaVuSans-48"/>
      </g>
     </g>
    </g>
    <g id="xtick_6">
     <g id="line2d_6">
      <g>
       <use style="stroke:#000000;stroke-width:0.8;" x="262.164182" xlink:href="#m5d31ba8b2a" y="224.64"/>
      </g>
     </g>
     <g id="text_6">
      <!-- 500 -->
      <defs>
       <path d="M 10.796875 72.90625 
L 49.515625 72.90625 
L 49.515625 64.59375 
L 19.828125 64.59375 
L 19.828125 46.734375 
Q 21.96875 47.46875 24.109375 47.828125 
Q 26.265625 48.1875 28.421875 48.1875 
Q 40.625 48.1875 47.75 41.5 
Q 54.890625 34.8125 54.890625 23.390625 
Q 54.890625 11.625 47.5625 5.09375 
Q 40.234375 -1.421875 26.90625 -1.421875 
Q 22.3125 -1.421875 17.546875 -0.640625 
Q 12.796875 0.140625 7.71875 1.703125 
L 7.71875 11.625 
Q 12.109375 9.234375 16.796875 8.0625 
Q 21.484375 6.890625 26.703125 6.890625 
Q 35.15625 6.890625 40.078125 11.328125 
Q 45.015625 15.765625 45.015625 23.390625 
Q 45.015625 31 40.078125 35.4375 
Q 35.15625 39.890625 26.703125 39.890625 
Q 22.75 39.890625 18.8125 39.015625 
Q 14.890625 38.140625 10.796875 36.28125 
z
" id="DejaVuSans-53"/>
      </defs>
      <g transform="translate(252.620432 239.238437)scale(0.1 -0.1)">
       <use xlink:href="#DejaVuSans-53"/>
       <use x="63.623047" xlink:href="#DejaVuSans-48"/>
       <use x="127.246094" xlink:href="#DejaVuSans-48"/>
      </g>
     </g>
    </g>
    <g id="xtick_7">
     <g id="line2d_7">
      <g>
       <use style="stroke:#000000;stroke-width:0.8;" x="302.58432" xlink:href="#m5d31ba8b2a" y="224.64"/>
      </g>
     </g>
     <g id="text_7">
      <!-- 600 -->
      <defs>
       <path d="M 33.015625 40.375 
Q 26.375 40.375 22.484375 35.828125 
Q 18.609375 31.296875 18.609375 23.390625 
Q 18.609375 15.53125 22.484375 10.953125 
Q 26.375 6.390625 33.015625 6.390625 
Q 39.65625 6.390625 43.53125 10.953125 
Q 47.40625 15.53125 47.40625 23.390625 
Q 47.40625 31.296875 43.53125 35.828125 
Q 39.65625 40.375 33.015625 40.375 
z
M 52.59375 71.296875 
L 52.59375 62.3125 
Q 48.875 64.0625 45.09375 64.984375 
Q 41.3125 65.921875 37.59375 65.921875 
Q 27.828125 65.921875 22.671875 59.328125 
Q 17.53125 52.734375 16.796875 39.40625 
Q 19.671875 43.65625 24.015625 45.921875 
Q 28.375 48.1875 33.59375 48.1875 
Q 44.578125 48.1875 50.953125 41.515625 
Q 57.328125 34.859375 57.328125 23.390625 
Q 57.328125 12.15625 50.6875 5.359375 
Q 44.046875 -1.421875 33.015625 -1.421875 
Q 20.359375 -1.421875 13.671875 8.265625 
Q 6.984375 17.96875 6.984375 36.375 
Q 6.984375 53.65625 15.1875 63.9375 
Q 23.390625 74.21875 37.203125 74.21875 
Q 40.921875 74.21875 44.703125 73.484375 
Q 48.484375 72.75 52.59375 71.296875 
z
" id="DejaVuSans-54"/>
      </defs>
      <g transform="translate(293.04057 239.238437)scale(0.1 -0.1)">
       <use xlink:href="#DejaVuSans-54"/>
       <use x="63.623047" xlink:href="#DejaVuSans-48"/>
       <use x="127.246094" xlink:href="#DejaVuSans-48"/>
      </g>
     </g>
    </g>
    <g id="xtick_8">
     <g id="line2d_8">
      <g>
       <use style="stroke:#000000;stroke-width:0.8;" x="343.004458" xlink:href="#m5d31ba8b2a" y="224.64"/>
      </g>
     </g>
     <g id="text_8">
      <!-- 700 -->
      <defs>
       <path d="M 8.203125 72.90625 
L 55.078125 72.90625 
L 55.078125 68.703125 
L 28.609375 0 
L 18.3125 0 
L 43.21875 64.59375 
L 8.203125 64.59375 
z
" id="DejaVuSans-55"/>
      </defs>
      <g transform="translate(333.460708 239.238437)scale(0.1 -0.1)">
       <use xlink:href="#DejaVuSans-55"/>
       <use x="63.623047" xlink:href="#DejaVuSans-48"/>
       <use x="127.246094" xlink:href="#DejaVuSans-48"/>
      </g>
     </g>
    </g>
   </g>
   <g id="matplotlib.axis_2">
    <g id="ytick_1">
     <g id="line2d_9">
      <defs>
       <path d="M 0 0 
L -3.5 0 
" id="mdb28ea9286" style="stroke:#000000;stroke-width:0.8;"/>
      </defs>
      <g>
       <use style="stroke:#000000;stroke-width:0.8;" x="44.845313" xlink:href="#mdb28ea9286" y="210.720452"/>
      </g>
     </g>
     <g id="text_9">
      <!-- −0.04 -->
      <defs>
       <path d="M 10.59375 35.5 
L 73.1875 35.5 
L 73.1875 27.203125 
L 10.59375 27.203125 
z
" id="DejaVuSans-8722"/>
       <path d="M 10.6875 12.40625 
L 21 12.40625 
L 21 0 
L 10.6875 0 
z
" id="DejaVuSans-46"/>
      </defs>
      <g transform="translate(7.2 214.519671)scale(0.1 -0.1)">
       <use xlink:href="#DejaVuSans-8722"/>
       <use x="83.789062" xlink:href="#DejaVuSans-48"/>
       <use x="147.412109" xlink:href="#DejaVuSans-46"/>
       <use x="179.199219" xlink:href="#DejaVuSans-48"/>
       <use x="242.822266" xlink:href="#DejaVuSans-52"/>
      </g>
     </g>
    </g>
    <g id="ytick_2">
     <g id="line2d_10">
      <g>
       <use style="stroke:#000000;stroke-width:0.8;" x="44.845313" xlink:href="#mdb28ea9286" y="166.912824"/>
      </g>
     </g>
     <g id="text_10">
      <!-- −0.02 -->
      <g transform="translate(7.2 170.712042)scale(0.1 -0.1)">
       <use xlink:href="#DejaVuSans-8722"/>
       <use x="83.789062" xlink:href="#DejaVuSans-48"/>
       <use x="147.412109" xlink:href="#DejaVuSans-46"/>
       <use x="179.199219" xlink:href="#DejaVuSans-48"/>
       <use x="242.822266" xlink:href="#DejaVuSans-50"/>
      </g>
     </g>
    </g>
    <g id="ytick_3">
     <g id="line2d_11">
      <g>
       <use style="stroke:#000000;stroke-width:0.8;" x="44.845313" xlink:href="#mdb28ea9286" y="123.105195"/>
      </g>
     </g>
     <g id="text_11">
      <!-- 0.00 -->
      <g transform="translate(15.579688 126.904414)scale(0.1 -0.1)">
       <use xlink:href="#DejaVuSans-48"/>
       <use x="63.623047" xlink:href="#DejaVuSans-46"/>
       <use x="95.410156" xlink:href="#DejaVuSans-48"/>
       <use x="159.033203" xlink:href="#DejaVuSans-48"/>
      </g>
     </g>
    </g>
    <g id="ytick_4">
     <g id="line2d_12">
      <g>
       <use style="stroke:#000000;stroke-width:0.8;" x="44.845313" xlink:href="#mdb28ea9286" y="79.297567"/>
      </g>
     </g>
     <g id="text_12">
      <!-- 0.02 -->
      <g transform="translate(15.579688 83.096786)scale(0.1 -0.1)">
       <use xlink:href="#DejaVuSans-48"/>
       <use x="63.623047" xlink:href="#DejaVuSans-46"/>
       <use x="95.410156" xlink:href="#DejaVuSans-48"/>
       <use x="159.033203" xlink:href="#DejaVuSans-50"/>
      </g>
     </g>
    </g>
    <g id="ytick_5">
     <g id="line2d_13">
      <g>
       <use style="stroke:#000000;stroke-width:0.8;" x="44.845313" xlink:href="#mdb28ea9286" y="35.489939"/>
      </g>
     </g>
     <g id="text_13">
      <!-- 0.04 -->
      <g transform="translate(15.579688 39.289157)scale(0.1 -0.1)">
       <use xlink:href="#DejaVuSans-48"/>
       <use x="63.623047" xlink:href="#DejaVuSans-46"/>
       <use x="95.410156" xlink:href="#DejaVuSans-48"/>
       <use x="159.033203" xlink:href="#DejaVuSans-52"/>
      </g>
     </g>
    </g>
   </g>
   <g id="line2d_14">
    <path clip-path="url(#p5ed1142c8b)" d="M 60.063494 132.815592 
L 60.467696 126.757721 
L 60.871897 74.960268 
L 61.276098 114.858716 
L 61.6803 98.975641 
L 62.084501 118.83645 
L 62.488703 126.169352 
L 62.892904 123.358205 
L 63.297105 106.780323 
L 63.701307 126.573749 
L 64.105508 112.886214 
L 64.509709 128.339228 
L 64.913911 106.822583 
L 65.318112 118.367211 
L 65.722314 121.336057 
L 66.126515 114.548058 
L 66.530716 134.644851 
L 66.934918 120.182287 
L 67.339119 128.925032 
L 67.74332 130.819132 
L 68.147522 122.235645 
L 68.551723 110.391296 
L 68.955925 115.646781 
L 69.360126 94.460906 
L 69.764327 118.380357 
L 70.168529 110.135115 
L 70.57273 125.597963 
L 70.976931 108.82724 
L 71.381133 140.957508 
L 71.785334 114.615917 
L 72.189536 126.943125 
L 72.593737 118.783156 
L 72.997938 115.152093 
L 73.40214 128.494303 
L 73.806341 127.189652 
L 74.210542 120.365252 
L 74.614744 118.185778 
L 75.018945 141.486127 
L 75.423147 123.747824 
L 75.827348 133.285793 
L 76.231549 104.594792 
L 76.635751 110.606883 
L 77.039952 124.793908 
L 77.444153 115.415209 
L 77.848355 130.891719 
L 78.656758 116.916121 
L 79.060959 127.808068 
L 79.46516 119.057036 
L 79.869362 129.614821 
L 80.273563 119.245304 
L 80.677765 131.025306 
L 81.081966 115.744347 
L 81.486167 129.005431 
L 81.890369 108.773334 
L 82.29457 105.595217 
L 82.698771 124.716383 
L 83.102973 125.003914 
L 83.507174 136.308061 
L 83.911376 125.055502 
L 84.315577 122.451697 
L 84.719778 121.856403 
L 85.12398 107.249958 
L 85.528181 127.743672 
L 85.932382 122.608428 
L 86.336584 121.586932 
L 86.740785 110.541214 
L 87.144987 115.308061 
L 87.549188 111.644735 
L 87.953389 114.345216 
L 88.357591 112.197267 
L 88.761792 124.998734 
L 89.165993 119.431544 
L 89.570195 109.897498 
L 89.974396 125.477082 
L 90.378598 122.187638 
L 90.782799 119.836625 
L 91.187 120.876477 
L 91.591202 128.760017 
L 91.995403 93.357227 
L 92.399604 135.978287 
L 92.803806 122.001969 
L 93.208007 130.295337 
L 93.612209 129.495755 
L 94.01641 128.114302 
L 94.824813 115.957218 
L 95.229014 122.30216 
L 95.633215 130.519069 
L 96.037417 104.837734 
L 96.441618 126.671096 
L 96.84582 125.986047 
L 97.250021 127.512032 
L 97.654222 150.453454 
L 98.058424 118.969466 
L 98.462625 125.428831 
L 98.866826 124.954667 
L 99.271028 125.33972 
L 99.675229 107.278994 
L 100.079431 120.729037 
L 100.483632 116.685764 
L 100.887833 128.050106 
L 101.292035 126.705142 
L 101.696236 121.879807 
L 102.100437 129.806784 
L 102.504639 118.882942 
L 102.90884 124.917721 
L 103.313042 121.599299 
L 104.121444 131.356353 
L 104.525646 138.083085 
L 104.929847 104.319519 
L 105.334048 129.473891 
L 105.73825 126.86787 
L 106.142451 106.614296 
L 106.546653 129.763135 
L 106.950854 99.489044 
L 107.355055 109.804919 
L 107.759257 124.169186 
L 108.163458 121.894487 
L 108.567659 127.299668 
L 108.971861 119.314217 
L 109.376062 120.502126 
L 109.780264 125.891696 
L 110.184465 121.830665 
L 110.588666 114.167669 
L 110.992868 123.023033 
L 111.397069 125.352068 
L 111.80127 120.63011 
L 112.205472 127.847756 
L 112.609673 126.345906 
L 113.013875 112.667868 
L 113.418076 124.610145 
L 113.822277 163.288865 
L 114.226479 115.044453 
L 114.63068 108.331732 
L 115.034881 111.831637 
L 115.439083 119.08316 
L 115.843284 117.659806 
L 116.247486 113.39734 
L 116.651687 122.425078 
L 117.055888 125.745231 
L 117.46009 124.113058 
L 117.864291 106.584043 
L 118.268493 114.998877 
L 118.672694 125.773998 
L 119.076895 129.200809 
L 119.481097 119.672637 
L 120.289499 124.923925 
L 120.693701 125.249995 
L 121.097902 113.245687 
L 121.502104 125.287373 
L 121.906305 128.016306 
L 122.310506 122.483952 
L 122.714708 104.897521 
L 123.118909 137.82278 
L 123.52311 124.381851 
L 123.927312 124.103663 
L 124.331513 119.688904 
L 124.735715 122.413596 
L 125.139916 140.859354 
L 125.544117 103.896696 
L 125.948319 142.024003 
L 126.35252 119.749369 
L 126.756721 118.049515 
L 127.160923 119.924297 
L 127.565124 143.723193 
L 127.969326 109.124559 
L 128.373527 121.073976 
L 128.777728 124.820324 
L 129.18193 107.161271 
L 129.586131 119.003054 
L 129.990332 112.892235 
L 130.394534 123.220985 
L 130.798735 121.796242 
L 131.202937 111.368539 
L 131.607138 123.441681 
L 132.011339 123.911201 
L 132.415541 125.436308 
L 132.819742 116.711649 
L 133.223943 122.486314 
L 133.628145 125.236652 
L 134.032346 126.044877 
L 134.436548 124.70065 
L 134.840749 117.747301 
L 135.24495 122.026346 
L 135.649152 127.893322 
L 136.053353 118.971389 
L 136.457554 119.500021 
L 136.861756 128.400127 
L 137.265957 123.901868 
L 137.670159 155.041383 
L 138.07436 120.313087 
L 138.478561 101.215304 
L 138.882763 124.198065 
L 139.286964 119.996835 
L 139.691165 157.181623 
L 140.095367 127.129079 
L 140.499568 120.560087 
L 140.90377 101.438514 
L 141.307971 130.683 
L 141.712172 127.653717 
L 142.116374 119.444105 
L 142.520575 122.038529 
L 142.924776 121.259924 
L 143.328978 113.019549 
L 143.733179 110.609619 
L 144.137381 118.767103 
L 144.541582 139.707144 
L 144.945783 116.262736 
L 145.349985 123.496125 
L 145.754186 126.368629 
L 146.158387 99.490903 
L 146.562589 115.74912 
L 146.96679 121.447559 
L 147.370992 125.517515 
L 147.775193 119.062776 
L 148.987797 121.716249 
L 149.391998 129.787192 
L 149.7962 121.686628 
L 150.200401 127.977697 
L 150.604603 122.947282 
L 151.008804 114.175356 
L 151.413005 120.468233 
L 151.817207 115.004631 
L 152.221408 114.636052 
L 152.625609 118.381579 
L 153.029811 120.376028 
L 153.434012 110.771434 
L 153.838214 125.458136 
L 154.242415 127.06108 
L 154.646616 118.024049 
L 155.050818 119.158468 
L 155.455019 126.802897 
L 155.859221 121.182641 
L 156.263422 119.273706 
L 156.667623 121.63267 
L 157.071825 121.479718 
L 157.476026 122.386948 
L 157.880227 111.925819 
L 158.284429 131.823796 
L 158.68863 119.56414 
L 159.092832 133.342957 
L 159.901234 105.493334 
L 160.305436 130.109118 
L 160.709637 121.037389 
L 161.113838 119.620723 
L 161.51804 122.689129 
L 161.922241 116.331894 
L 162.730644 123.51945 
L 163.134845 119.945312 
L 163.539047 131.3609 
L 163.943248 125.072203 
L 164.347449 120.951753 
L 165.155852 135.242097 
L 165.560054 105.225682 
L 165.964255 128.864795 
L 166.368456 120.31257 
L 166.772658 108.824377 
L 167.176859 124.749211 
L 167.58106 118.606055 
L 167.985262 123.947028 
L 168.389463 101.638829 
L 168.793665 123.914114 
L 169.197866 105.236977 
L 169.602067 127.544096 
L 170.006269 125.411008 
L 170.41047 131.311325 
L 171.218873 116.691579 
L 171.623074 111.077384 
L 172.027276 116.102884 
L 172.835678 124.141389 
L 173.23988 132.040056 
L 173.644081 103.535682 
L 174.048282 111.389868 
L 174.452484 130.192218 
L 175.260887 118.76022 
L 175.665088 124.109001 
L 176.069289 125.424684 
L 176.473491 121.373513 
L 176.877692 119.091654 
L 177.281893 134.487858 
L 177.686095 104.992719 
L 178.494498 114.298618 
L 178.898699 107.752422 
L 179.3029 119.467098 
L 179.707102 120.253198 
L 180.111303 125.542705 
L 180.515504 107.752818 
L 180.919706 108.370607 
L 181.323907 130.83875 
L 181.728109 102.579224 
L 182.13231 126.648547 
L 182.536511 113.520872 
L 182.940713 105.506812 
L 183.344914 118.347608 
L 183.749115 124.33222 
L 184.153317 121.785593 
L 184.557518 97.320908 
L 184.96172 137.900577 
L 185.365921 147.108727 
L 185.770122 122.034491 
L 186.174324 124.525155 
L 186.982726 214.756364 
L 187.386928 85.232208 
L 187.791129 134.088086 
L 188.195331 206.907185 
L 188.599532 90.631419 
L 189.003733 92.837007 
L 189.407935 117.389299 
L 189.812136 93.943638 
L 190.216337 96.827548 
L 190.620539 122.287323 
L 191.02474 135.937613 
L 191.428942 135.177898 
L 191.833143 120.973689 
L 192.237344 88.275403 
L 192.641546 97.503094 
L 193.045747 151.116422 
L 193.449949 147.545087 
L 193.85415 152.48677 
L 194.258351 112.02459 
L 194.662553 99.07312 
L 195.066754 117.332842 
L 195.470955 124.165267 
L 195.875157 113.35104 
L 196.279358 85.365992 
L 196.68356 125.897449 
L 197.087761 137.088425 
L 197.491962 135.680047 
L 197.896164 124.818669 
L 198.300365 119.377116 
L 198.704566 154.440809 
L 199.108768 119.861894 
L 199.512969 127.147957 
L 199.917171 178.926824 
L 200.321372 169.519012 
L 200.725573 64.413869 
L 201.129775 161.277656 
L 201.938177 93.150123 
L 202.342379 172.587209 
L 202.74658 95.646718 
L 203.150782 97.915576 
L 203.554983 108.124375 
L 203.959184 171.652858 
L 204.363386 115.808997 
L 204.767587 86.770005 
L 205.171788 135.241265 
L 205.57599 105.107093 
L 205.980191 129.437198 
L 206.384393 105.414969 
L 206.788594 99.875884 
L 207.192795 121.284944 
L 207.596997 135.683631 
L 208.001198 141.88373 
L 208.405399 122.98215 
L 208.809601 152.611595 
L 209.213802 119.084896 
L 209.618004 100.368753 
L 210.426406 141.112854 
L 210.830608 117.528918 
L 211.234809 138.945822 
L 211.63901 128.047221 
L 212.043212 95.222008 
L 212.447413 115.544009 
L 212.851615 123.68716 
L 213.255816 101.999547 
L 213.660017 102.675506 
L 214.064219 119.368021 
L 214.46842 121.1708 
L 214.872621 138.143653 
L 215.276823 114.229033 
L 215.681024 124.980622 
L 216.085226 128.878378 
L 216.489427 106.984885 
L 216.893628 129.984446 
L 217.29783 116.001549 
L 217.702031 127.54127 
L 218.106232 128.274557 
L 218.510434 148.5828 
L 218.914635 95.471537 
L 219.318837 138.226136 
L 219.723038 99.469306 
L 220.127239 113.315078 
L 220.531441 121.566734 
L 220.935642 104.419307 
L 221.339843 124.670115 
L 221.744045 116.268882 
L 222.148246 120.765545 
L 222.552448 119.289918 
L 222.956649 131.941582 
L 223.36085 117.698322 
L 223.765052 125.33411 
L 224.169253 127.767253 
L 224.573454 131.935827 
L 224.977656 119.358116 
L 225.381857 137.048523 
L 225.786059 119.03054 
L 226.19026 153.375807 
L 226.594461 118.281638 
L 226.998663 142.033423 
L 227.402864 109.613289 
L 227.807065 121.444679 
L 228.211267 116.39536 
L 228.615468 133.968682 
L 229.01967 104.303385 
L 229.423871 104.606259 
L 229.828072 103.864133 
L 230.232274 115.510727 
L 230.636475 138.699532 
L 231.040676 104.024815 
L 231.444878 120.742543 
L 231.849079 125.358264 
L 232.253281 114.418619 
L 232.657482 118.378007 
L 233.061683 131.780818 
L 234.274288 112.658069 
L 234.678489 103.259515 
L 235.08269 129.757073 
L 235.486892 137.526403 
L 235.891093 135.745448 
L 236.295294 112.431778 
L 236.699496 125.385201 
L 237.103697 112.340789 
L 237.507899 112.956309 
L 237.9121 115.368656 
L 238.316301 116.927916 
L 238.720503 123.679983 
L 239.124704 126.265388 
L 239.528905 138.742975 
L 239.933107 131.897393 
L 240.337308 109.154832 
L 240.74151 139.820573 
L 241.145711 105.82686 
L 241.549912 115.838327 
L 241.954114 117.793484 
L 242.358315 118.578924 
L 242.762516 123.977555 
L 243.166718 126.812773 
L 243.570919 109.569252 
L 243.975121 106.368218 
L 244.379322 122.515475 
L 244.783523 110.65236 
L 245.187725 132.830747 
L 245.591926 122.810761 
L 245.996127 126.731756 
L 246.80453 131.119745 
L 247.208732 127.958548 
L 247.612933 118.952133 
L 248.017134 114.928803 
L 248.421336 122.324109 
L 248.825537 111.565502 
L 249.63394 135.339165 
L 250.038141 111.376471 
L 250.442343 120.361688 
L 250.846544 105.998322 
L 251.250745 123.912513 
L 251.654947 130.819607 
L 252.059148 125.965677 
L 252.463349 130.321778 
L 252.867551 117.060912 
L 253.271752 123.120229 
L 253.675954 115.144351 
L 254.080155 123.974153 
L 254.484356 121.547308 
L 254.888558 141.073045 
L 255.292759 135.247139 
L 255.69696 123.970719 
L 256.101162 126.213268 
L 256.505363 196.299713 
L 256.909565 168.638071 
L 257.313766 92.206972 
L 257.717967 136.077814 
L 258.122169 76.520447 
L 258.52637 123.658722 
L 258.930571 154.858093 
L 259.334773 123.896438 
L 259.738974 132.542988 
L 260.143176 135.211646 
L 260.547377 191.775476 
L 260.951578 82.684487 
L 261.35578 161.391069 
L 261.759981 137.5206 
L 262.164182 89.054914 
L 262.568384 99.464763 
L 262.972585 100.100817 
L 263.376787 136.984985 
L 263.780988 110.872585 
L 264.185189 109.437595 
L 264.589391 77.135444 
L 264.993592 128.607729 
L 265.397793 143.34774 
L 265.801995 166.689705 
L 266.206196 126.353541 
L 266.610398 139.743864 
L 267.014599 100.022781 
L 267.4188 118.240769 
L 267.823002 159.866687 
L 268.227203 163.228519 
L 268.631404 116.449383 
L 269.035606 137.510168 
L 269.439807 89.344811 
L 269.844009 115.972448 
L 270.24821 73.352855 
L 270.652411 127.924272 
L 271.056613 105.248758 
L 271.460814 99.269615 
L 271.865016 195.169197 
L 272.269217 126.441909 
L 272.673418 174.790275 
L 273.07762 119.248713 
L 273.481821 123.885917 
L 273.886022 111.266498 
L 274.290224 123.543139 
L 274.694425 165.316426 
L 275.098627 169.086297 
L 275.502828 122.915928 
L 275.907029 157.090011 
L 276.311231 157.927427 
L 276.715432 168.672138 
L 277.119633 183.31126 
L 277.523835 17.083636 
L 277.928036 104.429613 
L 278.332238 125.826347 
L 278.736439 104.582053 
L 279.14064 120.328404 
L 279.544842 178.01428 
L 279.949043 49.159281 
L 280.353244 107.803243 
L 280.757446 101.971084 
L 281.161647 114.147297 
L 281.565849 113.23037 
L 282.374251 134.651643 
L 282.778453 99.745562 
L 283.182654 118.24364 
L 283.991057 94.417961 
L 284.395258 154.336649 
L 284.79946 118.285324 
L 285.203661 120.094008 
L 285.607862 104.590135 
L 286.012064 140.360602 
L 286.416265 126.297175 
L 286.820466 89.308504 
L 287.628869 121.137725 
L 288.033071 108.312786 
L 288.437272 112.816029 
L 289.245675 143.697346 
L 289.649876 121.624423 
L 290.054077 121.552674 
L 290.458279 95.051058 
L 290.86248 116.491527 
L 291.266682 128.920977 
L 291.670883 99.405351 
L 292.075084 119.824764 
L 292.479286 119.216053 
L 292.883487 130.843034 
L 293.287688 109.107291 
L 293.69189 120.408752 
L 294.096091 124.837122 
L 294.500293 124.29718 
L 294.904494 129.30298 
L 295.308695 108.053608 
L 295.712897 131.621725 
L 296.117098 125.584964 
L 296.521299 137.442317 
L 296.925501 140.976306 
L 297.329702 127.7795 
L 297.733904 91.214243 
L 298.138105 116.645812 
L 298.542306 107.93553 
L 298.946508 125.007367 
L 299.350709 112.213481 
L 299.75491 115.002732 
L 300.563313 129.563898 
L 300.967515 99.462109 
L 301.371716 165.066014 
L 301.775917 124.943857 
L 302.180119 107.428405 
L 302.58432 133.301857 
L 302.988521 115.256802 
L 303.392723 108.403969 
L 303.796924 97.911031 
L 304.201126 123.066998 
L 304.605327 118.404411 
L 305.009528 118.543795 
L 305.41373 112.973184 
L 305.817931 120.812081 
L 306.222132 136.435753 
L 306.626334 115.500554 
L 307.030535 123.021774 
L 307.434737 108.675768 
L 307.838938 124.484313 
L 308.243139 121.989776 
L 308.647341 128.0913 
L 309.051542 119.649168 
L 309.455744 120.889568 
L 309.859945 103.824659 
L 310.264146 127.911312 
L 310.668348 123.913479 
L 311.072549 112.866556 
L 311.47675 120.759519 
L 311.880952 121.022256 
L 312.285153 139.599671 
L 312.689355 127.762511 
L 313.093556 102.094683 
L 313.901959 159.573982 
L 314.30616 126.624418 
L 314.710361 129.733324 
L 315.114563 114.971394 
L 315.518764 176.608643 
L 315.922966 105.617059 
L 316.327167 110.352845 
L 316.731368 103.707354 
L 317.13557 135.928616 
L 317.539771 137.938985 
L 317.943972 104.574776 
L 318.752375 149.35841 
L 319.156577 120.142442 
L 319.560778 141.528254 
L 319.964979 138.297583 
L 320.369181 118.513628 
L 320.773382 152.200444 
L 321.177583 129.170431 
L 321.581785 76.656181 
L 321.985986 105.300091 
L 322.390188 109.70705 
L 322.794389 100.231162 
L 323.602792 123.871693 
L 324.006993 127.572913 
L 324.411194 114.148554 
L 324.815396 126.637935 
L 325.219597 121.065215 
L 325.623799 101.923194 
L 326.028 116.57626 
L 326.432201 102.455122 
L 326.836403 125.865133 
L 327.240604 126.902079 
L 327.644805 144.005163 
L 328.049007 125.80976 
L 328.453208 114.746869 
L 329.261611 106.36412 
L 329.665812 116.700804 
L 330.070014 106.363943 
L 330.474215 127.06427 
L 330.878416 133.722382 
L 331.282618 120.398287 
L 331.686819 113.247418 
L 332.091021 118.105274 
L 332.495222 113.008635 
L 333.303625 130.573479 
L 333.707826 137.457946 
L 334.112027 115.273408 
L 334.516229 136.676557 
L 334.92043 116.917964 
L 335.324632 108.157672 
L 335.728833 112.860423 
L 336.133034 134.662198 
L 336.537236 106.982949 
L 336.941437 126.647867 
L 337.345638 128.7607 
L 337.74984 147.079337 
L 338.558243 139.115538 
L 338.962444 189.320782 
L 339.366645 94.776962 
L 339.770847 121.426058 
L 340.175048 82.389453 
L 340.579249 137.646107 
L 340.983451 149.454716 
L 341.387652 91.00706 
L 341.791854 188.226029 
L 342.196055 117.714148 
L 342.600256 91.732108 
L 343.004458 96.74793 
L 343.408659 140.510518 
L 343.81286 105.11558 
L 344.217062 124.213987 
L 344.621263 180.687992 
L 345.025465 99.179241 
L 345.429666 130.132666 
L 345.833867 108.814837 
L 346.238069 95.490102 
L 346.64227 121.69761 
L 347.046472 138.26927 
L 347.450673 99.484732 
L 347.854874 94.792494 
L 348.259076 121.111502 
L 348.663277 123.311102 
L 349.067478 122.399311 
L 349.47168 107.326434 
L 350.280083 124.692386 
L 350.684284 129.984166 
L 351.088485 117.457453 
L 351.492687 122.354719 
L 351.896888 123.061486 
L 352.301089 133.854731 
L 352.705291 123.317504 
L 353.109492 141.618326 
L 353.513694 109.656957 
L 353.917895 128.431921 
L 354.322096 134.781042 
L 354.726298 112.076785 
L 355.130499 150.121644 
L 355.5347 162.675402 
L 355.938902 105.712729 
L 356.343103 92.184147 
L 356.747305 132.936421 
L 357.151506 157.457312 
L 357.555707 103.253002 
L 357.959909 109.097249 
L 358.36411 99.274868 
L 358.768311 126.145537 
L 359.172513 101.406323 
L 359.576714 127.489348 
L 359.980916 117.061892 
L 360.385117 131.706923 
L 360.789318 108.105228 
L 361.19352 130.935931 
L 361.597721 116.877736 
L 362.001922 118.902733 
L 362.406124 114.202551 
L 362.810325 110.913835 
L 363.214527 124.929219 
L 363.618728 115.990732 
L 364.022929 129.736469 
L 364.427131 102.042535 
L 364.427131 102.042535 
" style="fill:none;stroke:#1f77b4;stroke-linecap:square;stroke-width:1.5;"/>
   </g>
   <g id="line2d_15">
    <path clip-path="url(#p5ed1142c8b)" d="M 60.063494 111.125949 
L 61.276098 111.227507 
L 61.6803 111.376831 
L 62.488703 111.946746 
L 63.297105 112.272224 
L 64.509709 112.713716 
L 66.934918 113.35573 
L 67.74332 113.427107 
L 68.955925 113.197144 
L 69.764327 113.256433 
L 71.785334 113.797979 
L 72.997938 114.261279 
L 74.210542 114.43721 
L 75.018945 114.371446 
L 77.039952 114.787774 
L 78.656758 115.25529 
L 79.869362 115.320025 
L 81.486167 115.137468 
L 82.29457 115.104681 
L 83.507174 115.296569 
L 84.719778 115.388812 
L 87.549188 115.216637 
L 91.187 115.307932 
L 92.399604 115.111515 
L 93.612209 115.354062 
L 95.229014 115.429282 
L 96.441618 115.373759 
L 98.058424 115.500336 
L 99.271028 115.675538 
L 102.504639 115.78282 
L 103.313042 115.577414 
L 104.121444 115.305113 
L 104.929847 115.044224 
L 106.950854 114.993399 
L 107.355055 115.108388 
L 108.163458 115.49998 
L 109.780264 115.877154 
L 111.80127 115.723039 
L 114.226479 114.9573 
L 115.034881 115.058395 
L 115.843284 115.347692 
L 120.289499 115.75795 
L 121.502104 115.546333 
L 122.714708 115.19442 
L 123.52311 115.084723 
L 124.331513 114.932015 
L 125.544117 114.537754 
L 125.948319 114.527114 
L 126.756721 114.728497 
L 127.969326 114.888974 
L 129.18193 115.334359 
L 131.607138 116.205292 
L 132.415541 116.377538 
L 134.436548 116.37561 
L 135.649152 116.046386 
L 136.457554 115.732815 
L 138.478561 114.723835 
L 139.286964 114.671256 
L 139.691165 114.553631 
L 143.733179 115.424028 
L 144.541582 115.563323 
L 146.562589 116.261961 
L 147.775193 116.806648 
L 148.987797 117.092262 
L 151.008804 117.240006 
L 153.838214 117.336389 
L 154.646616 117.442238 
L 156.263422 117.476764 
L 157.476026 117.262992 
L 159.092832 116.888574 
L 160.305436 116.763505 
L 161.51804 116.84048 
L 162.730644 116.692568 
L 163.943248 116.333993 
L 165.964255 115.592228 
L 167.58106 115.369393 
L 168.389463 115.113565 
L 172.431477 114.653909 
L 174.452484 114.191962 
L 175.260887 114.08077 
L 176.069289 113.819129 
L 176.877692 113.316255 
L 178.090296 112.406428 
L 180.111303 111.100584 
L 182.13231 109.061647 
L 183.749115 106.988041 
L 184.96172 104.783355 
L 186.174324 102.150173 
L 186.982726 100.027375 
L 187.386928 99.57684 
L 188.195331 99.009231 
L 188.599532 99.097198 
L 189.812136 99.882202 
L 190.216337 100.231599 
L 190.620539 100.313841 
L 191.02474 100.574127 
L 191.428942 100.649571 
L 192.237344 100.567248 
L 193.449949 100.805466 
L 194.258351 101.21458 
L 194.662553 101.281574 
L 195.066754 101.462061 
L 195.470955 101.490794 
L 196.68356 101.264834 
L 197.087761 101.268043 
L 198.300365 100.55294 
L 199.917171 98.552158 
L 200.321372 98.102348 
L 201.129775 98.264926 
L 201.533976 98.630078 
L 202.342379 98.941715 
L 204.363386 101.265303 
L 205.980191 103.719147 
L 206.384393 104.133806 
L 206.788594 104.711118 
L 209.213802 106.870251 
L 211.234809 108.303558 
L 211.63901 108.572992 
L 212.043212 108.701757 
L 213.255816 109.358329 
L 214.872621 110.32748 
L 216.489427 110.686565 
L 217.702031 110.730284 
L 218.914635 110.492479 
L 219.723038 110.777818 
L 220.935642 111.559059 
L 222.148246 112.192777 
L 223.36085 112.381677 
L 224.169253 112.306587 
L 225.786059 111.835937 
L 226.19026 111.663302 
L 228.211267 111.706589 
L 229.423871 111.546973 
L 231.040676 112.085015 
L 232.253281 112.675985 
L 233.870086 112.893279 
L 235.486892 112.900318 
L 236.699496 113.200738 
L 239.124704 113.408079 
L 240.74151 113.289884 
L 241.145711 113.335044 
L 241.954114 113.637482 
L 243.166718 113.84027 
L 243.975121 113.842285 
L 245.187725 113.96671 
L 245.591926 114.101518 
L 247.208732 113.993426 
L 248.421336 113.655807 
L 249.63394 113.107824 
L 252.059148 111.771924 
L 253.271752 110.705458 
L 254.080155 109.616888 
L 255.292759 107.226243 
L 256.101162 105.24673 
L 256.505363 104.084249 
L 257.313766 102.688596 
L 258.122169 101.753994 
L 259.738974 100.19502 
L 260.547377 98.890653 
L 261.35578 98.418902 
L 262.972585 98.529951 
L 263.376787 98.650073 
L 263.780988 98.643835 
L 265.801995 97.780152 
L 266.610398 97.749775 
L 267.014599 97.660513 
L 268.227203 97.022891 
L 268.631404 97.00494 
L 269.439807 96.49474 
L 269.844009 96.126986 
L 270.652411 95.772466 
L 271.056613 95.587514 
L 271.865016 94.903918 
L 272.673418 94.963495 
L 273.07762 95.04974 
L 273.886022 94.849917 
L 275.098627 93.853869 
L 275.502828 93.746817 
L 275.907029 93.415816 
L 276.715432 93.028266 
L 277.119633 93.082343 
L 277.523835 93.32175 
L 278.332238 95.100731 
L 279.949043 97.40493 
L 281.161647 100.206815 
L 281.97005 101.718342 
L 283.182654 103.196522 
L 286.416265 106.451233 
L 286.820466 106.750204 
L 288.033071 108.061625 
L 288.841473 108.808018 
L 290.86248 109.912269 
L 291.266682 110.170947 
L 291.670883 110.288017 
L 292.479286 110.847121 
L 294.096091 111.386273 
L 294.904494 111.352372 
L 295.712897 111.188079 
L 298.138105 110.828823 
L 298.946508 110.954211 
L 300.159112 110.851182 
L 301.371716 110.495642 
L 302.180119 110.901778 
L 303.392723 111.355369 
L 305.817931 112.469496 
L 306.222132 112.458216 
L 307.030535 112.601878 
L 308.647341 112.602079 
L 309.455744 112.330149 
L 311.072549 111.598077 
L 311.47675 111.391965 
L 314.30616 108.916952 
L 315.114563 108.365391 
L 315.518764 107.959569 
L 318.752375 107.782908 
L 319.156577 107.892067 
L 319.560778 107.736407 
L 320.369181 107.801878 
L 320.773382 107.711359 
L 321.581785 107.84426 
L 323.602792 109.438434 
L 324.411194 109.909671 
L 325.219597 110.198819 
L 326.028 110.295238 
L 327.644805 110.56634 
L 328.453208 110.783302 
L 329.665812 110.906875 
L 331.282618 110.951609 
L 332.091021 110.796421 
L 332.899423 110.47655 
L 334.112027 109.643483 
L 335.324632 108.533648 
L 336.537236 107.222373 
L 337.345638 106.028234 
L 338.962444 103.189771 
L 340.579249 101.88511 
L 341.387652 101.519683 
L 341.791854 101.432473 
L 343.004458 102.030147 
L 343.81286 102.757426 
L 344.621263 103.223065 
L 345.833867 104.668549 
L 347.450673 106.445641 
L 347.854874 106.806826 
L 348.663277 107.792249 
L 350.280083 108.876335 
L 350.684284 109.045163 
L 351.896888 109.094475 
L 352.301089 109.032312 
L 354.322096 108.005101 
L 355.5347 107.23454 
L 355.938902 107.128107 
L 356.747305 107.356672 
L 357.555707 107.847897 
L 358.36411 108.468481 
L 360.385117 110.042161 
L 363.214527 110.990145 
L 364.427131 110.847564 
L 364.427131 110.847564 
" style="fill:none;stroke:#ff7f0e;stroke-linecap:square;stroke-width:1.5;"/>
   </g>
   <g id="patch_3">
    <path d="M 44.845313 224.64 
L 44.845313 7.2 
" style="fill:none;stroke:#000000;stroke-linecap:square;stroke-linejoin:miter;stroke-width:0.8;"/>
   </g>
   <g id="patch_4">
    <path d="M 379.645313 224.64 
L 379.645313 7.2 
" style="fill:none;stroke:#000000;stroke-linecap:square;stroke-linejoin:miter;stroke-width:0.8;"/>
   </g>
   <g id="patch_5">
    <path d="M 44.845313 224.64 
L 379.645313 224.64 
" style="fill:none;stroke:#000000;stroke-linecap:square;stroke-linejoin:miter;stroke-width:0.8;"/>
   </g>
   <g id="patch_6">
    <path d="M 44.845313 7.2 
L 379.645313 7.2 
" style="fill:none;stroke:#000000;stroke-linecap:square;stroke-linejoin:miter;stroke-width:0.8;"/>
   </g>
   <g id="legend_1">
    <g id="patch_7">
     <path d="M 296.696875 44.55625 
L 372.645313 44.55625 
Q 374.645313 44.55625 374.645313 42.55625 
L 374.645313 14.2 
Q 374.645313 12.2 372.645313 12.2 
L 296.696875 12.2 
Q 294.696875 12.2 294.696875 14.2 
L 294.696875 42.55625 
Q 294.696875 44.55625 296.696875 44.55625 
z
" style="fill:#ffffff;opacity:0.8;stroke:#cccccc;stroke-linejoin:miter;"/>
    </g>
    <g id="line2d_16">
     <path d="M 298.696875 20.298437 
L 318.696875 20.298437 
" style="fill:none;stroke:#1f77b4;stroke-linecap:square;stroke-width:1.5;"/>
    </g>
    <g id="line2d_17"/>
    <g id="text_14">
     <!-- S&amp;P 500 -->
     <defs>
      <path d="M 53.515625 70.515625 
L 53.515625 60.890625 
Q 47.90625 63.578125 42.921875 64.890625 
Q 37.9375 66.21875 33.296875 66.21875 
Q 25.25 66.21875 20.875 63.09375 
Q 16.5 59.96875 16.5 54.203125 
Q 16.5 49.359375 19.40625 46.890625 
Q 22.3125 44.4375 30.421875 42.921875 
L 36.375 41.703125 
Q 47.40625 39.59375 52.65625 34.296875 
Q 57.90625 29 57.90625 20.125 
Q 57.90625 9.515625 50.796875 4.046875 
Q 43.703125 -1.421875 29.984375 -1.421875 
Q 24.8125 -1.421875 18.96875 -0.25 
Q 13.140625 0.921875 6.890625 3.21875 
L 6.890625 13.375 
Q 12.890625 10.015625 18.65625 8.296875 
Q 24.421875 6.59375 29.984375 6.59375 
Q 38.421875 6.59375 43.015625 9.90625 
Q 47.609375 13.234375 47.609375 19.390625 
Q 47.609375 24.75 44.3125 27.78125 
Q 41.015625 30.8125 33.5 32.328125 
L 27.484375 33.5 
Q 16.453125 35.6875 11.515625 40.375 
Q 6.59375 45.0625 6.59375 53.421875 
Q 6.59375 63.09375 13.40625 68.65625 
Q 20.21875 74.21875 32.171875 74.21875 
Q 37.3125 74.21875 42.625 73.28125 
Q 47.953125 72.359375 53.515625 70.515625 
z
" id="DejaVuSans-83"/>
      <path d="M 24.3125 39.203125 
Q 19.875 35.25 17.796875 31.3125 
Q 15.71875 27.390625 15.71875 23.09375 
Q 15.71875 15.96875 20.890625 11.234375 
Q 26.078125 6.5 33.890625 6.5 
Q 38.53125 6.5 42.578125 8.03125 
Q 46.625 9.578125 50.203125 12.703125 
z
M 31.203125 44.671875 
L 56 19.28125 
Q 58.890625 23.640625 60.5 28.59375 
Q 62.109375 33.546875 62.40625 39.109375 
L 71.484375 39.109375 
Q 70.90625 32.671875 68.359375 26.359375 
Q 65.828125 20.0625 61.28125 13.921875 
L 74.90625 0 
L 62.59375 0 
L 55.609375 7.171875 
Q 50.53125 2.828125 44.96875 0.703125 
Q 39.40625 -1.421875 33.015625 -1.421875 
Q 21.234375 -1.421875 13.765625 5.296875 
Q 6.296875 12.015625 6.296875 22.515625 
Q 6.296875 28.765625 9.5625 34.25 
Q 12.84375 39.75 19.390625 44.578125 
Q 17.046875 47.65625 15.8125 50.703125 
Q 14.59375 53.765625 14.59375 56.6875 
Q 14.59375 64.59375 20.015625 69.40625 
Q 25.4375 74.21875 34.421875 74.21875 
Q 38.484375 74.21875 42.5 73.34375 
Q 46.53125 72.46875 50.6875 70.703125 
L 50.6875 61.8125 
Q 46.4375 64.109375 42.578125 65.296875 
Q 38.71875 66.5 35.40625 66.5 
Q 30.28125 66.5 27.078125 63.78125 
Q 23.875 61.078125 23.875 56.78125 
Q 23.875 54.296875 25.3125 51.78125 
Q 26.765625 49.265625 31.203125 44.671875 
z
" id="DejaVuSans-38"/>
      <path d="M 19.671875 64.796875 
L 19.671875 37.40625 
L 32.078125 37.40625 
Q 38.96875 37.40625 42.71875 40.96875 
Q 46.484375 44.53125 46.484375 51.125 
Q 46.484375 57.671875 42.71875 61.234375 
Q 38.96875 64.796875 32.078125 64.796875 
z
M 9.8125 72.90625 
L 32.078125 72.90625 
Q 44.34375 72.90625 50.609375 67.359375 
Q 56.890625 61.8125 56.890625 51.125 
Q 56.890625 40.328125 50.609375 34.8125 
Q 44.34375 29.296875 32.078125 29.296875 
L 19.671875 29.296875 
L 19.671875 0 
L 9.8125 0 
z
" id="DejaVuSans-80"/>
      <path id="DejaVuSans-32"/>
     </defs>
     <g transform="translate(326.696875 23.798437)scale(0.1 -0.1)">
      <use xlink:href="#DejaVuSans-83"/>
      <use x="63.476562" xlink:href="#DejaVuSans-38"/>
      <use x="141.455078" xlink:href="#DejaVuSans-80"/>
      <use x="201.757812" xlink:href="#DejaVuSans-32"/>
      <use x="233.544922" xlink:href="#DejaVuSans-53"/>
      <use x="297.167969" xlink:href="#DejaVuSans-48"/>
      <use x="360.791016" xlink:href="#DejaVuSans-48"/>
     </g>
    </g>
    <g id="line2d_18">
     <path d="M 298.696875 34.976562 
L 318.696875 34.976562 
" style="fill:none;stroke:#ff7f0e;stroke-linecap:square;stroke-width:1.5;"/>
    </g>
    <g id="line2d_19"/>
    <g id="text_15">
     <!-- Volatility -->
     <defs>
      <path d="M 28.609375 0 
L 0.78125 72.90625 
L 11.078125 72.90625 
L 34.1875 11.53125 
L 57.328125 72.90625 
L 67.578125 72.90625 
L 39.796875 0 
z
" id="DejaVuSans-86"/>
      <path d="M 30.609375 48.390625 
Q 23.390625 48.390625 19.1875 42.75 
Q 14.984375 37.109375 14.984375 27.296875 
Q 14.984375 17.484375 19.15625 11.84375 
Q 23.34375 6.203125 30.609375 6.203125 
Q 37.796875 6.203125 41.984375 11.859375 
Q 46.1875 17.53125 46.1875 27.296875 
Q 46.1875 37.015625 41.984375 42.703125 
Q 37.796875 48.390625 30.609375 48.390625 
z
M 30.609375 56 
Q 42.328125 56 49.015625 48.375 
Q 55.71875 40.765625 55.71875 27.296875 
Q 55.71875 13.875 49.015625 6.21875 
Q 42.328125 -1.421875 30.609375 -1.421875 
Q 18.84375 -1.421875 12.171875 6.21875 
Q 5.515625 13.875 5.515625 27.296875 
Q 5.515625 40.765625 12.171875 48.375 
Q 18.84375 56 30.609375 56 
z
" id="DejaVuSans-111"/>
      <path d="M 9.421875 75.984375 
L 18.40625 75.984375 
L 18.40625 0 
L 9.421875 0 
z
" id="DejaVuSans-108"/>
      <path d="M 34.28125 27.484375 
Q 23.390625 27.484375 19.1875 25 
Q 14.984375 22.515625 14.984375 16.5 
Q 14.984375 11.71875 18.140625 8.90625 
Q 21.296875 6.109375 26.703125 6.109375 
Q 34.1875 6.109375 38.703125 11.40625 
Q 43.21875 16.703125 43.21875 25.484375 
L 43.21875 27.484375 
z
M 52.203125 31.203125 
L 52.203125 0 
L 43.21875 0 
L 43.21875 8.296875 
Q 40.140625 3.328125 35.546875 0.953125 
Q 30.953125 -1.421875 24.3125 -1.421875 
Q 15.921875 -1.421875 10.953125 3.296875 
Q 6 8.015625 6 15.921875 
Q 6 25.140625 12.171875 29.828125 
Q 18.359375 34.515625 30.609375 34.515625 
L 43.21875 34.515625 
L 43.21875 35.40625 
Q 43.21875 41.609375 39.140625 45 
Q 35.0625 48.390625 27.6875 48.390625 
Q 23 48.390625 18.546875 47.265625 
Q 14.109375 46.140625 10.015625 43.890625 
L 10.015625 52.203125 
Q 14.9375 54.109375 19.578125 55.046875 
Q 24.21875 56 28.609375 56 
Q 40.484375 56 46.34375 49.84375 
Q 52.203125 43.703125 52.203125 31.203125 
z
" id="DejaVuSans-97"/>
      <path d="M 18.3125 70.21875 
L 18.3125 54.6875 
L 36.8125 54.6875 
L 36.8125 47.703125 
L 18.3125 47.703125 
L 18.3125 18.015625 
Q 18.3125 11.328125 20.140625 9.421875 
Q 21.96875 7.515625 27.59375 7.515625 
L 36.8125 7.515625 
L 36.8125 0 
L 27.59375 0 
Q 17.1875 0 13.234375 3.875 
Q 9.28125 7.765625 9.28125 18.015625 
L 9.28125 47.703125 
L 2.6875 47.703125 
L 2.6875 54.6875 
L 9.28125 54.6875 
L 9.28125 70.21875 
z
" id="DejaVuSans-116"/>
      <path d="M 9.421875 54.6875 
L 18.40625 54.6875 
L 18.40625 0 
L 9.421875 0 
z
M 9.421875 75.984375 
L 18.40625 75.984375 
L 18.40625 64.59375 
L 9.421875 64.59375 
z
" id="DejaVuSans-105"/>
      <path d="M 32.171875 -5.078125 
Q 28.375 -14.84375 24.75 -17.8125 
Q 21.140625 -20.796875 15.09375 -20.796875 
L 7.90625 -20.796875 
L 7.90625 -13.28125 
L 13.1875 -13.28125 
Q 16.890625 -13.28125 18.9375 -11.515625 
Q 21 -9.765625 23.484375 -3.21875 
L 25.09375 0.875 
L 2.984375 54.6875 
L 12.5 54.6875 
L 29.59375 11.921875 
L 46.6875 54.6875 
L 56.203125 54.6875 
z
" id="DejaVuSans-121"/>
     </defs>
     <g transform="translate(326.696875 38.476562)scale(0.1 -0.1)">
      <use xlink:href="#DejaVuSans-86"/>
      <use x="68.298828" xlink:href="#DejaVuSans-111"/>
      <use x="129.480469" xlink:href="#DejaVuSans-108"/>
      <use x="157.263672" xlink:href="#DejaVuSans-97"/>
      <use x="218.542969" xlink:href="#DejaVuSans-116"/>
      <use x="257.751953" xlink:href="#DejaVuSans-105"/>
      <use x="285.535156" xlink:href="#DejaVuSans-108"/>
      <use x="313.318359" xlink:href="#DejaVuSans-105"/>
      <use x="341.101562" xlink:href="#DejaVuSans-116"/>
      <use x="380.310547" xlink:href="#DejaVuSans-121"/>
     </g>
    </g>
   </g>
  </g>
 </g>
 <defs>
  <clipPath id="p5ed1142c8b">
   <rect height="217.44" width="334.8" x="44.845313" y="7.2"/>
  </clipPath>
 </defs>
</svg>
