<?xml version="1.0" encoding="utf-8" standalone="no"?>
<!DOCTYPE svg PUBLIC "-//W3C//DTD SVG 1.1//EN"
  "http://www.w3.org/Graphics/SVG/1.1/DTD/svg11.dtd">
<!-- Created with matplotlib (https://matplotlib.org/) -->
<svg height="262.19625pt" version="1.1" viewBox="0 0 400.523438 262.19625" width="400.523438pt" xmlns="http://www.w3.org/2000/svg" xmlns:xlink="http://www.w3.org/1999/xlink">
 <defs>
  <style type="text/css">
*{stroke-linecap:butt;stroke-linejoin:round;}
  </style>
 </defs>
 <g id="figure_1">
  <g id="patch_1">
   <path d="M 0 262.19625 
L 400.523438 262.19625 
L 400.523438 0 
L 0 0 
z
" style="fill:none;"/>
  </g>
  <g id="axes_1">
   <g id="patch_2">
    <path d="M 58.523438 224.64 
L 393.323438 224.64 
L 393.323438 7.2 
L 58.523438 7.2 
z
" style="fill:#ffffff;"/>
   </g>
   <g id="matplotlib.axis_1">
    <g id="xtick_1">
     <g id="line2d_1">
      <defs>
       <path d="M 0 0 
L 0 3.5 
" id="m1a9acf5a40" style="stroke:#000000;stroke-width:0.8;"/>
      </defs>
      <g>
       <use style="stroke:#000000;stroke-width:0.8;" x="73.741619" xlink:href="#m1a9acf5a40" y="224.64"/>
      </g>
     </g>
     <g id="text_1">
      <!-- 0 -->
      <defs>
       <path d="M 31.78125 66.40625 
Q 24.171875 66.40625 20.328125 58.90625 
Q 16.5 51.421875 16.5 36.375 
Q 16.5 21.390625 20.328125 13.890625 
Q 24.171875 6.390625 31.78125 6.390625 
Q 39.453125 6.390625 43.28125 13.890625 
Q 47.125 21.390625 47.125 36.375 
Q 47.125 51.421875 43.28125 58.90625 
Q 39.453125 66.40625 31.78125 66.40625 
z
M 31.78125 74.21875 
Q 44.046875 74.21875 50.515625 64.515625 
Q 56.984375 54.828125 56.984375 36.375 
Q 56.984375 17.96875 50.515625 8.265625 
Q 44.046875 -1.421875 31.78125 -1.421875 
Q 19.53125 -1.421875 13.0625 8.265625 
Q 6.59375 17.96875 6.59375 36.375 
Q 6.59375 54.828125 13.0625 64.515625 
Q 19.53125 74.21875 31.78125 74.21875 
z
" id="DejaVuSans-48"/>
      </defs>
      <g transform="translate(70.560369 239.238437)scale(0.1 -0.1)">
       <use xlink:href="#DejaVuSans-48"/>
      </g>
     </g>
    </g>
    <g id="xtick_2">
     <g id="line2d_2">
      <g>
       <use style="stroke:#000000;stroke-width:0.8;" x="114.161757" xlink:href="#m1a9acf5a40" y="224.64"/>
      </g>
     </g>
     <g id="text_2">
      <!-- 100 -->
      <defs>
       <path d="M 12.40625 8.296875 
L 28.515625 8.296875 
L 28.515625 63.921875 
L 10.984375 60.40625 
L 10.984375 69.390625 
L 28.421875 72.90625 
L 38.28125 72.90625 
L 38.28125 8.296875 
L 54.390625 8.296875 
L 54.390625 0 
L 12.40625 0 
z
" id="DejaVuSans-49"/>
      </defs>
      <g transform="translate(104.618007 239.238437)scale(0.1 -0.1)">
       <use xlink:href="#DejaVuSans-49"/>
       <use x="63.623047" xlink:href="#DejaVuSans-48"/>
       <use x="127.246094" xlink:href="#DejaVuSans-48"/>
      </g>
     </g>
    </g>
    <g id="xtick_3">
     <g id="line2d_3">
      <g>
       <use style="stroke:#000000;stroke-width:0.8;" x="154.581895" xlink:href="#m1a9acf5a40" y="224.64"/>
      </g>
     </g>
     <g id="text_3">
      <!-- 200 -->
      <defs>
       <path d="M 19.1875 8.296875 
L 53.609375 8.296875 
L 53.609375 0 
L 7.328125 0 
L 7.328125 8.296875 
Q 12.9375 14.109375 22.625 23.890625 
Q 32.328125 33.6875 34.8125 36.53125 
Q 39.546875 41.84375 41.421875 45.53125 
Q 43.3125 49.21875 43.3125 52.78125 
Q 43.3125 58.59375 39.234375 62.25 
Q 35.15625 65.921875 28.609375 65.921875 
Q 23.96875 65.921875 18.8125 64.3125 
Q 13.671875 62.703125 7.8125 59.421875 
L 7.8125 69.390625 
Q 13.765625 71.78125 18.9375 73 
Q 24.125 74.21875 28.421875 74.21875 
Q 39.75 74.21875 46.484375 68.546875 
Q 53.21875 62.890625 53.21875 53.421875 
Q 53.21875 48.921875 51.53125 44.890625 
Q 49.859375 40.875 45.40625 35.40625 
Q 44.1875 33.984375 37.640625 27.21875 
Q 31.109375 20.453125 19.1875 8.296875 
z
" id="DejaVuSans-50"/>
      </defs>
      <g transform="translate(145.038145 239.238437)scale(0.1 -0.1)">
       <use xlink:href="#DejaVuSans-50"/>
       <use x="63.623047" xlink:href="#DejaVuSans-48"/>
       <use x="127.246094" xlink:href="#DejaVuSans-48"/>
      </g>
     </g>
    </g>
    <g id="xtick_4">
     <g id="line2d_4">
      <g>
       <use style="stroke:#000000;stroke-width:0.8;" x="195.002032" xlink:href="#m1a9acf5a40" y="224.64"/>
      </g>
     </g>
     <g id="text_4">
      <!-- 300 -->
      <defs>
       <path d="M 40.578125 39.3125 
Q 47.65625 37.796875 51.625 33 
Q 55.609375 28.21875 55.609375 21.1875 
Q 55.609375 10.40625 48.1875 4.484375 
Q 40.765625 -1.421875 27.09375 -1.421875 
Q 22.515625 -1.421875 17.65625 -0.515625 
Q 12.796875 0.390625 7.625 2.203125 
L 7.625 11.71875 
Q 11.71875 9.328125 16.59375 8.109375 
Q 21.484375 6.890625 26.8125 6.890625 
Q 36.078125 6.890625 40.9375 10.546875 
Q 45.796875 14.203125 45.796875 21.1875 
Q 45.796875 27.640625 41.28125 31.265625 
Q 36.765625 34.90625 28.71875 34.90625 
L 20.21875 34.90625 
L 20.21875 43.015625 
L 29.109375 43.015625 
Q 36.375 43.015625 40.234375 45.921875 
Q 44.09375 48.828125 44.09375 54.296875 
Q 44.09375 59.90625 40.109375 62.90625 
Q 36.140625 65.921875 28.71875 65.921875 
Q 24.65625 65.921875 20.015625 65.03125 
Q 15.375 64.15625 9.8125 62.3125 
L 9.8125 71.09375 
Q 15.4375 72.65625 20.34375 73.4375 
Q 25.25 74.21875 29.59375 74.21875 
Q 40.828125 74.21875 47.359375 69.109375 
Q 53.90625 64.015625 53.90625 55.328125 
Q 53.90625 49.265625 50.4375 45.09375 
Q 46.96875 40.921875 40.578125 39.3125 
z
" id="DejaVuSans-51"/>
      </defs>
      <g transform="translate(185.458282 239.238437)scale(0.1 -0.1)">
       <use xlink:href="#DejaVuSans-51"/>
       <use x="63.623047" xlink:href="#DejaVuSans-48"/>
       <use x="127.246094" xlink:href="#DejaVuSans-48"/>
      </g>
     </g>
    </g>
    <g id="xtick_5">
     <g id="line2d_5">
      <g>
       <use style="stroke:#000000;stroke-width:0.8;" x="235.42217" xlink:href="#m1a9acf5a40" y="224.64"/>
      </g>
     </g>
     <g id="text_5">
      <!-- 400 -->
      <defs>
       <path d="M 37.796875 64.3125 
L 12.890625 25.390625 
L 37.796875 25.390625 
z
M 35.203125 72.90625 
L 47.609375 72.90625 
L 47.609375 25.390625 
L 58.015625 25.390625 
L 58.015625 17.1875 
L 47.609375 17.1875 
L 47.609375 0 
L 37.796875 0 
L 37.796875 17.1875 
L 4.890625 17.1875 
L 4.890625 26.703125 
z
" id="DejaVuSans-52"/>
      </defs>
      <g transform="translate(225.87842 239.238437)scale(0.1 -0.1)">
       <use xlink:href="#DejaVuSans-52"/>
       <use x="63.623047" xlink:href="#DejaVuSans-48"/>
       <use x="127.246094" xlink:href="#DejaVuSans-48"/>
      </g>
     </g>
    </g>
    <g id="xtick_6">
     <g id="line2d_6">
      <g>
       <use style="stroke:#000000;stroke-width:0.8;" x="275.842307" xlink:href="#m1a9acf5a40" y="224.64"/>
      </g>
     </g>
     <g id="text_6">
      <!-- 500 -->
      <defs>
       <path d="M 10.796875 72.90625 
L 49.515625 72.90625 
L 49.515625 64.59375 
L 19.828125 64.59375 
L 19.828125 46.734375 
Q 21.96875 47.46875 24.109375 47.828125 
Q 26.265625 48.1875 28.421875 48.1875 
Q 40.625 48.1875 47.75 41.5 
Q 54.890625 34.8125 54.890625 23.390625 
Q 54.890625 11.625 47.5625 5.09375 
Q 40.234375 -1.421875 26.90625 -1.421875 
Q 22.3125 -1.421875 17.546875 -0.640625 
Q 12.796875 0.140625 7.71875 1.703125 
L 7.71875 11.625 
Q 12.109375 9.234375 16.796875 8.0625 
Q 21.484375 6.890625 26.703125 6.890625 
Q 35.15625 6.890625 40.078125 11.328125 
Q 45.015625 15.765625 45.015625 23.390625 
Q 45.015625 31 40.078125 35.4375 
Q 35.15625 39.890625 26.703125 39.890625 
Q 22.75 39.890625 18.8125 39.015625 
Q 14.890625 38.140625 10.796875 36.28125 
z
" id="DejaVuSans-53"/>
      </defs>
      <g transform="translate(266.298557 239.238437)scale(0.1 -0.1)">
       <use xlink:href="#DejaVuSans-53"/>
       <use x="63.623047" xlink:href="#DejaVuSans-48"/>
       <use x="127.246094" xlink:href="#DejaVuSans-48"/>
      </g>
     </g>
    </g>
    <g id="xtick_7">
     <g id="line2d_7">
      <g>
       <use style="stroke:#000000;stroke-width:0.8;" x="316.262445" xlink:href="#m1a9acf5a40" y="224.64"/>
      </g>
     </g>
     <g id="text_7">
      <!-- 600 -->
      <defs>
       <path d="M 33.015625 40.375 
Q 26.375 40.375 22.484375 35.828125 
Q 18.609375 31.296875 18.609375 23.390625 
Q 18.609375 15.53125 22.484375 10.953125 
Q 26.375 6.390625 33.015625 6.390625 
Q 39.65625 6.390625 43.53125 10.953125 
Q 47.40625 15.53125 47.40625 23.390625 
Q 47.40625 31.296875 43.53125 35.828125 
Q 39.65625 40.375 33.015625 40.375 
z
M 52.59375 71.296875 
L 52.59375 62.3125 
Q 48.875 64.0625 45.09375 64.984375 
Q 41.3125 65.921875 37.59375 65.921875 
Q 27.828125 65.921875 22.671875 59.328125 
Q 17.53125 52.734375 16.796875 39.40625 
Q 19.671875 43.65625 24.015625 45.921875 
Q 28.375 48.1875 33.59375 48.1875 
Q 44.578125 48.1875 50.953125 41.515625 
Q 57.328125 34.859375 57.328125 23.390625 
Q 57.328125 12.15625 50.6875 5.359375 
Q 44.046875 -1.421875 33.015625 -1.421875 
Q 20.359375 -1.421875 13.671875 8.265625 
Q 6.984375 17.96875 6.984375 36.375 
Q 6.984375 53.65625 15.1875 63.9375 
Q 23.390625 74.21875 37.203125 74.21875 
Q 40.921875 74.21875 44.703125 73.484375 
Q 48.484375 72.75 52.59375 71.296875 
z
" id="DejaVuSans-54"/>
      </defs>
      <g transform="translate(306.718695 239.238437)scale(0.1 -0.1)">
       <use xlink:href="#DejaVuSans-54"/>
       <use x="63.623047" xlink:href="#DejaVuSans-48"/>
       <use x="127.246094" xlink:href="#DejaVuSans-48"/>
      </g>
     </g>
    </g>
    <g id="xtick_8">
     <g id="line2d_8">
      <g>
       <use style="stroke:#000000;stroke-width:0.8;" x="356.682583" xlink:href="#m1a9acf5a40" y="224.64"/>
      </g>
     </g>
     <g id="text_8">
      <!-- 700 -->
      <defs>
       <path d="M 8.203125 72.90625 
L 55.078125 72.90625 
L 55.078125 68.703125 
L 28.609375 0 
L 18.3125 0 
L 43.21875 64.59375 
L 8.203125 64.59375 
z
" id="DejaVuSans-55"/>
      </defs>
      <g transform="translate(347.138833 239.238437)scale(0.1 -0.1)">
       <use xlink:href="#DejaVuSans-55"/>
       <use x="63.623047" xlink:href="#DejaVuSans-48"/>
       <use x="127.246094" xlink:href="#DejaVuSans-48"/>
      </g>
     </g>
    </g>
    <g id="text_9">
     <!-- Days since 11/2/2016 -->
     <defs>
      <path d="M 19.671875 64.796875 
L 19.671875 8.109375 
L 31.59375 8.109375 
Q 46.6875 8.109375 53.6875 14.9375 
Q 60.6875 21.78125 60.6875 36.53125 
Q 60.6875 51.171875 53.6875 57.984375 
Q 46.6875 64.796875 31.59375 64.796875 
z
M 9.8125 72.90625 
L 30.078125 72.90625 
Q 51.265625 72.90625 61.171875 64.09375 
Q 71.09375 55.28125 71.09375 36.53125 
Q 71.09375 17.671875 61.125 8.828125 
Q 51.171875 0 30.078125 0 
L 9.8125 0 
z
" id="DejaVuSans-68"/>
      <path d="M 34.28125 27.484375 
Q 23.390625 27.484375 19.1875 25 
Q 14.984375 22.515625 14.984375 16.5 
Q 14.984375 11.71875 18.140625 8.90625 
Q 21.296875 6.109375 26.703125 6.109375 
Q 34.1875 6.109375 38.703125 11.40625 
Q 43.21875 16.703125 43.21875 25.484375 
L 43.21875 27.484375 
z
M 52.203125 31.203125 
L 52.203125 0 
L 43.21875 0 
L 43.21875 8.296875 
Q 40.140625 3.328125 35.546875 0.953125 
Q 30.953125 -1.421875 24.3125 -1.421875 
Q 15.921875 -1.421875 10.953125 3.296875 
Q 6 8.015625 6 15.921875 
Q 6 25.140625 12.171875 29.828125 
Q 18.359375 34.515625 30.609375 34.515625 
L 43.21875 34.515625 
L 43.21875 35.40625 
Q 43.21875 41.609375 39.140625 45 
Q 35.0625 48.390625 27.6875 48.390625 
Q 23 48.390625 18.546875 47.265625 
Q 14.109375 46.140625 10.015625 43.890625 
L 10.015625 52.203125 
Q 14.9375 54.109375 19.578125 55.046875 
Q 24.21875 56 28.609375 56 
Q 40.484375 56 46.34375 49.84375 
Q 52.203125 43.703125 52.203125 31.203125 
z
" id="DejaVuSans-97"/>
      <path d="M 32.171875 -5.078125 
Q 28.375 -14.84375 24.75 -17.8125 
Q 21.140625 -20.796875 15.09375 -20.796875 
L 7.90625 -20.796875 
L 7.90625 -13.28125 
L 13.1875 -13.28125 
Q 16.890625 -13.28125 18.9375 -11.515625 
Q 21 -9.765625 23.484375 -3.21875 
L 25.09375 0.875 
L 2.984375 54.6875 
L 12.5 54.6875 
L 29.59375 11.921875 
L 46.6875 54.6875 
L 56.203125 54.6875 
z
" id="DejaVuSans-121"/>
      <path d="M 44.28125 53.078125 
L 44.28125 44.578125 
Q 40.484375 46.53125 36.375 47.5 
Q 32.28125 48.484375 27.875 48.484375 
Q 21.1875 48.484375 17.84375 46.4375 
Q 14.5 44.390625 14.5 40.28125 
Q 14.5 37.15625 16.890625 35.375 
Q 19.28125 33.59375 26.515625 31.984375 
L 29.59375 31.296875 
Q 39.15625 29.25 43.1875 25.515625 
Q 47.21875 21.78125 47.21875 15.09375 
Q 47.21875 7.46875 41.1875 3.015625 
Q 35.15625 -1.421875 24.609375 -1.421875 
Q 20.21875 -1.421875 15.453125 -0.5625 
Q 10.6875 0.296875 5.421875 2 
L 5.421875 11.28125 
Q 10.40625 8.6875 15.234375 7.390625 
Q 20.0625 6.109375 24.8125 6.109375 
Q 31.15625 6.109375 34.5625 8.28125 
Q 37.984375 10.453125 37.984375 14.40625 
Q 37.984375 18.0625 35.515625 20.015625 
Q 33.0625 21.96875 24.703125 23.78125 
L 21.578125 24.515625 
Q 13.234375 26.265625 9.515625 29.90625 
Q 5.8125 33.546875 5.8125 39.890625 
Q 5.8125 47.609375 11.28125 51.796875 
Q 16.75 56 26.8125 56 
Q 31.78125 56 36.171875 55.265625 
Q 40.578125 54.546875 44.28125 53.078125 
z
" id="DejaVuSans-115"/>
      <path id="DejaVuSans-32"/>
      <path d="M 9.421875 54.6875 
L 18.40625 54.6875 
L 18.40625 0 
L 9.421875 0 
z
M 9.421875 75.984375 
L 18.40625 75.984375 
L 18.40625 64.59375 
L 9.421875 64.59375 
z
" id="DejaVuSans-105"/>
      <path d="M 54.890625 33.015625 
L 54.890625 0 
L 45.90625 0 
L 45.90625 32.71875 
Q 45.90625 40.484375 42.875 44.328125 
Q 39.84375 48.1875 33.796875 48.1875 
Q 26.515625 48.1875 22.3125 43.546875 
Q 18.109375 38.921875 18.109375 30.90625 
L 18.109375 0 
L 9.078125 0 
L 9.078125 54.6875 
L 18.109375 54.6875 
L 18.109375 46.1875 
Q 21.34375 51.125 25.703125 53.5625 
Q 30.078125 56 35.796875 56 
Q 45.21875 56 50.046875 50.171875 
Q 54.890625 44.34375 54.890625 33.015625 
z
" id="DejaVuSans-110"/>
      <path d="M 48.78125 52.59375 
L 48.78125 44.1875 
Q 44.96875 46.296875 41.140625 47.34375 
Q 37.3125 48.390625 33.40625 48.390625 
Q 24.65625 48.390625 19.8125 42.84375 
Q 14.984375 37.3125 14.984375 27.296875 
Q 14.984375 17.28125 19.8125 11.734375 
Q 24.65625 6.203125 33.40625 6.203125 
Q 37.3125 6.203125 41.140625 7.25 
Q 44.96875 8.296875 48.78125 10.40625 
L 48.78125 2.09375 
Q 45.015625 0.34375 40.984375 -0.53125 
Q 36.96875 -1.421875 32.421875 -1.421875 
Q 20.0625 -1.421875 12.78125 6.34375 
Q 5.515625 14.109375 5.515625 27.296875 
Q 5.515625 40.671875 12.859375 48.328125 
Q 20.21875 56 33.015625 56 
Q 37.15625 56 41.109375 55.140625 
Q 45.0625 54.296875 48.78125 52.59375 
z
" id="DejaVuSans-99"/>
      <path d="M 56.203125 29.59375 
L 56.203125 25.203125 
L 14.890625 25.203125 
Q 15.484375 15.921875 20.484375 11.0625 
Q 25.484375 6.203125 34.421875 6.203125 
Q 39.59375 6.203125 44.453125 7.46875 
Q 49.3125 8.734375 54.109375 11.28125 
L 54.109375 2.78125 
Q 49.265625 0.734375 44.1875 -0.34375 
Q 39.109375 -1.421875 33.890625 -1.421875 
Q 20.796875 -1.421875 13.15625 6.1875 
Q 5.515625 13.8125 5.515625 26.8125 
Q 5.515625 40.234375 12.765625 48.109375 
Q 20.015625 56 32.328125 56 
Q 43.359375 56 49.78125 48.890625 
Q 56.203125 41.796875 56.203125 29.59375 
z
M 47.21875 32.234375 
Q 47.125 39.59375 43.09375 43.984375 
Q 39.0625 48.390625 32.421875 48.390625 
Q 24.90625 48.390625 20.390625 44.140625 
Q 15.875 39.890625 15.1875 32.171875 
z
" id="DejaVuSans-101"/>
      <path d="M 25.390625 72.90625 
L 33.6875 72.90625 
L 8.296875 -9.28125 
L 0 -9.28125 
z
" id="DejaVuSans-47"/>
     </defs>
     <g transform="translate(171.641406 252.916562)scale(0.1 -0.1)">
      <use xlink:href="#DejaVuSans-68"/>
      <use x="77.001953" xlink:href="#DejaVuSans-97"/>
      <use x="138.28125" xlink:href="#DejaVuSans-121"/>
      <use x="197.460938" xlink:href="#DejaVuSans-115"/>
      <use x="249.560547" xlink:href="#DejaVuSans-32"/>
      <use x="281.347656" xlink:href="#DejaVuSans-115"/>
      <use x="333.447266" xlink:href="#DejaVuSans-105"/>
      <use x="361.230469" xlink:href="#DejaVuSans-110"/>
      <use x="424.609375" xlink:href="#DejaVuSans-99"/>
      <use x="479.589844" xlink:href="#DejaVuSans-101"/>
      <use x="541.113281" xlink:href="#DejaVuSans-32"/>
      <use x="572.900391" xlink:href="#DejaVuSans-49"/>
      <use x="636.523438" xlink:href="#DejaVuSans-49"/>
      <use x="700.146484" xlink:href="#DejaVuSans-47"/>
      <use x="733.837891" xlink:href="#DejaVuSans-50"/>
      <use x="797.460938" xlink:href="#DejaVuSans-47"/>
      <use x="831.152344" xlink:href="#DejaVuSans-50"/>
      <use x="894.775391" xlink:href="#DejaVuSans-48"/>
      <use x="958.398438" xlink:href="#DejaVuSans-49"/>
      <use x="1022.021484" xlink:href="#DejaVuSans-54"/>
     </g>
    </g>
   </g>
   <g id="matplotlib.axis_2">
    <g id="ytick_1">
     <g id="line2d_9">
      <defs>
       <path d="M 0 0 
L -3.5 0 
" id="m367b490a84" style="stroke:#000000;stroke-width:0.8;"/>
      </defs>
      <g>
       <use style="stroke:#000000;stroke-width:0.8;" x="58.523438" xlink:href="#m367b490a84" y="210.720452"/>
      </g>
     </g>
     <g id="text_10">
      <!-- −0.04 -->
      <defs>
       <path d="M 10.59375 35.5 
L 73.1875 35.5 
L 73.1875 27.203125 
L 10.59375 27.203125 
z
" id="DejaVuSans-8722"/>
       <path d="M 10.6875 12.40625 
L 21 12.40625 
L 21 0 
L 10.6875 0 
z
" id="DejaVuSans-46"/>
      </defs>
      <g transform="translate(20.878125 214.519671)scale(0.1 -0.1)">
       <use xlink:href="#DejaVuSans-8722"/>
       <use x="83.789062" xlink:href="#DejaVuSans-48"/>
       <use x="147.412109" xlink:href="#DejaVuSans-46"/>
       <use x="179.199219" xlink:href="#DejaVuSans-48"/>
       <use x="242.822266" xlink:href="#DejaVuSans-52"/>
      </g>
     </g>
    </g>
    <g id="ytick_2">
     <g id="line2d_10">
      <g>
       <use style="stroke:#000000;stroke-width:0.8;" x="58.523438" xlink:href="#m367b490a84" y="166.912824"/>
      </g>
     </g>
     <g id="text_11">
      <!-- −0.02 -->
      <g transform="translate(20.878125 170.712042)scale(0.1 -0.1)">
       <use xlink:href="#DejaVuSans-8722"/>
       <use x="83.789062" xlink:href="#DejaVuSans-48"/>
       <use x="147.412109" xlink:href="#DejaVuSans-46"/>
       <use x="179.199219" xlink:href="#DejaVuSans-48"/>
       <use x="242.822266" xlink:href="#DejaVuSans-50"/>
      </g>
     </g>
    </g>
    <g id="ytick_3">
     <g id="line2d_11">
      <g>
       <use style="stroke:#000000;stroke-width:0.8;" x="58.523438" xlink:href="#m367b490a84" y="123.105195"/>
      </g>
     </g>
     <g id="text_12">
      <!-- 0.00 -->
      <g transform="translate(29.257813 126.904414)scale(0.1 -0.1)">
       <use xlink:href="#DejaVuSans-48"/>
       <use x="63.623047" xlink:href="#DejaVuSans-46"/>
       <use x="95.410156" xlink:href="#DejaVuSans-48"/>
       <use x="159.033203" xlink:href="#DejaVuSans-48"/>
      </g>
     </g>
    </g>
    <g id="ytick_4">
     <g id="line2d_12">
      <g>
       <use style="stroke:#000000;stroke-width:0.8;" x="58.523438" xlink:href="#m367b490a84" y="79.297567"/>
      </g>
     </g>
     <g id="text_13">
      <!-- 0.02 -->
      <g transform="translate(29.257813 83.096786)scale(0.1 -0.1)">
       <use xlink:href="#DejaVuSans-48"/>
       <use x="63.623047" xlink:href="#DejaVuSans-46"/>
       <use x="95.410156" xlink:href="#DejaVuSans-48"/>
       <use x="159.033203" xlink:href="#DejaVuSans-50"/>
      </g>
     </g>
    </g>
    <g id="ytick_5">
     <g id="line2d_13">
      <g>
       <use style="stroke:#000000;stroke-width:0.8;" x="58.523438" xlink:href="#m367b490a84" y="35.489939"/>
      </g>
     </g>
     <g id="text_14">
      <!-- 0.04 -->
      <g transform="translate(29.257813 39.289157)scale(0.1 -0.1)">
       <use xlink:href="#DejaVuSans-48"/>
       <use x="63.623047" xlink:href="#DejaVuSans-46"/>
       <use x="95.410156" xlink:href="#DejaVuSans-48"/>
       <use x="159.033203" xlink:href="#DejaVuSans-52"/>
      </g>
     </g>
    </g>
    <g id="text_15">
     <!-- Logarithmic Returns -->
     <defs>
      <path d="M 9.8125 72.90625 
L 19.671875 72.90625 
L 19.671875 8.296875 
L 55.171875 8.296875 
L 55.171875 0 
L 9.8125 0 
z
" id="DejaVuSans-76"/>
      <path d="M 30.609375 48.390625 
Q 23.390625 48.390625 19.1875 42.75 
Q 14.984375 37.109375 14.984375 27.296875 
Q 14.984375 17.484375 19.15625 11.84375 
Q 23.34375 6.203125 30.609375 6.203125 
Q 37.796875 6.203125 41.984375 11.859375 
Q 46.1875 17.53125 46.1875 27.296875 
Q 46.1875 37.015625 41.984375 42.703125 
Q 37.796875 48.390625 30.609375 48.390625 
z
M 30.609375 56 
Q 42.328125 56 49.015625 48.375 
Q 55.71875 40.765625 55.71875 27.296875 
Q 55.71875 13.875 49.015625 6.21875 
Q 42.328125 -1.421875 30.609375 -1.421875 
Q 18.84375 -1.421875 12.171875 6.21875 
Q 5.515625 13.875 5.515625 27.296875 
Q 5.515625 40.765625 12.171875 48.375 
Q 18.84375 56 30.609375 56 
z
" id="DejaVuSans-111"/>
      <path d="M 45.40625 27.984375 
Q 45.40625 37.75 41.375 43.109375 
Q 37.359375 48.484375 30.078125 48.484375 
Q 22.859375 48.484375 18.828125 43.109375 
Q 14.796875 37.75 14.796875 27.984375 
Q 14.796875 18.265625 18.828125 12.890625 
Q 22.859375 7.515625 30.078125 7.515625 
Q 37.359375 7.515625 41.375 12.890625 
Q 45.40625 18.265625 45.40625 27.984375 
z
M 54.390625 6.78125 
Q 54.390625 -7.171875 48.1875 -13.984375 
Q 42 -20.796875 29.203125 -20.796875 
Q 24.46875 -20.796875 20.265625 -20.09375 
Q 16.0625 -19.390625 12.109375 -17.921875 
L 12.109375 -9.1875 
Q 16.0625 -11.328125 19.921875 -12.34375 
Q 23.78125 -13.375 27.78125 -13.375 
Q 36.625 -13.375 41.015625 -8.765625 
Q 45.40625 -4.15625 45.40625 5.171875 
L 45.40625 9.625 
Q 42.625 4.78125 38.28125 2.390625 
Q 33.9375 0 27.875 0 
Q 17.828125 0 11.671875 7.65625 
Q 5.515625 15.328125 5.515625 27.984375 
Q 5.515625 40.671875 11.671875 48.328125 
Q 17.828125 56 27.875 56 
Q 33.9375 56 38.28125 53.609375 
Q 42.625 51.21875 45.40625 46.390625 
L 45.40625 54.6875 
L 54.390625 54.6875 
z
" id="DejaVuSans-103"/>
      <path d="M 41.109375 46.296875 
Q 39.59375 47.171875 37.8125 47.578125 
Q 36.03125 48 33.890625 48 
Q 26.265625 48 22.1875 43.046875 
Q 18.109375 38.09375 18.109375 28.8125 
L 18.109375 0 
L 9.078125 0 
L 9.078125 54.6875 
L 18.109375 54.6875 
L 18.109375 46.1875 
Q 20.953125 51.171875 25.484375 53.578125 
Q 30.03125 56 36.53125 56 
Q 37.453125 56 38.578125 55.875 
Q 39.703125 55.765625 41.0625 55.515625 
z
" id="DejaVuSans-114"/>
      <path d="M 18.3125 70.21875 
L 18.3125 54.6875 
L 36.8125 54.6875 
L 36.8125 47.703125 
L 18.3125 47.703125 
L 18.3125 18.015625 
Q 18.3125 11.328125 20.140625 9.421875 
Q 21.96875 7.515625 27.59375 7.515625 
L 36.8125 7.515625 
L 36.8125 0 
L 27.59375 0 
Q 17.1875 0 13.234375 3.875 
Q 9.28125 7.765625 9.28125 18.015625 
L 9.28125 47.703125 
L 2.6875 47.703125 
L 2.6875 54.6875 
L 9.28125 54.6875 
L 9.28125 70.21875 
z
" id="DejaVuSans-116"/>
      <path d="M 54.890625 33.015625 
L 54.890625 0 
L 45.90625 0 
L 45.90625 32.71875 
Q 45.90625 40.484375 42.875 44.328125 
Q 39.84375 48.1875 33.796875 48.1875 
Q 26.515625 48.1875 22.3125 43.546875 
Q 18.109375 38.921875 18.109375 30.90625 
L 18.109375 0 
L 9.078125 0 
L 9.078125 75.984375 
L 18.109375 75.984375 
L 18.109375 46.1875 
Q 21.34375 51.125 25.703125 53.5625 
Q 30.078125 56 35.796875 56 
Q 45.21875 56 50.046875 50.171875 
Q 54.890625 44.34375 54.890625 33.015625 
z
" id="DejaVuSans-104"/>
      <path d="M 52 44.1875 
Q 55.375 50.25 60.0625 53.125 
Q 64.75 56 71.09375 56 
Q 79.640625 56 84.28125 50.015625 
Q 88.921875 44.046875 88.921875 33.015625 
L 88.921875 0 
L 79.890625 0 
L 79.890625 32.71875 
Q 79.890625 40.578125 77.09375 44.375 
Q 74.3125 48.1875 68.609375 48.1875 
Q 61.625 48.1875 57.5625 43.546875 
Q 53.515625 38.921875 53.515625 30.90625 
L 53.515625 0 
L 44.484375 0 
L 44.484375 32.71875 
Q 44.484375 40.625 41.703125 44.40625 
Q 38.921875 48.1875 33.109375 48.1875 
Q 26.21875 48.1875 22.15625 43.53125 
Q 18.109375 38.875 18.109375 30.90625 
L 18.109375 0 
L 9.078125 0 
L 9.078125 54.6875 
L 18.109375 54.6875 
L 18.109375 46.1875 
Q 21.1875 51.21875 25.484375 53.609375 
Q 29.78125 56 35.6875 56 
Q 41.65625 56 45.828125 52.96875 
Q 50 49.953125 52 44.1875 
z
" id="DejaVuSans-109"/>
      <path d="M 44.390625 34.1875 
Q 47.5625 33.109375 50.5625 29.59375 
Q 53.5625 26.078125 56.59375 19.921875 
L 66.609375 0 
L 56 0 
L 46.6875 18.703125 
Q 43.0625 26.03125 39.671875 28.421875 
Q 36.28125 30.8125 30.421875 30.8125 
L 19.671875 30.8125 
L 19.671875 0 
L 9.8125 0 
L 9.8125 72.90625 
L 32.078125 72.90625 
Q 44.578125 72.90625 50.734375 67.671875 
Q 56.890625 62.453125 56.890625 51.90625 
Q 56.890625 45.015625 53.6875 40.46875 
Q 50.484375 35.9375 44.390625 34.1875 
z
M 19.671875 64.796875 
L 19.671875 38.921875 
L 32.078125 38.921875 
Q 39.203125 38.921875 42.84375 42.21875 
Q 46.484375 45.515625 46.484375 51.90625 
Q 46.484375 58.296875 42.84375 61.546875 
Q 39.203125 64.796875 32.078125 64.796875 
z
" id="DejaVuSans-82"/>
      <path d="M 8.5 21.578125 
L 8.5 54.6875 
L 17.484375 54.6875 
L 17.484375 21.921875 
Q 17.484375 14.15625 20.5 10.265625 
Q 23.53125 6.390625 29.59375 6.390625 
Q 36.859375 6.390625 41.078125 11.03125 
Q 45.3125 15.671875 45.3125 23.6875 
L 45.3125 54.6875 
L 54.296875 54.6875 
L 54.296875 0 
L 45.3125 0 
L 45.3125 8.40625 
Q 42.046875 3.421875 37.71875 1 
Q 33.40625 -1.421875 27.6875 -1.421875 
Q 18.265625 -1.421875 13.375 4.4375 
Q 8.5 10.296875 8.5 21.578125 
z
M 31.109375 56 
z
" id="DejaVuSans-117"/>
     </defs>
     <g transform="translate(14.798438 166.678594)rotate(-90)scale(0.1 -0.1)">
      <use xlink:href="#DejaVuSans-76"/>
      <use x="55.697266" xlink:href="#DejaVuSans-111"/>
      <use x="116.878906" xlink:href="#DejaVuSans-103"/>
      <use x="180.355469" xlink:href="#DejaVuSans-97"/>
      <use x="241.634766" xlink:href="#DejaVuSans-114"/>
      <use x="282.748047" xlink:href="#DejaVuSans-105"/>
      <use x="310.53125" xlink:href="#DejaVuSans-116"/>
      <use x="349.740234" xlink:href="#DejaVuSans-104"/>
      <use x="413.119141" xlink:href="#DejaVuSans-109"/>
      <use x="510.53125" xlink:href="#DejaVuSans-105"/>
      <use x="538.314453" xlink:href="#DejaVuSans-99"/>
      <use x="593.294922" xlink:href="#DejaVuSans-32"/>
      <use x="625.082031" xlink:href="#DejaVuSans-82"/>
      <use x="694.501953" xlink:href="#DejaVuSans-101"/>
      <use x="756.025391" xlink:href="#DejaVuSans-116"/>
      <use x="795.234375" xlink:href="#DejaVuSans-117"/>
      <use x="858.613281" xlink:href="#DejaVuSans-114"/>
      <use x="899.710938" xlink:href="#DejaVuSans-110"/>
      <use x="963.089844" xlink:href="#DejaVuSans-115"/>
     </g>
    </g>
   </g>
   <g id="line2d_14">
    <path clip-path="url(#paa24c8d079)" d="M 73.741619 132.815592 
L 74.145821 126.757721 
L 74.550022 74.960268 
L 74.954223 114.858716 
L 75.358425 98.975641 
L 75.762626 118.83645 
L 76.166828 126.169352 
L 76.571029 123.358205 
L 76.97523 106.780323 
L 77.379432 126.573749 
L 77.783633 112.886214 
L 78.187834 128.339228 
L 78.592036 106.822583 
L 78.996237 118.367211 
L 79.400439 121.336057 
L 79.80464 114.548058 
L 80.208841 134.644851 
L 80.613043 120.182287 
L 81.017244 128.925032 
L 81.421445 130.819132 
L 81.825647 122.235645 
L 82.229848 110.391296 
L 82.63405 115.646781 
L 83.038251 94.460906 
L 83.442452 118.380357 
L 83.846654 110.135115 
L 84.250855 125.597963 
L 84.655056 108.82724 
L 85.059258 140.957508 
L 85.463459 114.615917 
L 85.867661 126.943125 
L 86.271862 118.783156 
L 86.676063 115.152093 
L 87.080265 128.494303 
L 87.484466 127.189652 
L 87.888667 120.365252 
L 88.292869 118.185778 
L 88.69707 141.486127 
L 89.101272 123.747824 
L 89.505473 133.285793 
L 89.909674 104.594792 
L 90.313876 110.606883 
L 90.718077 124.793908 
L 91.122278 115.415209 
L 91.52648 130.891719 
L 92.334883 116.916121 
L 92.739084 127.808068 
L 93.143285 119.057036 
L 93.547487 129.614821 
L 93.951688 119.245304 
L 94.35589 131.025306 
L 94.760091 115.744347 
L 95.164292 129.005431 
L 95.568494 108.773334 
L 95.972695 105.595217 
L 96.376896 124.716383 
L 96.781098 125.003914 
L 97.185299 136.308061 
L 97.589501 125.055502 
L 97.993702 122.451697 
L 98.397903 121.856403 
L 98.802105 107.249958 
L 99.206306 127.743672 
L 99.610507 122.608428 
L 100.014709 121.586932 
L 100.41891 110.541214 
L 100.823112 115.308061 
L 101.227313 111.644735 
L 101.631514 114.345216 
L 102.035716 112.197267 
L 102.439917 124.998734 
L 102.844118 119.431544 
L 103.24832 109.897498 
L 103.652521 125.477082 
L 104.056723 122.187638 
L 104.460924 119.836625 
L 104.865125 120.876477 
L 105.269327 128.760017 
L 105.673528 93.357227 
L 106.077729 135.978287 
L 106.481931 122.001969 
L 106.886132 130.295337 
L 107.290334 129.495755 
L 107.694535 128.114302 
L 108.502938 115.957218 
L 108.907139 122.30216 
L 109.31134 130.519069 
L 109.715542 104.837734 
L 110.119743 126.671096 
L 110.523945 125.986047 
L 110.928146 127.512032 
L 111.332347 150.453454 
L 111.736549 118.969466 
L 112.14075 125.428831 
L 112.544951 124.954667 
L 112.949153 125.33972 
L 113.353354 107.278994 
L 113.757556 120.729037 
L 114.161757 116.685764 
L 114.565958 128.050106 
L 114.97016 126.705142 
L 115.374361 121.879807 
L 115.778562 129.806784 
L 116.182764 118.882942 
L 116.586965 124.917721 
L 116.991167 121.599299 
L 117.799569 131.356353 
L 118.203771 138.083085 
L 118.607972 104.319519 
L 119.012173 129.473891 
L 119.416375 126.86787 
L 119.820576 106.614296 
L 120.224778 129.763135 
L 120.628979 99.489044 
L 121.03318 109.804919 
L 121.437382 124.169186 
L 121.841583 121.894487 
L 122.245784 127.299668 
L 122.649986 119.314217 
L 123.054187 120.502126 
L 123.458389 125.891696 
L 123.86259 121.830665 
L 124.266791 114.167669 
L 124.670993 123.023033 
L 125.075194 125.352068 
L 125.479395 120.63011 
L 125.883597 127.847756 
L 126.287798 126.345906 
L 126.692 112.667868 
L 127.096201 124.610145 
L 127.500402 163.288865 
L 127.904604 115.044453 
L 128.308805 108.331732 
L 128.713006 111.831637 
L 129.117208 119.08316 
L 129.521409 117.659806 
L 129.925611 113.39734 
L 130.329812 122.425078 
L 130.734013 125.745231 
L 131.138215 124.113058 
L 131.542416 106.584043 
L 131.946618 114.998877 
L 132.350819 125.773998 
L 132.75502 129.200809 
L 133.159222 119.672637 
L 133.967624 124.923925 
L 134.371826 125.249995 
L 134.776027 113.245687 
L 135.180229 125.287373 
L 135.58443 128.016306 
L 135.988631 122.483952 
L 136.392833 104.897521 
L 136.797034 137.82278 
L 137.201235 124.381851 
L 137.605437 124.103663 
L 138.009638 119.688904 
L 138.41384 122.413596 
L 138.818041 140.859354 
L 139.222242 103.896696 
L 139.626444 142.024003 
L 140.030645 119.749369 
L 140.434846 118.049515 
L 140.839048 119.924297 
L 141.243249 143.723193 
L 141.647451 109.124559 
L 142.051652 121.073976 
L 142.455853 124.820324 
L 142.860055 107.161271 
L 143.264256 119.003054 
L 143.668457 112.892235 
L 144.072659 123.220985 
L 144.47686 121.796242 
L 144.881062 111.368539 
L 145.285263 123.441681 
L 145.689464 123.911201 
L 146.093666 125.436308 
L 146.497867 116.711649 
L 146.902068 122.486314 
L 147.30627 125.236652 
L 147.710471 126.044877 
L 148.114673 124.70065 
L 148.518874 117.747301 
L 148.923075 122.026346 
L 149.327277 127.893322 
L 149.731478 118.971389 
L 150.135679 119.500021 
L 150.539881 128.400127 
L 150.944082 123.901868 
L 151.348284 155.041383 
L 151.752485 120.313087 
L 152.156686 101.215304 
L 152.560888 124.198065 
L 152.965089 119.996835 
L 153.36929 157.181623 
L 153.773492 127.129079 
L 154.177693 120.560087 
L 154.581895 101.438514 
L 154.986096 130.683 
L 155.390297 127.653717 
L 155.794499 119.444105 
L 156.1987 122.038529 
L 156.602901 121.259924 
L 157.007103 113.019549 
L 157.411304 110.609619 
L 157.815506 118.767103 
L 158.219707 139.707144 
L 158.623908 116.262736 
L 159.02811 123.496125 
L 159.432311 126.368629 
L 159.836512 99.490903 
L 160.240714 115.74912 
L 160.644915 121.447559 
L 161.049117 125.517515 
L 161.453318 119.062776 
L 162.665922 121.716249 
L 163.070123 129.787192 
L 163.474325 121.686628 
L 163.878526 127.977697 
L 164.282728 122.947282 
L 164.686929 114.175356 
L 165.09113 120.468233 
L 165.495332 115.004631 
L 165.899533 114.636052 
L 166.303734 118.381579 
L 166.707936 120.376028 
L 167.112137 110.771434 
L 167.516339 125.458136 
L 167.92054 127.06108 
L 168.324741 118.024049 
L 168.728943 119.158468 
L 169.133144 126.802897 
L 169.537346 121.182641 
L 169.941547 119.273706 
L 170.345748 121.63267 
L 170.74995 121.479718 
L 171.154151 122.386948 
L 171.558352 111.925819 
L 171.962554 131.823796 
L 172.366755 119.56414 
L 172.770957 133.342957 
L 173.579359 105.493334 
L 173.983561 130.109118 
L 174.387762 121.037389 
L 174.791963 119.620723 
L 175.196165 122.689129 
L 175.600366 116.331894 
L 176.408769 123.51945 
L 176.81297 119.945312 
L 177.217172 131.3609 
L 177.621373 125.072203 
L 178.025574 120.951753 
L 178.833977 135.242097 
L 179.238179 105.225682 
L 179.64238 128.864795 
L 180.046581 120.31257 
L 180.450783 108.824377 
L 180.854984 124.749211 
L 181.259185 118.606055 
L 181.663387 123.947028 
L 182.067588 101.638829 
L 182.47179 123.914114 
L 182.875991 105.236977 
L 183.280192 127.544096 
L 183.684394 125.411008 
L 184.088595 131.311325 
L 184.896998 116.691579 
L 185.301199 111.077384 
L 185.705401 116.102884 
L 186.513803 124.141389 
L 186.918005 132.040056 
L 187.322206 103.535682 
L 187.726407 111.389868 
L 188.130609 130.192218 
L 188.939012 118.76022 
L 189.343213 124.109001 
L 189.747414 125.424684 
L 190.151616 121.373513 
L 190.555817 119.091654 
L 190.960018 134.487858 
L 191.36422 104.992719 
L 192.172623 114.298618 
L 192.576824 107.752422 
L 192.981025 119.467098 
L 193.385227 120.253198 
L 193.789428 125.542705 
L 194.193629 107.752818 
L 194.597831 108.370607 
L 195.002032 130.83875 
L 195.406234 102.579224 
L 195.810435 126.648547 
L 196.214636 113.520872 
L 196.618838 105.506812 
L 197.023039 118.347608 
L 197.42724 124.33222 
L 197.831442 121.785593 
L 198.235643 97.320908 
L 198.639845 137.900577 
L 199.044046 147.108727 
L 199.448247 122.034491 
L 199.852449 124.525155 
L 200.660851 214.756364 
L 201.065053 85.232208 
L 201.469254 134.088086 
L 201.873456 206.907185 
L 202.277657 90.631419 
L 202.681858 92.837007 
L 203.08606 117.389299 
L 203.490261 93.943638 
L 203.894462 96.827548 
L 204.298664 122.287323 
L 204.702865 135.937613 
L 205.107067 135.177898 
L 205.511268 120.973689 
L 205.915469 88.275403 
L 206.319671 97.503094 
L 206.723872 151.116422 
L 207.128074 147.545087 
L 207.532275 152.48677 
L 207.936476 112.02459 
L 208.340678 99.07312 
L 208.744879 117.332842 
L 209.14908 124.165267 
L 209.553282 113.35104 
L 209.957483 85.365992 
L 210.361685 125.897449 
L 210.765886 137.088425 
L 211.170087 135.680047 
L 211.574289 124.818669 
L 211.97849 119.377116 
L 212.382691 154.440809 
L 212.786893 119.861894 
L 213.191094 127.147957 
L 213.595296 178.926824 
L 213.999497 169.519012 
L 214.403698 64.413869 
L 214.8079 161.277656 
L 215.616302 93.150123 
L 216.020504 172.587209 
L 216.424705 95.646718 
L 216.828907 97.915576 
L 217.233108 108.124375 
L 217.637309 171.652858 
L 218.041511 115.808997 
L 218.445712 86.770005 
L 218.849913 135.241265 
L 219.254115 105.107093 
L 219.658316 129.437198 
L 220.062518 105.414969 
L 220.466719 99.875884 
L 220.87092 121.284944 
L 221.275122 135.683631 
L 221.679323 141.88373 
L 222.083524 122.98215 
L 222.487726 152.611595 
L 222.891927 119.084896 
L 223.296129 100.368753 
L 224.104531 141.112854 
L 224.508733 117.528918 
L 224.912934 138.945822 
L 225.317135 128.047221 
L 225.721337 95.222008 
L 226.125538 115.544009 
L 226.52974 123.68716 
L 226.933941 101.999547 
L 227.338142 102.675506 
L 227.742344 119.368021 
L 228.146545 121.1708 
L 228.550746 138.143653 
L 228.954948 114.229033 
L 229.359149 124.980622 
L 229.763351 128.878378 
L 230.167552 106.984885 
L 230.571753 129.984446 
L 230.975955 116.001549 
L 231.380156 127.54127 
L 231.784357 128.274557 
L 232.188559 148.5828 
L 232.59276 95.471537 
L 232.996962 138.226136 
L 233.401163 99.469306 
L 233.805364 113.315078 
L 234.209566 121.566734 
L 234.613767 104.419307 
L 235.017968 124.670115 
L 235.42217 116.268882 
L 235.826371 120.765545 
L 236.230573 119.289918 
L 236.634774 131.941582 
L 237.038975 117.698322 
L 237.443177 125.33411 
L 237.847378 127.767253 
L 238.251579 131.935827 
L 238.655781 119.358116 
L 239.059982 137.048523 
L 239.464184 119.03054 
L 239.868385 153.375807 
L 240.272586 118.281638 
L 240.676788 142.033423 
L 241.080989 109.613289 
L 241.48519 121.444679 
L 241.889392 116.39536 
L 242.293593 133.968682 
L 242.697795 104.303385 
L 243.101996 104.606259 
L 243.506197 103.864133 
L 243.910399 115.510727 
L 244.3146 138.699532 
L 244.718801 104.024815 
L 245.123003 120.742543 
L 245.527204 125.358264 
L 245.931406 114.418619 
L 246.335607 118.378007 
L 246.739808 131.780818 
L 247.952413 112.658069 
L 248.356614 103.259515 
L 248.760815 129.757073 
L 249.165017 137.526403 
L 249.569218 135.745448 
L 249.973419 112.431778 
L 250.377621 125.385201 
L 250.781822 112.340789 
L 251.186024 112.956309 
L 251.590225 115.368656 
L 251.994426 116.927916 
L 252.398628 123.679983 
L 252.802829 126.265388 
L 253.20703 138.742975 
L 253.611232 131.897393 
L 254.015433 109.154832 
L 254.419635 139.820573 
L 254.823836 105.82686 
L 255.228037 115.838327 
L 255.632239 117.793484 
L 256.03644 118.578924 
L 256.440641 123.977555 
L 256.844843 126.812773 
L 257.249044 109.569252 
L 257.653246 106.368218 
L 258.057447 122.515475 
L 258.461648 110.65236 
L 258.86585 132.830747 
L 259.270051 122.810761 
L 259.674252 126.731756 
L 260.482655 131.119745 
L 260.886857 127.958548 
L 261.291058 118.952133 
L 261.695259 114.928803 
L 262.099461 122.324109 
L 262.503662 111.565502 
L 263.312065 135.339165 
L 263.716266 111.376471 
L 264.120468 120.361688 
L 264.524669 105.998322 
L 264.92887 123.912513 
L 265.333072 130.819607 
L 265.737273 125.965677 
L 266.141474 130.321778 
L 266.545676 117.060912 
L 266.949877 123.120229 
L 267.354079 115.144351 
L 267.75828 123.974153 
L 268.162481 121.547308 
L 268.566683 141.073045 
L 268.970884 135.247139 
L 269.375085 123.970719 
L 269.779287 126.213268 
L 270.183488 196.299713 
L 270.58769 168.638071 
L 270.991891 92.206972 
L 271.396092 136.077814 
L 271.800294 76.520447 
L 272.204495 123.658722 
L 272.608696 154.858093 
L 273.012898 123.896438 
L 273.417099 132.542988 
L 273.821301 135.211646 
L 274.225502 191.775476 
L 274.629703 82.684487 
L 275.033905 161.391069 
L 275.438106 137.5206 
L 275.842307 89.054914 
L 276.246509 99.464763 
L 276.65071 100.100817 
L 277.054912 136.984985 
L 277.459113 110.872585 
L 277.863314 109.437595 
L 278.267516 77.135444 
L 278.671717 128.607729 
L 279.075918 143.34774 
L 279.48012 166.689705 
L 279.884321 126.353541 
L 280.288523 139.743864 
L 280.692724 100.022781 
L 281.096925 118.240769 
L 281.501127 159.866687 
L 281.905328 163.228519 
L 282.309529 116.449383 
L 282.713731 137.510168 
L 283.117932 89.344811 
L 283.522134 115.972448 
L 283.926335 73.352855 
L 284.330536 127.924272 
L 284.734738 105.248758 
L 285.138939 99.269615 
L 285.543141 195.169197 
L 285.947342 126.441909 
L 286.351543 174.790275 
L 286.755745 119.248713 
L 287.159946 123.885917 
L 287.564147 111.266498 
L 287.968349 123.543139 
L 288.37255 165.316426 
L 288.776752 169.086297 
L 289.180953 122.915928 
L 289.585154 157.090011 
L 289.989356 157.927427 
L 290.393557 168.672138 
L 290.797758 183.31126 
L 291.20196 17.083636 
L 291.606161 104.429613 
L 292.010363 125.826347 
L 292.414564 104.582053 
L 292.818765 120.328404 
L 293.222967 178.01428 
L 293.627168 49.159281 
L 294.031369 107.803243 
L 294.435571 101.971084 
L 294.839772 114.147297 
L 295.243974 113.23037 
L 296.052376 134.651643 
L 296.456578 99.745562 
L 296.860779 118.24364 
L 297.669182 94.417961 
L 298.073383 154.336649 
L 298.477585 118.285324 
L 298.881786 120.094008 
L 299.285987 104.590135 
L 299.690189 140.360602 
L 300.09439 126.297175 
L 300.498591 89.308504 
L 301.306994 121.137725 
L 301.711196 108.312786 
L 302.115397 112.816029 
L 302.9238 143.697346 
L 303.328001 121.624423 
L 303.732202 121.552674 
L 304.136404 95.051058 
L 304.540605 116.491527 
L 304.944807 128.920977 
L 305.349008 99.405351 
L 305.753209 119.824764 
L 306.157411 119.216053 
L 306.561612 130.843034 
L 306.965813 109.107291 
L 307.370015 120.408752 
L 307.774216 124.837122 
L 308.178418 124.29718 
L 308.582619 129.30298 
L 308.98682 108.053608 
L 309.391022 131.621725 
L 309.795223 125.584964 
L 310.199424 137.442317 
L 310.603626 140.976306 
L 311.007827 127.7795 
L 311.412029 91.214243 
L 311.81623 116.645812 
L 312.220431 107.93553 
L 312.624633 125.007367 
L 313.028834 112.213481 
L 313.433035 115.002732 
L 314.241438 129.563898 
L 314.64564 99.462109 
L 315.049841 165.066014 
L 315.454042 124.943857 
L 315.858244 107.428405 
L 316.262445 133.301857 
L 316.666646 115.256802 
L 317.070848 108.403969 
L 317.475049 97.911031 
L 317.879251 123.066998 
L 318.283452 118.404411 
L 318.687653 118.543795 
L 319.091855 112.973184 
L 319.496056 120.812081 
L 319.900257 136.435753 
L 320.304459 115.500554 
L 320.70866 123.021774 
L 321.112862 108.675768 
L 321.517063 124.484313 
L 321.921264 121.989776 
L 322.325466 128.0913 
L 322.729667 119.649168 
L 323.133869 120.889568 
L 323.53807 103.824659 
L 323.942271 127.911312 
L 324.346473 123.913479 
L 324.750674 112.866556 
L 325.154875 120.759519 
L 325.559077 121.022256 
L 325.963278 139.599671 
L 326.36748 127.762511 
L 326.771681 102.094683 
L 327.580084 159.573982 
L 327.984285 126.624418 
L 328.388486 129.733324 
L 328.792688 114.971394 
L 329.196889 176.608643 
L 329.601091 105.617059 
L 330.005292 110.352845 
L 330.409493 103.707354 
L 330.813695 135.928616 
L 331.217896 137.938985 
L 331.622097 104.574776 
L 332.4305 149.35841 
L 332.834702 120.142442 
L 333.238903 141.528254 
L 333.643104 138.297583 
L 334.047306 118.513628 
L 334.451507 152.200444 
L 334.855708 129.170431 
L 335.25991 76.656181 
L 335.664111 105.300091 
L 336.068313 109.70705 
L 336.472514 100.231162 
L 337.280917 123.871693 
L 337.685118 127.572913 
L 338.089319 114.148554 
L 338.493521 126.637935 
L 338.897722 121.065215 
L 339.301924 101.923194 
L 339.706125 116.57626 
L 340.110326 102.455122 
L 340.514528 125.865133 
L 340.918729 126.902079 
L 341.32293 144.005163 
L 341.727132 125.80976 
L 342.131333 114.746869 
L 342.939736 106.36412 
L 343.343937 116.700804 
L 343.748139 106.363943 
L 344.15234 127.06427 
L 344.556541 133.722382 
L 344.960743 120.398287 
L 345.364944 113.247418 
L 345.769146 118.105274 
L 346.173347 113.008635 
L 346.98175 130.573479 
L 347.385951 137.457946 
L 347.790152 115.273408 
L 348.194354 136.676557 
L 348.598555 116.917964 
L 349.002757 108.157672 
L 349.406958 112.860423 
L 349.811159 134.662198 
L 350.215361 106.982949 
L 350.619562 126.647867 
L 351.023763 128.7607 
L 351.427965 147.079337 
L 352.236368 139.115538 
L 352.640569 189.320782 
L 353.04477 94.776962 
L 353.448972 121.426058 
L 353.853173 82.389453 
L 354.257374 137.646107 
L 354.661576 149.454716 
L 355.065777 91.00706 
L 355.469979 188.226029 
L 355.87418 117.714148 
L 356.278381 91.732108 
L 356.682583 96.74793 
L 357.086784 140.510518 
L 357.490985 105.11558 
L 357.895187 124.213987 
L 358.299388 180.687992 
L 358.70359 99.179241 
L 359.107791 130.132666 
L 359.511992 108.814837 
L 359.916194 95.490102 
L 360.320395 121.69761 
L 360.724597 138.26927 
L 361.128798 99.484732 
L 361.532999 94.792494 
L 361.937201 121.111502 
L 362.341402 123.311102 
L 362.745603 122.399311 
L 363.149805 107.326434 
L 363.958208 124.692386 
L 364.362409 129.984166 
L 364.76661 117.457453 
L 365.170812 122.354719 
L 365.575013 123.061486 
L 365.979214 133.854731 
L 366.383416 123.317504 
L 366.787617 141.618326 
L 367.191819 109.656957 
L 367.59602 128.431921 
L 368.000221 134.781042 
L 368.404423 112.076785 
L 368.808624 150.121644 
L 369.212825 162.675402 
L 369.617027 105.712729 
L 370.021228 92.184147 
L 370.42543 132.936421 
L 370.829631 157.457312 
L 371.233832 103.253002 
L 371.638034 109.097249 
L 372.042235 99.274868 
L 372.446436 126.145537 
L 372.850638 101.406323 
L 373.254839 127.489348 
L 373.659041 117.061892 
L 374.063242 131.706923 
L 374.467443 108.105228 
L 374.871645 130.935931 
L 375.275846 116.877736 
L 375.680047 118.902733 
L 376.084249 114.202551 
L 376.48845 110.913835 
L 376.892652 124.929219 
L 377.296853 115.990732 
L 377.701054 129.736469 
L 378.105256 102.042535 
L 378.105256 102.042535 
" style="fill:none;stroke:#1f77b4;stroke-linecap:square;stroke-width:1.5;"/>
   </g>
   <g id="patch_3">
    <path d="M 58.523438 224.64 
L 58.523438 7.2 
" style="fill:none;stroke:#000000;stroke-linecap:square;stroke-linejoin:miter;stroke-width:0.8;"/>
   </g>
   <g id="patch_4">
    <path d="M 393.323438 224.64 
L 393.323438 7.2 
" style="fill:none;stroke:#000000;stroke-linecap:square;stroke-linejoin:miter;stroke-width:0.8;"/>
   </g>
   <g id="patch_5">
    <path d="M 58.523438 224.64 
L 393.323438 224.64 
" style="fill:none;stroke:#000000;stroke-linecap:square;stroke-linejoin:miter;stroke-width:0.8;"/>
   </g>
   <g id="patch_6">
    <path d="M 58.523438 7.2 
L 393.323438 7.2 
" style="fill:none;stroke:#000000;stroke-linecap:square;stroke-linejoin:miter;stroke-width:0.8;"/>
   </g>
  </g>
 </g>
 <defs>
  <clipPath id="paa24c8d079">
   <rect height="217.44" width="334.8" x="58.523438" y="7.2"/>
  </clipPath>
 </defs>
</svg>
