<svg height="373.5" viewBox="0 0 424.8 280.2" width="566.4" xmlns="http://www.w3.org/2000/svg" xmlns:xlink="http://www.w3.org/1999/xlink"><defs><style>*{stroke-linecap:butt;stroke-linejoin:round}</style></defs><g id="figure_1"><path d="M0 280.2h424.8V0H0z" fill="none" id="patch_1"/><g id="axes_1"><path d="M7.2 104h410.4V7.2H7.2z" fill="#fff" id="patch_2"/><path clip-path="url(#pe28d41f38c)" d="M25.9 99.6H52l.6-.1h4.9l.6-.1h3.6l.6-.1h1.9l.6-.1H66.7l.6-.1h1.2l.6-.1H70.4l.6-.1h.6l.6-.1h.6l.6-.1h.6l.6-.1h.6l.6-.1h.7l.6-.1.6-.1h.6l.6-.1.6-.1.6-.1h.6l.6-.2h.6l.6-.1.7-.1.6-.1.6-.2h.6l.6-.2h.6l.6-.2.6-.1.6-.2.6-.1.7-.1.6-.2.6-.1.6-.2.6-.1.6-.2.6-.2.6-.1.6-.2.6-.2.7-.2.6-.2.6-.2.6-.2.6-.2.6-.2.6-.2.6-.2.6-.3.6-.2.6-.2.7-.3.6-.3.6-.2.6-.3.6-.3.6-.3.6-.3.6-.3.6-.3.6-.4.7-.3.6-.3.6-.4.6-.4.6-.3.6-.4.6-.4.6-.4.6-.5.6-.4.6-.4.7-.5.6-.4.6-.5.6-.5.6-.5.6-.5.6-.5.6-.5.6-.6.6-.5.7-.6.6-.6.6-.5.6-.6.6-.6.6-.6.6-.6.6-.7.6-.6.6-.7.7-.6.6-.7.6-.7.6-.6.6-.7.6-.7.6-.7.6-.7.6-.8.6-.7.6-.7.7-.8.6-.7.6-.7.6-.8.6-.7.6-.8.6-.8.6-.7.6-.8.6-.8.7-.8.6-.8.6-.8.6-.8.6-.8.6-.8.6-.8.6-.8.6-.8.6-.8.6-.8.7-.8.6-.9.6-.8.6-.8.6-.8.6-.9.6-.8.6-.8.6-.8.6-.9.7-.8.6-.8.6-.8.6-.9.6-.8.6-.8.6-.8.6-.8.6-.8.6-.8.7-.7.6-.8.6-.8.6-.7.6-.8.6-.7.6-.7.6-.7.6-.7.6-.7.6-.7.7-.6.6-.6.6-.7.6-.6.6-.6.6-.6.6-.5.6-.6.6-.5.6-.5.7-.5.6-.5.6-.5.6-.5.6-.4.6-.5.6-.4.6-.4.6-.4.6-.4.7-.3.6-.4.6-.3.6-.3.6-.3.6-.3.6-.2.6-.3.6-.2.6-.2.6-.2.7-.2.6-.2.6-.1.6-.1.6-.2h.6l.6-.1h1.2l.6-.1h1.9l.6.2h.6l.6.1.6.2.6.1.6.2.6.1.6.2.7.2.6.2.6.3.6.2.6.3.6.3.6.2.6.3.6.4.6.3.7.3.6.4.6.3.6.4.6.4.6.4.6.4.6.5.6.4.6.4.7.5.6.5.6.5.6.5.6.5.6.5.6.6.6.5.6.6.6.6.6.6.7.6.6.6.6.6.6.6.6.7.6.7.6.6.6.7.6.7.6.7.7.7.6.7.6.8.6.7.6.7.6.8.6.7.6.8.6.7.6.8.7.7.6.8.6.7.6.8.6.7.6.8.6.8.6.7.6.7.6.8.6.7.7.7.6.8.6.7.6.7.6.7.6.7.6.8.6.7.6.7.6.7.7.7.6.6.6.7.6.7.6.7.6.7.6.6.6.7.6.7.6.6.6.7.7.6.6.7.6.6.6.6.6.7.6.6.6.6.6.6.6.6.6.6.7.7.6.5.6.6.6.6.6.6.6.6.6.6.6.5.6.6.6.5.7.6.6.5.6.5.6.6.6.5.6.5.6.5.6.5.6.5.6.5.6.4.7.5.6.5.6.4.6.5.6.4.6.4.6.4.6.5.6.4.6.4.7.4.6.4.6.3.6.4.6.4.6.3.6.4.6.3.6.4.6.3.7.3.6.3.6.3.6.4.6.2.6.3.6.3.6.3.6.3.6.2.6.3.7.2.6.3.6.2.6.3.6.2.6.2.6.3.6.2.6.2.6.2.7.2.6.2.6.2.6.1.6.2.6.2.6.2.6.1.6.2.6.2.6.1.7.2.6.1.6.2.6.1.6.1.6.2h.6l.6.2.6.1.6.2h.7l.6.2h.6l.6.2.6.1.6.1.6.1h.6l.6.2h.6l.7.2h.6l.6.1h.6l.6.2h.6l.6.1h.6l.6.1h.6l.6.1.7.1h.6l.6.1h.6l.6.1h1.2l.6.1h.6l.6.1H324l.6.1h1.2l.6.1h1.2l.6.1h1.2l.7.1H331.9l.6.1h2.4l.6.1h2.5l.6.1h2.4l.6.1h4.3l.6.1H353.2l.6.1H386.8l.6.1H398.9z" fill="#1f77b4" opacity=".4" id="patch_3"/><path clip-path="url(#pe28d41f38c)" d="M129.5 99.6V71l.6-.7.6-.7.6-.7.6-.8.6-.7.6-.7.7-.8.6-.7.6-.7.6-.8.6-.7.6-.8.6-.8.6-.7.6-.8.6-.8.7-.8.6-.8.6-.8.6-.8.6-.8.6-.8.6-.8.6-.8.6-.8.6-.8.6-.8.7-.8.6-.9.6-.8.6-.8.6-.8.6-.9.6-.8.6-.8.6-.8.6-.9.7-.8.6-.8.6-.8.6-.9.6-.8.6-.8.6-.8.6-.8.6-.8.6-.8.7-.7.6-.8.6-.8.6-.7.6-.8.6-.7.6-.7.6-.7.6-.7.6-.7.6-.7.7-.6.6-.6.6-.7.6-.6.6-.6.6-.6.6-.5.6-.6.6-.5.6-.5.7-.5.6-.5.6-.5.6-.5.6-.4.6-.5.6-.4.6-.4.6-.4.6-.4.7-.3.6-.4.6-.3.6-.3.6-.3.6-.3.6-.2.6-.3.6-.2.6-.2.6-.2.7-.2.6-.2.6-.1.6-.1.6-.2h.6l.6-.1h1.2l.6-.1h1.9l.6.2h.6l.6.1.6.2.6.1.6.2.6.1.6.2.7.2.6.2.6.3.6.2.6.3.6.3.6.2.6.3.6.4.6.3.7.3.6.4.6.3.6.4.6.4.6.4.6.4.6.5.6.4.6.4.7.5.6.5.6.5.6.5.6.5.6.5.6.6.6.5.6.6.6.6.6.6.7.6.6.6.6.6.6.6.6.7.6.7.6.6.6.7.6.7.6.7.7.7.6.7.6.8.6.7.6.7.6.8.6.7.6.8.6.7.6.8.7.7.6.8.6.7.6.8.6.7.6.8.6.8.6.7.6.7.6.8.6.7.7.7.6.8.6.7.6.7.6.7.6.7.6.8.6.7.6.7.6.7.7.7.6.6.6.7.6.7.6.7.6.7.6.6.6.7.6.7.6.6.6.7.7.6.6.7.6.6.6.6.6.7.6.6.6.6.6.6.6.6.6.6.7.7.6.5.6.6.6.6.6.6.6.6.6.6.6.5.6.6.6.5.7.6.6.5v24.6z" fill="#1f77b4" opacity=".4" id="patch_4"/><g id="matplotlib.axis_1"><g id="xtick_1"><g id="line2d_1"><defs><path d="M0 0v3.5" id="mb57e168a13" stroke="#000" stroke-width=".8"/></defs><use x="54.3" xlink:href="#mb57e168a13" y="104" stroke="#000" stroke-width=".8"/></g><g id="text_1"><defs><path d="M31.8 66.4q-7.6 0-11.5-7.5-3.8-7.5-3.8-22.5t3.8-22.5q3.9-7.5 11.5-7.5 7.7 0 11.5 7.5T47 36.4q0 15-3.8 22.5t-11.5 7.5zm0 7.8q12.2 0 18.7-9.7T57 36.4Q57 18 50.5 8.3 44-1.4 31.8-1.4 19.5-1.4 13 8.3q-6.5 9.7-6.5 28 0 18.5 6.5 28.2 6.4 9.7 18.7 9.7z" id="DejaVuSans-48"/><path d="M10.7 12.4H21V0H10.7z" id="DejaVuSans-46"/><path d="M33 40.4q-6.6 0-10.5-4.6-3.9-4.5-3.9-12.4T22.5 11Q26.4 6.4 33 6.4q6.7 0 10.5 4.6 4 4.5 4 12.4t-4 12.4q-3.8 4.6-10.5 4.6zm19.6 30.9v-9Q48.9 64.1 45 65q-3.8 1-7.5 1-9.8 0-15-6.7-5-6.6-5.8-19.9 2.9 4.3 7.2 6.5 4.4 2.3 9.6 2.3 11 0 17.4-6.7 6.3-6.6 6.3-18.1 0-11.2-6.6-18Q44-1.4 33-1.4q-12.6 0-19.3 9.7Q7 18 7 36.3 7 53.8 15.2 64q8.2 10.3 22 10.3 3.7 0 7.5-.7 3.8-.8 7.9-2.2z" id="DejaVuSans-54"/><path d="M10.8 73h38.7v-8.4H19.8V46.7q2.2.8 4.3 1.1 2.2.4 4.3.4 12.2 0 19.4-6.7 7-6.7 7-18.1 0-11.8-7.2-18.3-7.4-6.5-20.7-6.5-4.6 0-9.4.8-4.7.7-9.8 2.3v10q4.4-2.5 9.1-3.6 4.7-1.2 9.9-1.2 8.5 0 13.4 4.4 5 4.5 5 12 0 7.7-5 12.1Q35 40 26.7 40q-4 0-7.9-.9-4-.9-8-2.7z" id="DejaVuSans-53"/></defs><g transform="matrix(.1 0 0 -.1 40 118.6)"><use xlink:href="#DejaVuSans-48"/><use x="63.6" xlink:href="#DejaVuSans-46"/><use x="95.4" xlink:href="#DejaVuSans-48"/><use x="159" xlink:href="#DejaVuSans-54"/><use x="222.7" xlink:href="#DejaVuSans-53"/></g></g></g><g id="xtick_2"><use x="118.3" xlink:href="#mb57e168a13" y="104" stroke="#000" stroke-width=".8" id="line2d_2"/><g id="text_2"><defs><path d="M8.2 73h46.9v-4.3L28.6 0H18.3l25 64.6H8.1z" id="DejaVuSans-55"/></defs><g transform="matrix(.1 0 0 -.1 104 118.6)"><use xlink:href="#DejaVuSans-48"/><use x="63.6" xlink:href="#DejaVuSans-46"/><use x="95.4" xlink:href="#DejaVuSans-48"/><use x="159" xlink:href="#DejaVuSans-55"/><use x="222.7" xlink:href="#DejaVuSans-48"/></g></g></g><g id="xtick_3"><use x="182.2" xlink:href="#mb57e168a13" y="104" stroke="#000" stroke-width=".8" id="line2d_3"/><g transform="matrix(.1 0 0 -.1 167.9 118.6)" id="text_3"><use xlink:href="#DejaVuSans-48"/><use x="63.6" xlink:href="#DejaVuSans-46"/><use x="95.4" xlink:href="#DejaVuSans-48"/><use x="159" xlink:href="#DejaVuSans-55"/><use x="222.7" xlink:href="#DejaVuSans-53"/></g></g><g id="xtick_4"><use x="246.2" xlink:href="#mb57e168a13" y="104" stroke="#000" stroke-width=".8" id="line2d_4"/><g id="text_4"><defs><path d="M31.8 34.6q-7 0-11-3.7-4.1-3.8-4.1-10.4 0-6.6 4-10.3 4-3.8 11-3.8 7.1 0 11.2 3.8 4 3.8 4 10.3 0 6.6-4 10.4-4 3.7-11.1 3.7zm-9.9 4.2q-6.3 1.6-9.9 6Q8.5 49 8.5 55.2q0 8.8 6.2 13.8 6.3 5.1 17 5.1 11 0 17.2-5Q55 64 55 55.2q0-6.2-3.6-10.6-3.5-4.3-9.8-5.9 7.1-1.6 11.1-6.5 4-4.8 4-11.8 0-10.6-6.5-16.3-6.5-5.6-18.5-5.6T13.2 4.2Q6.8 10 6.8 20.5q0 7 4 11.8 4 4.9 11.1 6.5zm-3.6 15.6q0-5.7 3.5-8.8 3.6-3.2 10-3.2 6.3 0 10 3.2 3.5 3.1 3.5 8.8 0 5.7-3.6 8.8-3.6 3.2-10 3.2-6.3 0-9.9-3.2-3.5-3.1-3.5-8.8z" id="DejaVuSans-56"/></defs><g transform="matrix(.1 0 0 -.1 231.9 118.6)"><use xlink:href="#DejaVuSans-48"/><use x="63.6" xlink:href="#DejaVuSans-46"/><use x="95.4" xlink:href="#DejaVuSans-48"/><use x="159" xlink:href="#DejaVuSans-56"/><use x="222.7" xlink:href="#DejaVuSans-48"/></g></g></g><g id="xtick_5"><use x="310.1" xlink:href="#mb57e168a13" y="104" stroke="#000" stroke-width=".8" id="line2d_5"/><g transform="matrix(.1 0 0 -.1 295.8 118.6)" id="text_5"><use xlink:href="#DejaVuSans-48"/><use x="63.6" xlink:href="#DejaVuSans-46"/><use x="95.4" xlink:href="#DejaVuSans-48"/><use x="159" xlink:href="#DejaVuSans-56"/><use x="222.7" xlink:href="#DejaVuSans-53"/></g></g><g id="xtick_6"><use x="374.1" xlink:href="#mb57e168a13" y="104" stroke="#000" stroke-width=".8" id="line2d_6"/><g id="text_6"><defs><path d="M11 1.5v9q3.7-1.8 7.5-2.7 3.8-1 7.5-1 9.8 0 14.9 6.7 5.1 6.5 5.9 20-2.8-4.3-7.2-6.5-4.4-2.3-9.6-2.3-11 0-17.3 6.6Q6.3 38 6.3 49.4q0 11.2 6.6 18 6.7 6.8 17.7 6.8 12.7 0 19.3-9.7 6.7-9.7 6.7-28.1 0-17.3-8.2-27.5-8.2-10.3-22-10.3-3.7 0-7.5.7t-8 2.2zm19.6 31q6.6 0 10.5 4.5 4 4.5 4 12.4t-4 12.4q-3.9 4.6-10.5 4.6t-10.5-4.6q-3.9-4.5-3.9-12.4T20.1 37q3.9-4.6 10.5-4.6z" id="DejaVuSans-57"/></defs><g transform="matrix(.1 0 0 -.1 359.8 118.6)"><use xlink:href="#DejaVuSans-48"/><use x="63.6" xlink:href="#DejaVuSans-46"/><use x="95.4" xlink:href="#DejaVuSans-48"/><use x="159" xlink:href="#DejaVuSans-57"/><use x="222.7" xlink:href="#DejaVuSans-48"/></g></g></g><g id="text_7"><defs><path d="M44.3 53v-8.4q-3.8 2-8 2.9-4 1-8.4 1-6.7 0-10-2-3.4-2.1-3.4-6.2 0-3.1 2.4-5 2.4-1.7 9.6-3.3l3-.7q9.7-2 13.7-5.8 4-3.7 4-10.4 0-7.6-6-12-6-4.5-16.6-4.5-4.4 0-9.1.8-4.8.9-10 2.6v9.3q5-2.6 9.7-4 4.9-1.2 9.6-1.2 6.4 0 9.8 2.2 3.4 2.2 3.4 6.1 0 3.7-2.5 5.6-2.4 2-10.8 3.8l-3.1.7q-8.4 1.8-12 5.4-3.8 3.6-3.8 10 0 7.7 5.5 11.9Q16.7 56 26.8 56q5 0 9.4-.7 4.4-.8 8-2.2z" id="DejaVuSans-115"/><path d="M9.4 54.7h9V0h-9zm0 21.3h9V64.6h-9z" id="DejaVuSans-105"/><path d="M45.4 28q0 9.8-4 15.1-4 5.4-11.3 5.4-7.2 0-11.3-5.4-4-5.4-4-15.1t4-15.1q4-5.4 11.3-5.4 7.3 0 11.3 5.4 4 5.4 4 15zm9-21.2q0-14-6.2-20.8-6.2-6.8-19-6.8-4.7 0-9 .7-4.1.7-8 2.2v8.7q3.9-2.1 7.7-3.1 3.9-1 7.9-1 8.8 0 13.2 4.5 4.4 4.6 4.4 14v4.4q-2.8-4.8-7.1-7.2Q33.9 0 27.9 0q-10 0-16.2 7.7Q5.5 15.3 5.5 28q0 12.7 6.2 20.3Q17.8 56 27.9 56q6 0 10.4-2.4 4.3-2.4 7.1-7.2v8.3h9z" id="DejaVuSans-103"/><path d="M52 44.2q3.4 6 8 9Q64.9 56 71 56q8.6 0 13.3-6 4.6-6 4.6-17V0h-9v32.7q0 7.9-2.8 11.7-2.8 3.8-8.5 3.8-7 0-11-4.7-4-4.6-4-12.6V0h-9.1v32.7q0 8-2.8 11.7-2.8 3.8-8.6 3.8-6.9 0-11-4.7-4-4.6-4-12.6V0h-9v54.7h9v-8.5q3 5 7.4 7.4Q29.8 56 35.7 56q6 0 10.1-3 4.2-3 6.2-8.8z" id="DejaVuSans-109"/><path d="M34.3 27.5q-11 0-15.1-2.5-4.2-2.5-4.2-8.5 0-4.8 3.1-7.6 3.2-2.8 8.6-2.8 7.5 0 12 5.3t4.5 14v2zm17.9 3.7V0h-9v8.3q-3-5-7.7-7.3Q31-1.4 24.3-1.4 16-1.4 11 3.3 6 8 6 15.9q0 9.2 6.2 14 6.2 4.6 18.4 4.6h12.6v1q0 6.1-4 9.5-4.1 3.4-11.5 3.4-4.7 0-9.2-1.1-4.4-1.2-8.5-3.4v8.3q5 2 9.6 2.8 4.6 1 9 1 11.9 0 17.7-6.2 5.9-6.1 5.9-18.6z" id="DejaVuSans-97"/></defs><g transform="matrix(.1 0 0 -.1 197.3 132.3)"><use xlink:href="#DejaVuSans-115"/><use x="52.1" xlink:href="#DejaVuSans-105"/><use x="79.9" xlink:href="#DejaVuSans-103"/><use x="143.4" xlink:href="#DejaVuSans-109"/><use x="240.8" xlink:href="#DejaVuSans-97"/></g></g></g><path d="M7.2 104h410.4" fill="none" stroke="#000" stroke-linecap="square" stroke-width=".8" id="patch_5"/></g><g id="axes_2"><path d="M7.2 242.6h410.4v-96.8H7.2z" fill="#fff" id="patch_6"/><path clip-path="url(#pa7036ca789)" d="M25.9 238.2H39.9l.6-.1h3l.6-.1H45.4l.6-.1h.6l.6-.1h.6l.6-.1h.6l.6-.1h.6l.6-.2h.7l.6-.1.6-.1.6-.1.6-.1.6-.2h.6l.6-.2.6-.2.6-.1.7-.2.6-.2.6-.2.6-.2 1.2-.2.6-.2.6-.2.6-.3.6-.3.7-.3.6-.3.6-.3.6-.3.6-.3.6-.4.6-.4.6-.4.6-.4.6-.4.6-.5.7-.5.6-.5.6-.5.6-.5.6-.6.6-.5.6-.6.6-.6.6-.7.6-.6.7-.7.6-.7.6-.7.6-.8.6-.7.6-.8.6-.8.6-.9.6-.8.6-.9.6-.9.7-1 .6-.9.6-1 .6-1 .6-1 .6-1 .6-1 .6-1.1.6-1 .6-1.2.7-1.1.6-1.2.6-1.1.6-1.2.6-1.2.6-1.2.6-1.2.6-1.2.6-1.3.6-1.2.7-1.2.6-1.3.6-1.2.6-1.3.6-1.2.6-1.3.6-1.2.6-1.3.6-1.2.6-1.2.6-1.3.7-1.2.6-1.2.6-1.1.6-1.2.6-1.2.6-1 .6-1.2.6-1 .6-1.1.6-1 .7-1.1.6-1 .6-1 .6-.9.6-1 .6-.8.6-.9.6-.8.6-.8.6-.8.7-.7.6-.7.6-.7.6-.7.6-.6.6-.6.6-.6.6-.5.6-.5.6-.5.6-.4.7-.4.6-.4.6-.4.6-.3.6-.3.6-.2.6-.3.6-.2.6-.2.6-.1.7-.2h.6l.6-.1h.6l.6-.1h1.2l.6.1h.6l.6.2.6.1.7.2.6.2.6.2.6.2.6.2.6.3.6.3.6.3.6.4.6.3.7.4.6.4.6.4.6.5.6.4.6.5.6.5.6.5.6.5.6.6.7.5.6.6.6.6.6.6.6.6.6.7.6.6.6.7.6.7.6.6.6.7.7.7.6.8.6.7.6.7.6.7.6.8.6.7.6.8.6.8.6.7.7.8.6.8.6.7.6.8.6.8.6.8.6.8.6.7.6.8.6.8.6.8.7.7.6.8.6.8.6.7.6.8.6.7.6.8.6.7.6.8.6.7.7.7.6.8.6.7.6.7.6.7.6.7.6.7.6.7.6.7.6.6.7.7.6.7.6.6.6.7.6.6.6.7.6.6.6.7.6.6.6.6.6.6.7.6.6.6.6.6.6.6.6.6.6.6.6.5.6.6.6.6.6.5.7.5.6.6.6.5.6.5.6.6.6.5.6.5.6.5.6.5.6.4.6.5.7.5.6.4.6.5.6.4.6.5.6.4.6.4.6.4.6.4.6.4.7.4.6.4.6.4.6.4.6.4.6.3.6.4.6.3.6.4.6.3.7.4.6.3.6.3.6.3.6.4.6.3.6.3.6.3.6.3.6.3.6.3.7.2.6.3.6.3.6.3.6.2.6.3.6.3.6.2.6.3.6.2.7.3.6.2.6.2.6.3.6.2.6.2.6.2.6.2.6.3.6.2.7.2.6.2.6.2.6.2.6.1.6.2.6.2.6.2.6.2.6.1.6.2.7.1.6.2.6.1.6.2.6.1.6.2h.6l.6.2.6.1.6.2h.7l.6.2h.6l.6.2.6.1h.6l.6.2h.6l.6.1.6.1.6.1h.7l.6.1.6.1h.6l.6.1.6.1h.6l.6.1h.6l.6.1h.7l.6.1h.6l.6.1h.6l.6.1h.6l.6.1h1.2l.7.1h.6l.6.1h.6l.6.1h1.2l.6.1h.6l.6.1H266.7l.6.1h.6l.6.1h.6l.6.1h1.2l.6.1h.6l.7.1h1.2l.6.1h.6l.6.1h1.2l.6.1h1.2l.7.1h1.2l.6.1h1.2l.6.1H285l.7.1h2.4l.6.1h2.4l.7.1h4.2l.6.1H301.4l.6.1H308.1l.6.1H314.2l.6.1H319.7l.6.1H327l.6.1H385.5l.6.1H399z" fill="#1f77b4" opacity=".4" id="patch_7"/><path clip-path="url(#pa7036ca789)" d="M91.7 238.2V200l.6-1.2.6-1.2.6-1.2.6-1.3.6-1.2.7-1.2.6-1.3.6-1.2.6-1.3.6-1.2.6-1.3.6-1.2.6-1.3.6-1.2.6-1.2.6-1.3.7-1.2.6-1.2.6-1.1.6-1.2.6-1.2.6-1 .6-1.2.6-1 .6-1.1.6-1 .7-1.1.6-1 .6-1 .6-.9.6-1 .6-.8.6-.9.6-.8.6-.8.6-.8.7-.7.6-.7.6-.7.6-.7.6-.6.6-.6.6-.6.6-.5.6-.5.6-.5.6-.4.7-.4.6-.4.6-.4.6-.3.6-.3.6-.2.6-.3.6-.2.6-.2.6-.1.7-.2h.6l.6-.1h.6l.6-.1h1.2l.6.1h.6l.6.2.6.1.7.2.6.2.6.2.6.2.6.2.6.3.6.3.6.3.6.4.6.3.7.4.6.4.6.4.6.5.6.4.6.5.6.5.6.5.6.5.6.6.7.5.6.6.6.6.6.6.6.6.6.7.6.6.6.7.6.7.6.6.6.7.7.7.6.8.6.7.6.7.6.7.6.8.6.7.6.8.6.8.6.7.7.8.6.8.6.7.6.8.6.8.6.8.6.8.6.7.6.8.6.8.6.8.7.7.6.8.6.8.6.7.6.8.6.7.6.8.6.7.6.8.6.7.7.7.6.8.6.7.6.7.6.7.6.7.6.7.6.7.6.7.6.6.7.7.6.7.6.6.6.7.6.6.6.7.6.6.6.7.6.6.6.6.6.6.7.6.6.6.6.6.6.6.6.6.6.6.6.5.6.6.6.6.6.5.7.5.6.6.6.5.6.5.6.6.6.5.6.5.6.5.6.5.6.4.6.5.7.5.6.4.6.5.6.4.6.5.6.4.6.4.6.4.6.4.6.4.7.4.6.4.6.4.6.4.6.4.6.3.6.4.6.3.6.4v16.7z" fill="#1f77b4" opacity=".4" id="patch_8"/><g id="matplotlib.axis_2"><g id="xtick_7"><use x="11.2" xlink:href="#mb57e168a13" y="242.6" stroke="#000" stroke-width=".8" id="line2d_7"/><use xlink:href="#DejaVuSans-48" transform="matrix(.1 0 0 -.1 8 257.2)" id="text_8"/></g><g id="xtick_8"><use x="99.5" xlink:href="#mb57e168a13" y="242.6" stroke="#000" stroke-width=".8" id="line2d_8"/><use xlink:href="#DejaVuSans-53" transform="matrix(.1 0 0 -.1 96.3 257.2)" id="text_9"/></g><g id="xtick_9"><use x="187.8" xlink:href="#mb57e168a13" y="242.6" stroke="#000" stroke-width=".8" id="line2d_9"/><g id="text_10"><defs><path d="M12.4 8.3h16.1v55.6L11 60.4v9l17.4 3.5h9.9V8.3h16V0H12.5z" id="DejaVuSans-49"/></defs><g transform="matrix(.1 0 0 -.1 181.4 257.2)"><use xlink:href="#DejaVuSans-49"/><use x="63.6" xlink:href="#DejaVuSans-48"/></g></g></g><g id="xtick_10"><use x="276.1" xlink:href="#mb57e168a13" y="242.6" stroke="#000" stroke-width=".8" id="line2d_10"/><g transform="matrix(.1 0 0 -.1 269.7 257.2)" id="text_11"><use xlink:href="#DejaVuSans-49"/><use x="63.6" xlink:href="#DejaVuSans-53"/></g></g><g id="xtick_11"><use x="364.4" xlink:href="#mb57e168a13" y="242.6" stroke="#000" stroke-width=".8" id="line2d_11"/><g id="text_12"><defs><path d="M19.2 8.3h34.4V0H7.3v8.3l15.3 15.6q9.7 9.8 12.2 12.6 4.7 5.3 6.6 9 2 3.7 2 7.3 0 5.8-4.2 9.5-4 3.6-10.6 3.6-4.6 0-9.8-1.6-5.1-1.6-11-4.9v10q6 2.4 11.1 3.6 5.2 1.2 9.5 1.2 11.4 0 18-5.7 6.8-5.6 6.8-15 0-4.6-1.7-8.6-1.6-4-6-9.5l-7.9-8.2L19.2 8.3z" id="DejaVuSans-50"/></defs><g transform="matrix(.1 0 0 -.1 358 257.2)"><use xlink:href="#DejaVuSans-50"/><use x="63.6" xlink:href="#DejaVuSans-48"/></g></g></g><g id="text_13"><defs><path d="M54.9 33V0h-9v32.7q0 7.8-3 11.6-3 3.9-9.1 3.9-7.3 0-11.5-4.7Q18.1 39 18.1 31V0h-9v54.7h9v-8.5q3.2 5 7.6 7.4Q30.1 56 35.8 56q9.4 0 14.2-5.8Q55 44.3 55 33z" id="DejaVuSans-110"/><path d="M8.5 21.6v33h9V22q0-7.7 3-11.6 3-4 9-4 7.4 0 11.6 4.7 4.2 4.7 4.2 12.7v31h9V0h-9v8.4Q42 3.4 37.7 1q-4.3-2.4-10-2.4-9.4 0-14.3 5.8-4.9 5.9-4.9 17.2zM31.1 56z" id="DejaVuSans-117"/></defs><g transform="matrix(.1 0 0 -.1 206 270.9)"><use xlink:href="#DejaVuSans-110"/><use x="63.4" xlink:href="#DejaVuSans-117"/></g></g></g><path d="M7.2 242.6h410.4" fill="none" stroke="#000" stroke-linecap="square" stroke-width=".8" id="patch_9"/></g></g><defs><clipPath id="pe28d41f38c"><path d="M7.2 7.2h410.4V104H7.2z"/></clipPath><clipPath id="pa7036ca789"><path d="M7.2 145.8h410.4v96.8H7.2z"/></clipPath></defs></svg>