<?xml version="1.0" encoding="utf-8" standalone="no"?>
<!DOCTYPE svg PUBLIC "-//W3C//DTD SVG 1.1//EN"
  "http://www.w3.org/Graphics/SVG/1.1/DTD/svg11.dtd">
<!-- Created with matplotlib (https://matplotlib.org/) -->
<svg height="262.19625pt" version="1.1" viewBox="0 0 395.328125 262.19625" width="395.328125pt" xmlns="http://www.w3.org/2000/svg" xmlns:xlink="http://www.w3.org/1999/xlink">
 <defs>
  <style type="text/css">
*{stroke-linecap:butt;stroke-linejoin:round;}
  </style>
 </defs>
 <g id="figure_1">
  <g id="patch_1">
   <path d="M 0 262.19625 
L 395.328125 262.19625 
L 395.328125 0 
L 0 0 
z
" style="fill:none;"/>
  </g>
  <g id="axes_1">
   <g id="patch_2">
    <path d="M 53.328125 224.64 
L 388.128125 224.64 
L 388.128125 7.2 
L 53.328125 7.2 
z
" style="fill:#ffffff;"/>
   </g>
   <g id="matplotlib.axis_1">
    <g id="xtick_1">
     <g id="line2d_1">
      <defs>
       <path d="M 0 0 
L 0 3.5 
" id="m987402a7ae" style="stroke:#000000;stroke-width:0.8;"/>
      </defs>
      <g>
       <use style="stroke:#000000;stroke-width:0.8;" x="68.546307" xlink:href="#m987402a7ae" y="224.64"/>
      </g>
     </g>
     <g id="text_1">
      <!-- 0 -->
      <defs>
       <path d="M 31.78125 66.40625 
Q 24.171875 66.40625 20.328125 58.90625 
Q 16.5 51.421875 16.5 36.375 
Q 16.5 21.390625 20.328125 13.890625 
Q 24.171875 6.390625 31.78125 6.390625 
Q 39.453125 6.390625 43.28125 13.890625 
Q 47.125 21.390625 47.125 36.375 
Q 47.125 51.421875 43.28125 58.90625 
Q 39.453125 66.40625 31.78125 66.40625 
z
M 31.78125 74.21875 
Q 44.046875 74.21875 50.515625 64.515625 
Q 56.984375 54.828125 56.984375 36.375 
Q 56.984375 17.96875 50.515625 8.265625 
Q 44.046875 -1.421875 31.78125 -1.421875 
Q 19.53125 -1.421875 13.0625 8.265625 
Q 6.59375 17.96875 6.59375 36.375 
Q 6.59375 54.828125 13.0625 64.515625 
Q 19.53125 74.21875 31.78125 74.21875 
z
" id="DejaVuSans-48"/>
      </defs>
      <g transform="translate(65.365057 239.238437)scale(0.1 -0.1)">
       <use xlink:href="#DejaVuSans-48"/>
      </g>
     </g>
    </g>
    <g id="xtick_2">
     <g id="line2d_2">
      <g>
       <use style="stroke:#000000;stroke-width:0.8;" x="108.912837" xlink:href="#m987402a7ae" y="224.64"/>
      </g>
     </g>
     <g id="text_2">
      <!-- 100 -->
      <defs>
       <path d="M 12.40625 8.296875 
L 28.515625 8.296875 
L 28.515625 63.921875 
L 10.984375 60.40625 
L 10.984375 69.390625 
L 28.421875 72.90625 
L 38.28125 72.90625 
L 38.28125 8.296875 
L 54.390625 8.296875 
L 54.390625 0 
L 12.40625 0 
z
" id="DejaVuSans-49"/>
      </defs>
      <g transform="translate(99.369087 239.238437)scale(0.1 -0.1)">
       <use xlink:href="#DejaVuSans-49"/>
       <use x="63.623047" xlink:href="#DejaVuSans-48"/>
       <use x="127.246094" xlink:href="#DejaVuSans-48"/>
      </g>
     </g>
    </g>
    <g id="xtick_3">
     <g id="line2d_3">
      <g>
       <use style="stroke:#000000;stroke-width:0.8;" x="149.279367" xlink:href="#m987402a7ae" y="224.64"/>
      </g>
     </g>
     <g id="text_3">
      <!-- 200 -->
      <defs>
       <path d="M 19.1875 8.296875 
L 53.609375 8.296875 
L 53.609375 0 
L 7.328125 0 
L 7.328125 8.296875 
Q 12.9375 14.109375 22.625 23.890625 
Q 32.328125 33.6875 34.8125 36.53125 
Q 39.546875 41.84375 41.421875 45.53125 
Q 43.3125 49.21875 43.3125 52.78125 
Q 43.3125 58.59375 39.234375 62.25 
Q 35.15625 65.921875 28.609375 65.921875 
Q 23.96875 65.921875 18.8125 64.3125 
Q 13.671875 62.703125 7.8125 59.421875 
L 7.8125 69.390625 
Q 13.765625 71.78125 18.9375 73 
Q 24.125 74.21875 28.421875 74.21875 
Q 39.75 74.21875 46.484375 68.546875 
Q 53.21875 62.890625 53.21875 53.421875 
Q 53.21875 48.921875 51.53125 44.890625 
Q 49.859375 40.875 45.40625 35.40625 
Q 44.1875 33.984375 37.640625 27.21875 
Q 31.109375 20.453125 19.1875 8.296875 
z
" id="DejaVuSans-50"/>
      </defs>
      <g transform="translate(139.735617 239.238437)scale(0.1 -0.1)">
       <use xlink:href="#DejaVuSans-50"/>
       <use x="63.623047" xlink:href="#DejaVuSans-48"/>
       <use x="127.246094" xlink:href="#DejaVuSans-48"/>
      </g>
     </g>
    </g>
    <g id="xtick_4">
     <g id="line2d_4">
      <g>
       <use style="stroke:#000000;stroke-width:0.8;" x="189.645897" xlink:href="#m987402a7ae" y="224.64"/>
      </g>
     </g>
     <g id="text_4">
      <!-- 300 -->
      <defs>
       <path d="M 40.578125 39.3125 
Q 47.65625 37.796875 51.625 33 
Q 55.609375 28.21875 55.609375 21.1875 
Q 55.609375 10.40625 48.1875 4.484375 
Q 40.765625 -1.421875 27.09375 -1.421875 
Q 22.515625 -1.421875 17.65625 -0.515625 
Q 12.796875 0.390625 7.625 2.203125 
L 7.625 11.71875 
Q 11.71875 9.328125 16.59375 8.109375 
Q 21.484375 6.890625 26.8125 6.890625 
Q 36.078125 6.890625 40.9375 10.546875 
Q 45.796875 14.203125 45.796875 21.1875 
Q 45.796875 27.640625 41.28125 31.265625 
Q 36.765625 34.90625 28.71875 34.90625 
L 20.21875 34.90625 
L 20.21875 43.015625 
L 29.109375 43.015625 
Q 36.375 43.015625 40.234375 45.921875 
Q 44.09375 48.828125 44.09375 54.296875 
Q 44.09375 59.90625 40.109375 62.90625 
Q 36.140625 65.921875 28.71875 65.921875 
Q 24.65625 65.921875 20.015625 65.03125 
Q 15.375 64.15625 9.8125 62.3125 
L 9.8125 71.09375 
Q 15.4375 72.65625 20.34375 73.4375 
Q 25.25 74.21875 29.59375 74.21875 
Q 40.828125 74.21875 47.359375 69.109375 
Q 53.90625 64.015625 53.90625 55.328125 
Q 53.90625 49.265625 50.4375 45.09375 
Q 46.96875 40.921875 40.578125 39.3125 
z
" id="DejaVuSans-51"/>
      </defs>
      <g transform="translate(180.102147 239.238437)scale(0.1 -0.1)">
       <use xlink:href="#DejaVuSans-51"/>
       <use x="63.623047" xlink:href="#DejaVuSans-48"/>
       <use x="127.246094" xlink:href="#DejaVuSans-48"/>
      </g>
     </g>
    </g>
    <g id="xtick_5">
     <g id="line2d_5">
      <g>
       <use style="stroke:#000000;stroke-width:0.8;" x="230.012427" xlink:href="#m987402a7ae" y="224.64"/>
      </g>
     </g>
     <g id="text_5">
      <!-- 400 -->
      <defs>
       <path d="M 37.796875 64.3125 
L 12.890625 25.390625 
L 37.796875 25.390625 
z
M 35.203125 72.90625 
L 47.609375 72.90625 
L 47.609375 25.390625 
L 58.015625 25.390625 
L 58.015625 17.1875 
L 47.609375 17.1875 
L 47.609375 0 
L 37.796875 0 
L 37.796875 17.1875 
L 4.890625 17.1875 
L 4.890625 26.703125 
z
" id="DejaVuSans-52"/>
      </defs>
      <g transform="translate(220.468677 239.238437)scale(0.1 -0.1)">
       <use xlink:href="#DejaVuSans-52"/>
       <use x="63.623047" xlink:href="#DejaVuSans-48"/>
       <use x="127.246094" xlink:href="#DejaVuSans-48"/>
      </g>
     </g>
    </g>
    <g id="xtick_6">
     <g id="line2d_6">
      <g>
       <use style="stroke:#000000;stroke-width:0.8;" x="270.378957" xlink:href="#m987402a7ae" y="224.64"/>
      </g>
     </g>
     <g id="text_6">
      <!-- 500 -->
      <defs>
       <path d="M 10.796875 72.90625 
L 49.515625 72.90625 
L 49.515625 64.59375 
L 19.828125 64.59375 
L 19.828125 46.734375 
Q 21.96875 47.46875 24.109375 47.828125 
Q 26.265625 48.1875 28.421875 48.1875 
Q 40.625 48.1875 47.75 41.5 
Q 54.890625 34.8125 54.890625 23.390625 
Q 54.890625 11.625 47.5625 5.09375 
Q 40.234375 -1.421875 26.90625 -1.421875 
Q 22.3125 -1.421875 17.546875 -0.640625 
Q 12.796875 0.140625 7.71875 1.703125 
L 7.71875 11.625 
Q 12.109375 9.234375 16.796875 8.0625 
Q 21.484375 6.890625 26.703125 6.890625 
Q 35.15625 6.890625 40.078125 11.328125 
Q 45.015625 15.765625 45.015625 23.390625 
Q 45.015625 31 40.078125 35.4375 
Q 35.15625 39.890625 26.703125 39.890625 
Q 22.75 39.890625 18.8125 39.015625 
Q 14.890625 38.140625 10.796875 36.28125 
z
" id="DejaVuSans-53"/>
      </defs>
      <g transform="translate(260.835207 239.238437)scale(0.1 -0.1)">
       <use xlink:href="#DejaVuSans-53"/>
       <use x="63.623047" xlink:href="#DejaVuSans-48"/>
       <use x="127.246094" xlink:href="#DejaVuSans-48"/>
      </g>
     </g>
    </g>
    <g id="xtick_7">
     <g id="line2d_7">
      <g>
       <use style="stroke:#000000;stroke-width:0.8;" x="310.745487" xlink:href="#m987402a7ae" y="224.64"/>
      </g>
     </g>
     <g id="text_7">
      <!-- 600 -->
      <defs>
       <path d="M 33.015625 40.375 
Q 26.375 40.375 22.484375 35.828125 
Q 18.609375 31.296875 18.609375 23.390625 
Q 18.609375 15.53125 22.484375 10.953125 
Q 26.375 6.390625 33.015625 6.390625 
Q 39.65625 6.390625 43.53125 10.953125 
Q 47.40625 15.53125 47.40625 23.390625 
Q 47.40625 31.296875 43.53125 35.828125 
Q 39.65625 40.375 33.015625 40.375 
z
M 52.59375 71.296875 
L 52.59375 62.3125 
Q 48.875 64.0625 45.09375 64.984375 
Q 41.3125 65.921875 37.59375 65.921875 
Q 27.828125 65.921875 22.671875 59.328125 
Q 17.53125 52.734375 16.796875 39.40625 
Q 19.671875 43.65625 24.015625 45.921875 
Q 28.375 48.1875 33.59375 48.1875 
Q 44.578125 48.1875 50.953125 41.515625 
Q 57.328125 34.859375 57.328125 23.390625 
Q 57.328125 12.15625 50.6875 5.359375 
Q 44.046875 -1.421875 33.015625 -1.421875 
Q 20.359375 -1.421875 13.671875 8.265625 
Q 6.984375 17.96875 6.984375 36.375 
Q 6.984375 53.65625 15.1875 63.9375 
Q 23.390625 74.21875 37.203125 74.21875 
Q 40.921875 74.21875 44.703125 73.484375 
Q 48.484375 72.75 52.59375 71.296875 
z
" id="DejaVuSans-54"/>
      </defs>
      <g transform="translate(301.201737 239.238437)scale(0.1 -0.1)">
       <use xlink:href="#DejaVuSans-54"/>
       <use x="63.623047" xlink:href="#DejaVuSans-48"/>
       <use x="127.246094" xlink:href="#DejaVuSans-48"/>
      </g>
     </g>
    </g>
    <g id="xtick_8">
     <g id="line2d_8">
      <g>
       <use style="stroke:#000000;stroke-width:0.8;" x="351.112017" xlink:href="#m987402a7ae" y="224.64"/>
      </g>
     </g>
     <g id="text_8">
      <!-- 700 -->
      <defs>
       <path d="M 8.203125 72.90625 
L 55.078125 72.90625 
L 55.078125 68.703125 
L 28.609375 0 
L 18.3125 0 
L 43.21875 64.59375 
L 8.203125 64.59375 
z
" id="DejaVuSans-55"/>
      </defs>
      <g transform="translate(341.568267 239.238437)scale(0.1 -0.1)">
       <use xlink:href="#DejaVuSans-55"/>
       <use x="63.623047" xlink:href="#DejaVuSans-48"/>
       <use x="127.246094" xlink:href="#DejaVuSans-48"/>
      </g>
     </g>
    </g>
    <g id="text_9">
     <!-- Days since 11/2/2016 -->
     <defs>
      <path d="M 19.671875 64.796875 
L 19.671875 8.109375 
L 31.59375 8.109375 
Q 46.6875 8.109375 53.6875 14.9375 
Q 60.6875 21.78125 60.6875 36.53125 
Q 60.6875 51.171875 53.6875 57.984375 
Q 46.6875 64.796875 31.59375 64.796875 
z
M 9.8125 72.90625 
L 30.078125 72.90625 
Q 51.265625 72.90625 61.171875 64.09375 
Q 71.09375 55.28125 71.09375 36.53125 
Q 71.09375 17.671875 61.125 8.828125 
Q 51.171875 0 30.078125 0 
L 9.8125 0 
z
" id="DejaVuSans-68"/>
      <path d="M 34.28125 27.484375 
Q 23.390625 27.484375 19.1875 25 
Q 14.984375 22.515625 14.984375 16.5 
Q 14.984375 11.71875 18.140625 8.90625 
Q 21.296875 6.109375 26.703125 6.109375 
Q 34.1875 6.109375 38.703125 11.40625 
Q 43.21875 16.703125 43.21875 25.484375 
L 43.21875 27.484375 
z
M 52.203125 31.203125 
L 52.203125 0 
L 43.21875 0 
L 43.21875 8.296875 
Q 40.140625 3.328125 35.546875 0.953125 
Q 30.953125 -1.421875 24.3125 -1.421875 
Q 15.921875 -1.421875 10.953125 3.296875 
Q 6 8.015625 6 15.921875 
Q 6 25.140625 12.171875 29.828125 
Q 18.359375 34.515625 30.609375 34.515625 
L 43.21875 34.515625 
L 43.21875 35.40625 
Q 43.21875 41.609375 39.140625 45 
Q 35.0625 48.390625 27.6875 48.390625 
Q 23 48.390625 18.546875 47.265625 
Q 14.109375 46.140625 10.015625 43.890625 
L 10.015625 52.203125 
Q 14.9375 54.109375 19.578125 55.046875 
Q 24.21875 56 28.609375 56 
Q 40.484375 56 46.34375 49.84375 
Q 52.203125 43.703125 52.203125 31.203125 
z
" id="DejaVuSans-97"/>
      <path d="M 32.171875 -5.078125 
Q 28.375 -14.84375 24.75 -17.8125 
Q 21.140625 -20.796875 15.09375 -20.796875 
L 7.90625 -20.796875 
L 7.90625 -13.28125 
L 13.1875 -13.28125 
Q 16.890625 -13.28125 18.9375 -11.515625 
Q 21 -9.765625 23.484375 -3.21875 
L 25.09375 0.875 
L 2.984375 54.6875 
L 12.5 54.6875 
L 29.59375 11.921875 
L 46.6875 54.6875 
L 56.203125 54.6875 
z
" id="DejaVuSans-121"/>
      <path d="M 44.28125 53.078125 
L 44.28125 44.578125 
Q 40.484375 46.53125 36.375 47.5 
Q 32.28125 48.484375 27.875 48.484375 
Q 21.1875 48.484375 17.84375 46.4375 
Q 14.5 44.390625 14.5 40.28125 
Q 14.5 37.15625 16.890625 35.375 
Q 19.28125 33.59375 26.515625 31.984375 
L 29.59375 31.296875 
Q 39.15625 29.25 43.1875 25.515625 
Q 47.21875 21.78125 47.21875 15.09375 
Q 47.21875 7.46875 41.1875 3.015625 
Q 35.15625 -1.421875 24.609375 -1.421875 
Q 20.21875 -1.421875 15.453125 -0.5625 
Q 10.6875 0.296875 5.421875 2 
L 5.421875 11.28125 
Q 10.40625 8.6875 15.234375 7.390625 
Q 20.0625 6.109375 24.8125 6.109375 
Q 31.15625 6.109375 34.5625 8.28125 
Q 37.984375 10.453125 37.984375 14.40625 
Q 37.984375 18.0625 35.515625 20.015625 
Q 33.0625 21.96875 24.703125 23.78125 
L 21.578125 24.515625 
Q 13.234375 26.265625 9.515625 29.90625 
Q 5.8125 33.546875 5.8125 39.890625 
Q 5.8125 47.609375 11.28125 51.796875 
Q 16.75 56 26.8125 56 
Q 31.78125 56 36.171875 55.265625 
Q 40.578125 54.546875 44.28125 53.078125 
z
" id="DejaVuSans-115"/>
      <path id="DejaVuSans-32"/>
      <path d="M 9.421875 54.6875 
L 18.40625 54.6875 
L 18.40625 0 
L 9.421875 0 
z
M 9.421875 75.984375 
L 18.40625 75.984375 
L 18.40625 64.59375 
L 9.421875 64.59375 
z
" id="DejaVuSans-105"/>
      <path d="M 54.890625 33.015625 
L 54.890625 0 
L 45.90625 0 
L 45.90625 32.71875 
Q 45.90625 40.484375 42.875 44.328125 
Q 39.84375 48.1875 33.796875 48.1875 
Q 26.515625 48.1875 22.3125 43.546875 
Q 18.109375 38.921875 18.109375 30.90625 
L 18.109375 0 
L 9.078125 0 
L 9.078125 54.6875 
L 18.109375 54.6875 
L 18.109375 46.1875 
Q 21.34375 51.125 25.703125 53.5625 
Q 30.078125 56 35.796875 56 
Q 45.21875 56 50.046875 50.171875 
Q 54.890625 44.34375 54.890625 33.015625 
z
" id="DejaVuSans-110"/>
      <path d="M 48.78125 52.59375 
L 48.78125 44.1875 
Q 44.96875 46.296875 41.140625 47.34375 
Q 37.3125 48.390625 33.40625 48.390625 
Q 24.65625 48.390625 19.8125 42.84375 
Q 14.984375 37.3125 14.984375 27.296875 
Q 14.984375 17.28125 19.8125 11.734375 
Q 24.65625 6.203125 33.40625 6.203125 
Q 37.3125 6.203125 41.140625 7.25 
Q 44.96875 8.296875 48.78125 10.40625 
L 48.78125 2.09375 
Q 45.015625 0.34375 40.984375 -0.53125 
Q 36.96875 -1.421875 32.421875 -1.421875 
Q 20.0625 -1.421875 12.78125 6.34375 
Q 5.515625 14.109375 5.515625 27.296875 
Q 5.515625 40.671875 12.859375 48.328125 
Q 20.21875 56 33.015625 56 
Q 37.15625 56 41.109375 55.140625 
Q 45.0625 54.296875 48.78125 52.59375 
z
" id="DejaVuSans-99"/>
      <path d="M 56.203125 29.59375 
L 56.203125 25.203125 
L 14.890625 25.203125 
Q 15.484375 15.921875 20.484375 11.0625 
Q 25.484375 6.203125 34.421875 6.203125 
Q 39.59375 6.203125 44.453125 7.46875 
Q 49.3125 8.734375 54.109375 11.28125 
L 54.109375 2.78125 
Q 49.265625 0.734375 44.1875 -0.34375 
Q 39.109375 -1.421875 33.890625 -1.421875 
Q 20.796875 -1.421875 13.15625 6.1875 
Q 5.515625 13.8125 5.515625 26.8125 
Q 5.515625 40.234375 12.765625 48.109375 
Q 20.015625 56 32.328125 56 
Q 43.359375 56 49.78125 48.890625 
Q 56.203125 41.796875 56.203125 29.59375 
z
M 47.21875 32.234375 
Q 47.125 39.59375 43.09375 43.984375 
Q 39.0625 48.390625 32.421875 48.390625 
Q 24.90625 48.390625 20.390625 44.140625 
Q 15.875 39.890625 15.1875 32.171875 
z
" id="DejaVuSans-101"/>
      <path d="M 25.390625 72.90625 
L 33.6875 72.90625 
L 8.296875 -9.28125 
L 0 -9.28125 
z
" id="DejaVuSans-47"/>
     </defs>
     <g transform="translate(166.446094 252.916562)scale(0.1 -0.1)">
      <use xlink:href="#DejaVuSans-68"/>
      <use x="77.001953" xlink:href="#DejaVuSans-97"/>
      <use x="138.28125" xlink:href="#DejaVuSans-121"/>
      <use x="197.460938" xlink:href="#DejaVuSans-115"/>
      <use x="249.560547" xlink:href="#DejaVuSans-32"/>
      <use x="281.347656" xlink:href="#DejaVuSans-115"/>
      <use x="333.447266" xlink:href="#DejaVuSans-105"/>
      <use x="361.230469" xlink:href="#DejaVuSans-110"/>
      <use x="424.609375" xlink:href="#DejaVuSans-99"/>
      <use x="479.589844" xlink:href="#DejaVuSans-101"/>
      <use x="541.113281" xlink:href="#DejaVuSans-32"/>
      <use x="572.900391" xlink:href="#DejaVuSans-49"/>
      <use x="636.523438" xlink:href="#DejaVuSans-49"/>
      <use x="700.146484" xlink:href="#DejaVuSans-47"/>
      <use x="733.837891" xlink:href="#DejaVuSans-50"/>
      <use x="797.460938" xlink:href="#DejaVuSans-47"/>
      <use x="831.152344" xlink:href="#DejaVuSans-50"/>
      <use x="894.775391" xlink:href="#DejaVuSans-48"/>
      <use x="958.398438" xlink:href="#DejaVuSans-49"/>
      <use x="1022.021484" xlink:href="#DejaVuSans-54"/>
     </g>
    </g>
   </g>
   <g id="matplotlib.axis_2">
    <g id="ytick_1">
     <g id="line2d_9">
      <defs>
       <path d="M 0 0 
L -3.5 0 
" id="mcb075bb22b" style="stroke:#000000;stroke-width:0.8;"/>
      </defs>
      <g>
       <use style="stroke:#000000;stroke-width:0.8;" x="53.328125" xlink:href="#mcb075bb22b" y="191.637194"/>
      </g>
     </g>
     <g id="text_10">
      <!-- 2200 -->
      <g transform="translate(20.878125 195.436413)scale(0.1 -0.1)">
       <use xlink:href="#DejaVuSans-50"/>
       <use x="63.623047" xlink:href="#DejaVuSans-50"/>
       <use x="127.246094" xlink:href="#DejaVuSans-48"/>
       <use x="190.869141" xlink:href="#DejaVuSans-48"/>
      </g>
     </g>
    </g>
    <g id="ytick_2">
     <g id="line2d_10">
      <g>
       <use style="stroke:#000000;stroke-width:0.8;" x="53.328125" xlink:href="#mcb075bb22b" y="151.36691"/>
      </g>
     </g>
     <g id="text_11">
      <!-- 2400 -->
      <g transform="translate(20.878125 155.166129)scale(0.1 -0.1)">
       <use xlink:href="#DejaVuSans-50"/>
       <use x="63.623047" xlink:href="#DejaVuSans-52"/>
       <use x="127.246094" xlink:href="#DejaVuSans-48"/>
       <use x="190.869141" xlink:href="#DejaVuSans-48"/>
      </g>
     </g>
    </g>
    <g id="ytick_3">
     <g id="line2d_11">
      <g>
       <use style="stroke:#000000;stroke-width:0.8;" x="53.328125" xlink:href="#mcb075bb22b" y="111.096627"/>
      </g>
     </g>
     <g id="text_12">
      <!-- 2600 -->
      <g transform="translate(20.878125 114.895846)scale(0.1 -0.1)">
       <use xlink:href="#DejaVuSans-50"/>
       <use x="63.623047" xlink:href="#DejaVuSans-54"/>
       <use x="127.246094" xlink:href="#DejaVuSans-48"/>
       <use x="190.869141" xlink:href="#DejaVuSans-48"/>
      </g>
     </g>
    </g>
    <g id="ytick_4">
     <g id="line2d_12">
      <g>
       <use style="stroke:#000000;stroke-width:0.8;" x="53.328125" xlink:href="#mcb075bb22b" y="70.826343"/>
      </g>
     </g>
     <g id="text_13">
      <!-- 2800 -->
      <defs>
       <path d="M 31.78125 34.625 
Q 24.75 34.625 20.71875 30.859375 
Q 16.703125 27.09375 16.703125 20.515625 
Q 16.703125 13.921875 20.71875 10.15625 
Q 24.75 6.390625 31.78125 6.390625 
Q 38.8125 6.390625 42.859375 10.171875 
Q 46.921875 13.96875 46.921875 20.515625 
Q 46.921875 27.09375 42.890625 30.859375 
Q 38.875 34.625 31.78125 34.625 
z
M 21.921875 38.8125 
Q 15.578125 40.375 12.03125 44.71875 
Q 8.5 49.078125 8.5 55.328125 
Q 8.5 64.0625 14.71875 69.140625 
Q 20.953125 74.21875 31.78125 74.21875 
Q 42.671875 74.21875 48.875 69.140625 
Q 55.078125 64.0625 55.078125 55.328125 
Q 55.078125 49.078125 51.53125 44.71875 
Q 48 40.375 41.703125 38.8125 
Q 48.828125 37.15625 52.796875 32.3125 
Q 56.78125 27.484375 56.78125 20.515625 
Q 56.78125 9.90625 50.3125 4.234375 
Q 43.84375 -1.421875 31.78125 -1.421875 
Q 19.734375 -1.421875 13.25 4.234375 
Q 6.78125 9.90625 6.78125 20.515625 
Q 6.78125 27.484375 10.78125 32.3125 
Q 14.796875 37.15625 21.921875 38.8125 
z
M 18.3125 54.390625 
Q 18.3125 48.734375 21.84375 45.5625 
Q 25.390625 42.390625 31.78125 42.390625 
Q 38.140625 42.390625 41.71875 45.5625 
Q 45.3125 48.734375 45.3125 54.390625 
Q 45.3125 60.0625 41.71875 63.234375 
Q 38.140625 66.40625 31.78125 66.40625 
Q 25.390625 66.40625 21.84375 63.234375 
Q 18.3125 60.0625 18.3125 54.390625 
z
" id="DejaVuSans-56"/>
      </defs>
      <g transform="translate(20.878125 74.625562)scale(0.1 -0.1)">
       <use xlink:href="#DejaVuSans-50"/>
       <use x="63.623047" xlink:href="#DejaVuSans-56"/>
       <use x="127.246094" xlink:href="#DejaVuSans-48"/>
       <use x="190.869141" xlink:href="#DejaVuSans-48"/>
      </g>
     </g>
    </g>
    <g id="ytick_5">
     <g id="line2d_13">
      <g>
       <use style="stroke:#000000;stroke-width:0.8;" x="53.328125" xlink:href="#mcb075bb22b" y="30.55606"/>
      </g>
     </g>
     <g id="text_14">
      <!-- 3000 -->
      <g transform="translate(20.878125 34.355278)scale(0.1 -0.1)">
       <use xlink:href="#DejaVuSans-51"/>
       <use x="63.623047" xlink:href="#DejaVuSans-48"/>
       <use x="127.246094" xlink:href="#DejaVuSans-48"/>
       <use x="190.869141" xlink:href="#DejaVuSans-48"/>
      </g>
     </g>
    </g>
    <g id="text_15">
     <!-- S&amp;P 500 -->
     <defs>
      <path d="M 53.515625 70.515625 
L 53.515625 60.890625 
Q 47.90625 63.578125 42.921875 64.890625 
Q 37.9375 66.21875 33.296875 66.21875 
Q 25.25 66.21875 20.875 63.09375 
Q 16.5 59.96875 16.5 54.203125 
Q 16.5 49.359375 19.40625 46.890625 
Q 22.3125 44.4375 30.421875 42.921875 
L 36.375 41.703125 
Q 47.40625 39.59375 52.65625 34.296875 
Q 57.90625 29 57.90625 20.125 
Q 57.90625 9.515625 50.796875 4.046875 
Q 43.703125 -1.421875 29.984375 -1.421875 
Q 24.8125 -1.421875 18.96875 -0.25 
Q 13.140625 0.921875 6.890625 3.21875 
L 6.890625 13.375 
Q 12.890625 10.015625 18.65625 8.296875 
Q 24.421875 6.59375 29.984375 6.59375 
Q 38.421875 6.59375 43.015625 9.90625 
Q 47.609375 13.234375 47.609375 19.390625 
Q 47.609375 24.75 44.3125 27.78125 
Q 41.015625 30.8125 33.5 32.328125 
L 27.484375 33.5 
Q 16.453125 35.6875 11.515625 40.375 
Q 6.59375 45.0625 6.59375 53.421875 
Q 6.59375 63.09375 13.40625 68.65625 
Q 20.21875 74.21875 32.171875 74.21875 
Q 37.3125 74.21875 42.625 73.28125 
Q 47.953125 72.359375 53.515625 70.515625 
z
" id="DejaVuSans-83"/>
      <path d="M 24.3125 39.203125 
Q 19.875 35.25 17.796875 31.3125 
Q 15.71875 27.390625 15.71875 23.09375 
Q 15.71875 15.96875 20.890625 11.234375 
Q 26.078125 6.5 33.890625 6.5 
Q 38.53125 6.5 42.578125 8.03125 
Q 46.625 9.578125 50.203125 12.703125 
z
M 31.203125 44.671875 
L 56 19.28125 
Q 58.890625 23.640625 60.5 28.59375 
Q 62.109375 33.546875 62.40625 39.109375 
L 71.484375 39.109375 
Q 70.90625 32.671875 68.359375 26.359375 
Q 65.828125 20.0625 61.28125 13.921875 
L 74.90625 0 
L 62.59375 0 
L 55.609375 7.171875 
Q 50.53125 2.828125 44.96875 0.703125 
Q 39.40625 -1.421875 33.015625 -1.421875 
Q 21.234375 -1.421875 13.765625 5.296875 
Q 6.296875 12.015625 6.296875 22.515625 
Q 6.296875 28.765625 9.5625 34.25 
Q 12.84375 39.75 19.390625 44.578125 
Q 17.046875 47.65625 15.8125 50.703125 
Q 14.59375 53.765625 14.59375 56.6875 
Q 14.59375 64.59375 20.015625 69.40625 
Q 25.4375 74.21875 34.421875 74.21875 
Q 38.484375 74.21875 42.5 73.34375 
Q 46.53125 72.46875 50.6875 70.703125 
L 50.6875 61.8125 
Q 46.4375 64.109375 42.578125 65.296875 
Q 38.71875 66.5 35.40625 66.5 
Q 30.28125 66.5 27.078125 63.78125 
Q 23.875 61.078125 23.875 56.78125 
Q 23.875 54.296875 25.3125 51.78125 
Q 26.765625 49.265625 31.203125 44.671875 
z
" id="DejaVuSans-38"/>
      <path d="M 19.671875 64.796875 
L 19.671875 37.40625 
L 32.078125 37.40625 
Q 38.96875 37.40625 42.71875 40.96875 
Q 46.484375 44.53125 46.484375 51.125 
Q 46.484375 57.671875 42.71875 61.234375 
Q 38.96875 64.796875 32.078125 64.796875 
z
M 9.8125 72.90625 
L 32.078125 72.90625 
Q 44.34375 72.90625 50.609375 67.359375 
Q 56.890625 61.8125 56.890625 51.125 
Q 56.890625 40.328125 50.609375 34.8125 
Q 44.34375 29.296875 32.078125 29.296875 
L 19.671875 29.296875 
L 19.671875 0 
L 9.8125 0 
z
" id="DejaVuSans-80"/>
     </defs>
     <g transform="translate(14.798438 137.141094)rotate(-90)scale(0.1 -0.1)">
      <use xlink:href="#DejaVuSans-83"/>
      <use x="63.476562" xlink:href="#DejaVuSans-38"/>
      <use x="141.455078" xlink:href="#DejaVuSans-80"/>
      <use x="201.757812" xlink:href="#DejaVuSans-32"/>
      <use x="233.544922" xlink:href="#DejaVuSans-53"/>
      <use x="297.167969" xlink:href="#DejaVuSans-48"/>
      <use x="360.791016" xlink:href="#DejaVuSans-48"/>
     </g>
    </g>
   </g>
   <g id="line2d_14">
    <path clip-path="url(#pe24f35dce6)" d="M 68.546307 212.18712 
L 68.949972 214.055661 
L 69.353637 214.756364 
L 69.757303 205.425739 
L 70.160968 203.806874 
L 70.564633 199.034845 
L 70.968299 198.185142 
L 71.371964 198.795237 
L 71.775629 198.845575 
L 72.179295 195.585695 
L 72.58296 196.280358 
L 72.986625 194.2306 
L 73.39029 195.281655 
L 73.793956 192.003653 
L 74.197621 191.045221 
L 74.601286 190.686815 
L 75.004952 188.949152 
L 75.408617 191.290869 
L 75.812282 190.698896 
L 76.215948 191.876802 
L 76.619613 193.433249 
L 77.023278 193.258073 
L 77.426943 190.688829 
L 77.830609 189.174666 
L 78.234274 183.311313 
L 78.637939 182.336772 
L 79.041605 179.650744 
L 79.44527 180.168217 
L 79.848935 177.19627 
L 80.252601 180.90919 
L 80.656266 179.147365 
L 81.059931 179.944717 
L 81.463596 179.04669 
L 81.867262 177.389568 
L 82.674592 179.362811 
L 83.078258 178.792987 
L 83.481923 177.768108 
L 83.885588 181.585731 
L 84.289254 181.718623 
L 84.692919 183.818718 
L 85.096584 179.993041 
L 85.500249 177.391581 
L 85.903915 177.743946 
L 86.30758 176.137162 
L 86.711245 177.764081 
L 87.114911 177.764081 
L 87.518576 176.471405 
L 87.922241 177.454 
L 88.325907 176.608324 
L 88.729572 177.967446 
L 89.133237 177.16204 
L 89.536902 178.813122 
L 89.940568 177.278824 
L 90.344233 178.509081 
L 91.151564 171.830255 
L 91.958894 172.571228 
L 92.36256 175.347864 
L 92.766225 175.756608 
L 93.16989 175.619689 
L 93.573555 175.357932 
L 93.977221 172.021539 
L 94.380886 173.000107 
L 94.784551 172.895404 
L 95.188217 172.575255 
L 95.591882 169.917416 
L 95.995547 168.260294 
L 97.206543 161.585495 
L 97.610208 161.994238 
L 98.013874 161.200914 
L 98.417539 158.337696 
L 98.821204 158.853156 
L 99.22487 158.653818 
L 99.628535 157.943048 
L 100.0322 157.457791 
L 100.435866 158.688048 
L 100.839531 152.18037 
L 101.243196 155.007344 
L 101.646861 154.765722 
L 102.454192 157.731629 
L 102.857857 158.82094 
L 103.261523 158.440386 
L 103.665188 156.883939 
L 104.068853 156.708763 
L 104.472519 158.323602 
L 104.876184 154.33483 
L 106.08718 156.708763 
L 106.490845 162.638563 
L 106.89451 161.746576 
L 108.105506 163.127847 
L 108.509172 159.7089 
L 108.912837 159.19344 
L 109.316502 157.798075 
L 110.123833 159.654535 
L 110.527498 159.388751 
L 110.931163 160.840495 
L 111.334829 159.926359 
L 111.738494 160.318994 
L 112.142159 159.992805 
L 112.545825 160.673373 
L 112.94949 162.455333 
L 113.353155 165.672929 
L 113.75682 161.633819 
L 114.160486 163.007036 
L 114.564151 163.816468 
L 114.967816 160.258589 
L 115.371482 161.698252 
L 115.775147 156.571844 
L 116.178812 153.660303 
L 116.582478 153.893871 
L 116.986143 153.628087 
L 117.389808 154.548263 
L 117.793473 153.716681 
L 118.197139 153.144843 
L 118.600804 153.756952 
L 119.004469 153.477073 
L 119.408135 151.50987 
L 119.8118 151.491748 
L 120.215465 151.987073 
L 120.619131 151.44141 
L 121.022796 152.486424 
L 121.426461 153.199208 
L 121.830126 150.899775 
L 122.233792 151.232005 
L 122.637457 160.018981 
L 123.041122 158.269237 
L 123.848453 152.570992 
L 124.252118 151.685046 
L 124.655784 150.482978 
L 125.059449 148.332544 
L 125.463114 148.181531 
L 125.866779 148.767464 
L 126.270445 148.990964 
L 126.67411 145.314287 
L 127.077775 143.50011 
L 127.481441 144.098124 
L 127.885106 145.461273 
L 128.288771 144.694124 
L 128.692437 144.563246 
L 129.499767 145.449192 
L 129.903432 143.242381 
L 130.307098 143.731665 
L 130.710763 144.831043 
L 131.114428 144.692111 
L 131.518094 140.602664 
L 131.921759 143.910867 
L 132.72909 144.420286 
L 133.132755 143.655151 
L 133.53642 143.50011 
L 133.940085 147.46472 
L 134.343751 143.173921 
L 134.747416 147.400287 
L 135.151081 146.653274 
L 135.554747 145.525706 
L 135.958412 144.814935 
L 136.362077 149.403734 
L 136.765743 146.296882 
L 137.169408 145.843841 
L 137.573073 146.226409 
L 137.976738 142.658462 
L 138.380404 141.736272 
L 138.784069 139.432812 
L 139.187734 139.458987 
L 139.5914 139.163001 
L 139.995065 136.501135 
L 140.802396 136.760878 
L 141.206061 137.290433 
L 141.609726 135.836675 
L 142.013391 135.695729 
L 142.417057 136.180986 
L 142.820722 136.849473 
L 143.224387 137.211906 
L 143.628053 135.99373 
L 144.031718 135.748081 
L 144.435383 136.837392 
L 145.242714 135.075567 
L 145.646379 136.281662 
L 146.050044 136.462878 
L 146.45371 143.673273 
L 146.857375 143.04707 
L 147.26104 138.109933 
L 147.664706 138.357595 
L 148.068371 137.652865 
L 148.472036 145.324354 
L 148.875702 146.222382 
L 149.279367 145.654571 
L 149.683032 140.793947 
L 150.086697 142.499394 
L 150.490363 143.520246 
L 150.894028 142.698732 
L 151.297693 142.459124 
L 151.701359 142.04434 
L 152.508689 136.940081 
L 152.912355 135.953459 
L 153.31602 139.718731 
L 153.719685 138.170338 
L 154.12335 138.258933 
L 154.527016 138.997893 
L 154.930681 133.625837 
L 155.334346 131.940526 
L 155.738012 131.559971 
L 156.141677 132.113688 
L 156.949008 130.452539 
L 157.352673 129.892782 
L 157.756338 129.572633 
L 158.160003 131.110958 
L 158.563669 130.784768 
L 158.967334 131.904282 
L 159.370999 131.868039 
L 159.774665 129.814255 
L 160.17833 129.206173 
L 160.985661 125.368415 
L 161.389326 124.269037 
L 161.792991 123.632766 
L 162.196656 120.7474 
L 162.600322 121.299103 
L 163.003987 122.22532 
L 163.811318 120.109116 
L 164.214983 120.976941 
L 164.618648 120.525914 
L 165.022314 119.625873 
L 166.233309 118.727846 
L 166.636975 116.088128 
L 167.04064 118.147953 
L 167.444305 117.312345 
L 167.847971 119.724535 
L 168.251636 119.070143 
L 168.655301 114.908209 
L 169.058967 116.567345 
L 169.462632 116.078061 
L 169.866297 115.25252 
L 170.269962 115.153858 
L 170.673628 113.54506 
L 171.077293 112.882614 
L 171.480958 112.981276 
L 171.884624 112.228222 
L 172.288289 114.193412 
L 172.691954 114.660547 
L 173.09562 114.149114 
L 173.499285 115.351182 
L 173.90295 118.22044 
L 174.306615 113.988033 
L 174.710281 115.355209 
L 175.113946 114.692763 
L 175.517611 111.291938 
L 175.921277 111.684573 
L 176.324942 110.609356 
L 176.728607 110.810708 
L 177.132273 105.652084 
L 177.535938 105.847395 
L 177.939603 101.516326 
L 178.343268 102.59557 
L 178.746934 103.155327 
L 179.150599 105.142665 
L 179.554264 105.203071 
L 179.95793 103.650651 
L 180.361595 100.727029 
L 180.76526 99.017555 
L 181.168926 98.187987 
L 181.572591 98.44169 
L 181.976256 100.62434 
L 182.379921 95.832176 
L 182.783587 92.942783 
L 183.187252 94.692527 
L 183.590917 95.139527 
L 183.994583 94.068337 
L 184.398248 94.316 
L 184.801913 94.887838 
L 185.205579 94.460973 
L 185.609244 93.470324 
L 186.012909 96.275149 
L 186.82024 88.331836 
L 187.223905 86.131065 
L 187.62757 82.273171 
L 188.434901 80.634171 
L 188.838566 81.250306 
L 189.645897 73.596939 
L 190.049562 75.57421 
L 190.453227 70.310884 
L 190.856893 71.223006 
L 191.260558 68.752424 
L 191.664223 64.187787 
L 192.067889 62.947462 
L 192.471554 63.267611 
L 192.875219 62.9233 
L 193.278885 56.153865 
L 193.68255 60.048002 
L 194.086215 66.310031 
L 194.48988 66.032166 
L 194.893546 66.400639 
L 195.297211 78.451521 
L 195.700876 101.242488 
L 196.104542 91.940053 
L 196.508207 94.65427 
L 196.911872 114.922304 
L 197.719203 99.820947 
L 198.122868 98.423569 
L 198.930199 84.679321 
L 199.333864 84.473942 
L 200.141195 90.693688 
L 200.54486 90.164133 
L 201.352191 74.933912 
L 202.563186 95.457662 
L 202.966852 92.72331 
L 203.370517 86.745186 
L 203.774182 85.299483 
L 204.177848 85.565267 
L 204.581513 83.11482 
L 204.985178 73.530493 
L 205.388844 74.24529 
L 206.196174 80.998617 
L 206.599839 81.431522 
L 207.003505 80.489198 
L 207.40717 88.360025 
L 207.810835 87.550592 
L 208.214501 88.559363 
L 209.021831 113.460492 
L 209.425497 99.307501 
L 209.829162 108.555572 
L 210.232827 110.08987 
L 210.636492 102.867394 
L 211.040158 114.745114 
L 211.847488 102.098232 
L 212.251154 98.443704 
L 212.654819 110.196586 
L 213.058484 108.446842 
L 213.46215 99.645772 
L 213.865815 102.60161 
L 214.26948 98.21215 
L 214.673145 99.760542 
L 215.076811 95.423432 
L 215.480476 89.674849 
L 215.884141 89.221809 
L 216.287807 92.344769 
L 216.691472 96.973838 
L 217.095137 96.943636 
L 217.498803 104.137922 
L 217.902468 103.163381 
L 218.306133 97.618163 
L 218.709798 97.020149 
L 219.113464 101.421691 
L 219.517129 100.062569 
L 219.920794 103.914422 
L 220.32446 105.110449 
L 220.728125 98.32692 
L 221.13179 96.472473 
L 221.535456 96.615433 
L 222.342786 86.316308 
L 222.746452 85.380024 
L 223.150117 84.894767 
L 223.553782 88.656011 
L 223.957447 86.439132 
L 224.361113 86.908281 
L 224.764778 88.349957 
L 225.168443 84.314875 
L 225.572109 86.040456 
L 225.975774 84.258496 
L 226.783105 86.666659 
L 227.18677 93.003188 
L 227.590435 86.127037 
L 227.9941 89.900363 
L 228.397766 83.990699 
L 228.801431 81.524144 
L 229.205096 81.135536 
L 229.608762 76.39371 
L 230.012427 76.792386 
L 230.416092 75.048682 
L 230.819758 74.450669 
L 231.223423 73.474114 
L 231.627088 75.733277 
L 232.030753 74.352007 
L 232.434419 74.921831 
L 232.838084 76.111818 
L 233.241749 78.3589 
L 233.645415 77.406508 
L 234.04908 80.942238 
L 234.452745 79.911319 
L 234.856411 87.524416 
L 235.260076 86.318321 
L 235.663741 91.035985 
L 236.067406 87.677443 
L 236.471072 87.262659 
L 236.874737 85.583389 
L 237.278402 88.299619 
L 238.489398 74.013736 
L 238.893064 72.066668 
L 239.296729 76.057453 
L 239.700394 71.170654 
L 240.104059 70.562573 
L 240.507725 71.142465 
L 240.91139 68.903437 
L 241.315055 67.681234 
L 241.718721 69.922275 
L 242.122386 70.45787 
L 242.526051 69.42091 
L 242.929717 66.718774 
L 243.333382 61.550083 
L 243.737047 63.287746 
L 244.544378 70.30283 
L 244.948043 67.546329 
L 245.351708 68.136288 
L 246.159039 62.701814 
L 246.96637 59.057353 
L 247.370035 59.208366 
L 247.7737 60.037934 
L 248.177365 64.125368 
L 248.581031 66.410707 
L 248.984696 62.780341 
L 249.388361 67.127518 
L 249.792027 62.633354 
L 250.599357 59.339245 
L 251.003023 58.149258 
L 251.406688 58.378799 
L 251.810353 59.353339 
L 252.617684 51.347607 
L 253.021349 51.190553 
L 253.425014 47.864228 
L 253.82868 50.463674 
L 254.232345 50.385147 
L 254.63601 51.351634 
L 255.039676 52.986608 
L 255.443341 55.110865 
L 255.847006 56.393474 
L 256.250671 55.296108 
L 256.654337 53.129567 
L 257.058002 52.922175 
L 257.461667 49.849553 
L 257.865333 49.688471 
L 258.268998 52.946337 
L 258.672663 49.823377 
L 259.076329 49.090458 
L 259.479994 44.499645 
L 259.883659 44.717105 
L 260.287324 46.791025 
L 260.69099 47.558173 
L 261.094655 49.489134 
L 261.49832 47.872282 
L 261.901986 47.876309 
L 262.305651 45.73997 
L 262.709316 45.973538 
L 263.112982 45.554727 
L 263.516647 50.367026 
L 263.920312 53.596702 
L 264.323977 53.826243 
L 264.727643 54.64977 
L 265.131308 73.709696 
L 265.534973 85.249145 
L 265.938639 77.444764 
L 266.342304 80.734847 
L 266.745969 68.828937 
L 267.149635 68.971897 
L 267.5533 77.112535 
L 267.956965 77.313886 
L 268.764296 82.768496 
L 269.167961 99.800812 
L 269.571626 89.839958 
L 269.975292 99.279312 
L 270.378957 102.790881 
L 270.782622 94.458959 
L 271.589953 82.832928 
L 271.993618 86.318321 
L 272.800949 79.796549 
L 273.204614 68.029572 
L 273.608279 69.451113 
L 274.011945 74.650007 
L 274.41561 85.682051 
L 274.819275 86.495511 
L 275.222941 90.64335 
L 275.626606 84.880672 
L 276.030271 83.658469 
L 276.837602 102.662016 
L 277.241267 101.043151 
L 277.644932 104.540625 
L 278.048598 96.307365 
L 278.452263 94.551581 
L 278.855928 82.144306 
L 279.259594 83.358455 
L 279.663259 78.84617 
L 280.066924 72.765357 
L 280.470589 90.949404 
L 280.874255 91.776958 
L 281.27792 104.435922 
L 281.681585 103.501651 
L 282.085251 103.690922 
L 282.488916 100.81361 
L 282.892581 100.920326 
L 283.699912 121.981684 
L 284.103577 121.937387 
L 284.910908 137.791798 
L 285.314573 148.02045 
L 285.718238 161.212995 
L 286.121904 137.735419 
L 286.525569 133.480864 
L 286.929234 134.10304 
L 287.3329 129.852511 
L 287.736565 129.212214 
L 288.14023 141.724191 
L 288.543895 124.800604 
L 288.947561 121.226617 
L 289.351226 116.24921 
L 290.158557 111.773168 
L 290.562222 111.849681 
L 290.965887 114.598128 
L 291.369553 109.022707 
L 291.773218 107.854869 
L 292.176883 103.85603 
L 292.580548 96.859068 
L 292.984214 104.472165 
L 293.387879 103.304327 
L 293.791544 102.573421 
L 294.19521 98.057109 
L 294.598875 102.267367 
L 295.00254 103.04257 
L 295.406206 94.777094 
L 295.809871 90.135944 
L 296.213536 89.64666 
L 296.617201 85.953875 
L 297.020867 83.370537 
L 297.424532 84.596767 
L 297.828197 89.743309 
L 298.635528 88.988241 
L 299.039193 81.955036 
L 299.442859 80.283819 
L 299.846524 81.753685 
L 300.250189 75.739318 
L 301.05752 73.90702 
L 301.461185 75.884291 
L 301.86485 72.302249 
L 302.268516 71.6096 
L 303.075846 72.360641 
L 303.479512 73.949304 
L 303.883177 70.083357 
L 304.286842 72.27406 
L 304.690507 72.91033 
L 305.497838 81.10936 
L 305.901503 82.289279 
L 306.305169 74.188912 
L 306.708834 72.533803 
L 307.112499 68.627586 
L 307.516165 69.118883 
L 308.323495 64.193828 
L 308.72716 64.268328 
L 309.130826 65.947598 
L 309.534491 59.776177 
L 309.938156 70.683384 
L 310.341822 71.15656 
L 310.745487 67.109396 
L 311.149152 69.745086 
L 311.552818 67.717477 
L 311.956483 63.899854 
L 312.360148 57.297542 
L 312.763813 57.287474 
L 313.571144 54.841054 
L 313.974809 52.153013 
L 314.378475 51.542918 
L 314.78214 55.080662 
L 315.185805 53.065135 
L 315.589471 53.042986 
L 315.993136 49.199187 
L 316.396801 49.567661 
L 316.800466 49.26966 
L 317.204132 50.600593 
L 317.607797 49.678404 
L 318.011462 49.086431 
L 318.415128 43.909686 
L 318.818793 45.204375 
L 319.222458 45.421835 
L 319.626124 42.661307 
L 320.433454 41.463266 
L 320.837119 45.913132 
L 321.240785 47.163525 
L 321.64445 41.501523 
L 322.048115 44.153321 
L 322.451781 53.902757 
L 322.855446 54.835014 
L 323.259111 56.586771 
L 323.662777 54.436338 
L 324.066442 68.436302 
L 325.277438 55.459203 
L 326.084768 62.725976 
L 326.488434 57.867366 
L 326.892099 59.496299 
L 327.295764 66.348288 
L 327.69943 65.579125 
L 328.50676 74.24529 
L 328.910425 73.069398 
L 329.314091 80.47913 
L 329.717756 82.011415 
L 330.121421 70.167924 
L 331.332417 56.05923 
L 331.736083 53.363135 
L 332.139748 53.5665 
L 332.543413 54.750446 
L 332.947078 52.374499 
L 333.350744 53.312797 
L 333.754409 52.771162 
L 334.158074 47.117214 
L 334.56174 45.363443 
L 334.965405 39.781982 
L 335.36907 40.531009 
L 335.772736 41.559915 
L 336.176401 47.191714 
L 336.580066 47.916579 
L 336.983731 45.673524 
L 337.387397 42.282766 
L 337.791062 37.738265 
L 338.194727 35.990534 
L 338.598393 31.397709 
L 339.002058 32.48702 
L 339.405723 35.398561 
L 339.809389 34.657588 
L 340.213054 31.951425 
L 340.616719 30.574181 
L 341.020384 27.783451 
L 341.42405 27.676734 
L 341.827715 29.7426 
L 342.23138 33.693115 
L 342.635046 31.540668 
L 343.038711 35.265669 
L 343.442376 33.57029 
L 343.846042 29.454667 
L 344.249707 26.617626 
L 344.653372 29.8171 
L 345.057037 25.349112 
L 345.460703 26.33372 
L 345.864368 27.902248 
L 346.671699 39.90682 
L 347.075364 44.237889 
L 347.479029 61.817881 
L 347.882695 54.361838 
L 348.28636 53.916851 
L 348.690025 43.021726 
L 349.09369 46.935998 
L 349.497356 53.963162 
L 349.901021 45.391632 
L 350.304686 62.651476 
L 350.708352 61.242016 
L 351.515682 45.92924 
L 351.919348 50.588512 
L 352.323013 45.772186 
L 352.726678 46.070186 
L 353.130343 61.340678 
L 353.534009 55.044419 
L 353.937674 56.900879 
L 354.341339 53.1195 
L 354.745005 45.741984 
L 355.14867 45.363443 
L 355.552335 49.428728 
L 356.359666 35.388494 
L 356.763331 34.842831 
L 357.166996 34.89921 
L 357.570662 34.705912 
L 357.974327 30.368803 
L 358.377992 28.629127 
L 358.781658 29.068073 
L 359.185323 30.966817 
L 359.588988 29.408357 
L 359.992654 29.200965 
L 360.396319 29.188884 
L 360.799984 32.152776 
L 361.203649 32.211168 
L 361.607315 37.281197 
L 362.01098 33.602507 
L 362.414645 35.062304 
L 362.818311 38.249697 
L 363.221976 35.239494 
L 363.625641 42.586807 
L 364.029307 53.185946 
L 364.432972 48.550836 
L 364.836637 40.218914 
L 365.240302 42.88078 
L 365.643968 52.08858 
L 366.047633 46.784984 
L 366.451298 43.013672 
L 366.854964 36.542237 
L 367.258629 37.371805 
L 367.662294 31.425898 
L 368.06596 32.631993 
L 368.469625 30.96883 
L 368.87329 33.334709 
L 369.276955 29.202978 
L 369.680621 31.363479 
L 370.084286 29.645951 
L 370.487951 28.484154 
L 370.891617 26.015585 
L 371.295282 22.618787 
L 371.698947 23.128206 
L 372.102613 21.138854 
L 372.506278 22.9933 
L 372.909943 17.083636 
L 372.909943 17.083636 
" style="fill:none;stroke:#1f77b4;stroke-linecap:square;stroke-width:1.5;"/>
   </g>
   <g id="patch_3">
    <path d="M 53.328125 224.64 
L 53.328125 7.2 
" style="fill:none;stroke:#000000;stroke-linecap:square;stroke-linejoin:miter;stroke-width:0.8;"/>
   </g>
   <g id="patch_4">
    <path d="M 388.128125 224.64 
L 388.128125 7.2 
" style="fill:none;stroke:#000000;stroke-linecap:square;stroke-linejoin:miter;stroke-width:0.8;"/>
   </g>
   <g id="patch_5">
    <path d="M 53.328125 224.64 
L 388.128125 224.64 
" style="fill:none;stroke:#000000;stroke-linecap:square;stroke-linejoin:miter;stroke-width:0.8;"/>
   </g>
   <g id="patch_6">
    <path d="M 53.328125 7.2 
L 388.128125 7.2 
" style="fill:none;stroke:#000000;stroke-linecap:square;stroke-linejoin:miter;stroke-width:0.8;"/>
   </g>
  </g>
 </g>
 <defs>
  <clipPath id="pe24f35dce6">
   <rect height="217.44" width="334.8" x="53.328125" y="7.2"/>
  </clipPath>
 </defs>
</svg>
