<?xml version="1.0" encoding="utf-8" standalone="no"?>
<!DOCTYPE svg PUBLIC "-//W3C//DTD SVG 1.1//EN"
  "http://www.w3.org/Graphics/SVG/1.1/DTD/svg11.dtd">
<!-- Created with matplotlib (https://matplotlib.org/) -->
<svg height="280.15625pt" version="1.1" viewBox="0 0 424.8 280.15625" width="424.8pt" xmlns="http://www.w3.org/2000/svg" xmlns:xlink="http://www.w3.org/1999/xlink">
 <defs>
  <style type="text/css">
*{stroke-linecap:butt;stroke-linejoin:round;}
  </style>
 </defs>
 <g id="figure_1">
  <g id="patch_1">
   <path d="M 0 280.15625 
L 424.8 280.15625 
L 424.8 0 
L 0 0 
z
" style="fill:none;"/>
  </g>
  <g id="axes_1">
   <g id="patch_2">
    <path d="M 7.2 104 
L 417.6 104 
L 417.6 7.2 
L 7.2 7.2 
z
" style="fill:#ffffff;"/>
   </g>
   <g id="patch_3">
    <path clip-path="url(#pe28d41f38c)" d="M 25.854545 99.6 
L 26.464136 99.599633 
L 27.073726 99.59957 
L 27.683316 99.599496 
L 28.292907 99.599412 
L 28.902497 99.599315 
L 29.512087 99.599205 
L 30.121678 99.59908 
L 30.731268 99.598938 
L 31.340858 99.598778 
L 31.950449 99.598599 
L 32.560039 99.598397 
L 33.169629 99.598172 
L 33.77922 99.597921 
L 34.38881 99.597643 
L 34.9984 99.597335 
L 35.607991 99.596629 
L 36.217581 99.596193 
L 36.827171 99.594979 
L 37.436761 99.593956 
L 38.046352 99.592799 
L 38.655942 99.59186 
L 39.265532 99.59082 
L 39.875123 99.589305 
L 40.484713 99.58761 
L 41.094303 99.586084 
L 41.703894 99.584404 
L 42.313484 99.58256 
L 42.923074 99.579808 
L 43.532665 99.577477 
L 44.142255 99.574929 
L 44.751845 99.572154 
L 45.361436 99.569137 
L 45.971026 99.5655 
L 46.580616 99.561533 
L 47.190207 99.557581 
L 47.799797 99.55332 
L 48.409387 99.548371 
L 49.018978 99.543026 
L 49.628568 99.537263 
L 50.238158 99.531064 
L 50.847748 99.524042 
L 51.457339 99.516848 
L 52.066929 99.509517 
L 52.676519 99.500995 
L 53.28611 99.492245 
L 53.8957 99.482573 
L 54.50529 99.472631 
L 55.114881 99.462094 
L 55.724471 99.45058 
L 56.334061 99.439111 
L 56.943652 99.426696 
L 57.553242 99.413268 
L 58.162832 99.398389 
L 58.772423 99.382649 
L 59.382013 99.36638 
L 60.601194 99.349242 
L 61.210879 99.331575 
L 61.820469 99.312312 
L 62.430155 99.291673 
L 63.039745 99.271385 
L 63.649431 99.249085 
L 64.259021 99.225299 
L 64.868707 99.200649 
L 65.478297 99.174406 
L 66.087983 99.147553 
L 66.697573 99.118685 
L 67.307164 99.089822 
L 67.916849 99.058214 
L 68.52644 99.026496 
L 69.136125 98.99155 
L 69.745715 98.956676 
L 70.355401 98.919904 
L 70.964991 98.88039 
L 71.574677 98.838988 
L 72.184267 98.795615 
L 72.793953 98.750553 
L 73.403543 98.702318 
L 74.013134 98.651741 
L 74.622819 98.59909 
L 75.23241 98.545426 
L 75.842095 98.487615 
L 76.451685 98.426753 
L 77.061371 98.363419 
L 77.670961 98.296847 
L 78.280647 98.227622 
L 78.890237 98.154986 
L 79.499923 98.079901 
L 80.109513 98.000584 
L 80.719104 97.918991 
L 81.328789 97.833042 
L 81.93838 97.742508 
L 82.548065 97.650807 
L 83.157656 97.554643 
L 83.767341 97.453451 
L 84.376931 97.349884 
L 84.986617 97.238645 
L 85.596207 97.126352 
L 86.205893 97.01017 
L 86.815483 96.889706 
L 87.425074 96.764506 
L 88.034759 96.63588 
L 88.64435 96.502445 
L 89.254035 96.362947 
L 89.863626 96.217756 
L 90.473311 96.072817 
L 91.082901 95.923765 
L 91.692587 95.76986 
L 92.302177 95.611337 
L 92.911863 95.447749 
L 93.521453 95.277843 
L 94.131044 95.101259 
L 94.740729 94.922351 
L 95.35032 94.738502 
L 95.960005 94.546337 
L 96.569596 94.349292 
L 97.179281 94.146232 
L 97.788872 93.938409 
L 98.398557 93.72365 
L 99.008147 93.504921 
L 99.617833 93.279869 
L 100.227423 93.045384 
L 100.837014 92.802239 
L 101.446699 92.552116 
L 102.05629 92.298497 
L 102.665975 92.036345 
L 103.275566 91.764896 
L 103.885251 91.482929 
L 104.494842 91.19816 
L 105.104527 90.904372 
L 105.714117 90.603391 
L 106.323803 90.29008 
L 106.933393 89.972485 
L 107.542984 89.64287 
L 108.152669 89.303158 
L 108.76226 88.955903 
L 109.371945 88.599389 
L 109.981536 88.228817 
L 110.591221 87.85214 
L 111.200812 87.463653 
L 111.810497 87.065365 
L 112.420088 86.654673 
L 113.029678 86.237455 
L 113.639363 85.806596 
L 114.248954 85.366583 
L 114.858639 84.914241 
L 115.46823 84.45027 
L 116.077915 83.978574 
L 116.687506 83.494225 
L 117.297191 82.996824 
L 117.906782 82.493271 
L 118.516467 81.981493 
L 119.126058 81.455026 
L 119.735648 80.918681 
L 120.345333 80.370134 
L 120.954924 79.812631 
L 121.564609 79.247244 
L 122.1742 78.668639 
L 122.783885 78.08013 
L 123.393476 77.481579 
L 124.003161 76.867737 
L 124.612752 76.25136 
L 125.222437 75.622628 
L 125.832028 74.980581 
L 126.441618 74.33233 
L 127.051304 73.674077 
L 127.660894 73.009464 
L 128.270579 72.336317 
L 128.88017 71.654218 
L 129.489855 70.964085 
L 130.099446 70.265732 
L 130.709131 69.562817 
L 131.318722 68.852616 
L 131.928407 68.134288 
L 132.537998 67.409439 
L 133.147588 66.681258 
L 133.757274 65.946833 
L 134.366864 65.204197 
L 134.976549 64.459715 
L 135.58614 63.705167 
L 136.195825 62.950495 
L 136.805416 62.189023 
L 137.415101 61.423419 
L 138.024692 60.65098 
L 138.634377 59.874579 
L 139.243968 59.099284 
L 139.853558 58.31608 
L 140.463244 57.530653 
L 141.072834 56.739459 
L 141.68252 55.945827 
L 142.29211 55.148486 
L 142.901795 54.347272 
L 143.511386 53.541082 
L 144.121071 52.732636 
L 144.730662 51.92596 
L 145.340347 51.107094 
L 145.949938 50.286006 
L 146.559528 49.463058 
L 147.169214 48.644162 
L 147.778804 47.820171 
L 148.38849 46.996679 
L 148.99808 46.170412 
L 149.607765 45.346285 
L 150.217356 44.513584 
L 150.827041 43.683007 
L 151.436632 42.85093 
L 152.046317 42.02779 
L 152.655908 41.202049 
L 153.265498 40.379828 
L 153.875184 39.557221 
L 154.484774 38.738595 
L 155.09446 37.92322 
L 155.70405 37.113698 
L 156.313736 36.307671 
L 156.923326 35.50774 
L 157.533011 34.716091 
L 158.142602 33.934062 
L 158.752287 33.153936 
L 159.361878 32.380488 
L 159.971468 31.624063 
L 160.581154 30.866237 
L 161.190744 30.126291 
L 161.80043 29.399461 
L 162.41002 28.685756 
L 163.019706 27.979616 
L 163.629296 27.28336 
L 164.238982 26.604878 
L 164.848572 25.940387 
L 165.458257 25.291611 
L 166.067848 24.650615 
L 166.677438 24.022501 
L 167.287124 23.413731 
L 167.896714 22.816512 
L 168.5064 22.238699 
L 169.11599 21.678717 
L 169.725676 21.127625 
L 170.335266 20.590069 
L 170.944952 20.066329 
L 171.554542 19.559802 
L 172.164227 19.066683 
L 172.773818 18.584423 
L 173.383408 18.120115 
L 173.993094 17.668019 
L 174.602684 17.233783 
L 175.21237 16.809047 
L 175.82196 16.404534 
L 176.431646 16.016919 
L 177.041236 15.646771 
L 177.650922 15.283905 
L 178.260512 14.938143 
L 178.870198 14.601595 
L 179.479788 14.286559 
L 180.089378 13.993208 
L 180.699064 13.716002 
L 181.308654 13.450181 
L 181.91834 13.203269 
L 182.52793 12.972316 
L 183.137616 12.763234 
L 183.747206 12.565736 
L 184.356892 12.386203 
L 184.966482 12.225918 
L 185.576168 12.084609 
L 186.185758 11.957977 
L 186.795348 11.84778 
L 187.405034 11.766456 
L 188.014624 11.697203 
L 188.62431 11.648296 
L 189.2339 11.616095 
L 189.843586 11.6 
L 190.453176 11.610871 
L 191.062862 11.640685 
L 191.672452 11.68421 
L 192.282138 11.756439 
L 192.891728 11.838836 
L 193.501318 11.940397 
L 194.111004 12.066844 
L 194.720594 12.20655 
L 195.33028 12.362817 
L 195.93987 12.531769 
L 196.549556 12.717208 
L 197.159146 12.920843 
L 197.768832 13.13707 
L 198.378422 13.375463 
L 198.988108 13.624674 
L 199.597698 13.880527 
L 200.207288 14.15709 
L 200.816974 14.445967 
L 201.426564 14.746077 
L 202.03625 15.060812 
L 202.64584 15.389332 
L 203.255526 15.727753 
L 203.865116 16.082276 
L 204.474802 16.445739 
L 205.084392 16.824146 
L 205.694078 17.214975 
L 206.303668 17.619448 
L 206.913258 18.035995 
L 207.522944 18.458071 
L 208.132534 18.894817 
L 208.74222 19.345242 
L 209.35181 19.808987 
L 209.961496 20.284651 
L 210.571086 20.774165 
L 211.180772 21.271638 
L 211.790362 21.786175 
L 212.399952 22.314413 
L 213.009638 22.853511 
L 213.619228 23.410754 
L 214.228914 23.982862 
L 214.838504 24.562703 
L 215.44819 25.150648 
L 216.05778 25.754611 
L 216.667466 26.369781 
L 217.277056 27.002967 
L 217.886742 27.643589 
L 218.496332 28.301314 
L 219.105922 28.965553 
L 219.715608 29.639978 
L 220.325198 30.319257 
L 220.934884 31.012036 
L 221.544474 31.718223 
L 222.15416 32.431137 
L 222.76375 33.147882 
L 223.373436 33.874798 
L 223.983026 34.605522 
L 224.592712 35.342957 
L 225.202302 36.086076 
L 225.811892 36.830018 
L 226.421578 37.578324 
L 227.031168 38.328733 
L 227.640854 39.081777 
L 228.250444 39.830839 
L 228.86013 40.593 
L 229.46972 41.347668 
L 230.079406 42.099592 
L 230.688996 42.849455 
L 231.298682 43.600411 
L 231.908272 44.351121 
L 232.517862 45.095076 
L 233.127548 45.836423 
L 233.737138 46.571424 
L 234.346824 47.309978 
L 234.956414 48.04722 
L 235.5661 48.771588 
L 236.17569 49.498386 
L 236.785376 50.216847 
L 237.394966 50.9321 
L 238.004652 51.648622 
L 238.614242 52.358419 
L 239.223832 53.065819 
L 239.833518 53.768687 
L 240.443108 54.46775 
L 241.052794 55.160729 
L 241.662384 55.849531 
L 242.27207 56.533786 
L 242.88166 57.214872 
L 243.491346 57.89108 
L 244.100936 58.562618 
L 244.710622 59.229956 
L 245.320212 59.889685 
L 245.929802 60.554155 
L 246.539488 61.214889 
L 247.149078 61.873142 
L 247.758764 62.52262 
L 248.368354 63.160996 
L 248.97804 63.797829 
L 249.58763 64.431755 
L 250.197316 65.062417 
L 250.806906 65.687977 
L 251.416592 66.306903 
L 252.026182 66.928318 
L 252.635773 67.540188 
L 253.245458 68.147999 
L 253.855048 68.75218 
L 254.464734 69.349961 
L 255.074324 69.940775 
L 255.68401 70.521687 
L 256.2936 71.105389 
L 256.903286 71.681537 
L 257.512876 72.252024 
L 258.122562 72.816236 
L 258.732152 73.370359 
L 259.341743 73.919881 
L 259.951428 74.466625 
L 260.561018 75.002106 
L 261.170704 75.531557 
L 261.780294 76.055501 
L 262.38998 76.569884 
L 262.99957 77.078781 
L 263.609256 77.58358 
L 264.218846 78.081989 
L 264.828532 78.573268 
L 265.438122 79.054451 
L 266.047713 79.531416 
L 266.657398 79.995345 
L 267.266989 80.454234 
L 267.876674 80.911648 
L 268.486264 81.356211 
L 269.09595 81.796072 
L 269.70554 82.226244 
L 270.315226 82.648836 
L 270.924816 83.06486 
L 271.534502 83.473268 
L 272.144092 83.874841 
L 272.753683 84.269025 
L 273.363368 84.654278 
L 273.972959 85.032554 
L 274.582644 85.404206 
L 275.192235 85.768725 
L 275.80192 86.129282 
L 276.41151 86.483594 
L 277.021196 86.827131 
L 277.630786 87.164874 
L 278.240472 87.495825 
L 278.850062 87.819151 
L 279.459653 88.139716 
L 280.069338 88.448779 
L 280.678929 88.751484 
L 281.288614 89.046405 
L 281.898205 89.33853 
L 282.50789 89.62085 
L 283.11748 89.89983 
L 283.727166 90.171674 
L 284.336756 90.436181 
L 284.946442 90.69609 
L 285.556032 90.945078 
L 286.165623 91.192328 
L 286.775308 91.436774 
L 287.384899 91.673689 
L 287.994584 91.907488 
L 288.604175 92.133216 
L 289.21386 92.35255 
L 289.823451 92.564177 
L 290.433136 92.772352 
L 291.042726 92.977851 
L 291.652412 93.176052 
L 292.262002 93.370888 
L 292.871593 93.560377 
L 293.481278 93.744038 
L 294.090869 93.925522 
L 294.700554 94.099944 
L 295.310145 94.271897 
L 295.91983 94.440263 
L 296.529421 94.602857 
L 297.139106 94.759965 
L 297.748696 94.913441 
L 298.358382 95.064925 
L 298.967972 95.213273 
L 299.577563 95.355854 
L 300.187248 95.495463 
L 300.796839 95.632764 
L 301.406524 95.764181 
L 302.016115 95.894159 
L 302.6258 96.018377 
L 303.235391 96.138778 
L 303.845076 96.258004 
L 304.454667 96.371714 
L 305.064352 96.484946 
L 305.673942 96.59295 
L 306.283533 96.697929 
L 306.893218 96.799889 
L 307.502809 96.899465 
L 308.112494 96.995332 
L 308.722085 97.090421 
L 309.33177 97.181932 
L 309.941361 97.268123 
L 310.551046 97.354063 
L 311.160637 97.435658 
L 311.770322 97.51536 
L 312.379912 97.590282 
L 312.989503 97.662033 
L 313.599188 97.731628 
L 314.208779 97.798429 
L 314.818464 97.863207 
L 315.428055 97.924714 
L 316.03774 97.983772 
L 316.647331 98.042341 
L 317.257016 98.098043 
L 317.866607 98.151991 
L 318.476197 98.203896 
L 319.085883 98.253837 
L 319.695473 98.301583 
L 320.305158 98.346642 
L 320.914749 98.390788 
L 321.524434 98.433357 
L 322.134025 98.474109 
L 322.74371 98.513473 
L 323.353301 98.553381 
L 323.962986 98.591119 
L 324.572577 98.62595 
L 325.182167 98.660686 
L 325.791853 98.693982 
L 326.401443 98.727195 
L 327.011128 98.758057 
L 327.620719 98.787141 
L 328.230404 98.816495 
L 328.839995 98.844437 
L 329.44968 98.872654 
L 330.059271 98.900402 
L 330.668956 98.92705 
L 331.278547 98.952631 
L 331.888137 98.976912 
L 332.497823 99.000997 
L 333.107413 99.023905 
L 333.717099 99.047609 
L 334.326689 99.070043 
L 334.936374 99.091944 
L 335.545965 99.113315 
L 336.15565 99.134781 
L 336.765241 99.155934 
L 337.374926 99.174872 
L 337.984517 99.194339 
L 338.594107 99.212927 
L 339.203793 99.230995 
L 339.813383 99.248537 
L 340.423069 99.264924 
L 341.032659 99.280868 
L 341.642344 99.29666 
L 342.251935 99.312857 
L 342.86162 99.32713 
L 343.471211 99.34124 
L 344.080896 99.354501 
L 344.690487 99.367579 
L 345.300077 99.380417 
L 345.909763 99.392342 
L 346.519353 99.403723 
L 347.129039 99.41425 
L 347.738629 99.424597 
L 348.348315 99.434716 
L 348.957905 99.443945 
L 349.56759 99.452348 
L 350.177181 99.460296 
L 350.786866 99.467794 
L 351.396457 99.475161 
L 352.006047 99.481739 
L 352.615733 99.488838 
L 353.225323 99.494461 
L 353.835009 99.500342 
L 354.444599 99.505466 
L 355.054285 99.50991 
L 355.663875 99.514364 
L 356.27356 99.518174 
L 356.883151 99.522032 
L 357.492836 99.525597 
L 358.102427 99.52889 
L 358.712017 99.531624 
L 359.321703 99.534492 
L 359.931293 99.536838 
L 360.540979 99.539043 
L 361.150569 99.541121 
L 361.760255 99.543398 
L 362.369845 99.545527 
L 362.979531 99.547217 
L 363.589121 99.548845 
L 364.198806 99.550421 
L 364.808397 99.551953 
L 365.417987 99.553763 
L 366.027577 99.555186 
L 366.637168 99.556595 
L 367.246758 99.557994 
L 367.856348 99.56001 
L 368.465939 99.561617 
L 369.075529 99.562877 
L 369.685119 99.564468 
L 370.29471 99.565717 
L 370.9043 99.567298 
L 371.51389 99.568538 
L 372.123481 99.569799 
L 372.733071 99.571075 
L 373.342661 99.572362 
L 373.952252 99.573653 
L 374.561842 99.574945 
L 375.171432 99.576231 
L 375.781022 99.577507 
L 376.390613 99.578767 
L 377.000203 99.580008 
L 377.609793 99.581224 
L 378.219384 99.582412 
L 378.828974 99.583567 
L 379.438564 99.584687 
L 380.048155 99.585769 
L 380.657745 99.586809 
L 381.267335 99.587807 
L 381.876926 99.58907 
L 382.486516 99.589929 
L 383.096106 99.590747 
L 383.705697 99.591524 
L 384.315287 99.592258 
L 384.924877 99.592949 
L 385.534468 99.593597 
L 386.144058 99.594202 
L 386.753648 99.594766 
L 387.363239 99.595289 
L 387.972829 99.595771 
L 388.582419 99.596216 
L 389.192009 99.596623 
L 389.8016 99.596996 
L 390.41119 99.597335 
L 391.02078 99.597643 
L 391.630371 99.597921 
L 392.239961 99.598172 
L 392.849551 99.598397 
L 393.459142 99.598599 
L 394.068732 99.598778 
L 394.678322 99.598938 
L 395.287913 99.59908 
L 395.897503 99.599205 
L 396.507093 99.599315 
L 397.116684 99.599412 
L 397.726274 99.599496 
L 398.335864 99.59957 
L 398.945455 99.599633 
z
" style="fill:#1f77b4;opacity:0.4;"/>
   </g>
   <g id="patch_4">
    <path clip-path="url(#pe28d41f38c)" d="M 129.489855 99.6 
L 129.489855 70.964085 
L 130.099446 70.265732 
L 130.709131 69.562817 
L 131.318722 68.852616 
L 131.928407 68.134288 
L 132.537998 67.409439 
L 133.147588 66.681258 
L 133.757274 65.946833 
L 134.366864 65.204197 
L 134.976549 64.459715 
L 135.58614 63.705167 
L 136.195825 62.950495 
L 136.805416 62.189023 
L 137.415101 61.423419 
L 138.024692 60.65098 
L 138.634377 59.874579 
L 139.243968 59.099284 
L 139.853558 58.31608 
L 140.463244 57.530653 
L 141.072834 56.739459 
L 141.68252 55.945827 
L 142.29211 55.148486 
L 142.901795 54.347272 
L 143.511386 53.541082 
L 144.121071 52.732636 
L 144.730662 51.92596 
L 145.340347 51.107094 
L 145.949938 50.286006 
L 146.559528 49.463058 
L 147.169214 48.644162 
L 147.778804 47.820171 
L 148.38849 46.996679 
L 148.99808 46.170412 
L 149.607765 45.346285 
L 150.217356 44.513584 
L 150.827041 43.683007 
L 151.436632 42.85093 
L 152.046317 42.02779 
L 152.655908 41.202049 
L 153.265498 40.379828 
L 153.875184 39.557221 
L 154.484774 38.738595 
L 155.09446 37.92322 
L 155.70405 37.113698 
L 156.313736 36.307671 
L 156.923326 35.50774 
L 157.533011 34.716091 
L 158.142602 33.934062 
L 158.752287 33.153936 
L 159.361878 32.380488 
L 159.971468 31.624063 
L 160.581154 30.866237 
L 161.190744 30.126291 
L 161.80043 29.399461 
L 162.41002 28.685756 
L 163.019706 27.979616 
L 163.629296 27.28336 
L 164.238982 26.604878 
L 164.848572 25.940387 
L 165.458257 25.291611 
L 166.067848 24.650615 
L 166.677438 24.022501 
L 167.287124 23.413731 
L 167.896714 22.816512 
L 168.5064 22.238699 
L 169.11599 21.678717 
L 169.725676 21.127625 
L 170.335266 20.590069 
L 170.944952 20.066329 
L 171.554542 19.559802 
L 172.164227 19.066683 
L 172.773818 18.584423 
L 173.383408 18.120115 
L 173.993094 17.668019 
L 174.602684 17.233783 
L 175.21237 16.809047 
L 175.82196 16.404534 
L 176.431646 16.016919 
L 177.041236 15.646771 
L 177.650922 15.283905 
L 178.260512 14.938143 
L 178.870198 14.601595 
L 179.479788 14.286559 
L 180.089378 13.993208 
L 180.699064 13.716002 
L 181.308654 13.450181 
L 181.91834 13.203269 
L 182.52793 12.972316 
L 183.137616 12.763234 
L 183.747206 12.565736 
L 184.356892 12.386203 
L 184.966482 12.225918 
L 185.576168 12.084609 
L 186.185758 11.957977 
L 186.795348 11.84778 
L 187.405034 11.766456 
L 188.014624 11.697203 
L 188.62431 11.648296 
L 189.2339 11.616095 
L 189.843586 11.6 
L 190.453176 11.610871 
L 191.062862 11.640685 
L 191.672452 11.68421 
L 192.282138 11.756439 
L 192.891728 11.838836 
L 193.501318 11.940397 
L 194.111004 12.066844 
L 194.720594 12.20655 
L 195.33028 12.362817 
L 195.93987 12.531769 
L 196.549556 12.717208 
L 197.159146 12.920843 
L 197.768832 13.13707 
L 198.378422 13.375463 
L 198.988108 13.624674 
L 199.597698 13.880527 
L 200.207288 14.15709 
L 200.816974 14.445967 
L 201.426564 14.746077 
L 202.03625 15.060812 
L 202.64584 15.389332 
L 203.255526 15.727753 
L 203.865116 16.082276 
L 204.474802 16.445739 
L 205.084392 16.824146 
L 205.694078 17.214975 
L 206.303668 17.619448 
L 206.913258 18.035995 
L 207.522944 18.458071 
L 208.132534 18.894817 
L 208.74222 19.345242 
L 209.35181 19.808987 
L 209.961496 20.284651 
L 210.571086 20.774165 
L 211.180772 21.271638 
L 211.790362 21.786175 
L 212.399952 22.314413 
L 213.009638 22.853511 
L 213.619228 23.410754 
L 214.228914 23.982862 
L 214.838504 24.562703 
L 215.44819 25.150648 
L 216.05778 25.754611 
L 216.667466 26.369781 
L 217.277056 27.002967 
L 217.886742 27.643589 
L 218.496332 28.301314 
L 219.105922 28.965553 
L 219.715608 29.639978 
L 220.325198 30.319257 
L 220.934884 31.012036 
L 221.544474 31.718223 
L 222.15416 32.431137 
L 222.76375 33.147882 
L 223.373436 33.874798 
L 223.983026 34.605522 
L 224.592712 35.342957 
L 225.202302 36.086076 
L 225.811892 36.830018 
L 226.421578 37.578324 
L 227.031168 38.328733 
L 227.640854 39.081777 
L 228.250444 39.830839 
L 228.86013 40.593 
L 229.46972 41.347668 
L 230.079406 42.099592 
L 230.688996 42.849455 
L 231.298682 43.600411 
L 231.908272 44.351121 
L 232.517862 45.095076 
L 233.127548 45.836423 
L 233.737138 46.571424 
L 234.346824 47.309978 
L 234.956414 48.04722 
L 235.5661 48.771588 
L 236.17569 49.498386 
L 236.785376 50.216847 
L 237.394966 50.9321 
L 238.004652 51.648622 
L 238.614242 52.358419 
L 239.223832 53.065819 
L 239.833518 53.768687 
L 240.443108 54.46775 
L 241.052794 55.160729 
L 241.662384 55.849531 
L 242.27207 56.533786 
L 242.88166 57.214872 
L 243.491346 57.89108 
L 244.100936 58.562618 
L 244.710622 59.229956 
L 245.320212 59.889685 
L 245.929802 60.554155 
L 246.539488 61.214889 
L 247.149078 61.873142 
L 247.758764 62.52262 
L 248.368354 63.160996 
L 248.97804 63.797829 
L 249.58763 64.431755 
L 250.197316 65.062417 
L 250.806906 65.687977 
L 251.416592 66.306903 
L 252.026182 66.928318 
L 252.635773 67.540188 
L 253.245458 68.147999 
L 253.855048 68.75218 
L 254.464734 69.349961 
L 255.074324 69.940775 
L 255.68401 70.521687 
L 256.2936 71.105389 
L 256.903286 71.681537 
L 257.512876 72.252024 
L 258.122562 72.816236 
L 258.732152 73.370359 
L 259.341743 73.919881 
L 259.951428 74.466625 
L 260.561018 75.002106 
L 260.561018 99.6 
z
" style="fill:#1f77b4;opacity:0.4;"/>
   </g>
   <g id="matplotlib.axis_1">
    <g id="xtick_1">
     <g id="line2d_1">
      <defs>
       <path d="M 0 0 
L 0 3.5 
" id="mb57e168a13" style="stroke:#000000;stroke-width:0.8;"/>
      </defs>
      <g>
       <use style="stroke:#000000;stroke-width:0.8;" x="54.292117" xlink:href="#mb57e168a13" y="104"/>
      </g>
     </g>
     <g id="text_1">
      <!-- 0.065 -->
      <defs>
       <path d="M 31.78125 66.40625 
Q 24.171875 66.40625 20.328125 58.90625 
Q 16.5 51.421875 16.5 36.375 
Q 16.5 21.390625 20.328125 13.890625 
Q 24.171875 6.390625 31.78125 6.390625 
Q 39.453125 6.390625 43.28125 13.890625 
Q 47.125 21.390625 47.125 36.375 
Q 47.125 51.421875 43.28125 58.90625 
Q 39.453125 66.40625 31.78125 66.40625 
z
M 31.78125 74.21875 
Q 44.046875 74.21875 50.515625 64.515625 
Q 56.984375 54.828125 56.984375 36.375 
Q 56.984375 17.96875 50.515625 8.265625 
Q 44.046875 -1.421875 31.78125 -1.421875 
Q 19.53125 -1.421875 13.0625 8.265625 
Q 6.59375 17.96875 6.59375 36.375 
Q 6.59375 54.828125 13.0625 64.515625 
Q 19.53125 74.21875 31.78125 74.21875 
z
" id="DejaVuSans-48"/>
       <path d="M 10.6875 12.40625 
L 21 12.40625 
L 21 0 
L 10.6875 0 
z
" id="DejaVuSans-46"/>
       <path d="M 33.015625 40.375 
Q 26.375 40.375 22.484375 35.828125 
Q 18.609375 31.296875 18.609375 23.390625 
Q 18.609375 15.53125 22.484375 10.953125 
Q 26.375 6.390625 33.015625 6.390625 
Q 39.65625 6.390625 43.53125 10.953125 
Q 47.40625 15.53125 47.40625 23.390625 
Q 47.40625 31.296875 43.53125 35.828125 
Q 39.65625 40.375 33.015625 40.375 
z
M 52.59375 71.296875 
L 52.59375 62.3125 
Q 48.875 64.0625 45.09375 64.984375 
Q 41.3125 65.921875 37.59375 65.921875 
Q 27.828125 65.921875 22.671875 59.328125 
Q 17.53125 52.734375 16.796875 39.40625 
Q 19.671875 43.65625 24.015625 45.921875 
Q 28.375 48.1875 33.59375 48.1875 
Q 44.578125 48.1875 50.953125 41.515625 
Q 57.328125 34.859375 57.328125 23.390625 
Q 57.328125 12.15625 50.6875 5.359375 
Q 44.046875 -1.421875 33.015625 -1.421875 
Q 20.359375 -1.421875 13.671875 8.265625 
Q 6.984375 17.96875 6.984375 36.375 
Q 6.984375 53.65625 15.1875 63.9375 
Q 23.390625 74.21875 37.203125 74.21875 
Q 40.921875 74.21875 44.703125 73.484375 
Q 48.484375 72.75 52.59375 71.296875 
z
" id="DejaVuSans-54"/>
       <path d="M 10.796875 72.90625 
L 49.515625 72.90625 
L 49.515625 64.59375 
L 19.828125 64.59375 
L 19.828125 46.734375 
Q 21.96875 47.46875 24.109375 47.828125 
Q 26.265625 48.1875 28.421875 48.1875 
Q 40.625 48.1875 47.75 41.5 
Q 54.890625 34.8125 54.890625 23.390625 
Q 54.890625 11.625 47.5625 5.09375 
Q 40.234375 -1.421875 26.90625 -1.421875 
Q 22.3125 -1.421875 17.546875 -0.640625 
Q 12.796875 0.140625 7.71875 1.703125 
L 7.71875 11.625 
Q 12.109375 9.234375 16.796875 8.0625 
Q 21.484375 6.890625 26.703125 6.890625 
Q 35.15625 6.890625 40.078125 11.328125 
Q 45.015625 15.765625 45.015625 23.390625 
Q 45.015625 31 40.078125 35.4375 
Q 35.15625 39.890625 26.703125 39.890625 
Q 22.75 39.890625 18.8125 39.015625 
Q 14.890625 38.140625 10.796875 36.28125 
z
" id="DejaVuSans-53"/>
      </defs>
      <g transform="translate(39.978054 118.598437)scale(0.1 -0.1)">
       <use xlink:href="#DejaVuSans-48"/>
       <use x="63.623047" xlink:href="#DejaVuSans-46"/>
       <use x="95.410156" xlink:href="#DejaVuSans-48"/>
       <use x="159.033203" xlink:href="#DejaVuSans-54"/>
       <use x="222.65625" xlink:href="#DejaVuSans-53"/>
      </g>
     </g>
    </g>
    <g id="xtick_2">
     <g id="line2d_2">
      <g>
       <use style="stroke:#000000;stroke-width:0.8;" x="118.252269" xlink:href="#mb57e168a13" y="104"/>
      </g>
     </g>
     <g id="text_2">
      <!-- 0.070 -->
      <defs>
       <path d="M 8.203125 72.90625 
L 55.078125 72.90625 
L 55.078125 68.703125 
L 28.609375 0 
L 18.3125 0 
L 43.21875 64.59375 
L 8.203125 64.59375 
z
" id="DejaVuSans-55"/>
      </defs>
      <g transform="translate(103.938207 118.598437)scale(0.1 -0.1)">
       <use xlink:href="#DejaVuSans-48"/>
       <use x="63.623047" xlink:href="#DejaVuSans-46"/>
       <use x="95.410156" xlink:href="#DejaVuSans-48"/>
       <use x="159.033203" xlink:href="#DejaVuSans-55"/>
       <use x="222.65625" xlink:href="#DejaVuSans-48"/>
      </g>
     </g>
    </g>
    <g id="xtick_3">
     <g id="line2d_3">
      <g>
       <use style="stroke:#000000;stroke-width:0.8;" x="182.212422" xlink:href="#mb57e168a13" y="104"/>
      </g>
     </g>
     <g id="text_3">
      <!-- 0.075 -->
      <g transform="translate(167.89836 118.598437)scale(0.1 -0.1)">
       <use xlink:href="#DejaVuSans-48"/>
       <use x="63.623047" xlink:href="#DejaVuSans-46"/>
       <use x="95.410156" xlink:href="#DejaVuSans-48"/>
       <use x="159.033203" xlink:href="#DejaVuSans-55"/>
       <use x="222.65625" xlink:href="#DejaVuSans-53"/>
      </g>
     </g>
    </g>
    <g id="xtick_4">
     <g id="line2d_4">
      <g>
       <use style="stroke:#000000;stroke-width:0.8;" x="246.172575" xlink:href="#mb57e168a13" y="104"/>
      </g>
     </g>
     <g id="text_4">
      <!-- 0.080 -->
      <defs>
       <path d="M 31.78125 34.625 
Q 24.75 34.625 20.71875 30.859375 
Q 16.703125 27.09375 16.703125 20.515625 
Q 16.703125 13.921875 20.71875 10.15625 
Q 24.75 6.390625 31.78125 6.390625 
Q 38.8125 6.390625 42.859375 10.171875 
Q 46.921875 13.96875 46.921875 20.515625 
Q 46.921875 27.09375 42.890625 30.859375 
Q 38.875 34.625 31.78125 34.625 
z
M 21.921875 38.8125 
Q 15.578125 40.375 12.03125 44.71875 
Q 8.5 49.078125 8.5 55.328125 
Q 8.5 64.0625 14.71875 69.140625 
Q 20.953125 74.21875 31.78125 74.21875 
Q 42.671875 74.21875 48.875 69.140625 
Q 55.078125 64.0625 55.078125 55.328125 
Q 55.078125 49.078125 51.53125 44.71875 
Q 48 40.375 41.703125 38.8125 
Q 48.828125 37.15625 52.796875 32.3125 
Q 56.78125 27.484375 56.78125 20.515625 
Q 56.78125 9.90625 50.3125 4.234375 
Q 43.84375 -1.421875 31.78125 -1.421875 
Q 19.734375 -1.421875 13.25 4.234375 
Q 6.78125 9.90625 6.78125 20.515625 
Q 6.78125 27.484375 10.78125 32.3125 
Q 14.796875 37.15625 21.921875 38.8125 
z
M 18.3125 54.390625 
Q 18.3125 48.734375 21.84375 45.5625 
Q 25.390625 42.390625 31.78125 42.390625 
Q 38.140625 42.390625 41.71875 45.5625 
Q 45.3125 48.734375 45.3125 54.390625 
Q 45.3125 60.0625 41.71875 63.234375 
Q 38.140625 66.40625 31.78125 66.40625 
Q 25.390625 66.40625 21.84375 63.234375 
Q 18.3125 60.0625 18.3125 54.390625 
z
" id="DejaVuSans-56"/>
      </defs>
      <g transform="translate(231.858512 118.598437)scale(0.1 -0.1)">
       <use xlink:href="#DejaVuSans-48"/>
       <use x="63.623047" xlink:href="#DejaVuSans-46"/>
       <use x="95.410156" xlink:href="#DejaVuSans-48"/>
       <use x="159.033203" xlink:href="#DejaVuSans-56"/>
       <use x="222.65625" xlink:href="#DejaVuSans-48"/>
      </g>
     </g>
    </g>
    <g id="xtick_5">
     <g id="line2d_5">
      <g>
       <use style="stroke:#000000;stroke-width:0.8;" x="310.132728" xlink:href="#mb57e168a13" y="104"/>
      </g>
     </g>
     <g id="text_5">
      <!-- 0.085 -->
      <g transform="translate(295.818665 118.598437)scale(0.1 -0.1)">
       <use xlink:href="#DejaVuSans-48"/>
       <use x="63.623047" xlink:href="#DejaVuSans-46"/>
       <use x="95.410156" xlink:href="#DejaVuSans-48"/>
       <use x="159.033203" xlink:href="#DejaVuSans-56"/>
       <use x="222.65625" xlink:href="#DejaVuSans-53"/>
      </g>
     </g>
    </g>
    <g id="xtick_6">
     <g id="line2d_6">
      <g>
       <use style="stroke:#000000;stroke-width:0.8;" x="374.09288" xlink:href="#mb57e168a13" y="104"/>
      </g>
     </g>
     <g id="text_6">
      <!-- 0.090 -->
      <defs>
       <path d="M 10.984375 1.515625 
L 10.984375 10.5 
Q 14.703125 8.734375 18.5 7.8125 
Q 22.3125 6.890625 25.984375 6.890625 
Q 35.75 6.890625 40.890625 13.453125 
Q 46.046875 20.015625 46.78125 33.40625 
Q 43.953125 29.203125 39.59375 26.953125 
Q 35.25 24.703125 29.984375 24.703125 
Q 19.046875 24.703125 12.671875 31.3125 
Q 6.296875 37.9375 6.296875 49.421875 
Q 6.296875 60.640625 12.9375 67.421875 
Q 19.578125 74.21875 30.609375 74.21875 
Q 43.265625 74.21875 49.921875 64.515625 
Q 56.59375 54.828125 56.59375 36.375 
Q 56.59375 19.140625 48.40625 8.859375 
Q 40.234375 -1.421875 26.421875 -1.421875 
Q 22.703125 -1.421875 18.890625 -0.6875 
Q 15.09375 0.046875 10.984375 1.515625 
z
M 30.609375 32.421875 
Q 37.25 32.421875 41.125 36.953125 
Q 45.015625 41.5 45.015625 49.421875 
Q 45.015625 57.28125 41.125 61.84375 
Q 37.25 66.40625 30.609375 66.40625 
Q 23.96875 66.40625 20.09375 61.84375 
Q 16.21875 57.28125 16.21875 49.421875 
Q 16.21875 41.5 20.09375 36.953125 
Q 23.96875 32.421875 30.609375 32.421875 
z
" id="DejaVuSans-57"/>
      </defs>
      <g transform="translate(359.778818 118.598437)scale(0.1 -0.1)">
       <use xlink:href="#DejaVuSans-48"/>
       <use x="63.623047" xlink:href="#DejaVuSans-46"/>
       <use x="95.410156" xlink:href="#DejaVuSans-48"/>
       <use x="159.033203" xlink:href="#DejaVuSans-57"/>
       <use x="222.65625" xlink:href="#DejaVuSans-48"/>
      </g>
     </g>
    </g>
    <g id="text_7">
     <!-- sigma -->
     <defs>
      <path d="M 44.28125 53.078125 
L 44.28125 44.578125 
Q 40.484375 46.53125 36.375 47.5 
Q 32.28125 48.484375 27.875 48.484375 
Q 21.1875 48.484375 17.84375 46.4375 
Q 14.5 44.390625 14.5 40.28125 
Q 14.5 37.15625 16.890625 35.375 
Q 19.28125 33.59375 26.515625 31.984375 
L 29.59375 31.296875 
Q 39.15625 29.25 43.1875 25.515625 
Q 47.21875 21.78125 47.21875 15.09375 
Q 47.21875 7.46875 41.1875 3.015625 
Q 35.15625 -1.421875 24.609375 -1.421875 
Q 20.21875 -1.421875 15.453125 -0.5625 
Q 10.6875 0.296875 5.421875 2 
L 5.421875 11.28125 
Q 10.40625 8.6875 15.234375 7.390625 
Q 20.0625 6.109375 24.8125 6.109375 
Q 31.15625 6.109375 34.5625 8.28125 
Q 37.984375 10.453125 37.984375 14.40625 
Q 37.984375 18.0625 35.515625 20.015625 
Q 33.0625 21.96875 24.703125 23.78125 
L 21.578125 24.515625 
Q 13.234375 26.265625 9.515625 29.90625 
Q 5.8125 33.546875 5.8125 39.890625 
Q 5.8125 47.609375 11.28125 51.796875 
Q 16.75 56 26.8125 56 
Q 31.78125 56 36.171875 55.265625 
Q 40.578125 54.546875 44.28125 53.078125 
z
" id="DejaVuSans-115"/>
      <path d="M 9.421875 54.6875 
L 18.40625 54.6875 
L 18.40625 0 
L 9.421875 0 
z
M 9.421875 75.984375 
L 18.40625 75.984375 
L 18.40625 64.59375 
L 9.421875 64.59375 
z
" id="DejaVuSans-105"/>
      <path d="M 45.40625 27.984375 
Q 45.40625 37.75 41.375 43.109375 
Q 37.359375 48.484375 30.078125 48.484375 
Q 22.859375 48.484375 18.828125 43.109375 
Q 14.796875 37.75 14.796875 27.984375 
Q 14.796875 18.265625 18.828125 12.890625 
Q 22.859375 7.515625 30.078125 7.515625 
Q 37.359375 7.515625 41.375 12.890625 
Q 45.40625 18.265625 45.40625 27.984375 
z
M 54.390625 6.78125 
Q 54.390625 -7.171875 48.1875 -13.984375 
Q 42 -20.796875 29.203125 -20.796875 
Q 24.46875 -20.796875 20.265625 -20.09375 
Q 16.0625 -19.390625 12.109375 -17.921875 
L 12.109375 -9.1875 
Q 16.0625 -11.328125 19.921875 -12.34375 
Q 23.78125 -13.375 27.78125 -13.375 
Q 36.625 -13.375 41.015625 -8.765625 
Q 45.40625 -4.15625 45.40625 5.171875 
L 45.40625 9.625 
Q 42.625 4.78125 38.28125 2.390625 
Q 33.9375 0 27.875 0 
Q 17.828125 0 11.671875 7.65625 
Q 5.515625 15.328125 5.515625 27.984375 
Q 5.515625 40.671875 11.671875 48.328125 
Q 17.828125 56 27.875 56 
Q 33.9375 56 38.28125 53.609375 
Q 42.625 51.21875 45.40625 46.390625 
L 45.40625 54.6875 
L 54.390625 54.6875 
z
" id="DejaVuSans-103"/>
      <path d="M 52 44.1875 
Q 55.375 50.25 60.0625 53.125 
Q 64.75 56 71.09375 56 
Q 79.640625 56 84.28125 50.015625 
Q 88.921875 44.046875 88.921875 33.015625 
L 88.921875 0 
L 79.890625 0 
L 79.890625 32.71875 
Q 79.890625 40.578125 77.09375 44.375 
Q 74.3125 48.1875 68.609375 48.1875 
Q 61.625 48.1875 57.5625 43.546875 
Q 53.515625 38.921875 53.515625 30.90625 
L 53.515625 0 
L 44.484375 0 
L 44.484375 32.71875 
Q 44.484375 40.625 41.703125 44.40625 
Q 38.921875 48.1875 33.109375 48.1875 
Q 26.21875 48.1875 22.15625 43.53125 
Q 18.109375 38.875 18.109375 30.90625 
L 18.109375 0 
L 9.078125 0 
L 9.078125 54.6875 
L 18.109375 54.6875 
L 18.109375 46.1875 
Q 21.1875 51.21875 25.484375 53.609375 
Q 29.78125 56 35.6875 56 
Q 41.65625 56 45.828125 52.96875 
Q 50 49.953125 52 44.1875 
z
" id="DejaVuSans-109"/>
      <path d="M 34.28125 27.484375 
Q 23.390625 27.484375 19.1875 25 
Q 14.984375 22.515625 14.984375 16.5 
Q 14.984375 11.71875 18.140625 8.90625 
Q 21.296875 6.109375 26.703125 6.109375 
Q 34.1875 6.109375 38.703125 11.40625 
Q 43.21875 16.703125 43.21875 25.484375 
L 43.21875 27.484375 
z
M 52.203125 31.203125 
L 52.203125 0 
L 43.21875 0 
L 43.21875 8.296875 
Q 40.140625 3.328125 35.546875 0.953125 
Q 30.953125 -1.421875 24.3125 -1.421875 
Q 15.921875 -1.421875 10.953125 3.296875 
Q 6 8.015625 6 15.921875 
Q 6 25.140625 12.171875 29.828125 
Q 18.359375 34.515625 30.609375 34.515625 
L 43.21875 34.515625 
L 43.21875 35.40625 
Q 43.21875 41.609375 39.140625 45 
Q 35.0625 48.390625 27.6875 48.390625 
Q 23 48.390625 18.546875 47.265625 
Q 14.109375 46.140625 10.015625 43.890625 
L 10.015625 52.203125 
Q 14.9375 54.109375 19.578125 55.046875 
Q 24.21875 56 28.609375 56 
Q 40.484375 56 46.34375 49.84375 
Q 52.203125 43.703125 52.203125 31.203125 
z
" id="DejaVuSans-97"/>
     </defs>
     <g transform="translate(197.297656 132.276562)scale(0.1 -0.1)">
      <use xlink:href="#DejaVuSans-115"/>
      <use x="52.099609" xlink:href="#DejaVuSans-105"/>
      <use x="79.882812" xlink:href="#DejaVuSans-103"/>
      <use x="143.359375" xlink:href="#DejaVuSans-109"/>
      <use x="240.771484" xlink:href="#DejaVuSans-97"/>
     </g>
    </g>
   </g>
   <g id="patch_5">
    <path d="M 7.2 104 
L 417.6 104 
" style="fill:none;stroke:#000000;stroke-linecap:square;stroke-linejoin:miter;stroke-width:0.8;"/>
   </g>
  </g>
  <g id="axes_2">
   <g id="patch_6">
    <path d="M 7.2 242.6 
L 417.6 242.6 
L 417.6 145.8 
L 7.2 145.8 
z
" style="fill:#ffffff;"/>
   </g>
   <g id="patch_7">
    <path clip-path="url(#pa7036ca789)" d="M 25.854545 238.2 
L 26.464171 238.199077 
L 27.073796 238.198608 
L 27.683421 238.198369 
L 28.293046 238.197787 
L 28.902671 238.197419 
L 29.512296 238.196691 
L 30.121922 238.195236 
L 30.731547 238.19447 
L 31.341172 238.193292 
L 31.950797 238.191637 
L 32.560422 238.188816 
L 33.170047 238.185869 
L 33.779672 238.183101 
L 34.389298 238.179335 
L 34.998923 238.175343 
L 35.608548 238.171117 
L 36.218173 238.165419 
L 36.827798 238.160188 
L 37.437423 238.153399 
L 38.047049 238.144836 
L 38.656674 238.135483 
L 39.266299 238.124973 
L 39.875924 238.113809 
L 40.485549 238.101361 
L 41.095174 238.086904 
L 41.704799 238.070522 
L 42.314425 238.05141 
L 42.92405 238.029258 
L 43.533675 238.005877 
L 44.1433 237.979424 
L 44.752925 237.950522 
L 45.36255 237.918393 
L 45.972175 237.881537 
L 46.581801 237.839762 
L 47.191426 237.796576 
L 47.801051 237.749062 
L 48.410676 237.696288 
L 49.020301 237.639353 
L 49.629926 237.574982 
L 50.239552 237.505526 
L 50.849177 237.432267 
L 51.458802 237.351835 
L 52.068427 237.264324 
L 52.678052 237.169594 
L 53.287677 237.068159 
L 53.897302 236.957299 
L 54.506928 236.838193 
L 55.116553 236.711677 
L 55.726178 236.5745 
L 56.335803 236.426906 
L 56.945428 236.270494 
L 57.555053 236.104448 
L 58.164679 235.925728 
L 58.774304 235.737302 
L 59.383929 235.5372 
L 60.603179 235.320412 
L 61.212804 235.093443 
L 61.822429 234.85449 
L 62.432059 234.600584 
L 63.041684 234.332317 
L 63.651309 234.046159 
L 64.260934 233.746049 
L 64.870559 233.431168 
L 65.480185 233.102783 
L 66.08981 232.755074 
L 66.699439 232.389586 
L 67.309064 232.007605 
L 67.918689 231.608876 
L 68.528315 231.194095 
L 69.13794 230.760765 
L 69.747565 230.306943 
L 70.357194 229.835031 
L 70.966819 229.340541 
L 71.576445 228.830576 
L 72.18607 228.30032 
L 72.795695 227.74509 
L 73.40532 227.172992 
L 74.014945 226.579467 
L 74.624574 225.966285 
L 75.2342 225.333127 
L 75.843825 224.677822 
L 76.45345 224.000946 
L 77.063075 223.298929 
L 77.6727 222.582091 
L 78.28233 221.839843 
L 78.891955 221.071776 
L 79.50158 220.278393 
L 80.111205 219.468039 
L 80.72083 218.635182 
L 81.330455 217.777045 
L 81.940081 216.899638 
L 82.549706 215.995912 
L 83.159331 215.070843 
L 83.768956 214.123856 
L 84.37859 213.156143 
L 84.988215 212.164201 
L 85.59784 211.150999 
L 86.207465 210.124041 
L 86.81709 209.071209 
L 87.426715 207.999773 
L 88.03634 206.909651 
L 88.645966 205.801628 
L 89.255591 204.674115 
L 89.865216 203.531645 
L 90.474841 202.372703 
L 91.084466 201.196029 
L 91.694091 200.008044 
L 92.303717 198.805408 
L 92.91335 197.593597 
L 93.522975 196.367818 
L 94.1326 195.137968 
L 94.742226 193.903806 
L 95.351851 192.657311 
L 95.961476 191.408654 
L 96.571101 190.15776 
L 97.180726 188.905369 
L 97.790351 187.654245 
L 98.399976 186.406146 
L 99.009602 185.159334 
L 99.619227 183.917538 
L 100.228852 182.68274 
L 100.838486 181.453387 
L 101.448111 180.234663 
L 102.057736 179.029717 
L 102.667361 177.833571 
L 103.276986 176.653132 
L 103.886611 175.489103 
L 104.496236 174.343075 
L 105.105862 173.21796 
L 105.715487 172.107503 
L 106.325112 171.022216 
L 106.934737 169.959397 
L 107.544362 168.911823 
L 108.153987 167.893682 
L 108.763613 166.899299 
L 109.373246 165.936211 
L 109.982871 164.995928 
L 110.592496 164.080841 
L 111.202122 163.196633 
L 111.811747 162.337739 
L 112.421372 161.501193 
L 113.030997 160.698486 
L 113.640622 159.923447 
L 114.250247 159.177974 
L 114.859872 158.462679 
L 115.469498 157.778087 
L 116.079123 157.124823 
L 116.688748 156.499941 
L 117.298381 155.90576 
L 117.908007 155.344202 
L 118.517632 154.81295 
L 119.127257 154.309284 
L 119.736882 153.835337 
L 120.346507 153.389563 
L 120.956132 152.975238 
L 121.565758 152.594558 
L 122.175383 152.241383 
L 122.785008 151.917795 
L 123.394633 151.618502 
L 124.004258 151.351045 
L 124.613883 151.108309 
L 125.223517 150.900106 
L 125.833142 150.718219 
L 126.442767 150.563686 
L 127.052392 150.439355 
L 127.662017 150.339244 
L 128.271643 150.266491 
L 128.881268 150.220435 
L 129.490893 150.2 
L 130.100518 150.206114 
L 130.710143 150.237261 
L 131.319768 150.296102 
L 131.929394 150.383117 
L 132.539019 150.493737 
L 133.148652 150.625156 
L 133.758277 150.776968 
L 134.367903 150.960947 
L 134.977528 151.164649 
L 135.587153 151.39116 
L 136.196778 151.639514 
L 136.806403 151.91056 
L 137.416028 152.204749 
L 138.025654 152.519263 
L 138.635279 152.856078 
L 139.244904 153.217727 
L 139.854529 153.595847 
L 140.464154 153.997966 
L 141.073779 154.422533 
L 141.683413 154.862498 
L 142.293038 155.316748 
L 142.902663 155.788458 
L 143.512288 156.281388 
L 144.121913 156.792823 
L 144.731539 157.321598 
L 145.341164 157.870999 
L 145.950789 158.431121 
L 146.560414 159.007118 
L 147.170039 159.603644 
L 147.779664 160.216827 
L 148.38929 160.83985 
L 148.998915 161.475495 
L 149.608548 162.127729 
L 150.218173 162.788083 
L 150.827799 163.460947 
L 151.437424 164.144192 
L 152.047049 164.839554 
L 152.656674 165.543888 
L 153.266299 166.258319 
L 153.875924 166.980163 
L 154.485549 167.706422 
L 155.095175 168.445703 
L 155.7048 169.1913 
L 156.314425 169.943666 
L 156.92405 170.700197 
L 157.533675 171.460025 
L 158.1433 172.225919 
L 158.752926 172.995295 
L 159.362551 173.769078 
L 159.972176 174.540817 
L 160.581801 175.320115 
L 161.191426 176.097996 
L 161.801068 176.879423 
L 162.410693 177.656326 
L 163.020318 178.430783 
L 163.629944 179.212705 
L 164.239569 179.988851 
L 164.849194 180.76028 
L 165.458819 181.531327 
L 166.068444 182.298309 
L 166.678069 183.059931 
L 167.287695 183.823309 
L 167.89732 184.57793 
L 168.506945 185.332337 
L 169.11657 186.086488 
L 169.726195 186.835324 
L 170.33582 187.573975 
L 170.945445 188.312388 
L 171.555071 189.041413 
L 172.164696 189.766211 
L 172.774321 190.483281 
L 173.383946 191.193761 
L 173.993571 191.902132 
L 174.603196 192.601167 
L 175.212821 193.293118 
L 175.822447 193.987804 
L 176.432072 194.67035 
L 177.041697 195.348361 
L 177.651322 196.015425 
L 178.260964 196.683208 
L 178.870589 197.345461 
L 179.480214 197.999568 
L 180.08984 198.649909 
L 180.699465 199.299003 
L 181.30909 199.936005 
L 181.918715 200.567439 
L 182.52834 201.192988 
L 183.137965 201.813302 
L 183.74759 202.426103 
L 184.357216 203.030055 
L 184.966841 203.629817 
L 185.576466 204.22459 
L 186.186091 204.811252 
L 186.795716 205.392823 
L 187.405341 205.970871 
L 188.014967 206.540612 
L 188.624592 207.106388 
L 189.234217 207.661287 
L 189.843842 208.206904 
L 190.453467 208.747877 
L 191.063092 209.286333 
L 191.672717 209.820147 
L 192.282343 210.342713 
L 192.891968 210.862433 
L 193.501593 211.369744 
L 194.111235 211.870439 
L 194.72086 212.363466 
L 195.330485 212.850587 
L 195.94011 213.331451 
L 196.549736 213.804682 
L 197.159361 214.273888 
L 197.768986 214.732145 
L 198.378611 215.183615 
L 198.988236 215.629832 
L 199.597861 216.065641 
L 200.207486 216.493665 
L 200.817112 216.91574 
L 201.426737 217.333861 
L 202.036362 217.745535 
L 202.645987 218.145218 
L 203.255612 218.542384 
L 203.865237 218.932365 
L 204.474862 219.315102 
L 205.084488 219.690307 
L 205.694113 220.058801 
L 206.303738 220.425576 
L 206.913363 220.784578 
L 207.522988 221.136153 
L 208.132613 221.482128 
L 208.742239 221.820267 
L 209.351864 222.155487 
L 209.961489 222.485391 
L 210.571131 222.816233 
L 211.180756 223.140232 
L 211.790381 223.455071 
L 212.400006 223.765374 
L 213.009631 224.071454 
L 213.619257 224.37171 
L 214.228882 224.666876 
L 214.838507 224.962201 
L 215.448132 225.250875 
L 216.057757 225.534231 
L 216.667382 225.812739 
L 217.277008 226.088466 
L 217.886633 226.359691 
L 218.496258 226.628141 
L 219.105883 226.894318 
L 219.715508 227.155584 
L 220.325133 227.410001 
L 220.934758 227.660588 
L 221.544384 227.908988 
L 222.154009 228.1543 
L 222.763634 228.392545 
L 223.373259 228.627541 
L 223.982884 228.85811 
L 224.592509 229.083105 
L 225.202135 229.306669 
L 225.81176 229.529661 
L 226.421385 229.744496 
L 227.031027 229.957071 
L 227.640652 230.165761 
L 228.250277 230.371435 
L 228.859902 230.568002 
L 229.469527 230.761909 
L 230.079153 230.953404 
L 230.688778 231.140758 
L 231.298403 231.324212 
L 231.908028 231.502304 
L 232.517653 231.677746 
L 233.127278 231.85052 
L 233.736903 232.017729 
L 234.346529 232.180885 
L 234.956154 232.341228 
L 235.565779 232.494278 
L 236.175404 232.646425 
L 236.785029 232.790109 
L 237.394654 232.927724 
L 238.00428 233.061569 
L 238.613905 233.193728 
L 239.22353 233.319932 
L 239.833155 233.444677 
L 240.44278 233.562649 
L 241.052405 233.677067 
L 241.66203 233.78762 
L 242.271656 233.894108 
L 242.881281 233.996863 
L 243.490923 234.096051 
L 244.100548 234.18981 
L 244.710173 234.279944 
L 245.319798 234.365809 
L 245.929423 234.448672 
L 246.539049 234.526713 
L 247.148674 234.603068 
L 247.758299 234.676625 
L 248.367924 234.748038 
L 248.977549 234.815761 
L 249.587174 234.881426 
L 250.196799 234.944843 
L 250.806425 235.00535 
L 251.41605 235.062585 
L 252.025675 235.119219 
L 252.6353 235.172928 
L 253.244925 235.225608 
L 253.85455 235.275704 
L 254.464176 235.324006 
L 255.073801 235.372239 
L 255.683426 235.418525 
L 256.293051 235.46451 
L 256.902676 235.509699 
L 257.512301 235.556816 
L 258.121926 235.601956 
L 258.731552 235.645908 
L 259.341194 235.686734 
L 259.950819 235.729417 
L 260.560444 235.771396 
L 261.170069 235.813859 
L 261.779694 235.855462 
L 262.389319 235.897417 
L 262.998944 235.939965 
L 263.60857 235.980956 
L 264.218195 236.022697 
L 264.82782 236.065089 
L 265.437445 236.107518 
L 266.04707 236.150759 
L 266.656695 236.192112 
L 267.266321 236.23333 
L 267.875946 236.27623 
L 268.485571 236.31956 
L 269.095196 236.360769 
L 269.704821 236.402205 
L 270.314446 236.44381 
L 270.924071 236.48548 
L 271.533697 236.527165 
L 272.143322 236.567991 
L 272.752947 236.609038 
L 273.362572 236.649124 
L 273.972197 236.689023 
L 274.581822 236.727595 
L 275.191448 236.765482 
L 275.80109 236.803399 
L 276.410715 236.840942 
L 277.02034 236.877808 
L 277.629965 236.913344 
L 278.23959 236.948902 
L 278.849215 236.98258 
L 279.45884 237.016083 
L 280.068466 237.048461 
L 280.678091 237.080203 
L 281.287716 237.111027 
L 281.897341 237.141484 
L 282.506966 237.170696 
L 283.116591 237.198443 
L 283.726217 237.225328 
L 284.335842 237.252124 
L 284.945467 237.277139 
L 285.555092 237.301555 
L 286.164717 237.324811 
L 286.774342 237.34722 
L 287.383967 237.369575 
L 287.993593 237.390462 
L 288.603218 237.411038 
L 289.212843 237.430153 
L 289.822468 237.448447 
L 290.432093 237.465467 
L 291.041718 237.482102 
L 291.65136 237.498329 
L 292.260985 237.513873 
L 292.870611 237.529812 
L 293.480236 237.543928 
L 294.089861 237.557224 
L 294.699486 237.570296 
L 295.309111 237.582349 
L 295.918736 237.594804 
L 296.528362 237.606782 
L 297.137987 237.619111 
L 297.747612 237.630145 
L 298.357237 237.640063 
L 298.966862 237.649807 
L 299.576487 237.659399 
L 300.186112 237.669384 
L 300.795738 237.678918 
L 301.405363 237.6886 
L 302.014988 237.697894 
L 302.624613 237.707133 
L 303.234238 237.716342 
L 303.843863 237.725803 
L 304.453489 237.735238 
L 305.063114 237.744411 
L 305.672739 237.754168 
L 306.282364 237.763658 
L 306.891989 237.772946 
L 307.501614 237.782347 
L 308.111239 237.791605 
L 308.720865 237.801025 
L 309.33049 237.811125 
L 309.940115 237.820773 
L 310.54974 237.830838 
L 311.159365 237.840745 
L 311.76899 237.851835 
L 312.378616 237.862103 
L 312.988241 237.8722 
L 313.597866 237.882411 
L 314.207491 237.892717 
L 314.817116 237.903355 
L 315.426741 237.914263 
L 316.036366 237.9246 
L 316.646025 237.935217 
L 317.25565 237.945524 
L 317.865276 237.955805 
L 318.474901 237.966033 
L 319.084526 237.976184 
L 319.694151 237.986755 
L 320.303776 237.996599 
L 320.913401 238.006306 
L 321.523027 238.015855 
L 322.132652 238.025487 
L 322.742277 238.034879 
L 323.351902 238.044282 
L 323.961527 238.053122 
L 324.571152 238.061433 
L 325.180777 238.06977 
L 325.790403 238.077556 
L 326.400028 238.085086 
L 327.009653 238.092611 
L 327.619278 238.099821 
L 328.228903 238.106454 
L 328.838528 238.112811 
L 329.448153 238.11889 
L 330.057779 238.124686 
L 330.667404 238.130201 
L 331.277029 238.135126 
L 331.886654 238.140026 
L 332.496279 238.144904 
L 333.105904 238.149202 
L 333.71553 238.153491 
L 334.325155 238.157215 
L 334.93478 238.160687 
L 335.544405 238.164434 
L 336.15403 238.167337 
L 336.763655 238.170017 
L 337.37328 238.173004 
L 337.982906 238.175176 
L 338.592531 238.177418 
L 339.202156 238.17917 
L 339.811781 238.180747 
L 340.421406 238.182153 
L 341.031031 238.183395 
L 341.640657 238.184477 
L 342.250282 238.185667 
L 342.859907 238.186409 
L 343.469532 238.187015 
L 344.079157 238.187753 
L 344.688782 238.188065 
L 345.298407 238.188265 
L 345.908033 238.188879 
L 346.517658 238.188787 
L 347.127283 238.18861 
L 347.736908 238.188351 
L 348.346533 238.188277 
L 348.956192 238.18809 
L 349.565817 238.187539 
L 350.175442 238.186938 
L 350.785068 238.18629 
L 351.394693 238.1856 
L 352.004318 238.184873 
L 352.613943 238.184115 
L 353.223568 238.183331 
L 353.833193 238.182529 
L 354.442818 238.181714 
L 355.052444 238.180893 
L 355.662069 238.180073 
L 356.271694 238.179261 
L 356.881319 238.178464 
L 357.490944 238.17795 
L 358.100569 238.177163 
L 358.710194 238.176417 
L 359.31982 238.175718 
L 359.929445 238.175071 
L 360.53907 238.174481 
L 361.148695 238.173954 
L 361.75832 238.173493 
L 362.367945 238.173103 
L 362.977571 238.172787 
L 363.587196 238.172547 
L 364.196821 238.172386 
L 364.806446 238.172306 
L 365.416071 238.172306 
L 366.025696 238.172386 
L 366.635321 238.172547 
L 367.244947 238.172787 
L 367.854572 238.173103 
L 368.464197 238.173493 
L 369.073822 238.173954 
L 369.683447 238.174481 
L 370.293072 238.175071 
L 370.902698 238.175718 
L 371.512323 238.176417 
L 372.121948 238.177163 
L 372.731573 238.17795 
L 373.341198 238.178772 
L 373.950823 238.179622 
L 374.560448 238.180496 
L 375.170074 238.181387 
L 375.779699 238.182289 
L 376.389324 238.183196 
L 376.998949 238.184104 
L 377.608574 238.185006 
L 378.218199 238.185898 
L 378.827825 238.186776 
L 379.43745 238.187636 
L 380.047075 238.188473 
L 380.6567 238.189285 
L 381.266325 238.190069 
L 381.87595 238.190822 
L 382.485575 238.191543 
L 383.095201 238.19223 
L 383.704826 238.192882 
L 384.314451 238.193499 
L 384.924076 238.194079 
L 385.533701 238.194623 
L 386.143326 238.195132 
L 386.752951 238.195605 
L 387.362577 238.196044 
L 387.972202 238.196449 
L 388.581827 238.196822 
L 389.191452 238.197165 
L 389.801077 238.197477 
L 390.410702 238.197762 
L 391.020328 238.198021 
L 391.629953 238.198254 
L 392.239578 238.198465 
L 392.849203 238.198654 
L 393.458828 238.198823 
L 394.068453 238.198974 
L 394.678078 238.199109 
L 395.287704 238.199227 
L 395.897329 238.199332 
L 396.506954 238.199425 
L 397.116579 238.199506 
L 397.726204 238.199577 
L 398.335829 238.199639 
L 398.945455 238.199692 
z
" style="fill:#1f77b4;opacity:0.4;"/>
   </g>
   <g id="patch_8">
    <path clip-path="url(#pa7036ca789)" d="M 91.694091 238.2 
L 91.694091 200.008044 
L 92.303717 198.805408 
L 92.91335 197.593597 
L 93.522975 196.367818 
L 94.1326 195.137968 
L 94.742226 193.903806 
L 95.351851 192.657311 
L 95.961476 191.408654 
L 96.571101 190.15776 
L 97.180726 188.905369 
L 97.790351 187.654245 
L 98.399976 186.406146 
L 99.009602 185.159334 
L 99.619227 183.917538 
L 100.228852 182.68274 
L 100.838486 181.453387 
L 101.448111 180.234663 
L 102.057736 179.029717 
L 102.667361 177.833571 
L 103.276986 176.653132 
L 103.886611 175.489103 
L 104.496236 174.343075 
L 105.105862 173.21796 
L 105.715487 172.107503 
L 106.325112 171.022216 
L 106.934737 169.959397 
L 107.544362 168.911823 
L 108.153987 167.893682 
L 108.763613 166.899299 
L 109.373246 165.936211 
L 109.982871 164.995928 
L 110.592496 164.080841 
L 111.202122 163.196633 
L 111.811747 162.337739 
L 112.421372 161.501193 
L 113.030997 160.698486 
L 113.640622 159.923447 
L 114.250247 159.177974 
L 114.859872 158.462679 
L 115.469498 157.778087 
L 116.079123 157.124823 
L 116.688748 156.499941 
L 117.298381 155.90576 
L 117.908007 155.344202 
L 118.517632 154.81295 
L 119.127257 154.309284 
L 119.736882 153.835337 
L 120.346507 153.389563 
L 120.956132 152.975238 
L 121.565758 152.594558 
L 122.175383 152.241383 
L 122.785008 151.917795 
L 123.394633 151.618502 
L 124.004258 151.351045 
L 124.613883 151.108309 
L 125.223517 150.900106 
L 125.833142 150.718219 
L 126.442767 150.563686 
L 127.052392 150.439355 
L 127.662017 150.339244 
L 128.271643 150.266491 
L 128.881268 150.220435 
L 129.490893 150.2 
L 130.100518 150.206114 
L 130.710143 150.237261 
L 131.319768 150.296102 
L 131.929394 150.383117 
L 132.539019 150.493737 
L 133.148652 150.625156 
L 133.758277 150.776968 
L 134.367903 150.960947 
L 134.977528 151.164649 
L 135.587153 151.39116 
L 136.196778 151.639514 
L 136.806403 151.91056 
L 137.416028 152.204749 
L 138.025654 152.519263 
L 138.635279 152.856078 
L 139.244904 153.217727 
L 139.854529 153.595847 
L 140.464154 153.997966 
L 141.073779 154.422533 
L 141.683413 154.862498 
L 142.293038 155.316748 
L 142.902663 155.788458 
L 143.512288 156.281388 
L 144.121913 156.792823 
L 144.731539 157.321598 
L 145.341164 157.870999 
L 145.950789 158.431121 
L 146.560414 159.007118 
L 147.170039 159.603644 
L 147.779664 160.216827 
L 148.38929 160.83985 
L 148.998915 161.475495 
L 149.608548 162.127729 
L 150.218173 162.788083 
L 150.827799 163.460947 
L 151.437424 164.144192 
L 152.047049 164.839554 
L 152.656674 165.543888 
L 153.266299 166.258319 
L 153.875924 166.980163 
L 154.485549 167.706422 
L 155.095175 168.445703 
L 155.7048 169.1913 
L 156.314425 169.943666 
L 156.92405 170.700197 
L 157.533675 171.460025 
L 158.1433 172.225919 
L 158.752926 172.995295 
L 159.362551 173.769078 
L 159.972176 174.540817 
L 160.581801 175.320115 
L 161.191426 176.097996 
L 161.801068 176.879423 
L 162.410693 177.656326 
L 163.020318 178.430783 
L 163.629944 179.212705 
L 164.239569 179.988851 
L 164.849194 180.76028 
L 165.458819 181.531327 
L 166.068444 182.298309 
L 166.678069 183.059931 
L 167.287695 183.823309 
L 167.89732 184.57793 
L 168.506945 185.332337 
L 169.11657 186.086488 
L 169.726195 186.835324 
L 170.33582 187.573975 
L 170.945445 188.312388 
L 171.555071 189.041413 
L 172.164696 189.766211 
L 172.774321 190.483281 
L 173.383946 191.193761 
L 173.993571 191.902132 
L 174.603196 192.601167 
L 175.212821 193.293118 
L 175.822447 193.987804 
L 176.432072 194.67035 
L 177.041697 195.348361 
L 177.651322 196.015425 
L 178.260964 196.683208 
L 178.870589 197.345461 
L 179.480214 197.999568 
L 180.08984 198.649909 
L 180.699465 199.299003 
L 181.30909 199.936005 
L 181.918715 200.567439 
L 182.52834 201.192988 
L 183.137965 201.813302 
L 183.74759 202.426103 
L 184.357216 203.030055 
L 184.966841 203.629817 
L 185.576466 204.22459 
L 186.186091 204.811252 
L 186.795716 205.392823 
L 187.405341 205.970871 
L 188.014967 206.540612 
L 188.624592 207.106388 
L 189.234217 207.661287 
L 189.843842 208.206904 
L 190.453467 208.747877 
L 191.063092 209.286333 
L 191.672717 209.820147 
L 192.282343 210.342713 
L 192.891968 210.862433 
L 193.501593 211.369744 
L 194.111235 211.870439 
L 194.72086 212.363466 
L 195.330485 212.850587 
L 195.94011 213.331451 
L 196.549736 213.804682 
L 197.159361 214.273888 
L 197.768986 214.732145 
L 198.378611 215.183615 
L 198.988236 215.629832 
L 199.597861 216.065641 
L 200.207486 216.493665 
L 200.817112 216.91574 
L 201.426737 217.333861 
L 202.036362 217.745535 
L 202.645987 218.145218 
L 203.255612 218.542384 
L 203.865237 218.932365 
L 204.474862 219.315102 
L 205.084488 219.690307 
L 205.694113 220.058801 
L 206.303738 220.425576 
L 206.913363 220.784578 
L 207.522988 221.136153 
L 208.132613 221.482128 
L 208.132613 238.2 
z
" style="fill:#1f77b4;opacity:0.4;"/>
   </g>
   <g id="matplotlib.axis_2">
    <g id="xtick_7">
     <g id="line2d_7">
      <g>
       <use style="stroke:#000000;stroke-width:0.8;" x="11.190104" xlink:href="#mb57e168a13" y="242.6"/>
      </g>
     </g>
     <g id="text_8">
      <!-- 0 -->
      <g transform="translate(8.008854 257.198438)scale(0.1 -0.1)">
       <use xlink:href="#DejaVuSans-48"/>
      </g>
     </g>
    </g>
    <g id="xtick_8">
     <g id="line2d_8">
      <g>
       <use style="stroke:#000000;stroke-width:0.8;" x="99.497324" xlink:href="#mb57e168a13" y="242.6"/>
      </g>
     </g>
     <g id="text_9">
      <!-- 5 -->
      <g transform="translate(96.316074 257.198438)scale(0.1 -0.1)">
       <use xlink:href="#DejaVuSans-53"/>
      </g>
     </g>
    </g>
    <g id="xtick_9">
     <g id="line2d_9">
      <g>
       <use style="stroke:#000000;stroke-width:0.8;" x="187.804544" xlink:href="#mb57e168a13" y="242.6"/>
      </g>
     </g>
     <g id="text_10">
      <!-- 10 -->
      <defs>
       <path d="M 12.40625 8.296875 
L 28.515625 8.296875 
L 28.515625 63.921875 
L 10.984375 60.40625 
L 10.984375 69.390625 
L 28.421875 72.90625 
L 38.28125 72.90625 
L 38.28125 8.296875 
L 54.390625 8.296875 
L 54.390625 0 
L 12.40625 0 
z
" id="DejaVuSans-49"/>
      </defs>
      <g transform="translate(181.442044 257.198438)scale(0.1 -0.1)">
       <use xlink:href="#DejaVuSans-49"/>
       <use x="63.623047" xlink:href="#DejaVuSans-48"/>
      </g>
     </g>
    </g>
    <g id="xtick_10">
     <g id="line2d_10">
      <g>
       <use style="stroke:#000000;stroke-width:0.8;" x="276.111764" xlink:href="#mb57e168a13" y="242.6"/>
      </g>
     </g>
     <g id="text_11">
      <!-- 15 -->
      <g transform="translate(269.749264 257.198438)scale(0.1 -0.1)">
       <use xlink:href="#DejaVuSans-49"/>
       <use x="63.623047" xlink:href="#DejaVuSans-53"/>
      </g>
     </g>
    </g>
    <g id="xtick_11">
     <g id="line2d_11">
      <g>
       <use style="stroke:#000000;stroke-width:0.8;" x="364.418984" xlink:href="#mb57e168a13" y="242.6"/>
      </g>
     </g>
     <g id="text_12">
      <!-- 20 -->
      <defs>
       <path d="M 19.1875 8.296875 
L 53.609375 8.296875 
L 53.609375 0 
L 7.328125 0 
L 7.328125 8.296875 
Q 12.9375 14.109375 22.625 23.890625 
Q 32.328125 33.6875 34.8125 36.53125 
Q 39.546875 41.84375 41.421875 45.53125 
Q 43.3125 49.21875 43.3125 52.78125 
Q 43.3125 58.59375 39.234375 62.25 
Q 35.15625 65.921875 28.609375 65.921875 
Q 23.96875 65.921875 18.8125 64.3125 
Q 13.671875 62.703125 7.8125 59.421875 
L 7.8125 69.390625 
Q 13.765625 71.78125 18.9375 73 
Q 24.125 74.21875 28.421875 74.21875 
Q 39.75 74.21875 46.484375 68.546875 
Q 53.21875 62.890625 53.21875 53.421875 
Q 53.21875 48.921875 51.53125 44.890625 
Q 49.859375 40.875 45.40625 35.40625 
Q 44.1875 33.984375 37.640625 27.21875 
Q 31.109375 20.453125 19.1875 8.296875 
z
" id="DejaVuSans-50"/>
      </defs>
      <g transform="translate(358.056484 257.198438)scale(0.1 -0.1)">
       <use xlink:href="#DejaVuSans-50"/>
       <use x="63.623047" xlink:href="#DejaVuSans-48"/>
      </g>
     </g>
    </g>
    <g id="text_13">
     <!-- nu -->
     <defs>
      <path d="M 54.890625 33.015625 
L 54.890625 0 
L 45.90625 0 
L 45.90625 32.71875 
Q 45.90625 40.484375 42.875 44.328125 
Q 39.84375 48.1875 33.796875 48.1875 
Q 26.515625 48.1875 22.3125 43.546875 
Q 18.109375 38.921875 18.109375 30.90625 
L 18.109375 0 
L 9.078125 0 
L 9.078125 54.6875 
L 18.109375 54.6875 
L 18.109375 46.1875 
Q 21.34375 51.125 25.703125 53.5625 
Q 30.078125 56 35.796875 56 
Q 45.21875 56 50.046875 50.171875 
Q 54.890625 44.34375 54.890625 33.015625 
z
" id="DejaVuSans-110"/>
      <path d="M 8.5 21.578125 
L 8.5 54.6875 
L 17.484375 54.6875 
L 17.484375 21.921875 
Q 17.484375 14.15625 20.5 10.265625 
Q 23.53125 6.390625 29.59375 6.390625 
Q 36.859375 6.390625 41.078125 11.03125 
Q 45.3125 15.671875 45.3125 23.6875 
L 45.3125 54.6875 
L 54.296875 54.6875 
L 54.296875 0 
L 45.3125 0 
L 45.3125 8.40625 
Q 42.046875 3.421875 37.71875 1 
Q 33.40625 -1.421875 27.6875 -1.421875 
Q 18.265625 -1.421875 13.375 4.4375 
Q 8.5 10.296875 8.5 21.578125 
z
M 31.109375 56 
z
" id="DejaVuSans-117"/>
     </defs>
     <g transform="translate(206.0625 270.876562)scale(0.1 -0.1)">
      <use xlink:href="#DejaVuSans-110"/>
      <use x="63.378906" xlink:href="#DejaVuSans-117"/>
     </g>
    </g>
   </g>
   <g id="patch_9">
    <path d="M 7.2 242.6 
L 417.6 242.6 
" style="fill:none;stroke:#000000;stroke-linecap:square;stroke-linejoin:miter;stroke-width:0.8;"/>
   </g>
  </g>
 </g>
 <defs>
  <clipPath id="pe28d41f38c">
   <rect height="96.8" width="410.4" x="7.2" y="7.2"/>
  </clipPath>
  <clipPath id="pa7036ca789">
   <rect height="96.8" width="410.4" x="7.2" y="145.8"/>
  </clipPath>
 </defs>
</svg>
