<?xml version="1.0" encoding="utf-8" standalone="no"?>
<!DOCTYPE svg PUBLIC "-//W3C//DTD SVG 1.1//EN"
  "http://www.w3.org/Graphics/SVG/1.1/DTD/svg11.dtd">
<!-- Created with matplotlib (https://matplotlib.org/) -->
<svg height="345.6pt" version="1.1" viewBox="0 0 460.8 345.6" width="460.8pt" xmlns="http://www.w3.org/2000/svg" xmlns:xlink="http://www.w3.org/1999/xlink">
 <defs>
  <style type="text/css">
*{stroke-linecap:butt;stroke-linejoin:round;}
  </style>
 </defs>
 <g id="figure_1">
  <g id="patch_1">
   <path d="M 0 345.6 
L 460.8 345.6 
L 460.8 0 
L 0 0 
z
" style="fill:#ffffff;"/>
  </g>
  <g id="axes_1">
   <g id="patch_2">
    <path d="M 57.6 307.584 
L 414.72 307.584 
L 414.72 41.472 
L 57.6 41.472 
z
" style="fill:#ffffff;"/>
   </g>
   <g id="matplotlib.axis_1">
    <g id="xtick_1">
     <g id="line2d_1">
      <defs>
       <path d="M 0 0 
L 0 3.5 
" id="mba6971f12c" style="stroke:#000000;stroke-width:0.8;"/>
      </defs>
      <g>
       <use style="stroke:#000000;stroke-width:0.8;" x="107.419596" xlink:href="#mba6971f12c" y="307.584"/>
      </g>
     </g>
     <g id="text_1">
      <!-- −2 -->
      <defs>
       <path d="M 10.59375 35.5 
L 73.1875 35.5 
L 73.1875 27.203125 
L 10.59375 27.203125 
z
" id="DejaVuSans-8722"/>
       <path d="M 19.1875 8.296875 
L 53.609375 8.296875 
L 53.609375 0 
L 7.328125 0 
L 7.328125 8.296875 
Q 12.9375 14.109375 22.625 23.890625 
Q 32.328125 33.6875 34.8125 36.53125 
Q 39.546875 41.84375 41.421875 45.53125 
Q 43.3125 49.21875 43.3125 52.78125 
Q 43.3125 58.59375 39.234375 62.25 
Q 35.15625 65.921875 28.609375 65.921875 
Q 23.96875 65.921875 18.8125 64.3125 
Q 13.671875 62.703125 7.8125 59.421875 
L 7.8125 69.390625 
Q 13.765625 71.78125 18.9375 73 
Q 24.125 74.21875 28.421875 74.21875 
Q 39.75 74.21875 46.484375 68.546875 
Q 53.21875 62.890625 53.21875 53.421875 
Q 53.21875 48.921875 51.53125 44.890625 
Q 49.859375 40.875 45.40625 35.40625 
Q 44.1875 33.984375 37.640625 27.21875 
Q 31.109375 20.453125 19.1875 8.296875 
z
" id="DejaVuSans-50"/>
      </defs>
      <g transform="translate(100.048502 322.182437)scale(0.1 -0.1)">
       <use xlink:href="#DejaVuSans-8722"/>
       <use x="83.789062" xlink:href="#DejaVuSans-50"/>
      </g>
     </g>
    </g>
    <g id="xtick_2">
     <g id="line2d_2">
      <g>
       <use style="stroke:#000000;stroke-width:0.8;" x="158.678079" xlink:href="#mba6971f12c" y="307.584"/>
      </g>
     </g>
     <g id="text_2">
      <!-- −1 -->
      <defs>
       <path d="M 12.40625 8.296875 
L 28.515625 8.296875 
L 28.515625 63.921875 
L 10.984375 60.40625 
L 10.984375 69.390625 
L 28.421875 72.90625 
L 38.28125 72.90625 
L 38.28125 8.296875 
L 54.390625 8.296875 
L 54.390625 0 
L 12.40625 0 
z
" id="DejaVuSans-49"/>
      </defs>
      <g transform="translate(151.306985 322.182437)scale(0.1 -0.1)">
       <use xlink:href="#DejaVuSans-8722"/>
       <use x="83.789062" xlink:href="#DejaVuSans-49"/>
      </g>
     </g>
    </g>
    <g id="xtick_3">
     <g id="line2d_3">
      <g>
       <use style="stroke:#000000;stroke-width:0.8;" x="209.936562" xlink:href="#mba6971f12c" y="307.584"/>
      </g>
     </g>
     <g id="text_3">
      <!-- 0 -->
      <defs>
       <path d="M 31.78125 66.40625 
Q 24.171875 66.40625 20.328125 58.90625 
Q 16.5 51.421875 16.5 36.375 
Q 16.5 21.390625 20.328125 13.890625 
Q 24.171875 6.390625 31.78125 6.390625 
Q 39.453125 6.390625 43.28125 13.890625 
Q 47.125 21.390625 47.125 36.375 
Q 47.125 51.421875 43.28125 58.90625 
Q 39.453125 66.40625 31.78125 66.40625 
z
M 31.78125 74.21875 
Q 44.046875 74.21875 50.515625 64.515625 
Q 56.984375 54.828125 56.984375 36.375 
Q 56.984375 17.96875 50.515625 8.265625 
Q 44.046875 -1.421875 31.78125 -1.421875 
Q 19.53125 -1.421875 13.0625 8.265625 
Q 6.59375 17.96875 6.59375 36.375 
Q 6.59375 54.828125 13.0625 64.515625 
Q 19.53125 74.21875 31.78125 74.21875 
z
" id="DejaVuSans-48"/>
      </defs>
      <g transform="translate(206.755312 322.182437)scale(0.1 -0.1)">
       <use xlink:href="#DejaVuSans-48"/>
      </g>
     </g>
    </g>
    <g id="xtick_4">
     <g id="line2d_4">
      <g>
       <use style="stroke:#000000;stroke-width:0.8;" x="261.195046" xlink:href="#mba6971f12c" y="307.584"/>
      </g>
     </g>
     <g id="text_4">
      <!-- 1 -->
      <g transform="translate(258.013796 322.182437)scale(0.1 -0.1)">
       <use xlink:href="#DejaVuSans-49"/>
      </g>
     </g>
    </g>
    <g id="xtick_5">
     <g id="line2d_5">
      <g>
       <use style="stroke:#000000;stroke-width:0.8;" x="312.453529" xlink:href="#mba6971f12c" y="307.584"/>
      </g>
     </g>
     <g id="text_5">
      <!-- 2 -->
      <g transform="translate(309.272279 322.182437)scale(0.1 -0.1)">
       <use xlink:href="#DejaVuSans-50"/>
      </g>
     </g>
    </g>
    <g id="xtick_6">
     <g id="line2d_6">
      <g>
       <use style="stroke:#000000;stroke-width:0.8;" x="363.712012" xlink:href="#mba6971f12c" y="307.584"/>
      </g>
     </g>
     <g id="text_6">
      <!-- 3 -->
      <defs>
       <path d="M 40.578125 39.3125 
Q 47.65625 37.796875 51.625 33 
Q 55.609375 28.21875 55.609375 21.1875 
Q 55.609375 10.40625 48.1875 4.484375 
Q 40.765625 -1.421875 27.09375 -1.421875 
Q 22.515625 -1.421875 17.65625 -0.515625 
Q 12.796875 0.390625 7.625 2.203125 
L 7.625 11.71875 
Q 11.71875 9.328125 16.59375 8.109375 
Q 21.484375 6.890625 26.8125 6.890625 
Q 36.078125 6.890625 40.9375 10.546875 
Q 45.796875 14.203125 45.796875 21.1875 
Q 45.796875 27.640625 41.28125 31.265625 
Q 36.765625 34.90625 28.71875 34.90625 
L 20.21875 34.90625 
L 20.21875 43.015625 
L 29.109375 43.015625 
Q 36.375 43.015625 40.234375 45.921875 
Q 44.09375 48.828125 44.09375 54.296875 
Q 44.09375 59.90625 40.109375 62.90625 
Q 36.140625 65.921875 28.71875 65.921875 
Q 24.65625 65.921875 20.015625 65.03125 
Q 15.375 64.15625 9.8125 62.3125 
L 9.8125 71.09375 
Q 15.4375 72.65625 20.34375 73.4375 
Q 25.25 74.21875 29.59375 74.21875 
Q 40.828125 74.21875 47.359375 69.109375 
Q 53.90625 64.015625 53.90625 55.328125 
Q 53.90625 49.265625 50.4375 45.09375 
Q 46.96875 40.921875 40.578125 39.3125 
z
" id="DejaVuSans-51"/>
      </defs>
      <g transform="translate(360.530762 322.182437)scale(0.1 -0.1)">
       <use xlink:href="#DejaVuSans-51"/>
      </g>
     </g>
    </g>
   </g>
   <g id="matplotlib.axis_2">
    <g id="ytick_1">
     <g id="line2d_7">
      <defs>
       <path d="M 0 0 
L -3.5 0 
" id="m40a848d15f" style="stroke:#000000;stroke-width:0.8;"/>
      </defs>
      <g>
       <use style="stroke:#000000;stroke-width:0.8;" x="57.6" xlink:href="#m40a848d15f" y="271.805885"/>
      </g>
     </g>
     <g id="text_7">
      <!-- −2 -->
      <g transform="translate(35.857813 275.605104)scale(0.1 -0.1)">
       <use xlink:href="#DejaVuSans-8722"/>
       <use x="83.789062" xlink:href="#DejaVuSans-50"/>
      </g>
     </g>
    </g>
    <g id="ytick_2">
     <g id="line2d_8">
      <g>
       <use style="stroke:#000000;stroke-width:0.8;" x="57.6" xlink:href="#m40a848d15f" y="220.15832"/>
      </g>
     </g>
     <g id="text_8">
      <!-- −1 -->
      <g transform="translate(35.857813 223.957539)scale(0.1 -0.1)">
       <use xlink:href="#DejaVuSans-8722"/>
       <use x="83.789062" xlink:href="#DejaVuSans-49"/>
      </g>
     </g>
    </g>
    <g id="ytick_3">
     <g id="line2d_9">
      <g>
       <use style="stroke:#000000;stroke-width:0.8;" x="57.6" xlink:href="#m40a848d15f" y="168.510756"/>
      </g>
     </g>
     <g id="text_9">
      <!-- 0 -->
      <g transform="translate(44.2375 172.309975)scale(0.1 -0.1)">
       <use xlink:href="#DejaVuSans-48"/>
      </g>
     </g>
    </g>
    <g id="ytick_4">
     <g id="line2d_10">
      <g>
       <use style="stroke:#000000;stroke-width:0.8;" x="57.6" xlink:href="#m40a848d15f" y="116.863192"/>
      </g>
     </g>
     <g id="text_10">
      <!-- 1 -->
      <g transform="translate(44.2375 120.66241)scale(0.1 -0.1)">
       <use xlink:href="#DejaVuSans-49"/>
      </g>
     </g>
    </g>
    <g id="ytick_5">
     <g id="line2d_11">
      <g>
       <use style="stroke:#000000;stroke-width:0.8;" x="57.6" xlink:href="#m40a848d15f" y="65.215627"/>
      </g>
     </g>
     <g id="text_11">
      <!-- 2 -->
      <g transform="translate(44.2375 69.014846)scale(0.1 -0.1)">
       <use xlink:href="#DejaVuSans-50"/>
      </g>
     </g>
    </g>
   </g>
   <g id="line2d_12">
    <defs>
     <path d="M 0 1.5 
C 0.397805 1.5 0.77937 1.341951 1.06066 1.06066 
C 1.341951 0.77937 1.5 0.397805 1.5 0 
C 1.5 -0.397805 1.341951 -0.77937 1.06066 -1.06066 
C 0.77937 -1.341951 0.397805 -1.5 0 -1.5 
C -0.397805 -1.5 -0.77937 -1.341951 -1.06066 -1.06066 
C -1.341951 -0.77937 -1.5 -0.397805 -1.5 0 
C -1.5 0.397805 -1.341951 0.77937 -1.06066 1.06066 
C -0.77937 1.341951 -0.397805 1.5 0 1.5 
z
" id="m27905c8130" style="stroke:#1f77b4;"/>
    </defs>
    <g clip-path="url(#p492ff6bfbe)">
     <use style="fill:#1f77b4;stroke:#1f77b4;" x="153.210775" xlink:href="#m27905c8130" y="233.128683"/>
     <use style="fill:#1f77b4;stroke:#1f77b4;" x="244.272692" xlink:href="#m27905c8130" y="262.733331"/>
     <use style="fill:#1f77b4;stroke:#1f77b4;" x="184.148579" xlink:href="#m27905c8130" y="162.902544"/>
     <use style="fill:#1f77b4;stroke:#1f77b4;" x="174.156741" xlink:href="#m27905c8130" y="95.992358"/>
     <use style="fill:#1f77b4;stroke:#1f77b4;" x="275.119899" xlink:href="#m27905c8130" y="139.051487"/>
     <use style="fill:#1f77b4;stroke:#1f77b4;" x="164.06378" xlink:href="#m27905c8130" y="188.890132"/>
     <use style="fill:#1f77b4;stroke:#1f77b4;" x="142.198913" xlink:href="#m27905c8130" y="199.856841"/>
     <use style="fill:#1f77b4;stroke:#1f77b4;" x="304.824378" xlink:href="#m27905c8130" y="133.884184"/>
     <use style="fill:#1f77b4;stroke:#1f77b4;" x="226.627704" xlink:href="#m27905c8130" y="139.084571"/>
     <use style="fill:#1f77b4;stroke:#1f77b4;" x="228.14237" xlink:href="#m27905c8130" y="132.125609"/>
     <use style="fill:#1f77b4;stroke:#1f77b4;" x="156.32424" xlink:href="#m27905c8130" y="119.248323"/>
     <use style="fill:#1f77b4;stroke:#1f77b4;" x="175.827962" xlink:href="#m27905c8130" y="251.195266"/>
     <use style="fill:#1f77b4;stroke:#1f77b4;" x="234.453275" xlink:href="#m27905c8130" y="114.026051"/>
     <use style="fill:#1f77b4;stroke:#1f77b4;" x="290.120657" xlink:href="#m27905c8130" y="228.666252"/>
     <use style="fill:#1f77b4;stroke:#1f77b4;" x="131.865266" xlink:href="#m27905c8130" y="187.892838"/>
     <use style="fill:#1f77b4;stroke:#1f77b4;" x="223.095237" xlink:href="#m27905c8130" y="184.056539"/>
     <use style="fill:#1f77b4;stroke:#1f77b4;" x="211.65458" xlink:href="#m27905c8130" y="295.488"/>
     <use style="fill:#1f77b4;stroke:#1f77b4;" x="183.572021" xlink:href="#m27905c8130" y="137.253318"/>
     <use style="fill:#1f77b4;stroke:#1f77b4;" x="238.688049" xlink:href="#m27905c8130" y="160.363901"/>
     <use style="fill:#1f77b4;stroke:#1f77b4;" x="178.017723" xlink:href="#m27905c8130" y="195.20753"/>
     <use style="fill:#1f77b4;stroke:#1f77b4;" x="185.732277" xlink:href="#m27905c8130" y="237.071746"/>
     <use style="fill:#1f77b4;stroke:#1f77b4;" x="268.124705" xlink:href="#m27905c8130" y="188.317416"/>
     <use style="fill:#1f77b4;stroke:#1f77b4;" x="201.872116" xlink:href="#m27905c8130" y="141.206502"/>
     <use style="fill:#1f77b4;stroke:#1f77b4;" x="225.60461" xlink:href="#m27905c8130" y="200.281388"/>
     <use style="fill:#1f77b4;stroke:#1f77b4;" x="242.37289" xlink:href="#m27905c8130" y="152.12229"/>
     <use style="fill:#1f77b4;stroke:#1f77b4;" x="251.700179" xlink:href="#m27905c8130" y="56.705331"/>
     <use style="fill:#1f77b4;stroke:#1f77b4;" x="129.533926" xlink:href="#m27905c8130" y="76.562824"/>
     <use style="fill:#1f77b4;stroke:#1f77b4;" x="192.877866" xlink:href="#m27905c8130" y="165.155376"/>
     <use style="fill:#1f77b4;stroke:#1f77b4;" x="239.995745" xlink:href="#m27905c8130" y="112.994935"/>
     <use style="fill:#1f77b4;stroke:#1f77b4;" x="243.947963" xlink:href="#m27905c8130" y="216.204182"/>
     <use style="fill:#1f77b4;stroke:#1f77b4;" x="187.881754" xlink:href="#m27905c8130" y="122.335119"/>
     <use style="fill:#1f77b4;stroke:#1f77b4;" x="252.062186" xlink:href="#m27905c8130" y="152.783005"/>
     <use style="fill:#1f77b4;stroke:#1f77b4;" x="221.868544" xlink:href="#m27905c8130" y="174.974174"/>
     <use style="fill:#1f77b4;stroke:#1f77b4;" x="219.062409" xlink:href="#m27905c8130" y="96.279613"/>
     <use style="fill:#1f77b4;stroke:#1f77b4;" x="143.366279" xlink:href="#m27905c8130" y="159.765362"/>
     <use style="fill:#1f77b4;stroke:#1f77b4;" x="148.180274" xlink:href="#m27905c8130" y="211.161167"/>
     <use style="fill:#1f77b4;stroke:#1f77b4;" x="285.696915" xlink:href="#m27905c8130" y="244.683028"/>
     <use style="fill:#1f77b4;stroke:#1f77b4;" x="199.356524" xlink:href="#m27905c8130" y="200.593559"/>
     <use style="fill:#1f77b4;stroke:#1f77b4;" x="199.113412" xlink:href="#m27905c8130" y="244.515653"/>
     <use style="fill:#1f77b4;stroke:#1f77b4;" x="192.6898" xlink:href="#m27905c8130" y="53.568"/>
     <use style="fill:#1f77b4;stroke:#1f77b4;" x="315.523536" xlink:href="#m27905c8130" y="190.531852"/>
     <use style="fill:#1f77b4;stroke:#1f77b4;" x="277.494154" xlink:href="#m27905c8130" y="178.626031"/>
     <use style="fill:#1f77b4;stroke:#1f77b4;" x="202.928256" xlink:href="#m27905c8130" y="104.995579"/>
     <use style="fill:#1f77b4;stroke:#1f77b4;" x="236.932754" xlink:href="#m27905c8130" y="72.399456"/>
     <use style="fill:#1f77b4;stroke:#1f77b4;" x="216.109222" xlink:href="#m27905c8130" y="58.021461"/>
     <use style="fill:#1f77b4;stroke:#1f77b4;" x="223.899199" xlink:href="#m27905c8130" y="181.493536"/>
     <use style="fill:#1f77b4;stroke:#1f77b4;" x="171.15156" xlink:href="#m27905c8130" y="171.059889"/>
     <use style="fill:#1f77b4;stroke:#1f77b4;" x="191.674986" xlink:href="#m27905c8130" y="109.097668"/>
     <use style="fill:#1f77b4;stroke:#1f77b4;" x="217.568419" xlink:href="#m27905c8130" y="115.678782"/>
     <use style="fill:#1f77b4;stroke:#1f77b4;" x="186.420711" xlink:href="#m27905c8130" y="162.103703"/>
     <use style="fill:#1f77b4;stroke:#1f77b4;" x="161.863644" xlink:href="#m27905c8130" y="90.480347"/>
     <use style="fill:#1f77b4;stroke:#1f77b4;" x="106.778777" xlink:href="#m27905c8130" y="234.635226"/>
     <use style="fill:#1f77b4;stroke:#1f77b4;" x="263.645565" xlink:href="#m27905c8130" y="159.661645"/>
     <use style="fill:#1f77b4;stroke:#1f77b4;" x="254.060364" xlink:href="#m27905c8130" y="72.097757"/>
     <use style="fill:#1f77b4;stroke:#1f77b4;" x="253.20833" xlink:href="#m27905c8130" y="241.289835"/>
     <use style="fill:#1f77b4;stroke:#1f77b4;" x="232.934155" xlink:href="#m27905c8130" y="209.633952"/>
     <use style="fill:#1f77b4;stroke:#1f77b4;" x="279.746241" xlink:href="#m27905c8130" y="147.567629"/>
     <use style="fill:#1f77b4;stroke:#1f77b4;" x="240.468132" xlink:href="#m27905c8130" y="147.21885"/>
     <use style="fill:#1f77b4;stroke:#1f77b4;" x="191.980449" xlink:href="#m27905c8130" y="151.575765"/>
     <use style="fill:#1f77b4;stroke:#1f77b4;" x="283.862375" xlink:href="#m27905c8130" y="132.975463"/>
     <use style="fill:#1f77b4;stroke:#1f77b4;" x="146.694625" xlink:href="#m27905c8130" y="203.961327"/>
     <use style="fill:#1f77b4;stroke:#1f77b4;" x="179.267739" xlink:href="#m27905c8130" y="168.061142"/>
     <use style="fill:#1f77b4;stroke:#1f77b4;" x="292.962083" xlink:href="#m27905c8130" y="114.70527"/>
     <use style="fill:#1f77b4;stroke:#1f77b4;" x="251.195884" xlink:href="#m27905c8130" y="210.499128"/>
     <use style="fill:#1f77b4;stroke:#1f77b4;" x="234.815464" xlink:href="#m27905c8130" y="198.740092"/>
     <use style="fill:#1f77b4;stroke:#1f77b4;" x="292.477967" xlink:href="#m27905c8130" y="217.144117"/>
     <use style="fill:#1f77b4;stroke:#1f77b4;" x="165.964569" xlink:href="#m27905c8130" y="118.340985"/>
     <use style="fill:#1f77b4;stroke:#1f77b4;" x="156.243936" xlink:href="#m27905c8130" y="127.095939"/>
     <use style="fill:#1f77b4;stroke:#1f77b4;" x="242.271538" xlink:href="#m27905c8130" y="87.005977"/>
     <use style="fill:#1f77b4;stroke:#1f77b4;" x="246.924687" xlink:href="#m27905c8130" y="224.746321"/>
     <use style="fill:#1f77b4;stroke:#1f77b4;" x="268.373371" xlink:href="#m27905c8130" y="250.208012"/>
     <use style="fill:#1f77b4;stroke:#1f77b4;" x="242.518986" xlink:href="#m27905c8130" y="117.375822"/>
     <use style="fill:#1f77b4;stroke:#1f77b4;" x="146.087829" xlink:href="#m27905c8130" y="148.74348"/>
     <use style="fill:#1f77b4;stroke:#1f77b4;" x="266.318964" xlink:href="#m27905c8130" y="168.970161"/>
     <use style="fill:#1f77b4;stroke:#1f77b4;" x="246.336427" xlink:href="#m27905c8130" y="190.437375"/>
     <use style="fill:#1f77b4;stroke:#1f77b4;" x="260.643476" xlink:href="#m27905c8130" y="111.161432"/>
     <use style="fill:#1f77b4;stroke:#1f77b4;" x="73.832727" xlink:href="#m27905c8130" y="220.719347"/>
     <use style="fill:#1f77b4;stroke:#1f77b4;" x="234.808437" xlink:href="#m27905c8130" y="213.603831"/>
     <use style="fill:#1f77b4;stroke:#1f77b4;" x="321.133696" xlink:href="#m27905c8130" y="175.578918"/>
     <use style="fill:#1f77b4;stroke:#1f77b4;" x="191.926548" xlink:href="#m27905c8130" y="127.561008"/>
     <use style="fill:#1f77b4;stroke:#1f77b4;" x="247.876245" xlink:href="#m27905c8130" y="129.881126"/>
     <use style="fill:#1f77b4;stroke:#1f77b4;" x="201.371383" xlink:href="#m27905c8130" y="145.896618"/>
     <use style="fill:#1f77b4;stroke:#1f77b4;" x="398.487273" xlink:href="#m27905c8130" y="170.486683"/>
     <use style="fill:#1f77b4;stroke:#1f77b4;" x="175.41152" xlink:href="#m27905c8130" y="220.400039"/>
     <use style="fill:#1f77b4;stroke:#1f77b4;" x="177.225501" xlink:href="#m27905c8130" y="187.051193"/>
     <use style="fill:#1f77b4;stroke:#1f77b4;" x="195.447259" xlink:href="#m27905c8130" y="136.606659"/>
     <use style="fill:#1f77b4;stroke:#1f77b4;" x="285.735814" xlink:href="#m27905c8130" y="79.63089"/>
     <use style="fill:#1f77b4;stroke:#1f77b4;" x="172.054981" xlink:href="#m27905c8130" y="161.51959"/>
     <use style="fill:#1f77b4;stroke:#1f77b4;" x="257.925663" xlink:href="#m27905c8130" y="72.732697"/>
     <use style="fill:#1f77b4;stroke:#1f77b4;" x="259.514158" xlink:href="#m27905c8130" y="257.983343"/>
     <use style="fill:#1f77b4;stroke:#1f77b4;" x="163.761867" xlink:href="#m27905c8130" y="130.934095"/>
     <use style="fill:#1f77b4;stroke:#1f77b4;" x="227.767143" xlink:href="#m27905c8130" y="122.169213"/>
     <use style="fill:#1f77b4;stroke:#1f77b4;" x="222.41585" xlink:href="#m27905c8130" y="192.553547"/>
     <use style="fill:#1f77b4;stroke:#1f77b4;" x="278.73399" xlink:href="#m27905c8130" y="115.268445"/>
     <use style="fill:#1f77b4;stroke:#1f77b4;" x="227.758405" xlink:href="#m27905c8130" y="177.136379"/>
     <use style="fill:#1f77b4;stroke:#1f77b4;" x="207.033933" xlink:href="#m27905c8130" y="257.013698"/>
     <use style="fill:#1f77b4;stroke:#1f77b4;" x="230.698616" xlink:href="#m27905c8130" y="84.261749"/>
     <use style="fill:#1f77b4;stroke:#1f77b4;" x="233.875813" xlink:href="#m27905c8130" y="147.615634"/>
     <use style="fill:#1f77b4;stroke:#1f77b4;" x="145.306622" xlink:href="#m27905c8130" y="134.912178"/>
     <use style="fill:#1f77b4;stroke:#1f77b4;" x="195.075547" xlink:href="#m27905c8130" y="126.293435"/>
    </g>
   </g>
   <g id="patch_3">
    <path d="M 57.6 307.584 
L 57.6 41.472 
" style="fill:none;stroke:#000000;stroke-linecap:square;stroke-linejoin:miter;stroke-width:0.8;"/>
   </g>
   <g id="patch_4">
    <path d="M 414.72 307.584 
L 414.72 41.472 
" style="fill:none;stroke:#000000;stroke-linecap:square;stroke-linejoin:miter;stroke-width:0.8;"/>
   </g>
   <g id="patch_5">
    <path d="M 57.6 307.584 
L 414.72 307.584 
" style="fill:none;stroke:#000000;stroke-linecap:square;stroke-linejoin:miter;stroke-width:0.8;"/>
   </g>
   <g id="patch_6">
    <path d="M 57.6 41.472 
L 414.72 41.472 
" style="fill:none;stroke:#000000;stroke-linecap:square;stroke-linejoin:miter;stroke-width:0.8;"/>
   </g>
  </g>
 </g>
 <defs>
  <clipPath id="p492ff6bfbe">
   <rect height="266.112" width="357.12" x="57.6" y="41.472"/>
  </clipPath>
 </defs>
</svg>
