<svg viewBox="0 0 474 204" fill="none" stroke-linecap="square" stroke-miterlimit="10" xmlns="http://www.w3.org/2000/svg"><clipPath id="a"><path d="M0 0h474v204H0V0z"/></clipPath><g clip-path="url(#a)"><path fill="#000" fill-opacity="0" d="M0 0h474v204H0zM70.4 89.2l41.7-24" fill-rule="evenodd"/><path stroke="#000" stroke-linejoin="round" stroke-linecap="butt" d="M70.4 89.2l41.7-24" fill-rule="evenodd"/><path fill="#000" fill-opacity="0" d="M70.4 89.2h41.7" fill-rule="evenodd"/><path stroke="#000" stroke-linejoin="round" stroke-linecap="butt" d="M70.4 89.2h41.7" fill-rule="evenodd"/><path fill="#000" fill-opacity="0" d="M70.4 89.2l41.7 24" fill-rule="evenodd"/><path stroke="#000" stroke-linejoin="round" stroke-linecap="butt" d="M70.4 89.2l41.7 24" fill-rule="evenodd"/><path fill="#000" fill-opacity="0" d="M70.4 89.2l41.7 48" fill-rule="evenodd"/><path stroke="#000" stroke-linejoin="round" stroke-linecap="butt" d="M70.4 89.2l41.7 48" fill-rule="evenodd"/><path fill="#000" fill-opacity="0" d="M70.4 89.2l41.7 72" fill-rule="evenodd"/><path stroke="#000" stroke-linejoin="round" stroke-linecap="butt" d="M70.4 89.2l41.7 72" fill-rule="evenodd"/><path fill="#000" fill-opacity="0" d="M70.4 113.2l41.7-48" fill-rule="evenodd"/><path stroke="#000" stroke-linejoin="round" stroke-linecap="butt" d="M70.4 113.2l41.7-48" fill-rule="evenodd"/><path fill="#000" fill-opacity="0" d="M70.4 113.2l41.7-24" fill-rule="evenodd"/><path stroke="#000" stroke-linejoin="round" stroke-linecap="butt" d="M70.4 113.2l41.7-24" fill-rule="evenodd"/><path fill="#000" fill-opacity="0" d="M70.4 113.2h41.7" fill-rule="evenodd"/><path stroke="#000" stroke-linejoin="round" stroke-linecap="butt" d="M70.4 113.2h41.7" fill-rule="evenodd"/><path fill="#000" fill-opacity="0" d="M70.4 113.2l41.7 24" fill-rule="evenodd"/><path stroke="#000" stroke-linejoin="round" stroke-linecap="butt" d="M70.4 113.2l41.7 24" fill-rule="evenodd"/><path fill="#000" fill-opacity="0" d="M70.4 113.2l41.7 48" fill-rule="evenodd"/><path stroke="#000" stroke-linejoin="round" stroke-linecap="butt" d="M70.4 113.2l41.7 48" fill-rule="evenodd"/><path fill="#000" fill-opacity="0" d="M70.4 137.2l41.7-72" fill-rule="evenodd"/><path stroke="#000" stroke-linejoin="round" stroke-linecap="butt" d="M70.4 137.2l41.7-72" fill-rule="evenodd"/><path fill="#000" fill-opacity="0" d="M70.4 137.2l41.7-48" fill-rule="evenodd"/><path stroke="#000" stroke-linejoin="round" stroke-linecap="butt" d="M70.4 137.2l41.7-48" fill-rule="evenodd"/><path fill="#000" fill-opacity="0" d="M70.4 137.2l41.7-24" fill-rule="evenodd"/><path stroke="#000" stroke-linejoin="round" stroke-linecap="butt" d="M70.4 137.2l41.7-24" fill-rule="evenodd"/><path fill="#000" fill-opacity="0" d="M70.4 137.2h41.7" fill-rule="evenodd"/><path stroke="#000" stroke-linejoin="round" stroke-linecap="butt" d="M70.4 137.2h41.7" fill-rule="evenodd"/><path fill="#000" fill-opacity="0" d="M70.4 137.2l41.7 24" fill-rule="evenodd"/><path stroke="#000" stroke-linejoin="round" stroke-linecap="butt" d="M70.4 137.2l41.7 24" fill-rule="evenodd"/><path fill="#d9ead3" d="M224.1 89.2c0-4 3.2-7.1 7.2-7.1a7.1 7.1 0 017.1 7.1c0 4-3.2 7.2-7.1 7.2-4 0-7.2-3.2-7.2-7.2z" fill-rule="evenodd"/><path stroke="#000" stroke-linejoin="round" stroke-linecap="butt" d="M224.1 89.2h0c0-4 3.2-7.1 7.2-7.1h0a7.1 7.1 0 017.1 7.1h0c0 4-3.2 7.2-7.1 7.2h0c-4 0-7.2-3.2-7.2-7.2z" fill-rule="evenodd"/><path fill="#d9ead3" d="M224.1 113.2c0-4 3.2-7.1 7.2-7.1a7.1 7.1 0 017.1 7.1c0 4-3.2 7.2-7.1 7.2-4 0-7.2-3.2-7.2-7.2z" fill-rule="evenodd"/><path stroke="#000" stroke-linejoin="round" stroke-linecap="butt" d="M224.1 113.2h0c0-4 3.2-7.1 7.2-7.1h0a7.1 7.1 0 017.1 7.1h0c0 4-3.2 7.2-7.1 7.2h0c-4 0-7.2-3.2-7.2-7.2z" fill-rule="evenodd"/><path fill="#d9ead3" d="M224.1 137.2c0-4 3.2-7.1 7.2-7.1a7.1 7.1 0 017.1 7.1c0 4-3.2 7.2-7.1 7.2-4 0-7.2-3.2-7.2-7.2z" fill-rule="evenodd"/><path stroke="#000" stroke-linejoin="round" stroke-linecap="butt" d="M224.1 137.2h0c0-4 3.2-7.1 7.2-7.1h0a7.1 7.1 0 017.1 7.1h0c0 4-3.2 7.2-7.1 7.2h0c-4 0-7.2-3.2-7.2-7.2z" fill-rule="evenodd"/><path fill="#d9ead3" d="M280.1 125.1c0-4 3.2-7.1 7.2-7.1a7.1 7.1 0 017.1 7.1c0 4-3.2 7.2-7.1 7.2-4 0-7.2-3.2-7.2-7.2z" fill-rule="evenodd"/><path stroke="#000" stroke-linejoin="round" stroke-linecap="butt" d="M280.1 125.1h0c0-4 3.2-7.1 7.2-7.1h0a7.1 7.1 0 017.1 7.1h0c0 4-3.2 7.2-7.1 7.2h0c-4 0-7.2-3.2-7.2-7.2z" fill-rule="evenodd"/><path fill="#d9ead3" d="M280.1 101.1c0-4 3.2-7.1 7.2-7.1a7.1 7.1 0 017.1 7.1c0 4-3.2 7.2-7.1 7.2-4 0-7.2-3.2-7.2-7.2z" fill-rule="evenodd"/><path stroke="#000" stroke-linejoin="round" stroke-linecap="butt" d="M280.1 101.1h0c0-4 3.2-7.1 7.2-7.1h0a7.1 7.1 0 017.1 7.1h0c0 4-3.2 7.2-7.1 7.2h0c-4 0-7.2-3.2-7.2-7.2z" fill-rule="evenodd"/><path fill="#d9ead3" d="M336.1 113.2c0-4 3.2-7.1 7.2-7.1a7.1 7.1 0 017.1 7.1c0 4-3.2 7.2-7.1 7.2-4 0-7.2-3.2-7.2-7.2z" fill-rule="evenodd"/><path stroke="#000" stroke-linejoin="round" stroke-linecap="butt" d="M336.1 113.2h0c0-4 3.2-7.1 7.2-7.1h0a7.1 7.1 0 017.1 7.1h0c0 4-3.2 7.2-7.1 7.2h0c-4 0-7.2-3.2-7.2-7.2z" fill-rule="evenodd"/><path fill="#000" fill-opacity="0" d="M238.4 89.2l41.7 12" fill-rule="evenodd"/><path stroke="#000" stroke-linejoin="round" stroke-linecap="butt" d="M238.4 89.2l41.7 12" fill-rule="evenodd"/><path fill="#000" fill-opacity="0" d="M238.4 89.2l41.7 36" fill-rule="evenodd"/><path stroke="#000" stroke-linejoin="round" stroke-linecap="butt" d="M238.4 89.2l41.7 36" fill-rule="evenodd"/><path fill="#000" fill-opacity="0" d="M238.4 113.2l41.7-12" fill-rule="evenodd"/><path stroke="#000" stroke-linejoin="round" stroke-linecap="butt" d="M238.4 113.2l41.7-12" fill-rule="evenodd"/><path fill="#000" fill-opacity="0" d="M238.4 113.2l41.7 12" fill-rule="evenodd"/><path stroke="#000" stroke-linejoin="round" stroke-linecap="butt" d="M238.4 113.2l41.7 12" fill-rule="evenodd"/><path fill="#000" fill-opacity="0" d="M238.4 137.2l41.7-36" fill-rule="evenodd"/><path stroke="#000" stroke-linejoin="round" stroke-linecap="butt" d="M238.4 137.2l41.7-36" fill-rule="evenodd"/><path fill="#000" fill-opacity="0" d="M238.4 137.2l41.7-12" fill-rule="evenodd"/><path stroke="#000" stroke-linejoin="round" stroke-linecap="butt" d="M238.4 137.2l41.7-12" fill-rule="evenodd"/><path fill="#000" fill-opacity="0" d="M294.4 101.1l41.7 12.1" fill-rule="evenodd"/><path stroke="#000" stroke-linejoin="round" stroke-linecap="butt" d="M294.4 101.1l41.7 12.1" fill-rule="evenodd"/><path fill="#000" fill-opacity="0" d="M294.4 125.1l41.7-11.9" fill-rule="evenodd"/><path stroke="#000" stroke-linejoin="round" stroke-linecap="butt" d="M294.4 125.1l41.7-11.9" fill-rule="evenodd"/><path fill="#d9ead3" d="M56.1 89.2c0-4 3.2-7.1 7.2-7.1a7.1 7.1 0 017.1 7.1c0 4-3.2 7.2-7.1 7.2-4 0-7.2-3.2-7.2-7.2z" fill-rule="evenodd"/><path stroke="#000" stroke-linejoin="round" stroke-linecap="butt" d="M56.1 89.2h0c0-4 3.2-7.1 7.2-7.1h0a7.1 7.1 0 017.1 7.1h0c0 4-3.2 7.2-7.1 7.2h0c-4 0-7.2-3.2-7.2-7.2z" fill-rule="evenodd"/><path fill="#d9ead3" d="M56.1 113.2c0-4 3.2-7.1 7.2-7.1a7.1 7.1 0 017.1 7.1c0 4-3.2 7.2-7.1 7.2-4 0-7.2-3.2-7.2-7.2z" fill-rule="evenodd"/><path stroke="#000" stroke-linejoin="round" stroke-linecap="butt" d="M56.1 113.2h0c0-4 3.2-7.1 7.2-7.1h0a7.1 7.1 0 017.1 7.1h0c0 4-3.2 7.2-7.1 7.2h0c-4 0-7.2-3.2-7.2-7.2z" fill-rule="evenodd"/><path fill="#d9ead3" d="M56.1 137.2c0-4 3.2-7.1 7.2-7.1a7.1 7.1 0 017.1 7.1c0 4-3.2 7.2-7.1 7.2-4 0-7.2-3.2-7.2-7.2z" fill-rule="evenodd"/><path stroke="#000" stroke-linejoin="round" stroke-linecap="butt" d="M56.1 137.2h0c0-4 3.2-7.1 7.2-7.1h0a7.1 7.1 0 017.1 7.1h0c0 4-3.2 7.2-7.1 7.2h0c-4 0-7.2-3.2-7.2-7.2z" fill-rule="evenodd"/><path fill="#d9ead3" d="M112.1 89.2c0-4 3.2-7.1 7.2-7.1a7.1 7.1 0 017.1 7.1c0 4-3.2 7.2-7.1 7.2-4 0-7.2-3.2-7.2-7.2z" fill-rule="evenodd"/><path stroke="#000" stroke-linejoin="round" stroke-linecap="butt" d="M112.1 89.2h0c0-4 3.2-7.1 7.2-7.1h0a7.1 7.1 0 017.1 7.1h0c0 4-3.2 7.2-7.1 7.2h0c-4 0-7.2-3.2-7.2-7.2z" fill-rule="evenodd"/><path fill="#d9ead3" d="M112.1 113.2c0-4 3.2-7.1 7.2-7.1a7.1 7.1 0 017.1 7.1c0 4-3.2 7.2-7.1 7.2-4 0-7.2-3.2-7.2-7.2z" fill-rule="evenodd"/><path stroke="#000" stroke-linejoin="round" stroke-linecap="butt" d="M112.1 113.2h0c0-4 3.2-7.1 7.2-7.1h0a7.1 7.1 0 017.1 7.1h0c0 4-3.2 7.2-7.1 7.2h0c-4 0-7.2-3.2-7.2-7.2z" fill-rule="evenodd"/><path fill="#d9ead3" d="M112.1 137.2c0-4 3.2-7.1 7.2-7.1a7.1 7.1 0 017.1 7.1c0 4-3.2 7.2-7.1 7.2-4 0-7.2-3.2-7.2-7.2z" fill-rule="evenodd"/><path stroke="#000" stroke-linejoin="round" stroke-linecap="butt" d="M112.1 137.2h0c0-4 3.2-7.1 7.2-7.1h0a7.1 7.1 0 017.1 7.1h0c0 4-3.2 7.2-7.1 7.2h0c-4 0-7.2-3.2-7.2-7.2z" fill-rule="evenodd"/><path fill="#d9ead3" d="M112.1 65.2c0-4 3.2-7.1 7.2-7.1a7.1 7.1 0 017.1 7.1c0 4-3.2 7.2-7.1 7.2-4 0-7.2-3.2-7.2-7.2z" fill-rule="evenodd"/><path stroke="#000" stroke-linejoin="round" stroke-linecap="butt" d="M112.1 65.2h0c0-4 3.2-7.1 7.2-7.1h0a7.1 7.1 0 017.1 7.1h0c0 4-3.2 7.2-7.1 7.2h0c-4 0-7.2-3.2-7.2-7.2z" fill-rule="evenodd"/><path fill="#d9ead3" d="M112.1 161.2c0-4 3.2-7.1 7.2-7.1a7.1 7.1 0 017.1 7.1c0 4-3.2 7.2-7.1 7.2-4 0-7.2-3.2-7.2-7.2z" fill-rule="evenodd"/><path stroke="#000" stroke-linejoin="round" stroke-linecap="butt" d="M112.1 161.2h0c0-4 3.2-7.1 7.2-7.1h0a7.1 7.1 0 017.1 7.1h0c0 4-3.2 7.2-7.1 7.2h0c-4 0-7.2-3.2-7.2-7.2z" fill-rule="evenodd"/><path fill="#d9d9d9" d="M455.4 192.1c-1.4-6.4 0-25.6-8-38.8-8-13.1-40.1-26.8-40.1-40.1 0-13.4 31.9-26.8 40-39.8 8-13 7-32 8.3-38.5" fill-rule="evenodd"/><path stroke="#000" stroke-linejoin="round" stroke-linecap="butt" d="M455.4 192.1c-1.4-6.4 0-25.6-8-38.8-8-13.1-40.1-26.8-40.1-40.1 0-13.4 31.9-26.8 40-39.8 8-13 7-32 8.3-38.5" fill-rule="evenodd"/><path fill="#000" fill-opacity="0" d="M455.6 193.3V26.6" fill-rule="evenodd"/><path stroke="#000" stroke-linejoin="round" stroke-linecap="butt" d="M455.6 193.3V32.6" fill-rule="evenodd"/><path fill="#000" stroke="#000" stroke-linecap="butt" d="M457.3 32.6l-1.7-4.5-1.6 4.5z" fill-rule="evenodd"/><path fill="#000" fill-opacity="0" d="M441.4 6.1h29.7v13.3h-29.7z" fill-rule="evenodd"/><path fill="#000" d="M451.5 24.7l.4-1.5h.2q.5.5 1 .5.6 0 1.1-.6.5-.7 1.4-2.9l-.7-1.8-1.5-3.6-.7-1.6-.5-1.1-.2-.2-.7-.2h-.1v-.4h4.3v.4h-.6q-.5 0-.6.2l-.1.3.3 1 .5 1.5.6 1.4q.5 1.4.9 2l.4-1 .8-1.8.7-1.9.3-1v-.2-.3h-.7l-.4-.1v-.5h3.4v.4q-.4 0-.6.2-.2 0-.4.3l-.6 1.1-1 2-.8 2-2.1 4.9-.7 1.4q-.4.7-1 1-.6.3-1.3.3l-1-.2zm4.8-14.3zm2.2 9.8z"/><path fill="#000" fill-opacity="0" d="M411.3 59H441v13.4h-29.7z" fill-rule="evenodd"/><path fill="#3c78d8" d="M431.7 63.9v.2l-.2 1-3.1-.1-.1.1q.8.4 1.2.8.3.8.3 1.9 0 1.4-.5 2.7-.6 1.2-1.6 1.8-1 .6-2.3.6-1.8 0-3-1.1-1.3-1.2-1.3-3.2 0-1.5.6-2.5t1.6-1.4q1-.5 2.7-.5h1.5q2.5 0 4.2-.3zm-9 4.7q0 1.9.8 2.9t2.1 1q1.5 0 2.2-1.2.8-1.2.8-3.1 0-1.7-.7-2.6-.6-1-2-1-1.6 0-2.4 1-.7 1.1-.7 3z"/><path fill="#000" fill-opacity="0" d="M400.2 113h55.2" fill-rule="evenodd"/><path stroke="#6aa84f" stroke-linejoin="round" stroke-linecap="butt" stroke-dasharray="1.0,3.0" d="M400.2 113h55.2" fill-rule="evenodd"/><path fill="#000" fill-opacity="0" d="M371.7 105.1h29.7v13.3h-29.7z" fill-rule="evenodd"/><path fill="#6aa84f" d="M392.5 117.8l-.1.4q-1.1.7-2 .7-.5 0-.8-.3-.3-.2-.4-.5l-.1-1.1-.2-.1q-.7 1-1.5 1.5-.8.6-1.8.6-1.4 0-2-.9h-.2q0 3.7.5 5.5l-.1.2h-1.3l.1-7.7q0-4-.2-6h1.6l.2.1-.1 3q0 3 .5 3.9.6.8 1.7.8.8 0 1.5-.4.6-.5 1-1.3.3-.8.3-2.3l-.1-3.7 1.5-.2.2.2-.1 2.2v4.4q0 .6.3 1 .3.2.7.2l.9-.2z"/><path fill="#000" fill-opacity="0" d="M426.1 77.2v72.6" fill-rule="evenodd"/><path stroke="#3c78d8" stroke-linejoin="round" stroke-linecap="butt" d="M426.1 80.6v65.8" fill-rule="evenodd"/><path fill="#3c78d8" stroke="#3c78d8" stroke-linecap="butt" d="M426.1 80.6l1.2 1.1-1.2-3-1.1 3zM426.1 146.4l-1.1-1.1 1.1 3 1.2-3z" fill-rule="evenodd"/><path fill="#000" fill-opacity="0" d="M350.4 113.2h20.7" fill-rule="evenodd"/><path stroke="#b6d7a8" stroke-linejoin="round" stroke-linecap="butt" d="M350.4 113.2h14.7" fill-rule="evenodd"/><path fill="#b6d7a8" stroke="#b6d7a8" stroke-linecap="butt" d="M365.1 114.9l4.6-1.7-4.6-1.6z" fill-rule="evenodd"/><path fill="#000" fill-opacity="0" d="M-5.6 104.4h22.2v13.3H-5.6z" fill-rule="evenodd"/><path fill="#000" d="M3.8 118v-.5l.6-.1.5-.4 1-1.3 1.5-1.8-.7-1.2-.8-1-.9-1-.5-.6H4 4l-.1-.5 2-.4q.7.5 2 2.4l.6 1.1.6-.7 1.9-2.6H12.2v.4l-.5.2-.5.4-1 1-.5.7-.3.4-.6.8.4.5 1 1.5 1.3 1.6.5.5h.5v.5h-2.2q-.8-.8-1.5-2l-1-1.4q-.9 1-2.5 3.5H3.8z"/><path fill="#000" fill-opacity="0" d="M25 89.2h30.5" fill-rule="evenodd"/><path stroke="#000" stroke-linejoin="round" stroke-linecap="butt" d="M25 89.2H52" fill-rule="evenodd"/><path fill="#000" stroke="#000" stroke-linecap="butt" d="M52.1 89.2L51 90.3l3-1-3-1.2z" fill-rule="evenodd"/><path fill="#000" fill-opacity="0" d="M25 113.2h30.5" fill-rule="evenodd"/><path stroke="#000" stroke-linejoin="round" stroke-linecap="butt" d="M25 113.2H52" fill-rule="evenodd"/><path fill="#000" stroke="#000" stroke-linecap="butt" d="M52.1 113.2l-1.1 1.1 3-1-3-1.2z" fill-rule="evenodd"/><path fill="#000" fill-opacity="0" d="M25 137.2h30.5" fill-rule="evenodd"/><path stroke="#000" stroke-linejoin="round" stroke-linecap="butt" d="M25 137.2H52" fill-rule="evenodd"/><path fill="#000" stroke="#000" stroke-linecap="butt" d="M52.1 137.2l-1.1 1.1 3-1-3-1.2z" fill-rule="evenodd"/><path fill="#d9ead3" d="M168.1 125.1c0-4 3.2-7.1 7.2-7.1a7.1 7.1 0 017.1 7.1c0 4-3.2 7.2-7.1 7.2-4 0-7.2-3.2-7.2-7.2z" fill-rule="evenodd"/><path stroke="#000" stroke-linejoin="round" stroke-linecap="butt" d="M168.1 125.1h0c0-4 3.2-7.1 7.2-7.1h0a7.1 7.1 0 017.1 7.1h0c0 4-3.2 7.2-7.1 7.2h0c-4 0-7.2-3.2-7.2-7.2z" fill-rule="evenodd"/><path fill="#d9ead3" d="M168.1 101.1c0-4 3.2-7.1 7.2-7.1a7.1 7.1 0 017.1 7.1c0 4-3.2 7.2-7.1 7.2-4 0-7.2-3.2-7.2-7.2z" fill-rule="evenodd"/><path stroke="#000" stroke-linejoin="round" stroke-linecap="butt" d="M168.1 101.1h0c0-4 3.2-7.1 7.2-7.1h0a7.1 7.1 0 017.1 7.1h0c0 4-3.2 7.2-7.1 7.2h0c-4 0-7.2-3.2-7.2-7.2z" fill-rule="evenodd"/><path fill="#d9ead3" d="M168.1 77.1c0-4 3.2-7.1 7.2-7.1a7.1 7.1 0 017.1 7.1c0 4-3.2 7.2-7.1 7.2-4 0-7.2-3.2-7.2-7.2z" fill-rule="evenodd"/><path stroke="#000" stroke-linejoin="round" stroke-linecap="butt" d="M168.1 77.1h0c0-4 3.2-7.1 7.2-7.1h0a7.1 7.1 0 017.1 7.1h0c0 4-3.2 7.2-7.1 7.2h0c-4 0-7.2-3.2-7.2-7.2z" fill-rule="evenodd"/><path fill="#d9ead3" d="M168.1 149.1c0-4 3.2-7.1 7.2-7.1a7.1 7.1 0 017.1 7.1c0 4-3.2 7.2-7.1 7.2-4 0-7.2-3.2-7.2-7.2z" fill-rule="evenodd"/><path stroke="#000" stroke-linejoin="round" stroke-linecap="butt" d="M168.1 149.1h0c0-4 3.2-7.1 7.2-7.1h0a7.1 7.1 0 017.1 7.1h0c0 4-3.2 7.2-7.1 7.2h0c-4 0-7.2-3.2-7.2-7.2z" fill-rule="evenodd"/><path fill="#000" fill-opacity="0" d="M126.4 65.2l41.7 12" fill-rule="evenodd"/><path stroke="#000" stroke-linejoin="round" stroke-linecap="butt" d="M126.4 65.2l41.7 12" fill-rule="evenodd"/><path fill="#000" fill-opacity="0" d="M168.1 77.1l-41.7 12.1" fill-rule="evenodd"/><path stroke="#000" stroke-linejoin="round" stroke-linecap="butt" d="M168.1 77.1l-41.7 12.1" fill-rule="evenodd"/><path fill="#000" fill-opacity="0" d="M224.1 89.2l-41.7-12" fill-rule="evenodd"/><path stroke="#000" stroke-linejoin="round" stroke-linecap="butt" d="M224.1 89.2l-41.7-12" fill-rule="evenodd"/><path fill="#000" fill-opacity="0" d="M224.1 89.2l-41.7 12" fill-rule="evenodd"/><path stroke="#000" stroke-linejoin="round" stroke-linecap="butt" d="M224.1 89.2l-41.7 12" fill-rule="evenodd"/><path fill="#000" fill-opacity="0" d="M224.1 89.2l-41.7 36" fill-rule="evenodd"/><path stroke="#000" stroke-linejoin="round" stroke-linecap="butt" d="M224.1 89.2l-41.7 36" fill-rule="evenodd"/><path fill="#000" fill-opacity="0" d="M224.1 89.2l-41.7 60" fill-rule="evenodd"/><path stroke="#000" stroke-linejoin="round" stroke-linecap="butt" d="M224.1 89.2l-41.7 60" fill-rule="evenodd"/><path fill="#000" fill-opacity="0" d="M224.1 113.2l-41.7-36" fill-rule="evenodd"/><path stroke="#000" stroke-linejoin="round" stroke-linecap="butt" d="M224.1 113.2l-41.7-36" fill-rule="evenodd"/><path fill="#000" fill-opacity="0" d="M224.1 113.2l-41.7-12" fill-rule="evenodd"/><path stroke="#000" stroke-linejoin="round" stroke-linecap="butt" d="M224.1 113.2l-41.7-12" fill-rule="evenodd"/><path fill="#000" fill-opacity="0" d="M224.1 113.2l-41.7 12" fill-rule="evenodd"/><path stroke="#000" stroke-linejoin="round" stroke-linecap="butt" d="M224.1 113.2l-41.7 12" fill-rule="evenodd"/><path fill="#000" fill-opacity="0" d="M224.1 113.2l-41.7 36" fill-rule="evenodd"/><path stroke="#000" stroke-linejoin="round" stroke-linecap="butt" d="M224.1 113.2l-41.7 36" fill-rule="evenodd"/><path fill="#000" fill-opacity="0" d="M224.1 137.2l-41.7-60" fill-rule="evenodd"/><path stroke="#000" stroke-linejoin="round" stroke-linecap="butt" d="M224.1 137.2l-41.7-60" fill-rule="evenodd"/><path fill="#000" fill-opacity="0" d="M224.1 137.2l-41.7-36" fill-rule="evenodd"/><path stroke="#000" stroke-linejoin="round" stroke-linecap="butt" d="M224.1 137.2l-41.7-36" fill-rule="evenodd"/><path fill="#000" fill-opacity="0" d="M224.1 137.2l-41.7-12" fill-rule="evenodd"/><path stroke="#000" stroke-linejoin="round" stroke-linecap="butt" d="M224.1 137.2l-41.7-12" fill-rule="evenodd"/><path fill="#000" fill-opacity="0" d="M224.1 137.2l-41.7 12" fill-rule="evenodd"/><path stroke="#000" stroke-linejoin="round" stroke-linecap="butt" d="M224.1 137.2l-41.7 12" fill-rule="evenodd"/><path fill="#000" fill-opacity="0" d="M168.1 77.1l-41.7 36.1" fill-rule="evenodd"/><path stroke="#000" stroke-linejoin="round" stroke-linecap="butt" d="M168.1 77.1l-41.7 36.1" fill-rule="evenodd"/><path fill="#000" fill-opacity="0" d="M168.1 77.1l-41.7 60.1" fill-rule="evenodd"/><path stroke="#000" stroke-linejoin="round" stroke-linecap="butt" d="M168.1 77.1l-41.7 60.1" fill-rule="evenodd"/><path fill="#000" fill-opacity="0" d="M168.1 77.1l-41.7 84.1" fill-rule="evenodd"/><path stroke="#000" stroke-linejoin="round" stroke-linecap="butt" d="M168.1 77.1l-41.7 84.1" fill-rule="evenodd"/><path fill="#000" fill-opacity="0" d="M168.1 101.1l-41.7-35.9" fill-rule="evenodd"/><path stroke="#000" stroke-linejoin="round" stroke-linecap="butt" d="M168.1 101.1l-41.7-35.9" fill-rule="evenodd"/><path fill="#000" fill-opacity="0" d="M168.1 101.1l-41.7-11.9" fill-rule="evenodd"/><path stroke="#000" stroke-linejoin="round" stroke-linecap="butt" d="M168.1 101.1l-41.7-11.9" fill-rule="evenodd"/><path fill="#000" fill-opacity="0" d="M168.1 101.1l-41.7 12.1" fill-rule="evenodd"/><path stroke="#000" stroke-linejoin="round" stroke-linecap="butt" d="M168.1 101.1l-41.7 12.1" fill-rule="evenodd"/><path fill="#000" fill-opacity="0" d="M168.1 101.1l-41.7 36.1" fill-rule="evenodd"/><path stroke="#000" stroke-linejoin="round" stroke-linecap="butt" d="M168.1 101.1l-41.7 36.1" fill-rule="evenodd"/><path fill="#000" fill-opacity="0" d="M168.1 101.1l-41.7 60.1" fill-rule="evenodd"/><path stroke="#000" stroke-linejoin="round" stroke-linecap="butt" d="M168.1 101.1l-41.7 60.1" fill-rule="evenodd"/><path fill="#000" fill-opacity="0" d="M168.1 125.1l-41.7-59.9" fill-rule="evenodd"/><path stroke="#000" stroke-linejoin="round" stroke-linecap="butt" d="M168.1 125.1l-41.7-59.9" fill-rule="evenodd"/><path fill="#000" fill-opacity="0" d="M168.1 125.1l-41.7-35.9" fill-rule="evenodd"/><path stroke="#000" stroke-linejoin="round" stroke-linecap="butt" d="M168.1 125.1l-41.7-35.9" fill-rule="evenodd"/><path fill="#000" fill-opacity="0" d="M168.1 125.1l-41.7-11.9" fill-rule="evenodd"/><path stroke="#000" stroke-linejoin="round" stroke-linecap="butt" d="M168.1 125.1l-41.7-11.9" fill-rule="evenodd"/><path fill="#000" fill-opacity="0" d="M168.1 125.1l-41.7 12.1" fill-rule="evenodd"/><path stroke="#000" stroke-linejoin="round" stroke-linecap="butt" d="M168.1 125.1l-41.7 12.1" fill-rule="evenodd"/><path fill="#000" fill-opacity="0" d="M168.1 125.1l-41.7 36.1" fill-rule="evenodd"/><path stroke="#000" stroke-linejoin="round" stroke-linecap="butt" d="M168.1 125.1l-41.7 36.1" fill-rule="evenodd"/><path fill="#000" fill-opacity="0" d="M168.1 149.1l-41.7-83.9" fill-rule="evenodd"/><path stroke="#000" stroke-linejoin="round" stroke-linecap="butt" d="M168.1 149.1l-41.7-83.9" fill-rule="evenodd"/><path fill="#000" fill-opacity="0" d="M168.1 149.1l-41.7-59.9" fill-rule="evenodd"/><path stroke="#000" stroke-linejoin="round" stroke-linecap="butt" d="M168.1 149.1l-41.7-59.9" fill-rule="evenodd"/><path fill="#000" fill-opacity="0" d="M168.1 149.1l-41.7-35.9" fill-rule="evenodd"/><path stroke="#000" stroke-linejoin="round" stroke-linecap="butt" d="M168.1 149.1l-41.7-35.9" fill-rule="evenodd"/><path fill="#000" fill-opacity="0" d="M168.1 149.1l-41.7-11.9" fill-rule="evenodd"/><path stroke="#000" stroke-linejoin="round" stroke-linecap="butt" d="M168.1 149.1l-41.7-11.9" fill-rule="evenodd"/><path fill="#000" fill-opacity="0" d="M168.1 149.1l-41.7 12.1" fill-rule="evenodd"/><path stroke="#000" stroke-linejoin="round" stroke-linecap="butt" d="M168.1 149.1l-41.7 12.1" fill-rule="evenodd"/><path fill="#000" fill-opacity="0" d="M85.4 47c0-4 15.2-7.1 33.9-7.1S153 43 153 47c0 4-15.1 7.2-33.8 7.2-18.7 0-33.9-3.2-33.9-7.2z" fill-rule="evenodd"/><path fill="#000" d="M113.2 43q.5 0 .9.2.4.1.7.4l.5.7q.2.4.2.9l-.2.8q0 .3-.3.6l-.5.7-.6.6-2 2H115.5l.1.3v.6h-5v-.4-.2l.1-.2 2.5-2.4.5-.6.4-.6.3-.6.1-.6v-.6l-.4-.4-.4-.3h-1.1l-.4.3-.4.3-.1.5-.2.2h-.2-.6q0-.5.3-1l.5-.6q.3-.3.8-.4.4-.2.9-.2zm8.2.5l-.2.4-.4.1h-2.4l-.3 2 1-.1q.7 0 1.1.2.5.1.8.4.3.3.4.8.2.4.2.9 0 .6-.2 1-.2.6-.6 1l-.9.5-1 .1h-.7l-.6-.2-.5-.3-.4-.3.3-.4.3-.1h.2l.3.3.5.1.6.1.7-.1.6-.4.3-.5.2-.8-.2-.6q0-.3-.3-.5l-.5-.3-.7-.1h-.6l-.7.2-.6-.2.7-3.6h3.6v.4zm4.4 2.6l.9.1.7.5.5.7q.2.4.2 1l-.2 1q-.2.4-.6.7-.3.4-.8.5l-1 .2-1-.1q-.6-.2-.9-.6l-.5-.8-.2-1q0-.6.2-1.1l.8-1.2 1.9-2.7.2-.1h1.1l-2.6 3.3.6-.3.7-.1zm-2 2.3l.1.7.4.5.5.3.6.2q.4 0 .7-.2l.6-.3.3-.5.1-.7-.1-.6-.3-.6-.5-.3-.7-.1-.7.1-.5.4-.4.5v.6z"/><path fill="#000" fill-opacity="0" d="M137.3 59c0-4 17-7.2 38-7.2s37.9 3.2 37.9 7.1c0 4-17 7.2-38 7.2-20.9 0-37.9-3.2-37.9-7.2z" fill-rule="evenodd"/><path fill="#000" d="M167.5 62h1.7v-5.3-.4l-1.4 1.1-.1.1h-.1-.1l-.1-.1-.3-.4 2.2-2h.8v7h1.5v.7h-4V62zm7.9-7l.9.1q.4.1.7.4l.5.7q.2.4.2.9l-.2.8q0 .3-.3.7l-.5.6-.6.7-2 2h.4l.4-.1H177.7l.1.3v.6h-5v-.3-.2-.3l2.5-2.4.6-.6.4-.6.3-.6.1-.6-.1-.6-.3-.4-.4-.2-.6-.1h-.5l-.4.3-.4.4-.2.4v.3h-.3-.6q0-.6.3-1l.5-.7q.3-.3.8-.4l.9-.1zm6 7.8l-1-.2q-.5-.1-.8-.4-.4-.3-.5-.7-.2-.4-.2-1t.3-1.1q.4-.5 1.2-.7-.7-.2-1-.7-.3-.4-.3-1l.2-.8.5-.7.7-.4 1-.1.9.1.7.4.5.7.1.8q0 .6-.3 1-.3.5-.9.7.7.2 1.1.7.4.5.4 1.2 0 .5-.2.9l-.5.7q-.3.3-.8.4l-1 .2zm0-.8h.7l.5-.4.3-.4.1-.6-.1-.7q-.1-.3-.4-.5l-.5-.2-.6-.1-.6.1q-.3 0-.5.2l-.3.5q-.2.3-.2.7l.1.6.4.4.5.3.6.1zm0-3.7h.7l.4-.4.2-.4.1-.5v-.5l-.3-.4-.5-.3-.6-.1-.6.1-.4.3q-.2.1-.3.4v1l.3.4q.1.2.4.3l.6.1z"/><path fill="#000" fill-opacity="0" d="M197.4 71c0-4 15.2-7.1 33.9-7.1S265 67 265 71c0 4-15.1 7.2-33.8 7.2-18.7 0-33.9-3.2-33.9-7.2z" fill-rule="evenodd"/><path fill="#000" d="M228.5 70q.5 0 .9.2l.7.5.5.7q.2.4.2 1l-.2 1-.5.7q-.4.4-.9.5-.4.2-1 .2l-1-.1q-.5-.2-.9-.6l-.5-.8-.1-1q0-.6.2-1.1.2-.6.7-1.2l2-2.7.1-.1h1.2l-2.7 3.3.6-.3.7-.1zm-2 2.4q0 .4.2.7 0 .3.3.5l.5.3q.3.2.7.2l.7-.2.5-.3.3-.5.1-.7v-.6l-.4-.6-.5-.3-.7-.1-.7.1-.5.4-.3.5-.1.6zm9.6-.4h1.1v.7H236v2h-.8v-2h-3.5l-.1-.2-.1-.4 3.7-5h.9V72zm-.9-3.2v-.2-.4l-2.7 3.8h2.7v-3.2z"/><path fill="#000" fill-opacity="0" d="M249.3 83c0-4 17-7.2 38-7.2s37.9 3.2 37.9 7.1c0 4-17 7.2-38 7.2-20.9 0-37.9-3.2-37.9-7.2z" fill-rule="evenodd"/><path fill="#000" d="M284.4 79l.9.1q.4.1.7.4.3.2.4.6l.2.8v.7l-.3.5-.5.3-.5.3q.7.2 1.1.6.4.5.4 1.2l-.2 1q-.2.4-.6.7l-.8.4q-.4.2-1 .2t-1-.2q-.4-.1-.7-.4l-.5-.6-.3-.8.4-.2h.4l.1.1v.1l.2.4.3.4.5.3H284.9l.5-.4.3-.5.1-.5V84l-.3-.5-.7-.3h-1v-.8h1l.5-.4q.2-.1.3-.4v-.5-.6l-.3-.4-.4-.2-.6-.1h-.5l-.4.3q-.2.1-.3.4l-.2.4q0 .2-.2.3h-.2-.6q0-.6.3-1l.5-.7.8-.4.9-.1zm6 0l1 .1q.4.1.7.4l.5.7q.2.4.2.9l-.2.8-.3.7-.5.6-.6.7-2 2h.4l.4-.1H292.8l.1.3v.6h-5v-.3-.2-.3l2.5-2.4.6-.6.4-.6.3-.6v-.6-.6l-.3-.4q-.2-.2-.5-.2l-.5-.1h-.5l-.5.3-.3.4-.2.4v.3h-.9q0-.6.2-1l.6-.7q.3-.3.7-.4l1-.1z"/></g></svg>