<svg height="355.3" viewBox="0 0 382.7 266.5" width="510.2" xmlns="http://www.w3.org/2000/svg" xmlns:xlink="http://www.w3.org/1999/xlink"><defs><style>*{stroke-linecap:butt;stroke-linejoin:round}</style></defs><g id="figure_1"><path d="M0 266.5h382.7V0H0z" fill="none" id="patch_1"/><g id="axes_1"><path d="M14.6 57.8h147.1V7.2H14.6z" fill="#fff" id="patch_2"/><path clip-path="url(#p8aed5e04f0)" d="M51.6 55.5H61l.1-.1H64.3l.1-.1H65.6l.2-.1h.6l.2-.1h.5l.1-.1h.4l.2-.1h.2l.2-.1h.2l.2-.1h.2l.2-.1.2-.1h.2v-.1h.2l.1-.1h.2l.1-.1h.1l.2-.1h.1l.1-.1.2-.1h.1l.1-.1.2-.1h.1l.1-.2h.2l.1-.1h.1l.2-.2h.1l.1-.1.2-.1h.1l.1-.2h.2l.1-.2h.1l.2-.2h.1l.1-.2h.2V52h.2l.2-.2v-.1l.2-.1.2-.2.2-.2.2-.1v-.2l.2-.1.2-.2v-.1l.2-.1.1-.2.2-.1.1-.2.1-.2.2-.1.1-.2.1-.2.2-.1.1-.2.1-.2.2-.2.1-.2.1-.2.2-.2.1-.2.1-.2.2-.2.1-.2.1-.2.2-.2.1-.2.1-.3.2-.2.1-.2.1-.3.2-.2.1-.3.1-.2.2-.3v-.2l.2-.3.2-.3v-.3l.2-.3.2-.2v-.3l.2-.3.2-.4v-.3l.2-.3.2-.3v-.4l.2-.3.1-.3.2-.4.1-.4.1-.3.2-.4.1-.4.1-.4.2-.4.1-.3.1-.5.2-.4.1-.4.1-.4.2-.4.1-.4.1-.5.2-.4.1-.5.1-.4.2-.4.1-.5.1-.4.2-.5.1-.5.1-.4.2-.5v-.4l.2-.5.2-.5v-.4l.2-.5.2-.4v-.5l.2-.5.2-.4v-.5l.2-.4.2-.5v-.4l.2-.5.2-.4v-.5l.2-.4.1-.4.2-.4.1-.5.1-.4.2-.4.1-.4.1-.4.2-.4.1-.4.1-.4.2-.4.1-.3.1-.4.2-.4.1-.3.1-.4.2-.3.1-.3.1-.4.2-.3.1-.3.1-.3.2-.3.1-.2.1-.3.2-.3v-.2l.2-.3.2-.2v-.2l.2-.2.2-.2V11l.2-.2.2-.1v-.2l.2-.1.2-.2.2-.2.1-.1h.2l.1-.2H92.7l.1-.1H93.1l.1-.1h.7l.1.1h.1l.2.1h.1l.1.2h.2l.1.1.1.1.2.1.1.1.1.1.2.2h.1l.1.2.2.2v.1l.2.2.2.2v.1l.2.2.2.2v.2l.2.2.2.2v.2l.2.3.2.2v.3l.2.2.1.3.2.3.1.3.1.3.2.3.1.3.1.3.2.3.1.4.1.3.2.4.1.3.1.4.2.4.1.4.1.4.2.4.1.4.1.4.2.4.1.4.1.4.2.4.1.5.1.4.2.4.1.5.1.4.2.4v.5l.2.4.2.5v.4l.2.5.2.4v.5l.2.4.2.5v.4l.2.5.2.4v.4l.2.5.1.4.2.5.1.4.1.5.2.4.1.5.1.4.2.4.1.5.1.4.2.4.1.5.1.4.2.4.1.4.1.4.2.5.1.4.1.4.2.4.1.4.1.3.2.4.1.4.1.4.2.3v.4l.2.3.2.4v.3l.2.4.2.3v.3l.2.3.2.3v.3l.2.3.2.2v.3l.2.3.2.2v.3l.2.2.1.2.2.3.1.2.1.2.2.2.1.2.1.2.2.2.1.2.1.2.2.1.1.2.1.2.2.2.1.1.1.2.2.1.1.2.1.1.2.2.1.1.1.2.2.1.1.1.1.2.2.1v.1l.2.2h.2v.2l.2.1.2.2.2.2h.2v.2l.2.1.2.1v.1l.2.1.2.1.2.2h.1l.2.2h.1l.1.1h.2l.1.2h.1l.2.1h.1l.1.1.2.1h.1l.1.1h.2l.1.1h.1l.2.1h.1l.1.1h.2l.1.1H117.9l.1.1H118.3v.1h.4v.1h.4l.2.1h.4l.2.1h.5l.1.1h.7l.1.1H122.4l.1.1h1.5v.1H129.8v.1H132.8z" fill="#1f77b4" opacity=".4" id="patch_3"/><path clip-path="url(#p8aed5e04f0)" d="M77 55.5v-7.4l.2-.2.1-.2.1-.2.2-.2.1-.2.1-.2.2-.2.1-.2.1-.3.2-.2.1-.2.1-.3.2-.2.1-.3.1-.2.2-.3v-.2l.2-.3.2-.3v-.3l.2-.3.2-.2v-.3l.2-.3.2-.4v-.3l.2-.3.2-.3v-.4l.2-.3.1-.3.2-.4.1-.4.1-.3.2-.4.1-.4.1-.4.2-.4.1-.3.1-.5.2-.4.1-.4.1-.4.2-.4.1-.4.1-.5.2-.4.1-.5.1-.4.2-.4.1-.5.1-.4.2-.5.1-.5.1-.4.2-.5v-.4l.2-.5.2-.5v-.4l.2-.5.2-.4v-.5l.2-.5.2-.4v-.5l.2-.4.2-.5v-.4l.2-.5.2-.4v-.5l.2-.4.1-.4.2-.4.1-.5.1-.4.2-.4.1-.4.1-.4.2-.4.1-.4.1-.4.2-.4.1-.3.1-.4.2-.4.1-.3.1-.4.2-.3.1-.3.1-.4.2-.3.1-.3.1-.3.2-.3.1-.2.1-.3.2-.3v-.2l.2-.3.2-.2v-.2l.2-.2.2-.2V11l.2-.2.2-.1v-.2l.2-.1.2-.2.2-.2.1-.1h.2l.1-.2H92.7l.1-.1H93.1l.1-.1h.7l.1.1h.1l.2.1h.1l.1.2h.2l.1.1.1.1.2.1.1.1.1.1.2.2h.1l.1.2.2.2v.1l.2.2.2.2v.1l.2.2.2.2v.2l.2.2.2.2v.2l.2.3.2.2v.3l.2.2.1.3.2.3.1.3.1.3.2.3.1.3.1.3.2.3.1.4.1.3.2.4.1.3.1.4.2.4.1.4.1.4.2.4.1.4.1.4.2.4.1.4.1.4.2.4.1.5.1.4.2.4.1.5.1.4.2.4v.5l.2.4.2.5v.4l.2.5.2.4v.5l.2.4.2.5v.4l.2.5.2.4v.4l.2.5.1.4.2.5.1.4.1.5.2.4.1.5.1.4.2.4.1.5.1.4.2.4.1.5.1.4.2.4.1.4.1.4.2.5.1.4.1.4.2.4.1.4.1.3.2.4.1.4.1.4.2.3v.4l.2.3.2.4v.3l.2.4.2.3v.3l.2.3.2.3v.3l.2.3.2.2v.3l.2.3.2.2v.3l.2.2.1.2.2.3.1.2.1.2.2.2.1.2v7.4z" fill="#1f77b4" opacity=".4" id="patch_4"/><g id="matplotlib.axis_1"><g id="xtick_1"><g id="line2d_1"><defs><path d="M0 0v3.5" id="m68f741c087" stroke="#000" stroke-width=".8"/></defs><use x="14.6" xlink:href="#m68f741c087" y="57.8" stroke="#000" stroke-width=".8"/></g><g id="text_1"><defs><path d="M10.6 35.5h62.6v-8.3H10.6z" id="DejaVuSans-8722"/><path d="M37.8 64.3l-25-39h25zM35.2 73h12.4V25.4H58v-8.2H47.6V0h-9.8v17.2h-33v9.5z" id="DejaVuSans-52"/></defs><g transform="matrix(.1 0 0 -.1 7.2 72.4)"><use xlink:href="#DejaVuSans-8722"/><use x="83.8" xlink:href="#DejaVuSans-52"/></g></g></g><g id="xtick_2"><use x="51.4" xlink:href="#m68f741c087" y="57.8" stroke="#000" stroke-width=".8" id="line2d_2"/><g id="text_2"><defs><path d="M19.2 8.3h34.4V0H7.3v8.3l15.3 15.6q9.7 9.8 12.2 12.6 4.7 5.3 6.6 9 2 3.7 2 7.3 0 5.8-4.2 9.5-4 3.6-10.6 3.6-4.6 0-9.8-1.6-5.1-1.6-11-4.9v10q6 2.4 11.1 3.6 5.2 1.2 9.5 1.2 11.4 0 18-5.7 6.8-5.6 6.8-15 0-4.6-1.7-8.6-1.6-4-6-9.5l-7.9-8.2L19.2 8.3z" id="DejaVuSans-50"/></defs><g transform="matrix(.1 0 0 -.1 44 72.4)"><use xlink:href="#DejaVuSans-8722"/><use x="83.8" xlink:href="#DejaVuSans-50"/></g></g></g><g id="xtick_3"><use x="88.1" xlink:href="#m68f741c087" y="57.8" stroke="#000" stroke-width=".8" id="line2d_3"/><g id="text_3"><defs><path d="M31.8 66.4q-7.6 0-11.5-7.5-3.8-7.5-3.8-22.5t3.8-22.5q3.9-7.5 11.5-7.5 7.7 0 11.5 7.5T47 36.4q0 15-3.8 22.5t-11.5 7.5zm0 7.8q12.2 0 18.7-9.7T57 36.4Q57 18 50.5 8.3 44-1.4 31.8-1.4 19.5-1.4 13 8.3q-6.5 9.7-6.5 28 0 18.5 6.5 28.2 6.4 9.7 18.7 9.7z" id="DejaVuSans-48"/></defs><use xlink:href="#DejaVuSans-48" transform="matrix(.1 0 0 -.1 85 72.4)"/></g></g><g id="xtick_4"><use x="124.9" xlink:href="#m68f741c087" y="57.8" stroke="#000" stroke-width=".8" id="line2d_4"/><use xlink:href="#DejaVuSans-50" transform="matrix(.1 0 0 -.1 121.7 72.4)" id="text_4"/></g><g id="xtick_5"><use x="161.7" xlink:href="#m68f741c087" y="57.8" stroke="#000" stroke-width=".8" id="line2d_5"/><use xlink:href="#DejaVuSans-52" transform="matrix(.1 0 0 -.1 158.5 72.4)" id="text_5"/></g></g><path clip-path="url(#p8aed5e04f0)" d="M97.9 57.8V7.2" fill="none" stroke="#1f77b4" stroke-linecap="square" stroke-width="1.5" id="line2d_6"/><path d="M14.6 57.8h147.1" fill="none" stroke="#000" stroke-linecap="square" stroke-width=".8" id="patch_5"/></g><g id="axes_2"><path d="M225.1 57.8h147.2V7.2H225z" fill="#fff" id="patch_6"/><path clip-path="url(#p0064541d60)" d="M269 55.5H275.2l.2-.1H277l.2-.1h1.1l.1-.1h.7l.2-.1h.5l.1-.1h.4l.2-.1H280.9l.2-.1h.2l.1-.1h.2l.2-.1H282l.1-.1H282.4v-.1h.2l.1-.1h.2v-.1h.2l.1-.1h.2V54h.2l.1-.1h.2l.1-.1.1-.1h.2v-.1l.2-.1h.1l.2-.2.2-.1h.1l.2-.2.2-.1.1-.1.2-.1.1-.1.1-.1.2-.1v-.1l.2-.1.1-.1.2-.1v-.1l.2-.2h.1l.2-.2v-.1l.2-.2.1-.1.2-.1.1-.2.1-.1.2-.2v-.1l.2-.2.1-.1.2-.2v-.2l.2-.1.1-.2.2-.2V49l.2-.2.1-.2.2-.2.1-.2.1-.2.2-.2v-.2l.2-.2.1-.2.2-.3v-.2l.2-.2.1-.3.2-.2v-.3l.2-.2.1-.3.2-.3.1-.2.1-.3.1-.3.2-.3.1-.3.1-.3.2-.3v-.3l.2-.3.1-.3.2-.3v-.3l.2-.3.1-.4.2-.3.1-.3.1-.3.1-.4.2-.3.1-.4.1-.3.2-.4v-.3l.2-.4.1-.3.2-.4v-.3l.2-.4.1-.3.2-.4.1-.3.1-.4.1-.4.2-.3.1-.4.1-.3.2-.4v-.3l.2-.4.1-.3.2-.4V31l.2-.4.1-.3.2-.4v-.3l.2-.4.1-.3.2-.3.1-.4.1-.3.2-.4v-.3l.2-.3.1-.4.2-.3v-.4l.2-.3.1-.3.2-.4v-.3l.2-.4.1-.3.2-.3.1-.4.1-.3.2-.4v-.3l.2-.4.1-.3.2-.4v-.3l.2-.4.1-.3.2-.4v-.3l.2-.4.1-.3.2-.4.1-.3.1-.4.2-.3v-.3l.2-.4.1-.3.2-.4v-.3l.2-.3.1-.4.2-.3v-.3l.2-.4.1-.3.2-.3.1-.3.1-.2.2-.3V12l.2-.3.1-.2.2-.3v-.2l.2-.2.1-.2.2-.2v-.2l.2-.1.1-.2h.2l.1-.2h.1l.2-.2H306l.2-.1H306.6l.2.1v.1h.2l.1.2.2.1.1.1.1.2.2.1v.2l.2.2.1.2.2.2v.2l.2.2.1.2.2.3v.2l.2.3.1.2.2.3.1.2.1.3.2.3v.3l.2.2.1.3.2.3v.3l.2.3.1.2.2.3v.3l.2.3.1.3.2.3.1.3.1.3.2.3v.3l.2.2.1.3.2.3v.3l.2.3.1.3.2.3v.3l.2.3.1.4.2.3.1.3.1.3.2.3v.3l.2.4.1.3.2.3v.4l.2.3.1.4.2.3v.3l.2.4.1.4.2.3.1.4.1.3.2.4v.4l.2.4.1.3.2.4v.4l.2.4.1.3.2.4v.4l.2.4.1.4.2.3.1.4.1.4.2.4v.3l.2.4.1.4.2.4v.3l.2.4.1.3.2.4v.4l.2.3.1.4.2.3.1.3.1.4.1.3.2.4.1.3.1.3.2.3v.4l.2.3.1.3.2.3v.3l.2.3.1.3.2.3.1.3.1.3.1.3.2.3.1.2.1.3.2.3v.2l.2.3.1.3.2.2v.3l.2.2.1.2.2.3.1.2.1.2.1.2.2.3.1.2.1.2.2.2v.2l.2.2.1.1.2.2v.2l.2.2.1.2.2.1.1.2.1.1.1.2.2.1.1.2.1.1.2.2v.1l.2.2h.1l.2.2v.1l.2.2h.1l.2.2v.1l.2.1.1.1.2.2h.1l.1.2h.2v.2h.2l.1.2h.2v.1l.2.1.1.1h.2v.2h.2l.1.1.2.1h.1l.1.2h.2l.2.2H329.5v.1l.2.1h.1l.2.1.2.1h.1l.2.1h.2l.2.1.2.1H331.4v.1H331.8l.2.1h.2l.1.1h.4l.2.1h.5v.1h.5l.2.1h.7l.2.1H336.3l.1.1H343.3v.1H346.5z" fill="#1f77b4" opacity=".4" id="patch_7"/><path clip-path="url(#p0064541d60)" d="M289.7 55.5v-7.3l.1-.2.2-.2v-.2l.2-.2.1-.2.2-.3v-.2l.2-.2.1-.3.2-.2v-.3l.2-.2.1-.3.2-.3.1-.2.1-.3.1-.3.2-.3.1-.3.1-.3.2-.3v-.3l.2-.3.1-.3.2-.3v-.3l.2-.3.1-.4.2-.3.1-.3.1-.3.1-.4.2-.3.1-.4.1-.3.2-.4v-.3l.2-.4.1-.3.2-.4v-.3l.2-.4.1-.3.2-.4.1-.3.1-.4.1-.4.2-.3.1-.4.1-.3.2-.4v-.3l.2-.4.1-.3.2-.4V31l.2-.4.1-.3.2-.4v-.3l.2-.4.1-.3.2-.3.1-.4.1-.3.2-.4v-.3l.2-.3.1-.4.2-.3v-.4l.2-.3.1-.3.2-.4v-.3l.2-.4.1-.3.2-.3.1-.4.1-.3.2-.4v-.3l.2-.4.1-.3.2-.4v-.3l.2-.4.1-.3.2-.4v-.3l.2-.4.1-.3.2-.4.1-.3.1-.4.2-.3v-.3l.2-.4.1-.3.2-.4v-.3l.2-.3.1-.4.2-.3v-.3l.2-.4.1-.3.2-.3.1-.3.1-.2.2-.3V12l.2-.3.1-.2.2-.3v-.2l.2-.2.1-.2.2-.2v-.2l.2-.1.1-.2h.2l.1-.2h.1l.2-.2H306l.2-.1H306.6l.2.1v.1h.2l.1.2.2.1.1.1.1.2.2.1v.2l.2.2.1.2.2.2v.2l.2.2.1.2.2.3v.2l.2.3.1.2.2.3.1.2.1.3.2.3v.3l.2.2.1.3.2.3v.3l.2.3.1.2.2.3v.3l.2.3.1.3.2.3.1.3.1.3.2.3v.3l.2.2.1.3.2.3v.3l.2.3.1.3.2.3v.3l.2.3.1.4.2.3.1.3.1.3.2.3v.3l.2.4.1.3.2.3v.4l.2.3.1.4.2.3v.3l.2.4.1.4.2.3.1.4.1.3.2.4v.4l.2.4.1.3.2.4v.4l.2.4.1.3.2.4v.4l.2.4.1.4.2.3.1.4.1.4.2.4v.3l.2.4.1.4.2.4v.3l.2.4.1.3.2.4v.4l.2.3.1.4.2.3.1.3.1.4.1.3.2.4.1.3.1.3.2.3v.4l.2.3.1.3.2.3v.3l.2.3.1.3.2.3.1.3.1.3.1.3.2.3.1.2.1.3.2.3v.2l.2.3.1.3.2.2v.3l.2.2.1.2.2.3.1.2.1.2.1.2.2.3v7.9z" fill="#1f77b4" opacity=".4" id="patch_8"/><g id="matplotlib.axis_2"><g id="xtick_6"><use x="225.1" xlink:href="#m68f741c087" y="57.8" stroke="#000" stroke-width=".8" id="line2d_7"/><g transform="matrix(.1 0 0 -.1 217.8 72.4)" id="text_6"><use xlink:href="#DejaVuSans-8722"/><use x="83.8" xlink:href="#DejaVuSans-52"/></g></g><g id="xtick_7"><use x="261.9" xlink:href="#m68f741c087" y="57.8" stroke="#000" stroke-width=".8" id="line2d_8"/><g transform="matrix(.1 0 0 -.1 254.6 72.4)" id="text_7"><use xlink:href="#DejaVuSans-8722"/><use x="83.8" xlink:href="#DejaVuSans-50"/></g></g><g id="xtick_8"><use x="298.7" xlink:href="#m68f741c087" y="57.8" stroke="#000" stroke-width=".8" id="line2d_9"/><use xlink:href="#DejaVuSans-48" transform="matrix(.1 0 0 -.1 295.5 72.4)" id="text_8"/></g><g id="xtick_9"><use x="335.5" xlink:href="#m68f741c087" y="57.8" stroke="#000" stroke-width=".8" id="line2d_10"/><use xlink:href="#DejaVuSans-50" transform="matrix(.1 0 0 -.1 332.3 72.4)" id="text_9"/></g><g id="xtick_10"><use x="372.3" xlink:href="#m68f741c087" y="57.8" stroke="#000" stroke-width=".8" id="line2d_11"/><use xlink:href="#DejaVuSans-52" transform="matrix(.1 0 0 -.1 369.1 72.4)" id="text_10"/></g></g><path clip-path="url(#p0064541d60)" d="M309.2 57.8V7.2" fill="none" stroke="#1f77b4" stroke-linecap="square" stroke-width="1.5" id="line2d_12"/><path d="M225.1 57.8h147.2" fill="none" stroke="#000" stroke-linecap="square" stroke-width=".8" id="patch_9"/></g><g id="axes_3"><path d="M14.6 150.2h147.1V99.6H14.6z" fill="#fff" id="patch_10"/><path clip-path="url(#p6c7b1d94c4)" d="M51.5 147.9H61.3l.2-.1H63.2l.1-.1H64.5l.2-.1H65.4l.2-.1H66.2l.2-.1h.4l.2-.1h.4l.2-.1H67.9l.2-.1h.2l.2-.1h.2l.2-.1h.2l.2-.1h.1l.1-.1H69.7l.1-.1h.2l.1-.1h.1l.2-.1h.1l.1-.1.2-.1h.1l.1-.1h.2l.1-.2h.1l.2-.1h.1l.1-.2h.2l.1-.1.1-.1.2-.1.1-.1.1-.1.2-.1v-.2h.2l.2-.2v-.1l.2-.1.2-.2.2-.2.2-.2v-.1l.2-.2.2-.1v-.2l.2-.1.2-.2v-.1l.2-.2.2-.2v-.2l.2-.1.2-.2v-.2l.2-.2.1-.2.2-.2.1-.2.1-.2.2-.2.1-.2.1-.2.2-.3.1-.2.1-.2.2-.2.1-.3.1-.2.2-.3.1-.2.1-.3.2-.2.1-.3.1-.2.2-.3.1-.3.1-.3.2-.3.1-.2.1-.3.2-.3.1-.3.1-.4.2-.3.1-.3.1-.3.2-.4.1-.3.1-.4.2-.3.1-.4.1-.4.2-.3v-.4l.2-.4.2-.4v-.4l.2-.4.2-.4v-.5l.2-.4.2-.4v-.5l.2-.4.2-.5v-.4l.2-.5.2-.4v-.5l.2-.5.2-.5v-.4l.2-.5.1-.5.2-.5.1-.5.1-.5.2-.4.1-.5.1-.5.2-.5.1-.5.1-.5.2-.5.1-.4.1-.5.2-.5.1-.5.1-.4.2-.5.1-.5.1-.4.2-.5.1-.4.1-.5.2-.4.1-.4.1-.4.2-.4.1-.4.1-.4.2-.4.1-.4.1-.4.2-.3.1-.4.1-.3.2-.4.1-.3.1-.3.2-.3.1-.3.1-.3.2-.2v-.3l.2-.2.2-.3v-.2l.2-.2.2-.2v-.2l.2-.2.2-.1v-.2l.2-.1.2-.2.2-.2h.2v-.2h.2l.2-.1v-.1h.2l.1-.1h.4l.2-.1h.6l.2.1h.2l.2.2h.2l.2.2h.1l.1.1.2.1.1.2h.1l.2.2.1.1.1.2.2.1.1.2.1.1.2.2.1.1.1.2.2.2.1.2.1.2.2.2.1.2.1.3.2.2.1.2.1.3.2.2v.3l.2.3.2.3v.2l.2.3.2.3v.3l.2.3.2.3v.4l.2.3.2.3v.4l.2.3.2.4v.3l.2.4.2.4v.3l.2.4.1.4.2.4.1.4.1.4.2.4.1.4.1.4.2.4.1.4.1.5.2.4.1.4.1.4.2.5.1.4.1.4.2.5.1.4.1.4.2.4.1.5.1.4.2.4.1.5.1.4.2.4.1.5.1.4.2.4.1.4.1.4.2.4.1.5.1.4.2.4.1.4.1.4.2.4v.4l.2.3.2.4v.4l.2.4.2.3v.4l.2.3.2.4v.4l.2.3.2.3v.4l.2.3.2.3v.3l.2.3.2.4v.3l.2.3.2.2v.3l.2.3.1.3.2.3.1.2.1.3.2.3.1.2.1.3.2.2.1.3.1.2.2.2.1.3.1.2.2.2.1.2.1.3.2.2.1.2.1.2.2.2.1.2.1.2.2.2.1.1.1.2.2.2.1.2.1.1.2.2.1.2.1.1.2.2.1.1.1.2.2.1.1.2.1.1.2.2.2.2.2.1v.2h.2l.2.2.2.2h.2v.2h.2l.2.2.2.1.2.1v.1h.2l.2.1v.1h.2l.2.1v.1h.2l.1.1h.2l.1.1h.1l.2.1h.1l.1.1H117.1l.1.1h.2l.1.1H117.8l.1.1H118.2l.1.1h.4l.1.1h.4l.2.1h.5l.1.1H120.7l.1.1H121.4l.2.1h1l.2.1h1.6l.1.1H129.5l.2.1H132.8z" fill="#1f77b4" opacity=".4" id="patch_11"/><path clip-path="url(#p6c7b1d94c4)" d="M76.6 147.9v-7.6l.1-.2.2-.3.1-.2.1-.2.2-.2.1-.3.1-.2.2-.3.1-.2.1-.3.2-.2.1-.3.1-.2.2-.3.1-.3.1-.3.2-.3.1-.2.1-.3.2-.3.1-.3.1-.4.2-.3.1-.3.1-.3.2-.4.1-.3.1-.4.2-.3.1-.4.1-.4.2-.3v-.4l.2-.4.2-.4v-.4l.2-.4.2-.4v-.5l.2-.4.2-.4v-.5l.2-.4.2-.5v-.4l.2-.5.2-.4v-.5l.2-.5.2-.5v-.4l.2-.5.1-.5.2-.5.1-.5.1-.5.2-.4.1-.5.1-.5.2-.5.1-.5.1-.5.2-.5.1-.4.1-.5.2-.5.1-.5.1-.4.2-.5.1-.5.1-.4.2-.5.1-.4.1-.5.2-.4.1-.4.1-.4.2-.4.1-.4.1-.4.2-.4.1-.4.1-.4.2-.3.1-.4.1-.3.2-.4.1-.3.1-.3.2-.3.1-.3.1-.3.2-.2v-.3l.2-.2.2-.3v-.2l.2-.2.2-.2v-.2l.2-.2.2-.1v-.2l.2-.1.2-.2.2-.2h.2v-.2h.2l.2-.1v-.1h.2l.1-.1h.4l.2-.1h.6l.2.1h.2l.2.2h.2l.2.2h.1l.1.1.2.1.1.2h.1l.2.2.1.1.1.2.2.1.1.2.1.1.2.2.1.1.1.2.2.2.1.2.1.2.2.2.1.2.1.3.2.2.1.2.1.3.2.2v.3l.2.3.2.3v.2l.2.3.2.3v.3l.2.3.2.3v.4l.2.3.2.3v.4l.2.3.2.4v.3l.2.4.2.4v.3l.2.4.1.4.2.4.1.4.1.4.2.4.1.4.1.4.2.4.1.4.1.5.2.4.1.4.1.4.2.5.1.4.1.4.2.5.1.4.1.4.2.4.1.5.1.4.2.4.1.5.1.4.2.4.1.5.1.4.2.4.1.4.1.4.2.4.1.5.1.4.2.4.1.4.1.4.2.4v.4l.2.3.2.4v.4l.2.4.2.3v.4l.2.3.2.4v.4l.2.3.2.3v.4l.2.3.2.3v.3l.2.3.2.4v.3l.2.3.2.2v.3l.2.3.1.3.2.3.1.2.1.3.2.3.1.2.1.3.2.2.1.3.1.2.2.2.1.3.1.2v8.1z" fill="#1f77b4" opacity=".4" id="patch_12"/><g id="matplotlib.axis_3"><g id="xtick_11"><use x="14.6" xlink:href="#m68f741c087" y="150.2" stroke="#000" stroke-width=".8" id="line2d_13"/><g transform="matrix(.1 0 0 -.1 7.2 164.8)" id="text_11"><use xlink:href="#DejaVuSans-8722"/><use x="83.8" xlink:href="#DejaVuSans-52"/></g></g><g id="xtick_12"><use x="51.4" xlink:href="#m68f741c087" y="150.2" stroke="#000" stroke-width=".8" id="line2d_14"/><g transform="matrix(.1 0 0 -.1 44 164.8)" id="text_12"><use xlink:href="#DejaVuSans-8722"/><use x="83.8" xlink:href="#DejaVuSans-50"/></g></g><g id="xtick_13"><use x="88.1" xlink:href="#m68f741c087" y="150.2" stroke="#000" stroke-width=".8" id="line2d_15"/><use xlink:href="#DejaVuSans-48" transform="matrix(.1 0 0 -.1 85 164.8)" id="text_13"/></g><g id="xtick_14"><use x="124.9" xlink:href="#m68f741c087" y="150.2" stroke="#000" stroke-width=".8" id="line2d_16"/><use xlink:href="#DejaVuSans-50" transform="matrix(.1 0 0 -.1 121.7 164.8)" id="text_14"/></g><g id="xtick_15"><use x="161.7" xlink:href="#m68f741c087" y="150.2" stroke="#000" stroke-width=".8" id="line2d_17"/><use xlink:href="#DejaVuSans-52" transform="matrix(.1 0 0 -.1 158.5 164.8)" id="text_15"/></g></g><path clip-path="url(#p6c7b1d94c4)" d="M89.5 150.2V99.6" fill="none" stroke="#1f77b4" stroke-linecap="square" stroke-width="1.5" id="line2d_18"/><path d="M14.6 150.2h147.1" fill="none" stroke="#000" stroke-linecap="square" stroke-width=".8" id="patch_13"/></g><g id="axes_4"><path d="M225.1 150.2h147.2V99.6H225z" fill="#fff" id="patch_14"/><path clip-path="url(#p105127badf)" d="M260.3 147.9H272.4l.2-.1H274.6l.1-.1h1.2v-.1h.7l.2-.1h.4l.2-.1h.4l.1-.1h.5l.1-.1H278.7l.1-.1h.2l.1-.1H279.4l.1-.1h.2v-.1h.2l.2-.1h.1l.1-.1h.2l.1-.1.2-.1h.1l.1-.1.2-.1h.1l.2-.1.1-.1.1-.1h.2l.1-.2h.2l.1-.1.1-.1.2-.1.1-.1.2-.1v-.1l.2-.1.2-.1.1-.1.1-.1.2-.1.1-.2h.2l.1-.2.1-.1.2-.2.1-.1.2-.1.1-.2.1-.1.2-.2.1-.1.2-.2.1-.2.1-.1.2-.2.1-.2.2-.1v-.2l.2-.2.2-.2.1-.2.2-.2v-.2l.2-.2.2-.3.1-.2.1-.2.2-.3.1-.2.2-.2.1-.3.1-.3.2-.2.1-.3.2-.3.1-.3.1-.2.2-.3.1-.3.2-.3v-.3l.2-.4.2-.3.1-.3.2-.3v-.4l.2-.3.2-.3.1-.4.1-.3.2-.4.1-.3.2-.4.1-.4.1-.3.2-.4.1-.4.2-.3.1-.4.1-.4.2-.4.1-.4.2-.4.1-.4.1-.4.2-.4.1-.4.2-.4v-.4l.2-.4.2-.5.1-.4.1-.4.2-.4.1-.4.2-.5.1-.4.1-.4.2-.5.1-.4.2-.4.1-.5.1-.4.2-.5.1-.4.2-.5.1-.4.1-.4.2-.5.1-.4.2-.4v-.5l.2-.4.2-.4.1-.5.1-.4.2-.4.1-.4.2-.4.1-.5.1-.4.2-.4.1-.4.2-.3.1-.4.1-.4.2-.4.1-.3.2-.4.1-.4.1-.3.2-.3.1-.4.2-.3v-.3l.2-.3.2-.3.1-.3.2-.3v-.3l.2-.3.2-.2.1-.3.1-.2.2-.3.1-.2.2-.2.1-.2.1-.2.2-.2.1-.2.2-.1.1-.2.1-.1.2-.2h.1l.2-.2.2-.2h.2l.1-.1h.2l.2-.1H304.3l.1.1h.2l.1.2h.1l.2.2h.1l.2.2.1.2.1.1.2.2.1.2.2.2.1.2.1.2.2.2.1.2.2.3v.2l.2.3.2.3.1.3.1.2.2.3.1.3.2.4.1.3.1.3.2.3.1.4.2.3.1.3.1.4.2.4.1.3.2.4.1.3.1.4.2.4.1.4.2.4v.4l.2.3.2.4.1.4.1.4.2.5.1.4.2.4.1.4.1.4.2.4.1.4.2.5.1.4.1.4.2.4.1.5.2.4.1.4.1.5.2.4.1.4.2.5v.4l.2.4.2.4.1.5.2.4v.4l.2.4.2.5.1.4.1.4.2.4.1.4.2.4.1.4.1.4.2.4.1.4.2.4.1.4.1.3.2.4.1.4.2.4.1.3.1.4.2.3.1.4.2.3v.4l.2.3.2.4.1.3.1.4.2.3.1.3.2.3.1.4.1.3.2.3.1.3.2.3.1.3.1.3.2.3.1.3.2.2.1.3.1.3.2.3.1.2.2.3v.2l.2.3.2.2.1.2.1.3.2.2.1.2.2.2.1.2.1.2.2.2.1.2.2.2.1.2.1.2.2.1.1.2.2.2.1.1.1.2.2.1.1.2.2.1v.1l.2.2.2.1.1.1.1.2h.2l.1.2.2.1.1.1.1.1.2.1.1.1.2.1.1.1.1.1h.2l.1.2h.2l.1.1h.1l.2.2H326.6v.2h.4l.1.1h.2v.1h.2l.2.1h.2l.2.1h.1l.2.1h.4l.1.1h.4l.2.1h.4l.1.1H331l.1.1h1l.1.1H334.1l.1.1h7.5l.2.1H345.5z" fill="#1f77b4" opacity=".4" id="patch_15"/><path clip-path="url(#p105127badf)" d="M287.3 147.9v-7.7l.1-.2.2-.3.1-.2.2-.2.1-.3.1-.3.2-.2.1-.3.2-.3.1-.3.1-.2.2-.3.1-.3.2-.3v-.3l.2-.4.2-.3.1-.3.2-.3v-.4l.2-.3.2-.3.1-.4.1-.3.2-.4.1-.3.2-.4.1-.4.1-.3.2-.4.1-.4.2-.3.1-.4.1-.4.2-.4.1-.4.2-.4.1-.4.1-.4.2-.4.1-.4.2-.4v-.4l.2-.4.2-.5.1-.4.1-.4.2-.4.1-.4.2-.5.1-.4.1-.4.2-.5.1-.4.2-.4.1-.5.1-.4.2-.5.1-.4.2-.5.1-.4.1-.4.2-.5.1-.4.2-.4v-.5l.2-.4.2-.4.1-.5.1-.4.2-.4.1-.4.2-.4.1-.5.1-.4.2-.4.1-.4.2-.3.1-.4.1-.4.2-.4.1-.3.2-.4.1-.4.1-.3.2-.3.1-.4.2-.3v-.3l.2-.3.2-.3.1-.3.2-.3v-.3l.2-.3.2-.2.1-.3.1-.2.2-.3.1-.2.2-.2.1-.2.1-.2.2-.2.1-.2.2-.1.1-.2.1-.1.2-.2h.1l.2-.2.2-.2h.2l.1-.1h.2l.2-.1H304.3l.1.1h.2l.1.2h.1l.2.2h.1l.2.2.1.2.1.1.2.2.1.2.2.2.1.2.1.2.2.2.1.2.2.3v.2l.2.3.2.3.1.3.1.2.2.3.1.3.2.4.1.3.1.3.2.3.1.4.2.3.1.3.1.4.2.4.1.3.2.4.1.3.1.4.2.4.1.4.2.4v.4l.2.3.2.4.1.4.1.4.2.5.1.4.2.4.1.4.1.4.2.4.1.4.2.5.1.4.1.4.2.4.1.5.2.4.1.4.1.5.2.4.1.4.2.5v.4l.2.4.2.4.1.5.2.4v.4l.2.4.2.5.1.4.1.4.2.4.1.4.2.4.1.4.1.4.2.4.1.4.2.4.1.4.1.3.2.4.1.4.2.4.1.3.1.4.2.3.1.4.2.3v.4l.2.3.2.4.1.3.1.4.2.3.1.3.2.3.1.4.1.3.2.3.1.3.2.3.1.3.1.3.2.3.1.3.2.2.1.3.1.3v8.8z" fill="#1f77b4" opacity=".4" id="patch_16"/><g id="matplotlib.axis_4"><g id="xtick_16"><use x="225.1" xlink:href="#m68f741c087" y="150.2" stroke="#000" stroke-width=".8" id="line2d_19"/><g transform="matrix(.1 0 0 -.1 217.8 164.8)" id="text_16"><use xlink:href="#DejaVuSans-8722"/><use x="83.8" xlink:href="#DejaVuSans-52"/></g></g><g id="xtick_17"><use x="261.9" xlink:href="#m68f741c087" y="150.2" stroke="#000" stroke-width=".8" id="line2d_20"/><g transform="matrix(.1 0 0 -.1 254.6 164.8)" id="text_17"><use xlink:href="#DejaVuSans-8722"/><use x="83.8" xlink:href="#DejaVuSans-50"/></g></g><g id="xtick_18"><use x="298.7" xlink:href="#m68f741c087" y="150.2" stroke="#000" stroke-width=".8" id="line2d_21"/><use xlink:href="#DejaVuSans-48" transform="matrix(.1 0 0 -.1 295.5 164.8)" id="text_18"/></g><g id="xtick_19"><use x="335.5" xlink:href="#m68f741c087" y="150.2" stroke="#000" stroke-width=".8" id="line2d_22"/><use xlink:href="#DejaVuSans-50" transform="matrix(.1 0 0 -.1 332.3 164.8)" id="text_19"/></g><g id="xtick_20"><use x="372.3" xlink:href="#m68f741c087" y="150.2" stroke="#000" stroke-width=".8" id="line2d_23"/><use xlink:href="#DejaVuSans-52" transform="matrix(.1 0 0 -.1 369.1 164.8)" id="text_20"/></g></g><path clip-path="url(#p105127badf)" d="M306 150.2V99.6" fill="none" stroke="#1f77b4" stroke-linecap="square" stroke-width="1.5" id="line2d_24"/><path d="M225.1 150.2h147.2" fill="none" stroke="#000" stroke-linecap="square" stroke-width=".8" id="patch_17"/></g><g id="axes_5"><path d="M14.6 242.6h147.1V192H14.6z" fill="#fff" id="patch_18"/><path clip-path="url(#p638de83ce8)" d="M53.6 240.3h7.6l.2-.1h2.1v-.1H64.7l.2-.1h.8l.1-.1h.5l.2-.1H66.8l.2-.1h.2l.2-.1h.2l.2-.1h.2l.2-.1h.1l.1-.1h.2l.2-.1h.2v-.1h.2l.2-.1.2-.1.1-.1h.2l.1-.1h.1l.2-.2h.2l.2-.2h.1l.1-.1h.2l.1-.1.1-.1.2-.1.2-.2h.2v-.1l.2-.1.1-.1.2-.1.1-.1.1-.1.2-.1.1-.1.1-.1.2-.1.1-.1.1-.1.2-.1.1-.2h.1l.2-.2v-.1l.2-.1.2-.2v-.1l.2-.1.2-.2v-.1l.2-.2.1-.1.2-.2.1-.1.1-.2.2-.1.1-.2.1-.2.2-.1.1-.2.1-.2.2-.2v-.1l.2-.2.2-.2v-.2l.2-.2.2-.2v-.2l.2-.2.1-.2.2-.3.1-.2.1-.2.2-.3.1-.2.1-.2.2-.3.1-.2.1-.3.2-.3.1-.2.1-.3.2-.3v-.3l.2-.3.2-.2v-.3l.2-.3.2-.4v-.3l.2-.3.1-.3.2-.3.1-.4.1-.3.2-.4.1-.3.1-.4.2-.3.1-.4.1-.4.2-.4v-.4l.2-.3.2-.4v-.4l.2-.4.2-.5v-.4l.2-.4.1-.4.2-.4.1-.5.1-.4.2-.4.1-.5.1-.4.2-.4.1-.5.1-.4.2-.5.1-.4.1-.5.2-.4v-.5l.2-.4.2-.4v-.5l.2-.4.2-.5v-.4l.2-.4.1-.5.2-.4.1-.4.1-.4.2-.4.1-.4.1-.4.2-.4.1-.4.1-.4.2-.3v-.4l.2-.4.2-.3v-.4l.2-.3.2-.4v-.3l.2-.3.1-.3.2-.3.1-.3.1-.3.2-.3.1-.3.1-.3.2-.2.1-.3.1-.3.2-.2.1-.3.1-.2.2-.2v-.3l.2-.2.2-.2v-.2l.2-.2.1-.2.2-.2.1-.1.1-.2.2-.2.1-.1.1-.2.2-.1.1-.2.1-.1.2-.1.1-.2h.1l.2-.2.2-.1.2-.1.2-.1h.2v-.1H93.8l.2-.1h.5l.1.1h.2l.1.1.1.1.2.1.1.1.1.1.2.2v.1l.2.2.2.1v.2l.2.2.1.2.2.3.1.2.1.3.2.2.1.3.1.3.2.3.1.3.1.3.2.3.1.3.1.4.2.3v.4l.2.3.2.4v.3l.2.4.2.4v.4l.2.3.1.4.2.4.1.4.1.4.2.4.1.4.1.4.2.3.1.4.1.4.2.4v.4l.2.4.2.4v.4l.2.4.2.3v.4l.2.4.1.4.2.4.1.4.1.4.2.4.1.4.1.4.2.4.1.4.1.3.2.4.1.4.1.4.2.4v.4l.2.4.2.4v.4l.2.4.2.4v.4l.2.4.1.4.2.3.1.4.1.4.2.4.1.4.1.4.2.3.1.4.1.4.2.3v.4l.2.4.2.3v.4l.2.3.2.3v.4l.2.3.1.3.2.4.1.3.1.3.2.3.1.3.1.3.2.3.1.3.1.3.2.3.1.2.1.3.2.3v.2l.2.3.2.3v.2l.2.3.1.2.2.3.1.2.1.2.2.3.1.2.1.2.2.2.1.2.1.3.2.2.1.2.1.2.2.2v.1l.2.2.2.2v.2l.2.2.2.1v.2l.2.2.1.1.2.2.1.1.1.2.2.1.1.2h.1l.2.2.1.1.1.2h.2l.1.2h.1l.2.2v.1h.2l.2.2.2.2h.1l.2.1.1.1h.1l.2.1.1.1h.1l.2.1.1.1h.1l.2.1h.1l.1.1h.2v.1h.2l.2.1.2.1h.2l.2.1H118l.1.1h.1l.2.1h.4l.1.1H119.2l.1.1H119.6l.2.1h.5l.2.1h.5l.1.1h1v.1H124l.1.1H131.3l.1.1H134.2z" fill="#1f77b4" opacity=".4" id="patch_19"/><path clip-path="url(#p638de83ce8)" d="M76.4 240.3V233l.2-.2.2-.2v-.2l.2-.2.2-.2v-.2l.2-.2.1-.2.2-.3.1-.2.1-.2.2-.3.1-.2.1-.2.2-.3.1-.2.1-.3.2-.3.1-.2.1-.3.2-.3v-.3l.2-.3.2-.2v-.3l.2-.3.2-.4v-.3l.2-.3.1-.3.2-.3.1-.4.1-.3.2-.4.1-.3.1-.4.2-.3.1-.4.1-.4.2-.4v-.4l.2-.3.2-.4v-.4l.2-.4.2-.5v-.4l.2-.4.1-.4.2-.4.1-.5.1-.4.2-.4.1-.5.1-.4.2-.4.1-.5.1-.4.2-.5.1-.4.1-.5.2-.4v-.5l.2-.4.2-.4v-.5l.2-.4.2-.5v-.4l.2-.4.1-.5.2-.4.1-.4.1-.4.2-.4.1-.4.1-.4.2-.4.1-.4.1-.4.2-.3v-.4l.2-.4.2-.3v-.4l.2-.3.2-.4v-.3l.2-.3.1-.3.2-.3.1-.3.1-.3.2-.3.1-.3.1-.3.2-.2.1-.3.1-.3.2-.2.1-.3.1-.2.2-.2v-.3l.2-.2.2-.2v-.2l.2-.2.1-.2.2-.2.1-.1.1-.2.2-.2.1-.1.1-.2.2-.1.1-.2.1-.1.2-.1.1-.2h.1l.2-.2.2-.1.2-.1.2-.1h.2v-.1H93.8l.2-.1h.5l.1.1h.2l.1.1.1.1.2.1.1.1.1.1.2.2v.1l.2.2.2.1v.2l.2.2.1.2.2.3.1.2.1.3.2.2.1.3.1.3.2.3.1.3.1.3.2.3.1.3.1.4.2.3v.4l.2.3.2.4v.3l.2.4.2.4v.4l.2.3.1.4.2.4.1.4.1.4.2.4.1.4.1.4.2.3.1.4.1.4.2.4v.4l.2.4.2.4v.4l.2.4.2.3v.4l.2.4.1.4.2.4.1.4.1.4.2.4.1.4.1.4.2.4.1.4.1.3.2.4.1.4.1.4.2.4v.4l.2.4.2.4v.4l.2.4.2.4v.4l.2.4.1.4.2.3.1.4.1.4.2.4.1.4.1.4.2.3.1.4.1.4.2.3v.4l.2.4.2.3v.4l.2.3.2.3v.4l.2.3.1.3.2.4.1.3.1.3.2.3.1.3.1.3.2.3.1.3.1.3.2.3.1.2.1.3.2.3v.2l.2.3.2.3v.2l.2.3.1.2.2.3v8.5z" fill="#1f77b4" opacity=".4" id="patch_20"/><g id="matplotlib.axis_5"><g id="xtick_21"><use x="14.6" xlink:href="#m68f741c087" y="242.6" stroke="#000" stroke-width=".8" id="line2d_25"/><g transform="matrix(.1 0 0 -.1 7.2 257.2)" id="text_21"><use xlink:href="#DejaVuSans-8722"/><use x="83.8" xlink:href="#DejaVuSans-52"/></g></g><g id="xtick_22"><use x="51.4" xlink:href="#m68f741c087" y="242.6" stroke="#000" stroke-width=".8" id="line2d_26"/><g transform="matrix(.1 0 0 -.1 44 257.2)" id="text_22"><use xlink:href="#DejaVuSans-8722"/><use x="83.8" xlink:href="#DejaVuSans-50"/></g></g><g id="xtick_23"><use x="88.1" xlink:href="#m68f741c087" y="242.6" stroke="#000" stroke-width=".8" id="line2d_27"/><use xlink:href="#DejaVuSans-48" transform="matrix(.1 0 0 -.1 85 257.2)" id="text_23"/></g><g id="xtick_24"><use x="124.9" xlink:href="#m68f741c087" y="242.6" stroke="#000" stroke-width=".8" id="line2d_28"/><use xlink:href="#DejaVuSans-50" transform="matrix(.1 0 0 -.1 121.7 257.2)" id="text_24"/></g><g id="xtick_25"><use x="161.7" xlink:href="#m68f741c087" y="242.6" stroke="#000" stroke-width=".8" id="line2d_29"/><use xlink:href="#DejaVuSans-52" transform="matrix(.1 0 0 -.1 158.5 257.2)" id="text_25"/></g></g><path clip-path="url(#p638de83ce8)" d="M96.6 242.6V192" fill="none" stroke="#1f77b4" stroke-linecap="square" stroke-width="1.5" id="line2d_30"/><path d="M14.6 242.6h147.1" fill="none" stroke="#000" stroke-linecap="square" stroke-width=".8" id="patch_21"/></g><g id="axes_6"><path d="M225.1 242.6h147.2V192H225z" fill="#fff" id="patch_22"/><path clip-path="url(#p6209598212)" d="M263.3 240.3h7.8l.2-.1H272.9l.2-.1H274l.1-.1H274.8l.1-.1H275.5l.2-.1h.5l.2-.1h.4l.1-.1H277.2l.2-.1h.4l.1-.1h.2l.1-.1H278.5l.1-.1h.1l.2-.1h.1l.1-.1h.2v-.1h.2l.2-.1.2-.1.1-.1h.2l.1-.1.1-.1.2-.1h.1l.1-.2h.2v-.1l.2-.1.2-.1v-.1l.2-.1.1-.1.2-.1.1-.1.1-.1.2-.2h.1l.1-.2.2-.1.1-.2.1-.1.2-.1v-.2l.2-.1.2-.2v-.1l.2-.2.1-.1.2-.2.1-.1.1-.2.2-.2.1-.2.1-.1.2-.2.1-.2.1-.2.2-.2v-.2l.2-.2.2-.2v-.2l.2-.2.1-.2.2-.2.1-.2.1-.2.2-.3.1-.2.1-.2.2-.3.1-.2.1-.3.2-.2v-.3l.2-.2.2-.3v-.3l.2-.2.1-.3.2-.3.1-.3.1-.3.2-.3.1-.3.1-.3.2-.3v-.3l.2-.4.2-.3v-.3l.2-.3.1-.4.2-.3.1-.4.1-.3.2-.4.1-.3.1-.4.2-.3.1-.4.1-.3.2-.4v-.4l.2-.3.2-.4v-.4l.2-.4.1-.4.2-.3.1-.4.1-.4.2-.4.1-.4.1-.4.2-.4.1-.4.1-.4.2-.4v-.5l.2-.4.2-.4v-.4l.2-.5.1-.4.2-.4.1-.4.1-.5.2-.4.1-.4.1-.5.2-.4.1-.5.1-.4.2-.4v-.5l.2-.4.2-.4v-.4l.2-.5.1-.4.2-.4.1-.4.1-.4.2-.4.1-.4.1-.4.2-.4v-.4l.2-.4.2-.4v-.3l.2-.4.1-.3.2-.4.1-.3.1-.3.2-.3.1-.3.1-.3.2-.3.1-.3.1-.2.2-.3v-.2l.2-.3.2-.2v-.2l.2-.2.1-.2.2-.2.1-.1.1-.2.2-.2h.1l.1-.2.2-.1.1-.1.1-.1.2-.1v-.1h.2l.2-.1H302l.2-.1h.5l.1.1.2.1h.1l.1.2h.2v.2h.2l.2.2v.1l.2.2.1.1.2.2.1.2.1.2.2.2.1.2.1.2.2.2v.3l.2.2.2.3v.2l.2.3.1.3.2.3.1.3.1.3.2.3.1.3.1.3.2.4.1.3.1.3.2.4v.3l.2.4.2.3v.4l.2.4.1.3.2.4.1.4.1.4.2.4.1.4.1.3.2.4.1.4.1.5.2.4v.4l.2.4.2.4v.4l.2.4.1.5.2.4.1.4.1.4.2.5.1.4.1.4.2.5.1.4.1.4.2.4v.5l.2.4.2.4v.5l.2.4.1.4.2.4.1.5.1.4.2.4.1.4.1.4.2.4v.4l.2.4.2.4v.4l.2.4.1.4.2.4.1.3.1.4.2.4.1.3.1.4.2.3.1.4.1.3.2.3v.4l.2.3.2.3v.3l.2.3.1.3.2.3.1.3.1.2.2.3.1.3.1.2.2.3.1.3.1.2.2.2v.3l.2.2.2.3v.2l.2.2.1.2.2.2.1.2.1.2.2.2.1.2.1.2.2.2v.2l.2.2.2.2v.2l.2.1.2.2v.2l.2.1.1.2.2.2.1.1.1.2.2.1.1.2.1.1.2.2v.1l.2.1.2.2v.1l.2.1.1.1.2.2h.1l.1.2.2.1.1.1.1.1.2.1.1.1h.1l.2.2.2.2h.2v.1h.2l.1.2H324.1l.1.2H324.5l.1.1.2.1h.1l.1.1h.2v.1h.2l.2.1.2.1H326.1l.1.1h.1l.2.1h.2l.2.1.2.1h.2l.2.1h.4l.1.1H328.3l.1.1H329v.1h.4l.2.1h.7l.1.1H331.3l.2.1h1.4l.1.1H340l.1.1H343.5z" fill="#1f77b4" opacity=".4" id="patch_23"/><path clip-path="url(#p6209598212)" d="M285.7 240.3v-7.5l.1-.2.1-.2.2-.2.1-.2.1-.2.2-.3.1-.2.1-.2.2-.3.1-.2.1-.3.2-.2v-.3l.2-.2.2-.3v-.3l.2-.2.1-.3.2-.3.1-.3.1-.3.2-.3.1-.3.1-.3.2-.3v-.3l.2-.4.2-.3v-.3l.2-.3.1-.4.2-.3.1-.4.1-.3.2-.4.1-.3.1-.4.2-.3.1-.4.1-.3.2-.4v-.4l.2-.3.2-.4v-.4l.2-.4.1-.4.2-.3.1-.4.1-.4.2-.4.1-.4.1-.4.2-.4.1-.4.1-.4.2-.4v-.5l.2-.4.2-.4v-.4l.2-.5.1-.4.2-.4.1-.4.1-.5.2-.4.1-.4.1-.5.2-.4.1-.5.1-.4.2-.4v-.5l.2-.4.2-.4v-.4l.2-.5.1-.4.2-.4.1-.4.1-.4.2-.4.1-.4.1-.4.2-.4v-.4l.2-.4.2-.4v-.3l.2-.4.1-.3.2-.4.1-.3.1-.3.2-.3.1-.3.1-.3.2-.3.1-.3.1-.2.2-.3v-.2l.2-.3.2-.2v-.2l.2-.2.1-.2.2-.2.1-.1.1-.2.2-.2h.1l.1-.2.2-.1.1-.1.1-.1.2-.1v-.1h.2l.2-.1H302l.2-.1h.5l.1.1.2.1h.1l.1.2h.2v.2h.2l.2.2v.1l.2.2.1.1.2.2.1.2.1.2.2.2.1.2.1.2.2.2v.3l.2.2.2.3v.2l.2.3.1.3.2.3.1.3.1.3.2.3.1.3.1.3.2.4.1.3.1.3.2.4v.3l.2.4.2.3v.4l.2.4.1.3.2.4.1.4.1.4.2.4.1.4.1.3.2.4.1.4.1.5.2.4v.4l.2.4.2.4v.4l.2.4.1.5.2.4.1.4.1.4.2.5.1.4.1.4.2.5.1.4.1.4.2.4v.5l.2.4.2.4v.5l.2.4.1.4.2.4.1.5.1.4.2.4.1.4.1.4.2.4v.4l.2.4.2.4v.4l.2.4.1.4.2.4.1.3.1.4.2.4.1.3.1.4.2.3.1.4.1.3.2.3v.4l.2.3.2.3v.3l.2.3.1.3.2.3.1.3.1.2.2.3.1.3.1.2.2.3.1.3.1.2.2.2v.3l.2.2.2.3v.2l.2.2.1.2.2.2.1.2.1.2.2.2.1.2v7.5z" fill="#1f77b4" opacity=".4" id="patch_24"/><g id="matplotlib.axis_6"><g id="xtick_26"><use x="225.1" xlink:href="#m68f741c087" y="242.6" stroke="#000" stroke-width=".8" id="line2d_31"/><g transform="matrix(.1 0 0 -.1 217.8 257.2)" id="text_26"><use xlink:href="#DejaVuSans-8722"/><use x="83.8" xlink:href="#DejaVuSans-52"/></g></g><g id="xtick_27"><use x="261.9" xlink:href="#m68f741c087" y="242.6" stroke="#000" stroke-width=".8" id="line2d_32"/><g transform="matrix(.1 0 0 -.1 254.6 257.2)" id="text_27"><use xlink:href="#DejaVuSans-8722"/><use x="83.8" xlink:href="#DejaVuSans-50"/></g></g><g id="xtick_28"><use x="298.7" xlink:href="#m68f741c087" y="242.6" stroke="#000" stroke-width=".8" id="line2d_33"/><use xlink:href="#DejaVuSans-48" transform="matrix(.1 0 0 -.1 295.5 257.2)" id="text_28"/></g><g id="xtick_29"><use x="335.5" xlink:href="#m68f741c087" y="242.6" stroke="#000" stroke-width=".8" id="line2d_34"/><use xlink:href="#DejaVuSans-50" transform="matrix(.1 0 0 -.1 332.3 257.2)" id="text_29"/></g><g id="xtick_30"><use x="372.3" xlink:href="#m68f741c087" y="242.6" stroke="#000" stroke-width=".8" id="line2d_35"/><use xlink:href="#DejaVuSans-52" transform="matrix(.1 0 0 -.1 369.1 257.2)" id="text_30"/></g></g><path clip-path="url(#p6209598212)" d="M303.6 242.6V192" fill="none" stroke="#1f77b4" stroke-linecap="square" stroke-width="1.5" id="line2d_36"/><path d="M225.1 242.6h147.2" fill="none" stroke="#000" stroke-linecap="square" stroke-width=".8" id="patch_25"/></g></g><defs><clipPath id="p8aed5e04f0"><path d="M14.6 7.2h147.1v50.6H14.6z"/></clipPath><clipPath id="p0064541d60"><path d="M225.1 7.2h147.1v50.6H225.1z"/></clipPath><clipPath id="p6c7b1d94c4"><path d="M14.6 99.6h147.1v50.6H14.6z"/></clipPath><clipPath id="p105127badf"><path d="M225.1 99.6h147.1v50.6H225.1z"/></clipPath><clipPath id="p638de83ce8"><path d="M14.6 192h147.1v50.6H14.6z"/></clipPath><clipPath id="p6209598212"><path d="M225.1 192h147.1v50.6H225.1z"/></clipPath></defs></svg>