<svg version="1.1" viewBox="0.0 0.0 511.9422572178478 400.9737532808399" fill="none" stroke="none" stroke-linecap="square" stroke-miterlimit="10" xmlns:xlink="http://www.w3.org/1999/xlink" xmlns="http://www.w3.org/2000/svg"><clipPath id="p.0"><path d="m0 0l511.94226 0l0 400.97375l-511.94226 0l0 -400.97375z" clip-rule="nonzero"/></clipPath><g clip-path="url(#p.0)"><path fill="#000000" fill-opacity="0.0" d="m0 0l511.94226 0l0 400.97375l-511.94226 0z" fill-rule="evenodd"/><path fill="#c9daf8" d="m424.05353 52.96344l0 0c1.0175781 -5.114071 5.9882812 -8.434917 11.102356 -7.417324l0 0c2.4558716 0.48866653 4.6170044 1.9329071 6.008026 4.015003c1.3910217 2.0821 1.8979492 4.6314964 1.4093018 7.0873604l0 0c-1.0176086 5.114071 -5.988312 8.434917 -11.102356 7.417324l0 0c-5.1140747 -1.0175972 -8.434937 -5.9882927 -7.417328 -11.102364z" fill-rule="evenodd"/><path fill="#c9daf8" d="m180.32933 237.51668l0 0c1.0175934 -5.1140747 5.9882965 -8.434921 11.102356 -7.417328l0 0c2.4558716 0.48866272 4.6170197 1.9329071 6.0080414 4.0149994c1.3910217 2.0821075 1.8979492 4.6315002 1.4092865 7.087372l0 0c-1.0175934 5.1140594 -5.9882965 8.434906 -11.102356 7.4173126l0 0c-5.1140747 -1.0175934 -8.434921 -5.9882812 -7.417328 -11.102356z" fill-rule="evenodd"/><path fill="#c9daf8" d="m336.1884 142.73021l0 0c1.0176086 -5.1140747 5.9882812 -8.434921 11.102356 -7.417328l0 0c2.4558716 0.48866272 4.617035 1.9329071 6.0080566 4.0149994c1.3910217 2.0821075 1.8979492 4.6315002 1.4092712 7.087372l0 0c-1.0175781 5.1140594 -5.9882812 8.434906 -11.102356 7.4173126l0 0c-5.1140747 -1.0175934 -8.434906 -5.9882812 -7.417328 -11.102356z" fill-rule="evenodd"/><path fill="#c9daf8" d="m391.80045 141.76262l0 0c1.0176086 -5.1140747 5.9882812 -8.434921 11.102356 -7.417328l0 0c2.4558716 0.48867798 4.617035 1.9329071 6.0080566 4.0150146c1.3909912 2.0820923 1.8979492 4.631485 1.4092712 7.0873566l0 0c-1.0175781 5.1140594 -5.9882812 8.434921 -11.102356 7.4173126l0 0c-5.1140747 -1.0175934 -8.434937 -5.9882812 -7.417328 -11.102356z" fill-rule="evenodd"/><path fill="#c9daf8" d="m288.1826 109.14786l0 0c1.0176086 -5.1140747 5.988312 -8.434921 11.102386 -7.417328l0 0c2.455841 0.48867035 4.6170044 1.9329071 6.008026 4.015007c1.3910217 2.0820923 1.8979492 4.6314926 1.4092712 7.0873566l0 0c-1.0175781 5.1140747 -5.9882812 8.434921 -11.102356 7.417328l0 0c-5.1140747 -1.017601 -8.434906 -5.9882965 -7.417328 -11.102364z" fill-rule="evenodd"/><path fill="#c9daf8" d="m450.9615 75.15317l0 0c1.0175781 -5.114067 5.9882812 -8.434914 11.102356 -7.4173203l0 0c2.4558716 0.48866272 4.6170044 1.9329071 6.008026 4.0149994c1.3910217 2.0821 1.8979492 4.6315002 1.4093018 7.087364l0 0c-1.0176086 5.114067 -5.988312 8.434914 -11.102356 7.4173203l0 0c-5.1140747 -1.0175934 -8.434937 -5.988289 -7.417328 -11.102364z" fill-rule="evenodd"/><path fill="#c9daf8" d="m201.95735 184.57217l0 0c1.0175934 -5.1140747 5.9882812 -8.434921 11.102356 -7.417328l0 0c2.4558716 0.48866272 4.6170197 1.9329071 6.0080414 4.0149994c1.3910065 2.0821075 1.8979492 4.6315002 1.4092865 7.0873566l0 0c-1.0175934 5.1140747 -5.9882965 8.434921 -11.102371 7.417328l0 0c-5.1140594 -1.0175934 -8.434906 -5.9882965 -7.4173126 -11.102356z" fill-rule="evenodd"/><path fill="#c9daf8" d="m96.86307 236.9904l0 0c1.0175934 -5.1140747 5.988289 -8.434921 11.102364 -7.417328l0 0c2.4558563 0.48867798 4.617012 1.9329071 6.0080338 4.0150146c1.3910141 2.0820923 1.8979492 4.631485 1.4092865 7.0873566l0 0c-1.0175934 5.1140594 -5.988289 8.434921 -11.102364 7.4173126l0 0c-5.114067 -1.0175934 -8.434914 -5.9882812 -7.4173203 -11.102356z" fill-rule="evenodd"/><path fill="#c9daf8" d="m327.9895 90.82463l0 0c1.0176086 -5.1140747 5.9882812 -8.434921 11.102356 -7.417328l0 0c2.4558716 0.48867035 4.617035 1.9329071 6.0080566 4.015007c1.3909912 2.0820923 1.8979492 4.6314926 1.4092712 7.0873566l0 0c-1.0176086 5.114067 -5.9882812 8.434921 -11.102356 7.4173203l0 0c-5.1140747 -1.0175934 -8.434937 -5.988289 -7.417328 -11.102356z" fill-rule="evenodd"/><path fill="#c9daf8" d="m257.38776 155.63551l0 0c1.0175781 -5.1140747 5.9882812 -8.434921 11.102356 -7.417328l0 0c2.4558716 0.48867798 4.6170044 1.9329071 6.008026 4.0150146c1.3910217 2.0820923 1.8979492 4.631485 1.4093018 7.0873566l0 0c-1.0176086 5.1140747 -5.9882812 8.434921 -11.102356 7.417328l0 0c-5.1140747 -1.0176086 -8.434937 -5.9882965 -7.417328 -11.102371z" fill-rule="evenodd"/><path fill="#000000" fill-opacity="0.0" d="m78.85526 323.55402l416.8819 0" fill-rule="evenodd"/><path stroke="#000000" stroke-width="2.0" stroke-linejoin="round" stroke-linecap="butt" d="m78.85526 323.55402l404.8819 0" fill-rule="evenodd"/><path fill="#000000" stroke="#000000" stroke-width="2.0" stroke-linecap="butt" d="m483.73715 326.85748l9.076202 -3.3034668l-9.076202 -3.3034668z" fill-rule="evenodd"/><path fill="#000000" fill-opacity="0.0" d="m228.2126 375.09158l131.84251 0l0 17.921234l-131.84251 0z" fill-rule="evenodd"/><path fill="#000000" d="m296.83307 392.5922l-2.71875 -4.015625l-2.734375 4.015625l-3.453125 0l4.46875 -6.0l-4.234375 -5.90625l3.484375 0l2.671875 3.90625l2.625 -3.90625l3.21875 0l-4.109375 5.875l4.328125 6.03125l-3.546875 0z" fill-rule="nonzero"/><path fill="#000000" fill-opacity="0.0" d="m4.507211 141.81102l35.496063 0l0 37.858276l-35.496063 0z" fill-rule="evenodd"/><path fill="#000000" d="m24.454462 167.98328q-0.625 1.546875 -1.296875 2.703125q-0.671875 1.171875 -1.484375 1.953125q-0.8125 0.78125 -1.8125 1.171875q-0.984375 0.390625 -2.203125 0.390625q-0.296875 0 -0.640625 -0.03125q-0.34375 -0.03125 -0.71875 -0.078125l0 -2.4375q0.140625 0.03125 0.328125 0.0625q0.1875 0.03125 0.375 0.046875q0.203125 0.015625 0.40625 0.015625q0.203125 0.015625 0.390625 0.015625q0.484375 0 0.90625 -0.1875q0.421875 -0.1875 0.78125 -0.515625q0.359375 -0.328125 0.640625 -0.796875q0.296875 -0.46875 0.53125 -1.015625l-4.734375 -11.90625l3.1875 0l2.484375 6.75l0.734375 2.171875l0.71875 -2.078125l2.5 -6.84375l3.078125 0l-4.171875 10.609375z" fill-rule="nonzero"/><path fill="#000000" fill-opacity="0.0" d="m80.1174 278.1076l425.22836 -245.51181" fill-rule="evenodd"/><path stroke="#3c78d8" stroke-width="3.0" stroke-linejoin="round" stroke-linecap="butt" d="m80.1174 278.1076l425.22836 -245.51181" fill-rule="evenodd"/><path fill="#000000" fill-opacity="0.0" d="m50.46379 249.6098l29.133858 0l0 37.858276l-29.133858 0z" fill-rule="evenodd"/><path fill="#000000" d="m68.980194 275.45892l-7.468746 0l0 -1.46875l3.0624962 0l0 -8.703125l-2.8593712 1.546875l-0.578125 -1.34375l3.7812462 -1.984375l1.40625 0l0 10.484375l2.65625 0l0 1.46875z" fill-rule="nonzero"/><path fill="#000000" fill-opacity="0.0" d="m50.46379 305.0378l29.133858 0l0 37.858246l-29.133858 0z" fill-rule="evenodd"/><path fill="#000000" d="m69.355194 324.9338q0 1.375 -0.28125 2.5q-0.265625 1.125 -0.828125 1.9375q-0.546875 0.796875 -1.375 1.234375q-0.8125 0.4375 -1.9375 0.4375q-0.9531212 0 -1.7343712 -0.359375q-0.78125 -0.359375 -1.34375 -1.09375q-0.546875 -0.75 -0.859375 -1.90625q-0.296875 -1.15625 -0.296875 -2.75q0 -1.359375 0.28125 -2.484375q0.28125 -1.140625 0.828125 -1.9375q0.546875 -0.8125 1.375 -1.25q0.8437462 -0.4375 1.9374962 -0.4375q0.953125 0 1.734375 0.359375q0.796875 0.359375 1.34375 1.109375q0.5625 0.75 0.859375 1.90625q0.296875 1.15625 0.296875 2.734375zm-1.59375 0.0625q0 -0.3125 -0.03125 -0.609375q-0.015625 -0.3125 -0.046875 -0.609375l-5.046871 3.75q0.140625 0.46875 0.34375 0.875q0.21875 0.390625 0.515625 0.6875q0.296875 0.28125 0.6718712 0.453125q0.375 0.15625 0.859375 0.15625q0.625 0 1.125 -0.296875q0.515625 -0.3125 0.859375 -0.90625q0.359375 -0.59375 0.546875 -1.46875q0.203125 -0.875 0.203125 -2.03125zm-5.453121 -0.109375q0 0.28125 0 0.5625q0 0.28125 0.03125 0.546875l5.046871 -3.734375q-0.140625 -0.453125 -0.359375 -0.828125q-0.203125 -0.390625 -0.5 -0.671875q-0.28125 -0.28125 -0.65625 -0.4375q-0.375 -0.15625 -0.84375 -0.15625q-0.609375 0 -1.1249962 0.3125q-0.5 0.296875 -0.859375 0.890625q-0.359375 0.59375 -0.546875 1.484375q-0.1875 0.875 -0.1875 2.03125z" fill-rule="nonzero"/><path fill="#000000" fill-opacity="0.0" d="m50.46379 137.6098l29.133858 0l0 37.858276l-29.133858 0z" fill-rule="evenodd"/><path fill="#000000" d="m68.855194 159.84956q0 0.78125 -0.328125 1.46875q-0.3125 0.6875 -0.953125 1.203125q-0.625 0.515625 -1.59375 0.8125q-0.96875 0.28125 -2.2499962 0.28125q-0.71875 0 -1.28125 -0.046875q-0.5625 -0.03125 -1.046875 -0.109375l0 -1.421875q0.5625 0.09375 1.1875 0.15625q0.625 0.046875 1.28125 0.046875q0.8906212 0 1.5156212 -0.15625q0.640625 -0.15625 1.046875 -0.453125q0.40625 -0.296875 0.578125 -0.71875q0.1875 -0.4375 0.1875 -0.984375q0 -0.484375 -0.21875 -0.84375q-0.21875 -0.375 -0.625 -0.609375q-0.390625 -0.25 -0.9375 -0.375q-0.546875 -0.125 -1.203125 -0.125l-1.3593712 0l0 -1.296875l1.3749962 0q0.53125 0 0.96875 -0.140625q0.453125 -0.140625 0.765625 -0.40625q0.3125 -0.265625 0.484375 -0.65625q0.171875 -0.390625 0.171875 -0.875q0 -0.953125 -0.59375 -1.390625q-0.578125 -0.4375 -1.703125 -0.4375q-0.6093712 0 -1.2499962 0.125q-0.625 0.109375 -1.359375 0.34375l0 -1.390625q0.3125 -0.109375 0.65625 -0.1875q0.359375 -0.09375 0.703125 -0.140625q0.359375 -0.0625 0.703125 -0.09375q0.3437462 -0.03125 0.6562462 -0.03125q0.953125 0 1.671875 0.203125q0.71875 0.203125 1.203125 0.59375q0.484375 0.375 0.71875 0.921875q0.25 0.546875 0.25 1.21875q0 1.03125 -0.53125 1.71875q-0.515625 0.6875 -1.421875 1.109375q0.46875 0.0625 0.90625 0.28125q0.453125 0.21875 0.8125 0.5625q0.375 0.34375 0.59375 0.8125q0.21875 0.453125 0.21875 1.03125z" fill-rule="nonzero"/><path fill="#000000" fill-opacity="0.0" d="m50.46379 193.03781l29.133858 0l0 37.85826l-29.133858 0z" fill-rule="evenodd"/><path fill="#000000" d="m69.08957 218.88693l-7.843746 0l0 -1.421875l3.0781212 -3.0625q0.75 -0.75 1.21875 -1.296875q0.484375 -0.546875 0.75 -0.984375q0.265625 -0.453125 0.34375 -0.859375q0.09375 -0.40625 0.09375 -0.859375q0 -0.4375 -0.125 -0.828125q-0.109375 -0.40625 -0.359375 -0.703125q-0.234375 -0.3125 -0.640625 -0.484375q-0.390625 -0.171875 -0.9375 -0.171875q-0.7499962 0 -1.3749962 0.34375q-0.609375 0.328125 -1.125 0.875l-0.875 -1.046875q0.671875 -0.71875 1.546875 -1.140625q0.875 -0.421875 2.0468712 -0.421875q0.796875 0 1.4375 0.234375q0.65625 0.234375 1.125 0.6875q0.484375 0.4375 0.734375 1.09375q0.265625 0.640625 0.265625 1.453125q0 0.671875 -0.1875 1.265625q-0.171875 0.578125 -0.546875 1.15625q-0.375 0.578125 -0.9375 1.203125q-0.546875 0.609375 -1.3125 1.359375l-2.1718712 2.09375l5.796871 0l0 1.515625z" fill-rule="nonzero"/><path fill="#000000" fill-opacity="0.0" d="m50.46379 25.609806l29.133858 0l0 37.85827l-29.133858 0z" fill-rule="evenodd"/><path fill="#000000" d="m68.77707 47.64644q0 0.890625 -0.390625 1.625q-0.375 0.71875 -1.046875 1.25q-0.65625 0.515625 -1.578125 0.8125q-0.90625 0.28125 -1.9531212 0.28125q-0.265625 0 -0.578125 -0.015625q-0.296875 0 -0.609375 -0.03125q-0.296875 -0.015625 -0.59375 -0.046875q-0.28125 -0.03125 -0.5 -0.0625l0 -1.4375q0.484375 0.109375 1.109375 0.171875q0.640625 0.046875 1.296875 0.046875q0.7187462 0 1.2968712 -0.171875q0.59375 -0.171875 1.0 -0.484375q0.40625 -0.328125 0.625 -0.78125q0.21875 -0.46875 0.21875 -1.046875q0 -1.109375 -0.796875 -1.609375q-0.796875 -0.515625 -2.2812462 -0.515625l-2.265625 0l0 -6.078125l6.421871 0l0 1.390625l-4.921871 0l0 3.34375l1.0312462 0q0.859375 0 1.671875 0.15625q0.8125 0.140625 1.4375 0.53125q0.640625 0.390625 1.015625 1.046875q0.390625 0.640625 0.390625 1.625z" fill-rule="nonzero"/><path fill="#000000" fill-opacity="0.0" d="m50.46379 81.0378l29.133858 0l0 37.85827l-29.133858 0z" fill-rule="evenodd"/><path fill="#000000" d="m69.68332 104.26194l-2.03125 0l0 2.625l-1.625 0l0 -2.625l-5.734371 0l0 -1.40625l5.078121 -7.875l2.28125 0l0 7.875l2.03125 0l0 1.40625zm-3.65625 -7.75l-4.140621 6.34375l4.140621 0l0 -6.34375z" fill-rule="nonzero"/><path fill="#000000" fill-opacity="0.0" d="m65.891785 323.3258l29.133858 0l0 37.858276l-29.133858 0z" fill-rule="evenodd"/><path fill="#000000" d="m84.783195 343.22183q0 1.375 -0.28125 2.5q-0.265625 1.125 -0.828125 1.9375q-0.546875 0.796875 -1.375 1.234375q-0.8125 0.4375 -1.9375 0.4375q-0.953125 0 -1.734375 -0.359375q-0.78125 -0.359375 -1.34375 -1.09375q-0.546875 -0.75 -0.859375 -1.90625q-0.296875 -1.15625 -0.296875 -2.75q0 -1.359375 0.28125 -2.484375q0.28125 -1.140625 0.828125 -1.9375q0.546875 -0.8125 1.375 -1.25q0.84375 -0.4375 1.9375 -0.4375q0.953125 0 1.734375 0.359375q0.796875 0.359375 1.34375 1.109375q0.5625 0.75 0.859375 1.90625q0.296875 1.15625 0.296875 2.734375zm-1.59375 0.0625q0 -0.3125 -0.03125 -0.609375q-0.015625 -0.3125 -0.046875 -0.609375l-5.046875 3.75q0.140625 0.46875 0.34375 0.875q0.21875 0.390625 0.515625 0.6875q0.296875 0.28125 0.671875 0.453125q0.375 0.15625 0.859375 0.15625q0.625 0 1.125 -0.296875q0.515625 -0.3125 0.859375 -0.90625q0.359375 -0.59375 0.546875 -1.46875q0.203125 -0.875 0.203125 -2.03125zm-5.453125 -0.109375q0 0.28125 0 0.5625q0 0.28125 0.03125 0.546875l5.046875 -3.734375q-0.140625 -0.453125 -0.359375 -0.828125q-0.203125 -0.390625 -0.5 -0.671875q-0.28125 -0.28125 -0.65625 -0.4375q-0.375 -0.15625 -0.84375 -0.15625q-0.609375 0 -1.125 0.3125q-0.5 0.296875 -0.859375 0.890625q-0.359375 0.59375 -0.546875 1.484375q-0.1875 0.875 -0.1875 2.03125z" fill-rule="nonzero"/><path fill="#000000" fill-opacity="0.0" d="m137.89178 323.3258l29.133865 0l0 37.858276l-29.133865 0z" fill-rule="evenodd"/><path fill="#000000" d="m156.40819 349.17496l-7.46875 0l0 -1.46875l3.0625 0l0 -8.703125l-2.859375 1.546875l-0.578125 -1.34375l3.78125 -1.984375l1.40625 0l0 10.484375l2.65625 0l0 1.46875z" fill-rule="nonzero"/><path fill="#000000" fill-opacity="0.0" d="m209.89178 323.3258l29.133865 0l0 37.858276l-29.133865 0z" fill-rule="evenodd"/><path fill="#000000" d="m228.51756 349.17496l-7.84375 0l0 -1.421875l3.078125 -3.0625q0.75 -0.75 1.21875 -1.296875q0.484375 -0.546875 0.75 -0.984375q0.265625 -0.453125 0.34375 -0.859375q0.09375 -0.40625 0.09375 -0.859375q0 -0.4375 -0.125 -0.828125q-0.109375 -0.40625 -0.359375 -0.703125q-0.234375 -0.3125 -0.640625 -0.484375q-0.390625 -0.171875 -0.9375 -0.171875q-0.75 0 -1.375 0.34375q-0.609375 0.328125 -1.125 0.875l-0.875 -1.046875q0.671875 -0.71875 1.546875 -1.140625q0.875 -0.421875 2.046875 -0.421875q0.796875 0 1.4375 0.234375q0.65625 0.234375 1.125 0.6875q0.484375 0.4375 0.734375 1.09375q0.265625 0.640625 0.265625 1.453125q0 0.671875 -0.1875 1.265625q-0.171875 0.578125 -0.546875 1.15625q-0.375 0.578125 -0.9375 1.203125q-0.546875 0.609375 -1.3125 1.359375l-2.171875 2.09375l5.796875 0l0 1.515625z" fill-rule="nonzero"/><path fill="#000000" fill-opacity="0.0" d="m281.89178 323.3258l29.13385 0l0 37.858276l-29.13385 0z" fill-rule="evenodd"/><path fill="#000000" d="m300.2832 345.56558q0 0.78125 -0.328125 1.46875q-0.3125 0.6875 -0.953125 1.203125q-0.625 0.515625 -1.59375 0.8125q-0.96875 0.28125 -2.25 0.28125q-0.71875 0 -1.28125 -0.046875q-0.5625 -0.03125 -1.046875 -0.109375l0 -1.421875q0.5625 0.09375 1.1875 0.15625q0.625 0.046875 1.28125 0.046875q0.890625 0 1.515625 -0.15625q0.640625 -0.15625 1.046875 -0.453125q0.40625 -0.296875 0.578125 -0.71875q0.1875 -0.4375 0.1875 -0.984375q0 -0.484375 -0.21875 -0.84375q-0.21875 -0.375 -0.625 -0.609375q-0.390625 -0.25 -0.9375 -0.375q-0.546875 -0.125 -1.203125 -0.125l-1.359375 0l0 -1.296875l1.375 0q0.53125 0 0.96875 -0.140625q0.453125 -0.140625 0.765625 -0.40625q0.3125 -0.265625 0.484375 -0.65625q0.171875 -0.390625 0.171875 -0.875q0 -0.953125 -0.59375 -1.390625q-0.578125 -0.4375 -1.703125 -0.4375q-0.609375 0 -1.25 0.125q-0.625 0.109375 -1.359375 0.34375l0 -1.390625q0.3125 -0.109375 0.65625 -0.1875q0.359375 -0.09375 0.703125 -0.140625q0.359375 -0.0625 0.703125 -0.09375q0.34375 -0.03125 0.65625 -0.03125q0.953125 0 1.671875 0.203125q0.71875 0.203125 1.203125 0.59375q0.484375 0.375 0.71875 0.921875q0.25 0.546875 0.25 1.21875q0 1.03125 -0.53125 1.71875q-0.515625 0.6875 -1.421875 1.109375q0.46875 0.0625 0.90625 0.28125q0.453125 0.21875 0.8125 0.5625q0.375 0.34375 0.59375 0.8125q0.21875 0.453125 0.21875 1.03125z" fill-rule="nonzero"/><path fill="#000000" fill-opacity="0.0" d="m353.89178 323.3258l29.13385 0l0 37.858276l-29.13385 0z" fill-rule="evenodd"/><path fill="#000000" d="m373.11133 346.54996l-2.03125 0l0 2.625l-1.625 0l0 -2.625l-5.734375 0l0 -1.40625l5.078125 -7.875l2.28125 0l0 7.875l2.03125 0l0 1.40625zm-3.65625 -7.75l-4.140625 6.34375l4.140625 0l0 -6.34375z" fill-rule="nonzero"/><path fill="#000000" fill-opacity="0.0" d="m425.89178 323.3258l29.13385 0l0 37.858276l-29.13385 0z" fill-rule="evenodd"/><path fill="#000000" d="m444.20508 345.36246q0 0.890625 -0.390625 1.625q-0.375 0.71875 -1.046875 1.25q-0.65625 0.515625 -1.578125 0.8125q-0.90625 0.28125 -1.953125 0.28125q-0.265625 0 -0.578125 -0.015625q-0.296875 0 -0.609375 -0.03125q-0.296875 -0.015625 -0.59375 -0.046875q-0.28125 -0.03125 -0.5 -0.0625l0 -1.4375q0.484375 0.109375 1.109375 0.171875q0.640625 0.046875 1.296875 0.046875q0.71875 0 1.296875 -0.171875q0.59375 -0.171875 1.0 -0.484375q0.40625 -0.328125 0.625 -0.78125q0.21875 -0.46875 0.21875 -1.046875q0 -1.109375 -0.796875 -1.609375q-0.796875 -0.515625 -2.28125 -0.515625l-2.265625 0l0 -6.078125l6.421875 0l0 1.390625l-4.921875 0l0 3.34375l1.03125 0q0.859375 0 1.671875 0.15625q0.8125 0.140625 1.4375 0.53125q0.640625 0.390625 1.015625 1.046875q0.390625 0.640625 0.390625 1.625z" fill-rule="nonzero"/><path fill="#000000" fill-opacity="0.0" d="m79.59765 44.53894l-3.8425217 0" fill-rule="evenodd"/><path stroke="#000000" stroke-width="1.0" stroke-linejoin="round" stroke-linecap="butt" d="m79.59765 44.53894l-3.8425217 0" fill-rule="evenodd"/><path fill="#000000" fill-opacity="0.0" d="m79.59765 100.53894l-3.8425217 0" fill-rule="evenodd"/><path stroke="#000000" stroke-width="1.0" stroke-linejoin="round" stroke-linecap="butt" d="m79.59765 100.53894l-3.8425217 0" fill-rule="evenodd"/><path fill="#000000" fill-opacity="0.0" d="m79.59765 156.53894l-3.8425217 0" fill-rule="evenodd"/><path stroke="#000000" stroke-width="1.0" stroke-linejoin="round" stroke-linecap="butt" d="m79.59765 156.53894l-3.8425217 0" fill-rule="evenodd"/><path fill="#000000" fill-opacity="0.0" d="m79.59765 212.53894l-3.8425217 0" fill-rule="evenodd"/><path stroke="#000000" stroke-width="1.0" stroke-linejoin="round" stroke-linecap="butt" d="m79.59765 212.53894l-3.8425217 0" fill-rule="evenodd"/><path fill="#000000" fill-opacity="0.0" d="m79.59765 268.53894l-3.8425217 0" fill-rule="evenodd"/><path stroke="#000000" stroke-width="1.0" stroke-linejoin="round" stroke-linecap="butt" d="m79.59765 268.53894l-3.8425217 0" fill-rule="evenodd"/><path fill="#000000" fill-opacity="0.0" d="m79.59765 324.04523l-3.8425217 0" fill-rule="evenodd"/><path stroke="#000000" stroke-width="1.0" stroke-linejoin="round" stroke-linecap="butt" d="m79.59765 324.04523l-3.8425217 0" fill-rule="evenodd"/><path fill="#000000" fill-opacity="0.0" d="m79.36389 328.0915l0 -3.8425293" fill-rule="evenodd"/><path stroke="#000000" stroke-width="1.0" stroke-linejoin="round" stroke-linecap="butt" d="m79.36389 328.0915l0 -3.8425293" fill-rule="evenodd"/><path fill="#000000" fill-opacity="0.0" d="m152.42639 328.0915l0 -3.8425293" fill-rule="evenodd"/><path stroke="#000000" stroke-width="1.0" stroke-linejoin="round" stroke-linecap="butt" d="m152.42639 328.0915l0 -3.8425293" fill-rule="evenodd"/><path fill="#000000" fill-opacity="0.0" d="m224.42639 328.0915l0 -3.8425293" fill-rule="evenodd"/><path stroke="#000000" stroke-width="1.0" stroke-linejoin="round" stroke-linecap="butt" d="m224.42639 328.0915l0 -3.8425293" fill-rule="evenodd"/><path fill="#000000" fill-opacity="0.0" d="m296.4264 328.0915l0 -3.8425293" fill-rule="evenodd"/><path stroke="#000000" stroke-width="1.0" stroke-linejoin="round" stroke-linecap="butt" d="m296.4264 328.0915l0 -3.8425293" fill-rule="evenodd"/><path fill="#000000" fill-opacity="0.0" d="m368.4264 328.0915l0 -3.8425293" fill-rule="evenodd"/><path stroke="#000000" stroke-width="1.0" stroke-linejoin="round" stroke-linecap="butt" d="m368.4264 328.0915l0 -3.8425293" fill-rule="evenodd"/><path fill="#000000" fill-opacity="0.0" d="m440.4264 328.0915l0 -3.8425293" fill-rule="evenodd"/><path stroke="#000000" stroke-width="1.0" stroke-linejoin="round" stroke-linecap="butt" d="m440.4264 328.0915l0 -3.8425293" fill-rule="evenodd"/><path fill="#000000" fill-opacity="0.0" d="m79.85625 323.2379l0 -317.16537" fill-rule="evenodd"/><path stroke="#000000" stroke-width="2.0" stroke-linejoin="round" stroke-linecap="butt" d="m79.85625 323.2379l0 -305.16537" fill-rule="evenodd"/><path fill="#000000" stroke="#000000" stroke-width="2.0" stroke-linecap="butt" d="m83.15971 18.072552l-3.3034668 -9.076195l-3.3034668 9.076195z" fill-rule="evenodd"/><path fill="#000000" fill-opacity="0.0" d="m79.59765 278.0641l193.70078 0" fill-rule="evenodd"/><path stroke="#000000" stroke-width="1.0" stroke-linejoin="round" stroke-linecap="butt" stroke-dasharray="4.0,3.0" d="m79.59765 278.0641l193.70078 0" fill-rule="evenodd"/><path fill="#000000" fill-opacity="0.0" d="m89.47507 286.8504l0 28.818878" fill-rule="evenodd"/><path stroke="#6aa84f" stroke-width="2.0" stroke-linejoin="round" stroke-linecap="butt" d="m89.47507 286.8504l0 28.818878" fill-rule="evenodd"/><path fill="#000000" fill-opacity="0.0" d="m242.19214 194.21294l0 0c17.581879 21.410446 27.95691 47.82434 29.646393 75.47713l-131.32994 8.023682z" fill-rule="evenodd"/><path fill="#000000" fill-opacity="0.0" d="m242.19214 194.21294l0 0c17.581879 21.410446 27.95691 47.82434 29.646393 75.47713" fill-rule="evenodd"/><path stroke="#cc0000" stroke-width="2.0" stroke-linejoin="round" stroke-linecap="butt" d="m242.19214 194.21294l0 0c17.581879 21.410446 27.95691 47.82434 29.646393 75.47713" fill-rule="evenodd"/><path fill="#000000" fill-opacity="0.0" d="m271.60104 265.42258l0.47244263 12.188965" fill-rule="evenodd"/><path stroke="#cc0000" stroke-width="2.0" stroke-linejoin="round" stroke-linecap="butt" d="m271.60104 265.42258l0.007659912 0.19796753" fill-rule="evenodd"/><path fill="#cc0000" stroke="#cc0000" stroke-width="2.0" stroke-linecap="butt" d="m268.30774 265.7485l3.6524963 8.941437l2.949463 -9.197327z" fill-rule="evenodd"/><path fill="#000000" fill-opacity="0.0" d="m245.92548 198.95403l-7.874008 -10.141724" fill-rule="evenodd"/><path stroke="#cc0000" stroke-width="2.0" stroke-linejoin="round" stroke-linecap="butt" d="m245.92549 198.95403l-0.5148926 -0.66316223" fill-rule="evenodd"/><path fill="#cc0000" stroke="#cc0000" stroke-width="2.0" stroke-linecap="butt" d="m248.01994 196.26497l-8.175415 -5.143219l2.956726 9.194992z" fill-rule="evenodd"/><path fill="#000000" fill-opacity="0.0" d="m89.47507 309.95673l0 12.346466" fill-rule="evenodd"/><path stroke="#6aa84f" stroke-width="2.0" stroke-linejoin="round" stroke-linecap="butt" d="m89.47507 309.95673l0 0.34646606" fill-rule="evenodd"/><path fill="#6aa84f" stroke="#6aa84f" stroke-width="2.0" stroke-linecap="butt" d="m86.1716 310.3032l3.3034668 9.076202l3.3034668 -9.076202z" fill-rule="evenodd"/><path fill="#000000" fill-opacity="0.0" d="m89.47507 290.68338l0 -12.346436" fill-rule="evenodd"/><path stroke="#6aa84f" stroke-width="2.0" stroke-linejoin="round" stroke-linecap="butt" d="m89.47507 290.6834l0 -0.34646606" fill-rule="evenodd"/><path fill="#6aa84f" stroke="#6aa84f" stroke-width="2.0" stroke-linecap="butt" d="m92.778534 290.33694l-3.3034668 -9.076202l-3.3034668 9.076202z" fill-rule="evenodd"/><path fill="#000000" fill-opacity="0.0" d="m91.97659 279.86804l35.496063 0l0 37.858276l-35.496063 0z" fill-rule="evenodd"/><path fill="#6aa84f" d="m115.47072 301.1653q0 1.640625 -0.46875 2.84375q-0.453125 1.1875 -1.28125 1.984375q-0.828125 0.796875 -1.953125 1.1875q-1.125 0.375 -2.453125 0.375q-1.296875 0 -2.421875 -0.203125q-1.109375 -0.1875 -2.140625 -0.515625l0 -16.0625l2.859375 0l0 3.890625l-0.109375 2.34375q0.640625 -0.828125 1.5 -1.328125q0.859375 -0.515625 2.078125 -0.515625q1.046875 0 1.859375 0.421875q0.828125 0.421875 1.375 1.203125q0.5625 0.78125 0.859375 1.890625q0.296875 1.109375 0.296875 2.484375zm-3.0 0.125q0 -0.984375 -0.140625 -1.671875q-0.140625 -0.703125 -0.40625 -1.140625q-0.265625 -0.453125 -0.65625 -0.65625q-0.375 -0.203125 -0.859375 -0.203125q-0.734375 0 -1.390625 0.59375q-0.65625 0.578125 -1.40625 1.59375l0 5.203125q0.34375 0.125 0.84375 0.203125q0.5 0.078125 1.015625 0.078125q0.671875 0 1.234375 -0.28125q0.5625 -0.28125 0.953125 -0.796875q0.390625 -0.515625 0.59375 -1.25q0.21875 -0.75 0.21875 -1.671875z" fill-rule="nonzero"/><path fill="#000000" fill-opacity="0.0" d="m262.9629 202.86652l35.496063 0l0 37.85826l-35.496063 0z" fill-rule="evenodd"/><path fill="#cc0000" d="m284.1445 230.33565l0 -8.109375q0 -0.453125 -0.03125 -0.78125q-0.015625 -0.328125 -0.09375 -0.546875q-0.0625 -0.234375 -0.203125 -0.34375q-0.125 -0.109375 -0.359375 -0.109375q-0.359375 0 -0.71875 0.5q-0.34375 0.484375 -0.796875 1.671875l0 7.71875l-2.453125 0l0 -8.109375q0 -0.453125 -0.03125 -0.78125q-0.015625 -0.328125 -0.09375 -0.546875q-0.0625 -0.234375 -0.203125 -0.34375q-0.140625 -0.109375 -0.375 -0.109375q-0.296875 0 -0.671875 0.5q-0.375 0.484375 -0.828125 1.671875l0 7.71875l-2.484375 0l0 -11.90625l2.125 0l0.046875 1.734375q0.265625 -0.53125 0.515625 -0.90625q0.265625 -0.375 0.546875 -0.609375q0.296875 -0.25 0.625 -0.34375q0.34375 -0.109375 0.765625 -0.109375q1.0 0 1.515625 0.53125q0.515625 0.515625 0.59375 1.4375q0.28125 -0.53125 0.546875 -0.90625q0.28125 -0.375 0.578125 -0.609375q0.296875 -0.25 0.640625 -0.34375q0.359375 -0.109375 0.78125 -0.109375q1.296875 0 1.90625 0.90625q0.625 0.90625 0.625 2.6875l0 8.546875l-2.46875 0z" fill-rule="nonzero"/></g></svg>