<svg version="1.1" viewBox="0.0 0.0 510.11811023622045 344.76377952755905" fill="none" stroke="none" stroke-linecap="square" stroke-miterlimit="10" xmlns:xlink="http://www.w3.org/1999/xlink" xmlns="http://www.w3.org/2000/svg"><clipPath id="p.0"><path d="m0 0l510.1181 0l0 344.7638l-510.1181 0l0 -344.7638z" clip-rule="nonzero"/></clipPath><g clip-path="url(#p.0)"><path fill="#000000" fill-opacity="0.0" d="m0 0l510.1181 0l0 344.7638l-510.1181 0z" fill-rule="evenodd"/><path fill="#000000" fill-opacity="0.0" d="m231.17055 283.32547l50.582687 0l0 37.858246l-50.582687 0z" fill-rule="evenodd"/><path fill="#000000" d="m254.06396 304.95584l-5.453125 0l0 -1.5l5.453125 0l0 1.5zm11.476044 4.21875l-7.46875 0l0 -1.46875l3.0625 0l0 -8.703125l-2.859375 1.546875l-0.578125 -1.34375l3.78125 -1.984375l1.40625 0l0 10.484375l2.65625 0l0 1.46875z" fill-rule="nonzero"/><path fill="#000000" fill-opacity="0.0" d="m313.89178 283.3258l29.13385 0l0 37.858276l-29.13385 0z" fill-rule="evenodd"/><path fill="#000000" d="m332.7832 303.22183q0 1.375 -0.28125 2.5q-0.265625 1.125 -0.828125 1.9375q-0.546875 0.796875 -1.375 1.234375q-0.8125 0.4375 -1.9375 0.4375q-0.953125 0 -1.734375 -0.359375q-0.78125 -0.359375 -1.34375 -1.09375q-0.546875 -0.75 -0.859375 -1.90625q-0.296875 -1.15625 -0.296875 -2.75q0 -1.359375 0.28125 -2.484375q0.28125 -1.140625 0.828125 -1.9375q0.546875 -0.8125 1.375 -1.25q0.84375 -0.4375 1.9375 -0.4375q0.953125 0 1.734375 0.359375q0.796875 0.359375 1.34375 1.109375q0.5625 0.75 0.859375 1.90625q0.296875 1.15625 0.296875 2.734375zm-1.59375 0.0625q0 -0.3125 -0.03125 -0.609375q-0.015625 -0.3125 -0.046875 -0.609375l-5.046875 3.75q0.140625 0.46875 0.34375 0.875q0.21875 0.390625 0.515625 0.6875q0.296875 0.28125 0.671875 0.453125q0.375 0.15625 0.859375 0.15625q0.625 0 1.125 -0.296875q0.515625 -0.3125 0.859375 -0.90625q0.359375 -0.59375 0.546875 -1.46875q0.203125 -0.875 0.203125 -2.03125zm-5.453125 -0.109375q0 0.28125 0 0.5625q0 0.28125 0.03125 0.546875l5.046875 -3.734375q-0.140625 -0.453125 -0.359375 -0.828125q-0.203125 -0.390625 -0.5 -0.671875q-0.28125 -0.28125 -0.65625 -0.4375q-0.375 -0.15625 -0.84375 -0.15625q-0.609375 0 -1.125 0.3125q-0.5 0.296875 -0.859375 0.890625q-0.359375 0.59375 -0.546875 1.484375q-0.1875 0.875 -0.1875 2.03125z" fill-rule="nonzero"/><path fill="#000000" fill-opacity="0.0" d="m385.89178 283.3258l29.13385 0l0 37.858276l-29.13385 0z" fill-rule="evenodd"/><path fill="#000000" d="m404.4082 309.17496l-7.46875 0l0 -1.46875l3.0625 0l0 -8.703125l-2.859375 1.546875l-0.578125 -1.34375l3.78125 -1.984375l1.40625 0l0 10.484375l2.65625 0l0 1.46875z" fill-rule="nonzero"/><path fill="#000000" fill-opacity="0.0" d="m457.89178 283.3258l29.13385 0l0 37.858276l-29.13385 0z" fill-rule="evenodd"/><path fill="#000000" d="m476.51758 309.17496l-7.84375 0l0 -1.421875l3.078125 -3.0625q0.75 -0.75 1.21875 -1.296875q0.484375 -0.546875 0.75 -0.984375q0.265625 -0.453125 0.34375 -0.859375q0.09375 -0.40625 0.09375 -0.859375q0 -0.4375 -0.125 -0.828125q-0.109375 -0.40625 -0.359375 -0.703125q-0.234375 -0.3125 -0.640625 -0.484375q-0.390625 -0.171875 -0.9375 -0.171875q-0.75 0 -1.375 0.34375q-0.609375 0.328125 -1.125 0.875l-0.875 -1.046875q0.671875 -0.71875 1.546875 -1.140625q0.875 -0.421875 2.046875 -0.421875q0.796875 0 1.4375 0.234375q0.65625 0.234375 1.125 0.6875q0.484375 0.4375 0.734375 1.09375q0.265625 0.640625 0.265625 1.453125q0 0.671875 -0.1875 1.265625q-0.171875 0.578125 -0.546875 1.15625q-0.375 0.578125 -0.9375 1.203125q-0.546875 0.609375 -1.3125 1.359375l-2.171875 2.09375l5.796875 0l0 1.515625z" fill-rule="nonzero"/><path fill="#000000" fill-opacity="0.0" d="m255.36389 288.0915l0 -3.8425293" fill-rule="evenodd"/><path stroke="#000000" stroke-width="1.0" stroke-linejoin="round" stroke-linecap="butt" d="m255.36389 288.0915l0 -3.8425293" fill-rule="evenodd"/><path fill="#000000" fill-opacity="0.0" d="m328.4264 288.0915l0 -3.8425293" fill-rule="evenodd"/><path stroke="#000000" stroke-width="1.0" stroke-linejoin="round" stroke-linecap="butt" d="m328.4264 288.0915l0 -3.8425293" fill-rule="evenodd"/><path fill="#000000" fill-opacity="0.0" d="m400.4264 288.0915l0 -3.8425293" fill-rule="evenodd"/><path stroke="#000000" stroke-width="1.0" stroke-linejoin="round" stroke-linecap="butt" d="m400.4264 288.0915l0 -3.8425293" fill-rule="evenodd"/><path fill="#000000" fill-opacity="0.0" d="m472.4264 288.0915l0 -3.8425293" fill-rule="evenodd"/><path stroke="#000000" stroke-width="1.0" stroke-linejoin="round" stroke-linecap="butt" d="m472.4264 288.0915l0 -3.8425293" fill-rule="evenodd"/><path fill="#000000" fill-opacity="0.0" d="m43.772877 100.03602l35.49606 0l0 37.85827l-35.49606 0z" fill-rule="evenodd"/><path fill="#6aa84f" d="m67.267006 121.333275q0 1.640625 -0.46875 2.84375q-0.453125 1.1875 -1.28125 1.984375q-0.828125 0.796875 -1.9531288 1.1875q-1.125 0.375 -2.453125 0.375q-1.296875 0 -2.421875 -0.203125q-1.109375 -0.1875 -2.140625 -0.515625l0 -16.0625l2.859375 0l0 3.890625l-0.109375 2.34375q0.640625 -0.828125 1.5 -1.328125q0.859375 -0.515625 2.078125 -0.515625q1.046875 0 1.8593788 0.421875q0.828125 0.421875 1.375 1.203125q0.5625 0.78125 0.859375 1.890625q0.296875 1.109375 0.296875 2.484375zm-3.0 0.125q0 -0.984375 -0.140625 -1.671875q-0.14062881 -0.703125 -0.4062538 -1.140625q-0.265625 -0.453125 -0.65625 -0.65625q-0.375 -0.203125 -0.859375 -0.203125q-0.734375 0 -1.390625 0.59375q-0.65625 0.578125 -1.40625 1.59375l0 5.203125q0.34375 0.125 0.84375 0.203125q0.5 0.078125 1.015625 0.078125q0.671875 0 1.234375 -0.28125q0.5625 -0.28125 0.953125 -0.796875q0.390625 -0.515625 0.5937538 -1.25q0.21875 -0.75 0.21875 -1.671875z" fill-rule="nonzero"/><path fill="#000000" fill-opacity="0.0" d="m43.77229 238.26283l35.496067 0l0 37.85826l-35.496067 0z" fill-rule="evenodd"/><path fill="#cc0000" d="m64.95392 265.73196l0 -8.109375q0 -0.453125 -0.03125 -0.78125q-0.015625 -0.328125 -0.09375 -0.546875q-0.0625 -0.234375 -0.203125 -0.34375q-0.125 -0.109375 -0.359375 -0.109375q-0.3593788 0 -0.7187538 0.5q-0.34375 0.484375 -0.796875 1.671875l0 7.71875l-2.453125 0l0 -8.109375q0 -0.453125 -0.03125 -0.78125q-0.015625 -0.328125 -0.09375 -0.546875q-0.0625 -0.234375 -0.203125 -0.34375q-0.140625 -0.109375 -0.375 -0.109375q-0.296875 0 -0.671875 0.5q-0.375 0.484375 -0.828125 1.671875l0 7.71875l-2.484375 0l0 -11.90625l2.125 0l0.046875 1.734375q0.265625 -0.53125 0.515625 -0.90625q0.265625 -0.375 0.546875 -0.609375q0.296875 -0.25 0.625 -0.34375q0.34375 -0.109375 0.765625 -0.109375q1.0 0 1.515625 0.53125q0.515625 0.515625 0.59375 1.4375q0.28125 -0.53125 0.546875 -0.90625q0.28125 -0.375 0.578125 -0.609375q0.296875 -0.25 0.6406288 -0.34375q0.359375 -0.109375 0.78125 -0.109375q1.296875 0 1.90625 0.90625q0.625 0.90625 0.625 2.6875l0 8.546875l-2.46875 0z" fill-rule="nonzero"/><path fill="#000000" fill-opacity="0.0" d="m346.7109 304.86008l35.496063 0l0 37.858276l-35.496063 0z" fill-rule="evenodd"/><path fill="#cc0000" d="m367.89255 332.32922l0 -8.109375q0 -0.453125 -0.03125 -0.78125q-0.015625 -0.328125 -0.09375 -0.546875q-0.0625 -0.234375 -0.203125 -0.34375q-0.125 -0.109375 -0.359375 -0.109375q-0.359375 0 -0.71875 0.5q-0.34375 0.484375 -0.796875 1.671875l0 7.71875l-2.453125 0l0 -8.109375q0 -0.453125 -0.03125 -0.78125q-0.015625 -0.328125 -0.09375 -0.546875q-0.0625 -0.234375 -0.203125 -0.34375q-0.140625 -0.109375 -0.375 -0.109375q-0.296875 0 -0.671875 0.5q-0.375 0.484375 -0.828125 1.671875l0 7.71875l-2.484375 0l0 -11.90625l2.125 0l0.046875 1.734375q0.265625 -0.53125 0.515625 -0.90625q0.265625 -0.375 0.546875 -0.609375q0.296875 -0.25 0.625 -0.34375q0.34375 -0.109375 0.765625 -0.109375q1.0 0 1.515625 0.53125q0.515625 0.515625 0.59375 1.4375q0.28125 -0.53125 0.546875 -0.90625q0.28125 -0.375 0.578125 -0.609375q0.296875 -0.25 0.640625 -0.34375q0.359375 -0.109375 0.78125 -0.109375q1.296875 0 1.90625 0.90625q0.625 0.90625 0.625 2.6875l0 8.546875l-2.46875 0z" fill-rule="nonzero"/><path fill="#000000" fill-opacity="0.0" d="m37.58106 12.84252l120.47244 0l0 34.173225l-120.47244 0z" fill-rule="evenodd"/><path fill="#000000" d="m69.70169 20.271008l0 5.578125l-1.796875 0l0 -13.375l3.78125 0q1.265625 0 2.1875 0.265625q0.921875 0.25 1.515625 0.734375q0.609375 0.484375 0.890625 1.171875q0.296875 0.6875 0.296875 1.546875q0 0.703125 -0.234375 1.328125q-0.21875 0.609375 -0.640625 1.09375q-0.421875 0.484375 -1.03125 0.84375q-0.609375 0.34375 -1.390625 0.515625q0.34375 0.1875 0.59375 0.5625l3.90625 5.3125l-1.609375 0q-0.484375 0 -0.71875 -0.375l-3.46875 -4.78125q-0.15625 -0.21875 -0.34375 -0.3125q-0.1875 -0.109375 -0.5625 -0.109375l-1.375 0zm0 -1.3125l1.890625 0q0.796875 0 1.390625 -0.1875q0.609375 -0.203125 1.015625 -0.546875q0.40625 -0.34375 0.609375 -0.828125q0.203125 -0.5 0.203125 -1.078125q0 -1.203125 -0.796875 -1.796875q-0.78125 -0.609375 -2.328125 -0.609375l-1.984375 0l0 5.046875zm13.514633 -2.703125q0.84375 0 1.5625 0.28125q0.71875 0.28125 1.234375 0.828125q0.53125 0.53125 0.8125 1.328125q0.296875 0.78125 0.296875 1.78125q0 0.390625 -0.078125 0.53125q-0.078125 0.125 -0.3125 0.125l-6.296875 0q0.015625 0.890625 0.234375 1.5625q0.234375 0.65625 0.625 1.109375q0.390625 0.4375 0.9375 0.65625q0.546875 0.21875 1.203125 0.21875q0.625 0 1.078125 -0.140625q0.453125 -0.15625 0.78125 -0.3125q0.328125 -0.171875 0.546875 -0.3125q0.21875 -0.15625 0.375 -0.15625q0.21875 0 0.328125 0.15625l0.46875 0.609375q-0.3125 0.375 -0.75 0.65625q-0.421875 0.265625 -0.921875 0.453125q-0.484375 0.171875 -1.015625 0.25q-0.515625 0.09375 -1.015625 0.09375q-0.984375 0 -1.8125 -0.328125q-0.828125 -0.328125 -1.4375 -0.96875q-0.59375 -0.640625 -0.9375 -1.578125q-0.328125 -0.9375 -0.328125 -2.171875q0 -0.984375 0.296875 -1.84375q0.3125 -0.859375 0.875 -1.484375q0.578125 -0.625 1.390625 -0.984375q0.828125 -0.359375 1.859375 -0.359375zm0.03125 1.21875q-1.203125 0 -1.890625 0.703125q-0.6875 0.6875 -0.859375 1.921875l5.140625 0q0 -0.578125 -0.171875 -1.0625q-0.15625 -0.484375 -0.46875 -0.828125q-0.296875 -0.359375 -0.75 -0.546875q-0.4375 -0.1875 -1.0 -0.1875zm9.182129 -1.234375q0.609375 0 1.140625 0.140625q0.546875 0.125 0.984375 0.390625l2.5625 0l0 0.625q0 0.296875 -0.390625 0.390625l-1.078125 0.140625q0.328125 0.609375 0.328125 1.359375q0 0.6875 -0.265625 1.25q-0.265625 0.5625 -0.75 0.96875q-0.46875 0.390625 -1.125 0.609375q-0.640625 0.21875 -1.40625 0.21875q-0.671875 0 -1.25 -0.15625q-0.296875 0.1875 -0.453125 0.40625q-0.15625 0.203125 -0.15625 0.40625q0 0.34375 0.265625 0.515625q0.28125 0.171875 0.71875 0.25q0.453125 0.0625 1.015625 0.09375q0.578125 0.015625 1.171875 0.0625q0.59375 0.03125 1.15625 0.140625q0.5625 0.09375 1.015625 0.328125q0.453125 0.234375 0.71875 0.65625q0.265625 0.40625 0.265625 1.0625q0 0.59375 -0.3125 1.15625q-0.296875 0.578125 -0.859375 1.015625q-0.5625 0.453125 -1.390625 0.71875q-0.8125 0.265625 -1.859375 0.265625q-1.03125 0 -1.8125 -0.203125q-0.78125 -0.203125 -1.296875 -0.5625q-0.5 -0.34375 -0.765625 -0.796875q-0.25 -0.4375 -0.25 -0.9375q0 -0.703125 0.4375 -1.1875q0.453125 -0.5 1.21875 -0.78125q-0.40625 -0.1875 -0.640625 -0.5q-0.234375 -0.3125 -0.234375 -0.828125q0 -0.21875 0.078125 -0.4375q0.078125 -0.21875 0.21875 -0.421875q0.15625 -0.21875 0.375 -0.40625q0.234375 -0.203125 0.53125 -0.359375q-0.703125 -0.390625 -1.109375 -1.03125q-0.390625 -0.65625 -0.390625 -1.515625q0 -0.6875 0.265625 -1.25q0.28125 -0.578125 0.75 -0.96875q0.46875 -0.390625 1.125 -0.609375q0.671875 -0.21875 1.453125 -0.21875zm2.9375 10.125q0 -0.359375 -0.203125 -0.5625q-0.1875 -0.21875 -0.53125 -0.328125q-0.328125 -0.125 -0.765625 -0.171875q-0.4375 -0.0625 -0.921875 -0.078125q-0.484375 -0.03125 -0.984375 -0.0625q-0.5 -0.03125 -0.96875 -0.109375q-0.53125 0.25 -0.859375 0.625q-0.328125 0.359375 -0.328125 0.859375q0 0.3125 0.15625 0.59375q0.171875 0.28125 0.5 0.46875q0.34375 0.203125 0.84375 0.3125q0.515625 0.125 1.203125 0.125q0.671875 0 1.203125 -0.125q0.53125 -0.109375 0.890625 -0.34375q0.375 -0.21875 0.5625 -0.53125q0.203125 -0.296875 0.203125 -0.671875zm-2.9375 -5.140625q0.5 0 0.890625 -0.125q0.390625 -0.140625 0.640625 -0.390625q0.265625 -0.265625 0.390625 -0.609375q0.140625 -0.34375 0.140625 -0.765625q0 -0.875 -0.53125 -1.375q-0.53125 -0.515625 -1.53125 -0.515625q-1.0 0 -1.53125 0.515625q-0.53125 0.5 -0.53125 1.375q0 0.421875 0.140625 0.765625q0.140625 0.34375 0.390625 0.609375q0.265625 0.25 0.640625 0.390625q0.390625 0.125 0.890625 0.125zm7.7833405 -4.828125l0 6.03125q0 1.078125 0.484375 1.671875q0.5 0.578125 1.5 0.578125q0.734375 0 1.375 -0.34375q0.640625 -0.34375 1.1875 -0.96875l0 -6.96875l1.65625 0l0 9.453125l-0.984375 0q-0.359375 0 -0.453125 -0.34375l-0.125 -1.015625q-0.625 0.671875 -1.390625 1.09375q-0.765625 0.421875 -1.75 0.421875q-0.765625 0 -1.359375 -0.25q-0.59375 -0.265625 -1.0 -0.734375q-0.390625 -0.46875 -0.59375 -1.125q-0.203125 -0.671875 -0.203125 -1.46875l0 -6.03125l1.65625 0zm10.779129 -4.28125l0 13.734375l-1.65625 0l0 -13.734375l1.65625 0zm9.869751 13.734375l-0.734375 0q-0.234375 0 -0.390625 -0.078125q-0.140625 -0.078125 -0.1875 -0.3125l-0.1875 -0.875q-0.375 0.328125 -0.734375 0.59375q-0.359375 0.265625 -0.75 0.453125q-0.390625 0.1875 -0.828125 0.28125q-0.4375 0.09375 -0.984375 0.09375q-0.546875 0 -1.03125 -0.15625q-0.484375 -0.15625 -0.84375 -0.46875q-0.34375 -0.3125 -0.5625 -0.78125q-0.203125 -0.46875 -0.203125 -1.109375q0 -0.5625 0.296875 -1.078125q0.3125 -0.515625 1.0 -0.90625q0.6875 -0.40625 1.796875 -0.65625q1.109375 -0.265625 2.71875 -0.3125l0 -0.734375q0 -1.09375 -0.46875 -1.65625q-0.46875 -0.578125 -1.40625 -0.578125q-0.59375 0 -1.015625 0.15625q-0.40625 0.15625 -0.71875 0.359375q-0.296875 0.1875 -0.515625 0.34375q-0.21875 0.140625 -0.4375 0.140625q-0.171875 0 -0.296875 -0.078125q-0.125 -0.09375 -0.203125 -0.21875l-0.296875 -0.53125q0.78125 -0.765625 1.6875 -1.140625q0.90625 -0.375 2.015625 -0.375q0.78125 0 1.390625 0.265625q0.625 0.265625 1.046875 0.734375q0.421875 0.46875 0.625 1.125q0.21875 0.65625 0.21875 1.453125l0 6.046875zm-4.296875 -1.015625q0.4375 0 0.796875 -0.078125q0.359375 -0.09375 0.671875 -0.25q0.328125 -0.171875 0.625 -0.40625q0.296875 -0.234375 0.578125 -0.53125l0 -1.96875q-1.15625 0.03125 -1.953125 0.1875q-0.796875 0.140625 -1.3125 0.375q-0.5 0.234375 -0.734375 0.546875q-0.21875 0.3125 -0.21875 0.703125q0 0.375 0.125 0.65625q0.125 0.265625 0.328125 0.4375q0.203125 0.171875 0.484375 0.25q0.28125 0.078125 0.609375 0.078125zm6.8181 1.015625l0 -9.453125l0.953125 0q0.265625 0 0.375 0.109375q0.109375 0.09375 0.140625 0.34375l0.109375 1.484375q0.484375 -0.984375 1.1875 -1.546875q0.71875 -0.5625 1.6875 -0.5625q0.390625 0 0.703125 0.09375q0.328125 0.09375 0.59375 0.25l-0.21875 1.234375q-0.0625 0.234375 -0.28125 0.234375q-0.140625 0 -0.40625 -0.078125q-0.265625 -0.09375 -0.75 -0.09375q-0.875 0 -1.453125 0.5q-0.578125 0.5 -0.984375 1.46875l0 6.015625l-1.65625 0z" fill-rule="nonzero"/><path fill="#000000" d="m79.76172 43.021008q0.125 0.21875 0.21875 0.46875q0.109375 0.25 0.203125 0.5q0.09375 -0.265625 0.1875 -0.5q0.109375 -0.234375 0.234375 -0.484375l4.53125 -8.21875q0.109375 -0.21875 0.234375 -0.265625q0.140625 -0.046875 0.390625 -0.046875l1.328125 0l0 13.375l-1.578125 0l0 -9.828125q0 -0.1875 0 -0.40625q0.015625 -0.234375 0.03125 -0.46875l-4.578125 8.359375q-0.234375 0.421875 -0.65625 0.421875l-0.265625 0q-0.421875 0 -0.65625 -0.421875l-4.671875 -8.390625q0.03125 0.25 0.03125 0.484375q0.015625 0.234375 0.015625 0.421875l0 9.828125l-1.578125 0l0 -13.375l1.328125 0q0.25 0 0.375 0.046875q0.125 0.046875 0.25 0.265625l4.625 8.234375l0 0zm14.148132 -4.765625q1.03125 0 1.859375 0.34375q0.84375 0.34375 1.421875 0.984375q0.59375 0.625 0.90625 1.53125q0.3125 0.890625 0.3125 2.0q0 1.125 -0.3125 2.03125q-0.3125 0.890625 -0.90625 1.53125q-0.578125 0.625 -1.421875 0.96875q-0.828125 0.328125 -1.859375 0.328125q-1.03125 0 -1.875 -0.328125q-0.828125 -0.34375 -1.421875 -0.96875q-0.578125 -0.640625 -0.90625 -1.53125q-0.3125 -0.90625 -0.3125 -2.03125q0 -1.109375 0.3125 -2.0q0.328125 -0.90625 0.90625 -1.53125q0.59375 -0.640625 1.421875 -0.984375q0.84375 -0.34375 1.875 -0.34375zm0 8.421875q1.390625 0 2.078125 -0.9375q0.703125 -0.9375 0.703125 -2.609375q0 -1.6875 -0.703125 -2.625q-0.6875 -0.953125 -2.078125 -0.953125q-0.703125 0 -1.234375 0.25q-0.515625 0.234375 -0.875 0.703125q-0.34375 0.453125 -0.515625 1.125q-0.171875 0.65625 -0.171875 1.5q0 0.84375 0.171875 1.5q0.171875 0.65625 0.515625 1.109375q0.359375 0.453125 0.875 0.703125q0.53125 0.234375 1.234375 0.234375zm13.201004 1.171875q-0.359375 0 -0.453125 -0.34375l-0.140625 -1.15625q-0.609375 0.75 -1.390625 1.1875q-0.78125 0.4375 -1.78125 0.4375q-0.8125 0 -1.484375 -0.3125q-0.65625 -0.3125 -1.125 -0.90625q-0.46875 -0.609375 -0.71875 -1.515625q-0.25 -0.90625 -0.25 -2.078125q0 -1.046875 0.28125 -1.9375q0.28125 -0.90625 0.796875 -1.5625q0.53125 -0.671875 1.28125 -1.046875q0.765625 -0.390625 1.71875 -0.390625q0.875 0 1.484375 0.296875q0.625 0.296875 1.109375 0.828125l0 -5.234375l1.65625 0l0 13.734375l-0.984375 0zm-3.21875 -1.21875q0.8125 0 1.421875 -0.359375q0.609375 -0.375 1.125 -1.0625l0 -4.5625q-0.453125 -0.625 -1.0 -0.875q-0.546875 -0.25 -1.21875 -0.25q-1.3125 0 -2.03125 0.953125q-0.703125 0.9375 -0.703125 2.6875q0 0.921875 0.15625 1.578125q0.15625 0.65625 0.46875 1.078125q0.3125 0.421875 0.75 0.625q0.453125 0.1875 1.03125 0.1875zm10.741348 -8.375q0.84375 0 1.5625 0.28125q0.71875 0.28125 1.234375 0.828125q0.53125 0.53125 0.8125 1.328125q0.296875 0.78125 0.296875 1.78125q0 0.390625 -0.078125 0.53125q-0.078125 0.125 -0.3125 0.125l-6.296875 0q0.015625 0.890625 0.234375 1.5625q0.234375 0.65625 0.625 1.109375q0.390625 0.4375 0.9375 0.65625q0.546875 0.21875 1.203125 0.21875q0.625 0 1.078125 -0.140625q0.453125 -0.15625 0.78125 -0.3125q0.328125 -0.171875 0.546875 -0.3125q0.21875 -0.15625 0.375 -0.15625q0.21875 0 0.328125 0.15625l0.46875 0.609375q-0.3125 0.375 -0.75 0.65625q-0.421875 0.265625 -0.921875 0.453125q-0.484375 0.171875 -1.015625 0.25q-0.515625 0.09375 -1.015625 0.09375q-0.984375 0 -1.8125 -0.328125q-0.828125 -0.328125 -1.4375 -0.96875q-0.59375 -0.640625 -0.9375 -1.578125q-0.328125 -0.9375 -0.328125 -2.171875q0 -0.984375 0.296875 -1.84375q0.3125 -0.859375 0.875 -1.484375q0.578125 -0.625 1.390625 -0.984375q0.828125 -0.359375 1.859375 -0.359375zm0.03125 1.21875q-1.203125 0 -1.890625 0.703125q-0.6875 0.6875 -0.859375 1.921875l5.140625 0q0 -0.578125 -0.171875 -1.0625q-0.15625 -0.484375 -0.46875 -0.828125q-0.296875 -0.359375 -0.75 -0.546875q-0.4375 -0.1875 -1.0 -0.1875zm7.838379 -5.359375l0 13.734375l-1.65625 0l0 -13.734375l1.65625 0z" fill-rule="nonzero"/><path fill="#000000" fill-opacity="0.0" d="m262.95276 12.84252l203.40158 0l0 34.173225l-203.40158 0z" fill-rule="evenodd"/><path fill="#000000" d="m317.02353 20.849133l0 5.0l-1.796875 0l0 -13.375l3.9375 0q1.28125 0 2.21875 0.296875q0.9375 0.296875 1.546875 0.84375q0.609375 0.53125 0.90625 1.296875q0.3125 0.765625 0.3125 1.71875q0 0.921875 -0.328125 1.703125q-0.328125 0.765625 -0.953125 1.328125q-0.625 0.5625 -1.5625 0.875q-0.9375 0.3125 -2.140625 0.3125l-2.140625 0zm0 -1.4375l2.140625 0q0.78125 0 1.375 -0.203125q0.59375 -0.203125 0.984375 -0.5625q0.40625 -0.375 0.609375 -0.890625q0.203125 -0.515625 0.203125 -1.125q0 -1.28125 -0.796875 -2.0q-0.78125 -0.71875 -2.375 -0.71875l-2.140625 0l0 5.5zm9.148956 6.4375l0 -9.453125l0.953125 0q0.265625 0 0.375 0.109375q0.109375 0.09375 0.140625 0.34375l0.109375 1.484375q0.484375 -0.984375 1.1875 -1.546875q0.71875 -0.5625 1.6875 -0.5625q0.390625 0 0.703125 0.09375q0.328125 0.09375 0.59375 0.25l-0.21875 1.234375q-0.0625 0.234375 -0.28125 0.234375q-0.140625 0 -0.40625 -0.078125q-0.265625 -0.09375 -0.75 -0.09375q-0.875 0 -1.453125 0.5q-0.578125 0.5 -0.984375 1.46875l0 6.015625l-1.65625 0zm11.346588 -9.59375q1.03125 0 1.859375 0.34375q0.84375 0.34375 1.421875 0.984375q0.59375 0.625 0.90625 1.53125q0.3125 0.890625 0.3125 2.0q0 1.125 -0.3125 2.03125q-0.3125 0.890625 -0.90625 1.53125q-0.578125 0.625 -1.421875 0.96875q-0.828125 0.328125 -1.859375 0.328125q-1.03125 0 -1.875 -0.328125q-0.828125 -0.34375 -1.421875 -0.96875q-0.578125 -0.640625 -0.90625 -1.53125q-0.3125 -0.90625 -0.3125 -2.03125q0 -1.109375 0.3125 -2.0q0.328125 -0.90625 0.90625 -1.53125q0.59375 -0.640625 1.421875 -0.984375q0.84375 -0.34375 1.875 -0.34375zm0 8.421875q1.390625 0 2.078125 -0.9375q0.703125 -0.9375 0.703125 -2.609375q0 -1.6875 -0.703125 -2.625q-0.6875 -0.953125 -2.078125 -0.953125q-0.703125 0 -1.234375 0.25q-0.515625 0.234375 -0.875 0.703125q-0.34375 0.453125 -0.515625 1.125q-0.171875 0.65625 -0.171875 1.5q0 0.84375 0.171875 1.5q0.171875 0.65625 0.515625 1.109375q0.359375 0.453125 0.875 0.703125q0.53125 0.234375 1.234375 0.234375zm6.6072693 1.171875l0 -13.734375l1.671875 0l0 5.640625q0.578125 -0.671875 1.34375 -1.078125q0.765625 -0.421875 1.734375 -0.421875q0.828125 0 1.484375 0.3125q0.671875 0.296875 1.125 0.90625q0.46875 0.609375 0.71875 1.515625q0.25 0.90625 0.25 2.078125q0 1.046875 -0.28125 1.953125q-0.265625 0.890625 -0.796875 1.546875q-0.53125 0.65625 -1.296875 1.03125q-0.75 0.375 -1.703125 0.375q-0.921875 0 -1.5625 -0.34375q-0.625 -0.359375 -1.109375 -1.0l-0.078125 0.859375q-0.078125 0.359375 -0.4375 0.359375l-1.0625 0zm4.21875 -8.28125q-0.8125 0 -1.4375 0.375q-0.609375 0.375 -1.109375 1.0625l0 4.5625q0.4375 0.625 0.984375 0.875q0.546875 0.25 1.21875 0.25q1.328125 0 2.03125 -0.9375q0.71875 -0.953125 0.71875 -2.6875q0 -0.921875 -0.171875 -1.578125q-0.15625 -0.671875 -0.46875 -1.09375q-0.3125 -0.421875 -0.765625 -0.625q-0.4375 -0.203125 -1.0 -0.203125zm13.085083 8.28125l-0.734375 0q-0.234375 0 -0.390625 -0.078125q-0.140625 -0.078125 -0.1875 -0.3125l-0.1875 -0.875q-0.375 0.328125 -0.734375 0.59375q-0.359375 0.265625 -0.75 0.453125q-0.390625 0.1875 -0.828125 0.28125q-0.4375 0.09375 -0.984375 0.09375q-0.546875 0 -1.03125 -0.15625q-0.484375 -0.15625 -0.84375 -0.46875q-0.34375 -0.3125 -0.5625 -0.78125q-0.203125 -0.46875 -0.203125 -1.109375q0 -0.5625 0.296875 -1.078125q0.3125 -0.515625 1.0 -0.90625q0.6875 -0.40625 1.796875 -0.65625q1.109375 -0.265625 2.71875 -0.3125l0 -0.734375q0 -1.09375 -0.46875 -1.65625q-0.46875 -0.578125 -1.40625 -0.578125q-0.59375 0 -1.015625 0.15625q-0.40625 0.15625 -0.71875 0.359375q-0.296875 0.1875 -0.515625 0.34375q-0.21875 0.140625 -0.4375 0.140625q-0.171875 0 -0.296875 -0.078125q-0.125 -0.09375 -0.203125 -0.21875l-0.296875 -0.53125q0.78125 -0.765625 1.6875 -1.140625q0.90625 -0.375 2.015625 -0.375q0.78125 0 1.390625 0.265625q0.625 0.265625 1.046875 0.734375q0.421875 0.46875 0.625 1.125q0.21875 0.65625 0.21875 1.453125l0 6.046875zm-4.296875 -1.015625q0.4375 0 0.796875 -0.078125q0.359375 -0.09375 0.671875 -0.25q0.328125 -0.171875 0.625 -0.40625q0.296875 -0.234375 0.578125 -0.53125l0 -1.96875q-1.15625 0.03125 -1.953125 0.1875q-0.796875 0.140625 -1.3125 0.375q-0.5 0.234375 -0.734375 0.546875q-0.21875 0.3125 -0.21875 0.703125q0 0.375 0.125 0.65625q0.125 0.265625 0.328125 0.4375q0.203125 0.171875 0.484375 0.25q0.28125 0.078125 0.609375 0.078125zm6.880615 1.015625l0 -13.734375l1.671875 0l0 5.640625q0.578125 -0.671875 1.34375 -1.078125q0.765625 -0.421875 1.734375 -0.421875q0.828125 0 1.484375 0.3125q0.671875 0.296875 1.125 0.90625q0.46875 0.609375 0.71875 1.515625q0.25 0.90625 0.25 2.078125q0 1.046875 -0.28125 1.953125q-0.265625 0.890625 -0.796875 1.546875q-0.53125 0.65625 -1.296875 1.03125q-0.75 0.375 -1.703125 0.375q-0.921875 0 -1.5625 -0.34375q-0.625 -0.359375 -1.109375 -1.0l-0.078125 0.859375q-0.078125 0.359375 -0.4375 0.359375l-1.0625 0zm4.21875 -8.28125q-0.8125 0 -1.4375 0.375q-0.609375 0.375 -1.109375 1.0625l0 4.5625q0.4375 0.625 0.984375 0.875q0.546875 0.25 1.21875 0.25q1.328125 0 2.03125 -0.9375q0.71875 -0.953125 0.71875 -2.6875q0 -0.921875 -0.171875 -1.578125q-0.15625 -0.671875 -0.46875 -1.09375q-0.3125 -0.421875 -0.765625 -0.625q-0.4375 -0.203125 -1.0 -0.203125zm7.991333 -1.171875l0 9.453125l-1.65625 0l0 -9.453125l1.65625 0zm0.375 -2.96875q0 0.25 -0.09375 0.46875q-0.09375 0.203125 -0.265625 0.375q-0.15625 0.15625 -0.375 0.25q-0.21875 0.09375 -0.453125 0.09375q-0.25 0 -0.46875 -0.09375q-0.203125 -0.09375 -0.359375 -0.25q-0.15625 -0.171875 -0.25 -0.375q-0.09375 -0.21875 -0.09375 -0.46875q0 -0.234375 0.09375 -0.453125q0.09375 -0.21875 0.25 -0.375q0.15625 -0.171875 0.359375 -0.265625q0.21875 -0.09375 0.46875 -0.09375q0.234375 0 0.453125 0.09375q0.21875 0.09375 0.375 0.265625q0.171875 0.15625 0.265625 0.375q0.09375 0.21875 0.09375 0.453125zm4.401001 -1.3125l0 13.734375l-1.65625 0l0 -13.734375l1.65625 0zm4.776001 4.28125l0 9.453125l-1.65625 0l0 -9.453125l1.65625 0zm0.375 -2.96875q0 0.25 -0.09375 0.46875q-0.09375 0.203125 -0.265625 0.375q-0.15625 0.15625 -0.375 0.25q-0.21875 0.09375 -0.453125 0.09375q-0.25 0 -0.46875 -0.09375q-0.203125 -0.09375 -0.359375 -0.25q-0.15625 -0.171875 -0.25 -0.375q-0.09375 -0.21875 -0.09375 -0.46875q0 -0.234375 0.09375 -0.453125q0.09375 -0.21875 0.25 -0.375q0.15625 -0.171875 0.359375 -0.265625q0.21875 -0.09375 0.46875 -0.09375q0.234375 0 0.453125 0.09375q0.21875 0.09375 0.375 0.265625q0.171875 0.15625 0.265625 0.375q0.09375 0.21875 0.09375 0.453125zm7.963501 4.53125q-0.109375 0.203125 -0.34375 0.203125q-0.140625 0 -0.3125 -0.09375q-0.171875 -0.109375 -0.4375 -0.234375q-0.25 -0.125 -0.609375 -0.234375q-0.359375 -0.109375 -0.84375 -0.109375q-0.40625 0 -0.75 0.109375q-0.328125 0.109375 -0.578125 0.296875q-0.234375 0.1875 -0.359375 0.4375q-0.125 0.234375 -0.125 0.53125q0 0.359375 0.203125 0.609375q0.21875 0.234375 0.5625 0.421875q0.34375 0.171875 0.78125 0.3125q0.4375 0.125 0.890625 0.28125q0.46875 0.15625 0.90625 0.34375q0.4375 0.1875 0.78125 0.46875q0.359375 0.28125 0.5625 0.6875q0.203125 0.40625 0.203125 0.96875q0 0.65625 -0.234375 1.21875q-0.21875 0.546875 -0.6875 0.953125q-0.453125 0.40625 -1.125 0.640625q-0.65625 0.234375 -1.515625 0.234375q-0.984375 0 -1.796875 -0.328125q-0.796875 -0.328125 -1.359375 -0.828125l0.390625 -0.625q0.078125 -0.125 0.171875 -0.1875q0.109375 -0.078125 0.28125 -0.078125q0.15625 0 0.34375 0.140625q0.1875 0.125 0.453125 0.28125q0.265625 0.15625 0.640625 0.296875q0.390625 0.125 0.953125 0.125q0.484375 0 0.84375 -0.125q0.375 -0.125 0.609375 -0.328125q0.25 -0.21875 0.359375 -0.5q0.125 -0.28125 0.125 -0.609375q0 -0.390625 -0.21875 -0.640625q-0.203125 -0.25 -0.546875 -0.4375q-0.34375 -0.1875 -0.796875 -0.3125q-0.4375 -0.140625 -0.90625 -0.28125q-0.453125 -0.15625 -0.90625 -0.34375q-0.4375 -0.203125 -0.78125 -0.484375q-0.34375 -0.296875 -0.5625 -0.71875q-0.203125 -0.421875 -0.203125 -1.03125q0 -0.53125 0.21875 -1.03125q0.234375 -0.5 0.65625 -0.875q0.4375 -0.390625 1.0625 -0.609375q0.625 -0.21875 1.421875 -0.21875q0.9375 0 1.671875 0.296875q0.75 0.28125 1.28125 0.796875l-0.375 0.609375zm5.5499573 8.046875q-1.109375 0 -1.71875 -0.625q-0.59375 -0.625 -0.59375 -1.8125l0 -5.78125l-1.140625 0q-0.15625 0 -0.265625 -0.078125q-0.09375 -0.09375 -0.09375 -0.28125l0 -0.65625l1.546875 -0.203125l0.390625 -2.921875q0.015625 -0.140625 0.109375 -0.21875q0.109375 -0.09375 0.265625 -0.09375l0.84375 0l0 3.25l2.703125 0l0 1.203125l-2.703125 0l0 5.671875q0 0.59375 0.28125 0.890625q0.296875 0.28125 0.75 0.28125q0.265625 0 0.453125 -0.0625q0.203125 -0.078125 0.328125 -0.15625q0.140625 -0.078125 0.234375 -0.140625q0.109375 -0.078125 0.1875 -0.078125q0.125 0 0.234375 0.15625l0.484375 0.796875q-0.4375 0.390625 -1.046875 0.625q-0.59375 0.234375 -1.25 0.234375zm5.9431458 -9.609375l0 9.453125l-1.65625 0l0 -9.453125l1.65625 0zm0.375 -2.96875q0 0.25 -0.09375 0.46875q-0.09375 0.203125 -0.265625 0.375q-0.15625 0.15625 -0.375 0.25q-0.21875 0.09375 -0.453125 0.09375q-0.25 0 -0.46875 -0.09375q-0.203125 -0.09375 -0.359375 -0.25q-0.15625 -0.171875 -0.25 -0.375q-0.09375 -0.21875 -0.09375 -0.46875q0 -0.234375 0.09375 -0.453125q0.09375 -0.21875 0.25 -0.375q0.15625 -0.171875 0.359375 -0.265625q0.21875 -0.09375 0.46875 -0.09375q0.234375 0 0.453125 0.09375q0.21875 0.09375 0.375 0.265625q0.171875 0.15625 0.265625 0.375q0.09375 0.21875 0.09375 0.453125zm9.010376 4.65625q-0.078125 0.09375 -0.15625 0.15625q-0.078125 0.046875 -0.21875 0.046875q-0.140625 0 -0.296875 -0.109375q-0.15625 -0.109375 -0.421875 -0.25q-0.25 -0.140625 -0.609375 -0.25q-0.359375 -0.125 -0.875 -0.125q-0.6875 0 -1.21875 0.25q-0.53125 0.234375 -0.890625 0.703125q-0.359375 0.46875 -0.546875 1.140625q-0.1875 0.65625 -0.1875 1.46875q0 0.859375 0.203125 1.53125q0.203125 0.671875 0.546875 1.125q0.359375 0.453125 0.859375 0.6875q0.515625 0.234375 1.15625 0.234375q0.59375 0 0.984375 -0.140625q0.390625 -0.15625 0.65625 -0.328125q0.265625 -0.171875 0.421875 -0.3125q0.171875 -0.15625 0.34375 -0.15625q0.21875 0 0.3125 0.15625l0.46875 0.609375q-0.609375 0.765625 -1.53125 1.109375q-0.921875 0.34375 -1.953125 0.34375q-0.890625 0 -1.65625 -0.3125q-0.75 -0.328125 -1.3125 -0.953125q-0.5625 -0.625 -0.890625 -1.53125q-0.3125 -0.90625 -0.3125 -2.0625q0 -1.046875 0.296875 -1.9375q0.296875 -0.90625 0.859375 -1.546875q0.5625 -0.65625 1.390625 -1.015625q0.828125 -0.359375 1.90625 -0.359375q0.984375 0 1.75 0.328125q0.765625 0.3125 1.359375 0.890625l-0.4375 0.609375z" fill-rule="nonzero"/><path fill="#000000" d="m346.598 43.021008q0.125 0.21875 0.21875 0.46875q0.109375 0.25 0.203125 0.5q0.09375 -0.265625 0.1875 -0.5q0.109375 -0.234375 0.234375 -0.484375l4.53125 -8.21875q0.109375 -0.21875 0.234375 -0.265625q0.140625 -0.046875 0.390625 -0.046875l1.328125 0l0 13.375l-1.578125 0l0 -9.828125q0 -0.1875 0 -0.40625q0.015625 -0.234375 0.03125 -0.46875l-4.578125 8.359375q-0.234375 0.421875 -0.65625 0.421875l-0.265625 0q-0.421875 0 -0.65625 -0.421875l-4.671875 -8.390625q0.03125 0.25 0.03125 0.484375q0.015625 0.234375 0.015625 0.421875l0 9.828125l-1.578125 0l0 -13.375l1.328125 0q0.25 0 0.375 0.046875q0.125 0.046875 0.25 0.265625l4.625 8.234375l0 0zm14.148132 -4.765625q1.03125 0 1.859375 0.34375q0.84375 0.34375 1.421875 0.984375q0.59375 0.625 0.90625 1.53125q0.3125 0.890625 0.3125 2.0q0 1.125 -0.3125 2.03125q-0.3125 0.890625 -0.90625 1.53125q-0.578125 0.625 -1.421875 0.96875q-0.828125 0.328125 -1.859375 0.328125q-1.03125 0 -1.875 -0.328125q-0.828125 -0.34375 -1.421875 -0.96875q-0.578125 -0.640625 -0.90625 -1.53125q-0.3125 -0.90625 -0.3125 -2.03125q0 -1.109375 0.3125 -2.0q0.328125 -0.90625 0.90625 -1.53125q0.59375 -0.640625 1.421875 -0.984375q0.84375 -0.34375 1.875 -0.34375zm0 8.421875q1.390625 0 2.078125 -0.9375q0.703125 -0.9375 0.703125 -2.609375q0 -1.6875 -0.703125 -2.625q-0.6875 -0.953125 -2.078125 -0.953125q-0.703125 0 -1.234375 0.25q-0.515625 0.234375 -0.875 0.703125q-0.34375 0.453125 -0.515625 1.125q-0.171875 0.65625 -0.171875 1.5q0 0.84375 0.171875 1.5q0.171875 0.65625 0.515625 1.109375q0.359375 0.453125 0.875 0.703125q0.53125 0.234375 1.234375 0.234375zm13.200989 1.171875q-0.359375 0 -0.453125 -0.34375l-0.140625 -1.15625q-0.609375 0.75 -1.390625 1.1875q-0.78125 0.4375 -1.78125 0.4375q-0.8125 0 -1.484375 -0.3125q-0.65625 -0.3125 -1.125 -0.90625q-0.46875 -0.609375 -0.71875 -1.515625q-0.25 -0.90625 -0.25 -2.078125q0 -1.046875 0.28125 -1.9375q0.28125 -0.90625 0.796875 -1.5625q0.53125 -0.671875 1.28125 -1.046875q0.765625 -0.390625 1.71875 -0.390625q0.875 0 1.484375 0.296875q0.625 0.296875 1.109375 0.828125l0 -5.234375l1.65625 0l0 13.734375l-0.984375 0zm-3.21875 -1.21875q0.8125 0 1.421875 -0.359375q0.609375 -0.375 1.125 -1.0625l0 -4.5625q-0.453125 -0.625 -1.0 -0.875q-0.546875 -0.25 -1.21875 -0.25q-1.3125 0 -2.03125 0.953125q-0.703125 0.9375 -0.703125 2.6875q0 0.921875 0.15625 1.578125q0.15625 0.65625 0.46875 1.078125q0.3125 0.421875 0.75 0.625q0.453125 0.1875 1.03125 0.1875zm10.741364 -8.375q0.84375 0 1.5625 0.28125q0.71875 0.28125 1.234375 0.828125q0.53125 0.53125 0.8125 1.328125q0.296875 0.78125 0.296875 1.78125q0 0.390625 -0.078125 0.53125q-0.078125 0.125 -0.3125 0.125l-6.296875 0q0.015625 0.890625 0.234375 1.5625q0.234375 0.65625 0.625 1.109375q0.390625 0.4375 0.9375 0.65625q0.546875 0.21875 1.203125 0.21875q0.625 0 1.078125 -0.140625q0.453125 -0.15625 0.78125 -0.3125q0.328125 -0.171875 0.546875 -0.3125q0.21875 -0.15625 0.375 -0.15625q0.21875 0 0.328125 0.15625l0.46875 0.609375q-0.3125 0.375 -0.75 0.65625q-0.421875 0.265625 -0.921875 0.453125q-0.484375 0.171875 -1.015625 0.25q-0.515625 0.09375 -1.015625 0.09375q-0.984375 0 -1.8125 -0.328125q-0.828125 -0.328125 -1.4375 -0.96875q-0.59375 -0.640625 -0.9375 -1.578125q-0.328125 -0.9375 -0.328125 -2.171875q0 -0.984375 0.296875 -1.84375q0.3125 -0.859375 0.875 -1.484375q0.578125 -0.625 1.390625 -0.984375q0.828125 -0.359375 1.859375 -0.359375zm0.03125 1.21875q-1.203125 0 -1.890625 0.703125q-0.6875 0.6875 -0.859375 1.921875l5.140625 0q0 -0.578125 -0.171875 -1.0625q-0.15625 -0.484375 -0.46875 -0.828125q-0.296875 -0.359375 -0.75 -0.546875q-0.4375 -0.1875 -1.0 -0.1875zm7.838379 -5.359375l0 13.734375l-1.65625 0l0 -13.734375l1.65625 0z" fill-rule="nonzero"/><path fill="#f4cccc" d="m409.98434 213.90334l-0.27172852 0.020828247l-0.30511475 0.06384277l-0.27172852 0.06338501l-0.2709961 0.084228516l-0.271698 0.10595703l-0.30514526 0.12678528l-0.27172852 0.14805603l-0.271698 0.16934204l-0.30514526 0.19018555l-0.27172852 0.2114563l-0.2709961 0.23274231l-0.271698 0.25357056l-0.30514526 0.2748413l-0.271698 0.29612732l-0.2710266 0.31741333l-0.30584717 0.33824158l-0.2709961 0.3595276l-0.271698 0.38035583l-0.2709961 0.38079834l-0.3058777 0.4229126l-0.2709961 0.4441986l-0.271698 0.4437561l-0.30514526 0.4862976l-0.271698 0.48675537l-0.2710266 0.5071411l-0.271698 0.5075836l-0.30514526 0.54971313l-0.271698 0.5501404l-0.27172852 0.5709686l-0.30514526 0.5918274l-0.2709961 0.59225464l-0.271698 0.61309814l-0.30514526 0.6343689l-0.27172852 0.6343689l-0.271698 0.6556549l-0.2709961 0.6556549l-0.30514526 0.67648315l-0.271698 0.67692566l-0.27172852 0.67648315l-0.30514526 0.69776917l-0.271698 0.69776917l-0.2709961 0.7190399l-0.27172852 0.7190399l-0.30514526 0.7190552l-0.271698 0.7190399l-0.2709961 0.7185974l-0.30584717 0.7190399l-0.2710266 0.7403259l-0.271698 0.7398834l-0.2709961 0.7190399l-0.30584717 0.7403259l-0.2709961 0.7398834l-0.27172852 0.7190399l-0.30514526 0.7403259l-0.271698 0.7185974l-0.27172852 0.7403259l-0.2709961 0.7190399l-0.30514526 0.7190399l-0.271698 0.7186127l-0.271698 0.6981964l-0.30514526 0.7186127l-0.27172852 0.6977539l-0.2709961 0.6769409l-0.271698 0.6977539l-0.30514526 0.6764984l-0.27172852 0.67692566l-0.2709961 0.67648315l-0.30584717 0.6556549l-0.2709961 0.6556549l-0.27172852 0.6343689l-0.2709961 0.6556549l-0.30584717 0.6343689l-0.2709961 0.61309814l-0.271698 0.6130829l-0.30514526 0.61354065l-0.27172852 0.61309814l-0.2709961 0.59225464l-0.30584717 0.5918274l-0.2709961 0.59225464l-0.27172852 0.5709839l-0.271698 0.57095337l-0.30514526 0.5709839l-0.2709961 0.57055664l-0.27172852 0.5501404l-0.30511475 0.5496826l-0.27172852 0.5284424l-0.271698 0.5501404l-0.2709961 0.52841187l-0.3058777 0.5288696l-0.2709961 0.5075989l-0.271698 0.52841187l-0.30514526 0.5075989l-0.27172852 0.4862976l-0.2709961 0.50756836l-0.271698 0.48632812l-0.30514526 0.4862976l-0.271698 0.46502686l-0.2710266 0.46548462l-0.30584717 0.46502686l-0.2709961 0.4654541l-0.271698 0.42294312l-0.27172852 0.4437256l-0.30514526 0.4229126l-0.2709961 0.42294312l-0.271698 0.42333984l-0.30514526 0.40164185l-0.271698 0.38034058l-0.27172852 0.4020996l-0.2709961 0.38034058l-0.30514526 0.3595276l-0.271698 0.3595276l-0.27172852 0.3595276l-0.30514526 0.33822632l-0.271698 0.33868408l-0.2709961 0.31698608l-0.27172852 0.31741333l-0.30514526 0.2956848l-0.271698 0.3173828l-0.2709961 0.27487183l-0.30584717 0.29611206l-0.2709961 0.27487183l-0.27172852 0.25357056l-0.2709961 0.2539978l-0.30584717 0.25357056l-0.2709961 0.25402832l-0.27172852 0.2322998l-0.30514526 0.23272705l-0.271698 0.2114563l-0.2709961 0.2114563l-0.30584717 0.2114563l-0.2710266 0.2114563l-0.271698 0.19018555l-0.271698 0.2114563l-0.30514526 0.16934204l-0.27172852 0.19018555l-0.2709961 0.16934204l-0.30514526 0.16888428l-0.271698 0.16934204l-0.27172852 0.16934204l-0.2709961 0.14807129l-0.30584717 0.14807129l-0.2709961 0.14761353l-0.271698 0.14807129l-0.30514526 0.14807129l-0.27172852 0.12677002l-0.2709961 0.12722778l-0.271698 0.12680054l-0.30514526 0.12677002l-0.27172852 0.12680054l-0.2709961 0.10595703l-0.30584717 0.10549927l-0.2709961 0.10595703l-0.27172852 0.10549927l-0.271698 0.10595703l-0.30514526 0.10549927l-0.2709961 0.08465576l-0.271698 0.10595703l-0.30514526 0.084228516l-0.27172852 0.08468628l-0.271698 0.08465576l-0.2709961 0.08468628l-0.30514526 0.08465576l-0.27172852 0.06341553l-0.271698 0.08465576l-0.30514526 0.06338501l-0.271698 0.06341553l-0.2710266 0.08465576l-0.271698 0.06338501l-0.30514526 0.042114258l-0.271698 0.06341553l-0.2709961 0.06338501l-0.3058777 0.06338501l-0.2709961 0.04257202l-0.271698 0.042114258l-0.30514526 0.06338501l-0.271698 0.042541504l-0.2710266 0.042114258l-0.271698 0.042114258l-0.30514526 0.04257202l-0.271698 0.042114258l-0.27172852 0.042541504l-0.30514526 0.020843506l-0.2709961 0.04257202l-0.271698 0.042114258l-0.27172852 0.021270752l-0.30514526 0.042114258l-0.271698 0.021270752l-0.2709961 0.02130127l-0.30514526 0.042114258l-0.271698 0.021270752l-0.27172852 0.020843506l-0.2709961 0.021270752l-0.30584717 0.021270752l-0.2709961 0.042114258l-0.27172852 0.021270752l-0.30514526 0.02130127l-0.271698 0.020812988l-0.2709961 0.02130127l-0.27172852 0.021270752l-0.30514526 0l-0.271698 0.020843506l-0.2709961 0.021270752l-0.30584717 0.021270752l-0.2709961 0.021270752l-0.27172852 0.020843506l-0.271698 0l-0.30514526 0.021270752l-0.2709961 0.02130127l-0.27172852 0.020812988l-0.30514526 0l-0.271698 0.02130127l-0.27172852 0l-0.2709961 0.021270752l-0.30584717 0.020843506l-0.2709961 0l-0.271698 0.021270752l-0.30514526 0l-0.27172852 0.021270752l-0.2709961 0l-0.30584717 0.021270752l-0.5427246 0l-0.2709961 0.020843506l-0.57684326 0l-0.271698 0.021270752l-0.8478699 0l-0.271698 0.02130127l-0.8485718 0l-0.30514526 0.020812988l-1.3912659 0l-0.2709961 0.02130127l-2.544983 0l-0.2710266 0.021270752l-3.3928223 0l-0.271698 0.020843506l151.0174 0l-0.271698 -0.020843506l-9.839233 0l-0.30514526 -0.021270752l-1.662262 0l-0.30584717 -0.02130127l-0.8137207 0l-0.30584717 -0.020812988l-0.5427246 0l-0.30514526 -0.02130127l-0.271698 0l-0.271698 -0.021270752l-0.2710266 0l-0.30511475 -0.020843506l-0.27172852 0l-0.271698 -0.021270752l-0.30514526 0l-0.27172852 -0.021270752l-0.2709961 -0.021270752l-0.271698 0l-0.30514526 -0.020843506l-0.271698 -0.021270752l-0.2710266 -0.02130127l-0.30584717 0l-0.2709961 -0.020812988l-0.271698 -0.02130127l-0.2709961 -0.021270752l-0.3058777 -0.020843506l-0.2709961 -0.021270752l-0.271698 -0.021270752l-0.30514526 -0.021270752l-0.27172852 -0.042114258l-0.2709961 -0.02130127l-0.30584717 -0.020812988l-0.2709961 -0.02130127l-0.271698 -0.042114258l-0.27172852 -0.021270752l-0.30514526 -0.021270752l-0.271698 -0.042114258l-0.2709961 -0.021270752l-0.30514526 -0.042114258l-0.27172852 -0.04257202l-0.271698 -0.020843506l-0.2709961 -0.042541504l-0.30584717 -0.042114258l-0.2710266 -0.04257202l-0.271698 -0.042114258l-0.30514526 -0.042114258l-0.271698 -0.042541504l-0.2709961 -0.042114258l-0.27172852 -0.04257202l-0.30514526 -0.042114258l-0.271698 -0.06338501l-0.2709961 -0.04257202l-0.30584717 -0.06338501l-0.2710266 -0.042114258l-0.271698 -0.06338501l-0.271698 -0.06338501l-0.30514526 -0.06341553l-0.2709961 -0.06338501l-0.27172852 -0.06384277l-0.30514526 -0.06338501l-0.271698 -0.084228516l-0.27172852 -0.06384277l-0.2709961 -0.084228516l-0.30514526 -0.08465576l-0.271698 -0.08468628l-0.27172852 -0.08465576l-0.30511475 -0.08468628l-0.27172852 -0.084228516l-0.2709961 -0.10595703l-0.271698 -0.10549927l-0.30514526 -0.08465576l-0.27172852 -0.10595703l-0.2709961 -0.12680054l-0.30584717 -0.10549927l-0.2709961 -0.10595703l-0.27172852 -0.12677002l-0.30514526 -0.12680054l-0.271698 -0.12722778l-0.2709961 -0.12677002l-0.27172852 -0.14807129l-0.30511475 -0.14807129l-0.27172852 -0.12677002l-0.271698 -0.14807129l-0.30514526 -0.1689148l-0.2709961 -0.14804077l-0.27172852 -0.14807129l-0.271698 -0.16934204l-0.30514526 -0.1689148l-0.271698 -0.16934204l-0.2710266 -0.19018555l-0.30514526 -0.1906128l-0.271698 -0.16888428l-0.271698 -0.19018555l-0.2710266 -0.2114563l-0.30584717 -0.19064331l-0.2709961 -0.2114563l-0.271698 -0.2114563l-0.30514526 -0.2114563l-0.27172852 -0.2114563l-0.2709961 -0.23272705l-0.271698 -0.2322998l-0.30514526 -0.23272705l-0.271698 -0.25357056l-0.2710266 -0.23272705l-0.30584717 -0.25357056l-0.2709961 -0.27529907l-0.271698 -0.25357056l-0.27172852 -0.27487183l-0.30514526 -0.29611206l-0.2709961 -0.2748413l-0.271698 -0.31741333l-0.30514526 -0.2956848l-0.27172852 -0.31741333l-0.271698 -0.31695557l-0.2709961 -0.33868408l-0.30584717 -0.33825684l-0.2709961 -0.33825684l-0.27172852 -0.35949707l-0.30514526 -0.38082886l-0.271698 -0.38034058l-0.2709961 -0.38079834l-0.27172852 -0.40164185l-0.30514526 -0.40164185l-0.271698 -0.4020691l-0.2709961 -0.4437561l-0.30584717 -0.4229126l-0.2710266 -0.44418335l-0.271698 -0.46548462l-0.30514526 -0.4437561l-0.271698 -0.4862976l-0.2709961 -0.46548462l-0.27172852 -0.4862976l-0.30514526 -0.5075989l-0.271698 -0.50756836l-0.27172852 -0.5071411l-0.30511475 -0.5288696l-0.2710266 -0.5075989l-0.271698 -0.52841187l-0.271698 -0.5501404l-0.30514526 -0.54971313l-0.27172852 -0.5496826l-0.2709961 -0.54971313l-0.30514526 -0.5709839l-0.271698 -0.5496826l-0.27172852 -0.59228516l-0.2709961 -0.57095337l-0.30584717 -0.5709839l-0.2709961 -0.5918274l-0.27172852 -0.59225464l-0.30511475 -0.59225464l-0.27172852 -0.59181213l-0.2709961 -0.5922699l-0.271698 -0.6130829l-0.30514526 -0.5922699l-0.27172852 -0.6130829l-0.2709961 -0.61354065l-0.30584717 -0.6343689l-0.2709961 -0.61309814l-0.27172852 -0.6343689l-0.271698 -0.61309814l-0.30514526 -0.6343689l-0.271698 -0.6556549l-0.2710266 -0.6343689l-0.30511475 -0.6343689l-0.27172852 -0.6556549l-0.271698 -0.6556549l-0.2709961 -0.6552124l-0.3058777 -0.67692566l-0.2709961 -0.6552124l-0.271698 -0.67692566l-0.30514526 -0.67648315l-0.271698 -0.6556549l-0.2710266 -0.69776917l-0.30584717 -0.67692566l-0.2709961 -0.69776917l-0.271698 -0.67648315l-0.2709961 -0.69776917l-0.3058777 -0.6977539l-0.2709961 -0.69821167l-0.271698 -0.67648315l-0.30514526 -0.69776917l-0.27172852 -0.69776917l-0.2709961 -0.69776917l-0.271698 -0.6977539l-0.30514526 -0.69821167l-0.271698 -0.67648315l-0.27172852 -0.69776917l-0.30514526 -0.67692566l-0.2709961 -0.6552124l-0.271698 -0.67692566l-0.27172852 -0.6552124l-0.30514526 -0.6556549l-0.271698 -0.6343689l-0.2709961 -0.6343689l-0.30584717 -0.63438416l-0.2710266 -0.6135254l-0.271698 -0.5918274l-0.2709961 -0.59225464l-0.30584717 -0.5709686l-0.2709961 -0.5709839l-0.27172852 -0.5284271l-0.30514526 -0.5496979l-0.271698 -0.5075836l-0.2709961 -0.48631287l-0.27172852 -0.48631287l-0.30514526 -0.46546936l-0.271698 -0.44418335l-0.271698 -0.42292786l-0.30514526 -0.4229126l-0.2710266 -0.38035583l-0.271698 -0.38079834l-0.271698 -0.3595276l-0.30514526 -0.33824158l-0.27172852 -0.31739807l-0.2709961 -0.29570007l-0.30514526 -0.2748413l-0.271698 -0.27529907l-0.27172852 -0.23228455l-0.30511475 -0.23274231l-0.27172852 -0.19017029l-0.2709961 -0.19062805l-0.271698 -0.16889954l-0.30514526 -0.14807129l-0.27172852 -0.12678528l-0.2709961 -0.10594177l-0.30584717 -0.08467102l-0.2709961 -0.084228516l-0.27172852 -0.042556763l-0.2709961 -0.042114258z" fill-rule="evenodd"/><path stroke="#cc0000" stroke-width="1.0" stroke-linejoin="round" stroke-linecap="butt" d="m409.98434 213.90334l-0.27172852 0.020828247l-0.30511475 0.06384277l-0.27172852 0.06338501l-0.2709961 0.084228516l-0.271698 0.10595703l-0.30514526 0.12678528l-0.27172852 0.14805603l-0.271698 0.16934204l-0.30514526 0.19018555l-0.27172852 0.2114563l-0.2709961 0.23274231l-0.271698 0.25357056l-0.30514526 0.2748413l-0.271698 0.29612732l-0.2710266 0.31741333l-0.30584717 0.33824158l-0.2709961 0.3595276l-0.271698 0.38035583l-0.2709961 0.38079834l-0.3058777 0.4229126l-0.2709961 0.4441986l-0.271698 0.4437561l-0.30514526 0.4862976l-0.271698 0.48675537l-0.2710266 0.5071411l-0.271698 0.5075836l-0.30514526 0.54971313l-0.271698 0.5501404l-0.27172852 0.5709686l-0.30514526 0.5918274l-0.2709961 0.59225464l-0.271698 0.61309814l-0.30514526 0.6343689l-0.27172852 0.6343689l-0.271698 0.6556549l-0.2709961 0.6556549l-0.30514526 0.67648315l-0.271698 0.67692566l-0.27172852 0.67648315l-0.30514526 0.69776917l-0.271698 0.69776917l-0.2709961 0.7190399l-0.27172852 0.7190399l-0.30514526 0.7190552l-0.271698 0.7190399l-0.2709961 0.7185974l-0.30584717 0.7190399l-0.2710266 0.7403259l-0.271698 0.7398834l-0.2709961 0.7190399l-0.30584717 0.7403259l-0.2709961 0.7398834l-0.27172852 0.7190399l-0.30514526 0.7403259l-0.271698 0.7185974l-0.27172852 0.7403259l-0.2709961 0.7190399l-0.30514526 0.7190399l-0.271698 0.7186127l-0.271698 0.6981964l-0.30514526 0.7186127l-0.27172852 0.6977539l-0.2709961 0.6769409l-0.271698 0.6977539l-0.30514526 0.6764984l-0.27172852 0.67692566l-0.2709961 0.67648315l-0.30584717 0.6556549l-0.2709961 0.6556549l-0.27172852 0.6343689l-0.2709961 0.6556549l-0.30584717 0.6343689l-0.2709961 0.61309814l-0.271698 0.6130829l-0.30514526 0.61354065l-0.27172852 0.61309814l-0.2709961 0.59225464l-0.30584717 0.5918274l-0.2709961 0.59225464l-0.27172852 0.5709839l-0.271698 0.57095337l-0.30514526 0.5709839l-0.2709961 0.57055664l-0.27172852 0.5501404l-0.30511475 0.5496826l-0.27172852 0.5284424l-0.271698 0.5501404l-0.2709961 0.52841187l-0.3058777 0.5288696l-0.2709961 0.5075989l-0.271698 0.52841187l-0.30514526 0.5075989l-0.27172852 0.4862976l-0.2709961 0.50756836l-0.271698 0.48632812l-0.30514526 0.4862976l-0.271698 0.46502686l-0.2710266 0.46548462l-0.30584717 0.46502686l-0.2709961 0.4654541l-0.271698 0.42294312l-0.27172852 0.4437256l-0.30514526 0.4229126l-0.2709961 0.42294312l-0.271698 0.42333984l-0.30514526 0.40164185l-0.271698 0.38034058l-0.27172852 0.4020996l-0.2709961 0.38034058l-0.30514526 0.3595276l-0.271698 0.3595276l-0.27172852 0.3595276l-0.30514526 0.33822632l-0.271698 0.33868408l-0.2709961 0.31698608l-0.27172852 0.31741333l-0.30514526 0.2956848l-0.271698 0.3173828l-0.2709961 0.27487183l-0.30584717 0.29611206l-0.2709961 0.27487183l-0.27172852 0.25357056l-0.2709961 0.2539978l-0.30584717 0.25357056l-0.2709961 0.25402832l-0.27172852 0.2322998l-0.30514526 0.23272705l-0.271698 0.2114563l-0.2709961 0.2114563l-0.30584717 0.2114563l-0.2710266 0.2114563l-0.271698 0.19018555l-0.271698 0.2114563l-0.30514526 0.16934204l-0.27172852 0.19018555l-0.2709961 0.16934204l-0.30514526 0.16888428l-0.271698 0.16934204l-0.27172852 0.16934204l-0.2709961 0.14807129l-0.30584717 0.14807129l-0.2709961 0.14761353l-0.271698 0.14807129l-0.30514526 0.14807129l-0.27172852 0.12677002l-0.2709961 0.12722778l-0.271698 0.12680054l-0.30514526 0.12677002l-0.27172852 0.12680054l-0.2709961 0.10595703l-0.30584717 0.10549927l-0.2709961 0.10595703l-0.27172852 0.10549927l-0.271698 0.10595703l-0.30514526 0.10549927l-0.2709961 0.08465576l-0.271698 0.10595703l-0.30514526 0.084228516l-0.27172852 0.08468628l-0.271698 0.08465576l-0.2709961 0.08468628l-0.30514526 0.08465576l-0.27172852 0.06341553l-0.271698 0.08465576l-0.30514526 0.06338501l-0.271698 0.06341553l-0.2710266 0.08465576l-0.271698 0.06338501l-0.30514526 0.042114258l-0.271698 0.06341553l-0.2709961 0.06338501l-0.3058777 0.06338501l-0.2709961 0.04257202l-0.271698 0.042114258l-0.30514526 0.06338501l-0.271698 0.042541504l-0.2710266 0.042114258l-0.271698 0.042114258l-0.30514526 0.04257202l-0.271698 0.042114258l-0.27172852 0.042541504l-0.30514526 0.020843506l-0.2709961 0.04257202l-0.271698 0.042114258l-0.27172852 0.021270752l-0.30514526 0.042114258l-0.271698 0.021270752l-0.2709961 0.02130127l-0.30514526 0.042114258l-0.271698 0.021270752l-0.27172852 0.020843506l-0.2709961 0.021270752l-0.30584717 0.021270752l-0.2709961 0.042114258l-0.27172852 0.021270752l-0.30514526 0.02130127l-0.271698 0.020812988l-0.2709961 0.02130127l-0.27172852 0.021270752l-0.30514526 0l-0.271698 0.020843506l-0.2709961 0.021270752l-0.30584717 0.021270752l-0.2709961 0.021270752l-0.27172852 0.020843506l-0.271698 0l-0.30514526 0.021270752l-0.2709961 0.02130127l-0.27172852 0.020812988l-0.30514526 0l-0.271698 0.02130127l-0.27172852 0l-0.2709961 0.021270752l-0.30584717 0.020843506l-0.2709961 0l-0.271698 0.021270752l-0.30514526 0l-0.27172852 0.021270752l-0.2709961 0l-0.30584717 0.021270752l-0.5427246 0l-0.2709961 0.020843506l-0.57684326 0l-0.271698 0.021270752l-0.8478699 0l-0.271698 0.02130127l-0.8485718 0l-0.30514526 0.020812988l-1.3912659 0l-0.2709961 0.02130127l-2.544983 0l-0.2710266 0.021270752l-3.3928223 0l-0.271698 0.020843506l151.0174 0l-0.271698 -0.020843506l-9.839233 0l-0.30514526 -0.021270752l-1.662262 0l-0.30584717 -0.02130127l-0.8137207 0l-0.30584717 -0.020812988l-0.5427246 0l-0.30514526 -0.02130127l-0.271698 0l-0.271698 -0.021270752l-0.2710266 0l-0.30511475 -0.020843506l-0.27172852 0l-0.271698 -0.021270752l-0.30514526 0l-0.27172852 -0.021270752l-0.2709961 -0.021270752l-0.271698 0l-0.30514526 -0.020843506l-0.271698 -0.021270752l-0.2710266 -0.02130127l-0.30584717 0l-0.2709961 -0.020812988l-0.271698 -0.02130127l-0.2709961 -0.021270752l-0.3058777 -0.020843506l-0.2709961 -0.021270752l-0.271698 -0.021270752l-0.30514526 -0.021270752l-0.27172852 -0.042114258l-0.2709961 -0.02130127l-0.30584717 -0.020812988l-0.2709961 -0.02130127l-0.271698 -0.042114258l-0.27172852 -0.021270752l-0.30514526 -0.021270752l-0.271698 -0.042114258l-0.2709961 -0.021270752l-0.30514526 -0.042114258l-0.27172852 -0.04257202l-0.271698 -0.020843506l-0.2709961 -0.042541504l-0.30584717 -0.042114258l-0.2710266 -0.04257202l-0.271698 -0.042114258l-0.30514526 -0.042114258l-0.271698 -0.042541504l-0.2709961 -0.042114258l-0.27172852 -0.04257202l-0.30514526 -0.042114258l-0.271698 -0.06338501l-0.2709961 -0.04257202l-0.30584717 -0.06338501l-0.2710266 -0.042114258l-0.271698 -0.06338501l-0.271698 -0.06338501l-0.30514526 -0.06341553l-0.2709961 -0.06338501l-0.27172852 -0.06384277l-0.30514526 -0.06338501l-0.271698 -0.084228516l-0.27172852 -0.06384277l-0.2709961 -0.084228516l-0.30514526 -0.08465576l-0.271698 -0.08468628l-0.27172852 -0.08465576l-0.30511475 -0.08468628l-0.27172852 -0.084228516l-0.2709961 -0.10595703l-0.271698 -0.10549927l-0.30514526 -0.08465576l-0.27172852 -0.10595703l-0.2709961 -0.12680054l-0.30584717 -0.10549927l-0.2709961 -0.10595703l-0.27172852 -0.12677002l-0.30514526 -0.12680054l-0.271698 -0.12722778l-0.2709961 -0.12677002l-0.27172852 -0.14807129l-0.30511475 -0.14807129l-0.27172852 -0.12677002l-0.271698 -0.14807129l-0.30514526 -0.1689148l-0.2709961 -0.14804077l-0.27172852 -0.14807129l-0.271698 -0.16934204l-0.30514526 -0.1689148l-0.271698 -0.16934204l-0.2710266 -0.19018555l-0.30514526 -0.1906128l-0.271698 -0.16888428l-0.271698 -0.19018555l-0.2710266 -0.2114563l-0.30584717 -0.19064331l-0.2709961 -0.2114563l-0.271698 -0.2114563l-0.30514526 -0.2114563l-0.27172852 -0.2114563l-0.2709961 -0.23272705l-0.271698 -0.2322998l-0.30514526 -0.23272705l-0.271698 -0.25357056l-0.2710266 -0.23272705l-0.30584717 -0.25357056l-0.2709961 -0.27529907l-0.271698 -0.25357056l-0.27172852 -0.27487183l-0.30514526 -0.29611206l-0.2709961 -0.2748413l-0.271698 -0.31741333l-0.30514526 -0.2956848l-0.27172852 -0.31741333l-0.271698 -0.31695557l-0.2709961 -0.33868408l-0.30584717 -0.33825684l-0.2709961 -0.33825684l-0.27172852 -0.35949707l-0.30514526 -0.38082886l-0.271698 -0.38034058l-0.2709961 -0.38079834l-0.27172852 -0.40164185l-0.30514526 -0.40164185l-0.271698 -0.4020691l-0.2709961 -0.4437561l-0.30584717 -0.4229126l-0.2710266 -0.44418335l-0.271698 -0.46548462l-0.30514526 -0.4437561l-0.271698 -0.4862976l-0.2709961 -0.46548462l-0.27172852 -0.4862976l-0.30514526 -0.5075989l-0.271698 -0.50756836l-0.27172852 -0.5071411l-0.30511475 -0.5288696l-0.2710266 -0.5075989l-0.271698 -0.52841187l-0.271698 -0.5501404l-0.30514526 -0.54971313l-0.27172852 -0.5496826l-0.2709961 -0.54971313l-0.30514526 -0.5709839l-0.271698 -0.5496826l-0.27172852 -0.59228516l-0.2709961 -0.57095337l-0.30584717 -0.5709839l-0.2709961 -0.5918274l-0.27172852 -0.59225464l-0.30511475 -0.59225464l-0.27172852 -0.59181213l-0.2709961 -0.5922699l-0.271698 -0.6130829l-0.30514526 -0.5922699l-0.27172852 -0.6130829l-0.2709961 -0.61354065l-0.30584717 -0.6343689l-0.2709961 -0.61309814l-0.27172852 -0.6343689l-0.271698 -0.61309814l-0.30514526 -0.6343689l-0.271698 -0.6556549l-0.2710266 -0.6343689l-0.30511475 -0.6343689l-0.27172852 -0.6556549l-0.271698 -0.6556549l-0.2709961 -0.6552124l-0.3058777 -0.67692566l-0.2709961 -0.6552124l-0.271698 -0.67692566l-0.30514526 -0.67648315l-0.271698 -0.6556549l-0.2710266 -0.69776917l-0.30584717 -0.67692566l-0.2709961 -0.69776917l-0.271698 -0.67648315l-0.2709961 -0.69776917l-0.3058777 -0.6977539l-0.2709961 -0.69821167l-0.271698 -0.67648315l-0.30514526 -0.69776917l-0.27172852 -0.69776917l-0.2709961 -0.69776917l-0.271698 -0.6977539l-0.30514526 -0.69821167l-0.271698 -0.67648315l-0.27172852 -0.69776917l-0.30514526 -0.67692566l-0.2709961 -0.6552124l-0.271698 -0.67692566l-0.27172852 -0.6552124l-0.30514526 -0.6556549l-0.271698 -0.6343689l-0.2709961 -0.6343689l-0.30584717 -0.63438416l-0.2710266 -0.6135254l-0.271698 -0.5918274l-0.2709961 -0.59225464l-0.30584717 -0.5709686l-0.2709961 -0.5709839l-0.27172852 -0.5284271l-0.30514526 -0.5496979l-0.271698 -0.5075836l-0.2709961 -0.48631287l-0.27172852 -0.48631287l-0.30514526 -0.46546936l-0.271698 -0.44418335l-0.271698 -0.42292786l-0.30514526 -0.4229126l-0.2710266 -0.38035583l-0.271698 -0.38079834l-0.271698 -0.3595276l-0.30514526 -0.33824158l-0.27172852 -0.31739807l-0.2709961 -0.29570007l-0.30514526 -0.2748413l-0.271698 -0.27529907l-0.27172852 -0.23228455l-0.30511475 -0.23274231l-0.27172852 -0.19017029l-0.2709961 -0.19062805l-0.271698 -0.16889954l-0.30514526 -0.14807129l-0.27172852 -0.12678528l-0.2709961 -0.10594177l-0.30584717 -0.08467102l-0.2709961 -0.084228516l-0.27172852 -0.042556763l-0.2709961 -0.042114258z" fill-rule="evenodd"/><path fill="#000000" fill-opacity="0.0" d="m234.92233 283.55402l259.46457 0" fill-rule="evenodd"/><path stroke="#000000" stroke-width="2.0" stroke-linejoin="round" stroke-linecap="butt" d="m246.92233 283.55402l235.46457 0" fill-rule="evenodd"/><path fill="#000000" stroke="#000000" stroke-width="2.0" stroke-linecap="butt" d="m246.92233 280.25055l-9.076202 3.3034668l9.076202 3.3034668z" fill-rule="evenodd"/><path fill="#000000" stroke="#000000" stroke-width="2.0" stroke-linecap="butt" d="m482.3869 286.85748l9.076172 -3.3034668l-9.076172 -3.3034668z" fill-rule="evenodd"/><path fill="#000000" fill-opacity="0.0" d="m231.17055 139.32545l50.582687 0l0 37.858276l-50.582687 0z" fill-rule="evenodd"/><path fill="#000000" d="m254.06396 160.95584l-5.453125 0l0 -1.5l5.453125 0l0 1.5zm11.476044 4.21875l-7.46875 0l0 -1.46875l3.0625 0l0 -8.703125l-2.859375 1.546875l-0.578125 -1.34375l3.78125 -1.984375l1.40625 0l0 10.484375l2.65625 0l0 1.46875z" fill-rule="nonzero"/><path fill="#000000" fill-opacity="0.0" d="m313.89178 139.3258l29.13385 0l0 37.858276l-29.13385 0z" fill-rule="evenodd"/><path fill="#000000" d="m332.7832 159.22182q0 1.375 -0.28125 2.5q-0.265625 1.125 -0.828125 1.9375q-0.546875 0.796875 -1.375 1.234375q-0.8125 0.4375 -1.9375 0.4375q-0.953125 0 -1.734375 -0.359375q-0.78125 -0.359375 -1.34375 -1.09375q-0.546875 -0.75 -0.859375 -1.90625q-0.296875 -1.15625 -0.296875 -2.75q0 -1.359375 0.28125 -2.484375q0.28125 -1.140625 0.828125 -1.9375q0.546875 -0.8125 1.375 -1.25q0.84375 -0.4375 1.9375 -0.4375q0.953125 0 1.734375 0.359375q0.796875 0.359375 1.34375 1.109375q0.5625 0.75 0.859375 1.90625q0.296875 1.15625 0.296875 2.734375zm-1.59375 0.0625q0 -0.3125 -0.03125 -0.609375q-0.015625 -0.3125 -0.046875 -0.609375l-5.046875 3.75q0.140625 0.46875 0.34375 0.875q0.21875 0.390625 0.515625 0.6875q0.296875 0.28125 0.671875 0.453125q0.375 0.15625 0.859375 0.15625q0.625 0 1.125 -0.296875q0.515625 -0.3125 0.859375 -0.90625q0.359375 -0.59375 0.546875 -1.46875q0.203125 -0.875 0.203125 -2.03125zm-5.453125 -0.109375q0 0.28125 0 0.5625q0 0.28125 0.03125 0.546875l5.046875 -3.734375q-0.140625 -0.453125 -0.359375 -0.828125q-0.203125 -0.390625 -0.5 -0.671875q-0.28125 -0.28125 -0.65625 -0.4375q-0.375 -0.15625 -0.84375 -0.15625q-0.609375 0 -1.125 0.3125q-0.5 0.296875 -0.859375 0.890625q-0.359375 0.59375 -0.546875 1.484375q-0.1875 0.875 -0.1875 2.03125z" fill-rule="nonzero"/><path fill="#000000" fill-opacity="0.0" d="m385.89178 139.3258l29.13385 0l0 37.858276l-29.13385 0z" fill-rule="evenodd"/><path fill="#000000" d="m404.4082 165.17494l-7.46875 0l0 -1.46875l3.0625 0l0 -8.703125l-2.859375 1.546875l-0.578125 -1.34375l3.78125 -1.984375l1.40625 0l0 10.484375l2.65625 0l0 1.46875z" fill-rule="nonzero"/><path fill="#000000" fill-opacity="0.0" d="m457.89178 139.3258l29.13385 0l0 37.858276l-29.13385 0z" fill-rule="evenodd"/><path fill="#000000" d="m476.51758 165.17494l-7.84375 0l0 -1.421875l3.078125 -3.0625q0.75 -0.75 1.21875 -1.296875q0.484375 -0.546875 0.75 -0.984375q0.265625 -0.453125 0.34375 -0.859375q0.09375 -0.40625 0.09375 -0.859375q0 -0.4375 -0.125 -0.828125q-0.109375 -0.40625 -0.359375 -0.703125q-0.234375 -0.3125 -0.640625 -0.484375q-0.390625 -0.171875 -0.9375 -0.171875q-0.75 0 -1.375 0.34375q-0.609375 0.328125 -1.125 0.875l-0.875 -1.046875q0.671875 -0.71875 1.546875 -1.140625q0.875 -0.421875 2.046875 -0.421875q0.796875 0 1.4375 0.234375q0.65625 0.234375 1.125 0.6875q0.484375 0.4375 0.734375 1.09375q0.265625 0.640625 0.265625 1.453125q0 0.671875 -0.1875 1.265625q-0.171875 0.578125 -0.546875 1.15625q-0.375 0.578125 -0.9375 1.203125q-0.546875 0.609375 -1.3125 1.359375l-2.171875 2.09375l5.796875 0l0 1.515625z" fill-rule="nonzero"/><path fill="#000000" fill-opacity="0.0" d="m255.36389 144.09148l0 -3.842514" fill-rule="evenodd"/><path stroke="#000000" stroke-width="1.0" stroke-linejoin="round" stroke-linecap="butt" d="m255.36389 144.09148l0 -3.842514" fill-rule="evenodd"/><path fill="#000000" fill-opacity="0.0" d="m328.4264 144.09148l0 -3.842514" fill-rule="evenodd"/><path stroke="#000000" stroke-width="1.0" stroke-linejoin="round" stroke-linecap="butt" d="m328.4264 144.09148l0 -3.842514" fill-rule="evenodd"/><path fill="#000000" fill-opacity="0.0" d="m400.4264 144.09148l0 -3.842514" fill-rule="evenodd"/><path stroke="#000000" stroke-width="1.0" stroke-linejoin="round" stroke-linecap="butt" d="m400.4264 144.09148l0 -3.842514" fill-rule="evenodd"/><path fill="#000000" fill-opacity="0.0" d="m472.4264 144.09148l0 -3.842514" fill-rule="evenodd"/><path stroke="#000000" stroke-width="1.0" stroke-linejoin="round" stroke-linecap="butt" d="m472.4264 144.09148l0 -3.842514" fill-rule="evenodd"/><path fill="#000000" fill-opacity="0.0" d="m346.7109 160.86009l35.496063 0l0 37.85826l-35.496063 0z" fill-rule="evenodd"/><path fill="#6aa84f" d="m370.20505 182.15735q0 1.640625 -0.46875 2.84375q-0.453125 1.1875 -1.28125 1.984375q-0.828125 0.796875 -1.953125 1.1875q-1.125 0.375 -2.453125 0.375q-1.296875 0 -2.421875 -0.203125q-1.109375 -0.1875 -2.140625 -0.515625l0 -16.0625l2.859375 0l0 3.890625l-0.109375 2.34375q0.640625 -0.828125 1.5 -1.328125q0.859375 -0.515625 2.078125 -0.515625q1.046875 0 1.859375 0.421875q0.828125 0.421875 1.375 1.203125q0.5625 0.78125 0.859375 1.890625q0.296875 1.109375 0.296875 2.484375zm-3.0 0.125q0 -0.984375 -0.140625 -1.671875q-0.140625 -0.703125 -0.40625 -1.140625q-0.265625 -0.453125 -0.65625 -0.65625q-0.375 -0.203125 -0.859375 -0.203125q-0.734375 0 -1.390625 0.59375q-0.65625 0.578125 -1.40625 1.59375l0 5.203125q0.34375 0.125 0.84375 0.203125q0.5 0.078125 1.015625 0.078125q0.671875 0 1.234375 -0.28125q0.5625 -0.28125 0.953125 -0.796875q0.390625 -0.515625 0.59375 -1.25q0.21875 -0.75 0.21875 -1.671875z" fill-rule="nonzero"/><path fill="#d9ead3" d="m369.42172 69.90333l-0.37216187 0.020835876l-0.41796875 0.063835144l-0.37219238 0.06339264l-0.3711853 0.084228516l-0.37216187 0.10595703l-0.41796875 0.12678528l-0.37219238 0.14806366l-0.37216187 0.16934204l-0.41796875 0.19017792l-0.37216187 0.2114563l-0.37121582 0.23273468l-0.37216187 0.2535782l-0.41796875 0.27484894l-0.37219238 0.29612732l-0.3711853 0.3174057l-0.4189453 0.33824158l-0.3711853 0.3595276l-0.37219238 0.38035583l-0.3711853 0.38079834l-0.4189453 0.42292023l-0.37121582 0.44419098l-0.37216187 0.44374847l-0.41796875 0.48631287l-0.37216187 0.48674774l-0.37121582 0.5071411l-0.37216187 0.50759125l-0.41796875 0.5496979l-0.37216187 0.550148l-0.37219238 0.57097626l-0.41796875 0.59181213l-0.3711853 0.59226227l-0.37219238 0.6130905l-0.41796875 0.6343765l-0.37216187 0.6343689l-0.37216187 0.6556549l-0.37121582 0.6556473l-0.41796875 0.6764908l-0.37216187 0.67692566l-0.37219238 0.6764908l-0.41793823 0.69776154l-0.37219238 0.69776917l-0.3711853 0.7190399l-0.37219238 0.71904755l-0.41796875 0.7190399l-0.37216187 0.71904755l-0.3711853 0.7185974l-0.4189453 0.71904755l-0.37121582 0.7403183l-0.37216187 0.7398834l-0.37121582 0.7190399l-0.4189148 0.7403259l-0.37121582 0.7398834l-0.37216187 0.7190399l-0.41796875 0.7403259l-0.37219238 0.7185974l-0.37216187 0.7403259l-0.37121582 0.7190399l-0.41793823 0.71904755l-0.37219238 0.7185974l-0.37216187 0.69821167l-0.41796875 0.7185974l-0.37219238 0.69776917l-0.3711853 0.67692566l-0.37216187 0.69776917l-0.41796875 0.67648315l-0.37219238 0.6769333l-0.3711853 0.67648315l-0.4189453 0.6556549l-0.3711853 0.6556473l-0.37219238 0.6343765l-0.3711853 0.6556473l-0.4189453 0.6343765l-0.37121582 0.6130905l-0.37216187 0.61309814l-0.41796875 0.613533l-0.37216187 0.61309814l-0.37121582 0.59225464l-0.4189453 0.59181213l-0.3711853 0.59226227l-0.37219238 0.57097626l-0.37216187 0.5709839l-0.41796875 0.57097626l-0.3711853 0.5705414l-0.37219238 0.5501404l-0.41796875 0.5496979l-0.37216187 0.5284271l-0.37216187 0.5501404l-0.37121582 0.5284271l-0.4189453 0.528862l-0.3711853 0.5075836l-0.37219238 0.5284271l-0.41796875 0.5075836l-0.37216187 0.48630524l-0.3711853 0.50759125l-0.37219238 0.48630524l-0.41796875 0.48631287l-0.37216187 0.46502686l-0.37121582 0.46546936l-0.4189148 0.46503448l-0.37121582 0.46546936l-0.37216187 0.4229126l-0.37219238 0.44374847l-0.41796875 0.42292023l-0.3711853 0.4229126l-0.37216187 0.42336273l-0.41796875 0.40163422l-0.37219238 0.38035583l-0.37216187 0.40207672l-0.37121582 0.38036346l-0.41796875 0.35951996l-0.37216187 0.35951996l-0.37216187 0.3595276l-0.41796875 0.33824158l-0.37219238 0.33868408l-0.3711853 0.31697083l-0.37219238 0.31739807l-0.41793823 0.2956848l-0.37219238 0.31741333l-0.3711853 0.27485657l-0.4189453 0.29612732l-0.37121582 0.2748413l-0.37216187 0.25357056l-0.37121582 0.25401306l-0.4189148 0.25357056l-0.37121582 0.25402832l-0.37216187 0.23228455l-0.41796875 0.23274231l-0.37219238 0.2114563l-0.3711853 0.2114563l-0.4189453 0.2114563l-0.3711853 0.2114563l-0.37219238 0.19018555l-0.37216187 0.2114563l-0.41796875 0.16934204l-0.37216187 0.19017029l-0.37121582 0.16934204l-0.41796875 0.16889954l-0.37216187 0.1693573l-0.37219238 0.16934204l-0.3711853 0.14805603l-0.4189453 0.14807129l-0.3711853 0.14761353l-0.37219238 0.14807129l-0.41796875 0.14805603l-0.37216187 0.12678528l-0.37121582 0.12722778l-0.37216187 0.12680054l-0.41796875 0.12678528l-0.37216187 0.12678528l-0.37121582 0.10594177l-0.4189453 0.10551453l-0.3711853 0.10594177l-0.37216187 0.10551453l-0.37219238 0.10594177l-0.41796875 0.10551453l-0.3711853 0.08467102l-0.37219238 0.10594177l-0.41793823 0.084228516l-0.37219238 0.08467102l-0.37216187 0.08468628l-0.37121582 0.08467102l-0.41796875 0.08467102l-0.37216187 0.06338501l-0.37216187 0.08467102l-0.41796875 0.06340027l-0.37219238 0.06338501l-0.3711853 0.08467102l-0.37219238 0.06340027l-0.41796875 0.042114258l-0.37216187 0.06338501l-0.3711853 0.06340027l-0.4189453 0.06338501l-0.37121582 0.042556763l-0.37216187 0.042114258l-0.41796875 0.06340027l-0.37216187 0.042556763l-0.37121582 0.042114258l-0.37216187 0.042114258l-0.41796875 0.042556763l-0.37219238 0.042114258l-0.37216187 0.042556763l-0.41796875 0.020828247l-0.3711853 0.04257202l-0.37219238 0.042099l-0.37216187 0.02128601l-0.41796875 0.042114258l-0.37219238 0.02128601l-0.3711853 0.021270752l-0.41796875 0.042114258l-0.37216187 0.02128601l-0.37219238 0.020828247l-0.3711853 0.02128601l-0.4189453 0.021270752l-0.3711853 0.042114258l-0.37219238 0.02128601l-0.41796875 0.021270752l-0.37216187 0.020843506l-0.37121582 0.021270752l-0.37216187 0.02128601l-0.41796875 0l-0.37216187 0.020828247l-0.37121582 0.02128601l-0.4189453 0.021270752l-0.3711853 0.02128601l-0.37219238 0.020828247l-0.37216187 0l-0.41796875 0.02128601l-0.3711853 0.021270752l-0.37219238 0.020843506l-0.41796875 0l-0.37216187 0.021270752l-0.37216187 0l-0.37121582 0.02128601l-0.4189453 0.020828247l-0.3711853 0l-0.37219238 0.02128601l-0.41796875 0l-0.37216187 0.021270752l-0.3711853 0l-0.4189453 0.02128601l-0.7433777 0l-0.37121582 0.020828247l-0.7901306 0l-0.37216187 0.02128601l-1.1613464 0l-0.37216187 0.021270752l-1.162323 0l-0.41796875 0.020843506l-1.9057007 0l-0.3711853 0.021270752l-3.485962 0l-0.37121582 0.02128601l-4.6473083 0l-0.37216187 0.020828247l206.85486 0l-0.37219238 -0.020828247l-13.477173 0l-0.41796875 -0.02128601l-2.276886 0l-0.4189453 -0.021270752l-1.114563 0l-0.4189453 -0.020843506l-0.7433777 0l-0.41796875 -0.021270752l-0.37216187 0l-0.37219238 -0.02128601l-0.3711853 0l-0.41796875 -0.020828247l-0.37219238 0l-0.37216187 -0.02128601l-0.41796875 0l-0.37216187 -0.021270752l-0.37121582 -0.02128601l-0.37216187 0l-0.41796875 -0.020828247l-0.37219238 -0.02128601l-0.3711853 -0.021270752l-0.4189453 0l-0.3711853 -0.020843506l-0.37219238 -0.021270752l-0.3711853 -0.02128601l-0.4189453 -0.020828247l-0.3711853 -0.02128601l-0.37219238 -0.021270752l-0.41796875 -0.02128601l-0.37216187 -0.042114258l-0.37121582 -0.021270752l-0.4189148 -0.020843506l-0.37121582 -0.021270752l-0.37216187 -0.042114258l-0.37219238 -0.02128601l-0.41796875 -0.021270752l-0.37216187 -0.042114258l-0.37121582 -0.02128601l-0.41793823 -0.042114258l-0.37219238 -0.042556763l-0.37216187 -0.020828247l-0.37121582 -0.04257202l-0.4189453 -0.042099l-0.3711853 -0.04257202l-0.37216187 -0.042114258l-0.41796875 -0.042114258l-0.37219238 -0.042556763l-0.3711853 -0.042114258l-0.37219238 -0.042556763l-0.41796875 -0.042114258l-0.37216187 -0.06338501l-0.3711853 -0.042556763l-0.4189453 -0.06340027l-0.37121582 -0.042114258l-0.37216187 -0.06338501l-0.37219238 -0.06340027l-0.41793823 -0.06338501l-0.37121582 -0.06340027l-0.37216187 -0.063827515l-0.41796875 -0.06340027l-0.37219238 -0.084228516l-0.37216187 -0.063827515l-0.3711853 -0.084228516l-0.41796875 -0.08467102l-0.37219238 -0.08467102l-0.37216187 -0.08468628l-0.41796875 -0.08467102l-0.37216187 -0.084228516l-0.37121582 -0.10594177l-0.37216187 -0.10551453l-0.41796875 -0.08467102l-0.37219238 -0.10594177l-0.3711853 -0.12678528l-0.4189453 -0.10551453l-0.3711853 -0.10594177l-0.37219238 -0.12678528l-0.41796875 -0.12678528l-0.37216187 -0.12724304l-0.37121582 -0.12678528l-0.37216187 -0.14805603l-0.41796875 -0.14807129l-0.37216187 -0.12678528l-0.37219238 -0.14805603l-0.41796875 -0.16889954l-0.3711853 -0.14807129l-0.37216187 -0.14805603l-0.37219238 -0.16934204l-0.41796875 -0.1689148l-0.37216187 -0.16934204l-0.37121582 -0.19017029l-0.41796875 -0.19062805l-0.37216187 -0.16889954l-0.37216187 -0.19017029l-0.37121582 -0.2114563l-0.4189453 -0.19062805l-0.3711853 -0.2114563l-0.37219238 -0.2114563l-0.41793823 -0.2114563l-0.37219238 -0.2114563l-0.3711853 -0.23274231l-0.37219238 -0.23228455l-0.41796875 -0.23274231l-0.37216187 -0.25357056l-0.37121582 -0.23274231l-0.4189148 -0.25357056l-0.37121582 -0.2752838l-0.37216187 -0.25358582l-0.37219238 -0.2748413l-0.41796875 -0.29612732l-0.3711853 -0.27485657l-0.37216187 -0.31741333l-0.41796875 -0.2956848l-0.37219238 -0.31739807l-0.37216187 -0.31697083l-0.37121582 -0.33868408l-0.4189148 -0.33824158l-0.37121582 -0.33824158l-0.37216187 -0.3595276l-0.41796875 -0.38079834l-0.37219238 -0.38035583l-0.3711853 -0.38080597l-0.37216187 -0.40163422l-0.41796875 -0.40163422l-0.37219238 -0.40207672l-0.3711853 -0.4437561l-0.4189453 -0.4229126l-0.37121582 -0.44419098l-0.37216187 -0.465477l-0.41796875 -0.44374847l-0.37216187 -0.48630524l-0.37121582 -0.465477l-0.37216187 -0.48630524l-0.41796875 -0.5075836l-0.37216187 -0.50759125l-0.37219238 -0.5071411l-0.41796875 -0.5288696l-0.3711853 -0.5075836l-0.37219238 -0.5284195l-0.37216187 -0.550148l-0.41796875 -0.5496979l-0.37216187 -0.5497055l-0.37121582 -0.5496979l-0.41796875 -0.57097626l-0.37216187 -0.5497055l-0.37219238 -0.59225464l-0.3711853 -0.5709839l-0.4189453 -0.57097626l-0.3711853 -0.59181213l-0.37219238 -0.59226227l-0.41796875 -0.59225464l-0.37216187 -0.59181976l-0.3711853 -0.59225464l-0.37219238 -0.61309814l-0.41796875 -0.59225464l-0.37216187 -0.61309814l-0.37121582 -0.613533l-0.4189148 -0.6343765l-0.37121582 -0.6130905l-0.37216187 -0.6343689l-0.37219238 -0.61309814l-0.41796875 -0.6343689l-0.37216187 -0.6556549l-0.37121582 -0.6343689l-0.41793823 -0.6343765l-0.37219238 -0.6556473l-0.37216187 -0.6556549l-0.37121582 -0.6552048l-0.4189453 -0.6769333l-0.3711853 -0.6552048l-0.37216187 -0.6769333l-0.41796875 -0.67648315l-0.37219238 -0.6556549l-0.3711853 -0.69776154l-0.4189453 -0.6769333l-0.37121582 -0.69776154l-0.37216187 -0.6764908l-0.3711853 -0.69776154l-0.4189453 -0.69776917l-0.37121582 -0.69820404l-0.37216187 -0.6764908l-0.41796875 -0.69776154l-0.37216187 -0.69776917l-0.37121582 -0.69776154l-0.37216187 -0.69776917l-0.41796875 -0.69820404l-0.37219238 -0.6764908l-0.37216187 -0.69776154l-0.41796875 -0.6769333l-0.3711853 -0.6552048l-0.37219238 -0.6769333l-0.37216187 -0.6552048l-0.41796875 -0.6556549l-0.37216187 -0.6343689l-0.37121582 -0.6343765l-0.4189453 -0.6343689l-0.3711853 -0.61354065l-0.37219238 -0.59181213l-0.3711853 -0.59226227l-0.4189453 -0.57097626l-0.3711853 -0.57097626l-0.37219238 -0.5284271l-0.41796875 -0.5496979l-0.37216187 -0.50759125l-0.37121582 -0.48630524l-0.37216187 -0.48630524l-0.41796875 -0.465477l-0.37216187 -0.44419098l-0.37219238 -0.4229126l-0.41796875 -0.42292023l-0.3711853 -0.38035583l-0.37216187 -0.38079834l-0.37219238 -0.35951996l-0.41796875 -0.3382492l-0.37216187 -0.3174057l-0.37121582 -0.2956848l-0.41796875 -0.27484894l-0.37216187 -0.27529907l-0.37216187 -0.23229218l-0.41796875 -0.23273468l-0.37219238 -0.19017792l-0.3711853 -0.19062042l-0.37219238 -0.16889954l-0.41793823 -0.14806366l-0.37219238 -0.12678528l-0.3711853 -0.10595703l-0.4189453 -0.08467102l-0.37121582 -0.084228516l-0.37216187 -0.042556763l-0.37121582 -0.042114258z" fill-rule="evenodd"/><path stroke="#6aa84f" stroke-width="1.0" stroke-linejoin="round" stroke-linecap="butt" d="m369.42172 69.90333l-0.37216187 0.020835876l-0.41796875 0.063835144l-0.37219238 0.06339264l-0.3711853 0.084228516l-0.37216187 0.10595703l-0.41796875 0.12678528l-0.37219238 0.14806366l-0.37216187 0.16934204l-0.41796875 0.19017792l-0.37216187 0.2114563l-0.37121582 0.23273468l-0.37216187 0.2535782l-0.41796875 0.27484894l-0.37219238 0.29612732l-0.3711853 0.3174057l-0.4189453 0.33824158l-0.3711853 0.3595276l-0.37219238 0.38035583l-0.3711853 0.38079834l-0.4189453 0.42292023l-0.37121582 0.44419098l-0.37216187 0.44374847l-0.41796875 0.48631287l-0.37216187 0.48674774l-0.37121582 0.5071411l-0.37216187 0.50759125l-0.41796875 0.5496979l-0.37216187 0.550148l-0.37219238 0.57097626l-0.41796875 0.59181213l-0.3711853 0.59226227l-0.37219238 0.6130905l-0.41796875 0.6343765l-0.37216187 0.6343689l-0.37216187 0.6556549l-0.37121582 0.6556473l-0.41796875 0.6764908l-0.37216187 0.67692566l-0.37219238 0.6764908l-0.41793823 0.69776154l-0.37219238 0.69776917l-0.3711853 0.7190399l-0.37219238 0.71904755l-0.41796875 0.7190399l-0.37216187 0.71904755l-0.3711853 0.7185974l-0.4189453 0.71904755l-0.37121582 0.7403183l-0.37216187 0.7398834l-0.37121582 0.7190399l-0.4189148 0.7403259l-0.37121582 0.7398834l-0.37216187 0.7190399l-0.41796875 0.7403259l-0.37219238 0.7185974l-0.37216187 0.7403259l-0.37121582 0.7190399l-0.41793823 0.71904755l-0.37219238 0.7185974l-0.37216187 0.69821167l-0.41796875 0.7185974l-0.37219238 0.69776917l-0.3711853 0.67692566l-0.37216187 0.69776917l-0.41796875 0.67648315l-0.37219238 0.6769333l-0.3711853 0.67648315l-0.4189453 0.6556549l-0.3711853 0.6556473l-0.37219238 0.6343765l-0.3711853 0.6556473l-0.4189453 0.6343765l-0.37121582 0.6130905l-0.37216187 0.61309814l-0.41796875 0.613533l-0.37216187 0.61309814l-0.37121582 0.59225464l-0.4189453 0.59181213l-0.3711853 0.59226227l-0.37219238 0.57097626l-0.37216187 0.5709839l-0.41796875 0.57097626l-0.3711853 0.5705414l-0.37219238 0.5501404l-0.41796875 0.5496979l-0.37216187 0.5284271l-0.37216187 0.5501404l-0.37121582 0.5284271l-0.4189453 0.528862l-0.3711853 0.5075836l-0.37219238 0.5284271l-0.41796875 0.5075836l-0.37216187 0.48630524l-0.3711853 0.50759125l-0.37219238 0.48630524l-0.41796875 0.48631287l-0.37216187 0.46502686l-0.37121582 0.46546936l-0.4189148 0.46503448l-0.37121582 0.46546936l-0.37216187 0.4229126l-0.37219238 0.44374847l-0.41796875 0.42292023l-0.3711853 0.4229126l-0.37216187 0.42336273l-0.41796875 0.40163422l-0.37219238 0.38035583l-0.37216187 0.40207672l-0.37121582 0.38036346l-0.41796875 0.35951996l-0.37216187 0.35951996l-0.37216187 0.3595276l-0.41796875 0.33824158l-0.37219238 0.33868408l-0.3711853 0.31697083l-0.37219238 0.31739807l-0.41793823 0.2956848l-0.37219238 0.31741333l-0.3711853 0.27485657l-0.4189453 0.29612732l-0.37121582 0.2748413l-0.37216187 0.25357056l-0.37121582 0.25401306l-0.4189148 0.25357056l-0.37121582 0.25402832l-0.37216187 0.23228455l-0.41796875 0.23274231l-0.37219238 0.2114563l-0.3711853 0.2114563l-0.4189453 0.2114563l-0.3711853 0.2114563l-0.37219238 0.19018555l-0.37216187 0.2114563l-0.41796875 0.16934204l-0.37216187 0.19017029l-0.37121582 0.16934204l-0.41796875 0.16889954l-0.37216187 0.1693573l-0.37219238 0.16934204l-0.3711853 0.14805603l-0.4189453 0.14807129l-0.3711853 0.14761353l-0.37219238 0.14807129l-0.41796875 0.14805603l-0.37216187 0.12678528l-0.37121582 0.12722778l-0.37216187 0.12680054l-0.41796875 0.12678528l-0.37216187 0.12678528l-0.37121582 0.10594177l-0.4189453 0.10551453l-0.3711853 0.10594177l-0.37216187 0.10551453l-0.37219238 0.10594177l-0.41796875 0.10551453l-0.3711853 0.08467102l-0.37219238 0.10594177l-0.41793823 0.084228516l-0.37219238 0.08467102l-0.37216187 0.08468628l-0.37121582 0.08467102l-0.41796875 0.08467102l-0.37216187 0.06338501l-0.37216187 0.08467102l-0.41796875 0.06340027l-0.37219238 0.06338501l-0.3711853 0.08467102l-0.37219238 0.06340027l-0.41796875 0.042114258l-0.37216187 0.06338501l-0.3711853 0.06340027l-0.4189453 0.06338501l-0.37121582 0.042556763l-0.37216187 0.042114258l-0.41796875 0.06340027l-0.37216187 0.042556763l-0.37121582 0.042114258l-0.37216187 0.042114258l-0.41796875 0.042556763l-0.37219238 0.042114258l-0.37216187 0.042556763l-0.41796875 0.020828247l-0.3711853 0.04257202l-0.37219238 0.042099l-0.37216187 0.02128601l-0.41796875 0.042114258l-0.37219238 0.02128601l-0.3711853 0.021270752l-0.41796875 0.042114258l-0.37216187 0.02128601l-0.37219238 0.020828247l-0.3711853 0.02128601l-0.4189453 0.021270752l-0.3711853 0.042114258l-0.37219238 0.02128601l-0.41796875 0.021270752l-0.37216187 0.020843506l-0.37121582 0.021270752l-0.37216187 0.02128601l-0.41796875 0l-0.37216187 0.020828247l-0.37121582 0.02128601l-0.4189453 0.021270752l-0.3711853 0.02128601l-0.37219238 0.020828247l-0.37216187 0l-0.41796875 0.02128601l-0.3711853 0.021270752l-0.37219238 0.020843506l-0.41796875 0l-0.37216187 0.021270752l-0.37216187 0l-0.37121582 0.02128601l-0.4189453 0.020828247l-0.3711853 0l-0.37219238 0.02128601l-0.41796875 0l-0.37216187 0.021270752l-0.3711853 0l-0.4189453 0.02128601l-0.7433777 0l-0.37121582 0.020828247l-0.7901306 0l-0.37216187 0.02128601l-1.1613464 0l-0.37216187 0.021270752l-1.162323 0l-0.41796875 0.020843506l-1.9057007 0l-0.3711853 0.021270752l-3.485962 0l-0.37121582 0.02128601l-4.6473083 0l-0.37216187 0.020828247l206.85486 0l-0.37219238 -0.020828247l-13.477173 0l-0.41796875 -0.02128601l-2.276886 0l-0.4189453 -0.021270752l-1.114563 0l-0.4189453 -0.020843506l-0.7433777 0l-0.41796875 -0.021270752l-0.37216187 0l-0.37219238 -0.02128601l-0.3711853 0l-0.41796875 -0.020828247l-0.37219238 0l-0.37216187 -0.02128601l-0.41796875 0l-0.37216187 -0.021270752l-0.37121582 -0.02128601l-0.37216187 0l-0.41796875 -0.020828247l-0.37219238 -0.02128601l-0.3711853 -0.021270752l-0.4189453 0l-0.3711853 -0.020843506l-0.37219238 -0.021270752l-0.3711853 -0.02128601l-0.4189453 -0.020828247l-0.3711853 -0.02128601l-0.37219238 -0.021270752l-0.41796875 -0.02128601l-0.37216187 -0.042114258l-0.37121582 -0.021270752l-0.4189148 -0.020843506l-0.37121582 -0.021270752l-0.37216187 -0.042114258l-0.37219238 -0.02128601l-0.41796875 -0.021270752l-0.37216187 -0.042114258l-0.37121582 -0.02128601l-0.41793823 -0.042114258l-0.37219238 -0.042556763l-0.37216187 -0.020828247l-0.37121582 -0.04257202l-0.4189453 -0.042099l-0.3711853 -0.04257202l-0.37216187 -0.042114258l-0.41796875 -0.042114258l-0.37219238 -0.042556763l-0.3711853 -0.042114258l-0.37219238 -0.042556763l-0.41796875 -0.042114258l-0.37216187 -0.06338501l-0.3711853 -0.042556763l-0.4189453 -0.06340027l-0.37121582 -0.042114258l-0.37216187 -0.06338501l-0.37219238 -0.06340027l-0.41793823 -0.06338501l-0.37121582 -0.06340027l-0.37216187 -0.063827515l-0.41796875 -0.06340027l-0.37219238 -0.084228516l-0.37216187 -0.063827515l-0.3711853 -0.084228516l-0.41796875 -0.08467102l-0.37219238 -0.08467102l-0.37216187 -0.08468628l-0.41796875 -0.08467102l-0.37216187 -0.084228516l-0.37121582 -0.10594177l-0.37216187 -0.10551453l-0.41796875 -0.08467102l-0.37219238 -0.10594177l-0.3711853 -0.12678528l-0.4189453 -0.10551453l-0.3711853 -0.10594177l-0.37219238 -0.12678528l-0.41796875 -0.12678528l-0.37216187 -0.12724304l-0.37121582 -0.12678528l-0.37216187 -0.14805603l-0.41796875 -0.14807129l-0.37216187 -0.12678528l-0.37219238 -0.14805603l-0.41796875 -0.16889954l-0.3711853 -0.14807129l-0.37216187 -0.14805603l-0.37219238 -0.16934204l-0.41796875 -0.1689148l-0.37216187 -0.16934204l-0.37121582 -0.19017029l-0.41796875 -0.19062805l-0.37216187 -0.16889954l-0.37216187 -0.19017029l-0.37121582 -0.2114563l-0.4189453 -0.19062805l-0.3711853 -0.2114563l-0.37219238 -0.2114563l-0.41793823 -0.2114563l-0.37219238 -0.2114563l-0.3711853 -0.23274231l-0.37219238 -0.23228455l-0.41796875 -0.23274231l-0.37216187 -0.25357056l-0.37121582 -0.23274231l-0.4189148 -0.25357056l-0.37121582 -0.2752838l-0.37216187 -0.25358582l-0.37219238 -0.2748413l-0.41796875 -0.29612732l-0.3711853 -0.27485657l-0.37216187 -0.31741333l-0.41796875 -0.2956848l-0.37219238 -0.31739807l-0.37216187 -0.31697083l-0.37121582 -0.33868408l-0.4189148 -0.33824158l-0.37121582 -0.33824158l-0.37216187 -0.3595276l-0.41796875 -0.38079834l-0.37219238 -0.38035583l-0.3711853 -0.38080597l-0.37216187 -0.40163422l-0.41796875 -0.40163422l-0.37219238 -0.40207672l-0.3711853 -0.4437561l-0.4189453 -0.4229126l-0.37121582 -0.44419098l-0.37216187 -0.465477l-0.41796875 -0.44374847l-0.37216187 -0.48630524l-0.37121582 -0.465477l-0.37216187 -0.48630524l-0.41796875 -0.5075836l-0.37216187 -0.50759125l-0.37219238 -0.5071411l-0.41796875 -0.5288696l-0.3711853 -0.5075836l-0.37219238 -0.5284195l-0.37216187 -0.550148l-0.41796875 -0.5496979l-0.37216187 -0.5497055l-0.37121582 -0.5496979l-0.41796875 -0.57097626l-0.37216187 -0.5497055l-0.37219238 -0.59225464l-0.3711853 -0.5709839l-0.4189453 -0.57097626l-0.3711853 -0.59181213l-0.37219238 -0.59226227l-0.41796875 -0.59225464l-0.37216187 -0.59181976l-0.3711853 -0.59225464l-0.37219238 -0.61309814l-0.41796875 -0.59225464l-0.37216187 -0.61309814l-0.37121582 -0.613533l-0.4189148 -0.6343765l-0.37121582 -0.6130905l-0.37216187 -0.6343689l-0.37219238 -0.61309814l-0.41796875 -0.6343689l-0.37216187 -0.6556549l-0.37121582 -0.6343689l-0.41793823 -0.6343765l-0.37219238 -0.6556473l-0.37216187 -0.6556549l-0.37121582 -0.6552048l-0.4189453 -0.6769333l-0.3711853 -0.6552048l-0.37216187 -0.6769333l-0.41796875 -0.67648315l-0.37219238 -0.6556549l-0.3711853 -0.69776154l-0.4189453 -0.6769333l-0.37121582 -0.69776154l-0.37216187 -0.6764908l-0.3711853 -0.69776154l-0.4189453 -0.69776917l-0.37121582 -0.69820404l-0.37216187 -0.6764908l-0.41796875 -0.69776154l-0.37216187 -0.69776917l-0.37121582 -0.69776154l-0.37216187 -0.69776917l-0.41796875 -0.69820404l-0.37219238 -0.6764908l-0.37216187 -0.69776154l-0.41796875 -0.6769333l-0.3711853 -0.6552048l-0.37219238 -0.6769333l-0.37216187 -0.6552048l-0.41796875 -0.6556549l-0.37216187 -0.6343689l-0.37121582 -0.6343765l-0.4189453 -0.6343689l-0.3711853 -0.61354065l-0.37219238 -0.59181213l-0.3711853 -0.59226227l-0.4189453 -0.57097626l-0.3711853 -0.57097626l-0.37219238 -0.5284271l-0.41796875 -0.5496979l-0.37216187 -0.50759125l-0.37121582 -0.48630524l-0.37216187 -0.48630524l-0.41796875 -0.465477l-0.37216187 -0.44419098l-0.37219238 -0.4229126l-0.41796875 -0.42292023l-0.3711853 -0.38035583l-0.37216187 -0.38079834l-0.37219238 -0.35951996l-0.41796875 -0.3382492l-0.37216187 -0.3174057l-0.37121582 -0.2956848l-0.41796875 -0.27484894l-0.37216187 -0.27529907l-0.37216187 -0.23229218l-0.41796875 -0.23273468l-0.37219238 -0.19017792l-0.3711853 -0.19062042l-0.37219238 -0.16889954l-0.41793823 -0.14806366l-0.37219238 -0.12678528l-0.3711853 -0.10595703l-0.4189453 -0.08467102l-0.37121582 -0.084228516l-0.37216187 -0.042556763l-0.37121582 -0.042114258z" fill-rule="evenodd"/><path fill="#000000" fill-opacity="0.0" d="m234.92233 139.55402l259.46457 0" fill-rule="evenodd"/><path stroke="#000000" stroke-width="2.0" stroke-linejoin="round" stroke-linecap="butt" d="m246.92233 139.55402l235.46457 0" fill-rule="evenodd"/><path fill="#000000" stroke="#000000" stroke-width="2.0" stroke-linecap="butt" d="m246.92233 136.25055l-9.076202 3.3034668l9.076202 3.3034668z" fill-rule="evenodd"/><path fill="#000000" stroke="#000000" stroke-width="2.0" stroke-linecap="butt" d="m482.3869 142.85748l9.076172 -3.3034668l-9.076172 -3.3034668z" fill-rule="evenodd"/><path fill="#000000" fill-opacity="0.0" d="m74.16128 100.03674l90.23621 0l0 37.858276l-90.23621 0z" fill-rule="evenodd"/><path fill="#6aa84f" d="m94.8019 119.92776l-10.078125 0l0 -1.71875l10.078125 0l0 1.71875zm0 4.078125l-10.078125 0l0 -1.71875l10.078125 0l0 1.71875zm26.921875 -4.15625q0 1.765625 -0.359375 3.21875q-0.34375 1.4375 -1.0625 2.484375q-0.71875 1.03125 -1.78125 1.609375q-1.0625 0.5625 -2.484375 0.5625q-1.234375 0 -2.25 -0.46875q-1.0 -0.46875 -1.71875 -1.421875q-0.703125 -0.96875 -1.09375 -2.453125q-0.390625 -1.484375 -0.390625 -3.53125q0 -1.75 0.359375 -3.203125q0.359375 -1.453125 1.0625 -2.484375q0.71875 -1.046875 1.78125 -1.609375q1.0625 -0.578125 2.484375 -0.578125q1.234375 0 2.234375 0.46875q1.015625 0.453125 1.71875 1.421875q0.71875 0.96875 1.109375 2.46875q0.390625 1.484375 0.390625 3.515625zm-2.0625 0.078125q0 -0.40625 -0.03125 -0.796875q-0.03125 -0.390625 -0.0625 -0.765625l-6.484375 4.8125q0.171875 0.609375 0.4375 1.125q0.28125 0.515625 0.65625 0.890625q0.375 0.359375 0.859375 0.578125q0.5 0.203125 1.109375 0.203125q0.796875 0 1.453125 -0.390625q0.65625 -0.390625 1.109375 -1.140625q0.453125 -0.765625 0.703125 -1.890625q0.25 -1.140625 0.25 -2.625zm-7.015625 -0.140625q0 0.359375 0 0.71875q0.015625 0.359375 0.046875 0.703125l6.484375 -4.796875q-0.171875 -0.59375 -0.453125 -1.078125q-0.265625 -0.5 -0.640625 -0.859375q-0.375 -0.359375 -0.859375 -0.546875q-0.46875 -0.203125 -1.078125 -0.203125q-0.796875 0 -1.453125 0.390625q-0.640625 0.375 -1.09375 1.15625q-0.453125 0.765625 -0.703125 1.890625q-0.25 1.125 -0.25 2.625zm16.60157 4.03125q0.40625 0 0.765625 0.15625q0.359375 0.140625 0.609375 0.421875q0.265625 0.265625 0.421875 0.625q0.15625 0.34375 0.15625 0.765625q0 0.390625 -0.15625 0.75q-0.15625 0.34375 -0.421875 0.609375q-0.25 0.265625 -0.609375 0.421875q-0.359375 0.15625 -0.765625 0.15625q-0.40625 0 -0.765625 -0.15625q-0.34375 -0.15625 -0.6093826 -0.421875q-0.265625 -0.265625 -0.421875 -0.609375q-0.140625 -0.359375 -0.140625 -0.75q0 -0.421875 0.140625 -0.765625q0.15625 -0.359375 0.421875 -0.625q0.26563263 -0.28125 0.6093826 -0.421875q0.359375 -0.15625 0.765625 -0.15625zm18.507812 -0.15625q0 0.96875 -0.40625 1.734375q-0.390625 0.75 -1.109375 1.265625q-0.703125 0.515625 -1.6875 0.796875q-0.96875 0.265625 -2.109375 0.265625q-1.25 0 -2.203125 -0.28125q-0.953125 -0.296875 -1.609375 -0.796875q-0.640625 -0.5 -0.96875 -1.1875q-0.328125 -0.703125 -0.328125 -1.53125q0 -1.40625 0.78125 -2.421875q0.796875 -1.015625 2.4375 -1.859375q-1.5 -0.75 -2.203125 -1.6875q-0.6875 -0.9375 -0.6875 -2.140625q0 -0.734375 0.296875 -1.421875q0.3125 -0.703125 0.921875 -1.234375q0.625 -0.546875 1.546875 -0.859375q0.9375 -0.328125 2.1875 -0.328125q1.1875 0 2.078125 0.25q0.890625 0.25 1.5 0.71875q0.609375 0.46875 0.90625 1.140625q0.3125 0.671875 0.3125 1.484375q0 1.34375 -0.75 2.28125q-0.734375 0.9375 -2.109375 1.640625q0.6875 0.34375 1.265625 0.75q0.59375 0.40625 1.015625 0.921875q0.4375 0.5 0.671875 1.125q0.25 0.609375 0.25 1.375zm-2.421875 -7.921875q0 -1.046875 -0.734375 -1.546875q-0.734375 -0.515625 -2.0625 -0.515625q-1.3125 0 -2.046875 0.5q-0.71875 0.5 -0.71875 1.515625q0 0.453125 0.171875 0.84375q0.171875 0.390625 0.53125 0.734375q0.375 0.328125 0.921875 0.65625q0.5625 0.328125 1.328125 0.671875q1.3125 -0.625 1.953125 -1.296875q0.65625 -0.671875 0.65625 -1.5625zm0.203125 8.078125q0 -0.4375 -0.140625 -0.84375q-0.140625 -0.421875 -0.5 -0.8125q-0.359375 -0.40625 -0.96875 -0.796875q-0.609375 -0.40625 -1.546875 -0.828125q-0.796875 0.390625 -1.34375 0.78125q-0.546875 0.375 -0.890625 0.765625q-0.328125 0.390625 -0.46875 0.8125q-0.140625 0.421875 -0.140625 0.890625q0 0.53125 0.234375 0.9375q0.234375 0.40625 0.625 0.6875q0.40625 0.28125 0.953125 0.421875q0.546875 0.140625 1.1875 0.140625q0.625 0 1.171875 -0.125q0.5625 -0.140625 0.953125 -0.40625q0.40625 -0.265625 0.640625 -0.65625q0.234375 -0.40625 0.234375 -0.96875z" fill-rule="nonzero"/><path fill="#000000" fill-opacity="0.0" d="m74.16151 238.26247l99.874016 0l0 37.85826l-99.874016 0z" fill-rule="evenodd"/><path fill="#cc0000" d="m84.72401 258.15347l0 -2.265625l10.078125 0l0 2.265625l-10.078125 0zm0 4.625l0 -2.28125l10.078125 0l0 2.28125l-10.078125 0zm26.609375 2.953125l0 -2.546875l3.90625 0l0 -9.84375l-3.40625 1.875l-0.9375 -2.328125l4.875 -2.5625l2.390625 0l0 12.859375l3.375 0l0 2.546875l-10.203125 0zm17.945305 -4.328125q0.484375 0 0.90625 0.1875q0.421875 0.171875 0.734375 0.484375q0.3125 0.3125 0.484375 0.734375q0.1875 0.421875 0.1875 0.90625q0 0.46875 -0.1875 0.890625q-0.171875 0.40625 -0.484375 0.71875q-0.3125 0.3125 -0.734375 0.484375q-0.421875 0.1875 -0.90625 0.1875q-0.46875 0 -0.890625 -0.1875q-0.40624237 -0.171875 -0.7187424 -0.484375q-0.296875 -0.3125 -0.46875 -0.71875q-0.171875 -0.421875 -0.171875 -0.890625q0 -0.484375 0.171875 -0.90625q0.171875 -0.421875 0.46875 -0.734375q0.3125 -0.3125 0.7187424 -0.484375q0.421875 -0.1875 0.890625 -0.1875zm8.4453125 4.328125l0 -2.546875l3.90625 0l0 -9.84375l-3.40625 1.875l-0.9375 -2.328125l4.875 -2.5625l2.390625 0l0 12.859375l3.375 0l0 2.546875l-10.203125 0z" fill-rule="nonzero"/><path fill="#000000" fill-opacity="0.0" d="m202.18636 321.0l0 -302.86615" fill-rule="evenodd"/><path stroke="#000000" stroke-width="1.0" stroke-linejoin="round" stroke-linecap="butt" stroke-dasharray="4.0,3.0" d="m202.18636 321.0l0 -302.86615" fill-rule="evenodd"/></g></svg>