<svg viewBox="0 0 510.1 344.8" fill="none" stroke-linecap="square" stroke-miterlimit="10" xmlns="http://www.w3.org/2000/svg"><clipPath id="a"><path d="M0 0h510.1v344.8H0V0z"/></clipPath><g clip-path="url(#a)"><path fill="none" d="M0 0h510.1v344.8H0z"/><path fill="none" d="M231.2 283.3h50.6v37.9h-50.6z"/><path fill="#000" d="M254 305h-5.4v-1.5h5.5v1.5zm11.5 4.2h-7.4v-1.5h3V299l-2.8 1.5-.6-1.3 3.8-2h1.4v10.5h2.6v1.5z"/><path fill="none" d="M313.9 283.3H343v37.9H314z"/><path fill="#000" d="M332.8 303.2q0 1.4-.3 2.5t-.8 2q-.6.8-1.4 1.2-.8.4-2 .4-.9 0-1.7-.3-.8-.4-1.3-1.1-.6-.8-.9-2-.3-1-.3-2.7 0-1.3.3-2.5.3-1.1.8-1.9.6-.8 1.4-1.3.9-.4 2-.4.9 0 1.7.4.8.3 1.3 1 .6.8.9 2 .3 1.1.3 2.7zm-1.6 0v-.5-.6l-5.1 3.7.3.9.5.7q.3.3.7.4.4.2.9.2.6 0 1-.3.6-.3 1-1 .3-.5.5-1.4.2-.9.2-2zm-5.5 0v1.1l5.1-3.8-.3-.8-.5-.7-.7-.4-.8-.1q-.7 0-1.2.3t-.8.9q-.4.6-.6 1.4l-.2 2z"/><path fill="none" d="M385.9 283.3H415v37.9H386z"/><path fill="#000" d="M404.4 309.2H397v-1.5h3.1V299l-2.9 1.5-.5-1.3 3.7-2h1.5v10.5h2.6v1.5z"/><path fill="none" d="M457.9 283.3H487v37.9H458z"/><path fill="#000" d="M476.5 309.2h-7.8v-1.4l3-3.1 1.3-1.3.7-1q.3-.4.4-.9v-.8-.8l-.4-.7q-.3-.4-.7-.5-.4-.2-.9-.2-.8 0-1.4.3-.6.4-1.1 1l-.9-1.1q.7-.7 1.6-1.2.8-.4 2-.4.8 0 1.5.2l1 .7q.6.5.8 1.1.3.7.3 1.5 0 .7-.2 1.2l-.6 1.2q-.3.6-.9 1.2l-1.3 1.4-2.2 2h5.8v1.6z"/><path fill="none" d="M255.4 288v-3.8"/><path stroke="#000" stroke-linejoin="round" stroke-linecap="butt" d="M255.4 288v-3.8"/><path fill="none" d="M328.4 288v-3.8"/><path stroke="#000" stroke-linejoin="round" stroke-linecap="butt" d="M328.4 288v-3.8"/><path fill="none" d="M400.4 288v-3.8"/><path stroke="#000" stroke-linejoin="round" stroke-linecap="butt" d="M400.4 288v-3.8"/><path fill="none" d="M472.4 288v-3.8"/><path stroke="#000" stroke-linejoin="round" stroke-linecap="butt" d="M472.4 288v-3.8"/><path fill="none" d="M43.8 100h35.5V138H43.8z"/><path fill="#6aa84f" d="M67.3 121.3q0 1.7-.5 2.9t-1.3 2q-.8.8-2 1.1-1 .4-2.4.4-1.3 0-2.4-.2l-2.2-.5v-16h3v3.8l-.2 2.4q.6-.9 1.5-1.4.9-.5 2-.5t2 .5q.8.4 1.3 1.2.6.7.9 1.8.3 1.2.3 2.5zm-3 .2q0-1-.2-1.7-.1-.7-.4-1.2-.2-.4-.6-.6-.4-.2-.9-.2-.7 0-1.4.6l-1.4 1.6v5.2l.9.2h1l1.2-.2q.6-.3 1-.8.3-.5.5-1.3.3-.7.3-1.6z"/><path fill="none" d="M43.8 238.3h35.5V276H43.8z"/><path fill="#c00" d="M65 265.7v-8-.9q0-.3-.2-.5 0-.2-.2-.3-.1-.2-.3-.2-.4 0-.8.5l-.7 1.7v7.7h-2.5v-8-.9l-.1-.5q0-.2-.2-.3l-.4-.2q-.3 0-.7.5-.4.5-.8 1.7v7.7h-2.5v-11.9h2.1v1.8l.6-1 .5-.6.7-.3.7-.1q1 0 1.6.5.5.5.5 1.5l.6-1 .6-.6.6-.3.8-.1q1.3 0 1.9.9.6.9.6 2.7v8.5H65z"/><path fill="none" d="M346.7 304.9h35.5v37.8h-35.5z"/><path fill="#c00" d="M367.9 332.3v-8-.9l-.1-.5-.2-.4h-.4q-.4 0-.7.4-.4.5-.8 1.7v7.7h-2.5v-8-.9-.5l-.3-.4h-.4q-.3 0-.6.4-.4.5-.9 1.7v7.7h-2.5v-11.9h2.2v1.8l.5-1 .6-.6.6-.3.8-.1q1 0 1.5.5t.6 1.5l.5-1 .6-.6.6-.3.8-.1q1.3 0 2 .9.6.9.6 2.7v8.5h-2.5z"/><path fill="none" d="M37.6 12.8H158V47H37.6z"/><path fill="#000" d="M69.7 20.3v5.5h-1.8V12.5h3.8q1.3 0 2.2.2.9.3 1.5.8t.9 1.1q.3.7.3 1.6 0 .7-.3 1.3-.2.6-.6 1.1-.4.5-1 .9l-1.4.5.6.5 3.9 5.3h-1.6q-.5 0-.7-.3L72 20.7l-.4-.3-.5-.1h-1.4zm0-1.3h1.9q.8 0 1.4-.2.6-.2 1-.6.4-.3.6-.8l.2-1q0-1.3-.8-1.9-.8-.6-2.3-.6h-2v5zm13.5-2.7q.9 0 1.6.2.7.3 1.2.9.5.5.8 1.3.3.8.3 1.8v.5l-.4.1h-6.3q0 1 .3 1.6.2.6.6 1.1l1 .7q.5.2 1.1.2.7 0 1.1-.2l.8-.3.5-.3.4-.1.3.1.5.6-.7.7-1 .4-1 .3h-1q-1 0-1.8-.3t-1.4-1q-.6-.6-1-1.5-.3-1-.3-2.2 0-1 .3-1.8.3-.9.9-1.5.5-.6 1.4-1 .8-.3 1.8-.3zm0 1.2q-1.2 0-1.8.7-.7.7-.9 1.9h5.1l-.1-1-.5-.9q-.3-.4-.8-.5-.4-.2-1-.2zm9.2-1.3l1.2.2 1 .4H97v.6q0 .3-.4.4l-1 .1q.3.6.3 1.4 0 .7-.3 1.2l-.7 1q-.5.4-1.2.6-.6.2-1.4.2l-1.2-.1-.5.4-.1.4q0 .3.2.5l.8.3h1l1.1.1 1.2.2q.6 0 1 .3.5.2.7.6.3.4.3 1.1 0 .6-.3 1.2-.3.5-.9 1-.5.4-1.4.7-.8.3-1.8.3t-1.8-.2l-1.3-.6-.8-.8q-.2-.4-.2-1t.4-1.1q.4-.5 1.2-.8-.4-.2-.6-.5-.3-.3-.3-.8l.1-.5.2-.4.4-.4.5-.4q-.7-.4-1-1-.5-.7-.5-1.5 0-.7.3-1.3l.8-1 1-.5q.7-.3 1.5-.3zm3 10.2q0-.4-.2-.6l-.6-.3q-.3-.2-.7-.2h-1l-1-.1-1-.1-.8.6q-.3.3-.3.8l.2.6q.1.3.5.5l.8.3 1.2.1h1.2l.9-.4.6-.6.2-.6zm-3-5.2l1-.1.6-.4.4-.6v-.8q0-.8-.4-1.3-.6-.6-1.6-.6T91 18q-.5.5-.5 1.3l.1.8.4.6.6.4 1 .1zm7.8-4.8v6q0 1.1.5 1.7.5.6 1.5.6.7 0 1.4-.4.6-.3 1.2-1v-6.9h1.6v9.4h-1q-.3 0-.4-.3l-.1-1q-.7.7-1.4 1-.8.5-1.8.5-.8 0-1.3-.2-.6-.3-1-.8-.4-.4-.6-1.1-.2-.7-.2-1.5v-6h1.6zm10.8-4.3v13.7h-1.7V12.1h1.7zm9.9 13.7H119.7l-.2-.3-.1-1-.8.7-.7.4-.9.3-1 .1-1-.2q-.5-.1-.8-.4-.4-.3-.6-.8-.2-.5-.2-1.1 0-.6.3-1 .3-.6 1-1t1.8-.7l2.7-.3v-.7q0-1-.4-1.7-.5-.5-1.4-.5l-1 .1-.8.4-.5.3-.4.2-.3-.1-.2-.2-.3-.6q.8-.7 1.7-1.1.9-.4 2-.4.8 0 1.4.3l1 .7q.4.5.6 1.1.3.7.3 1.5v6zm-4.3-1h.8l.6-.3.7-.4.5-.5v-2q-1.1 0-2 .2-.7.1-1.2.4l-.8.5q-.2.3-.2.7l.1.7.4.4.5.3h.6zm6.8 1v-9.4h1l.3.1.2.3v1.5q.5-1 1.2-1.5.8-.6 1.7-.6l.7.1.6.3-.2 1.2q0 .2-.3.2h-.4l-.7-.1q-.9 0-1.5.5t-1 1.4v6h-1.6zM79.8 43l.2.5.2.5q0-.3.2-.5l.2-.5 4.5-8.2.3-.3H87v13.3h-1.6V38v-.4-.5L81 45.5q-.3.4-.7.4H80q-.4 0-.6-.4l-4.7-8.4V47.8h-1.5V34.5H74.9l.2.3 4.7 8.2zm14.1-4.7q1 0 1.9.3.8.3 1.4 1 .6.6.9 1.5.3 1 .3 2 0 1.1-.3 2-.3 1-1 1.6-.5.6-1.3 1-.9.3-1.9.3-1 0-1.9-.4-.8-.3-1.4-1-.6-.6-.9-1.5-.3-.9-.3-2 0-1 .3-2 .3-.9 1-1.5.5-.7 1.3-1 .9-.3 2-.3zm0 8.4q1.4 0 2-1 .8-.9.8-2.6 0-1.7-.7-2.6-.7-1-2-1-.8 0-1.3.3-.5.2-.9.7l-.5 1.1q-.2.7-.2 1.5 0 .9.2 1.5.2.7.5 1.1.4.5.9.7.5.3 1.2.3zm13.2 1.1q-.3 0-.4-.3l-.2-1.2q-.6.8-1.4 1.2-.8.5-1.8.5-.8 0-1.4-.3-.7-.4-1.2-1-.4-.6-.7-1.5-.2-.9-.2-2l.2-2q.3-.9.8-1.5.6-.7 1.3-1 .8-.5 1.7-.5 1 0 1.5.3.7.3 1.1.8v-5.2h1.7v13.7h-1zm-3.2-1.2q.8 0 1.4-.3.6-.4 1.1-1v-4.7q-.4-.6-1-.8-.5-.3-1.2-.3-1.3 0-2 1t-.7 2.7l.1 1.5q.2.7.5 1.1.3.4.8.6.4.2 1 .2zm10.7-8.3q.9 0 1.6.2.7.3 1.2.9.6.5.8 1.3.3.8.3 1.8v.5l-.4.1H112q0 1 .2 1.6.2.6.6 1.1l1 .7q.5.2 1.2.2.6 0 1-.2l.8-.3.6-.3.3-.1.4.1.4.6-.7.7-1 .4-1 .3h-1q-1 0-1.8-.3t-1.4-1q-.6-.6-1-1.5-.3-1-.3-2.2 0-1 .3-1.8.3-.9.9-1.5.6-.6 1.4-1 .8-.3 1.8-.3zm0 1.2q-1.1 0-1.8.7t-.9 1.9h5.2q0-.6-.2-1l-.5-.9q-.3-.4-.7-.5l-1-.2zm7.9-5.4v13.7h-1.7V34.1h1.7z"/><path fill="none" d="M263 12.8h203.4V47H263z"/><path fill="#000" d="M317 20.8v5h-1.8V12.5h4q1.2 0 2.2.3 1 .3 1.5.8.6.5 1 1.3.2.8.2 1.7 0 1-.3 1.7-.3.8-1 1.4-.6.5-1.5.8-1 .3-2.1.3H317zm0-1.4h2.2q.7 0 1.3-.2.6-.2 1-.6.4-.3.6-.8l.2-1.2q0-1.3-.8-2-.7-.7-2.3-.7H317v5.5zm9.2 6.4v-9.4h1l.3.1.1.3.2 1.5q.4-1 1.1-1.5.8-.6 1.7-.6l.7.1.6.3-.2 1.2q0 .2-.3.2h-.4l-.7-.1q-1 0-1.5.5-.6.5-1 1.4v6h-1.6zm11.3-9.5q1 0 1.9.3.8.3 1.4 1 .6.6 1 1.5l.2 2q0 1.1-.3 2-.3 1-.9 1.6-.6.6-1.4 1-.8.3-1.9.3-1 0-1.9-.4-.8-.3-1.4-1-.6-.6-.9-1.5-.3-.9-.3-2 0-1 .3-2 .3-.9 1-1.5.5-.7 1.3-1 .9-.3 2-.3zm0 8.4q1.4 0 2.1-1 .7-.9.7-2.6 0-1.7-.7-2.6-.7-1-2-1-.8 0-1.3.3-.5.2-.9.7l-.5 1.1q-.2.7-.2 1.5 0 .9.2 1.5.2.7.5 1.1.4.5.9.7.5.3 1.2.3zm6.6 1.1V12.1h1.7v5.7q.6-.7 1.3-1.1.8-.4 1.8-.4.8 0 1.5.3.6.3 1 .9.6.6.8 1.5.3.9.3 2t-.3 2q-.3 1-.8 1.6-.6.6-1.3 1-.8.4-1.7.4-1 0-1.6-.4-.6-.3-1.1-1v.9q-.2.3-.5.3h-1zm4.2-8.2q-.8 0-1.4.3-.6.4-1.1 1.1v4.6q.4.6 1 .8.5.3 1.2.3 1.3 0 2-1 .8-.9.8-2.6 0-1-.2-1.6-.2-.7-.5-1.1-.3-.4-.8-.6-.4-.2-1-.2zm13.1 8.2h-1.1l-.2-.3-.2-1-.7.7-.8.4-.8.3-1 .1-1-.2q-.5-.1-.8-.4-.4-.3-.6-.8-.2-.5-.2-1.1 0-.6.3-1 .3-.6 1-1t1.8-.7l2.7-.3v-.7q0-1-.5-1.7-.4-.5-1.4-.5l-1 .1-.7.4-.5.3q-.2.2-.5.2l-.3-.1-.2-.2-.3-.6q.8-.7 1.7-1.1 1-.4 2-.4.8 0 1.4.3.7.3 1 .7.5.5.7 1.1.2.7.2 1.5v6zm-4.3-1h.8l.7-.3.6-.4.6-.5v-2q-1.2 0-2 .2-.7.1-1.3.4-.5.2-.7.5-.2.3-.2.7l.1.7.3.4.5.3h.6zm7 1V12.1h1.6v5.7q.6-.7 1.3-1.1.8-.4 1.8-.4.8 0 1.4.3.7.3 1.2.9.4.6.7 1.5.2.9.2 2t-.2 2q-.3 1-.8 1.6-.6.6-1.3 1-.8.4-1.7.4-1 0-1.6-.4-.6-.3-1.1-1v.9q-.2.3-.5.3h-1zm4.1-8.2q-.8 0-1.4.3-.6.4-1.1 1.1v4.6q.4.6 1 .8.5.3 1.2.3 1.3 0 2-1 .7-.9.7-2.6l-.1-1.6q-.2-.7-.5-1.1-.3-.4-.8-.6-.4-.2-1-.2zm8-1.2v9.4h-1.6v-9.4h1.6zm.4-3v.5l-.4.4-.3.2-.5.1h-.5l-.3-.3-.3-.4v-.5-.4l.3-.4.3-.3h1l.3.3.3.4.1.4zm4.4-1.3v13.7h-1.7V12.1h1.7zm4.8 4.3v9.4H384v-9.4h1.7zm.4-3l-.1.5-.3.4-.4.2-.4.1h-.5l-.4-.3-.2-.4-.1-.5V13l.3-.4.4-.3h.9l.4.3.3.4v.4zm8 4.6l-.4.2-.3-.1-.5-.3-.6-.2-.8-.1-.8.1-.6.3-.3.4-.1.6.2.6.5.4.8.3.9.3.9.3.8.5.5.7q.2.4.2 1l-.2 1.2q-.2.5-.7 1l-1.1.6q-.7.2-1.5.2-1 0-1.8-.3l-1.4-.9.4-.6.2-.2h.3l.3.1.5.3.6.3 1 .1.8-.1q.4-.1.6-.4.3-.2.4-.5l.1-.6q0-.4-.2-.6-.2-.3-.6-.4l-.8-.4-.9-.2-.9-.4-.8-.5-.5-.7q-.2-.4-.2-1l.2-1q.2-.5.7-1l1-.5q.6-.2 1.4-.2 1 0 1.7.3.8.2 1.3.7l-.4.7zm5.5 8q-1.1 0-1.8-.6-.5-.6-.5-1.8v-5.8h-1.5v-1l1.5-.2.4-3 .1-.2h1.1v3.2h2.7v1.2H399v5.7q0 .6.3.8.3.3.7.3h.5l.3-.2.3-.1.1-.1.3.1.5.8-1 .7-1.3.2zm6-9.6v9.4H404v-9.4h1.6zm.3-3l-.1.5-.3.4-.4.2-.4.1h-.5l-.3-.3-.3-.4v-.5-.4l.3-.4.3-.3h.9l.4.3.3.4v.4zm9 4.7l-.2.1h-.5l-.4-.3-.6-.2-.9-.1q-.7 0-1.2.2t-.9.7q-.4.5-.5 1.1-.2.7-.2 1.5 0 .9.2 1.5l.5 1.2.9.7q.5.2 1.1.2l1-.1.7-.4.4-.3.3-.1.4.1.4.6q-.6.8-1.5 1.1-1 .4-2 .4-.9 0-1.6-.3-.8-.4-1.3-1-.6-.6-1-1.5l-.2-2q0-1.1.3-2 .3-1 .8-1.6.6-.6 1.4-1 .8-.3 2-.3 1 0 1.7.3t1.3.9l-.4.6zM346.6 43l.2.5.2.5.2-.5.2-.5 4.6-8.2q0-.2.2-.3H354v13.3h-1.6V38v-.4-.5l-4.5 8.4q-.2.4-.7.4h-.2q-.4 0-.7-.4l-4.6-8.4V47.8H340V34.5H341.7l.3.3 4.6 8.2zm14.1-4.7q1 0 2 .3.7.3 1.3 1 .6.6 1 1.5l.2 2q0 1.1-.3 2-.3 1-.9 1.6-.6.6-1.4 1-.8.3-1.9.3-1 0-1.8-.4-.9-.3-1.5-1-.5-.6-.9-1.5-.3-.9-.3-2 0-1 .3-2 .4-.9 1-1.5.5-.7 1.4-1 .8-.3 1.8-.3zm0 8.4q1.4 0 2.1-1 .7-.9.7-2.6 0-1.7-.7-2.6-.7-1-2-1-.8 0-1.3.3-.5.2-.9.7l-.5 1.1q-.2.7-.2 1.5 0 .9.2 1.5.2.7.5 1.1.4.5 1 .7.4.3 1.1.3zm13.2 1.1q-.3 0-.4-.3l-.1-1.2q-.7.8-1.4 1.2-.8.5-1.8.5-.8 0-1.5-.3-.7-.4-1.1-1-.5-.6-.7-1.5-.3-.9-.3-2 0-1 .3-2 .3-.9.8-1.5.5-.7 1.3-1 .7-.5 1.7-.5.9 0 1.5.3t1 .8v-5.2h1.7v13.7h-1zm-3.2-1.2q.8 0 1.5-.3.6-.4 1-1v-4.7q-.4-.6-1-.8-.5-.3-1.1-.3-1.4 0-2 1-.8 1-.8 2.7 0 .9.2 1.5.1.7.4 1.1l.8.6 1 .2zm10.8-8.3q.8 0 1.5.2.8.3 1.3.9.5.5.8 1.3.3.8.3 1.8l-.1.5-.3.1h-6.3q0 1 .2 1.6l.6 1.1 1 .7q.5.2 1.2.2.6 0 1-.2l.8-.3.6-.3.4-.1.3.1.5.6q-.3.4-.8.7l-1 .4-1 .3h-1q-1 0-1.7-.3-.9-.3-1.5-1-.6-.6-1-1.5-.3-1-.3-2.2 0-1 .3-1.8.4-.9 1-1.5.5-.6 1.3-1 .8-.3 1.9-.3zm0 1.2q-1.2 0-1.9.7t-.8 1.9h5v-1l-.5-.9q-.3-.4-.8-.5-.4-.2-1-.2zm7.8-5.4v13.7h-1.6V34.1h1.6z"/><path fill="#f4cccc" d="M410 213.9h-.6l-.3.2h-.2l-.3.1-.3.2-.3.1-.3.2-.3.2-.2.2-.3.2-.3.3-.3.2-.3.3-.2.4-.3.3-.3.4-.3.3-.2.4-.3.4-.3.5-.3.4-.3.5-.3.5-.2.5-.3.5-.3.6-.3.5-.3.6-.3.6-.2.6-.3.6-.3.6-.3.7-.3.6-.2.7-.3.6-.3.7-.3.7-.3.7-.3.7-.2.7-.3.7-.3.8-.3.7-.2.7-.3.7-.3.7-.3.8-.3.7-.3.7-.2.8-.3.7-.3.7-.3.8-.3.7-.2.7-.3.7-.3.8-.3.7-.3.7-.3.7-.2.7-.3.7-.3.6-.3.7-.2.7-.4.6-.2.7-.3.6-.3.7-.3.6-.2.6-.3.6-.3.7-.3.6-.3.6-.3.6-.2.5-.3.6-.3.6-.3.6-.3.5-.2.6-.3.5-.3.6-.3.5-.2.5-.4.6-.2.5-.3.5-.3.5-.3.5-.2.5-.3.5-.3.5-.3.4-.3.5-.3.5-.2.4-.3.5-.3.4-.3.4-.3.4-.2.5-.3.4-.3.4-.3.4-.3.3-.3.4-.2.4-.3.3-.3.4-.3.3-.3.3-.2.3-.3.3-.3.3-.3.3-.3.3-.2.3-.3.2-.3.3-.3.2-.3.3-.2.2-.3.3-.3.2-.3.2-.3.2-.3.2-.2.2-.3.2-.3.2-.3.2-.3.1-.3.2-.2.2-.3.1-.3.2-.3.1-.3.2-.2.1-.3.2-.3.1-.3.1-.2.2-.3.1-.3.1-.3.1-.3.1-.3.1-.2.1-.3.2h-.3l-.3.1-.3.1-.3.1-.2.1-.3.1h-.3l-.3.2h-.3l-.2.1h-.3l-.3.1-.3.1h-.2l-.4.1-.2.1h-.3l-.3.1h-.3l-.2.1h-.3l-.3.1h-.3l-.3.1h-.5l-.3.1h-.6l-.3.1h-.2l-.3.1H356.8l-.3.1h-.8l-.3.1h-1.1l-.3.1H353l-.3.1H351l-.3.1h-2.2l-.3.1H342.8l-.3.1H336h151H471.3l-.3-.1H469.6l-.3-.1H468l-.3-.1h-.8l-.3-.1h-.8l-.3-.1h-.6l-.3-.1h-.5l-.3-.1h-.5l-.4-.1h-.5l-.3-.1h-.3l-.2-.1h-.3l-.3-.1h-.3l-.3-.1h-.3l-.2-.1h-.3l-.3-.1-.3-.1h-.3l-.2-.1-.3-.1h-.3l-.3-.1-.3-.1-.3-.1-.2-.1h-.3l-.3-.2h-.3l-.2-.2h-.3l-.3-.1-.3-.2h-.3l-.3-.2h-.2l-.3-.2-.3-.1-.3-.2-.3-.1-.2-.1-.3-.2-.3-.1-.3-.2-.3-.1-.3-.2-.2-.1-.3-.2-.3-.2-.3-.1-.3-.2-.3-.2-.2-.2-.3-.2-.3-.2-.3-.2-.2-.2-.3-.2-.3-.2-.3-.2-.3-.3-.2-.2-.3-.2-.3-.3-.3-.2-.3-.3-.3-.2-.2-.3-.3-.3-.3-.3-.3-.2-.3-.4-.3-.3-.2-.3-.3-.3-.3-.3-.3-.4-.3-.3-.2-.4-.3-.3-.3-.4-.3-.4-.2-.4-.3-.4-.3-.4-.3-.5-.3-.4-.3-.4-.2-.5-.3-.4-.3-.5-.3-.5-.3-.5-.3-.5-.2-.5-.3-.5-.3-.5-.3-.5-.3-.6-.2-.5-.3-.6-.3-.5-.3-.6-.3-.5-.3-.6-.2-.6-.3-.5-.3-.6-.3-.6-.2-.6-.3-.6-.3-.6-.3-.6-.3-.6-.3-.6-.2-.6-.3-.6-.3-.6-.3-.7-.3-.6-.2-.6-.3-.6-.3-.7-.3-.6-.3-.7-.3-.6-.2-.7-.3-.6-.3-.7-.3-.7-.2-.6-.4-.7-.2-.7-.3-.7-.3-.6-.3-.7-.2-.7-.3-.7-.3-.7-.3-.7-.3-.7-.3-.7-.2-.7-.3-.7-.3-.7-.3-.7-.3-.7-.2-.6-.3-.7-.3-.7-.3-.7-.3-.6-.3-.7-.2-.6-.3-.6-.3-.7-.3-.6-.2-.6-.3-.6-.3-.5-.3-.6-.3-.5-.3-.6-.2-.5-.3-.5-.3-.5-.3-.4-.3-.5-.2-.4-.3-.4-.3-.4-.3-.4-.3-.3-.3-.4-.2-.3-.3-.3-.3-.3-.3-.2-.3-.3-.3-.2-.2-.2-.3-.2-.3-.2-.3-.1-.2-.1-.3-.1-.3-.1-.3-.1h-.3l-.2-.1z" fill-rule="evenodd"/><path stroke="#c00" stroke-linejoin="round" stroke-linecap="butt" d="M410 213.9h-.6l-.3.2h-.2l-.3.1-.3.2-.3.1-.3.2-.3.2-.2.2-.3.2-.3.3-.3.2-.3.3-.2.4-.3.3-.3.4-.3.3-.2.4-.3.4-.3.5-.3.4-.3.5-.3.5-.2.5-.3.5-.3.6-.3.5-.3.6-.3.6-.2.6-.3.6-.3.6-.3.7-.3.6-.2.7-.3.6-.3.7-.3.7-.3.7-.3.7-.2.7-.3.7-.3.8-.3.7-.2.7-.3.7-.3.7-.3.8-.3.7-.3.7-.2.8-.3.7-.3.7-.3.8-.3.7-.2.7-.3.7-.3.8-.3.7-.3.7-.3.7-.2.7-.3.7-.3.6-.3.7-.2.7-.4.6-.2.7-.3.6-.3.7-.3.6-.2.6-.3.6-.3.7-.3.6-.3.6-.3.6-.2.5-.3.6-.3.6-.3.6-.3.5-.2.6-.3.5-.3.6-.3.5-.2.5-.4.6-.2.5-.3.5-.3.5-.3.5-.2.5-.3.5-.3.5-.3.4-.3.5-.3.5-.2.4-.3.5-.3.4-.3.4-.3.4-.2.5-.3.4-.3.4-.3.4-.3.3-.3.4-.2.4-.3.3-.3.4-.3.3-.3.3-.2.3-.3.3-.3.3-.3.3-.3.3-.2.3-.3.2-.3.3-.3.2-.3.3-.2.2-.3.3-.3.2-.3.2-.3.2-.3.2-.2.2-.3.2-.3.2-.3.2-.3.1-.3.2-.2.2-.3.1-.3.2-.3.1-.3.2-.2.1-.3.2-.3.1-.3.1-.2.2-.3.1-.3.1-.3.1-.3.1-.3.1-.2.1-.3.2h-.3l-.3.1-.3.1-.3.1-.2.1-.3.1h-.3l-.3.2h-.3l-.2.1h-.3l-.3.1-.3.1h-.2l-.4.1-.2.1h-.3l-.3.1h-.3l-.2.1h-.3l-.3.1h-.3l-.3.1h-.5l-.3.1h-.6l-.3.1h-.2l-.3.1H356.8l-.3.1h-.8l-.3.1h-1.1l-.3.1H353l-.3.1H351l-.3.1h-2.2l-.3.1H342.8l-.3.1H336h151H471.3l-.3-.1H469.6l-.3-.1H468l-.3-.1h-.8l-.3-.1h-.8l-.3-.1h-.6l-.3-.1h-.5l-.3-.1h-.5l-.4-.1h-.5l-.3-.1h-.3l-.2-.1h-.3l-.3-.1h-.3l-.3-.1h-.3l-.2-.1h-.3l-.3-.1-.3-.1h-.3l-.2-.1-.3-.1h-.3l-.3-.1-.3-.1-.3-.1-.2-.1h-.3l-.3-.2h-.3l-.2-.2h-.3l-.3-.1-.3-.2h-.3l-.3-.2h-.2l-.3-.2-.3-.1-.3-.2-.3-.1-.2-.1-.3-.2-.3-.1-.3-.2-.3-.1-.3-.2-.2-.1-.3-.2-.3-.2-.3-.1-.3-.2-.3-.2-.2-.2-.3-.2-.3-.2-.3-.2-.2-.2-.3-.2-.3-.2-.3-.2-.3-.3-.2-.2-.3-.2-.3-.3-.3-.2-.3-.3-.3-.2-.2-.3-.3-.3-.3-.3-.3-.2-.3-.4-.3-.3-.2-.3-.3-.3-.3-.3-.3-.4-.3-.3-.2-.4-.3-.3-.3-.4-.3-.4-.2-.4-.3-.4-.3-.4-.3-.5-.3-.4-.3-.4-.2-.5-.3-.4-.3-.5-.3-.5-.3-.5-.3-.5-.2-.5-.3-.5-.3-.5-.3-.5-.3-.6-.2-.5-.3-.6-.3-.5-.3-.6-.3-.5-.3-.6-.2-.6-.3-.5-.3-.6-.3-.6-.2-.6-.3-.6-.3-.6-.3-.6-.3-.6-.3-.6-.2-.6-.3-.6-.3-.6-.3-.7-.3-.6-.2-.6-.3-.6-.3-.7-.3-.6-.3-.7-.3-.6-.2-.7-.3-.6-.3-.7-.3-.7-.2-.6-.4-.7-.2-.7-.3-.7-.3-.6-.3-.7-.2-.7-.3-.7-.3-.7-.3-.7-.3-.7-.3-.7-.2-.7-.3-.7-.3-.7-.3-.7-.3-.7-.2-.6-.3-.7-.3-.7-.3-.7-.3-.6-.3-.7-.2-.6-.3-.6-.3-.7-.3-.6-.2-.6-.3-.6-.3-.5-.3-.6-.3-.5-.3-.6-.2-.5-.3-.5-.3-.5-.3-.4-.3-.5-.2-.4-.3-.4-.3-.4-.3-.4-.3-.3-.3-.4-.2-.3-.3-.3-.3-.3-.3-.2-.3-.3-.3-.2-.2-.2-.3-.2-.3-.2-.3-.1-.2-.1-.3-.1-.3-.1-.3-.1h-.3l-.2-.1z"/><path fill="none" d="M235 283.6h259.4"/><path stroke="#000" stroke-width="2" stroke-linejoin="round" stroke-linecap="butt" d="M247 283.6h235.4"/><path fill="#000" stroke="#000" stroke-width="2" stroke-linecap="butt" d="M247 280.3l-9.2 3.3 9.1 3.3zM482.4 286.9l9-3.3-9-3.3z" fill-rule="evenodd"/><path fill="none" d="M231.2 139.3h50.6v37.9h-50.6z"/><path fill="#000" d="M254 161h-5.4v-1.5h5.5v1.5zm11.5 4.2h-7.4v-1.5h3V155l-2.8 1.5-.6-1.3 3.8-2h1.4v10.5h2.6v1.5z"/><path fill="none" d="M313.9 139.3H343v37.9H314z"/><path fill="#000" d="M332.8 159.2q0 1.4-.3 2.5t-.8 2q-.6.8-1.4 1.2-.8.4-2 .4-.9 0-1.7-.3-.8-.4-1.3-1.1-.6-.8-.9-2-.3-1-.3-2.7 0-1.3.3-2.5.3-1.1.8-1.9.6-.8 1.4-1.3.9-.4 2-.4.9 0 1.7.4.8.3 1.3 1 .6.8.9 2 .3 1.1.3 2.7zm-1.6 0v-.5-.6l-5.1 3.7.3.9.5.7q.3.3.7.4.4.2.9.2.6 0 1-.3.6-.3 1-1 .3-.5.5-1.4.2-.9.2-2zm-5.5 0v1.1l5.1-3.8-.3-.8-.5-.7-.7-.4-.8-.1q-.7 0-1.2.3t-.8.9q-.4.6-.6 1.4l-.2 2z"/><path fill="none" d="M385.9 139.3H415v37.9H386z"/><path fill="#000" d="M404.4 165.2H397v-1.5h3.1V155l-2.9 1.5-.5-1.3 3.7-2h1.5v10.5h2.6v1.5z"/><path fill="none" d="M457.9 139.3H487v37.9H458z"/><path fill="#000" d="M476.5 165.2h-7.8v-1.4l3-3.1 1.3-1.3.7-1q.3-.4.4-.9v-.8-.8l-.4-.7q-.3-.4-.7-.5-.4-.2-.9-.2-.8 0-1.4.3-.6.4-1.1 1l-.9-1.1q.7-.7 1.6-1.2.8-.4 2-.4.8 0 1.5.2l1 .7q.6.5.8 1.1.3.7.3 1.5 0 .7-.2 1.2l-.6 1.2q-.3.6-.9 1.2l-1.3 1.4-2.2 2h5.8v1.6z"/><path fill="none" d="M255.4 144v-3.8"/><path stroke="#000" stroke-linejoin="round" stroke-linecap="butt" d="M255.4 144v-3.8"/><path fill="none" d="M328.4 144v-3.8"/><path stroke="#000" stroke-linejoin="round" stroke-linecap="butt" d="M328.4 144v-3.8"/><path fill="none" d="M400.4 144v-3.8"/><path stroke="#000" stroke-linejoin="round" stroke-linecap="butt" d="M400.4 144v-3.8"/><path fill="none" d="M472.4 144v-3.8"/><path stroke="#000" stroke-linejoin="round" stroke-linecap="butt" d="M472.4 144v-3.8"/><path fill="none" d="M346.7 160.9h35.5v37.8h-35.5z"/><path fill="#6aa84f" d="M370.2 182.2q0 1.6-.5 2.8-.4 1.2-1.2 2-.9.8-2 1.2-1.1.3-2.5.3l-2.4-.2q-1-.1-2.1-.5v-16h2.8V178q.6-.8 1.4-1.3.9-.5 2.1-.5 1 0 1.9.4.8.4 1.3 1.2.6.8 1 1.9.2 1 .2 2.5zm-3 0l-.1-1.6-.4-1.1q-.3-.5-.7-.7-.4-.2-.9-.2-.7 0-1.3.6-.7.6-1.5 1.6v5.2l.9.2h1q.7 0 1.2-.2.6-.3 1-.8t.6-1.2q.2-.8.2-1.7z"/><path fill="#d9ead3" d="M369.4 69.9h-.8l-.3.2h-.4l-.4.1-.4.2-.4.1-.3.2-.5.2-.3.2-.4.2-.4.3-.4.2-.4.3-.3.4-.5.3-.3.4-.4.3-.4.4-.4.4-.4.5-.3.4-.5.5-.3.5-.4.5-.4.5-.4.6-.4.5-.3.6-.5.6-.3.6-.4.6-.4.6-.4.7-.4.6-.3.7-.4.6-.4.7-.4.7-.4.7-.4.7-.4.7-.3.7-.4.8-.4.7-.4.7-.4.7-.4.7-.3.8-.4.7-.4.7-.4.8-.4.7-.4.7-.4.8-.3.7-.4.7-.4.7-.4.8-.4.7-.4.7-.4.7-.3.7-.4.7-.4.6-.4.7-.4.7-.4.6-.4.7-.3.6-.4.7-.4.6-.4.6-.4.6-.4.7-.4.6-.3.6-.4.6-.4.5-.4.6-.4.6-.4.6-.4.5-.3.6-.4.5-.4.6-.4.5-.4.5-.4.6-.3.5-.4.5-.4.5-.4.5-.4.5-.4.5-.4.5-.3.4-.4.5-.4.5-.4.4-.4.5-.3.4-.5.4-.3.4-.4.5-.4.4-.4.4-.4.4-.3.3-.5.4-.3.4-.4.3-.4.4-.4.3-.4.3-.3.3-.5.3-.3.3-.4.3-.4.3-.4.3-.4.2-.3.3-.5.2-.3.3-.4.2-.4.3-.4.2-.4.2-.4.2-.3.2-.4.2-.4.2-.4.2-.4.2-.4.1-.4.2-.3.2-.4.1-.4.2-.4.1-.4.2-.4.1-.4.2-.3.1-.4.1-.4.2-.4.1-.4.1-.3.1-.5.1-.3.1-.4.1-.4.2h-.4l-.4.1-.3.1-.5.1-.3.1-.4.1h-.4l-.4.2h-.4l-.3.1h-.5l-.3.1-.4.1h-.4l-.4.1-.4.1h-.3l-.5.1h-.3l-.4.1h-.4l-.4.1h-.4l-.3.1h-.8l-.4.1h-.8l-.4.1h-.3l-.4.1H296.6l-.4.1h-1.1l-.4.1H293.2l-.4.1h-1.6l-.4.1h-2.3l-.4.1H285.1l-.4.1h-5l-.4.1H268 475 453.4l-.4-.1h-1.9l-.4-.1H448.8l-.4-.1H447.2l-.4-.1h-1.1l-.4-.1h-.8l-.3-.1h-.8l-.4-.1h-.8l-.4-.1h-.7l-.4-.1h-.4l-.4-.1h-.3l-.5-.1h-.3l-.4-.1h-.4l-.4-.1h-.4l-.3-.1-.5-.1h-.3l-.4-.1-.4-.1h-.4l-.4-.1-.3-.1-.5-.1-.3-.1h-.4l-.4-.2h-.4l-.4-.2h-.3l-.5-.1-.3-.2h-.4l-.4-.2h-.4l-.4-.2-.4-.1-.4-.2-.3-.1-.4-.1-.4-.2-.4-.1-.4-.2-.4-.1-.3-.2-.4-.1-.4-.2-.4-.2-.4-.1-.4-.2-.4-.2-.3-.2-.4-.2-.4-.2-.4-.2-.4-.2-.3-.2-.5-.2-.3-.2-.4-.3-.4-.2-.4-.2-.4-.3-.3-.2-.5-.3-.3-.2-.4-.3-.4-.3-.4-.3-.4-.2-.3-.4-.5-.3-.3-.3-.4-.3-.4-.3-.4-.4-.4-.3-.3-.4-.5-.3-.3-.4-.4-.4-.4-.4-.4-.4-.4-.4-.3-.5-.4-.4-.4-.4-.4-.5-.4-.4-.4-.5-.4-.5-.3-.5-.4-.5-.4-.5-.4-.5-.4-.5-.4-.5-.3-.6-.4-.5-.4-.6-.4-.5-.4-.6-.4-.5-.4-.6-.3-.6-.4-.5-.4-.6-.4-.6-.4-.6-.4-.6-.4-.6-.3-.6-.4-.6-.4-.6-.4-.6-.4-.6-.4-.6-.4-.7-.3-.6-.4-.6-.4-.6-.4-.7-.4-.6-.4-.7-.4-.6-.3-.7-.4-.6-.4-.7-.4-.7-.4-.6-.4-.7-.4-.7-.3-.7-.4-.6-.4-.7-.4-.7-.4-.7-.4-.7-.3-.7-.4-.7-.4-.7-.4-.7-.4-.7-.4-.7-.4-.7-.3-.7-.4-.6-.4-.7-.4-.7-.4-.7-.3-.6-.5-.7-.3-.6-.4-.6-.4-.7-.4-.6-.4-.6-.3-.6-.5-.5-.3-.6-.4-.5-.4-.6-.4-.5-.4-.5-.3-.5-.5-.4-.3-.5-.4-.4-.4-.4-.4-.4-.4-.4-.3-.3-.5-.4-.3-.3-.4-.3-.4-.3-.4-.2-.4-.3-.4-.2-.3-.2-.4-.2-.4-.2-.4-.1-.4-.1-.4-.1-.4-.1-.3-.1h-.4l-.4-.1z" fill-rule="evenodd"/><path stroke="#6aa84f" stroke-linejoin="round" stroke-linecap="butt" d="M369.4 69.9h-.8l-.3.2h-.4l-.4.1-.4.2-.4.1-.3.2-.5.2-.3.2-.4.2-.4.3-.4.2-.4.3-.3.4-.5.3-.3.4-.4.3-.4.4-.4.4-.4.5-.3.4-.5.5-.3.5-.4.5-.4.5-.4.6-.4.5-.3.6-.5.6-.3.6-.4.6-.4.6-.4.7-.4.6-.3.7-.4.6-.4.7-.4.7-.4.7-.4.7-.4.7-.3.7-.4.8-.4.7-.4.7-.4.7-.4.7-.3.8-.4.7-.4.7-.4.8-.4.7-.4.7-.4.8-.3.7-.4.7-.4.7-.4.8-.4.7-.4.7-.4.7-.3.7-.4.7-.4.6-.4.7-.4.7-.4.6-.4.7-.3.6-.4.7-.4.6-.4.6-.4.6-.4.7-.4.6-.3.6-.4.6-.4.5-.4.6-.4.6-.4.6-.4.5-.3.6-.4.5-.4.6-.4.5-.4.5-.4.6-.3.5-.4.5-.4.5-.4.5-.4.5-.4.5-.4.5-.3.4-.4.5-.4.5-.4.4-.4.5-.3.4-.5.4-.3.4-.4.5-.4.4-.4.4-.4.4-.3.3-.5.4-.3.4-.4.3-.4.4-.4.3-.4.3-.3.3-.5.3-.3.3-.4.3-.4.3-.4.3-.4.2-.3.3-.5.2-.3.3-.4.2-.4.3-.4.2-.4.2-.4.2-.3.2-.4.2-.4.2-.4.2-.4.2-.4.1-.4.2-.3.2-.4.1-.4.2-.4.1-.4.2-.4.1-.4.2-.3.1-.4.1-.4.2-.4.1-.4.1-.3.1-.5.1-.3.1-.4.1-.4.2h-.4l-.4.1-.3.1-.5.1-.3.1-.4.1h-.4l-.4.2h-.4l-.3.1h-.5l-.3.1-.4.1h-.4l-.4.1-.4.1h-.3l-.5.1h-.3l-.4.1h-.4l-.4.1h-.4l-.3.1h-.8l-.4.1h-.8l-.4.1h-.3l-.4.1H296.6l-.4.1h-1.1l-.4.1H293.2l-.4.1h-1.6l-.4.1h-2.3l-.4.1H285.1l-.4.1h-5l-.4.1H268 475 453.4l-.4-.1h-1.9l-.4-.1H448.8l-.4-.1H447.2l-.4-.1h-1.1l-.4-.1h-.8l-.3-.1h-.8l-.4-.1h-.8l-.4-.1h-.7l-.4-.1h-.4l-.4-.1h-.3l-.5-.1h-.3l-.4-.1h-.4l-.4-.1h-.4l-.3-.1-.5-.1h-.3l-.4-.1-.4-.1h-.4l-.4-.1-.3-.1-.5-.1-.3-.1h-.4l-.4-.2h-.4l-.4-.2h-.3l-.5-.1-.3-.2h-.4l-.4-.2h-.4l-.4-.2-.4-.1-.4-.2-.3-.1-.4-.1-.4-.2-.4-.1-.4-.2-.4-.1-.3-.2-.4-.1-.4-.2-.4-.2-.4-.1-.4-.2-.4-.2-.3-.2-.4-.2-.4-.2-.4-.2-.4-.2-.3-.2-.5-.2-.3-.2-.4-.3-.4-.2-.4-.2-.4-.3-.3-.2-.5-.3-.3-.2-.4-.3-.4-.3-.4-.3-.4-.2-.3-.4-.5-.3-.3-.3-.4-.3-.4-.3-.4-.4-.4-.3-.3-.4-.5-.3-.3-.4-.4-.4-.4-.4-.4-.4-.4-.4-.3-.5-.4-.4-.4-.4-.4-.5-.4-.4-.4-.5-.4-.5-.3-.5-.4-.5-.4-.5-.4-.5-.4-.5-.4-.5-.3-.6-.4-.5-.4-.6-.4-.5-.4-.6-.4-.5-.4-.6-.3-.6-.4-.5-.4-.6-.4-.6-.4-.6-.4-.6-.4-.6-.3-.6-.4-.6-.4-.6-.4-.6-.4-.6-.4-.6-.4-.7-.3-.6-.4-.6-.4-.6-.4-.7-.4-.6-.4-.7-.4-.6-.3-.7-.4-.6-.4-.7-.4-.7-.4-.6-.4-.7-.4-.7-.3-.7-.4-.6-.4-.7-.4-.7-.4-.7-.4-.7-.3-.7-.4-.7-.4-.7-.4-.7-.4-.7-.4-.7-.4-.7-.3-.7-.4-.6-.4-.7-.4-.7-.4-.7-.3-.6-.5-.7-.3-.6-.4-.6-.4-.7-.4-.6-.4-.6-.3-.6-.5-.5-.3-.6-.4-.5-.4-.6-.4-.5-.4-.5-.3-.5-.5-.4-.3-.5-.4-.4-.4-.4-.4-.4-.4-.4-.3-.3-.5-.4-.3-.3-.4-.3-.4-.3-.4-.2-.4-.3-.4-.2-.3-.2-.4-.2-.4-.2-.4-.1-.4-.1-.4-.1-.4-.1-.3-.1h-.4l-.4-.1z"/><path fill="none" d="M235 139.6h259.4"/><path stroke="#000" stroke-width="2" stroke-linejoin="round" stroke-linecap="butt" d="M247 139.6h235.4"/><path fill="#000" stroke="#000" stroke-width="2" stroke-linecap="butt" d="M247 136.3l-9.2 3.3 9.1 3.3zM482.4 142.9l9-3.3-9-3.3z" fill-rule="evenodd"/><path fill="none" d="M74.2 100h90.2V138H74.2z"/><path fill="#6aa84f" d="M94.8 120h-10v-1.8h10v1.7zm0 4h-10v-1.7h10v1.7zm27-4.2q0 1.8-.4 3.3-.4 1.4-1.1 2.5-.7 1-1.8 1.6-1 .5-2.5.5-1.2 0-2.2-.4-1-.5-1.7-1.5t-1.1-2.4q-.4-1.5-.4-3.6 0-1.7.3-3.2.4-1.4 1.1-2.4.7-1 1.8-1.6 1-.6 2.5-.6 1.2 0 2.2.4 1 .5 1.7 1.5t1.1 2.4q.4 1.5.4 3.5zm-2.1.1v-.8l-.1-.7-6.5 4.8.4 1.1.7.9.8.6q.5.2 1.1.2.8 0 1.5-.4t1.1-1.2q.5-.7.7-1.8.3-1.2.3-2.7zm-7-.1v1.4l6.5-4.8-.5-1q-.2-.6-.6-1l-.9-.5q-.4-.2-1-.2-.9 0-1.5.4t-1.1 1.2q-.5.7-.7 1.9-.3 1-.3 2.6zm16.5 4q.5 0 .8.2.4.1.6.4l.4.6.2.8q0 .4-.2.7-.1.4-.4.6-.2.3-.6.5l-.8.1-.7-.1q-.4-.2-.6-.5-.3-.2-.4-.6-.2-.3-.2-.7l.2-.8.4-.6q.2-.3.6-.4.3-.2.7-.2zm18.6-.1q0 1-.5 1.7-.3.7-1 1.3-.8.5-1.7.8-1 .2-2.2.2-1.2 0-2.2-.3-1-.3-1.6-.8-.6-.5-1-1.1-.3-.7-.3-1.6 0-1.4.8-2.4t2.5-1.9q-1.5-.7-2.3-1.6-.6-1-.6-2.2 0-.7.3-1.4t.9-1.2q.6-.6 1.5-.9 1-.3 2.2-.3 1.2 0 2 .2 1 .3 1.6.7.6.5.9 1.2.3.7.3 1.5 0 1.3-.7 2.2-.8 1-2.1 1.7l1.2.7q.6.4 1 1 .5.5.7 1 .3.7.3 1.5zm-2.5-8q0-1-.7-1.5t-2-.5q-1.4 0-2.1.5-.7.5-.7 1.5l.1.8.6.8.9.6 1.3.7q1.3-.6 2-1.3.6-.7.6-1.6zm.2 8.1l-.1-.8q-.1-.4-.5-.8l-1-.8-1.5-.9-1.4.8-.9.8-.4.8q-.2.4-.2.9t.3 1l.6.6q.4.3 1 .4.5.2 1.1.2.7 0 1.2-.2.6 0 1-.4.4-.2.6-.6.2-.4.2-1z"/><path fill="none" d="M74.2 238.3H174V276H74.2z"/><path fill="#c00" d="M84.7 258.2v-2.3h10.1v2.3h-10zm0 4.6v-2.3h10.1v2.3h-10zm26.6 3v-2.6h4v-9.9l-3.5 2-.9-2.4 4.9-2.6h2.4v12.9h3.3v2.5h-10.2zm18-4.4q.5 0 .9.2l.7.5.5.7q.2.4.2 1l-.2.8-.5.7-.7.5q-.4.2-1 .2l-.8-.2-.7-.5-.5-.7q-.2-.4-.2-.9t.2-.9l.5-.7.7-.5q.4-.2.9-.2zm8.4 4.3v-2.5h4v-9.9l-3.5 2-1-2.4 5-2.6h2.4v12.9h3.3v2.5h-10.2z"/><path fill="none" d="M202.2 321V18.1"/><path stroke="#000" stroke-linejoin="round" stroke-linecap="butt" stroke-dasharray="4.0,3.0" d="M202.2 321V18.1"/></g></svg>