<svg height="367.7" viewBox="0 0 420.5 275.7" width="560.6" xmlns="http://www.w3.org/2000/svg" xmlns:xlink="http://www.w3.org/1999/xlink"><defs><style>*{stroke-linecap:butt;stroke-linejoin:round}</style></defs><g id="figure_1"><path d="M0 275.7h420.5V0H0z" fill="#fff" id="patch_1"/><g id="axes_1"><path d="M13.2 95.3h394V7.2h-394z" fill="#eaeaf2" id="patch_2"/><g id="matplotlib.axis_1"><g id="xtick_1"><path clip-path="url(#pd0214ef202)" d="M34.6 95.3V7.2" fill="none" stroke="#fff" stroke-linecap="round" id="line2d_1"/><g id="text_1"><defs><path d="M10.6 35.5h62.6v-8.3H10.6z" id="DejaVuSans-8722"/><path d="M12.4 8.3h16.1v55.6L11 60.4v9l17.4 3.5h9.9V8.3h16V0H12.5z" id="DejaVuSans-49"/><path d="M10.7 12.4H21V0H10.7z" id="DejaVuSans-46"/><path d="M10.8 73h38.7v-8.4H19.8V46.7q2.2.8 4.3 1.1 2.2.4 4.3.4 12.2 0 19.4-6.7 7-6.7 7-18.1 0-11.8-7.2-18.3-7.4-6.5-20.7-6.5-4.6 0-9.4.8-4.7.7-9.8 2.3v10q4.4-2.5 9.1-3.6 4.7-1.2 9.9-1.2 8.5 0 13.4 4.4 5 4.5 5 12 0 7.7-5 12.1Q35 40 26.7 40q-4 0-7.9-.9-4-.9-8-2.7z" id="DejaVuSans-53"/></defs><g transform="matrix(.11 0 0 -.11 21.2 113.1)" fill="#262626"><use xlink:href="#DejaVuSans-8722"/><use x="83.8" xlink:href="#DejaVuSans-49"/><use x="147.4" xlink:href="#DejaVuSans-46"/><use x="179.2" xlink:href="#DejaVuSans-53"/></g></g></g><g id="xtick_2"><path clip-path="url(#pd0214ef202)" d="M89.6 95.3V7.2" fill="none" stroke="#fff" stroke-linecap="round" id="line2d_2"/><g id="text_2"><defs><path d="M31.8 66.4q-7.6 0-11.5-7.5-3.8-7.5-3.8-22.5t3.8-22.5q3.9-7.5 11.5-7.5 7.7 0 11.5 7.5T47 36.4q0 15-3.8 22.5t-11.5 7.5zm0 7.8q12.2 0 18.7-9.7T57 36.4Q57 18 50.5 8.3 44-1.4 31.8-1.4 19.5-1.4 13 8.3q-6.5 9.7-6.5 28 0 18.5 6.5 28.2 6.4 9.7 18.7 9.7z" id="DejaVuSans-48"/></defs><g transform="matrix(.11 0 0 -.11 76.3 113.1)" fill="#262626"><use xlink:href="#DejaVuSans-8722"/><use x="83.8" xlink:href="#DejaVuSans-49"/><use x="147.4" xlink:href="#DejaVuSans-46"/><use x="179.2" xlink:href="#DejaVuSans-48"/></g></g></g><g id="xtick_3"><path clip-path="url(#pd0214ef202)" d="M144.6 95.3V7.2" fill="none" stroke="#fff" stroke-linecap="round" id="line2d_3"/><g transform="matrix(.11 0 0 -.11 131.3 113.1)" fill="#262626" id="text_3"><use xlink:href="#DejaVuSans-8722"/><use x="83.8" xlink:href="#DejaVuSans-48"/><use x="147.4" xlink:href="#DejaVuSans-46"/><use x="179.2" xlink:href="#DejaVuSans-53"/></g></g><g id="xtick_4"><path clip-path="url(#pd0214ef202)" d="M199.7 95.3V7.2" fill="none" stroke="#fff" stroke-linecap="round" id="line2d_4"/><g transform="matrix(.11 0 0 -.11 191 113.1)" fill="#262626" id="text_4"><use xlink:href="#DejaVuSans-48"/><use x="63.6" xlink:href="#DejaVuSans-46"/><use x="95.4" xlink:href="#DejaVuSans-48"/></g></g><g id="xtick_5"><path clip-path="url(#pd0214ef202)" d="M254.7 95.3V7.2" fill="none" stroke="#fff" stroke-linecap="round" id="line2d_5"/><g transform="matrix(.11 0 0 -.11 246 113.1)" fill="#262626" id="text_5"><use xlink:href="#DejaVuSans-48"/><use x="63.6" xlink:href="#DejaVuSans-46"/><use x="95.4" xlink:href="#DejaVuSans-53"/></g></g><g id="xtick_6"><path clip-path="url(#pd0214ef202)" d="M309.7 95.3V7.2" fill="none" stroke="#fff" stroke-linecap="round" id="line2d_6"/><g transform="matrix(.11 0 0 -.11 301 113.1)" fill="#262626" id="text_6"><use xlink:href="#DejaVuSans-49"/><use x="63.6" xlink:href="#DejaVuSans-46"/><use x="95.4" xlink:href="#DejaVuSans-48"/></g></g><g id="xtick_7"><path clip-path="url(#pd0214ef202)" d="M364.8 95.3V7.2" fill="none" stroke="#fff" stroke-linecap="round" id="line2d_7"/><g transform="matrix(.11 0 0 -.11 356 113.1)" fill="#262626" id="text_7"><use xlink:href="#DejaVuSans-49"/><use x="63.6" xlink:href="#DejaVuSans-46"/><use x="95.4" xlink:href="#DejaVuSans-53"/></g></g><g id="text_8"><defs><path d="M3.3 73h10l15.3-61.7L44 72.9h11l15.4-61.6 15.3 61.6h10L77.3 0H64.9L49.5 63.3 34 0H21.6z" id="DejaVuSans-87"/><path d="M56.2 29.6v-4.4H14.9q.6-9.3 5.6-14.1 5-4.9 14-4.9 5 0 10 1.3 4.8 1.2 9.6 3.8V2.8q-4.8-2-10-3.1-5-1.1-10.2-1.1-13.1 0-20.7 7.6-7.7 7.6-7.7 20.6 0 13.4 7.3 21.3Q20 56 32.3 56q11 0 17.5-7.1 6.4-7.1 6.4-19.3zm-9 2.6q0 7.4-4.1 11.8-4 4.4-10.7 4.4-7.5 0-12-4.3-4.5-4.2-5.2-12z" id="DejaVuSans-101"/><path d="M9.4 54.7h9V0h-9zm0 21.3h9V64.6h-9z" id="DejaVuSans-105"/><path d="M45.4 28q0 9.8-4 15.1-4 5.4-11.3 5.4-7.2 0-11.3-5.4-4-5.4-4-15.1t4-15.1q4-5.4 11.3-5.4 7.3 0 11.3 5.4 4 5.4 4 15zm9-21.2q0-14-6.2-20.8-6.2-6.8-19-6.8-4.7 0-9 .7-4.1.7-8 2.2v8.7q3.9-2.1 7.7-3.1 3.9-1 7.9-1 8.8 0 13.2 4.5 4.4 4.6 4.4 14v4.4q-2.8-4.8-7.1-7.2Q33.9 0 27.9 0q-10 0-16.2 7.7Q5.5 15.3 5.5 28q0 12.7 6.2 20.3Q17.8 56 27.9 56q6 0 10.4-2.4 4.3-2.4 7.1-7.2v8.3h9z" id="DejaVuSans-103"/><path d="M54.9 33V0h-9v32.7q0 7.8-3 11.6-3 3.9-9.1 3.9-7.3 0-11.5-4.7Q18.1 39 18.1 31V0h-9v76h9V46.2q3.2 5 7.6 7.4Q30.1 56 35.8 56q9.4 0 14.2-5.8Q55 44.3 55 33z" id="DejaVuSans-104"/><path d="M18.3 70.2V54.7h18.5v-7H18.3V18q0-6.7 1.8-8.6 1.9-1.9 7.5-1.9h9.2V0h-9.2Q17.2 0 13.2 3.9T9.2 18v29.7H2.8v7h6.6v15.5z" id="DejaVuSans-116"/><path d="M44.3 53v-8.4q-3.8 2-8 2.9-4 1-8.4 1-6.7 0-10-2-3.4-2.1-3.4-6.2 0-3.1 2.4-5 2.4-1.7 9.6-3.3l3-.7q9.7-2 13.7-5.8 4-3.7 4-10.4 0-7.6-6-12-6-4.5-16.6-4.5-4.4 0-9.1.8-4.8.9-10 2.6v9.3q5-2.6 9.7-4 4.9-1.2 9.6-1.2 6.4 0 9.8 2.2 3.4 2.2 3.4 6.1 0 3.7-2.5 5.6-2.4 2-10.8 3.8l-3.1.7q-8.4 1.8-12 5.4-3.8 3.6-3.8 10 0 7.7 5.5 11.9Q16.7 56 26.8 56q5 0 9.4-.7 4.4-.8 8-2.2z" id="DejaVuSans-115"/></defs><g transform="matrix(.12 0 0 -.12 185.9 128.5)" fill="#262626"><use xlink:href="#DejaVuSans-87"/><use x="98.8" xlink:href="#DejaVuSans-101"/><use x="160.3" xlink:href="#DejaVuSans-105"/><use x="188.1" xlink:href="#DejaVuSans-103"/><use x="251.6" xlink:href="#DejaVuSans-104"/><use x="315" xlink:href="#DejaVuSans-116"/><use x="354.2" xlink:href="#DejaVuSans-115"/></g></g></g><path clip-path="url(#pd0214ef202)" d="M31.1 91.3h9l.2-.1h3.1l.5-.1h1.8l.2-.1h1.5l.3-.1h1.1l.2-.1H50.1l.2-.1H51.2l.3-.1H52l.3-.1H53l.3-.1h.4l.2-.1h.5l.2-.1h.4l.3-.1h.2l.2-.1h.2l.3-.1h.2l.2-.1h.2l.3-.1h.2l.2-.1.2-.1h.3l.2-.1.2-.1h.2l.2-.2h.3l.2-.1.2-.1.2-.1.3-.1.2-.1.2-.2h.2l.3-.2.2-.1.2-.1.2-.2.3-.1.2-.2.2-.1.2-.2.3-.1.2-.2.2-.2.2-.2.2-.2.3-.2.2-.2.2-.2.2-.2.3-.2.2-.3.2-.2.2-.2.3-.3.2-.2.2-.3.2-.3.3-.3.2-.2.2-.3.2-.3.2-.3.3-.3.2-.4.2-.3.2-.3.3-.3.2-.4.2-.3.2-.4.3-.4.2-.3.2-.4.2-.4.3-.4.2-.4.2-.4.2-.4.3-.4.2-.4.2-.4.2-.4.2-.5.3-.4.2-.5.2-.4.2-.5.3-.5.2-.4.2-.5.2-.5.3-.5.2-.5.2-.5.2-.5.3-.5.2-.5.2-.5.2-.6.2-.5.3-.5.2-.6.2-.5.2-.6.3-.5.2-.6.2-.6.2-.5.3-.6.2-.6.2-.6.2-.6.3-.6.2-.6.2-.6.2-.6.3-.6.2-.6.2-.6.2-.7.2-.6.3-.6.2-.7.2-.6.2-.6.3-.7.2-.6.2-.7.2-.6.3-.7.2-.7.2-.6.2-.7.3-.6.2-.7.2-.7.2-.6.2-.7.3-.6.2-.7.2-.6.2-.7.3-.6.2-.7.2-.6.2-.7.3-.6.2-.6.2-.6.2-.7.3-.6.2-.6.2-.6.2-.5.2-.6.3-.6.2-.5.2-.6.2-.5.3-.6.2-.5.2-.5.2-.5.3-.5.2-.5.2-.5.2-.4.3-.5.2-.4.2-.5.2-.4.3-.4.2-.5.2-.4.2-.4.2-.3.3-.4.2-.4.2-.3.2-.4.3-.3.2-.4.2-.3.2-.3.3-.3.2-.3.2-.3.2-.2.3-.3.2-.2.2-.2.2-.3.2-.1.3-.2.2-.2.2-.1.2-.2h.3l.2-.2h.4l.3-.1H99.6l.2.1.2.1.2.1.3.2.2.1.2.2.2.2.2.2.3.2.2.3.2.3.2.3.3.3.2.3.2.3.2.4.3.4.2.4.2.4.2.4.3.4.2.5.2.4.2.5.2.4.3.5.2.5.2.5.2.5.3.5.2.5.2.5.2.6.3.5.2.5.2.6.2.5.3.6.2.5.2.6.2.6.3.6.2.5.2.6.2.6.2.6.3.6.2.6.2.6.2.6.3.6.2.6.2.7.2.6.3.6.2.7.2.6.2.6.3.7.2.6.2.7.2.6.2.7.3.7.2.6.2.7.2.6.3.7.2.7.2.6.2.7.3.7.2.6.2.7.2.7.3.6.2.7.2.6.2.7.3.6.2.7.2.6.2.6.2.7.3.6.2.6.2.6.2.7.3.6.2.6.2.6.2.6.3.5.2.6.2.6.2.6.3.5.2.6.2.5.2.6.2.5.3.5.2.5.2.5.2.5.3.5.2.5.2.5.2.5.3.5.2.4.2.5.2.4.3.4.2.5.2.4.2.4.3.4.2.4.2.4.2.4.2.4.3.3.2.4.2.4.2.3.3.3.2.4.2.3.2.3.3.3.2.3.2.3.2.3.3.3.2.3.2.3.2.2.2.3.3.2.2.3.2.2.2.2.3.2.2.2.2.3.2.1.3.2.2.2.2.2.2.2.3.2.2.1.2.2.2.1.3.2.2.1.2.1.2.2h.2l.3.2.2.1.2.1.2.2h.3l.2.2h.2l.2.2h.3l.2.1.2.1.2.1h.3l.2.2h.2l.2.1h.2l.3.1.2.1h.2l.2.1h.3l.2.1h.2l.2.1h.3l.2.1h.2l.2.1h.3l.2.1h.2l.2.1h.5l.2.1h.4l.3.1h.4l.2.1h.5l.2.1h.7l.2.1h.7l.2.1H148.1l.2.1H149.2l.2.1h1.2l.2.1H152.6l.2.1H156.6l.2.1H168z" fill="#1f77b4" opacity=".4" stroke="#fff" id="patch_3"/><path clip-path="url(#pd0214ef202)" d="M74.5 91.3V69l.2-.5.3-.5.2-.5.2-.5.2-.6.2-.5.3-.5.2-.6.2-.5.2-.6.3-.5.2-.6.2-.6.2-.5.3-.6.2-.6.2-.6.2-.6.3-.6.2-.6.2-.6.2-.6.3-.6.2-.6.2-.6.2-.7.2-.6.3-.6.2-.7.2-.6.2-.6.3-.7.2-.6.2-.7.2-.6.3-.7.2-.7.2-.6.2-.7.3-.6.2-.7.2-.7.2-.6.2-.7.3-.6.2-.7.2-.6.2-.7.3-.6.2-.7.2-.6.2-.7.3-.6.2-.6.2-.6.2-.7.3-.6.2-.6.2-.6.2-.5.2-.6.3-.6.2-.5.2-.6.2-.5.3-.6.2-.5.2-.5.2-.5.3-.5.2-.5.2-.5.2-.4.3-.5.2-.4.2-.5.2-.4.3-.4.2-.5.2-.4.2-.4.2-.3.3-.4.2-.4.2-.3.2-.4.3-.3.2-.4.2-.3.2-.3.3-.3.2-.3.2-.3.2-.2.3-.3.2-.2.2-.2.2-.3.2-.1.3-.2.2-.2.2-.1.2-.2h.3l.2-.2h.4l.3-.1H99.6l.2.1.2.1.2.1.3.2.2.1.2.2.2.2.2.2.3.2.2.3.2.3.2.3.3.3.2.3.2.3.2.4.3.4.2.4.2.4.2.4.3.4.2.5.2.4.2.5.2.4.3.5.2.5.2.5.2.5.3.5.2.5.2.5.2.6.3.5.2.5.2.6.2.5.3.6.2.5.2.6.2.6.3.6.2.5.2.6.2.6.2.6.3.6.2.6.2.6.2.6.3.6.2.6.2.7.2.6.3.6.2.7.2.6.2.6.3.7.2.6.2.7.2.6.2.7.3.7.2.6.2.7.2.6.3.7.2.7.2.6.2.7.3.7.2.6.2.7.2.7.3.6.2.7.2.6.2.7.3.6.2.7.2.6.2.6.2.7.3.6.2.6.2.6.2.7.3.6.2.6.2.6.2.6.3.5.2.6.2.6.2.6.3.5.2.6.2.5.2.6v22.7z" fill="#1f77b4" opacity=".4" stroke="#fff" id="patch_4"/><path clip-path="url(#pd0214ef202)" d="M136.4 91.3H148.6l.4-.1H154.2l.2-.1H156.8l.3-.1h1.5l.2-.1H160l.3-.1H161l.2-.1H161.9l.3-.1h.4l.2-.1h.5l.2-.1h.5l.2-.1h.2l.2-.1h.2l.3-.1h.2l.2-.1h.2l.3-.1h.2l.2-.1h.2l.2-.1h.3l.2-.1.2-.1h.2l.3-.2h.2l.2-.1h.2l.2-.2h.3l.2-.1.2-.1.2-.1.3-.1.2-.1.2-.1.2-.2h.3l.2-.2.2-.1.2-.2h.2l.3-.2.2-.2.2-.1.2-.2.3-.2.2-.1.2-.2.2-.2.2-.2.3-.2.2-.2.2-.2.2-.2.3-.2.2-.2.2-.3.2-.2.2-.3.3-.2.2-.3.2-.3.2-.2.3-.3.2-.3.2-.3.2-.3.2-.3.3-.4.2-.3.2-.3.2-.4.3-.3.2-.4.2-.4.2-.3.3-.4.2-.4.2-.4.2-.4.2-.4.3-.4.2-.4.2-.4.2-.5.3-.4.2-.5.2-.4.2-.5.2-.4.3-.5.2-.5.2-.5.2-.5.3-.5.2-.5.2-.5.2-.5.2-.6.3-.5.2-.5.2-.6.2-.6.3-.5.2-.6.2-.6.2-.6.3-.6.2-.6.2-.6.2-.6.2-.6.3-.7.2-.6.2-.6.2-.7.3-.6.2-.7.2-.6.2-.7.2-.7.3-.6.2-.7.2-.7.2-.7.3-.7.2-.6.2-.7.2-.7.2-.7.3-.7.2-.7.2-.8.2-.7.3-.7.2-.7.2-.7.2-.7.3-.8.2-.7.2-.7.2-.7.2-.7.3-.8.2-.7.2-.7.2-.7.3-.8.2-.7.2-.7.2-.7.2-.7.3-.7.2-.7.2-.7.2-.7.3-.6.2-.7.2-.7.2-.6.2-.6.3-.7.2-.6.2-.6.2-.6.3-.6.2-.5.2-.6.2-.5.3-.6.2-.5.2-.5.2-.5.2-.4.3-.5.2-.4.2-.4.2-.5.3-.3.2-.4.2-.4.2-.3.2-.4.3-.3.2-.3.2-.2.2-.3.3-.2.2-.3.2-.2.2-.2.2-.1.3-.2.2-.1.2-.1.2-.2h.3l.2-.1h.2l.2-.1H208l.2.1h.3l.2.2.2.1.2.1.3.2.2.2.2.1.2.3.2.2.3.2.2.3.2.3.2.3.3.3.2.4.2.3.2.4.2.4.3.4.2.5.2.4.2.5.3.4.2.5.2.6.2.5.2.5.3.6.2.5.2.6.2.6.3.6.2.6.2.6.2.7.3.6.2.6.2.7.2.6.2.7.3.6.2.7.2.7.2.6.3.7.2.7.2.7.2.6.2.7.3.7.2.6.2.7.2.7.3.7.2.6.2.7.2.6.2.7.3.7.2.6.2.7.2.6.3.7.2.6.2.7.2.7.3.6.2.7.2.6.2.7.2.6.3.7.2.6.2.7.2.6.3.7.2.6.2.7.2.6.2.7.3.6.2.6.2.7.2.6.3.6.2.7.2.6.2.6.2.6.3.7.2.6.2.6.2.6.3.6.2.5.2.6.2.6.3.6.2.5.2.6.2.5.2.5.3.6.2.5.2.5.2.5.3.5.2.5.2.4.2.5.2.4.3.5.2.4.2.5.2.4.3.4.2.4.2.4.2.4.2.4.3.4.2.4.2.3.2.4.3.3.2.4.2.3.2.3.3.4.2.3.2.3.2.3.2.3.3.3.2.3.2.3.2.2.3.3.2.3.2.2.2.3.2.2.3.3.2.2.2.2.2.2.3.2.2.2.2.2.2.2.2.2.3.2.2.2.2.1.2.2.3.1.2.2.2.1.2.2.3.1.2.2h.2l.2.2.2.1.3.1.2.2h.2l.2.2h.3l.2.2h.2l.2.1.2.1.3.1h.2l.2.2h.2l.3.1h.2l.2.1.2.1h.2l.3.1h.2l.2.1h.2l.3.1h.2l.2.1h.2l.3.1h.4l.2.1h.2l.3.1H252.5l.3.1h.4l.2.1h.7l.2.1H255.2l.2.1H256.5l.3.1h1.7l.3.1H262l.2.1H272.6z" fill="#ff7f0e" opacity=".4" stroke="#fff" id="patch_5"/><path clip-path="url(#pd0214ef202)" d="M184.2 91.3V69.4l.2-.5.2-.6.3-.5.2-.5.2-.6.2-.6.3-.5.2-.6.2-.6.2-.6.3-.6.2-.6.2-.6.2-.6.2-.6.3-.7.2-.6.2-.6.2-.7.3-.6.2-.7.2-.6.2-.7.2-.7.3-.6.2-.7.2-.7.2-.7.3-.7.2-.6.2-.7.2-.7.2-.7.3-.7.2-.7.2-.8.2-.7.3-.7.2-.7.2-.7.2-.7.3-.8.2-.7.2-.7.2-.7.2-.7.3-.8.2-.7.2-.7.2-.7.3-.8.2-.7.2-.7.2-.7.2-.7.3-.7.2-.7.2-.7.2-.7.3-.6.2-.7.2-.7.2-.6.2-.6.3-.7.2-.6.2-.6.2-.6.3-.6.2-.5.2-.6.2-.5.3-.6.2-.5.2-.5.2-.5.2-.4.3-.5.2-.4.2-.4.2-.5.3-.3.2-.4.2-.4.2-.3.2-.4.3-.3.2-.3.2-.2.2-.3.3-.2.2-.3.2-.2.2-.2.2-.1.3-.2.2-.1.2-.1.2-.2h.3l.2-.1h.2l.2-.1H208l.2.1h.3l.2.2.2.1.2.1.3.2.2.2.2.1.2.3.2.2.3.2.2.3.2.3.2.3.3.3.2.4.2.3.2.4.2.4.3.4.2.5.2.4.2.5.3.4.2.5.2.6.2.5.2.5.3.6.2.5.2.6.2.6.3.6.2.6.2.6.2.7.3.6.2.6.2.7.2.6.2.7.3.6.2.7.2.7.2.6.3.7.2.7.2.7.2.6.2.7.3.7.2.6.2.7.2.7.3.7.2.6.2.7.2.6.2.7.3.7.2.6.2.7.2.6.3.7.2.6.2.7.2.7.3.6.2.7.2.6.2.7.2.6.3.7.2.6.2.7.2.6.3.7.2.6.2.7.2.6.2.7.3.6.2.6.2.7.2.6.3.6.2.7.2.6.2.6.2.6.3.7.2.6.2.6.2.6.3.6.2.5.2.6.2.6.3.6.2.5v23.4z" fill="#ff7f0e" opacity=".4" stroke="#fff" id="patch_6"/><path clip-path="url(#pd0214ef202)" d="M235.1 91.3h13.6l.3-.1h5l.3-.1h2.2l.3-.1h1.5l.2-.1h1.1l.2-.1h1l.3-.1h.7l.3-.1h.5l.2-.1h.5l.3-.1h.2l.3-.1h.2l.3-.1h.2l.3-.1h.3l.2-.1h.3l.2-.1.3-.1h.2l.3-.1.2-.1h.3l.2-.2h.3l.2-.1.3-.1.2-.1.3-.1.2-.1.3-.1.2-.1.3-.1.2-.2h.3l.2-.2.3-.1.2-.2.3-.1.3-.2.2-.1.3-.2.2-.2.3-.1.2-.2.3-.2.2-.2.3-.2.2-.2.3-.2.2-.3.3-.2.2-.2.3-.3.2-.2.3-.3.2-.3.3-.3.2-.2.3-.3.2-.4.3-.3.3-.3.2-.3.3-.4.2-.3.3-.4.2-.4.3-.3.2-.4.3-.4.2-.4.3-.5.2-.4.3-.4.2-.5.3-.4.2-.5.3-.5.2-.4.3-.5.2-.5.3-.6.2-.5.3-.5.2-.5.3-.6.3-.5.2-.6.3-.6.2-.6.3-.5.2-.6.3-.6.2-.6.3-.7.2-.6.3-.6.2-.7.3-.6.2-.7.3-.6.2-.7.3-.7.2-.7.3-.7.2-.6.3-.7.2-.8.3-.7.2-.7.3-.7.3-.7.2-.8.3-.7.2-.7.3-.8.2-.7.3-.8.2-.7.3-.8.2-.8.3-.7.2-.8.3-.8.2-.8.3-.7.2-.8.3-.8.2-.8.3-.7.2-.8.3-.8.2-.8.3-.7.3-.8.2-.8.3-.7.2-.8.3-.8.2-.7.3-.8.2-.7.3-.8.2-.7.3-.7.2-.7.3-.7.2-.7.3-.7.2-.7.3-.6.2-.7.3-.6.2-.7.3-.6.2-.6.3-.6.2-.6.3-.5.3-.6.2-.5.3-.5.2-.5.3-.5.2-.5.3-.5.2-.4.3-.4.2-.4.3-.4.2-.4.3-.4.2-.3.3-.3.2-.4.3-.3.2-.2.3-.3.2-.2.3-.2.2-.2.3-.2.3-.2.2-.2h.3l.2-.2.3-.1h.2l.3-.1h.5l.2-.1h.5l.3.1h.2l.3.2h.2l.3.2.2.1.3.1.2.2.3.2.2.2.3.2.2.2.3.3.3.2.2.3.3.3.2.3.3.3.2.4.3.3.2.4.3.4.2.4.3.4.2.5.3.4.2.5.3.5.2.5.3.5.2.6.3.6.2.5.3.6.2.7.3.6.2.6.3.7.3.7.2.7.3.7.2.8.3.7.2.7.3.8.2.8.3.7.2.8.3.8.2.8.3.8.2.8.3.8.2.8.3.8.2.8.3.8.2.8.3.8.2.8.3.8.3.8.2.8.3.7.2.8.3.8.2.7.3.8.2.7.3.7.2.7.3.8.2.7.3.7.2.7.3.7.2.7.3.7.2.6.3.7.2.7.3.7.2.6.3.7.2.6.3.7.3.7.2.6.3.7.2.6.3.6.2.7.3.6.2.6.3.7.2.6.3.6.2.6.3.6.2.6.3.6.2.6.3.5.2.6.3.5.2.6.3.5.2.5.3.5.3.5.2.5.3.5.2.5.3.4.2.5.3.4.2.4.3.4.2.4.3.4.2.4.3.4.2.3.3.4.2.3.3.3.2.3.3.4.2.2.3.3.2.3.3.3.2.3.3.2.3.3.2.2.3.3.2.2.3.2.2.2.3.2.2.3.3.2.2.2.3.2.2.1.3.2.2.2.3.2.2.2.3.1.2.2.3.1.2.2.3.1.2.2.3.1.2.2.3.1.3.1.2.2h.3l.2.2.3.1.2.1.3.1.2.1.3.1.2.1.3.1.2.1h.3l.2.2h.3l.2.1h.3l.2.2h.5l.3.2h.5l.3.1h.2l.3.1h.2l.3.1h.2l.3.1h.5l.2.1h.5l.3.1h.7l.3.1h1l.2.1h1.6l.2.1h2.3l.2.1h3.8l.3.1h6l.3.1H389.4z" fill="#2ca02c" opacity=".4" stroke="#fff" id="patch_7"/><path clip-path="url(#pd0214ef202)" d="M285.5 91.3V67l.3-.7.2-.6.3-.6.2-.7.3-.6.2-.7.3-.6.2-.7.3-.7.2-.7.3-.7.2-.6.3-.7.2-.8.3-.7.2-.7.3-.7.3-.7.2-.8.3-.7.2-.7.3-.8.2-.7.3-.8.2-.7.3-.8.2-.8.3-.7.2-.8.3-.8.2-.8.3-.7.2-.8.3-.8.2-.8.3-.7.2-.8.3-.8.2-.8.3-.7.3-.8.2-.8.3-.7.2-.8.3-.8.2-.7.3-.8.2-.7.3-.8.2-.7.3-.7.2-.7.3-.7.2-.7.3-.7.2-.7.3-.6.2-.7.3-.6.2-.7.3-.6.2-.6.3-.6.2-.6.3-.5.3-.6.2-.5.3-.5.2-.5.3-.5.2-.5.3-.5.2-.4.3-.4.2-.4.3-.4.2-.4.3-.4.2-.3.3-.3.2-.4.3-.3.2-.2.3-.3.2-.2.3-.2.2-.2.3-.2.3-.2.2-.2h.3l.2-.2.3-.1h.2l.3-.1h.5l.2-.1h.5l.3.1h.2l.3.2h.2l.3.2.2.1.3.1.2.2.3.2.2.2.3.2.2.2.3.3.3.2.2.3.3.3.2.3.3.3.2.4.3.3.2.4.3.4.2.4.3.4.2.5.3.4.2.5.3.5.2.5.3.5.2.6.3.6.2.5.3.6.2.7.3.6.2.6.3.7.3.7.2.7.3.7.2.8.3.7.2.7.3.8.2.8.3.7.2.8.3.8.2.8.3.8.2.8.3.8.2.8.3.8.2.8.3.8.2.8.3.8.2.8.3.8.3.8.2.8.3.7.2.8.3.8.2.7.3.8.2.7.3.7.2.7.3.8.2.7.3.7.2.7.3.7.2.7.3.7.2.6.3.7.2.7.3.7.2.6.3.7.2.6.3.7.3.7.2.6.3.7.2.6.3.6.2.7.3.6.2.6.3.7.2.6v24.6z" fill="#2ca02c" opacity=".4" stroke="#fff" id="patch_8"/><path d="M13.2 95.3h394" fill="none" stroke="#fff" stroke-linecap="square" stroke-width="1.3" id="patch_9"/><g id="legend_1"><path d="M334.8 64.4h64.8q2.2 0 2.2-2.2V15q0-2.2-2.2-2.2h-64.8q-2.2 0-2.2 2.2v47.3q0 2.2 2.2 2.2z" fill="#eaeaf2" opacity=".8" stroke="#ccc" id="patch_10"/><path d="M337 25.5h22v-7.7h-22z" fill="#1f77b4" opacity=".4" stroke="#fff" id="patch_11"/><g id="text_9"><defs><path d="M8.6 76h20.7v-7H17.6V-6.2h11.7v-7H8.6z" id="DejaVuSans-91"/><path d="M11.7 12.4H22V4l-8-15.6H7.7l4 15.6z" id="DejaVuSans-44"/><path d="M30.4 76v-89.2H9.7v7h11.7V69H9.7v7z" id="DejaVuSans-93"/></defs><g transform="matrix(.11 0 0 -.11 367.8 25.5)" fill="#262626"><use xlink:href="#DejaVuSans-91"/><use x="39" xlink:href="#DejaVuSans-48"/><use x="102.6" xlink:href="#DejaVuSans-44"/><use x="134.4" xlink:href="#DejaVuSans-32"/><use x="166.2" xlink:href="#DejaVuSans-48"/><use x="229.8" xlink:href="#DejaVuSans-93"/></g></g><path d="M337 41.6h22v-7.7h-22z" fill="#ff7f0e" opacity=".4" stroke="#fff" id="patch_12"/><g transform="matrix(.11 0 0 -.11 367.8 41.6)" fill="#262626" id="text_10"><use xlink:href="#DejaVuSans-91"/><use x="39" xlink:href="#DejaVuSans-49"/><use x="102.6" xlink:href="#DejaVuSans-44"/><use x="134.4" xlink:href="#DejaVuSans-32"/><use x="166.2" xlink:href="#DejaVuSans-48"/><use x="229.8" xlink:href="#DejaVuSans-93"/></g><path d="M337 57.8h22V50h-22z" fill="#2ca02c" opacity=".4" stroke="#fff" id="patch_13"/><g id="text_11"><defs><path d="M19.2 8.3h34.4V0H7.3v8.3l15.3 15.6q9.7 9.8 12.2 12.6 4.7 5.3 6.6 9 2 3.7 2 7.3 0 5.8-4.2 9.5-4 3.6-10.6 3.6-4.6 0-9.8-1.6-5.1-1.6-11-4.9v10q6 2.4 11.1 3.6 5.2 1.2 9.5 1.2 11.4 0 18-5.7 6.8-5.6 6.8-15 0-4.6-1.7-8.6-1.6-4-6-9.5l-7.9-8.2L19.2 8.3z" id="DejaVuSans-50"/></defs><g transform="matrix(.11 0 0 -.11 367.8 57.8)" fill="#262626"><use xlink:href="#DejaVuSans-91"/><use x="39" xlink:href="#DejaVuSans-50"/><use x="102.6" xlink:href="#DejaVuSans-44"/><use x="134.4" xlink:href="#DejaVuSans-32"/><use x="166.2" xlink:href="#DejaVuSans-48"/><use x="229.8" xlink:href="#DejaVuSans-93"/></g></g></g></g><g id="axes_2"><path d="M13.2 232.8h394v-88h-394z" fill="#eaeaf2" id="patch_14"/><g id="matplotlib.axis_2"><g id="xtick_8"><path clip-path="url(#p8966f34f97)" d="M35.4 232.8v-88" fill="none" stroke="#fff" stroke-linecap="round" id="line2d_8"/><g transform="matrix(.11 0 0 -.11 26.7 250.6)" fill="#262626" id="text_12"><use xlink:href="#DejaVuSans-48"/><use x="63.6" xlink:href="#DejaVuSans-46"/><use x="95.4" xlink:href="#DejaVuSans-48"/></g></g><g id="xtick_9"><path clip-path="url(#p8966f34f97)" d="M97.7 232.8v-88" fill="none" stroke="#fff" stroke-linecap="round" id="line2d_9"/><g transform="matrix(.11 0 0 -.11 89 250.6)" fill="#262626" id="text_13"><use xlink:href="#DejaVuSans-48"/><use x="63.6" xlink:href="#DejaVuSans-46"/><use x="95.4" xlink:href="#DejaVuSans-50"/></g></g><g id="xtick_10"><path clip-path="url(#p8966f34f97)" d="M159.9 232.8v-88" fill="none" stroke="#fff" stroke-linecap="round" id="line2d_10"/><g id="text_14"><defs><path d="M37.8 64.3l-25-39h25zM35.2 73h12.4V25.4H58v-8.2H47.6V0h-9.8v17.2h-33v9.5z" id="DejaVuSans-52"/></defs><g transform="matrix(.11 0 0 -.11 151.2 250.6)" fill="#262626"><use xlink:href="#DejaVuSans-48"/><use x="63.6" xlink:href="#DejaVuSans-46"/><use x="95.4" xlink:href="#DejaVuSans-52"/></g></g></g><g id="xtick_11"><path clip-path="url(#p8966f34f97)" d="M222.1 232.8v-88" fill="none" stroke="#fff" stroke-linecap="round" id="line2d_11"/><g id="text_15"><defs><path d="M33 40.4q-6.6 0-10.5-4.6-3.9-4.5-3.9-12.4T22.5 11Q26.4 6.4 33 6.4q6.7 0 10.5 4.6 4 4.5 4 12.4t-4 12.4q-3.8 4.6-10.5 4.6zm19.6 30.9v-9Q48.9 64.1 45 65q-3.8 1-7.5 1-9.8 0-15-6.7-5-6.6-5.8-19.9 2.9 4.3 7.2 6.5 4.4 2.3 9.6 2.3 11 0 17.4-6.7 6.3-6.6 6.3-18.1 0-11.2-6.6-18Q44-1.4 33-1.4q-12.6 0-19.3 9.7Q7 18 7 36.3 7 53.8 15.2 64q8.2 10.3 22 10.3 3.7 0 7.5-.7 3.8-.8 7.9-2.2z" id="DejaVuSans-54"/></defs><g transform="matrix(.11 0 0 -.11 213.4 250.6)" fill="#262626"><use xlink:href="#DejaVuSans-48"/><use x="63.6" xlink:href="#DejaVuSans-46"/><use x="95.4" xlink:href="#DejaVuSans-54"/></g></g></g><g id="xtick_12"><path clip-path="url(#p8966f34f97)" d="M284.4 232.8v-88" fill="none" stroke="#fff" stroke-linecap="round" id="line2d_12"/><g id="text_16"><defs><path d="M31.8 34.6q-7 0-11-3.7-4.1-3.8-4.1-10.4 0-6.6 4-10.3 4-3.8 11-3.8 7.1 0 11.2 3.8 4 3.8 4 10.3 0 6.6-4 10.4-4 3.7-11.1 3.7zm-9.9 4.2q-6.3 1.6-9.9 6Q8.5 49 8.5 55.2q0 8.8 6.2 13.8 6.3 5.1 17 5.1 11 0 17.2-5Q55 64 55 55.2q0-6.2-3.6-10.6-3.5-4.3-9.8-5.9 7.1-1.6 11.1-6.5 4-4.8 4-11.8 0-10.6-6.5-16.3-6.5-5.6-18.5-5.6T13.2 4.2Q6.8 10 6.8 20.5q0 7 4 11.8 4 4.9 11.1 6.5zm-3.6 15.6q0-5.7 3.5-8.8 3.6-3.2 10-3.2 6.3 0 10 3.2 3.5 3.1 3.5 8.8 0 5.7-3.6 8.8-3.6 3.2-10 3.2-6.3 0-9.9-3.2-3.5-3.1-3.5-8.8z" id="DejaVuSans-56"/></defs><g transform="matrix(.11 0 0 -.11 275.6 250.6)" fill="#262626"><use xlink:href="#DejaVuSans-48"/><use x="63.6" xlink:href="#DejaVuSans-46"/><use x="95.4" xlink:href="#DejaVuSans-56"/></g></g></g><g id="xtick_13"><path clip-path="url(#p8966f34f97)" d="M346.6 232.8v-88" fill="none" stroke="#fff" stroke-linecap="round" id="line2d_13"/><g transform="matrix(.11 0 0 -.11 337.9 250.6)" fill="#262626" id="text_17"><use xlink:href="#DejaVuSans-49"/><use x="63.6" xlink:href="#DejaVuSans-46"/><use x="95.4" xlink:href="#DejaVuSans-48"/></g></g><g id="text_18"><defs><path d="M19.7 34.8V8.1h15.8q8 0 11.8 3.3 3.8 3.3 3.8 10 0 7-3.8 10.2-3.8 3.2-11.8 3.2zm0 30v-22h14.6q7.2 0 10.7 2.7 3.6 2.8 3.6 8.3 0 5.5-3.6 8.3-3.5 2.7-10.7 2.7zm-9.9 8.1H35q11.3 0 17.4-4.7 6.1-4.7 6.1-13.3 0-6.7-3.1-10.7-3.1-4-9.2-4.9 7.3-1.5 11.3-6.5 4-5 4-12.4 0-9.8-6.6-15Q48.3 0 35.9 0H10z" id="DejaVuSans-66"/><path d="M34.3 27.5q-11 0-15.1-2.5-4.2-2.5-4.2-8.5 0-4.8 3.1-7.6 3.2-2.8 8.6-2.8 7.5 0 12 5.3t4.5 14v2zm17.9 3.7V0h-9v8.3q-3-5-7.7-7.3Q31-1.4 24.3-1.4 16-1.4 11 3.3 6 8 6 15.9q0 9.2 6.2 14 6.2 4.6 18.4 4.6h12.6v1q0 6.1-4 9.5-4.1 3.4-11.5 3.4-4.7 0-9.2-1.1-4.4-1.2-8.5-3.4v8.3q5 2 9.6 2.8 4.6 1 9 1 11.9 0 17.7-6.2 5.9-6.1 5.9-18.6z" id="DejaVuSans-97"/></defs><g transform="matrix(.12 0 0 -.12 197.7 266)" fill="#262626"><use xlink:href="#DejaVuSans-66"/><use x="68.6" xlink:href="#DejaVuSans-105"/><use x="96.4" xlink:href="#DejaVuSans-97"/><use x="157.7" xlink:href="#DejaVuSans-115"/></g></g></g><path clip-path="url(#p8966f34f97)" d="M31.1 228.8H57l.6-.1H69.2l.5-.1H77.4l.5-.1H82.6l.6-.1h4.1l.6-.1h2.9l.6-.1h2.3l.6-.1H96.1l.6-.1H98.4l.6-.1h.6l.6-.1h1.2l.5-.1h.6l.6-.1h.6l.6-.1.6-.1h.6l.5-.1.6-.1h.6l.6-.2h.6l.6-.1.6-.1.5-.1.6-.1.6-.1.6-.2h.6l.6-.2.6-.1.5-.2.6-.1.6-.1.6-.2.6-.2.6-.1.5-.2.6-.2.6-.1.6-.2.6-.2.6-.2.6-.2.5-.2.6-.3.6-.2.6-.2.6-.2.6-.3.6-.3.5-.2.6-.3.6-.3.6-.2.6-.3.6-.3.6-.3.5-.4.6-.3.6-.3.6-.4.6-.3.6-.4.6-.3.5-.4.6-.4.6-.4.6-.4.6-.4.6-.4.6-.4.5-.4.6-.5.6-.4.6-.5.6-.4.6-.5.6-.5.5-.5.6-.5.6-.5.6-.5.6-.5.6-.5.5-.6.6-.5.6-.6.6-.5.6-.6.6-.5.6-.6.5-.6.6-.6.6-.6.6-.5.6-.7.6-.6.6-.6.5-.6.6-.6.6-.7.6-.6.6-.6.6-.7.6-.6.5-.7.6-.7.6-.6.6-.7.6-.7.6-.7.6-.7.5-.7.6-.7.6-.7.6-.7.6-.8.6-.7.6-.7.5-.8.6-.7.6-.8.6-.7.6-.8.6-.8.5-.7.6-.8.6-.8.6-.8.6-.8.6-.8.6-.7.5-.8.6-.8.6-.8.6-.8.6-.8.6-.8.6-.7.5-.8.6-.8.6-.7.6-.8.6-.7.6-.8.6-.7.5-.7.6-.7.6-.7.6-.7.6-.7.6-.7.6-.6.5-.6.6-.7.6-.6.6-.6.6-.5.6-.6.6-.5.5-.5.6-.6.6-.4.6-.5.6-.5.6-.4.5-.4.6-.4.6-.4.6-.4.6-.4.6-.3.6-.3.5-.3.6-.3.6-.3.6-.2.6-.3.6-.2.6-.2.5-.1.6-.2.6-.1.6-.1.6-.1h.6l.6-.1H209l.6.2h.5l.6.2.6.2.6.1.6.2.6.3.6.2.5.2.6.3.6.3.6.3.6.3.6.4.5.3.6.4.6.4.6.4.6.4.6.4.6.4.5.5.6.5.6.5.6.5.6.5.6.5.6.5.5.6.6.5.6.6.6.6.6.6.6.6.6.6.5.6.6.6.6.7.6.6.6.7.6.7.6.6.5.7.6.7.6.7.6.7.6.7.6.7.6.8.5.7.6.7.6.8.6.7.6.7.6.8.6.7.5.7.6.8.6.7.6.7.6.8.6.7.5.7.6.8.6.7.6.7.6.7.6.8.6.7.5.7.6.7.6.7.6.7.6.7.6.7.6.7.5.7.6.7.6.7.6.6.6.7.6.7.6.7.5.6.6.7.6.6.6.7.6.6.6.7.6.6.5.7.6.6.6.6.6.6.6.6.6.6.6.6.5.6.6.6.6.6.6.5.6.6.6.5.5.6.6.5.6.5.6.6.6.5.6.5.6.4.5.5.6.5.6.4.6.5.6.4.6.5.6.4.5.4.6.4.6.4.6.4.6.3.6.4.6.4.5.3.6.3.6.4.6.3.6.3.6.3.6.3.5.3.6.2.6.3.6.3.6.2.6.3.6.2.5.3.6.2.6.2.6.2.6.2.6.2.5.2.6.2.6.2.6.2.6.2.6.2.6.1.5.2.6.2.6.1.6.2.6.1.6.2.6.1.5.1.6.2.6.1.6.1.6.1.6.2h.6l.5.2h.6l.6.2h.6l.6.2h.6l.6.2h.5l.6.1.6.1h.6l.6.1.6.1h.6l.5.1.6.1h.6l.6.1h.6l.6.1h1.1l.6.1h.6l.6.1h1.2l.5.1h1.2l.6.1H325.6l.5.1H328l.6.1h2.9l.6.1H337.9l.5.1H389.4z" fill="#1f77b4" opacity=".4" stroke="#fff" id="patch_15"/><path clip-path="url(#p8966f34f97)" d="M148.8 228.8v-23.3l.6-.6.5-.6.6-.6.6-.6.6-.5.6-.7.6-.6.6-.6.5-.6.6-.6.6-.7.6-.6.6-.6.6-.7.6-.6.5-.7.6-.7.6-.6.6-.7.6-.7.6-.7.6-.7.5-.7.6-.7.6-.7.6-.7.6-.8.6-.7.6-.7.5-.8.6-.7.6-.8.6-.7.6-.8.6-.8.5-.7.6-.8.6-.8.6-.8.6-.8.6-.8.6-.7.5-.8.6-.8.6-.8.6-.8.6-.8.6-.8.6-.7.5-.8.6-.8.6-.7.6-.8.6-.7.6-.8.6-.7.5-.7.6-.7.6-.7.6-.7.6-.7.6-.7.6-.6.5-.6.6-.7.6-.6.6-.6.6-.5.6-.6.6-.5.5-.5.6-.6.6-.4.6-.5.6-.5.6-.4.5-.4.6-.4.6-.4.6-.4.6-.4.6-.3.6-.3.5-.3.6-.3.6-.3.6-.2.6-.3.6-.2.6-.2.5-.1.6-.2.6-.1.6-.1.6-.1h.6l.6-.1H209l.6.2h.5l.6.2.6.2.6.1.6.2.6.3.6.2.5.2.6.3.6.3.6.3.6.3.6.4.5.3.6.4.6.4.6.4.6.4.6.4.6.4.5.5.6.5.6.5.6.5.6.5.6.5.6.5.5.6.6.5.6.6.6.6.6.6.6.6.6.6.5.6.6.6.6.7.6.6.6.7.6.7.6.6.5.7.6.7.6.7.6.7.6.7.6.7.6.8.5.7.6.7.6.8.6.7.6.7.6.8.6.7.5.7.6.8.6.7.6.7.6.8.6.7.5.7.6.8.6.7.6.7.6.7.6.8.6.7.5.7.6.7.6.7.6.7.6.7.6.7.6.7.5.7.6.7.6.7.6.6.6.7.6.7.6.7.5.6.6.7.6.6.6.7.6.6.6.7.6.6.5.7.6.6.6.6.6.6.6.6.6.6v24.5z" fill="#1f77b4" opacity=".4" stroke="#fff" id="patch_16"/><path d="M13.2 232.8h394" fill="none" stroke="#fff" stroke-linecap="square" stroke-width="1.3" id="patch_17"/></g></g><defs><clipPath id="pd0214ef202"><path d="M13.2 7.2h394.1v88.1H13.2z"/></clipPath><clipPath id="p8966f34f97"><path d="M13.2 144.7h394.1v88.1H13.2z"/></clipPath></defs></svg>