<?xml version="1.0" encoding="utf-8" standalone="no"?>
<!DOCTYPE svg PUBLIC "-//W3C//DTD SVG 1.1//EN"
  "http://www.w3.org/Graphics/SVG/1.1/DTD/svg11.dtd">
<!-- Created with matplotlib (https://matplotlib.org/) -->
<svg height="203.739688pt" version="1.1" viewBox="0 0 563.185156 203.739688" width="563.185156pt" xmlns="http://www.w3.org/2000/svg" xmlns:xlink="http://www.w3.org/1999/xlink">
 <defs>
  <style type="text/css">
*{stroke-linecap:butt;stroke-linejoin:round;}
  </style>
 </defs>
 <g id="figure_1">
  <g id="patch_1">
   <path d="M 0 203.739688 
L 563.185156 203.739688 
L 563.185156 0 
L 0 0 
z
" style="fill:#ffffff;"/>
  </g>
  <g id="axes_1">
   <g id="patch_2">
    <path d="M 48.530156 160.78 
L 174.625156 160.78 
L 174.625156 13.2 
L 48.530156 13.2 
z
" style="fill:#eaeaf2;"/>
   </g>
   <g id="matplotlib.axis_1">
    <g id="xtick_1">
     <g id="text_1">
      <!-- 0.0 -->
      <defs>
       <path d="M 31.78125 66.40625 
Q 24.171875 66.40625 20.328125 58.90625 
Q 16.5 51.421875 16.5 36.375 
Q 16.5 21.390625 20.328125 13.890625 
Q 24.171875 6.390625 31.78125 6.390625 
Q 39.453125 6.390625 43.28125 13.890625 
Q 47.125 21.390625 47.125 36.375 
Q 47.125 51.421875 43.28125 58.90625 
Q 39.453125 66.40625 31.78125 66.40625 
z
M 31.78125 74.21875 
Q 44.046875 74.21875 50.515625 64.515625 
Q 56.984375 54.828125 56.984375 36.375 
Q 56.984375 17.96875 50.515625 8.265625 
Q 44.046875 -1.421875 31.78125 -1.421875 
Q 19.53125 -1.421875 13.0625 8.265625 
Q 6.59375 17.96875 6.59375 36.375 
Q 6.59375 54.828125 13.0625 64.515625 
Q 19.53125 74.21875 31.78125 74.21875 
z
" id="DejaVuSans-48"/>
       <path d="M 10.6875 12.40625 
L 21 12.40625 
L 21 0 
L 10.6875 0 
z
" id="DejaVuSans-46"/>
      </defs>
      <g style="fill:#262626;" transform="translate(71.307187 178.638281)scale(0.11 -0.11)">
       <use xlink:href="#DejaVuSans-48"/>
       <use x="63.623047" xlink:href="#DejaVuSans-46"/>
       <use x="95.410156" xlink:href="#DejaVuSans-48"/>
      </g>
     </g>
    </g>
    <g id="xtick_2">
     <g id="text_2">
      <!-- 1.0 -->
      <defs>
       <path d="M 12.40625 8.296875 
L 28.515625 8.296875 
L 28.515625 63.921875 
L 10.984375 60.40625 
L 10.984375 69.390625 
L 28.421875 72.90625 
L 38.28125 72.90625 
L 38.28125 8.296875 
L 54.390625 8.296875 
L 54.390625 0 
L 12.40625 0 
z
" id="DejaVuSans-49"/>
      </defs>
      <g style="fill:#262626;" transform="translate(134.354688 178.638281)scale(0.11 -0.11)">
       <use xlink:href="#DejaVuSans-49"/>
       <use x="63.623047" xlink:href="#DejaVuSans-46"/>
       <use x="95.410156" xlink:href="#DejaVuSans-48"/>
      </g>
     </g>
    </g>
    <g id="text_3">
     <!-- y -->
     <defs>
      <path d="M 32.171875 -5.078125 
Q 28.375 -14.84375 24.75 -17.8125 
Q 21.140625 -20.796875 15.09375 -20.796875 
L 7.90625 -20.796875 
L 7.90625 -13.28125 
L 13.1875 -13.28125 
Q 16.890625 -13.28125 18.9375 -11.515625 
Q 21 -9.765625 23.484375 -3.21875 
L 25.09375 0.875 
L 2.984375 54.6875 
L 12.5 54.6875 
L 29.59375 11.921875 
L 46.6875 54.6875 
L 56.203125 54.6875 
z
" id="DejaVuSans-121"/>
     </defs>
     <g style="fill:#262626;" transform="translate(108.026406 194.044063)scale(0.12 -0.12)">
      <use xlink:href="#DejaVuSans-121"/>
     </g>
    </g>
   </g>
   <g id="matplotlib.axis_2">
    <g id="ytick_1">
     <g id="line2d_1">
      <path clip-path="url(#p335b922a4c)" d="M 48.530156 160.08806 
L 174.625156 160.08806 
" style="fill:none;stroke:#ffffff;stroke-linecap:round;"/>
     </g>
     <g id="text_4">
      <!-- −4 -->
      <defs>
       <path d="M 10.59375 35.5 
L 73.1875 35.5 
L 73.1875 27.203125 
L 10.59375 27.203125 
z
" id="DejaVuSans-8722"/>
       <path d="M 37.796875 64.3125 
L 12.890625 25.390625 
L 37.796875 25.390625 
z
M 35.203125 72.90625 
L 47.609375 72.90625 
L 47.609375 25.390625 
L 58.015625 25.390625 
L 58.015625 17.1875 
L 47.609375 17.1875 
L 47.609375 0 
L 37.796875 0 
L 37.796875 17.1875 
L 4.890625 17.1875 
L 4.890625 26.703125 
z
" id="DejaVuSans-52"/>
      </defs>
      <g style="fill:#262626;" transform="translate(22.81375 164.2672)scale(0.11 -0.11)">
       <use xlink:href="#DejaVuSans-8722"/>
       <use x="83.789062" xlink:href="#DejaVuSans-52"/>
      </g>
     </g>
    </g>
    <g id="ytick_2">
     <g id="line2d_2">
      <path clip-path="url(#p335b922a4c)" d="M 48.530156 122.433054 
L 174.625156 122.433054 
" style="fill:none;stroke:#ffffff;stroke-linecap:round;"/>
     </g>
     <g id="text_5">
      <!-- −2 -->
      <defs>
       <path d="M 19.1875 8.296875 
L 53.609375 8.296875 
L 53.609375 0 
L 7.328125 0 
L 7.328125 8.296875 
Q 12.9375 14.109375 22.625 23.890625 
Q 32.328125 33.6875 34.8125 36.53125 
Q 39.546875 41.84375 41.421875 45.53125 
Q 43.3125 49.21875 43.3125 52.78125 
Q 43.3125 58.59375 39.234375 62.25 
Q 35.15625 65.921875 28.609375 65.921875 
Q 23.96875 65.921875 18.8125 64.3125 
Q 13.671875 62.703125 7.8125 59.421875 
L 7.8125 69.390625 
Q 13.765625 71.78125 18.9375 73 
Q 24.125 74.21875 28.421875 74.21875 
Q 39.75 74.21875 46.484375 68.546875 
Q 53.21875 62.890625 53.21875 53.421875 
Q 53.21875 48.921875 51.53125 44.890625 
Q 49.859375 40.875 45.40625 35.40625 
Q 44.1875 33.984375 37.640625 27.21875 
Q 31.109375 20.453125 19.1875 8.296875 
z
" id="DejaVuSans-50"/>
      </defs>
      <g style="fill:#262626;" transform="translate(22.81375 126.612195)scale(0.11 -0.11)">
       <use xlink:href="#DejaVuSans-8722"/>
       <use x="83.789062" xlink:href="#DejaVuSans-50"/>
      </g>
     </g>
    </g>
    <g id="ytick_3">
     <g id="line2d_3">
      <path clip-path="url(#p335b922a4c)" d="M 48.530156 84.778049 
L 174.625156 84.778049 
" style="fill:none;stroke:#ffffff;stroke-linecap:round;"/>
     </g>
     <g id="text_6">
      <!-- 0 -->
      <g style="fill:#262626;" transform="translate(32.031406 88.957189)scale(0.11 -0.11)">
       <use xlink:href="#DejaVuSans-48"/>
      </g>
     </g>
    </g>
    <g id="ytick_4">
     <g id="line2d_4">
      <path clip-path="url(#p335b922a4c)" d="M 48.530156 47.123043 
L 174.625156 47.123043 
" style="fill:none;stroke:#ffffff;stroke-linecap:round;"/>
     </g>
     <g id="text_7">
      <!-- 2 -->
      <g style="fill:#262626;" transform="translate(32.031406 51.302184)scale(0.11 -0.11)">
       <use xlink:href="#DejaVuSans-50"/>
      </g>
     </g>
    </g>
    <g id="text_8">
     <!-- x0 -->
     <defs>
      <path d="M 54.890625 54.6875 
L 35.109375 28.078125 
L 55.90625 0 
L 45.3125 0 
L 29.390625 21.484375 
L 13.484375 0 
L 2.875 0 
L 24.125 28.609375 
L 4.6875 54.6875 
L 15.28125 54.6875 
L 29.78125 35.203125 
L 44.28125 54.6875 
z
" id="DejaVuSans-120"/>
     </defs>
     <g style="fill:#262626;" transform="translate(16.318125 94.35875)rotate(-90)scale(0.12 -0.12)">
      <use xlink:href="#DejaVuSans-120"/>
      <use x="59.179688" xlink:href="#DejaVuSans-48"/>
     </g>
    </g>
   </g>
   <g id="PolyCollection_1">
    <defs>
     <path d="M 80.092211 -49.667869 
L 80.015602 -49.667869 
L 79.987595 -50.877649 
L 79.945649 -52.087429 
L 79.887096 -53.297209 
L 79.811095 -54.506989 
L 79.719678 -55.716768 
L 79.618275 -56.926548 
L 79.515273 -58.136328 
L 79.42039 -59.346108 
L 79.342106 -60.555888 
L 79.284858 -61.765667 
L 79.246988 -62.975447 
L 79.220258 -64.185227 
L 79.191212 -65.395007 
L 79.143901 -66.604787 
L 79.063005 -67.814567 
L 78.936316 -69.024346 
L 78.75602 -70.234126 
L 78.51876 -71.443906 
L 78.224754 -72.653686 
L 77.87627 -73.863466 
L 77.475601 -75.073245 
L 77.022796 -76.283025 
L 76.513703 -77.492805 
L 75.939158 -78.702585 
L 75.285973 -79.912365 
L 74.539661 -81.122144 
L 73.68803 -82.331924 
L 72.724406 -83.541704 
L 71.64957 -84.751484 
L 70.472358 -85.961264 
L 69.209575 -87.171044 
L 67.885838 -88.380823 
L 66.533197 -89.590603 
L 65.189462 -90.800383 
L 63.894058 -92.010163 
L 62.681318 -93.219943 
L 61.57302 -94.429722 
L 60.573324 -95.639502 
L 59.669071 -96.849282 
L 58.836315 -98.059062 
L 58.051173 -99.268842 
L 57.300994 -100.478621 
L 56.591715 -101.688401 
L 55.948952 -102.898181 
L 55.412809 -104.107961 
L 55.028401 -105.317741 
L 54.834906 -106.527521 
L 54.855889 -107.7373 
L 55.092987 -108.94708 
L 55.524328 -110.15686 
L 56.108078 -111.36664 
L 56.790349 -112.57642 
L 57.515446 -113.786199 
L 58.235716 -114.995979 
L 58.918544 -116.205759 
L 59.549375 -117.415539 
L 60.131301 -118.625319 
L 60.682805 -119.835098 
L 61.234891 -121.044878 
L 61.827519 -122.254658 
L 62.50413 -123.464438 
L 63.30331 -124.674218 
L 64.248583 -125.883998 
L 65.339596 -127.093777 
L 66.548767 -128.303557 
L 67.825774 -129.513337 
L 69.108858 -130.723117 
L 70.338814 -131.932897 
L 71.470659 -133.142676 
L 72.479618 -134.352456 
L 73.360918 -135.562236 
L 74.125227 -136.772016 
L 74.792295 -137.981796 
L 75.384787 -139.191575 
L 75.923296 -140.401355 
L 76.422911 -141.611135 
L 76.891508 -142.820915 
L 77.329864 -144.030695 
L 77.733412 -145.240475 
L 78.095049 -146.450254 
L 78.408158 -147.660034 
L 78.66903 -148.869814 
L 78.878209 -150.079594 
L 79.040649 -151.289374 
L 79.164841 -152.499153 
L 79.261253 -153.708933 
L 79.340495 -154.918713 
L 79.411639 -156.128493 
L 79.481086 -157.338273 
L 79.552153 -158.548052 
L 79.625336 -159.757832 
L 79.699029 -160.967612 
L 79.770425 -162.177392 
L 79.836398 -163.387172 
L 79.894243 -164.596952 
L 79.942191 -165.806731 
L 79.979647 -167.016511 
L 80.007152 -168.226291 
L 80.026096 -169.436071 
L 80.081717 -169.436071 
L 80.081717 -169.436071 
L 80.10066 -168.226291 
L 80.128165 -167.016511 
L 80.165622 -165.806731 
L 80.213569 -164.596952 
L 80.271415 -163.387172 
L 80.337388 -162.177392 
L 80.408783 -160.967612 
L 80.482476 -159.757832 
L 80.55566 -158.548052 
L 80.626727 -157.338273 
L 80.696174 -156.128493 
L 80.767317 -154.918713 
L 80.846559 -153.708933 
L 80.942972 -152.499153 
L 81.067164 -151.289374 
L 81.229603 -150.079594 
L 81.438783 -148.869814 
L 81.699654 -147.660034 
L 82.012763 -146.450254 
L 82.374401 -145.240475 
L 82.777949 -144.030695 
L 83.216305 -142.820915 
L 83.684901 -141.611135 
L 84.184516 -140.401355 
L 84.723025 -139.191575 
L 85.315517 -137.981796 
L 85.982585 -136.772016 
L 86.746894 -135.562236 
L 87.628194 -134.352456 
L 88.637153 -133.142676 
L 89.768999 -131.932897 
L 90.998954 -130.723117 
L 92.282039 -129.513337 
L 93.559046 -128.303557 
L 94.768217 -127.093777 
L 95.85923 -125.883998 
L 96.804502 -124.674218 
L 97.603682 -123.464438 
L 98.280293 -122.254658 
L 98.872921 -121.044878 
L 99.425007 -119.835098 
L 99.976512 -118.625319 
L 100.558438 -117.415539 
L 101.189268 -116.205759 
L 101.872097 -114.995979 
L 102.592367 -113.786199 
L 103.317464 -112.57642 
L 103.999735 -111.36664 
L 104.583485 -110.15686 
L 105.014825 -108.94708 
L 105.251923 -107.7373 
L 105.272906 -106.527521 
L 105.079412 -105.317741 
L 104.695003 -104.107961 
L 104.158861 -102.898181 
L 103.516097 -101.688401 
L 102.806819 -100.478621 
L 102.05664 -99.268842 
L 101.271497 -98.059062 
L 100.438741 -96.849282 
L 99.534488 -95.639502 
L 98.534793 -94.429722 
L 97.426495 -93.219943 
L 96.213755 -92.010163 
L 94.91835 -90.800383 
L 93.574616 -89.590603 
L 92.221975 -88.380823 
L 90.898238 -87.171044 
L 89.635454 -85.961264 
L 88.458242 -84.751484 
L 87.383406 -83.541704 
L 86.419783 -82.331924 
L 85.568152 -81.122144 
L 84.821839 -79.912365 
L 84.168655 -78.702585 
L 83.59411 -77.492805 
L 83.085016 -76.283025 
L 82.632211 -75.073245 
L 82.231543 -73.863466 
L 81.883058 -72.653686 
L 81.589052 -71.443906 
L 81.351792 -70.234126 
L 81.171497 -69.024346 
L 81.044807 -67.814567 
L 80.963911 -66.604787 
L 80.916601 -65.395007 
L 80.887554 -64.185227 
L 80.860825 -62.975447 
L 80.822955 -61.765667 
L 80.765707 -60.555888 
L 80.687422 -59.346108 
L 80.59254 -58.136328 
L 80.489538 -56.926548 
L 80.388135 -55.716768 
L 80.296718 -54.506989 
L 80.220717 -53.297209 
L 80.162164 -52.087429 
L 80.120217 -50.877649 
L 80.092211 -49.667869 
z
" id="m659957c9fe" style="stroke:#4c4c4c;stroke-width:1.5;"/>
    </defs>
    <g clip-path="url(#p335b922a4c)">
     <use style="fill:#5875a4;stroke:#4c4c4c;stroke-width:1.5;" x="0" xlink:href="#m659957c9fe" y="203.739688"/>
    </g>
   </g>
   <g id="PolyCollection_2">
    <defs>
     <path d="M 143.132629 -73.103263 
L 143.070183 -73.103263 
L 143.049834 -74.22173 
L 143.020392 -75.340197 
L 142.980196 -76.458664 
L 142.928391 -77.577131 
L 142.865323 -78.695598 
L 142.792736 -79.814065 
L 142.713622 -80.932533 
L 142.631686 -82.051 
L 142.550463 -83.169467 
L 142.472209 -84.287934 
L 142.396766 -85.406401 
L 142.320587 -86.524868 
L 142.236164 -87.643335 
L 142.132058 -88.761802 
L 141.993722 -89.880269 
L 141.805158 -90.998736 
L 141.551238 -92.117204 
L 141.220204 -93.235671 
L 140.805611 -94.354138 
L 140.307004 -95.472605 
L 139.728914 -96.591072 
L 139.078455 -97.709539 
L 138.362432 -98.828006 
L 137.585306 -99.946473 
L 136.749055 -101.06494 
L 135.855162 -102.183407 
L 134.907854 -103.301875 
L 133.916945 -104.420342 
L 132.898676 -105.538809 
L 131.873842 -106.657276 
L 130.863786 -107.775743 
L 129.885852 -108.89421 
L 128.949998 -110.012677 
L 128.057586 -111.131144 
L 127.202218 -112.249611 
L 126.371794 -113.368078 
L 125.550952 -114.486546 
L 124.72364 -115.605013 
L 123.87617 -116.72348 
L 123.001104 -117.841947 
L 122.1017 -118.960414 
L 121.195668 -120.078881 
L 120.316441 -121.197348 
L 119.510337 -122.315815 
L 118.829175 -123.434282 
L 118.319495 -124.552749 
L 118.011182 -125.671217 
L 117.909126 -126.789684 
L 117.991267 -127.908151 
L 118.214664 -129.026618 
L 118.528511 -130.145085 
L 118.890207 -131.263552 
L 119.278888 -132.382019 
L 119.701205 -133.500486 
L 120.186825 -134.618953 
L 120.775046 -135.73742 
L 121.497486 -136.855888 
L 122.363313 -137.974355 
L 123.352355 -139.092822 
L 124.418228 -140.211289 
L 125.499918 -141.329756 
L 126.537489 -142.448223 
L 127.486754 -143.56669 
L 128.32871 -144.685157 
L 129.071601 -145.803624 
L 129.745846 -146.922091 
L 130.393889 -148.040559 
L 131.058121 -149.159026 
L 131.770053 -150.277493 
L 132.543223 -151.39596 
L 133.371083 -152.514427 
L 134.229766 -153.632894 
L 135.08455 -154.751361 
L 135.898178 -155.869828 
L 136.639022 -156.988295 
L 137.287323 -158.106762 
L 137.838305 -159.225229 
L 138.301732 -160.343697 
L 138.698315 -161.462164 
L 139.054056 -162.580631 
L 139.394033 -163.699098 
L 139.737133 -164.817565 
L 140.092898 -165.936032 
L 140.460973 -167.054499 
L 140.832956 -168.172966 
L 141.195852 -169.291433 
L 141.535957 -170.4099 
L 141.842125 -171.528368 
L 142.107665 -172.646835 
L 142.330697 -173.765302 
L 142.513276 -174.883769 
L 142.65988 -176.002236 
L 142.775895 -177.120703 
L 142.866521 -178.23917 
L 142.936252 -179.357637 
L 142.988815 -180.476104 
L 143.027351 -181.594571 
L 143.054623 -182.713039 
L 143.07313 -183.831506 
L 143.129682 -183.831506 
L 143.129682 -183.831506 
L 143.148189 -182.713039 
L 143.175462 -181.594571 
L 143.213997 -180.476104 
L 143.26656 -179.357637 
L 143.336291 -178.23917 
L 143.426917 -177.120703 
L 143.542932 -176.002236 
L 143.689536 -174.883769 
L 143.872115 -173.765302 
L 144.095147 -172.646835 
L 144.360687 -171.528368 
L 144.666855 -170.4099 
L 145.006961 -169.291433 
L 145.369856 -168.172966 
L 145.74184 -167.054499 
L 146.109914 -165.936032 
L 146.46568 -164.817565 
L 146.80878 -163.699098 
L 147.148756 -162.580631 
L 147.504497 -161.462164 
L 147.901081 -160.343697 
L 148.364508 -159.225229 
L 148.915489 -158.106762 
L 149.56379 -156.988295 
L 150.304635 -155.869828 
L 151.118263 -154.751361 
L 151.973047 -153.632894 
L 152.83173 -152.514427 
L 153.65959 -151.39596 
L 154.43276 -150.277493 
L 155.144691 -149.159026 
L 155.808923 -148.040559 
L 156.456967 -146.922091 
L 157.131211 -145.803624 
L 157.874103 -144.685157 
L 158.716058 -143.56669 
L 159.665324 -142.448223 
L 160.702895 -141.329756 
L 161.784585 -140.211289 
L 162.850458 -139.092822 
L 163.839499 -137.974355 
L 164.705327 -136.855888 
L 165.427767 -135.73742 
L 166.015987 -134.618953 
L 166.501607 -133.500486 
L 166.923924 -132.382019 
L 167.312605 -131.263552 
L 167.674302 -130.145085 
L 167.988148 -129.026618 
L 168.211545 -127.908151 
L 168.293687 -126.789684 
L 168.19163 -125.671217 
L 167.883317 -124.552749 
L 167.373638 -123.434282 
L 166.692475 -122.315815 
L 165.886372 -121.197348 
L 165.007144 -120.078881 
L 164.101113 -118.960414 
L 163.201708 -117.841947 
L 162.326642 -116.72348 
L 161.479172 -115.605013 
L 160.65186 -114.486546 
L 159.831018 -113.368078 
L 159.000594 -112.249611 
L 158.145226 -111.131144 
L 157.252814 -110.012677 
L 156.316961 -108.89421 
L 155.339026 -107.775743 
L 154.328971 -106.657276 
L 153.304136 -105.538809 
L 152.285868 -104.420342 
L 151.294959 -103.301875 
L 150.347651 -102.183407 
L 149.453758 -101.06494 
L 148.617506 -99.946473 
L 147.84038 -98.828006 
L 147.124358 -97.709539 
L 146.473898 -96.591072 
L 145.895809 -95.472605 
L 145.397201 -94.354138 
L 144.982608 -93.235671 
L 144.651574 -92.117204 
L 144.397655 -90.998736 
L 144.209091 -89.880269 
L 144.070754 -88.761802 
L 143.966649 -87.643335 
L 143.882225 -86.524868 
L 143.806047 -85.406401 
L 143.730604 -84.287934 
L 143.65235 -83.169467 
L 143.571126 -82.051 
L 143.48919 -80.932533 
L 143.410076 -79.814065 
L 143.337489 -78.695598 
L 143.274422 -77.577131 
L 143.222616 -76.458664 
L 143.18242 -75.340197 
L 143.152979 -74.22173 
L 143.132629 -73.103263 
z
" id="m43c4ccc80d" style="stroke:#4c4c4c;stroke-width:1.5;"/>
    </defs>
    <g clip-path="url(#p335b922a4c)">
     <use style="fill:#cc8963;stroke:#4c4c4c;stroke-width:1.5;" x="0" xlink:href="#m43c4ccc80d" y="203.739688"/>
    </g>
   </g>
   <g id="line2d_5">
    <path clip-path="url(#p335b922a4c)" d="M 80.053906 133.635634 
L 80.053906 53.957919 
" style="fill:none;stroke:#4c4c4c;stroke-linecap:round;stroke-width:1.5;"/>
   </g>
   <g id="line2d_6">
    <path clip-path="url(#p335b922a4c)" d="M 80.053906 105.978667 
L 80.053906 83.644439 
" style="fill:none;stroke:#4c4c4c;stroke-linecap:round;stroke-width:4.5;"/>
   </g>
   <g id="line2d_7">
    <path clip-path="url(#p335b922a4c)" d="M 143.101406 116.366172 
L 143.101406 33.274901 
" style="fill:none;stroke:#4c4c4c;stroke-linecap:round;stroke-width:1.5;"/>
   </g>
   <g id="line2d_8">
    <path clip-path="url(#p335b922a4c)" d="M 143.101406 85.678981 
L 143.101406 63.956468 
" style="fill:none;stroke:#4c4c4c;stroke-linecap:round;stroke-width:4.5;"/>
   </g>
   <g id="patch_3">
    <path d="M 48.530156 160.78 
L 48.530156 13.2 
" style="fill:none;stroke:#ffffff;stroke-linecap:square;stroke-linejoin:miter;stroke-width:1.25;"/>
   </g>
   <g id="patch_4">
    <path d="M 174.625156 160.78 
L 174.625156 13.2 
" style="fill:none;stroke:#ffffff;stroke-linecap:square;stroke-linejoin:miter;stroke-width:1.25;"/>
   </g>
   <g id="patch_5">
    <path d="M 48.530156 160.78 
L 174.625156 160.78 
" style="fill:none;stroke:#ffffff;stroke-linecap:square;stroke-linejoin:miter;stroke-width:1.25;"/>
   </g>
   <g id="patch_6">
    <path d="M 48.530156 13.2 
L 174.625156 13.2 
" style="fill:none;stroke:#ffffff;stroke-linecap:square;stroke-linejoin:miter;stroke-width:1.25;"/>
   </g>
   <g id="PathCollection_1">
    <defs>
     <path d="M 0 1.5 
C 0.397805 1.5 0.77937 1.341951 1.06066 1.06066 
C 1.341951 0.77937 1.5 0.397805 1.5 0 
C 1.5 -0.397805 1.341951 -0.77937 1.06066 -1.06066 
C 0.77937 -1.341951 0.397805 -1.5 0 -1.5 
C -0.397805 -1.5 -0.77937 -1.341951 -1.06066 -1.06066 
C -1.341951 -0.77937 -1.5 -0.397805 -1.5 0 
C -1.5 0.397805 -1.341951 0.77937 -1.06066 1.06066 
C -0.77937 1.341951 -0.397805 1.5 0 1.5 
z
" id="m623ad9ad9b" style="stroke:#4c4c4c;"/>
    </defs>
    <g clip-path="url(#p335b922a4c)">
     <use style="fill:#ffffff;stroke:#4c4c4c;" x="80.053906" xlink:href="#m623ad9ad9b" y="95.495759"/>
    </g>
   </g>
   <g id="PathCollection_2">
    <g clip-path="url(#p335b922a4c)">
     <use style="fill:#ffffff;stroke:#4c4c4c;" x="143.101406" xlink:href="#m623ad9ad9b" y="75.294649"/>
    </g>
   </g>
  </g>
  <g id="axes_2">
   <g id="patch_7">
    <path d="M 236.210156 160.78 
L 362.305156 160.78 
L 362.305156 13.2 
L 236.210156 13.2 
z
" style="fill:#eaeaf2;"/>
   </g>
   <g id="matplotlib.axis_3">
    <g id="xtick_3">
     <g id="text_9">
      <!-- 0.0 -->
      <g style="fill:#262626;" transform="translate(258.987188 178.638281)scale(0.11 -0.11)">
       <use xlink:href="#DejaVuSans-48"/>
       <use x="63.623047" xlink:href="#DejaVuSans-46"/>
       <use x="95.410156" xlink:href="#DejaVuSans-48"/>
      </g>
     </g>
    </g>
    <g id="xtick_4">
     <g id="text_10">
      <!-- 1.0 -->
      <g style="fill:#262626;" transform="translate(322.034688 178.638281)scale(0.11 -0.11)">
       <use xlink:href="#DejaVuSans-49"/>
       <use x="63.623047" xlink:href="#DejaVuSans-46"/>
       <use x="95.410156" xlink:href="#DejaVuSans-48"/>
      </g>
     </g>
    </g>
    <g id="text_11">
     <!-- y -->
     <g style="fill:#262626;" transform="translate(295.706406 194.044063)scale(0.12 -0.12)">
      <use xlink:href="#DejaVuSans-121"/>
     </g>
    </g>
   </g>
   <g id="matplotlib.axis_4">
    <g id="ytick_5">
     <g id="line2d_9">
      <path clip-path="url(#p2331f7a15a)" d="M 236.210156 149.046665 
L 362.305156 149.046665 
" style="fill:none;stroke:#ffffff;stroke-linecap:round;"/>
     </g>
     <g id="text_12">
      <!-- −4 -->
      <g style="fill:#262626;" transform="translate(210.49375 153.225806)scale(0.11 -0.11)">
       <use xlink:href="#DejaVuSans-8722"/>
       <use x="83.789062" xlink:href="#DejaVuSans-52"/>
      </g>
     </g>
    </g>
    <g id="ytick_6">
     <g id="line2d_10">
      <path clip-path="url(#p2331f7a15a)" d="M 236.210156 118.709164 
L 362.305156 118.709164 
" style="fill:none;stroke:#ffffff;stroke-linecap:round;"/>
     </g>
     <g id="text_13">
      <!-- −2 -->
      <g style="fill:#262626;" transform="translate(210.49375 122.888305)scale(0.11 -0.11)">
       <use xlink:href="#DejaVuSans-8722"/>
       <use x="83.789062" xlink:href="#DejaVuSans-50"/>
      </g>
     </g>
    </g>
    <g id="ytick_7">
     <g id="line2d_11">
      <path clip-path="url(#p2331f7a15a)" d="M 236.210156 88.371663 
L 362.305156 88.371663 
" style="fill:none;stroke:#ffffff;stroke-linecap:round;"/>
     </g>
     <g id="text_14">
      <!-- 0 -->
      <g style="fill:#262626;" transform="translate(219.711406 92.550804)scale(0.11 -0.11)">
       <use xlink:href="#DejaVuSans-48"/>
      </g>
     </g>
    </g>
    <g id="ytick_8">
     <g id="line2d_12">
      <path clip-path="url(#p2331f7a15a)" d="M 236.210156 58.034162 
L 362.305156 58.034162 
" style="fill:none;stroke:#ffffff;stroke-linecap:round;"/>
     </g>
     <g id="text_15">
      <!-- 2 -->
      <g style="fill:#262626;" transform="translate(219.711406 62.213303)scale(0.11 -0.11)">
       <use xlink:href="#DejaVuSans-50"/>
      </g>
     </g>
    </g>
    <g id="ytick_9">
     <g id="line2d_13">
      <path clip-path="url(#p2331f7a15a)" d="M 236.210156 27.696661 
L 362.305156 27.696661 
" style="fill:none;stroke:#ffffff;stroke-linecap:round;"/>
     </g>
     <g id="text_16">
      <!-- 4 -->
      <g style="fill:#262626;" transform="translate(219.711406 31.875802)scale(0.11 -0.11)">
       <use xlink:href="#DejaVuSans-52"/>
      </g>
     </g>
    </g>
    <g id="text_17">
     <!-- x1 -->
     <g style="fill:#262626;" transform="translate(203.998125 94.35875)rotate(-90)scale(0.12 -0.12)">
      <use xlink:href="#DejaVuSans-120"/>
      <use x="59.179688" xlink:href="#DejaVuSans-49"/>
     </g>
    </g>
   </g>
   <g id="PolyCollection_3">
    <defs>
     <path d="M 267.779309 -64.865036 
L 267.688503 -64.865036 
L 267.659505 -65.870621 
L 267.617873 -66.876205 
L 267.561545 -67.88179 
L 267.489771 -68.887375 
L 267.403685 -69.892959 
L 267.306455 -70.898544 
L 267.2028 -71.904128 
L 267.097772 -72.909713 
L 266.995001 -73.915297 
L 266.894843 -74.920882 
L 266.793005 -75.926466 
L 266.680203 -76.932051 
L 266.543146 -77.937635 
L 266.366769 -78.94322 
L 266.137261 -79.948804 
L 265.845146 -80.954389 
L 265.487623 -81.959973 
L 265.069462 -82.965558 
L 264.602096 -83.971143 
L 264.10092 -84.976727 
L 263.58127 -85.982312 
L 263.053923 -86.987896 
L 262.521228 -87.993481 
L 261.974981 -88.999065 
L 261.396866 -90.00465 
L 260.761683 -91.010234 
L 260.042808 -92.015819 
L 259.21856 -93.021403 
L 258.277802 -94.026988 
L 257.223259 -95.032572 
L 256.071708 -96.038157 
L 254.851164 -97.043741 
L 253.596041 -98.049326 
L 252.341714 -99.054911 
L 251.119833 -100.060495 
L 249.955274 -101.06608 
L 248.865 -102.071664 
L 247.858543 -103.077249 
L 246.939603 -104.082833 
L 246.108164 -105.088418 
L 245.362671 -106.094002 
L 244.701903 -107.099587 
L 244.126177 -108.105171 
L 243.637537 -109.110756 
L 243.238763 -110.11634 
L 242.931384 -111.121925 
L 242.713497 -112.127509 
L 242.578545 -113.133094 
L 242.516097 -114.138679 
L 242.514906 -115.144263 
L 242.567357 -116.149848 
L 242.673536 -117.155432 
L 242.843057 -118.161017 
L 243.093593 -119.166601 
L 243.446472 -120.172186 
L 243.920853 -121.17777 
L 244.528527 -122.183355 
L 245.270872 -123.188939 
L 246.138561 -124.194524 
L 247.113557 -125.200108 
L 248.172331 -126.205693 
L 249.289143 -127.211277 
L 250.438515 -128.216862 
L 251.596529 -129.222447 
L 252.741075 -130.228031 
L 253.851607 -131.233616 
L 254.909122 -132.2392 
L 255.896879 -133.244785 
L 256.801904 -134.250369 
L 257.616721 -135.255954 
L 258.340459 -136.261538 
L 258.978669 -137.267123 
L 259.541818 -138.272707 
L 260.043122 -139.278292 
L 260.496685 -140.283876 
L 260.916594 -141.289461 
L 261.316963 -142.295045 
L 261.712175 -143.30063 
L 262.116435 -144.306215 
L 262.5421 -145.311799 
L 262.997106 -146.317384 
L 263.482472 -147.322968 
L 263.991073 -148.328553 
L 264.508466 -149.334137 
L 265.015704 -150.339722 
L 265.493299 -151.345306 
L 265.925063 -152.350891 
L 266.300716 -153.356475 
L 266.61669 -154.36206 
L 266.875246 -155.367644 
L 267.082547 -156.373229 
L 267.246477 -157.378813 
L 267.374896 -158.384398 
L 267.474621 -159.389983 
L 267.551138 -160.395567 
L 267.608786 -161.401152 
L 267.651107 -162.406736 
L 267.681159 -163.412321 
L 267.701671 -164.417905 
L 267.766141 -164.417905 
L 267.766141 -164.417905 
L 267.786653 -163.412321 
L 267.816706 -162.406736 
L 267.859027 -161.401152 
L 267.916674 -160.395567 
L 267.993192 -159.389983 
L 268.092917 -158.384398 
L 268.221335 -157.378813 
L 268.385266 -156.373229 
L 268.592566 -155.367644 
L 268.851123 -154.36206 
L 269.167096 -153.356475 
L 269.542749 -152.350891 
L 269.974513 -151.345306 
L 270.452108 -150.339722 
L 270.959347 -149.334137 
L 271.476739 -148.328553 
L 271.98534 -147.322968 
L 272.470706 -146.317384 
L 272.925713 -145.311799 
L 273.351377 -144.306215 
L 273.755637 -143.30063 
L 274.15085 -142.295045 
L 274.551218 -141.289461 
L 274.971128 -140.283876 
L 275.42469 -139.278292 
L 275.925995 -138.272707 
L 276.489143 -137.267123 
L 277.127353 -136.261538 
L 277.851092 -135.255954 
L 278.665909 -134.250369 
L 279.570933 -133.244785 
L 280.55869 -132.2392 
L 281.616205 -131.233616 
L 282.726737 -130.228031 
L 283.871283 -129.222447 
L 285.029297 -128.216862 
L 286.17867 -127.211277 
L 287.295481 -126.205693 
L 288.354255 -125.200108 
L 289.329251 -124.194524 
L 290.196941 -123.188939 
L 290.939286 -122.183355 
L 291.546959 -121.17777 
L 292.021341 -120.172186 
L 292.374219 -119.166601 
L 292.624756 -118.161017 
L 292.794276 -117.155432 
L 292.900455 -116.149848 
L 292.952906 -115.144263 
L 292.951716 -114.138679 
L 292.889268 -113.133094 
L 292.754315 -112.127509 
L 292.536428 -111.121925 
L 292.22905 -110.11634 
L 291.830275 -109.110756 
L 291.341636 -108.105171 
L 290.765909 -107.099587 
L 290.105142 -106.094002 
L 289.359649 -105.088418 
L 288.528209 -104.082833 
L 287.60927 -103.077249 
L 286.602813 -102.071664 
L 285.512538 -101.06608 
L 284.34798 -100.060495 
L 283.126098 -99.054911 
L 281.871771 -98.049326 
L 280.616649 -97.043741 
L 279.396104 -96.038157 
L 278.244553 -95.032572 
L 277.190011 -94.026988 
L 276.249253 -93.021403 
L 275.425004 -92.015819 
L 274.70613 -91.010234 
L 274.070947 -90.00465 
L 273.492831 -88.999065 
L 272.946585 -87.993481 
L 272.41389 -86.987896 
L 271.886543 -85.982312 
L 271.366892 -84.976727 
L 270.865717 -83.971143 
L 270.398351 -82.965558 
L 269.98019 -81.959973 
L 269.622666 -80.954389 
L 269.330552 -79.948804 
L 269.101044 -78.94322 
L 268.924667 -77.937635 
L 268.78761 -76.932051 
L 268.674808 -75.926466 
L 268.572969 -74.920882 
L 268.472811 -73.915297 
L 268.370041 -72.909713 
L 268.265012 -71.904128 
L 268.161357 -70.898544 
L 268.064128 -69.892959 
L 267.978041 -68.887375 
L 267.906268 -67.88179 
L 267.849939 -66.876205 
L 267.808308 -65.870621 
L 267.779309 -64.865036 
z
" id="m5b373c4455" style="stroke:#4c4c4c;stroke-width:1.5;"/>
    </defs>
    <g clip-path="url(#p2331f7a15a)">
     <use style="fill:#5875a4;stroke:#4c4c4c;stroke-width:1.5;" x="0" xlink:href="#m5b373c4455" y="203.739688"/>
    </g>
   </g>
   <g id="PolyCollection_4">
    <defs>
     <path d="M 330.806423 -49.667869 
L 330.756389 -49.667869 
L 330.736428 -51.023058 
L 330.707113 -52.378246 
L 330.668385 -53.733434 
L 330.622579 -55.088622 
L 330.574536 -56.443811 
L 330.530801 -57.798999 
L 330.498102 -59.154187 
L 330.48164 -60.509375 
L 330.483679 -61.864564 
L 330.502677 -63.219752 
L 330.533031 -64.57494 
L 330.565462 -65.930128 
L 330.588038 -67.285317 
L 330.587674 -68.640505 
L 330.551769 -69.995693 
L 330.46967 -71.350881 
L 330.333895 -72.70607 
L 330.141265 -74.061258 
L 329.89397 -75.416446 
L 329.600179 -76.771634 
L 329.273384 -78.126822 
L 328.929763 -79.482011 
L 328.583512 -80.837199 
L 328.241049 -82.192387 
L 327.895694 -83.547575 
L 327.52467 -84.902764 
L 327.090048 -86.257952 
L 326.544406 -87.61314 
L 325.840375 -88.968328 
L 324.941327 -90.323517 
L 323.829763 -91.678705 
L 322.511299 -93.033893 
L 321.014737 -94.389081 
L 319.38997 -95.74427 
L 317.704115 -97.099458 
L 316.033824 -98.454646 
L 314.451816 -99.809834 
L 313.010119 -101.165023 
L 311.728172 -102.520211 
L 310.594823 -103.875399 
L 309.586081 -105.230587 
L 308.689376 -106.585776 
L 307.918983 -107.940964 
L 307.311794 -109.296152 
L 306.904998 -110.65134 
L 306.708616 -112.006529 
L 306.689154 -113.361717 
L 306.774981 -114.716905 
L 306.883367 -116.072093 
L 306.958427 -117.427282 
L 307.002678 -118.78247 
L 307.085671 -120.137658 
L 307.32212 -121.492846 
L 307.826551 -122.848035 
L 308.66441 -124.203223 
L 309.823062 -125.558411 
L 311.216469 -126.913599 
L 312.71961 -128.268788 
L 314.213755 -129.623976 
L 315.620677 -130.979164 
L 316.913477 -132.334352 
L 318.105773 -133.689541 
L 319.23021 -135.044729 
L 320.31774 -136.399917 
L 321.384075 -137.755105 
L 322.424764 -139.110294 
L 323.418247 -140.465482 
L 324.335573 -141.82067 
L 325.153751 -143.175858 
L 325.867074 -144.531047 
L 326.490216 -145.886235 
L 327.050834 -147.241423 
L 327.575867 -148.596611 
L 328.079814 -149.9518 
L 328.561296 -151.306988 
L 329.008025 -152.662176 
L 329.405156 -154.017364 
L 329.741566 -155.372553 
L 330.012066 -156.727741 
L 330.216984 -158.082929 
L 330.36139 -159.438117 
L 330.454717 -160.793305 
L 330.50995 -162.148494 
L 330.541405 -163.503682 
L 330.561385 -164.85887 
L 330.577273 -166.214058 
L 330.59078 -167.569247 
L 330.599882 -168.924435 
L 330.602363 -170.279623 
L 330.598863 -171.634811 
L 330.593693 -172.99 
L 330.593109 -174.345188 
L 330.602254 -175.700376 
L 330.622676 -177.055564 
L 330.651807 -178.410753 
L 330.684438 -179.765941 
L 330.715107 -181.121129 
L 330.740043 -182.476317 
L 330.757876 -183.831506 
L 330.804937 -183.831506 
L 330.804937 -183.831506 
L 330.822769 -182.476317 
L 330.847705 -181.121129 
L 330.878375 -179.765941 
L 330.911006 -178.410753 
L 330.940137 -177.055564 
L 330.960559 -175.700376 
L 330.969703 -174.345188 
L 330.96912 -172.99 
L 330.96395 -171.634811 
L 330.960449 -170.279623 
L 330.962931 -168.924435 
L 330.972033 -167.569247 
L 330.985539 -166.214058 
L 331.001428 -164.85887 
L 331.021408 -163.503682 
L 331.052862 -162.148494 
L 331.108096 -160.793305 
L 331.201423 -159.438117 
L 331.345828 -158.082929 
L 331.550746 -156.727741 
L 331.821246 -155.372553 
L 332.157657 -154.017364 
L 332.554788 -152.662176 
L 333.001517 -151.306988 
L 333.482998 -149.9518 
L 333.986945 -148.596611 
L 334.511979 -147.241423 
L 335.072597 -145.886235 
L 335.695739 -144.531047 
L 336.409061 -143.175858 
L 337.22724 -141.82067 
L 338.144566 -140.465482 
L 339.138048 -139.110294 
L 340.178737 -137.755105 
L 341.245073 -136.399917 
L 342.332603 -135.044729 
L 343.457039 -133.689541 
L 344.649335 -132.334352 
L 345.942136 -130.979164 
L 347.349058 -129.623976 
L 348.843202 -128.268788 
L 350.346344 -126.913599 
L 351.73975 -125.558411 
L 352.898402 -124.203223 
L 353.736261 -122.848035 
L 354.240692 -121.492846 
L 354.477142 -120.137658 
L 354.560134 -118.78247 
L 354.604386 -117.427282 
L 354.679445 -116.072093 
L 354.787832 -114.716905 
L 354.873659 -113.361717 
L 354.854196 -112.006529 
L 354.657814 -110.65134 
L 354.251018 -109.296152 
L 353.643829 -107.940964 
L 352.873437 -106.585776 
L 351.976732 -105.230587 
L 350.967989 -103.875399 
L 349.834641 -102.520211 
L 348.552693 -101.165023 
L 347.110996 -99.809834 
L 345.528988 -98.454646 
L 343.858697 -97.099458 
L 342.172842 -95.74427 
L 340.548075 -94.389081 
L 339.051513 -93.033893 
L 337.73305 -91.678705 
L 336.621486 -90.323517 
L 335.722438 -88.968328 
L 335.018407 -87.61314 
L 334.472764 -86.257952 
L 334.038142 -84.902764 
L 333.667119 -83.547575 
L 333.321764 -82.192387 
L 332.9793 -80.837199 
L 332.633049 -79.482011 
L 332.289429 -78.126822 
L 331.962634 -76.771634 
L 331.668842 -75.416446 
L 331.421547 -74.061258 
L 331.228917 -72.70607 
L 331.093143 -71.350881 
L 331.011044 -69.995693 
L 330.975139 -68.640505 
L 330.974775 -67.285317 
L 330.997351 -65.930128 
L 331.029782 -64.57494 
L 331.060136 -63.219752 
L 331.079134 -61.864564 
L 331.081172 -60.509375 
L 331.064711 -59.154187 
L 331.032011 -57.798999 
L 330.988276 -56.443811 
L 330.940234 -55.088622 
L 330.894427 -53.733434 
L 330.8557 -52.378246 
L 330.826385 -51.023058 
L 330.806423 -49.667869 
z
" id="m91e550d74f" style="stroke:#4c4c4c;stroke-width:1.5;"/>
    </defs>
    <g clip-path="url(#p2331f7a15a)">
     <use style="fill:#cc8963;stroke:#4c4c4c;stroke-width:1.5;" x="0" xlink:href="#m91e550d74f" y="203.739688"/>
    </g>
   </g>
   <g id="line2d_14">
    <path clip-path="url(#p2331f7a15a)" d="M 267.733906 127.997032 
L 267.733906 51.00742 
" style="fill:none;stroke:#4c4c4c;stroke-linecap:round;stroke-width:1.5;"/>
   </g>
   <g id="line2d_15">
    <path clip-path="url(#p2331f7a15a)" d="M 267.733906 98.403532 
L 267.733906 78.549303 
" style="fill:none;stroke:#4c4c4c;stroke-linecap:round;stroke-width:4.5;"/>
   </g>
   <g id="line2d_16">
    <path clip-path="url(#p2331f7a15a)" d="M 330.781406 128.269222 
L 330.781406 48.119017 
" style="fill:none;stroke:#4c4c4c;stroke-linecap:round;stroke-width:1.5;"/>
   </g>
   <g id="line2d_17">
    <path clip-path="url(#p2331f7a15a)" d="M 330.781406 98.597936 
L 330.781406 78.234804 
" style="fill:none;stroke:#4c4c4c;stroke-linecap:round;stroke-width:4.5;"/>
   </g>
   <g id="patch_8">
    <path d="M 236.210156 160.78 
L 236.210156 13.2 
" style="fill:none;stroke:#ffffff;stroke-linecap:square;stroke-linejoin:miter;stroke-width:1.25;"/>
   </g>
   <g id="patch_9">
    <path d="M 362.305156 160.78 
L 362.305156 13.2 
" style="fill:none;stroke:#ffffff;stroke-linecap:square;stroke-linejoin:miter;stroke-width:1.25;"/>
   </g>
   <g id="patch_10">
    <path d="M 236.210156 160.78 
L 362.305156 160.78 
" style="fill:none;stroke:#ffffff;stroke-linecap:square;stroke-linejoin:miter;stroke-width:1.25;"/>
   </g>
   <g id="patch_11">
    <path d="M 236.210156 13.2 
L 362.305156 13.2 
" style="fill:none;stroke:#ffffff;stroke-linecap:square;stroke-linejoin:miter;stroke-width:1.25;"/>
   </g>
   <g id="PathCollection_3">
    <g clip-path="url(#p2331f7a15a)">
     <use style="fill:#ffffff;stroke:#4c4c4c;" x="267.733906" xlink:href="#m623ad9ad9b" y="88.715832"/>
    </g>
   </g>
   <g id="PathCollection_4">
    <g clip-path="url(#p2331f7a15a)">
     <use style="fill:#ffffff;stroke:#4c4c4c;" x="330.781406" xlink:href="#m623ad9ad9b" y="88.490769"/>
    </g>
   </g>
  </g>
  <g id="axes_3">
   <g id="patch_12">
    <path d="M 423.890156 160.78 
L 549.985156 160.78 
L 549.985156 13.2 
L 423.890156 13.2 
z
" style="fill:#eaeaf2;"/>
   </g>
   <g id="matplotlib.axis_5">
    <g id="xtick_5">
     <g id="text_18">
      <!-- 0.0 -->
      <g style="fill:#262626;" transform="translate(446.667187 178.638281)scale(0.11 -0.11)">
       <use xlink:href="#DejaVuSans-48"/>
       <use x="63.623047" xlink:href="#DejaVuSans-46"/>
       <use x="95.410156" xlink:href="#DejaVuSans-48"/>
      </g>
     </g>
    </g>
    <g id="xtick_6">
     <g id="text_19">
      <!-- 1.0 -->
      <g style="fill:#262626;" transform="translate(509.714687 178.638281)scale(0.11 -0.11)">
       <use xlink:href="#DejaVuSans-49"/>
       <use x="63.623047" xlink:href="#DejaVuSans-46"/>
       <use x="95.410156" xlink:href="#DejaVuSans-48"/>
      </g>
     </g>
    </g>
    <g id="text_20">
     <!-- y -->
     <g style="fill:#262626;" transform="translate(483.386406 194.044063)scale(0.12 -0.12)">
      <use xlink:href="#DejaVuSans-121"/>
     </g>
    </g>
   </g>
   <g id="matplotlib.axis_6">
    <g id="ytick_10">
     <g id="line2d_18">
      <path clip-path="url(#p2723f09659)" d="M 423.890156 155.986455 
L 549.985156 155.986455 
" style="fill:none;stroke:#ffffff;stroke-linecap:round;"/>
     </g>
     <g id="text_21">
      <!-- −4 -->
      <g style="fill:#262626;" transform="translate(398.17375 160.165596)scale(0.11 -0.11)">
       <use xlink:href="#DejaVuSans-8722"/>
       <use x="83.789062" xlink:href="#DejaVuSans-52"/>
      </g>
     </g>
    </g>
    <g id="ytick_11">
     <g id="line2d_19">
      <path clip-path="url(#p2723f09659)" d="M 423.890156 120.931398 
L 549.985156 120.931398 
" style="fill:none;stroke:#ffffff;stroke-linecap:round;"/>
     </g>
     <g id="text_22">
      <!-- −2 -->
      <g style="fill:#262626;" transform="translate(398.17375 125.110538)scale(0.11 -0.11)">
       <use xlink:href="#DejaVuSans-8722"/>
       <use x="83.789062" xlink:href="#DejaVuSans-50"/>
      </g>
     </g>
    </g>
    <g id="ytick_12">
     <g id="line2d_20">
      <path clip-path="url(#p2723f09659)" d="M 423.890156 85.87634 
L 549.985156 85.87634 
" style="fill:none;stroke:#ffffff;stroke-linecap:round;"/>
     </g>
     <g id="text_23">
      <!-- 0 -->
      <g style="fill:#262626;" transform="translate(407.391406 90.055481)scale(0.11 -0.11)">
       <use xlink:href="#DejaVuSans-48"/>
      </g>
     </g>
    </g>
    <g id="ytick_13">
     <g id="line2d_21">
      <path clip-path="url(#p2723f09659)" d="M 423.890156 50.821283 
L 549.985156 50.821283 
" style="fill:none;stroke:#ffffff;stroke-linecap:round;"/>
     </g>
     <g id="text_24">
      <!-- 2 -->
      <g style="fill:#262626;" transform="translate(407.391406 55.000424)scale(0.11 -0.11)">
       <use xlink:href="#DejaVuSans-50"/>
      </g>
     </g>
    </g>
    <g id="ytick_14">
     <g id="line2d_22">
      <path clip-path="url(#p2723f09659)" d="M 423.890156 15.766226 
L 549.985156 15.766226 
" style="fill:none;stroke:#ffffff;stroke-linecap:round;"/>
     </g>
     <g id="text_25">
      <!-- 4 -->
      <g style="fill:#262626;" transform="translate(407.391406 19.945366)scale(0.11 -0.11)">
       <use xlink:href="#DejaVuSans-52"/>
      </g>
     </g>
    </g>
    <g id="text_26">
     <!-- x2 -->
     <g style="fill:#262626;" transform="translate(391.678125 94.35875)rotate(-90)scale(0.12 -0.12)">
      <use xlink:href="#DejaVuSans-120"/>
      <use x="59.179688" xlink:href="#DejaVuSans-50"/>
     </g>
    </g>
   </g>
   <g id="PolyCollection_5">
    <defs>
     <path d="M 455.446462 -72.862883 
L 455.38135 -72.862883 
L 455.359073 -73.983778 
L 455.326591 -75.104673 
L 455.282116 -76.225568 
L 455.224697 -77.346464 
L 455.154329 -78.467359 
L 455.071607 -79.588254 
L 454.976983 -80.709149 
L 454.869902 -81.830044 
L 454.748306 -82.950939 
L 454.608879 -84.071835 
L 454.44808 -85.19273 
L 454.263504 -86.313625 
L 454.054829 -87.43452 
L 453.823657 -88.555415 
L 453.572091 -89.676311 
L 453.300572 -90.797206 
L 453.00604 -91.918101 
L 452.68146 -93.038996 
L 452.317222 -94.159891 
L 451.903995 -95.280786 
L 451.435862 -96.401682 
L 450.912347 -97.522577 
L 450.338455 -98.643472 
L 449.722792 -99.764367 
L 449.074701 -100.885262 
L 448.401638 -102.006158 
L 447.707616 -103.127053 
L 446.992801 -104.247948 
L 446.253896 -105.368843 
L 445.48507 -106.489738 
L 444.679638 -107.610633 
L 443.832855 -108.731529 
L 442.945585 -109.852424 
L 442.027539 -110.973319 
L 441.098018 -112.094214 
L 440.18259 -113.215109 
L 439.305917 -114.336005 
L 438.483158 -115.4569 
L 437.713706 -116.577795 
L 436.980694 -117.69869 
L 436.257616 -118.819585 
L 435.520665 -119.94048 
L 434.762833 -121.061376 
L 434.004495 -122.182271 
L 433.295654 -123.303166 
L 432.707331 -124.424061 
L 432.313451 -125.544956 
L 432.168572 -126.665852 
L 432.289199 -127.786747 
L 432.645667 -128.907642 
L 433.16786 -130.028537 
L 433.762934 -131.149432 
L 434.339257 -132.270327 
L 434.829435 -133.391223 
L 435.206553 -134.512118 
L 435.490293 -135.633013 
L 435.742034 -136.753908 
L 436.050054 -137.874803 
L 436.507729 -138.995698 
L 437.189468 -140.116594 
L 438.130467 -141.237489 
L 439.316205 -142.358384 
L 440.685206 -143.479279 
L 442.144472 -144.600174 
L 443.592648 -145.72107 
L 444.943461 -146.841965 
L 446.142355 -147.96286 
L 447.17228 -149.083755 
L 448.048736 -150.20465 
L 448.807616 -151.325545 
L 449.490877 -152.446441 
L 450.134419 -153.567336 
L 450.760781 -154.688231 
L 451.377145 -155.809126 
L 451.977699 -156.930021 
L 452.54861 -158.050917 
L 453.073763 -159.171812 
L 453.539638 -160.292707 
L 453.938244 -161.413602 
L 454.267765 -162.534497 
L 454.531314 -163.655392 
L 454.734771 -164.776288 
L 454.884818 -165.897183 
L 454.987958 -167.018078 
L 455.050676 -168.138973 
L 455.080295 -169.259868 
L 455.085735 -170.380764 
L 455.077493 -171.501659 
L 455.066586 -172.622554 
L 455.062747 -173.743449 
L 455.072565 -174.864344 
L 455.098332 -175.985239 
L 455.138065 -177.106135 
L 455.18667 -178.22703 
L 455.237784 -179.347925 
L 455.28559 -180.46882 
L 455.326074 -181.589715 
L 455.357436 -182.710611 
L 455.37981 -183.831506 
L 455.448002 -183.831506 
L 455.448002 -183.831506 
L 455.470377 -182.710611 
L 455.501739 -181.589715 
L 455.542222 -180.46882 
L 455.590029 -179.347925 
L 455.641142 -178.22703 
L 455.689748 -177.106135 
L 455.72948 -175.985239 
L 455.755248 -174.864344 
L 455.765065 -173.743449 
L 455.761226 -172.622554 
L 455.750319 -171.501659 
L 455.742077 -170.380764 
L 455.747517 -169.259868 
L 455.777137 -168.138973 
L 455.839855 -167.018078 
L 455.942994 -165.897183 
L 456.093041 -164.776288 
L 456.296498 -163.655392 
L 456.560047 -162.534497 
L 456.889568 -161.413602 
L 457.288175 -160.292707 
L 457.75405 -159.171812 
L 458.279203 -158.050917 
L 458.850114 -156.930021 
L 459.450667 -155.809126 
L 460.067032 -154.688231 
L 460.693394 -153.567336 
L 461.336936 -152.446441 
L 462.020196 -151.325545 
L 462.779077 -150.20465 
L 463.655532 -149.083755 
L 464.685457 -147.96286 
L 465.884352 -146.841965 
L 467.235164 -145.72107 
L 468.68334 -144.600174 
L 470.142607 -143.479279 
L 471.511608 -142.358384 
L 472.697345 -141.237489 
L 473.638345 -140.116594 
L 474.320084 -138.995698 
L 474.777759 -137.874803 
L 475.085779 -136.753908 
L 475.33752 -135.633013 
L 475.62126 -134.512118 
L 475.998378 -133.391223 
L 476.488555 -132.270327 
L 477.064879 -131.149432 
L 477.659953 -130.028537 
L 478.182145 -128.907642 
L 478.538613 -127.786747 
L 478.65924 -126.665852 
L 478.514361 -125.544956 
L 478.120481 -124.424061 
L 477.532159 -123.303166 
L 476.823318 -122.182271 
L 476.06498 -121.061376 
L 475.307147 -119.94048 
L 474.570197 -118.819585 
L 473.847119 -117.69869 
L 473.114106 -116.577795 
L 472.344655 -115.4569 
L 471.521895 -114.336005 
L 470.645223 -113.215109 
L 469.729794 -112.094214 
L 468.800273 -110.973319 
L 467.882228 -109.852424 
L 466.994958 -108.731529 
L 466.148174 -107.610633 
L 465.342743 -106.489738 
L 464.573917 -105.368843 
L 463.835011 -104.247948 
L 463.120197 -103.127053 
L 462.426175 -102.006158 
L 461.753112 -100.885262 
L 461.10502 -99.764367 
L 460.489357 -98.643472 
L 459.915465 -97.522577 
L 459.39195 -96.401682 
L 458.923817 -95.280786 
L 458.510591 -94.159891 
L 458.146353 -93.038996 
L 457.821772 -91.918101 
L 457.52724 -90.797206 
L 457.255722 -89.676311 
L 457.004155 -88.555415 
L 456.772983 -87.43452 
L 456.564308 -86.313625 
L 456.379733 -85.19273 
L 456.218934 -84.071835 
L 456.079507 -82.950939 
L 455.95791 -81.830044 
L 455.850829 -80.709149 
L 455.756205 -79.588254 
L 455.673484 -78.467359 
L 455.603116 -77.346464 
L 455.545697 -76.225568 
L 455.501222 -75.104673 
L 455.46874 -73.983778 
L 455.446462 -72.862883 
z
" id="m16aac937b5" style="stroke:#4c4c4c;stroke-width:1.5;"/>
    </defs>
    <g clip-path="url(#p2723f09659)">
     <use style="fill:#5875a4;stroke:#4c4c4c;stroke-width:1.5;" x="0" xlink:href="#m16aac937b5" y="203.739688"/>
    </g>
   </g>
   <g id="PolyCollection_6">
    <defs>
     <path d="M 518.483837 -49.667869 
L 518.438975 -49.667869 
L 518.42434 -50.816293 
L 518.404182 -51.964718 
L 518.378692 -53.113142 
L 518.349064 -54.261566 
L 518.317193 -55.40999 
L 518.284824 -56.558414 
L 518.252389 -57.706838 
L 518.218063 -58.855263 
L 518.177638 -60.003687 
L 518.125544 -61.152111 
L 518.056785 -62.300535 
L 517.969005 -63.448959 
L 517.863701 -64.597383 
L 517.745876 -65.745808 
L 517.622129 -66.894232 
L 517.497927 -68.042656 
L 517.375183 -69.19108 
L 517.251161 -70.339504 
L 517.119031 -71.487928 
L 516.969579 -72.636352 
L 516.792934 -73.784777 
L 516.579138 -74.933201 
L 516.317127 -76.081625 
L 515.992832 -77.230049 
L 515.588098 -78.378473 
L 515.082186 -79.526897 
L 514.456525 -80.675322 
L 513.701609 -81.823746 
L 512.82344 -82.97217 
L 511.846651 -84.120594 
L 510.812572 -85.269018 
L 509.772431 -86.417442 
L 508.777522 -87.565867 
L 507.868916 -88.714291 
L 507.068974 -89.862715 
L 506.37622 -91.011139 
L 505.764524 -92.159563 
L 505.187257 -93.307987 
L 504.586636 -94.456411 
L 503.907206 -95.604836 
L 503.110377 -96.75326 
L 502.185202 -97.901684 
L 501.150729 -99.050108 
L 500.048318 -100.198532 
L 498.927138 -101.346956 
L 497.829949 -102.495381 
L 496.786327 -103.643805 
L 495.816282 -104.792229 
L 494.941109 -105.940653 
L 494.194141 -107.089077 
L 493.624312 -108.237501 
L 493.289573 -109.385926 
L 493.242406 -110.53435 
L 493.513129 -111.682774 
L 494.097268 -112.831198 
L 494.951665 -113.979622 
L 496.001183 -115.128046 
L 497.154675 -116.27647 
L 498.325773 -117.424895 
L 499.451917 -118.573319 
L 500.505198 -119.721743 
L 501.491438 -120.870167 
L 502.438594 -122.018591 
L 503.379747 -123.167015 
L 504.337681 -124.31544 
L 505.316652 -125.463864 
L 506.303379 -126.612288 
L 507.275262 -127.760712 
L 508.211136 -128.909136 
L 509.09936 -130.05756 
L 509.939867 -131.205985 
L 510.740005 -132.354409 
L 511.507195 -133.502833 
L 512.242817 -134.651257 
L 512.940744 -135.799681 
L 513.59094 -136.948105 
L 514.185549 -138.096529 
L 514.723589 -139.244954 
L 515.211521 -140.393378 
L 515.65966 -141.541802 
L 516.076766 -142.690226 
L 516.465914 -143.83865 
L 516.823622 -144.987074 
L 517.142236 -146.135499 
L 517.41398 -147.283923 
L 517.634622 -148.432347 
L 517.805351 -149.580771 
L 517.932522 -150.729195 
L 518.025869 -151.877619 
L 518.096092 -153.026044 
L 518.152676 -154.174468 
L 518.20245 -155.322892 
L 518.249075 -156.471316 
L 518.293391 -157.61974 
L 518.33437 -158.768164 
L 518.370289 -159.916588 
L 518.399731 -161.065013 
L 518.422154 -162.213437 
L 518.437979 -163.361861 
L 518.484833 -163.361861 
L 518.484833 -163.361861 
L 518.500659 -162.213437 
L 518.523082 -161.065013 
L 518.552524 -159.916588 
L 518.588443 -158.768164 
L 518.629422 -157.61974 
L 518.673737 -156.471316 
L 518.720362 -155.322892 
L 518.770137 -154.174468 
L 518.826721 -153.026044 
L 518.896943 -151.877619 
L 518.99029 -150.729195 
L 519.117462 -149.580771 
L 519.28819 -148.432347 
L 519.508833 -147.283923 
L 519.780577 -146.135499 
L 520.099191 -144.987074 
L 520.456899 -143.83865 
L 520.846047 -142.690226 
L 521.263152 -141.541802 
L 521.711291 -140.393378 
L 522.199223 -139.244954 
L 522.737263 -138.096529 
L 523.331873 -136.948105 
L 523.982068 -135.799681 
L 524.679995 -134.651257 
L 525.415617 -133.502833 
L 526.182807 -132.354409 
L 526.982946 -131.205985 
L 527.823452 -130.05756 
L 528.711677 -128.909136 
L 529.64755 -127.760712 
L 530.619433 -126.612288 
L 531.60616 -125.463864 
L 532.585131 -124.31544 
L 533.543065 -123.167015 
L 534.484219 -122.018591 
L 535.431375 -120.870167 
L 536.417614 -119.721743 
L 537.470895 -118.573319 
L 538.59704 -117.424895 
L 539.768137 -116.27647 
L 540.921629 -115.128046 
L 541.971147 -113.979622 
L 542.825545 -112.831198 
L 543.409684 -111.682774 
L 543.680406 -110.53435 
L 543.63324 -109.385926 
L 543.2985 -108.237501 
L 542.728671 -107.089077 
L 541.981703 -105.940653 
L 541.106531 -104.792229 
L 540.136486 -103.643805 
L 539.092864 -102.495381 
L 537.995675 -101.346956 
L 536.874494 -100.198532 
L 535.772083 -99.050108 
L 534.737611 -97.901684 
L 533.812435 -96.75326 
L 533.015606 -95.604836 
L 532.336176 -94.456411 
L 531.735556 -93.307987 
L 531.158289 -92.159563 
L 530.546592 -91.011139 
L 529.853839 -89.862715 
L 529.053897 -88.714291 
L 528.14529 -87.565867 
L 527.150381 -86.417442 
L 526.11024 -85.269018 
L 525.076162 -84.120594 
L 524.099373 -82.97217 
L 523.221204 -81.823746 
L 522.466288 -80.675322 
L 521.840626 -79.526897 
L 521.334714 -78.378473 
L 520.929981 -77.230049 
L 520.605685 -76.081625 
L 520.343674 -74.933201 
L 520.129878 -73.784777 
L 519.953233 -72.636352 
L 519.803782 -71.487928 
L 519.671651 -70.339504 
L 519.547629 -69.19108 
L 519.424886 -68.042656 
L 519.300684 -66.894232 
L 519.176937 -65.745808 
L 519.059111 -64.597383 
L 518.953807 -63.448959 
L 518.866027 -62.300535 
L 518.797268 -61.152111 
L 518.745175 -60.003687 
L 518.70475 -58.855263 
L 518.670424 -57.706838 
L 518.637989 -56.558414 
L 518.60562 -55.40999 
L 518.573749 -54.261566 
L 518.544121 -53.113142 
L 518.51863 -51.964718 
L 518.498472 -50.816293 
L 518.483837 -49.667869 
z
" id="m1465657de8" style="stroke:#4c4c4c;stroke-width:1.5;"/>
    </defs>
    <g clip-path="url(#p2723f09659)">
     <use style="fill:#cc8963;stroke:#4c4c4c;stroke-width:1.5;" x="0" xlink:href="#m1465657de8" y="203.739688"/>
    </g>
   </g>
   <g id="line2d_23">
    <path clip-path="url(#p2723f09659)" d="M 455.413906 120.116991 
L 455.413906 40.022563 
" style="fill:none;stroke:#4c4c4c;stroke-linecap:round;stroke-width:1.5;"/>
   </g>
   <g id="line2d_24">
    <path clip-path="url(#p2723f09659)" d="M 455.413906 87.719107 
L 455.413906 65.693171 
" style="fill:none;stroke:#4c4c4c;stroke-linecap:round;stroke-width:4.5;"/>
   </g>
   <g id="line2d_25">
    <path clip-path="url(#p2723f09659)" d="M 518.461406 133.053158 
L 518.461406 58.505576 
" style="fill:none;stroke:#4c4c4c;stroke-linecap:round;stroke-width:1.5;"/>
   </g>
   <g id="line2d_26">
    <path clip-path="url(#p2723f09659)" d="M 518.461406 103.814014 
L 518.461406 84.319236 
" style="fill:none;stroke:#4c4c4c;stroke-linecap:round;stroke-width:4.5;"/>
   </g>
   <g id="patch_13">
    <path d="M 423.890156 160.78 
L 423.890156 13.2 
" style="fill:none;stroke:#ffffff;stroke-linecap:square;stroke-linejoin:miter;stroke-width:1.25;"/>
   </g>
   <g id="patch_14">
    <path d="M 549.985156 160.78 
L 549.985156 13.2 
" style="fill:none;stroke:#ffffff;stroke-linecap:square;stroke-linejoin:miter;stroke-width:1.25;"/>
   </g>
   <g id="patch_15">
    <path d="M 423.890156 160.78 
L 549.985156 160.78 
" style="fill:none;stroke:#ffffff;stroke-linecap:square;stroke-linejoin:miter;stroke-width:1.25;"/>
   </g>
   <g id="patch_16">
    <path d="M 423.890156 13.2 
L 549.985156 13.2 
" style="fill:none;stroke:#ffffff;stroke-linecap:square;stroke-linejoin:miter;stroke-width:1.25;"/>
   </g>
   <g id="PathCollection_5">
    <g clip-path="url(#p2723f09659)">
     <use style="fill:#ffffff;stroke:#4c4c4c;" x="455.413906" xlink:href="#m623ad9ad9b" y="76.757394"/>
    </g>
   </g>
   <g id="PathCollection_6">
    <g clip-path="url(#p2723f09659)">
     <use style="fill:#ffffff;stroke:#4c4c4c;" x="518.461406" xlink:href="#m623ad9ad9b" y="94.650741"/>
    </g>
   </g>
  </g>
 </g>
 <defs>
  <clipPath id="p335b922a4c">
   <rect height="147.58" width="126.095" x="48.530156" y="13.2"/>
  </clipPath>
  <clipPath id="p2331f7a15a">
   <rect height="147.58" width="126.095" x="236.210156" y="13.2"/>
  </clipPath>
  <clipPath id="p2723f09659">
   <rect height="147.58" width="126.095" x="423.890156" y="13.2"/>
  </clipPath>
 </defs>
</svg>
