<?xml version="1.0" encoding="utf-8" standalone="no"?>
<!DOCTYPE svg PUBLIC "-//W3C//DTD SVG 1.1//EN"
  "http://www.w3.org/Graphics/SVG/1.1/DTD/svg11.dtd">
<!-- Created with matplotlib (https://matplotlib.org/) -->
<svg height="275.739688pt" version="1.1" viewBox="0 0 419.429844 275.739688" width="419.429844pt" xmlns="http://www.w3.org/2000/svg" xmlns:xlink="http://www.w3.org/1999/xlink">
 <defs>
  <style type="text/css">
*{stroke-linecap:butt;stroke-linejoin:round;}
  </style>
 </defs>
 <g id="figure_1">
  <g id="patch_1">
   <path d="M 0 275.739688 
L 419.429844 275.739688 
L 419.429844 0 
L 0 0 
z
" style="fill:#ffffff;"/>
  </g>
  <g id="axes_1">
   <g id="patch_2">
    <path d="M 59.024844 95.26 
L 196.709844 95.26 
L 196.709844 13.2 
L 59.024844 13.2 
z
" style="fill:#eaeaf2;"/>
   </g>
   <g id="matplotlib.axis_1">
    <g id="xtick_1">
     <g id="text_1">
      <!-- 0.0 -->
      <defs>
       <path d="M 31.78125 66.40625 
Q 24.171875 66.40625 20.328125 58.90625 
Q 16.5 51.421875 16.5 36.375 
Q 16.5 21.390625 20.328125 13.890625 
Q 24.171875 6.390625 31.78125 6.390625 
Q 39.453125 6.390625 43.28125 13.890625 
Q 47.125 21.390625 47.125 36.375 
Q 47.125 51.421875 43.28125 58.90625 
Q 39.453125 66.40625 31.78125 66.40625 
z
M 31.78125 74.21875 
Q 44.046875 74.21875 50.515625 64.515625 
Q 56.984375 54.828125 56.984375 36.375 
Q 56.984375 17.96875 50.515625 8.265625 
Q 44.046875 -1.421875 31.78125 -1.421875 
Q 19.53125 -1.421875 13.0625 8.265625 
Q 6.59375 17.96875 6.59375 36.375 
Q 6.59375 54.828125 13.0625 64.515625 
Q 19.53125 74.21875 31.78125 74.21875 
z
" id="DejaVuSans-48"/>
       <path d="M 10.6875 12.40625 
L 21 12.40625 
L 21 0 
L 10.6875 0 
z
" id="DejaVuSans-46"/>
      </defs>
      <g style="fill:#262626;" transform="translate(73.225625 113.118281)scale(0.11 -0.11)">
       <use xlink:href="#DejaVuSans-48"/>
       <use x="63.623047" xlink:href="#DejaVuSans-46"/>
       <use x="95.410156" xlink:href="#DejaVuSans-48"/>
      </g>
     </g>
    </g>
    <g id="xtick_2">
     <g id="text_2">
      <!-- 1.0 -->
      <defs>
       <path d="M 12.40625 8.296875 
L 28.515625 8.296875 
L 28.515625 63.921875 
L 10.984375 60.40625 
L 10.984375 69.390625 
L 28.421875 72.90625 
L 38.28125 72.90625 
L 38.28125 8.296875 
L 54.390625 8.296875 
L 54.390625 0 
L 12.40625 0 
z
" id="DejaVuSans-49"/>
      </defs>
      <g style="fill:#262626;" transform="translate(119.120625 113.118281)scale(0.11 -0.11)">
       <use xlink:href="#DejaVuSans-49"/>
       <use x="63.623047" xlink:href="#DejaVuSans-46"/>
       <use x="95.410156" xlink:href="#DejaVuSans-48"/>
      </g>
     </g>
    </g>
    <g id="xtick_3">
     <g id="text_3">
      <!-- 2.0 -->
      <defs>
       <path d="M 19.1875 8.296875 
L 53.609375 8.296875 
L 53.609375 0 
L 7.328125 0 
L 7.328125 8.296875 
Q 12.9375 14.109375 22.625 23.890625 
Q 32.328125 33.6875 34.8125 36.53125 
Q 39.546875 41.84375 41.421875 45.53125 
Q 43.3125 49.21875 43.3125 52.78125 
Q 43.3125 58.59375 39.234375 62.25 
Q 35.15625 65.921875 28.609375 65.921875 
Q 23.96875 65.921875 18.8125 64.3125 
Q 13.671875 62.703125 7.8125 59.421875 
L 7.8125 69.390625 
Q 13.765625 71.78125 18.9375 73 
Q 24.125 74.21875 28.421875 74.21875 
Q 39.75 74.21875 46.484375 68.546875 
Q 53.21875 62.890625 53.21875 53.421875 
Q 53.21875 48.921875 51.53125 44.890625 
Q 49.859375 40.875 45.40625 35.40625 
Q 44.1875 33.984375 37.640625 27.21875 
Q 31.109375 20.453125 19.1875 8.296875 
z
" id="DejaVuSans-50"/>
      </defs>
      <g style="fill:#262626;" transform="translate(165.015625 113.118281)scale(0.11 -0.11)">
       <use xlink:href="#DejaVuSans-50"/>
       <use x="63.623047" xlink:href="#DejaVuSans-46"/>
       <use x="95.410156" xlink:href="#DejaVuSans-48"/>
      </g>
     </g>
    </g>
    <g id="text_4">
     <!-- y -->
     <defs>
      <path d="M 32.171875 -5.078125 
Q 28.375 -14.84375 24.75 -17.8125 
Q 21.140625 -20.796875 15.09375 -20.796875 
L 7.90625 -20.796875 
L 7.90625 -13.28125 
L 13.1875 -13.28125 
Q 16.890625 -13.28125 18.9375 -11.515625 
Q 21 -9.765625 23.484375 -3.21875 
L 25.09375 0.875 
L 2.984375 54.6875 
L 12.5 54.6875 
L 29.59375 11.921875 
L 46.6875 54.6875 
L 56.203125 54.6875 
z
" id="DejaVuSans-121"/>
     </defs>
     <g style="fill:#262626;" transform="translate(124.316094 128.524062)scale(0.12 -0.12)">
      <use xlink:href="#DejaVuSans-121"/>
     </g>
    </g>
   </g>
   <g id="matplotlib.axis_2">
    <g id="ytick_1">
     <g id="line2d_1">
      <path clip-path="url(#p7fd5f4f1cd)" d="M 59.024844 78.089849 
L 196.709844 78.089849 
" style="fill:none;stroke:#ffffff;stroke-linecap:round;"/>
     </g>
     <g id="text_5">
      <!-- −2.5 -->
      <defs>
       <path d="M 10.59375 35.5 
L 73.1875 35.5 
L 73.1875 27.203125 
L 10.59375 27.203125 
z
" id="DejaVuSans-8722"/>
       <path d="M 10.796875 72.90625 
L 49.515625 72.90625 
L 49.515625 64.59375 
L 19.828125 64.59375 
L 19.828125 46.734375 
Q 21.96875 47.46875 24.109375 47.828125 
Q 26.265625 48.1875 28.421875 48.1875 
Q 40.625 48.1875 47.75 41.5 
Q 54.890625 34.8125 54.890625 23.390625 
Q 54.890625 11.625 47.5625 5.09375 
Q 40.234375 -1.421875 26.90625 -1.421875 
Q 22.3125 -1.421875 17.546875 -0.640625 
Q 12.796875 0.140625 7.71875 1.703125 
L 7.71875 11.625 
Q 12.109375 9.234375 16.796875 8.0625 
Q 21.484375 6.890625 26.703125 6.890625 
Q 35.15625 6.890625 40.078125 11.328125 
Q 45.015625 15.765625 45.015625 23.390625 
Q 45.015625 31 40.078125 35.4375 
Q 35.15625 39.890625 26.703125 39.890625 
Q 22.75 39.890625 18.8125 39.015625 
Q 14.890625 38.140625 10.796875 36.28125 
z
" id="DejaVuSans-53"/>
      </defs>
      <g style="fill:#262626;" transform="translate(22.81375 82.26899)scale(0.11 -0.11)">
       <use xlink:href="#DejaVuSans-8722"/>
       <use x="83.789062" xlink:href="#DejaVuSans-50"/>
       <use x="147.412109" xlink:href="#DejaVuSans-46"/>
       <use x="179.199219" xlink:href="#DejaVuSans-53"/>
      </g>
     </g>
    </g>
    <g id="ytick_2">
     <g id="line2d_2">
      <path clip-path="url(#p7fd5f4f1cd)" d="M 59.024844 54.324418 
L 196.709844 54.324418 
" style="fill:none;stroke:#ffffff;stroke-linecap:round;"/>
     </g>
     <g id="text_6">
      <!-- 0.0 -->
      <g style="fill:#262626;" transform="translate(32.031406 58.503559)scale(0.11 -0.11)">
       <use xlink:href="#DejaVuSans-48"/>
       <use x="63.623047" xlink:href="#DejaVuSans-46"/>
       <use x="95.410156" xlink:href="#DejaVuSans-48"/>
      </g>
     </g>
    </g>
    <g id="ytick_3">
     <g id="line2d_3">
      <path clip-path="url(#p7fd5f4f1cd)" d="M 59.024844 30.558987 
L 196.709844 30.558987 
" style="fill:none;stroke:#ffffff;stroke-linecap:round;"/>
     </g>
     <g id="text_7">
      <!-- 2.5 -->
      <g style="fill:#262626;" transform="translate(32.031406 34.738127)scale(0.11 -0.11)">
       <use xlink:href="#DejaVuSans-50"/>
       <use x="63.623047" xlink:href="#DejaVuSans-46"/>
       <use x="95.410156" xlink:href="#DejaVuSans-53"/>
      </g>
     </g>
    </g>
    <g id="text_8">
     <!-- x0 -->
     <defs>
      <path d="M 54.890625 54.6875 
L 35.109375 28.078125 
L 55.90625 0 
L 45.3125 0 
L 29.390625 21.484375 
L 13.484375 0 
L 2.875 0 
L 24.125 28.609375 
L 4.6875 54.6875 
L 15.28125 54.6875 
L 29.78125 35.203125 
L 44.28125 54.6875 
z
" id="DejaVuSans-120"/>
     </defs>
     <g style="fill:#262626;" transform="translate(16.318125 61.59875)rotate(-90)scale(0.12 -0.12)">
      <use xlink:href="#DejaVuSans-120"/>
      <use x="59.179688" xlink:href="#DejaVuSans-48"/>
     </g>
    </g>
   </g>
   <g id="PolyCollection_1">
    <defs>
     <path d="M 82.007989 -196.838101 
L 81.936698 -196.838101 
L 81.912642 -197.464077 
L 81.877777 -198.090052 
L 81.830567 -198.716028 
L 81.77094 -199.342003 
L 81.700836 -199.967979 
L 81.62428 -200.593955 
L 81.546782 -201.21993 
L 81.474096 -201.845906 
L 81.410645 -202.471882 
L 81.358121 -203.097857 
L 81.314768 -203.723833 
L 81.275568 -204.349808 
L 81.233248 -204.975784 
L 81.179651 -205.60176 
L 81.106921 -206.227735 
L 81.00808 -206.853711 
L 80.876857 -207.479686 
L 80.706946 -208.105662 
L 80.491123 -208.731638 
L 80.220698 -209.357613 
L 79.885732 -209.983589 
L 79.476213 -210.609565 
L 78.98411 -211.23554 
L 78.405872 -211.861516 
L 77.744746 -212.487491 
L 77.012228 -213.113467 
L 76.228203 -213.739443 
L 75.419646 -214.365418 
L 74.618082 -214.991394 
L 73.856094 -215.61737 
L 73.163192 -216.243345 
L 72.561376 -216.869321 
L 72.061027 -217.495296 
L 71.658134 -218.121272 
L 71.334131 -218.747248 
L 71.059239 -219.373223 
L 70.799275 -219.999199 
L 70.524497 -220.625175 
L 70.218026 -221.25115 
L 69.881112 -221.877126 
L 69.533403 -222.503101 
L 69.207926 -223.129077 
L 68.942358 -223.755053 
L 68.769407 -224.381028 
L 68.709371 -225.007004 
L 68.767124 -225.63298 
L 68.934047 -226.258955 
L 69.193679 -226.884931 
L 69.528539 -227.510906 
L 69.925441 -228.136882 
L 70.377468 -228.762858 
L 70.882351 -229.388833 
L 71.438488 -230.014809 
L 72.040623 -230.640785 
L 72.677129 -231.26676 
L 73.329905 -231.892736 
L 73.976757 -232.518711 
L 74.595266 -233.144687 
L 75.166754 -233.770663 
L 75.679241 -234.396638 
L 76.128775 -235.022614 
L 76.519082 -235.648589 
L 76.859863 -236.274565 
L 77.164274 -236.900541 
L 77.446186 -237.526516 
L 77.717802 -238.152492 
L 77.988048 -238.778468 
L 78.261912 -239.404443 
L 78.540624 -240.030419 
L 78.822389 -240.656394 
L 79.103366 -241.28237 
L 79.378707 -241.908346 
L 79.643578 -242.534321 
L 79.894077 -243.160297 
L 80.127913 -243.786273 
L 80.344633 -244.412248 
L 80.545297 -245.038224 
L 80.731672 -245.664199 
L 80.90525 -246.290175 
L 81.066444 -246.916151 
L 81.21425 -247.542126 
L 81.34644 -248.168102 
L 81.460207 -248.794078 
L 81.553046 -249.420053 
L 81.623663 -250.046029 
L 81.672695 -250.672004 
L 81.703035 -251.29798 
L 81.719609 -251.923956 
L 81.728596 -252.549931 
L 81.736225 -253.175907 
L 81.747505 -253.801883 
L 81.765269 -254.427858 
L 81.78985 -255.053834 
L 81.819458 -255.679809 
L 81.851066 -256.305785 
L 81.881457 -256.931761 
L 81.908084 -257.557736 
L 81.929512 -258.183712 
L 81.945441 -258.809687 
L 81.999246 -258.809687 
L 81.999246 -258.809687 
L 82.015176 -258.183712 
L 82.036603 -257.557736 
L 82.06323 -256.931761 
L 82.093622 -256.305785 
L 82.12523 -255.679809 
L 82.154838 -255.053834 
L 82.179419 -254.427858 
L 82.197182 -253.801883 
L 82.208462 -253.175907 
L 82.216092 -252.549931 
L 82.225078 -251.923956 
L 82.241652 -251.29798 
L 82.271992 -250.672004 
L 82.321025 -250.046029 
L 82.391642 -249.420053 
L 82.484481 -248.794078 
L 82.598248 -248.168102 
L 82.730438 -247.542126 
L 82.878243 -246.916151 
L 83.039437 -246.290175 
L 83.213015 -245.664199 
L 83.399391 -245.038224 
L 83.600055 -244.412248 
L 83.816775 -243.786273 
L 84.05061 -243.160297 
L 84.301109 -242.534321 
L 84.56598 -241.908346 
L 84.841322 -241.28237 
L 85.122299 -240.656394 
L 85.404064 -240.030419 
L 85.682776 -239.404443 
L 85.95664 -238.778468 
L 86.226886 -238.152492 
L 86.498502 -237.526516 
L 86.780414 -236.900541 
L 87.084825 -236.274565 
L 87.425605 -235.648589 
L 87.815912 -235.022614 
L 88.265446 -234.396638 
L 88.777933 -233.770663 
L 89.349421 -233.144687 
L 89.96793 -232.518711 
L 90.614783 -231.892736 
L 91.267558 -231.26676 
L 91.904065 -230.640785 
L 92.5062 -230.014809 
L 93.062336 -229.388833 
L 93.56722 -228.762858 
L 94.019246 -228.136882 
L 94.416148 -227.510906 
L 94.751008 -226.884931 
L 95.01064 -226.258955 
L 95.177564 -225.63298 
L 95.235316 -225.007004 
L 95.175281 -224.381028 
L 95.002329 -223.755053 
L 94.736762 -223.129077 
L 94.411284 -222.503101 
L 94.063575 -221.877126 
L 93.726662 -221.25115 
L 93.42019 -220.625175 
L 93.145413 -219.999199 
L 92.885449 -219.373223 
L 92.610557 -218.747248 
L 92.286553 -218.121272 
L 91.883661 -217.495296 
L 91.383312 -216.869321 
L 90.781496 -216.243345 
L 90.088593 -215.61737 
L 89.326606 -214.991394 
L 88.525041 -214.365418 
L 87.716485 -213.739443 
L 86.93246 -213.113467 
L 86.199942 -212.487491 
L 85.538815 -211.861516 
L 84.960577 -211.23554 
L 84.468474 -210.609565 
L 84.058956 -209.983589 
L 83.723989 -209.357613 
L 83.453564 -208.731638 
L 83.237741 -208.105662 
L 83.06783 -207.479686 
L 82.936607 -206.853711 
L 82.837767 -206.227735 
L 82.765037 -205.60176 
L 82.711439 -204.975784 
L 82.66912 -204.349808 
L 82.62992 -203.723833 
L 82.586566 -203.097857 
L 82.534043 -202.471882 
L 82.470591 -201.845906 
L 82.397905 -201.21993 
L 82.320408 -200.593955 
L 82.243852 -199.967979 
L 82.173748 -199.342003 
L 82.114121 -198.716028 
L 82.066911 -198.090052 
L 82.032046 -197.464077 
L 82.007989 -196.838101 
z
" id="mdaf53caadc" style="stroke:#4c4c4c;stroke-width:1.5;"/>
    </defs>
    <g clip-path="url(#p7fd5f4f1cd)">
     <use style="fill:#5875a4;stroke:#4c4c4c;stroke-width:1.5;" x="0" xlink:href="#mdaf53caadc" y="275.739688"/>
    </g>
   </g>
   <g id="PolyCollection_2">
    <defs>
     <path d="M 127.885037 -184.209688 
L 127.849651 -184.209688 
L 127.838534 -184.763061 
L 127.823508 -185.316434 
L 127.805011 -185.869807 
L 127.784483 -186.42318 
L 127.764297 -186.976553 
L 127.747278 -187.529927 
L 127.735843 -188.0833 
L 127.731018 -188.636673 
L 127.731646 -189.190046 
L 127.73408 -189.743419 
L 127.732503 -190.296792 
L 127.719785 -190.850166 
L 127.688667 -191.403539 
L 127.633016 -191.956912 
L 127.5489 -192.510285 
L 127.435311 -193.063658 
L 127.294366 -193.617031 
L 127.130944 -194.170405 
L 126.951866 -194.723778 
L 126.764851 -195.277151 
L 126.577561 -195.830524 
L 126.396916 -196.383897 
L 126.228582 -196.93727 
L 126.076347 -197.490644 
L 125.941102 -198.044017 
L 125.819481 -198.59739 
L 125.702705 -199.150763 
L 125.576516 -199.704136 
L 125.422841 -200.257509 
L 125.223145 -200.810883 
L 124.962454 -201.364256 
L 124.632627 -201.917629 
L 124.233751 -202.471002 
L 123.773609 -203.024375 
L 123.266087 -203.577748 
L 122.72961 -204.131122 
L 122.185958 -204.684495 
L 121.658764 -205.237868 
L 121.170587 -205.791241 
L 120.738087 -206.344614 
L 120.366343 -206.897988 
L 120.044577 -207.451361 
L 119.745687 -208.004734 
L 119.430813 -208.558107 
L 119.058167 -209.11148 
L 118.593637 -209.664853 
L 118.019824 -210.218227 
L 117.340667 -210.7716 
L 116.580288 -211.324973 
L 115.776758 -211.878346 
L 114.973235 -212.431719 
L 114.209768 -212.985092 
L 113.518305 -213.538466 
L 112.921584 -214.091839 
L 112.434557 -214.645212 
L 112.065969 -215.198585 
L 111.818425 -215.751958 
L 111.6871 -216.305331 
L 111.659019 -216.858705 
L 111.715172 -217.412078 
L 111.836364 -217.965451 
L 112.011238 -218.518824 
L 112.24297 -219.072197 
L 112.55101 -219.62557 
L 112.966223 -220.178944 
L 113.520829 -220.732317 
L 114.237 -221.28569 
L 115.118423 -221.839063 
L 116.147622 -222.392436 
L 117.289294 -222.945809 
L 118.497708 -223.499183 
L 119.725216 -224.052556 
L 120.929097 -224.605929 
L 122.075131 -225.159302 
L 123.1378 -225.712675 
L 124.098367 -226.266049 
L 124.942756 -226.819422 
L 125.66076 -227.372795 
L 126.246983 -227.926168 
L 126.702629 -228.479541 
L 127.03669 -229.032914 
L 127.265411 -229.586288 
L 127.409922 -230.139661 
L 127.492871 -230.693034 
L 127.535247 -231.246407 
L 127.554323 -231.79978 
L 127.56295 -232.353153 
L 127.569885 -232.906527 
L 127.58056 -233.4599 
L 127.597818 -234.013273 
L 127.622431 -234.566646 
L 127.653479 -235.120019 
L 127.688753 -235.673392 
L 127.725308 -236.226766 
L 127.760127 -236.780139 
L 127.790748 -237.333512 
L 127.815682 -237.886885 
L 127.834512 -238.440258 
L 127.847716 -238.993631 
L 127.886971 -238.993631 
L 127.886971 -238.993631 
L 127.900175 -238.440258 
L 127.919005 -237.886885 
L 127.943939 -237.333512 
L 127.974561 -236.780139 
L 128.009379 -236.226766 
L 128.045934 -235.673392 
L 128.081208 -235.120019 
L 128.112256 -234.566646 
L 128.13687 -234.013273 
L 128.154127 -233.4599 
L 128.164802 -232.906527 
L 128.171738 -232.353153 
L 128.180365 -231.79978 
L 128.19944 -231.246407 
L 128.241817 -230.693034 
L 128.324765 -230.139661 
L 128.469277 -229.586288 
L 128.697997 -229.032914 
L 129.032058 -228.479541 
L 129.487705 -227.926168 
L 130.073927 -227.372795 
L 130.791932 -226.819422 
L 131.636321 -226.266049 
L 132.596888 -225.712675 
L 133.659557 -225.159302 
L 134.805591 -224.605929 
L 136.009471 -224.052556 
L 137.236979 -223.499183 
L 138.445394 -222.945809 
L 139.587065 -222.392436 
L 140.616265 -221.839063 
L 141.497688 -221.28569 
L 142.213859 -220.732317 
L 142.768465 -220.178944 
L 143.183678 -219.62557 
L 143.491718 -219.072197 
L 143.723449 -218.518824 
L 143.898323 -217.965451 
L 144.019516 -217.412078 
L 144.075669 -216.858705 
L 144.047587 -216.305331 
L 143.916263 -215.751958 
L 143.668719 -215.198585 
L 143.300131 -214.645212 
L 142.813103 -214.091839 
L 142.216382 -213.538466 
L 141.524919 -212.985092 
L 140.761453 -212.431719 
L 139.95793 -211.878346 
L 139.154399 -211.324973 
L 138.394021 -210.7716 
L 137.714863 -210.218227 
L 137.14105 -209.664853 
L 136.676521 -209.11148 
L 136.303875 -208.558107 
L 135.989 -208.004734 
L 135.690111 -207.451361 
L 135.368345 -206.897988 
L 134.996601 -206.344614 
L 134.5641 -205.791241 
L 134.075923 -205.237868 
L 133.54873 -204.684495 
L 133.005077 -204.131122 
L 132.4686 -203.577748 
L 131.961079 -203.024375 
L 131.500937 -202.471002 
L 131.102061 -201.917629 
L 130.772233 -201.364256 
L 130.511543 -200.810883 
L 130.311846 -200.257509 
L 130.158172 -199.704136 
L 130.031982 -199.150763 
L 129.915206 -198.59739 
L 129.793585 -198.044017 
L 129.658341 -197.490644 
L 129.506106 -196.93727 
L 129.337771 -196.383897 
L 129.157126 -195.830524 
L 128.969837 -195.277151 
L 128.782822 -194.723778 
L 128.603744 -194.170405 
L 128.440322 -193.617031 
L 128.299376 -193.063658 
L 128.185787 -192.510285 
L 128.101672 -191.956912 
L 128.04602 -191.403539 
L 128.014903 -190.850166 
L 128.002185 -190.296792 
L 128.000608 -189.743419 
L 128.003042 -189.190046 
L 128.003669 -188.636673 
L 127.998845 -188.0833 
L 127.98741 -187.529927 
L 127.97039 -186.976553 
L 127.950205 -186.42318 
L 127.929677 -185.869807 
L 127.91118 -185.316434 
L 127.896154 -184.763061 
L 127.885037 -184.209688 
z
" id="m4d06353997" style="stroke:#4c4c4c;stroke-width:1.5;"/>
    </defs>
    <g clip-path="url(#p7fd5f4f1cd)">
     <use style="fill:#cc8963;stroke:#4c4c4c;stroke-width:1.5;" x="0" xlink:href="#m4d06353997" y="275.739688"/>
    </g>
   </g>
   <g id="PolyCollection_3">
    <defs>
     <path d="M 173.81935 -213.427587 
L 173.705338 -213.427587 
L 173.678021 -213.812857 
L 173.640679 -214.198128 
L 173.590802 -214.583398 
L 173.525489 -214.968669 
L 173.441326 -215.353939 
L 173.334184 -215.739209 
L 173.19894 -216.12448 
L 173.029191 -216.50975 
L 172.817027 -216.895021 
L 172.552997 -217.280291 
L 172.226397 -217.665561 
L 171.825959 -218.050832 
L 171.340969 -218.436102 
L 170.762712 -218.821372 
L 170.086037 -219.206643 
L 169.310732 -219.591913 
L 168.442403 -219.977184 
L 167.492582 -220.362454 
L 166.477983 -220.747724 
L 165.418986 -221.132995 
L 164.337678 -221.518265 
L 163.255862 -221.903536 
L 162.193489 -222.288806 
L 161.167814 -222.674076 
L 160.193373 -223.059347 
L 159.282595 -223.444617 
L 158.446683 -223.829887 
L 157.696317 -224.215158 
L 157.041786 -224.600428 
L 156.4924 -224.985699 
L 156.055219 -225.370969 
L 155.73342 -225.756239 
L 155.524709 -226.14151 
L 155.420231 -226.52678 
L 155.404344 -226.91205 
L 155.455469 -227.297321 
L 155.548055 -227.682591 
L 155.655512 -228.067862 
L 155.753767 -228.453132 
L 155.824936 -228.838402 
L 155.860498 -229.223673 
L 155.863291 -229.608943 
L 155.847833 -229.994214 
L 155.838678 -230.379484 
L 155.86698 -230.764754 
L 155.965818 -231.150025 
L 156.165182 -231.535295 
L 156.487606 -231.920565 
L 156.945293 -232.305836 
L 157.539178 -232.691106 
L 158.259902 -233.076377 
L 159.090188 -233.461647 
L 160.007895 -233.846917 
L 160.988931 -234.232188 
L 162.009476 -234.617458 
L 163.047242 -235.002728 
L 164.08187 -235.387999 
L 165.094756 -235.773269 
L 166.068734 -236.15854 
L 166.987908 -236.54381 
L 167.837807 -236.92908 
L 168.605847 -237.314351 
L 169.281954 -237.699621 
L 169.859177 -238.084892 
L 170.334144 -238.470162 
L 170.707289 -238.855432 
L 170.982841 -239.240703 
L 171.168623 -239.625973 
L 171.275674 -240.011243 
L 171.317707 -240.396514 
L 171.310398 -240.781784 
L 171.270464 -241.167055 
L 171.21459 -241.552325 
L 171.158262 -241.937595 
L 171.114664 -242.322866 
L 171.093798 -242.708136 
L 171.101979 -243.093407 
L 171.14181 -243.478677 
L 171.212597 -243.863947 
L 171.311149 -244.249218 
L 171.432753 -244.634488 
L 171.57215 -245.019758 
L 171.724324 -245.405029 
L 171.884993 -245.790299 
L 172.050765 -246.17557 
L 172.219013 -246.56084 
L 172.387569 -246.94611 
L 172.554382 -247.331381 
L 172.717257 -247.716651 
L 172.873749 -248.101921 
L 173.021241 -248.487192 
L 173.157165 -248.872462 
L 173.279299 -249.257733 
L 173.386043 -249.643003 
L 173.476615 -250.028273 
L 173.551119 -250.413544 
L 173.610468 -250.798814 
L 173.656216 -251.184085 
L 173.690323 -251.569355 
L 173.834365 -251.569355 
L 173.834365 -251.569355 
L 173.868471 -251.184085 
L 173.91422 -250.798814 
L 173.973569 -250.413544 
L 174.048072 -250.028273 
L 174.138645 -249.643003 
L 174.245389 -249.257733 
L 174.367523 -248.872462 
L 174.503447 -248.487192 
L 174.650939 -248.101921 
L 174.80743 -247.716651 
L 174.970305 -247.331381 
L 175.137118 -246.94611 
L 175.305674 -246.56084 
L 175.473922 -246.17557 
L 175.639695 -245.790299 
L 175.800364 -245.405029 
L 175.952537 -245.019758 
L 176.091934 -244.634488 
L 176.213538 -244.249218 
L 176.31209 -243.863947 
L 176.382878 -243.478677 
L 176.422708 -243.093407 
L 176.43089 -242.708136 
L 176.410023 -242.322866 
L 176.366425 -241.937595 
L 176.310098 -241.552325 
L 176.254223 -241.167055 
L 176.214289 -240.781784 
L 176.20698 -240.396514 
L 176.249014 -240.011243 
L 176.356064 -239.625973 
L 176.541846 -239.240703 
L 176.817399 -238.855432 
L 177.190544 -238.470162 
L 177.665511 -238.084892 
L 178.242734 -237.699621 
L 178.918841 -237.314351 
L 179.686881 -236.92908 
L 180.53678 -236.54381 
L 181.455954 -236.15854 
L 182.429932 -235.773269 
L 183.442818 -235.387999 
L 184.477445 -235.002728 
L 185.515212 -234.617458 
L 186.535757 -234.232188 
L 187.516792 -233.846917 
L 188.434499 -233.461647 
L 189.264786 -233.076377 
L 189.985509 -232.691106 
L 190.579394 -232.305836 
L 191.037081 -231.920565 
L 191.359505 -231.535295 
L 191.55887 -231.150025 
L 191.657708 -230.764754 
L 191.686009 -230.379484 
L 191.676854 -229.994214 
L 191.661396 -229.608943 
L 191.66419 -229.223673 
L 191.699751 -228.838402 
L 191.770921 -228.453132 
L 191.869175 -228.067862 
L 191.976633 -227.682591 
L 192.069219 -227.297321 
L 192.120344 -226.91205 
L 192.104457 -226.52678 
L 191.999979 -226.14151 
L 191.791267 -225.756239 
L 191.469468 -225.370969 
L 191.032287 -224.985699 
L 190.482901 -224.600428 
L 189.828371 -224.215158 
L 189.078004 -223.829887 
L 188.242093 -223.444617 
L 187.331314 -223.059347 
L 186.356873 -222.674076 
L 185.331198 -222.288806 
L 184.268825 -221.903536 
L 183.18701 -221.518265 
L 182.105702 -221.132995 
L 181.046705 -220.747724 
L 180.032105 -220.362454 
L 179.082284 -219.977184 
L 178.213955 -219.591913 
L 177.438651 -219.206643 
L 176.761975 -218.821372 
L 176.183718 -218.436102 
L 175.698728 -218.050832 
L 175.29829 -217.665561 
L 174.97169 -217.280291 
L 174.707661 -216.895021 
L 174.495497 -216.50975 
L 174.325748 -216.12448 
L 174.190504 -215.739209 
L 174.083361 -215.353939 
L 173.999199 -214.968669 
L 173.933886 -214.583398 
L 173.884009 -214.198128 
L 173.846667 -213.812857 
L 173.81935 -213.427587 
z
" id="m653942fe7e" style="stroke:#4c4c4c;stroke-width:1.5;"/>
    </defs>
    <g clip-path="url(#p7fd5f4f1cd)">
     <use style="fill:#5f9e6e;stroke:#4c4c4c;stroke-width:1.5;" x="0" xlink:href="#m653942fe7e" y="275.739688"/>
    </g>
   </g>
   <g id="line2d_4">
    <path clip-path="url(#p7fd5f4f1cd)" d="M 81.972344 73.793795 
L 81.972344 28.152433 
" style="fill:none;stroke:#4c4c4c;stroke-linecap:round;stroke-width:1.5;"/>
   </g>
   <g id="line2d_5">
    <path clip-path="url(#p7fd5f4f1cd)" d="M 81.972344 56.701724 
L 81.972344 45.159861 
" style="fill:none;stroke:#4c4c4c;stroke-linecap:round;stroke-width:4.5;"/>
   </g>
   <g id="line2d_6">
    <path clip-path="url(#p7fd5f4f1cd)" d="M 127.867344 78.823218 
L 127.867344 42.92382 
" style="fill:none;stroke:#4c4c4c;stroke-linecap:round;stroke-width:1.5;"/>
   </g>
   <g id="line2d_7">
    <path clip-path="url(#p7fd5f4f1cd)" d="M 127.867344 65.343301 
L 127.867344 55.676204 
" style="fill:none;stroke:#4c4c4c;stroke-linecap:round;stroke-width:4.5;"/>
   </g>
   <g id="line2d_8">
    <path clip-path="url(#p7fd5f4f1cd)" d="M 173.762344 58.105562 
L 173.762344 33.254346 
" style="fill:none;stroke:#4c4c4c;stroke-linecap:round;stroke-width:1.5;"/>
   </g>
   <g id="line2d_9">
    <path clip-path="url(#p7fd5f4f1cd)" d="M 173.762344 50.353496 
L 173.762344 43.244823 
" style="fill:none;stroke:#4c4c4c;stroke-linecap:round;stroke-width:4.5;"/>
   </g>
   <g id="patch_3">
    <path d="M 59.024844 95.26 
L 59.024844 13.2 
" style="fill:none;stroke:#ffffff;stroke-linecap:square;stroke-linejoin:miter;stroke-width:1.25;"/>
   </g>
   <g id="patch_4">
    <path d="M 196.709844 95.26 
L 196.709844 13.2 
" style="fill:none;stroke:#ffffff;stroke-linecap:square;stroke-linejoin:miter;stroke-width:1.25;"/>
   </g>
   <g id="patch_5">
    <path d="M 59.024844 95.26 
L 196.709844 95.26 
" style="fill:none;stroke:#ffffff;stroke-linecap:square;stroke-linejoin:miter;stroke-width:1.25;"/>
   </g>
   <g id="patch_6">
    <path d="M 59.024844 13.2 
L 196.709844 13.2 
" style="fill:none;stroke:#ffffff;stroke-linecap:square;stroke-linejoin:miter;stroke-width:1.25;"/>
   </g>
   <g id="PathCollection_1">
    <defs>
     <path d="M 0 1.5 
C 0.397805 1.5 0.77937 1.341951 1.06066 1.06066 
C 1.341951 0.77937 1.5 0.397805 1.5 0 
C 1.5 -0.397805 1.341951 -0.77937 1.06066 -1.06066 
C 0.77937 -1.341951 0.397805 -1.5 0 -1.5 
C -0.397805 -1.5 -0.77937 -1.341951 -1.06066 -1.06066 
C -1.341951 -0.77937 -1.5 -0.397805 -1.5 0 
C -1.5 0.397805 -1.341951 0.77937 -1.06066 1.06066 
C -0.77937 1.341951 -0.397805 1.5 0 1.5 
z
" id="mdaea369e8d" style="stroke:#4c4c4c;"/>
    </defs>
    <g clip-path="url(#p7fd5f4f1cd)">
     <use style="fill:#ffffff;stroke:#4c4c4c;" x="81.972344" xlink:href="#mdaea369e8d" y="50.817084"/>
    </g>
   </g>
   <g id="PathCollection_2">
    <g clip-path="url(#p7fd5f4f1cd)">
     <use style="fill:#ffffff;stroke:#4c4c4c;" x="127.867344" xlink:href="#mdaea369e8d" y="60.234813"/>
    </g>
   </g>
   <g id="PathCollection_3">
    <g clip-path="url(#p7fd5f4f1cd)">
     <use style="fill:#ffffff;stroke:#4c4c4c;" x="173.762344" xlink:href="#mdaea369e8d" y="47.028213"/>
    </g>
   </g>
  </g>
  <g id="axes_2">
   <g id="patch_7">
    <path d="M 268.544844 95.26 
L 406.229844 95.26 
L 406.229844 13.2 
L 268.544844 13.2 
z
" style="fill:#eaeaf2;"/>
   </g>
   <g id="matplotlib.axis_3">
    <g id="xtick_4">
     <g id="text_9">
      <!-- 0.0 -->
      <g style="fill:#262626;" transform="translate(282.745625 113.118281)scale(0.11 -0.11)">
       <use xlink:href="#DejaVuSans-48"/>
       <use x="63.623047" xlink:href="#DejaVuSans-46"/>
       <use x="95.410156" xlink:href="#DejaVuSans-48"/>
      </g>
     </g>
    </g>
    <g id="xtick_5">
     <g id="text_10">
      <!-- 1.0 -->
      <g style="fill:#262626;" transform="translate(328.640625 113.118281)scale(0.11 -0.11)">
       <use xlink:href="#DejaVuSans-49"/>
       <use x="63.623047" xlink:href="#DejaVuSans-46"/>
       <use x="95.410156" xlink:href="#DejaVuSans-48"/>
      </g>
     </g>
    </g>
    <g id="xtick_6">
     <g id="text_11">
      <!-- 2.0 -->
      <g style="fill:#262626;" transform="translate(374.535625 113.118281)scale(0.11 -0.11)">
       <use xlink:href="#DejaVuSans-50"/>
       <use x="63.623047" xlink:href="#DejaVuSans-46"/>
       <use x="95.410156" xlink:href="#DejaVuSans-48"/>
      </g>
     </g>
    </g>
    <g id="text_12">
     <!-- y -->
     <g style="fill:#262626;" transform="translate(333.836094 128.524062)scale(0.12 -0.12)">
      <use xlink:href="#DejaVuSans-121"/>
     </g>
    </g>
   </g>
   <g id="matplotlib.axis_4">
    <g id="ytick_4">
     <g id="line2d_10">
      <path clip-path="url(#p9e40f871ab)" d="M 268.544844 82.579518 
L 406.229844 82.579518 
" style="fill:none;stroke:#ffffff;stroke-linecap:round;"/>
     </g>
     <g id="text_13">
      <!-- −2.5 -->
      <g style="fill:#262626;" transform="translate(232.33375 86.758659)scale(0.11 -0.11)">
       <use xlink:href="#DejaVuSans-8722"/>
       <use x="83.789062" xlink:href="#DejaVuSans-50"/>
       <use x="147.412109" xlink:href="#DejaVuSans-46"/>
       <use x="179.199219" xlink:href="#DejaVuSans-53"/>
      </g>
     </g>
    </g>
    <g id="ytick_5">
     <g id="line2d_11">
      <path clip-path="url(#p9e40f871ab)" d="M 268.544844 57.914784 
L 406.229844 57.914784 
" style="fill:none;stroke:#ffffff;stroke-linecap:round;"/>
     </g>
     <g id="text_14">
      <!-- 0.0 -->
      <g style="fill:#262626;" transform="translate(241.551406 62.093925)scale(0.11 -0.11)">
       <use xlink:href="#DejaVuSans-48"/>
       <use x="63.623047" xlink:href="#DejaVuSans-46"/>
       <use x="95.410156" xlink:href="#DejaVuSans-48"/>
      </g>
     </g>
    </g>
    <g id="ytick_6">
     <g id="line2d_12">
      <path clip-path="url(#p9e40f871ab)" d="M 268.544844 33.250051 
L 406.229844 33.250051 
" style="fill:none;stroke:#ffffff;stroke-linecap:round;"/>
     </g>
     <g id="text_15">
      <!-- 2.5 -->
      <g style="fill:#262626;" transform="translate(241.551406 37.429191)scale(0.11 -0.11)">
       <use xlink:href="#DejaVuSans-50"/>
       <use x="63.623047" xlink:href="#DejaVuSans-46"/>
       <use x="95.410156" xlink:href="#DejaVuSans-53"/>
      </g>
     </g>
    </g>
    <g id="text_16">
     <!-- x1 -->
     <g style="fill:#262626;" transform="translate(225.838125 61.59875)rotate(-90)scale(0.12 -0.12)">
      <use xlink:href="#DejaVuSans-120"/>
      <use x="59.179688" xlink:href="#DejaVuSans-49"/>
     </g>
    </g>
   </g>
   <g id="PolyCollection_4">
    <defs>
     <path d="M 291.521142 -184.305057 
L 291.463545 -184.305057 
L 291.44373 -185.057629 
L 291.415518 -185.810201 
L 291.378653 -186.562773 
L 291.334737 -187.315345 
L 291.287556 -188.067917 
L 291.242688 -188.82049 
L 291.206264 -189.573062 
L 291.183136 -190.325634 
L 291.175013 -191.078206 
L 291.179254 -191.830778 
L 291.188799 -192.58335 
L 291.193242 -193.335922 
L 291.180614 -194.088494 
L 291.139223 -194.841066 
L 291.058976 -195.593638 
L 290.931917 -196.34621 
L 290.751987 -197.098782 
L 290.514191 -197.851354 
L 290.21339 -198.603926 
L 289.84305 -199.356498 
L 289.394403 -200.10907 
L 288.856615 -200.861642 
L 288.218316 -201.614214 
L 287.47028 -202.366786 
L 286.608444 -203.119358 
L 285.636253 -203.87193 
L 284.565833 -204.624502 
L 283.418297 -205.377074 
L 282.223802 -206.129646 
L 281.021377 -206.882218 
L 279.857277 -207.63479 
L 278.780063 -208.387362 
L 277.831645 -209.139934 
L 277.036207 -209.892506 
L 276.391614 -210.645078 
L 275.868535 -211.39765 
L 275.419874 -212.150222 
L 274.998204 -212.902794 
L 274.57435 -213.655366 
L 274.148878 -214.407938 
L 273.751079 -215.16051 
L 273.425738 -215.913082 
L 273.213608 -216.665654 
L 273.134344 -217.418226 
L 273.179487 -218.170798 
L 273.318464 -218.92337 
L 273.514558 -219.675942 
L 273.743011 -220.428514 
L 274.002137 -221.181086 
L 274.311743 -221.933658 
L 274.699781 -222.68623 
L 275.184662 -223.438802 
L 275.763035 -224.191375 
L 276.409573 -224.943947 
L 277.088176 -225.696519 
L 277.767681 -226.449091 
L 278.433355 -227.201663 
L 279.088854 -227.954235 
L 279.749183 -228.706807 
L 280.429665 -229.459379 
L 281.136787 -230.211951 
L 281.864464 -230.964523 
L 282.595946 -231.717095 
L 283.309291 -232.469667 
L 283.983733 -233.222239 
L 284.604932 -233.974811 
L 285.168066 -234.727383 
L 285.678457 -235.479955 
L 286.149873 -236.232527 
L 286.600885 -236.985099 
L 287.049995 -237.737671 
L 287.510677 -238.490243 
L 287.987684 -239.242815 
L 288.475813 -239.995387 
L 288.961506 -240.747959 
L 289.426622 -241.500531 
L 289.852939 -242.253103 
L 290.225863 -243.005675 
L 290.536481 -243.758247 
L 290.781938 -244.510819 
L 290.964722 -245.263391 
L 291.091485 -246.015963 
L 291.171746 -246.768535 
L 291.216539 -247.521107 
L 291.237043 -248.273679 
L 291.243325 -249.026251 
L 291.24348 -249.778823 
L 291.243351 -250.531395 
L 291.246748 -251.283967 
L 291.255892 -252.036539 
L 291.271761 -252.789111 
L 291.294214 -253.541683 
L 291.322003 -254.294255 
L 291.352918 -255.046827 
L 291.384203 -255.799399 
L 291.413169 -256.551971 
L 291.43779 -257.304543 
L 291.45705 -258.057115 
L 291.470941 -258.809687 
L 291.513746 -258.809687 
L 291.513746 -258.809687 
L 291.527637 -258.057115 
L 291.546897 -257.304543 
L 291.571519 -256.551971 
L 291.600484 -255.799399 
L 291.631769 -255.046827 
L 291.662684 -254.294255 
L 291.690473 -253.541683 
L 291.712926 -252.789111 
L 291.728796 -252.036539 
L 291.73794 -251.283967 
L 291.741337 -250.531395 
L 291.741208 -249.778823 
L 291.741363 -249.026251 
L 291.747644 -248.273679 
L 291.768148 -247.521107 
L 291.812942 -246.768535 
L 291.893202 -246.015963 
L 292.019966 -245.263391 
L 292.20275 -244.510819 
L 292.448207 -243.758247 
L 292.758825 -243.005675 
L 293.131749 -242.253103 
L 293.558065 -241.500531 
L 294.023182 -240.747959 
L 294.508875 -239.995387 
L 294.997004 -239.242815 
L 295.474011 -238.490243 
L 295.934692 -237.737671 
L 296.383803 -236.985099 
L 296.834814 -236.232527 
L 297.306231 -235.479955 
L 297.816622 -234.727383 
L 298.379755 -233.974811 
L 299.000955 -233.222239 
L 299.675396 -232.469667 
L 300.388741 -231.717095 
L 301.120224 -230.964523 
L 301.847901 -230.211951 
L 302.555022 -229.459379 
L 303.235504 -228.706807 
L 303.895833 -227.954235 
L 304.551333 -227.201663 
L 305.217007 -226.449091 
L 305.896511 -225.696519 
L 306.575114 -224.943947 
L 307.221653 -224.191375 
L 307.800026 -223.438802 
L 308.284906 -222.68623 
L 308.672945 -221.933658 
L 308.98255 -221.181086 
L 309.241676 -220.428514 
L 309.470129 -219.675942 
L 309.666224 -218.92337 
L 309.8052 -218.170798 
L 309.850344 -217.418226 
L 309.77108 -216.665654 
L 309.558949 -215.913082 
L 309.233609 -215.16051 
L 308.835809 -214.407938 
L 308.410337 -213.655366 
L 307.986484 -212.902794 
L 307.564814 -212.150222 
L 307.116153 -211.39765 
L 306.593074 -210.645078 
L 305.94848 -209.892506 
L 305.153042 -209.139934 
L 304.204624 -208.387362 
L 303.12741 -207.63479 
L 301.96331 -206.882218 
L 300.760885 -206.129646 
L 299.566391 -205.377074 
L 298.418854 -204.624502 
L 297.348435 -203.87193 
L 296.376243 -203.119358 
L 295.514407 -202.366786 
L 294.766371 -201.614214 
L 294.128072 -200.861642 
L 293.590285 -200.10907 
L 293.141637 -199.356498 
L 292.771297 -198.603926 
L 292.470497 -197.851354 
L 292.2327 -197.098782 
L 292.052771 -196.34621 
L 291.925712 -195.593638 
L 291.845465 -194.841066 
L 291.804073 -194.088494 
L 291.791445 -193.335922 
L 291.795888 -192.58335 
L 291.805434 -191.830778 
L 291.809675 -191.078206 
L 291.801551 -190.325634 
L 291.778423 -189.573062 
L 291.741999 -188.82049 
L 291.697131 -188.067917 
L 291.649951 -187.315345 
L 291.606035 -186.562773 
L 291.569169 -185.810201 
L 291.540957 -185.057629 
L 291.521142 -184.305057 
z
" id="m26d1f4e269" style="stroke:#4c4c4c;stroke-width:1.5;"/>
    </defs>
    <g clip-path="url(#p9e40f871ab)">
     <use style="fill:#5875a4;stroke:#4c4c4c;stroke-width:1.5;" x="0" xlink:href="#m26d1f4e269" y="275.739688"/>
    </g>
   </g>
   <g id="PolyCollection_5">
    <defs>
     <path d="M 337.446941 -184.209688 
L 337.327746 -184.209688 
L 337.292797 -184.904842 
L 337.244634 -185.599996 
L 337.181995 -186.295151 
L 337.104901 -186.990305 
L 337.014653 -187.685459 
L 336.91329 -188.380614 
L 336.802575 -189.075768 
L 336.682806 -189.770923 
L 336.551916 -190.466077 
L 336.405272 -191.161231 
L 336.23635 -191.856386 
L 336.038085 -192.55154 
L 335.804454 -193.246695 
L 335.531779 -193.941849 
L 335.219414 -194.637003 
L 334.869708 -195.332158 
L 334.487279 -196.027312 
L 334.07769 -196.722467 
L 333.645595 -197.417621 
L 333.192576 -198.112775 
L 332.715174 -198.80793 
L 332.203957 -199.503084 
L 331.644472 -200.198238 
L 331.020494 -200.893393 
L 330.319076 -201.588547 
L 329.535899 -202.283702 
L 328.678875 -202.978856 
L 327.768217 -203.67401 
L 326.832422 -204.369165 
L 325.901277 -205.064319 
L 324.998485 -205.759474 
L 324.136962 -206.454628 
L 323.318973 -207.149782 
L 322.541232 -207.844937 
L 321.802846 -208.540091 
L 321.112476 -209.235246 
L 320.491194 -209.9304 
L 319.969242 -210.625554 
L 319.577539 -211.320709 
L 319.337094 -212.015863 
L 319.250563 -212.711017 
L 319.299348 -213.406172 
L 319.447523 -214.101326 
L 319.651193 -214.796481 
L 319.869977 -215.491635 
L 320.076836 -216.186789 
L 320.26341 -216.881944 
L 320.439936 -217.577098 
L 320.63055 -218.272253 
L 320.86586 -218.967407 
L 321.174781 -219.662561 
L 321.577264 -220.357716 
L 322.079089 -221.05287 
L 322.669594 -221.748025 
L 323.323011 -222.443179 
L 324.003504 -223.138333 
L 324.673106 -223.833488 
L 325.300647 -224.528642 
L 325.869098 -225.223796 
L 326.378949 -225.918951 
L 326.846451 -226.614105 
L 327.297343 -227.30926 
L 327.758314 -228.004414 
L 328.249232 -228.699568 
L 328.778634 -229.394723 
L 329.343528 -230.089877 
L 329.932782 -230.785032 
L 330.532135 -231.480186 
L 331.128666 -232.17534 
L 331.713282 -232.870495 
L 332.280939 -233.565649 
L 332.829307 -234.260804 
L 333.356956 -234.955958 
L 333.861972 -235.651112 
L 334.341382 -236.346267 
L 334.791323 -237.041421 
L 335.207613 -237.736575 
L 335.586368 -238.43173 
L 335.924474 -239.126884 
L 336.219832 -239.822039 
L 336.471456 -240.517193 
L 336.679514 -241.212347 
L 336.845385 -241.907502 
L 336.971771 -242.602656 
L 337.062781 -243.297811 
L 337.123908 -243.992965 
L 337.161773 -244.688119 
L 337.183591 -245.383274 
L 337.196414 -246.078428 
L 337.206296 -246.773583 
L 337.217608 -247.468737 
L 337.232673 -248.163891 
L 337.251845 -248.859046 
L 337.273971 -249.5542 
L 337.297085 -250.249354 
L 337.319116 -250.944509 
L 337.338435 -251.639663 
L 337.354117 -252.334818 
L 337.36596 -253.029972 
L 337.408728 -253.029972 
L 337.408728 -253.029972 
L 337.42057 -252.334818 
L 337.436253 -251.639663 
L 337.455571 -250.944509 
L 337.477603 -250.249354 
L 337.500716 -249.5542 
L 337.522842 -248.859046 
L 337.542015 -248.163891 
L 337.55708 -247.468737 
L 337.568392 -246.773583 
L 337.578274 -246.078428 
L 337.591096 -245.383274 
L 337.612914 -244.688119 
L 337.650779 -243.992965 
L 337.711907 -243.297811 
L 337.802917 -242.602656 
L 337.929302 -241.907502 
L 338.095173 -241.212347 
L 338.303231 -240.517193 
L 338.554856 -239.822039 
L 338.850214 -239.126884 
L 339.188319 -238.43173 
L 339.567075 -237.736575 
L 339.983364 -237.041421 
L 340.433306 -236.346267 
L 340.912716 -235.651112 
L 341.417731 -234.955958 
L 341.945381 -234.260804 
L 342.493749 -233.565649 
L 343.061406 -232.870495 
L 343.646022 -232.17534 
L 344.242553 -231.480186 
L 344.841905 -230.785032 
L 345.431159 -230.089877 
L 345.996054 -229.394723 
L 346.525456 -228.699568 
L 347.016374 -228.004414 
L 347.477345 -227.30926 
L 347.928236 -226.614105 
L 348.395739 -225.918951 
L 348.905589 -225.223796 
L 349.47404 -224.528642 
L 350.101582 -223.833488 
L 350.771184 -223.138333 
L 351.451677 -222.443179 
L 352.105093 -221.748025 
L 352.695598 -221.05287 
L 353.197423 -220.357716 
L 353.599907 -219.662561 
L 353.908827 -218.967407 
L 354.144137 -218.272253 
L 354.334752 -217.577098 
L 354.511277 -216.881944 
L 354.697851 -216.186789 
L 354.90471 -215.491635 
L 355.123495 -214.796481 
L 355.327164 -214.101326 
L 355.47534 -213.406172 
L 355.524125 -212.711017 
L 355.437593 -212.015863 
L 355.197149 -211.320709 
L 354.805445 -210.625554 
L 354.283494 -209.9304 
L 353.662211 -209.235246 
L 352.971841 -208.540091 
L 352.233456 -207.844937 
L 351.455715 -207.149782 
L 350.637726 -206.454628 
L 349.776203 -205.759474 
L 348.87341 -205.064319 
L 347.942265 -204.369165 
L 347.006471 -203.67401 
L 346.095813 -202.978856 
L 345.238789 -202.283702 
L 344.455612 -201.588547 
L 343.754193 -200.893393 
L 343.130215 -200.198238 
L 342.57073 -199.503084 
L 342.059513 -198.80793 
L 341.582111 -198.112775 
L 341.129092 -197.417621 
L 340.696998 -196.722467 
L 340.287409 -196.027312 
L 339.904979 -195.332158 
L 339.555273 -194.637003 
L 339.242909 -193.941849 
L 338.970233 -193.246695 
L 338.736602 -192.55154 
L 338.538337 -191.856386 
L 338.369415 -191.161231 
L 338.222771 -190.466077 
L 338.091881 -189.770923 
L 337.972112 -189.075768 
L 337.861397 -188.380614 
L 337.760034 -187.685459 
L 337.669786 -186.990305 
L 337.592693 -186.295151 
L 337.530053 -185.599996 
L 337.48189 -184.904842 
L 337.446941 -184.209688 
z
" id="m83b843fd06" style="stroke:#4c4c4c;stroke-width:1.5;"/>
    </defs>
    <g clip-path="url(#p9e40f871ab)">
     <use style="fill:#cc8963;stroke:#4c4c4c;stroke-width:1.5;" x="0" xlink:href="#m83b843fd06" y="275.739688"/>
    </g>
   </g>
   <g id="PolyCollection_6">
    <defs>
     <path d="M 383.358066 -189.271354 
L 383.206622 -189.271354 
L 383.166976 -189.919954 
L 383.111166 -190.568555 
L 383.034842 -191.217156 
L 382.933408 -191.865756 
L 382.802357 -192.514357 
L 382.637697 -193.162958 
L 382.436416 -193.811558 
L 382.196911 -194.460159 
L 381.919294 -195.10876 
L 381.605496 -195.757361 
L 381.259111 -196.405961 
L 380.884956 -197.054562 
L 380.488417 -197.703163 
L 380.074664 -198.351763 
L 379.647906 -199.000364 
L 379.210814 -199.648965 
L 378.764218 -200.297565 
L 378.307094 -200.946166 
L 377.836796 -201.594767 
L 377.349395 -202.243368 
L 376.840009 -202.891968 
L 376.303055 -203.540569 
L 375.732421 -204.18917 
L 375.121679 -204.83777 
L 374.464526 -205.486371 
L 373.755588 -206.134972 
L 372.991679 -206.783572 
L 372.173401 -207.432173 
L 371.30683 -208.080774 
L 370.404851 -208.729375 
L 369.487712 -209.377975 
L 368.58239 -210.026576 
L 367.720619 -210.675177 
L 366.935687 -211.323777 
L 366.258413 -211.972378 
L 365.712991 -212.620979 
L 365.313467 -213.26958 
L 365.061561 -213.91818 
L 364.946342 -214.566781 
L 364.94586 -215.215382 
L 365.030496 -215.863982 
L 365.167427 -216.512583 
L 365.325393 -217.161184 
L 365.478985 -217.809784 
L 365.611779 -218.458385 
L 365.717958 -219.106986 
L 365.802331 -219.755587 
L 365.878958 -220.404187 
L 365.968707 -221.052788 
L 366.096162 -221.701389 
L 366.286261 -222.349989 
L 366.561027 -222.99859 
L 366.936703 -223.647191 
L 367.421614 -224.295791 
L 368.015039 -224.944392 
L 368.707283 -225.592993 
L 369.481005 -226.241594 
L 370.313612 -226.890194 
L 371.180292 -227.538795 
L 372.057129 -228.187396 
L 372.923679 -228.835996 
L 373.764569 -229.484597 
L 374.56991 -230.133198 
L 375.334641 -230.781799 
L 376.057143 -231.430399 
L 376.737581 -232.079 
L 377.376431 -232.727601 
L 377.973464 -233.376201 
L 378.527311 -234.024802 
L 379.035569 -234.673403 
L 379.495295 -235.322003 
L 379.903712 -235.970604 
L 380.25897 -236.619205 
L 380.560826 -237.267806 
L 380.811148 -237.916406 
L 381.014152 -238.565007 
L 381.176312 -239.213608 
L 381.305939 -239.862208 
L 381.412436 -240.510809 
L 381.505364 -241.15941 
L 381.593447 -241.80801 
L 381.683723 -242.456611 
L 381.780973 -243.105212 
L 381.887522 -243.753813 
L 382.003411 -244.402413 
L 382.12686 -245.051014 
L 382.254883 -245.699615 
L 382.383919 -246.348215 
L 382.510371 -246.996816 
L 382.630992 -247.645417 
L 382.743115 -248.294017 
L 382.844757 -248.942618 
L 382.934633 -249.591219 
L 383.012125 -250.23982 
L 383.077227 -250.88842 
L 383.130456 -251.537021 
L 383.172764 -252.185622 
L 383.20541 -252.834222 
L 383.229837 -253.482823 
L 383.334851 -253.482823 
L 383.334851 -253.482823 
L 383.359278 -252.834222 
L 383.391924 -252.185622 
L 383.434231 -251.537021 
L 383.487461 -250.88842 
L 383.552562 -250.23982 
L 383.630055 -249.591219 
L 383.719931 -248.942618 
L 383.821573 -248.294017 
L 383.933696 -247.645417 
L 384.054317 -246.996816 
L 384.180769 -246.348215 
L 384.309805 -245.699615 
L 384.437828 -245.051014 
L 384.561277 -244.402413 
L 384.677166 -243.753813 
L 384.783714 -243.105212 
L 384.880964 -242.456611 
L 384.971241 -241.80801 
L 385.059324 -241.15941 
L 385.152251 -240.510809 
L 385.258749 -239.862208 
L 385.388375 -239.213608 
L 385.550536 -238.565007 
L 385.753539 -237.916406 
L 386.003861 -237.267806 
L 386.305718 -236.619205 
L 386.660976 -235.970604 
L 387.069393 -235.322003 
L 387.529119 -234.673403 
L 388.037377 -234.024802 
L 388.591223 -233.376201 
L 389.188256 -232.727601 
L 389.827107 -232.079 
L 390.507545 -231.430399 
L 391.230046 -230.781799 
L 391.994778 -230.133198 
L 392.800119 -229.484597 
L 393.641008 -228.835996 
L 394.507558 -228.187396 
L 395.384395 -227.538795 
L 396.251076 -226.890194 
L 397.083682 -226.241594 
L 397.857404 -225.592993 
L 398.549648 -224.944392 
L 399.143073 -224.295791 
L 399.627985 -223.647191 
L 400.003661 -222.99859 
L 400.278426 -222.349989 
L 400.468526 -221.701389 
L 400.59598 -221.052788 
L 400.685729 -220.404187 
L 400.762356 -219.755587 
L 400.84673 -219.106986 
L 400.952908 -218.458385 
L 401.085703 -217.809784 
L 401.239294 -217.161184 
L 401.39726 -216.512583 
L 401.534191 -215.863982 
L 401.618828 -215.215382 
L 401.618345 -214.566781 
L 401.503126 -213.91818 
L 401.251221 -213.26958 
L 400.851697 -212.620979 
L 400.306275 -211.972378 
L 399.629 -211.323777 
L 398.844068 -210.675177 
L 397.982298 -210.026576 
L 397.076976 -209.377975 
L 396.159836 -208.729375 
L 395.257858 -208.080774 
L 394.391286 -207.432173 
L 393.573009 -206.783572 
L 392.809099 -206.134972 
L 392.100161 -205.486371 
L 391.443008 -204.83777 
L 390.832267 -204.18917 
L 390.261632 -203.540569 
L 389.724679 -202.891968 
L 389.215293 -202.243368 
L 388.727891 -201.594767 
L 388.257593 -200.946166 
L 387.80047 -200.297565 
L 387.353874 -199.648965 
L 386.916782 -199.000364 
L 386.490024 -198.351763 
L 386.07627 -197.703163 
L 385.679731 -197.054562 
L 385.305577 -196.405961 
L 384.959192 -195.757361 
L 384.645394 -195.10876 
L 384.367776 -194.460159 
L 384.128271 -193.811558 
L 383.926991 -193.162958 
L 383.762331 -192.514357 
L 383.631279 -191.865756 
L 383.529845 -191.217156 
L 383.453522 -190.568555 
L 383.397712 -189.919954 
L 383.358066 -189.271354 
z
" id="m0395525c5c" style="stroke:#4c4c4c;stroke-width:1.5;"/>
    </defs>
    <g clip-path="url(#p9e40f871ab)">
     <use style="fill:#5f9e6e;stroke:#4c4c4c;stroke-width:1.5;" x="0" xlink:href="#m0395525c5c" y="275.739688"/>
    </g>
   </g>
   <g id="line2d_13">
    <path clip-path="url(#p9e40f871ab)" d="M 291.492344 84.434621 
L 291.492344 32.964099 
" style="fill:none;stroke:#4c4c4c;stroke-linecap:round;stroke-width:1.5;"/>
   </g>
   <g id="line2d_14">
    <path clip-path="url(#p9e40f871ab)" d="M 291.492344 63.848066 
L 291.492344 49.687439 
" style="fill:none;stroke:#4c4c4c;stroke-linecap:round;stroke-width:4.5;"/>
   </g>
   <g id="line2d_15">
    <path clip-path="url(#p9e40f871ab)" d="M 337.387344 85.580071 
L 337.387344 35.43086 
" style="fill:none;stroke:#4c4c4c;stroke-linecap:round;stroke-width:1.5;"/>
   </g>
   <g id="line2d_16">
    <path clip-path="url(#p9e40f871ab)" d="M 337.387344 66.556292 
L 337.387344 53.356831 
" style="fill:none;stroke:#4c4c4c;stroke-linecap:round;stroke-width:4.5;"/>
   </g>
   <g id="line2d_17">
    <path clip-path="url(#p9e40f871ab)" d="M 383.282344 79.469976 
L 383.282344 33.001034 
" style="fill:none;stroke:#4c4c4c;stroke-linecap:round;stroke-width:1.5;"/>
   </g>
   <g id="line2d_18">
    <path clip-path="url(#p9e40f871ab)" d="M 383.282344 64.053883 
L 383.282344 51.160032 
" style="fill:none;stroke:#4c4c4c;stroke-linecap:round;stroke-width:4.5;"/>
   </g>
   <g id="patch_8">
    <path d="M 268.544844 95.26 
L 268.544844 13.2 
" style="fill:none;stroke:#ffffff;stroke-linecap:square;stroke-linejoin:miter;stroke-width:1.25;"/>
   </g>
   <g id="patch_9">
    <path d="M 406.229844 95.26 
L 406.229844 13.2 
" style="fill:none;stroke:#ffffff;stroke-linecap:square;stroke-linejoin:miter;stroke-width:1.25;"/>
   </g>
   <g id="patch_10">
    <path d="M 268.544844 95.26 
L 406.229844 95.26 
" style="fill:none;stroke:#ffffff;stroke-linecap:square;stroke-linejoin:miter;stroke-width:1.25;"/>
   </g>
   <g id="patch_11">
    <path d="M 268.544844 13.2 
L 406.229844 13.2 
" style="fill:none;stroke:#ffffff;stroke-linecap:square;stroke-linejoin:miter;stroke-width:1.25;"/>
   </g>
   <g id="PathCollection_4">
    <g clip-path="url(#p9e40f871ab)">
     <use style="fill:#ffffff;stroke:#4c4c4c;" x="291.492344" xlink:href="#mdaea369e8d" y="56.914191"/>
    </g>
   </g>
   <g id="PathCollection_5">
    <g clip-path="url(#p9e40f871ab)">
     <use style="fill:#ffffff;stroke:#4c4c4c;" x="337.387344" xlink:href="#mdaea369e8d" y="60.252262"/>
    </g>
   </g>
   <g id="PathCollection_6">
    <g clip-path="url(#p9e40f871ab)">
     <use style="fill:#ffffff;stroke:#4c4c4c;" x="383.282344" xlink:href="#mdaea369e8d" y="57.991169"/>
    </g>
   </g>
  </g>
  <g id="axes_3">
   <g id="patch_12">
    <path d="M 59.024844 232.78 
L 196.709844 232.78 
L 196.709844 150.72 
L 59.024844 150.72 
z
" style="fill:#eaeaf2;"/>
   </g>
   <g id="matplotlib.axis_5">
    <g id="xtick_7">
     <g id="text_17">
      <!-- 0.0 -->
      <g style="fill:#262626;" transform="translate(73.225625 250.638281)scale(0.11 -0.11)">
       <use xlink:href="#DejaVuSans-48"/>
       <use x="63.623047" xlink:href="#DejaVuSans-46"/>
       <use x="95.410156" xlink:href="#DejaVuSans-48"/>
      </g>
     </g>
    </g>
    <g id="xtick_8">
     <g id="text_18">
      <!-- 1.0 -->
      <g style="fill:#262626;" transform="translate(119.120625 250.638281)scale(0.11 -0.11)">
       <use xlink:href="#DejaVuSans-49"/>
       <use x="63.623047" xlink:href="#DejaVuSans-46"/>
       <use x="95.410156" xlink:href="#DejaVuSans-48"/>
      </g>
     </g>
    </g>
    <g id="xtick_9">
     <g id="text_19">
      <!-- 2.0 -->
      <g style="fill:#262626;" transform="translate(165.015625 250.638281)scale(0.11 -0.11)">
       <use xlink:href="#DejaVuSans-50"/>
       <use x="63.623047" xlink:href="#DejaVuSans-46"/>
       <use x="95.410156" xlink:href="#DejaVuSans-48"/>
      </g>
     </g>
    </g>
    <g id="text_20">
     <!-- y -->
     <g style="fill:#262626;" transform="translate(124.316094 266.044062)scale(0.12 -0.12)">
      <use xlink:href="#DejaVuSans-121"/>
     </g>
    </g>
   </g>
   <g id="matplotlib.axis_6">
    <g id="ytick_7">
     <g id="line2d_19">
      <path clip-path="url(#pef23eed080)" d="M 59.024844 213.588553 
L 196.709844 213.588553 
" style="fill:none;stroke:#ffffff;stroke-linecap:round;"/>
     </g>
     <g id="text_21">
      <!-- −2.5 -->
      <g style="fill:#262626;" transform="translate(22.81375 217.767694)scale(0.11 -0.11)">
       <use xlink:href="#DejaVuSans-8722"/>
       <use x="83.789062" xlink:href="#DejaVuSans-50"/>
       <use x="147.412109" xlink:href="#DejaVuSans-46"/>
       <use x="179.199219" xlink:href="#DejaVuSans-53"/>
      </g>
     </g>
    </g>
    <g id="ytick_8">
     <g id="line2d_20">
      <path clip-path="url(#pef23eed080)" d="M 59.024844 190.775323 
L 196.709844 190.775323 
" style="fill:none;stroke:#ffffff;stroke-linecap:round;"/>
     </g>
     <g id="text_22">
      <!-- 0.0 -->
      <g style="fill:#262626;" transform="translate(32.031406 194.954463)scale(0.11 -0.11)">
       <use xlink:href="#DejaVuSans-48"/>
       <use x="63.623047" xlink:href="#DejaVuSans-46"/>
       <use x="95.410156" xlink:href="#DejaVuSans-48"/>
      </g>
     </g>
    </g>
    <g id="ytick_9">
     <g id="line2d_21">
      <path clip-path="url(#pef23eed080)" d="M 59.024844 167.962093 
L 196.709844 167.962093 
" style="fill:none;stroke:#ffffff;stroke-linecap:round;"/>
     </g>
     <g id="text_23">
      <!-- 2.5 -->
      <g style="fill:#262626;" transform="translate(32.031406 172.141233)scale(0.11 -0.11)">
       <use xlink:href="#DejaVuSans-50"/>
       <use x="63.623047" xlink:href="#DejaVuSans-46"/>
       <use x="95.410156" xlink:href="#DejaVuSans-53"/>
      </g>
     </g>
    </g>
    <g id="text_24">
     <!-- x2 -->
     <g style="fill:#262626;" transform="translate(16.318125 199.11875)rotate(-90)scale(0.12 -0.12)">
      <use xlink:href="#DejaVuSans-120"/>
      <use x="59.179688" xlink:href="#DejaVuSans-50"/>
     </g>
    </g>
   </g>
   <g id="PolyCollection_7">
    <defs>
     <path d="M 81.992839 -46.689687 
L 81.951848 -46.689687 
L 81.939097 -47.283103 
L 81.921862 -47.876518 
L 81.90056 -48.469933 
L 81.876675 -49.063348 
L 81.852675 -49.656763 
L 81.831503 -50.250179 
L 81.815715 -50.843594 
L 81.806572 -51.437009 
L 81.803454 -52.030424 
L 81.80393 -52.623839 
L 81.804496 -53.217254 
L 81.801701 -53.81067 
L 81.793161 -54.404085 
L 81.778029 -54.9975 
L 81.756736 -55.590915 
L 81.730188 -56.18433 
L 81.698854 -56.777746 
L 81.662156 -57.371161 
L 81.618355 -57.964576 
L 81.56481 -58.557991 
L 81.498277 -59.151406 
L 81.414955 -59.744821 
L 81.310231 -60.338237 
L 81.178408 -60.931652 
L 81.012849 -61.525067 
L 80.806914 -62.118482 
L 80.555569 -62.711897 
L 80.257037 -63.305313 
L 79.913465 -63.898728 
L 79.529771 -64.492143 
L 79.110678 -65.085558 
L 78.657032 -65.678973 
L 78.163238 -66.272388 
L 77.617427 -66.865804 
L 77.004726 -67.459219 
L 76.312523 -68.052634 
L 75.535594 -68.646049 
L 74.679177 -69.239464 
L 73.759103 -69.83288 
L 72.799356 -70.426295 
L 71.828178 -71.01971 
L 70.873927 -71.613125 
L 69.961572 -72.20654 
L 69.110348 -72.799955 
L 68.332745 -73.393371 
L 67.634645 -73.986786 
L 67.016152 -74.580201 
L 66.472556 -75.173616 
L 65.9952 -75.767031 
L 65.572529 -76.360446 
L 65.191958 -76.953862 
L 64.843017 -77.547277 
L 64.521491 -78.140692 
L 64.233294 -78.734107 
L 63.996231 -79.327522 
L 63.838032 -79.920938 
L 63.79029 -80.514353 
L 63.879652 -81.107768 
L 64.119106 -81.701183 
L 64.502471 -82.294598 
L 65.004208 -82.888013 
L 65.584692 -83.481429 
L 66.199219 -84.074844 
L 66.80796 -84.668259 
L 67.384061 -85.261674 
L 67.917949 -85.855089 
L 68.417061 -86.448505 
L 68.901485 -87.04192 
L 69.397015 -87.635335 
L 69.927757 -88.22875 
L 70.510393 -88.822165 
L 71.151434 -89.41558 
L 71.847591 -90.008996 
L 72.588312 -90.602411 
L 73.359031 -91.195826 
L 74.143989 -91.789241 
L 74.928109 -92.382656 
L 75.698021 -92.976072 
L 76.442469 -93.569487 
L 77.152278 -94.162902 
L 77.819923 -94.756317 
L 78.438876 -95.349732 
L 79.003126 -95.943147 
L 79.507321 -96.536563 
L 79.947644 -97.129978 
L 80.323081 -97.723393 
L 80.63635 -98.316808 
L 80.893857 -98.910223 
L 81.104534 -99.503638 
L 81.277977 -100.097054 
L 81.422629 -100.690469 
L 81.544648 -101.283884 
L 81.647725 -101.877299 
L 81.733682 -102.470714 
L 81.803433 -103.06413 
L 81.857861 -103.657545 
L 81.898352 -104.25096 
L 81.926899 -104.844375 
L 81.945893 -105.43779 
L 81.998795 -105.43779 
L 81.998795 -105.43779 
L 82.017789 -104.844375 
L 82.046335 -104.25096 
L 82.086826 -103.657545 
L 82.141255 -103.06413 
L 82.211005 -102.470714 
L 82.296963 -101.877299 
L 82.40004 -101.283884 
L 82.522059 -100.690469 
L 82.66671 -100.097054 
L 82.840154 -99.503638 
L 83.050831 -98.910223 
L 83.308338 -98.316808 
L 83.621607 -97.723393 
L 83.997043 -97.129978 
L 84.437366 -96.536563 
L 84.941561 -95.943147 
L 85.505812 -95.349732 
L 86.124764 -94.756317 
L 86.792409 -94.162902 
L 87.502219 -93.569487 
L 88.246666 -92.976072 
L 89.016578 -92.382656 
L 89.800699 -91.789241 
L 90.585656 -91.195826 
L 91.356375 -90.602411 
L 92.097096 -90.008996 
L 92.793254 -89.41558 
L 93.434294 -88.822165 
L 94.016931 -88.22875 
L 94.547673 -87.635335 
L 95.043203 -87.04192 
L 95.527627 -86.448505 
L 96.026739 -85.855089 
L 96.560626 -85.261674 
L 97.136728 -84.668259 
L 97.745468 -84.074844 
L 98.359996 -83.481429 
L 98.940479 -82.888013 
L 99.442216 -82.294598 
L 99.825582 -81.701183 
L 100.065035 -81.107768 
L 100.154398 -80.514353 
L 100.106655 -79.920938 
L 99.948457 -79.327522 
L 99.711394 -78.734107 
L 99.423197 -78.140692 
L 99.101671 -77.547277 
L 98.75273 -76.953862 
L 98.372159 -76.360446 
L 97.949488 -75.767031 
L 97.472132 -75.173616 
L 96.928536 -74.580201 
L 96.310042 -73.986786 
L 95.611942 -73.393371 
L 94.834339 -72.799955 
L 93.983116 -72.20654 
L 93.07076 -71.613125 
L 92.116509 -71.01971 
L 91.145332 -70.426295 
L 90.185585 -69.83288 
L 89.26551 -69.239464 
L 88.409093 -68.646049 
L 87.632164 -68.052634 
L 86.939961 -67.459219 
L 86.327261 -66.865804 
L 85.781449 -66.272388 
L 85.287656 -65.678973 
L 84.834009 -65.085558 
L 84.414916 -64.492143 
L 84.031222 -63.898728 
L 83.68765 -63.305313 
L 83.389118 -62.711897 
L 83.137773 -62.118482 
L 82.931838 -61.525067 
L 82.76628 -60.931652 
L 82.634456 -60.338237 
L 82.529733 -59.744821 
L 82.446411 -59.151406 
L 82.379878 -58.557991 
L 82.326333 -57.964576 
L 82.282532 -57.371161 
L 82.245833 -56.777746 
L 82.214499 -56.18433 
L 82.187951 -55.590915 
L 82.166658 -54.9975 
L 82.151526 -54.404085 
L 82.142986 -53.81067 
L 82.140191 -53.217254 
L 82.140758 -52.623839 
L 82.141234 -52.030424 
L 82.138116 -51.437009 
L 82.128972 -50.843594 
L 82.113185 -50.250179 
L 82.092012 -49.656763 
L 82.068013 -49.063348 
L 82.044127 -48.469933 
L 82.022825 -47.876518 
L 82.00559 -47.283103 
L 81.992839 -46.689687 
z
" id="mfc350f2f0e" style="stroke:#4c4c4c;stroke-width:1.5;"/>
    </defs>
    <g clip-path="url(#pef23eed080)">
     <use style="fill:#5875a4;stroke:#4c4c4c;stroke-width:1.5;" x="0" xlink:href="#mfc350f2f0e" y="275.739688"/>
    </g>
   </g>
   <g id="PolyCollection_8">
    <defs>
     <path d="M 127.893926 -62.178217 
L 127.840761 -62.178217 
L 127.82329 -62.775303 
L 127.797936 -63.372388 
L 127.763256 -63.969474 
L 127.718539 -64.566559 
L 127.664155 -65.163645 
L 127.601644 -65.760731 
L 127.533384 -66.357816 
L 127.461756 -66.954902 
L 127.387882 -67.551987 
L 127.310249 -68.149073 
L 127.223627 -68.746158 
L 127.11879 -69.343244 
L 126.983319 -69.940329 
L 126.803503 -70.537415 
L 126.56691 -71.134501 
L 126.264926 -71.731586 
L 125.894501 -72.328672 
L 125.45859 -72.925757 
L 124.965271 -73.522843 
L 124.426051 -74.119928 
L 123.85407 -74.717014 
L 123.262836 -75.3141 
L 122.665561 -75.911185 
L 122.074722 -76.508271 
L 121.501201 -77.105356 
L 120.95269 -77.702442 
L 120.431659 -78.299527 
L 119.933754 -78.896613 
L 119.447589 -79.493698 
L 118.956349 -80.090784 
L 118.440864 -80.68787 
L 117.883124 -81.284955 
L 117.269215 -81.882041 
L 116.591161 -82.479126 
L 115.847921 -83.076212 
L 115.046196 -83.673297 
L 114.201524 -84.270383 
L 113.339407 -84.867468 
L 112.495449 -85.464554 
L 111.713172 -86.06164 
L 111.03872 -86.658725 
L 110.512906 -87.255811 
L 110.16249 -87.852896 
L 109.993538 -88.449982 
L 109.989455 -89.047067 
L 110.115001 -89.644153 
L 110.325474 -90.241238 
L 110.578386 -90.838324 
L 110.844069 -91.43541 
L 111.112008 -92.032495 
L 111.39124 -92.629581 
L 111.705064 -93.226666 
L 112.082031 -93.823752 
L 112.546072 -94.420837 
L 113.10871 -95.017923 
L 113.765396 -95.615008 
L 114.496747 -96.212094 
L 115.273923 -96.80918 
L 116.066238 -97.406265 
L 116.848492 -98.003351 
L 117.605719 -98.600436 
L 118.333957 -99.197522 
L 119.037121 -99.794607 
L 119.72148 -100.391693 
L 120.390168 -100.988779 
L 121.040096 -101.585864 
L 121.662498 -102.18295 
L 122.246624 -102.780035 
L 122.784622 -103.377121 
L 123.275099 -103.974206 
L 123.723613 -104.571292 
L 124.139945 -105.168377 
L 124.533597 -105.765463 
L 124.909792 -106.362549 
L 125.267822 -106.959634 
L 125.602311 -107.55672 
L 125.906521 -108.153805 
L 126.175922 -108.750891 
L 126.410353 -109.347976 
L 126.613958 -109.945062 
L 126.793212 -110.542147 
L 126.954217 -111.139233 
L 127.100563 -111.736319 
L 127.232628 -112.333404 
L 127.348427 -112.93049 
L 127.445394 -113.527575 
L 127.522216 -114.124661 
L 127.579942 -114.721746 
L 127.622007 -115.318832 
L 127.653331 -115.915917 
L 127.678962 -116.513003 
L 127.702836 -117.110089 
L 127.727091 -117.707174 
L 127.752046 -118.30426 
L 127.776728 -118.901345 
L 127.79963 -119.498431 
L 127.819395 -120.095516 
L 127.835234 -120.692602 
L 127.847033 -121.289687 
L 127.887655 -121.289687 
L 127.887655 -121.289687 
L 127.899454 -120.692602 
L 127.915293 -120.095516 
L 127.935057 -119.498431 
L 127.957959 -118.901345 
L 127.982642 -118.30426 
L 128.007597 -117.707174 
L 128.031851 -117.110089 
L 128.055726 -116.513003 
L 128.081356 -115.915917 
L 128.112681 -115.318832 
L 128.154746 -114.721746 
L 128.212471 -114.124661 
L 128.289294 -113.527575 
L 128.386261 -112.93049 
L 128.50206 -112.333404 
L 128.634125 -111.736319 
L 128.78047 -111.139233 
L 128.941476 -110.542147 
L 129.12073 -109.945062 
L 129.324334 -109.347976 
L 129.558766 -108.750891 
L 129.828166 -108.153805 
L 130.132376 -107.55672 
L 130.466865 -106.959634 
L 130.824895 -106.362549 
L 131.201091 -105.765463 
L 131.594743 -105.168377 
L 132.011074 -104.571292 
L 132.459589 -103.974206 
L 132.950066 -103.377121 
L 133.488064 -102.780035 
L 134.07219 -102.18295 
L 134.694591 -101.585864 
L 135.34452 -100.988779 
L 136.013208 -100.391693 
L 136.697566 -99.794607 
L 137.400731 -99.197522 
L 138.128969 -98.600436 
L 138.886195 -98.003351 
L 139.66845 -97.406265 
L 140.460764 -96.80918 
L 141.23794 -96.212094 
L 141.969291 -95.615008 
L 142.625978 -95.017923 
L 143.188615 -94.420837 
L 143.652657 -93.823752 
L 144.029623 -93.226666 
L 144.343448 -92.629581 
L 144.622679 -92.032495 
L 144.890619 -91.43541 
L 145.156302 -90.838324 
L 145.409214 -90.241238 
L 145.619686 -89.644153 
L 145.745232 -89.047067 
L 145.74115 -88.449982 
L 145.572197 -87.852896 
L 145.221782 -87.255811 
L 144.695967 -86.658725 
L 144.021516 -86.06164 
L 143.239239 -85.464554 
L 142.395281 -84.867468 
L 141.533164 -84.270383 
L 140.688492 -83.673297 
L 139.886767 -83.076212 
L 139.143527 -82.479126 
L 138.465473 -81.882041 
L 137.851563 -81.284955 
L 137.293823 -80.68787 
L 136.778338 -80.090784 
L 136.287099 -79.493698 
L 135.800933 -78.896613 
L 135.303029 -78.299527 
L 134.781997 -77.702442 
L 134.233486 -77.105356 
L 133.659965 -76.508271 
L 133.069127 -75.911185 
L 132.471852 -75.3141 
L 131.880617 -74.717014 
L 131.308637 -74.119928 
L 130.769416 -73.522843 
L 130.276098 -72.925757 
L 129.840186 -72.328672 
L 129.469762 -71.731586 
L 129.167778 -71.134501 
L 128.931184 -70.537415 
L 128.751368 -69.940329 
L 128.615897 -69.343244 
L 128.51106 -68.746158 
L 128.424439 -68.149073 
L 128.346805 -67.551987 
L 128.272932 -66.954902 
L 128.201303 -66.357816 
L 128.133044 -65.760731 
L 128.070533 -65.163645 
L 128.016149 -64.566559 
L 127.971432 -63.969474 
L 127.936752 -63.372388 
L 127.911398 -62.775303 
L 127.893926 -62.178217 
z
" id="m0ee556a096" style="stroke:#4c4c4c;stroke-width:1.5;"/>
    </defs>
    <g clip-path="url(#pef23eed080)">
     <use style="fill:#cc8963;stroke:#4c4c4c;stroke-width:1.5;" x="0" xlink:href="#m0ee556a096" y="275.739688"/>
    </g>
   </g>
   <g id="PolyCollection_9">
    <defs>
     <path d="M 173.992465 -69.587425 
L 173.532223 -69.587425 
L 173.427106 -70.03701 
L 173.286509 -70.486595 
L 173.104017 -70.93618 
L 172.874135 -71.385765 
L 172.593069 -71.83535 
L 172.259441 -72.284935 
L 171.874818 -72.73452 
L 171.443883 -73.184105 
L 170.97417 -73.63369 
L 170.475316 -74.083275 
L 169.957903 -74.53286 
L 169.432041 -74.982445 
L 168.905945 -75.432031 
L 168.384744 -75.881616 
L 167.869788 -76.331201 
L 167.358588 -76.780786 
L 166.845442 -77.230371 
L 166.322636 -77.679956 
L 165.782005 -78.129541 
L 165.216576 -78.579126 
L 164.621981 -79.028711 
L 163.997404 -79.478296 
L 163.34592 -79.927881 
L 162.674213 -80.377466 
L 161.991788 -80.827051 
L 161.309872 -81.276636 
L 160.640233 -81.726221 
L 159.994137 -82.175806 
L 159.381567 -82.625392 
L 158.81076 -83.074977 
L 158.288023 -83.524562 
L 157.817712 -83.974147 
L 157.402278 -84.423732 
L 157.04228 -84.873317 
L 156.736334 -85.322902 
L 156.481059 -85.772487 
L 156.271111 -86.222072 
L 156.099444 -86.671657 
L 155.9579 -87.121242 
L 155.83816 -87.570827 
L 155.733006 -88.020412 
L 155.637705 -88.469997 
L 155.551275 -88.919582 
L 155.477323 -89.369167 
L 155.424204 -89.818753 
L 155.404344 -90.268338 
L 155.432734 -90.717923 
L 155.524781 -91.167508 
L 155.693862 -91.617093 
L 155.949032 -92.066678 
L 156.293343 -92.516263 
L 156.723115 -92.965848 
L 157.228331 -93.415433 
L 157.794097 -93.865018 
L 158.402879 -94.314603 
L 159.037058 -94.764188 
L 159.681311 -95.213773 
L 160.324343 -95.663358 
L 160.959695 -96.112943 
L 161.585524 -96.562528 
L 162.203526 -97.012113 
L 162.817319 -97.461699 
L 163.430712 -97.911284 
L 164.04625 -98.360869 
L 164.664342 -98.810454 
L 165.283048 -99.260039 
L 165.898485 -99.709624 
L 166.505609 -100.159209 
L 167.099091 -100.608794 
L 167.674029 -101.058379 
L 168.226336 -101.507964 
L 168.752761 -101.957549 
L 169.250641 -102.407134 
L 169.71757 -102.856719 
L 170.151148 -103.306304 
L 170.548958 -103.755889 
L 170.908808 -104.205474 
L 171.229167 -104.65506 
L 171.509673 -105.104645 
L 171.751547 -105.55423 
L 171.957768 -106.003815 
L 172.132956 -106.4534 
L 172.28294 -106.902985 
L 172.414112 -107.35257 
L 172.532691 -107.802155 
L 172.644033 -108.25174 
L 172.752106 -108.701325 
L 172.859224 -109.15091 
L 172.96605 -109.600495 
L 173.071836 -110.05008 
L 173.174836 -110.499665 
L 173.272802 -110.94925 
L 173.363455 -111.398835 
L 173.444884 -111.848421 
L 173.515795 -112.298006 
L 173.57563 -112.747591 
L 173.624541 -113.197176 
L 173.663273 -113.646761 
L 173.692989 -114.096346 
L 173.831699 -114.096346 
L 173.831699 -114.096346 
L 173.861415 -113.646761 
L 173.900147 -113.197176 
L 173.949057 -112.747591 
L 174.008892 -112.298006 
L 174.079804 -111.848421 
L 174.161232 -111.398835 
L 174.251886 -110.94925 
L 174.349852 -110.499665 
L 174.452852 -110.05008 
L 174.558637 -109.600495 
L 174.665463 -109.15091 
L 174.772582 -108.701325 
L 174.880655 -108.25174 
L 174.991996 -107.802155 
L 175.110576 -107.35257 
L 175.241748 -106.902985 
L 175.391731 -106.4534 
L 175.566919 -106.003815 
L 175.773141 -105.55423 
L 176.015014 -105.104645 
L 176.295521 -104.65506 
L 176.615879 -104.205474 
L 176.975729 -103.755889 
L 177.373539 -103.306304 
L 177.807117 -102.856719 
L 178.274046 -102.407134 
L 178.771927 -101.957549 
L 179.298351 -101.507964 
L 179.850659 -101.058379 
L 180.425597 -100.608794 
L 181.019078 -100.159209 
L 181.626202 -99.709624 
L 182.24164 -99.260039 
L 182.860346 -98.810454 
L 183.478437 -98.360869 
L 184.093976 -97.911284 
L 184.707368 -97.461699 
L 185.321161 -97.012113 
L 185.939163 -96.562528 
L 186.564992 -96.112943 
L 187.200344 -95.663358 
L 187.843377 -95.213773 
L 188.487629 -94.764188 
L 189.121808 -94.314603 
L 189.73059 -93.865018 
L 190.296357 -93.415433 
L 190.801572 -92.965848 
L 191.231344 -92.516263 
L 191.575656 -92.066678 
L 191.830826 -91.617093 
L 191.999906 -91.167508 
L 192.091953 -90.717923 
L 192.120344 -90.268338 
L 192.100484 -89.818753 
L 192.047364 -89.369167 
L 191.973413 -88.919582 
L 191.886983 -88.469997 
L 191.791682 -88.020412 
L 191.686527 -87.570827 
L 191.566787 -87.121242 
L 191.425243 -86.671657 
L 191.253577 -86.222072 
L 191.043629 -85.772487 
L 190.788353 -85.322902 
L 190.482407 -84.873317 
L 190.122409 -84.423732 
L 189.706976 -83.974147 
L 189.236664 -83.524562 
L 188.713927 -83.074977 
L 188.143121 -82.625392 
L 187.530551 -82.175806 
L 186.884455 -81.726221 
L 186.214816 -81.276636 
L 185.532899 -80.827051 
L 184.850474 -80.377466 
L 184.178767 -79.927881 
L 183.527283 -79.478296 
L 182.902707 -79.028711 
L 182.308112 -78.579126 
L 181.742683 -78.129541 
L 181.202052 -77.679956 
L 180.679245 -77.230371 
L 180.1661 -76.780786 
L 179.6549 -76.331201 
L 179.139944 -75.881616 
L 178.618743 -75.432031 
L 178.092646 -74.982445 
L 177.566785 -74.53286 
L 177.049371 -74.083275 
L 176.550517 -73.63369 
L 176.080804 -73.184105 
L 175.649869 -72.73452 
L 175.265246 -72.284935 
L 174.931619 -71.83535 
L 174.650552 -71.385765 
L 174.42067 -70.93618 
L 174.238178 -70.486595 
L 174.097581 -70.03701 
L 173.992465 -69.587425 
z
" id="mdb4ef070fc" style="stroke:#4c4c4c;stroke-width:1.5;"/>
    </defs>
    <g clip-path="url(#pef23eed080)">
     <use style="fill:#5f9e6e;stroke:#4c4c4c;stroke-width:1.5;" x="0" xlink:href="#mdb4ef070fc" y="275.739688"/>
    </g>
   </g>
   <g id="line2d_22">
    <path clip-path="url(#pef23eed080)" d="M 81.972344 216.261502 
L 81.972344 174.899271 
" style="fill:none;stroke:#4c4c4c;stroke-linecap:round;stroke-width:1.5;"/>
   </g>
   <g id="line2d_23">
    <path clip-path="url(#pef23eed080)" d="M 81.972344 200.675263 
L 81.972344 189.975134 
" style="fill:none;stroke:#4c4c4c;stroke-linecap:round;stroke-width:4.5;"/>
   </g>
   <g id="line2d_24">
    <path clip-path="url(#pef23eed080)" d="M 127.867344 206.853853 
L 127.867344 164.279752 
" style="fill:none;stroke:#4c4c4c;stroke-linecap:round;stroke-width:1.5;"/>
   </g>
   <g id="line2d_25">
    <path clip-path="url(#pef23eed080)" d="M 127.867344 191.055528 
L 127.867344 180.337151 
" style="fill:none;stroke:#4c4c4c;stroke-linecap:round;stroke-width:4.5;"/>
   </g>
   <g id="line2d_26">
    <path clip-path="url(#pef23eed080)" d="M 173.762344 200.901589 
L 173.762344 166.894015 
" style="fill:none;stroke:#4c4c4c;stroke-linecap:round;stroke-width:1.5;"/>
   </g>
   <g id="line2d_27">
    <path clip-path="url(#pef23eed080)" d="M 173.762344 191.640594 
L 173.762344 181.712351 
" style="fill:none;stroke:#4c4c4c;stroke-linecap:round;stroke-width:4.5;"/>
   </g>
   <g id="patch_13">
    <path d="M 59.024844 232.78 
L 59.024844 150.72 
" style="fill:none;stroke:#ffffff;stroke-linecap:square;stroke-linejoin:miter;stroke-width:1.25;"/>
   </g>
   <g id="patch_14">
    <path d="M 196.709844 232.78 
L 196.709844 150.72 
" style="fill:none;stroke:#ffffff;stroke-linecap:square;stroke-linejoin:miter;stroke-width:1.25;"/>
   </g>
   <g id="patch_15">
    <path d="M 59.024844 232.78 
L 196.709844 232.78 
" style="fill:none;stroke:#ffffff;stroke-linecap:square;stroke-linejoin:miter;stroke-width:1.25;"/>
   </g>
   <g id="patch_16">
    <path d="M 59.024844 150.72 
L 196.709844 150.72 
" style="fill:none;stroke:#ffffff;stroke-linecap:square;stroke-linejoin:miter;stroke-width:1.25;"/>
   </g>
   <g id="PathCollection_7">
    <g clip-path="url(#pef23eed080)">
     <use style="fill:#ffffff;stroke:#4c4c4c;" x="81.972344" xlink:href="#mdaea369e8d" y="195.247508"/>
    </g>
   </g>
   <g id="PathCollection_8">
    <g clip-path="url(#pef23eed080)">
     <use style="fill:#ffffff;stroke:#4c4c4c;" x="127.867344" xlink:href="#mdaea369e8d" y="185.99073"/>
    </g>
   </g>
   <g id="PathCollection_9">
    <g clip-path="url(#pef23eed080)">
     <use style="fill:#ffffff;stroke:#4c4c4c;" x="173.762344" xlink:href="#mdaea369e8d" y="186.737529"/>
    </g>
   </g>
  </g>
  <g id="axes_4">
   <g id="patch_17">
    <path d="M 268.544844 232.78 
L 406.229844 232.78 
L 406.229844 150.72 
L 268.544844 150.72 
z
" style="fill:#eaeaf2;"/>
   </g>
   <g id="matplotlib.axis_7">
    <g id="xtick_10">
     <g id="text_25">
      <!-- 0.0 -->
      <g style="fill:#262626;" transform="translate(282.745625 250.638281)scale(0.11 -0.11)">
       <use xlink:href="#DejaVuSans-48"/>
       <use x="63.623047" xlink:href="#DejaVuSans-46"/>
       <use x="95.410156" xlink:href="#DejaVuSans-48"/>
      </g>
     </g>
    </g>
    <g id="xtick_11">
     <g id="text_26">
      <!-- 1.0 -->
      <g style="fill:#262626;" transform="translate(328.640625 250.638281)scale(0.11 -0.11)">
       <use xlink:href="#DejaVuSans-49"/>
       <use x="63.623047" xlink:href="#DejaVuSans-46"/>
       <use x="95.410156" xlink:href="#DejaVuSans-48"/>
      </g>
     </g>
    </g>
    <g id="xtick_12">
     <g id="text_27">
      <!-- 2.0 -->
      <g style="fill:#262626;" transform="translate(374.535625 250.638281)scale(0.11 -0.11)">
       <use xlink:href="#DejaVuSans-50"/>
       <use x="63.623047" xlink:href="#DejaVuSans-46"/>
       <use x="95.410156" xlink:href="#DejaVuSans-48"/>
      </g>
     </g>
    </g>
    <g id="text_28">
     <!-- y -->
     <g style="fill:#262626;" transform="translate(333.836094 266.044062)scale(0.12 -0.12)">
      <use xlink:href="#DejaVuSans-121"/>
     </g>
    </g>
   </g>
   <g id="matplotlib.axis_8">
    <g id="ytick_10">
     <g id="line2d_28">
      <path clip-path="url(#p745265bd0d)" d="M 268.544844 219.219074 
L 406.229844 219.219074 
" style="fill:none;stroke:#ffffff;stroke-linecap:round;"/>
     </g>
     <g id="text_29">
      <!-- −2.5 -->
      <g style="fill:#262626;" transform="translate(232.33375 223.398214)scale(0.11 -0.11)">
       <use xlink:href="#DejaVuSans-8722"/>
       <use x="83.789062" xlink:href="#DejaVuSans-50"/>
       <use x="147.412109" xlink:href="#DejaVuSans-46"/>
       <use x="179.199219" xlink:href="#DejaVuSans-53"/>
      </g>
     </g>
    </g>
    <g id="ytick_11">
     <g id="line2d_29">
      <path clip-path="url(#p745265bd0d)" d="M 268.544844 193.304217 
L 406.229844 193.304217 
" style="fill:none;stroke:#ffffff;stroke-linecap:round;"/>
     </g>
     <g id="text_30">
      <!-- 0.0 -->
      <g style="fill:#262626;" transform="translate(241.551406 197.483358)scale(0.11 -0.11)">
       <use xlink:href="#DejaVuSans-48"/>
       <use x="63.623047" xlink:href="#DejaVuSans-46"/>
       <use x="95.410156" xlink:href="#DejaVuSans-48"/>
      </g>
     </g>
    </g>
    <g id="ytick_12">
     <g id="line2d_30">
      <path clip-path="url(#p745265bd0d)" d="M 268.544844 167.38936 
L 406.229844 167.38936 
" style="fill:none;stroke:#ffffff;stroke-linecap:round;"/>
     </g>
     <g id="text_31">
      <!-- 2.5 -->
      <g style="fill:#262626;" transform="translate(241.551406 171.568501)scale(0.11 -0.11)">
       <use xlink:href="#DejaVuSans-50"/>
       <use x="63.623047" xlink:href="#DejaVuSans-46"/>
       <use x="95.410156" xlink:href="#DejaVuSans-53"/>
      </g>
     </g>
    </g>
    <g id="text_32">
     <!-- x3 -->
     <defs>
      <path d="M 40.578125 39.3125 
Q 47.65625 37.796875 51.625 33 
Q 55.609375 28.21875 55.609375 21.1875 
Q 55.609375 10.40625 48.1875 4.484375 
Q 40.765625 -1.421875 27.09375 -1.421875 
Q 22.515625 -1.421875 17.65625 -0.515625 
Q 12.796875 0.390625 7.625 2.203125 
L 7.625 11.71875 
Q 11.71875 9.328125 16.59375 8.109375 
Q 21.484375 6.890625 26.8125 6.890625 
Q 36.078125 6.890625 40.9375 10.546875 
Q 45.796875 14.203125 45.796875 21.1875 
Q 45.796875 27.640625 41.28125 31.265625 
Q 36.765625 34.90625 28.71875 34.90625 
L 20.21875 34.90625 
L 20.21875 43.015625 
L 29.109375 43.015625 
Q 36.375 43.015625 40.234375 45.921875 
Q 44.09375 48.828125 44.09375 54.296875 
Q 44.09375 59.90625 40.109375 62.90625 
Q 36.140625 65.921875 28.71875 65.921875 
Q 24.65625 65.921875 20.015625 65.03125 
Q 15.375 64.15625 9.8125 62.3125 
L 9.8125 71.09375 
Q 15.4375 72.65625 20.34375 73.4375 
Q 25.25 74.21875 29.59375 74.21875 
Q 40.828125 74.21875 47.359375 69.109375 
Q 53.90625 64.015625 53.90625 55.328125 
Q 53.90625 49.265625 50.4375 45.09375 
Q 46.96875 40.921875 40.578125 39.3125 
z
" id="DejaVuSans-51"/>
     </defs>
     <g style="fill:#262626;" transform="translate(225.838125 199.11875)rotate(-90)scale(0.12 -0.12)">
      <use xlink:href="#DejaVuSans-120"/>
      <use x="59.179688" xlink:href="#DejaVuSans-51"/>
     </g>
    </g>
   </g>
   <g id="PolyCollection_10">
    <defs>
     <path d="M 291.508888 -52.597492 
L 291.475799 -52.597492 
L 291.46568 -53.291353 
L 291.452037 -53.985213 
L 291.435163 -54.679074 
L 291.416151 -55.372934 
L 291.39684 -56.066795 
L 291.379438 -56.760656 
L 291.365884 -57.454516 
L 291.357129 -58.148377 
L 291.352632 -58.842237 
L 291.350265 -59.536098 
L 291.346692 -60.229958 
L 291.33801 -60.923819 
L 291.32036 -61.617679 
L 291.290222 -62.31154 
L 291.244323 -63.005401 
L 291.1793 -63.699261 
L 291.091387 -64.393122 
L 290.97635 -65.086982 
L 290.829702 -65.780843 
L 290.647114 -66.474703 
L 290.424845 -67.168564 
L 290.16011 -67.862424 
L 289.851321 -68.556285 
L 289.498174 -69.250146 
L 289.101505 -69.944006 
L 288.662902 -70.637867 
L 288.184264 -71.331727 
L 287.667683 -72.025588 
L 287.115971 -72.719448 
L 286.533806 -73.413309 
L 285.928811 -74.107169 
L 285.311529 -74.80103 
L 284.693437 -75.494891 
L 284.083045 -76.188751 
L 283.48145 -76.882612 
L 282.879549 -77.576472 
L 282.25903 -78.270333 
L 281.597879 -78.964193 
L 280.879154 -79.658054 
L 280.100121 -80.351915 
L 279.27828 -81.045775 
L 278.451774 -81.739636 
L 277.67357 -82.433496 
L 277.000896 -83.127357 
L 276.482938 -83.821217 
L 276.150279 -84.515078 
L 276.008962 -85.208938 
L 276.040752 -85.902799 
L 276.209381 -86.59666 
L 276.470939 -87.29052 
L 276.785274 -87.984381 
L 277.12494 -88.678241 
L 277.478873 -89.372102 
L 277.84983 -90.065962 
L 278.24695 -90.759823 
L 278.67681 -91.453683 
L 279.136969 -92.147544 
L 279.614846 -92.841405 
L 280.092252 -93.535265 
L 280.55325 -94.229126 
L 280.991508 -94.922986 
L 281.413635 -95.616847 
L 281.836905 -96.310707 
L 282.282393 -97.004568 
L 282.766474 -97.698428 
L 283.294252 -98.392289 
L 283.857499 -99.08615 
L 284.437628 -99.78001 
L 285.012137 -100.473871 
L 285.561609 -101.167731 
L 286.074447 -101.861592 
L 286.5478 -102.555452 
L 286.985087 -103.249313 
L 287.39197 -103.943174 
L 287.773081 -104.637034 
L 288.1309 -105.330895 
L 288.466743 -106.024755 
L 288.782571 -106.718616 
L 289.082046 -107.412476 
L 289.369966 -108.106337 
L 289.650341 -108.800197 
L 289.92422 -109.494058 
L 290.188499 -110.187919 
L 290.436387 -110.881779 
L 290.659362 -111.57564 
L 290.84982 -112.2695 
L 291.003392 -112.963361 
L 291.120161 -113.657221 
L 291.204465 -114.351082 
L 291.263525 -115.044942 
L 291.305479 -115.738803 
L 291.337522 -116.432664 
L 291.364702 -117.126524 
L 291.389603 -117.820385 
L 291.412796 -118.514245 
L 291.433696 -119.208106 
L 291.451433 -119.901966 
L 291.465446 -120.595827 
L 291.475714 -121.289687 
L 291.508974 -121.289687 
L 291.508974 -121.289687 
L 291.519242 -120.595827 
L 291.533255 -119.901966 
L 291.550992 -119.208106 
L 291.571891 -118.514245 
L 291.595084 -117.820385 
L 291.619985 -117.126524 
L 291.647165 -116.432664 
L 291.679208 -115.738803 
L 291.721163 -115.044942 
L 291.780223 -114.351082 
L 291.864526 -113.657221 
L 291.981295 -112.963361 
L 292.134868 -112.2695 
L 292.325325 -111.57564 
L 292.5483 -110.881779 
L 292.796188 -110.187919 
L 293.060468 -109.494058 
L 293.334347 -108.800197 
L 293.614721 -108.106337 
L 293.902641 -107.412476 
L 294.202116 -106.718616 
L 294.517944 -106.024755 
L 294.853788 -105.330895 
L 295.211606 -104.637034 
L 295.592717 -103.943174 
L 295.9996 -103.249313 
L 296.436887 -102.555452 
L 296.910241 -101.861592 
L 297.423078 -101.167731 
L 297.972551 -100.473871 
L 298.54706 -99.78001 
L 299.127189 -99.08615 
L 299.690435 -98.392289 
L 300.218214 -97.698428 
L 300.702294 -97.004568 
L 301.147783 -96.310707 
L 301.571053 -95.616847 
L 301.993179 -94.922986 
L 302.431438 -94.229126 
L 302.892436 -93.535265 
L 303.369841 -92.841405 
L 303.847719 -92.147544 
L 304.307878 -91.453683 
L 304.737737 -90.759823 
L 305.134858 -90.065962 
L 305.505815 -89.372102 
L 305.859748 -88.678241 
L 306.199413 -87.984381 
L 306.513749 -87.29052 
L 306.775306 -86.59666 
L 306.943936 -85.902799 
L 306.975725 -85.208938 
L 306.834409 -84.515078 
L 306.501749 -83.821217 
L 305.983792 -83.127357 
L 305.311117 -82.433496 
L 304.532913 -81.739636 
L 303.706407 -81.045775 
L 302.884566 -80.351915 
L 302.105533 -79.658054 
L 301.386809 -78.964193 
L 300.725657 -78.270333 
L 300.105139 -77.576472 
L 299.503238 -76.882612 
L 298.901642 -76.188751 
L 298.291251 -75.494891 
L 297.673158 -74.80103 
L 297.055877 -74.107169 
L 296.450881 -73.413309 
L 295.868716 -72.719448 
L 295.317005 -72.025588 
L 294.800423 -71.331727 
L 294.321786 -70.637867 
L 293.883183 -69.944006 
L 293.486514 -69.250146 
L 293.133367 -68.556285 
L 292.824577 -67.862424 
L 292.559842 -67.168564 
L 292.337574 -66.474703 
L 292.154985 -65.780843 
L 292.008337 -65.086982 
L 291.8933 -64.393122 
L 291.805388 -63.699261 
L 291.740365 -63.005401 
L 291.694466 -62.31154 
L 291.664328 -61.617679 
L 291.646677 -60.923819 
L 291.637995 -60.229958 
L 291.634422 -59.536098 
L 291.632056 -58.842237 
L 291.627558 -58.148377 
L 291.618804 -57.454516 
L 291.605249 -56.760656 
L 291.587847 -56.066795 
L 291.568536 -55.372934 
L 291.549524 -54.679074 
L 291.53265 -53.985213 
L 291.519007 -53.291353 
L 291.508888 -52.597492 
z
" id="m2d72339ec7" style="stroke:#4c4c4c;stroke-width:1.5;"/>
    </defs>
    <g clip-path="url(#p745265bd0d)">
     <use style="fill:#5875a4;stroke:#4c4c4c;stroke-width:1.5;" x="0" xlink:href="#m2d72339ec7" y="275.739688"/>
    </g>
   </g>
   <g id="PolyCollection_11">
    <defs>
     <path d="M 337.434238 -49.11854 
L 337.34045 -49.11854 
L 337.315352 -49.6994 
L 337.281065 -50.28026 
L 337.23635 -50.86112 
L 337.180672 -51.44198 
L 337.114445 -52.02284 
L 337.039097 -52.6037 
L 336.9569 -53.18456 
L 336.87053 -53.765421 
L 336.782435 -54.346281 
L 336.694138 -54.927141 
L 336.605641 -55.508001 
L 336.515077 -56.088861 
L 336.418706 -56.669721 
L 336.31122 -57.250581 
L 336.186291 -57.831441 
L 336.037243 -58.412302 
L 335.857727 -58.993162 
L 335.642336 -59.574022 
L 335.387145 -60.154882 
L 335.090163 -60.735742 
L 334.751695 -61.316602 
L 334.374565 -61.897462 
L 333.964145 -62.478322 
L 333.528097 -63.059183 
L 333.075798 -63.640043 
L 332.617453 -64.220903 
L 332.162994 -64.801763 
L 331.720922 -65.382623 
L 331.29729 -65.963483 
L 330.895027 -66.544343 
L 330.513725 -67.125203 
L 330.14995 -67.706063 
L 329.798016 -68.286924 
L 329.451075 -68.867784 
L 329.102319 -69.448644 
L 328.746054 -70.029504 
L 328.378438 -70.610364 
L 327.997751 -71.191224 
L 327.604203 -71.772084 
L 327.19939 -72.352944 
L 326.785652 -72.933805 
L 326.365608 -73.514665 
L 325.942084 -74.095525 
L 325.518475 -74.676385 
L 325.099405 -75.257245 
L 324.691355 -75.838105 
L 324.302912 -76.418965 
L 323.944377 -76.999825 
L 323.626688 -77.580686 
L 323.359889 -78.161546 
L 323.151545 -78.742406 
L 323.005547 -79.323266 
L 322.92167 -79.904126 
L 322.895963 -80.484986 
L 322.921878 -81.065846 
L 322.99181 -81.646706 
L 323.098738 -82.227567 
L 323.237663 -82.808427 
L 323.406645 -83.389287 
L 323.607304 -83.970147 
L 323.844667 -84.551007 
L 324.126265 -85.131867 
L 324.460504 -85.712727 
L 324.854481 -86.293587 
L 325.311707 -86.874448 
L 325.830319 -87.455308 
L 326.402385 -88.036168 
L 327.014616 -88.617028 
L 327.650385 -89.197888 
L 328.292491 -89.778748 
L 328.92587 -90.359608 
L 329.539463 -90.940468 
L 330.1268 -91.521328 
L 330.685301 -92.102189 
L 331.214733 -92.683049 
L 331.715476 -93.263909 
L 332.187212 -93.844769 
L 332.628412 -94.425629 
L 333.036688 -95.006489 
L 333.409763 -95.587349 
L 333.746675 -96.168209 
L 334.048783 -96.74907 
L 334.32024 -97.32993 
L 334.567761 -97.91079 
L 334.799688 -98.49165 
L 335.02457 -99.07251 
L 335.249565 -99.65337 
L 335.47907 -100.23423 
L 335.713911 -100.81509 
L 335.951295 -101.395951 
L 336.185533 -101.976811 
L 336.409324 -102.557671 
L 336.615271 -103.138531 
L 336.797263 -103.719391 
L 336.951418 -104.300251 
L 337.076458 -104.881111 
L 337.173538 -105.461971 
L 337.245668 -106.042832 
L 337.296953 -106.623692 
L 337.477735 -106.623692 
L 337.477735 -106.623692 
L 337.52902 -106.042832 
L 337.601149 -105.461971 
L 337.69823 -104.881111 
L 337.82327 -104.300251 
L 337.977424 -103.719391 
L 338.159416 -103.138531 
L 338.365364 -102.557671 
L 338.589155 -101.976811 
L 338.823393 -101.395951 
L 339.060777 -100.81509 
L 339.295617 -100.23423 
L 339.525123 -99.65337 
L 339.750117 -99.07251 
L 339.974999 -98.49165 
L 340.206927 -97.91079 
L 340.454447 -97.32993 
L 340.725905 -96.74907 
L 341.028012 -96.168209 
L 341.364924 -95.587349 
L 341.738 -95.006489 
L 342.146276 -94.425629 
L 342.587476 -93.844769 
L 343.059211 -93.263909 
L 343.559955 -92.683049 
L 344.089386 -92.102189 
L 344.647887 -91.521328 
L 345.235224 -90.940468 
L 345.848818 -90.359608 
L 346.482197 -89.778748 
L 347.124303 -89.197888 
L 347.760071 -88.617028 
L 348.372303 -88.036168 
L 348.944368 -87.455308 
L 349.46298 -86.874448 
L 349.920206 -86.293587 
L 350.314184 -85.712727 
L 350.648422 -85.131867 
L 350.930021 -84.551007 
L 351.167383 -83.970147 
L 351.368042 -83.389287 
L 351.537025 -82.808427 
L 351.67595 -82.227567 
L 351.782878 -81.646706 
L 351.85281 -81.065846 
L 351.878724 -80.484986 
L 351.853018 -79.904126 
L 351.76914 -79.323266 
L 351.623143 -78.742406 
L 351.414798 -78.161546 
L 351.148 -77.580686 
L 350.830311 -76.999825 
L 350.471776 -76.418965 
L 350.083333 -75.838105 
L 349.675283 -75.257245 
L 349.256212 -74.676385 
L 348.832604 -74.095525 
L 348.409079 -73.514665 
L 347.989036 -72.933805 
L 347.575298 -72.352944 
L 347.170485 -71.772084 
L 346.776937 -71.191224 
L 346.39625 -70.610364 
L 346.028633 -70.029504 
L 345.672369 -69.448644 
L 345.323613 -68.867784 
L 344.976672 -68.286924 
L 344.624737 -67.706063 
L 344.260963 -67.125203 
L 343.879661 -66.544343 
L 343.477398 -65.963483 
L 343.053766 -65.382623 
L 342.611693 -64.801763 
L 342.157234 -64.220903 
L 341.698889 -63.640043 
L 341.24659 -63.059183 
L 340.810542 -62.478322 
L 340.400122 -61.897462 
L 340.022993 -61.316602 
L 339.684524 -60.735742 
L 339.387542 -60.154882 
L 339.132351 -59.574022 
L 338.916961 -58.993162 
L 338.737444 -58.412302 
L 338.588397 -57.831441 
L 338.463468 -57.250581 
L 338.355981 -56.669721 
L 338.25961 -56.088861 
L 338.169047 -55.508001 
L 338.080549 -54.927141 
L 337.992253 -54.346281 
L 337.904158 -53.765421 
L 337.817788 -53.18456 
L 337.735591 -52.6037 
L 337.660243 -52.02284 
L 337.594015 -51.44198 
L 337.538338 -50.86112 
L 337.493623 -50.28026 
L 337.459336 -49.6994 
L 337.434238 -49.11854 
z
" id="mf38b676d39" style="stroke:#4c4c4c;stroke-width:1.5;"/>
    </defs>
    <g clip-path="url(#p745265bd0d)">
     <use style="fill:#cc8963;stroke:#4c4c4c;stroke-width:1.5;" x="0" xlink:href="#mf38b676d39" y="275.739688"/>
    </g>
   </g>
   <g id="PolyCollection_12">
    <defs>
     <path d="M 383.326354 -46.689687 
L 383.238334 -46.689687 
L 383.218064 -47.23997 
L 383.191613 -47.790253 
L 383.158413 -48.340536 
L 383.118221 -48.890819 
L 383.07108 -49.441102 
L 383.017132 -49.991385 
L 382.956279 -50.541668 
L 382.887738 -51.091951 
L 382.809584 -51.642234 
L 382.718427 -52.192516 
L 382.609353 -52.742799 
L 382.476227 -53.293082 
L 382.312395 -53.843365 
L 382.111699 -54.393648 
L 381.869665 -54.943931 
L 381.584624 -55.494214 
L 381.258557 -56.044497 
L 380.897453 -56.59478 
L 380.511038 -57.145062 
L 380.111853 -57.695345 
L 379.71375 -58.245628 
L 379.329974 -58.795911 
L 378.971119 -59.346194 
L 378.643278 -59.896477 
L 378.346715 -60.44676 
L 378.075317 -60.997043 
L 377.816946 -61.547326 
L 377.554651 -62.097609 
L 377.268574 -62.647891 
L 376.938254 -63.198174 
L 376.54506 -63.748457 
L 376.074462 -64.29874 
L 375.51794 -64.849023 
L 374.874308 -65.399306 
L 374.150262 -65.949589 
L 373.359958 -66.499872 
L 372.523513 -67.050155 
L 371.664513 -67.600437 
L 370.806905 -68.15072 
L 369.9719 -68.701003 
L 369.175666 -69.251286 
L 368.428459 -69.801569 
L 367.735496 -70.351852 
L 367.099332 -70.902135 
L 366.523015 -71.452418 
L 366.012979 -72.002701 
L 365.580704 -72.552984 
L 365.24253 -73.103266 
L 365.017583 -73.653549 
L 364.924344 -74.203832 
L 364.976756 -74.754115 
L 365.18084 -75.304398 
L 365.532594 -75.854681 
L 366.01754 -76.404964 
L 366.611916 -76.955247 
L 367.285186 -77.50553 
L 368.003397 -78.055812 
L 368.732897 -78.606095 
L 369.44395 -79.156378 
L 370.113838 -79.706661 
L 370.729066 -80.256944 
L 371.286325 -80.807227 
L 371.792013 -81.35751 
L 372.260327 -81.907793 
L 372.710211 -82.458076 
L 373.161725 -83.008358 
L 373.632549 -83.558641 
L 374.135276 -84.108924 
L 374.67599 -84.659207 
L 375.254214 -85.20949 
L 375.864037 -85.759773 
L 376.495913 -86.310056 
L 377.138589 -86.860339 
L 377.780664 -87.410622 
L 378.411527 -87.960905 
L 379.021671 -88.511187 
L 379.602568 -89.06147 
L 380.146422 -89.611753 
L 380.646073 -90.162036 
L 381.095219 -90.712319 
L 381.488941 -91.262602 
L 381.824398 -91.812885 
L 382.101446 -92.363168 
L 382.32295 -92.913451 
L 382.494648 -93.463733 
L 382.624535 -94.014016 
L 382.721874 -94.564299 
L 382.796035 -95.114582 
L 382.855413 -95.664865 
L 382.906615 -96.215148 
L 382.954061 -96.765431 
L 383.000011 -97.315714 
L 383.044939 -97.865997 
L 383.088126 -98.41628 
L 383.128293 -98.966562 
L 383.164148 -99.516845 
L 383.194759 -100.067128 
L 383.219726 -100.617411 
L 383.23918 -101.167694 
L 383.325508 -101.167694 
L 383.325508 -101.167694 
L 383.344961 -100.617411 
L 383.369928 -100.067128 
L 383.40054 -99.516845 
L 383.436395 -98.966562 
L 383.476562 -98.41628 
L 383.519749 -97.865997 
L 383.564677 -97.315714 
L 383.610626 -96.765431 
L 383.658073 -96.215148 
L 383.709275 -95.664865 
L 383.768653 -95.114582 
L 383.842814 -94.564299 
L 383.940152 -94.014016 
L 384.07004 -93.463733 
L 384.241738 -92.913451 
L 384.463241 -92.363168 
L 384.740289 -91.812885 
L 385.075747 -91.262602 
L 385.469469 -90.712319 
L 385.918614 -90.162036 
L 386.418266 -89.611753 
L 386.962119 -89.06147 
L 387.543016 -88.511187 
L 388.15316 -87.960905 
L 388.784024 -87.410622 
L 389.426098 -86.860339 
L 390.068775 -86.310056 
L 390.700651 -85.759773 
L 391.310473 -85.20949 
L 391.888697 -84.659207 
L 392.429411 -84.108924 
L 392.932139 -83.558641 
L 393.402962 -83.008358 
L 393.854477 -82.458076 
L 394.30436 -81.907793 
L 394.772674 -81.35751 
L 395.278363 -80.807227 
L 395.835622 -80.256944 
L 396.45085 -79.706661 
L 397.120738 -79.156378 
L 397.83179 -78.606095 
L 398.56129 -78.055812 
L 399.279502 -77.50553 
L 399.952772 -76.955247 
L 400.547148 -76.404964 
L 401.032093 -75.854681 
L 401.383847 -75.304398 
L 401.587932 -74.754115 
L 401.640344 -74.203832 
L 401.547105 -73.653549 
L 401.322158 -73.103266 
L 400.983984 -72.552984 
L 400.551708 -72.002701 
L 400.041672 -71.452418 
L 399.465355 -70.902135 
L 398.829191 -70.351852 
L 398.136228 -69.801569 
L 397.389021 -69.251286 
L 396.592788 -68.701003 
L 395.757783 -68.15072 
L 394.900174 -67.600437 
L 394.041174 -67.050155 
L 393.204729 -66.499872 
L 392.414426 -65.949589 
L 391.69038 -65.399306 
L 391.046747 -64.849023 
L 390.490225 -64.29874 
L 390.019628 -63.748457 
L 389.626434 -63.198174 
L 389.296114 -62.647891 
L 389.010036 -62.097609 
L 388.747741 -61.547326 
L 388.48937 -60.997043 
L 388.217973 -60.44676 
L 387.92141 -59.896477 
L 387.593568 -59.346194 
L 387.234713 -58.795911 
L 386.850937 -58.245628 
L 386.452835 -57.695345 
L 386.05365 -57.145062 
L 385.667234 -56.59478 
L 385.30613 -56.044497 
L 384.980064 -55.494214 
L 384.695022 -54.943931 
L 384.452988 -54.393648 
L 384.252293 -53.843365 
L 384.088461 -53.293082 
L 383.955335 -52.742799 
L 383.84626 -52.192516 
L 383.755104 -51.642234 
L 383.67695 -51.091951 
L 383.608408 -50.541668 
L 383.547556 -49.991385 
L 383.493608 -49.441102 
L 383.446467 -48.890819 
L 383.406274 -48.340536 
L 383.373074 -47.790253 
L 383.346624 -47.23997 
L 383.326354 -46.689687 
z
" id="m9dbf15ba95" style="stroke:#4c4c4c;stroke-width:1.5;"/>
    </defs>
    <g clip-path="url(#p745265bd0d)">
     <use style="fill:#5f9e6e;stroke:#4c4c4c;stroke-width:1.5;" x="0" xlink:href="#m9dbf15ba95" y="275.739688"/>
    </g>
   </g>
   <g id="line2d_31">
    <path clip-path="url(#p745265bd0d)" d="M 291.492344 211.75435 
L 291.492344 165.328259 
" style="fill:none;stroke:#4c4c4c;stroke-linecap:round;stroke-width:1.5;"/>
   </g>
   <g id="line2d_32">
    <path clip-path="url(#p745265bd0d)" d="M 291.492344 193.600534 
L 291.492344 181.334418 
" style="fill:none;stroke:#4c4c4c;stroke-linecap:round;stroke-width:4.5;"/>
   </g>
   <g id="line2d_33">
    <path clip-path="url(#p745265bd0d)" d="M 337.387344 221.008794 
L 337.387344 174.728349 
" style="fill:none;stroke:#4c4c4c;stroke-linecap:round;stroke-width:1.5;"/>
   </g>
   <g id="line2d_34">
    <path clip-path="url(#p745265bd0d)" d="M 337.387344 202.434223 
L 337.387344 189.12062 
" style="fill:none;stroke:#4c4c4c;stroke-linecap:round;stroke-width:4.5;"/>
   </g>
   <g id="line2d_35">
    <path clip-path="url(#p745265bd0d)" d="M 383.282344 219.023047 
L 383.282344 186.014812 
" style="fill:none;stroke:#4c4c4c;stroke-linecap:round;stroke-width:1.5;"/>
   </g>
   <g id="line2d_36">
    <path clip-path="url(#p745265bd0d)" d="M 383.282344 206.53345 
L 383.282344 197.115437 
" style="fill:none;stroke:#4c4c4c;stroke-linecap:round;stroke-width:4.5;"/>
   </g>
   <g id="patch_18">
    <path d="M 268.544844 232.78 
L 268.544844 150.72 
" style="fill:none;stroke:#ffffff;stroke-linecap:square;stroke-linejoin:miter;stroke-width:1.25;"/>
   </g>
   <g id="patch_19">
    <path d="M 406.229844 232.78 
L 406.229844 150.72 
" style="fill:none;stroke:#ffffff;stroke-linecap:square;stroke-linejoin:miter;stroke-width:1.25;"/>
   </g>
   <g id="patch_20">
    <path d="M 268.544844 232.78 
L 406.229844 232.78 
" style="fill:none;stroke:#ffffff;stroke-linecap:square;stroke-linejoin:miter;stroke-width:1.25;"/>
   </g>
   <g id="patch_21">
    <path d="M 268.544844 150.72 
L 406.229844 150.72 
" style="fill:none;stroke:#ffffff;stroke-linecap:square;stroke-linejoin:miter;stroke-width:1.25;"/>
   </g>
   <g id="PathCollection_10">
    <g clip-path="url(#p745265bd0d)">
     <use style="fill:#ffffff;stroke:#4c4c4c;" x="291.492344" xlink:href="#mdaea369e8d" y="188.340232"/>
    </g>
   </g>
   <g id="PathCollection_11">
    <g clip-path="url(#p745265bd0d)">
     <use style="fill:#ffffff;stroke:#4c4c4c;" x="337.387344" xlink:href="#mdaea369e8d" y="195.854601"/>
    </g>
   </g>
   <g id="PathCollection_12">
    <g clip-path="url(#p745265bd0d)">
     <use style="fill:#ffffff;stroke:#4c4c4c;" x="383.282344" xlink:href="#mdaea369e8d" y="201.188854"/>
    </g>
   </g>
  </g>
 </g>
 <defs>
  <clipPath id="p7fd5f4f1cd">
   <rect height="82.06" width="137.685" x="59.024844" y="13.2"/>
  </clipPath>
  <clipPath id="p9e40f871ab">
   <rect height="82.06" width="137.685" x="268.544844" y="13.2"/>
  </clipPath>
  <clipPath id="pef23eed080">
   <rect height="82.06" width="137.685" x="59.024844" y="150.72"/>
  </clipPath>
  <clipPath id="p745265bd0d">
   <rect height="82.06" width="137.685" x="268.544844" y="150.72"/>
  </clipPath>
 </defs>
</svg>
