<?xml version="1.0" encoding="utf-8" standalone="no"?>
<!DOCTYPE svg PUBLIC "-//W3C//DTD SVG 1.1//EN"
  "http://www.w3.org/Graphics/SVG/1.1/DTD/svg11.dtd">
<!-- Created with matplotlib (https://matplotlib.org/) -->
<svg height="280.15625pt" version="1.1" viewBox="0 0 424.8 280.15625" width="424.8pt" xmlns="http://www.w3.org/2000/svg" xmlns:xlink="http://www.w3.org/1999/xlink">
 <defs>
  <style type="text/css">
*{stroke-linecap:butt;stroke-linejoin:round;}
  </style>
 </defs>
 <g id="figure_1">
  <g id="patch_1">
   <path d="M 0 280.15625 
L 424.8 280.15625 
L 424.8 0 
L 0 0 
z
" style="fill:none;"/>
  </g>
  <g id="axes_1">
   <g id="patch_2">
    <path d="M 10.7 104 
L 414.1 104 
L 414.1 7.2 
L 10.7 7.2 
z
" style="fill:#ffffff;"/>
   </g>
   <g id="patch_3">
    <path clip-path="url(#p090601a6b2)" d="M 218.103982 99.6 
L 218.394276 99.59967 
L 218.684571 99.599612 
L 218.974865 99.599546 
L 219.26516 99.59947 
L 219.555454 99.599383 
L 219.845748 99.599284 
L 220.136043 99.599171 
L 220.426337 99.599044 
L 220.716632 99.5989 
L 221.006926 99.598738 
L 221.29722 99.598556 
L 221.587515 99.598354 
L 221.877809 99.598128 
L 222.168104 99.597877 
L 222.458398 99.5976 
L 222.748692 99.597294 
L 223.038987 99.596959 
L 223.329281 99.596592 
L 223.619576 99.596192 
L 223.90987 99.595757 
L 224.200164 99.595286 
L 224.490459 99.594779 
L 224.780753 99.593903 
L 225.071048 99.593262 
L 225.361342 99.592573 
L 225.651636 99.591836 
L 225.941931 99.59105 
L 226.232225 99.590214 
L 226.52252 99.589328 
L 226.812814 99.588392 
L 227.103108 99.587408 
L 227.393403 99.586375 
L 227.683697 99.585295 
L 227.973992 99.584171 
L 228.264286 99.583003 
L 228.554581 99.581795 
L 228.844875 99.58055 
L 229.135169 99.579272 
L 229.425464 99.577963 
L 229.715758 99.576629 
L 230.006053 99.575273 
L 230.296347 99.573901 
L 230.586641 99.572518 
L 230.876936 99.571129 
L 231.16723 99.569739 
L 231.457525 99.568356 
L 231.747819 99.566323 
L 232.038113 99.564853 
L 232.328408 99.563389 
L 232.618702 99.561604 
L 232.908997 99.560106 
L 233.199291 99.558285 
L 233.489585 99.556746 
L 233.77988 99.55521 
L 234.070174 99.553676 
L 234.650763 99.552144 
L 234.941055 99.550613 
L 235.23135 99.54908 
L 235.521642 99.547544 
L 235.811936 99.546 
L 236.102228 99.544447 
L 236.392523 99.54288 
L 236.682815 99.540634 
L 236.973109 99.53825 
L 237.263401 99.536035 
L 237.553696 99.533693 
L 237.84399 99.531206 
L 238.134282 99.528883 
L 238.424577 99.525771 
L 238.714869 99.523063 
L 239.005163 99.519522 
L 239.295455 99.516007 
L 239.58575 99.512543 
L 239.876042 99.508172 
L 240.166336 99.503749 
L 240.456628 99.499298 
L 240.746923 99.494517 
L 241.037217 99.489057 
L 241.327509 99.483171 
L 241.617804 99.476831 
L 241.908096 99.469683 
L 242.19839 99.462631 
L 242.488682 99.454768 
L 242.778977 99.446018 
L 243.069269 99.43663 
L 243.359563 99.426905 
L 243.649855 99.416207 
L 243.94015 99.40446 
L 244.230442 99.390917 
L 244.520736 99.378009 
L 244.811031 99.363654 
L 245.101323 99.349363 
L 245.391617 99.333622 
L 245.681909 99.316636 
L 245.972204 99.298982 
L 246.262496 99.280686 
L 246.55279 99.26046 
L 246.843082 99.239441 
L 247.133377 99.217979 
L 247.423669 99.193851 
L 247.713963 99.168741 
L 248.004258 99.141005 
L 248.29455 99.113341 
L 248.584844 99.083975 
L 248.875136 99.0538 
L 249.165431 99.021887 
L 249.455723 98.988805 
L 249.746017 98.953575 
L 250.036309 98.916376 
L 250.326604 98.877428 
L 250.616896 98.836667 
L 250.90719 98.794687 
L 251.197485 98.751155 
L 251.487779 98.704424 
L 251.778069 98.655587 
L 252.068363 98.602256 
L 252.358658 98.548896 
L 252.648952 98.493844 
L 252.939242 98.43482 
L 253.229536 98.373781 
L 253.519831 98.309745 
L 253.810125 98.24421 
L 254.100415 98.174006 
L 254.390709 98.102022 
L 254.681004 98.027055 
L 254.971298 97.947705 
L 255.261593 97.86631 
L 255.551882 97.778375 
L 255.842177 97.689861 
L 256.132471 97.59856 
L 256.422766 97.500564 
L 256.713055 97.398899 
L 257.00335 97.294504 
L 257.293644 97.183884 
L 257.583939 97.070823 
L 257.874233 96.953579 
L 258.164523 96.830829 
L 258.454817 96.703949 
L 258.745112 96.574581 
L 259.035406 96.441368 
L 259.325696 96.302724 
L 259.61599 96.157133 
L 259.906285 96.006787 
L 260.196579 95.852634 
L 260.486869 95.694478 
L 260.777163 95.531106 
L 261.067458 95.363411 
L 261.357752 95.189478 
L 261.648047 95.013335 
L 261.938336 94.83081 
L 262.228631 94.642608 
L 262.518925 94.451545 
L 262.80922 94.255983 
L 263.09951 94.057291 
L 263.389804 93.85179 
L 263.680098 93.642088 
L 263.970393 93.428277 
L 264.260687 93.20683 
L 264.550977 92.981752 
L 264.841271 92.753246 
L 265.131566 92.519331 
L 265.42186 92.279157 
L 265.71215 92.038055 
L 266.002444 91.787763 
L 266.292739 91.533087 
L 266.583033 91.274454 
L 266.873323 91.012967 
L 267.163617 90.74563 
L 267.453912 90.471561 
L 267.744206 90.194682 
L 268.034501 89.910038 
L 268.324791 89.61973 
L 268.615085 89.325916 
L 268.905379 89.027179 
L 269.195674 88.7211 
L 269.485964 88.405526 
L 269.776258 88.087024 
L 270.066552 87.763094 
L 270.356847 87.43306 
L 270.647141 87.095535 
L 270.937431 86.753753 
L 271.227725 86.405988 
L 271.51802 86.049568 
L 271.808314 85.686276 
L 272.098604 85.3151 
L 272.388898 84.931406 
L 272.679193 84.545973 
L 272.969487 84.149546 
L 273.259777 83.743749 
L 273.550072 83.331085 
L 273.840366 82.911244 
L 274.13066 82.483292 
L 274.420955 82.043143 
L 274.711245 81.596702 
L 275.001539 81.140382 
L 275.291833 80.674132 
L 275.582128 80.199319 
L 275.872418 79.713733 
L 276.162712 79.218053 
L 276.453006 78.711364 
L 276.743301 78.197495 
L 277.033591 77.673718 
L 277.323885 77.134567 
L 277.614179 76.587718 
L 277.904474 76.029026 
L 278.194768 75.461353 
L 278.485058 74.884306 
L 278.775352 74.295227 
L 279.065647 73.698715 
L 279.355941 73.086348 
L 279.646231 72.460709 
L 279.936526 71.828171 
L 280.22682 71.187625 
L 280.517114 70.53355 
L 280.807409 69.873534 
L 281.097699 69.203427 
L 281.387993 68.515836 
L 281.678287 67.826484 
L 281.968582 67.128375 
L 282.258872 66.419142 
L 282.549166 65.701499 
L 282.83946 64.976425 
L 283.129755 64.240143 
L 283.420045 63.495867 
L 283.710339 62.747327 
L 284.000633 61.995957 
L 284.290928 61.229875 
L 284.581222 60.464923 
L 284.871512 59.694051 
L 285.161807 58.912956 
L 285.452101 58.129985 
L 285.742395 57.341052 
L 286.032685 56.549753 
L 286.32298 55.754719 
L 286.613274 54.965541 
L 286.903568 54.164036 
L 287.193863 53.366016 
L 287.484153 52.566788 
L 287.774447 51.766897 
L 288.064741 50.969223 
L 288.355036 50.161546 
L 288.645326 49.367618 
L 288.93562 48.573893 
L 289.225914 47.784131 
L 289.516209 46.996796 
L 289.806499 46.215123 
L 290.096793 45.436584 
L 290.387088 44.661459 
L 290.677382 43.900014 
L 290.967676 43.143082 
L 291.257971 42.391811 
L 291.548265 41.645387 
L 291.83855 40.907133 
L 292.128845 40.186036 
L 292.419139 39.47269 
L 292.709434 38.767733 
L 292.999728 38.070545 
L 293.290022 37.391226 
L 293.580317 36.718387 
L 293.870611 36.059844 
L 294.160906 35.408584 
L 294.451191 34.771388 
L 294.741485 34.141077 
L 295.03178 33.5194 
L 295.322074 32.911473 
L 295.612369 32.313232 
L 295.902663 31.727373 
L 296.192957 31.157279 
L 296.483252 30.596865 
L 296.773537 30.045013 
L 297.063831 29.503527 
L 297.354126 28.969469 
L 297.64442 28.443394 
L 297.934715 27.930994 
L 298.225009 27.421394 
L 298.515303 26.922098 
L 298.805598 26.43162 
L 299.095892 25.948661 
L 299.386177 25.469201 
L 299.676472 25.00334 
L 299.966766 24.545573 
L 300.257061 24.094055 
L 300.547355 23.654428 
L 300.83765 23.223731 
L 301.127944 22.799322 
L 301.418238 22.381459 
L 301.708533 21.979603 
L 301.998818 21.588148 
L 302.289112 21.203257 
L 302.579407 20.829253 
L 302.869701 20.46649 
L 303.159996 20.115388 
L 303.45029 19.774325 
L 303.740584 19.445559 
L 304.030879 19.132541 
L 304.321173 18.835552 
L 304.611458 18.553894 
L 304.901753 18.289308 
L 305.192047 18.031144 
L 305.482342 17.79748 
L 305.772636 17.579388 
L 306.06293 17.38056 
L 306.353225 17.197669 
L 306.643519 17.032391 
L 306.933805 16.892672 
L 307.224099 16.767521 
L 307.514393 16.665089 
L 307.804688 16.585186 
L 308.094982 16.520296 
L 308.385277 16.478977 
L 308.675571 16.461395 
L 308.965865 16.462691 
L 309.25616 16.482854 
L 309.546445 16.520907 
L 309.836739 16.586153 
L 310.127034 16.676084 
L 310.417328 16.789662 
L 310.707623 16.919888 
L 310.997917 17.071946 
L 311.288211 17.248755 
L 311.578506 17.444588 
L 311.8688 17.664295 
L 312.159086 17.911405 
L 312.44938 18.17627 
L 312.739674 18.46044 
L 313.029969 18.770092 
L 313.320263 19.093867 
L 313.610558 19.442336 
L 313.900852 19.817133 
L 314.191146 20.209556 
L 314.481441 20.623736 
L 314.771726 21.057961 
L 315.06202 21.513557 
L 315.352315 21.987544 
L 315.642609 22.483173 
L 315.932904 23.002639 
L 316.223198 23.53309 
L 316.513492 24.081477 
L 316.803787 24.653384 
L 317.094081 25.238539 
L 317.384367 25.840162 
L 317.674661 26.463208 
L 317.964955 27.098054 
L 318.25525 27.747042 
L 318.545544 28.410005 
L 318.835839 29.082492 
L 319.126133 29.763454 
L 319.416427 30.463208 
L 319.706713 31.163901 
L 319.997007 31.880403 
L 320.287301 32.604504 
L 320.577596 33.335759 
L 320.86789 34.081781 
L 321.158185 34.817558 
L 321.448479 35.562846 
L 321.738773 36.312309 
L 322.029068 37.065148 
L 322.319353 37.819889 
L 322.609648 38.574998 
L 322.899942 39.331357 
L 323.190236 40.082352 
L 323.480531 40.833023 
L 323.770825 41.58502 
L 324.06112 42.334144 
L 324.351414 43.081472 
L 324.641708 43.821748 
L 324.931994 44.560611 
L 325.222288 45.296056 
L 325.512582 46.028855 
L 325.802877 46.749326 
L 326.093171 47.471344 
L 326.383466 48.18868 
L 326.67376 48.90087 
L 326.964054 49.607606 
L 327.254349 50.31334 
L 327.544634 51.014384 
L 327.834929 51.708829 
L 328.125223 52.398971 
L 328.415517 53.083872 
L 328.705812 53.758395 
L 328.996106 54.431849 
L 329.286401 55.104189 
L 329.576695 55.770956 
L 329.86698 56.435917 
L 330.157275 57.097896 
L 330.447569 57.752786 
L 330.737863 58.404614 
L 331.028158 59.058103 
L 331.318452 59.705725 
L 331.608747 60.349034 
L 331.899041 60.990977 
L 332.189335 61.625436 
L 332.479621 62.260785 
L 332.769915 62.892906 
L 333.06021 63.52169 
L 333.350504 64.146934 
L 333.640798 64.771389 
L 333.931093 65.395227 
L 334.221387 66.011893 
L 334.511682 66.628401 
L 334.801976 67.243378 
L 335.092261 67.855084 
L 335.382556 68.465299 
L 335.67285 69.074151 
L 335.963144 69.681062 
L 336.253439 70.285604 
L 336.543733 70.886344 
L 336.834028 71.482292 
L 337.124322 72.07593 
L 337.414616 72.668587 
L 337.704902 73.259276 
L 337.995196 73.841125 
L 338.285491 74.420513 
L 338.575785 74.992663 
L 338.866079 75.561086 
L 339.156374 76.12563 
L 339.446668 76.682573 
L 339.736963 77.234646 
L 340.027257 77.780559 
L 340.317542 78.318981 
L 340.607837 78.855942 
L 340.898131 79.383328 
L 341.188425 79.903052 
L 341.47872 80.419063 
L 341.769014 80.927504 
L 342.059309 81.429841 
L 342.349603 81.923378 
L 342.639888 82.402166 
L 342.930183 82.874055 
L 343.220477 83.342103 
L 343.510771 83.800488 
L 343.801066 84.248946 
L 344.09136 84.690385 
L 344.381655 85.125313 
L 344.671949 85.547161 
L 344.962244 85.961633 
L 345.252529 86.366769 
L 345.542823 86.763768 
L 345.833118 87.153433 
L 346.123412 87.53156 
L 346.413706 87.902111 
L 346.704001 88.260516 
L 346.994295 88.61055 
L 347.28459 88.956196 
L 347.574884 89.292161 
L 347.865169 89.620425 
L 348.155464 89.940682 
L 348.445758 90.247642 
L 348.736052 90.552404 
L 349.026347 90.84732 
L 349.316641 91.136769 
L 349.606936 91.416641 
L 349.89723 91.68763 
L 350.187525 91.95151 
L 350.47781 92.21042 
L 350.768104 92.463343 
L 351.058399 92.707753 
L 351.348693 92.947973 
L 351.638987 93.178948 
L 351.929282 93.40509 
L 352.219576 93.627957 
L 352.509871 93.839396 
L 352.800156 94.044856 
L 353.09045 94.245567 
L 353.380745 94.438334 
L 353.671039 94.628349 
L 353.961333 94.813068 
L 354.251628 94.990022 
L 354.541922 95.161335 
L 354.832217 95.328265 
L 355.122511 95.490438 
L 355.412796 95.64815 
L 355.703091 95.799751 
L 355.993385 95.948297 
L 356.28368 96.089385 
L 356.573974 96.229108 
L 356.864268 96.363393 
L 357.154563 96.490764 
L 357.444857 96.61363 
L 357.735152 96.73237 
L 358.025437 96.847041 
L 358.315731 96.958777 
L 358.606026 97.065234 
L 358.89632 97.166449 
L 359.186614 97.266079 
L 359.476909 97.361633 
L 359.767203 97.454096 
L 360.057498 97.542082 
L 360.347792 97.625273 
L 360.638077 97.705104 
L 360.928372 97.783092 
L 361.218666 97.858244 
L 361.508961 97.928939 
L 361.799255 97.998351 
L 362.089549 98.064664 
L 362.379844 98.126632 
L 362.670138 98.187423 
L 362.960423 98.246094 
L 363.250718 98.303821 
L 363.541012 98.356236 
L 363.831307 98.407263 
L 364.121601 98.456928 
L 364.411895 98.505219 
L 364.70219 98.551576 
L 364.992484 98.594412 
L 365.282779 98.636036 
L 365.573064 98.676171 
L 365.863358 98.715712 
L 366.153653 98.752897 
L 366.443947 98.789044 
L 366.734251 98.824432 
L 367.024527 98.858742 
L 367.314821 98.890585 
L 367.605116 98.92159 
L 367.89541 98.950901 
L 368.185704 98.979196 
L 368.475999 99.006493 
L 368.766293 99.032248 
L 369.056588 99.058244 
L 369.346882 99.082632 
L 369.637176 99.105527 
L 369.927471 99.128151 
L 370.217765 99.149862 
L 370.50806 99.170117 
L 370.798354 99.190141 
L 371.088648 99.209013 
L 371.378943 99.227359 
L 371.669237 99.24459 
L 371.959513 99.260772 
L 372.249808 99.277368 
L 372.540102 99.292256 
L 372.830397 99.307008 
L 373.120691 99.320716 
L 373.410985 99.334299 
L 373.70128 99.346018 
L 373.991574 99.357206 
L 374.281869 99.367879 
L 374.572163 99.378055 
L 374.862457 99.387753 
L 375.152752 99.396993 
L 375.443046 99.405798 
L 375.733341 99.41391 
L 376.023635 99.421674 
L 376.313929 99.429389 
L 376.604224 99.436469 
L 376.894518 99.443541 
L 377.184794 99.450019 
L 377.475089 99.45625 
L 377.765383 99.46253 
L 378.055678 99.468271 
L 378.345972 99.473817 
L 378.636266 99.479742 
L 378.926561 99.485692 
L 379.216855 99.490806 
L 379.50715 99.495757 
L 379.797444 99.500557 
L 380.087738 99.505215 
L 380.378033 99.50974 
L 380.668327 99.514418 
L 380.958622 99.518932 
L 381.248916 99.522732 
L 381.53921 99.526472 
L 381.829505 99.530147 
L 382.119799 99.533752 
L 382.410094 99.537562 
L 382.700388 99.540967 
L 382.990682 99.544293 
L 383.280977 99.547534 
L 383.571271 99.550684 
L 383.861566 99.553738 
L 384.15186 99.556973 
L 384.442155 99.560062 
L 384.732449 99.563006 
L 385.022743 99.565529 
L 385.313038 99.567955 
L 385.603332 99.570281 
L 385.893627 99.572785 
L 386.183921 99.574861 
L 386.474215 99.576836 
L 386.76451 99.57871 
L 387.054804 99.580481 
L 387.345099 99.582151 
L 387.635393 99.583999 
L 387.925687 99.585425 
L 388.215982 99.586758 
L 388.506276 99.588002 
L 388.796571 99.589157 
L 389.086865 99.590228 
L 389.377159 99.591216 
L 389.667454 99.592126 
L 389.957748 99.59296 
L 390.248043 99.593723 
L 390.538337 99.594418 
L 390.828631 99.59533 
L 391.118926 99.595859 
L 391.40922 99.596338 
L 391.699515 99.596771 
L 391.989809 99.597161 
L 392.280103 99.597511 
L 392.570398 99.597824 
L 392.860692 99.598102 
L 393.150987 99.59835 
L 393.441281 99.59857 
L 393.731576 99.599044 
L 394.02187 99.599171 
L 394.312164 99.599284 
L 394.602459 99.599383 
L 394.892753 99.59947 
L 395.183048 99.599546 
L 395.473342 99.599612 
L 395.763636 99.59967 
z
" style="fill:#1f77b4;opacity:0.4;"/>
   </g>
   <g id="patch_4">
    <path clip-path="url(#p090601a6b2)" d="M 277.614179 99.6 
L 277.614179 76.587718 
L 277.904474 76.029026 
L 278.194768 75.461353 
L 278.485058 74.884306 
L 278.775352 74.295227 
L 279.065647 73.698715 
L 279.355941 73.086348 
L 279.646231 72.460709 
L 279.936526 71.828171 
L 280.22682 71.187625 
L 280.517114 70.53355 
L 280.807409 69.873534 
L 281.097699 69.203427 
L 281.387993 68.515836 
L 281.678287 67.826484 
L 281.968582 67.128375 
L 282.258872 66.419142 
L 282.549166 65.701499 
L 282.83946 64.976425 
L 283.129755 64.240143 
L 283.420045 63.495867 
L 283.710339 62.747327 
L 284.000633 61.995957 
L 284.290928 61.229875 
L 284.581222 60.464923 
L 284.871512 59.694051 
L 285.161807 58.912956 
L 285.452101 58.129985 
L 285.742395 57.341052 
L 286.032685 56.549753 
L 286.32298 55.754719 
L 286.613274 54.965541 
L 286.903568 54.164036 
L 287.193863 53.366016 
L 287.484153 52.566788 
L 287.774447 51.766897 
L 288.064741 50.969223 
L 288.355036 50.161546 
L 288.645326 49.367618 
L 288.93562 48.573893 
L 289.225914 47.784131 
L 289.516209 46.996796 
L 289.806499 46.215123 
L 290.096793 45.436584 
L 290.387088 44.661459 
L 290.677382 43.900014 
L 290.967676 43.143082 
L 291.257971 42.391811 
L 291.548265 41.645387 
L 291.83855 40.907133 
L 292.128845 40.186036 
L 292.419139 39.47269 
L 292.709434 38.767733 
L 292.999728 38.070545 
L 293.290022 37.391226 
L 293.580317 36.718387 
L 293.870611 36.059844 
L 294.160906 35.408584 
L 294.451191 34.771388 
L 294.741485 34.141077 
L 295.03178 33.5194 
L 295.322074 32.911473 
L 295.612369 32.313232 
L 295.902663 31.727373 
L 296.192957 31.157279 
L 296.483252 30.596865 
L 296.773537 30.045013 
L 297.063831 29.503527 
L 297.354126 28.969469 
L 297.64442 28.443394 
L 297.934715 27.930994 
L 298.225009 27.421394 
L 298.515303 26.922098 
L 298.805598 26.43162 
L 299.095892 25.948661 
L 299.386177 25.469201 
L 299.676472 25.00334 
L 299.966766 24.545573 
L 300.257061 24.094055 
L 300.547355 23.654428 
L 300.83765 23.223731 
L 301.127944 22.799322 
L 301.418238 22.381459 
L 301.708533 21.979603 
L 301.998818 21.588148 
L 302.289112 21.203257 
L 302.579407 20.829253 
L 302.869701 20.46649 
L 303.159996 20.115388 
L 303.45029 19.774325 
L 303.740584 19.445559 
L 304.030879 19.132541 
L 304.321173 18.835552 
L 304.611458 18.553894 
L 304.901753 18.289308 
L 305.192047 18.031144 
L 305.482342 17.79748 
L 305.772636 17.579388 
L 306.06293 17.38056 
L 306.353225 17.197669 
L 306.643519 17.032391 
L 306.933805 16.892672 
L 307.224099 16.767521 
L 307.514393 16.665089 
L 307.804688 16.585186 
L 308.094982 16.520296 
L 308.385277 16.478977 
L 308.675571 16.461395 
L 308.965865 16.462691 
L 309.25616 16.482854 
L 309.546445 16.520907 
L 309.836739 16.586153 
L 310.127034 16.676084 
L 310.417328 16.789662 
L 310.707623 16.919888 
L 310.997917 17.071946 
L 311.288211 17.248755 
L 311.578506 17.444588 
L 311.8688 17.664295 
L 312.159086 17.911405 
L 312.44938 18.17627 
L 312.739674 18.46044 
L 313.029969 18.770092 
L 313.320263 19.093867 
L 313.610558 19.442336 
L 313.900852 19.817133 
L 314.191146 20.209556 
L 314.481441 20.623736 
L 314.771726 21.057961 
L 315.06202 21.513557 
L 315.352315 21.987544 
L 315.642609 22.483173 
L 315.932904 23.002639 
L 316.223198 23.53309 
L 316.513492 24.081477 
L 316.803787 24.653384 
L 317.094081 25.238539 
L 317.384367 25.840162 
L 317.674661 26.463208 
L 317.964955 27.098054 
L 318.25525 27.747042 
L 318.545544 28.410005 
L 318.835839 29.082492 
L 319.126133 29.763454 
L 319.416427 30.463208 
L 319.706713 31.163901 
L 319.997007 31.880403 
L 320.287301 32.604504 
L 320.577596 33.335759 
L 320.86789 34.081781 
L 321.158185 34.817558 
L 321.448479 35.562846 
L 321.738773 36.312309 
L 322.029068 37.065148 
L 322.319353 37.819889 
L 322.609648 38.574998 
L 322.899942 39.331357 
L 323.190236 40.082352 
L 323.480531 40.833023 
L 323.770825 41.58502 
L 324.06112 42.334144 
L 324.351414 43.081472 
L 324.641708 43.821748 
L 324.931994 44.560611 
L 325.222288 45.296056 
L 325.512582 46.028855 
L 325.802877 46.749326 
L 326.093171 47.471344 
L 326.383466 48.18868 
L 326.67376 48.90087 
L 326.964054 49.607606 
L 327.254349 50.31334 
L 327.544634 51.014384 
L 327.834929 51.708829 
L 328.125223 52.398971 
L 328.415517 53.083872 
L 328.705812 53.758395 
L 328.996106 54.431849 
L 329.286401 55.104189 
L 329.576695 55.770956 
L 329.86698 56.435917 
L 330.157275 57.097896 
L 330.447569 57.752786 
L 330.737863 58.404614 
L 331.028158 59.058103 
L 331.318452 59.705725 
L 331.608747 60.349034 
L 331.899041 60.990977 
L 332.189335 61.625436 
L 332.479621 62.260785 
L 332.769915 62.892906 
L 333.06021 63.52169 
L 333.350504 64.146934 
L 333.640798 64.771389 
L 333.931093 65.395227 
L 334.221387 66.011893 
L 334.511682 66.628401 
L 334.801976 67.243378 
L 335.092261 67.855084 
L 335.382556 68.465299 
L 335.67285 69.074151 
L 335.963144 69.681062 
L 336.253439 70.285604 
L 336.543733 70.886344 
L 336.834028 71.482292 
L 337.124322 72.07593 
L 337.414616 72.668587 
L 337.704902 73.259276 
L 337.995196 73.841125 
L 338.285491 74.420513 
L 338.285491 99.6 
z
" style="fill:#1f77b4;opacity:0.4;"/>
   </g>
   <g id="patch_5">
    <path clip-path="url(#p090601a6b2)" d="M 171.420625 99.6 
L 171.558424 99.59967 
L 171.696223 99.599612 
L 171.834022 99.599546 
L 171.971821 99.59947 
L 172.10962 99.599383 
L 172.24742 99.599284 
L 172.385219 99.599171 
L 172.523018 99.599044 
L 172.660817 99.5989 
L 172.798616 99.598738 
L 172.936415 99.598556 
L 173.074215 99.598354 
L 173.212014 99.598128 
L 173.349813 99.597877 
L 173.487612 99.5976 
L 173.625411 99.597294 
L 173.76321 99.596959 
L 173.90101 99.596592 
L 174.038809 99.596192 
L 174.176608 99.595757 
L 174.314407 99.595286 
L 174.452206 99.594779 
L 174.590005 99.594233 
L 174.727805 99.59365 
L 174.865604 99.593027 
L 175.003403 99.592366 
L 175.141202 99.591667 
L 175.279001 99.5906 
L 175.4168 99.589769 
L 175.5546 99.588895 
L 175.692399 99.587978 
L 175.830198 99.58702 
L 175.967997 99.586023 
L 176.105796 99.584658 
L 176.243595 99.583532 
L 176.381395 99.582364 
L 176.519194 99.581159 
L 176.656993 99.579917 
L 176.794792 99.578642 
L 176.932591 99.577006 
L 177.07039 99.575284 
L 177.20819 99.573472 
L 177.345989 99.571892 
L 177.483788 99.570265 
L 177.621587 99.568589 
L 177.759386 99.566864 
L 177.897185 99.565089 
L 178.034985 99.563263 
L 178.172784 99.561054 
L 178.310583 99.559063 
L 178.448382 99.557006 
L 178.586181 99.554878 
L 178.72398 99.552677 
L 178.86178 99.550067 
L 178.999579 99.547647 
L 179.275177 99.544799 
L 179.412976 99.542122 
L 179.550775 99.538668 
L 179.688572 99.535634 
L 179.826371 99.532453 
L 179.964171 99.528786 
L 180.10197 99.524567 
L 180.239769 99.520713 
L 180.377568 99.516324 
L 180.515367 99.511663 
L 180.653164 99.507044 
L 180.790963 99.501186 
L 180.928762 99.49556 
L 181.066562 99.489918 
L 181.204361 99.483969 
L 181.34216 99.477706 
L 181.479959 99.47046 
L 181.617756 99.463433 
L 181.755555 99.455066 
L 181.893354 99.447165 
L 182.031154 99.437562 
L 182.168953 99.428335 
L 182.306752 99.418628 
L 182.444551 99.407768 
L 182.582348 99.396949 
L 182.720147 99.385265 
L 182.857946 99.372646 
L 182.995745 99.359342 
L 183.133545 99.346311 
L 183.271344 99.332704 
L 183.409143 99.317522 
L 183.54694 99.301905 
L 183.684739 99.285548 
L 183.822538 99.268757 
L 183.960337 99.251235 
L 184.098136 99.232635 
L 184.235936 99.213875 
L 184.373735 99.194055 
L 184.511532 99.173445 
L 184.649331 99.150711 
L 184.78713 99.126937 
L 184.924929 99.102412 
L 185.062728 99.076821 
L 185.200527 99.049799 
L 185.338327 99.021586 
L 185.476124 98.992797 
L 185.613923 98.961194 
L 185.751722 98.930094 
L 185.889521 98.897791 
L 186.02732 98.864265 
L 186.165119 98.829499 
L 186.302918 98.792155 
L 186.440715 98.754964 
L 186.578515 98.716519 
L 186.716314 98.674508 
L 186.854113 98.630183 
L 186.991912 98.586679 
L 187.129711 98.542024 
L 187.26751 98.494617 
L 187.405307 98.445604 
L 187.543106 98.394629 
L 187.680906 98.340291 
L 187.818705 98.284579 
L 187.956504 98.227535 
L 188.094303 98.16591 
L 188.2321 98.102495 
L 188.369899 98.037947 
L 188.507698 97.972382 
L 188.645497 97.903636 
L 188.783297 97.83181 
L 188.921096 97.757696 
L 189.058895 97.680592 
L 189.196692 97.60133 
L 189.334491 97.518926 
L 189.47229 97.432235 
L 189.610089 97.343232 
L 189.747888 97.251284 
L 189.885688 97.157317 
L 190.023487 97.057486 
L 190.161284 96.95488 
L 190.299083 96.849199 
L 190.436882 96.739449 
L 190.574681 96.623823 
L 190.71248 96.506168 
L 190.85028 96.383719 
L 190.988079 96.257269 
L 191.125876 96.127165 
L 191.263675 95.990809 
L 191.401474 95.851116 
L 191.539273 95.703618 
L 191.677072 95.553272 
L 191.814871 95.395101 
L 191.952671 95.234219 
L 192.090467 95.067362 
L 192.228267 94.894677 
L 192.366066 94.716685 
L 192.503865 94.531003 
L 192.641664 94.341129 
L 192.779463 94.146958 
L 192.917262 93.944468 
L 193.055059 93.734212 
L 193.192858 93.519445 
L 193.330658 93.299052 
L 193.468457 93.072063 
L 193.606256 92.84097 
L 193.744055 92.603711 
L 193.881853 92.361216 
L 194.019652 92.112979 
L 194.157451 91.858344 
L 194.29525 91.595552 
L 194.433049 91.328094 
L 194.570848 91.055849 
L 194.708646 90.775695 
L 194.846445 90.487261 
L 194.984244 90.194032 
L 195.122043 89.892905 
L 195.259841 89.586938 
L 195.397641 89.27231 
L 195.53544 88.952089 
L 195.673238 88.623134 
L 195.811037 88.289022 
L 195.948836 87.945625 
L 196.086635 87.593502 
L 196.224433 87.231208 
L 196.362232 86.859132 
L 196.500032 86.479635 
L 196.63783 86.091454 
L 196.775629 85.693422 
L 196.913428 85.286431 
L 197.051227 84.866751 
L 197.189025 84.441556 
L 197.326824 84.004214 
L 197.464623 83.555174 
L 197.602421 83.100317 
L 197.740221 82.629975 
L 197.87802 82.154013 
L 198.015819 81.659104 
L 198.153617 81.157073 
L 198.291416 80.641578 
L 198.429215 80.116479 
L 198.567013 79.580281 
L 198.704813 79.035512 
L 198.842612 78.4779 
L 198.980411 77.912074 
L 199.118209 77.335393 
L 199.256008 76.742087 
L 199.393807 76.142851 
L 199.531605 75.534296 
L 199.669404 74.914158 
L 199.807204 74.287001 
L 199.945003 73.650118 
L 200.082801 73.007738 
L 200.2206 72.355234 
L 200.358399 71.695313 
L 200.496197 71.026469 
L 200.633996 70.349071 
L 200.771795 69.665159 
L 200.909593 68.973266 
L 201.047393 68.276957 
L 201.185192 67.566394 
L 201.322991 66.85067 
L 201.460789 66.133161 
L 201.598588 65.406901 
L 201.736387 64.672696 
L 201.874185 63.932084 
L 202.011984 63.186706 
L 202.149784 62.43684 
L 202.287583 61.679115 
L 202.425381 60.915976 
L 202.56318 60.14736 
L 202.700979 59.377188 
L 202.838777 58.599189 
L 202.976576 57.819306 
L 203.114376 57.03107 
L 203.252175 56.23795 
L 203.389973 55.437457 
L 203.527772 54.637011 
L 203.66557 53.830512 
L 203.80337 53.018332 
L 203.941168 52.201924 
L 204.078967 51.37959 
L 204.216766 50.55693 
L 204.354565 49.730504 
L 204.492364 48.904536 
L 204.630162 48.066828 
L 204.767962 47.234348 
L 204.90576 46.399625 
L 205.043559 45.563946 
L 205.181358 44.725051 
L 205.319157 43.894423 
L 205.456956 43.063869 
L 205.594754 42.235852 
L 205.732553 41.407114 
L 205.870352 40.575464 
L 206.008151 39.755332 
L 206.14595 38.937955 
L 206.283749 38.123939 
L 206.421547 37.315251 
L 206.559346 36.511051 
L 206.697145 35.717399 
L 206.834944 34.922945 
L 206.972743 34.143758 
L 207.110542 33.371362 
L 207.24834 32.611629 
L 207.386139 31.861216 
L 207.523938 31.111354 
L 207.661737 30.375512 
L 207.799536 29.64849 
L 207.937335 28.940611 
L 208.075133 28.239452 
L 208.212932 27.546417 
L 208.350731 26.870931 
L 208.48853 26.206023 
L 208.626329 25.553401 
L 208.764128 24.915007 
L 208.901926 24.284389 
L 209.039725 23.663723 
L 209.177524 23.060439 
L 209.315323 22.472148 
L 209.453122 21.898059 
L 209.590921 21.33627 
L 209.728719 20.787154 
L 209.866518 20.249845 
L 210.004317 19.726561 
L 210.142116 19.2229 
L 210.279915 18.732396 
L 210.417714 18.256972 
L 210.555512 17.794072 
L 210.693311 17.346694 
L 210.83111 16.913774 
L 210.968909 16.495606 
L 211.106708 16.091423 
L 211.244507 15.70172 
L 211.382306 15.332836 
L 211.520104 14.9786 
L 211.657903 14.640888 
L 211.795702 14.319039 
L 211.933501 14.012734 
L 212.0713 13.720616 
L 212.209099 13.44852 
L 212.346897 13.193322 
L 212.484696 12.953042 
L 212.622495 12.730586 
L 212.760294 12.525463 
L 212.898093 12.342585 
L 213.035892 12.175 
L 213.17369 12.029448 
L 213.311489 11.904347 
L 213.449288 11.804322 
L 213.587087 11.720516 
L 213.724886 11.659827 
L 213.862685 11.619325 
L 214.000483 11.6 
L 214.138282 11.605542 
L 214.276081 11.634852 
L 214.41388 11.689308 
L 214.551679 11.767539 
L 214.689478 11.871991 
L 214.827276 12.002823 
L 214.965075 12.159473 
L 215.102874 12.343385 
L 215.240673 12.554824 
L 215.378472 12.790431 
L 215.516271 13.054373 
L 215.65407 13.34698 
L 215.791868 13.665749 
L 215.929667 14.012062 
L 216.067466 14.39009 
L 216.205265 14.795501 
L 216.343064 15.224597 
L 216.480863 15.67924 
L 216.618661 16.168649 
L 216.75646 16.680465 
L 216.894259 17.210121 
L 217.032058 17.770489 
L 217.169857 18.357677 
L 217.307656 18.965353 
L 217.445454 19.596043 
L 217.583253 20.24644 
L 217.721052 20.922097 
L 217.858851 21.612502 
L 217.99665 22.322584 
L 218.134449 23.048592 
L 218.272247 23.79369 
L 218.410046 24.551227 
L 218.547845 25.328743 
L 218.685644 26.115921 
L 218.823443 26.920567 
L 218.961242 27.732852 
L 219.09904 28.559363 
L 219.236839 29.392701 
L 219.374638 30.233555 
L 219.512437 31.086715 
L 219.650236 31.942854 
L 219.788035 32.809802 
L 219.925834 33.678064 
L 220.063632 34.558021 
L 220.201431 35.437199 
L 220.33923 36.318367 
L 220.477029 37.204116 
L 220.614828 38.093308 
L 220.752626 38.977463 
L 220.890425 39.865775 
L 221.028224 40.755975 
L 221.166023 41.649733 
L 221.303822 42.55091 
L 221.441621 43.443439 
L 221.57942 44.333926 
L 221.717218 45.227219 
L 221.855017 46.11759 
L 221.992816 47.007581 
L 222.130615 47.893907 
L 222.268414 48.78274 
L 222.406212 49.663858 
L 222.544012 50.540015 
L 222.68181 51.4085 
L 222.819609 52.270047 
L 222.957407 53.137846 
L 223.095207 53.99335 
L 223.233006 54.843169 
L 223.370805 55.680261 
L 223.508603 56.514507 
L 223.646402 57.341698 
L 223.784201 58.157189 
L 223.921999 58.967326 
L 224.059798 59.763914 
L 224.197598 60.549147 
L 224.335397 61.330039 
L 224.473195 62.100445 
L 224.610994 62.85624 
L 224.748793 63.599328 
L 224.886591 64.33061 
L 225.02439 65.05339 
L 225.162189 65.767883 
L 225.299989 66.472227 
L 225.437787 67.162161 
L 225.575586 67.838186 
L 225.713385 68.506016 
L 225.851183 69.162253 
L 225.988982 69.810166 
L 226.126781 70.445442 
L 226.26458 71.073872 
L 226.402378 71.691083 
L 226.540178 72.301594 
L 226.677977 72.90177 
L 226.815775 73.49078 
L 226.953574 74.07258 
L 227.091373 74.649898 
L 227.229171 75.21835 
L 227.36697 75.778862 
L 227.50477 76.334712 
L 227.642569 76.880663 
L 227.780367 77.421617 
L 227.918166 77.960765 
L 228.055965 78.489746 
L 228.193763 79.014871 
L 228.331562 79.532179 
L 228.469361 80.042205 
L 228.607161 80.549394 
L 228.744959 81.045291 
L 228.882758 81.539315 
L 229.020557 82.027795 
L 229.158355 82.509544 
L 229.296154 82.984338 
L 229.433953 83.452963 
L 229.571752 83.911953 
L 229.70955 84.367276 
L 229.84735 84.811776 
L 229.985149 85.25079 
L 230.122947 85.68671 
L 230.260746 86.108975 
L 230.398545 86.523618 
L 230.536344 86.930973 
L 230.674142 87.328318 
L 230.811941 87.721473 
L 230.949741 88.103554 
L 231.087539 88.477923 
L 231.225338 88.844678 
L 231.363137 89.203957 
L 231.500936 89.551641 
L 231.638734 89.890425 
L 231.776533 90.224244 
L 231.914333 90.549769 
L 232.052131 90.863685 
L 232.189931 91.170405 
L 232.327728 91.471779 
L 232.465527 91.761271 
L 232.603326 92.042237 
L 232.741125 92.316519 
L 232.878924 92.581595 
L 233.016724 92.841161 
L 233.154523 93.090805 
L 233.29232 93.334995 
L 233.430119 93.571056 
L 233.567918 93.799549 
L 233.705717 94.021488 
L 233.843516 94.237517 
L 233.981315 94.446293 
L 234.119115 94.650859 
L 234.256911 94.845408 
L 234.394711 95.035129 
L 234.53251 95.216315 
L 234.670309 95.394813 
L 234.808108 95.567746 
L 234.945907 95.73353 
L 235.083706 95.895046 
L 235.221503 96.047463 
L 235.359303 96.197074 
L 235.497102 96.343066 
L 235.634901 96.481675 
L 235.7727 96.618974 
L 235.910499 96.748635 
L 236.048298 96.874836 
L 236.186095 96.99497 
L 236.323894 97.112447 
L 236.461694 97.223447 
L 236.599493 97.330351 
L 236.737292 97.431555 
L 236.875091 97.530479 
L 237.01289 97.626393 
L 237.150687 97.717012 
L 237.288486 97.80462 
L 237.426285 97.887807 
L 237.564085 97.966798 
L 237.701884 98.043203 
L 237.839683 98.115322 
L 237.977482 98.185094 
L 238.115279 98.253621 
L 238.253078 98.319048 
L 238.390877 98.379537 
L 238.528676 98.438879 
L 238.666476 98.495257 
L 238.804275 98.548548 
L 238.942074 98.598105 
L 239.079871 98.64648 
L 239.21767 98.692488 
L 239.355469 98.735979 
L 239.493268 98.77964 
L 239.631067 98.820998 
L 239.768867 98.859926 
L 239.906664 98.89717 
L 240.044463 98.932535 
L 240.182262 98.966143 
L 240.320061 98.999229 
L 240.45786 99.030274 
L 240.595659 99.06 
L 240.733459 99.087392 
L 240.871255 99.114919 
L 241.009055 99.141033 
L 241.146854 99.166105 
L 241.284653 99.189332 
L 241.422452 99.212282 
L 241.560251 99.23432 
L 241.69805 99.255191 
L 241.835847 99.275802 
L 241.973646 99.29496 
L 242.111446 99.313617 
L 242.249245 99.33118 
L 242.387044 99.349109 
L 242.524843 99.364718 
L 242.662642 99.380778 
L 242.800439 99.395433 
L 242.938238 99.409075 
L 243.076037 99.422597 
L 243.213837 99.434519 
L 243.351636 99.445548 
L 243.489435 99.456006 
L 243.627234 99.465891 
L 243.765031 99.475483 
L 243.90283 99.484461 
L 244.040629 99.492555 
L 244.178429 99.500943 
L 244.316228 99.507824 
L 244.454027 99.514198 
L 244.591826 99.520917 
L 244.729623 99.527026 
L 244.867422 99.532278 
L 245.005221 99.536472 
L 245.14302 99.540281 
L 245.28082 99.544002 
L 245.418619 99.54761 
L 245.556418 99.550247 
L 245.694215 99.552592 
L 245.832014 99.554944 
L 245.969813 99.557001 
L 246.107612 99.558509 
L 246.245411 99.55982 
L 246.383211 99.560952 
L 246.52101 99.562206 
L 246.658807 99.562999 
L 246.796606 99.56368 
L 246.934405 99.564267 
L 247.072204 99.564778 
L 247.210003 99.56551 
L 247.347802 99.565875 
L 247.485602 99.566216 
L 247.623399 99.566828 
L 247.761198 99.567118 
L 247.898997 99.567705 
L 248.036796 99.568556 
L 248.174595 99.56908 
L 248.312394 99.569337 
L 248.450194 99.569939 
L 248.587993 99.570283 
L 248.725792 99.570698 
L 248.863591 99.571183 
L 249.00139 99.571734 
L 249.139189 99.57263 
L 249.276989 99.573262 
L 249.414788 99.573956 
L 249.552587 99.574706 
L 249.690386 99.575506 
L 249.828185 99.57635 
L 249.965984 99.577232 
L 250.103784 99.578144 
L 250.241583 99.579081 
L 250.379382 99.580037 
L 250.517181 99.581004 
L 250.65498 99.581977 
L 250.792779 99.582951 
L 250.930578 99.583918 
L 251.068378 99.584876 
L 251.206177 99.585817 
L 251.343976 99.586739 
L 251.481775 99.587637 
L 251.619574 99.588508 
L 251.757373 99.589349 
L 251.895173 99.590157 
L 252.032972 99.59093 
L 252.170771 99.591667 
L 252.30857 99.592366 
L 252.446369 99.593027 
L 252.584168 99.59365 
L 252.721968 99.594233 
L 252.859767 99.594779 
L 252.997566 99.595286 
L 253.135365 99.595757 
L 253.273164 99.596192 
L 253.410963 99.596592 
L 253.548763 99.596959 
L 253.686562 99.597294 
L 253.824361 99.5976 
L 253.96216 99.597877 
L 254.099959 99.598128 
L 254.237758 99.598354 
L 254.375558 99.598556 
L 254.513357 99.598738 
L 254.651156 99.5989 
L 254.788955 99.599044 
L 254.926754 99.599171 
L 255.064553 99.599284 
L 255.202353 99.599383 
L 255.340152 99.59947 
L 255.477951 99.599546 
L 255.61575 99.599612 
L 255.753549 99.59967 
z
" style="fill:#ff7f0e;opacity:0.4;"/>
   </g>
   <g id="patch_6">
    <path clip-path="url(#p090601a6b2)" d="M 199.669404 99.6 
L 199.669404 74.914158 
L 199.807204 74.287001 
L 199.945003 73.650118 
L 200.082801 73.007738 
L 200.2206 72.355234 
L 200.358399 71.695313 
L 200.496197 71.026469 
L 200.633996 70.349071 
L 200.771795 69.665159 
L 200.909593 68.973266 
L 201.047393 68.276957 
L 201.185192 67.566394 
L 201.322991 66.85067 
L 201.460789 66.133161 
L 201.598588 65.406901 
L 201.736387 64.672696 
L 201.874185 63.932084 
L 202.011984 63.186706 
L 202.149784 62.43684 
L 202.287583 61.679115 
L 202.425381 60.915976 
L 202.56318 60.14736 
L 202.700979 59.377188 
L 202.838777 58.599189 
L 202.976576 57.819306 
L 203.114376 57.03107 
L 203.252175 56.23795 
L 203.389973 55.437457 
L 203.527772 54.637011 
L 203.66557 53.830512 
L 203.80337 53.018332 
L 203.941168 52.201924 
L 204.078967 51.37959 
L 204.216766 50.55693 
L 204.354565 49.730504 
L 204.492364 48.904536 
L 204.630162 48.066828 
L 204.767962 47.234348 
L 204.90576 46.399625 
L 205.043559 45.563946 
L 205.181358 44.725051 
L 205.319157 43.894423 
L 205.456956 43.063869 
L 205.594754 42.235852 
L 205.732553 41.407114 
L 205.870352 40.575464 
L 206.008151 39.755332 
L 206.14595 38.937955 
L 206.283749 38.123939 
L 206.421547 37.315251 
L 206.559346 36.511051 
L 206.697145 35.717399 
L 206.834944 34.922945 
L 206.972743 34.143758 
L 207.110542 33.371362 
L 207.24834 32.611629 
L 207.386139 31.861216 
L 207.523938 31.111354 
L 207.661737 30.375512 
L 207.799536 29.64849 
L 207.937335 28.940611 
L 208.075133 28.239452 
L 208.212932 27.546417 
L 208.350731 26.870931 
L 208.48853 26.206023 
L 208.626329 25.553401 
L 208.764128 24.915007 
L 208.901926 24.284389 
L 209.039725 23.663723 
L 209.177524 23.060439 
L 209.315323 22.472148 
L 209.453122 21.898059 
L 209.590921 21.33627 
L 209.728719 20.787154 
L 209.866518 20.249845 
L 210.004317 19.726561 
L 210.142116 19.2229 
L 210.279915 18.732396 
L 210.417714 18.256972 
L 210.555512 17.794072 
L 210.693311 17.346694 
L 210.83111 16.913774 
L 210.968909 16.495606 
L 211.106708 16.091423 
L 211.244507 15.70172 
L 211.382306 15.332836 
L 211.520104 14.9786 
L 211.657903 14.640888 
L 211.795702 14.319039 
L 211.933501 14.012734 
L 212.0713 13.720616 
L 212.209099 13.44852 
L 212.346897 13.193322 
L 212.484696 12.953042 
L 212.622495 12.730586 
L 212.760294 12.525463 
L 212.898093 12.342585 
L 213.035892 12.175 
L 213.17369 12.029448 
L 213.311489 11.904347 
L 213.449288 11.804322 
L 213.587087 11.720516 
L 213.724886 11.659827 
L 213.862685 11.619325 
L 214.000483 11.6 
L 214.138282 11.605542 
L 214.276081 11.634852 
L 214.41388 11.689308 
L 214.551679 11.767539 
L 214.689478 11.871991 
L 214.827276 12.002823 
L 214.965075 12.159473 
L 215.102874 12.343385 
L 215.240673 12.554824 
L 215.378472 12.790431 
L 215.516271 13.054373 
L 215.65407 13.34698 
L 215.791868 13.665749 
L 215.929667 14.012062 
L 216.067466 14.39009 
L 216.205265 14.795501 
L 216.343064 15.224597 
L 216.480863 15.67924 
L 216.618661 16.168649 
L 216.75646 16.680465 
L 216.894259 17.210121 
L 217.032058 17.770489 
L 217.169857 18.357677 
L 217.307656 18.965353 
L 217.445454 19.596043 
L 217.583253 20.24644 
L 217.721052 20.922097 
L 217.858851 21.612502 
L 217.99665 22.322584 
L 218.134449 23.048592 
L 218.272247 23.79369 
L 218.410046 24.551227 
L 218.547845 25.328743 
L 218.685644 26.115921 
L 218.823443 26.920567 
L 218.961242 27.732852 
L 219.09904 28.559363 
L 219.236839 29.392701 
L 219.374638 30.233555 
L 219.512437 31.086715 
L 219.650236 31.942854 
L 219.788035 32.809802 
L 219.925834 33.678064 
L 220.063632 34.558021 
L 220.201431 35.437199 
L 220.33923 36.318367 
L 220.477029 37.204116 
L 220.614828 38.093308 
L 220.752626 38.977463 
L 220.890425 39.865775 
L 221.028224 40.755975 
L 221.166023 41.649733 
L 221.303822 42.55091 
L 221.441621 43.443439 
L 221.57942 44.333926 
L 221.717218 45.227219 
L 221.855017 46.11759 
L 221.992816 47.007581 
L 222.130615 47.893907 
L 222.268414 48.78274 
L 222.406212 49.663858 
L 222.544012 50.540015 
L 222.68181 51.4085 
L 222.819609 52.270047 
L 222.957407 53.137846 
L 223.095207 53.99335 
L 223.233006 54.843169 
L 223.370805 55.680261 
L 223.508603 56.514507 
L 223.646402 57.341698 
L 223.784201 58.157189 
L 223.921999 58.967326 
L 224.059798 59.763914 
L 224.197598 60.549147 
L 224.335397 61.330039 
L 224.473195 62.100445 
L 224.610994 62.85624 
L 224.748793 63.599328 
L 224.886591 64.33061 
L 225.02439 65.05339 
L 225.162189 65.767883 
L 225.299989 66.472227 
L 225.437787 67.162161 
L 225.575586 67.838186 
L 225.713385 68.506016 
L 225.851183 69.162253 
L 225.988982 69.810166 
L 226.126781 70.445442 
L 226.26458 71.073872 
L 226.402378 71.691083 
L 226.540178 72.301594 
L 226.677977 72.90177 
L 226.815775 73.49078 
L 226.953574 74.07258 
L 226.953574 99.6 
z
" style="fill:#ff7f0e;opacity:0.4;"/>
   </g>
   <g id="patch_7">
    <path clip-path="url(#p090601a6b2)" d="M 29.036364 99.6 
L 29.347981 99.59967 
L 29.659598 99.599612 
L 29.971215 99.599546 
L 30.282833 99.59947 
L 30.59445 99.599383 
L 30.906067 99.599284 
L 31.217684 99.599171 
L 31.529301 99.599044 
L 31.840919 99.5989 
L 32.152536 99.598738 
L 32.464153 99.598556 
L 32.77577 99.598354 
L 33.087388 99.598128 
L 33.399005 99.597877 
L 33.710622 99.5976 
L 34.022239 99.596964 
L 34.333856 99.596571 
L 34.645474 99.596138 
L 34.957091 99.595662 
L 35.268708 99.59514 
L 35.580325 99.59457 
L 35.891943 99.59395 
L 36.20356 99.592947 
L 36.515177 99.592162 
L 36.826794 99.591311 
L 37.138411 99.590393 
L 37.450029 99.589403 
L 37.761646 99.588341 
L 38.073263 99.587205 
L 38.38488 99.585992 
L 38.696498 99.584702 
L 39.008115 99.583334 
L 39.319732 99.581887 
L 39.631349 99.580362 
L 39.942966 99.57876 
L 40.254584 99.577082 
L 40.566201 99.575329 
L 40.877818 99.573505 
L 41.189435 99.571613 
L 41.501053 99.569326 
L 41.81267 99.567251 
L 42.124287 99.564454 
L 42.435904 99.562142 
L 42.747521 99.559761 
L 43.059139 99.557312 
L 43.370756 99.554801 
L 43.682373 99.551902 
L 43.99399 99.549222 
L 44.305608 99.546486 
L 44.617225 99.543036 
L 44.928842 99.540083 
L 45.240459 99.536738 
L 45.552076 99.533606 
L 45.863694 99.529748 
L 46.175311 99.52604 
L 46.798545 99.522522 
L 47.110163 99.518581 
L 47.421762 99.514486 
L 47.733379 99.510224 
L 48.044996 99.506111 
L 48.356613 99.501858 
L 48.66823 99.497126 
L 48.979829 99.492178 
L 49.291447 99.486665 
L 49.603064 99.48084 
L 49.914681 99.474673 
L 50.226298 99.46846 
L 50.537897 99.461897 
L 50.849514 99.454953 
L 51.161132 99.447271 
L 51.472749 99.437443 
L 51.784348 99.428112 
L 52.095965 99.418766 
L 52.407582 99.408803 
L 52.719199 99.398184 
L 53.030817 99.386867 
L 53.342415 99.374482 
L 53.654033 99.361593 
L 53.96565 99.348209 
L 54.277267 99.333359 
L 54.588884 99.31723 
L 54.900483 99.300052 
L 55.212101 99.281777 
L 55.523718 99.261697 
L 55.835335 99.241629 
L 56.146952 99.219431 
L 56.458551 99.194902 
L 56.770168 99.170461 
L 57.081786 99.144999 
L 57.393403 99.116562 
L 57.70502 99.087151 
L 58.016619 99.056163 
L 58.328236 99.024217 
L 58.639853 98.989407 
L 58.951471 98.954456 
L 59.263088 98.917291 
L 59.574696 98.879111 
L 59.886304 98.838036 
L 60.197921 98.79582 
L 60.509529 98.751234 
L 60.821146 98.705482 
L 61.132764 98.657672 
L 61.444372 98.608082 
L 61.755989 98.555722 
L 62.067597 98.502076 
L 62.379214 98.446253 
L 62.690831 98.388857 
L 63.00244 98.330273 
L 63.314057 98.269303 
L 63.625665 98.207181 
L 63.937282 98.141727 
L 64.248899 98.075001 
L 64.560507 98.004426 
L 64.872125 97.933302 
L 65.183733 97.860282 
L 65.49535 97.786029 
L 65.806958 97.710001 
L 66.118575 97.63189 
L 66.430192 97.551991 
L 66.7418 97.469661 
L 67.053418 97.385792 
L 67.365026 97.300774 
L 67.676643 97.213741 
L 67.98826 97.12235 
L 68.299868 97.029132 
L 68.611485 96.935085 
L 68.923093 96.839732 
L 69.234711 96.741139 
L 69.546328 96.6394 
L 69.857936 96.536661 
L 70.169553 96.429119 
L 70.481161 96.321548 
L 70.792779 96.212971 
L 71.104387 96.100916 
L 71.416004 95.987713 
L 71.727621 95.869897 
L 72.039229 95.748401 
L 72.350846 95.626262 
L 72.662454 95.498809 
L 72.974072 95.368486 
L 73.285689 95.237194 
L 73.597297 95.101902 
L 73.908914 94.960381 
L 74.220522 94.817955 
L 74.532139 94.670017 
L 74.843757 94.518759 
L 75.155365 94.362826 
L 75.466982 94.202297 
L 75.77859 94.038286 
L 76.090207 93.869819 
L 76.401815 93.696106 
L 76.713432 93.516858 
L 77.02505 93.334135 
L 77.336658 93.147037 
L 77.648275 92.952938 
L 77.959883 92.75251 
L 78.2715 92.546788 
L 78.583117 92.334384 
L 78.894726 92.114637 
L 79.206343 91.888839 
L 79.517951 91.657274 
L 79.829568 91.420806 
L 80.141185 91.1763 
L 80.452793 90.923778 
L 80.764411 90.664226 
L 81.076019 90.398786 
L 81.387636 90.123879 
L 81.699244 89.843733 
L 82.010861 89.556298 
L 82.322478 89.262434 
L 82.634086 88.957617 
L 82.945704 88.643536 
L 83.257312 88.325499 
L 83.568929 87.998439 
L 83.880546 87.662361 
L 84.192154 87.318957 
L 84.503771 86.96232 
L 84.81538 86.602753 
L 85.126997 86.231645 
L 85.438605 85.852741 
L 85.750222 85.46513 
L 86.061839 85.065733 
L 86.373447 84.657312 
L 86.685065 84.239482 
L 86.996673 83.809521 
L 87.30829 83.374572 
L 87.619907 82.931055 
L 87.931515 82.477751 
L 88.243132 82.012209 
L 88.55474 81.536583 
L 88.866358 81.048915 
L 89.177975 80.554024 
L 89.489583 80.04926 
L 89.8012 79.531973 
L 90.112808 79.005728 
L 90.424425 78.470673 
L 90.736034 77.922915 
L 91.047651 77.365741 
L 91.359268 76.802344 
L 91.670876 76.224048 
L 91.982493 75.637006 
L 92.294101 75.043623 
L 92.605719 74.439204 
L 92.917336 73.829055 
L 93.228944 73.204189 
L 93.540561 72.570314 
L 93.852169 71.926044 
L 94.163786 71.270149 
L 94.475404 70.6099 
L 94.787012 69.944152 
L 95.098629 69.269548 
L 95.410237 68.585516 
L 95.721854 67.900917 
L 96.033462 67.209006 
L 96.345079 66.50564 
L 96.656697 65.796381 
L 96.968305 65.079923 
L 97.279922 64.363366 
L 97.59153 63.640087 
L 97.903147 62.90865 
L 98.214764 62.173749 
L 98.526373 61.440849 
L 98.83799 60.699003 
L 99.149598 59.954439 
L 99.461215 59.21106 
L 99.772832 58.455796 
L 100.08444 57.695033 
L 100.396058 56.935992 
L 100.707666 56.176205 
L 101.019283 55.410892 
L 101.330891 54.645287 
L 101.642508 53.879519 
L 101.954125 53.11804 
L 102.265733 52.351377 
L 102.577351 51.584713 
L 102.888959 50.820953 
L 103.200576 50.05834 
L 103.512193 49.296382 
L 103.823801 48.536749 
L 104.135418 47.778857 
L 104.447026 47.020456 
L 104.758644 46.268909 
L 105.070261 45.522904 
L 105.381869 44.774765 
L 105.693486 44.035783 
L 106.005094 43.299974 
L 106.316712 42.569404 
L 106.62832 41.848638 
L 106.939937 41.131122 
L 107.251554 40.421316 
L 107.563162 39.722104 
L 107.874779 39.033507 
L 108.186387 38.347647 
L 108.498005 37.675685 
L 108.809622 37.011332 
L 109.12123 36.355695 
L 109.432847 35.715073 
L 109.744455 35.08285 
L 110.056072 34.462924 
L 110.36769 33.853357 
L 110.679298 33.257982 
L 110.990915 32.677615 
L 111.302523 32.105912 
L 111.61414 31.546748 
L 111.925748 31.000432 
L 112.237365 30.465065 
L 112.548983 29.946393 
L 112.860591 29.444733 
L 113.172208 28.953437 
L 113.483816 28.479176 
L 113.795433 28.016926 
L 114.10705 27.568642 
L 114.418659 27.133986 
L 114.730276 26.707598 
L 115.041884 26.294429 
L 115.353501 25.901559 
L 115.665118 25.521061 
L 115.976726 25.149262 
L 116.288344 24.789403 
L 116.599952 24.443334 
L 116.911569 24.112162 
L 117.223177 23.790296 
L 117.534794 23.484217 
L 117.846411 23.193754 
L 118.158019 22.910456 
L 118.469637 22.63677 
L 118.781245 22.373111 
L 119.092862 22.125708 
L 119.404479 21.890762 
L 119.716087 21.660819 
L 120.027704 21.451501 
L 120.339313 21.243357 
L 120.65093 21.052326 
L 120.962547 20.87506 
L 121.274155 20.709201 
L 121.585772 20.55349 
L 121.89738 20.406927 
L 122.208998 20.275108 
L 122.520606 20.151057 
L 122.832223 20.041753 
L 123.14384 19.944897 
L 123.455448 19.86324 
L 123.767065 19.797612 
L 124.078673 19.7447 
L 124.390291 19.705063 
L 124.701908 19.678825 
L 125.013516 19.671988 
L 125.325133 19.682141 
L 125.636741 19.708816 
L 125.948358 19.75222 
L 126.259976 19.80762 
L 126.571584 19.887881 
L 126.883201 19.986007 
L 127.194809 20.098515 
L 127.506426 20.230633 
L 127.818034 20.382706 
L 128.129652 20.558911 
L 128.441269 20.756164 
L 128.752877 20.965529 
L 129.064494 21.202155 
L 129.376102 21.455268 
L 129.687719 21.722371 
L 129.999337 22.008659 
L 130.310945 22.320262 
L 130.622562 22.646533 
L 130.93417 22.988826 
L 131.245787 23.357192 
L 131.557404 23.743717 
L 131.869012 24.144019 
L 132.18063 24.558838 
L 132.492238 24.987463 
L 132.803855 25.436332 
L 133.115463 25.895755 
L 133.42708 26.364894 
L 133.738697 26.85037 
L 134.050306 27.347451 
L 134.361923 27.853995 
L 134.673531 28.380987 
L 134.985148 28.914834 
L 135.296765 29.454444 
L 135.608373 30.001764 
L 135.919991 30.562841 
L 136.231603 31.124909 
L 136.543216 31.694037 
L 136.854828 32.265826 
L 137.166441 32.846787 
L 137.478054 33.430603 
L 137.789671 34.021135 
L 138.101284 34.615312 
L 138.412896 35.213272 
L 138.724509 35.814245 
L 139.036122 36.420567 
L 139.347734 37.033083 
L 139.659351 37.642964 
L 139.970964 38.257442 
L 140.282577 38.877903 
L 140.594189 39.497549 
L 140.905802 40.123226 
L 141.217419 40.751883 
L 141.529032 41.377918 
L 141.840645 42.014427 
L 142.152257 42.651348 
L 142.46387 43.292141 
L 142.775482 43.930178 
L 143.0871 44.575339 
L 143.398712 45.21898 
L 143.710325 45.870994 
L 144.021938 46.523604 
L 144.33355 47.178502 
L 144.645163 47.83597 
L 144.95678 48.497304 
L 145.268393 49.162189 
L 145.580005 49.825772 
L 145.891618 50.491155 
L 146.203231 51.161886 
L 146.514843 51.837434 
L 146.826461 52.511158 
L 147.138073 53.187232 
L 147.449686 53.863748 
L 147.761298 54.540905 
L 148.072911 55.219621 
L 148.384528 55.899022 
L 148.696141 56.581411 
L 149.007754 57.262719 
L 149.319366 57.944105 
L 149.630979 58.62996 
L 149.942592 59.31612 
L 150.254209 59.997147 
L 150.565821 60.677412 
L 150.877434 61.362725 
L 151.189047 62.04892 
L 151.500659 62.729537 
L 151.812272 63.407169 
L 152.123889 64.085029 
L 152.435502 64.760439 
L 152.747115 65.42922 
L 153.058727 66.097404 
L 153.37034 66.767055 
L 153.681957 67.435026 
L 153.99357 68.092425 
L 154.305182 68.748688 
L 154.616795 69.401096 
L 154.928408 70.042204 
L 155.24002 70.686764 
L 155.551637 71.318568 
L 155.86325 71.945849 
L 156.174863 72.567898 
L 156.486475 73.182829 
L 156.798088 73.793908 
L 157.109701 74.390123 
L 157.421318 74.98416 
L 157.732931 75.568505 
L 158.044543 76.146236 
L 158.356156 76.71404 
L 158.667768 77.270784 
L 158.979386 77.818495 
L 159.290998 78.35819 
L 159.602611 78.891771 
L 159.914224 79.408981 
L 160.225836 79.916361 
L 160.537449 80.415985 
L 160.849066 80.906088 
L 161.160679 81.389163 
L 161.472291 81.858659 
L 161.783904 82.318304 
L 162.095517 82.770354 
L 162.407129 83.213373 
L 162.718747 83.643504 
L 163.030359 84.06494 
L 163.341972 84.478089 
L 163.653585 84.888766 
L 163.965197 85.284941 
L 164.276814 85.670745 
L 164.588427 86.052523 
L 164.90004 86.426483 
L 165.211652 86.788322 
L 165.523265 87.139889 
L 165.834878 87.488985 
L 166.146495 87.82743 
L 166.458107 88.158674 
L 166.76972 88.486324 
L 167.081333 88.803223 
L 167.392945 89.117327 
L 167.704558 89.422355 
L 168.016175 89.723279 
L 168.327788 90.014972 
L 168.639401 90.304158 
L 168.951013 90.585107 
L 169.262626 90.859325 
L 169.574243 91.124122 
L 169.885856 91.387358 
L 170.197468 91.641681 
L 170.509081 91.890107 
L 170.820694 92.130715 
L 171.132306 92.370287 
L 171.443924 92.60257 
L 171.755536 92.827167 
L 172.067149 93.048037 
L 172.378761 93.265278 
L 172.690374 93.474125 
L 173.001987 93.677276 
L 173.313604 93.874792 
L 173.625217 94.067015 
L 173.936829 94.253919 
L 174.248442 94.435816 
L 174.560057 94.612757 
L 174.871669 94.783638 
L 175.183282 94.949785 
L 175.494897 95.109259 
L 175.80651 95.264643 
L 176.118122 95.414787 
L 176.429737 95.56378 
L 176.74135 95.70385 
L 177.052963 95.839404 
L 177.364578 95.969771 
L 177.67619 96.099407 
L 177.987805 96.224545 
L 178.299418 96.346212 
L 178.61103 96.46278 
L 178.922645 96.575363 
L 179.234258 96.682731 
L 179.545871 96.788952 
L 179.857486 96.890165 
L 180.169098 96.988719 
L 180.480711 97.08494 
L 180.792326 97.177156 
L 181.103938 97.268449 
L 181.415551 97.354994 
L 181.727166 97.440848 
L 182.038779 97.525257 
L 182.350391 97.605294 
L 182.662006 97.681891 
L 182.973619 97.758981 
L 183.285234 97.831729 
L 183.596846 97.902998 
L 183.908459 97.972741 
L 184.220074 98.040123 
L 184.531687 98.105242 
L 184.843299 98.168179 
L 185.154914 98.228118 
L 185.466527 98.28777 
L 185.77814 98.343599 
L 186.089754 98.397892 
L 186.401367 98.450907 
L 186.71298 98.502303 
L 187.024595 98.552629 
L 187.336207 98.601234 
L 187.64782 98.649526 
L 187.959435 98.695056 
L 188.271048 98.737995 
L 188.582662 98.779051 
L 188.894275 98.819392 
L 189.205888 98.858049 
L 189.517503 98.894203 
L 189.829115 98.929128 
L 190.140728 98.96279 
L 190.452343 98.995444 
L 190.763956 99.025632 
L 191.075568 99.053806 
L 191.387183 99.080637 
L 191.698796 99.106424 
L 192.010408 99.130866 
L 192.322023 99.153155 
L 192.633636 99.174576 
L 192.945249 99.195949 
L 193.256864 99.214611 
L 193.568476 99.233361 
L 193.88009 99.250094 
L 194.191704 99.266118 
L 194.503316 99.280871 
L 194.81493 99.295566 
L 195.126544 99.308437 
L 195.438158 99.320518 
L 195.74977 99.332133 
L 196.061384 99.342726 
L 196.372998 99.352952 
L 196.684611 99.362254 
L 196.996224 99.371848 
L 197.307838 99.380529 
L 197.619451 99.388681 
L 197.931065 99.396919 
L 198.242678 99.403523 
L 198.554292 99.409847 
L 198.865905 99.415922 
L 199.177519 99.421776 
L 199.489132 99.427437 
L 199.800745 99.432651 
L 200.112359 99.437765 
L 200.423973 99.443355 
L 200.735585 99.448508 
L 201.047199 99.453853 
L 201.358813 99.4588 
L 201.670427 99.463412 
L 201.982039 99.468581 
L 202.293653 99.473383 
L 202.60527 99.477871 
L 202.916888 99.482652 
L 203.228505 99.487678 
L 203.540122 99.492066 
L 203.851739 99.496465 
L 204.163356 99.500865 
L 204.474974 99.505536 
L 204.786591 99.509864 
L 205.098208 99.514446 
L 205.409825 99.518668 
L 205.721443 99.523126 
L 206.03306 99.527205 
L 206.344677 99.531222 
L 206.656294 99.535725 
L 206.967911 99.539496 
L 207.279529 99.543183 
L 207.591146 99.546775 
L 207.902763 99.550261 
L 208.21438 99.553633 
L 208.525998 99.556884 
L 208.837615 99.560287 
L 209.149232 99.563234 
L 209.460849 99.566049 
L 209.772467 99.56873 
L 210.084084 99.571274 
L 210.395701 99.573679 
L 210.707318 99.575946 
L 211.018935 99.578075 
L 211.330553 99.580068 
L 211.64217 99.582209 
L 211.953787 99.583895 
L 212.265404 99.585461 
L 212.577022 99.586911 
L 212.888639 99.588248 
L 213.200256 99.589477 
L 213.511873 99.590604 
L 213.82349 99.591913 
L 214.135108 99.592807 
L 214.446725 99.593619 
L 214.758342 99.594356 
L 215.069959 99.595022 
L 215.381577 99.595622 
L 215.693194 99.59616 
L 216.004811 99.596642 
L 216.316428 99.597071 
L 216.628045 99.597453 
L 216.939663 99.597791 
L 217.25128 99.59837 
L 217.562897 99.59859 
L 217.874514 99.598784 
L 218.186132 99.598954 
L 218.497749 99.599383 
L 218.809366 99.59947 
L 219.120983 99.599546 
L 219.4326 99.599612 
L 219.744218 99.59967 
z
" style="fill:#2ca02c;opacity:0.4;"/>
   </g>
   <g id="patch_8">
    <path clip-path="url(#p090601a6b2)" d="M 91.359268 99.6 
L 91.359268 76.802344 
L 91.670876 76.224048 
L 91.982493 75.637006 
L 92.294101 75.043623 
L 92.605719 74.439204 
L 92.917336 73.829055 
L 93.228944 73.204189 
L 93.540561 72.570314 
L 93.852169 71.926044 
L 94.163786 71.270149 
L 94.475404 70.6099 
L 94.787012 69.944152 
L 95.098629 69.269548 
L 95.410237 68.585516 
L 95.721854 67.900917 
L 96.033462 67.209006 
L 96.345079 66.50564 
L 96.656697 65.796381 
L 96.968305 65.079923 
L 97.279922 64.363366 
L 97.59153 63.640087 
L 97.903147 62.90865 
L 98.214764 62.173749 
L 98.526373 61.440849 
L 98.83799 60.699003 
L 99.149598 59.954439 
L 99.461215 59.21106 
L 99.772832 58.455796 
L 100.08444 57.695033 
L 100.396058 56.935992 
L 100.707666 56.176205 
L 101.019283 55.410892 
L 101.330891 54.645287 
L 101.642508 53.879519 
L 101.954125 53.11804 
L 102.265733 52.351377 
L 102.577351 51.584713 
L 102.888959 50.820953 
L 103.200576 50.05834 
L 103.512193 49.296382 
L 103.823801 48.536749 
L 104.135418 47.778857 
L 104.447026 47.020456 
L 104.758644 46.268909 
L 105.070261 45.522904 
L 105.381869 44.774765 
L 105.693486 44.035783 
L 106.005094 43.299974 
L 106.316712 42.569404 
L 106.62832 41.848638 
L 106.939937 41.131122 
L 107.251554 40.421316 
L 107.563162 39.722104 
L 107.874779 39.033507 
L 108.186387 38.347647 
L 108.498005 37.675685 
L 108.809622 37.011332 
L 109.12123 36.355695 
L 109.432847 35.715073 
L 109.744455 35.08285 
L 110.056072 34.462924 
L 110.36769 33.853357 
L 110.679298 33.257982 
L 110.990915 32.677615 
L 111.302523 32.105912 
L 111.61414 31.546748 
L 111.925748 31.000432 
L 112.237365 30.465065 
L 112.548983 29.946393 
L 112.860591 29.444733 
L 113.172208 28.953437 
L 113.483816 28.479176 
L 113.795433 28.016926 
L 114.10705 27.568642 
L 114.418659 27.133986 
L 114.730276 26.707598 
L 115.041884 26.294429 
L 115.353501 25.901559 
L 115.665118 25.521061 
L 115.976726 25.149262 
L 116.288344 24.789403 
L 116.599952 24.443334 
L 116.911569 24.112162 
L 117.223177 23.790296 
L 117.534794 23.484217 
L 117.846411 23.193754 
L 118.158019 22.910456 
L 118.469637 22.63677 
L 118.781245 22.373111 
L 119.092862 22.125708 
L 119.404479 21.890762 
L 119.716087 21.660819 
L 120.027704 21.451501 
L 120.339313 21.243357 
L 120.65093 21.052326 
L 120.962547 20.87506 
L 121.274155 20.709201 
L 121.585772 20.55349 
L 121.89738 20.406927 
L 122.208998 20.275108 
L 122.520606 20.151057 
L 122.832223 20.041753 
L 123.14384 19.944897 
L 123.455448 19.86324 
L 123.767065 19.797612 
L 124.078673 19.7447 
L 124.390291 19.705063 
L 124.701908 19.678825 
L 125.013516 19.671988 
L 125.325133 19.682141 
L 125.636741 19.708816 
L 125.948358 19.75222 
L 126.259976 19.80762 
L 126.571584 19.887881 
L 126.883201 19.986007 
L 127.194809 20.098515 
L 127.506426 20.230633 
L 127.818034 20.382706 
L 128.129652 20.558911 
L 128.441269 20.756164 
L 128.752877 20.965529 
L 129.064494 21.202155 
L 129.376102 21.455268 
L 129.687719 21.722371 
L 129.999337 22.008659 
L 130.310945 22.320262 
L 130.622562 22.646533 
L 130.93417 22.988826 
L 131.245787 23.357192 
L 131.557404 23.743717 
L 131.869012 24.144019 
L 132.18063 24.558838 
L 132.492238 24.987463 
L 132.803855 25.436332 
L 133.115463 25.895755 
L 133.42708 26.364894 
L 133.738697 26.85037 
L 134.050306 27.347451 
L 134.361923 27.853995 
L 134.673531 28.380987 
L 134.985148 28.914834 
L 135.296765 29.454444 
L 135.608373 30.001764 
L 135.919991 30.562841 
L 136.231603 31.124909 
L 136.543216 31.694037 
L 136.854828 32.265826 
L 137.166441 32.846787 
L 137.478054 33.430603 
L 137.789671 34.021135 
L 138.101284 34.615312 
L 138.412896 35.213272 
L 138.724509 35.814245 
L 139.036122 36.420567 
L 139.347734 37.033083 
L 139.659351 37.642964 
L 139.970964 38.257442 
L 140.282577 38.877903 
L 140.594189 39.497549 
L 140.905802 40.123226 
L 141.217419 40.751883 
L 141.529032 41.377918 
L 141.840645 42.014427 
L 142.152257 42.651348 
L 142.46387 43.292141 
L 142.775482 43.930178 
L 143.0871 44.575339 
L 143.398712 45.21898 
L 143.710325 45.870994 
L 144.021938 46.523604 
L 144.33355 47.178502 
L 144.645163 47.83597 
L 144.95678 48.497304 
L 145.268393 49.162189 
L 145.580005 49.825772 
L 145.891618 50.491155 
L 146.203231 51.161886 
L 146.514843 51.837434 
L 146.826461 52.511158 
L 147.138073 53.187232 
L 147.449686 53.863748 
L 147.761298 54.540905 
L 148.072911 55.219621 
L 148.384528 55.899022 
L 148.696141 56.581411 
L 149.007754 57.262719 
L 149.319366 57.944105 
L 149.630979 58.62996 
L 149.942592 59.31612 
L 150.254209 59.997147 
L 150.565821 60.677412 
L 150.877434 61.362725 
L 151.189047 62.04892 
L 151.500659 62.729537 
L 151.812272 63.407169 
L 152.123889 64.085029 
L 152.435502 64.760439 
L 152.747115 65.42922 
L 153.058727 66.097404 
L 153.37034 66.767055 
L 153.681957 67.435026 
L 153.99357 68.092425 
L 154.305182 68.748688 
L 154.616795 69.401096 
L 154.928408 70.042204 
L 155.24002 70.686764 
L 155.551637 71.318568 
L 155.86325 71.945849 
L 156.174863 72.567898 
L 156.486475 73.182829 
L 156.798088 73.793908 
L 157.109701 74.390123 
L 157.421318 74.98416 
L 157.421318 99.6 
z
" style="fill:#2ca02c;opacity:0.4;"/>
   </g>
   <g id="matplotlib.axis_1">
    <g id="xtick_1">
     <g id="line2d_1">
      <defs>
       <path d="M 0 0 
L 0 3.5 
" id="mbb2f1fae29" style="stroke:#000000;stroke-width:0.8;"/>
      </defs>
      <g>
       <use style="stroke:#000000;stroke-width:0.8;" x="59.296116" xlink:href="#mbb2f1fae29" y="104"/>
      </g>
     </g>
     <g id="text_1">
      <!-- 4 -->
      <defs>
       <path d="M 10.59375 35.5 
L 73.1875 35.5 
L 73.1875 27.203125 
L 10.59375 27.203125 
z
" id="DejaVuSans-8722"/>
       <path d="M 37.796875 64.3125 
L 12.890625 25.390625 
L 37.796875 25.390625 
z
M 35.203125 72.90625 
L 47.609375 72.90625 
L 47.609375 25.390625 
L 58.015625 25.390625 
L 58.015625 17.1875 
L 47.609375 17.1875 
L 47.609375 0 
L 37.796875 0 
L 37.796875 17.1875 
L 4.890625 17.1875 
L 4.890625 26.703125 
z
" id="DejaVuSans-52"/>
      </defs>
      <g transform="translate(51.925022 118.598437)scale(0.1 -0.1)">
       <use xlink:href="#DejaVuSans-8722"/>
       <use x="83.789062" xlink:href="#DejaVuSans-52"/>
      </g>
     </g>
    </g>
    <g id="xtick_2">
     <g id="line2d_2">
      <g>
       <use style="stroke:#000000;stroke-width:0.8;" x="136.129775" xlink:href="#mbb2f1fae29" y="104"/>
      </g>
     </g>
     <g id="text_2">
      <!-- 2 -->
      <defs>
       <path d="M 19.1875 8.296875 
L 53.609375 8.296875 
L 53.609375 0 
L 7.328125 0 
L 7.328125 8.296875 
Q 12.9375 14.109375 22.625 23.890625 
Q 32.328125 33.6875 34.8125 36.53125 
Q 39.546875 41.84375 41.421875 45.53125 
Q 43.3125 49.21875 43.3125 52.78125 
Q 43.3125 58.59375 39.234375 62.25 
Q 35.15625 65.921875 28.609375 65.921875 
Q 23.96875 65.921875 18.8125 64.3125 
Q 13.671875 62.703125 7.8125 59.421875 
L 7.8125 69.390625 
Q 13.765625 71.78125 18.9375 73 
Q 24.125 74.21875 28.421875 74.21875 
Q 39.75 74.21875 46.484375 68.546875 
Q 53.21875 62.890625 53.21875 53.421875 
Q 53.21875 48.921875 51.53125 44.890625 
Q 49.859375 40.875 45.40625 35.40625 
Q 44.1875 33.984375 37.640625 27.21875 
Q 31.109375 20.453125 19.1875 8.296875 
z
" id="DejaVuSans-50"/>
      </defs>
      <g transform="translate(128.758681 118.598437)scale(0.1 -0.1)">
       <use xlink:href="#DejaVuSans-8722"/>
       <use x="83.789062" xlink:href="#DejaVuSans-50"/>
      </g>
     </g>
    </g>
    <g id="xtick_3">
     <g id="line2d_3">
      <g>
       <use style="stroke:#000000;stroke-width:0.8;" x="212.963433" xlink:href="#mbb2f1fae29" y="104"/>
      </g>
     </g>
     <g id="text_3">
      <!-- 0 -->
      <defs>
       <path d="M 31.78125 66.40625 
Q 24.171875 66.40625 20.328125 58.90625 
Q 16.5 51.421875 16.5 36.375 
Q 16.5 21.390625 20.328125 13.890625 
Q 24.171875 6.390625 31.78125 6.390625 
Q 39.453125 6.390625 43.28125 13.890625 
Q 47.125 21.390625 47.125 36.375 
Q 47.125 51.421875 43.28125 58.90625 
Q 39.453125 66.40625 31.78125 66.40625 
z
M 31.78125 74.21875 
Q 44.046875 74.21875 50.515625 64.515625 
Q 56.984375 54.828125 56.984375 36.375 
Q 56.984375 17.96875 50.515625 8.265625 
Q 44.046875 -1.421875 31.78125 -1.421875 
Q 19.53125 -1.421875 13.0625 8.265625 
Q 6.59375 17.96875 6.59375 36.375 
Q 6.59375 54.828125 13.0625 64.515625 
Q 19.53125 74.21875 31.78125 74.21875 
z
" id="DejaVuSans-48"/>
      </defs>
      <g transform="translate(209.782183 118.598437)scale(0.1 -0.1)">
       <use xlink:href="#DejaVuSans-48"/>
      </g>
     </g>
    </g>
    <g id="xtick_4">
     <g id="line2d_4">
      <g>
       <use style="stroke:#000000;stroke-width:0.8;" x="289.797092" xlink:href="#mbb2f1fae29" y="104"/>
      </g>
     </g>
     <g id="text_4">
      <!-- 2 -->
      <g transform="translate(286.615842 118.598437)scale(0.1 -0.1)">
       <use xlink:href="#DejaVuSans-50"/>
      </g>
     </g>
    </g>
    <g id="xtick_5">
     <g id="line2d_5">
      <g>
       <use style="stroke:#000000;stroke-width:0.8;" x="366.630751" xlink:href="#mbb2f1fae29" y="104"/>
      </g>
     </g>
     <g id="text_5">
      <!-- 4 -->
      <g transform="translate(363.449501 118.598437)scale(0.1 -0.1)">
       <use xlink:href="#DejaVuSans-52"/>
      </g>
     </g>
    </g>
    <g id="text_6">
     <!-- Weights -->
     <defs>
      <path d="M 3.328125 72.90625 
L 13.28125 72.90625 
L 28.609375 11.28125 
L 43.890625 72.90625 
L 54.984375 72.90625 
L 70.3125 11.28125 
L 85.59375 72.90625 
L 95.609375 72.90625 
L 77.296875 0 
L 64.890625 0 
L 49.515625 63.28125 
L 33.984375 0 
L 21.578125 0 
z
" id="DejaVuSans-87"/>
      <path d="M 56.203125 29.59375 
L 56.203125 25.203125 
L 14.890625 25.203125 
Q 15.484375 15.921875 20.484375 11.0625 
Q 25.484375 6.203125 34.421875 6.203125 
Q 39.59375 6.203125 44.453125 7.46875 
Q 49.3125 8.734375 54.109375 11.28125 
L 54.109375 2.78125 
Q 49.265625 0.734375 44.1875 -0.34375 
Q 39.109375 -1.421875 33.890625 -1.421875 
Q 20.796875 -1.421875 13.15625 6.1875 
Q 5.515625 13.8125 5.515625 26.8125 
Q 5.515625 40.234375 12.765625 48.109375 
Q 20.015625 56 32.328125 56 
Q 43.359375 56 49.78125 48.890625 
Q 56.203125 41.796875 56.203125 29.59375 
z
M 47.21875 32.234375 
Q 47.125 39.59375 43.09375 43.984375 
Q 39.0625 48.390625 32.421875 48.390625 
Q 24.90625 48.390625 20.390625 44.140625 
Q 15.875 39.890625 15.1875 32.171875 
z
" id="DejaVuSans-101"/>
      <path d="M 9.421875 54.6875 
L 18.40625 54.6875 
L 18.40625 0 
L 9.421875 0 
z
M 9.421875 75.984375 
L 18.40625 75.984375 
L 18.40625 64.59375 
L 9.421875 64.59375 
z
" id="DejaVuSans-105"/>
      <path d="M 45.40625 27.984375 
Q 45.40625 37.75 41.375 43.109375 
Q 37.359375 48.484375 30.078125 48.484375 
Q 22.859375 48.484375 18.828125 43.109375 
Q 14.796875 37.75 14.796875 27.984375 
Q 14.796875 18.265625 18.828125 12.890625 
Q 22.859375 7.515625 30.078125 7.515625 
Q 37.359375 7.515625 41.375 12.890625 
Q 45.40625 18.265625 45.40625 27.984375 
z
M 54.390625 6.78125 
Q 54.390625 -7.171875 48.1875 -13.984375 
Q 42 -20.796875 29.203125 -20.796875 
Q 24.46875 -20.796875 20.265625 -20.09375 
Q 16.0625 -19.390625 12.109375 -17.921875 
L 12.109375 -9.1875 
Q 16.0625 -11.328125 19.921875 -12.34375 
Q 23.78125 -13.375 27.78125 -13.375 
Q 36.625 -13.375 41.015625 -8.765625 
Q 45.40625 -4.15625 45.40625 5.171875 
L 45.40625 9.625 
Q 42.625 4.78125 38.28125 2.390625 
Q 33.9375 0 27.875 0 
Q 17.828125 0 11.671875 7.65625 
Q 5.515625 15.328125 5.515625 27.984375 
Q 5.515625 40.671875 11.671875 48.328125 
Q 17.828125 56 27.875 56 
Q 33.9375 56 38.28125 53.609375 
Q 42.625 51.21875 45.40625 46.390625 
L 45.40625 54.6875 
L 54.390625 54.6875 
z
" id="DejaVuSans-103"/>
      <path d="M 54.890625 33.015625 
L 54.890625 0 
L 45.90625 0 
L 45.90625 32.71875 
Q 45.90625 40.484375 42.875 44.328125 
Q 39.84375 48.1875 33.796875 48.1875 
Q 26.515625 48.1875 22.3125 43.546875 
Q 18.109375 38.921875 18.109375 30.90625 
L 18.109375 0 
L 9.078125 0 
L 9.078125 75.984375 
L 18.109375 75.984375 
L 18.109375 46.1875 
Q 21.34375 51.125 25.703125 53.5625 
Q 30.078125 56 35.796875 56 
Q 45.21875 56 50.046875 50.171875 
Q 54.890625 44.34375 54.890625 33.015625 
z
" id="DejaVuSans-104"/>
      <path d="M 18.3125 70.21875 
L 18.3125 54.6875 
L 36.8125 54.6875 
L 36.8125 47.703125 
L 18.3125 47.703125 
L 18.3125 18.015625 
Q 18.3125 11.328125 20.140625 9.421875 
Q 21.96875 7.515625 27.59375 7.515625 
L 36.8125 7.515625 
L 36.8125 0 
L 27.59375 0 
Q 17.1875 0 13.234375 3.875 
Q 9.28125 7.765625 9.28125 18.015625 
L 9.28125 47.703125 
L 2.6875 47.703125 
L 2.6875 54.6875 
L 9.28125 54.6875 
L 9.28125 70.21875 
z
" id="DejaVuSans-116"/>
      <path d="M 44.28125 53.078125 
L 44.28125 44.578125 
Q 40.484375 46.53125 36.375 47.5 
Q 32.28125 48.484375 27.875 48.484375 
Q 21.1875 48.484375 17.84375 46.4375 
Q 14.5 44.390625 14.5 40.28125 
Q 14.5 37.15625 16.890625 35.375 
Q 19.28125 33.59375 26.515625 31.984375 
L 29.59375 31.296875 
Q 39.15625 29.25 43.1875 25.515625 
Q 47.21875 21.78125 47.21875 15.09375 
Q 47.21875 7.46875 41.1875 3.015625 
Q 35.15625 -1.421875 24.609375 -1.421875 
Q 20.21875 -1.421875 15.453125 -0.5625 
Q 10.6875 0.296875 5.421875 2 
L 5.421875 11.28125 
Q 10.40625 8.6875 15.234375 7.390625 
Q 20.0625 6.109375 24.8125 6.109375 
Q 31.15625 6.109375 34.5625 8.28125 
Q 37.984375 10.453125 37.984375 14.40625 
Q 37.984375 18.0625 35.515625 20.015625 
Q 33.0625 21.96875 24.703125 23.78125 
L 21.578125 24.515625 
Q 13.234375 26.265625 9.515625 29.90625 
Q 5.8125 33.546875 5.8125 39.890625 
Q 5.8125 47.609375 11.28125 51.796875 
Q 16.75 56 26.8125 56 
Q 31.78125 56 36.171875 55.265625 
Q 40.578125 54.546875 44.28125 53.078125 
z
" id="DejaVuSans-115"/>
     </defs>
     <g transform="translate(192.086719 132.276562)scale(0.1 -0.1)">
      <use xlink:href="#DejaVuSans-87"/>
      <use x="98.798828" xlink:href="#DejaVuSans-101"/>
      <use x="160.322266" xlink:href="#DejaVuSans-105"/>
      <use x="188.105469" xlink:href="#DejaVuSans-103"/>
      <use x="251.582031" xlink:href="#DejaVuSans-104"/>
      <use x="314.960938" xlink:href="#DejaVuSans-116"/>
      <use x="354.169922" xlink:href="#DejaVuSans-115"/>
     </g>
    </g>
   </g>
   <g id="patch_9">
    <path d="M 10.7 104 
L 414.1 104 
" style="fill:none;stroke:#000000;stroke-linecap:square;stroke-linejoin:miter;stroke-width:0.8;"/>
   </g>
   <g id="legend_1">
    <g id="patch_10">
     <path d="M 348.215625 59.234375 
L 407.1 59.234375 
Q 409.1 59.234375 409.1 57.234375 
L 409.1 14.2 
Q 409.1 12.2 407.1 12.2 
L 348.215625 12.2 
Q 346.215625 12.2 346.215625 14.2 
L 346.215625 57.234375 
Q 346.215625 59.234375 348.215625 59.234375 
z
" style="fill:#ffffff;opacity:0.8;stroke:#cccccc;stroke-linejoin:miter;"/>
    </g>
    <g id="patch_11">
     <path d="M 350.215625 23.798437 
L 370.215625 23.798437 
L 370.215625 16.798437 
L 350.215625 16.798437 
z
" style="fill:#1f77b4;opacity:0.4;"/>
    </g>
    <g id="text_7">
     <!-- [0, 0] -->
     <defs>
      <path d="M 8.59375 75.984375 
L 29.296875 75.984375 
L 29.296875 69 
L 17.578125 69 
L 17.578125 -6.203125 
L 29.296875 -6.203125 
L 29.296875 -13.1875 
L 8.59375 -13.1875 
z
" id="DejaVuSans-91"/>
      <path d="M 11.71875 12.40625 
L 22.015625 12.40625 
L 22.015625 4 
L 14.015625 -11.625 
L 7.71875 -11.625 
L 11.71875 4 
z
" id="DejaVuSans-44"/>
      <path id="DejaVuSans-32"/>
      <path d="M 30.421875 75.984375 
L 30.421875 -13.1875 
L 9.71875 -13.1875 
L 9.71875 -6.203125 
L 21.390625 -6.203125 
L 21.390625 69 
L 9.71875 69 
L 9.71875 75.984375 
z
" id="DejaVuSans-93"/>
     </defs>
     <g transform="translate(378.215625 23.798437)scale(0.1 -0.1)">
      <use xlink:href="#DejaVuSans-91"/>
      <use x="39.013672" xlink:href="#DejaVuSans-48"/>
      <use x="102.636719" xlink:href="#DejaVuSans-44"/>
      <use x="134.423828" xlink:href="#DejaVuSans-32"/>
      <use x="166.210938" xlink:href="#DejaVuSans-48"/>
      <use x="229.833984" xlink:href="#DejaVuSans-93"/>
     </g>
    </g>
    <g id="patch_12">
     <path d="M 350.215625 38.476562 
L 370.215625 38.476562 
L 370.215625 31.476562 
L 350.215625 31.476562 
z
" style="fill:#ff7f0e;opacity:0.4;"/>
    </g>
    <g id="text_8">
     <!-- [1, 0] -->
     <defs>
      <path d="M 12.40625 8.296875 
L 28.515625 8.296875 
L 28.515625 63.921875 
L 10.984375 60.40625 
L 10.984375 69.390625 
L 28.421875 72.90625 
L 38.28125 72.90625 
L 38.28125 8.296875 
L 54.390625 8.296875 
L 54.390625 0 
L 12.40625 0 
z
" id="DejaVuSans-49"/>
     </defs>
     <g transform="translate(378.215625 38.476562)scale(0.1 -0.1)">
      <use xlink:href="#DejaVuSans-91"/>
      <use x="39.013672" xlink:href="#DejaVuSans-49"/>
      <use x="102.636719" xlink:href="#DejaVuSans-44"/>
      <use x="134.423828" xlink:href="#DejaVuSans-32"/>
      <use x="166.210938" xlink:href="#DejaVuSans-48"/>
      <use x="229.833984" xlink:href="#DejaVuSans-93"/>
     </g>
    </g>
    <g id="patch_13">
     <path d="M 350.215625 53.154687 
L 370.215625 53.154687 
L 370.215625 46.154687 
L 350.215625 46.154687 
z
" style="fill:#2ca02c;opacity:0.4;"/>
    </g>
    <g id="text_9">
     <!-- [2, 0] -->
     <g transform="translate(378.215625 53.154687)scale(0.1 -0.1)">
      <use xlink:href="#DejaVuSans-91"/>
      <use x="39.013672" xlink:href="#DejaVuSans-50"/>
      <use x="102.636719" xlink:href="#DejaVuSans-44"/>
      <use x="134.423828" xlink:href="#DejaVuSans-32"/>
      <use x="166.210938" xlink:href="#DejaVuSans-48"/>
      <use x="229.833984" xlink:href="#DejaVuSans-93"/>
     </g>
    </g>
   </g>
  </g>
  <g id="axes_2">
   <g id="patch_14">
    <path d="M 10.7 242.6 
L 414.1 242.6 
L 414.1 145.8 
L 10.7 145.8 
z
" style="fill:#ffffff;"/>
   </g>
   <g id="patch_15">
    <path clip-path="url(#p612dd639ba)" d="M 29.036364 238.2 
L 29.635586 238.199614 
L 30.234809 238.199547 
L 30.834032 238.19947 
L 31.433254 238.199381 
L 32.032477 238.19928 
L 32.6317 238.199164 
L 33.230922 238.199032 
L 33.830145 238.198883 
L 34.429368 238.198715 
L 35.02859 238.198526 
L 35.627813 238.198314 
L 36.227036 238.198077 
L 36.826259 238.197813 
L 37.425481 238.19752 
L 38.024704 238.197197 
L 38.623927 238.19684 
L 39.223149 238.196448 
L 39.822372 238.196019 
L 40.421595 238.195552 
L 41.020817 238.195044 
L 41.62004 238.194109 
L 42.219263 238.193449 
L 42.818485 238.192735 
L 43.417708 238.191964 
L 44.016931 238.191136 
L 44.616153 238.189862 
L 45.215376 238.188847 
L 45.814599 238.187374 
L 46.413821 238.186147 
L 47.013044 238.184835 
L 47.612267 238.183437 
L 48.211489 238.18195 
L 48.810712 238.180372 
L 49.409935 238.178703 
L 50.009158 238.176171 
L 50.60838 238.173796 
L 51.207603 238.170855 
L 51.806826 238.168424 
L 52.406048 238.165844 
L 53.005271 238.163108 
L 53.604494 238.160211 
L 54.203716 238.157147 
L 54.802939 238.153525 
L 55.402162 238.150043 
L 56.001384 238.146367 
L 56.600607 238.142105 
L 57.19983 238.137569 
L 57.799052 238.132742 
L 58.398275 238.127993 
L 58.997498 238.1226 
L 59.59672 238.117258 
L 60.195943 238.11163 
L 60.795166 238.105323 
L 61.394388 238.099032 
L 61.993611 238.09165 
L 63.192057 238.083807 
L 63.791296 238.075863 
L 64.390518 238.067858 
L 64.989741 238.058684 
L 65.58898 238.048972 
L 66.188203 238.038696 
L 66.787442 238.028602 
L 67.386665 238.017254 
L 67.985887 238.005669 
L 68.585126 237.993505 
L 69.184349 237.980747 
L 69.783572 237.967767 
L 70.382811 237.953464 
L 70.982034 237.939246 
L 71.581256 237.924459 
L 72.180495 237.907949 
L 72.779718 237.891448 
L 73.378957 237.874684 
L 73.97818 237.855794 
L 74.577411 237.836063 
L 75.176633 237.817005 
L 75.775864 237.796548 
L 76.375095 237.776109 
L 76.974318 237.755044 
L 77.573549 237.733365 
L 78.17278 237.710703 
L 78.772011 237.68701 
L 79.371233 237.663 
L 79.970464 237.637588 
L 80.569695 237.611426 
L 81.168926 237.584123 
L 81.768149 237.557152 
L 82.36738 237.529542 
L 82.96661 237.499766 
L 83.565833 237.469884 
L 84.165064 237.439239 
L 84.764295 237.407054 
L 85.363526 237.374731 
L 85.962749 237.341993 
L 86.561979 237.307356 
L 87.16121 237.272933 
L 87.760441 237.237351 
L 88.359664 237.201698 
L 88.958895 237.164167 
L 89.558126 237.125719 
L 90.157348 237.086717 
L 90.756579 237.046431 
L 91.35581 237.005549 
L 91.955041 236.963722 
L 92.554264 236.92016 
L 93.153495 236.875478 
L 93.752726 236.827704 
L 94.351956 236.780699 
L 94.951179 236.732451 
L 95.55041 236.682528 
L 96.149641 236.630812 
L 96.748864 236.577173 
L 97.348095 236.521411 
L 97.947325 236.464911 
L 98.546556 236.405514 
L 99.145779 236.343708 
L 99.74501 236.281628 
L 100.344241 236.215627 
L 100.943472 236.147985 
L 101.542694 236.07755 
L 102.141925 236.005297 
L 102.741156 235.928921 
L 103.340387 235.850746 
L 103.93961 235.770058 
L 104.538841 235.686038 
L 105.138072 235.598514 
L 105.737294 235.507313 
L 106.336525 235.410712 
L 106.935756 235.31327 
L 107.534987 235.212274 
L 108.13421 235.108414 
L 108.733441 235.000595 
L 109.332671 234.887494 
L 109.931902 234.771504 
L 110.531125 234.649737 
L 111.130356 234.523765 
L 111.729587 234.394688 
L 112.32881 234.261836 
L 112.92804 234.121804 
L 113.527271 233.979476 
L 114.126502 233.831744 
L 114.725725 233.678493 
L 115.324956 233.519922 
L 115.924187 233.356664 
L 116.523418 233.187164 
L 117.12264 233.015771 
L 117.721871 232.83978 
L 118.321102 232.661096 
L 118.920325 232.47817 
L 119.519556 232.289227 
L 120.118787 232.096085 
L 120.718017 231.897271 
L 121.31724 231.691436 
L 121.916471 231.486632 
L 122.515702 231.275684 
L 123.114933 231.059071 
L 123.714156 230.835866 
L 124.313386 230.609095 
L 124.912617 230.381545 
L 125.51184 230.148836 
L 126.111071 229.913184 
L 126.710302 229.67172 
L 127.309533 229.424918 
L 127.908755 229.174163 
L 128.507986 228.919026 
L 129.107217 228.657528 
L 129.706448 228.390758 
L 130.305671 228.117255 
L 130.904902 227.841676 
L 131.504133 227.559527 
L 132.103355 227.271512 
L 132.702586 226.978046 
L 133.301817 226.679388 
L 133.901048 226.374439 
L 134.500271 226.065269 
L 135.099502 225.742718 
L 135.698732 225.419698 
L 136.297963 225.085926 
L 136.897186 224.744434 
L 137.496417 224.39178 
L 138.095648 224.035986 
L 138.694871 223.669689 
L 139.294101 223.296689 
L 139.893332 222.914712 
L 140.492563 222.524074 
L 141.091786 222.12944 
L 141.691017 221.718579 
L 142.290248 221.299624 
L 142.889474 220.871632 
L 143.488705 220.432243 
L 144.087932 219.979999 
L 144.687159 219.521968 
L 145.28639 219.054107 
L 145.885617 218.57704 
L 146.484848 218.088968 
L 147.084074 217.588126 
L 147.683305 217.077434 
L 148.282532 216.561194 
L 148.881763 216.028078 
L 149.48099 215.485251 
L 150.080221 214.933783 
L 150.679447 214.371627 
L 151.278674 213.801251 
L 151.877905 213.213353 
L 152.477132 212.619495 
L 153.076363 212.01803 
L 153.67559 211.404371 
L 154.27482 210.780578 
L 154.874047 210.150335 
L 155.473278 209.509019 
L 156.072505 208.859141 
L 156.671736 208.201608 
L 157.270963 207.530781 
L 157.870194 206.855363 
L 158.46942 206.170523 
L 159.068647 205.475617 
L 159.667878 204.772759 
L 160.267105 204.067121 
L 160.866336 203.353786 
L 161.465563 202.633482 
L 162.064793 201.90228 
L 162.66402 201.162761 
L 163.263251 200.426356 
L 163.862478 199.67716 
L 164.461709 198.926825 
L 165.060936 198.170811 
L 165.660162 197.405939 
L 166.259393 196.641224 
L 166.85862 195.870742 
L 167.457851 195.096819 
L 168.057078 194.321955 
L 168.656309 193.547349 
L 169.255535 192.767 
L 169.854766 191.979375 
L 170.453993 191.193879 
L 171.053224 190.403682 
L 171.652451 189.616608 
L 172.251678 188.832041 
L 172.850909 188.045342 
L 173.450135 187.261569 
L 174.049366 186.471372 
L 174.648593 185.684773 
L 175.247824 184.893802 
L 175.847051 184.11132 
L 176.446282 183.329241 
L 177.045508 182.544507 
L 177.644737 181.761968 
L 178.243966 180.988217 
L 178.843195 180.209093 
L 179.442424 179.438317 
L 180.041653 178.670939 
L 180.640881 177.90105 
L 181.24011 177.135456 
L 181.839337 176.375077 
L 182.438566 175.618288 
L 183.037795 174.870287 
L 183.637024 174.126619 
L 184.236252 173.388649 
L 184.835481 172.654919 
L 185.43471 171.924643 
L 186.033939 171.199965 
L 186.633168 170.48164 
L 187.232397 169.767914 
L 187.831626 169.060509 
L 188.430854 168.360648 
L 189.030081 167.666293 
L 189.62931 166.98532 
L 190.228539 166.311155 
L 190.827768 165.646949 
L 191.426997 164.991318 
L 192.026225 164.341201 
L 192.625454 163.704476 
L 193.224683 163.078355 
L 193.823912 162.459302 
L 194.42314 161.855873 
L 195.022369 161.262725 
L 195.621597 160.676249 
L 196.220826 160.113035 
L 196.820055 159.558111 
L 197.419283 159.020424 
L 198.018512 158.488852 
L 198.617741 157.982591 
L 199.21697 157.487437 
L 199.816198 157.005749 
L 200.415427 156.536664 
L 201.014655 156.081356 
L 201.613884 155.641922 
L 202.213113 155.226545 
L 202.812342 154.823792 
L 203.41157 154.437485 
L 204.010799 154.070158 
L 204.610028 153.726744 
L 205.209256 153.39586 
L 205.808485 153.07964 
L 206.407714 152.783877 
L 207.006942 152.502741 
L 207.606171 152.241962 
L 208.205399 151.991727 
L 208.804628 151.768083 
L 209.403857 151.54907 
L 210.003085 151.354022 
L 210.602314 151.17606 
L 211.201543 151.019825 
L 211.800771 150.872472 
L 212.4 150.737781 
L 212.999229 150.620657 
L 213.598457 150.518762 
L 214.197686 150.43538 
L 214.796915 150.36088 
L 215.396143 150.297228 
L 215.995372 150.254108 
L 216.594601 150.22432 
L 217.193829 150.204425 
L 217.793058 150.2 
L 218.392286 150.202851 
L 218.991515 150.216677 
L 219.590744 150.242411 
L 220.189973 150.274876 
L 220.789202 150.319108 
L 221.38843 150.368906 
L 221.987658 150.429685 
L 222.586887 150.49936 
L 223.186116 150.580394 
L 223.785345 150.670043 
L 224.384573 150.77611 
L 224.983802 150.883236 
L 225.58303 151.002074 
L 226.182259 151.135323 
L 226.781488 151.275897 
L 227.380717 151.425502 
L 227.979945 151.584203 
L 228.579174 151.750006 
L 229.178404 151.93411 
L 229.77763 152.127117 
L 230.376859 152.325644 
L 230.976088 152.542685 
L 231.575317 152.768347 
L 232.174546 153.006258 
L 232.773775 153.25482 
L 233.373003 153.514404 
L 233.972232 153.786978 
L 234.571461 154.080238 
L 235.17069 154.381751 
L 235.769919 154.693612 
L 236.369146 155.028665 
L 236.968374 155.381689 
L 237.567603 155.743853 
L 238.166832 156.120703 
L 238.766061 156.510288 
L 239.36529 156.916476 
L 239.964519 157.335216 
L 240.563748 157.77226 
L 241.162976 158.227588 
L 241.762205 158.69378 
L 242.361434 159.181641 
L 242.960663 159.677926 
L 243.55989 160.193802 
L 244.159119 160.72916 
L 244.758347 161.278966 
L 245.357576 161.838177 
L 245.956805 162.419057 
L 246.556034 163.007724 
L 247.155261 163.612168 
L 247.754492 164.234434 
L 248.353718 164.868323 
L 248.952949 165.513567 
L 249.552176 166.173136 
L 250.151407 166.836158 
L 250.750634 167.514678 
L 251.349865 168.200266 
L 251.949091 168.902593 
L 252.548322 169.61241 
L 253.147549 170.334217 
L 253.746776 171.06369 
L 254.346007 171.80349 
L 254.945234 172.552997 
L 255.544465 173.310218 
L 256.143691 174.068036 
L 256.742922 174.832612 
L 257.342149 175.603127 
L 257.94138 176.38205 
L 258.540607 177.16566 
L 259.139838 177.954289 
L 259.739064 178.743637 
L 260.338291 179.533942 
L 260.937522 180.335353 
L 261.536749 181.134669 
L 262.13598 181.938124 
L 262.735207 182.748078 
L 263.334437 183.551932 
L 263.933664 184.361364 
L 264.532895 185.169696 
L 265.132122 185.983005 
L 265.731353 186.787655 
L 266.33058 187.598518 
L 266.929806 188.411971 
L 267.529037 189.227213 
L 268.128264 190.041505 
L 268.727495 190.853042 
L 269.326722 191.662961 
L 269.925953 192.469698 
L 270.52518 193.279992 
L 271.12441 194.084507 
L 271.723637 194.885134 
L 272.322868 195.684092 
L 272.922095 196.48525 
L 273.521326 197.277668 
L 274.120553 198.069468 
L 274.719779 198.854299 
L 275.31901 199.641077 
L 275.918237 200.419815 
L 276.517468 201.20278 
L 277.116695 201.970779 
L 277.715926 202.733542 
L 278.315152 203.486582 
L 278.914383 204.237712 
L 279.51361 204.984795 
L 280.112841 205.719913 
L 280.712068 206.448167 
L 281.311299 207.16679 
L 281.910521 207.880866 
L 282.509752 208.584302 
L 283.108983 209.277147 
L 283.708214 209.958992 
L 284.307437 210.633337 
L 284.906668 211.295111 
L 285.505899 211.948236 
L 286.105129 212.598676 
L 286.704352 213.230791 
L 287.303583 213.852597 
L 287.902814 214.466521 
L 288.502037 215.071853 
L 289.101268 215.660419 
L 289.700498 216.240123 
L 290.299729 216.807868 
L 290.898952 217.362759 
L 291.498183 217.904329 
L 292.097414 218.437696 
L 292.696645 218.95946 
L 293.295867 219.466537 
L 293.895098 219.965288 
L 294.494329 220.449822 
L 295.093552 220.927285 
L 295.692783 221.394862 
L 296.292014 221.847447 
L 296.891245 222.2925 
L 297.490467 222.724848 
L 298.089698 223.147292 
L 298.688929 223.557642 
L 299.28816 223.958894 
L 299.887383 224.35531 
L 300.486614 224.738687 
L 301.085844 225.112036 
L 301.685067 225.469875 
L 302.284298 225.821327 
L 302.883529 226.165036 
L 303.48276 226.493535 
L 304.081983 226.815889 
L 304.681213 227.129873 
L 305.280444 227.43757 
L 305.879675 227.734831 
L 306.478898 228.020474 
L 307.078129 228.302917 
L 307.67736 228.572951 
L 308.276582 228.83633 
L 308.875813 229.093066 
L 309.475044 229.339112 
L 310.074275 229.578372 
L 310.673498 229.809015 
L 311.272729 230.031443 
L 311.87196 230.248384 
L 312.47119 230.457173 
L 313.070413 230.659119 
L 313.669644 230.856127 
L 314.268875 231.047995 
L 314.868098 231.233236 
L 315.467329 231.413526 
L 316.066559 231.587913 
L 316.66579 231.756381 
L 317.265013 231.923646 
L 317.864244 232.083823 
L 318.463475 232.240076 
L 319.062706 232.389281 
L 319.661928 232.538044 
L 320.261159 232.681797 
L 320.86039 232.82422 
L 321.459613 232.962565 
L 322.058844 233.096817 
L 322.658075 233.228297 
L 323.257306 233.3588 
L 323.856528 233.483644 
L 324.455759 233.608697 
L 325.05499 233.728418 
L 325.654221 233.846349 
L 326.253444 233.962619 
L 326.852675 234.078219 
L 327.451905 234.193652 
L 328.051136 234.305523 
L 328.650359 234.416145 
L 329.24959 234.524472 
L 329.848821 234.632014 
L 330.448044 234.736452 
L 331.047274 234.841333 
L 331.646505 234.944092 
L 332.245736 235.045162 
L 332.844959 235.144904 
L 333.44419 235.243288 
L 334.043421 235.339295 
L 334.642652 235.434018 
L 335.241874 235.528699 
L 335.841105 235.622088 
L 336.440336 235.71246 
L 337.039559 235.80096 
L 337.63879 235.887246 
L 338.238021 235.973308 
L 338.837251 236.056572 
L 339.436474 236.137464 
L 340.035705 236.217325 
L 340.634936 236.296959 
L 341.234167 236.374093 
L 341.83339 236.449089 
L 342.43262 236.519965 
L 343.031851 236.58995 
L 343.631074 236.656875 
L 344.230305 236.723159 
L 344.829536 236.786927 
L 345.428767 236.849211 
L 346.027989 236.90762 
L 346.62722 236.964062 
L 347.226451 237.019836 
L 347.825682 237.072779 
L 348.424905 237.124009 
L 349.024136 237.17285 
L 349.623358 237.219394 
L 350.222597 237.263729 
L 350.82182 237.306599 
L 351.421043 237.347663 
L 352.020282 237.386316 
L 352.619505 237.425002 
L 353.218744 237.460897 
L 353.817966 237.495216 
L 354.417189 237.529002 
L 355.016428 237.559878 
L 355.615651 237.589438 
L 356.214874 237.618721 
L 356.814113 237.645996 
L 357.413335 237.671114 
L 358.012558 237.69625 
L 358.611797 237.719655 
L 359.21102 237.743455 
L 359.810259 237.764873 
L 360.409482 237.786145 
L 361.008704 237.806554 
L 361.607943 237.825821 
L 362.207166 237.844371 
L 362.806389 237.86224 
L 363.405612 237.880115 
L 364.004834 237.897271 
L 364.604057 237.912765 
L 365.20328 237.928096 
L 365.802502 237.943877 
L 366.401725 237.957683 
L 367.000948 237.971714 
L 367.60017 237.984235 
L 368.199393 237.996394 
L 368.798616 238.008511 
L 369.397838 238.020201 
L 369.997061 238.031463 
L 370.596284 238.042954 
L 371.195506 238.053918 
L 371.794729 238.063714 
L 372.393952 238.073111 
L 372.993174 238.08178 
L 373.592397 238.090096 
L 374.19162 238.09838 
L 374.790842 238.106249 
L 375.390065 238.113381 
L 375.989288 238.120157 
L 376.588511 238.127232 
L 377.187733 238.133196 
L 377.786956 238.13915 
L 378.386179 238.144391 
L 378.985401 238.14931 
L 379.584624 238.154238 
L 380.183847 238.159132 
L 380.783069 238.163304 
L 381.382292 238.166827 
L 381.981515 238.170093 
L 382.580737 238.173111 
L 383.17996 238.176546 
L 383.779183 238.178997 
L 384.378405 238.181245 
L 384.977628 238.1833 
L 385.576851 238.185499 
L 386.176073 238.187148 
L 386.775296 238.188642 
L 387.374519 238.189991 
L 387.973741 238.191206 
L 388.572964 238.192295 
L 389.172187 238.193269 
L 389.77141 238.194137 
L 390.370632 238.194907 
L 390.969855 238.195589 
L 391.569078 238.196191 
L 392.1683 238.197047 
L 392.767523 238.19746 
L 393.366746 238.197822 
L 393.965968 238.198465 
L 394.565191 238.199017 
L 395.164414 238.199162 
L 395.763636 238.199614 
z
" style="fill:#1f77b4;opacity:0.4;"/>
   </g>
   <g id="patch_16">
    <path clip-path="url(#p612dd639ba)" d="M 151.278674 238.2 
L 151.278674 213.801251 
L 151.877905 213.213353 
L 152.477132 212.619495 
L 153.076363 212.01803 
L 153.67559 211.404371 
L 154.27482 210.780578 
L 154.874047 210.150335 
L 155.473278 209.509019 
L 156.072505 208.859141 
L 156.671736 208.201608 
L 157.270963 207.530781 
L 157.870194 206.855363 
L 158.46942 206.170523 
L 159.068647 205.475617 
L 159.667878 204.772759 
L 160.267105 204.067121 
L 160.866336 203.353786 
L 161.465563 202.633482 
L 162.064793 201.90228 
L 162.66402 201.162761 
L 163.263251 200.426356 
L 163.862478 199.67716 
L 164.461709 198.926825 
L 165.060936 198.170811 
L 165.660162 197.405939 
L 166.259393 196.641224 
L 166.85862 195.870742 
L 167.457851 195.096819 
L 168.057078 194.321955 
L 168.656309 193.547349 
L 169.255535 192.767 
L 169.854766 191.979375 
L 170.453993 191.193879 
L 171.053224 190.403682 
L 171.652451 189.616608 
L 172.251678 188.832041 
L 172.850909 188.045342 
L 173.450135 187.261569 
L 174.049366 186.471372 
L 174.648593 185.684773 
L 175.247824 184.893802 
L 175.847051 184.11132 
L 176.446282 183.329241 
L 177.045508 182.544507 
L 177.644737 181.761968 
L 178.243966 180.988217 
L 178.843195 180.209093 
L 179.442424 179.438317 
L 180.041653 178.670939 
L 180.640881 177.90105 
L 181.24011 177.135456 
L 181.839337 176.375077 
L 182.438566 175.618288 
L 183.037795 174.870287 
L 183.637024 174.126619 
L 184.236252 173.388649 
L 184.835481 172.654919 
L 185.43471 171.924643 
L 186.033939 171.199965 
L 186.633168 170.48164 
L 187.232397 169.767914 
L 187.831626 169.060509 
L 188.430854 168.360648 
L 189.030081 167.666293 
L 189.62931 166.98532 
L 190.228539 166.311155 
L 190.827768 165.646949 
L 191.426997 164.991318 
L 192.026225 164.341201 
L 192.625454 163.704476 
L 193.224683 163.078355 
L 193.823912 162.459302 
L 194.42314 161.855873 
L 195.022369 161.262725 
L 195.621597 160.676249 
L 196.220826 160.113035 
L 196.820055 159.558111 
L 197.419283 159.020424 
L 198.018512 158.488852 
L 198.617741 157.982591 
L 199.21697 157.487437 
L 199.816198 157.005749 
L 200.415427 156.536664 
L 201.014655 156.081356 
L 201.613884 155.641922 
L 202.213113 155.226545 
L 202.812342 154.823792 
L 203.41157 154.437485 
L 204.010799 154.070158 
L 204.610028 153.726744 
L 205.209256 153.39586 
L 205.808485 153.07964 
L 206.407714 152.783877 
L 207.006942 152.502741 
L 207.606171 152.241962 
L 208.205399 151.991727 
L 208.804628 151.768083 
L 209.403857 151.54907 
L 210.003085 151.354022 
L 210.602314 151.17606 
L 211.201543 151.019825 
L 211.800771 150.872472 
L 212.4 150.737781 
L 212.999229 150.620657 
L 213.598457 150.518762 
L 214.197686 150.43538 
L 214.796915 150.36088 
L 215.396143 150.297228 
L 215.995372 150.254108 
L 216.594601 150.22432 
L 217.193829 150.204425 
L 217.793058 150.2 
L 218.392286 150.202851 
L 218.991515 150.216677 
L 219.590744 150.242411 
L 220.189973 150.274876 
L 220.789202 150.319108 
L 221.38843 150.368906 
L 221.987658 150.429685 
L 222.586887 150.49936 
L 223.186116 150.580394 
L 223.785345 150.670043 
L 224.384573 150.77611 
L 224.983802 150.883236 
L 225.58303 151.002074 
L 226.182259 151.135323 
L 226.781488 151.275897 
L 227.380717 151.425502 
L 227.979945 151.584203 
L 228.579174 151.750006 
L 229.178404 151.93411 
L 229.77763 152.127117 
L 230.376859 152.325644 
L 230.976088 152.542685 
L 231.575317 152.768347 
L 232.174546 153.006258 
L 232.773775 153.25482 
L 233.373003 153.514404 
L 233.972232 153.786978 
L 234.571461 154.080238 
L 235.17069 154.381751 
L 235.769919 154.693612 
L 236.369146 155.028665 
L 236.968374 155.381689 
L 237.567603 155.743853 
L 238.166832 156.120703 
L 238.766061 156.510288 
L 239.36529 156.916476 
L 239.964519 157.335216 
L 240.563748 157.77226 
L 241.162976 158.227588 
L 241.762205 158.69378 
L 242.361434 159.181641 
L 242.960663 159.677926 
L 243.55989 160.193802 
L 244.159119 160.72916 
L 244.758347 161.278966 
L 245.357576 161.838177 
L 245.956805 162.419057 
L 246.556034 163.007724 
L 247.155261 163.612168 
L 247.754492 164.234434 
L 248.353718 164.868323 
L 248.952949 165.513567 
L 249.552176 166.173136 
L 250.151407 166.836158 
L 250.750634 167.514678 
L 251.349865 168.200266 
L 251.949091 168.902593 
L 252.548322 169.61241 
L 253.147549 170.334217 
L 253.746776 171.06369 
L 254.346007 171.80349 
L 254.945234 172.552997 
L 255.544465 173.310218 
L 256.143691 174.068036 
L 256.742922 174.832612 
L 257.342149 175.603127 
L 257.94138 176.38205 
L 258.540607 177.16566 
L 259.139838 177.954289 
L 259.739064 178.743637 
L 260.338291 179.533942 
L 260.937522 180.335353 
L 261.536749 181.134669 
L 262.13598 181.938124 
L 262.735207 182.748078 
L 263.334437 183.551932 
L 263.933664 184.361364 
L 264.532895 185.169696 
L 265.132122 185.983005 
L 265.731353 186.787655 
L 266.33058 187.598518 
L 266.929806 188.411971 
L 267.529037 189.227213 
L 268.128264 190.041505 
L 268.727495 190.853042 
L 269.326722 191.662961 
L 269.925953 192.469698 
L 270.52518 193.279992 
L 271.12441 194.084507 
L 271.723637 194.885134 
L 272.322868 195.684092 
L 272.922095 196.48525 
L 273.521326 197.277668 
L 274.120553 198.069468 
L 274.719779 198.854299 
L 275.31901 199.641077 
L 275.918237 200.419815 
L 276.517468 201.20278 
L 277.116695 201.970779 
L 277.715926 202.733542 
L 278.315152 203.486582 
L 278.914383 204.237712 
L 279.51361 204.984795 
L 280.112841 205.719913 
L 280.712068 206.448167 
L 281.311299 207.16679 
L 281.910521 207.880866 
L 282.509752 208.584302 
L 283.108983 209.277147 
L 283.708214 209.958992 
L 284.307437 210.633337 
L 284.906668 211.295111 
L 285.505899 211.948236 
L 285.505899 238.2 
z
" style="fill:#1f77b4;opacity:0.4;"/>
   </g>
   <g id="matplotlib.axis_2">
    <g id="xtick_6">
     <g id="line2d_6">
      <g>
       <use style="stroke:#000000;stroke-width:0.8;" x="73.708446" xlink:href="#mbb2f1fae29" y="242.6"/>
      </g>
     </g>
     <g id="text_10">
      <!-- 1.0 -->
      <defs>
       <path d="M 10.6875 12.40625 
L 21 12.40625 
L 21 0 
L 10.6875 0 
z
" id="DejaVuSans-46"/>
      </defs>
      <g transform="translate(61.56704 257.198438)scale(0.1 -0.1)">
       <use xlink:href="#DejaVuSans-8722"/>
       <use x="83.789062" xlink:href="#DejaVuSans-49"/>
       <use x="147.412109" xlink:href="#DejaVuSans-46"/>
       <use x="179.199219" xlink:href="#DejaVuSans-48"/>
      </g>
     </g>
    </g>
    <g id="xtick_7">
     <g id="line2d_7">
      <g>
       <use style="stroke:#000000;stroke-width:0.8;" x="142.638348" xlink:href="#mbb2f1fae29" y="242.6"/>
      </g>
     </g>
     <g id="text_11">
      <!-- 0.5 -->
      <defs>
       <path d="M 10.796875 72.90625 
L 49.515625 72.90625 
L 49.515625 64.59375 
L 19.828125 64.59375 
L 19.828125 46.734375 
Q 21.96875 47.46875 24.109375 47.828125 
Q 26.265625 48.1875 28.421875 48.1875 
Q 40.625 48.1875 47.75 41.5 
Q 54.890625 34.8125 54.890625 23.390625 
Q 54.890625 11.625 47.5625 5.09375 
Q 40.234375 -1.421875 26.90625 -1.421875 
Q 22.3125 -1.421875 17.546875 -0.640625 
Q 12.796875 0.140625 7.71875 1.703125 
L 7.71875 11.625 
Q 12.109375 9.234375 16.796875 8.0625 
Q 21.484375 6.890625 26.703125 6.890625 
Q 35.15625 6.890625 40.078125 11.328125 
Q 45.015625 15.765625 45.015625 23.390625 
Q 45.015625 31 40.078125 35.4375 
Q 35.15625 39.890625 26.703125 39.890625 
Q 22.75 39.890625 18.8125 39.015625 
Q 14.890625 38.140625 10.796875 36.28125 
z
" id="DejaVuSans-53"/>
      </defs>
      <g transform="translate(130.496942 257.198438)scale(0.1 -0.1)">
       <use xlink:href="#DejaVuSans-8722"/>
       <use x="83.789062" xlink:href="#DejaVuSans-48"/>
       <use x="147.412109" xlink:href="#DejaVuSans-46"/>
       <use x="179.199219" xlink:href="#DejaVuSans-53"/>
      </g>
     </g>
    </g>
    <g id="xtick_8">
     <g id="line2d_8">
      <g>
       <use style="stroke:#000000;stroke-width:0.8;" x="211.56825" xlink:href="#mbb2f1fae29" y="242.6"/>
      </g>
     </g>
     <g id="text_12">
      <!-- 0.0 -->
      <g transform="translate(203.616688 257.198438)scale(0.1 -0.1)">
       <use xlink:href="#DejaVuSans-48"/>
       <use x="63.623047" xlink:href="#DejaVuSans-46"/>
       <use x="95.410156" xlink:href="#DejaVuSans-48"/>
      </g>
     </g>
    </g>
    <g id="xtick_9">
     <g id="line2d_9">
      <g>
       <use style="stroke:#000000;stroke-width:0.8;" x="280.498152" xlink:href="#mbb2f1fae29" y="242.6"/>
      </g>
     </g>
     <g id="text_13">
      <!-- 0.5 -->
      <g transform="translate(272.54659 257.198438)scale(0.1 -0.1)">
       <use xlink:href="#DejaVuSans-48"/>
       <use x="63.623047" xlink:href="#DejaVuSans-46"/>
       <use x="95.410156" xlink:href="#DejaVuSans-53"/>
      </g>
     </g>
    </g>
    <g id="xtick_10">
     <g id="line2d_10">
      <g>
       <use style="stroke:#000000;stroke-width:0.8;" x="349.428055" xlink:href="#mbb2f1fae29" y="242.6"/>
      </g>
     </g>
     <g id="text_14">
      <!-- 1.0 -->
      <g transform="translate(341.476492 257.198438)scale(0.1 -0.1)">
       <use xlink:href="#DejaVuSans-49"/>
       <use x="63.623047" xlink:href="#DejaVuSans-46"/>
       <use x="95.410156" xlink:href="#DejaVuSans-48"/>
      </g>
     </g>
    </g>
    <g id="text_15">
     <!-- Bias -->
     <defs>
      <path d="M 19.671875 34.8125 
L 19.671875 8.109375 
L 35.5 8.109375 
Q 43.453125 8.109375 47.28125 11.40625 
Q 51.125 14.703125 51.125 21.484375 
Q 51.125 28.328125 47.28125 31.5625 
Q 43.453125 34.8125 35.5 34.8125 
z
M 19.671875 64.796875 
L 19.671875 42.828125 
L 34.28125 42.828125 
Q 41.5 42.828125 45.03125 45.53125 
Q 48.578125 48.25 48.578125 53.8125 
Q 48.578125 59.328125 45.03125 62.0625 
Q 41.5 64.796875 34.28125 64.796875 
z
M 9.8125 72.90625 
L 35.015625 72.90625 
Q 46.296875 72.90625 52.390625 68.21875 
Q 58.5 63.53125 58.5 54.890625 
Q 58.5 48.1875 55.375 44.234375 
Q 52.25 40.28125 46.1875 39.3125 
Q 53.46875 37.75 57.5 32.78125 
Q 61.53125 27.828125 61.53125 20.40625 
Q 61.53125 10.640625 54.890625 5.3125 
Q 48.25 0 35.984375 0 
L 9.8125 0 
z
" id="DejaVuSans-66"/>
      <path d="M 34.28125 27.484375 
Q 23.390625 27.484375 19.1875 25 
Q 14.984375 22.515625 14.984375 16.5 
Q 14.984375 11.71875 18.140625 8.90625 
Q 21.296875 6.109375 26.703125 6.109375 
Q 34.1875 6.109375 38.703125 11.40625 
Q 43.21875 16.703125 43.21875 25.484375 
L 43.21875 27.484375 
z
M 52.203125 31.203125 
L 52.203125 0 
L 43.21875 0 
L 43.21875 8.296875 
Q 40.140625 3.328125 35.546875 0.953125 
Q 30.953125 -1.421875 24.3125 -1.421875 
Q 15.921875 -1.421875 10.953125 3.296875 
Q 6 8.015625 6 15.921875 
Q 6 25.140625 12.171875 29.828125 
Q 18.359375 34.515625 30.609375 34.515625 
L 43.21875 34.515625 
L 43.21875 35.40625 
Q 43.21875 41.609375 39.140625 45 
Q 35.0625 48.390625 27.6875 48.390625 
Q 23 48.390625 18.546875 47.265625 
Q 14.109375 46.140625 10.015625 43.890625 
L 10.015625 52.203125 
Q 14.9375 54.109375 19.578125 55.046875 
Q 24.21875 56 28.609375 56 
Q 40.484375 56 46.34375 49.84375 
Q 52.203125 43.703125 52.203125 31.203125 
z
" id="DejaVuSans-97"/>
     </defs>
     <g transform="translate(201.911719 270.876562)scale(0.1 -0.1)">
      <use xlink:href="#DejaVuSans-66"/>
      <use x="68.603516" xlink:href="#DejaVuSans-105"/>
      <use x="96.386719" xlink:href="#DejaVuSans-97"/>
      <use x="157.666016" xlink:href="#DejaVuSans-115"/>
     </g>
    </g>
   </g>
   <g id="patch_17">
    <path d="M 10.7 242.6 
L 414.1 242.6 
" style="fill:none;stroke:#000000;stroke-linecap:square;stroke-linejoin:miter;stroke-width:0.8;"/>
   </g>
  </g>
 </g>
 <defs>
  <clipPath id="p090601a6b2">
   <rect height="96.8" width="403.4" x="10.7" y="7.2"/>
  </clipPath>
  <clipPath id="p612dd639ba">
   <rect height="96.8" width="403.4" x="10.7" y="145.8"/>
  </clipPath>
 </defs>
</svg>
