<svg viewBox="0 0 961.7 383.2" fill="none" stroke-linecap="square" stroke-miterlimit="10" xmlns="http://www.w3.org/2000/svg"><clipPath id="a"><path d="M0 0h961.7v383.2H0V0z"/></clipPath><g clip-path="url(#a)"><path fill="#000" fill-opacity="0" d="M0 0h961.7v383.2H0z" fill-rule="evenodd"/><path fill="#f9cb9c" d="M763.4 283.1v49.3h153.3l-5-2.5-29.2-8.7-40.9-11.6-32.2-9.8-28.9-9.8z" fill-rule="evenodd"/><path fill="#000" fill-opacity="0" d="M242.7 332.7V111.5" fill-rule="evenodd"/><path stroke="#6aa84f" stroke-width="2" stroke-linejoin="round" stroke-linecap="butt" stroke-dasharray="8.0,6.0" d="M242.7 332.7V111.5" fill-rule="evenodd"/><path fill="#000" fill-opacity="0" d="M140.5 340.7H325v34.5H140.5z" fill-rule="evenodd"/><path fill="#000" d="M166.2 351.4v2h-4V365h-2.6v-11.5h-4v-2h10.6zm3.9 3.9v9.6h-2.3v-9.6h2.3zm.3-2.8v.6l-.4.4-.5.3-.6.1h-.5l-.5-.4-.3-.4-.1-.6.1-.6.3-.4.5-.4h1.1l.5.4q.2.1.3.4l.1.6zm2.3 12.4v-9.6h1.4q.5 0 .6.4l.1.7.6-.5.6-.4.6-.3h.8q1 0 1.5.4.6.5.9 1.3l.5-.8.8-.5.8-.4h1q.7 0 1.3.2.7.2 1 .7.5.5.7 1.1.2.7.2 1.6v6h-2.3v-6q0-1-.4-1.4-.4-.5-1.1-.5-.4 0-.7.2-.3 0-.5.3-.3.2-.4.6l-.1.8v6h-2.3v-6q0-1-.4-1.4-.4-.5-1.2-.5-.4 0-.9.3-.4.2-.8.7v7h-2.3zm19.7-9.8q.9 0 1.6.3.8.3 1.3.9.6.5.9 1.3.3.8.3 1.9v.4l-.1.3-.2.1H190q.2 1.5.9 2.2.6.7 1.8.7l1-.1.7-.3.5-.3.4-.1h.3l.2.2.6.8-.8.8-1 .5-1 .2h-1.1q-1 0-1.9-.2-.8-.4-1.5-1-.6-.7-1-1.6-.3-1-.3-2.2 0-1 .3-1.9.3-.9.9-1.5.6-.6 1.4-1 .9-.4 2-.4zm0 1.7q-1 0-1.6.6-.5.5-.7 1.6h4.3v-.9l-.5-.7q-.2-.3-.6-.4-.4-.2-.9-.2zm12.7 8.2q-1.2 0-1.9-.7-.6-.7-.6-2V357h-1l-.3-.1q-.2-.1-.2-.4v-.9l1.6-.2.4-2.7.2-.2.4-.1h1.1v3h2.6v1.6h-2.6v5.2q0 .4.3.7.2.2.6.2h.3l.3-.1.2-.1H206.8l.1.1.7 1.1q-.5.5-1.1.7l-1.4.2zm8.2-9.9q1 0 2 .4.8.3 1.4 1 .6.6 1 1.5.3 1 .3 2 0 1.2-.3 2.1-.4 1-1 1.6-.6.6-1.5 1-.8.3-2 .3-1 0-1.9-.4-.8-.3-1.5-1-.6-.6-1-1.5-.3-1-.3-2 0-1.2.4-2 .3-1 1-1.6.6-.7 1.4-1 1-.4 2-.4zm0 8.1q1.2 0 1.8-.8.5-.8.5-2.3 0-1.6-.5-2.4-.6-.8-1.8-.8-1.2 0-1.8.8-.6.8-.6 2.4 0 1.5.6 2.3.6.8 1.8.8zm10.1 1.7v-9.6h1.4q.5 0 .6.4l.2.8.6-.6.7-.4.7-.3h1q.7 0 1.3.2l1 .7q.4.5.6 1.2.3.7.3 1.5v6h-2.4v-6q0-1-.4-1.4-.4-.5-1.2-.5-.6 0-1.1.3l-1 .7v7h-2.3zM238 355q.9 0 1.6.3.8.3 1.3.9.6.5.9 1.3.3.8.3 1.9v.7l-.3.1h-6.2q.2 1.5.9 2.2.6.7 1.8.7l1-.1.7-.3.5-.3.4-.1h.3l.2.2.6.8-.8.8-1 .5-1 .2H238q-1 0-1.9-.2-.8-.4-1.5-1-.6-.7-1-1.6-.3-1-.3-2.2 0-1 .3-1.9.3-.9.9-1.5.6-.6 1.4-1 .9-.4 2-.4zm0 1.7q-1 0-1.6.6-.5.5-.7 1.6h4.3v-.9l-.4-.7q-.3-.3-.7-.4-.4-.2-.9-.2zm7.7 3.1l-3.1-4.6h2.5l.3.3 2 3.2v-.3l.3-.4 1.6-2.5q0-.2.2-.2l.3-.1h2.1l-3.1 4.5 3.2 5h-2.6l-.2-.4-2-3.3-.3.5-1.8 2.8q0 .2-.2.3l-.4.2h-2l3.2-5zm11 5.1q-1.3 0-2-.7-.6-.7-.6-2V357h-1l-.3-.1q-.2-.1-.2-.4v-.9l1.6-.2.5-2.7.1-.2.4-.1h1.2v3h2.5v1.6h-2.5v5.2q0 .4.2.7.2.2.6.2h.3l.3-.1.2-.1H258.3l.2.1.7 1.1q-.6.5-1.2.7-.6.2-1.4.2zm11.6-9.9q.9 0 1.6.3.8.3 1.3.9.6.5 1 1.3.2.8.2 1.9v.7l-.3.1H266q.2 1.5.9 2.2.7.7 1.8.7l1-.1.7-.3.5-.3.4-.1h.3l.2.2.6.8q-.3.5-.8.8l-1 .5-1 .2h-1.1q-1 0-1.9-.2-.8-.4-1.5-1-.6-.7-1-1.6-.3-1-.3-2.2 0-1 .3-1.9.3-.9 1-1.5.5-.6 1.3-1 .9-.4 2-.4zm0 1.7q-1 0-1.6.6-.5.5-.7 1.6h4.3v-.9l-.4-.7q-.3-.3-.7-.4-.4-.2-.9-.2zm10.5 8h-2.1l-3.8-9.5h1.9l.4.1.3.3 1.8 5.1.3 1 .2.8q0-.5.2-.9l.2-.9 2-5q0-.3.2-.4l.4-.1h1.8l-3.8 9.6zm8.8-9.7q.9 0 1.6.3.8.3 1.4.9.5.5.8 1.3.3.8.3 1.9v.7l-.3.1h-6.2q.2 1.5.9 2.2.7.7 1.8.7l1-.1.7-.3.5-.3.5-.1h.2l.2.2.7.8q-.4.5-1 .8l-1 .5-1 .2h-1q-1 0-1.9-.2-.8-.4-1.5-1-.6-.7-1-1.6-.3-1-.3-2.2 0-1 .3-1.9.3-.9 1-1.5.5-.6 1.4-1 .8-.4 1.9-.4zm0 1.7q-1 0-1.5.6-.6.5-.8 1.6h4.4q0-.5-.2-.9 0-.4-.3-.7-.3-.3-.7-.4-.3-.2-.9-.2zm6 8v-9.5h1.4q.5 0 .6.4l.2.8.6-.6.6-.4.8-.3h1q.7 0 1.3.2l1 .7q.4.5.6 1.2.3.7.3 1.5v6h-2.4v-6q0-1-.4-1.4-.4-.5-1.2-.5-.6 0-1.1.3l-1 .7v7h-2.3zm13.8.2q-1.3 0-2-.7-.6-.7-.6-2V357h-1l-.3-.1q-.2-.1-.2-.4v-.9l1.6-.2.5-2.7.1-.2.4-.1h1.2v3h2.5v1.6H307v5.2q0 .4.2.7.2.2.6.2h.3l.3-.1.2-.1H309l.2.1.7 1.1q-.5.5-1.2.7-.6.2-1.3.2z"/><path fill="#000" fill-opacity="0" d="M13.3 263V142h34.5v121z" fill-rule="evenodd"/><path fill="#000" d="M32.7 245.1h4.7v2.5H24v-4.4q0-1.3.3-2.3.3-1 .9-1.7.5-.6 1.3-.9.8-.3 1.8-.3t1.8.3q.8.3 1.4 1l.9 1.6q.3 1 .3 2.3v2zm-2 0v-1.9l-.1-1.2-.5-.8q-.4-.4-.8-.5l-1-.2q-.6 0-1 .2-.5.1-.8.5-.3.3-.4.8-.2.5-.2 1.2v2h4.8zm6.7-9H28v-1.3l.1-.5.4-.2 1.2-.1q-.9-.5-1.4-1.2-.5-.7-.5-1.6 0-.7.3-1.1l1.7.3.3.1v1.3q0 .7.3 1.2.4.5 1.2.9h6v2.3zm-9.7-11.6q0-1.1.4-2 .3-.9 1-1.5.6-.6 1.5-1 1-.3 2-.3 1.2 0 2 .4 1 .3 1.7 1 .6.5 1 1.4.3.9.3 2 0 1-.4 2-.3.8-1 1.4-.6.6-1.5 1-1 .3-2 .3-1.2 0-2.1-.3-1-.4-1.5-1-.7-.6-1-1.5-.4-.9-.4-2zm8.1 0q0-1.2-.8-1.8-.8-.6-2.3-.6-1.6 0-2.4.6-.8.6-.8 1.8 0 1.2.8 1.7.8.6 2.4.6 1.5 0 2.3-.6.8-.5.8-1.7zm1.6-6.6H23.6v-2.3H29q-.7-.6-1-1.3-.4-.7-.4-1.7 0-.7.4-1.4.3-.6.9-1.1.6-.5 1.5-.7 1-.3 2-.3 1.2 0 2 .3 1 .3 1.7.8.6.6 1 1.3.4.8.4 1.7l-.1.8q0 .4-.2.7l-.4.6-.5.4.6.1.4.2v1.9zm-7.9-4.5q0 .8.3 1.3t.9 1H35l.6-1q.2-.4.2-1 0-.5-.2-.9t-.6-.7l-1-.5-1.4-.1-1.4.1-1 .4-.5.6-.2.8zm8-13.6v1l-.1.6-.5.2-.6.2.6.8.4.7.2.8.1 1-.2 1q-.1.5-.5 1l-.8.5-1 .2q-.6 0-1.2-.3-.5-.3-1-1l-.6-1.7q-.3-1.1-.3-2.7h-.6q-1 0-1.4.4-.5.4-.5 1.1l.1 1 .3.6.3.5.2.5q0 .3-.2.4 0 .2-.3.3l-.7.4q-1.5-1.6-1.5-4 0-.8.3-1.4.2-.7.7-1.2.5-.4 1.2-.6.7-.3 1.5-.3h6zm-1.5 4.5v-.7l-.2-.5-.4-.5-.4-.5h-1.6l.1 1.6.4 1.1.4.6.6.2q.6 0 .9-.4.2-.3.2-1zm1.4-6.8H23.6v-2.3H29q-.7-.6-1-1.3-.4-.7-.4-1.7 0-.7.4-1.4.3-.6.9-1.1.6-.5 1.5-.7 1-.3 2-.3 1.2 0 2 .3 1 .3 1.7.8.6.6 1 1.3.4.8.4 1.7l-.1.8q0 .4-.2.7l-.4.6-.5.4.6.1.4.2v1.9zm-7.9-4.5q0 .8.3 1.3t.9 1H35l.6-1q.2-.4.2-1 0-.5-.2-.9t-.6-.7l-1-.5-1.4-.1-1.4.1-1 .4-.5.6-.2.8zm-1.6-8.5h9.5v2.3H28v-2.3zM25 184l.5.1.5.4q.2.1.3.4l.1.6v.6l-.4.4-.5.4h-1.1l-.4-.4-.4-.4v-.6-.6l.4-.4.4-.4h.6zm-1.5-4.7h13.8v2.3H23.6v-2.3zm4.3-5h9.5v2.3H28v-2.4zM25 174l.5.1.5.3.3.5.1.6v.6l-.4.4-.5.3-.5.1h-.6l-.4-.4-.4-.4v-.6-.6l.4-.5q.1-.2.4-.3l.6-.1zm12.5-5.4q0 1.2-.7 1.9t-2 .7h-5.3v1l-.1.3-.4.1h-1l-.2-1.5-2.6-.5q-.2 0-.2-.2-.2-.1-.2-.3v-1.2h3v-2.5h1.7v2.5h5.2q.4 0 .7-.2l.2-.6v-.4l-.1-.3-.1-.1v-.2-.2l.1-.1 1.1-.7q.5.5.7 1.2.2.6.2 1.3zm2.5-7.5l.3.3q.2.1.2.5v1.7l-3.9-1.8-8.8 3.9v-2l.1-.4.3-.3 5-2 .5-.2.5-.1-.5-.2q-.3 0-.5-.2l-5-2q-.2 0-.3-.2l-.1-.3v-1.9l12.2 5.2z"/><path fill="#000" fill-opacity="0" d="M71.4 62.4H197v34.5H71.4z" fill-rule="evenodd"/><path fill="#15c" d="M97.3 70.8v4.8h-2.5V62h4.4q1.4 0 2.3.3 1 .3 1.7.9.6.6 1 1.4.3.8.3 1.7 0 1-.4 1.8-.3.8-1 1.4-.6.6-1.6.9-1 .3-2.3.3h-1.9zm0-2h2l1.1-.1.9-.5.5-.8.1-1-.1-1-.5-.7-.9-.5q-.5-.2-1.2-.2h-1.9V69zm9 6.8V66h1.3l.5.1q.2.2.2.5l.1 1.1 1.2-1.4q.7-.5 1.6-.5.7 0 1.2.4l-.3 1.7-.2.2H110.7q-.7 0-1.3.4-.5.4-.8 1.1v6h-2.3zm11.5-9.7q1 0 1.7.3.8.2 1.3.8.6.5.9 1.4.3.8.3 1.8v.4l-.1.3-.2.1h-6.2q.1 1.6.8 2.2.7.7 1.9.7h1l.6-.4.6-.3.4-.1h.2l.2.2.7.9-.9.7-1 .5-1 .2-1 .1q-1 0-2-.3-.8-.3-1.4-1-.6-.6-1-1.6-.3-1-.3-2.2 0-1 .3-1.9.3-.8.9-1.5.6-.6 1.4-1 .9-.3 2-.3zm0 1.6q-1 0-1.5.6-.5.5-.7 1.6h4.3l-.1-.8q-.1-.4-.4-.7-.2-.3-.6-.5-.4-.2-1-.2zm12.8 8q-.5 0-.6-.3l-.2-1-.6.6-.7.5-.8.3-1 .1q-.7 0-1.4-.3-.6-.3-1.1-1-.5-.6-.8-1.5-.2-.9-.2-2 0-1.2.3-2 .3-1 .8-1.7.6-.6 1.3-1 .8-.4 1.7-.4.8 0 1.4.3.6.2 1 .7v-5h2.3v13.8h-1.4zm-3-1.6q.6 0 1.1-.3.6-.3 1-.9v-4.2q-.4-.5-.9-.7-.4-.2-1-.2-.5 0-.9.2t-.7.6l-.5 1-.1 1.4.1 1.4q.1.6.4 1 .2.4.6.5l.8.2zM137 66v9.6h-2.4V66h2.4zm.3-2.8l-.1.6-.4.4-.4.4h-1.2l-.4-.4-.3-.4-.2-.6.2-.6q0-.2.3-.4l.4-.3.6-.2.6.2q.3 0 .4.3l.4.4v.6zm9 4.8l-.2.2-.3.1-.4-.1-.4-.2-.5-.3h-.8l-1 .1q-.5.2-.8.7l-.5 1-.1 1.3.1 1.3.5 1 .7.7 1 .2q.6 0 1-.2l.5-.3.4-.3.4-.1q.3 0 .4.2l.7.9-.9.7-.9.5-1 .2-1 .1q-.9 0-1.7-.3-.7-.3-1.3-1-.6-.6-1-1.5-.3-1-.3-2.1 0-1 .3-2 .3-.9.9-1.5.6-.7 1.5-1 .8-.4 2-.4 1 0 1.8.3t1.5 1l-.6.8zm5.3 7.7q-1.2 0-2-.7-.6-.7-.6-2v-5.3h-1.3l-.1-.5v-.9l1.5-.2.5-2.6q0-.2.2-.3l.3-.1h1.2v3h2.5v1.6h-2.5V73q0 .5.2.7.3.3.6.3h.4l.2-.2h.2l.2-.2.2.1.1.2.7 1q-.5.5-1.2.7-.6.2-1.3.2zm8-9.8q1 0 1.7.3.7.2 1.3.8.6.5.9 1.4.3.8.3 1.8v.4l-.1.3-.2.1h-6.2q.1 1.6.8 2.2.7.7 1.8.7h1l.7-.4.5-.3.5-.1h.2l.2.2.7.9-.9.7-1 .5-1 .2-1 .1q-1 0-2-.3-.8-.3-1.4-1-.6-.6-1-1.6t-.4-2.2q0-1 .3-1.9.4-.8 1-1.5.5-.6 1.4-1 .8-.3 2-.3zm0 1.6q-1 0-1.5.6-.6.5-.7 1.6h4.3l-.1-.8q-.1-.4-.4-.7-.2-.3-.6-.5-.4-.2-1-.2zm12.8 8q-.5 0-.6-.3l-.2-1-.6.6-.7.5-.8.3-1 .1q-.8 0-1.4-.3-.7-.3-1.1-1-.5-.6-.8-1.5-.2-.9-.2-2 0-1.2.3-2 .3-1 .8-1.7.5-.6 1.3-1 .7-.4 1.7-.4.8 0 1.4.3.5.2 1 .7v-5h2.3v13.8h-1.4zm-3.1-1.6q.7 0 1.2-.3t1-.9v-4.2q-.4-.5-.9-.7-.4-.2-1-.2l-1 .2-.6.6-.5 1-.1 1.4v1.4l.5 1q.2.4.6.5l.8.2zM93 97.6q-.5 0-.6-.4l-.2-1q-.3.4-.7.6l-.7.5-.8.3-1 .1q-.7 0-1.4-.3-.6-.3-1-1-.5-.6-.8-1.5-.3-.9-.3-2 0-1.2.3-2 .3-1 .9-1.7.5-.6 1.3-1 .7-.4 1.7-.4.8 0 1.3.3.6.2 1 .7v-5h2.4v13.8h-1.5zm-3.1-1.7q.7 0 1.2-.3t1-.9v-4.2q-.5-.5-1-.7-.4-.2-1-.2l-.8.2q-.5.2-.8.6-.3.4-.4 1-.2.6-.2 1.4 0 .9.2 1.4 0 .6.3 1t.7.5q.3.2.8.2zm9.4-7.9v9.6H97V88h2.3zm.3-2.8v.6l-.4.4-.5.4h-1.1l-.5-.4-.3-.4-.1-.6.1-.6.3-.4.5-.3q.2-.2.5-.2.4 0 .6.2.3 0 .5.3l.3.4.1.6zm8 4.7l-.2.2h-.6l-.5-.3-.6-.2h-.7q-.7 0-1 .2-.5.3-.5.8 0 .3.2.5l.5.4.8.2.9.3.8.4.8.5q.3.2.5.7.2.4.2 1t-.3 1.2q-.2.6-.7 1l-1.2.7q-.7.2-1.6.2h-1l-.9-.3-.8-.4q-.4-.2-.6-.5l.5-.8.2-.3h.8l.4.3.6.3.9.1h.7l.5-.3.2-.4.1-.4q0-.4-.2-.6l-.5-.4-.7-.3-1-.2-.8-.4-.7-.5q-.4-.3-.6-.7-.2-.5-.2-1.1 0-.6.3-1.1.2-.6.7-1 .4-.4 1-.6l1.6-.2q1 0 1.8.3.9.3 1.4.8l-.5.9zm5.6 7.8q-1.2 0-2-.7-.6-.7-.6-2v-5.3h-1.3l-.1-.5v-.9l1.5-.2.5-2.6q0-.2.2-.3l.3-.1h1.2v3h2.5v1.6H113V95q0 .5.2.7.3.3.6.3h.4l.3-.2h.1l.2-.2.2.1.1.2.7 1q-.5.5-1.2.7-.6.2-1.3.2zm4-.1V88h1.4l.5.1q.2.2.2.5l.1 1.1 1.2-1.4q.7-.5 1.6-.5.7 0 1.2.4l-.3 1.7-.2.2H121.7q-.7 0-1.3.4-.5.4-.8 1.1v6h-2.3zm10.1-9.6v9.6H125V88h2.3zm.4-2.8l-.1.6-.4.4-.4.4h-1.2l-.4-.4-.4-.4v-.6-.6l.4-.4.4-.3.6-.2.6.2q.3 0 .4.3l.4.4v.6zm2.3 12.4V83.7h2.3v5.5q.5-.6 1.3-1 .7-.3 1.6-.3.8 0 1.5.3.6.3 1 1 .6.5.8 1.4.3 1 .3 2.1 0 1-.3 2t-.8 1.6q-.6.7-1.3 1-.8.4-1.7.4h-.8l-.7-.3-.6-.4-.4-.5-.1.6-.2.4H130zm4.5-8q-.8 0-1.3.4-.5.2-1 .8v4.3q.5.5 1 .7.4.2 1 .2.5 0 .9-.2t.7-.6q.3-.4.4-1 .2-.7.2-1.5l-.1-1.4-.4-1-.6-.5-.8-.1zm8.2-1.6v6q0 1 .4 1.5.4.4 1.2.4.6 0 1.1-.2.6-.3 1-.8V88h2.3v9.6h-1.4q-.4 0-.6-.4l-.1-.8-.7.5-.6.5-.8.2-.9.1q-.8 0-1.4-.2-.6-.3-1-.8t-.6-1.1q-.2-.7-.2-1.5V88h2.3zm11.6 9.7q-1.2 0-1.9-.7-.6-.7-.6-2v-5.3h-1.3q-.2-.2-.2-.5v-.9l1.6-.2.4-2.6q0-.2.2-.3l.4-.1h1.1v3h2.6v1.6H154V95q0 .5.3.7.2.3.6.3h.3l.3-.2h.2l.1-.2.2.1.1.2.7 1q-.5.5-1.1.7l-1.4.2zM161 88v9.6h-2.3V88h2.3zm.3-2.8l-.1.6-.3.4-.5.4H159l-.4-.4-.3-.4-.1-.6v-.6l.4-.4.4-.3.6-.2.6.2q.3 0 .5.3l.3.4.1.6zm6.3 2.7q1.1 0 2 .3.9.3 1.5 1 .6.6 1 1.5.3 1 .3 2 0 1.2-.4 2.1-.3 1-1 1.6-.5.6-1.4 1-.9.3-2 .3-1 0-2-.3-.8-.4-1.4-1-.6-.7-1-1.6-.3-.9-.3-2 0-1.2.3-2 .4-1 1-1.6.6-.7 1.5-1 .9-.3 2-.3zm0 8q1.2 0 1.8-.7.6-.9.6-2.4 0-1.6-.6-2.4-.6-.8-1.8-.8-1.2 0-1.7.8-.6.8-.6 2.4 0 1.5.6 2.3.5.9 1.7.9zm6.6 1.7V88h1.4q.4 0 .6.4l.1.8.6-.5.7-.5.8-.2.9-.1q.8 0 1.4.2.6.3 1 .8.4.4.6 1.1.2.7.2 1.5v6h-2.3v-6q0-.9-.4-1.4-.4-.4-1.2-.4-.6 0-1.1.2-.6.3-1 .8v6.9H174z"/><path fill="#000" fill-opacity="0" d="M179.9 62.4h125.7v34.5H179.9z" fill-rule="evenodd"/><path fill="#6aa84f" d="M222.3 62v2.2h-4v11.4h-2.6V64.2h-4V62h10.6zm4 4v9.6h-2.4V66h2.3zm.3-2.8l-.2.6-.3.4-.5.4h-1.1l-.5-.4-.3-.4-.1-.6.1-.6.3-.4.5-.3.6-.2q.3 0 .5.2.3 0 .5.3l.3.4.2.6zm2.2 12.4V66h1.4q.5 0 .6.4l.2.7.5-.5.6-.4.6-.2.8-.1q1 0 1.5.5.6.4.9 1.3l.5-.9.8-.5.8-.3 1-.1q.7 0 1.3.2.7.2 1 .7.5.5.7 1.2.3.6.3 1.5v6H240v-6q0-1-.5-1.4-.4-.4-1.1-.4h-.7l-.5.4-.4.6-.1.8v6h-2.3v-6q0-1-.4-1.4-.4-.4-1.2-.4l-.9.2q-.4.2-.8.7v7h-2.3zm19.7-9.7q.9 0 1.6.3.8.2 1.3.8.6.5.9 1.4.3.8.3 1.8v.7l-.3.1h-6.2q.2 1.6.9 2.2.6.7 1.8.7h1l.7-.4.5-.3.4-.1h.3l.2.2.6.9-.8.7-1 .5-1 .2-1.1.1q-1 0-1.9-.3-.8-.3-1.5-1-.6-.6-1-1.6-.3-1-.3-2.2 0-1 .3-1.9.3-.8.9-1.5.6-.6 1.4-1 .9-.3 2-.3zm0 1.6q-1 0-1.6.6-.5.5-.7 1.6h4.3v-.8l-.4-.7-.7-.5q-.4-.2-.9-.2zm13.7-1.6q1 0 2 .3.8.3 1.4 1 .6.6 1 1.5.3 1 .3 2 0 1.2-.4 2.1-.3 1-.9 1.6-.6.6-1.5 1-.8.3-2 .3-1 0-1.9-.3-.9-.4-1.5-1-.6-.7-1-1.6-.3-.9-.3-2 0-1.2.4-2 .3-1 1-1.6.5-.7 1.4-1 1-.3 2-.3zm0 8q1.2 0 1.7-.7.6-.9.6-2.4 0-1.6-.6-2.4-.5-.8-1.7-.8t-1.8.8q-.6.8-.6 2.4 0 1.5.6 2.3.6.9 1.8.9zm7 1.7v-7.9h-1l-.4-.3-.1-.4v-1h1.4v-.6q0-.8.3-1.5.2-.7.7-1.1.4-.5 1-.7l1.6-.2 1.2.1v1.2q0 .3-.3.3h-.5l-.8.2q-.3 0-.5.3l-.3.6q-.2.3-.2.9v.6h2.5v1.6h-2.4v7.9h-2.3zM224.3 87.9q1 0 1.7.3.8.2 1.3.8.6.5.9 1.4.3.8.3 1.8v.4l-.1.3-.2.1H222q.1 1.6.8 2.2.7.7 1.9.7h1l.6-.4.6-.3.4-.1h.3l.1.2.7.9-.9.7-1 .5-1 .2-1 .1q-1 0-1.9-.3-.9-.3-1.5-1-.6-.6-1-1.6-.3-1-.3-2.2 0-1 .3-1.9.3-.8.9-1.5.6-.6 1.4-1 .9-.3 2-.3zm0 1.6q-1 0-1.5.6-.5.5-.7 1.6h4.3l-.1-.8q-.1-.4-.4-.7-.2-.3-.6-.5-.4-.2-1-.2zm10.6 8h-2.1l-3.9-9.5h2l.4.1q.2.1.2.3l1.9 5.1.2 1 .2.8.2-.9.3-.9 1.9-5q0-.3.2-.4l.4-.1h1.9l-3.8 9.6zm8.8-9.6q.9 0 1.6.3.8.2 1.3.8.6.5.9 1.4.3.8.3 1.8v.4l-.1.3-.2.1h-6.2q.2 1.6.8 2.2.7.7 1.9.7h1l.6-.4.6-.3.4-.1h.3l.1.2.7.9-.9.7-1 .5-1 .2-1 .1q-1 0-1.9-.3-.9-.3-1.5-1-.6-.6-1-1.6-.3-1-.3-2.2 0-1 .3-1.9.3-.8.9-1.5.6-.6 1.4-1 .9-.3 2-.3zm0 1.6q-1 0-1.6.6-.5.5-.7 1.6h4.3l-.1-.8q-.1-.4-.4-.7-.2-.3-.6-.5-.4-.2-.9-.2zm6 8V88h1.4q.4 0 .6.4l.1.8.6-.5.7-.5.8-.2.9-.1q.8 0 1.4.2.6.3 1 .8.4.4.6 1.1.2.7.2 1.5v6h-2.3v-6q0-.9-.4-1.4-.4-.4-1.2-.4-.6 0-1.1.2-.6.3-1 .8v6.9h-2.3zm13.7.2q-1.2 0-1.9-.7t-.7-2v-5.3h-1.3v-1.4l1.5-.2.4-2.6q0-.2.2-.3l.4-.1h1.1v3h2.6v1.6H263V95q0 .5.3.7.2.3.6.3h.3l.3-.2h.2l.1-.2.2.1.1.2.7 1q-.5.5-1.1.7l-1.4.2z"/><path fill="#000" fill-opacity="0" d="M242.7 280H64.4" fill-rule="evenodd"/><path stroke="#e69138" stroke-width="2" stroke-linejoin="round" stroke-linecap="butt" stroke-dasharray="8.0,6.0" d="M242.7 280H64.4" fill-rule="evenodd"/><path fill="#000" fill-opacity="0" d="M13.3 262.8h61.6v34.5H13.3z" fill-rule="evenodd"/><path fill="#e69138" d="M30.8 290l1.5-12.6h1.2l.5.1q.2.2.2.5v1.5q.7-1 1.5-1.6 1-.7 1.9-.7.6 0 1 .3.6.2 1 .6.3.5.4 1.1.2.7.2 1.6l-.1 1.6-.5 1.5-.7 1.3-1 1-1.1.7-1.2.2q-.7 0-1.2-.2t-1-.7l-.4 3.9h-2.2zm5.9-11q-.4 0-.8.3l-.7.7-.7 1-.6 1.4-.2 2.3q.3.4.7.5l.8.2q.6 0 1.1-.4.5-.4.9-1l.5-1.4.2-1.6q0-1-.3-1.5-.3-.4-.9-.4zm6.7 4v1.3l.2 1.4.3 1.4.3 1.3v.7l-.3.2-1 .6-.7-1.7q-.3-.8-.4-1.7l-.3-1.7V283l.1-2.7.6-2.6 1-2.7 1.8-2.7 1 .5.1.2.1.2v.3l-.2.2L45 276l-.8 2.2q-.4 1.1-.6 2.3l-.1 2.5zm3.7 2v-.1-.3-.4l.1-.8.6-4.3h-1.2l-.1-.4v-.1-.3l.1-.6 1.5-.2.7-2.6q0-.2.2-.3l.3-.1h1.3l-.4 3h2.3l-.2 1.6H50l-.5 4.2v.6l-.1.3V284.5l.1.6q.2.2.5.2h.4l.2-.2.2-.1H51l.1.2.5 1q-.5.5-1.1.7l-1.3.2q-1 0-1.6-.5-.6-.6-.6-1.6zm7.9-5.7v-1.4l-.2-1.4-.3-1.4-.4-1.3v-.3-.3l.3-.3 1-.5q.5.7.7 1.6l.5 1.7.2 1.8.1 1.6q0 1.4-.2 2.7-.1 1.3-.6 2.7l-1 2.6q-.7 1.3-1.8 2.8l-.9-.6-.2-.2v-.2-.2l.1-.3q.7-1 1.1-2.1l.9-2.2.5-2.3q.2-1.2.2-2.5z"/><path fill="#000" fill-opacity="0" d="M347.4 332.7V111.5" fill-rule="evenodd"/><path stroke="#c00" stroke-width="2" stroke-linejoin="round" stroke-linecap="butt" stroke-dasharray="8.0,6.0" d="M347.4 332.7V111.5" fill-rule="evenodd"/><path fill="#000" fill-opacity="0" d="M284.9 62.4h125.7v34.5H284.9z" fill-rule="evenodd"/><path fill="#c00" d="M306.8 62v2.2h-4v11.4h-2.5V64.2h-4.1V62h10.6zm4 4v9.6h-2.4V66h2.3zm.3-2.8l-.1.6-.4.4-.4.4H309l-.4-.4-.4-.4v-.6-.6l.4-.4.4-.3.6-.2.6.2q.2 0 .4.3l.4.4v.6zm2.2 12.4V66h1.5q.4 0 .5.4l.2.7.5-.5.6-.4q.3-.2.7-.2l.8-.1q.9 0 1.5.5.5.4.8 1.3.2-.5.6-.9l.7-.5.9-.3.9-.1q.8 0 1.4.2.6.2 1 .7l.7 1.2q.2.6.2 1.5v6h-2.3v-6q0-1-.4-1.4-.4-.4-1.2-.4h-.7l-.5.4-.4.6v6.8h-2.4v-6q0-1-.4-1.4-.4-.4-1.1-.4l-1 .2q-.4.2-.8.7v7h-2.3zm19.7-9.7q1 0 1.7.3.7.2 1.3.8.5.5.8 1.4.3.8.3 1.8v.7l-.2.1h-6.2q.1 1.6.8 2.2.7.7 1.8.7h1l.7-.4.5-.3.5-.1h.2l.2.2.7.9-.9.7-1 .5-1 .2-1 .1q-1 0-2-.3-.8-.3-1.4-1-.7-.6-1-1.6-.4-1-.4-2.2 0-1 .3-1.9.3-.8 1-1.5.5-.6 1.4-1 .8-.3 2-.3zm0 1.6q-1 0-1.5.6-.6.5-.8 1.6h4.4q0-.5-.2-.8 0-.4-.3-.7l-.7-.5q-.3-.2-.8-.2zm13.7-1.6q1 0 2 .3.8.3 1.4 1 .7.6 1 1.5.3 1 .3 2 0 1.2-.3 2.1-.3 1-1 1.6-.6.6-1.4 1-1 .3-2 .3t-2-.3q-.8-.4-1.4-1-.7-.7-1-1.6-.3-.9-.3-2 0-1.2.3-2 .3-1 1-1.6.6-.7 1.5-1 .8-.3 2-.3zm0 8q1.2 0 1.8-.7.5-.9.5-2.4 0-1.6-.5-2.4-.6-.8-1.8-.8-1.2 0-1.8.8-.6.8-.6 2.4 0 1.5.6 2.3.6.9 1.8.9zm7 1.7v-7.9h-.9l-.4-.3q-.2-.1-.2-.4v-1h1.4v-.6q0-.8.3-1.5.2-.7.7-1.1.5-.5 1.1-.7.7-.2 1.5-.2l1.3.1v1.2q-.1.3-.4.3h-.5q-.4 0-.7.2-.4 0-.6.3l-.3.6-.1.9v.6h2.5v1.6H356v7.9h-2.4zm16.4 0q-.4 0-.6-.4l-.2-1-.6.6-.7.5-.8.3-1 .1q-.7 0-1.4-.3-.6-.3-1.1-1-.5-.6-.7-1.5-.3-.9-.3-2 0-1.2.3-2 .3-1 .8-1.7.6-.6 1.3-1 .8-.4 1.7-.4.8 0 1.4.3.6.2 1 .7v-5h2.3v13.8h-1.4zm-3-1.7q.6 0 1.1-.3.6-.3 1-.9v-4.2q-.4-.5-.9-.7-.4-.2-1-.2-.5 0-.9.2t-.7.6l-.5 1-.1 1.4.1 1.4.4 1q.3.4.6.5l.8.2zm14.4 1.7h-1l-.5-.1q-.2-.1-.3-.4l-.2-.7-.7.6-.8.4q-.3.2-.8.2l-.9.1-1.1-.1-.9-.5-.6-.8q-.2-.5-.2-1.2 0-.5.3-1 .3-.6 1-1 .6-.4 1.7-.7 1.1-.3 2.8-.3v-.6q0-1-.4-1.4-.5-.4-1.2-.4h-1l-.6.4-.5.3-.5.1-.4-.1-.3-.3-.4-.8q1.6-1.5 4-1.5.8 0 1.5.3.6.3 1 .8.5.5.8 1.1.2.7.2 1.5v6zM377 74h.7q.3 0 .5-.2l.6-.3.5-.5v-1.6q-1 0-1.7.2-.7 0-1.1.3-.4.2-.6.5-.2.2-.2.5 0 .6.4.9.3.2 1 .2zm10 1.6q-1.3 0-2-.7t-.7-2v-5.3H383l-.1-.5v-.9l1.5-.2.5-2.6q0-.2.2-.3l.3-.1h1.2v3h2.5v1.6h-2.5V73q0 .5.3.7.2.3.6.3h.3l.3-.2h.2l.1-.2.2.1.1.2.7 1q-.5.5-1.1.7l-1.4.2zm11.5-.1h-1l-.6-.1-.2-.4-.2-.7-.8.6-.7.4q-.3.2-.8.2l-1 .1-1-.1-1-.5-.5-.8q-.2-.5-.2-1.2 0-.5.3-1 .3-.6 1-1 .6-.4 1.7-.7 1.1-.3 2.7-.3v-.6q0-1-.4-1.4-.4-.4-1.1-.4h-1l-.6.4-.5.3-.5.1-.4-.1-.3-.3-.4-.8q1.6-1.5 4-1.5.8 0 1.4.3.7.3 1.2.8.4.5.6 1.1.3.7.3 1.5v6zM394 74h.7q.3 0 .5-.2l.5-.3.5-.5v-1.6q-1 0-1.6.2-.7 0-1.1.3-.4.2-.6.5-.2.2-.2.5 0 .6.4.9.3.2 1 .2zM314.7 90q0 .2-.2.2l-.3.1-.3-.1-.4-.2-.6-.3h-.8l-1 .1q-.5.2-.8.7l-.5 1V94l.5 1q.3.4.8.7.4.2 1 .2.5 0 .9-.2l.5-.3.4-.3.4-.1q.3 0 .5.2l.6.9-.8.7-1 .5q-.4.2-1 .2l-1 .1q-.8 0-1.6-.3t-1.4-1q-.6-.6-1-1.5-.3-1-.3-2.1 0-1 .3-2 .3-.9 1-1.5.5-.7 1.4-1 .9-.4 2-.4 1 0 1.9.3.8.3 1.4 1l-.6.8zM321 88q1 0 2 .3.8.3 1.4 1 .6.6 1 1.5.3 1 .3 2 0 1.2-.4 2.1-.3 1-.9 1.6-.6.6-1.5 1-.9.3-2 .3-1 0-1.9-.3-.9-.4-1.5-1-.6-.7-1-1.6-.3-.9-.3-2 0-1.2.4-2 .3-1 1-1.6.5-.7 1.4-1 .9-.3 2-.3zm0 8q1.2 0 1.7-.7.6-.9.6-2.4 0-1.6-.6-2.4-.5-.8-1.7-.8t-1.8.8q-.6.8-.6 2.4 0 1.5.6 2.3.6.9 1.8.9zm9-12.2v13.9h-2.4V83.7h2.3zm5 0v13.9h-2.3V83.7h2.3zm6.6 4.2q.9 0 1.6.3.8.2 1.3.8.6.5.9 1.4.3.8.3 1.8v.4l-.1.3-.2.1h-6.2q.2 1.6.8 2.2.7.7 1.9.7h1l.6-.4.6-.3.4-.1h.3l.1.2.7.9-.9.7-1 .5-1 .2-1 .1q-1 0-1.9-.3-.9-.3-1.5-1-.6-.6-1-1.6-.3-1-.3-2.2 0-1 .3-1.9.3-.8.9-1.5.6-.6 1.4-1 .9-.3 2-.3zm0 1.6q-1 0-1.6.6-.5.5-.7 1.6h4.3l-.1-.8q-.1-.4-.4-.7-.2-.3-.6-.5-.4-.2-.9-.2zm12.7.5l-.2.2-.3.1-.3-.1-.4-.2-.6-.3h-.8l-1 .1q-.5.2-.8.7l-.5 1-.1 1.3q0 .7.2 1.3.1.6.4 1 .3.4.8.7.4.2 1 .2.5 0 .8-.2l.6-.3.4-.3.4-.1q.3 0 .4.2l.7.9-.8.7-1 .5q-.4.2-1 .2l-1 .1q-.9 0-1.6-.3-.8-.3-1.4-1-.6-.6-1-1.5-.3-1-.3-2.1 0-1 .3-2 .3-.9 1-1.5.5-.7 1.4-1 .9-.4 2-.4 1 0 1.9.3.8.3 1.4 1l-.6.8zm5.3 7.7q-1.2 0-1.9-.7t-.7-2v-5.3h-1.3l-.1-.5v-.9l1.5-.2.5-2.6q0-.2.2-.3l.3-.1h1.2v3h2.6v1.6h-2.6V95q0 .5.3.7.2.3.6.3h.3l.3-.2h.2l.1-.2.2.1.1.2.7 1q-.5.5-1.1.7l-1.4.2zm6.5-9.7v9.6h-2.3V88h2.3zm.4-2.8l-.1.6-.4.4-.4.4h-1.2l-.4-.4-.4-.4v-.6-.6l.4-.4.4-.3.6-.2.6.2q.3 0 .4.3l.4.4v.6zm6.3 2.7q1.1 0 2 .3.9.3 1.5 1 .6.6.9 1.5.3 1 .3 2 0 1.2-.3 2.1-.3 1-1 1.6-.5.6-1.4 1-.9.3-2 .3-1 0-2-.3-.8-.4-1.4-1-.6-.7-1-1.6-.3-.9-.3-2 0-1.2.3-2 .4-1 1-1.6.6-.7 1.5-1 .9-.3 2-.3zm0 8q1.2 0 1.8-.7.6-.9.6-2.4 0-1.6-.6-2.4-.6-.8-1.8-.8-1.2 0-1.8.8-.5.8-.5 2.4 0 1.5.5 2.3.6.9 1.8.9zm6.6 1.7V88h1.4q.4 0 .6.4l.1.8.6-.5.7-.5.8-.2.9-.1 1.4.2q.6.3 1 .8.4.4.6 1.1.2.7.2 1.5v6h-2.3v-6q0-.9-.4-1.4-.4-.4-1.2-.4l-1.2.2-1 .8v6.9h-2.2z"/><path fill="#000" fill-opacity="0" d="M3 261.8h61.6v34.5H3z" fill-rule="evenodd"/><path fill="#e69138" d="M34.7 274H32l4.4-4h2.2l2.7 4h-2.6l-1.7-1.7-2.4 1.7z"/><path fill="#000" fill-opacity="0" d="M70.8 4.7h324v34.5h-324z" fill-rule="evenodd"/><path fill="#000" d="M106.2 13.1h.4l.2.1.2.2q.2 0 .3.2l9 11.6v-.8V13.1h2.9v17.4h-1.7l-.6-.1-.5-.5-9.1-11.5v12.1h-2.8V13h1.7zm21.4 4.9q1.2 0 2.1.3 1 .4 1.7 1.1.7.7 1.1 1.8.4 1 .4 2.3v.6l-.1.4-.3.1H124.6q.2 2 1 2.9 1 .9 2.4.9.7 0 1.2-.2l1-.4.6-.3.6-.2h.3l.2.2.9 1.1q-.5.6-1.1 1-.6.4-1.3.6-.6.3-1.3.3l-1.4.2q-1.3 0-2.4-.5-1-.4-1.9-1.2-.8-.9-1.3-2-.4-1.3-.4-3 0-1.2.4-2.3.4-1.1 1.1-2 .8-.8 1.9-1.2 1.1-.5 2.5-.5zm0 2.1q-1.3 0-2 .7t-1 2h5.7l-.2-1-.5-.9q-.3-.4-.8-.6-.5-.2-1.2-.2zm10 4l-4.1-6h2.8q.4 0 .5.2.2 0 .3.2l2.6 4.2.1-.4.2-.5 2.1-3.2.3-.3.4-.1h2.7l-4 5.8 4.2 6.5h-2.9q-.3 0-.5-.2l-.3-.4-2.6-4.3-.3.8-2.3 3.5-.4.4q-.1.2-.4.2h-2.7l4.2-6.4zm14 6.6q-1.6 0-2.5-1-.8-.9-.8-2.4v-7H146.6q-.2-.2-.2-.5v-1.2l2-.3.7-3.4.2-.4.4-.1h1.5v3.9h3.3v2h-3.3V27q0 .6.3 1 .3.3.8.3h.5q.1-.2.3-.2l.2-.2h.5l.1.2 1 1.5q-.7.5-1.6.8-.8.3-1.7.3zm15-12.7q1.1 0 2.1.3 1 .4 1.7 1.1.7.7 1 1.8.5 1 .5 2.3v.6l-.1.4-.3.1H163.6q.1 2 1 2.9 1 .9 2.4.9.7 0 1.2-.2l1-.4.6-.3.6-.2h.3l.2.2.9 1.1q-.5.6-1.1 1-.6.4-1.3.6-.7.3-1.3.3l-1.4.2q-1.3 0-2.4-.5-1-.4-1.9-1.2-.8-.9-1.3-2-.5-1.3-.5-3 0-1.2.5-2.3.4-1.1 1.1-2 .8-.8 1.9-1.2 1-.5 2.5-.5zm0 2.1q-1.3 0-2 .7t-1 2h5.6l-.1-1-.5-.9q-.3-.4-.8-.6-.5-.2-1.2-.2zm13.5 10.4h-2.7l-4.9-12.3h2.5l.5.1.3.4 2.4 6.6.3 1.1.3 1.1.2-1 .4-1.2 2.4-6.6q0-.2.3-.4l.5-.1h2.4l-5 12.3zM191.4 18q1.2 0 2.1.3 1 .4 1.7 1.1.7.7 1.1 1.8.4 1 .4 2.3v.6l-.1.4-.2.1h-8q.2 2 1 2.9 1 .9 2.4.9.7 0 1.2-.2l1-.4.7-.3.5-.2h.3l.3.2.8 1.1-1 1-1.4.6q-.6.3-1.3.3l-1.4.2q-1.2 0-2.3-.5-1.1-.4-2-1.2-.8-.9-1.2-2-.5-1.3-.5-3 0-1.2.4-2.3.4-1.1 1.2-2 .7-.8 1.8-1.2 1.1-.5 2.5-.5zm0 2.1q-1.2 0-2 .7-.7.7-.9 2h5.6l-.2-1q-.1-.5-.5-.9-.3-.4-.8-.6-.5-.2-1.1-.2zm7.7 10.4V18.2h1.9q.5 0 .7.5l.2 1 .8-.7.9-.6 1-.3 1.1-.1q1 0 1.8.3.8.4 1.3 1t.8 1.5q.3.8.3 1.8v7.9h-3v-7.9q0-1.1-.5-1.7-.5-.6-1.6-.6-.8 0-1.4.3-.7.4-1.3 1v8.9h-3zm17.7.2q-1.6 0-2.4-1-.9-.9-.9-2.4v-7h-1.7l-.1-.5v-1.2l2-.3.6-3.4.2-.4.4-.1h1.6v3.9h3.2v2h-3.2V27q0 .6.3 1 .3.3.7.3h.5l.3-.2.3-.2h.4l.2.2.9 1.5q-.7.5-1.5.8-.9.3-1.8.3zm10-.2V12.6h2.9v6.9q.7-.7 1.6-1.1.8-.4 2-.4 1 0 1.8.3.8.4 1.3 1t.8 1.5q.2.8.2 1.8v7.9h-3v-7.9q0-1.1-.5-1.7-.5-.6-1.5-.6-.8 0-1.5.3l-1.2 1v8.9h-3zm23.2 0h-1.3q-.4 0-.7-.2-.2 0-.4-.5l-.2-.8-1 .7-.9.5-1 .3q-.5.2-1.2.2-.8 0-1.4-.2l-1.2-.7-.7-1q-.3-.6-.3-1.5 0-.7.4-1.3.4-.7 1.2-1.3.9-.5 2.3-.9 1.4-.3 3.5-.4v-.7q0-1.2-.5-1.8-.5-.6-1.5-.6l-1.2.1-.9.4-.6.4q-.3.2-.7.2-.3 0-.5-.2l-.3-.4-.6-1q2.1-1.9 5.1-1.9 1.1 0 2 .4.8.3 1.4 1 .6.6.9 1.5.3.9.3 1.9v7.8zm-5.8-1.9h.9l.7-.3.7-.4.6-.6v-2l-2.2.1-1.4.4-.7.6-.2.8q0 .8.4 1.1.5.3 1.2.3zm16-8l-.2.2-.4.1-.4-.1-.6-.3-.7-.2q-.4-.2-1-.2-.9 0-1.4.4-.5.4-.5 1 0 .4.3.6.2.3.6.5l1 .4 1.1.3 1.1.5q.6.2 1 .6l.7.9q.2.5.2 1.3 0 .9-.3 1.6-.3.8-1 1.3-.6.5-1.5.9-.9.3-2 .3-.7 0-1.3-.2-.6 0-1.2-.3l-1-.4-.9-.6.7-1.2.3-.3.5-.1q.3 0 .5.2l.6.3.7.3q.5.2 1.2.2l.9-.1.6-.4.3-.4.2-.6q0-.4-.3-.7l-.7-.5-1-.4-1-.3-1.2-.4-1-.7-.7-1q-.2-.6-.2-1.4 0-.7.3-1.4t.9-1.2q.6-.5 1.4-.8 1-.3 2-.3 1.3 0 2.4.4 1 .4 1.7 1l-.7 1.2zm13.1-2.6q1.4 0 2.5.4 1.1.5 2 1.3.7.8 1.1 2 .5 1.1.5 2.6t-.5 2.6q-.4 1.2-1.2 2-.8.9-1.9 1.3-1.1.5-2.5.5t-2.5-.5q-1.1-.4-2-1.3-.7-.8-1.2-2-.4-1.1-.4-2.6t.4-2.6q.5-1.2 1.3-2t1.9-1.3q1.1-.4 2.5-.4zm0 10.4q1.5 0 2.3-1 .7-1 .7-3t-.7-3.1q-.8-1-2.3-1-1.6 0-2.3 1-.7 1-.7 3t.7 3q.7 1 2.3 1zm17-7.6l-.2.2-.4.1-.4-.1-.5-.3-.8-.3q-.4-.2-1-.2-.8 0-1.4.3l-1 .8q-.3.5-.5 1.3-.2.7-.2 1.7t.2 1.7q.2.8.6 1.3.4.6 1 .8.5.3 1.2.3t1.2-.2l.7-.4.6-.3q.2-.2.5-.2t.5.2l.8 1.1-1 1-1.2.6q-.6.3-1.3.3l-1.3.2q-1.2 0-2.2-.5-1-.4-1.7-1.2-.8-.8-1.2-2-.4-1.2-.4-2.7 0-1.4.3-2.5.4-1.2 1.2-2 .7-.9 1.9-1.3 1-.5 2.5-.5 1.4 0 2.4.4 1 .5 2 1.3l-.9 1zm11.5 0l-.3.2-.3.1-.5-.1-.5-.3-.7-.3q-.4-.2-1-.2-.8 0-1.4.3-.6.3-1 .8t-.6 1.3q-.2.7-.2 1.7t.2 1.7q.3.8.7 1.3.3.6 1 .8.5.3 1.2.3t1.1-.2l.8-.4.5-.3q.2-.2.5-.2.4 0 .5.2l.9 1.1-1 1-1.3.6q-.6.3-1.3.3-.6.2-1.3.2-1.1 0-2.1-.5-1-.4-1.8-1.2-.7-.8-1.2-2-.4-1.2-.4-2.7 0-1.4.4-2.5.4-1.2 1.1-2 .8-.9 2-1.3 1-.5 2.5-.5 1.4 0 2.4.4 1 .5 1.9 1.3l-.8 1zm5.5-2.6V26q0 1.1.5 1.7.5.6 1.6.6.8 0 1.4-.3.7-.3 1.3-1v-8.8h3v12.3h-1.9q-.5 0-.7-.6l-.2-1-.8.8-.9.5-1 .3q-.5.2-1.1.2-1 0-1.8-.4-.8-.3-1.3-1-.5-.6-.8-1.4-.3-.9-.3-2v-7.7h3zm11 12.3V18.2h1.7l.6.1q.2.2.2.6l.2 1.5q.7-1.1 1.6-1.8.9-.7 2-.7.9 0 1.5.4l-.4 2.3q0 .2-.2.3h-.8l-.8-.1q-1 0-1.6.5-.7.5-1.1 1.5v7.7h-3zm9.7 0V18.2h1.8l.6.1q.2.2.2.6l.2 1.5q.7-1.1 1.6-1.8.9-.7 2-.7.9 0 1.5.4l-.4 2.3q0 .2-.2.3h-.8l-.8-.1q-1 0-1.6.5-.7.5-1.1 1.5v7.7h-3zM343 18q1 0 2 .3 1 .4 1.7 1.1.8.7 1.1 1.8.4 1 .4 2.3v1l-.3.1H340q0 2 1 2.9.9.9 2.3.9.7 0 1.3-.2l.9-.4.7-.3.5-.2h.3l.3.2.8 1.1q-.4.6-1 1l-1.4.6q-.6.3-1.3.3l-1.3.2q-1.3 0-2.4-.5-1.1-.4-2-1.2-.8-.9-1.2-2-.5-1.3-.5-3 0-1.2.4-2.3.4-1.1 1.2-2 .7-.8 1.8-1.2 1.1-.5 2.5-.5zm0 2.1q-1.3 0-2 .7-.8.7-1 2h5.6l-.2-1q-.1-.5-.4-.9-.4-.4-.9-.6-.5-.2-1.1-.2zm16.3 10.4q-.6 0-.7-.6l-.3-1.2q-.3.5-.8.8-.4.4-.9.6l-1 .4-1.2.2q-1 0-1.9-.5-.8-.4-1.4-1.2-.6-.8-1-2-.3-1.1-.3-2.7 0-1.3.4-2.5.3-1.2 1-2 .8-.9 1.7-1.4 1-.5 2.2-.5 1 0 1.8.4.7.3 1.3.8v-6.5h3v17.9h-1.9zm-4-2.2q1 0 1.6-.4.7-.4 1.3-1v-5.6q-.5-.6-1.1-.9-.6-.2-1.3-.2-.7 0-1.2.2-.6.3-1 .8-.3.5-.5 1.3t-.2 1.8l.1 1.9.5 1.2q.4.5.8.7l1 .2z"/><path fill="#000" fill-opacity="0" d="M652.5 340.7H837v34.5H652.5z" fill-rule="evenodd"/><path fill="#000" d="M678.2 351.4v2h-4V365h-2.6v-11.5h-4v-2h10.6zm3.9 3.9v9.6h-2.3v-9.6h2.3zm.3-2.8v.6l-.4.4-.5.3-.6.1h-.5l-.5-.4-.3-.4-.1-.6.1-.6.3-.4.5-.4h1.1l.5.4q.2.1.3.4l.1.6zm2.3 12.4v-9.6h1.4q.5 0 .6.4l.1.7.6-.5.6-.4.6-.3h.8q1 0 1.5.4.6.5.9 1.3l.5-.8.8-.5.8-.4h1q.7 0 1.3.2.7.2 1 .7.5.5.7 1.1.2.7.2 1.6v6h-2.3v-6q0-1-.4-1.4-.4-.5-1.1-.5-.4 0-.7.2-.3 0-.5.3-.3.2-.4.6l-.1.8v6h-2.3v-6q0-1-.4-1.4-.4-.5-1.2-.5-.4 0-.9.3-.4.2-.8.7v7h-2.3zm19.7-9.8q.9 0 1.6.3.8.3 1.3.9.6.5.9 1.3.3.8.3 1.9v.4l-.1.3-.2.1H702q.2 1.5.9 2.2.6.7 1.8.7l1-.1.7-.3.5-.3.4-.1h.3l.2.2.6.8-.8.8-1 .5-1 .2h-1.1q-1 0-1.9-.2-.8-.4-1.5-1-.6-.7-1-1.6-.3-1-.3-2.2 0-1 .3-1.9.3-.9.9-1.5.6-.6 1.4-1 .9-.4 2-.4zm0 1.7q-1 0-1.6.6-.5.5-.7 1.6h4.3v-.9l-.5-.7q-.2-.3-.6-.4-.4-.2-.9-.2zm12.7 8.2q-1.2 0-1.9-.7-.6-.7-.6-2V357h-1l-.3-.1q-.2-.1-.2-.4v-.9l1.6-.2.4-2.7.2-.2.4-.1h1.1v3h2.6v1.6h-2.6v5.2q0 .4.3.7.2.2.6.2h.3l.3-.1.2-.1H718.8l.1.1.7 1.1q-.5.5-1.1.7l-1.4.2zm8.2-9.9q1 0 2 .4.8.3 1.4 1 .6.6 1 1.5.3 1 .3 2 0 1.2-.3 2.1-.4 1-1 1.6-.6.6-1.5 1-.8.3-2 .3-1 0-1.9-.4-.8-.3-1.5-1-.6-.6-1-1.5-.3-1-.3-2 0-1.2.4-2 .3-1 1-1.6.6-.7 1.4-1 1-.4 2-.4zm0 8.1q1.2 0 1.8-.8.5-.8.5-2.3 0-1.6-.5-2.4-.6-.8-1.8-.8-1.2 0-1.8.8-.6.8-.6 2.4 0 1.5.6 2.3.6.8 1.8.8zm10.1 1.7v-9.6h1.4q.5 0 .6.4l.2.8.6-.6.7-.4.7-.3h1q.7 0 1.3.2l1 .7q.4.5.6 1.2.3.7.3 1.5v6h-2.4v-6q0-1-.4-1.4-.4-.5-1.2-.5-.6 0-1.1.3l-1 .7v7h-2.3zM750 355q.9 0 1.6.3.8.3 1.3.9.6.5.9 1.3.3.8.3 1.9v.7l-.3.1h-6.2q.2 1.5.9 2.2.6.7 1.8.7l1-.1.7-.3.5-.3.4-.1h.3l.2.2.6.8-.8.8-1 .5-1 .2H750q-1 0-1.9-.2-.8-.4-1.5-1-.6-.7-1-1.6-.3-1-.3-2.2 0-1 .3-1.9.3-.9.9-1.5.6-.6 1.4-1 .9-.4 2-.4zm0 1.7q-1 0-1.6.6-.5.5-.7 1.6h4.3v-.9l-.4-.7q-.3-.3-.7-.4-.4-.2-.9-.2zm7.7 3.1l-3.1-4.6h2.5l.3.3 2 3.2v-.3l.3-.4 1.6-2.5q0-.2.2-.2l.3-.1h2.1l-3.1 4.5 3.2 5h-2.6l-.2-.4-2-3.3-.3.5-1.8 2.8q0 .2-.2.3l-.4.2h-2l3.2-5zm11 5.1q-1.3 0-2-.7-.6-.7-.6-2V357h-1l-.3-.1q-.2-.1-.2-.4v-.9l1.6-.2.5-2.7.1-.2.4-.1h1.2v3h2.5v1.6h-2.5v5.2q0 .4.2.7.2.2.6.2h.3l.3-.1.2-.1H770.3l.2.1.7 1.1q-.6.5-1.2.7-.6.2-1.4.2zm11.6-9.9q.9 0 1.6.3.8.3 1.3.9.6.5 1 1.3.2.8.2 1.9v.7l-.3.1H778q.2 1.5.9 2.2.7.7 1.8.7l1-.1.7-.3.5-.3.4-.1h.3l.2.2.6.8q-.3.5-.8.8l-1 .5-1 .2h-1.1q-1 0-1.9-.2-.8-.4-1.5-1-.6-.7-1-1.6-.3-1-.3-2.2 0-1 .3-1.9.3-.9 1-1.5.5-.6 1.3-1 .9-.4 2-.4zm0 1.7q-1 0-1.6.6-.5.5-.7 1.6h4.3v-.9l-.4-.7q-.3-.3-.7-.4-.4-.2-.9-.2zm10.5 8h-2.1l-3.8-9.5h1.9l.4.1.3.3 1.8 5.1.3 1 .2.8q0-.5.2-.9l.2-.9 2-5q0-.3.2-.4l.4-.1h1.8l-3.8 9.6zm8.8-9.7q.9 0 1.6.3.8.3 1.4.9.5.5.8 1.3.3.8.3 1.9v.7l-.3.1h-6.2q.2 1.5.9 2.2.7.7 1.8.7l1-.1.7-.3.5-.3.5-.1h.2l.2.2.7.8q-.4.5-1 .8l-1 .5-1 .2h-1q-1 0-1.9-.2-.8-.4-1.5-1-.6-.7-1-1.6-.3-1-.3-2.2 0-1 .3-1.9.3-.9 1-1.5.5-.6 1.4-1 .8-.4 1.9-.4zm0 1.7q-1 0-1.5.6-.6.5-.8 1.6h4.4q0-.5-.2-.9 0-.4-.3-.7-.3-.3-.7-.4-.3-.2-.9-.2zm6 8v-9.5h1.4q.5 0 .6.4l.2.8.6-.6.6-.4.8-.3h1q.7 0 1.3.2l1 .7q.4.5.6 1.2.3.7.3 1.5v6h-2.4v-6q0-1-.4-1.4-.4-.5-1.2-.5-.6 0-1.1.3l-1 .7v7h-2.3zm13.8.2q-1.3 0-2-.7-.6-.7-.6-2V357h-1l-.3-.1q-.2-.1-.2-.4v-.9l1.6-.2.5-2.7.1-.2.4-.1h1.2v3h2.5v1.6H819v5.2q0 .4.2.7.2.2.6.2h.3l.3-.1.2-.1H821l.2.1.7 1.1q-.5.5-1.2.7-.6.2-1.3.2z"/><path fill="#000" fill-opacity="0" d="M525.3 263V142h34.5v121z" fill-rule="evenodd"/><path fill="#000" d="M544.7 245.1h4.7v2.5H536v-4.4q0-1.3.3-2.3.3-1 .9-1.7.5-.6 1.3-.9.8-.3 1.8-.3t1.8.3q.8.3 1.4 1l.9 1.6q.3 1 .3 2.3v2zm-2 0v-1.9l-.1-1.2-.5-.8q-.4-.4-.8-.5l-1-.2q-.6 0-1 .2-.5.1-.8.5-.3.3-.4.8-.2.5-.2 1.2v2h4.8zm6.7-9H540v-1.3l.1-.5.4-.2 1.2-.1q-.9-.5-1.4-1.2-.5-.7-.5-1.6 0-.7.3-1.1l1.7.3.3.1v1.3q0 .7.3 1.2.4.5 1.2.9h6v2.3zm-9.7-11.6q0-1.1.4-2 .3-.9 1-1.5.6-.6 1.5-1 1-.3 2-.3 1.2 0 2 .4 1 .3 1.7 1 .6.5 1 1.4.3.9.3 2 0 1-.4 2-.3.8-1 1.4-.6.6-1.5 1-1 .3-2 .3-1.2 0-2.1-.3-1-.4-1.5-1-.7-.6-1-1.5-.4-.9-.4-2zm8.1 0q0-1.2-.8-1.8-.8-.6-2.3-.6-1.6 0-2.4.6-.8.6-.8 1.8 0 1.2.8 1.7.8.6 2.4.6 1.5 0 2.3-.6.8-.5.8-1.7zm1.6-6.6h-13.8v-2.3h5.5q-.7-.6-1-1.3-.4-.7-.4-1.7 0-.7.4-1.4.3-.6.9-1.1.6-.5 1.5-.7 1-.3 2-.3 1.2 0 2 .3 1 .3 1.7.8.6.6 1 1.3.4.8.4 1.7l-.1.8q0 .4-.2.7l-.4.6-.5.4.6.1.4.2v1.9zm-7.9-4.5q0 .8.3 1.3t.9 1h4.3l.6-1q.2-.4.2-1 0-.5-.2-.9t-.6-.7l-1-.5-1.4-.1-1.4.1-1 .4-.5.6-.2.8zm8-13.6v1l-.1.6-.5.2-.6.2.6.8.4.7.2.8.1 1-.2 1q-.1.5-.5 1l-.8.5-1 .2q-.6 0-1.2-.3-.5-.3-1-1l-.6-1.7q-.3-1.1-.3-2.7h-.6q-1 0-1.4.4-.5.4-.5 1.1l.1 1 .3.6.3.5.2.5q0 .3-.2.4 0 .2-.3.3l-.7.4q-1.5-1.6-1.5-4 0-.8.3-1.4.2-.7.7-1.2.5-.4 1.2-.6.7-.3 1.5-.3h6zm-1.5 4.5v-.7l-.2-.5-.4-.5-.4-.5h-1.6l.1 1.6.4 1.1.4.6.6.2q.6 0 .9-.4.2-.3.2-1zm1.4-6.8h-13.8v-2.3h5.5q-.7-.6-1-1.3-.4-.7-.4-1.7 0-.7.4-1.4.3-.6.9-1.1.6-.5 1.5-.7 1-.3 2-.3 1.2 0 2 .3 1 .3 1.7.8.6.6 1 1.3.4.8.4 1.7l-.1.8q0 .4-.2.7l-.4.6-.5.4.6.1.4.2v1.9zm-7.9-4.5q0 .8.3 1.3t.9 1h4.3l.6-1q.2-.4.2-1 0-.5-.2-.9t-.6-.7l-1-.5-1.4-.1-1.4.1-1 .4-.5.6-.2.8zm-1.6-8.5h9.5v2.3H540v-2.3zm-2.8-.4l.5.1.5.4q.2.1.3.4l.1.6v.6l-.4.4-.5.4h-1.1l-.4-.4-.4-.4v-.6-.6l.4-.4.4-.4h.6zm-1.5-4.7h13.8v2.3h-13.8v-2.3zm4.3-5h9.5v2.3H540v-2.4zm-2.8-.4l.5.1.5.3.3.5.1.6v.6l-.4.4-.5.3-.5.1h-.6l-.4-.4-.4-.4v-.6-.6l.4-.5q.1-.2.4-.3l.6-.1zm12.5-5.4q0 1.2-.7 1.9t-2 .7h-5.3v1l-.1.3-.4.1h-1l-.2-1.5-2.6-.5q-.2 0-.2-.2-.2-.1-.2-.3v-1.2h3v-2.5h1.7v2.5h5.2q.4 0 .7-.2l.2-.6v-.4l-.1-.3-.1-.1v-.2-.2l.1-.1 1.1-.7q.5.5.7 1.2.2.6.2 1.3zm2.5-7.5l.3.3q.2.1.2.5v1.7l-3.9-1.8-8.8 3.9v-2l.1-.4.3-.3 5-2 .5-.2.5-.1-.5-.2q-.3 0-.5-.2l-5-2q-.2 0-.3-.2l-.1-.3v-1.9l12.2 5.2z"/><path fill="#000" fill-opacity="0" d="M583.4 62.4H709v34.5H583.4z" fill-rule="evenodd"/><path fill="#15c" d="M609.3 70.8v4.8h-2.5V62h4.4q1.4 0 2.3.3 1 .3 1.7.9.6.6 1 1.4.3.8.3 1.7 0 1-.4 1.8-.3.8-1 1.4-.6.6-1.6.9-1 .3-2.3.3h-1.9zm0-2h2l1.1-.1.9-.5.5-.8.1-1-.1-1-.5-.7-.9-.5q-.5-.2-1.2-.2h-1.9V69zm9 6.8V66h1.3l.5.1q.2.2.2.5l.1 1.1 1.2-1.4q.7-.5 1.6-.5.7 0 1.2.4l-.3 1.7-.2.2H622.7q-.7 0-1.3.4-.5.4-.8 1.1v6h-2.3zm11.5-9.7q1 0 1.7.3.8.2 1.3.8.6.5.9 1.4.3.8.3 1.8v.4l-.1.3-.2.1h-6.2q.1 1.6.8 2.2.7.7 1.9.7h1l.6-.4.6-.3.4-.1h.2l.2.2.7.9-.9.7-1 .5-1 .2-1 .1q-1 0-2-.3-.8-.3-1.4-1-.6-.6-1-1.6-.3-1-.3-2.2 0-1 .3-1.9.3-.8.9-1.5.6-.6 1.4-1 .9-.3 2-.3zm0 1.6q-1 0-1.5.6-.5.5-.7 1.6h4.3l-.1-.8q-.1-.4-.4-.7-.2-.3-.6-.5-.4-.2-1-.2zm12.8 8q-.5 0-.6-.3l-.2-1-.6.6-.7.5-.8.3-1 .1q-.7 0-1.4-.3-.6-.3-1.1-1-.5-.6-.8-1.5-.2-.9-.2-2 0-1.2.3-2 .3-1 .8-1.7.6-.6 1.3-1 .8-.4 1.7-.4.8 0 1.4.3.6.2 1 .7v-5h2.3v13.8h-1.4zm-3-1.6q.6 0 1.1-.3.6-.3 1-.9v-4.2q-.4-.5-.9-.7-.4-.2-1-.2-.5 0-.9.2t-.7.6l-.5 1-.1 1.4.1 1.4q.1.6.4 1 .2.4.6.5l.8.2zM649 66v9.6h-2.4V66h2.4zm.3-2.8l-.1.6-.4.4-.4.4h-1.2l-.4-.4-.3-.4-.2-.6.2-.6q0-.2.3-.4l.4-.3.6-.2.6.2q.3 0 .4.3l.4.4v.6zm9 4.8l-.2.2-.3.1-.4-.1-.4-.2-.5-.3h-.8l-1 .1q-.5.2-.8.7l-.5 1-.1 1.3.1 1.3.5 1 .7.7 1 .2q.6 0 1-.2l.5-.3.4-.3.4-.1q.3 0 .4.2l.7.9-.9.7-.9.5-1 .2-1 .1q-.9 0-1.7-.3-.7-.3-1.3-1-.6-.6-1-1.5-.3-1-.3-2.1 0-1 .3-2 .3-.9.9-1.5.6-.7 1.5-1 .8-.4 2-.4 1 0 1.8.3t1.5 1l-.6.8zm5.3 7.7q-1.2 0-2-.7-.6-.7-.6-2v-5.3h-1.3l-.1-.5v-.9l1.5-.2.5-2.6q0-.2.2-.3l.3-.1h1.2v3h2.5v1.6h-2.5V73q0 .5.2.7.3.3.6.3h.4l.2-.2h.2l.2-.2.2.1.1.2.7 1q-.5.5-1.2.7-.6.2-1.3.2zm8-9.8q1 0 1.7.3.7.2 1.3.8.6.5.9 1.4.3.8.3 1.8v.4l-.1.3-.2.1h-6.2q.1 1.6.8 2.2.7.7 1.8.7h1l.7-.4.5-.3.5-.1h.2l.2.2.7.9-.9.7-1 .5-1 .2-1 .1q-1 0-2-.3-.8-.3-1.4-1-.6-.6-1-1.6t-.4-2.2q0-1 .3-1.9.4-.8 1-1.5.5-.6 1.4-1 .8-.3 2-.3zm0 1.6q-1 0-1.5.6-.6.5-.7 1.6h4.3l-.1-.8q-.1-.4-.4-.7-.2-.3-.6-.5-.4-.2-1-.2zm12.8 8q-.5 0-.6-.3l-.2-1-.6.6-.7.5-.8.3-1 .1q-.8 0-1.4-.3-.7-.3-1.1-1-.5-.6-.8-1.5-.2-.9-.2-2 0-1.2.3-2 .3-1 .8-1.7.5-.6 1.3-1 .7-.4 1.7-.4.8 0 1.4.3.5.2 1 .7v-5h2.3v13.8h-1.4zm-3.1-1.6q.7 0 1.2-.3t1-.9v-4.2q-.4-.5-.9-.7-.4-.2-1-.2l-1 .2-.6.6-.5 1-.1 1.4v1.4l.5 1q.2.4.6.5l.8.2zM605 97.6q-.5 0-.6-.4l-.2-1q-.3.4-.7.6l-.7.5-.8.3-1 .1q-.7 0-1.4-.3-.6-.3-1-1-.5-.6-.8-1.5-.3-.9-.3-2 0-1.2.3-2 .3-1 .9-1.7.5-.6 1.3-1 .7-.4 1.7-.4.8 0 1.3.3.6.2 1 .7v-5h2.4v13.8h-1.5zm-3.1-1.7q.7 0 1.2-.3t1-.9v-4.2q-.5-.5-1-.7-.4-.2-1-.2l-.8.2q-.5.2-.8.6-.3.4-.4 1-.2.6-.2 1.4 0 .9.2 1.4 0 .6.3 1t.7.5q.3.2.8.2zm9.4-7.9v9.6H609V88h2.3zm.3-2.8v.6l-.4.4-.5.4h-1.1l-.5-.4-.3-.4-.1-.6.1-.6.3-.4.5-.3q.2-.2.5-.2.4 0 .6.2.3 0 .5.3l.3.4.1.6zm8 4.7l-.2.2h-.6l-.5-.3-.6-.2h-.7q-.7 0-1 .2-.5.3-.5.8 0 .3.2.5l.5.4.8.2.9.3.8.4.8.5q.3.2.5.7.2.4.2 1t-.3 1.2q-.2.6-.7 1l-1.2.7q-.7.2-1.6.2h-1l-.9-.3-.8-.4q-.4-.2-.6-.5l.5-.8.2-.3h.8l.4.3.6.3.9.1h.7l.5-.3.2-.4.1-.4q0-.4-.2-.6l-.5-.4-.7-.3-1-.2-.8-.4-.7-.5q-.4-.3-.6-.7-.2-.5-.2-1.1 0-.6.3-1.1.2-.6.7-1 .4-.4 1-.6l1.6-.2q1 0 1.8.3.9.3 1.4.8l-.5.9zm5.6 7.8q-1.2 0-2-.7-.6-.7-.6-2v-5.3h-1.3l-.1-.5v-.9l1.5-.2.5-2.6q0-.2.2-.3l.3-.1h1.2v3h2.5v1.6H625V95q0 .5.2.7.3.3.6.3h.4l.3-.2h.1l.2-.2.2.1.1.2.7 1q-.5.5-1.2.7-.6.2-1.3.2zm4-.1V88h1.4l.5.1q.2.2.2.5l.1 1.1 1.2-1.4q.7-.5 1.6-.5.7 0 1.2.4l-.3 1.7-.2.2H633.7q-.7 0-1.3.4-.5.4-.8 1.1v6h-2.3zm10.1-9.6v9.6H637V88h2.3zm.4-2.8l-.1.6-.4.4-.4.4h-1.2l-.4-.4-.4-.4v-.6-.6l.4-.4.4-.3.6-.2.6.2q.3 0 .4.3l.4.4v.6zm2.3 12.4V83.7h2.3v5.5q.5-.6 1.3-1 .7-.3 1.6-.3.8 0 1.5.3.6.3 1 1 .6.5.8 1.4.3 1 .3 2.1 0 1-.3 2t-.8 1.6q-.6.7-1.3 1-.8.4-1.7.4h-.8l-.7-.3-.6-.4-.4-.5-.1.6-.2.4H642zm4.5-8q-.8 0-1.3.4-.5.2-1 .8v4.3q.5.5 1 .7.4.2 1 .2.5 0 .9-.2t.7-.6q.3-.4.4-1 .2-.7.2-1.5l-.1-1.4-.4-1-.6-.5-.8-.1zm8.2-1.6v6q0 1 .4 1.5.4.4 1.2.4.6 0 1.1-.2.6-.3 1-.8V88h2.3v9.6h-1.4q-.4 0-.6-.4l-.1-.8-.7.5-.6.5-.8.2-.9.1q-.8 0-1.4-.2-.6-.3-1-.8t-.6-1.1q-.2-.7-.2-1.5V88h2.3zm11.6 9.7q-1.2 0-1.9-.7-.6-.7-.6-2v-5.3h-1.3q-.2-.2-.2-.5v-.9l1.6-.2.4-2.6q0-.2.2-.3l.4-.1h1.1v3h2.6v1.6H666V95q0 .5.3.7.2.3.6.3h.3l.3-.2h.2l.1-.2.2.1.1.2.7 1q-.5.5-1.1.7l-1.4.2zM673 88v9.6h-2.3V88h2.3zm.3-2.8l-.1.6-.3.4-.5.4H671l-.4-.4-.3-.4-.1-.6v-.6l.4-.4.4-.3.6-.2.6.2q.3 0 .5.3l.3.4.1.6zm6.3 2.7q1.1 0 2 .3.9.3 1.5 1 .6.6 1 1.5.3 1 .3 2 0 1.2-.4 2.1-.3 1-1 1.6-.5.6-1.4 1-.9.3-2 .3-1 0-2-.3-.8-.4-1.4-1-.6-.7-1-1.6-.3-.9-.3-2 0-1.2.3-2 .4-1 1-1.6.6-.7 1.5-1 .9-.3 2-.3zm0 8q1.2 0 1.8-.7.6-.9.6-2.4 0-1.6-.6-2.4-.6-.8-1.8-.8-1.2 0-1.7.8-.6.8-.6 2.4 0 1.5.6 2.3.5.9 1.7.9zm6.6 1.7V88h1.4q.4 0 .6.4l.1.8.6-.5.7-.5.8-.2.9-.1q.8 0 1.4.2.6.3 1 .8.4.4.6 1.1.2.7.2 1.5v6h-2.3v-6q0-.9-.4-1.4-.4-.4-1.2-.4-.6 0-1.1.2-.6.3-1 .8v6.9H686z"/><path fill="#000" fill-opacity="0" d="M784.5 176H956v34.6H784.5z" fill-rule="evenodd"/><path fill="#6aa84f" d="M824 164.8v2h-6v3.7h4.7v2H818v3.8h6v2h-8.6v-13.5h8.6zm6.8 13.5h-2l-3.9-9.6h2l.3.1.3.3 1.8 5.1.3 1 .2.8q0-.5.2-.9l.2-.9 2-5q0-.3.2-.4l.4-.1h1.8l-3.8 9.6zm8.8-9.8q1 0 1.7.3t1.3.9q.5.5.8 1.3.3.8.3 1.9v.7l-.2.1h-6.3q.2 1.5.9 2.2.7.7 1.8.7l1-.1.7-.3.5-.3.5-.1h.2l.2.2.7.8q-.4.5-1 .8l-.9.5-1 .2-1 .1q-1 0-2-.3-.8-.4-1.4-1-.7-.7-1-1.6-.4-1-.4-2.2 0-1 .3-1.9.3-.8 1-1.5.5-.6 1.4-1 .8-.4 1.9-.4zm0 1.7q-1 0-1.5.6-.6.5-.8 1.6h4.4q0-.5-.2-.9 0-.4-.3-.7-.3-.3-.7-.4-.3-.2-.9-.2zm6 8v-9.5h1.4q.5 0 .6.4l.2.8.6-.6.7-.4.7-.3h1q.7 0 1.3.2.6.3 1 .8.4.4.6 1 .3.8.3 1.6v6h-2.3v-6q0-1-.5-1.4-.4-.5-1.2-.5-.6 0-1.1.3l-1 .7v7h-2.3zm13.8.2q-1.3 0-2-.7-.6-.7-.6-2v-5.3h-1l-.3-.1-.1-.4v-.9l1.5-.2.5-2.7.2-.2.3-.1h1.2v3h2.5v1.6h-2.5v5.2q0 .5.2.7.2.3.6.3h.4l.2-.2.2-.1H861l.2.1.7 1.2q-.5.4-1.2.6-.6.2-1.3.2zm7.6-.1v-13.9h2.3v5.3q.6-.5 1.3-.8.7-.4 1.6-.4.7 0 1.3.3.7.3 1 .8.5.4.7 1l.2 1.6v6H873v-6q0-1-.4-1.4-.4-.5-1.2-.5-.6 0-1.2.3l-1 .7v7H867zm18.2 0h-1l-.6-.1q-.2-.1-.3-.4l-.2-.7-.7.6-.7.4-.8.2-1 .1-1-.1-1-.5-.5-.9q-.2-.4-.2-1t.3-1.2q.2-.5.9-1l1.8-.6q1-.3 2.7-.3v-.6q0-1-.4-1.4-.4-.5-1.2-.5l-1 .2q-.3 0-.6.3l-.5.3h-.9l-.3-.3-.4-.8q1.7-1.5 4-1.5.9 0 1.5.3.7.3 1.1.8.5.4.7 1.1.3.7.3 1.5v6zm-4.5-1.5h.6l.6-.2.5-.4q.3-.1.5-.4v-1.6l-1.7.1-1 .4-.7.4-.1.6q0 .6.3.9.4.2 1 .2zm12.4-6.2l-.2.2h-.6l-.5-.3-.5-.2h-.8q-.7 0-1 .2-.5.3-.5.8 0 .3.2.5l.6.3.7.3.9.3.8.4q.5.1.8.4l.5.7q.2.4.2 1 0 .7-.2 1.3-.3.6-.8 1l-1.2.7q-.7.2-1.6.2h-1l-.9-.3-.8-.4-.6-.5.5-.9.3-.2h.7l.5.3.5.3h1.6l.5-.3.3-.3v-.5l-.1-.5-.6-.4-.7-.3-.9-.2-.9-.4-.7-.5-.5-.8q-.2-.4-.2-1l.2-1.2q.2-.5.7-.9.4-.4 1.1-.6.7-.3 1.6-.3 1 0 1.8.4.8.3 1.3.8l-.5.9zm6 7.7v-9.6h1.5q.4 0 .6.4l.1.8.6-.6.7-.4.8-.3h.9q.8 0 1.4.2.6.3 1 .8.4.4.6 1l.2 1.6v6h-2.3v-6q0-1-.4-1.4-.4-.5-1.2-.5-.6 0-1.1.3l-1 .7v7h-2.3zm14.8-9.8q1 0 2 .4.8.3 1.4 1 .6.6 1 1.5.3 1 .3 2 0 1.2-.4 2.1-.3 1-.9 1.6-.6.6-1.5 1-.9.3-2 .3-1 0-1.9-.3-.9-.4-1.5-1-.6-.7-1-1.6-.3-1-.3-2 0-1.2.4-2 .3-1 1-1.6.5-.7 1.4-1 .9-.4 2-.4zm0 8.1q1.2 0 1.7-.8.6-.8.6-2.3 0-1.6-.6-2.4-.5-.8-1.7-.8t-1.8.8q-.6.8-.6 2.4 0 1.5.6 2.3.6.8 1.8.8zm9.6 1.8q-1.2 0-1.9-.7t-.7-2v-5.3h-1l-.2-.1q-.2-.1-.2-.4v-.9l1.6-.2.4-2.7.2-.2.4-.1h1.1v3h2.6v1.6h-2.6v5.2q0 .5.3.7.2.3.6.3h.3l.3-.2.2-.1H925.2l.1.1.7 1.2q-.5.4-1.1.6l-1.4.2zM810.3 202.9l-.3.4h-2.2l1.8-3.7-3.9-9h2q.3 0 .4.2l.3.3 2 5 .2.5.1.5.2-.5q0-.3.2-.5l1.9-5q0-.2.3-.3l.3-.1h1.9l-5.2 12.2zm10.2-12.4q.9 0 1.6.3.8.3 1.3.9.6.5.9 1.3.3.8.3 1.9v.7l-.3.1h-6.2q.2 1.5.9 2.2.6.7 1.8.7l1-.1.7-.3.5-.3.4-.1h.3l.2.2.6.8-.8.8-1 .5-1 .2-1.1.1q-1 0-1.9-.3-.8-.4-1.5-1-.6-.7-1-1.6-.3-1-.3-2.2 0-1 .3-1.9.3-.8.9-1.5.6-.6 1.4-1 .9-.4 2-.4zm0 1.7q-1 0-1.6.6-.5.5-.7 1.6h4.3v-.9l-.4-.7q-.3-.3-.7-.4-.4-.2-.9-.2zm9.1 8.2q-1.2 0-1.9-.7-.6-.7-.6-2v-5.3h-1l-.3-.1q-.2-.1-.2-.4v-.9l1.6-.2.5-2.7.1-.2.4-.1h1.2v3h2.5v1.6h-2.5v5.2q0 .5.2.7.2.3.6.3h.3l.3-.2.2-.1H831.3l.1.1.8 1.2-1.2.6-1.4.2zm11.8-9.9q1 0 2 .4.8.3 1.4 1 .6.6 1 1.5.3 1 .3 2 0 1.2-.3 2.1-.4 1-1 1.6-.6.6-1.5 1-.8.3-2 .3-1 0-1.9-.3-.8-.4-1.5-1-.6-.7-1-1.6-.3-1-.3-2 0-1.2.4-2 .3-1 1-1.6.6-.7 1.4-1 1-.4 2-.4zm0 8.1q1.2 0 1.8-.8.5-.8.5-2.3 0-1.6-.5-2.4-.6-.8-1.8-.8-1.2 0-1.8.8-.6.8-.6 2.4 0 1.5.6 2.3.6.8 1.8.8zm13.2-5.9l-.2.2H853.8l-.4-.3-.5-.2-.8-.1q-.6 0-1.1.2-.5.2-.8.6l-.4 1q-.2.6-.2 1.4 0 .7.2 1.3l.5 1q.3.4.7.6l1 .2h.9l.6-.4.4-.3.4-.1.4.2.6.8q-.3.5-.8.8l-1 .5-1 .2-1 .1q-.8 0-1.6-.3-.8-.4-1.4-1-.5-.6-.9-1.5-.3-1-.3-2.1t.3-2q.3-.9.9-1.6.6-.6 1.4-1 .9-.4 2-.4t1.9.4q.8.3 1.4 1l-.6.8zm9 0l-.3.2H862.7l-.4-.3-.5-.2-.8-.1q-.6 0-1.1.2-.5.2-.8.6l-.4 1q-.2.6-.2 1.4 0 .7.2 1.3l.5 1q.3.4.7.6l1 .2h.9l.6-.4.4-.3.4-.1.4.2.6.8q-.3.5-.8.8l-1 .5-1 .2-1 .1q-.8 0-1.6-.3-.8-.4-1.4-1-.5-.6-.9-1.5-.3-1-.3-2.1t.3-2q.3-.9.9-1.6.6-.6 1.4-1 .9-.4 2-.4t1.9.4q.8.3 1.4 1l-.6.8zm4.2-2v6q0 1 .4 1.4.4.5 1.3.5.5 0 1-.3.6-.2 1-.7v-7h2.4v9.7h-1.4q-.5 0-.6-.5l-.2-.7-.6.5q-.3.3-.7.4l-.8.3-.8.1q-.8 0-1.4-.3-.6-.2-1-.7-.5-.5-.7-1.2-.2-.6-.2-1.4v-6.1h2.3zm8.5 9.6v-9.6h1.4l.5.1.2.5.1 1.1q.5-.9 1.2-1.4.7-.5 1.5-.5t1.2.3l-.3 1.8-.1.2h-.3-1q-.7 0-1.2.3-.5.4-.9 1.2v6h-2.3zm7.6 0v-9.6h1.4l.5.1.2.5.1 1.1q.5-.9 1.2-1.4.7-.5 1.6-.5.7 0 1.1.3l-.3 1.8v.2H888.3q-.8 0-1.3.3-.5.4-.9 1.2v6H884zm11.6-9.8q1 0 1.7.3t1.3.9q.6.5.8 1.3.4.8.4 1.9v.4l-.1.3-.2.1h-6.2q.1 1.5.8 2.2.7.7 1.8.7l1-.1.7-.3.5-.3.5-.1h.2l.2.2.7.8q-.4.5-.9.8l-1 .5-1 .2-1 .1q-1 0-2-.3-.8-.4-1.4-1-.7-.7-1-1.6-.4-1-.4-2.2 0-1 .3-1.9.4-.8 1-1.5.5-.6 1.4-1 .8-.4 2-.4zm0 1.7q-1 0-1.5.6-.6.5-.7 1.6h4.3l-.1-.9-.4-.7-.6-.4q-.4-.2-1-.2zm12.8 8q-.5 0-.6-.4l-.2-.9-.6.6-.7.5-.8.3-1 .1q-.8 0-1.4-.3-.7-.4-1.1-1-.5-.6-.8-1.5l-.2-2q0-1.2.2-2 .3-1 .9-1.7.5-.6 1.3-1 .7-.4 1.7-.4.8 0 1.4.3l1 .6v-5h2.3v13.9h-1.4zm-3.1-1.6q.7 0 1.2-.3t1-.9v-4.3q-.4-.5-.9-.6-.4-.2-1-.2l-1 .2q-.3.1-.6.6-.3.3-.5 1l-.1 1.4v1.4l.5 1q.2.3.6.5l.8.2zm10.6 1.7v-13.9h2.3v5.5q.6-.6 1.3-1 .7-.4 1.7-.4.8 0 1.4.4.6.3 1.1.9.5.6.7 1.5.3 1 .3 2.1 0 1-.3 2-.3.9-.8 1.6-.6.6-1.3 1-.8.4-1.7.4l-.8-.1q-.4 0-.7-.2l-.5-.4-.5-.5-.1.6q0 .3-.2.4h-1.9zm4.5-8q-.7 0-1.3.3-.5.3-.9.9v4.3q.4.5.8.7l1 .1 1-.1q.4-.2.7-.7l.5-1 .1-1.4-.1-1.4q-.1-.6-.4-1l-.6-.5-.8-.2zm9.2 10.6l-.3.4H927l1.8-3.7-3.9-9h2q.3 0 .5.2l.2.3 2 5 .2.5.1.5.2-.5q0-.3.2-.5l2-5q0-.2.2-.3l.4-.1h1.8l-5.2 12.2zM816.7 222.3q-.4 0-.6-.5l-.2-.9-.6.6-.7.5-.8.3-1 .1q-.7 0-1.4-.3-.6-.4-1.1-1-.5-.6-.7-1.5-.3-1-.3-2 0-1.2.3-2 .3-1 .8-1.7.6-.6 1.3-1 .8-.4 1.7-.4.8 0 1.4.3.6.2 1 .6v-5h2.3v13.9h-1.4zm-3-1.7q.7 0 1.2-.3t1-.9v-4.3q-.5-.5-1-.6-.4-.2-1-.2l-.9.2q-.4.1-.7.6-.3.3-.4 1-.2.6-.2 1.4l.1 1.4.4 1 .6.5.8.2zm14.4 1.7h-1l-.5-.1q-.2-.1-.3-.4l-.2-.7-.7.6-.8.4-.7.2-1 .1-1.1-.1-.9-.5-.6-.9q-.2-.4-.2-1t.3-1.2q.3-.5 1-1l1.7-.6q1.1-.3 2.8-.3v-.6q0-1-.4-1.4-.4-.5-1.2-.5-.6 0-1 .2-.3 0-.6.3l-.5.3h-.9l-.3-.3-.4-.8q1.6-1.5 4-1.5.8 0 1.5.3.6.3 1 .8.5.4.8 1.1.2.7.2 1.5v6zm-4.5-1.5h.7l.6-.2.5-.4.5-.4v-1.6l-1.7.1-1.1.4-.6.4-.2.6q0 .6.4.9.4.2 1 .2zm10 1.6q-1.3 0-2-.7t-.7-2v-5.3h-1l-.3-.1V213l1.5-.2.4-2.7.2-.2.4-.1h1.1v3h2.6v1.6h-2.6v5.2q0 .5.3.7.2.3.6.3h.3l.3-.2.2-.1H835.2l.1.1.7 1.2q-.5.4-1.1.6l-1.4.2zm11.5-.1h-1l-.5-.1q-.2-.1-.3-.4l-.2-.7-.7.6-.8.4-.8.2-.9.1-1.1-.1-.9-.5q-.4-.4-.6-.9-.2-.4-.2-1t.3-1.2q.3-.5 1-1l1.7-.6q1.1-.3 2.8-.3v-.6q0-1-.5-1.4-.4-.5-1.1-.5-.6 0-1 .2-.3 0-.6.3l-.5.3h-.9l-.3-.3-.4-.8q1.6-1.5 4-1.5.8 0 1.5.3.6.3 1 .8.5.4.8 1.1.2.7.2 1.5v6zm-4.5-1.5h.7l.5-.2.6-.4.5-.4v-1.6l-1.7.1-1.1.4-.6.4-.2.6q0 .6.4.9.3.2 1 .2zm17-6l-.1.1h-.6l-.4-.3-.6-.2-.8-.1q-.6 0-1 .2-.5.2-.8.6l-.5 1-.1 1.4.1 1.3.5 1q.3.4.8.6.4.2 1 .2h.8l.6-.4.4-.3.4-.1q.3 0 .4.2l.7.8-.8.8-1 .5-1 .2-1 .1q-.9 0-1.6-.3-.8-.4-1.4-1-.6-.6-1-1.5-.3-1-.3-2.1t.3-2q.3-.9 1-1.6.5-.6 1.4-1 .8-.4 2-.4 1 0 1.8.4.9.3 1.5 1l-.6.8zm6.3-2.3q1.1 0 2 .4.9.3 1.5 1 .6.6 1 1.5.3 1 .3 2 0 1.2-.4 2.1-.3 1-1 1.6-.5.6-1.4 1-.9.3-2 .3-1 0-1.9-.3-.9-.4-1.5-1-.6-.7-1-1.6-.3-1-.3-2 0-1.2.3-2 .4-1 1-1.6.6-.7 1.5-1 .9-.4 2-.4zm0 8.1q1.3 0 1.8-.8.6-.8.6-2.3 0-1.6-.6-2.4-.5-.8-1.8-.8-1.2 0-1.7.8-.6.8-.6 2.4 0 1.5.6 2.3.5.8 1.7.8zm9-12.2v13.9h-2.3v-13.9h2.3zm5 0v13.9h-2.2v-13.9h2.3zm6.6 4.1q1 0 1.7.3.8.3 1.3.9.6.5.9 1.3.3.8.3 1.9v.4l-.1.3-.2.1h-6.2q.1 1.5.8 2.2.7.7 1.9.7l1-.1.6-.3.6-.3.4-.1h.2q.2 0 .2.2l.7.8q-.4.5-.9.8l-1 .5-1 .2-1 .1q-1 0-2-.3-.8-.4-1.4-1-.6-.7-1-1.6-.4-1-.4-2.2 0-1 .4-1.9.3-.8.9-1.5.6-.6 1.4-1 .9-.4 2-.4zm0 1.7q-1 0-1.5.6-.6.5-.7 1.6h4.3l-.1-.9q-.1-.4-.4-.7-.2-.3-.6-.4-.4-.2-1-.2zm12.8.5l-.2.2h-.6l-.5-.3-.5-.2-.8-.1q-.6 0-1 .2-.5.2-.8.6l-.5 1-.1 1.4.1 1.3.5 1q.3.4.8.6.4.2 1 .2h.8l.6-.4.4-.3.4-.1q.3 0 .4.2l.7.8-.8.8-1 .5-1 .2-1 .1q-.9 0-1.7-.3-.7-.4-1.3-1-.6-.6-1-1.5-.3-1-.3-2.1t.3-2q.3-.9 1-1.6.5-.6 1.4-1 .8-.4 2-.4 1 0 1.8.4.8.3 1.5 1l-.6.8zm5.3 7.7q-1.2 0-2-.7-.6-.7-.6-2v-5.3h-1l-.3-.1-.1-.4v-.9l1.5-.2.5-2.7.2-.2.3-.1h1.2v3h2.5v1.6h-2.5v5.2q0 .5.2.7.3.3.6.3h.4q.1-.2.3-.2l.1-.1h.4l.1.1.7 1.2q-.5.4-1.2.6-.6.2-1.3.2zm6.5-9.7v9.6h-2.3v-9.6h2.3zm.4-2.8l-.1.6-.4.4-.4.3-.6.1h-.6l-.5-.4-.3-.4v-.6-.6l.3-.4.5-.3.6-.2.6.2q.2 0 .4.3l.4.4v.6zm6.3 2.6q1 0 2 .4.8.3 1.5 1 .6.6.9 1.5.3 1 .3 2 0 1.2-.3 2.1-.3 1-1 1.6-.6.6-1.4 1-1 .3-2 .3t-2-.3q-.8-.4-1.4-1-.6-.7-1-1.6-.3-1-.3-2 0-1.2.3-2 .4-1 1-1.6.6-.7 1.5-1 .9-.4 2-.4zm0 8.1q1.2 0 1.8-.8.6-.8.6-2.3 0-1.6-.6-2.4-.6-.8-1.8-.8-1.2 0-1.8.8-.5.8-.5 2.4 0 1.5.5 2.3.6.8 1.8.8zm6.5 1.7v-9.6h1.4q.5 0 .6.4l.2.8.6-.6.7-.4.7-.3h1q.7 0 1.3.2.7.3 1 .8.5.4.7 1l.2 1.6v6h-2.3v-6q0-1-.4-1.4-.4-.5-1.3-.5-.5 0-1 .3l-1 .7v7h-2.4z"/><path fill="#000" fill-opacity="0" d="M798.6 266.9h83v34.5h-83z" fill-rule="evenodd"/><path fill="#e69138" d="M826.9 280l-.3.3h-.7l-.5-.4-.6-.3q-.4-.2-.9-.2t-.9.2q-.4.1-.6.4-.3.2-.5.6v.8l.1.7.6.5.8.3 1 .4.9.4.8.6.6.9q.2.5.2 1.2 0 1-.4 1.9-.3.8-1 1.5-.6.6-1.5 1t-2 .4l-1.2-.1q-.6-.1-1-.4l-1-.5q-.4-.3-.7-.8l.8-1.1.3-.2.3-.1h.3l.3.3.4.3.4.3.6.2.8.1q1 0 1.6-.6.6-.6.6-1.6 0-.5-.2-.8-.2-.3-.6-.5l-.8-.3-.9-.4-.9-.4-.8-.6q-.4-.3-.6-.8-.2-.6-.2-1.3 0-.9.3-1.7.4-.8 1-1.4.6-.6 1.4-1 .9-.4 2-.4l1 .2q.5 0 1 .3l.7.5.7.6-.7 1zm3.3 7v1.4l.2 1.4.3 1.4.3 1.3.1.3-.1.4-.3.2-1 .6-.7-1.7-.4-1.7-.3-1.7v-1.7l.1-2.7.6-2.6q.4-1.3 1.1-2.7.7-1.3 1.7-2.7l1 .5.1.2.1.2v.3l-.2.2-1.1 2.1-.8 2.2q-.4 1.1-.5 2.3-.2 1.2-.2 2.5zm2.4 7.2l1.6-12.7h1.1l.6.1q.2.2.2.5v1.6q.6-1.1 1.5-1.7.9-.6 1.8-.6.6 0 1.1.2.5.2.9.6l.5 1.1q.2.7.2 1.6l-.2 1.6-.5 1.5-.7 1.3q-.4.6-1 1l-1 .7q-.6.2-1.3.2l-1.2-.2q-.5-.2-.9-.7l-.4 3.9h-2.3zm6-11l-.8.2-.8.7-.7 1.1-.5 1.3-.3 2.3.7.5q.4.2.9.2.6 0 1-.4.6-.4 1-1l.5-1.4.2-1.5q0-1-.3-1.5-.4-.5-1-.5zm4.2 6.5v-.5l.3-.4.5-.3.5-.1.7.1.4.4q.2.2.2.5l.1.6-.1 1-.4.9-.7 1-.8.8-.4-.3-.2-.4.2-.3.3-.4.4-.6.3-.7h-.5l-.5-.3-.2-.5-.1-.5zm8.8-.6v-.1-.3-.4l.1-.8.6-4.3H851l-.1-.4v-.1-.3l.1-.6 1.5-.2.7-2.6.2-.3.3-.1h1.3l-.4 3h2.3l-.2 1.6h-2.3l-.5 4.2v.6l-.1.4v.2l.1.6q.2.2.5.2h.4l.2-.2h.2l.1-.2.2.1.1.2.5 1q-.5.5-1.1.7l-1.3.2q-1 0-1.6-.5-.6-.6-.6-1.6zm7.9-5.7V282l-.2-1.4-.3-1.4-.4-1.3v-.3-.3l.3-.3 1-.5q.5.7.7 1.6l.5 1.7.2 1.8.1 1.6q0 1.4-.2 2.7-.1 1.3-.6 2.7l-1 2.6q-.7 1.3-1.8 2.8l-.9-.6-.2-.2v-.2-.2l.1-.3q.7-1 1.1-2.1l.9-2.2.5-2.3q.2-1.2.2-2.5z"/><path fill="#000" fill-opacity="0" d="M763.4 332.7V111.5" fill-rule="evenodd"/><path stroke="#c00" stroke-width="2" stroke-linejoin="round" stroke-linecap="butt" stroke-dasharray="8.0,6.0" d="M763.4 332.7V111.5" fill-rule="evenodd"/><path fill="#000" fill-opacity="0" d="M700.9 62.4h125.7v34.5H700.9z" fill-rule="evenodd"/><path fill="#c00" d="M722.8 62v2.2h-4v11.4h-2.5V64.2h-4.1V62h10.6zm4 4v9.6h-2.4V66h2.3zm.3-2.8l-.1.6-.4.4-.4.4H725l-.4-.4-.4-.4v-.6-.6l.4-.4.4-.3.6-.2.6.2q.2 0 .4.3l.4.4v.6zm2.2 12.4V66h1.5q.4 0 .5.4l.2.7.5-.5.6-.4q.3-.2.7-.2l.8-.1q.9 0 1.5.5.5.4.8 1.3.2-.5.6-.9l.7-.5.9-.3.9-.1q.8 0 1.4.2.6.2 1 .7l.7 1.2q.2.6.2 1.5v6h-2.3v-6q0-1-.4-1.4-.4-.4-1.2-.4h-.7l-.5.4-.4.6v6.8h-2.4v-6q0-1-.4-1.4-.4-.4-1.1-.4l-1 .2q-.4.2-.8.7v7h-2.3zm19.7-9.7q1 0 1.7.3.7.2 1.3.8.5.5.8 1.4.3.8.3 1.8v.7l-.2.1h-6.2q.1 1.6.8 2.2.7.7 1.8.7h1l.7-.4.5-.3.5-.1h.2l.2.2.7.9-.9.7-1 .5-1 .2-1 .1q-1 0-2-.3-.8-.3-1.4-1-.7-.6-1-1.6-.4-1-.4-2.2 0-1 .3-1.9.3-.8 1-1.5.5-.6 1.4-1 .8-.3 2-.3zm0 1.6q-1 0-1.5.6-.6.5-.8 1.6h4.4q0-.5-.2-.8 0-.4-.3-.7l-.7-.5q-.3-.2-.8-.2zm13.7-1.6q1 0 2 .3.8.3 1.4 1 .7.6 1 1.5.3 1 .3 2 0 1.2-.3 2.1-.3 1-1 1.6-.6.6-1.4 1-1 .3-2 .3t-2-.3q-.8-.4-1.4-1-.7-.7-1-1.6-.3-.9-.3-2 0-1.2.3-2 .3-1 1-1.6.6-.7 1.5-1 .8-.3 2-.3zm0 8q1.2 0 1.8-.7.5-.9.5-2.4 0-1.6-.5-2.4-.6-.8-1.8-.8-1.2 0-1.8.8-.6.8-.6 2.4 0 1.5.6 2.3.6.9 1.8.9zm7 1.7v-7.9h-.9l-.4-.3q-.2-.1-.2-.4v-1h1.4v-.6q0-.8.3-1.5.2-.7.7-1.1.5-.5 1.1-.7.7-.2 1.5-.2l1.3.1v1.2q-.1.3-.4.3h-.5q-.4 0-.7.2-.4 0-.6.3l-.3.6-.1.9v.6h2.5v1.6H772v7.9h-2.4zm16.4 0q-.4 0-.6-.4l-.2-1-.6.6-.7.5-.8.3-1 .1q-.7 0-1.4-.3-.6-.3-1.1-1-.5-.6-.7-1.5-.3-.9-.3-2 0-1.2.3-2 .3-1 .8-1.7.6-.6 1.3-1 .8-.4 1.7-.4.8 0 1.4.3.6.2 1 .7v-5h2.3v13.8h-1.4zm-3-1.7q.6 0 1.1-.3.6-.3 1-.9v-4.2q-.4-.5-.9-.7-.4-.2-1-.2-.5 0-.9.2t-.7.6l-.5 1-.1 1.4.1 1.4.4 1q.3.4.6.5l.8.2zm14.4 1.7h-1l-.5-.1q-.2-.1-.3-.4l-.2-.7-.7.6-.8.4q-.3.2-.8.2l-.9.1-1.1-.1-.9-.5-.6-.8q-.2-.5-.2-1.2 0-.5.3-1 .3-.6 1-1 .6-.4 1.7-.7 1.1-.3 2.8-.3v-.6q0-1-.4-1.4-.5-.4-1.2-.4h-1l-.6.4-.5.3-.5.1-.4-.1-.3-.3-.4-.8q1.6-1.5 4-1.5.8 0 1.5.3.6.3 1 .8.5.5.8 1.1.2.7.2 1.5v6zM793 74h.7q.3 0 .5-.2l.6-.3.5-.5v-1.6q-1 0-1.7.2-.7 0-1.1.3-.4.2-.6.5-.2.2-.2.5 0 .6.4.9.3.2 1 .2zm10 1.6q-1.3 0-2-.7t-.7-2v-5.3H799l-.1-.5v-.9l1.5-.2.5-2.6q0-.2.2-.3l.3-.1h1.2v3h2.5v1.6h-2.5V73q0 .5.3.7.2.3.6.3h.3l.3-.2h.2l.1-.2.2.1.1.2.7 1q-.5.5-1.1.7l-1.4.2zm11.5-.1h-1l-.6-.1-.2-.4-.2-.7-.8.6-.7.4q-.3.2-.8.2l-1 .1-1-.1-1-.5-.5-.8q-.2-.5-.2-1.2 0-.5.3-1 .3-.6 1-1 .6-.4 1.7-.7 1.1-.3 2.7-.3v-.6q0-1-.4-1.4-.4-.4-1.1-.4h-1l-.6.4-.5.3-.5.1-.4-.1-.3-.3-.4-.8q1.6-1.5 4-1.5.8 0 1.4.3.7.3 1.2.8.4.5.6 1.1.3.7.3 1.5v6zM810 74h.7q.3 0 .5-.2l.5-.3.5-.5v-1.6q-1 0-1.6.2-.7 0-1.1.3-.4.2-.6.5-.2.2-.2.5 0 .6.4.9.3.2 1 .2zM730.7 90q0 .2-.2.2l-.3.1-.3-.1-.4-.2-.6-.3h-.8l-1 .1q-.5.2-.8.7l-.5 1V94l.5 1q.3.4.8.7.4.2 1 .2.5 0 .9-.2l.5-.3.4-.3.4-.1q.3 0 .5.2l.6.9-.8.7-1 .5q-.4.2-1 .2l-1 .1q-.8 0-1.6-.3t-1.4-1q-.6-.6-1-1.5-.3-1-.3-2.1 0-1 .3-2 .3-.9 1-1.5.5-.7 1.4-1 .9-.4 2-.4 1 0 1.9.3.8.3 1.4 1l-.6.8zM737 88q1 0 2 .3.8.3 1.4 1 .6.6 1 1.5.3 1 .3 2 0 1.2-.4 2.1-.3 1-.9 1.6-.6.6-1.5 1-.9.3-2 .3-1 0-1.9-.3-.9-.4-1.5-1-.6-.7-1-1.6-.3-.9-.3-2 0-1.2.4-2 .3-1 1-1.6.5-.7 1.4-1 .9-.3 2-.3zm0 8q1.2 0 1.7-.7.6-.9.6-2.4 0-1.6-.6-2.4-.5-.8-1.7-.8t-1.8.8q-.6.8-.6 2.4 0 1.5.6 2.3.6.9 1.8.9zm9-12.2v13.9h-2.4V83.7h2.3zm5 0v13.9h-2.3V83.7h2.3zm6.6 4.2q.9 0 1.6.3.8.2 1.3.8.6.5.9 1.4.3.8.3 1.8v.4l-.1.3-.2.1h-6.2q.2 1.6.8 2.2.7.7 1.9.7h1l.6-.4.6-.3.4-.1h.3l.1.2.7.9-.9.7-1 .5-1 .2-1 .1q-1 0-1.9-.3-.9-.3-1.5-1-.6-.6-1-1.6-.3-1-.3-2.2 0-1 .3-1.9.3-.8.9-1.5.6-.6 1.4-1 .9-.3 2-.3zm0 1.6q-1 0-1.6.6-.5.5-.7 1.6h4.3l-.1-.8q-.1-.4-.4-.7-.2-.3-.6-.5-.4-.2-.9-.2zm12.7.5l-.2.2-.3.1-.3-.1-.4-.2-.6-.3h-.8l-1 .1q-.5.2-.8.7l-.5 1-.1 1.3q0 .7.2 1.3.1.6.4 1 .3.4.8.7.4.2 1 .2.5 0 .8-.2l.6-.3.4-.3.4-.1q.3 0 .4.2l.7.9-.8.7-1 .5q-.4.2-1 .2l-1 .1q-.9 0-1.6-.3-.8-.3-1.4-1-.6-.6-1-1.5-.3-1-.3-2.1 0-1 .3-2 .3-.9 1-1.5.5-.7 1.4-1 .9-.4 2-.4 1 0 1.9.3.8.3 1.4 1l-.6.8zm5.3 7.7q-1.2 0-1.9-.7t-.7-2v-5.3h-1.3l-.1-.5v-.9l1.5-.2.5-2.6q0-.2.2-.3l.3-.1h1.2v3h2.6v1.6h-2.6V95q0 .5.3.7.2.3.6.3h.3l.3-.2h.2l.1-.2.2.1.1.2.7 1q-.5.5-1.1.7l-1.4.2zm6.5-9.7v9.6h-2.3V88h2.3zm.4-2.8l-.1.6-.4.4-.4.4h-1.2l-.4-.4-.4-.4v-.6-.6l.4-.4.4-.3.6-.2.6.2q.3 0 .4.3l.4.4v.6zm6.3 2.7q1.1 0 2 .3.9.3 1.5 1 .6.6.9 1.5.3 1 .3 2 0 1.2-.3 2.1-.3 1-1 1.6-.5.6-1.4 1-.9.3-2 .3-1 0-2-.3-.8-.4-1.4-1-.6-.7-1-1.6-.3-.9-.3-2 0-1.2.3-2 .4-1 1-1.6.6-.7 1.5-1 .9-.3 2-.3zm0 8q1.2 0 1.8-.7.6-.9.6-2.4 0-1.6-.6-2.4-.6-.8-1.8-.8-1.2 0-1.8.8-.5.8-.5 2.4 0 1.5.5 2.3.6.9 1.8.9zm6.6 1.7V88h1.4q.4 0 .6.4l.1.8.6-.5.7-.5.8-.2.9-.1 1.4.2q.6.3 1 .8.4.4.6 1.1.2.7.2 1.5v6h-2.3v-6q0-.9-.4-1.4-.4-.4-1.2-.4l-1.2.2-1 .8v6.9h-2.2z"/><path fill="#000" fill-opacity="0" d="M548 4.7h409.5v34.5H548z" fill-rule="evenodd"/><path fill="#000" d="M593 13.1h.3l.2.1q.2 0 .3.2l.2.2 9.1 11.6v-.8V13.1h2.8v17.4h-1.7l-.6-.1-.5-.5-9-11.5v12.1h-2.9V13h1.7zm21.3 4.9q1.2 0 2.1.3 1 .4 1.7 1.1.7.7 1.1 1.8.4 1 .4 2.3v.6l-.1.4-.2.1h-8q.2 2 1 2.9 1 .9 2.4.9.7 0 1.2-.2l1-.4.6-.3.6-.2h.3l.3.2.8 1.1-1 1-1.4.6q-.6.3-1.3.3l-1.4.2q-1.2 0-2.4-.5-1-.4-1.9-1.2-.8-.9-1.3-2-.4-1.3-.4-3 0-1.2.4-2.3.4-1.1 1.2-2 .7-.8 1.8-1.2 1.1-.5 2.5-.5zm0 2.1q-1.2 0-2 .7-.7.7-1 2h5.7l-.2-1q-.1-.5-.5-.9-.3-.4-.8-.6-.5-.2-1.1-.2zm10 4l-4.1-6h2.8q.4 0 .5.2.2 0 .3.2l2.6 4.2.1-.4.2-.5 2.1-3.2.3-.3.4-.1h2.7l-4 5.8 4.2 6.5h-2.9q-.3 0-.5-.2l-.3-.4-2.6-4.3-.3.8-2.3 3.5-.3.4q-.2.2-.5.2H620l4.2-6.4zm14 6.6q-1.6 0-2.5-1-.8-.9-.8-2.4v-7h-1.7l-.1-.5v-1.2l2-.3.6-3.4.2-.4.4-.1h1.6v3.9h3.2v2H638V27q0 .6.2 1 .3.3.8.3h.5l.3-.2.3-.2h.4l.2.2.9 1.5q-.7.5-1.5.8-.9.3-1.8.3zm15-12.7q1.2 0 2.1.3 1 .4 1.7 1.1.7.7 1.1 1.8.4 1 .4 2.3v.6l-.1.4-.2.1h-8q.2 2 1 2.9 1 .9 2.4.9.7 0 1.2-.2l1-.4.6-.3.6-.2h.3l.2.2.9 1.1q-.5.6-1.1 1-.6.4-1.3.6-.6.3-1.3.3l-1.4.2q-1.3 0-2.4-.5-1-.4-1.9-1.2-.8-.9-1.3-2-.4-1.3-.4-3 0-1.2.4-2.3.4-1.1 1.1-2 .8-.8 1.9-1.2 1.1-.5 2.5-.5zm0 2.1q-1.2 0-2 .7-.7.7-1 2h5.7l-.2-1-.5-.9q-.3-.4-.8-.6-.5-.2-1.2-.2zm13.5 10.4h-2.7l-4.9-12.3h2.5l.5.1.3.4 2.4 6.6.3 1.1.3 1.1.2-1 .4-1.2 2.4-6.6.3-.4.5-.1h2.4l-4.9 12.3zM678.1 18q1.2 0 2.2.3 1 .4 1.7 1.1.7.7 1 1.8.5 1 .5 2.3v.6l-.2.4-.2.1H675.2q.1 2 1 2.9.9.9 2.3.9.8 0 1.3-.2l.9-.4.7-.3.5-.2h.4l.2.2.8 1.1q-.4.6-1 1l-1.3.6q-.7.3-1.4.3l-1.3.2q-1.3 0-2.4-.5-1.1-.4-2-1.2-.8-.9-1.2-2-.5-1.3-.5-3 0-1.2.4-2.3.4-1.1 1.2-2 .7-.8 1.8-1.2 1.2-.5 2.5-.5zm0 2.1q-1.2 0-2 .7-.7.7-.9 2h5.6l-.2-1q-.1-.5-.4-.9-.4-.4-.9-.6-.5-.2-1.1-.2zm7.8 10.4V18.2h1.8q.6 0 .7.5l.2 1 .8-.7.9-.6 1-.3 1.1-.1q1 0 1.8.3.8.4 1.3 1t.8 1.5q.3.8.3 1.8v7.9h-3v-7.9q0-1.1-.5-1.7-.5-.6-1.6-.6-.7 0-1.4.3-.7.4-1.3 1v8.9h-3zm17.7.2q-1.6 0-2.5-1-.9-.9-.9-2.4v-7h-1.6q-.2-.2-.2-.5v-1.2l2-.3.6-3.4.2-.4.5-.1h1.5v3.9h3.2v2h-3.2V27q0 .6.3 1 .3.3.8.3h.4l.3-.2.3-.2h.4l.2.2.9 1.5q-.7.5-1.5.8-.8.3-1.7.3zm9.8-.2V12.6h3v6.9q.7-.7 1.6-1.1.8-.4 2-.4 1 0 1.8.3.8.4 1.3 1t.8 1.5q.3.8.3 1.8v7.9h-3v-7.9q0-1.1-.5-1.7-.6-.6-1.6-.6-.8 0-1.4.3-.7.4-1.3 1v8.9h-3zm23.3 0h-1.3q-.4 0-.7-.2-.2 0-.3-.5l-.3-.8-1 .7-.8.5-1 .3q-.6.2-1.3.2l-1.4-.2q-.7-.3-1.1-.7-.5-.4-.8-1-.2-.6-.2-1.5 0-.7.3-1.3.4-.7 1.2-1.3.9-.5 2.3-.9 1.4-.3 3.5-.4v-.7q0-1.2-.5-1.8-.5-.6-1.5-.6l-1.2.1-.8.4-.7.4q-.3.2-.7.2-.3 0-.5-.2l-.3-.4-.6-1q2.2-1.9 5.2-1.9 1 0 1.9.4.8.3 1.4 1 .6.6 1 1.5.2.9.2 1.9v7.8zm-5.7-1.9h.8l.7-.3.7-.4.6-.6v-2l-2.1.1-1.4.4q-.6.3-.8.6l-.2.8q0 .8.5 1.1.4.3 1.2.3zm16-8l-.3.2-.3.1-.5-.1-.6-.3-.7-.2q-.4-.2-1-.2-.9 0-1.4.4-.5.4-.5 1 0 .4.3.6.2.3.7.5l1 .4 1 .3 1.1.5q.6.2 1 .6l.7.9q.3.5.3 1.3 0 .9-.4 1.6-.3.8-1 1.3-.5.5-1.5.9-.9.3-2 .3-.7 0-1.3-.2-.6 0-1.2-.3l-1-.4-.8-.6.6-1.2.4-.3.4-.1q.3 0 .5.2l.6.3.8.3q.4.2 1 .2l1-.1.6-.4.4-.4V27q0-.4-.2-.7-.2-.3-.7-.5l-1-.4-1-.3-1.2-.4-1-.7q-.4-.4-.6-1-.3-.6-.3-1.4 0-.7.3-1.4t.9-1.2q.6-.5 1.5-.8.8-.3 2-.3t2.3.4q1 .4 1.7 1l-.7 1.2zm3.1 9.9V18.2h1.8q.6 0 .8.5l.2 1 .8-.7.9-.6 1-.3 1.1-.1q1 0 1.8.3.8.4 1.3 1t.8 1.5q.3.8.3 1.8v7.9h-3v-7.9q0-1.1-.5-1.7-.6-.6-1.6-.6-.8 0-1.4.3-.7.4-1.3 1v8.9h-3zM765 12l.6 1.3.2 1.4q0 1.2-.6 2.3-.6 1-1.8 2l-.9-.6-.1-.2v-.2-.3l.4-.5.3-.5.2-.6.1-.7-.1-.9-.4-1q-.2-.1-.2-.3 0-.4.5-.5l1.8-.7zm7.3 18.6q-1.6 0-2.5-1-.8-.9-.8-2.4v-7H767.3q-.2-.2-.2-.5v-1.2l2-.3.7-3.4.2-.4.4-.1h1.5v3.9h3.3v2h-3.3V27q0 .6.3 1 .3.3.8.3h.5q.1-.2.3-.2l.2-.2h.5l.1.2 1 1.5q-.7.5-1.6.8-.8.3-1.7.3zm14.2 3.2q0 .3-.3.4-.2.2-.6.2h-2.2l2.3-5-5-11.3h2.6l.5.1.3.4 2.6 6.4.3.7.1.6.2-.6.3-.7 2.5-6.4q0-.2.3-.4l.5-.1h2.4l-6.8 15.7zm13.2-16q1.1 0 2.1.4t1.7 1.1q.7.7 1.1 1.8.4 1 .4 2.3v.6l-.1.4-.3.1H796.7q.1 2 1 2.9 1 .9 2.4.9.7 0 1.2-.2l1-.4.6-.3.6-.2h.3l.2.2.9 1.1q-.5.6-1.1 1-.6.4-1.3.6-.7.3-1.3.3l-1.4.2q-1.3 0-2.4-.5-1-.4-1.9-1.2-.8-.9-1.3-2-.4-1.3-.4-3 0-1.2.4-2.3.4-1.1 1.1-2 .8-.8 1.9-1.2 1.1-.5 2.5-.5zm0 2.2q-1.3 0-2 .7t-1 2h5.6l-.1-1-.5-.9q-.3-.4-.8-.6-.5-.2-1.2-.2zm11.8 10.6q-1.6 0-2.5-1-.9-.9-.9-2.4v-7h-1.6q-.2-.2-.2-.5v-1.2l2-.3.6-3.4.2-.4.5-.1h1.5v3.9h3.2v2h-3.2V27q0 .6.3 1 .3.3.8.3h.4l.3-.2.3-.2h.4l.2.2.9 1.5q-.7.5-1.5.8-.8.3-1.7.3zm15-12.7q1.5 0 2.6.4 1.1.5 1.9 1.3.8.8 1.2 2 .5 1.1.5 2.6t-.5 2.6q-.4 1.2-1.2 2-.8.9-2 1.3-1 .5-2.4.5t-2.5-.5q-1.1-.4-2-1.3-.7-.8-1.2-2-.4-1.1-.4-2.6t.4-2.6q.5-1.2 1.3-2t1.9-1.3q1.1-.4 2.5-.4zm0 10.4q1.6 0 2.4-1 .7-1 .7-3t-.7-3.1q-.8-1-2.3-1-1.6 0-2.3 1-.8 1-.8 3t.8 3q.7 1 2.3 1zm17.1-7.6l-.2.2-.4.1-.4-.1-.5-.3-.8-.3q-.4-.2-1-.2-.8 0-1.4.3-.6.3-1 .8-.3.5-.5 1.3-.2.7-.2 1.7t.2 1.7q.2.8.6 1.3.4.6 1 .8.5.3 1.2.3t1.2-.2l.7-.4.5-.3.5-.2q.4 0 .6.2l.8 1.1-1 1-1.2.6q-.7.3-1.3.3l-1.3.2q-1.2 0-2.2-.5-1-.4-1.7-1.2-.8-.8-1.2-2-.5-1.2-.5-2.7 0-1.4.4-2.5.4-1.2 1.2-2 .7-.9 1.9-1.3 1-.5 2.5-.5 1.4 0 2.4.4 1 .5 2 1.3l-.9 1zm11.5 0l-.3.2-.3.1-.5-.1-.5-.3-.7-.3q-.4-.2-1-.2-.8 0-1.4.3-.6.3-1 .8t-.6 1.3q-.2.7-.2 1.7t.2 1.7q.3.8.7 1.3.3.6 1 .8.5.3 1.2.3t1.1-.2l.8-.4.5-.3q.2-.2.5-.2.4 0 .5.2l.9 1.1-1 1-1.3.6q-.6.3-1.3.3-.6.2-1.3.2-1.1 0-2.1-.5-1-.4-1.8-1.2-.7-.8-1.2-2-.4-1.2-.4-2.7 0-1.4.4-2.5.4-1.2 1.1-2 .8-.9 1.9-1.3 1.1-.5 2.6-.5 1.4 0 2.4.4 1 .5 1.9 1.3l-.8 1zm5.5-2.6V26q0 1.1.5 1.7.5.6 1.6.6.7 0 1.4-.3t1.3-1v-8.8h3v12.3h-1.9q-.5 0-.7-.6l-.2-1-.8.8-.9.5-1 .3q-.5.2-1.1.2-1 0-1.8-.4-.8-.3-1.3-1-.5-.6-.8-1.4-.3-.9-.3-2v-7.7h3zm11 12.3V18.2h1.7l.6.1q.2.2.2.6l.2 1.5q.7-1.1 1.6-1.8.8-.7 2-.7.9 0 1.5.4l-.4 2.3q0 .2-.2.3h-.8l-.8-.1q-1 0-1.6.5-.7.5-1.1 1.5v7.7h-3zm9.7 0V18.2h1.8l.6.1q.2.2.2.6l.2 1.5q.7-1.1 1.6-1.8.9-.7 2-.7.9 0 1.5.4l-.4 2.3q0 .2-.2.3h-.8l-.8-.1q-1 0-1.6.5-.7.5-1.1 1.5v7.7h-3zm15-12.5q1 0 2 .3 1 .4 1.7 1.1.7.7 1.1 1.8.4 1 .4 2.3v.6l-.1.4-.2.1h-8q.2 2 1 2.9 1 .9 2.4.9.7 0 1.3-.2l.9-.4.7-.3.5-.2h.3l.3.2.8 1.1-1 1-1.4.6q-.6.3-1.3.3l-1.3.2q-1.3 0-2.4-.5-1.1-.4-2-1.2-.8-.9-1.2-2-.5-1.3-.5-3 0-1.2.4-2.3.4-1.1 1.2-2 .7-.8 1.8-1.2 1.1-.5 2.5-.5zm0 2.1q-1.3 0-2 .7-.8.7-1 2h5.6l-.2-1q-.1-.5-.5-.9-.3-.4-.8-.6-.5-.2-1.1-.2zm16.3 10.4q-.6 0-.7-.6l-.3-1.2-.8.8q-.4.4-.9.6l-1 .4-1.2.2q-1 0-1.9-.5-.8-.4-1.4-1.2-.6-.8-1-2-.3-1.1-.3-2.7 0-1.3.4-2.5.3-1.2 1-2 .7-.9 1.7-1.4 1-.5 2.2-.5 1 0 1.8.4.7.3 1.3.8v-6.5h3v17.9h-1.9zm-4-2.2q1 0 1.6-.4.7-.4 1.3-1v-5.6q-.5-.6-1.1-.9-.6-.2-1.3-.2-.7 0-1.2.2-.6.3-1 .8-.3.5-.5 1.3t-.2 1.8l.1 1.9.5 1.2q.4.5.8.7l1 .2z"/><path fill="#000" fill-opacity="0" d="M63.8 75.5c20.7 29 67 131.8 124.3 174.6 57.1 42.8 182.3 68.5 218.8 82.2" fill-rule="evenodd"/><path stroke="#15c" stroke-width="2" stroke-linejoin="round" stroke-linecap="butt" d="M63.8 75.5c20.7 29 67 131.8 124.3 174.6 57.1 42.8 182.3 68.5 218.8 82.2" fill-rule="evenodd"/><path fill="#000" fill-opacity="0" d="M63.8 332.6V59.4" fill-rule="evenodd"/><path stroke="#000" stroke-width="2" stroke-linejoin="round" stroke-linecap="butt" d="M63.8 332.6V71.4" fill-rule="evenodd"/><path fill="#000" stroke="#000" stroke-width="2" stroke-linecap="butt" d="M67 71.4l-3.2-9-3.3 9z" fill-rule="evenodd"/><path fill="#000" fill-opacity="0" d="M63.4 332.2h366.8" fill-rule="evenodd"/><path stroke="#000" stroke-width="2" stroke-linejoin="round" stroke-linecap="butt" d="M63.4 332.2h354.8" fill-rule="evenodd"/><path fill="#000" stroke="#000" stroke-width="2" stroke-linecap="butt" d="M418.2 335.5l9-3.3-9-3.3z" fill-rule="evenodd"/><path fill="#000" fill-opacity="0" d="M575.8 75.5c20.7 29 67 131.8 124.3 174.6 57.1 42.8 182.3 68.5 218.8 82.2" fill-rule="evenodd"/><path stroke="#15c" stroke-width="2" stroke-linejoin="round" stroke-linecap="butt" d="M575.8 75.5c20.7 29 67 131.8 124.3 174.6 57.1 42.8 182.3 68.5 218.8 82.2" fill-rule="evenodd"/><path fill="#000" fill-opacity="0" d="M575.8 332.6V59.4" fill-rule="evenodd"/><path stroke="#000" stroke-width="2" stroke-linejoin="round" stroke-linecap="butt" d="M575.8 332.6V71.4" fill-rule="evenodd"/><path fill="#000" stroke="#000" stroke-width="2" stroke-linecap="butt" d="M579 71.4l-3.2-9-3.3 9z" fill-rule="evenodd"/><path fill="#000" fill-opacity="0" d="M575.4 332.2h366.8" fill-rule="evenodd"/><path stroke="#000" stroke-width="2" stroke-linejoin="round" stroke-linecap="butt" d="M575.4 332.2h354.8" fill-rule="evenodd"/><path fill="#000" stroke="#000" stroke-width="2" stroke-linecap="butt" d="M930.2 335.5l9-3.3-9-3.3z" fill-rule="evenodd"/><path fill="#000" fill-opacity="0" d="M804.1 265.9h61.6v34.5h-61.6z" fill-rule="evenodd"/><path fill="#e69138" d="M835.8 278h-2.6l4.4-4h2.3l2.6 4H840l-1.8-1.6-2.4 1.7z"/></g></svg>