<svg height="356.8" viewBox="0 0 388.3 267.6" width="517.7" xmlns="http://www.w3.org/2000/svg" xmlns:xlink="http://www.w3.org/1999/xlink"><defs><style>*{stroke-linecap:butt;stroke-linejoin:round}</style></defs><g id="figure_1"><path d="M0 267.6h388.3V0H0z" fill="#fff" id="patch_1"/><g id="axes_1"><path d="M46.3 224.6h334.8V7.2H46.3z" fill="#eaeaf2" id="patch_2"/><g id="matplotlib.axis_1"><g id="xtick_1"><path clip-path="url(#p1d24cd547f)" d="M61.5 224.6V7.2" fill="none" stroke="#fff" stroke-linecap="round" id="line2d_1"/><g id="text_1"><defs><path d="M31.8 66.4q-7.6 0-11.5-7.5-3.8-7.5-3.8-22.5t3.8-22.5q3.9-7.5 11.5-7.5 7.7 0 11.5 7.5T47 36.4q0 15-3.8 22.5t-11.5 7.5zm0 7.8q12.2 0 18.7-9.7T57 36.4Q57 18 50.5 8.3 44-1.4 31.8-1.4 19.5-1.4 13 8.3q-6.5 9.7-6.5 28 0 18.5 6.5 28.2 6.4 9.7 18.7 9.7z" id="DejaVuSans-48"/></defs><use xlink:href="#DejaVuSans-48" transform="matrix(.11 0 0 -.11 58 242.5)" fill="#262626"/></g></g><g id="xtick_2"><path clip-path="url(#p1d24cd547f)" d="M123 224.6V7.2" fill="none" stroke="#fff" stroke-linecap="round" id="line2d_2"/><g id="text_2"><defs><path d="M19.2 8.3h34.4V0H7.3v8.3l15.3 15.6q9.7 9.8 12.2 12.6 4.7 5.3 6.6 9 2 3.7 2 7.3 0 5.8-4.2 9.5-4 3.6-10.6 3.6-4.6 0-9.8-1.6-5.1-1.6-11-4.9v10q6 2.4 11.1 3.6 5.2 1.2 9.5 1.2 11.4 0 18-5.7 6.8-5.6 6.8-15 0-4.6-1.7-8.6-1.6-4-6-9.5l-7.9-8.2L19.2 8.3z" id="DejaVuSans-50"/></defs><g transform="matrix(.11 0 0 -.11 116 242.5)" fill="#262626"><use xlink:href="#DejaVuSans-50"/><use x="63.6" xlink:href="#DejaVuSans-48"/></g></g></g><g id="xtick_3"><path clip-path="url(#p1d24cd547f)" d="M184.5 224.6V7.2" fill="none" stroke="#fff" stroke-linecap="round" id="line2d_3"/><g id="text_3"><defs><path d="M37.8 64.3l-25-39h25zM35.2 73h12.4V25.4H58v-8.2H47.6V0h-9.8v17.2h-33v9.5z" id="DejaVuSans-52"/></defs><g transform="matrix(.11 0 0 -.11 177.5 242.5)" fill="#262626"><use xlink:href="#DejaVuSans-52"/><use x="63.6" xlink:href="#DejaVuSans-48"/></g></g></g><g id="xtick_4"><path clip-path="url(#p1d24cd547f)" d="M246 224.6V7.2" fill="none" stroke="#fff" stroke-linecap="round" id="line2d_4"/><g id="text_4"><defs><path d="M33 40.4q-6.6 0-10.5-4.6-3.9-4.5-3.9-12.4T22.5 11Q26.4 6.4 33 6.4q6.7 0 10.5 4.6 4 4.5 4 12.4t-4 12.4q-3.8 4.6-10.5 4.6zm19.6 30.9v-9Q48.9 64.1 45 65q-3.8 1-7.5 1-9.8 0-15-6.7-5-6.6-5.8-19.9 2.9 4.3 7.2 6.5 4.4 2.3 9.6 2.3 11 0 17.4-6.7 6.3-6.6 6.3-18.1 0-11.2-6.6-18Q44-1.4 33-1.4q-12.6 0-19.3 9.7Q7 18 7 36.3 7 53.8 15.2 64q8.2 10.3 22 10.3 3.7 0 7.5-.7 3.8-.8 7.9-2.2z" id="DejaVuSans-54"/></defs><g transform="matrix(.11 0 0 -.11 239 242.5)" fill="#262626"><use xlink:href="#DejaVuSans-54"/><use x="63.6" xlink:href="#DejaVuSans-48"/></g></g></g><g id="xtick_5"><path clip-path="url(#p1d24cd547f)" d="M307.5 224.6V7.2" fill="none" stroke="#fff" stroke-linecap="round" id="line2d_5"/><g id="text_5"><defs><path d="M31.8 34.6q-7 0-11-3.7-4.1-3.8-4.1-10.4 0-6.6 4-10.3 4-3.8 11-3.8 7.1 0 11.2 3.8 4 3.8 4 10.3 0 6.6-4 10.4-4 3.7-11.1 3.7zm-9.9 4.2q-6.3 1.6-9.9 6Q8.5 49 8.5 55.2q0 8.8 6.2 13.8 6.3 5.1 17 5.1 11 0 17.2-5Q55 64 55 55.2q0-6.2-3.6-10.6-3.5-4.3-9.8-5.9 7.1-1.6 11.1-6.5 4-4.8 4-11.8 0-10.6-6.5-16.3-6.5-5.6-18.5-5.6T13.2 4.2Q6.8 10 6.8 20.5q0 7 4 11.8 4 4.9 11.1 6.5zm-3.6 15.6q0-5.7 3.5-8.8 3.6-3.2 10-3.2 6.3 0 10 3.2 3.5 3.1 3.5 8.8 0 5.7-3.6 8.8-3.6 3.2-10 3.2-6.3 0-9.9-3.2-3.5-3.1-3.5-8.8z" id="DejaVuSans-56"/></defs><g transform="matrix(.11 0 0 -.11 300.5 242.5)" fill="#262626"><use xlink:href="#DejaVuSans-56"/><use x="63.6" xlink:href="#DejaVuSans-48"/></g></g></g><g id="xtick_6"><path clip-path="url(#p1d24cd547f)" d="M369 224.6V7.2" fill="none" stroke="#fff" stroke-linecap="round" id="line2d_6"/><g id="text_6"><defs><path d="M12.4 8.3h16.1v55.6L11 60.4v9l17.4 3.5h9.9V8.3h16V0H12.5z" id="DejaVuSans-49"/></defs><g transform="matrix(.11 0 0 -.11 358.5 242.5)" fill="#262626"><use xlink:href="#DejaVuSans-49"/><use x="63.6" xlink:href="#DejaVuSans-48"/><use x="127.2" xlink:href="#DejaVuSans-48"/></g></g></g><g id="text_7"><defs><path d="M64.4 67.3V56.9q-5 4.6-10.6 7Q48 66 41.8 66q-12.5 0-19.1-7.6Q16 50.8 16 36.4q0-14.4 6.7-22 6.6-7.7 19.1-7.7 6.3 0 12 2.3 5.6 2.3 10.6 7V5.5q-5.2-3.5-11-5.3-5.7-1.7-12.2-1.7-16.5 0-26 10.1-9.6 10.1-9.6 27.7T15.1 64q9.6 10.1 26.1 10.1 6.5 0 12.3-1.7 5.8-1.8 11-5.2z" id="DejaVuSans-67"/><path d="M8.5 21.6v33h9V22q0-7.7 3-11.6 3-4 9-4 7.4 0 11.6 4.7 4.2 4.7 4.2 12.7v31h9V0h-9v8.4Q42 3.4 37.7 1q-4.3-2.4-10-2.4-9.4 0-14.3 5.8-4.9 5.9-4.9 17.2zM31.1 56z" id="DejaVuSans-117"/><path d="M44.3 53v-8.4q-3.8 2-8 2.9-4 1-8.4 1-6.7 0-10-2-3.4-2.1-3.4-6.2 0-3.1 2.4-5 2.4-1.7 9.6-3.3l3-.7q9.7-2 13.7-5.8 4-3.7 4-10.4 0-7.6-6-12-6-4.5-16.6-4.5-4.4 0-9.1.8-4.8.9-10 2.6v9.3q5-2.6 9.7-4 4.9-1.2 9.6-1.2 6.4 0 9.8 2.2 3.4 2.2 3.4 6.1 0 3.7-2.5 5.6-2.4 2-10.8 3.8l-3.1.7q-8.4 1.8-12 5.4-3.8 3.6-3.8 10 0 7.7 5.5 11.9Q16.7 56 26.8 56q5 0 9.4-.7 4.4-.8 8-2.2z" id="DejaVuSans-115"/><path d="M18.3 70.2V54.7h18.5v-7H18.3V18q0-6.7 1.8-8.6 1.9-1.9 7.5-1.9h9.2V0h-9.2Q17.2 0 13.2 3.9T9.2 18v29.7H2.8v7h6.6v15.5z" id="DejaVuSans-116"/><path d="M30.6 48.4q-7.2 0-11.4-5.6Q15 37 15 27.3t4.2-15.5q4.1-5.6 11.4-5.6 7.2 0 11.4 5.7 4.2 5.6 4.2 15.4 0 9.7-4.2 15.4-4.2 5.7-11.4 5.7zm0 7.6q11.7 0 18.4-7.6 6.7-7.6 6.7-21.1 0-13.4-6.7-21-6.7-7.7-18.4-7.7-11.8 0-18.4 7.6Q5.5 14 5.5 27.3q0 13.5 6.7 21Q18.8 56 30.6 56z" id="DejaVuSans-111"/><path d="M52 44.2q3.4 6 8 9Q64.9 56 71 56q8.6 0 13.3-6 4.6-6 4.6-17V0h-9v32.7q0 7.9-2.8 11.7-2.8 3.8-8.5 3.8-7 0-11-4.7-4-4.6-4-12.6V0h-9.1v32.7q0 8-2.8 11.7-2.8 3.8-8.6 3.8-6.9 0-11-4.7-4-4.6-4-12.6V0h-9v54.7h9v-8.5q3 5 7.4 7.4Q29.8 56 35.7 56q6 0 10.1-3 4.2-3 6.2-8.8z" id="DejaVuSans-109"/><path d="M56.2 29.6v-4.4H14.9q.6-9.3 5.6-14.1 5-4.9 14-4.9 5 0 10 1.3 4.8 1.2 9.6 3.8V2.8q-4.8-2-10-3.1-5-1.1-10.2-1.1-13.1 0-20.7 7.6-7.7 7.6-7.7 20.6 0 13.4 7.3 21.3Q20 56 32.3 56q11 0 17.5-7.1 6.4-7.1 6.4-19.3zm-9 2.6q0 7.4-4.1 11.8-4 4.4-10.7 4.4-7.5 0-12-4.3-4.5-4.2-5.2-12z" id="DejaVuSans-101"/><path d="M41.1 46.3q-1.5.9-3.3 1.3-1.8.4-4 .4-7.5 0-11.6-5-4-5-4-14.2V0H9v54.7h9v-8.5q2.9 5 7.4 7.4Q30 56 36.5 56l2-.1 2.6-.4z" id="DejaVuSans-114"/><path d="M9.8 73h9.9V0H9.8z" id="DejaVuSans-73"/><path d="M19.7 64.8V8.1h11.9q15 0 22 6.8 7 6.9 7 21.6 0 14.7-7 21.5-7 6.8-22 6.8zm-9.9 8.1h20.3q21.2 0 31-8.8 10-8.8 10-27.6T61 8.8Q51.1 0 30.1 0H9.8z" id="DejaVuSans-68"/></defs><g transform="matrix(.12 0 0 -.12 176.3 257.9)" fill="#262626"><use xlink:href="#DejaVuSans-67"/><use x="69.8" xlink:href="#DejaVuSans-117"/><use x="133.2" xlink:href="#DejaVuSans-115"/><use x="185.3" xlink:href="#DejaVuSans-116"/><use x="224.5" xlink:href="#DejaVuSans-111"/><use x="285.7" xlink:href="#DejaVuSans-109"/><use x="383.1" xlink:href="#DejaVuSans-101"/><use x="444.6" xlink:href="#DejaVuSans-114"/><use x="485.7" xlink:href="#DejaVuSans-32"/><use x="517.5" xlink:href="#DejaVuSans-73"/><use x="547" xlink:href="#DejaVuSans-68"/></g></g></g><g id="matplotlib.axis_2"><g id="ytick_1"><path clip-path="url(#p1d24cd547f)" d="M46.3 215.1h334.8" fill="none" stroke="#fff" stroke-linecap="round" id="line2d_7"/><use xlink:href="#DejaVuSans-48" transform="matrix(.11 0 0 -.11 29.8 219.3)" fill="#262626" id="text_8"/></g><g id="ytick_2"><path clip-path="url(#p1d24cd547f)" d="M46.3 175.3h334.8" fill="none" stroke="#fff" stroke-linecap="round" id="line2d_8"/><use xlink:href="#DejaVuSans-50" transform="matrix(.11 0 0 -.11 29.8 179.5)" fill="#262626" id="text_9"/></g><g id="ytick_3"><path clip-path="url(#p1d24cd547f)" d="M46.3 135.5h334.8" fill="none" stroke="#fff" stroke-linecap="round" id="line2d_9"/><use xlink:href="#DejaVuSans-52" transform="matrix(.11 0 0 -.11 29.8 139.7)" fill="#262626" id="text_10"/></g><g id="ytick_4"><path clip-path="url(#p1d24cd547f)" d="M46.3 95.7h334.8" fill="none" stroke="#fff" stroke-linecap="round" id="line2d_10"/><use xlink:href="#DejaVuSans-54" transform="matrix(.11 0 0 -.11 29.8 100)" fill="#262626" id="text_11"/></g><g id="ytick_5"><path clip-path="url(#p1d24cd547f)" d="M46.3 56h334.8" fill="none" stroke="#fff" stroke-linecap="round" id="line2d_11"/><use xlink:href="#DejaVuSans-56" transform="matrix(.11 0 0 -.11 29.8 60.1)" fill="#262626" id="text_12"/></g><g id="ytick_6"><path clip-path="url(#p1d24cd547f)" d="M46.3 16.2h334.8" fill="none" stroke="#fff" stroke-linecap="round" id="line2d_12"/><g transform="matrix(.11 0 0 -.11 22.8 20.3)" fill="#262626" id="text_13"><use xlink:href="#DejaVuSans-49"/><use x="63.6" xlink:href="#DejaVuSans-48"/></g></g><g id="text_14"><defs><path d="M-.3 73h61.7v-8.4H35.5V0h-10v64.6H-.2z" id="DejaVuSans-84"/><path d="M9.4 54.7h9V0h-9zm0 21.3h9V64.6h-9z" id="DejaVuSans-105"/><path d="M54.9 33V0h-9v32.7q0 7.8-3 11.6-3 3.9-9.1 3.9-7.3 0-11.5-4.7Q18.1 39 18.1 31V0h-9v54.7h9v-8.5q3.2 5 7.6 7.4Q30.1 56 35.8 56q9.4 0 14.2-5.8Q55 44.3 55 33z" id="DejaVuSans-110"/><path d="M54.9 54.7L35 28 56 0H45.3l-16 21.5L13.6 0H2.9L24 28.6l-19.4 26h10.6l14.5-19.4 14.5 19.5z" id="DejaVuSans-120"/><path d="M18.1 8.2v-29h-9v75.5h9v-8.3q2.9 4.9 7.2 7.2Q29.6 56 35.6 56q10 0 16.2-8Q58 40.3 58 27.4q0-12.9-6.2-20.8-6.2-8-16.2-8-6 0-10.3 2.5Q21 3.3 18 8.2zm30.6 19.1q0 9.9-4 15.5-4.2 5.7-11.3 5.7-7.1 0-11.2-5.7-4-5.6-4-15.5 0-10 4-15.6t11.2-5.6q7.1 0 11.2 5.7 4 5.6 4 15.5z" id="DejaVuSans-112"/><path d="M48.8 52.6v-8.4Q45 46.3 41 47.3q-3.8 1-7.7 1-8.7 0-13.6-5.5Q15 37.3 15 27.3t4.8-15.6q4.9-5.5 13.6-5.5 4 0 7.7 1 3.9 1.1 7.7 3.2V2.1Q45 .3 41-.5q-4-1-8.6-1-12.3 0-19.6 7.8-7.3 7.8-7.3 21 0 13.4 7.4 21Q20.2 56 33 56q4.2 0 8.1-.9 4-.8 7.7-2.5z" id="DejaVuSans-99"/><path d="M54.9 33V0h-9v32.7q0 7.8-3 11.6-3 3.9-9.1 3.9-7.3 0-11.5-4.7Q18.1 39 18.1 31V0h-9v76h9V46.2q3.2 5 7.6 7.4Q30.1 56 35.8 56q9.4 0 14.2-5.8Q55 44.3 55 33z" id="DejaVuSans-104"/><path d="M34.3 27.5q-11 0-15.1-2.5-4.2-2.5-4.2-8.5 0-4.8 3.1-7.6 3.2-2.8 8.6-2.8 7.5 0 12 5.3t4.5 14v2zm17.9 3.7V0h-9v8.3q-3-5-7.7-7.3Q31-1.4 24.3-1.4 16-1.4 11 3.3 6 8 6 15.9q0 9.2 6.2 14 6.2 4.6 18.4 4.6h12.6v1q0 6.1-4 9.5-4.1 3.4-11.5 3.4-4.7 0-9.2-1.1-4.4-1.2-8.5-3.4v8.3q5 2 9.6 2.8 4.6 1 9 1 11.9 0 17.7-6.2 5.9-6.1 5.9-18.6z" id="DejaVuSans-97"/></defs><g transform="matrix(0 -.12 -.12 0 16.3 183.6)" fill="#262626"><use xlink:href="#DejaVuSans-84"/><use x="61" xlink:href="#DejaVuSans-105"/><use x="88.8" xlink:href="#DejaVuSans-109"/><use x="186.2" xlink:href="#DejaVuSans-101"/><use x="247.8" xlink:href="#DejaVuSans-32"/><use x="279.5" xlink:href="#DejaVuSans-116"/><use x="318.8" xlink:href="#DejaVuSans-111"/><use x="379.9" xlink:href="#DejaVuSans-32"/><use x="411.7" xlink:href="#DejaVuSans-110"/><use x="475.1" xlink:href="#DejaVuSans-101"/><use x="536.6" xlink:href="#DejaVuSans-120"/><use x="595.8" xlink:href="#DejaVuSans-116"/><use x="635" xlink:href="#DejaVuSans-32"/><use x="666.8" xlink:href="#DejaVuSans-112"/><use x="730.3" xlink:href="#DejaVuSans-117"/><use x="793.6" xlink:href="#DejaVuSans-114"/><use x="834.7" xlink:href="#DejaVuSans-99"/><use x="889.7" xlink:href="#DejaVuSans-104"/><use x="953.1" xlink:href="#DejaVuSans-97"/><use x="1014.4" xlink:href="#DejaVuSans-115"/><use x="1066.5" xlink:href="#DejaVuSans-101"/></g></g></g><g id="line2d_13"><defs><path d="M0 1.5a1.5 1.5 0 100-3 1.5 1.5 0 000 3z" id="m5a5a06be03" stroke="#4c72b0"/></defs><g clip-path="url(#p1d24cd547f)" fill="#4c72b0" stroke="#4c72b0"><use x="61.5" xlink:href="#m5a5a06be03" y="212.7"/><use x="64.6" xlink:href="#m5a5a06be03" y="125.6"/><use x="67.7" xlink:href="#m5a5a06be03" y="162.8"/><use x="70.8" xlink:href="#m5a5a06be03" y="184.7"/><use x="73.8" xlink:href="#m5a5a06be03" y="193.8"/><use x="76.9" xlink:href="#m5a5a06be03" y="109.2"/><use x="80" xlink:href="#m5a5a06be03" y="153.2"/><use x="83.1" xlink:href="#m5a5a06be03" y="214.2"/><use x="86.1" xlink:href="#m5a5a06be03" y="151.5"/><use x="89.2" xlink:href="#m5a5a06be03" y="214.4"/><use x="92.3" xlink:href="#m5a5a06be03" y="166.5"/><use x="95.3" xlink:href="#m5a5a06be03" y="167.7"/><use x="98.4" xlink:href="#m5a5a06be03" y="181.5"/><use x="101.5" xlink:href="#m5a5a06be03" y="139"/><use x="104.6" xlink:href="#m5a5a06be03" y="119.4"/><use x="107.6" xlink:href="#m5a5a06be03" y="213.4"/><use x="110.7" xlink:href="#m5a5a06be03" y="204.6"/><use x="113.8" xlink:href="#m5a5a06be03" y="199.1"/><use x="116.9" xlink:href="#m5a5a06be03" y="183.4"/><use x="119.9" xlink:href="#m5a5a06be03" y="115.5"/><use x="123" xlink:href="#m5a5a06be03" y="147.2"/><use x="126.1" xlink:href="#m5a5a06be03" y="189.6"/><use x="129.2" xlink:href="#m5a5a06be03" y="181.9"/><use x="132.2" xlink:href="#m5a5a06be03" y="200.9"/><use x="135.3" xlink:href="#m5a5a06be03" y="182.8"/><use x="138.4" xlink:href="#m5a5a06be03" y="31.8"/><use x="141.5" xlink:href="#m5a5a06be03" y="213.8"/><use x="144.5" xlink:href="#m5a5a06be03" y="123.1"/><use x="147.6" xlink:href="#m5a5a06be03" y="104.9"/><use x="150.7" xlink:href="#m5a5a06be03" y="204.9"/><use x="153.8" xlink:href="#m5a5a06be03" y="135.4"/><use x="156.8" xlink:href="#m5a5a06be03" y="214.8"/><use x="159.9" xlink:href="#m5a5a06be03" y="156.2"/><use x="163" xlink:href="#m5a5a06be03" y="156.4"/><use x="166.1" xlink:href="#m5a5a06be03" y="211.6"/><use x="169.1" xlink:href="#m5a5a06be03" y="211.7"/><use x="172.2" xlink:href="#m5a5a06be03" y="144"/><use x="175.3" xlink:href="#m5a5a06be03" y="213.9"/><use x="178.4" xlink:href="#m5a5a06be03" y="173.3"/><use x="181.4" xlink:href="#m5a5a06be03" y="176.8"/><use x="184.5" xlink:href="#m5a5a06be03" y="19.9"/><use x="187.6" xlink:href="#m5a5a06be03" y="156.9"/><use x="190.7" xlink:href="#m5a5a06be03" y="205.3"/><use x="193.7" xlink:href="#m5a5a06be03" y="155.8"/><use x="196.8" xlink:href="#m5a5a06be03" y="87.7"/><use x="199.9" xlink:href="#m5a5a06be03" y="157"/><use x="203" xlink:href="#m5a5a06be03" y="199.4"/><use x="206" xlink:href="#m5a5a06be03" y="208"/><use x="209.1" xlink:href="#m5a5a06be03" y="210.5"/><use x="212.2" xlink:href="#m5a5a06be03" y="65.9"/><use x="215.2" xlink:href="#m5a5a06be03" y="36.9"/><use x="218.3" xlink:href="#m5a5a06be03" y="95.7"/><use x="221.4" xlink:href="#m5a5a06be03" y="194.4"/><use x="224.5" xlink:href="#m5a5a06be03" y="204.9"/><use x="227.5" xlink:href="#m5a5a06be03" y="187.3"/><use x="230.6" xlink:href="#m5a5a06be03" y="170.5"/><use x="233.7" xlink:href="#m5a5a06be03" y="17.1"/><use x="236.8" xlink:href="#m5a5a06be03" y="73.5"/><use x="239.8" xlink:href="#m5a5a06be03" y="205.3"/><use x="242.9" xlink:href="#m5a5a06be03" y="112.3"/><use x="246" xlink:href="#m5a5a06be03" y="109.9"/><use x="249.1" xlink:href="#m5a5a06be03" y="203.7"/><use x="252.1" xlink:href="#m5a5a06be03" y="101.3"/><use x="255.2" xlink:href="#m5a5a06be03" y="194.9"/><use x="258.3" xlink:href="#m5a5a06be03" y="212.6"/><use x="261.4" xlink:href="#m5a5a06be03" y="124.4"/><use x="264.4" xlink:href="#m5a5a06be03" y="117.2"/><use x="267.5" xlink:href="#m5a5a06be03" y="109.3"/><use x="270.6" xlink:href="#m5a5a06be03" y="209.8"/><use x="273.7" xlink:href="#m5a5a06be03" y="206.9"/><use x="276.7" xlink:href="#m5a5a06be03" y="198.5"/><use x="279.8" xlink:href="#m5a5a06be03" y="118.7"/><use x="282.9" xlink:href="#m5a5a06be03" y="83.4"/><use x="286" xlink:href="#m5a5a06be03" y="37.6"/><use x="289" xlink:href="#m5a5a06be03" y="192.6"/><use x="292.1" xlink:href="#m5a5a06be03" y="213.1"/><use x="295.2" xlink:href="#m5a5a06be03" y="24.8"/><use x="298.3" xlink:href="#m5a5a06be03" y="31"/><use x="301.3" xlink:href="#m5a5a06be03" y="175.5"/><use x="304.4" xlink:href="#m5a5a06be03" y="147.8"/><use x="307.5" xlink:href="#m5a5a06be03" y="120.5"/><use x="310.6" xlink:href="#m5a5a06be03" y="206.6"/><use x="313.6" xlink:href="#m5a5a06be03" y="29.4"/><use x="316.7" xlink:href="#m5a5a06be03" y="164.3"/><use x="319.8" xlink:href="#m5a5a06be03" y="88"/><use x="322.9" xlink:href="#m5a5a06be03" y="57"/><use x="325.9" xlink:href="#m5a5a06be03" y="204.9"/><use x="329" xlink:href="#m5a5a06be03" y="165"/><use x="332.1" xlink:href="#m5a5a06be03" y="212.8"/><use x="335.1" xlink:href="#m5a5a06be03" y="176.3"/><use x="338.2" xlink:href="#m5a5a06be03" y="172.4"/><use x="341.3" xlink:href="#m5a5a06be03" y="207.7"/><use x="344.4" xlink:href="#m5a5a06be03" y="205.9"/><use x="347.4" xlink:href="#m5a5a06be03" y="38.3"/><use x="350.5" xlink:href="#m5a5a06be03" y="191"/><use x="353.6" xlink:href="#m5a5a06be03" y="138.4"/><use x="356.7" xlink:href="#m5a5a06be03" y="193.8"/><use x="359.7" xlink:href="#m5a5a06be03" y="203.6"/><use x="362.8" xlink:href="#m5a5a06be03" y="148"/><use x="365.9" xlink:href="#m5a5a06be03" y="59.8"/></g></g><path d="M46.3 224.6V7.2" fill="none" stroke="#fff" stroke-linecap="square" stroke-width="1.3" id="patch_3"/><path d="M381.1 224.6V7.2" fill="none" stroke="#fff" stroke-linecap="square" stroke-width="1.3" id="patch_4"/><path d="M46.3 224.6h334.8" fill="none" stroke="#fff" stroke-linecap="square" stroke-width="1.3" id="patch_5"/><path d="M46.3 7.2h334.8" fill="none" stroke="#fff" stroke-linecap="square" stroke-width="1.3" id="patch_6"/></g></g><defs><clipPath id="p1d24cd547f"><path d="M46.3 7.2h334.8v217.4H46.3z"/></clipPath></defs></svg>