<svg height="356.8" viewBox="0 0 400.2 267.6" width="533.6" xmlns="http://www.w3.org/2000/svg" xmlns:xlink="http://www.w3.org/1999/xlink"><defs><style>*{stroke-linecap:butt;stroke-linejoin:round}</style></defs><g id="figure_1"><path d="M0 267.6h400.2V0H0z" fill="#fff" id="patch_1"/><g id="axes_1"><path d="M58.2 224.6H393V7.2H58.2z" fill="#eaeaf2" id="patch_2"/><g id="matplotlib.axis_1"><g id="xtick_1"><path clip-path="url(#p45ad3fb071)" d="M131.5 224.6V7.2" fill="none" stroke="#fff" stroke-linecap="round" id="line2d_1"/><g id="text_1"><defs><path d="M12.4 8.3h16.1v55.6L11 60.4v9l17.4 3.5h9.9V8.3h16V0H12.5z" id="DejaVuSans-49"/><path d="M31.8 66.4q-7.6 0-11.5-7.5-3.8-7.5-3.8-22.5t3.8-22.5q3.9-7.5 11.5-7.5 7.7 0 11.5 7.5T47 36.4q0 15-3.8 22.5t-11.5 7.5zm0 7.8q12.2 0 18.7-9.7T57 36.4Q57 18 50.5 8.3 44-1.4 31.8-1.4 19.5-1.4 13 8.3q-6.5 9.7-6.5 28 0 18.5 6.5 28.2 6.4 9.7 18.7 9.7z" id="DejaVuSans-48"/><path d="M10.6 35.5h62.6v-8.3H10.6z" id="DejaVuSans-8722"/></defs><g transform="matrix(.11 0 0 -.11 118.6 242.5)" fill="#262626"><use transform="translate(0 .7)" xlink:href="#DejaVuSans-49"/><use transform="translate(63.6 .7)" xlink:href="#DejaVuSans-48"/><use transform="matrix(.7 0 0 .7 128.2 39)" xlink:href="#DejaVuSans-8722"/><use transform="matrix(.7 0 0 .7 186.9 39)" xlink:href="#DejaVuSans-49"/></g></g></g><g id="xtick_2"><path clip-path="url(#p45ad3fb071)" d="M208.4 224.6V7.2" fill="none" stroke="#fff" stroke-linecap="round" id="line2d_2"/><g transform="matrix(.11 0 0 -.11 198.8 242.5)" fill="#262626" id="text_2"><use transform="translate(0 .8)" xlink:href="#DejaVuSans-49"/><use transform="translate(63.6 .8)" xlink:href="#DejaVuSans-48"/><use transform="matrix(.7 0 0 .7 128.2 39)" xlink:href="#DejaVuSans-48"/></g></g><g id="xtick_3"><path clip-path="url(#p45ad3fb071)" d="M285.4 224.6V7.2" fill="none" stroke="#fff" stroke-linecap="round" id="line2d_3"/><g transform="matrix(.11 0 0 -.11 275.7 242.5)" fill="#262626" id="text_3"><use transform="translate(0 .7)" xlink:href="#DejaVuSans-49"/><use transform="translate(63.6 .7)" xlink:href="#DejaVuSans-48"/><use transform="matrix(.7 0 0 .7 128.2 39)" xlink:href="#DejaVuSans-49"/></g></g><g id="xtick_4"><path clip-path="url(#p45ad3fb071)" d="M362.3 224.6V7.2" fill="none" stroke="#fff" stroke-linecap="round" id="line2d_4"/><g id="text_4"><defs><path d="M19.2 8.3h34.4V0H7.3v8.3l15.3 15.6q9.7 9.8 12.2 12.6 4.7 5.3 6.6 9 2 3.7 2 7.3 0 5.8-4.2 9.5-4 3.6-10.6 3.6-4.6 0-9.8-1.6-5.1-1.6-11-4.9v10q6 2.4 11.1 3.6 5.2 1.2 9.5 1.2 11.4 0 18-5.7 6.8-5.6 6.8-15 0-4.6-1.7-8.6-1.6-4-6-9.5l-7.9-8.2L19.2 8.3z" id="DejaVuSans-50"/></defs><g transform="matrix(.11 0 0 -.11 352.6 242.5)" fill="#262626"><use transform="translate(0 .8)" xlink:href="#DejaVuSans-49"/><use transform="translate(63.6 .8)" xlink:href="#DejaVuSans-48"/><use transform="matrix(.7 0 0 .7 128.2 39)" xlink:href="#DejaVuSans-50"/></g></g></g><g id="text_5"><defs><path d="M-.3 73h61.7v-8.4H35.5V0h-10v64.6H-.2z" id="DejaVuSans-84"/><path d="M41.1 46.3q-1.5.9-3.3 1.3-1.8.4-4 .4-7.5 0-11.6-5-4-5-4-14.2V0H9v54.7h9v-8.5q2.9 5 7.4 7.4Q30 56 36.5 56l2-.1 2.6-.4z" id="DejaVuSans-114"/><path d="M8.5 21.6v33h9V22q0-7.7 3-11.6 3-4 9-4 7.4 0 11.6 4.7 4.2 4.7 4.2 12.7v31h9V0h-9v8.4Q42 3.4 37.7 1q-4.3-2.4-10-2.4-9.4 0-14.3 5.8-4.9 5.9-4.9 17.2zM31.1 56z" id="DejaVuSans-117"/><path d="M56.2 29.6v-4.4H14.9q.6-9.3 5.6-14.1 5-4.9 14-4.9 5 0 10 1.3 4.8 1.2 9.6 3.8V2.8q-4.8-2-10-3.1-5-1.1-10.2-1.1-13.1 0-20.7 7.6-7.7 7.6-7.7 20.6 0 13.4 7.3 21.3Q20 56 32.3 56q11 0 17.5-7.1 6.4-7.1 6.4-19.3zm-9 2.6q0 7.4-4.1 11.8-4 4.4-10.7 4.4-7.5 0-12-4.3-4.5-4.2-5.2-12z" id="DejaVuSans-101"/><path d="M18.3 70.2V54.7h18.5v-7H18.3V18q0-6.7 1.8-8.6 1.9-1.9 7.5-1.9h9.2V0h-9.2Q17.2 0 13.2 3.9T9.2 18v29.7H2.8v7h6.6v15.5z" id="DejaVuSans-116"/><path d="M9.4 54.7h9V0h-9zm0 21.3h9V64.6h-9z" id="DejaVuSans-105"/><path d="M52 44.2q3.4 6 8 9Q64.9 56 71 56q8.6 0 13.3-6 4.6-6 4.6-17V0h-9v32.7q0 7.9-2.8 11.7-2.8 3.8-8.5 3.8-7 0-11-4.7-4-4.6-4-12.6V0h-9.1v32.7q0 8-2.8 11.7-2.8 3.8-8.6 3.8-6.9 0-11-4.7-4-4.6-4-12.6V0h-9v54.7h9v-8.5q3 5 7.4 7.4Q29.8 56 35.7 56q6 0 10.1-3 4.2-3 6.2-8.8z" id="DejaVuSans-109"/><path d="M30.6 48.4q-7.2 0-11.4-5.6Q15 37 15 27.3t4.2-15.5q4.1-5.6 11.4-5.6 7.2 0 11.4 5.7 4.2 5.6 4.2 15.4 0 9.7-4.2 15.4-4.2 5.7-11.4 5.7zm0 7.6q11.7 0 18.4-7.6 6.7-7.6 6.7-21.1 0-13.4-6.7-21-6.7-7.7-18.4-7.7-11.8 0-18.4 7.6Q5.5 14 5.5 27.3q0 13.5 6.7 21Q18.8 56 30.6 56z" id="DejaVuSans-111"/><path d="M3 54.7h9.5l17-45.9 17.2 45.9h9.5L35.7 0H23.5z" id="DejaVuSans-118"/><path d="M54.9 33V0h-9v32.7q0 7.8-3 11.6-3 3.9-9.1 3.9-7.3 0-11.5-4.7Q18.1 39 18.1 31V0h-9v54.7h9v-8.5q3.2 5 7.6 7.4Q30.1 56 35.8 56q9.4 0 14.2-5.8Q55 44.3 55 33z" id="DejaVuSans-110"/></defs><g transform="matrix(.12 0 0 -.12 169.6 257.9)" fill="#262626"><use xlink:href="#DejaVuSans-84"/><use x="60.9" xlink:href="#DejaVuSans-114"/><use x="102" xlink:href="#DejaVuSans-117"/><use x="165.4" xlink:href="#DejaVuSans-101"/><use x="226.9" xlink:href="#DejaVuSans-32"/><use x="258.7" xlink:href="#DejaVuSans-116"/><use x="297.9" xlink:href="#DejaVuSans-105"/><use x="325.7" xlink:href="#DejaVuSans-109"/><use x="423.1" xlink:href="#DejaVuSans-101"/><use x="484.6" xlink:href="#DejaVuSans-32"/><use x="516.4" xlink:href="#DejaVuSans-116"/><use x="555.6" xlink:href="#DejaVuSans-111"/><use x="616.8" xlink:href="#DejaVuSans-32"/><use x="648.6" xlink:href="#DejaVuSans-101"/><use x="710.1" xlink:href="#DejaVuSans-118"/><use x="769.3" xlink:href="#DejaVuSans-101"/><use x="830.8" xlink:href="#DejaVuSans-110"/><use x="894.2" xlink:href="#DejaVuSans-116"/></g></g></g><g id="matplotlib.axis_2"><g id="ytick_1"><path clip-path="url(#p45ad3fb071)" d="M58.2 214.8H393" fill="none" stroke="#fff" stroke-linecap="round" id="line2d_5"/><g transform="matrix(.11 0 0 -.11 22.8 219)" fill="#262626" id="text_6"><use transform="translate(0 .7)" xlink:href="#DejaVuSans-49"/><use transform="translate(63.6 .7)" xlink:href="#DejaVuSans-48"/><use transform="matrix(.7 0 0 .7 128.2 39)" xlink:href="#DejaVuSans-8722"/><use transform="matrix(.7 0 0 .7 186.9 39)" xlink:href="#DejaVuSans-49"/></g></g><g id="ytick_2"><path clip-path="url(#p45ad3fb071)" d="M58.2 160.5H393" fill="none" stroke="#fff" stroke-linecap="round" id="line2d_6"/><g transform="matrix(.11 0 0 -.11 29.3 164.7)" fill="#262626" id="text_7"><use transform="translate(0 .8)" xlink:href="#DejaVuSans-49"/><use transform="translate(63.6 .8)" xlink:href="#DejaVuSans-48"/><use transform="matrix(.7 0 0 .7 128.2 39)" xlink:href="#DejaVuSans-48"/></g></g><g id="ytick_3"><path clip-path="url(#p45ad3fb071)" d="M58.2 106.2H393" fill="none" stroke="#fff" stroke-linecap="round" id="line2d_7"/><g transform="matrix(.11 0 0 -.11 29.3 110.4)" fill="#262626" id="text_8"><use transform="translate(0 .7)" xlink:href="#DejaVuSans-49"/><use transform="translate(63.6 .7)" xlink:href="#DejaVuSans-48"/><use transform="matrix(.7 0 0 .7 128.2 39)" xlink:href="#DejaVuSans-49"/></g></g><g id="ytick_4"><path clip-path="url(#p45ad3fb071)" d="M58.2 52H393" fill="none" stroke="#fff" stroke-linecap="round" id="line2d_8"/><g transform="matrix(.11 0 0 -.11 29.3 56.1)" fill="#262626" id="text_9"><use transform="translate(0 .8)" xlink:href="#DejaVuSans-49"/><use transform="translate(63.6 .8)" xlink:href="#DejaVuSans-48"/><use transform="matrix(.7 0 0 .7 128.2 39)" xlink:href="#DejaVuSans-50"/></g></g><g id="text_10"><defs><path d="M19.7 64.8V37.4H32q6.9 0 10.6 3.6 3.8 3.5 3.8 10.1t-3.8 10.1q-3.7 3.6-10.6 3.6zm-9.9 8.1h22.3q12.2 0 18.5-5.5Q57 61.8 57 51q0-10.8-6.3-16.3t-18.5-5.5H19.7V0H9.8z" id="DejaVuSans-80"/><path d="M45.4 46.4V76h9V0h-9v8.2Q42.6 3.3 38.3 1q-4.4-2.4-10.4-2.4-10 0-16.2 7.9-6.2 8-6.2 20.8 0 12.9 6.2 20.8Q18 56 28 56q6 0 10.4-2.4 4.3-2.3 7.1-7.2zM14.8 27.3q0-10 4-15.6Q23 6.2 30.2 6.2q7.1 0 11.2 5.7 4.1 5.6 4.1 15.5t-4.1 15.5q-4.1 5.7-11.2 5.7t-11.2-5.7q-4.1-5.6-4.1-15.5z" id="DejaVuSans-100"/><path d="M48.8 52.6v-8.4Q45 46.3 41 47.3q-3.8 1-7.7 1-8.7 0-13.6-5.5Q15 37.3 15 27.3t4.8-15.6q4.9-5.5 13.6-5.5 4 0 7.7 1 3.9 1.1 7.7 3.2V2.1Q45 .3 41-.5q-4-1-8.6-1-12.3 0-19.6 7.8-7.3 7.8-7.3 21 0 13.4 7.4 21Q20.2 56 33 56q4.2 0 8.1-.9 4-.8 7.7-2.5z" id="DejaVuSans-99"/></defs><g transform="matrix(0 -.12 -.12 0 16.3 186.7)" fill="#262626"><use xlink:href="#DejaVuSans-80"/><use x="60.3" xlink:href="#DejaVuSans-114"/><use x="101.4" xlink:href="#DejaVuSans-101"/><use x="162.9" xlink:href="#DejaVuSans-100"/><use x="226.4" xlink:href="#DejaVuSans-105"/><use x="254.2" xlink:href="#DejaVuSans-99"/><use x="309.1" xlink:href="#DejaVuSans-116"/><use x="348.3" xlink:href="#DejaVuSans-101"/><use x="409.9" xlink:href="#DejaVuSans-100"/><use x="473.3" xlink:href="#DejaVuSans-32"/><use x="505.1" xlink:href="#DejaVuSans-116"/><use x="544.3" xlink:href="#DejaVuSans-105"/><use x="572.1" xlink:href="#DejaVuSans-109"/><use x="669.5" xlink:href="#DejaVuSans-101"/><use x="731.1" xlink:href="#DejaVuSans-32"/><use x="762.8" xlink:href="#DejaVuSans-116"/><use x="802.1" xlink:href="#DejaVuSans-111"/><use x="863.2" xlink:href="#DejaVuSans-32"/><use x="895" xlink:href="#DejaVuSans-101"/><use x="956.5" xlink:href="#DejaVuSans-118"/><use x="1015.7" xlink:href="#DejaVuSans-101"/><use x="1077.2" xlink:href="#DejaVuSans-110"/><use x="1140.6" xlink:href="#DejaVuSans-116"/></g></g></g><g id="line2d_9"><defs><path d="M0 1.5a1.5 1.5 0 100-3 1.5 1.5 0 000 3z" id="m6a4cccb40f" stroke="#4c72b0"/></defs><g clip-path="url(#p45ad3fb071)" fill="#4c72b0" stroke="#4c72b0"><use x="138.2" xlink:href="#m6a4cccb40f" y="136.5"/><use x="273.6" xlink:href="#m6a4cccb40f" y="98.7"/><use x="240.7" xlink:href="#m6a4cccb40f" y="152.6"/><use x="222.6" xlink:href="#m6a4cccb40f" y="143.3"/><use x="210.7" xlink:href="#m6a4cccb40f" y="140"/><use x="264.3" xlink:href="#m6a4cccb40f" y="76.2"/><use x="246.4" xlink:href="#m6a4cccb40f" y="151.3"/><use x="106.1" xlink:href="#m6a4cccb40f" y="78.8"/><use x="258.6" xlink:href="#m6a4cccb40f" y="90.6"/><use x="97.8" xlink:href="#m6a4cccb40f" y="148.1"/><use x="292.7" xlink:href="#m6a4cccb40f" y="94"/><use x="321.3" xlink:href="#m6a4cccb40f" y="58.9"/><use x="226" xlink:href="#m6a4cccb40f" y="115.4"/><use x="253.3" xlink:href="#m6a4cccb40f" y="90"/><use x="272.7" xlink:href="#m6a4cccb40f" y="132.7"/><use x="340" xlink:href="#m6a4cccb40f" y="55.2"/><use x="187.1" xlink:href="#m6a4cccb40f" y="148.3"/><use x="201.2" xlink:href="#m6a4cccb40f" y="178.9"/><use x="224" xlink:href="#m6a4cccb40f" y="141.8"/><use x="273.9" xlink:href="#m6a4cccb40f" y="86.4"/><use x="341.2" xlink:href="#m6a4cccb40f" y="67.4"/><use x="216.7" xlink:href="#m6a4cccb40f" y="135.4"/><use x="225.5" xlink:href="#m6a4cccb40f" y="124.9"/><use x="197.2" xlink:href="#m6a4cccb40f" y="137.5"/><use x="224.6" xlink:href="#m6a4cccb40f" y="124.4"/><use x="316.2" xlink:href="#m6a4cccb40f" y="17.1"/><use x="117.4" xlink:href="#m6a4cccb40f" y="127.6"/><use x="317.6" xlink:href="#m6a4cccb40f" y="86.9"/><use x="265.6" xlink:href="#m6a4cccb40f" y="110.1"/><use x="259.3" xlink:href="#m6a4cccb40f" y="139.1"/><use x="254.8" xlink:href="#m6a4cccb40f" y="141.2"/><use x="73.4" xlink:href="#m6a4cccb40f" y="171.3"/><use x="313" xlink:href="#m6a4cccb40f" y="34.2"/><use x="244.6" xlink:href="#m6a4cccb40f" y="133.1"/><use x="150.3" xlink:href="#m6a4cccb40f" y="177.6"/><use x="149.5" xlink:href="#m6a4cccb40f" y="176.4"/><use x="263.9" xlink:href="#m6a4cccb40f" y="106.6"/><use x="113.8" xlink:href="#m6a4cccb40f" y="156.8"/><use x="330" xlink:href="#m6a4cccb40f" y="60.8"/><use x="253.7" xlink:href="#m6a4cccb40f" y="95.7"/><use x="313.4" xlink:href="#m6a4cccb40f" y="115.6"/><use x="276.3" xlink:href="#m6a4cccb40f" y="129.1"/><use x="184.9" xlink:href="#m6a4cccb40f" y="163.4"/><use x="291.2" xlink:href="#m6a4cccb40f" y="94.7"/><use x="283.7" xlink:href="#m6a4cccb40f" y="78.2"/><use x="303.9" xlink:href="#m6a4cccb40f" y="112.7"/><use x="200.5" xlink:href="#m6a4cccb40f" y="105.2"/><use x="325" xlink:href="#m6a4cccb40f" y="83.8"/><use x="344.8" xlink:href="#m6a4cccb40f" y="52.2"/><use x="298.1" xlink:href="#m6a4cccb40f" y="83.9"/><use x="337.5" xlink:href="#m6a4cccb40f" y="74.9"/><use x="268.3" xlink:href="#m6a4cccb40f" y="114.1"/><use x="227.2" xlink:href="#m6a4cccb40f" y="171.4"/><use x="200.6" xlink:href="#m6a4cccb40f" y="185.1"/><use x="346.2" xlink:href="#m6a4cccb40f" y="57.3"/><use x="259" xlink:href="#m6a4cccb40f" y="104.3"/><use x="377.7" xlink:href="#m6a4cccb40f" y="40.5"/><use x="280" xlink:href="#m6a4cccb40f" y="109.3"/><use x="184.7" xlink:href="#m6a4cccb40f" y="164.2"/><use x="263.3" xlink:href="#m6a4cccb40f" y="127.9"/><use x="264.1" xlink:href="#m6a4cccb40f" y="121.4"/><use x="189.8" xlink:href="#m6a4cccb40f" y="149.9"/><use x="276.1" xlink:href="#m6a4cccb40f" y="128.6"/><use x="209" xlink:href="#m6a4cccb40f" y="22.6"/><use x="139.3" xlink:href="#m6a4cccb40f" y="144.9"/><use x="334" xlink:href="#m6a4cccb40f" y="80.9"/><use x="280.3" xlink:href="#m6a4cccb40f" y="85.8"/><use x="327.9" xlink:href="#m6a4cccb40f" y="84.7"/><use x="291.7" xlink:href="#m6a4cccb40f" y="124"/><use x="179" xlink:href="#m6a4cccb40f" y="120.6"/><use x="202.4" xlink:href="#m6a4cccb40f" y="142.6"/><use x="278.5" xlink:href="#m6a4cccb40f" y="128.3"/><use x="301.9" xlink:href="#m6a4cccb40f" y="47.4"/><use x="284.3" xlink:href="#m6a4cccb40f" y="115.3"/><use x="212.6" xlink:href="#m6a4cccb40f" y="164.4"/><use x="132.4" xlink:href="#m6a4cccb40f" y="156.3"/><use x="349" xlink:href="#m6a4cccb40f" y="58.7"/><use x="305.3" xlink:href="#m6a4cccb40f" y="73.7"/><use x="231.4" xlink:href="#m6a4cccb40f" y="163"/><use x="250" xlink:href="#m6a4cccb40f" y="139.7"/><use x="315" xlink:href="#m6a4cccb40f" y="98.9"/><use x="180.2" xlink:href="#m6a4cccb40f" y="108.2"/><use x="289.2" xlink:href="#m6a4cccb40f" y="30.6"/><use x="356.4" xlink:href="#m6a4cccb40f" y="35"/><use x="365.5" xlink:href="#m6a4cccb40f" y="42.5"/><use x="291.1" xlink:href="#m6a4cccb40f" y="102.5"/><use x="268.7" xlink:href="#m6a4cccb40f" y="138.1"/><use x="239.3" xlink:href="#m6a4cccb40f" y="106.5"/><use x="136.9" xlink:href="#m6a4cccb40f" y="127.8"/><use x="230.7" xlink:href="#m6a4cccb40f" y="126.4"/><use x="328.8" xlink:href="#m6a4cccb40f" y="91.2"/><use x="175.3" xlink:href="#m6a4cccb40f" y="149.2"/><use x="280.8" xlink:href="#m6a4cccb40f" y="135.7"/><use x="290.2" xlink:href="#m6a4cccb40f" y="123.1"/><use x="214.9" xlink:href="#m6a4cccb40f" y="163.1"/><use x="253.5" xlink:href="#m6a4cccb40f" y="104"/><use x="356.2" xlink:href="#m6a4cccb40f" y="56.7"/><use x="190.2" xlink:href="#m6a4cccb40f" y="125.1"/><use x="271.6" xlink:href="#m6a4cccb40f" y="94.7"/><use x="283.2" xlink:href="#m6a4cccb40f" y="74.6"/></g></g><path clip-path="url(#p45ad3fb071)" d="M131.5 214.8L362.3 51.9" fill="none" stroke="#1a1a1a" stroke-dasharray="1.5,2.475" stroke-width="1.5" id="line2d_10"/><path d="M58.2 224.6V7.2" fill="none" stroke="#fff" stroke-linecap="square" stroke-width="1.3" id="patch_3"/><path d="M393 224.6V7.2" fill="none" stroke="#fff" stroke-linecap="square" stroke-width="1.3" id="patch_4"/><path d="M58.2 224.6H393" fill="none" stroke="#fff" stroke-linecap="square" stroke-width="1.3" id="patch_5"/><path d="M58.2 7.2H393" fill="none" stroke="#fff" stroke-linecap="square" stroke-width="1.3" id="patch_6"/></g></g><defs><clipPath id="p45ad3fb071"><path d="M58.2 7.2H393v217.4H58.2z"/></clipPath></defs></svg>