<svg height="356.8" viewBox="0 0 411 267.6" width="548" xmlns="http://www.w3.org/2000/svg" xmlns:xlink="http://www.w3.org/1999/xlink"><defs><style>*{stroke-linecap:butt;stroke-linejoin:round}</style></defs><g id="figure_1"><path d="M0 267.6h411V0H0z" fill="#fff" id="patch_1"/><g id="axes_1"><path d="M69 224.6h334.8V7.2H69z" fill="#eaeaf2" id="patch_2"/><g id="matplotlib.axis_1"><g id="xtick_1"><path clip-path="url(#pf7771f963c)" d="M84.2 224.6V7.2" fill="none" stroke="#fff" stroke-linecap="round" id="line2d_1"/><g id="text_1"><defs><path d="M31.8 66.4q-7.6 0-11.5-7.5-3.8-7.5-3.8-22.5t3.8-22.5q3.9-7.5 11.5-7.5 7.7 0 11.5 7.5T47 36.4q0 15-3.8 22.5t-11.5 7.5zm0 7.8q12.2 0 18.7-9.7T57 36.4Q57 18 50.5 8.3 44-1.4 31.8-1.4 19.5-1.4 13 8.3q-6.5 9.7-6.5 28 0 18.5 6.5 28.2 6.4 9.7 18.7 9.7z" id="DejaVuSans-48"/></defs><use xlink:href="#DejaVuSans-48" transform="matrix(.11 0 0 -.11 80.7 242.5)" fill="#262626"/></g></g><g id="xtick_2"><path clip-path="url(#pf7771f963c)" d="M142.7 224.6V7.2" fill="none" stroke="#fff" stroke-linecap="round" id="line2d_2"/><g id="text_2"><defs><path d="M12.4 8.3h16.1v55.6L11 60.4v9l17.4 3.5h9.9V8.3h16V0H12.5z" id="DejaVuSans-49"/></defs><g transform="matrix(.11 0 0 -.11 135.7 242.5)" fill="#262626"><use xlink:href="#DejaVuSans-49"/><use x="63.6" xlink:href="#DejaVuSans-48"/></g></g></g><g id="xtick_3"><path clip-path="url(#pf7771f963c)" d="M201.2 224.6V7.2" fill="none" stroke="#fff" stroke-linecap="round" id="line2d_3"/><g id="text_3"><defs><path d="M19.2 8.3h34.4V0H7.3v8.3l15.3 15.6q9.7 9.8 12.2 12.6 4.7 5.3 6.6 9 2 3.7 2 7.3 0 5.8-4.2 9.5-4 3.6-10.6 3.6-4.6 0-9.8-1.6-5.1-1.6-11-4.9v10q6 2.4 11.1 3.6 5.2 1.2 9.5 1.2 11.4 0 18-5.7 6.8-5.6 6.8-15 0-4.6-1.7-8.6-1.6-4-6-9.5l-7.9-8.2L19.2 8.3z" id="DejaVuSans-50"/></defs><g transform="matrix(.11 0 0 -.11 194.2 242.5)" fill="#262626"><use xlink:href="#DejaVuSans-50"/><use x="63.6" xlink:href="#DejaVuSans-48"/></g></g></g><g id="xtick_4"><path clip-path="url(#pf7771f963c)" d="M259.8 224.6V7.2" fill="none" stroke="#fff" stroke-linecap="round" id="line2d_4"/><g id="text_4"><defs><path d="M40.6 39.3q7-1.5 11-6.3t4-11.8q0-10.8-7.4-16.7-7.4-6-21.1-6-4.6 0-9.4 1-4.9.9-10 2.7v9.5q4-2.4 8.9-3.6Q21.5 7 26.8 7q9.3 0 14.1 3.6 4.9 3.7 4.9 10.7 0 6.4-4.5 10Q36.8 35 28.7 35h-8.5V43h9q7.2 0 11 3 3.9 2.8 3.9 8.3 0 5.6-4 8.6t-11.4 3q-4 0-8.7-.9-4.6-.8-10.2-2.7v8.8q5.6 1.6 10.5 2.3 5 .8 9.3.8 11.2 0 17.8-5 6.5-5.2 6.5-13.9 0-6-3.5-10.2-3.4-4.2-9.8-5.8z" id="DejaVuSans-51"/></defs><g transform="matrix(.11 0 0 -.11 252.8 242.5)" fill="#262626"><use xlink:href="#DejaVuSans-51"/><use x="63.6" xlink:href="#DejaVuSans-48"/></g></g></g><g id="xtick_5"><path clip-path="url(#pf7771f963c)" d="M318.3 224.6V7.2" fill="none" stroke="#fff" stroke-linecap="round" id="line2d_5"/><g id="text_5"><defs><path d="M37.8 64.3l-25-39h25zM35.2 73h12.4V25.4H58v-8.2H47.6V0h-9.8v17.2h-33v9.5z" id="DejaVuSans-52"/></defs><g transform="matrix(.11 0 0 -.11 311.3 242.5)" fill="#262626"><use xlink:href="#DejaVuSans-52"/><use x="63.6" xlink:href="#DejaVuSans-48"/></g></g></g><g id="xtick_6"><path clip-path="url(#pf7771f963c)" d="M376.8 224.6V7.2" fill="none" stroke="#fff" stroke-linecap="round" id="line2d_6"/><g id="text_6"><defs><path d="M10.8 73h38.7v-8.4H19.8V46.7q2.2.8 4.3 1.1 2.2.4 4.3.4 12.2 0 19.4-6.7 7-6.7 7-18.1 0-11.8-7.2-18.3-7.4-6.5-20.7-6.5-4.6 0-9.4.8-4.7.7-9.8 2.3v10q4.4-2.5 9.1-3.6 4.7-1.2 9.9-1.2 8.5 0 13.4 4.4 5 4.5 5 12 0 7.7-5 12.1Q35 40 26.7 40q-4 0-7.9-.9-4-.9-8-2.7z" id="DejaVuSans-53"/></defs><g transform="matrix(.11 0 0 -.11 369.8 242.5)" fill="#262626"><use xlink:href="#DejaVuSans-53"/><use x="63.6" xlink:href="#DejaVuSans-48"/></g></g></g><g id="text_7"><defs><path d="M64.4 67.3V56.9q-5 4.6-10.6 7Q48 66 41.8 66q-12.5 0-19.1-7.6Q16 50.8 16 36.4q0-14.4 6.7-22 6.6-7.7 19.1-7.7 6.3 0 12 2.3 5.6 2.3 10.6 7V5.5q-5.2-3.5-11-5.3-5.7-1.7-12.2-1.7-16.5 0-26 10.1-9.6 10.1-9.6 27.7T15.1 64q9.6 10.1 26.1 10.1 6.5 0 12.3-1.7 5.8-1.8 11-5.2z" id="DejaVuSans-67"/><path d="M8.5 21.6v33h9V22q0-7.7 3-11.6 3-4 9-4 7.4 0 11.6 4.7 4.2 4.7 4.2 12.7v31h9V0h-9v8.4Q42 3.4 37.7 1q-4.3-2.4-10-2.4-9.4 0-14.3 5.8-4.9 5.9-4.9 17.2zM31.1 56z" id="DejaVuSans-117"/><path d="M44.3 53v-8.4q-3.8 2-8 2.9-4 1-8.4 1-6.7 0-10-2-3.4-2.1-3.4-6.2 0-3.1 2.4-5 2.4-1.7 9.6-3.3l3-.7q9.7-2 13.7-5.8 4-3.7 4-10.4 0-7.6-6-12-6-4.5-16.6-4.5-4.4 0-9.1.8-4.8.9-10 2.6v9.3q5-2.6 9.7-4 4.9-1.2 9.6-1.2 6.4 0 9.8 2.2 3.4 2.2 3.4 6.1 0 3.7-2.5 5.6-2.4 2-10.8 3.8l-3.1.7q-8.4 1.8-12 5.4-3.8 3.6-3.8 10 0 7.7 5.5 11.9Q16.7 56 26.8 56q5 0 9.4-.7 4.4-.8 8-2.2z" id="DejaVuSans-115"/><path d="M18.3 70.2V54.7h18.5v-7H18.3V18q0-6.7 1.8-8.6 1.9-1.9 7.5-1.9h9.2V0h-9.2Q17.2 0 13.2 3.9T9.2 18v29.7H2.8v7h6.6v15.5z" id="DejaVuSans-116"/><path d="M30.6 48.4q-7.2 0-11.4-5.6Q15 37 15 27.3t4.2-15.5q4.1-5.6 11.4-5.6 7.2 0 11.4 5.7 4.2 5.6 4.2 15.4 0 9.7-4.2 15.4-4.2 5.7-11.4 5.7zm0 7.6q11.7 0 18.4-7.6 6.7-7.6 6.7-21.1 0-13.4-6.7-21-6.7-7.7-18.4-7.7-11.8 0-18.4 7.6Q5.5 14 5.5 27.3q0 13.5 6.7 21Q18.8 56 30.6 56z" id="DejaVuSans-111"/><path d="M52 44.2q3.4 6 8 9Q64.9 56 71 56q8.6 0 13.3-6 4.6-6 4.6-17V0h-9v32.7q0 7.9-2.8 11.7-2.8 3.8-8.5 3.8-7 0-11-4.7-4-4.6-4-12.6V0h-9.1v32.7q0 8-2.8 11.7-2.8 3.8-8.6 3.8-6.9 0-11-4.7-4-4.6-4-12.6V0h-9v54.7h9v-8.5q3 5 7.4 7.4Q29.8 56 35.7 56q6 0 10.1-3 4.2-3 6.2-8.8z" id="DejaVuSans-109"/><path d="M56.2 29.6v-4.4H14.9q.6-9.3 5.6-14.1 5-4.9 14-4.9 5 0 10 1.3 4.8 1.2 9.6 3.8V2.8q-4.8-2-10-3.1-5-1.1-10.2-1.1-13.1 0-20.7 7.6-7.7 7.6-7.7 20.6 0 13.4 7.3 21.3Q20 56 32.3 56q11 0 17.5-7.1 6.4-7.1 6.4-19.3zm-9 2.6q0 7.4-4.1 11.8-4 4.4-10.7 4.4-7.5 0-12-4.3-4.5-4.2-5.2-12z" id="DejaVuSans-101"/><path d="M41.1 46.3q-1.5.9-3.3 1.3-1.8.4-4 .4-7.5 0-11.6-5-4-5-4-14.2V0H9v54.7h9v-8.5q2.9 5 7.4 7.4Q30 56 36.5 56l2-.1 2.6-.4z" id="DejaVuSans-114"/><path d="M9.8 73h9.9V0H9.8z" id="DejaVuSans-73"/><path d="M19.7 64.8V8.1h11.9q15 0 22 6.8 7 6.9 7 21.6 0 14.7-7 21.5-7 6.8-22 6.8zm-9.9 8.1h20.3q21.2 0 31-8.8 10-8.8 10-27.6T61 8.8Q51.1 0 30.1 0H9.8z" id="DejaVuSans-68"/></defs><g transform="matrix(.12 0 0 -.12 199 257.9)" fill="#262626"><use xlink:href="#DejaVuSans-67"/><use x="69.8" xlink:href="#DejaVuSans-117"/><use x="133.2" xlink:href="#DejaVuSans-115"/><use x="185.3" xlink:href="#DejaVuSans-116"/><use x="224.5" xlink:href="#DejaVuSans-111"/><use x="285.7" xlink:href="#DejaVuSans-109"/><use x="383.1" xlink:href="#DejaVuSans-101"/><use x="444.6" xlink:href="#DejaVuSans-114"/><use x="485.7" xlink:href="#DejaVuSans-32"/><use x="517.5" xlink:href="#DejaVuSans-73"/><use x="547" xlink:href="#DejaVuSans-68"/></g></g></g><g id="matplotlib.axis_2"><g id="ytick_1"><path clip-path="url(#pf7771f963c)" d="M69 215.3h334.8" fill="none" stroke="#fff" stroke-linecap="round" id="line2d_7"/><g id="text_8"><defs><path d="M10.6 35.5h62.6v-8.3H10.6z" id="DejaVuSans-8722"/></defs><g transform="matrix(.11 0 0 -.11 36.3 219.5)" fill="#262626"><use xlink:href="#DejaVuSans-8722"/><use x="83.8" xlink:href="#DejaVuSans-49"/><use x="147.4" xlink:href="#DejaVuSans-48"/></g></g></g><g id="ytick_2"><path clip-path="url(#pf7771f963c)" d="M69 190.5h334.8" fill="none" stroke="#fff" stroke-linecap="round" id="line2d_8"/><g id="text_9"><defs><path d="M31.8 34.6q-7 0-11-3.7-4.1-3.8-4.1-10.4 0-6.6 4-10.3 4-3.8 11-3.8 7.1 0 11.2 3.8 4 3.8 4 10.3 0 6.6-4 10.4-4 3.7-11.1 3.7zm-9.9 4.2q-6.3 1.6-9.9 6Q8.5 49 8.5 55.2q0 8.8 6.2 13.8 6.3 5.1 17 5.1 11 0 17.2-5Q55 64 55 55.2q0-6.2-3.6-10.6-3.5-4.3-9.8-5.9 7.1-1.6 11.1-6.5 4-4.8 4-11.8 0-10.6-6.5-16.3-6.5-5.6-18.5-5.6T13.2 4.2Q6.8 10 6.8 20.5q0 7 4 11.8 4 4.9 11.1 6.5zm-3.6 15.6q0-5.7 3.5-8.8 3.6-3.2 10-3.2 6.3 0 10 3.2 3.5 3.1 3.5 8.8 0 5.7-3.6 8.8-3.6 3.2-10 3.2-6.3 0-9.9-3.2-3.5-3.1-3.5-8.8z" id="DejaVuSans-56"/></defs><g transform="matrix(.11 0 0 -.11 43.2 194.7)" fill="#262626"><use xlink:href="#DejaVuSans-8722"/><use x="83.8" xlink:href="#DejaVuSans-56"/></g></g></g><g id="ytick_3"><path clip-path="url(#pf7771f963c)" d="M69 165.8h334.8" fill="none" stroke="#fff" stroke-linecap="round" id="line2d_9"/><g id="text_10"><defs><path d="M33 40.4q-6.6 0-10.5-4.6-3.9-4.5-3.9-12.4T22.5 11Q26.4 6.4 33 6.4q6.7 0 10.5 4.6 4 4.5 4 12.4t-4 12.4q-3.8 4.6-10.5 4.6zm19.6 30.9v-9Q48.9 64.1 45 65q-3.8 1-7.5 1-9.8 0-15-6.7-5-6.6-5.8-19.9 2.9 4.3 7.2 6.5 4.4 2.3 9.6 2.3 11 0 17.4-6.7 6.3-6.6 6.3-18.1 0-11.2-6.6-18Q44-1.4 33-1.4q-12.6 0-19.3 9.7Q7 18 7 36.3 7 53.8 15.2 64q8.2 10.3 22 10.3 3.7 0 7.5-.7 3.8-.8 7.9-2.2z" id="DejaVuSans-54"/></defs><g transform="matrix(.11 0 0 -.11 43.2 170)" fill="#262626"><use xlink:href="#DejaVuSans-8722"/><use x="83.8" xlink:href="#DejaVuSans-54"/></g></g></g><g id="ytick_4"><path clip-path="url(#pf7771f963c)" d="M69 141h334.8" fill="none" stroke="#fff" stroke-linecap="round" id="line2d_10"/><g transform="matrix(.11 0 0 -.11 43.2 145.2)" fill="#262626" id="text_11"><use xlink:href="#DejaVuSans-8722"/><use x="83.8" xlink:href="#DejaVuSans-52"/></g></g><g id="ytick_5"><path clip-path="url(#pf7771f963c)" d="M69 116.2h334.8" fill="none" stroke="#fff" stroke-linecap="round" id="line2d_11"/><g transform="matrix(.11 0 0 -.11 43.2 120.4)" fill="#262626" id="text_12"><use xlink:href="#DejaVuSans-8722"/><use x="83.8" xlink:href="#DejaVuSans-50"/></g></g><g id="ytick_6"><path clip-path="url(#pf7771f963c)" d="M69 91.4h334.8" fill="none" stroke="#fff" stroke-linecap="round" id="line2d_12"/><use xlink:href="#DejaVuSans-48" transform="matrix(.11 0 0 -.11 52.5 95.6)" fill="#262626" id="text_13"/></g><g id="ytick_7"><path clip-path="url(#pf7771f963c)" d="M69 66.6h334.8" fill="none" stroke="#fff" stroke-linecap="round" id="line2d_13"/><use xlink:href="#DejaVuSans-50" transform="matrix(.11 0 0 -.11 52.5 70.8)" fill="#262626" id="text_14"/></g><g id="ytick_8"><path clip-path="url(#pf7771f963c)" d="M69 41.9h334.8" fill="none" stroke="#fff" stroke-linecap="round" id="line2d_14"/><use xlink:href="#DejaVuSans-52" transform="matrix(.11 0 0 -.11 52.5 46)" fill="#262626" id="text_15"/></g><g id="ytick_9"><path clip-path="url(#pf7771f963c)" d="M69 17h334.8" fill="none" stroke="#fff" stroke-linecap="round" id="line2d_15"/><use xlink:href="#DejaVuSans-54" transform="matrix(.11 0 0 -.11 52.5 21.3)" fill="#262626" id="text_16"/></g><g id="text_17"><defs><path d="M54.9 33V0h-9v32.7q0 7.8-3 11.6-3 3.9-9.1 3.9-7.3 0-11.5-4.7Q18.1 39 18.1 31V0h-9v54.7h9v-8.5q3.2 5 7.6 7.4Q30.1 56 35.8 56q9.4 0 14.2-5.8Q55 44.3 55 33z" id="DejaVuSans-110"/><path d="M39.4 66.2q-10.7 0-17-8-6.4-8-6.4-21.8t6.3-21.8q6.4-8 17.1-8 10.7 0 17 8 6.3 8 6.3 21.8t-6.3 21.8q-6.3 8-17 8zm0 8Q54.7 74.2 64 64q9.2-10.2 9.2-27.5T63.9 8.9Q54.7-1.4 39.4-1.4 24-1.4 14.8 8.8 5.6 19.1 5.6 36.4t9.2 27.5Q24 74.2 39.4 74.2z" id="DejaVuSans-79"/><path d="M3 54.7h9.5l17-45.9 17.2 45.9h9.5L35.7 0H23.5z" id="DejaVuSans-118"/><path d="M45.4 46.4V76h9V0h-9v8.2Q42.6 3.3 38.3 1q-4.4-2.4-10.4-2.4-10 0-16.2 7.9-6.2 8-6.2 20.8 0 12.9 6.2 20.8Q18 56 28 56q6 0 10.4-2.4 4.3-2.3 7.1-7.2zM14.8 27.3q0-10 4-15.6Q23 6.2 30.2 6.2q7.1 0 11.2 5.7 4.1 5.6 4.1 15.5t-4.1 15.5q-4.1 5.7-11.2 5.7t-11.2-5.7q-4.1-5.6-4.1-15.5z" id="DejaVuSans-100"/><path d="M9.4 54.7h9V0h-9zm0 21.3h9V64.6h-9z" id="DejaVuSans-105"/><path d="M48.7 27.3q0 9.9-4 15.5-4.2 5.7-11.3 5.7-7.1 0-11.2-5.7-4-5.6-4-15.5 0-10 4-15.6t11.2-5.6q7.1 0 11.2 5.7 4 5.6 4 15.5zM18 46.3q2.9 5 7.2 7.3Q29.6 56 35.6 56q10 0 16.2-8Q58 40.3 58 27.4q0-12.9-6.2-20.8-6.2-8-16.2-8-6 0-10.3 2.5Q21 3.3 18 8.2V0h-9v76h9z" id="DejaVuSans-98"/><path d="M54.9 54.7L35 28 56 0H45.3l-16 21.5L13.6 0H2.9L24 28.6l-19.4 26h10.6l14.5-19.4 14.5 19.5z" id="DejaVuSans-120"/><path d="M18.1 8.2v-29h-9v75.5h9v-8.3q2.9 4.9 7.2 7.2Q29.6 56 35.6 56q10 0 16.2-8Q58 40.3 58 27.4q0-12.9-6.2-20.8-6.2-8-16.2-8-6 0-10.3 2.5Q21 3.3 18 8.2zm30.6 19.1q0 9.9-4 15.5-4.2 5.7-11.3 5.7-7.1 0-11.2-5.7-4-5.6-4-15.5 0-10 4-15.6t11.2-5.6q7.1 0 11.2 5.7 4 5.6 4 15.5z" id="DejaVuSans-112"/><path d="M48.8 52.6v-8.4Q45 46.3 41 47.3q-3.8 1-7.7 1-8.7 0-13.6-5.5Q15 37.3 15 27.3t4.8-15.6q4.9-5.5 13.6-5.5 4 0 7.7 1 3.9 1.1 7.7 3.2V2.1Q45 .3 41-.5q-4-1-8.6-1-12.3 0-19.6 7.8-7.3 7.8-7.3 21 0 13.4 7.4 21Q20.2 56 33 56q4.2 0 8.1-.9 4-.8 7.7-2.5z" id="DejaVuSans-99"/><path d="M54.9 33V0h-9v32.7q0 7.8-3 11.6-3 3.9-9.1 3.9-7.3 0-11.5-4.7Q18.1 39 18.1 31V0h-9v76h9V46.2q3.2 5 7.6 7.4Q30.1 56 35.8 56q9.4 0 14.2-5.8Q55 44.3 55 33z" id="DejaVuSans-104"/><path d="M34.3 27.5q-11 0-15.1-2.5-4.2-2.5-4.2-8.5 0-4.8 3.1-7.6 3.2-2.8 8.6-2.8 7.5 0 12 5.3t4.5 14v2zm17.9 3.7V0h-9v8.3q-3-5-7.7-7.3Q31-1.4 24.3-1.4 16-1.4 11 3.3 6 8 6 15.9q0 9.2 6.2 14 6.2 4.6 18.4 4.6h12.6v1q0 6.1-4 9.5-4.1 3.4-11.5 3.4-4.7 0-9.2-1.1-4.4-1.2-8.5-3.4v8.3q5 2 9.6 2.8 4.6 1 9 1 11.9 0 17.7-6.2 5.9-6.1 5.9-18.6z" id="DejaVuSans-97"/></defs><g transform="matrix(0 -.12 -.12 0 16.3 213)" fill="#262626"><use xlink:href="#DejaVuSans-79"/><use x="78.7" xlink:href="#DejaVuSans-98"/><use x="142.2" xlink:href="#DejaVuSans-115"/><use x="194.3" xlink:href="#DejaVuSans-101"/><use x="255.8" xlink:href="#DejaVuSans-114"/><use x="296.9" xlink:href="#DejaVuSans-118"/><use x="356.1" xlink:href="#DejaVuSans-101"/><use x="417.6" xlink:href="#DejaVuSans-100"/><use x="481.1" xlink:href="#DejaVuSans-32"/><use x="512.9" xlink:href="#DejaVuSans-116"/><use x="552.1" xlink:href="#DejaVuSans-105"/><use x="579.9" xlink:href="#DejaVuSans-109"/><use x="677.3" xlink:href="#DejaVuSans-101"/><use x="738.8" xlink:href="#DejaVuSans-32"/><use x="770.6" xlink:href="#DejaVuSans-116"/><use x="809.8" xlink:href="#DejaVuSans-111"/><use x="871" xlink:href="#DejaVuSans-32"/><use x="902.8" xlink:href="#DejaVuSans-110"/><use x="966.2" xlink:href="#DejaVuSans-101"/><use x="1027.7" xlink:href="#DejaVuSans-120"/><use x="1086.8" xlink:href="#DejaVuSans-116"/><use x="1126.1" xlink:href="#DejaVuSans-32"/><use x="1157.8" xlink:href="#DejaVuSans-112"/><use x="1221.3" xlink:href="#DejaVuSans-117"/><use x="1284.7" xlink:href="#DejaVuSans-114"/><use x="1325.8" xlink:href="#DejaVuSans-99"/><use x="1380.8" xlink:href="#DejaVuSans-104"/><use x="1444.1" xlink:href="#DejaVuSans-97"/><use x="1505.4" xlink:href="#DejaVuSans-115"/><use x="1557.5" xlink:href="#DejaVuSans-101"/></g><defs><path d="M45.4 28q0 9.8-4 15.1-4 5.4-11.3 5.4-7.2 0-11.3-5.4-4-5.4-4-15.1t4-15.1q4-5.4 11.3-5.4 7.3 0 11.3 5.4 4 5.4 4 15zm9-21.2q0-14-6.2-20.8-6.2-6.8-19-6.8-4.7 0-9 .7-4.1.7-8 2.2v8.7q3.9-2.1 7.7-3.1 3.9-1 7.9-1 8.8 0 13.2 4.5 4.4 4.6 4.4 14v4.4q-2.8-4.8-7.1-7.2Q33.9 0 27.9 0q-10 0-16.2 7.7Q5.5 15.3 5.5 28q0 12.7 6.2 20.3Q17.8 56 27.9 56q6 0 10.4-2.4 4.3-2.4 7.1-7.2v8.3h9z" id="DejaVuSans-103"/><path d="M4.2 54.7h9L24.4 12l11.2 42.7h10.6L57.4 12l11.2 42.7h9L63.3 0H52.7L40.9 44.8 29.1 0H18.5z" id="DejaVuSans-119"/><path d="M25.4 73h8.3L8.3-9.4H0z" id="DejaVuSans-47"/></defs><g transform="matrix(0 -.12 -.12 0 29.8 214.4)" fill="#262626"><use xlink:href="#DejaVuSans-111"/><use x="61.2" xlink:href="#DejaVuSans-114"/><use x="102.3" xlink:href="#DejaVuSans-32"/><use x="134.1" xlink:href="#DejaVuSans-110"/><use x="197.5" xlink:href="#DejaVuSans-101"/><use x="259" xlink:href="#DejaVuSans-103"/><use x="322.5" xlink:href="#DejaVuSans-32"/><use x="354.2" xlink:href="#DejaVuSans-116"/><use x="393.5" xlink:href="#DejaVuSans-105"/><use x="421.2" xlink:href="#DejaVuSans-109"/><use x="518.7" xlink:href="#DejaVuSans-101"/><use x="580.2" xlink:href="#DejaVuSans-32"/><use x="612" xlink:href="#DejaVuSans-119"/><use x="693.8" xlink:href="#DejaVuSans-47"/><use x="727.4" xlink:href="#DejaVuSans-111"/><use x="788.6" xlink:href="#DejaVuSans-32"/><use x="820.4" xlink:href="#DejaVuSans-114"/><use x="861.5" xlink:href="#DejaVuSans-101"/><use x="923" xlink:href="#DejaVuSans-112"/><use x="986.5" xlink:href="#DejaVuSans-101"/><use x="1048" xlink:href="#DejaVuSans-97"/><use x="1109.3" xlink:href="#DejaVuSans-116"/><use x="1148.5" xlink:href="#DejaVuSans-32"/><use x="1180.3" xlink:href="#DejaVuSans-112"/><use x="1243.8" xlink:href="#DejaVuSans-117"/><use x="1307.1" xlink:href="#DejaVuSans-114"/><use x="1348.2" xlink:href="#DejaVuSans-99"/><use x="1403.2" xlink:href="#DejaVuSans-104"/><use x="1466.6" xlink:href="#DejaVuSans-97"/><use x="1527.9" xlink:href="#DejaVuSans-115"/><use x="1580" xlink:href="#DejaVuSans-101"/></g></g></g><g id="line2d_16"><defs><path d="M0 1.5a1.5 1.5 0 100-3 1.5 1.5 0 000 3z" id="m8b42b6cf4c" stroke="#c44e52"/></defs><g clip-path="url(#pf7771f963c)" fill="#c44e52" stroke="#c44e52"><use x="84.2" xlink:href="#m8b42b6cf4c" y="147.2"/><use x="90" xlink:href="#m8b42b6cf4c" y="131.1"/><use x="95.9" xlink:href="#m8b42b6cf4c" y="121.7"/><use x="101.7" xlink:href="#m8b42b6cf4c" y="121"/><use x="107.6" xlink:href="#m8b42b6cf4c" y="151.1"/><use x="113.5" xlink:href="#m8b42b6cf4c" y="92.5"/><use x="119.3" xlink:href="#m8b42b6cf4c" y="153.5"/><use x="125.2" xlink:href="#m8b42b6cf4c" y="133.7"/><use x="131" xlink:href="#m8b42b6cf4c" y="205.6"/><use x="136.9" xlink:href="#m8b42b6cf4c" y="148.7"/><use x="142.7" xlink:href="#m8b42b6cf4c" y="97.8"/><use x="148.6" xlink:href="#m8b42b6cf4c" y="128.1"/><use x="154.4" xlink:href="#m8b42b6cf4c" y="135.7"/><use x="160.3" xlink:href="#m8b42b6cf4c" y="117.5"/><use x="166.1" xlink:href="#m8b42b6cf4c" y="115.3"/><use x="172" xlink:href="#m8b42b6cf4c" y="213"/><use x="177.8" xlink:href="#m8b42b6cf4c" y="127.7"/><use x="183.7" xlink:href="#m8b42b6cf4c" y="128.4"/><use x="189.5" xlink:href="#m8b42b6cf4c" y="170.8"/><use x="195.4" xlink:href="#m8b42b6cf4c" y="127.6"/><use x="201.2" xlink:href="#m8b42b6cf4c" y="95.9"/><use x="207.1" xlink:href="#m8b42b6cf4c" y="94.3"/><use x="213" xlink:href="#m8b42b6cf4c" y="184.3"/><use x="218.8" xlink:href="#m8b42b6cf4c" y="202.4"/><use x="224.7" xlink:href="#m8b42b6cf4c" y="104.3"/><use x="230.5" xlink:href="#m8b42b6cf4c" y="97.8"/><use x="236.4" xlink:href="#m8b42b6cf4c" y="108.7"/><use x="242.2" xlink:href="#m8b42b6cf4c" y="119.2"/><use x="248.1" xlink:href="#m8b42b6cf4c" y="214.8"/><use x="253.9" xlink:href="#m8b42b6cf4c" y="179.6"/><use x="259.8" xlink:href="#m8b42b6cf4c" y="162.3"/><use x="265.6" xlink:href="#m8b42b6cf4c" y="147.9"/><use x="271.5" xlink:href="#m8b42b6cf4c" y="152.4"/><use x="277.3" xlink:href="#m8b42b6cf4c" y="157.3"/><use x="283.2" xlink:href="#m8b42b6cf4c" y="94.7"/><use x="289" xlink:href="#m8b42b6cf4c" y="151.5"/><use x="294.9" xlink:href="#m8b42b6cf4c" y="173.5"/><use x="300.8" xlink:href="#m8b42b6cf4c" y="202"/><use x="306.6" xlink:href="#m8b42b6cf4c" y="209.9"/><use x="312.5" xlink:href="#m8b42b6cf4c" y="206.1"/><use x="318.3" xlink:href="#m8b42b6cf4c" y="133.3"/><use x="324.2" xlink:href="#m8b42b6cf4c" y="150.3"/><use x="330" xlink:href="#m8b42b6cf4c" y="207.1"/><use x="335.9" xlink:href="#m8b42b6cf4c" y="123.1"/><use x="341.7" xlink:href="#m8b42b6cf4c" y="170.6"/><use x="347.6" xlink:href="#m8b42b6cf4c" y="189.9"/><use x="353.4" xlink:href="#m8b42b6cf4c" y="97.8"/><use x="359.3" xlink:href="#m8b42b6cf4c" y="118"/><use x="365.1" xlink:href="#m8b42b6cf4c" y="97.2"/><use x="371" xlink:href="#m8b42b6cf4c" y="201.6"/><use x="376.8" xlink:href="#m8b42b6cf4c" y="104.7"/><use x="382.7" xlink:href="#m8b42b6cf4c" y="133.2"/><use x="388.5" xlink:href="#m8b42b6cf4c" y="188.1"/></g></g><g id="line2d_17"><defs><path d="M0 1.5a1.5 1.5 0 100-3 1.5 1.5 0 000 3z" id="me3bbf69031" stroke="#55a868"/></defs><g clip-path="url(#pf7771f963c)" fill="#55a868" stroke="#55a868"><use x="84.2" xlink:href="#me3bbf69031" y="89.9"/><use x="90" xlink:href="#me3bbf69031" y="58.9"/><use x="95.9" xlink:href="#me3bbf69031" y="72.5"/><use x="101.7" xlink:href="#me3bbf69031" y="78.2"/><use x="107.6" xlink:href="#me3bbf69031" y="25.5"/><use x="113.5" xlink:href="#me3bbf69031" y="52.9"/><use x="119.3" xlink:href="#me3bbf69031" y="90.8"/><use x="125.2" xlink:href="#me3bbf69031" y="91"/><use x="131" xlink:href="#me3bbf69031" y="70.5"/><use x="136.9" xlink:href="#me3bbf69031" y="44"/><use x="142.7" xlink:href="#me3bbf69031" y="84.9"/><use x="148.6" xlink:href="#me3bbf69031" y="81.5"/><use x="154.4" xlink:href="#me3bbf69031" y="71.7"/><use x="160.3" xlink:href="#me3bbf69031" y="75.6"/><use x="166.1" xlink:href="#me3bbf69031" y="70.8"/><use x="172" xlink:href="#me3bbf69031" y="82.6"/><use x="177.8" xlink:href="#me3bbf69031" y="71.3"/><use x="183.7" xlink:href="#me3bbf69031" y="90.6"/><use x="189.5" xlink:href="#me3bbf69031" y="22.8"/><use x="195.4" xlink:href="#me3bbf69031" y="41.8"/><use x="201.2" xlink:href="#me3bbf69031" y="91.2"/><use x="207.1" xlink:href="#me3bbf69031" y="54.9"/><use x="213" xlink:href="#me3bbf69031" y="89.3"/><use x="218.8" xlink:href="#me3bbf69031" y="89.3"/><use x="224.7" xlink:href="#me3bbf69031" y="90.7"/><use x="230.5" xlink:href="#me3bbf69031" y="85.3"/><use x="236.4" xlink:href="#me3bbf69031" y="81.6"/><use x="242.2" xlink:href="#me3bbf69031" y="17.1"/><use x="248.1" xlink:href="#me3bbf69031" y="85.3"/><use x="253.9" xlink:href="#me3bbf69031" y="27.4"/><use x="259.8" xlink:href="#me3bbf69031" y="25.9"/><use x="265.6" xlink:href="#me3bbf69031" y="84.3"/><use x="271.5" xlink:href="#me3bbf69031" y="78.8"/><use x="277.3" xlink:href="#me3bbf69031" y="89.9"/><use x="283.2" xlink:href="#me3bbf69031" y="86.3"/><use x="289" xlink:href="#me3bbf69031" y="81.1"/><use x="294.9" xlink:href="#me3bbf69031" y="77.4"/><use x="300.8" xlink:href="#me3bbf69031" y="90.2"/><use x="306.6" xlink:href="#me3bbf69031" y="66.8"/><use x="312.5" xlink:href="#me3bbf69031" y="86.1"/><use x="318.3" xlink:href="#me3bbf69031" y="60.2"/><use x="324.2" xlink:href="#me3bbf69031" y="90"/><use x="330" xlink:href="#me3bbf69031" y="67.3"/><use x="335.9" xlink:href="#me3bbf69031" y="86.8"/><use x="341.7" xlink:href="#me3bbf69031" y="76.4"/><use x="347.6" xlink:href="#me3bbf69031" y="43.6"/><use x="353.4" xlink:href="#me3bbf69031" y="84.2"/></g></g><path d="M69 224.6V7.2" fill="none" stroke="#fff" stroke-linecap="square" stroke-width="1.3" id="patch_3"/><path d="M403.8 224.6V7.2" fill="none" stroke="#fff" stroke-linecap="square" stroke-width="1.3" id="patch_4"/><path d="M69 224.6h334.8" fill="none" stroke="#fff" stroke-linecap="square" stroke-width="1.3" id="patch_5"/><path d="M69 7.2h334.8" fill="none" stroke="#fff" stroke-linecap="square" stroke-width="1.3" id="patch_6"/></g></g><defs><clipPath id="pf7771f963c"><path d="M69 7.2h334.8v217.4H69z"/></clipPath></defs></svg>