<svg height="377" viewBox="0 0 391.8 282.7" width="522.4" xmlns="http://www.w3.org/2000/svg" xmlns:xlink="http://www.w3.org/1999/xlink"><defs><style>*{stroke-linecap:butt;stroke-linejoin:round}</style></defs><g id="figure_1"><path d="M0 282.7h391.8V0H0z" fill="#fff" id="patch_1"/><g id="axes_1"><path d="M49.8 239.8h334.8V22.3H49.8z" fill="#eaeaf2" id="patch_2"/><g id="matplotlib.axis_1"><g id="xtick_1"><path clip-path="url(#pb515eeffa3)" d="M65 239.8V22.3" fill="none" stroke="#fff" stroke-linecap="round" id="line2d_1"/><g id="text_1"><defs><path d="M31.8 66.4q-7.6 0-11.5-7.5-3.8-7.5-3.8-22.5t3.8-22.5q3.9-7.5 11.5-7.5 7.7 0 11.5 7.5T47 36.4q0 15-3.8 22.5t-11.5 7.5zm0 7.8q12.2 0 18.7-9.7T57 36.4Q57 18 50.5 8.3 44-1.4 31.8-1.4 19.5-1.4 13 8.3q-6.5 9.7-6.5 28 0 18.5 6.5 28.2 6.4 9.7 18.7 9.7z" id="DejaVuSans-48"/></defs><use xlink:href="#DejaVuSans-48" transform="matrix(.11 0 0 -.11 61.5 257.6)" fill="#262626"/></g></g><g id="xtick_2"><path clip-path="url(#pb515eeffa3)" d="M125.9 239.8V22.3" fill="none" stroke="#fff" stroke-linecap="round" id="line2d_2"/><g id="text_2"><defs><path d="M19.2 8.3h34.4V0H7.3v8.3l15.3 15.6q9.7 9.8 12.2 12.6 4.7 5.3 6.6 9 2 3.7 2 7.3 0 5.8-4.2 9.5-4 3.6-10.6 3.6-4.6 0-9.8-1.6-5.1-1.6-11-4.9v10q6 2.4 11.1 3.6 5.2 1.2 9.5 1.2 11.4 0 18-5.7 6.8-5.6 6.8-15 0-4.6-1.7-8.6-1.6-4-6-9.5l-7.9-8.2L19.2 8.3z" id="DejaVuSans-50"/></defs><use xlink:href="#DejaVuSans-50" transform="matrix(.11 0 0 -.11 122.4 257.6)" fill="#262626"/></g></g><g id="xtick_3"><path clip-path="url(#pb515eeffa3)" d="M186.8 239.8V22.3" fill="none" stroke="#fff" stroke-linecap="round" id="line2d_3"/><g id="text_3"><defs><path d="M37.8 64.3l-25-39h25zM35.2 73h12.4V25.4H58v-8.2H47.6V0h-9.8v17.2h-33v9.5z" id="DejaVuSans-52"/></defs><use xlink:href="#DejaVuSans-52" transform="matrix(.11 0 0 -.11 183.3 257.6)" fill="#262626"/></g></g><g id="xtick_4"><path clip-path="url(#pb515eeffa3)" d="M247.6 239.8V22.3" fill="none" stroke="#fff" stroke-linecap="round" id="line2d_4"/><g id="text_4"><defs><path d="M33 40.4q-6.6 0-10.5-4.6-3.9-4.5-3.9-12.4T22.5 11Q26.4 6.4 33 6.4q6.7 0 10.5 4.6 4 4.5 4 12.4t-4 12.4q-3.8 4.6-10.5 4.6zm19.6 30.9v-9Q48.9 64.1 45 65q-3.8 1-7.5 1-9.8 0-15-6.7-5-6.6-5.8-19.9 2.9 4.3 7.2 6.5 4.4 2.3 9.6 2.3 11 0 17.4-6.7 6.3-6.6 6.3-18.1 0-11.2-6.6-18Q44-1.4 33-1.4q-12.6 0-19.3 9.7Q7 18 7 36.3 7 53.8 15.2 64q8.2 10.3 22 10.3 3.7 0 7.5-.7 3.8-.8 7.9-2.2z" id="DejaVuSans-54"/></defs><use xlink:href="#DejaVuSans-54" transform="matrix(.11 0 0 -.11 244.1 257.6)" fill="#262626"/></g></g><g id="xtick_5"><path clip-path="url(#pb515eeffa3)" d="M308.5 239.8V22.3" fill="none" stroke="#fff" stroke-linecap="round" id="line2d_5"/><g id="text_5"><defs><path d="M31.8 34.6q-7 0-11-3.7-4.1-3.8-4.1-10.4 0-6.6 4-10.3 4-3.8 11-3.8 7.1 0 11.2 3.8 4 3.8 4 10.3 0 6.6-4 10.4-4 3.7-11.1 3.7zm-9.9 4.2q-6.3 1.6-9.9 6Q8.5 49 8.5 55.2q0 8.8 6.2 13.8 6.3 5.1 17 5.1 11 0 17.2-5Q55 64 55 55.2q0-6.2-3.6-10.6-3.5-4.3-9.8-5.9 7.1-1.6 11.1-6.5 4-4.8 4-11.8 0-10.6-6.5-16.3-6.5-5.6-18.5-5.6T13.2 4.2Q6.8 10 6.8 20.5q0 7 4 11.8 4 4.9 11.1 6.5zm-3.6 15.6q0-5.7 3.5-8.8 3.6-3.2 10-3.2 6.3 0 10 3.2 3.5 3.1 3.5 8.8 0 5.7-3.6 8.8-3.6 3.2-10 3.2-6.3 0-9.9-3.2-3.5-3.1-3.5-8.8z" id="DejaVuSans-56"/></defs><use xlink:href="#DejaVuSans-56" transform="matrix(.11 0 0 -.11 305 257.6)" fill="#262626"/></g></g><g id="xtick_6"><path clip-path="url(#pb515eeffa3)" d="M369.4 239.8V22.3" fill="none" stroke="#fff" stroke-linecap="round" id="line2d_6"/><g id="text_6"><defs><path d="M12.4 8.3h16.1v55.6L11 60.4v9l17.4 3.5h9.9V8.3h16V0H12.5z" id="DejaVuSans-49"/></defs><g transform="matrix(.11 0 0 -.11 362.4 257.6)" fill="#262626"><use xlink:href="#DejaVuSans-49"/><use x="63.6" xlink:href="#DejaVuSans-48"/></g></g></g><g id="text_7"><defs><path d="M54.9 54.7L35 28 56 0H45.3l-16 21.5L13.6 0H2.9L24 28.6l-19.4 26h10.6l14.5-19.4 14.5 19.5z" id="DejaVuSans-120"/></defs><use xlink:href="#DejaVuSans-120" transform="matrix(.12 0 0 -.12 213.7 273)" fill="#262626"/></g></g><g id="matplotlib.axis_2"><g id="ytick_1"><path clip-path="url(#pb515eeffa3)" d="M49.8 229.9h334.8" fill="none" stroke="#fff" stroke-linecap="round" id="line2d_7"/><g id="text_8"><defs><path d="M10.7 12.4H21V0H10.7z" id="DejaVuSans-46"/></defs><g transform="matrix(.11 0 0 -.11 22.8 234)" fill="#262626"><use xlink:href="#DejaVuSans-48"/><use x="63.6" xlink:href="#DejaVuSans-46"/><use x="95.4" xlink:href="#DejaVuSans-48"/></g></g></g><g id="ytick_2"><path clip-path="url(#pb515eeffa3)" d="M49.8 190.3h334.8" fill="none" stroke="#fff" stroke-linecap="round" id="line2d_8"/><g transform="matrix(.11 0 0 -.11 22.8 194.5)" fill="#262626" id="text_9"><use xlink:href="#DejaVuSans-48"/><use x="63.6" xlink:href="#DejaVuSans-46"/><use x="95.4" xlink:href="#DejaVuSans-50"/></g></g><g id="ytick_3"><path clip-path="url(#pb515eeffa3)" d="M49.8 150.8h334.8" fill="none" stroke="#fff" stroke-linecap="round" id="line2d_9"/><g transform="matrix(.11 0 0 -.11 22.8 155)" fill="#262626" id="text_10"><use xlink:href="#DejaVuSans-48"/><use x="63.6" xlink:href="#DejaVuSans-46"/><use x="95.4" xlink:href="#DejaVuSans-52"/></g></g><g id="ytick_4"><path clip-path="url(#pb515eeffa3)" d="M49.8 111.3h334.8" fill="none" stroke="#fff" stroke-linecap="round" id="line2d_10"/><g transform="matrix(.11 0 0 -.11 22.8 115.4)" fill="#262626" id="text_11"><use xlink:href="#DejaVuSans-48"/><use x="63.6" xlink:href="#DejaVuSans-46"/><use x="95.4" xlink:href="#DejaVuSans-54"/></g></g><g id="ytick_5"><path clip-path="url(#pb515eeffa3)" d="M49.8 71.7h334.8" fill="none" stroke="#fff" stroke-linecap="round" id="line2d_11"/><g transform="matrix(.11 0 0 -.11 22.8 76)" fill="#262626" id="text_12"><use xlink:href="#DejaVuSans-48"/><use x="63.6" xlink:href="#DejaVuSans-46"/><use x="95.4" xlink:href="#DejaVuSans-56"/></g></g><g id="ytick_6"><path clip-path="url(#pb515eeffa3)" d="M49.8 32.2h334.8" fill="none" stroke="#fff" stroke-linecap="round" id="line2d_12"/><g transform="matrix(.11 0 0 -.11 22.8 36.4)" fill="#262626" id="text_13"><use xlink:href="#DejaVuSans-49"/><use x="63.6" xlink:href="#DejaVuSans-46"/><use x="95.4" xlink:href="#DejaVuSans-48"/></g></g><g id="text_14"><defs><path d="M19.7 64.8V37.4H32q6.9 0 10.6 3.6 3.8 3.5 3.8 10.1t-3.8 10.1q-3.7 3.6-10.6 3.6zm-9.9 8.1h22.3q12.2 0 18.5-5.5Q57 61.8 57 51q0-10.8-6.3-16.3t-18.5-5.5H19.7V0H9.8z" id="DejaVuSans-80"/><path d="M41.1 46.3q-1.5.9-3.3 1.3-1.8.4-4 .4-7.5 0-11.6-5-4-5-4-14.2V0H9v54.7h9v-8.5q2.9 5 7.4 7.4Q30 56 36.5 56l2-.1 2.6-.4z" id="DejaVuSans-114"/><path d="M30.6 48.4q-7.2 0-11.4-5.6Q15 37 15 27.3t4.2-15.5q4.1-5.6 11.4-5.6 7.2 0 11.4 5.7 4.2 5.6 4.2 15.4 0 9.7-4.2 15.4-4.2 5.7-11.4 5.7zm0 7.6q11.7 0 18.4-7.6 6.7-7.6 6.7-21.1 0-13.4-6.7-21-6.7-7.7-18.4-7.7-11.8 0-18.4 7.6Q5.5 14 5.5 27.3q0 13.5 6.7 21Q18.8 56 30.6 56z" id="DejaVuSans-111"/><path d="M48.7 27.3q0 9.9-4 15.5-4.2 5.7-11.3 5.7-7.1 0-11.2-5.7-4-5.6-4-15.5 0-10 4-15.6t11.2-5.6q7.1 0 11.2 5.7 4 5.6 4 15.5zM18 46.3q2.9 5 7.2 7.3Q29.6 56 35.6 56q10 0 16.2-8Q58 40.3 58 27.4q0-12.9-6.2-20.8-6.2-8-16.2-8-6 0-10.3 2.5Q21 3.3 18 8.2V0h-9v76h9z" id="DejaVuSans-98"/><path d="M34.3 27.5q-11 0-15.1-2.5-4.2-2.5-4.2-8.5 0-4.8 3.1-7.6 3.2-2.8 8.6-2.8 7.5 0 12 5.3t4.5 14v2zm17.9 3.7V0h-9v8.3q-3-5-7.7-7.3Q31-1.4 24.3-1.4 16-1.4 11 3.3 6 8 6 15.9q0 9.2 6.2 14 6.2 4.6 18.4 4.6h12.6v1q0 6.1-4 9.5-4.1 3.4-11.5 3.4-4.7 0-9.2-1.1-4.4-1.2-8.5-3.4v8.3q5 2 9.6 2.8 4.6 1 9 1 11.9 0 17.7-6.2 5.9-6.1 5.9-18.6z" id="DejaVuSans-97"/><path d="M9.4 54.7h9V0h-9zm0 21.3h9V64.6h-9z" id="DejaVuSans-105"/><path d="M9.4 76h9V0h-9z" id="DejaVuSans-108"/><path d="M18.3 70.2V54.7h18.5v-7H18.3V18q0-6.7 1.8-8.6 1.9-1.9 7.5-1.9h9.2V0h-9.2Q17.2 0 13.2 3.9T9.2 18v29.7H2.8v7h6.6v15.5z" id="DejaVuSans-116"/><path d="M32.2-5q-3.8-9.8-7.5-12.8-3.6-3-9.6-3H7.9v7.5h5.3q3.7 0 5.7 1.8 2.1 1.7 4.6 8.3l1.6 4L3 54.8h9.5l17-42.8 17.2 42.8h9.5z" id="DejaVuSans-121"/></defs><g transform="matrix(0 -.12 -.12 0 16.3 163)" fill="#262626"><use xlink:href="#DejaVuSans-80"/><use x="60.3" xlink:href="#DejaVuSans-114"/><use x="101.4" xlink:href="#DejaVuSans-111"/><use x="162.6" xlink:href="#DejaVuSans-98"/><use x="226" xlink:href="#DejaVuSans-97"/><use x="287.3" xlink:href="#DejaVuSans-98"/><use x="350.8" xlink:href="#DejaVuSans-105"/><use x="378.6" xlink:href="#DejaVuSans-108"/><use x="406.3" xlink:href="#DejaVuSans-105"/><use x="434.1" xlink:href="#DejaVuSans-116"/><use x="473.3" xlink:href="#DejaVuSans-121"/></g></g></g><path clip-path="url(#pb515eeffa3)" d="M65 32.2l2.8 17 2.7 15.6L73.3 79 76 92l2.7 11.9 2.8 10.8 2.7 10 2.8 9 2.7 8.3 2.7 7.6 2.8 6.9 2.7 6.3 2.8 5.8 2.7 5.3 2.8 4.8 2.7 4.4 2.7 4 3 4.1 3.1 3.7 3 3.3 3.1 3 3.4 3 3.3 2.7 3.4 2.4 3.6 2.3 3.7 2 4 2 4 1.8 4.2 1.6 4.5 1.5 5 1.4 5.4 1.3 5.8 1.2 6.4 1 7 1 8 .7 9 .8 10.7.6 12.8.4 16.2.4 21.6.3 32.6.2h71" fill="none" stroke="#4c72b0" stroke-linecap="round" stroke-width="1.5" id="line2d_13"/><path clip-path="url(#pb515eeffa3)" d="M65 229.9l7.3-23.4 4-12 3.3-9.5 3.1-7.9 2.7-6.5 2.5-5.2 2.1-4 2.1-3.7 2.2-3.2L96 152l1.8-2 1.9-1.7 1.5-1.1 1.5-.9 1.5-.6 1.6-.5 1.5-.2h1.5l1.5.2 1.5.5 1.9.7 1.8 1 1.8 1.3 2.2 1.7 2.4 2.3 2.4 2.7 2.8 3.2 3.3 4.4 4.3 5.9 16.8 23.6 4 5 3.6 4.3 3.3 3.6 3.4 3.3 3.3 3 3.4 2.7 3.3 2.3 3.4 2.1 3.3 1.8 3.4 1.6 3.6 1.4 3.7 1.3 4 1 4.2 1 4.6.7 5.2.7 6 .5 7.4.4 9.4.3 13.7.2h121.6" fill="none" stroke="#dd8452" stroke-linecap="round" stroke-width="1.5" id="line2d_14"/><path clip-path="url(#pb515eeffa3)" d="M65 229.9l13.7-11 7.3-5.6 6.1-4.4 5.5-3.7 5.2-3.2 4.9-2.8 4.5-2.3 4.6-2.1 4.3-1.7 4.2-1.5 4.3-1.3 4.3-1 4.2-.8 4.3-.6 4.3-.3 4.2-.1h4.6l4.6.4 4.9.6 5.1.9 5.5 1.1 5.8 1.5 6.4 1.8 7.6 2.5 9.5 3.2 33.5 11.8 9.1 3 8.6 2.4 8.2 2 7.9 1.9 8.2 1.6 8.3 1.5 8.5 1.2 9.1 1.1 9.8 1 10.6.8 11.6.6 13.4.6 16.2.4h1.5" fill="none" stroke="#55a868" stroke-linecap="round" stroke-width="1.5" id="line2d_15"/><path clip-path="url(#pb515eeffa3)" d="M65 229.9l23.2-.1 8.5-.3 6.7-.4 5.5-.6 4.9-.7 4.5-.9 4.3-1 4-1.3 3.6-1.3 3.7-1.6 3.6-1.8 3.7-2 3.3-2.2 3.7-2.6 3.7-3 3.6-3.2 3.7-3.5 4-4 4.5-5.1 5.5-6.5 14.3-17 3.7-4 3-3 2.7-2.3 2.5-1.9 2.1-1.3 2.1-1.1 2.2-.8 1.8-.5 1.8-.3h1.9l1.8.2 1.8.5 1.9.6 1.8 1 1.8 1.1 2.1 1.7 2.2 2 2.1 2.2 2.4 3 2.8 3.5 3 4.4 4 6.1 13.4 21.2 3.3 4.6 3 3.9 2.8 3.1 2.8 2.8 2.4 2.2 2.5 1.8 2.4 1.7 2.4 1.4 2.8 1.2 2.7 1 3 1 3.4.7 3.7.5 4.2.4 5.5.3 8 .1h62.1" fill="none" stroke="#c44e52" stroke-linecap="round" stroke-width="1.5" id="line2d_16"/><path d="M49.8 239.8V22.3" fill="none" stroke="#fff" stroke-linecap="square" stroke-width="1.3" id="patch_3"/><path d="M384.6 239.8V22.3" fill="none" stroke="#fff" stroke-linecap="square" stroke-width="1.3" id="patch_4"/><path d="M49.8 239.8h334.8" fill="none" stroke="#fff" stroke-linecap="square" stroke-width="1.3" id="patch_5"/><path d="M49.8 22.3h334.8" fill="none" stroke="#fff" stroke-linecap="square" stroke-width="1.3" id="patch_6"/><g id="text_15"><defs><path d="M3.3 73h10l15.3-61.7L44 72.9h11l15.4-61.6 15.3 61.6h10L77.3 0H64.9L49.5 63.3 34 0H21.6z" id="DejaVuSans-87"/><path d="M56.2 29.6v-4.4H14.9q.6-9.3 5.6-14.1 5-4.9 14-4.9 5 0 10 1.3 4.8 1.2 9.6 3.8V2.8q-4.8-2-10-3.1-5-1.1-10.2-1.1-13.1 0-20.7 7.6-7.7 7.6-7.7 20.6 0 13.4 7.3 21.3Q20 56 32.3 56q11 0 17.5-7.1 6.4-7.1 6.4-19.3zm-9 2.6q0 7.4-4.1 11.8-4 4.4-10.7 4.4-7.5 0-12-4.3-4.5-4.2-5.2-12z" id="DejaVuSans-101"/><path d="M8.5 21.6v33h9V22q0-7.7 3-11.6 3-4 9-4 7.4 0 11.6 4.7 4.2 4.7 4.2 12.7v31h9V0h-9v8.4Q42 3.4 37.7 1q-4.3-2.4-10-2.4-9.4 0-14.3 5.8-4.9 5.9-4.9 17.2zM31.1 56z" id="DejaVuSans-117"/><path d="M19.7 64.8V8.1h11.9q15 0 22 6.8 7 6.9 7 21.6 0 14.7-7 21.5-7 6.8-22 6.8zm-9.9 8.1h20.3q21.2 0 31-8.8 10-8.8 10-27.6T61 8.8Q51.1 0 30.1 0H9.8z" id="DejaVuSans-68"/><path d="M44.3 53v-8.4q-3.8 2-8 2.9-4 1-8.4 1-6.7 0-10-2-3.4-2.1-3.4-6.2 0-3.1 2.4-5 2.4-1.7 9.6-3.3l3-.7q9.7-2 13.7-5.8 4-3.7 4-10.4 0-7.6-6-12-6-4.5-16.6-4.5-4.4 0-9.1.8-4.8.9-10 2.6v9.3q5-2.6 9.7-4 4.9-1.2 9.6-1.2 6.4 0 9.8 2.2 3.4 2.2 3.4 6.1 0 3.7-2.5 5.6-2.4 2-10.8 3.8l-3.1.7q-8.4 1.8-12 5.4-3.8 3.6-3.8 10 0 7.7 5.5 11.9Q16.7 56 26.8 56q5 0 9.4-.7 4.4-.8 8-2.2z" id="DejaVuSans-115"/><path d="M54.9 33V0h-9v32.7q0 7.8-3 11.6-3 3.9-9.1 3.9-7.3 0-11.5-4.7Q18.1 39 18.1 31V0h-9v54.7h9v-8.5q3.2 5 7.6 7.4Q30.1 56 35.8 56q9.4 0 14.2-5.8Q55 44.3 55 33z" id="DejaVuSans-110"/></defs><g transform="matrix(.12 0 0 -.12 158 16.3)" fill="#262626"><use xlink:href="#DejaVuSans-87"/><use x="98.8" xlink:href="#DejaVuSans-101"/><use x="160.3" xlink:href="#DejaVuSans-105"/><use x="188.1" xlink:href="#DejaVuSans-98"/><use x="251.6" xlink:href="#DejaVuSans-117"/><use x="315" xlink:href="#DejaVuSans-108"/><use x="342.7" xlink:href="#DejaVuSans-108"/><use x="370.5" xlink:href="#DejaVuSans-32"/><use x="402.3" xlink:href="#DejaVuSans-68"/><use x="479.3" xlink:href="#DejaVuSans-105"/><use x="507.1" xlink:href="#DejaVuSans-115"/><use x="559.2" xlink:href="#DejaVuSans-116"/><use x="598.4" xlink:href="#DejaVuSans-114"/><use x="639.5" xlink:href="#DejaVuSans-105"/><use x="667.3" xlink:href="#DejaVuSans-98"/><use x="730.8" xlink:href="#DejaVuSans-117"/><use x="794.2" xlink:href="#DejaVuSans-116"/><use x="833.4" xlink:href="#DejaVuSans-105"/><use x="861.2" xlink:href="#DejaVuSans-111"/><use x="922.3" xlink:href="#DejaVuSans-110"/></g></g><g id="legend_1"><path d="M271.4 95.7h105.5q2.2 0 2.2-2.2V30q0-2.2-2.2-2.2H271.4q-2.2 0-2.2 2.2v63.5q0 2.2 2.2 2.2z" fill="#eaeaf2" opacity=".8" stroke="#ccc" id="patch_7"/><path d="M273.6 36.7h22" fill="none" stroke="#4c72b0" stroke-linecap="round" stroke-width="1.5" id="line2d_17"/><g id="text_16"><defs><path d="M31 75.9q-6.5-11.2-9.7-22.2-3.2-11-3.2-22.3T21.3 9Q24.5-2 31-13.2h-7.8q-7.3 11.5-11 22.6-3.6 11-3.6 22 0 10.9 3.6 22 3.6 11 11 22.5z" id="DejaVuSans-40"/><path d="M11.7 12.4H22V4l-8-15.6H7.7l4 15.6z" id="DejaVuSans-44"/><path d="M8 75.9h7.8q7.3-11.5 11-22.6 3.6-11 3.6-22 0-10.8-3.6-22-3.7-11-11-22.5H8Q14.5-2 17.7 9.1q3.2 11 3.2 22.3t-3.2 22.3q-3.2 11-9.7 22.2z" id="DejaVuSans-41"/></defs><g transform="matrix(.11 0 0 -.11 304.4 40.6)" fill="#262626"><use xlink:href="#DejaVuSans-87"/><use x="98.8" xlink:href="#DejaVuSans-101"/><use x="160.3" xlink:href="#DejaVuSans-105"/><use x="188.1" xlink:href="#DejaVuSans-98"/><use x="251.6" xlink:href="#DejaVuSans-117"/><use x="315" xlink:href="#DejaVuSans-108"/><use x="342.7" xlink:href="#DejaVuSans-108"/><use x="370.5" xlink:href="#DejaVuSans-40"/><use x="409.5" xlink:href="#DejaVuSans-49"/><use x="473.2" xlink:href="#DejaVuSans-44"/><use x="505" xlink:href="#DejaVuSans-32"/><use x="536.7" xlink:href="#DejaVuSans-49"/><use x="600.4" xlink:href="#DejaVuSans-41"/></g></g><path d="M273.6 52.9h22" fill="none" stroke="#dd8452" stroke-linecap="round" stroke-width="1.5" id="line2d_19"/><g transform="matrix(.11 0 0 -.11 304.4 56.7)" fill="#262626" id="text_17"><use xlink:href="#DejaVuSans-87"/><use x="98.8" xlink:href="#DejaVuSans-101"/><use x="160.3" xlink:href="#DejaVuSans-105"/><use x="188.1" xlink:href="#DejaVuSans-98"/><use x="251.6" xlink:href="#DejaVuSans-117"/><use x="315" xlink:href="#DejaVuSans-108"/><use x="342.7" xlink:href="#DejaVuSans-108"/><use x="370.5" xlink:href="#DejaVuSans-40"/><use x="409.5" xlink:href="#DejaVuSans-50"/><use x="473.2" xlink:href="#DejaVuSans-44"/><use x="505" xlink:href="#DejaVuSans-32"/><use x="536.7" xlink:href="#DejaVuSans-50"/><use x="600.4" xlink:href="#DejaVuSans-41"/></g><path d="M273.6 69h22" fill="none" stroke="#55a868" stroke-linecap="round" stroke-width="1.5" id="line2d_21"/><g transform="matrix(.11 0 0 -.11 304.4 72.9)" fill="#262626" id="text_18"><use xlink:href="#DejaVuSans-87"/><use x="98.8" xlink:href="#DejaVuSans-101"/><use x="160.3" xlink:href="#DejaVuSans-105"/><use x="188.1" xlink:href="#DejaVuSans-98"/><use x="251.6" xlink:href="#DejaVuSans-117"/><use x="315" xlink:href="#DejaVuSans-108"/><use x="342.7" xlink:href="#DejaVuSans-108"/><use x="370.5" xlink:href="#DejaVuSans-40"/><use x="409.5" xlink:href="#DejaVuSans-52"/><use x="473.2" xlink:href="#DejaVuSans-44"/><use x="505" xlink:href="#DejaVuSans-32"/><use x="536.7" xlink:href="#DejaVuSans-50"/><use x="600.4" xlink:href="#DejaVuSans-41"/></g><path d="M273.6 85.2h22" fill="none" stroke="#c44e52" stroke-linecap="round" stroke-width="1.5" id="line2d_23"/><g id="text_19"><defs><path d="M10.8 73h38.7v-8.4H19.8V46.7q2.2.8 4.3 1.1 2.2.4 4.3.4 12.2 0 19.4-6.7 7-6.7 7-18.1 0-11.8-7.2-18.3-7.4-6.5-20.7-6.5-4.6 0-9.4.8-4.7.7-9.8 2.3v10q4.4-2.5 9.1-3.6 4.7-1.2 9.9-1.2 8.5 0 13.4 4.4 5 4.5 5 12 0 7.7-5 12.1Q35 40 26.7 40q-4 0-7.9-.9-4-.9-8-2.7z" id="DejaVuSans-53"/></defs><g transform="matrix(.11 0 0 -.11 304.4 89)" fill="#262626"><use xlink:href="#DejaVuSans-87"/><use x="98.8" xlink:href="#DejaVuSans-101"/><use x="160.3" xlink:href="#DejaVuSans-105"/><use x="188.1" xlink:href="#DejaVuSans-98"/><use x="251.6" xlink:href="#DejaVuSans-117"/><use x="315" xlink:href="#DejaVuSans-108"/><use x="342.7" xlink:href="#DejaVuSans-108"/><use x="370.5" xlink:href="#DejaVuSans-40"/><use x="409.5" xlink:href="#DejaVuSans-53"/><use x="473.2" xlink:href="#DejaVuSans-44"/><use x="505" xlink:href="#DejaVuSans-32"/><use x="536.7" xlink:href="#DejaVuSans-53"/><use x="600.4" xlink:href="#DejaVuSans-41"/></g></g></g></g></g><defs><clipPath id="pb515eeffa3"><path d="M49.8 22.3h334.8v217.4H49.8z"/></clipPath></defs></svg>