<?xml version="1.0" encoding="utf-8" standalone="no"?>
<!DOCTYPE svg PUBLIC "-//W3C//DTD SVG 1.1//EN"
  "http://www.w3.org/Graphics/SVG/1.1/DTD/svg11.dtd">
<!-- Created with matplotlib (https://matplotlib.org/) -->
<svg height="304.56pt" version="1.1" viewBox="0 0 460.8 304.56" width="460.8pt" xmlns="http://www.w3.org/2000/svg" xmlns:xlink="http://www.w3.org/1999/xlink">
 <defs>
  <style type="text/css">
*{stroke-linecap:butt;stroke-linejoin:round;}
  </style>
 </defs>
 <g id="figure_1">
  <g id="patch_1">
   <path d="M 0 304.56 
L 460.8 304.56 
L 460.8 0 
L 0 0 
z
" style="fill:#ffffff;"/>
  </g>
  <g id="axes_1">
   <g id="patch_2">
    <path d="M 13.32 70.88775 
L 447.48 70.88775 
L 447.48 9.5175 
L 13.32 9.5175 
z
" style="fill:#ffffff;"/>
   </g>
   <g id="patch_3">
    <path clip-path="url(#p17a41d4bab)" d="M 33.054545 68.098193 
L 33.69945 68.097991 
L 34.344354 68.097956 
L 34.989258 68.097915 
L 35.634163 68.097868 
L 36.279067 68.097815 
L 36.923971 68.097754 
L 37.568876 68.097685 
L 38.21378 68.097607 
L 38.858684 68.097519 
L 39.503589 68.09742 
L 40.148493 68.097308 
L 40.793397 68.097184 
L 41.438302 68.097046 
L 42.083206 68.096892 
L 42.72811 68.096722 
L 43.373015 68.096535 
L 44.017919 68.096329 
L 44.662823 68.096104 
L 45.307728 68.095859 
L 45.952632 68.095593 
L 46.597536 68.095304 
L 47.242441 68.094993 
L 47.887345 68.094659 
L 48.532249 68.094301 
L 49.177154 68.09392 
L 49.822058 68.093515 
L 50.466962 68.093086 
L 51.111867 68.092634 
L 51.756771 68.09216 
L 52.401675 68.091665 
L 53.04658 68.09115 
L 53.691484 68.090616 
L 54.336388 68.090066 
L 54.981293 68.089501 
L 55.626197 68.088924 
L 56.271101 68.088337 
L 56.916006 68.087744 
L 57.56091 68.087148 
L 58.205814 68.086551 
L 58.850719 68.085958 
L 59.495623 68.085373 
L 60.140527 68.084798 
L 60.785432 68.084239 
L 61.430336 68.083699 
L 62.07524 68.083182 
L 62.720145 68.082691 
L 63.365049 68.082232 
L 64.009953 68.081806 
L 64.654858 68.081419 
L 65.299762 68.081072 
L 65.944666 68.080769 
L 66.589571 68.080513 
L 67.234475 68.080305 
L 67.879379 68.080148 
L 68.524283 68.080042 
L 69.814092 68.079584 
L 70.458996 68.079514 
L 71.103901 68.079485 
L 71.748805 68.079498 
L 72.39387 68.079549 
L 73.038774 68.079635 
L 73.683678 68.079754 
L 74.328583 68.0799 
L 74.973487 68.079868 
L 75.618391 68.080022 
L 76.263296 68.080184 
L 76.9082 68.080348 
L 77.553265 68.080508 
L 78.198169 68.080658 
L 78.843073 68.080587 
L 79.487978 68.080456 
L 80.132882 68.080455 
L 80.777786 68.080404 
L 81.422691 68.080093 
L 82.067595 68.079883 
L 82.712499 68.079594 
L 83.357564 68.079217 
L 84.002468 68.078543 
L 84.647373 68.077934 
L 85.292277 68.077211 
L 85.937181 68.076163 
L 86.582086 68.075155 
L 87.22699 68.073805 
L 87.871894 68.072479 
L 88.516959 68.070998 
L 89.161863 68.069358 
L 89.806768 68.067555 
L 90.451672 68.065588 
L 91.096576 68.063454 
L 91.741481 68.061152 
L 92.386385 68.058482 
L 93.031289 68.055611 
L 93.676194 68.052538 
L 94.321258 68.04926 
L 94.966163 68.045979 
L 95.611067 68.042527 
L 96.255971 68.038707 
L 96.900876 68.034692 
L 97.54578 68.030687 
L 98.190684 68.025717 
L 98.835589 68.020864 
L 99.480653 68.015781 
L 100.125558 68.010667 
L 100.770462 68.005148 
L 101.415366 67.999798 
L 102.060271 67.994275 
L 102.705175 67.988586 
L 103.350079 67.982531 
L 103.994984 67.975677 
L 104.639888 67.968926 
L 105.284953 67.961929 
L 105.929857 67.954271 
L 106.574761 67.946851 
L 107.219666 67.938539 
L 107.86457 67.930056 
L 108.509474 67.921612 
L 109.154379 67.912442 
L 109.799283 67.903267 
L 110.444348 67.892914 
L 111.089252 67.882031 
L 111.734156 67.871181 
L 112.379061 67.859815 
L 113.023965 67.847698 
L 113.668869 67.83476 
L 114.313774 67.820923 
L 114.958678 67.806308 
L 115.603582 67.790252 
L 116.248647 67.77401 
L 116.893551 67.757041 
L 117.538456 67.739122 
L 118.18336 67.720405 
L 118.828264 67.70047 
L 119.473169 67.679035 
L 120.118073 67.655578 
L 120.762977 67.630913 
L 121.408042 67.605002 
L 122.052946 67.578213 
L 122.69785 67.548159 
L 123.342755 67.517713 
L 123.987659 67.484803 
L 124.632563 67.449436 
L 125.277468 67.413451 
L 125.922372 67.375591 
L 126.567437 67.334992 
L 127.212341 67.292269 
L 127.857245 67.248975 
L 128.50215 67.202288 
L 129.147054 67.153963 
L 129.791958 67.102838 
L 130.436863 67.049786 
L 131.081767 66.994224 
L 131.726671 66.935481 
L 132.371736 66.874599 
L 133.01664 66.81059 
L 133.661545 66.744326 
L 134.306449 66.675427 
L 134.951353 66.603863 
L 135.596258 66.530412 
L 136.241162 66.454585 
L 136.886066 66.374598 
L 137.531131 66.29261 
L 138.176035 66.207123 
L 138.82094 66.119011 
L 139.465844 66.026479 
L 140.110748 65.932279 
L 140.755653 65.835405 
L 141.400557 65.734677 
L 142.045461 65.631689 
L 142.690366 65.525959 
L 143.33543 65.415571 
L 143.980335 65.303867 
L 144.625239 65.187499 
L 145.270143 65.066983 
L 145.915048 64.943541 
L 146.559952 64.818815 
L 147.204856 64.68884 
L 147.849761 64.555465 
L 148.494825 64.420493 
L 149.13973 64.281966 
L 149.784634 64.137985 
L 150.429538 63.993201 
L 151.074443 63.843346 
L 151.719347 63.689073 
L 152.364251 63.530412 
L 153.009156 63.368011 
L 153.65406 63.203989 
L 154.299125 63.035214 
L 154.944029 62.860266 
L 155.588933 62.683119 
L 156.233838 62.501351 
L 156.878742 62.315193 
L 157.523646 62.123147 
L 158.168551 61.926637 
L 158.813455 61.724772 
L 159.45852 61.515311 
L 160.103424 61.301715 
L 160.748328 61.083469 
L 161.393233 60.85874 
L 162.038137 60.628846 
L 162.683041 60.392538 
L 163.327946 60.149192 
L 163.97285 59.899733 
L 164.617754 59.644243 
L 165.262819 59.382052 
L 165.907723 59.112041 
L 166.552628 58.835763 
L 167.197532 58.549045 
L 167.842436 58.256521 
L 168.487341 57.957951 
L 169.132245 57.651876 
L 169.777149 57.33829 
L 170.422214 57.018707 
L 171.067118 56.690121 
L 171.712023 56.353596 
L 172.356927 56.009555 
L 173.001831 55.656045 
L 173.646736 55.297285 
L 174.29164 54.929369 
L 174.936544 54.555723 
L 175.581448 54.175288 
L 176.226513 53.78834 
L 176.871417 53.393886 
L 177.516322 52.994877 
L 178.161226 52.588762 
L 178.80613 52.175414 
L 179.451035 51.755864 
L 180.095939 51.332075 
L 180.740843 50.904818 
L 181.385908 50.471817 
L 182.030812 50.032771 
L 182.675717 49.59107 
L 183.320621 49.142507 
L 183.965525 48.689196 
L 184.61043 48.236394 
L 185.255334 47.77755 
L 185.900238 47.31459 
L 186.545143 46.85015 
L 187.190207 46.384083 
L 187.835112 45.914287 
L 188.480016 45.438983 
L 189.12492 44.963844 
L 189.769825 44.486455 
L 190.414729 44.005544 
L 191.059633 43.523396 
L 191.704538 43.04035 
L 192.349602 42.555486 
L 192.994507 42.071051 
L 193.639411 41.581728 
L 194.284315 41.091209 
L 194.92922 40.600662 
L 195.574124 40.102894 
L 196.219028 39.606389 
L 196.863933 39.109067 
L 197.508837 38.608633 
L 198.153902 38.105891 
L 198.798806 37.603639 
L 199.44371 37.098916 
L 200.088615 36.590847 
L 200.733519 36.082197 
L 201.378423 35.572427 
L 202.023328 35.064682 
L 202.668232 34.550489 
L 203.313297 34.039974 
L 203.958201 33.527056 
L 204.603105 33.013381 
L 205.24801 32.498697 
L 205.892914 31.984919 
L 206.537818 31.469119 
L 207.182723 30.954237 
L 207.827627 30.436957 
L 208.472531 29.921863 
L 209.117596 29.407866 
L 209.7625 28.891558 
L 210.407405 28.377744 
L 211.052309 27.867704 
L 211.697213 27.358337 
L 212.342118 26.850016 
L 212.987022 26.343206 
L 213.631926 25.839017 
L 214.276991 25.336531 
L 214.921895 24.840339 
L 215.5668 24.34693 
L 216.211704 23.855562 
L 216.856608 23.366119 
L 217.501513 22.884661 
L 218.146417 22.407328 
L 218.791321 21.93382 
L 219.436226 21.466874 
L 220.08129 21.006345 
L 220.726195 20.553091 
L 221.371099 20.106692 
L 222.016003 19.668564 
L 222.660908 19.235393 
L 223.305812 18.812526 
L 223.950716 18.401155 
L 224.595621 17.997852 
L 225.240685 17.604738 
L 225.88559 17.219967 
L 226.530494 16.846928 
L 227.175398 16.488813 
L 227.820303 16.138685 
L 228.465207 15.801273 
L 229.110111 15.476037 
L 229.755015 15.167192 
L 230.39992 14.872339 
L 231.044985 14.591187 
L 231.689889 14.330146 
L 232.334793 14.077591 
L 232.979697 13.838717 
L 233.624602 13.619886 
L 234.269506 13.415295 
L 234.91441 13.22759 
L 235.559315 13.057319 
L 236.204379 12.903572 
L 236.849284 12.763773 
L 237.494188 12.643842 
L 238.139092 12.544992 
L 238.783997 12.46144 
L 239.428901 12.398131 
L 240.073805 12.351937 
L 240.71871 12.320634 
L 241.363774 12.307057 
L 242.008679 12.314509 
L 242.653583 12.338077 
L 243.298487 12.380234 
L 243.943392 12.439473 
L 244.588296 12.516909 
L 245.2332 12.613999 
L 245.878105 12.724615 
L 246.523009 12.852305 
L 247.168074 12.995603 
L 247.812978 13.154348 
L 248.457882 13.330503 
L 249.102787 13.522522 
L 249.747691 13.725544 
L 250.392595 13.944644 
L 251.0375 14.177728 
L 251.682404 14.424795 
L 252.327469 14.6825 
L 252.972373 14.95526 
L 253.617277 15.240678 
L 254.262182 15.538339 
L 254.907086 15.844654 
L 255.55199 16.166769 
L 256.196895 16.497873 
L 256.841799 16.837659 
L 257.486703 17.191305 
L 258.131768 17.5536 
L 258.776672 17.925388 
L 259.421577 18.305417 
L 260.066481 18.695942 
L 260.711385 19.09695 
L 261.35629 19.503042 
L 262.001194 19.917513 
L 262.646098 20.340516 
L 263.291163 20.771234 
L 263.936067 21.209681 
L 264.580972 21.656278 
L 265.225876 22.107592 
L 265.87078 22.569504 
L 266.515685 23.036237 
L 267.160589 23.509864 
L 267.805493 23.995239 
L 268.450398 24.482439 
L 269.095462 24.978172 
L 269.740367 25.479717 
L 270.385271 25.988348 
L 271.030175 26.500176 
L 271.67508 27.019696 
L 272.319984 27.54343 
L 272.964888 28.073698 
L 273.609793 28.606595 
L 274.254857 29.141864 
L 274.899762 29.687501 
L 275.544666 30.231281 
L 276.18957 30.782355 
L 276.834475 31.336222 
L 277.479379 31.894597 
L 278.124283 32.455307 
L 278.769188 33.018695 
L 279.414092 33.583881 
L 280.059157 34.151114 
L 280.704061 34.718288 
L 281.348965 35.287956 
L 281.99387 35.861677 
L 282.638774 36.43286 
L 283.283678 37.001513 
L 283.928583 37.571717 
L 284.573487 38.140723 
L 285.218552 38.708955 
L 285.863456 39.274741 
L 286.50836 39.839051 
L 287.153264 40.396545 
L 287.798169 40.954151 
L 288.443073 41.509146 
L 289.087977 42.063141 
L 289.732882 42.609606 
L 290.377786 43.151834 
L 291.022851 43.68921 
L 291.667755 44.222303 
L 292.312659 44.749297 
L 292.957564 45.268913 
L 293.602468 45.782996 
L 294.247372 46.292561 
L 294.892277 46.795782 
L 295.537181 47.292434 
L 296.182246 47.780655 
L 296.82715 48.263444 
L 297.472054 48.738493 
L 298.116959 49.206438 
L 298.761863 49.667738 
L 299.406767 50.119984 
L 300.051672 50.566517 
L 300.696576 51.006393 
L 301.34148 51.438425 
L 301.986545 51.860784 
L 302.631449 52.275472 
L 303.276354 52.683574 
L 303.921258 53.081367 
L 304.566162 53.476507 
L 305.211067 53.864334 
L 305.855971 54.241287 
L 306.500875 54.611871 
L 307.14594 54.975084 
L 307.790844 55.331208 
L 308.435749 55.679958 
L 309.080653 56.024608 
L 309.725557 56.3594 
L 310.370462 56.684861 
L 311.015366 57.005381 
L 311.66027 57.319767 
L 312.305175 57.626534 
L 312.950239 57.928709 
L 313.595144 58.224575 
L 314.240048 58.511141 
L 314.884952 58.793304 
L 315.529857 59.069906 
L 316.174761 59.341322 
L 316.819665 59.605613 
L 317.46457 59.863921 
L 318.109634 60.116615 
L 318.754539 60.365637 
L 319.399443 60.60812 
L 320.044347 60.845657 
L 320.689252 61.076141 
L 321.334156 61.301597 
L 321.97906 61.523346 
L 322.623965 61.739781 
L 323.268869 61.951724 
L 323.913934 62.158081 
L 324.558838 62.359992 
L 325.203742 62.552966 
L 325.848647 62.742802 
L 326.493551 62.928586 
L 327.138455 63.110893 
L 327.78336 63.286121 
L 328.428264 63.457959 
L 329.073329 63.622821 
L 329.718233 63.782833 
L 330.363137 63.940327 
L 331.008042 64.091795 
L 331.652946 64.239085 
L 332.29785 64.382201 
L 332.942755 64.521358 
L 333.587659 64.65678 
L 334.232563 64.78813 
L 334.877628 64.915994 
L 335.522532 65.039163 
L 336.167437 65.157833 
L 336.812341 65.272869 
L 337.457245 65.384475 
L 338.10215 65.492345 
L 338.747054 65.597637 
L 339.391958 65.699259 
L 340.037023 65.796123 
L 340.681927 65.891447 
L 341.326831 65.980924 
L 341.971736 66.067728 
L 342.61664 66.151693 
L 343.261544 66.234123 
L 343.906449 66.312645 
L 344.551353 66.389894 
L 345.196418 66.463304 
L 345.841322 66.535348 
L 346.486226 66.604525 
L 347.131131 66.670086 
L 347.776035 66.7345 
L 348.420939 66.795403 
L 349.065844 66.854235 
L 349.710748 66.910337 
L 350.355652 66.963333 
L 351.000717 67.016004 
L 351.645621 67.065906 
L 352.290526 67.115098 
L 352.93543 67.161551 
L 353.580334 67.205617 
L 354.225239 67.246571 
L 354.870143 67.287417 
L 355.515047 67.326241 
L 356.160112 67.363458 
L 356.805016 67.398765 
L 357.449921 67.432458 
L 358.094825 67.465799 
L 358.739729 67.497115 
L 359.384634 67.527571 
L 360.029538 67.556099 
L 360.674442 67.582659 
L 361.319347 67.608601 
L 361.964411 67.633353 
L 362.609316 67.656784 
L 363.25422 67.678784 
L 363.899124 67.700129 
L 364.544029 67.720276 
L 365.188933 67.739116 
L 365.833837 67.757764 
L 366.478742 67.775108 
L 367.123806 67.791758 
L 367.768711 67.807375 
L 368.413615 67.822022 
L 369.058519 67.836101 
L 369.703424 67.849442 
L 370.348328 67.862078 
L 370.993232 67.873525 
L 371.638137 67.884753 
L 372.283041 67.895557 
L 372.928106 67.90508 
L 373.57301 67.914663 
L 374.217914 67.923898 
L 374.862819 67.932444 
L 375.507723 67.940358 
L 376.152627 67.947864 
L 376.797532 67.954985 
L 377.442436 67.96174 
L 378.087501 67.96798 
L 378.732405 67.974266 
L 379.377309 67.980217 
L 380.022214 67.985685 
L 380.667118 67.991059 
L 381.312022 67.995644 
L 381.956927 68.000053 
L 382.601831 68.004464 
L 383.246735 68.008858 
L 383.8918 68.012875 
L 384.536704 68.016727 
L 385.181609 68.020424 
L 385.826513 68.023973 
L 386.471417 68.027383 
L 387.116322 68.030489 
L 387.761226 68.033496 
L 388.40613 68.036406 
L 389.051195 68.039395 
L 389.696099 68.042095 
L 390.341004 68.045397 
L 390.985908 68.047823 
L 391.630812 68.050183 
L 392.275717 68.052477 
L 392.920621 68.054877 
L 393.565525 68.057013 
L 394.210429 68.059602 
L 394.855334 68.061706 
L 395.500238 68.063561 
L 396.145142 68.06554 
L 396.790047 68.06727 
L 397.434951 68.068952 
L 398.079855 68.070585 
L 398.72476 68.072167 
L 399.369664 68.073869 
L 400.014568 68.07532 
L 400.659473 68.076721 
L 401.304377 68.078072 
L 401.949281 68.079371 
L 402.594186 68.080618 
L 403.23909 68.081812 
L 403.883994 68.082955 
L 404.528899 68.084216 
L 405.173803 68.085227 
L 405.818707 68.08619 
L 406.463612 68.087105 
L 407.108516 68.087971 
L 407.75342 68.088791 
L 408.398325 68.089564 
L 409.043229 68.090291 
L 409.688133 68.091145 
L 410.333038 68.091757 
L 410.977942 68.09233 
L 411.622846 68.092865 
L 412.267751 68.093363 
L 412.912655 68.093826 
L 413.557559 68.094254 
L 414.202464 68.094993 
L 414.847368 68.095304 
L 415.492272 68.095593 
L 416.137177 68.095859 
L 416.782081 68.096104 
L 417.426985 68.096329 
L 418.07189 68.096535 
L 418.716794 68.096722 
L 419.361698 68.096892 
L 420.006603 68.097046 
L 420.651507 68.097184 
L 421.296411 68.097308 
L 421.941316 68.09742 
L 422.58622 68.097519 
L 423.231124 68.097607 
L 423.876029 68.097685 
L 424.520933 68.097754 
L 425.165837 68.097815 
L 425.810742 68.097868 
L 426.455646 68.097915 
L 427.10055 68.097956 
L 427.745455 68.097991 
z
" style="fill:#1f77b4;opacity:0.4;"/>
   </g>
   <g id="patch_4">
    <path clip-path="url(#p17a41d4bab)" d="M 166.552628 68.098193 
L 166.552628 58.835763 
L 167.197532 58.549045 
L 167.842436 58.256521 
L 168.487341 57.957951 
L 169.132245 57.651876 
L 169.777149 57.33829 
L 170.422214 57.018707 
L 171.067118 56.690121 
L 171.712023 56.353596 
L 172.356927 56.009555 
L 173.001831 55.656045 
L 173.646736 55.297285 
L 174.29164 54.929369 
L 174.936544 54.555723 
L 175.581448 54.175288 
L 176.226513 53.78834 
L 176.871417 53.393886 
L 177.516322 52.994877 
L 178.161226 52.588762 
L 178.80613 52.175414 
L 179.451035 51.755864 
L 180.095939 51.332075 
L 180.740843 50.904818 
L 181.385908 50.471817 
L 182.030812 50.032771 
L 182.675717 49.59107 
L 183.320621 49.142507 
L 183.965525 48.689196 
L 184.61043 48.236394 
L 185.255334 47.77755 
L 185.900238 47.31459 
L 186.545143 46.85015 
L 187.190207 46.384083 
L 187.835112 45.914287 
L 188.480016 45.438983 
L 189.12492 44.963844 
L 189.769825 44.486455 
L 190.414729 44.005544 
L 191.059633 43.523396 
L 191.704538 43.04035 
L 192.349602 42.555486 
L 192.994507 42.071051 
L 193.639411 41.581728 
L 194.284315 41.091209 
L 194.92922 40.600662 
L 195.574124 40.102894 
L 196.219028 39.606389 
L 196.863933 39.109067 
L 197.508837 38.608633 
L 198.153902 38.105891 
L 198.798806 37.603639 
L 199.44371 37.098916 
L 200.088615 36.590847 
L 200.733519 36.082197 
L 201.378423 35.572427 
L 202.023328 35.064682 
L 202.668232 34.550489 
L 203.313297 34.039974 
L 203.958201 33.527056 
L 204.603105 33.013381 
L 205.24801 32.498697 
L 205.892914 31.984919 
L 206.537818 31.469119 
L 207.182723 30.954237 
L 207.827627 30.436957 
L 208.472531 29.921863 
L 209.117596 29.407866 
L 209.7625 28.891558 
L 210.407405 28.377744 
L 211.052309 27.867704 
L 211.697213 27.358337 
L 212.342118 26.850016 
L 212.987022 26.343206 
L 213.631926 25.839017 
L 214.276991 25.336531 
L 214.921895 24.840339 
L 215.5668 24.34693 
L 216.211704 23.855562 
L 216.856608 23.366119 
L 217.501513 22.884661 
L 218.146417 22.407328 
L 218.791321 21.93382 
L 219.436226 21.466874 
L 220.08129 21.006345 
L 220.726195 20.553091 
L 221.371099 20.106692 
L 222.016003 19.668564 
L 222.660908 19.235393 
L 223.305812 18.812526 
L 223.950716 18.401155 
L 224.595621 17.997852 
L 225.240685 17.604738 
L 225.88559 17.219967 
L 226.530494 16.846928 
L 227.175398 16.488813 
L 227.820303 16.138685 
L 228.465207 15.801273 
L 229.110111 15.476037 
L 229.755015 15.167192 
L 230.39992 14.872339 
L 231.044985 14.591187 
L 231.689889 14.330146 
L 232.334793 14.077591 
L 232.979697 13.838717 
L 233.624602 13.619886 
L 234.269506 13.415295 
L 234.91441 13.22759 
L 235.559315 13.057319 
L 236.204379 12.903572 
L 236.849284 12.763773 
L 237.494188 12.643842 
L 238.139092 12.544992 
L 238.783997 12.46144 
L 239.428901 12.398131 
L 240.073805 12.351937 
L 240.71871 12.320634 
L 241.363774 12.307057 
L 242.008679 12.314509 
L 242.653583 12.338077 
L 243.298487 12.380234 
L 243.943392 12.439473 
L 244.588296 12.516909 
L 245.2332 12.613999 
L 245.878105 12.724615 
L 246.523009 12.852305 
L 247.168074 12.995603 
L 247.812978 13.154348 
L 248.457882 13.330503 
L 249.102787 13.522522 
L 249.747691 13.725544 
L 250.392595 13.944644 
L 251.0375 14.177728 
L 251.682404 14.424795 
L 252.327469 14.6825 
L 252.972373 14.95526 
L 253.617277 15.240678 
L 254.262182 15.538339 
L 254.907086 15.844654 
L 255.55199 16.166769 
L 256.196895 16.497873 
L 256.841799 16.837659 
L 257.486703 17.191305 
L 258.131768 17.5536 
L 258.776672 17.925388 
L 259.421577 18.305417 
L 260.066481 18.695942 
L 260.711385 19.09695 
L 261.35629 19.503042 
L 262.001194 19.917513 
L 262.646098 20.340516 
L 263.291163 20.771234 
L 263.936067 21.209681 
L 264.580972 21.656278 
L 265.225876 22.107592 
L 265.87078 22.569504 
L 266.515685 23.036237 
L 267.160589 23.509864 
L 267.805493 23.995239 
L 268.450398 24.482439 
L 269.095462 24.978172 
L 269.740367 25.479717 
L 270.385271 25.988348 
L 271.030175 26.500176 
L 271.67508 27.019696 
L 272.319984 27.54343 
L 272.964888 28.073698 
L 273.609793 28.606595 
L 274.254857 29.141864 
L 274.899762 29.687501 
L 275.544666 30.231281 
L 276.18957 30.782355 
L 276.834475 31.336222 
L 277.479379 31.894597 
L 278.124283 32.455307 
L 278.769188 33.018695 
L 279.414092 33.583881 
L 280.059157 34.151114 
L 280.704061 34.718288 
L 281.348965 35.287956 
L 281.99387 35.861677 
L 282.638774 36.43286 
L 283.283678 37.001513 
L 283.928583 37.571717 
L 284.573487 38.140723 
L 285.218552 38.708955 
L 285.863456 39.274741 
L 286.50836 39.839051 
L 287.153264 40.396545 
L 287.798169 40.954151 
L 288.443073 41.509146 
L 289.087977 42.063141 
L 289.732882 42.609606 
L 290.377786 43.151834 
L 291.022851 43.68921 
L 291.667755 44.222303 
L 292.312659 44.749297 
L 292.957564 45.268913 
L 293.602468 45.782996 
L 294.247372 46.292561 
L 294.892277 46.795782 
L 295.537181 47.292434 
L 296.182246 47.780655 
L 296.82715 48.263444 
L 297.472054 48.738493 
L 298.116959 49.206438 
L 298.761863 49.667738 
L 299.406767 50.119984 
L 300.051672 50.566517 
L 300.696576 51.006393 
L 301.34148 51.438425 
L 301.986545 51.860784 
L 302.631449 52.275472 
L 303.276354 52.683574 
L 303.921258 53.081367 
L 304.566162 53.476507 
L 305.211067 53.864334 
L 305.855971 54.241287 
L 306.500875 54.611871 
L 307.14594 54.975084 
L 307.790844 55.331208 
L 308.435749 55.679958 
L 309.080653 56.024608 
L 309.725557 56.3594 
L 310.370462 56.684861 
L 311.015366 57.005381 
L 311.66027 57.319767 
L 312.305175 57.626534 
L 312.950239 57.928709 
L 313.595144 58.224575 
L 313.595144 68.098193 
z
" style="fill:#1f77b4;opacity:0.4;"/>
   </g>
   <g id="matplotlib.axis_1">
    <g id="xtick_1">
     <g id="line2d_1">
      <defs>
       <path d="M 0 0 
L 0 3.5 
" id="m4f99b33c99" style="stroke:#000000;stroke-width:0.8;"/>
      </defs>
      <g>
       <use style="stroke:#000000;stroke-width:0.8;" x="58.443656" xlink:href="#m4f99b33c99" y="70.88775"/>
      </g>
     </g>
     <g id="text_1">
      <!-- 0.26 -->
      <defs>
       <path d="M 31.78125 66.40625 
Q 24.171875 66.40625 20.328125 58.90625 
Q 16.5 51.421875 16.5 36.375 
Q 16.5 21.390625 20.328125 13.890625 
Q 24.171875 6.390625 31.78125 6.390625 
Q 39.453125 6.390625 43.28125 13.890625 
Q 47.125 21.390625 47.125 36.375 
Q 47.125 51.421875 43.28125 58.90625 
Q 39.453125 66.40625 31.78125 66.40625 
z
M 31.78125 74.21875 
Q 44.046875 74.21875 50.515625 64.515625 
Q 56.984375 54.828125 56.984375 36.375 
Q 56.984375 17.96875 50.515625 8.265625 
Q 44.046875 -1.421875 31.78125 -1.421875 
Q 19.53125 -1.421875 13.0625 8.265625 
Q 6.59375 17.96875 6.59375 36.375 
Q 6.59375 54.828125 13.0625 64.515625 
Q 19.53125 74.21875 31.78125 74.21875 
z
" id="DejaVuSans-48"/>
       <path d="M 10.6875 12.40625 
L 21 12.40625 
L 21 0 
L 10.6875 0 
z
" id="DejaVuSans-46"/>
       <path d="M 19.1875 8.296875 
L 53.609375 8.296875 
L 53.609375 0 
L 7.328125 0 
L 7.328125 8.296875 
Q 12.9375 14.109375 22.625 23.890625 
Q 32.328125 33.6875 34.8125 36.53125 
Q 39.546875 41.84375 41.421875 45.53125 
Q 43.3125 49.21875 43.3125 52.78125 
Q 43.3125 58.59375 39.234375 62.25 
Q 35.15625 65.921875 28.609375 65.921875 
Q 23.96875 65.921875 18.8125 64.3125 
Q 13.671875 62.703125 7.8125 59.421875 
L 7.8125 69.390625 
Q 13.765625 71.78125 18.9375 73 
Q 24.125 74.21875 28.421875 74.21875 
Q 39.75 74.21875 46.484375 68.546875 
Q 53.21875 62.890625 53.21875 53.421875 
Q 53.21875 48.921875 51.53125 44.890625 
Q 49.859375 40.875 45.40625 35.40625 
Q 44.1875 33.984375 37.640625 27.21875 
Q 31.109375 20.453125 19.1875 8.296875 
z
" id="DejaVuSans-50"/>
       <path d="M 33.015625 40.375 
Q 26.375 40.375 22.484375 35.828125 
Q 18.609375 31.296875 18.609375 23.390625 
Q 18.609375 15.53125 22.484375 10.953125 
Q 26.375 6.390625 33.015625 6.390625 
Q 39.65625 6.390625 43.53125 10.953125 
Q 47.40625 15.53125 47.40625 23.390625 
Q 47.40625 31.296875 43.53125 35.828125 
Q 39.65625 40.375 33.015625 40.375 
z
M 52.59375 71.296875 
L 52.59375 62.3125 
Q 48.875 64.0625 45.09375 64.984375 
Q 41.3125 65.921875 37.59375 65.921875 
Q 27.828125 65.921875 22.671875 59.328125 
Q 17.53125 52.734375 16.796875 39.40625 
Q 19.671875 43.65625 24.015625 45.921875 
Q 28.375 48.1875 33.59375 48.1875 
Q 44.578125 48.1875 50.953125 41.515625 
Q 57.328125 34.859375 57.328125 23.390625 
Q 57.328125 12.15625 50.6875 5.359375 
Q 44.046875 -1.421875 33.015625 -1.421875 
Q 20.359375 -1.421875 13.671875 8.265625 
Q 6.984375 17.96875 6.984375 36.375 
Q 6.984375 53.65625 15.1875 63.9375 
Q 23.390625 74.21875 37.203125 74.21875 
Q 40.921875 74.21875 44.703125 73.484375 
Q 48.484375 72.75 52.59375 71.296875 
z
" id="DejaVuSans-54"/>
      </defs>
      <g transform="translate(47.310843 85.486187)scale(0.1 -0.1)">
       <use xlink:href="#DejaVuSans-48"/>
       <use x="63.623047" xlink:href="#DejaVuSans-46"/>
       <use x="95.410156" xlink:href="#DejaVuSans-50"/>
       <use x="159.033203" xlink:href="#DejaVuSans-54"/>
      </g>
     </g>
    </g>
    <g id="xtick_2">
     <g id="line2d_2">
      <g>
       <use style="stroke:#000000;stroke-width:0.8;" x="112.246238" xlink:href="#m4f99b33c99" y="70.88775"/>
      </g>
     </g>
     <g id="text_2">
      <!-- 0.27 -->
      <defs>
       <path d="M 8.203125 72.90625 
L 55.078125 72.90625 
L 55.078125 68.703125 
L 28.609375 0 
L 18.3125 0 
L 43.21875 64.59375 
L 8.203125 64.59375 
z
" id="DejaVuSans-55"/>
      </defs>
      <g transform="translate(101.113425 85.486187)scale(0.1 -0.1)">
       <use xlink:href="#DejaVuSans-48"/>
       <use x="63.623047" xlink:href="#DejaVuSans-46"/>
       <use x="95.410156" xlink:href="#DejaVuSans-50"/>
       <use x="159.033203" xlink:href="#DejaVuSans-55"/>
      </g>
     </g>
    </g>
    <g id="xtick_3">
     <g id="line2d_3">
      <g>
       <use style="stroke:#000000;stroke-width:0.8;" x="166.04882" xlink:href="#m4f99b33c99" y="70.88775"/>
      </g>
     </g>
     <g id="text_3">
      <!-- 0.28 -->
      <defs>
       <path d="M 31.78125 34.625 
Q 24.75 34.625 20.71875 30.859375 
Q 16.703125 27.09375 16.703125 20.515625 
Q 16.703125 13.921875 20.71875 10.15625 
Q 24.75 6.390625 31.78125 6.390625 
Q 38.8125 6.390625 42.859375 10.171875 
Q 46.921875 13.96875 46.921875 20.515625 
Q 46.921875 27.09375 42.890625 30.859375 
Q 38.875 34.625 31.78125 34.625 
z
M 21.921875 38.8125 
Q 15.578125 40.375 12.03125 44.71875 
Q 8.5 49.078125 8.5 55.328125 
Q 8.5 64.0625 14.71875 69.140625 
Q 20.953125 74.21875 31.78125 74.21875 
Q 42.671875 74.21875 48.875 69.140625 
Q 55.078125 64.0625 55.078125 55.328125 
Q 55.078125 49.078125 51.53125 44.71875 
Q 48 40.375 41.703125 38.8125 
Q 48.828125 37.15625 52.796875 32.3125 
Q 56.78125 27.484375 56.78125 20.515625 
Q 56.78125 9.90625 50.3125 4.234375 
Q 43.84375 -1.421875 31.78125 -1.421875 
Q 19.734375 -1.421875 13.25 4.234375 
Q 6.78125 9.90625 6.78125 20.515625 
Q 6.78125 27.484375 10.78125 32.3125 
Q 14.796875 37.15625 21.921875 38.8125 
z
M 18.3125 54.390625 
Q 18.3125 48.734375 21.84375 45.5625 
Q 25.390625 42.390625 31.78125 42.390625 
Q 38.140625 42.390625 41.71875 45.5625 
Q 45.3125 48.734375 45.3125 54.390625 
Q 45.3125 60.0625 41.71875 63.234375 
Q 38.140625 66.40625 31.78125 66.40625 
Q 25.390625 66.40625 21.84375 63.234375 
Q 18.3125 60.0625 18.3125 54.390625 
z
" id="DejaVuSans-56"/>
      </defs>
      <g transform="translate(154.916007 85.486187)scale(0.1 -0.1)">
       <use xlink:href="#DejaVuSans-48"/>
       <use x="63.623047" xlink:href="#DejaVuSans-46"/>
       <use x="95.410156" xlink:href="#DejaVuSans-50"/>
       <use x="159.033203" xlink:href="#DejaVuSans-56"/>
      </g>
     </g>
    </g>
    <g id="xtick_4">
     <g id="line2d_4">
      <g>
       <use style="stroke:#000000;stroke-width:0.8;" x="219.851402" xlink:href="#m4f99b33c99" y="70.88775"/>
      </g>
     </g>
     <g id="text_4">
      <!-- 0.29 -->
      <defs>
       <path d="M 10.984375 1.515625 
L 10.984375 10.5 
Q 14.703125 8.734375 18.5 7.8125 
Q 22.3125 6.890625 25.984375 6.890625 
Q 35.75 6.890625 40.890625 13.453125 
Q 46.046875 20.015625 46.78125 33.40625 
Q 43.953125 29.203125 39.59375 26.953125 
Q 35.25 24.703125 29.984375 24.703125 
Q 19.046875 24.703125 12.671875 31.3125 
Q 6.296875 37.9375 6.296875 49.421875 
Q 6.296875 60.640625 12.9375 67.421875 
Q 19.578125 74.21875 30.609375 74.21875 
Q 43.265625 74.21875 49.921875 64.515625 
Q 56.59375 54.828125 56.59375 36.375 
Q 56.59375 19.140625 48.40625 8.859375 
Q 40.234375 -1.421875 26.421875 -1.421875 
Q 22.703125 -1.421875 18.890625 -0.6875 
Q 15.09375 0.046875 10.984375 1.515625 
z
M 30.609375 32.421875 
Q 37.25 32.421875 41.125 36.953125 
Q 45.015625 41.5 45.015625 49.421875 
Q 45.015625 57.28125 41.125 61.84375 
Q 37.25 66.40625 30.609375 66.40625 
Q 23.96875 66.40625 20.09375 61.84375 
Q 16.21875 57.28125 16.21875 49.421875 
Q 16.21875 41.5 20.09375 36.953125 
Q 23.96875 32.421875 30.609375 32.421875 
z
" id="DejaVuSans-57"/>
      </defs>
      <g transform="translate(208.718589 85.486187)scale(0.1 -0.1)">
       <use xlink:href="#DejaVuSans-48"/>
       <use x="63.623047" xlink:href="#DejaVuSans-46"/>
       <use x="95.410156" xlink:href="#DejaVuSans-50"/>
       <use x="159.033203" xlink:href="#DejaVuSans-57"/>
      </g>
     </g>
    </g>
    <g id="xtick_5">
     <g id="line2d_5">
      <g>
       <use style="stroke:#000000;stroke-width:0.8;" x="273.653983" xlink:href="#m4f99b33c99" y="70.88775"/>
      </g>
     </g>
     <g id="text_5">
      <!-- 0.30 -->
      <defs>
       <path d="M 40.578125 39.3125 
Q 47.65625 37.796875 51.625 33 
Q 55.609375 28.21875 55.609375 21.1875 
Q 55.609375 10.40625 48.1875 4.484375 
Q 40.765625 -1.421875 27.09375 -1.421875 
Q 22.515625 -1.421875 17.65625 -0.515625 
Q 12.796875 0.390625 7.625 2.203125 
L 7.625 11.71875 
Q 11.71875 9.328125 16.59375 8.109375 
Q 21.484375 6.890625 26.8125 6.890625 
Q 36.078125 6.890625 40.9375 10.546875 
Q 45.796875 14.203125 45.796875 21.1875 
Q 45.796875 27.640625 41.28125 31.265625 
Q 36.765625 34.90625 28.71875 34.90625 
L 20.21875 34.90625 
L 20.21875 43.015625 
L 29.109375 43.015625 
Q 36.375 43.015625 40.234375 45.921875 
Q 44.09375 48.828125 44.09375 54.296875 
Q 44.09375 59.90625 40.109375 62.90625 
Q 36.140625 65.921875 28.71875 65.921875 
Q 24.65625 65.921875 20.015625 65.03125 
Q 15.375 64.15625 9.8125 62.3125 
L 9.8125 71.09375 
Q 15.4375 72.65625 20.34375 73.4375 
Q 25.25 74.21875 29.59375 74.21875 
Q 40.828125 74.21875 47.359375 69.109375 
Q 53.90625 64.015625 53.90625 55.328125 
Q 53.90625 49.265625 50.4375 45.09375 
Q 46.96875 40.921875 40.578125 39.3125 
z
" id="DejaVuSans-51"/>
      </defs>
      <g transform="translate(262.521171 85.486187)scale(0.1 -0.1)">
       <use xlink:href="#DejaVuSans-48"/>
       <use x="63.623047" xlink:href="#DejaVuSans-46"/>
       <use x="95.410156" xlink:href="#DejaVuSans-51"/>
       <use x="159.033203" xlink:href="#DejaVuSans-48"/>
      </g>
     </g>
    </g>
    <g id="xtick_6">
     <g id="line2d_6">
      <g>
       <use style="stroke:#000000;stroke-width:0.8;" x="327.456565" xlink:href="#m4f99b33c99" y="70.88775"/>
      </g>
     </g>
     <g id="text_6">
      <!-- 0.31 -->
      <defs>
       <path d="M 12.40625 8.296875 
L 28.515625 8.296875 
L 28.515625 63.921875 
L 10.984375 60.40625 
L 10.984375 69.390625 
L 28.421875 72.90625 
L 38.28125 72.90625 
L 38.28125 8.296875 
L 54.390625 8.296875 
L 54.390625 0 
L 12.40625 0 
z
" id="DejaVuSans-49"/>
      </defs>
      <g transform="translate(316.323753 85.486187)scale(0.1 -0.1)">
       <use xlink:href="#DejaVuSans-48"/>
       <use x="63.623047" xlink:href="#DejaVuSans-46"/>
       <use x="95.410156" xlink:href="#DejaVuSans-51"/>
       <use x="159.033203" xlink:href="#DejaVuSans-49"/>
      </g>
     </g>
    </g>
    <g id="xtick_7">
     <g id="line2d_7">
      <g>
       <use style="stroke:#000000;stroke-width:0.8;" x="381.259147" xlink:href="#m4f99b33c99" y="70.88775"/>
      </g>
     </g>
     <g id="text_7">
      <!-- 0.32 -->
      <g transform="translate(370.126335 85.486187)scale(0.1 -0.1)">
       <use xlink:href="#DejaVuSans-48"/>
       <use x="63.623047" xlink:href="#DejaVuSans-46"/>
       <use x="95.410156" xlink:href="#DejaVuSans-51"/>
       <use x="159.033203" xlink:href="#DejaVuSans-50"/>
      </g>
     </g>
    </g>
    <g id="xtick_8">
     <g id="line2d_8">
      <g>
       <use style="stroke:#000000;stroke-width:0.8;" x="435.061729" xlink:href="#m4f99b33c99" y="70.88775"/>
      </g>
     </g>
     <g id="text_8">
      <!-- 0.33 -->
      <g transform="translate(423.928916 85.486187)scale(0.1 -0.1)">
       <use xlink:href="#DejaVuSans-48"/>
       <use x="63.623047" xlink:href="#DejaVuSans-46"/>
       <use x="95.410156" xlink:href="#DejaVuSans-51"/>
       <use x="159.033203" xlink:href="#DejaVuSans-51"/>
      </g>
     </g>
    </g>
    <g id="text_9">
     <!-- weight -->
     <defs>
      <path d="M 4.203125 54.6875 
L 13.1875 54.6875 
L 24.421875 12.015625 
L 35.59375 54.6875 
L 46.1875 54.6875 
L 57.421875 12.015625 
L 68.609375 54.6875 
L 77.59375 54.6875 
L 63.28125 0 
L 52.6875 0 
L 40.921875 44.828125 
L 29.109375 0 
L 18.5 0 
z
" id="DejaVuSans-119"/>
      <path d="M 56.203125 29.59375 
L 56.203125 25.203125 
L 14.890625 25.203125 
Q 15.484375 15.921875 20.484375 11.0625 
Q 25.484375 6.203125 34.421875 6.203125 
Q 39.59375 6.203125 44.453125 7.46875 
Q 49.3125 8.734375 54.109375 11.28125 
L 54.109375 2.78125 
Q 49.265625 0.734375 44.1875 -0.34375 
Q 39.109375 -1.421875 33.890625 -1.421875 
Q 20.796875 -1.421875 13.15625 6.1875 
Q 5.515625 13.8125 5.515625 26.8125 
Q 5.515625 40.234375 12.765625 48.109375 
Q 20.015625 56 32.328125 56 
Q 43.359375 56 49.78125 48.890625 
Q 56.203125 41.796875 56.203125 29.59375 
z
M 47.21875 32.234375 
Q 47.125 39.59375 43.09375 43.984375 
Q 39.0625 48.390625 32.421875 48.390625 
Q 24.90625 48.390625 20.390625 44.140625 
Q 15.875 39.890625 15.1875 32.171875 
z
" id="DejaVuSans-101"/>
      <path d="M 9.421875 54.6875 
L 18.40625 54.6875 
L 18.40625 0 
L 9.421875 0 
z
M 9.421875 75.984375 
L 18.40625 75.984375 
L 18.40625 64.59375 
L 9.421875 64.59375 
z
" id="DejaVuSans-105"/>
      <path d="M 45.40625 27.984375 
Q 45.40625 37.75 41.375 43.109375 
Q 37.359375 48.484375 30.078125 48.484375 
Q 22.859375 48.484375 18.828125 43.109375 
Q 14.796875 37.75 14.796875 27.984375 
Q 14.796875 18.265625 18.828125 12.890625 
Q 22.859375 7.515625 30.078125 7.515625 
Q 37.359375 7.515625 41.375 12.890625 
Q 45.40625 18.265625 45.40625 27.984375 
z
M 54.390625 6.78125 
Q 54.390625 -7.171875 48.1875 -13.984375 
Q 42 -20.796875 29.203125 -20.796875 
Q 24.46875 -20.796875 20.265625 -20.09375 
Q 16.0625 -19.390625 12.109375 -17.921875 
L 12.109375 -9.1875 
Q 16.0625 -11.328125 19.921875 -12.34375 
Q 23.78125 -13.375 27.78125 -13.375 
Q 36.625 -13.375 41.015625 -8.765625 
Q 45.40625 -4.15625 45.40625 5.171875 
L 45.40625 9.625 
Q 42.625 4.78125 38.28125 2.390625 
Q 33.9375 0 27.875 0 
Q 17.828125 0 11.671875 7.65625 
Q 5.515625 15.328125 5.515625 27.984375 
Q 5.515625 40.671875 11.671875 48.328125 
Q 17.828125 56 27.875 56 
Q 33.9375 56 38.28125 53.609375 
Q 42.625 51.21875 45.40625 46.390625 
L 45.40625 54.6875 
L 54.390625 54.6875 
z
" id="DejaVuSans-103"/>
      <path d="M 54.890625 33.015625 
L 54.890625 0 
L 45.90625 0 
L 45.90625 32.71875 
Q 45.90625 40.484375 42.875 44.328125 
Q 39.84375 48.1875 33.796875 48.1875 
Q 26.515625 48.1875 22.3125 43.546875 
Q 18.109375 38.921875 18.109375 30.90625 
L 18.109375 0 
L 9.078125 0 
L 9.078125 75.984375 
L 18.109375 75.984375 
L 18.109375 46.1875 
Q 21.34375 51.125 25.703125 53.5625 
Q 30.078125 56 35.796875 56 
Q 45.21875 56 50.046875 50.171875 
Q 54.890625 44.34375 54.890625 33.015625 
z
" id="DejaVuSans-104"/>
      <path d="M 18.3125 70.21875 
L 18.3125 54.6875 
L 36.8125 54.6875 
L 36.8125 47.703125 
L 18.3125 47.703125 
L 18.3125 18.015625 
Q 18.3125 11.328125 20.140625 9.421875 
Q 21.96875 7.515625 27.59375 7.515625 
L 36.8125 7.515625 
L 36.8125 0 
L 27.59375 0 
Q 17.1875 0 13.234375 3.875 
Q 9.28125 7.765625 9.28125 18.015625 
L 9.28125 47.703125 
L 2.6875 47.703125 
L 2.6875 54.6875 
L 9.28125 54.6875 
L 9.28125 70.21875 
z
" id="DejaVuSans-116"/>
     </defs>
     <g transform="translate(213.542188 99.164312)scale(0.1 -0.1)">
      <use xlink:href="#DejaVuSans-119"/>
      <use x="81.787109" xlink:href="#DejaVuSans-101"/>
      <use x="143.310547" xlink:href="#DejaVuSans-105"/>
      <use x="171.09375" xlink:href="#DejaVuSans-103"/>
      <use x="234.570312" xlink:href="#DejaVuSans-104"/>
      <use x="297.949219" xlink:href="#DejaVuSans-116"/>
     </g>
    </g>
   </g>
   <g id="patch_5">
    <path d="M 13.32 70.88775 
L 447.48 70.88775 
" style="fill:none;stroke:#000000;stroke-linecap:square;stroke-linejoin:miter;stroke-width:0.8;"/>
   </g>
  </g>
  <g id="axes_2">
   <g id="patch_6">
    <path d="M 13.32 169.23525 
L 447.48 169.23525 
L 447.48 107.865 
L 13.32 107.865 
z
" style="fill:#ffffff;"/>
   </g>
   <g id="patch_7">
    <path clip-path="url(#pd856b12333)" d="M 33.054545 166.445693 
L 33.69949 166.445461 
L 34.344435 166.44542 
L 34.98938 166.445374 
L 35.634325 166.445088 
L 36.27927 166.444986 
L 36.924215 166.44487 
L 37.569159 166.444737 
L 38.214104 166.444586 
L 38.859049 166.444182 
L 39.503994 166.443949 
L 40.148939 166.443684 
L 40.793884 166.443387 
L 41.438829 166.443052 
L 42.083773 166.442678 
L 42.728718 166.442261 
L 43.373663 166.441797 
L 44.018608 166.441283 
L 44.663553 166.440716 
L 45.308498 166.440091 
L 45.953442 166.439406 
L 46.598387 166.438658 
L 47.243332 166.437842 
L 47.888277 166.436957 
L 48.533222 166.436 
L 49.178167 166.434968 
L 49.823112 166.43386 
L 50.468056 166.432676 
L 51.113001 166.431413 
L 51.757946 166.430072 
L 52.402891 166.428653 
L 53.047836 166.427159 
L 53.692781 166.42559 
L 54.337726 166.423951 
L 54.98267 166.422245 
L 55.627615 166.420477 
L 56.27256 166.418652 
L 56.917505 166.416778 
L 57.56245 166.414861 
L 58.207395 166.41291 
L 58.852339 166.410935 
L 59.497284 166.408945 
L 60.142229 166.406951 
L 60.787174 166.404965 
L 61.432119 166.402998 
L 62.077064 166.401063 
L 62.722009 166.399172 
L 63.366953 166.397339 
L 64.011898 166.395575 
L 64.656843 166.393894 
L 65.301788 166.392309 
L 65.946733 166.39083 
L 66.591678 166.389237 
L 67.236623 166.387966 
L 67.881567 166.386595 
L 68.526512 166.385325 
L 69.816402 166.384388 
L 70.461261 166.383592 
L 71.106206 166.382939 
L 71.751151 166.382431 
L 72.39601 166.381835 
L 73.040955 166.381572 
L 73.685814 166.38121 
L 74.330759 166.3807 
L 74.975704 166.380454 
L 75.620563 166.380489 
L 76.265508 166.380363 
L 76.910453 166.380484 
L 77.555312 166.380173 
L 78.200257 166.380026 
L 78.845201 166.379589 
L 79.490061 166.379023 
L 80.135005 166.378758 
L 80.77995 166.378139 
L 81.424809 166.37733 
L 82.069754 166.376529 
L 82.714613 166.375276 
L 83.359558 166.373967 
L 84.004503 166.371909 
L 84.649362 166.369921 
L 85.294307 166.367347 
L 85.939252 166.364119 
L 86.584111 166.360629 
L 87.229056 166.356414 
L 87.874001 166.351868 
L 88.51886 166.346533 
L 89.163805 166.340339 
L 89.80875 166.333681 
L 90.453609 166.326097 
L 91.098554 166.317984 
L 91.743413 166.309116 
L 92.388358 166.29947 
L 93.033303 166.289021 
L 93.678162 166.278213 
L 94.323107 166.265716 
L 94.968051 166.252991 
L 95.612911 166.239437 
L 96.257855 166.224123 
L 96.9028 166.207813 
L 97.547659 166.190255 
L 98.192604 166.172782 
L 98.837549 166.154173 
L 99.482408 166.134626 
L 100.127353 166.114373 
L 100.772212 166.092527 
L 101.417157 166.070603 
L 102.062102 166.046901 
L 102.706961 166.022208 
L 103.351906 165.996523 
L 103.996851 165.970312 
L 104.64171 165.943422 
L 105.286655 165.915444 
L 105.9316 165.885427 
L 106.576459 165.854314 
L 107.221404 165.822557 
L 107.866349 165.789561 
L 108.511208 165.755943 
L 109.156153 165.721075 
L 109.801012 165.685184 
L 110.445957 165.648493 
L 111.090901 165.611499 
L 111.735761 165.572428 
L 112.380705 165.531789 
L 113.02565 165.49022 
L 113.670509 165.446805 
L 114.315454 165.402794 
L 114.960399 165.357802 
L 115.605258 165.311841 
L 116.250203 165.263534 
L 116.895148 165.215217 
L 117.540007 165.164296 
L 118.184952 165.112839 
L 118.829811 165.060027 
L 119.474756 165.006296 
L 120.119701 164.950307 
L 120.76456 164.891417 
L 121.409505 164.830741 
L 122.05445 164.767739 
L 122.699309 164.703182 
L 123.344254 164.637521 
L 123.989199 164.569901 
L 124.634058 164.498162 
L 125.279003 164.424426 
L 125.923862 164.349347 
L 126.568807 164.271379 
L 127.213751 164.189881 
L 127.858611 164.10644 
L 128.503555 164.020153 
L 129.1485 163.931364 
L 129.793359 163.839105 
L 130.438304 163.743884 
L 131.083249 163.644224 
L 131.728108 163.541668 
L 132.373053 163.432708 
L 133.017998 163.32138 
L 133.662857 163.206183 
L 134.307802 163.08747 
L 134.952661 162.96266 
L 135.597606 162.834557 
L 136.242551 162.70277 
L 136.88741 162.565009 
L 137.532355 162.423024 
L 138.1773 162.277278 
L 138.822159 162.125786 
L 139.467104 161.96923 
L 140.112049 161.806154 
L 140.756908 161.638365 
L 141.401853 161.4624 
L 142.046797 161.284287 
L 142.691657 161.095562 
L 143.336601 160.903221 
L 143.981461 160.703202 
L 144.626405 160.500013 
L 145.27135 160.290181 
L 145.916209 160.075444 
L 146.561154 159.853842 
L 147.206099 159.625016 
L 147.850958 159.39072 
L 148.495903 159.150151 
L 149.140848 158.904227 
L 149.785707 158.651904 
L 150.430652 158.394745 
L 151.075597 158.131832 
L 151.720456 157.862273 
L 152.365401 157.588608 
L 153.01026 157.30888 
L 153.655205 157.02488 
L 154.30015 156.735052 
L 154.945009 156.4396 
L 155.589954 156.140836 
L 156.234899 155.83445 
L 156.879758 155.52585 
L 157.524703 155.213047 
L 158.169647 154.892397 
L 158.814507 154.568979 
L 159.459451 154.240379 
L 160.104396 153.904668 
L 160.749255 153.567466 
L 161.3942 153.225539 
L 162.039059 152.876542 
L 162.684004 152.523752 
L 163.328949 152.165446 
L 163.973808 151.801022 
L 164.618753 151.432061 
L 165.263698 151.056247 
L 165.908557 150.678377 
L 166.553502 150.293494 
L 167.198447 149.900246 
L 167.843306 149.50349 
L 168.488251 149.103356 
L 169.133196 148.69539 
L 169.778055 148.281941 
L 170.423 147.862725 
L 171.067859 147.436014 
L 171.712804 147.00658 
L 172.357749 146.56689 
L 173.002608 146.124734 
L 173.647553 145.668734 
L 174.292497 145.21315 
L 174.937357 144.750236 
L 175.582301 144.283137 
L 176.227246 143.806566 
L 176.872105 143.324332 
L 177.51705 142.837779 
L 178.161909 142.34642 
L 178.806854 141.848774 
L 179.451799 141.346421 
L 180.096658 140.8384 
L 180.741603 140.324632 
L 181.386548 139.806662 
L 182.031407 139.288091 
L 182.676352 138.765481 
L 183.321297 138.236228 
L 183.966156 137.701147 
L 184.611101 137.163819 
L 185.256046 136.628693 
L 185.900905 136.092261 
L 186.54585 135.552264 
L 187.190709 135.011226 
L 187.835654 134.468005 
L 188.480599 133.927472 
L 189.125458 133.387811 
L 189.770403 132.851405 
L 190.415347 132.313703 
L 191.060207 131.774136 
L 191.705151 131.236051 
L 192.350096 130.700375 
L 192.994955 130.169709 
L 193.6399 129.640257 
L 194.284845 129.117863 
L 194.929704 128.59638 
L 195.574649 128.07637 
L 196.219508 127.560179 
L 196.864453 127.056062 
L 197.509398 126.557503 
L 198.154257 126.060535 
L 198.799202 125.56745 
L 199.444147 125.082184 
L 200.089006 124.601885 
L 200.733951 124.127464 
L 201.378896 123.658923 
L 202.023755 123.195674 
L 202.6687 122.740905 
L 203.313645 122.288472 
L 203.958504 121.846085 
L 204.603449 121.413022 
L 205.248308 120.984435 
L 205.893253 120.560415 
L 206.538197 120.141515 
L 207.183057 119.73431 
L 207.828001 119.329679 
L 208.472946 118.933109 
L 209.117805 118.545685 
L 209.76275 118.166318 
L 210.407695 117.792713 
L 211.052554 117.431396 
L 211.697499 117.077254 
L 212.342444 116.731911 
L 212.987303 116.393438 
L 213.632248 116.067675 
L 214.277107 115.744368 
L 214.922052 115.438887 
L 215.566997 115.138181 
L 216.211856 114.847649 
L 216.856801 114.562456 
L 217.501746 114.292357 
L 218.146605 114.028426 
L 218.79155 113.778601 
L 219.436495 113.53983 
L 220.081354 113.308849 
L 220.726299 113.089519 
L 221.371243 112.87658 
L 222.016103 112.679543 
L 222.661047 112.488723 
L 223.305907 112.307439 
L 223.950851 112.13852 
L 224.595796 111.976368 
L 225.240655 111.826224 
L 225.8856 111.683406 
L 226.530545 111.554109 
L 227.175404 111.43396 
L 227.820349 111.320574 
L 228.465294 111.220524 
L 229.110153 111.121599 
L 229.755098 111.035333 
L 230.400043 110.962816 
L 231.044902 110.893719 
L 231.689847 110.83497 
L 232.334706 110.788445 
L 232.979651 110.745935 
L 233.624596 110.710849 
L 234.269455 110.684935 
L 234.9144 110.666842 
L 235.559259 110.656249 
L 236.204204 110.654557 
L 236.849149 110.660391 
L 237.494093 110.677188 
L 238.139038 110.69695 
L 238.783812 110.727692 
L 239.428757 110.767674 
L 240.073701 110.814592 
L 240.718646 110.87067 
L 241.363591 110.939779 
L 242.008536 111.014192 
L 242.653309 111.097893 
L 243.298254 111.195135 
L 243.943199 111.300043 
L 244.588144 111.417313 
L 245.233089 111.544041 
L 245.877862 111.689609 
L 246.522807 111.837678 
L 247.167752 112.000524 
L 247.812697 112.171718 
L 248.457642 112.360281 
L 249.102587 112.559866 
L 249.74736 112.769525 
L 250.392305 112.99349 
L 251.03725 113.23051 
L 251.682195 113.477496 
L 252.327139 113.73565 
L 252.971913 114.008836 
L 253.616858 114.294156 
L 254.261803 114.586534 
L 254.906747 114.894395 
L 255.551692 115.215417 
L 256.196637 115.552484 
L 256.841411 115.894918 
L 257.486355 116.243291 
L 258.1313 116.605169 
L 258.776245 116.977155 
L 259.42119 117.357267 
L 260.066135 117.749108 
L 260.710908 118.147048 
L 261.355853 118.5522 
L 262.000798 118.963351 
L 262.645743 119.38408 
L 263.290688 119.814299 
L 263.935461 120.252153 
L 264.580406 120.695411 
L 265.225351 121.141036 
L 265.870296 121.594204 
L 266.515241 122.046791 
L 267.160185 122.503772 
L 267.804959 122.966308 
L 268.449904 123.433512 
L 269.094849 123.895854 
L 269.739793 124.359405 
L 270.384738 124.830084 
L 271.029512 125.305263 
L 271.674457 125.778581 
L 272.319401 126.252726 
L 272.964346 126.727601 
L 273.609291 127.204797 
L 274.254236 127.681866 
L 274.899009 128.15916 
L 275.543954 128.640482 
L 276.188899 129.117524 
L 276.833844 129.595812 
L 277.478789 130.073516 
L 278.123734 130.553057 
L 278.768507 131.034049 
L 279.413452 131.51254 
L 280.058397 131.993471 
L 280.703342 132.472444 
L 281.348287 132.951418 
L 281.99306 133.429036 
L 282.638005 133.90922 
L 283.28295 134.385535 
L 283.927895 134.86376 
L 284.572839 135.343741 
L 285.217784 135.824491 
L 285.862558 136.304105 
L 286.507503 136.784252 
L 287.152447 137.260793 
L 287.797392 137.740543 
L 288.442337 138.219073 
L 289.087111 138.699488 
L 289.732055 139.173586 
L 290.377 139.652243 
L 291.021945 140.126074 
L 291.66689 140.599437 
L 292.311835 141.073209 
L 292.956608 141.544732 
L 293.601553 142.017 
L 294.246498 142.482638 
L 294.891443 142.949461 
L 295.536388 143.414595 
L 296.181161 143.875076 
L 296.826106 144.333178 
L 297.471051 144.787167 
L 298.115996 145.238305 
L 298.760941 145.683126 
L 299.405885 146.12433 
L 300.050659 146.562562 
L 300.695604 146.994891 
L 301.340549 147.426839 
L 301.985493 147.84902 
L 302.630438 148.264933 
L 303.275383 148.678398 
L 303.920157 149.084384 
L 304.565101 149.483401 
L 305.210046 149.878383 
L 305.854991 150.269027 
L 306.499936 150.654453 
L 307.144709 151.032669 
L 307.789654 151.405765 
L 308.434599 151.772364 
L 309.079544 152.131756 
L 309.724489 152.484255 
L 310.369434 152.832643 
L 311.014207 153.174864 
L 311.659152 153.511025 
L 312.304097 153.840722 
L 312.949042 154.162947 
L 313.593987 154.477954 
L 314.23876 154.790679 
L 314.883705 155.096436 
L 315.52865 155.394648 
L 316.173595 155.686783 
L 316.818539 155.975946 
L 317.463484 156.257948 
L 318.108258 156.533113 
L 318.753203 156.804984 
L 319.398147 157.070191 
L 320.043092 157.331187 
L 320.688037 157.585331 
L 321.332982 157.83504 
L 321.977755 158.080708 
L 322.6227 158.319917 
L 323.267645 158.554773 
L 323.91259 158.786086 
L 324.557535 159.013653 
L 325.202308 159.234634 
L 325.847253 159.450444 
L 326.492198 159.663382 
L 327.137143 159.869344 
L 327.782088 160.072556 
L 328.427033 160.270025 
L 329.071806 160.466871 
L 329.716751 160.658611 
L 330.361696 160.84348 
L 331.006641 161.025688 
L 331.651585 161.204395 
L 332.296359 161.377304 
L 332.941304 161.546875 
L 333.586249 161.711842 
L 334.231193 161.873636 
L 334.876138 162.031131 
L 335.521083 162.184793 
L 336.165857 162.332423 
L 336.810801 162.476704 
L 337.455746 162.618142 
L 338.100691 162.754014 
L 338.745636 162.887348 
L 339.390409 163.018154 
L 340.035354 163.143689 
L 340.680299 163.263378 
L 341.325244 163.381516 
L 341.970189 163.496465 
L 342.615134 163.6054 
L 343.259907 163.709851 
L 343.904852 163.812999 
L 344.549797 163.912861 
L 345.194742 164.009484 
L 345.839687 164.101147 
L 346.484631 164.191539 
L 347.129405 164.276702 
L 347.77435 164.360001 
L 348.419295 164.440166 
L 349.064239 164.516525 
L 349.709184 164.591486 
L 350.353958 164.663748 
L 350.998903 164.732617 
L 351.643847 164.798269 
L 352.288792 164.862478 
L 352.933737 164.924191 
L 353.578682 164.983513 
L 354.223455 165.041167 
L 354.8684 165.095578 
L 355.513345 165.149165 
L 356.15829 165.20037 
L 356.803235 165.249313 
L 357.448008 165.296967 
L 358.092953 165.342521 
L 358.737898 165.388254 
L 359.382843 165.431565 
L 360.027788 165.472029 
L 360.672733 165.51245 
L 361.317506 165.550079 
L 361.962451 165.587327 
L 362.607396 165.62131 
L 363.252341 165.65531 
L 363.897285 165.687773 
L 364.54223 165.718964 
L 365.187004 165.748719 
L 365.831949 165.777492 
L 366.476893 165.804887 
L 367.121838 165.830767 
L 367.766783 165.855419 
L 368.411557 165.879285 
L 369.056501 165.902552 
L 369.701446 165.924193 
L 370.346391 165.94532 
L 370.991336 165.964708 
L 371.636281 165.984089 
L 372.281054 166.001974 
L 372.925999 166.019278 
L 373.570944 166.035598 
L 374.215889 166.051583 
L 374.860834 166.06641 
L 375.505607 166.080568 
L 376.150552 166.094675 
L 376.795497 166.107682 
L 377.440442 166.119889 
L 378.085387 166.131358 
L 378.730331 166.142344 
L 379.375105 166.153069 
L 380.02005 166.163133 
L 380.664995 166.172991 
L 381.309939 166.183034 
L 381.954884 166.192014 
L 382.599829 166.200461 
L 383.244603 166.208628 
L 383.889547 166.217127 
L 384.534492 166.224706 
L 385.179437 166.232079 
L 385.824382 166.239264 
L 386.469155 166.246474 
L 387.1141 166.253498 
L 387.759045 166.260354 
L 388.40399 166.267255 
L 389.048935 166.273594 
L 389.69388 166.279645 
L 390.338653 166.285839 
L 390.983598 166.292343 
L 391.628543 166.298113 
L 392.273488 166.304436 
L 392.918433 166.310032 
L 393.563377 166.315592 
L 394.208322 166.321108 
L 394.853267 166.326573 
L 395.498212 166.331979 
L 396.143157 166.337317 
L 396.788102 166.343171 
L 397.433047 166.348258 
L 398.077991 166.353462 
L 398.722936 166.358545 
L 399.367881 166.363304 
L 400.012826 166.367961 
L 400.657771 166.372704 
L 401.302716 166.377492 
L 401.947661 166.381896 
L 402.592605 166.385949 
L 403.23755 166.389871 
L 403.882495 166.393855 
L 404.52744 166.397664 
L 405.172385 166.401102 
L 405.81733 166.404394 
L 406.462274 166.407734 
L 407.107219 166.410694 
L 407.752164 166.413505 
L 408.397109 166.416165 
L 409.042054 166.418673 
L 409.686999 166.421032 
L 410.331944 166.423243 
L 410.976888 166.425308 
L 411.621833 166.427231 
L 412.266778 166.429016 
L 412.911723 166.430865 
L 413.556668 166.432358 
L 414.201613 166.433733 
L 414.846558 166.435193 
L 415.491502 166.436711 
L 416.136447 166.437678 
L 416.781392 166.43856 
L 417.426337 166.439364 
L 418.071282 166.440093 
L 418.716227 166.440752 
L 419.361171 166.441346 
L 420.006116 166.44188 
L 420.651061 166.442358 
L 421.296006 166.442784 
L 421.940951 166.443163 
L 422.585896 166.443498 
L 423.230841 166.443795 
L 423.875785 166.444254 
L 424.52073 166.444453 
L 425.165675 166.444825 
L 425.81062 166.444947 
L 426.455565 166.445054 
L 427.10051 166.445147 
L 427.745455 166.445228 
z
" style="fill:#1f77b4;opacity:0.4;"/>
   </g>
   <g id="patch_8">
    <path clip-path="url(#pd856b12333)" d="M 156.234899 166.445693 
L 156.234899 155.83445 
L 156.879758 155.52585 
L 157.524703 155.213047 
L 158.169647 154.892397 
L 158.814507 154.568979 
L 159.459451 154.240379 
L 160.104396 153.904668 
L 160.749255 153.567466 
L 161.3942 153.225539 
L 162.039059 152.876542 
L 162.684004 152.523752 
L 163.328949 152.165446 
L 163.973808 151.801022 
L 164.618753 151.432061 
L 165.263698 151.056247 
L 165.908557 150.678377 
L 166.553502 150.293494 
L 167.198447 149.900246 
L 167.843306 149.50349 
L 168.488251 149.103356 
L 169.133196 148.69539 
L 169.778055 148.281941 
L 170.423 147.862725 
L 171.067859 147.436014 
L 171.712804 147.00658 
L 172.357749 146.56689 
L 173.002608 146.124734 
L 173.647553 145.668734 
L 174.292497 145.21315 
L 174.937357 144.750236 
L 175.582301 144.283137 
L 176.227246 143.806566 
L 176.872105 143.324332 
L 177.51705 142.837779 
L 178.161909 142.34642 
L 178.806854 141.848774 
L 179.451799 141.346421 
L 180.096658 140.8384 
L 180.741603 140.324632 
L 181.386548 139.806662 
L 182.031407 139.288091 
L 182.676352 138.765481 
L 183.321297 138.236228 
L 183.966156 137.701147 
L 184.611101 137.163819 
L 185.256046 136.628693 
L 185.900905 136.092261 
L 186.54585 135.552264 
L 187.190709 135.011226 
L 187.835654 134.468005 
L 188.480599 133.927472 
L 189.125458 133.387811 
L 189.770403 132.851405 
L 190.415347 132.313703 
L 191.060207 131.774136 
L 191.705151 131.236051 
L 192.350096 130.700375 
L 192.994955 130.169709 
L 193.6399 129.640257 
L 194.284845 129.117863 
L 194.929704 128.59638 
L 195.574649 128.07637 
L 196.219508 127.560179 
L 196.864453 127.056062 
L 197.509398 126.557503 
L 198.154257 126.060535 
L 198.799202 125.56745 
L 199.444147 125.082184 
L 200.089006 124.601885 
L 200.733951 124.127464 
L 201.378896 123.658923 
L 202.023755 123.195674 
L 202.6687 122.740905 
L 203.313645 122.288472 
L 203.958504 121.846085 
L 204.603449 121.413022 
L 205.248308 120.984435 
L 205.893253 120.560415 
L 206.538197 120.141515 
L 207.183057 119.73431 
L 207.828001 119.329679 
L 208.472946 118.933109 
L 209.117805 118.545685 
L 209.76275 118.166318 
L 210.407695 117.792713 
L 211.052554 117.431396 
L 211.697499 117.077254 
L 212.342444 116.731911 
L 212.987303 116.393438 
L 213.632248 116.067675 
L 214.277107 115.744368 
L 214.922052 115.438887 
L 215.566997 115.138181 
L 216.211856 114.847649 
L 216.856801 114.562456 
L 217.501746 114.292357 
L 218.146605 114.028426 
L 218.79155 113.778601 
L 219.436495 113.53983 
L 220.081354 113.308849 
L 220.726299 113.089519 
L 221.371243 112.87658 
L 222.016103 112.679543 
L 222.661047 112.488723 
L 223.305907 112.307439 
L 223.950851 112.13852 
L 224.595796 111.976368 
L 225.240655 111.826224 
L 225.8856 111.683406 
L 226.530545 111.554109 
L 227.175404 111.43396 
L 227.820349 111.320574 
L 228.465294 111.220524 
L 229.110153 111.121599 
L 229.755098 111.035333 
L 230.400043 110.962816 
L 231.044902 110.893719 
L 231.689847 110.83497 
L 232.334706 110.788445 
L 232.979651 110.745935 
L 233.624596 110.710849 
L 234.269455 110.684935 
L 234.9144 110.666842 
L 235.559259 110.656249 
L 236.204204 110.654557 
L 236.849149 110.660391 
L 237.494093 110.677188 
L 238.139038 110.69695 
L 238.783812 110.727692 
L 239.428757 110.767674 
L 240.073701 110.814592 
L 240.718646 110.87067 
L 241.363591 110.939779 
L 242.008536 111.014192 
L 242.653309 111.097893 
L 243.298254 111.195135 
L 243.943199 111.300043 
L 244.588144 111.417313 
L 245.233089 111.544041 
L 245.877862 111.689609 
L 246.522807 111.837678 
L 247.167752 112.000524 
L 247.812697 112.171718 
L 248.457642 112.360281 
L 249.102587 112.559866 
L 249.74736 112.769525 
L 250.392305 112.99349 
L 251.03725 113.23051 
L 251.682195 113.477496 
L 252.327139 113.73565 
L 252.971913 114.008836 
L 253.616858 114.294156 
L 254.261803 114.586534 
L 254.906747 114.894395 
L 255.551692 115.215417 
L 256.196637 115.552484 
L 256.841411 115.894918 
L 257.486355 116.243291 
L 258.1313 116.605169 
L 258.776245 116.977155 
L 259.42119 117.357267 
L 260.066135 117.749108 
L 260.710908 118.147048 
L 261.355853 118.5522 
L 262.000798 118.963351 
L 262.645743 119.38408 
L 263.290688 119.814299 
L 263.935461 120.252153 
L 264.580406 120.695411 
L 265.225351 121.141036 
L 265.870296 121.594204 
L 266.515241 122.046791 
L 267.160185 122.503772 
L 267.804959 122.966308 
L 268.449904 123.433512 
L 269.094849 123.895854 
L 269.739793 124.359405 
L 270.384738 124.830084 
L 271.029512 125.305263 
L 271.674457 125.778581 
L 272.319401 126.252726 
L 272.964346 126.727601 
L 273.609291 127.204797 
L 274.254236 127.681866 
L 274.899009 128.15916 
L 275.543954 128.640482 
L 276.188899 129.117524 
L 276.833844 129.595812 
L 277.478789 130.073516 
L 278.123734 130.553057 
L 278.768507 131.034049 
L 279.413452 131.51254 
L 280.058397 131.993471 
L 280.703342 132.472444 
L 281.348287 132.951418 
L 281.99306 133.429036 
L 282.638005 133.90922 
L 283.28295 134.385535 
L 283.927895 134.86376 
L 284.572839 135.343741 
L 285.217784 135.824491 
L 285.862558 136.304105 
L 286.507503 136.784252 
L 287.152447 137.260793 
L 287.797392 137.740543 
L 288.442337 138.219073 
L 289.087111 138.699488 
L 289.732055 139.173586 
L 290.377 139.652243 
L 291.021945 140.126074 
L 291.66689 140.599437 
L 292.311835 141.073209 
L 292.956608 141.544732 
L 293.601553 142.017 
L 294.246498 142.482638 
L 294.891443 142.949461 
L 295.536388 143.414595 
L 296.181161 143.875076 
L 296.826106 144.333178 
L 297.471051 144.787167 
L 298.115996 145.238305 
L 298.760941 145.683126 
L 299.405885 146.12433 
L 300.050659 146.562562 
L 300.695604 146.994891 
L 301.340549 147.426839 
L 301.985493 147.84902 
L 302.630438 148.264933 
L 303.275383 148.678398 
L 303.920157 149.084384 
L 304.565101 149.483401 
L 305.210046 149.878383 
L 305.854991 150.269027 
L 306.499936 150.654453 
L 307.144709 151.032669 
L 307.789654 151.405765 
L 308.434599 151.772364 
L 309.079544 152.131756 
L 309.724489 152.484255 
L 310.369434 152.832643 
L 311.014207 153.174864 
L 311.659152 153.511025 
L 312.304097 153.840722 
L 312.949042 154.162947 
L 313.593987 154.477954 
L 314.23876 154.790679 
L 314.883705 155.096436 
L 315.52865 155.394648 
L 316.173595 155.686783 
L 316.818539 155.975946 
L 317.463484 156.257948 
L 318.108258 156.533113 
L 318.108258 166.445693 
z
" style="fill:#1f77b4;opacity:0.4;"/>
   </g>
   <g id="matplotlib.axis_2">
    <g id="xtick_9">
     <g id="line2d_9">
      <g>
       <use style="stroke:#000000;stroke-width:0.8;" x="62.457987" xlink:href="#m4f99b33c99" y="169.23525"/>
      </g>
     </g>
     <g id="text_10">
      <!-- 0.44 -->
      <defs>
       <path d="M 37.796875 64.3125 
L 12.890625 25.390625 
L 37.796875 25.390625 
z
M 35.203125 72.90625 
L 47.609375 72.90625 
L 47.609375 25.390625 
L 58.015625 25.390625 
L 58.015625 17.1875 
L 47.609375 17.1875 
L 47.609375 0 
L 37.796875 0 
L 37.796875 17.1875 
L 4.890625 17.1875 
L 4.890625 26.703125 
z
" id="DejaVuSans-52"/>
      </defs>
      <g transform="translate(51.325175 183.833687)scale(0.1 -0.1)">
       <use xlink:href="#DejaVuSans-48"/>
       <use x="63.623047" xlink:href="#DejaVuSans-46"/>
       <use x="95.410156" xlink:href="#DejaVuSans-52"/>
       <use x="159.033203" xlink:href="#DejaVuSans-52"/>
      </g>
     </g>
    </g>
    <g id="xtick_10">
     <g id="line2d_10">
      <g>
       <use style="stroke:#000000;stroke-width:0.8;" x="119.96731" xlink:href="#m4f99b33c99" y="169.23525"/>
      </g>
     </g>
     <g id="text_11">
      <!-- 0.46 -->
      <g transform="translate(108.834498 183.833687)scale(0.1 -0.1)">
       <use xlink:href="#DejaVuSans-48"/>
       <use x="63.623047" xlink:href="#DejaVuSans-46"/>
       <use x="95.410156" xlink:href="#DejaVuSans-52"/>
       <use x="159.033203" xlink:href="#DejaVuSans-54"/>
      </g>
     </g>
    </g>
    <g id="xtick_11">
     <g id="line2d_11">
      <g>
       <use style="stroke:#000000;stroke-width:0.8;" x="177.476633" xlink:href="#m4f99b33c99" y="169.23525"/>
      </g>
     </g>
     <g id="text_12">
      <!-- 0.48 -->
      <g transform="translate(166.34382 183.833687)scale(0.1 -0.1)">
       <use xlink:href="#DejaVuSans-48"/>
       <use x="63.623047" xlink:href="#DejaVuSans-46"/>
       <use x="95.410156" xlink:href="#DejaVuSans-52"/>
       <use x="159.033203" xlink:href="#DejaVuSans-56"/>
      </g>
     </g>
    </g>
    <g id="xtick_12">
     <g id="line2d_12">
      <g>
       <use style="stroke:#000000;stroke-width:0.8;" x="234.985956" xlink:href="#m4f99b33c99" y="169.23525"/>
      </g>
     </g>
     <g id="text_13">
      <!-- 0.50 -->
      <defs>
       <path d="M 10.796875 72.90625 
L 49.515625 72.90625 
L 49.515625 64.59375 
L 19.828125 64.59375 
L 19.828125 46.734375 
Q 21.96875 47.46875 24.109375 47.828125 
Q 26.265625 48.1875 28.421875 48.1875 
Q 40.625 48.1875 47.75 41.5 
Q 54.890625 34.8125 54.890625 23.390625 
Q 54.890625 11.625 47.5625 5.09375 
Q 40.234375 -1.421875 26.90625 -1.421875 
Q 22.3125 -1.421875 17.546875 -0.640625 
Q 12.796875 0.140625 7.71875 1.703125 
L 7.71875 11.625 
Q 12.109375 9.234375 16.796875 8.0625 
Q 21.484375 6.890625 26.703125 6.890625 
Q 35.15625 6.890625 40.078125 11.328125 
Q 45.015625 15.765625 45.015625 23.390625 
Q 45.015625 31 40.078125 35.4375 
Q 35.15625 39.890625 26.703125 39.890625 
Q 22.75 39.890625 18.8125 39.015625 
Q 14.890625 38.140625 10.796875 36.28125 
z
" id="DejaVuSans-53"/>
      </defs>
      <g transform="translate(223.853143 183.833687)scale(0.1 -0.1)">
       <use xlink:href="#DejaVuSans-48"/>
       <use x="63.623047" xlink:href="#DejaVuSans-46"/>
       <use x="95.410156" xlink:href="#DejaVuSans-53"/>
       <use x="159.033203" xlink:href="#DejaVuSans-48"/>
      </g>
     </g>
    </g>
    <g id="xtick_13">
     <g id="line2d_13">
      <g>
       <use style="stroke:#000000;stroke-width:0.8;" x="292.495278" xlink:href="#m4f99b33c99" y="169.23525"/>
      </g>
     </g>
     <g id="text_14">
      <!-- 0.52 -->
      <g transform="translate(281.362466 183.833687)scale(0.1 -0.1)">
       <use xlink:href="#DejaVuSans-48"/>
       <use x="63.623047" xlink:href="#DejaVuSans-46"/>
       <use x="95.410156" xlink:href="#DejaVuSans-53"/>
       <use x="159.033203" xlink:href="#DejaVuSans-50"/>
      </g>
     </g>
    </g>
    <g id="xtick_14">
     <g id="line2d_14">
      <g>
       <use style="stroke:#000000;stroke-width:0.8;" x="350.004601" xlink:href="#m4f99b33c99" y="169.23525"/>
      </g>
     </g>
     <g id="text_15">
      <!-- 0.54 -->
      <g transform="translate(338.871788 183.833687)scale(0.1 -0.1)">
       <use xlink:href="#DejaVuSans-48"/>
       <use x="63.623047" xlink:href="#DejaVuSans-46"/>
       <use x="95.410156" xlink:href="#DejaVuSans-53"/>
       <use x="159.033203" xlink:href="#DejaVuSans-52"/>
      </g>
     </g>
    </g>
    <g id="xtick_15">
     <g id="line2d_15">
      <g>
       <use style="stroke:#000000;stroke-width:0.8;" x="407.513924" xlink:href="#m4f99b33c99" y="169.23525"/>
      </g>
     </g>
     <g id="text_16">
      <!-- 0.56 -->
      <g transform="translate(396.381111 183.833687)scale(0.1 -0.1)">
       <use xlink:href="#DejaVuSans-48"/>
       <use x="63.623047" xlink:href="#DejaVuSans-46"/>
       <use x="95.410156" xlink:href="#DejaVuSans-53"/>
       <use x="159.033203" xlink:href="#DejaVuSans-54"/>
      </g>
     </g>
    </g>
    <g id="text_17">
     <!-- bias -->
     <defs>
      <path d="M 48.6875 27.296875 
Q 48.6875 37.203125 44.609375 42.84375 
Q 40.53125 48.484375 33.40625 48.484375 
Q 26.265625 48.484375 22.1875 42.84375 
Q 18.109375 37.203125 18.109375 27.296875 
Q 18.109375 17.390625 22.1875 11.75 
Q 26.265625 6.109375 33.40625 6.109375 
Q 40.53125 6.109375 44.609375 11.75 
Q 48.6875 17.390625 48.6875 27.296875 
z
M 18.109375 46.390625 
Q 20.953125 51.265625 25.265625 53.625 
Q 29.59375 56 35.59375 56 
Q 45.5625 56 51.78125 48.09375 
Q 58.015625 40.1875 58.015625 27.296875 
Q 58.015625 14.40625 51.78125 6.484375 
Q 45.5625 -1.421875 35.59375 -1.421875 
Q 29.59375 -1.421875 25.265625 0.953125 
Q 20.953125 3.328125 18.109375 8.203125 
L 18.109375 0 
L 9.078125 0 
L 9.078125 75.984375 
L 18.109375 75.984375 
z
" id="DejaVuSans-98"/>
      <path d="M 34.28125 27.484375 
Q 23.390625 27.484375 19.1875 25 
Q 14.984375 22.515625 14.984375 16.5 
Q 14.984375 11.71875 18.140625 8.90625 
Q 21.296875 6.109375 26.703125 6.109375 
Q 34.1875 6.109375 38.703125 11.40625 
Q 43.21875 16.703125 43.21875 25.484375 
L 43.21875 27.484375 
z
M 52.203125 31.203125 
L 52.203125 0 
L 43.21875 0 
L 43.21875 8.296875 
Q 40.140625 3.328125 35.546875 0.953125 
Q 30.953125 -1.421875 24.3125 -1.421875 
Q 15.921875 -1.421875 10.953125 3.296875 
Q 6 8.015625 6 15.921875 
Q 6 25.140625 12.171875 29.828125 
Q 18.359375 34.515625 30.609375 34.515625 
L 43.21875 34.515625 
L 43.21875 35.40625 
Q 43.21875 41.609375 39.140625 45 
Q 35.0625 48.390625 27.6875 48.390625 
Q 23 48.390625 18.546875 47.265625 
Q 14.109375 46.140625 10.015625 43.890625 
L 10.015625 52.203125 
Q 14.9375 54.109375 19.578125 55.046875 
Q 24.21875 56 28.609375 56 
Q 40.484375 56 46.34375 49.84375 
Q 52.203125 43.703125 52.203125 31.203125 
z
" id="DejaVuSans-97"/>
      <path d="M 44.28125 53.078125 
L 44.28125 44.578125 
Q 40.484375 46.53125 36.375 47.5 
Q 32.28125 48.484375 27.875 48.484375 
Q 21.1875 48.484375 17.84375 46.4375 
Q 14.5 44.390625 14.5 40.28125 
Q 14.5 37.15625 16.890625 35.375 
Q 19.28125 33.59375 26.515625 31.984375 
L 29.59375 31.296875 
Q 39.15625 29.25 43.1875 25.515625 
Q 47.21875 21.78125 47.21875 15.09375 
Q 47.21875 7.46875 41.1875 3.015625 
Q 35.15625 -1.421875 24.609375 -1.421875 
Q 20.21875 -1.421875 15.453125 -0.5625 
Q 10.6875 0.296875 5.421875 2 
L 5.421875 11.28125 
Q 10.40625 8.6875 15.234375 7.390625 
Q 20.0625 6.109375 24.8125 6.109375 
Q 31.15625 6.109375 34.5625 8.28125 
Q 37.984375 10.453125 37.984375 14.40625 
Q 37.984375 18.0625 35.515625 20.015625 
Q 33.0625 21.96875 24.703125 23.78125 
L 21.578125 24.515625 
Q 13.234375 26.265625 9.515625 29.90625 
Q 5.8125 33.546875 5.8125 39.890625 
Q 5.8125 47.609375 11.28125 51.796875 
Q 16.75 56 26.8125 56 
Q 31.78125 56 36.171875 55.265625 
Q 40.578125 54.546875 44.28125 53.078125 
z
" id="DejaVuSans-115"/>
     </defs>
     <g transform="translate(220.167969 197.511813)scale(0.1 -0.1)">
      <use xlink:href="#DejaVuSans-98"/>
      <use x="63.476562" xlink:href="#DejaVuSans-105"/>
      <use x="91.259766" xlink:href="#DejaVuSans-97"/>
      <use x="152.539062" xlink:href="#DejaVuSans-115"/>
     </g>
    </g>
   </g>
   <g id="patch_9">
    <path d="M 13.32 169.23525 
L 447.48 169.23525 
" style="fill:none;stroke:#000000;stroke-linecap:square;stroke-linejoin:miter;stroke-width:0.8;"/>
   </g>
  </g>
  <g id="axes_3">
   <g id="patch_10">
    <path d="M 13.32 267.58275 
L 447.48 267.58275 
L 447.48 206.2125 
L 13.32 206.2125 
z
" style="fill:#ffffff;"/>
   </g>
   <g id="patch_11">
    <path clip-path="url(#p04924b654f)" d="M 33.054545 264.793193 
L 33.699474 264.793 
L 34.344402 264.792581 
L 34.989331 264.79209 
L 35.634259 264.791901 
L 36.279188 264.791298 
L 36.924116 264.790983 
L 37.569045 264.790622 
L 38.213973 264.790212 
L 38.858902 264.789745 
L 39.50383 264.789025 
L 40.148759 264.788204 
L 40.793687 264.78727 
L 41.438616 264.786019 
L 42.083544 264.784981 
L 42.728473 264.78382 
L 43.373401 264.782332 
L 44.01833 264.780666 
L 44.663258 264.778805 
L 45.308187 264.776925 
L 45.953115 264.774273 
L 46.598044 264.771504 
L 47.242972 264.768625 
L 47.887901 264.765452 
L 48.532829 264.762159 
L 49.177758 264.758372 
L 49.822686 264.754043 
L 50.467615 264.749119 
L 51.112543 264.743927 
L 51.757471 264.737701 
L 52.4024 264.731473 
L 53.047328 264.724145 
L 53.692257 264.71617 
L 54.337185 264.7077 
L 54.982114 264.699111 
L 55.627042 264.689503 
L 56.271971 264.678591 
L 56.916899 264.6674 
L 57.561828 264.654439 
L 58.206756 264.640663 
L 58.851685 264.626048 
L 59.496613 264.609993 
L 60.141542 264.593725 
L 60.78647 264.576 
L 61.431399 264.555743 
L 62.076327 264.534594 
L 62.721256 264.511602 
L 63.366184 264.488358 
L 64.011113 264.463653 
L 64.656041 264.435887 
L 65.30097 264.406078 
L 65.945898 264.374285 
L 66.590827 264.340588 
L 67.235755 264.306064 
L 67.880684 264.26524 
L 68.525612 264.224234 
L 69.815469 264.180814 
L 70.460368 264.134879 
L 71.105297 264.085554 
L 71.750225 264.032222 
L 72.395124 263.975528 
L 73.040053 263.914911 
L 73.684952 263.851469 
L 74.32988 263.782478 
L 74.974809 263.711314 
L 75.619708 263.634849 
L 76.264636 263.553867 
L 76.909565 263.469713 
L 77.554464 263.378793 
L 78.199392 263.281739 
L 78.844321 263.1803 
L 79.48922 263.071366 
L 80.134148 262.958067 
L 80.779047 262.839696 
L 81.423976 262.715456 
L 82.068904 262.582906 
L 82.713803 262.441726 
L 83.358732 262.29371 
L 84.00366 262.139279 
L 84.648559 261.977426 
L 85.293488 261.807588 
L 85.938416 261.630111 
L 86.583316 261.441973 
L 87.228244 261.247567 
L 87.873173 261.044781 
L 88.518072 260.832127 
L 89.163 260.611947 
L 89.807899 260.383562 
L 90.452828 260.141964 
L 91.097756 259.893836 
L 91.742655 259.635697 
L 92.387584 259.36811 
L 93.032512 259.091189 
L 93.677411 258.803749 
L 94.32234 258.506732 
L 94.967268 258.20012 
L 95.612167 257.881403 
L 96.257096 257.553056 
L 96.901995 257.214155 
L 97.546923 256.864594 
L 98.191852 256.504271 
L 98.836751 256.136358 
L 99.481679 255.755152 
L 100.126608 255.36591 
L 100.771507 254.963647 
L 101.416435 254.552729 
L 102.061364 254.131165 
L 102.706263 253.699902 
L 103.351191 253.257935 
L 103.996091 252.805436 
L 104.641019 252.342807 
L 105.285947 251.871873 
L 105.930847 251.388799 
L 106.575775 250.89676 
L 107.220704 250.393486 
L 107.865603 249.880777 
L 108.510531 249.360835 
L 109.15546 248.826145 
L 109.800359 248.283669 
L 110.445287 247.732204 
L 111.090186 247.172947 
L 111.735115 246.605168 
L 112.380043 246.029114 
L 113.024942 245.444093 
L 113.669871 244.851805 
L 114.314799 244.247826 
L 114.959698 243.637785 
L 115.604627 243.021159 
L 116.249555 242.398158 
L 116.894454 241.767253 
L 117.539383 241.130296 
L 118.184282 240.491373 
L 118.82921 239.84916 
L 119.474139 239.198374 
L 120.119038 238.544432 
L 120.763966 237.888589 
L 121.408895 237.228383 
L 122.053794 236.565626 
L 122.698722 235.897686 
L 123.343651 235.228537 
L 123.98855 234.558208 
L 124.633478 233.887749 
L 125.278407 233.219332 
L 125.923306 232.550983 
L 126.568235 231.885789 
L 127.213134 231.22182 
L 127.858062 230.557368 
L 128.502991 229.893505 
L 129.14789 229.23161 
L 129.792818 228.574355 
L 130.437747 227.920487 
L 131.082646 227.27032 
L 131.727574 226.625097 
L 132.372503 225.985129 
L 133.017402 225.34908 
L 133.66233 224.720482 
L 134.307229 224.099384 
L 134.952158 223.481894 
L 135.597086 222.875278 
L 136.241985 222.274614 
L 136.886914 221.681963 
L 137.531842 221.101908 
L 138.176741 220.530121 
L 138.82167 219.964401 
L 139.466598 219.408698 
L 140.111497 218.8645 
L 140.756426 218.329875 
L 141.401325 217.806214 
L 142.046253 217.294619 
L 142.691182 216.796233 
L 143.336081 216.311806 
L 143.98101 215.842163 
L 144.625938 215.383683 
L 145.270837 214.939457 
L 145.915766 214.506439 
L 146.560694 214.089424 
L 147.205593 213.683171 
L 147.850522 213.296555 
L 148.495421 212.92455 
L 149.140349 212.566036 
L 149.785278 212.225242 
L 150.430177 211.903243 
L 151.075105 211.594662 
L 151.720034 211.305676 
L 152.364933 211.03183 
L 153.009861 210.771149 
L 153.65479 210.52925 
L 154.299689 210.307004 
L 154.944617 210.103374 
L 155.589516 209.916219 
L 156.234445 209.746914 
L 156.879373 209.591731 
L 157.524272 209.457786 
L 158.169201 209.33649 
L 158.814129 209.23665 
L 159.459028 209.153561 
L 160.103957 209.08901 
L 160.748885 209.043316 
L 161.393784 209.014177 
L 162.038713 209.002057 
L 162.683641 209.009465 
L 163.328541 209.031143 
L 163.973469 209.071701 
L 164.618368 209.130056 
L 165.263297 209.204134 
L 165.908225 209.294623 
L 166.553124 209.401205 
L 167.198053 209.523515 
L 167.842981 209.662872 
L 168.48788 209.81825 
L 169.132809 209.98821 
L 169.777737 210.173048 
L 170.422636 210.375466 
L 171.067565 210.588768 
L 171.712464 210.817722 
L 172.357392 211.059258 
L 173.002321 211.316443 
L 173.64722 211.583987 
L 174.292148 211.864412 
L 174.937077 212.15684 
L 175.581976 212.458344 
L 176.226904 212.775241 
L 176.871833 213.103188 
L 177.516732 213.438822 
L 178.16166 213.788833 
L 178.806559 214.14581 
L 179.451488 214.513413 
L 180.096416 214.891168 
L 180.741315 215.276775 
L 181.386244 215.673471 
L 182.031172 216.077445 
L 182.676072 216.487635 
L 183.321 216.90338 
L 183.965929 217.325246 
L 184.610828 217.755855 
L 185.255756 218.192995 
L 185.900655 218.636959 
L 186.545584 219.092055 
L 187.190512 219.550786 
L 187.835411 220.013844 
L 188.48034 220.482674 
L 189.125268 220.958471 
L 189.770167 221.438837 
L 190.415096 221.921657 
L 191.060024 222.409297 
L 191.704923 222.90494 
L 192.349852 223.405176 
L 192.994751 223.907567 
L 193.639679 224.415924 
L 194.284608 224.927908 
L 194.929507 225.446134 
L 195.574435 225.968531 
L 196.219364 226.493326 
L 196.864263 227.021245 
L 197.509191 227.547747 
L 198.15412 228.07746 
L 198.799019 228.608967 
L 199.443947 229.141485 
L 200.088876 229.679008 
L 200.733775 230.218936 
L 201.378703 230.759517 
L 202.023603 231.298941 
L 202.668531 231.839534 
L 203.31346 232.378697 
L 203.958359 232.91568 
L 204.603287 233.452153 
L 205.248216 233.987034 
L 205.893115 234.518564 
L 206.538043 235.047904 
L 207.182972 235.575492 
L 207.827871 236.097357 
L 208.472799 236.61687 
L 209.117698 237.132568 
L 209.762627 237.642163 
L 210.407555 238.149398 
L 211.052454 238.655476 
L 211.697383 239.156115 
L 212.342311 239.648873 
L 212.98721 240.140392 
L 213.632139 240.624415 
L 214.277067 241.100931 
L 214.921966 241.571541 
L 215.566895 242.035418 
L 216.211794 242.493041 
L 216.856722 242.947378 
L 217.501651 243.395937 
L 218.14655 243.839781 
L 218.791478 244.277331 
L 219.436407 244.710858 
L 220.081306 245.134757 
L 220.726234 245.554097 
L 221.371163 245.967681 
L 222.016062 246.376193 
L 222.660991 246.776264 
L 223.30589 247.173037 
L 223.950818 247.563605 
L 224.595747 247.948311 
L 225.240646 248.329907 
L 225.885574 248.703919 
L 226.530503 249.071815 
L 227.175402 249.434896 
L 227.82033 249.79302 
L 228.465259 250.144928 
L 229.110158 250.494008 
L 229.755086 250.834411 
L 230.399985 251.174078 
L 231.044914 251.50651 
L 231.689842 251.831684 
L 232.334741 252.150833 
L 232.97967 252.464883 
L 233.624598 252.773825 
L 234.269497 253.077812 
L 234.914426 253.378445 
L 235.559354 253.673671 
L 236.204253 253.962352 
L 236.849182 254.244936 
L 237.49411 254.523301 
L 238.139009 254.797453 
L 238.783938 255.066283 
L 239.428837 255.329238 
L 240.073766 255.58748 
L 240.718694 255.83916 
L 241.363593 256.085721 
L 242.008522 256.327654 
L 242.65345 256.561514 
L 243.298349 256.791331 
L 243.943278 257.016899 
L 244.588206 257.236494 
L 245.233105 257.451347 
L 245.878034 257.661599 
L 246.522933 257.866721 
L 247.167861 258.066278 
L 247.81279 258.263485 
L 248.457689 258.452348 
L 249.102617 258.636681 
L 249.747546 258.817671 
L 250.392445 258.992407 
L 251.037373 259.164845 
L 251.682302 259.332953 
L 252.327201 259.495381 
L 252.972129 259.65206 
L 253.617028 259.807662 
L 254.261957 259.957748 
L 254.906885 260.105471 
L 255.551784 260.249867 
L 256.196713 260.391626 
L 256.841641 260.527748 
L 257.48654 260.660827 
L 258.131469 260.789705 
L 258.776397 260.914479 
L 259.421297 261.036146 
L 260.066225 261.155723 
L 260.711124 261.271618 
L 261.356082 261.384451 
L 262.000981 261.494617 
L 262.64588 261.600764 
L 263.290838 261.704068 
L 263.935737 261.805394 
L 264.580636 261.902669 
L 265.225535 261.998071 
L 265.870493 262.090339 
L 266.515392 262.180177 
L 267.160291 262.26756 
L 267.805249 262.350338 
L 268.450148 262.430954 
L 269.095047 262.508569 
L 269.740005 262.585069 
L 270.384904 262.659114 
L 271.029803 262.728892 
L 271.674761 262.797617 
L 272.31966 262.862676 
L 272.964559 262.925961 
L 273.609517 262.987423 
L 274.254416 263.045367 
L 274.899315 263.100819 
L 275.544273 263.155045 
L 276.189172 263.207496 
L 276.834071 263.257039 
L 277.479029 263.305021 
L 278.123928 263.350934 
L 278.768828 263.395039 
L 279.413727 263.438226 
L 280.058685 263.478809 
L 280.703584 263.517528 
L 281.348483 263.555166 
L 281.993441 263.591252 
L 282.63834 263.625565 
L 283.283239 263.658585 
L 283.928197 263.690403 
L 284.573096 263.72176 
L 285.217995 263.752642 
L 285.862953 263.781567 
L 286.507852 263.810893 
L 287.152751 263.83853 
L 287.797709 263.865795 
L 288.442608 263.892523 
L 289.087507 263.918443 
L 289.732465 263.943276 
L 290.377364 263.96809 
L 291.022263 263.99218 
L 291.667221 264.015467 
L 292.31212 264.038378 
L 292.957019 264.060595 
L 293.601977 264.083156 
L 294.246876 264.104645 
L 294.891775 264.126643 
L 295.536674 264.147512 
L 296.181632 264.167518 
L 296.826531 264.187736 
L 297.47143 264.207899 
L 298.116388 264.227615 
L 298.761287 264.24704 
L 299.406186 264.265453 
L 300.051144 264.283414 
L 300.696043 264.300604 
L 301.340942 264.318039 
L 301.9859 264.334774 
L 302.630799 264.350827 
L 303.275698 264.366049 
L 303.920656 264.381134 
L 304.565555 264.395688 
L 305.210454 264.409702 
L 305.855412 264.423011 
L 306.500311 264.4358 
L 307.14521 264.447905 
L 307.790168 264.459349 
L 308.435067 264.470486 
L 309.079966 264.481289 
L 309.724865 264.491576 
L 310.369823 264.501195 
L 311.014722 264.510185 
L 311.659621 264.519239 
L 312.304579 264.527639 
L 312.949478 264.535432 
L 313.594377 264.543321 
L 314.239335 264.550103 
L 314.884234 264.556728 
L 315.529134 264.563022 
L 316.174091 264.569335 
L 316.81899 264.57482 
L 317.46389 264.580072 
L 318.108847 264.585273 
L 318.753747 264.590254 
L 319.398646 264.595199 
L 320.043604 264.600107 
L 320.688503 264.604323 
L 321.333402 264.608441 
L 321.97836 264.61264 
L 322.623259 264.616747 
L 323.268158 264.620779 
L 323.913116 264.624753 
L 324.558015 264.628521 
L 325.202914 264.632778 
L 325.847813 264.636967 
L 326.492771 264.640942 
L 327.13767 264.644744 
L 327.782569 264.648737 
L 328.427527 264.65241 
L 329.072426 264.656311 
L 329.717325 264.660576 
L 330.362283 264.664502 
L 331.007182 264.668307 
L 331.652081 264.672344 
L 332.297039 264.67625 
L 332.941938 264.680374 
L 333.586837 264.684353 
L 334.231795 264.688372 
L 334.876694 264.692582 
L 335.521593 264.69662 
L 336.166551 264.700666 
L 336.81145 264.704711 
L 337.456349 264.70874 
L 338.101307 264.712743 
L 338.746206 264.716872 
L 339.391105 264.720763 
L 340.036004 264.724761 
L 340.680962 264.728504 
L 341.325861 264.732173 
L 341.97076 264.735758 
L 342.615718 264.739252 
L 343.260617 264.742808 
L 343.905516 264.746231 
L 344.550474 264.749355 
L 345.195373 264.752365 
L 345.840272 264.755258 
L 346.48523 264.758192 
L 347.130129 264.760976 
L 347.775028 264.763446 
L 348.419986 264.765794 
L 349.064885 264.768019 
L 349.709784 264.770119 
L 350.354742 264.77226 
L 350.999641 264.774091 
L 351.64454 264.775969 
L 352.289498 264.777544 
L 352.934397 264.779011 
L 353.579296 264.780374 
L 354.224196 264.781636 
L 354.869153 264.7828 
L 355.514053 264.783871 
L 356.158952 264.78466 
L 356.803909 264.785524 
L 357.448809 264.786304 
L 358.093708 264.787003 
L 358.738666 264.787626 
L 359.383565 264.788177 
L 360.028464 264.788822 
L 360.673422 264.789215 
L 361.318321 264.789549 
L 361.96322 264.789993 
L 362.608178 264.790359 
L 363.253077 264.790654 
L 363.897976 264.79072 
L 364.542934 264.79075 
L 365.187833 264.790745 
L 365.832732 264.790705 
L 366.47769 264.790632 
L 367.122589 264.790526 
L 367.767488 264.790551 
L 368.412446 264.790355 
L 369.057345 264.790131 
L 369.702244 264.789879 
L 370.347143 264.789599 
L 370.992101 264.789292 
L 371.637 264.789121 
L 372.281899 264.788735 
L 372.926857 264.788326 
L 373.571756 264.787896 
L 374.216655 264.787444 
L 374.861613 264.786972 
L 375.506512 264.786481 
L 376.151411 264.785973 
L 376.796369 264.785448 
L 377.441268 264.78491 
L 378.086167 264.78436 
L 378.731125 264.783801 
L 379.376024 264.783236 
L 380.020923 264.782667 
L 380.665881 264.782099 
L 381.31078 264.781534 
L 381.955679 264.780976 
L 382.600637 264.780429 
L 383.245536 264.779896 
L 383.890435 264.779381 
L 384.535334 264.778888 
L 385.180292 264.778421 
L 385.825191 264.777983 
L 386.47009 264.777578 
L 387.115048 264.777208 
L 387.759947 264.776878 
L 388.404846 264.776589 
L 389.049804 264.776345 
L 389.694703 264.776147 
L 390.339602 264.775997 
L 390.98456 264.775896 
L 391.629459 264.775846 
L 392.274388 264.775846 
L 392.919316 264.775896 
L 393.564245 264.775997 
L 394.209173 264.776147 
L 394.854102 264.776345 
L 395.49903 264.776589 
L 396.143959 264.776878 
L 396.788887 264.777208 
L 397.433816 264.777578 
L 398.078744 264.777983 
L 398.723673 264.778421 
L 399.368601 264.778888 
L 400.01353 264.779381 
L 400.658458 264.779896 
L 401.303387 264.780429 
L 401.948315 264.780976 
L 402.593244 264.781534 
L 403.238172 264.782099 
L 403.883101 264.782667 
L 404.528029 264.783236 
L 405.172958 264.783801 
L 405.817886 264.78436 
L 406.462815 264.78491 
L 407.107743 264.785448 
L 407.752672 264.785973 
L 408.3976 264.786481 
L 409.042529 264.786972 
L 409.687457 264.787444 
L 410.332385 264.787896 
L 410.977314 264.788326 
L 411.622242 264.788735 
L 412.267171 264.789121 
L 412.912099 264.789484 
L 413.557028 264.789825 
L 414.201956 264.790144 
L 414.846885 264.79044 
L 415.491813 264.790715 
L 416.136742 264.790969 
L 416.78167 264.791203 
L 417.426599 264.791417 
L 418.071527 264.791613 
L 418.716456 264.791791 
L 419.361384 264.791953 
L 420.006313 264.7921 
L 420.651241 264.792232 
L 421.29617 264.79235 
L 421.941098 264.792456 
L 422.586027 264.792551 
L 423.230955 264.792635 
L 423.875884 264.792709 
L 424.520812 264.792775 
L 425.165741 264.792833 
L 425.810669 264.792884 
L 426.455598 264.792928 
L 427.100526 264.792967 
L 427.745455 264.793 
z
" style="fill:#1f77b4;opacity:0.4;"/>
   </g>
   <g id="patch_12">
    <path clip-path="url(#p04924b654f)" d="M 105.930847 264.793193 
L 105.930847 251.388799 
L 106.575775 250.89676 
L 107.220704 250.393486 
L 107.865603 249.880777 
L 108.510531 249.360835 
L 109.15546 248.826145 
L 109.800359 248.283669 
L 110.445287 247.732204 
L 111.090186 247.172947 
L 111.735115 246.605168 
L 112.380043 246.029114 
L 113.024942 245.444093 
L 113.669871 244.851805 
L 114.314799 244.247826 
L 114.959698 243.637785 
L 115.604627 243.021159 
L 116.249555 242.398158 
L 116.894454 241.767253 
L 117.539383 241.130296 
L 118.184282 240.491373 
L 118.82921 239.84916 
L 119.474139 239.198374 
L 120.119038 238.544432 
L 120.763966 237.888589 
L 121.408895 237.228383 
L 122.053794 236.565626 
L 122.698722 235.897686 
L 123.343651 235.228537 
L 123.98855 234.558208 
L 124.633478 233.887749 
L 125.278407 233.219332 
L 125.923306 232.550983 
L 126.568235 231.885789 
L 127.213134 231.22182 
L 127.858062 230.557368 
L 128.502991 229.893505 
L 129.14789 229.23161 
L 129.792818 228.574355 
L 130.437747 227.920487 
L 131.082646 227.27032 
L 131.727574 226.625097 
L 132.372503 225.985129 
L 133.017402 225.34908 
L 133.66233 224.720482 
L 134.307229 224.099384 
L 134.952158 223.481894 
L 135.597086 222.875278 
L 136.241985 222.274614 
L 136.886914 221.681963 
L 137.531842 221.101908 
L 138.176741 220.530121 
L 138.82167 219.964401 
L 139.466598 219.408698 
L 140.111497 218.8645 
L 140.756426 218.329875 
L 141.401325 217.806214 
L 142.046253 217.294619 
L 142.691182 216.796233 
L 143.336081 216.311806 
L 143.98101 215.842163 
L 144.625938 215.383683 
L 145.270837 214.939457 
L 145.915766 214.506439 
L 146.560694 214.089424 
L 147.205593 213.683171 
L 147.850522 213.296555 
L 148.495421 212.92455 
L 149.140349 212.566036 
L 149.785278 212.225242 
L 150.430177 211.903243 
L 151.075105 211.594662 
L 151.720034 211.305676 
L 152.364933 211.03183 
L 153.009861 210.771149 
L 153.65479 210.52925 
L 154.299689 210.307004 
L 154.944617 210.103374 
L 155.589516 209.916219 
L 156.234445 209.746914 
L 156.879373 209.591731 
L 157.524272 209.457786 
L 158.169201 209.33649 
L 158.814129 209.23665 
L 159.459028 209.153561 
L 160.103957 209.08901 
L 160.748885 209.043316 
L 161.393784 209.014177 
L 162.038713 209.002057 
L 162.683641 209.009465 
L 163.328541 209.031143 
L 163.973469 209.071701 
L 164.618368 209.130056 
L 165.263297 209.204134 
L 165.908225 209.294623 
L 166.553124 209.401205 
L 167.198053 209.523515 
L 167.842981 209.662872 
L 168.48788 209.81825 
L 169.132809 209.98821 
L 169.777737 210.173048 
L 170.422636 210.375466 
L 171.067565 210.588768 
L 171.712464 210.817722 
L 172.357392 211.059258 
L 173.002321 211.316443 
L 173.64722 211.583987 
L 174.292148 211.864412 
L 174.937077 212.15684 
L 175.581976 212.458344 
L 176.226904 212.775241 
L 176.871833 213.103188 
L 177.516732 213.438822 
L 178.16166 213.788833 
L 178.806559 214.14581 
L 179.451488 214.513413 
L 180.096416 214.891168 
L 180.741315 215.276775 
L 181.386244 215.673471 
L 182.031172 216.077445 
L 182.676072 216.487635 
L 183.321 216.90338 
L 183.965929 217.325246 
L 184.610828 217.755855 
L 185.255756 218.192995 
L 185.900655 218.636959 
L 186.545584 219.092055 
L 187.190512 219.550786 
L 187.835411 220.013844 
L 188.48034 220.482674 
L 189.125268 220.958471 
L 189.770167 221.438837 
L 190.415096 221.921657 
L 191.060024 222.409297 
L 191.704923 222.90494 
L 192.349852 223.405176 
L 192.994751 223.907567 
L 193.639679 224.415924 
L 194.284608 224.927908 
L 194.929507 225.446134 
L 195.574435 225.968531 
L 196.219364 226.493326 
L 196.864263 227.021245 
L 197.509191 227.547747 
L 198.15412 228.07746 
L 198.799019 228.608967 
L 199.443947 229.141485 
L 200.088876 229.679008 
L 200.733775 230.218936 
L 201.378703 230.759517 
L 202.023603 231.298941 
L 202.668531 231.839534 
L 203.31346 232.378697 
L 203.958359 232.91568 
L 204.603287 233.452153 
L 205.248216 233.987034 
L 205.893115 234.518564 
L 206.538043 235.047904 
L 207.182972 235.575492 
L 207.827871 236.097357 
L 208.472799 236.61687 
L 209.117698 237.132568 
L 209.762627 237.642163 
L 210.407555 238.149398 
L 211.052454 238.655476 
L 211.697383 239.156115 
L 212.342311 239.648873 
L 212.98721 240.140392 
L 213.632139 240.624415 
L 214.277067 241.100931 
L 214.921966 241.571541 
L 215.566895 242.035418 
L 216.211794 242.493041 
L 216.856722 242.947378 
L 217.501651 243.395937 
L 218.14655 243.839781 
L 218.791478 244.277331 
L 219.436407 244.710858 
L 220.081306 245.134757 
L 220.726234 245.554097 
L 221.371163 245.967681 
L 222.016062 246.376193 
L 222.660991 246.776264 
L 223.30589 247.173037 
L 223.950818 247.563605 
L 224.595747 247.948311 
L 225.240646 248.329907 
L 225.885574 248.703919 
L 226.530503 249.071815 
L 227.175402 249.434896 
L 227.82033 249.79302 
L 228.465259 250.144928 
L 229.110158 250.494008 
L 229.755086 250.834411 
L 230.399985 251.174078 
L 231.044914 251.50651 
L 231.689842 251.831684 
L 232.334741 252.150833 
L 232.97967 252.464883 
L 233.624598 252.773825 
L 234.269497 253.077812 
L 234.914426 253.378445 
L 235.559354 253.673671 
L 236.204253 253.962352 
L 236.849182 254.244936 
L 237.49411 254.523301 
L 238.139009 254.797453 
L 238.783938 255.066283 
L 239.428837 255.329238 
L 240.073766 255.58748 
L 240.718694 255.83916 
L 241.363593 256.085721 
L 242.008522 256.327654 
L 242.65345 256.561514 
L 243.298349 256.791331 
L 243.943278 257.016899 
L 243.943278 264.793193 
z
" style="fill:#1f77b4;opacity:0.4;"/>
   </g>
   <g id="matplotlib.axis_3">
    <g id="xtick_16">
     <g id="line2d_16">
      <g>
       <use style="stroke:#000000;stroke-width:0.8;" x="83.580283" xlink:href="#m4f99b33c99" y="267.58275"/>
      </g>
     </g>
     <g id="text_18">
      <!-- 0.08 -->
      <g transform="translate(72.447471 282.181188)scale(0.1 -0.1)">
       <use xlink:href="#DejaVuSans-48"/>
       <use x="63.623047" xlink:href="#DejaVuSans-46"/>
       <use x="95.410156" xlink:href="#DejaVuSans-48"/>
       <use x="159.033203" xlink:href="#DejaVuSans-56"/>
      </g>
     </g>
    </g>
    <g id="xtick_17">
     <g id="line2d_17">
      <g>
       <use style="stroke:#000000;stroke-width:0.8;" x="162.526734" xlink:href="#m4f99b33c99" y="267.58275"/>
      </g>
     </g>
     <g id="text_19">
      <!-- 0.10 -->
      <g transform="translate(151.393922 282.181188)scale(0.1 -0.1)">
       <use xlink:href="#DejaVuSans-48"/>
       <use x="63.623047" xlink:href="#DejaVuSans-46"/>
       <use x="95.410156" xlink:href="#DejaVuSans-49"/>
       <use x="159.033203" xlink:href="#DejaVuSans-48"/>
      </g>
     </g>
    </g>
    <g id="xtick_18">
     <g id="line2d_18">
      <g>
       <use style="stroke:#000000;stroke-width:0.8;" x="241.473185" xlink:href="#m4f99b33c99" y="267.58275"/>
      </g>
     </g>
     <g id="text_20">
      <!-- 0.12 -->
      <g transform="translate(230.340372 282.181188)scale(0.1 -0.1)">
       <use xlink:href="#DejaVuSans-48"/>
       <use x="63.623047" xlink:href="#DejaVuSans-46"/>
       <use x="95.410156" xlink:href="#DejaVuSans-49"/>
       <use x="159.033203" xlink:href="#DejaVuSans-50"/>
      </g>
     </g>
    </g>
    <g id="xtick_19">
     <g id="line2d_19">
      <g>
       <use style="stroke:#000000;stroke-width:0.8;" x="320.419635" xlink:href="#m4f99b33c99" y="267.58275"/>
      </g>
     </g>
     <g id="text_21">
      <!-- 0.14 -->
      <g transform="translate(309.286823 282.181188)scale(0.1 -0.1)">
       <use xlink:href="#DejaVuSans-48"/>
       <use x="63.623047" xlink:href="#DejaVuSans-46"/>
       <use x="95.410156" xlink:href="#DejaVuSans-49"/>
       <use x="159.033203" xlink:href="#DejaVuSans-52"/>
      </g>
     </g>
    </g>
    <g id="xtick_20">
     <g id="line2d_20">
      <g>
       <use style="stroke:#000000;stroke-width:0.8;" x="399.366086" xlink:href="#m4f99b33c99" y="267.58275"/>
      </g>
     </g>
     <g id="text_22">
      <!-- 0.16 -->
      <g transform="translate(388.233274 282.181188)scale(0.1 -0.1)">
       <use xlink:href="#DejaVuSans-48"/>
       <use x="63.623047" xlink:href="#DejaVuSans-46"/>
       <use x="95.410156" xlink:href="#DejaVuSans-49"/>
       <use x="159.033203" xlink:href="#DejaVuSans-54"/>
      </g>
     </g>
    </g>
    <g id="text_23">
     <!-- sigma -->
     <defs>
      <path d="M 52 44.1875 
Q 55.375 50.25 60.0625 53.125 
Q 64.75 56 71.09375 56 
Q 79.640625 56 84.28125 50.015625 
Q 88.921875 44.046875 88.921875 33.015625 
L 88.921875 0 
L 79.890625 0 
L 79.890625 32.71875 
Q 79.890625 40.578125 77.09375 44.375 
Q 74.3125 48.1875 68.609375 48.1875 
Q 61.625 48.1875 57.5625 43.546875 
Q 53.515625 38.921875 53.515625 30.90625 
L 53.515625 0 
L 44.484375 0 
L 44.484375 32.71875 
Q 44.484375 40.625 41.703125 44.40625 
Q 38.921875 48.1875 33.109375 48.1875 
Q 26.21875 48.1875 22.15625 43.53125 
Q 18.109375 38.875 18.109375 30.90625 
L 18.109375 0 
L 9.078125 0 
L 9.078125 54.6875 
L 18.109375 54.6875 
L 18.109375 46.1875 
Q 21.1875 51.21875 25.484375 53.609375 
Q 29.78125 56 35.6875 56 
Q 41.65625 56 45.828125 52.96875 
Q 50 49.953125 52 44.1875 
z
" id="DejaVuSans-109"/>
     </defs>
     <g transform="translate(215.297656 295.859312)scale(0.1 -0.1)">
      <use xlink:href="#DejaVuSans-115"/>
      <use x="52.099609" xlink:href="#DejaVuSans-105"/>
      <use x="79.882812" xlink:href="#DejaVuSans-103"/>
      <use x="143.359375" xlink:href="#DejaVuSans-109"/>
      <use x="240.771484" xlink:href="#DejaVuSans-97"/>
     </g>
    </g>
   </g>
   <g id="patch_13">
    <path d="M 13.32 267.58275 
L 447.48 267.58275 
" style="fill:none;stroke:#000000;stroke-linecap:square;stroke-linejoin:miter;stroke-width:0.8;"/>
   </g>
  </g>
 </g>
 <defs>
  <clipPath id="p17a41d4bab">
   <rect height="61.37025" width="434.16" x="13.32" y="9.5175"/>
  </clipPath>
  <clipPath id="pd856b12333">
   <rect height="61.37025" width="434.16" x="13.32" y="107.865"/>
  </clipPath>
  <clipPath id="p04924b654f">
   <rect height="61.37025" width="434.16" x="13.32" y="206.2125"/>
  </clipPath>
 </defs>
</svg>
