<svg height="406.1" viewBox="0 0 460.8 304.6" width="614.4" xmlns="http://www.w3.org/2000/svg" xmlns:xlink="http://www.w3.org/1999/xlink"><defs><style>*{stroke-linecap:butt;stroke-linejoin:round}</style></defs><g id="figure_1"><path d="M0 304.6h460.8V0H0z" fill="#fff" id="patch_1"/><g id="axes_1"><path d="M13.3 70.9h434.2V9.5H13.3z" fill="#fff" id="patch_2"/><path clip-path="url(#p17a41d4bab)" d="M33 68.1H100.9l.6-.1H109.2l.6-.1H115l.6-.1H118.2l.6-.1H121.4l.7-.1h1.2l.7-.1H125.3l.6-.1h.7l.6-.1h.7l.6-.1h.6l.7-.1h.6l.7-.1h.6l.7-.1h.6l.7-.2h.6l.7-.1h.6l.6-.1.7-.1.6-.1h.7l.6-.2h.7l.6-.2h.7l.6-.2h.6l.7-.2h.6l.7-.2.6-.1.7-.1.6-.2h.7l.6-.2.6-.1.7-.2.6-.1.7-.2.6-.1.7-.2.6-.1.7-.2.6-.1.7-.2.6-.2.6-.1.7-.2.6-.2.7-.2.6-.2.7-.2.6-.2.7-.2.6-.2.6-.2.7-.2.6-.3.7-.2.6-.3.7-.2.6-.3.7-.2.6-.3.7-.3.6-.3.6-.2.7-.3.6-.3.7-.4.6-.3.7-.3.6-.3.7-.4.6-.3.6-.4.7-.4.6-.3.7-.4.6-.4.7-.4.6-.4.7-.4.6-.4.7-.4.6-.5.6-.4.7-.4.6-.5.7-.4.6-.5.7-.4.6-.5.7-.4.6-.5.6-.4.7-.5.6-.5.7-.5.6-.4.7-.5.6-.5.7-.5.6-.5.6-.4.7-.5.6-.5.7-.5.6-.5.7-.5.6-.5.7-.5.6-.5.7-.5.6-.5.6-.5.7-.5.6-.5.7-.5.6-.5.7-.5.6-.6.7-.5.6-.5.6-.5.7-.5.6-.5.7-.5.6-.6.7-.5.6-.5.7-.5.6-.5.7-.5.6-.5.6-.5.7-.6.6-.5.7-.5.6-.5.7-.5.6-.4.7-.5.6-.5.6-.5.7-.5.6-.4.7-.5.6-.4.7-.5.6-.4.7-.5.6-.4.7-.4.6-.4.6-.4.7-.4.6-.4.7-.3.6-.4.7-.3.6-.3.7-.3.6-.3.6-.3.7-.3.6-.2.7-.3.6-.2.7-.2.6-.2.7-.1.6-.2.6-.1.7-.2h.6l.7-.1.6-.1h4.5l.7.1.6.1.7.1.6.2.7.1.6.2.7.1.6.2.6.2.7.2.6.3.7.2.6.3.7.3.6.2.7.3.6.3.7.4.6.3.6.3.7.4.6.4.7.3.6.4.7.4.6.4.7.4.6.4.6.4.7.5.6.4.7.5.6.4.7.5.6.4.7.5.6.5.7.5.6.5.6.5.7.5.6.5.7.5.6.5.7.6.6.5.7.5.6.6.6.5.7.6.6.5.7.6.6.6.7.5.6.6.7.6.6.5.6.6.7.6.6.5.7.6.6.6.7.5.6.6.7.6.6.5.7.6.6.6.6.5.7.6.6.5.7.6.6.5.7.5.6.5.7.6.6.5.6.5.7.5.6.5.7.5.6.5.7.4.6.5.7.5.6.4.7.5.6.4.6.4.7.5.6.4.7.4.6.4.7.4.6.4.7.3.6.4.6.4.7.3.6.4.7.3.6.4.7.3.6.3.7.3.6.3.7.3.6.3.6.3.7.3.6.3.7.2.6.3.7.3.6.2.7.3.6.2.6.2.7.3.6.2.7.2.6.2.7.3.6.2.7.2.6.2.6.1.7.2.6.2.7.2.6.2.7.1.6.2.7.1.6.2.7.1.6.2.6.1.7.2h.6l.7.2.6.1.7.2h.6l.7.2h.6l.6.2.7.1.6.1h.7l.6.2h.7l.6.2h.7l.6.1h.7l.6.2h.6l.7.1h.6l.7.1.6.1h.7l.6.1h.7l.6.1h.6l.7.1h.6l.7.1H354.9l.6.1h.7l.6.1H358.1l.6.1H360.7l.6.1H363.3l.6.1H367.1l.7.1H371.6l.7.1H380.7l.6.1H414.2l.6.1H427.7z" fill="#1f77b4" opacity=".4" id="patch_3"/><path clip-path="url(#p17a41d4bab)" d="M166.6 68.1v-9.3l.6-.3.6-.2.7-.3.6-.3.7-.4.6-.3.7-.3.6-.3.7-.4.6-.3.6-.4.7-.4.6-.3.7-.4.6-.4.7-.4.6-.4.7-.4.6-.4.7-.4.6-.5.6-.4.7-.4.6-.5.7-.4.6-.5.7-.4.6-.5.7-.4.6-.5.6-.4.7-.5.6-.5.7-.5.6-.4.7-.5.6-.5.7-.5.6-.5.6-.4.7-.5.6-.5.7-.5.6-.5.7-.5.6-.5.7-.5.6-.5.7-.5.6-.5.6-.5.7-.5.6-.5.7-.5.6-.5.7-.5.6-.6.7-.5.6-.5.6-.5.7-.5.6-.5.7-.5.6-.6.7-.5.6-.5.7-.5.6-.5.7-.5.6-.5.6-.5.7-.6.6-.5.7-.5.6-.5.7-.5.6-.4.7-.5.6-.5.6-.5.7-.5.6-.4.7-.5.6-.4.7-.5.6-.4.7-.5.6-.4.7-.4.6-.4.6-.4.7-.4.6-.4.7-.3.6-.4.7-.3.6-.3.7-.3.6-.3.6-.3.7-.3.6-.2.7-.3.6-.2.7-.2.6-.2.7-.1.6-.2.6-.1.7-.2h.6l.7-.1.6-.1h4.5l.7.1.6.1.7.1.6.2.7.1.6.2.7.1.6.2.6.2.7.2.6.3.7.2.6.3.7.3.6.2.7.3.6.3.7.4.6.3.6.3.7.4.6.4.7.3.6.4.7.4.6.4.7.4.6.4.6.4.7.5.6.4.7.5.6.4.7.5.6.4.7.5.6.5.7.5.6.5.6.5.7.5.6.5.7.5.6.5.7.6.6.5.7.5.6.6.6.5.7.6.6.5.7.6.6.6.7.5.6.6.7.6.6.5.6.6.7.6.6.5.7.6.6.6.7.5.6.6.7.6.6.5.7.6.6.6.6.5.7.6.6.5.7.6.6.5.7.5.6.5.7.6.6.5.6.5.7.5.6.5.7.5.6.5.7.4.6.5.7.5.6.4.7.5.6.4.6.4.7.5.6.4.7.4.6.4.7.4.6.4.7.3.6.4.6.4.7.3.6.4.7.3.6.4.7.3.6.3.7.3.6.3.7.3.6.3v9.9z" fill="#1f77b4" opacity=".4" id="patch_4"/><g id="matplotlib.axis_1"><g id="xtick_1"><g id="line2d_1"><defs><path d="M0 0v3.5" id="m4f99b33c99" stroke="#000" stroke-width=".8"/></defs><use x="58.4" xlink:href="#m4f99b33c99" y="70.9" stroke="#000" stroke-width=".8"/></g><g id="text_1"><defs><path d="M31.8 66.4q-7.6 0-11.5-7.5-3.8-7.5-3.8-22.5t3.8-22.5q3.9-7.5 11.5-7.5 7.7 0 11.5 7.5T47 36.4q0 15-3.8 22.5t-11.5 7.5zm0 7.8q12.2 0 18.7-9.7T57 36.4Q57 18 50.5 8.3 44-1.4 31.8-1.4 19.5-1.4 13 8.3q-6.5 9.7-6.5 28 0 18.5 6.5 28.2 6.4 9.7 18.7 9.7z" id="DejaVuSans-48"/><path d="M10.7 12.4H21V0H10.7z" id="DejaVuSans-46"/><path d="M19.2 8.3h34.4V0H7.3v8.3l15.3 15.6q9.7 9.8 12.2 12.6 4.7 5.3 6.6 9 2 3.7 2 7.3 0 5.8-4.2 9.5-4 3.6-10.6 3.6-4.6 0-9.8-1.6-5.1-1.6-11-4.9v10q6 2.4 11.1 3.6 5.2 1.2 9.5 1.2 11.4 0 18-5.7 6.8-5.6 6.8-15 0-4.6-1.7-8.6-1.6-4-6-9.5l-7.9-8.2L19.2 8.3z" id="DejaVuSans-50"/><path d="M33 40.4q-6.6 0-10.5-4.6-3.9-4.5-3.9-12.4T22.5 11Q26.4 6.4 33 6.4q6.7 0 10.5 4.6 4 4.5 4 12.4t-4 12.4q-3.8 4.6-10.5 4.6zm19.6 30.9v-9Q48.9 64.1 45 65q-3.8 1-7.5 1-9.8 0-15-6.7-5-6.6-5.8-19.9 2.9 4.3 7.2 6.5 4.4 2.3 9.6 2.3 11 0 17.4-6.7 6.3-6.6 6.3-18.1 0-11.2-6.6-18Q44-1.4 33-1.4q-12.6 0-19.3 9.7Q7 18 7 36.3 7 53.8 15.2 64q8.2 10.3 22 10.3 3.7 0 7.5-.7 3.8-.8 7.9-2.2z" id="DejaVuSans-54"/></defs><g transform="matrix(.1 0 0 -.1 47.3 85.5)"><use xlink:href="#DejaVuSans-48"/><use x="63.6" xlink:href="#DejaVuSans-46"/><use x="95.4" xlink:href="#DejaVuSans-50"/><use x="159" xlink:href="#DejaVuSans-54"/></g></g></g><g id="xtick_2"><use x="112.2" xlink:href="#m4f99b33c99" y="70.9" stroke="#000" stroke-width=".8" id="line2d_2"/><g id="text_2"><defs><path d="M8.2 73h46.9v-4.3L28.6 0H18.3l25 64.6H8.1z" id="DejaVuSans-55"/></defs><g transform="matrix(.1 0 0 -.1 101.1 85.5)"><use xlink:href="#DejaVuSans-48"/><use x="63.6" xlink:href="#DejaVuSans-46"/><use x="95.4" xlink:href="#DejaVuSans-50"/><use x="159" xlink:href="#DejaVuSans-55"/></g></g></g><g id="xtick_3"><use x="166" xlink:href="#m4f99b33c99" y="70.9" stroke="#000" stroke-width=".8" id="line2d_3"/><g id="text_3"><defs><path d="M31.8 34.6q-7 0-11-3.7-4.1-3.8-4.1-10.4 0-6.6 4-10.3 4-3.8 11-3.8 7.1 0 11.2 3.8 4 3.8 4 10.3 0 6.6-4 10.4-4 3.7-11.1 3.7zm-9.9 4.2q-6.3 1.6-9.9 6Q8.5 49 8.5 55.2q0 8.8 6.2 13.8 6.3 5.1 17 5.1 11 0 17.2-5Q55 64 55 55.2q0-6.2-3.6-10.6-3.5-4.3-9.8-5.9 7.1-1.6 11.1-6.5 4-4.8 4-11.8 0-10.6-6.5-16.3-6.5-5.6-18.5-5.6T13.2 4.2Q6.8 10 6.8 20.5q0 7 4 11.8 4 4.9 11.1 6.5zm-3.6 15.6q0-5.7 3.5-8.8 3.6-3.2 10-3.2 6.3 0 10 3.2 3.5 3.1 3.5 8.8 0 5.7-3.6 8.8-3.6 3.2-10 3.2-6.3 0-9.9-3.2-3.5-3.1-3.5-8.8z" id="DejaVuSans-56"/></defs><g transform="matrix(.1 0 0 -.1 155 85.5)"><use xlink:href="#DejaVuSans-48"/><use x="63.6" xlink:href="#DejaVuSans-46"/><use x="95.4" xlink:href="#DejaVuSans-50"/><use x="159" xlink:href="#DejaVuSans-56"/></g></g></g><g id="xtick_4"><use x="219.9" xlink:href="#m4f99b33c99" y="70.9" stroke="#000" stroke-width=".8" id="line2d_4"/><g id="text_4"><defs><path d="M11 1.5v9q3.7-1.8 7.5-2.7 3.8-1 7.5-1 9.8 0 14.9 6.7 5.1 6.5 5.9 20-2.8-4.3-7.2-6.5-4.4-2.3-9.6-2.3-11 0-17.3 6.6Q6.3 38 6.3 49.4q0 11.2 6.6 18 6.7 6.8 17.7 6.8 12.7 0 19.3-9.7 6.7-9.7 6.7-28.1 0-17.3-8.2-27.5-8.2-10.3-22-10.3-3.7 0-7.5.7t-8 2.2zm19.6 31q6.6 0 10.5 4.5 4 4.5 4 12.4t-4 12.4q-3.9 4.6-10.5 4.6t-10.5-4.6q-3.9-4.5-3.9-12.4T20.1 37q3.9-4.6 10.5-4.6z" id="DejaVuSans-57"/></defs><g transform="matrix(.1 0 0 -.1 208.7 85.5)"><use xlink:href="#DejaVuSans-48"/><use x="63.6" xlink:href="#DejaVuSans-46"/><use x="95.4" xlink:href="#DejaVuSans-50"/><use x="159" xlink:href="#DejaVuSans-57"/></g></g></g><g id="xtick_5"><use x="273.7" xlink:href="#m4f99b33c99" y="70.9" stroke="#000" stroke-width=".8" id="line2d_5"/><g id="text_5"><defs><path d="M40.6 39.3q7-1.5 11-6.3t4-11.8q0-10.8-7.4-16.7-7.4-6-21.1-6-4.6 0-9.4 1-4.9.9-10 2.7v9.5q4-2.4 8.9-3.6Q21.5 7 26.8 7q9.3 0 14.1 3.6 4.9 3.7 4.9 10.7 0 6.4-4.5 10Q36.8 35 28.7 35h-8.5V43h9q7.2 0 11 3 3.9 2.8 3.9 8.3 0 5.6-4 8.6t-11.4 3q-4 0-8.7-.9-4.6-.8-10.2-2.7v8.8q5.6 1.6 10.5 2.3 5 .8 9.3.8 11.2 0 17.8-5 6.5-5.2 6.5-13.9 0-6-3.5-10.2-3.4-4.2-9.8-5.8z" id="DejaVuSans-51"/></defs><g transform="matrix(.1 0 0 -.1 262.5 85.5)"><use xlink:href="#DejaVuSans-48"/><use x="63.6" xlink:href="#DejaVuSans-46"/><use x="95.4" xlink:href="#DejaVuSans-51"/><use x="159" xlink:href="#DejaVuSans-48"/></g></g></g><g id="xtick_6"><use x="327.5" xlink:href="#m4f99b33c99" y="70.9" stroke="#000" stroke-width=".8" id="line2d_6"/><g id="text_6"><defs><path d="M12.4 8.3h16.1v55.6L11 60.4v9l17.4 3.5h9.9V8.3h16V0H12.5z" id="DejaVuSans-49"/></defs><g transform="matrix(.1 0 0 -.1 316.3 85.5)"><use xlink:href="#DejaVuSans-48"/><use x="63.6" xlink:href="#DejaVuSans-46"/><use x="95.4" xlink:href="#DejaVuSans-51"/><use x="159" xlink:href="#DejaVuSans-49"/></g></g></g><g id="xtick_7"><use x="381.3" xlink:href="#m4f99b33c99" y="70.9" stroke="#000" stroke-width=".8" id="line2d_7"/><g transform="matrix(.1 0 0 -.1 370.1 85.5)" id="text_7"><use xlink:href="#DejaVuSans-48"/><use x="63.6" xlink:href="#DejaVuSans-46"/><use x="95.4" xlink:href="#DejaVuSans-51"/><use x="159" xlink:href="#DejaVuSans-50"/></g></g><g id="xtick_8"><use x="435.1" xlink:href="#m4f99b33c99" y="70.9" stroke="#000" stroke-width=".8" id="line2d_8"/><g transform="matrix(.1 0 0 -.1 424 85.5)" id="text_8"><use xlink:href="#DejaVuSans-48"/><use x="63.6" xlink:href="#DejaVuSans-46"/><use x="95.4" xlink:href="#DejaVuSans-51"/><use x="159" xlink:href="#DejaVuSans-51"/></g></g><g id="text_9"><defs><path d="M4.2 54.7h9L24.4 12l11.2 42.7h10.6L57.4 12l11.2 42.7h9L63.3 0H52.7L40.9 44.8 29.1 0H18.5z" id="DejaVuSans-119"/><path d="M56.2 29.6v-4.4H14.9q.6-9.3 5.6-14.1 5-4.9 14-4.9 5 0 10 1.3 4.8 1.2 9.6 3.8V2.8q-4.8-2-10-3.1-5-1.1-10.2-1.1-13.1 0-20.7 7.6-7.7 7.6-7.7 20.6 0 13.4 7.3 21.3Q20 56 32.3 56q11 0 17.5-7.1 6.4-7.1 6.4-19.3zm-9 2.6q0 7.4-4.1 11.8-4 4.4-10.7 4.4-7.5 0-12-4.3-4.5-4.2-5.2-12z" id="DejaVuSans-101"/><path d="M9.4 54.7h9V0h-9zm0 21.3h9V64.6h-9z" id="DejaVuSans-105"/><path d="M45.4 28q0 9.8-4 15.1-4 5.4-11.3 5.4-7.2 0-11.3-5.4-4-5.4-4-15.1t4-15.1q4-5.4 11.3-5.4 7.3 0 11.3 5.4 4 5.4 4 15zm9-21.2q0-14-6.2-20.8-6.2-6.8-19-6.8-4.7 0-9 .7-4.1.7-8 2.2v8.7q3.9-2.1 7.7-3.1 3.9-1 7.9-1 8.8 0 13.2 4.5 4.4 4.6 4.4 14v4.4q-2.8-4.8-7.1-7.2Q33.9 0 27.9 0q-10 0-16.2 7.7Q5.5 15.3 5.5 28q0 12.7 6.2 20.3Q17.8 56 27.9 56q6 0 10.4-2.4 4.3-2.4 7.1-7.2v8.3h9z" id="DejaVuSans-103"/><path d="M54.9 33V0h-9v32.7q0 7.8-3 11.6-3 3.9-9.1 3.9-7.3 0-11.5-4.7Q18.1 39 18.1 31V0h-9v76h9V46.2q3.2 5 7.6 7.4Q30.1 56 35.8 56q9.4 0 14.2-5.8Q55 44.3 55 33z" id="DejaVuSans-104"/><path d="M18.3 70.2V54.7h18.5v-7H18.3V18q0-6.7 1.8-8.6 1.9-1.9 7.5-1.9h9.2V0h-9.2Q17.2 0 13.2 3.9T9.2 18v29.7H2.8v7h6.6v15.5z" id="DejaVuSans-116"/></defs><g transform="matrix(.1 0 0 -.1 213.5 99.2)"><use xlink:href="#DejaVuSans-119"/><use x="81.8" xlink:href="#DejaVuSans-101"/><use x="143.3" xlink:href="#DejaVuSans-105"/><use x="171.1" xlink:href="#DejaVuSans-103"/><use x="234.6" xlink:href="#DejaVuSans-104"/><use x="297.9" xlink:href="#DejaVuSans-116"/></g></g></g><path d="M13.3 70.9h434.2" fill="none" stroke="#000" stroke-linecap="square" stroke-width=".8" id="patch_5"/></g><g id="axes_2"><path d="M13.3 169.2h434.2V108H13.3z" fill="#fff" id="patch_6"/><path clip-path="url(#pd856b12333)" d="M33 166.4H91.8l.7-.1H96.9l.6-.1H100.1l.7-.1h1.9l.7-.1h1.9l.6-.1H107.2l.7-.1H109.2l.6-.1H111.1l.6-.1h.7l.6-.1h.7l.6-.1H115.6l.7-.1h.6l.6-.1h.7l.6-.1h.7l.6-.1.7-.1h.6l.7-.1.6-.1h.6l.7-.1.6-.1h.7l.6-.2h.7l.6-.1h.7l.6-.2h.6l.7-.2h.6l.7-.2h.6l.7-.2h.6l.7-.2.6-.1.7-.1.6-.2.6-.1.7-.1.6-.2.7-.1.6-.2.7-.1.6-.2.7-.2.6-.1.6-.2.7-.2.6-.2.7-.2.6-.2.7-.2.6-.2.7-.2.6-.3.7-.2.6-.2.6-.3.7-.2.6-.3.7-.3.6-.2.7-.3.6-.3.7-.3.6-.3.6-.3.7-.3.6-.3.7-.3.6-.3.7-.3.6-.3.7-.4.6-.3.6-.3.7-.4.6-.3.7-.4.6-.3.7-.4.6-.4.7-.3.6-.4.7-.4.6-.4.6-.4.7-.4.6-.4.7-.4.6-.4.7-.5.6-.4.7-.4.6-.5.6-.4.7-.5.6-.4.7-.5.6-.5.7-.5.6-.5.7-.5.6-.5.7-.5.6-.5.6-.5.7-.5.6-.5.7-.5.6-.6.7-.5.6-.5.7-.6.6-.5.6-.5.7-.6.6-.5.7-.6.6-.5.7-.5.6-.6.7-.5.6-.6.7-.5.6-.5.6-.6.7-.5.6-.5.7-.5.6-.5.7-.5.6-.5.7-.5.6-.5.6-.5.7-.5.6-.5.7-.4.6-.5.7-.5.6-.4.7-.5.6-.4.6-.4.7-.4.6-.5.7-.4.6-.4.7-.4.6-.4.7-.3.6-.4.7-.4.6-.3.6-.4.7-.3.6-.3.7-.4.6-.3.7-.3.6-.3.7-.2.6-.3.6-.3.7-.2.6-.3.7-.2.6-.2.7-.2.6-.2.7-.2.6-.2.7-.2.6-.1.6-.2.7-.1.6-.1.7-.2h.6l.7-.2h.6l.7-.2h.6l.6-.1h.7l.6-.1H233.6l.7-.1h5.1l.7.1h.6l.7.1.6.1.7.1.6.1.6.1.7.1.6.1.7.2.6.1.7.2.6.2.7.2.6.2.6.2.7.2.6.2.7.3.6.2.7.3.6.3.7.3.6.3.7.3.6.4.6.3.7.3.6.4.7.4.6.4.7.3.6.4.7.5.6.4.6.4.7.4.6.5.7.4.6.4.7.5.6.4.7.5.6.5.6.4.7.5.6.5.7.4.6.5.7.5.6.5.7.4.6.5.7.5.6.5.6.4.7.5.6.5.7.5.6.5.7.4.6.5.7.5.6.5.6.5.7.4.6.5.7.5.6.5.7.4.6.5.7.5.6.5.7.5.6.4.6.5.7.5.6.5.7.5.6.4.7.5.6.5.7.4.6.5.6.5.7.4.6.5.7.5.6.4.7.5.6.4.7.5.6.4.7.5.6.4.6.4.7.4.6.5.7.4.6.4.7.4.6.4.7.4.6.4.6.3.7.4.6.4.7.3.6.4.7.3.6.4.7.3.6.3.6.4.7.3.6.3.7.3.6.3.7.3.6.3.7.3.6.2.7.3.6.3.6.2.7.3.6.2.7.3.6.2.7.3.6.2.7.2.6.2.6.3.7.2.6.2.7.2.6.2.7.2.6.2.7.1.6.2.7.2.6.2.6.1.7.2.6.2.7.1.6.2.7.1.6.2.7.1.6.2h.6l.7.2.6.1.7.2h.6l.7.2.6.1.7.1.6.1.6.1.7.1.6.1h.7l.6.2h.7l.6.1.7.1h.6l.7.2h.6l.6.1h.7l.6.1h.7l.6.1.7.1h.6l.7.1h.6l.6.1H358.7l.7.1h.6l.7.1H362l.6.1H364l.6.1H365.8l.7.1h1.9l.7.1h2.5l.7.1H376.2l.6.1H382l.6.1H391l.6.1H404l.6.1H427.7z" fill="#1f77b4" opacity=".4" id="patch_7"/><path clip-path="url(#pd856b12333)" d="M156.2 166.4v-10.6l.7-.3.6-.3.7-.3.6-.3.7-.4.6-.3.6-.3.7-.4.6-.3.7-.4.6-.3.7-.4.6-.4.7-.3.6-.4.7-.4.6-.4.6-.4.7-.4.6-.4.7-.4.6-.4.7-.5.6-.4.7-.4.6-.5.6-.4.7-.5.6-.4.7-.5.6-.5.7-.5.6-.5.7-.5.6-.5.7-.5.6-.5.6-.5.7-.5.6-.5.7-.5.6-.6.7-.5.6-.5.7-.6.6-.5.6-.5.7-.6.6-.5.7-.6.6-.5.7-.5.6-.6.7-.5.6-.6.7-.5.6-.5.6-.6.7-.5.6-.5.7-.5.6-.5.7-.5.6-.5.7-.5.6-.5.6-.5.7-.5.6-.5.7-.4.6-.5.7-.5.6-.4.7-.5.6-.4.6-.4.7-.4.6-.5.7-.4.6-.4.7-.4.6-.4.7-.3.6-.4.7-.4.6-.3.6-.4.7-.3.6-.3.7-.4.6-.3.7-.3.6-.3.7-.2.6-.3.6-.3.7-.2.6-.3.7-.2.6-.2.7-.2.6-.2.7-.2.6-.2.7-.2.6-.1.6-.2.7-.1.6-.1.7-.2h.6l.7-.2h.6l.7-.2h.6l.6-.1h.7l.6-.1H233.6l.7-.1h5.1l.7.1h.6l.7.1.6.1.7.1.6.1.6.1.7.1.6.1.7.2.6.1.7.2.6.2.7.2.6.2.6.2.7.2.6.2.7.3.6.2.7.3.6.3.7.3.6.3.7.3.6.4.6.3.7.3.6.4.7.4.6.4.7.3.6.4.7.5.6.4.6.4.7.4.6.5.7.4.6.4.7.5.6.4.7.5.6.5.6.4.7.5.6.5.7.4.6.5.7.5.6.5.7.4.6.5.7.5.6.5.6.4.7.5.6.5.7.5.6.5.7.4.6.5.7.5.6.5.6.5.7.4.6.5.7.5.6.5.7.4.6.5.7.5.6.5.7.5.6.4.6.5.7.5.6.5.7.5.6.4.7.5.6.5.7.4.6.5.6.5.7.4.6.5.7.5.6.4.7.5.6.4.7.5.6.4.7.5.6.4.6.4.7.4.6.5.7.4.6.4.7.4.6.4.7.4.6.4.6.3.7.4.6.4.7.3.6.4.7.3.6.4.7.3.6.3.6.4.7.3.6.3.7.3.6.3.7.3.6.3.7.3.6.2v10z" fill="#1f77b4" opacity=".4" id="patch_8"/><g id="matplotlib.axis_2"><g id="xtick_9"><use x="62.5" xlink:href="#m4f99b33c99" y="169.2" stroke="#000" stroke-width=".8" id="line2d_9"/><g id="text_10"><defs><path d="M37.8 64.3l-25-39h25zM35.2 73h12.4V25.4H58v-8.2H47.6V0h-9.8v17.2h-33v9.5z" id="DejaVuSans-52"/></defs><g transform="matrix(.1 0 0 -.1 51.3 183.8)"><use xlink:href="#DejaVuSans-48"/><use x="63.6" xlink:href="#DejaVuSans-46"/><use x="95.4" xlink:href="#DejaVuSans-52"/><use x="159" xlink:href="#DejaVuSans-52"/></g></g></g><g id="xtick_10"><use x="120" xlink:href="#m4f99b33c99" y="169.2" stroke="#000" stroke-width=".8" id="line2d_10"/><g transform="matrix(.1 0 0 -.1 108.8 183.8)" id="text_11"><use xlink:href="#DejaVuSans-48"/><use x="63.6" xlink:href="#DejaVuSans-46"/><use x="95.4" xlink:href="#DejaVuSans-52"/><use x="159" xlink:href="#DejaVuSans-54"/></g></g><g id="xtick_11"><use x="177.5" xlink:href="#m4f99b33c99" y="169.2" stroke="#000" stroke-width=".8" id="line2d_11"/><g transform="matrix(.1 0 0 -.1 166.3 183.8)" id="text_12"><use xlink:href="#DejaVuSans-48"/><use x="63.6" xlink:href="#DejaVuSans-46"/><use x="95.4" xlink:href="#DejaVuSans-52"/><use x="159" xlink:href="#DejaVuSans-56"/></g></g><g id="xtick_12"><use x="235" xlink:href="#m4f99b33c99" y="169.2" stroke="#000" stroke-width=".8" id="line2d_12"/><g id="text_13"><defs><path d="M10.8 73h38.7v-8.4H19.8V46.7q2.2.8 4.3 1.1 2.2.4 4.3.4 12.2 0 19.4-6.7 7-6.7 7-18.1 0-11.8-7.2-18.3-7.4-6.5-20.7-6.5-4.6 0-9.4.8-4.7.7-9.8 2.3v10q4.4-2.5 9.1-3.6 4.7-1.2 9.9-1.2 8.5 0 13.4 4.4 5 4.5 5 12 0 7.7-5 12.1Q35 40 26.7 40q-4 0-7.9-.9-4-.9-8-2.7z" id="DejaVuSans-53"/></defs><g transform="matrix(.1 0 0 -.1 223.9 183.8)"><use xlink:href="#DejaVuSans-48"/><use x="63.6" xlink:href="#DejaVuSans-46"/><use x="95.4" xlink:href="#DejaVuSans-53"/><use x="159" xlink:href="#DejaVuSans-48"/></g></g></g><g id="xtick_13"><use x="292.5" xlink:href="#m4f99b33c99" y="169.2" stroke="#000" stroke-width=".8" id="line2d_13"/><g transform="matrix(.1 0 0 -.1 281.4 183.8)" id="text_14"><use xlink:href="#DejaVuSans-48"/><use x="63.6" xlink:href="#DejaVuSans-46"/><use x="95.4" xlink:href="#DejaVuSans-53"/><use x="159" xlink:href="#DejaVuSans-50"/></g></g><g id="xtick_14"><use x="350" xlink:href="#m4f99b33c99" y="169.2" stroke="#000" stroke-width=".8" id="line2d_14"/><g transform="matrix(.1 0 0 -.1 338.9 183.8)" id="text_15"><use xlink:href="#DejaVuSans-48"/><use x="63.6" xlink:href="#DejaVuSans-46"/><use x="95.4" xlink:href="#DejaVuSans-53"/><use x="159" xlink:href="#DejaVuSans-52"/></g></g><g id="xtick_15"><use x="407.5" xlink:href="#m4f99b33c99" y="169.2" stroke="#000" stroke-width=".8" id="line2d_15"/><g transform="matrix(.1 0 0 -.1 396.4 183.8)" id="text_16"><use xlink:href="#DejaVuSans-48"/><use x="63.6" xlink:href="#DejaVuSans-46"/><use x="95.4" xlink:href="#DejaVuSans-53"/><use x="159" xlink:href="#DejaVuSans-54"/></g></g><g id="text_17"><defs><path d="M48.7 27.3q0 9.9-4 15.5-4.2 5.7-11.3 5.7-7.1 0-11.2-5.7-4-5.6-4-15.5 0-10 4-15.6t11.2-5.6q7.1 0 11.2 5.7 4 5.6 4 15.5zM18 46.3q2.9 5 7.2 7.3Q29.6 56 35.6 56q10 0 16.2-8Q58 40.3 58 27.4q0-12.9-6.2-20.8-6.2-8-16.2-8-6 0-10.3 2.5Q21 3.3 18 8.2V0h-9v76h9z" id="DejaVuSans-98"/><path d="M34.3 27.5q-11 0-15.1-2.5-4.2-2.5-4.2-8.5 0-4.8 3.1-7.6 3.2-2.8 8.6-2.8 7.5 0 12 5.3t4.5 14v2zm17.9 3.7V0h-9v8.3q-3-5-7.7-7.3Q31-1.4 24.3-1.4 16-1.4 11 3.3 6 8 6 15.9q0 9.2 6.2 14 6.2 4.6 18.4 4.6h12.6v1q0 6.1-4 9.5-4.1 3.4-11.5 3.4-4.7 0-9.2-1.1-4.4-1.2-8.5-3.4v8.3q5 2 9.6 2.8 4.6 1 9 1 11.9 0 17.7-6.2 5.9-6.1 5.9-18.6z" id="DejaVuSans-97"/><path d="M44.3 53v-8.4q-3.8 2-8 2.9-4 1-8.4 1-6.7 0-10-2-3.4-2.1-3.4-6.2 0-3.1 2.4-5 2.4-1.7 9.6-3.3l3-.7q9.7-2 13.7-5.8 4-3.7 4-10.4 0-7.6-6-12-6-4.5-16.6-4.5-4.4 0-9.1.8-4.8.9-10 2.6v9.3q5-2.6 9.7-4 4.9-1.2 9.6-1.2 6.4 0 9.8 2.2 3.4 2.2 3.4 6.1 0 3.7-2.5 5.6-2.4 2-10.8 3.8l-3.1.7q-8.4 1.8-12 5.4-3.8 3.6-3.8 10 0 7.7 5.5 11.9Q16.7 56 26.8 56q5 0 9.4-.7 4.4-.8 8-2.2z" id="DejaVuSans-115"/></defs><g transform="matrix(.1 0 0 -.1 220.2 197.5)"><use xlink:href="#DejaVuSans-98"/><use x="63.5" xlink:href="#DejaVuSans-105"/><use x="91.3" xlink:href="#DejaVuSans-97"/><use x="152.5" xlink:href="#DejaVuSans-115"/></g></g></g><path d="M13.3 169.2h434.2" fill="none" stroke="#000" stroke-linecap="square" stroke-width=".8" id="patch_9"/></g><g id="axes_3"><path d="M13.3 267.6h434.2v-61.4H13.3z" fill="#fff" id="patch_10"/><path clip-path="url(#p04924b654f)" d="M33 264.8H54.4l.7-.1H59.5l.6-.1H62.7l.7-.1h1.9l.6-.1H67.2l.7-.1h.6l1.3-.1h.7l.6-.1h.7l.6-.1h.6l.7-.1.6-.1h.7l.6-.2h.7l.6-.1.7-.1.6-.1.6-.1.7-.1.6-.1.7-.2h.6l.7-.2.6-.2.7-.1.6-.2.6-.1.7-.2.6-.2.7-.2.6-.2.7-.2.6-.2.7-.2.6-.2.7-.3.6-.2.6-.3.7-.2.6-.3.7-.3.6-.3.7-.3.6-.3.7-.3.6-.4.6-.3.7-.4.6-.4.7-.3.6-.4.7-.4.6-.4.7-.5.6-.4.7-.4.6-.5.6-.5.7-.4.6-.5.7-.5.6-.5.7-.5.6-.5.7-.6.6-.5.6-.6.7-.5.6-.6.7-.6.6-.6.7-.5.6-.7.7-.6.6-.6.6-.6.7-.6.6-.7.7-.6.6-.7.7-.6.6-.7.7-.6.6-.7.7-.6.6-.7.6-.7.7-.6.6-.7.7-.7.6-.6.7-.7.6-.7.7-.6.6-.7.6-.7.7-.6.6-.7.7-.6.6-.7.7-.6.6-.7.7-.6.6-.6.7-.6.6-.6.6-.6.7-.6.6-.6.7-.6.6-.5.7-.6.6-.5.7-.6.6-.5.6-.5.7-.5.6-.5.7-.5.6-.4.7-.5.6-.4.7-.4.6-.4.7-.4.6-.4.6-.3.7-.4.6-.3.7-.3.6-.3.7-.3.6-.2.7-.3.6-.2.6-.2.7-.2.6-.2.7-.1.6-.1.7-.2h.6l.7-.1.6-.1H161.4l.6-.1H164l.6.1.7.1h.6l.7.2.6.1.6.2.7.1.6.2.7.2.6.2.7.2.6.2.7.3.6.2.6.3.7.3.6.3.7.3.6.3.7.3.6.3.7.4.6.3.7.4.6.4.6.4.7.4.6.4.7.4.6.4.7.4.6.5.7.4.6.4.6.5.7.5.6.4.7.5.6.5.7.4.6.5.7.5.6.5.6.5.7.5.6.5.7.5.6.5.7.6.6.5.7.5.6.5.7.6.6.5.6.5.7.6.6.5.7.6.6.5.7.5.6.6.7.5.6.6.6.5.7.5.6.5.7.6.6.5.7.5.6.5.7.5.6.5.7.6.6.5.6.4.7.5.6.5.7.5.6.5.7.4.6.5.7.4.6.5.6.4.7.5.6.4.7.4.6.5.7.4.6.4.7.4.6.4.7.4.6.3.6.4.7.4.6.4.7.3.6.4.7.3.6.4.7.3.6.4.6.3.7.3.6.4.7.3.6.3.7.3.6.3.7.3.6.3.6.2.7.3.6.3.7.3.6.2.7.3.6.2.7.3.6.2.7.3.6.2.6.2.7.2.6.3.7.2.6.2.7.2.6.2.7.2.6.1.6.2.7.2.6.2.7.1.6.2.7.2.6.1.7.2.6.1.7.1.6.2.6.1.7.2h.6l.7.2.6.1.7.2h.6l.7.2h.6l.6.2.7.1.6.1.7.1.6.1h.7l.6.2h.7l.6.2h.7l.6.1h.6l.7.2h.6l.7.1h.6l.7.1h.6l.7.1.6.1h.6l.7.1h.6l.7.1h.6l.7.1H280l.6.1H282l.6.1H284l.7.1H285.9l.6.1h1.9l.7.1h1.9l.7.1h1.9l.6.1H296.8l.7.1H300l.6.1H303.9l.7.1h5.1l.7.1H318.8l.6.1H334.9l.6.1H427.7z" fill="#1f77b4" opacity=".4" id="patch_11"/><path clip-path="url(#p04924b654f)" d="M106 264.8v-13.4l.6-.5.6-.5.7-.5.6-.5.7-.6.6-.5.6-.6.7-.5.6-.6.7-.6.6-.6.7-.5.6-.7.7-.6.6-.6.6-.6.7-.6.6-.7.7-.6.6-.7.7-.6.6-.7.7-.6.6-.7.7-.6.6-.7.6-.7.7-.6.6-.7.7-.7.6-.6.7-.7.6-.7.7-.6.6-.7.6-.7.7-.6.6-.7.7-.6.6-.7.7-.6.6-.7.7-.6.6-.6.7-.6.6-.6.6-.6.7-.6.6-.6.7-.6.6-.5.7-.6.6-.5.7-.6.6-.5.6-.5.7-.5.6-.5.7-.5.6-.4.7-.5.6-.4.7-.4.6-.4.7-.4.6-.4.6-.3.7-.4.6-.3.7-.3.6-.3.7-.3.6-.2.7-.3.6-.2.6-.2.7-.2.6-.2.7-.1.6-.1.7-.2h.6l.7-.1.6-.1H161.4l.6-.1H164l.6.1.7.1h.6l.7.2.6.1.6.2.7.1.6.2.7.2.6.2.7.2.6.2.7.3.6.2.6.3.7.3.6.3.7.3.6.3.7.3.6.3.7.4.6.3.7.4.6.4.6.4.7.4.6.4.7.4.6.4.7.4.6.5.7.4.6.4.6.5.7.5.6.4.7.5.6.5.7.4.6.5.7.5.6.5.6.5.7.5.6.5.7.5.6.5.7.6.6.5.7.5.6.5.7.6.6.5.6.5.7.6.6.5.7.6.6.5.7.5.6.6.7.5.6.6.6.5.7.5.6.5.7.6.6.5.7.5.6.5.7.5.6.5.7.6.6.5.6.4.7.5.6.5.7.5.6.5.7.4.6.5.7.4.6.5.6.4.7.5.6.4.7.4.6.5.7.4.6.4.7.4.6.4.7.4.6.3.6.4.7.4.6.4.7.3.6.4.7.3.6.4.7.3.6.4.6.3.7.3.6.4.7.3.6.3.7.3.6.3.7.3.6.3.6.2.7.3.6.3.7.3.6.2.7.3.6.2.7.3.6.2.7.3.6.2.6.2v7.8z" fill="#1f77b4" opacity=".4" id="patch_12"/><g id="matplotlib.axis_3"><g id="xtick_16"><use x="83.6" xlink:href="#m4f99b33c99" y="267.6" stroke="#000" stroke-width=".8" id="line2d_16"/><g transform="matrix(.1 0 0 -.1 72.4 282.2)" id="text_18"><use xlink:href="#DejaVuSans-48"/><use x="63.6" xlink:href="#DejaVuSans-46"/><use x="95.4" xlink:href="#DejaVuSans-48"/><use x="159" xlink:href="#DejaVuSans-56"/></g></g><g id="xtick_17"><use x="162.5" xlink:href="#m4f99b33c99" y="267.6" stroke="#000" stroke-width=".8" id="line2d_17"/><g transform="matrix(.1 0 0 -.1 151.4 282.2)" id="text_19"><use xlink:href="#DejaVuSans-48"/><use x="63.6" xlink:href="#DejaVuSans-46"/><use x="95.4" xlink:href="#DejaVuSans-49"/><use x="159" xlink:href="#DejaVuSans-48"/></g></g><g id="xtick_18"><use x="241.5" xlink:href="#m4f99b33c99" y="267.6" stroke="#000" stroke-width=".8" id="line2d_18"/><g transform="matrix(.1 0 0 -.1 230.3 282.2)" id="text_20"><use xlink:href="#DejaVuSans-48"/><use x="63.6" xlink:href="#DejaVuSans-46"/><use x="95.4" xlink:href="#DejaVuSans-49"/><use x="159" xlink:href="#DejaVuSans-50"/></g></g><g id="xtick_19"><use x="320.4" xlink:href="#m4f99b33c99" y="267.6" stroke="#000" stroke-width=".8" id="line2d_19"/><g transform="matrix(.1 0 0 -.1 309.3 282.2)" id="text_21"><use xlink:href="#DejaVuSans-48"/><use x="63.6" xlink:href="#DejaVuSans-46"/><use x="95.4" xlink:href="#DejaVuSans-49"/><use x="159" xlink:href="#DejaVuSans-52"/></g></g><g id="xtick_20"><use x="399.4" xlink:href="#m4f99b33c99" y="267.6" stroke="#000" stroke-width=".8" id="line2d_20"/><g transform="matrix(.1 0 0 -.1 388.2 282.2)" id="text_22"><use xlink:href="#DejaVuSans-48"/><use x="63.6" xlink:href="#DejaVuSans-46"/><use x="95.4" xlink:href="#DejaVuSans-49"/><use x="159" xlink:href="#DejaVuSans-54"/></g></g><g id="text_23"><defs><path d="M52 44.2q3.4 6 8 9Q64.9 56 71 56q8.6 0 13.3-6 4.6-6 4.6-17V0h-9v32.7q0 7.9-2.8 11.7-2.8 3.8-8.5 3.8-7 0-11-4.7-4-4.6-4-12.6V0h-9.1v32.7q0 8-2.8 11.7-2.8 3.8-8.6 3.8-6.9 0-11-4.7-4-4.6-4-12.6V0h-9v54.7h9v-8.5q3 5 7.4 7.4Q29.8 56 35.7 56q6 0 10.1-3 4.2-3 6.2-8.8z" id="DejaVuSans-109"/></defs><g transform="matrix(.1 0 0 -.1 215.3 295.9)"><use xlink:href="#DejaVuSans-115"/><use x="52.1" xlink:href="#DejaVuSans-105"/><use x="79.9" xlink:href="#DejaVuSans-103"/><use x="143.4" xlink:href="#DejaVuSans-109"/><use x="240.8" xlink:href="#DejaVuSans-97"/></g></g></g><path d="M13.3 267.6h434.2" fill="none" stroke="#000" stroke-linecap="square" stroke-width=".8" id="patch_13"/></g></g><defs><clipPath id="p17a41d4bab"><path d="M13.3 9.5h434.2v61.4H13.3z"/></clipPath><clipPath id="pd856b12333"><path d="M13.3 107.9h434.2v61.4H13.3z"/></clipPath><clipPath id="p04924b654f"><path d="M13.3 206.2h434.2v61.4H13.3z"/></clipPath></defs></svg>