<?xml version="1.0" encoding="utf-8" standalone="no"?>
<!DOCTYPE svg PUBLIC "-//W3C//DTD SVG 1.1//EN"
  "http://www.w3.org/Graphics/SVG/1.1/DTD/svg11.dtd">
<!-- Created with matplotlib (https://matplotlib.org/) -->
<svg height="185.76pt" version="1.1" viewBox="0 0 460.8 185.76" width="460.8pt" xmlns="http://www.w3.org/2000/svg" xmlns:xlink="http://www.w3.org/1999/xlink">
 <defs>
  <style type="text/css">
*{stroke-linecap:butt;stroke-linejoin:round;}
  </style>
 </defs>
 <g id="figure_1">
  <g id="patch_1">
   <path d="M 0 185.76 
L 460.8 185.76 
L 460.8 0 
L 0 0 
z
" style="fill:#ffffff;"/>
  </g>
  <g id="axes_1">
   <g id="patch_2">
    <path d="M 15.757609 149.050286 
L 447.48 149.050286 
L 447.48 5.805 
L 15.757609 5.805 
z
" style="fill:#ffffff;"/>
   </g>
   <g id="patch_3">
    <path clip-path="url(#p89f79e75d9)" d="M 35.381354 142.539136 
L 36.022652 142.538615 
L 36.66395 142.538524 
L 37.305248 142.538419 
L 37.946546 142.538299 
L 38.587844 142.538162 
L 39.229142 142.538005 
L 39.87044 142.537827 
L 40.511738 142.537625 
L 41.153036 142.537398 
L 41.794334 142.537142 
L 42.435632 142.536855 
L 43.07693 142.536535 
L 43.718228 142.536178 
L 44.359526 142.535782 
L 45.000824 142.535344 
L 45.642122 142.534861 
L 46.28342 142.534331 
L 46.924718 142.533229 
L 47.566016 142.532506 
L 48.207314 142.531714 
L 48.848612 142.529807 
L 49.48991 142.527642 
L 50.131208 142.526233 
L 50.772506 142.524161 
L 51.413804 142.52237 
L 52.055102 142.520405 
L 52.696401 142.518255 
L 53.337699 142.515907 
L 53.978997 142.51335 
L 54.620295 142.51005 
L 55.261593 142.506426 
L 55.902891 142.502452 
L 56.544189 142.498102 
L 57.185487 142.493869 
L 57.826785 142.489293 
L 58.468083 142.484358 
L 59.109381 142.479047 
L 59.750679 142.472821 
L 60.391977 142.46662 
L 61.033275 142.459984 
L 61.674573 142.452378 
L 62.315871 142.444219 
L 62.957169 142.436005 
L 63.598467 142.427281 
L 64.239765 142.418036 
L 64.881063 142.40722 
L 65.522361 142.396733 
L 66.163659 142.385163 
L 66.804957 142.37346 
L 67.446255 142.361182 
L 68.087553 142.348332 
L 68.728851 142.334918 
L 69.370149 142.320431 
L 70.011447 142.305839 
L 70.652745 142.289154 
L 71.935341 142.272213 
L 72.576639 142.255095 
L 73.217937 142.23737 
L 73.859242 142.219576 
L 74.50054 142.20078 
L 75.141838 142.181967 
L 75.783136 142.161167 
L 76.424434 142.140756 
L 77.065732 142.119352 
L 77.707036 142.098458 
L 78.348334 142.075663 
L 78.989632 142.052819 
L 79.63093 142.029499 
L 80.272228 142.005191 
L 80.913526 141.979811 
L 81.55483 141.954823 
L 82.196128 141.929338 
L 82.837426 141.902302 
L 83.478724 141.875082 
L 84.120022 141.848764 
L 84.76132 141.820446 
L 85.402625 141.790364 
L 86.043923 141.759324 
L 86.685221 141.728277 
L 87.326519 141.696258 
L 87.967817 141.661612 
L 88.609115 141.628144 
L 89.250419 141.592512 
L 89.891717 141.555488 
L 90.533015 141.517473 
L 91.174313 141.478433 
L 91.815611 141.435733 
L 92.456909 141.390992 
L 93.098213 141.342486 
L 93.739511 141.292391 
L 94.380809 141.241203 
L 95.022107 141.185361 
L 95.663405 141.12853 
L 96.304704 141.06723 
L 96.946008 141.002092 
L 97.587306 140.934941 
L 98.228604 140.863259 
L 98.869902 140.784645 
L 99.5112 140.706225 
L 100.152498 140.622855 
L 100.793802 140.535295 
L 101.4351 140.441869 
L 102.076398 140.344813 
L 102.717696 140.242619 
L 103.358994 140.136152 
L 104.000292 140.024898 
L 104.641596 139.908277 
L 105.282895 139.786679 
L 105.924193 139.660064 
L 106.565491 139.527887 
L 107.206789 139.389007 
L 107.848087 139.244708 
L 108.489391 139.095921 
L 109.130689 138.941236 
L 109.771987 138.779603 
L 110.413285 138.613361 
L 111.054583 138.443182 
L 111.695881 138.265687 
L 112.337179 138.085251 
L 112.978483 137.898677 
L 113.619781 137.707936 
L 114.261079 137.510655 
L 114.902377 137.308729 
L 115.543675 137.100216 
L 116.184973 136.885433 
L 116.826278 136.662669 
L 117.467576 136.434083 
L 118.108874 136.201699 
L 118.750172 135.960067 
L 119.39147 135.715222 
L 120.032768 135.46653 
L 120.674072 135.209145 
L 121.31537 134.947554 
L 121.956668 134.679765 
L 122.597966 134.40847 
L 123.239267 134.124732 
L 123.880565 133.8357 
L 124.521863 133.542058 
L 125.163164 133.241403 
L 125.804462 132.938224 
L 126.44576 132.622693 
L 127.087062 132.300926 
L 127.72836 131.971819 
L 128.369658 131.62845 
L 129.010959 131.28045 
L 129.652257 130.92205 
L 130.293555 130.555355 
L 130.934856 130.176528 
L 131.576154 129.790497 
L 132.217452 129.395725 
L 132.85875 128.990535 
L 133.500051 128.57413 
L 134.141349 128.153276 
L 134.782647 127.717734 
L 135.423948 127.271846 
L 136.065246 126.807726 
L 136.706544 126.341111 
L 137.347846 125.856502 
L 137.989144 125.363548 
L 138.630442 124.852874 
L 139.271743 124.329589 
L 139.913041 123.797758 
L 140.554339 123.251692 
L 141.19564 122.686314 
L 141.836938 122.11129 
L 142.478236 121.52301 
L 143.119537 120.91816 
L 143.760835 120.299698 
L 144.402133 119.666798 
L 145.043434 119.02051 
L 145.684732 118.358442 
L 146.32603 117.681903 
L 146.967331 116.990907 
L 147.608629 116.285343 
L 148.249927 115.564172 
L 148.891229 114.823756 
L 149.532527 114.072348 
L 150.173826 113.310635 
L 150.815124 112.519535 
L 151.456424 111.72175 
L 152.097723 110.910958 
L 152.739021 110.090076 
L 153.380321 109.257036 
L 154.021621 108.403705 
L 154.662919 107.540503 
L 155.304218 106.666211 
L 155.945518 105.773497 
L 156.586816 104.870555 
L 157.228115 103.961377 
L 157.869415 103.040468 
L 158.510713 102.102155 
L 159.152013 101.153248 
L 159.793312 100.200235 
L 160.43461 99.228153 
L 161.07591 98.24546 
L 161.717208 97.260052 
L 162.358507 96.26418 
L 162.999807 95.261226 
L 163.641106 94.254667 
L 164.282405 93.237503 
L 164.923704 92.216666 
L 165.565003 91.185797 
L 166.206302 90.152929 
L 166.847601 89.110703 
L 167.4889 88.073409 
L 168.130199 87.026013 
L 168.771498 85.97797 
L 169.412797 84.916317 
L 170.054096 83.859007 
L 170.695395 82.801837 
L 171.336694 81.732385 
L 171.977993 80.661795 
L 172.619292 79.590323 
L 173.260591 78.519196 
L 173.90189 77.446856 
L 174.543189 76.370009 
L 175.184488 75.290382 
L 175.825788 74.209 
L 176.467087 73.133122 
L 177.108386 72.053523 
L 177.749685 70.969315 
L 178.390984 69.886143 
L 179.032283 68.804668 
L 179.673582 67.721075 
L 180.314881 66.627562 
L 180.95618 65.53528 
L 181.597479 64.449719 
L 182.238778 63.354044 
L 182.880077 62.25084 
L 183.521376 61.157771 
L 184.162675 60.055622 
L 184.803974 58.954284 
L 185.445274 57.842189 
L 186.086572 56.739074 
L 186.727871 55.638369 
L 187.36917 54.541756 
L 188.010469 53.438993 
L 188.651768 52.335153 
L 189.293068 51.228618 
L 189.934366 50.126058 
L 190.575666 49.019553 
L 191.216965 47.9103 
L 191.858263 46.801171 
L 192.499563 45.703378 
L 193.140862 44.60062 
L 193.78216 43.497139 
L 194.42346 42.394595 
L 195.064759 41.305172 
L 195.706057 40.224712 
L 196.347357 39.142972 
L 196.988657 38.067124 
L 197.629955 37.000565 
L 198.271254 35.95196 
L 198.912554 34.908433 
L 199.553852 33.87403 
L 200.195151 32.856939 
L 200.836451 31.847057 
L 201.477751 30.852454 
L 202.119049 29.877631 
L 202.760347 28.912326 
L 203.401648 27.966539 
L 204.042946 27.033598 
L 204.684244 26.122696 
L 205.325545 25.22801 
L 205.966843 24.350144 
L 206.608141 23.50406 
L 207.249442 22.677192 
L 207.89074 21.889704 
L 208.532038 21.108134 
L 209.173339 20.372033 
L 209.814637 19.655997 
L 210.455935 18.978189 
L 211.097236 18.320538 
L 211.738535 17.696726 
L 212.379833 17.103314 
L 213.021131 16.54893 
L 213.662432 16.015884 
L 214.30373 15.527098 
L 214.945028 15.070923 
L 215.586329 14.648751 
L 216.227627 14.267004 
L 216.868925 13.912592 
L 217.510226 13.594231 
L 218.151524 13.312444 
L 218.792822 13.058104 
L 219.434123 12.847368 
L 220.075421 12.671992 
L 220.716719 12.53943 
L 221.35802 12.425395 
L 221.999318 12.349944 
L 222.640616 12.322456 
L 223.281918 12.316149 
L 223.923216 12.342781 
L 224.564514 12.402568 
L 225.205815 12.489602 
L 225.847113 12.612366 
L 226.488411 12.769161 
L 227.129712 12.958127 
L 227.77101 13.17795 
L 228.412308 13.426506 
L 229.053606 13.701961 
L 229.69491 14.00555 
L 230.336208 14.342321 
L 230.977506 14.699879 
L 231.618804 15.084325 
L 232.260102 15.501641 
L 232.9014 15.943912 
L 233.542698 16.401733 
L 234.184003 16.890603 
L 234.825301 17.394985 
L 235.466599 17.931692 
L 236.107897 18.494683 
L 236.749195 19.076964 
L 237.390493 19.687282 
L 238.031797 20.313599 
L 238.673095 20.966233 
L 239.314393 21.637035 
L 239.955691 22.333748 
L 240.596989 23.048905 
L 241.238287 23.7947 
L 241.879591 24.552982 
L 242.520889 25.330992 
L 243.162187 26.134089 
L 243.803486 26.957336 
L 244.444784 27.800859 
L 245.086082 28.659626 
L 245.727386 29.539682 
L 246.368684 30.439067 
L 247.009982 31.356301 
L 247.65128 32.293481 
L 248.292578 33.235456 
L 248.933876 34.198803 
L 249.57518 35.177993 
L 250.216478 36.173833 
L 250.857776 37.172545 
L 251.499074 38.192958 
L 252.140372 39.228715 
L 252.78167 40.272342 
L 253.422975 41.313461 
L 254.064273 42.377054 
L 254.705571 43.451831 
L 255.346869 44.523151 
L 255.988167 45.606391 
L 256.629465 46.69322 
L 257.270769 47.796652 
L 257.912067 48.889814 
L 258.553365 49.987413 
L 259.194663 51.084597 
L 259.835961 52.190633 
L 260.477259 53.303326 
L 261.118563 54.416132 
L 261.759861 55.522466 
L 262.401159 56.637121 
L 263.042457 57.751052 
L 263.683755 58.867398 
L 264.325053 59.974281 
L 264.966358 61.087032 
L 265.607656 62.20133 
L 266.248954 63.310522 
L 266.890252 64.419287 
L 267.53155 65.516627 
L 268.172848 66.621472 
L 268.814152 67.726255 
L 269.45545 68.825046 
L 270.096748 69.918719 
L 270.738046 71.016996 
L 271.379344 72.111905 
L 272.020642 73.208516 
L 272.66194 74.303527 
L 273.303244 75.393675 
L 273.944542 76.480858 
L 274.58584 77.573413 
L 275.227138 78.65726 
L 275.868436 79.744815 
L 276.509735 80.822629 
L 277.151039 81.901546 
L 277.792337 82.975806 
L 278.433635 84.042399 
L 279.074933 85.10477 
L 279.716231 86.155007 
L 280.357535 87.210214 
L 280.998827 88.248414 
L 281.640131 89.281506 
L 282.281423 90.307956 
L 282.922727 91.334156 
L 283.564031 92.345611 
L 284.205323 93.351812 
L 284.846627 94.347244 
L 285.487919 95.340073 
L 286.129224 96.31215 
L 286.770528 97.279894 
L 287.41182 98.233711 
L 288.053124 99.171142 
L 288.694416 100.107126 
L 289.33572 101.030806 
L 289.977012 101.940428 
L 290.618316 102.84385 
L 291.25962 103.727645 
L 291.900912 104.597578 
L 292.542216 105.451235 
L 293.183508 106.303774 
L 293.824812 107.135298 
L 294.466117 107.953105 
L 295.107408 108.760382 
L 295.748713 109.55425 
L 296.390004 110.331354 
L 297.031309 111.100408 
L 297.6726 111.85709 
L 298.313905 112.597004 
L 298.955209 113.321561 
L 299.596501 114.038359 
L 300.237805 114.741811 
L 300.879097 115.431681 
L 301.520401 116.110957 
L 302.161705 116.779609 
L 302.802997 117.441174 
L 303.444301 118.086195 
L 304.085593 118.718464 
L 304.726897 119.342757 
L 305.368189 119.957537 
L 306.009493 120.556878 
L 306.650798 121.151192 
L 307.292089 121.724422 
L 307.933394 122.288786 
L 308.574685 122.844912 
L 309.21599 123.388019 
L 309.857294 123.922989 
L 310.498586 124.449632 
L 311.13989 124.95932 
L 311.781182 125.463212 
L 312.422486 125.95704 
L 313.063778 126.438508 
L 313.705082 126.911586 
L 314.346386 127.374869 
L 314.987678 127.827491 
L 315.628982 128.268292 
L 316.270274 128.696231 
L 316.911578 129.117601 
L 317.55287 129.525432 
L 318.194175 129.926169 
L 318.835479 130.316802 
L 319.476771 130.695748 
L 320.118075 131.07107 
L 320.759367 131.434492 
L 321.400671 131.790454 
L 322.041975 132.133509 
L 322.683267 132.475891 
L 323.324571 132.800896 
L 323.965863 133.121542 
L 324.607167 133.432518 
L 325.248459 133.740346 
L 325.889763 134.033223 
L 326.531067 134.318951 
L 327.172359 134.597605 
L 327.813664 134.868765 
L 328.454955 135.132981 
L 329.09626 135.385871 
L 329.737564 135.636071 
L 330.378856 135.875935 
L 331.02016 136.111038 
L 331.661452 136.339788 
L 332.302756 136.560034 
L 332.944048 136.77626 
L 333.585352 136.986388 
L 334.226656 137.189628 
L 334.867948 137.386742 
L 335.509252 137.573461 
L 336.150544 137.757711 
L 336.791848 137.935967 
L 337.433153 138.10931 
L 338.074444 138.278676 
L 338.715749 138.439558 
L 339.35704 138.599747 
L 339.998345 138.751626 
L 340.639636 138.898493 
L 341.280941 139.040509 
L 341.922245 139.179592 
L 342.563537 139.312953 
L 343.204841 139.444878 
L 343.846133 139.568826 
L 344.487437 139.68945 
L 345.128741 139.808046 
L 345.770033 139.918636 
L 346.411337 140.027233 
L 347.052629 140.132744 
L 347.693933 140.232921 
L 348.335225 140.332951 
L 348.976529 140.428824 
L 349.617834 140.520246 
L 350.259126 140.606978 
L 350.90043 140.693261 
L 351.541722 140.775167 
L 352.183026 140.853285 
L 352.824318 140.92819 
L 353.465622 141.002236 
L 354.106926 141.069827 
L 354.748218 141.13554 
L 355.389522 141.197511 
L 356.030814 141.256832 
L 356.672118 141.313482 
L 357.313422 141.367521 
L 357.954714 141.418207 
L 358.596018 141.466633 
L 359.23731 141.514628 
L 359.878615 141.560212 
L 360.519906 141.601278 
L 361.161211 141.640929 
L 361.802515 141.6796 
L 362.443807 141.716342 
L 363.085111 141.750366 
L 363.726403 141.783673 
L 364.367707 141.815759 
L 365.009011 141.844878 
L 365.650303 141.873107 
L 366.291607 141.900003 
L 366.932899 141.925643 
L 367.574203 141.949213 
L 368.215495 141.97225 
L 368.856799 141.993404 
L 369.498104 142.015523 
L 370.139395 142.034827 
L 370.7807 142.053872 
L 371.421991 142.072174 
L 372.063296 142.090654 
L 372.7046 142.107879 
L 373.345892 142.124853 
L 373.987196 142.140214 
L 374.628488 142.155468 
L 375.269792 142.169678 
L 375.911084 142.184712 
L 376.552388 142.19728 
L 377.193692 142.20991 
L 377.834984 142.221648 
L 378.476288 142.233903 
L 379.11758 142.245654 
L 379.758884 142.256924 
L 380.400189 142.267732 
L 381.04148 142.2781 
L 381.682785 142.287604 
L 382.324076 142.296332 
L 382.965381 142.304804 
L 383.606673 142.313465 
L 384.247989 142.321807 
L 384.889281 142.330288 
L 385.530573 142.337528 
L 386.171865 142.344572 
L 386.813181 142.351427 
L 387.454473 142.358099 
L 388.095765 142.365039 
L 388.737082 142.371302 
L 389.378373 142.377416 
L 390.019665 142.383391 
L 390.660957 142.389676 
L 391.302274 142.395327 
L 391.943566 142.400869 
L 392.584864 142.40631 
L 393.226162 142.412096 
L 393.86746 142.417278 
L 394.508758 142.422822 
L 395.150056 142.428218 
L 395.791354 142.433034 
L 396.432652 142.437788 
L 397.07395 142.442475 
L 397.715248 142.447535 
L 398.356546 142.452008 
L 398.997844 142.456411 
L 399.639142 142.460735 
L 400.28044 142.464974 
L 400.921738 142.469121 
L 401.563036 142.473612 
L 402.204334 142.477486 
L 402.845632 142.481257 
L 403.48693 142.485361 
L 404.128228 142.488837 
L 404.769526 142.4922 
L 405.410824 142.495886 
L 406.052122 142.498935 
L 406.69342 142.501864 
L 407.334718 142.504668 
L 407.976016 142.507343 
L 408.617314 142.510329 
L 409.258612 142.512671 
L 409.89991 142.515331 
L 410.541208 142.517355 
L 411.182506 142.519263 
L 411.823804 142.521055 
L 412.465102 142.522732 
L 413.1064 142.524296 
L 413.747698 142.525748 
L 414.388996 142.527093 
L 415.030294 142.528333 
L 415.671592 142.529473 
L 416.31289 142.530517 
L 416.954189 142.53147 
L 417.595487 142.532336 
L 418.236785 142.533122 
L 418.878083 142.533833 
L 419.519381 142.534472 
L 420.160679 142.535046 
L 420.801977 142.53556 
L 421.443275 142.536018 
L 422.084573 142.536425 
L 422.725871 142.536785 
L 423.367169 142.537104 
L 424.008467 142.537827 
L 424.649765 142.538005 
L 425.291063 142.538162 
L 425.932361 142.538299 
L 426.573659 142.538419 
L 427.214957 142.538524 
L 427.856255 142.538615 
z
" style="fill:#1f77b4;opacity:0.4;"/>
   </g>
   <g id="patch_4">
    <path clip-path="url(#p89f79e75d9)" d="M 143.119537 142.539136 
L 143.119537 120.91816 
L 143.760835 120.299698 
L 144.402133 119.666798 
L 145.043434 119.02051 
L 145.684732 118.358442 
L 146.32603 117.681903 
L 146.967331 116.990907 
L 147.608629 116.285343 
L 148.249927 115.564172 
L 148.891229 114.823756 
L 149.532527 114.072348 
L 150.173826 113.310635 
L 150.815124 112.519535 
L 151.456424 111.72175 
L 152.097723 110.910958 
L 152.739021 110.090076 
L 153.380321 109.257036 
L 154.021621 108.403705 
L 154.662919 107.540503 
L 155.304218 106.666211 
L 155.945518 105.773497 
L 156.586816 104.870555 
L 157.228115 103.961377 
L 157.869415 103.040468 
L 158.510713 102.102155 
L 159.152013 101.153248 
L 159.793312 100.200235 
L 160.43461 99.228153 
L 161.07591 98.24546 
L 161.717208 97.260052 
L 162.358507 96.26418 
L 162.999807 95.261226 
L 163.641106 94.254667 
L 164.282405 93.237503 
L 164.923704 92.216666 
L 165.565003 91.185797 
L 166.206302 90.152929 
L 166.847601 89.110703 
L 167.4889 88.073409 
L 168.130199 87.026013 
L 168.771498 85.97797 
L 169.412797 84.916317 
L 170.054096 83.859007 
L 170.695395 82.801837 
L 171.336694 81.732385 
L 171.977993 80.661795 
L 172.619292 79.590323 
L 173.260591 78.519196 
L 173.90189 77.446856 
L 174.543189 76.370009 
L 175.184488 75.290382 
L 175.825788 74.209 
L 176.467087 73.133122 
L 177.108386 72.053523 
L 177.749685 70.969315 
L 178.390984 69.886143 
L 179.032283 68.804668 
L 179.673582 67.721075 
L 180.314881 66.627562 
L 180.95618 65.53528 
L 181.597479 64.449719 
L 182.238778 63.354044 
L 182.880077 62.25084 
L 183.521376 61.157771 
L 184.162675 60.055622 
L 184.803974 58.954284 
L 185.445274 57.842189 
L 186.086572 56.739074 
L 186.727871 55.638369 
L 187.36917 54.541756 
L 188.010469 53.438993 
L 188.651768 52.335153 
L 189.293068 51.228618 
L 189.934366 50.126058 
L 190.575666 49.019553 
L 191.216965 47.9103 
L 191.858263 46.801171 
L 192.499563 45.703378 
L 193.140862 44.60062 
L 193.78216 43.497139 
L 194.42346 42.394595 
L 195.064759 41.305172 
L 195.706057 40.224712 
L 196.347357 39.142972 
L 196.988657 38.067124 
L 197.629955 37.000565 
L 198.271254 35.95196 
L 198.912554 34.908433 
L 199.553852 33.87403 
L 200.195151 32.856939 
L 200.836451 31.847057 
L 201.477751 30.852454 
L 202.119049 29.877631 
L 202.760347 28.912326 
L 203.401648 27.966539 
L 204.042946 27.033598 
L 204.684244 26.122696 
L 205.325545 25.22801 
L 205.966843 24.350144 
L 206.608141 23.50406 
L 207.249442 22.677192 
L 207.89074 21.889704 
L 208.532038 21.108134 
L 209.173339 20.372033 
L 209.814637 19.655997 
L 210.455935 18.978189 
L 211.097236 18.320538 
L 211.738535 17.696726 
L 212.379833 17.103314 
L 213.021131 16.54893 
L 213.662432 16.015884 
L 214.30373 15.527098 
L 214.945028 15.070923 
L 215.586329 14.648751 
L 216.227627 14.267004 
L 216.868925 13.912592 
L 217.510226 13.594231 
L 218.151524 13.312444 
L 218.792822 13.058104 
L 219.434123 12.847368 
L 220.075421 12.671992 
L 220.716719 12.53943 
L 221.35802 12.425395 
L 221.999318 12.349944 
L 222.640616 12.322456 
L 223.281918 12.316149 
L 223.923216 12.342781 
L 224.564514 12.402568 
L 225.205815 12.489602 
L 225.847113 12.612366 
L 226.488411 12.769161 
L 227.129712 12.958127 
L 227.77101 13.17795 
L 228.412308 13.426506 
L 229.053606 13.701961 
L 229.69491 14.00555 
L 230.336208 14.342321 
L 230.977506 14.699879 
L 231.618804 15.084325 
L 232.260102 15.501641 
L 232.9014 15.943912 
L 233.542698 16.401733 
L 234.184003 16.890603 
L 234.825301 17.394985 
L 235.466599 17.931692 
L 236.107897 18.494683 
L 236.749195 19.076964 
L 237.390493 19.687282 
L 238.031797 20.313599 
L 238.673095 20.966233 
L 239.314393 21.637035 
L 239.955691 22.333748 
L 240.596989 23.048905 
L 241.238287 23.7947 
L 241.879591 24.552982 
L 242.520889 25.330992 
L 243.162187 26.134089 
L 243.803486 26.957336 
L 244.444784 27.800859 
L 245.086082 28.659626 
L 245.727386 29.539682 
L 246.368684 30.439067 
L 247.009982 31.356301 
L 247.65128 32.293481 
L 248.292578 33.235456 
L 248.933876 34.198803 
L 249.57518 35.177993 
L 250.216478 36.173833 
L 250.857776 37.172545 
L 251.499074 38.192958 
L 252.140372 39.228715 
L 252.78167 40.272342 
L 253.422975 41.313461 
L 254.064273 42.377054 
L 254.705571 43.451831 
L 255.346869 44.523151 
L 255.988167 45.606391 
L 256.629465 46.69322 
L 257.270769 47.796652 
L 257.912067 48.889814 
L 258.553365 49.987413 
L 259.194663 51.084597 
L 259.835961 52.190633 
L 260.477259 53.303326 
L 261.118563 54.416132 
L 261.759861 55.522466 
L 262.401159 56.637121 
L 263.042457 57.751052 
L 263.683755 58.867398 
L 264.325053 59.974281 
L 264.966358 61.087032 
L 265.607656 62.20133 
L 266.248954 63.310522 
L 266.890252 64.419287 
L 267.53155 65.516627 
L 268.172848 66.621472 
L 268.814152 67.726255 
L 269.45545 68.825046 
L 270.096748 69.918719 
L 270.738046 71.016996 
L 271.379344 72.111905 
L 272.020642 73.208516 
L 272.66194 74.303527 
L 273.303244 75.393675 
L 273.944542 76.480858 
L 274.58584 77.573413 
L 275.227138 78.65726 
L 275.868436 79.744815 
L 276.509735 80.822629 
L 277.151039 81.901546 
L 277.792337 82.975806 
L 278.433635 84.042399 
L 279.074933 85.10477 
L 279.716231 86.155007 
L 280.357535 87.210214 
L 280.998827 88.248414 
L 281.640131 89.281506 
L 282.281423 90.307956 
L 282.922727 91.334156 
L 283.564031 92.345611 
L 284.205323 93.351812 
L 284.846627 94.347244 
L 285.487919 95.340073 
L 286.129224 96.31215 
L 286.770528 97.279894 
L 287.41182 98.233711 
L 288.053124 99.171142 
L 288.694416 100.107126 
L 289.33572 101.030806 
L 289.977012 101.940428 
L 290.618316 102.84385 
L 291.25962 103.727645 
L 291.900912 104.597578 
L 292.542216 105.451235 
L 293.183508 106.303774 
L 293.824812 107.135298 
L 294.466117 107.953105 
L 295.107408 108.760382 
L 295.748713 109.55425 
L 296.390004 110.331354 
L 297.031309 111.100408 
L 297.6726 111.85709 
L 298.313905 112.597004 
L 298.955209 113.321561 
L 299.596501 114.038359 
L 300.237805 114.741811 
L 300.879097 115.431681 
L 301.520401 116.110957 
L 302.161705 116.779609 
L 302.802997 117.441174 
L 303.444301 118.086195 
L 304.085593 118.718464 
L 304.726897 119.342757 
L 305.368189 119.957537 
L 305.368189 142.539136 
z
" style="fill:#1f77b4;opacity:0.4;"/>
   </g>
   <g id="matplotlib.axis_1">
    <g id="xtick_1">
     <g id="line2d_1">
      <defs>
       <path d="M 0 0 
L 0 3.5 
" id="mf65895e441" style="stroke:#000000;stroke-width:0.8;"/>
      </defs>
      <g>
       <use style="stroke:#000000;stroke-width:0.8;" x="18.631637" xlink:href="#mf65895e441" y="149.050286"/>
      </g>
     </g>
     <g id="text_1">
      <!-- −3 -->
      <defs>
       <path d="M 10.59375 35.5 
L 73.1875 35.5 
L 73.1875 27.203125 
L 10.59375 27.203125 
z
" id="DejaVuSans-8722"/>
       <path d="M 40.578125 39.3125 
Q 47.65625 37.796875 51.625 33 
Q 55.609375 28.21875 55.609375 21.1875 
Q 55.609375 10.40625 48.1875 4.484375 
Q 40.765625 -1.421875 27.09375 -1.421875 
Q 22.515625 -1.421875 17.65625 -0.515625 
Q 12.796875 0.390625 7.625 2.203125 
L 7.625 11.71875 
Q 11.71875 9.328125 16.59375 8.109375 
Q 21.484375 6.890625 26.8125 6.890625 
Q 36.078125 6.890625 40.9375 10.546875 
Q 45.796875 14.203125 45.796875 21.1875 
Q 45.796875 27.640625 41.28125 31.265625 
Q 36.765625 34.90625 28.71875 34.90625 
L 20.21875 34.90625 
L 20.21875 43.015625 
L 29.109375 43.015625 
Q 36.375 43.015625 40.234375 45.921875 
Q 44.09375 48.828125 44.09375 54.296875 
Q 44.09375 59.90625 40.109375 62.90625 
Q 36.140625 65.921875 28.71875 65.921875 
Q 24.65625 65.921875 20.015625 65.03125 
Q 15.375 64.15625 9.8125 62.3125 
L 9.8125 71.09375 
Q 15.4375 72.65625 20.34375 73.4375 
Q 25.25 74.21875 29.59375 74.21875 
Q 40.828125 74.21875 47.359375 69.109375 
Q 53.90625 64.015625 53.90625 55.328125 
Q 53.90625 49.265625 50.4375 45.09375 
Q 46.96875 40.921875 40.578125 39.3125 
z
" id="DejaVuSans-51"/>
      </defs>
      <g transform="translate(11.260543 163.648723)scale(0.1 -0.1)">
       <use xlink:href="#DejaVuSans-8722"/>
       <use x="83.789062" xlink:href="#DejaVuSans-51"/>
      </g>
     </g>
    </g>
    <g id="xtick_2">
     <g id="line2d_2">
      <g>
       <use style="stroke:#000000;stroke-width:0.8;" x="70.746898" xlink:href="#mf65895e441" y="149.050286"/>
      </g>
     </g>
     <g id="text_2">
      <!-- −2 -->
      <defs>
       <path d="M 19.1875 8.296875 
L 53.609375 8.296875 
L 53.609375 0 
L 7.328125 0 
L 7.328125 8.296875 
Q 12.9375 14.109375 22.625 23.890625 
Q 32.328125 33.6875 34.8125 36.53125 
Q 39.546875 41.84375 41.421875 45.53125 
Q 43.3125 49.21875 43.3125 52.78125 
Q 43.3125 58.59375 39.234375 62.25 
Q 35.15625 65.921875 28.609375 65.921875 
Q 23.96875 65.921875 18.8125 64.3125 
Q 13.671875 62.703125 7.8125 59.421875 
L 7.8125 69.390625 
Q 13.765625 71.78125 18.9375 73 
Q 24.125 74.21875 28.421875 74.21875 
Q 39.75 74.21875 46.484375 68.546875 
Q 53.21875 62.890625 53.21875 53.421875 
Q 53.21875 48.921875 51.53125 44.890625 
Q 49.859375 40.875 45.40625 35.40625 
Q 44.1875 33.984375 37.640625 27.21875 
Q 31.109375 20.453125 19.1875 8.296875 
z
" id="DejaVuSans-50"/>
      </defs>
      <g transform="translate(63.375804 163.648723)scale(0.1 -0.1)">
       <use xlink:href="#DejaVuSans-8722"/>
       <use x="83.789062" xlink:href="#DejaVuSans-50"/>
      </g>
     </g>
    </g>
    <g id="xtick_3">
     <g id="line2d_3">
      <g>
       <use style="stroke:#000000;stroke-width:0.8;" x="122.862158" xlink:href="#mf65895e441" y="149.050286"/>
      </g>
     </g>
     <g id="text_3">
      <!-- −1 -->
      <defs>
       <path d="M 12.40625 8.296875 
L 28.515625 8.296875 
L 28.515625 63.921875 
L 10.984375 60.40625 
L 10.984375 69.390625 
L 28.421875 72.90625 
L 38.28125 72.90625 
L 38.28125 8.296875 
L 54.390625 8.296875 
L 54.390625 0 
L 12.40625 0 
z
" id="DejaVuSans-49"/>
      </defs>
      <g transform="translate(115.491064 163.648723)scale(0.1 -0.1)">
       <use xlink:href="#DejaVuSans-8722"/>
       <use x="83.789062" xlink:href="#DejaVuSans-49"/>
      </g>
     </g>
    </g>
    <g id="xtick_4">
     <g id="line2d_4">
      <g>
       <use style="stroke:#000000;stroke-width:0.8;" x="174.977418" xlink:href="#mf65895e441" y="149.050286"/>
      </g>
     </g>
     <g id="text_4">
      <!-- 0 -->
      <defs>
       <path d="M 31.78125 66.40625 
Q 24.171875 66.40625 20.328125 58.90625 
Q 16.5 51.421875 16.5 36.375 
Q 16.5 21.390625 20.328125 13.890625 
Q 24.171875 6.390625 31.78125 6.390625 
Q 39.453125 6.390625 43.28125 13.890625 
Q 47.125 21.390625 47.125 36.375 
Q 47.125 51.421875 43.28125 58.90625 
Q 39.453125 66.40625 31.78125 66.40625 
z
M 31.78125 74.21875 
Q 44.046875 74.21875 50.515625 64.515625 
Q 56.984375 54.828125 56.984375 36.375 
Q 56.984375 17.96875 50.515625 8.265625 
Q 44.046875 -1.421875 31.78125 -1.421875 
Q 19.53125 -1.421875 13.0625 8.265625 
Q 6.59375 17.96875 6.59375 36.375 
Q 6.59375 54.828125 13.0625 64.515625 
Q 19.53125 74.21875 31.78125 74.21875 
z
" id="DejaVuSans-48"/>
      </defs>
      <g transform="translate(171.796168 163.648723)scale(0.1 -0.1)">
       <use xlink:href="#DejaVuSans-48"/>
      </g>
     </g>
    </g>
    <g id="xtick_5">
     <g id="line2d_5">
      <g>
       <use style="stroke:#000000;stroke-width:0.8;" x="227.092679" xlink:href="#mf65895e441" y="149.050286"/>
      </g>
     </g>
     <g id="text_5">
      <!-- 1 -->
      <g transform="translate(223.911429 163.648723)scale(0.1 -0.1)">
       <use xlink:href="#DejaVuSans-49"/>
      </g>
     </g>
    </g>
    <g id="xtick_6">
     <g id="line2d_6">
      <g>
       <use style="stroke:#000000;stroke-width:0.8;" x="279.207939" xlink:href="#mf65895e441" y="149.050286"/>
      </g>
     </g>
     <g id="text_6">
      <!-- 2 -->
      <g transform="translate(276.026689 163.648723)scale(0.1 -0.1)">
       <use xlink:href="#DejaVuSans-50"/>
      </g>
     </g>
    </g>
    <g id="xtick_7">
     <g id="line2d_7">
      <g>
       <use style="stroke:#000000;stroke-width:0.8;" x="331.323199" xlink:href="#mf65895e441" y="149.050286"/>
      </g>
     </g>
     <g id="text_7">
      <!-- 3 -->
      <g transform="translate(328.141949 163.648723)scale(0.1 -0.1)">
       <use xlink:href="#DejaVuSans-51"/>
      </g>
     </g>
    </g>
    <g id="xtick_8">
     <g id="line2d_8">
      <g>
       <use style="stroke:#000000;stroke-width:0.8;" x="383.43846" xlink:href="#mf65895e441" y="149.050286"/>
      </g>
     </g>
     <g id="text_8">
      <!-- 4 -->
      <defs>
       <path d="M 37.796875 64.3125 
L 12.890625 25.390625 
L 37.796875 25.390625 
z
M 35.203125 72.90625 
L 47.609375 72.90625 
L 47.609375 25.390625 
L 58.015625 25.390625 
L 58.015625 17.1875 
L 47.609375 17.1875 
L 47.609375 0 
L 37.796875 0 
L 37.796875 17.1875 
L 4.890625 17.1875 
L 4.890625 26.703125 
z
" id="DejaVuSans-52"/>
      </defs>
      <g transform="translate(380.25721 163.648723)scale(0.1 -0.1)">
       <use xlink:href="#DejaVuSans-52"/>
      </g>
     </g>
    </g>
    <g id="xtick_9">
     <g id="line2d_9">
      <g>
       <use style="stroke:#000000;stroke-width:0.8;" x="435.55372" xlink:href="#mf65895e441" y="149.050286"/>
      </g>
     </g>
     <g id="text_9">
      <!-- 5 -->
      <defs>
       <path d="M 10.796875 72.90625 
L 49.515625 72.90625 
L 49.515625 64.59375 
L 19.828125 64.59375 
L 19.828125 46.734375 
Q 21.96875 47.46875 24.109375 47.828125 
Q 26.265625 48.1875 28.421875 48.1875 
Q 40.625 48.1875 47.75 41.5 
Q 54.890625 34.8125 54.890625 23.390625 
Q 54.890625 11.625 47.5625 5.09375 
Q 40.234375 -1.421875 26.90625 -1.421875 
Q 22.3125 -1.421875 17.546875 -0.640625 
Q 12.796875 0.140625 7.71875 1.703125 
L 7.71875 11.625 
Q 12.109375 9.234375 16.796875 8.0625 
Q 21.484375 6.890625 26.703125 6.890625 
Q 35.15625 6.890625 40.078125 11.328125 
Q 45.015625 15.765625 45.015625 23.390625 
Q 45.015625 31 40.078125 35.4375 
Q 35.15625 39.890625 26.703125 39.890625 
Q 22.75 39.890625 18.8125 39.015625 
Q 14.890625 38.140625 10.796875 36.28125 
z
" id="DejaVuSans-53"/>
      </defs>
      <g transform="translate(432.37247 163.648723)scale(0.1 -0.1)">
       <use xlink:href="#DejaVuSans-53"/>
      </g>
     </g>
    </g>
    <g id="text_10">
     <!-- Predicted y -->
     <defs>
      <path d="M 19.671875 64.796875 
L 19.671875 37.40625 
L 32.078125 37.40625 
Q 38.96875 37.40625 42.71875 40.96875 
Q 46.484375 44.53125 46.484375 51.125 
Q 46.484375 57.671875 42.71875 61.234375 
Q 38.96875 64.796875 32.078125 64.796875 
z
M 9.8125 72.90625 
L 32.078125 72.90625 
Q 44.34375 72.90625 50.609375 67.359375 
Q 56.890625 61.8125 56.890625 51.125 
Q 56.890625 40.328125 50.609375 34.8125 
Q 44.34375 29.296875 32.078125 29.296875 
L 19.671875 29.296875 
L 19.671875 0 
L 9.8125 0 
z
" id="DejaVuSans-80"/>
      <path d="M 41.109375 46.296875 
Q 39.59375 47.171875 37.8125 47.578125 
Q 36.03125 48 33.890625 48 
Q 26.265625 48 22.1875 43.046875 
Q 18.109375 38.09375 18.109375 28.8125 
L 18.109375 0 
L 9.078125 0 
L 9.078125 54.6875 
L 18.109375 54.6875 
L 18.109375 46.1875 
Q 20.953125 51.171875 25.484375 53.578125 
Q 30.03125 56 36.53125 56 
Q 37.453125 56 38.578125 55.875 
Q 39.703125 55.765625 41.0625 55.515625 
z
" id="DejaVuSans-114"/>
      <path d="M 56.203125 29.59375 
L 56.203125 25.203125 
L 14.890625 25.203125 
Q 15.484375 15.921875 20.484375 11.0625 
Q 25.484375 6.203125 34.421875 6.203125 
Q 39.59375 6.203125 44.453125 7.46875 
Q 49.3125 8.734375 54.109375 11.28125 
L 54.109375 2.78125 
Q 49.265625 0.734375 44.1875 -0.34375 
Q 39.109375 -1.421875 33.890625 -1.421875 
Q 20.796875 -1.421875 13.15625 6.1875 
Q 5.515625 13.8125 5.515625 26.8125 
Q 5.515625 40.234375 12.765625 48.109375 
Q 20.015625 56 32.328125 56 
Q 43.359375 56 49.78125 48.890625 
Q 56.203125 41.796875 56.203125 29.59375 
z
M 47.21875 32.234375 
Q 47.125 39.59375 43.09375 43.984375 
Q 39.0625 48.390625 32.421875 48.390625 
Q 24.90625 48.390625 20.390625 44.140625 
Q 15.875 39.890625 15.1875 32.171875 
z
" id="DejaVuSans-101"/>
      <path d="M 45.40625 46.390625 
L 45.40625 75.984375 
L 54.390625 75.984375 
L 54.390625 0 
L 45.40625 0 
L 45.40625 8.203125 
Q 42.578125 3.328125 38.25 0.953125 
Q 33.9375 -1.421875 27.875 -1.421875 
Q 17.96875 -1.421875 11.734375 6.484375 
Q 5.515625 14.40625 5.515625 27.296875 
Q 5.515625 40.1875 11.734375 48.09375 
Q 17.96875 56 27.875 56 
Q 33.9375 56 38.25 53.625 
Q 42.578125 51.265625 45.40625 46.390625 
z
M 14.796875 27.296875 
Q 14.796875 17.390625 18.875 11.75 
Q 22.953125 6.109375 30.078125 6.109375 
Q 37.203125 6.109375 41.296875 11.75 
Q 45.40625 17.390625 45.40625 27.296875 
Q 45.40625 37.203125 41.296875 42.84375 
Q 37.203125 48.484375 30.078125 48.484375 
Q 22.953125 48.484375 18.875 42.84375 
Q 14.796875 37.203125 14.796875 27.296875 
z
" id="DejaVuSans-100"/>
      <path d="M 9.421875 54.6875 
L 18.40625 54.6875 
L 18.40625 0 
L 9.421875 0 
z
M 9.421875 75.984375 
L 18.40625 75.984375 
L 18.40625 64.59375 
L 9.421875 64.59375 
z
" id="DejaVuSans-105"/>
      <path d="M 48.78125 52.59375 
L 48.78125 44.1875 
Q 44.96875 46.296875 41.140625 47.34375 
Q 37.3125 48.390625 33.40625 48.390625 
Q 24.65625 48.390625 19.8125 42.84375 
Q 14.984375 37.3125 14.984375 27.296875 
Q 14.984375 17.28125 19.8125 11.734375 
Q 24.65625 6.203125 33.40625 6.203125 
Q 37.3125 6.203125 41.140625 7.25 
Q 44.96875 8.296875 48.78125 10.40625 
L 48.78125 2.09375 
Q 45.015625 0.34375 40.984375 -0.53125 
Q 36.96875 -1.421875 32.421875 -1.421875 
Q 20.0625 -1.421875 12.78125 6.34375 
Q 5.515625 14.109375 5.515625 27.296875 
Q 5.515625 40.671875 12.859375 48.328125 
Q 20.21875 56 33.015625 56 
Q 37.15625 56 41.109375 55.140625 
Q 45.0625 54.296875 48.78125 52.59375 
z
" id="DejaVuSans-99"/>
      <path d="M 18.3125 70.21875 
L 18.3125 54.6875 
L 36.8125 54.6875 
L 36.8125 47.703125 
L 18.3125 47.703125 
L 18.3125 18.015625 
Q 18.3125 11.328125 20.140625 9.421875 
Q 21.96875 7.515625 27.59375 7.515625 
L 36.8125 7.515625 
L 36.8125 0 
L 27.59375 0 
Q 17.1875 0 13.234375 3.875 
Q 9.28125 7.765625 9.28125 18.015625 
L 9.28125 47.703125 
L 2.6875 47.703125 
L 2.6875 54.6875 
L 9.28125 54.6875 
L 9.28125 70.21875 
z
" id="DejaVuSans-116"/>
      <path id="DejaVuSans-32"/>
      <path d="M 32.171875 -5.078125 
Q 28.375 -14.84375 24.75 -17.8125 
Q 21.140625 -20.796875 15.09375 -20.796875 
L 7.90625 -20.796875 
L 7.90625 -13.28125 
L 13.1875 -13.28125 
Q 16.890625 -13.28125 18.9375 -11.515625 
Q 21 -9.765625 23.484375 -3.21875 
L 25.09375 0.875 
L 2.984375 54.6875 
L 12.5 54.6875 
L 29.59375 11.921875 
L 46.6875 54.6875 
L 56.203125 54.6875 
z
" id="DejaVuSans-121"/>
     </defs>
     <g transform="translate(203.402398 177.326848)scale(0.1 -0.1)">
      <use xlink:href="#DejaVuSans-80"/>
      <use x="60.287109" xlink:href="#DejaVuSans-114"/>
      <use x="101.369141" xlink:href="#DejaVuSans-101"/>
      <use x="162.892578" xlink:href="#DejaVuSans-100"/>
      <use x="226.369141" xlink:href="#DejaVuSans-105"/>
      <use x="254.152344" xlink:href="#DejaVuSans-99"/>
      <use x="309.132812" xlink:href="#DejaVuSans-116"/>
      <use x="348.341797" xlink:href="#DejaVuSans-101"/>
      <use x="409.865234" xlink:href="#DejaVuSans-100"/>
      <use x="473.341797" xlink:href="#DejaVuSans-32"/>
      <use x="505.128906" xlink:href="#DejaVuSans-121"/>
     </g>
    </g>
   </g>
   <g id="patch_5">
    <path d="M 15.757609 149.050286 
L 447.48 149.050286 
" style="fill:none;stroke:#000000;stroke-linecap:square;stroke-linejoin:miter;stroke-width:0.8;"/>
   </g>
  </g>
 </g>
 <defs>
  <clipPath id="p89f79e75d9">
   <rect height="143.245286" width="431.722391" x="15.757609" y="5.805"/>
  </clipPath>
 </defs>
</svg>
