<svg height="247.7" viewBox="0 0 460.8 185.8" width="614.4" xmlns="http://www.w3.org/2000/svg" xmlns:xlink="http://www.w3.org/1999/xlink"><defs><style>*{stroke-linecap:butt;stroke-linejoin:round}</style></defs><g id="figure_1"><path d="M0 185.8h460.8V0H0z" fill="#fff" id="patch_1"/><g id="axes_1"><path d="M15.8 149h431.7V5.9H15.8z" fill="#fff" id="patch_2"/><path clip-path="url(#p89f79e75d9)" d="M35.4 142.5H64.9l.6-.1H70l.7-.1h3.2l.6-.1H77.1l.6-.1H80.3l.6-.1H82.2l.6-.1H84.8l.6-.1H86.7l.6-.1H88.6l.7-.1h1.2l.7-.1h.6l.7-.1h.6l.6-.1h.7l.6-.1h.7l.6-.1.6-.1h.7l.6-.1.7-.1h.6l.7-.2h.6l.6-.2h.7l.6-.2h.7l.6-.2h.6l.7-.2.6-.1.7-.2.6-.1.6-.2.7-.1.6-.2.7-.1.6-.2.7-.2.6-.1.6-.2.7-.2.6-.2.7-.2.6-.2.6-.2.7-.2.6-.2.7-.3.6-.2.7-.2.6-.3.6-.2.7-.3.6-.3.7-.2.6-.3.6-.3.7-.3.6-.3.7-.3.6-.3.6-.3.7-.3.6-.3.7-.4.6-.3.7-.4.6-.3.6-.4.7-.4.6-.4.7-.4.6-.4.6-.4.7-.5.6-.4.7-.5.6-.5.6-.4.7-.5.6-.5.7-.6.6-.5.7-.5.6-.6.6-.6.7-.6.6-.6.7-.6.6-.6.6-.7.7-.6.6-.7.7-.7.6-.7.6-.7.7-.8.6-.7.7-.8.6-.8.7-.8.6-.8.6-.8.7-.8.6-.9.7-.9.6-.8.6-1 .7-.8.6-1 .7-.9.6-.9.7-1 .6-.9.6-1 .7-1 .6-1 .7-1 .6-1 .6-1 .7-1 .6-1 .7-1 .6-1 .6-1 .7-1.1.6-1 .7-1.1.6-1 .7-1.1.6-1.1.6-1 .7-1.1.6-1.1.7-1 .6-1.2.6-1 .7-1.1.6-1 .7-1.2.6-1 .6-1.1.7-1.1.6-1.1.7-1 .6-1.2.7-1 .6-1.2.6-1 .7-1.1.6-1.1.7-1.1.6-1.1.6-1.2.7-1 .6-1.2.7-1 .6-1.2.7-1 .6-1.2.6-1 .7-1.2.6-1 .7-1.2.6-1.1.6-1.1.7-1.1.6-1.1.7-1 .6-1.2.6-1 .7-1.1.6-1.1.7-1 .6-1 .7-1.1.6-1 .6-1 .7-1 .6-1 .7-1 .6-1 .6-.9.7-.9.6-.9.7-.8.6-.9.6-.8.7-.8.6-.8.7-.7.6-.7.7-.7.6-.7.6-.6.7-.6.6-.6.7-.5.6-.5.6-.4.7-.5.6-.3.7-.4.6-.3.7-.3.6-.2.6-.3.7-.1.6-.2h.7l.6-.2h1.9l.7.1h.6l.6.2.7.2.6.2.7.2.6.2.7.3.6.3.6.3.7.4.6.4.7.4.6.4.6.5.7.5.6.5.7.5.6.6.6.6.7.6.6.6.7.7.6.6.7.7.6.7.6.8.7.8.6.7.7.8.6.9.6.8.7.9.6.8.7 1 .6.9.7.9.6 1 .6.9.7 1 .6 1 .7 1 .6 1 .6 1 .7 1 .6 1.1.7 1 .6 1.2.6 1 .7 1.1.6 1 .7 1.2.6 1 .7 1.2.6 1 .6 1.2.7 1.1.6 1.1.7 1.1.6 1.1.6 1.2.7 1 .6 1.2.7 1 .6 1.2.6 1.1.7 1.1.6 1.1.7 1.1.6 1.1.7 1.1.6 1.1.6 1.1.7 1.1.6 1.1.7 1.1.6 1 .6 1.2.7 1 .6 1.2.7 1 .6 1.1.7 1.1.6 1 .6 1.1.7 1.1.6 1 .7 1.1.6 1 .6 1 .7 1.1.6 1 .7 1 .6 1 .6 1 .7 1 .6 1 .7 1 .6 1 .7.9.6 1 .6.8.7 1 .6.8.7 1 .6.8.6.9.7.8.6.8.7.9.6.8.6.8.7.7.6.8.7.8.6.7.7.7.6.7.6.7.7.7.6.7.7.7.6.6.6.7.7.6.6.6.7.7.6.6.7.6.6.5.6.6.7.5.6.6.7.5.6.5.6.6.7.5.6.5.7.4.6.5.6.5.7.4.6.5.7.4.6.4.7.4.6.4.6.4.7.4.6.4.7.3.6.4.6.3.7.4.6.3.7.3.6.3.6.3.7.3.6.3.7.3.6.3.7.2.6.3.6.2.7.3.6.2.7.2.6.3.6.2.7.2.6.2.7.2.6.2.7.2.6.1.6.2.7.2.6.1.7.2.6.2.6.1.7.1.6.2.7.1.6.1.6.2h.7l.6.2.7.1.6.1.7.1.6.1.6.1.7.1.6.1.7.1h.6l.6.2h.7l.6.1.7.1h.6l.6.1.7.1h.6l.7.1h.6l.7.1h.6l.6.1h.7l.6.1H361.8l.6.1H363.7l.7.1H365.7l.6.1H368.9l.6.1H372.1l.6.1H375.9l.7.1H381.7l.6.1H390.7l.6.1H404.8l.6.1H428z" fill="#1f77b4" opacity=".4" id="patch_3"/><path clip-path="url(#p89f79e75d9)" d="M143.1 142.5V121l.7-.6.6-.6.6-.7.7-.6.6-.7.7-.7.6-.7.6-.7.7-.8.6-.7.7-.8.6-.8.7-.8.6-.8.6-.8.7-.8.6-.9.7-.9.6-.8.6-1 .7-.8.6-1 .7-.9.6-.9.7-1 .6-.9.6-1 .7-1 .6-1 .7-1 .6-1 .6-1 .7-1 .6-1 .7-1 .6-1 .6-1 .7-1.1.6-1 .7-1.1.6-1 .7-1.1.6-1.1.6-1 .7-1.1.6-1.1.7-1 .6-1.2.6-1 .7-1.1.6-1 .7-1.2.6-1 .6-1.1.7-1.1.6-1.1.7-1 .6-1.2.7-1 .6-1.2.6-1 .7-1.1.6-1.1.7-1.1.6-1.1.6-1.2.7-1 .6-1.2.7-1 .6-1.2.7-1 .6-1.2.6-1 .7-1.2.6-1 .7-1.2.6-1.1.6-1.1.7-1.1.6-1.1.7-1 .6-1.2.6-1 .7-1.1.6-1.1.7-1 .6-1 .7-1.1.6-1 .6-1 .7-1 .6-1 .7-1 .6-1 .6-.9.7-.9.6-.9.7-.8.6-.9.6-.8.7-.8.6-.8.7-.7.6-.7.7-.7.6-.7.6-.6.7-.6.6-.6.7-.5.6-.5.6-.4.7-.5.6-.3.7-.4.6-.3.7-.3.6-.2.6-.3.7-.1.6-.2h.7l.6-.2h1.9l.7.1h.6l.6.2.7.2.6.2.7.2.6.2.7.3.6.3.6.3.7.4.6.4.7.4.6.4.6.5.7.5.6.5.7.5.6.6.6.6.7.6.6.6.7.7.6.6.7.7.6.7.6.8.7.8.6.7.7.8.6.9.6.8.7.9.6.8.7 1 .6.9.7.9.6 1 .6.9.7 1 .6 1 .7 1 .6 1 .6 1 .7 1 .6 1.1.7 1 .6 1.2.6 1 .7 1.1.6 1 .7 1.2.6 1 .7 1.2.6 1 .6 1.2.7 1.1.6 1.1.7 1.1.6 1.1.6 1.2.7 1 .6 1.2.7 1 .6 1.2.6 1.1.7 1.1.6 1.1.7 1.1.6 1.1.7 1.1.6 1.1.6 1.1.7 1.1.6 1.1.7 1.1.6 1 .6 1.2.7 1 .6 1.2.7 1 .6 1.1.7 1.1.6 1 .6 1.1.7 1.1.6 1 .7 1.1.6 1 .6 1 .7 1.1.6 1 .7 1 .6 1 .6 1 .7 1 .6 1 .7 1 .6 1 .7.9.6 1 .6.8.7 1 .6.8.7 1 .6.8.6.9.7.8.6.8.7.9.6.8.6.8.7.7.6.8.7.8.6.7.7.7.6.7.6.7.7.7.6.7.7.7.6.6.6.7.7.6.6.6.7.7v22.5z" fill="#1f77b4" opacity=".4" id="patch_4"/><g id="matplotlib.axis_1"><g id="xtick_1"><g id="line2d_1"><defs><path d="M0 0v3.5" id="mf65895e441" stroke="#000" stroke-width=".8"/></defs><use x="18.6" xlink:href="#mf65895e441" y="149.1" stroke="#000" stroke-width=".8"/></g><g id="text_1"><defs><path d="M10.6 35.5h62.6v-8.3H10.6z" id="DejaVuSans-8722"/><path d="M40.6 39.3q7-1.5 11-6.3t4-11.8q0-10.8-7.4-16.7-7.4-6-21.1-6-4.6 0-9.4 1-4.9.9-10 2.7v9.5q4-2.4 8.9-3.6Q21.5 7 26.8 7q9.3 0 14.1 3.6 4.9 3.7 4.9 10.7 0 6.4-4.5 10Q36.8 35 28.7 35h-8.5V43h9q7.2 0 11 3 3.9 2.8 3.9 8.3 0 5.6-4 8.6t-11.4 3q-4 0-8.7-.9-4.6-.8-10.2-2.7v8.8q5.6 1.6 10.5 2.3 5 .8 9.3.8 11.2 0 17.8-5 6.5-5.2 6.5-13.9 0-6-3.5-10.2-3.4-4.2-9.8-5.8z" id="DejaVuSans-51"/></defs><g transform="matrix(.1 0 0 -.1 11.3 163.6)"><use xlink:href="#DejaVuSans-8722"/><use x="83.8" xlink:href="#DejaVuSans-51"/></g></g></g><g id="xtick_2"><use x="70.7" xlink:href="#mf65895e441" y="149.1" stroke="#000" stroke-width=".8" id="line2d_2"/><g id="text_2"><defs><path d="M19.2 8.3h34.4V0H7.3v8.3l15.3 15.6q9.7 9.8 12.2 12.6 4.7 5.3 6.6 9 2 3.7 2 7.3 0 5.8-4.2 9.5-4 3.6-10.6 3.6-4.6 0-9.8-1.6-5.1-1.6-11-4.9v10q6 2.4 11.1 3.6 5.2 1.2 9.5 1.2 11.4 0 18-5.7 6.8-5.6 6.8-15 0-4.6-1.7-8.6-1.6-4-6-9.5l-7.9-8.2L19.2 8.3z" id="DejaVuSans-50"/></defs><g transform="matrix(.1 0 0 -.1 63.4 163.6)"><use xlink:href="#DejaVuSans-8722"/><use x="83.8" xlink:href="#DejaVuSans-50"/></g></g></g><g id="xtick_3"><use x="122.9" xlink:href="#mf65895e441" y="149.1" stroke="#000" stroke-width=".8" id="line2d_3"/><g id="text_3"><defs><path d="M12.4 8.3h16.1v55.6L11 60.4v9l17.4 3.5h9.9V8.3h16V0H12.5z" id="DejaVuSans-49"/></defs><g transform="matrix(.1 0 0 -.1 115.5 163.6)"><use xlink:href="#DejaVuSans-8722"/><use x="83.8" xlink:href="#DejaVuSans-49"/></g></g></g><g id="xtick_4"><use x="175" xlink:href="#mf65895e441" y="149.1" stroke="#000" stroke-width=".8" id="line2d_4"/><g id="text_4"><defs><path d="M31.8 66.4q-7.6 0-11.5-7.5-3.8-7.5-3.8-22.5t3.8-22.5q3.9-7.5 11.5-7.5 7.7 0 11.5 7.5T47 36.4q0 15-3.8 22.5t-11.5 7.5zm0 7.8q12.2 0 18.7-9.7T57 36.4Q57 18 50.5 8.3 44-1.4 31.8-1.4 19.5-1.4 13 8.3q-6.5 9.7-6.5 28 0 18.5 6.5 28.2 6.4 9.7 18.7 9.7z" id="DejaVuSans-48"/></defs><use xlink:href="#DejaVuSans-48" transform="matrix(.1 0 0 -.1 171.8 163.6)"/></g></g><g id="xtick_5"><use x="227.1" xlink:href="#mf65895e441" y="149.1" stroke="#000" stroke-width=".8" id="line2d_5"/><use xlink:href="#DejaVuSans-49" transform="matrix(.1 0 0 -.1 224 163.6)" id="text_5"/></g><g id="xtick_6"><use x="279.2" xlink:href="#mf65895e441" y="149.1" stroke="#000" stroke-width=".8" id="line2d_6"/><use xlink:href="#DejaVuSans-50" transform="matrix(.1 0 0 -.1 276 163.6)" id="text_6"/></g><g id="xtick_7"><use x="331.3" xlink:href="#mf65895e441" y="149.1" stroke="#000" stroke-width=".8" id="line2d_7"/><use xlink:href="#DejaVuSans-51" transform="matrix(.1 0 0 -.1 328.1 163.6)" id="text_7"/></g><g id="xtick_8"><use x="383.4" xlink:href="#mf65895e441" y="149.1" stroke="#000" stroke-width=".8" id="line2d_8"/><g id="text_8"><defs><path d="M37.8 64.3l-25-39h25zM35.2 73h12.4V25.4H58v-8.2H47.6V0h-9.8v17.2h-33v9.5z" id="DejaVuSans-52"/></defs><use xlink:href="#DejaVuSans-52" transform="matrix(.1 0 0 -.1 380.3 163.6)"/></g></g><g id="xtick_9"><use x="435.6" xlink:href="#mf65895e441" y="149.1" stroke="#000" stroke-width=".8" id="line2d_9"/><g id="text_9"><defs><path d="M10.8 73h38.7v-8.4H19.8V46.7q2.2.8 4.3 1.1 2.2.4 4.3.4 12.2 0 19.4-6.7 7-6.7 7-18.1 0-11.8-7.2-18.3-7.4-6.5-20.7-6.5-4.6 0-9.4.8-4.7.7-9.8 2.3v10q4.4-2.5 9.1-3.6 4.7-1.2 9.9-1.2 8.5 0 13.4 4.4 5 4.5 5 12 0 7.7-5 12.1Q35 40 26.7 40q-4 0-7.9-.9-4-.9-8-2.7z" id="DejaVuSans-53"/></defs><use xlink:href="#DejaVuSans-53" transform="matrix(.1 0 0 -.1 432.4 163.6)"/></g></g><g id="text_10"><defs><path d="M19.7 64.8V37.4H32q6.9 0 10.6 3.6 3.8 3.5 3.8 10.1t-3.8 10.1q-3.7 3.6-10.6 3.6zm-9.9 8.1h22.3q12.2 0 18.5-5.5Q57 61.8 57 51q0-10.8-6.3-16.3t-18.5-5.5H19.7V0H9.8z" id="DejaVuSans-80"/><path d="M41.1 46.3q-1.5.9-3.3 1.3-1.8.4-4 .4-7.5 0-11.6-5-4-5-4-14.2V0H9v54.7h9v-8.5q2.9 5 7.4 7.4Q30 56 36.5 56l2-.1 2.6-.4z" id="DejaVuSans-114"/><path d="M56.2 29.6v-4.4H14.9q.6-9.3 5.6-14.1 5-4.9 14-4.9 5 0 10 1.3 4.8 1.2 9.6 3.8V2.8q-4.8-2-10-3.1-5-1.1-10.2-1.1-13.1 0-20.7 7.6-7.7 7.6-7.7 20.6 0 13.4 7.3 21.3Q20 56 32.3 56q11 0 17.5-7.1 6.4-7.1 6.4-19.3zm-9 2.6q0 7.4-4.1 11.8-4 4.4-10.7 4.4-7.5 0-12-4.3-4.5-4.2-5.2-12z" id="DejaVuSans-101"/><path d="M45.4 46.4V76h9V0h-9v8.2Q42.6 3.3 38.3 1q-4.4-2.4-10.4-2.4-10 0-16.2 7.9-6.2 8-6.2 20.8 0 12.9 6.2 20.8Q18 56 28 56q6 0 10.4-2.4 4.3-2.3 7.1-7.2zM14.8 27.3q0-10 4-15.6Q23 6.2 30.2 6.2q7.1 0 11.2 5.7 4.1 5.6 4.1 15.5t-4.1 15.5q-4.1 5.7-11.2 5.7t-11.2-5.7q-4.1-5.6-4.1-15.5z" id="DejaVuSans-100"/><path d="M9.4 54.7h9V0h-9zm0 21.3h9V64.6h-9z" id="DejaVuSans-105"/><path d="M48.8 52.6v-8.4Q45 46.3 41 47.3q-3.8 1-7.7 1-8.7 0-13.6-5.5Q15 37.3 15 27.3t4.8-15.6q4.9-5.5 13.6-5.5 4 0 7.7 1 3.9 1.1 7.7 3.2V2.1Q45 .3 41-.5q-4-1-8.6-1-12.3 0-19.6 7.8-7.3 7.8-7.3 21 0 13.4 7.4 21Q20.2 56 33 56q4.2 0 8.1-.9 4-.8 7.7-2.5z" id="DejaVuSans-99"/><path d="M18.3 70.2V54.7h18.5v-7H18.3V18q0-6.7 1.8-8.6 1.9-1.9 7.5-1.9h9.2V0h-9.2Q17.2 0 13.2 3.9T9.2 18v29.7H2.8v7h6.6v15.5z" id="DejaVuSans-116"/><path d="M32.2-5q-3.8-9.8-7.5-12.8-3.6-3-9.6-3H7.9v7.5h5.3q3.7 0 5.7 1.8 2.1 1.7 4.6 8.3l1.6 4L3 54.8h9.5l17-42.8 17.2 42.8h9.5z" id="DejaVuSans-121"/></defs><g transform="matrix(.1 0 0 -.1 203.4 177.3)"><use xlink:href="#DejaVuSans-80"/><use x="60.3" xlink:href="#DejaVuSans-114"/><use x="101.4" xlink:href="#DejaVuSans-101"/><use x="162.9" xlink:href="#DejaVuSans-100"/><use x="226.4" xlink:href="#DejaVuSans-105"/><use x="254.2" xlink:href="#DejaVuSans-99"/><use x="309.1" xlink:href="#DejaVuSans-116"/><use x="348.3" xlink:href="#DejaVuSans-101"/><use x="409.9" xlink:href="#DejaVuSans-100"/><use x="473.3" xlink:href="#DejaVuSans-32"/><use x="505.1" xlink:href="#DejaVuSans-121"/></g></g></g><path d="M15.8 149h431.7" fill="none" stroke="#000" stroke-linecap="square" stroke-width=".8" id="patch_5"/></g></g><defs><clipPath id="p89f79e75d9"><path d="M15.8 5.8h431.7V149H15.8z"/></clipPath></defs></svg>