<svg height="262.19625pt" version="1.1" viewBox="0 0 349.2 262.19625" width="349.2pt" xmlns="http://www.w3.org/2000/svg" xmlns:xlink="http://www.w3.org/1999/xlink">
 <defs>
  <style type="text/css">
*{stroke-linecap:butt;stroke-linejoin:round;}
  </style>
 </defs>
 <g id="figure_1">
  <g id="patch_1">
   <path d="M 0 262.19625 
L 349.2 262.19625 
L 349.2 0 
L 0 0 
z
" style="fill:none;"></path>
  </g>
  <g id="axes_1">
   <g id="patch_2">
    <path d="M 7.2 224.64 
L 342 224.64 
L 342 7.2 
L 7.2 7.2 
z
" style="fill:#ffffff;"></path>
   </g>
   <g id="patch_3">
    <path clip-path="url(#pcffbca411d)" d="M 22.418182 214.756364 
L 22.915509 214.75482 
L 23.412837 214.754551 
L 23.910164 214.754241 
L 24.407492 214.753885 
L 24.904819 214.753478 
L 25.402147 214.753015 
L 25.899474 214.752488 
L 26.396802 214.751119 
L 26.894129 214.750311 
L 27.391457 214.749399 
L 27.888784 214.748372 
L 28.386112 214.74722 
L 28.883439 214.745932 
L 29.380767 214.742952 
L 29.878094 214.741088 
L 30.375422 214.738241 
L 30.872749 214.735803 
L 31.370077 214.732328 
L 31.867404 214.728433 
L 32.364732 214.724852 
L 32.862059 214.720903 
L 33.359387 214.715019 
L 33.856714 214.709222 
L 34.354042 214.703582 
L 34.851369 214.697412 
L 35.348697 214.68914 
L 35.846024 214.681553 
L 36.343352 214.671766 
L 36.840679 214.661791 
L 37.338007 214.650922 
L 37.835334 214.638332 
L 38.332662 214.624605 
L 38.829989 214.610438 
L 39.327317 214.595117 
L 39.824644 214.57781 
L 40.321972 214.559868 
L 40.819299 214.541347 
L 41.316627 214.521551 
L 41.813954 214.49967 
L 42.311282 214.476308 
L 42.808609 214.451415 
L 43.305937 214.421858 
L 43.803264 214.392459 
L 44.300592 214.361958 
L 44.797919 214.329655 
L 45.295247 214.29319 
L 45.792574 214.255981 
L 46.289902 214.217433 
L 46.787229 214.176082 
L 47.284557 214.133303 
L 47.781884 214.088416 
L 48.279212 214.03908 
L 48.776539 213.986421 
L 49.273867 213.93178 
L 49.771194 213.875201 
L 50.765849 213.81366 
L 51.263171 213.752106 
L 51.760498 213.687879 
L 52.257826 213.617859 
L 52.755153 213.546108 
L 53.252475 213.474334 
L 53.749802 213.398374 
L 54.24713 213.318739 
L 54.744457 213.235276 
L 55.241779 213.151674 
L 55.739112 213.059925 
L 56.236428 212.96375 
L 56.733755 212.866773 
L 57.231083 212.764 
L 57.72841 212.660379 
L 58.225738 212.554017 
L 58.723065 212.443469 
L 59.220393 212.330129 
L 59.717708 212.209476 
L 60.215036 212.085467 
L 60.712363 211.955829 
L 61.209691 211.823307 
L 61.707018 211.687284 
L 62.204346 211.543187 
L 62.701673 211.396462 
L 63.199001 211.24659 
L 63.696316 211.091426 
L 64.193644 210.929235 
L 64.690971 210.759542 
L 65.188299 210.587221 
L 65.685626 210.407987 
L 66.182954 210.224541 
L 66.680281 210.033136 
L 67.177609 209.838649 
L 67.674924 209.638352 
L 68.172252 209.429053 
L 68.669579 209.209341 
L 69.166907 208.985317 
L 69.664234 208.75801 
L 70.161562 208.522478 
L 70.658889 208.275244 
L 71.156205 208.022297 
L 71.653532 207.764543 
L 72.15086 207.49072 
L 72.648187 207.208471 
L 73.145515 206.916802 
L 73.642842 206.618445 
L 74.14017 206.310484 
L 74.637497 205.994931 
L 75.134813 205.668024 
L 75.63214 205.330018 
L 76.129468 204.979725 
L 76.626795 204.618896 
L 77.124123 204.246562 
L 77.62145 203.863958 
L 78.118778 203.467966 
L 78.616093 203.05421 
L 79.113421 202.634372 
L 79.610748 202.197824 
L 80.108076 201.747027 
L 80.605403 201.280045 
L 81.102731 200.796996 
L 81.600058 200.305049 
L 82.097386 199.793401 
L 82.594701 199.274001 
L 83.092029 198.733313 
L 83.589356 198.179524 
L 84.086684 197.607527 
L 84.584011 197.02836 
L 85.081339 196.423396 
L 85.578666 195.807598 
L 86.075982 195.171868 
L 86.573309 194.514913 
L 87.070637 193.839752 
L 87.567964 193.156924 
L 88.065292 192.454011 
L 88.562619 191.732872 
L 89.059947 190.992602 
L 89.557274 190.244128 
L 90.05459 189.474194 
L 90.551917 188.694577 
L 91.049245 187.899653 
L 91.546572 187.088576 
L 92.0439 186.256735 
L 92.541227 185.41798 
L 93.038555 184.553702 
L 93.535882 183.679285 
L 94.033198 182.791694 
L 94.530525 181.895049 
L 95.027853 180.985128 
L 95.52518 180.058437 
L 96.022508 179.115979 
L 96.519835 178.154409 
L 97.017163 177.182361 
L 97.514478 176.199778 
L 98.011806 175.19319 
L 98.509133 174.176114 
L 99.006461 173.146836 
L 99.503788 172.102867 
L 100.001116 171.046339 
L 100.498443 169.961067 
L 100.995771 168.862361 
L 101.493086 167.753905 
L 101.990414 166.633404 
L 102.487741 165.491714 
L 102.985069 164.335479 
L 103.482396 163.160987 
L 103.979724 161.96019 
L 104.477051 160.746368 
L 104.974366 159.516628 
L 105.471694 158.269693 
L 105.969022 156.999706 
L 106.466349 155.713219 
L 106.963677 154.405257 
L 107.461004 153.083462 
L 107.958332 151.745817 
L 108.455659 150.387968 
L 108.952974 149.00964 
L 109.450302 147.610727 
L 109.947629 146.205948 
L 110.444957 144.776501 
L 110.942284 143.329442 
L 111.439612 141.870765 
L 111.936939 140.398476 
L 112.434255 138.894625 
L 112.931582 137.380233 
L 113.42891 135.85218 
L 113.926237 134.306407 
L 114.423565 132.749768 
L 114.920892 131.171744 
L 115.41822 129.594196 
L 115.915547 127.99112 
L 116.412863 126.378602 
L 116.91019 124.743217 
L 117.407518 123.095709 
L 117.904845 121.428495 
L 118.402173 119.76225 
L 118.8995 118.086563 
L 119.396828 116.382359 
L 119.894155 114.686786 
L 120.391471 112.966893 
L 120.888798 111.231869 
L 121.386126 109.49952 
L 121.883453 107.753385 
L 122.380781 105.993195 
L 122.878108 104.228866 
L 123.375436 102.452242 
L 123.872751 100.66731 
L 124.370079 98.891304 
L 124.867406 97.095291 
L 125.364734 95.289526 
L 125.862061 93.499002 
L 126.359389 91.698371 
L 126.856716 89.903178 
L 127.354044 88.098031 
L 127.851359 86.294554 
L 128.348687 84.502967 
L 128.846014 82.709528 
L 129.343342 80.908995 
L 129.840669 79.115788 
L 130.337997 77.329508 
L 130.835324 75.553063 
L 131.33264 73.789195 
L 131.829967 72.026318 
L 132.327295 70.275605 
L 132.824622 68.536369 
L 133.32195 66.798434 
L 133.819277 65.077954 
L 134.316605 63.382676 
L 134.813932 61.695051 
L 135.311248 60.007033 
L 135.808575 58.348022 
L 136.305903 56.704649 
L 136.80323 55.0764 
L 137.300558 53.46928 
L 137.797885 51.878673 
L 138.295213 50.299089 
L 138.79254 48.76315 
L 139.289856 47.241175 
L 139.787183 45.7434 
L 140.284511 44.266448 
L 140.781838 42.829464 
L 141.279166 41.422505 
L 141.776493 40.036664 
L 142.273821 38.689822 
L 142.771136 37.361666 
L 143.268464 36.071339 
L 143.765791 34.813307 
L 144.263119 33.581505 
L 144.760446 32.39056 
L 145.257774 31.237188 
L 145.755101 30.12143 
L 146.252429 29.045343 
L 146.749744 28.021016 
L 147.247072 27.023676 
L 147.744399 26.071332 
L 148.241727 25.173522 
L 148.739054 24.320905 
L 149.236382 23.510589 
L 149.733709 22.736956 
L 150.231025 22.010796 
L 150.728352 21.337524 
L 151.22568 20.710988 
L 151.723007 20.135661 
L 152.220335 19.607456 
L 152.717662 19.130503 
L 153.21499 18.703739 
L 153.712317 18.334742 
L 154.209633 18.016553 
L 154.70696 17.739279 
L 155.204288 17.511484 
L 155.701615 17.327354 
L 156.198943 17.196097 
L 156.69627 17.113837 
L 157.193586 17.083636 
L 157.690925 17.094524 
L 158.188241 17.165004 
L 158.68558 17.284485 
L 159.182896 17.445807 
L 159.680211 17.668265 
L 160.177551 17.944615 
L 160.674866 18.268165 
L 161.172206 18.636793 
L 161.669521 19.063161 
L 162.166861 19.540332 
L 162.664176 20.067828 
L 163.161516 20.635676 
L 163.658831 21.255032 
L 164.156147 21.927271 
L 164.653486 22.634056 
L 165.150802 23.401113 
L 165.648141 24.200332 
L 166.145457 25.062623 
L 166.642796 25.971958 
L 167.140112 26.927265 
L 167.637427 27.927258 
L 168.134767 28.985423 
L 168.632082 30.081226 
L 169.129422 31.217487 
L 169.626737 32.390906 
L 170.124077 33.600386 
L 170.621392 34.851031 
L 171.118707 36.132632 
L 171.616047 37.45792 
L 172.113362 38.819203 
L 172.610702 40.212308 
L 173.108017 41.633325 
L 173.605357 43.091698 
L 174.102672 44.55571 
L 174.600012 46.054179 
L 175.097328 47.585864 
L 175.594643 49.124656 
L 176.091983 50.696078 
L 176.589298 52.291865 
L 177.086638 53.897384 
L 177.583953 55.528144 
L 178.081293 57.173197 
L 178.578608 58.827394 
L 179.075923 60.498425 
L 179.573263 62.186855 
L 180.070578 63.867264 
L 180.567918 65.573349 
L 181.065233 67.284199 
L 181.562573 68.992748 
L 182.059888 70.720254 
L 182.557204 72.444208 
L 183.054543 74.184006 
L 183.551859 75.93236 
L 184.049198 77.671972 
L 184.546514 79.419752 
L 185.043853 81.181584 
L 185.541169 82.941371 
L 186.038484 84.699855 
L 186.535824 86.462092 
L 187.033139 88.219323 
L 187.530479 89.991126 
L 188.027794 91.754448 
L 188.525134 93.518756 
L 189.022449 95.297795 
L 189.519789 97.069184 
L 190.017104 98.836309 
L 190.51442 100.604291 
L 191.011759 102.39209 
L 191.509075 104.163214 
L 192.006414 105.93429 
L 192.50373 107.708832 
L 193.001069 109.472176 
L 193.498385 111.23858 
L 193.9957 112.99995 
L 194.49304 114.746407 
L 194.990355 116.49455 
L 195.487695 118.23526 
L 195.98501 119.971497 
L 196.48235 121.697581 
L 196.979665 123.412533 
L 197.476981 125.132211 
L 197.97432 126.839028 
L 198.471636 128.547981 
L 198.968975 130.232317 
L 199.466291 131.908632 
L 199.96363 133.586466 
L 200.460946 135.244427 
L 200.958285 136.881863 
L 201.455601 138.509447 
L 201.952916 140.115001 
L 202.450256 141.693611 
L 202.947571 143.276903 
L 203.444911 144.840023 
L 203.942226 146.367912 
L 204.439566 147.886622 
L 204.936881 149.383439 
L 205.434197 150.867185 
L 205.931536 152.323669 
L 206.428852 153.750979 
L 206.926191 155.161869 
L 207.423507 156.549868 
L 207.920846 157.919349 
L 208.418162 159.25448 
L 208.915477 160.564991 
L 209.412817 161.853612 
L 209.910132 163.114756 
L 210.407472 164.359611 
L 210.904787 165.584655 
L 211.402127 166.785466 
L 211.899442 167.969292 
L 212.396758 169.125102 
L 212.894097 170.248688 
L 213.391413 171.351869 
L 213.888752 172.427887 
L 214.386068 173.484756 
L 214.883407 174.528757 
L 215.380723 175.545757 
L 215.878062 176.533533 
L 216.375378 177.504469 
L 216.872693 178.460206 
L 217.370033 179.393488 
L 217.867348 180.307955 
L 218.364688 181.204014 
L 218.862003 182.089475 
L 219.359343 182.955934 
L 219.856658 183.804063 
L 220.353974 184.648229 
L 220.851313 185.467195 
L 221.348629 186.273783 
L 221.845968 187.05714 
L 222.343284 187.824028 
L 222.840623 188.576936 
L 223.337939 189.314609 
L 223.835254 190.035871 
L 224.332594 190.745075 
L 224.829909 191.438164 
L 225.327249 192.124062 
L 225.824564 192.795799 
L 226.321904 193.455972 
L 226.819219 194.097827 
L 227.316559 194.728786 
L 227.813874 195.339094 
L 228.31119 195.9443 
L 228.808529 196.534235 
L 229.305845 197.107733 
L 229.803184 197.671781 
L 230.3005 198.212336 
L 230.797839 198.748257 
L 231.295155 199.267936 
L 231.79247 199.777947 
L 232.28981 200.26948 
L 232.787125 200.745478 
L 233.284465 201.207269 
L 233.78178 201.665197 
L 234.27912 202.109702 
L 234.776435 202.543968 
L 235.273751 202.964732 
L 235.77109 203.381065 
L 236.268406 203.780907 
L 236.765745 204.174482 
L 237.263061 204.550828 
L 237.7604 204.919689 
L 238.257716 205.279528 
L 238.755031 205.628401 
L 239.252371 205.970045 
L 239.749686 206.303617 
L 240.247026 206.628417 
L 240.744341 206.940593 
L 241.241681 207.245421 
L 241.738996 207.542149 
L 242.236336 207.828183 
L 242.733651 208.109862 
L 243.230966 208.37946 
L 243.728306 208.646172 
L 244.225621 208.902726 
L 244.722961 209.144934 
L 245.220276 209.381605 
L 245.717616 209.608525 
L 246.214931 209.828799 
L 246.712247 210.037768 
L 247.209586 210.24133 
L 247.706902 210.43926 
L 248.204241 210.62745 
L 248.701557 210.809645 
L 249.198896 210.986308 
L 249.696212 211.159258 
L 250.193527 211.32034 
L 250.690867 211.476992 
L 251.188182 211.630964 
L 251.685522 211.773276 
L 252.182837 211.910769 
L 252.680177 212.041415 
L 253.177492 212.164838 
L 253.674832 212.282724 
L 254.172147 212.39457 
L 254.669463 212.501296 
L 255.166802 212.605684 
L 255.664118 212.699635 
L 256.161457 212.791398 
L 256.658773 212.878168 
L 257.156112 212.961531 
L 257.653428 213.040896 
L 258.150743 213.119069 
L 258.648083 213.189931 
L 259.145398 213.258813 
L 259.642738 213.323708 
L 260.140053 213.385559 
L 260.637393 213.443878 
L 261.134708 213.499583 
L 261.632024 213.552161 
L 262.129363 213.604471 
L 262.626679 213.653709 
L 263.124018 213.70013 
L 263.621334 213.743966 
L 264.118673 213.788703 
L 264.615989 213.82944 
L 265.113304 213.869238 
L 265.610644 213.906117 
L 266.107959 213.941681 
L 266.605299 213.974675 
L 267.102614 214.007978 
L 267.599954 214.040097 
L 268.097269 214.069772 
L 268.594609 214.099872 
L 269.091924 214.13021 
L 269.58924 214.159319 
L 270.086579 214.185298 
L 270.583895 214.21048 
L 271.081234 214.236188 
L 271.57855 214.260808 
L 272.075889 214.283726 
L 272.573205 214.305194 
L 273.07052 214.325984 
L 273.56786 214.346102 
L 274.065175 214.366205 
L 274.562515 214.384231 
L 275.05983 214.402368 
L 275.55717 214.419193 
L 276.054485 214.436124 
L 276.551801 214.451743 
L 277.04914 214.467468 
L 277.546456 214.482539 
L 278.043795 214.49631 
L 278.541111 214.509545 
L 279.03845 214.522242 
L 279.535766 214.53505 
L 280.033105 214.546557 
L 280.530421 214.557532 
L 281.027736 214.567973 
L 281.525076 214.578535 
L 282.022391 214.588463 
L 282.519731 214.597117 
L 283.017046 214.605269 
L 283.514386 214.614231 
L 284.011701 214.621184 
L 284.509017 214.627671 
L 285.006356 214.635006 
L 285.503672 214.641028 
L 286.001011 214.645871 
L 286.498327 214.650313 
L 286.995666 214.654359 
L 287.492982 214.658017 
L 287.990297 214.661301 
L 288.487637 214.664879 
L 288.984952 214.667356 
L 289.482292 214.670175 
L 289.979607 214.671944 
L 290.476947 214.673453 
L 290.974262 214.674721 
L 291.471578 214.675771 
L 291.968917 214.677281 
L 292.466233 214.677864 
L 292.963572 214.678969 
L 293.460888 214.67921 
L 293.958227 214.680034 
L 294.455543 214.680054 
L 294.952882 214.68006 
L 295.450198 214.680072 
L 295.947513 214.68011 
L 296.444853 214.680192 
L 296.942168 214.680334 
L 297.439508 214.680554 
L 297.936823 214.680865 
L 298.434163 214.681279 
L 298.931478 214.681808 
L 299.428806 214.68246 
L 299.926133 214.683242 
L 300.423461 214.684159 
L 300.920788 214.685869 
L 301.418116 214.68696 
L 301.915443 214.688202 
L 302.412771 214.689589 
L 302.910098 214.691115 
L 303.407426 214.692772 
L 303.904753 214.69455 
L 304.402081 214.696438 
L 304.899408 214.699081 
L 305.396736 214.701055 
L 305.894063 214.703116 
L 306.391391 214.705251 
L 306.888718 214.707442 
L 307.386046 214.709677 
L 307.883373 214.711939 
L 308.380701 214.714215 
L 308.878028 214.716491 
L 309.375356 214.718754 
L 309.872683 214.720993 
L 310.370011 214.723195 
L 310.867338 214.725351 
L 311.364666 214.727451 
L 311.861993 214.729488 
L 312.359321 214.731454 
L 312.856648 214.733343 
L 313.353976 214.735152 
L 313.851303 214.736875 
L 314.348631 214.738511 
L 314.845958 214.740057 
L 315.343286 214.741512 
L 315.840613 214.742877 
L 316.337941 214.744153 
L 316.835268 214.74534 
L 317.332596 214.74644 
L 317.829923 214.747457 
L 318.327251 214.748393 
L 318.824578 214.749252 
L 319.321906 214.750036 
L 319.819233 214.75075 
L 320.316561 214.751399 
L 320.813888 214.751985 
L 321.311216 214.752513 
L 321.808543 214.752988 
L 322.305871 214.753412 
L 322.803198 214.753791 
L 323.300526 214.754127 
L 323.797853 214.754426 
L 324.295181 214.754689 
L 324.792508 214.754921 
L 325.289836 214.755124 
L 325.787163 214.755302 
L 326.284491 214.755457 
L 326.781818 214.755592 
z
" style="fill:#1f77b4;opacity:0.4;"></path>
   </g>
   <g id="matplotlib.axis_1">
    <g id="xtick_1">
     <g id="line2d_1">
      <defs>
       <path d="M 0 0 
L 0 3.5 
" id="m5f9808a558" style="stroke:#000000;stroke-width:0.8;"></path>
      </defs>
      <g>
       <use style="stroke:#000000;stroke-width:0.8;" x="55.432514" xlink:href="#m5f9808a558" y="224.64"></use>
      </g>
     </g>
     <g id="text_1">
      <!-- 1.0 -->
      <defs>
       <path d="M 12.40625 8.296875 
L 28.515625 8.296875 
L 28.515625 63.921875 
L 10.984375 60.40625 
L 10.984375 69.390625 
L 28.421875 72.90625 
L 38.28125 72.90625 
L 38.28125 8.296875 
L 54.390625 8.296875 
L 54.390625 0 
L 12.40625 0 
z
" id="DejaVuSans-49"></path>
       <path d="M 10.6875 12.40625 
L 21 12.40625 
L 21 0 
L 10.6875 0 
z
" id="DejaVuSans-46"></path>
       <path d="M 31.78125 66.40625 
Q 24.171875 66.40625 20.328125 58.90625 
Q 16.5 51.421875 16.5 36.375 
Q 16.5 21.390625 20.328125 13.890625 
Q 24.171875 6.390625 31.78125 6.390625 
Q 39.453125 6.390625 43.28125 13.890625 
Q 47.125 21.390625 47.125 36.375 
Q 47.125 51.421875 43.28125 58.90625 
Q 39.453125 66.40625 31.78125 66.40625 
z
M 31.78125 74.21875 
Q 44.046875 74.21875 50.515625 64.515625 
Q 56.984375 54.828125 56.984375 36.375 
Q 56.984375 17.96875 50.515625 8.265625 
Q 44.046875 -1.421875 31.78125 -1.421875 
Q 19.53125 -1.421875 13.0625 8.265625 
Q 6.59375 17.96875 6.59375 36.375 
Q 6.59375 54.828125 13.0625 64.515625 
Q 19.53125 74.21875 31.78125 74.21875 
z
" id="DejaVuSans-48"></path>
      </defs>
      <g transform="translate(47.480952 239.238437)scale(0.1 -0.1)">
       <use xlink:href="#DejaVuSans-49"></use>
       <use x="63.623047" xlink:href="#DejaVuSans-46"></use>
       <use x="95.410156" xlink:href="#DejaVuSans-48"></use>
      </g>
     </g>
    </g>
    <g id="xtick_2">
     <g id="line2d_2">
      <g>
       <use style="stroke:#000000;stroke-width:0.8;" x="105.945718" xlink:href="#m5f9808a558" y="224.64"></use>
      </g>
     </g>
     <g id="text_2">
      <!-- 1.5 -->
      <defs>
       <path d="M 10.796875 72.90625 
L 49.515625 72.90625 
L 49.515625 64.59375 
L 19.828125 64.59375 
L 19.828125 46.734375 
Q 21.96875 47.46875 24.109375 47.828125 
Q 26.265625 48.1875 28.421875 48.1875 
Q 40.625 48.1875 47.75 41.5 
Q 54.890625 34.8125 54.890625 23.390625 
Q 54.890625 11.625 47.5625 5.09375 
Q 40.234375 -1.421875 26.90625 -1.421875 
Q 22.3125 -1.421875 17.546875 -0.640625 
Q 12.796875 0.140625 7.71875 1.703125 
L 7.71875 11.625 
Q 12.109375 9.234375 16.796875 8.0625 
Q 21.484375 6.890625 26.703125 6.890625 
Q 35.15625 6.890625 40.078125 11.328125 
Q 45.015625 15.765625 45.015625 23.390625 
Q 45.015625 31 40.078125 35.4375 
Q 35.15625 39.890625 26.703125 39.890625 
Q 22.75 39.890625 18.8125 39.015625 
Q 14.890625 38.140625 10.796875 36.28125 
z
" id="DejaVuSans-53"></path>
      </defs>
      <g transform="translate(97.994155 239.238437)scale(0.1 -0.1)">
       <use xlink:href="#DejaVuSans-49"></use>
       <use x="63.623047" xlink:href="#DejaVuSans-46"></use>
       <use x="95.410156" xlink:href="#DejaVuSans-53"></use>
      </g>
     </g>
    </g>
    <g id="xtick_3">
     <g id="line2d_3">
      <g>
       <use style="stroke:#000000;stroke-width:0.8;" x="156.458921" xlink:href="#m5f9808a558" y="224.64"></use>
      </g>
     </g>
     <g id="text_3">
      <!-- 2.0 -->
      <defs>
       <path d="M 19.1875 8.296875 
L 53.609375 8.296875 
L 53.609375 0 
L 7.328125 0 
L 7.328125 8.296875 
Q 12.9375 14.109375 22.625 23.890625 
Q 32.328125 33.6875 34.8125 36.53125 
Q 39.546875 41.84375 41.421875 45.53125 
Q 43.3125 49.21875 43.3125 52.78125 
Q 43.3125 58.59375 39.234375 62.25 
Q 35.15625 65.921875 28.609375 65.921875 
Q 23.96875 65.921875 18.8125 64.3125 
Q 13.671875 62.703125 7.8125 59.421875 
L 7.8125 69.390625 
Q 13.765625 71.78125 18.9375 73 
Q 24.125 74.21875 28.421875 74.21875 
Q 39.75 74.21875 46.484375 68.546875 
Q 53.21875 62.890625 53.21875 53.421875 
Q 53.21875 48.921875 51.53125 44.890625 
Q 49.859375 40.875 45.40625 35.40625 
Q 44.1875 33.984375 37.640625 27.21875 
Q 31.109375 20.453125 19.1875 8.296875 
z
" id="DejaVuSans-50"></path>
      </defs>
      <g transform="translate(148.507359 239.238437)scale(0.1 -0.1)">
       <use xlink:href="#DejaVuSans-50"></use>
       <use x="63.623047" xlink:href="#DejaVuSans-46"></use>
       <use x="95.410156" xlink:href="#DejaVuSans-48"></use>
      </g>
     </g>
    </g>
    <g id="xtick_4">
     <g id="line2d_4">
      <g>
       <use style="stroke:#000000;stroke-width:0.8;" x="206.972124" xlink:href="#m5f9808a558" y="224.64"></use>
      </g>
     </g>
     <g id="text_4">
      <!-- 2.5 -->
      <g transform="translate(199.020562 239.238437)scale(0.1 -0.1)">
       <use xlink:href="#DejaVuSans-50"></use>
       <use x="63.623047" xlink:href="#DejaVuSans-46"></use>
       <use x="95.410156" xlink:href="#DejaVuSans-53"></use>
      </g>
     </g>
    </g>
    <g id="xtick_5">
     <g id="line2d_5">
      <g>
       <use style="stroke:#000000;stroke-width:0.8;" x="257.485328" xlink:href="#m5f9808a558" y="224.64"></use>
      </g>
     </g>
     <g id="text_5">
      <!-- 3.0 -->
      <defs>
       <path d="M 40.578125 39.3125 
Q 47.65625 37.796875 51.625 33 
Q 55.609375 28.21875 55.609375 21.1875 
Q 55.609375 10.40625 48.1875 4.484375 
Q 40.765625 -1.421875 27.09375 -1.421875 
Q 22.515625 -1.421875 17.65625 -0.515625 
Q 12.796875 0.390625 7.625 2.203125 
L 7.625 11.71875 
Q 11.71875 9.328125 16.59375 8.109375 
Q 21.484375 6.890625 26.8125 6.890625 
Q 36.078125 6.890625 40.9375 10.546875 
Q 45.796875 14.203125 45.796875 21.1875 
Q 45.796875 27.640625 41.28125 31.265625 
Q 36.765625 34.90625 28.71875 34.90625 
L 20.21875 34.90625 
L 20.21875 43.015625 
L 29.109375 43.015625 
Q 36.375 43.015625 40.234375 45.921875 
Q 44.09375 48.828125 44.09375 54.296875 
Q 44.09375 59.90625 40.109375 62.90625 
Q 36.140625 65.921875 28.71875 65.921875 
Q 24.65625 65.921875 20.015625 65.03125 
Q 15.375 64.15625 9.8125 62.3125 
L 9.8125 71.09375 
Q 15.4375 72.65625 20.34375 73.4375 
Q 25.25 74.21875 29.59375 74.21875 
Q 40.828125 74.21875 47.359375 69.109375 
Q 53.90625 64.015625 53.90625 55.328125 
Q 53.90625 49.265625 50.4375 45.09375 
Q 46.96875 40.921875 40.578125 39.3125 
z
" id="DejaVuSans-51"></path>
      </defs>
      <g transform="translate(249.533765 239.238437)scale(0.1 -0.1)">
       <use xlink:href="#DejaVuSans-51"></use>
       <use x="63.623047" xlink:href="#DejaVuSans-46"></use>
       <use x="95.410156" xlink:href="#DejaVuSans-48"></use>
      </g>
     </g>
    </g>
    <g id="xtick_6">
     <g id="line2d_6">
      <g>
       <use style="stroke:#000000;stroke-width:0.8;" x="307.998531" xlink:href="#m5f9808a558" y="224.64"></use>
      </g>
     </g>
     <g id="text_6">
      <!-- 3.5 -->
      <g transform="translate(300.046969 239.238437)scale(0.1 -0.1)">
       <use xlink:href="#DejaVuSans-51"></use>
       <use x="63.623047" xlink:href="#DejaVuSans-46"></use>
       <use x="95.410156" xlink:href="#DejaVuSans-53"></use>
      </g>
     </g>
    </g>
    <g id="text_7">
     <!-- Parameter -->
     <defs>
      <path d="M 19.671875 64.796875 
L 19.671875 37.40625 
L 32.078125 37.40625 
Q 38.96875 37.40625 42.71875 40.96875 
Q 46.484375 44.53125 46.484375 51.125 
Q 46.484375 57.671875 42.71875 61.234375 
Q 38.96875 64.796875 32.078125 64.796875 
z
M 9.8125 72.90625 
L 32.078125 72.90625 
Q 44.34375 72.90625 50.609375 67.359375 
Q 56.890625 61.8125 56.890625 51.125 
Q 56.890625 40.328125 50.609375 34.8125 
Q 44.34375 29.296875 32.078125 29.296875 
L 19.671875 29.296875 
L 19.671875 0 
L 9.8125 0 
z
" id="DejaVuSans-80"></path>
      <path d="M 34.28125 27.484375 
Q 23.390625 27.484375 19.1875 25 
Q 14.984375 22.515625 14.984375 16.5 
Q 14.984375 11.71875 18.140625 8.90625 
Q 21.296875 6.109375 26.703125 6.109375 
Q 34.1875 6.109375 38.703125 11.40625 
Q 43.21875 16.703125 43.21875 25.484375 
L 43.21875 27.484375 
z
M 52.203125 31.203125 
L 52.203125 0 
L 43.21875 0 
L 43.21875 8.296875 
Q 40.140625 3.328125 35.546875 0.953125 
Q 30.953125 -1.421875 24.3125 -1.421875 
Q 15.921875 -1.421875 10.953125 3.296875 
Q 6 8.015625 6 15.921875 
Q 6 25.140625 12.171875 29.828125 
Q 18.359375 34.515625 30.609375 34.515625 
L 43.21875 34.515625 
L 43.21875 35.40625 
Q 43.21875 41.609375 39.140625 45 
Q 35.0625 48.390625 27.6875 48.390625 
Q 23 48.390625 18.546875 47.265625 
Q 14.109375 46.140625 10.015625 43.890625 
L 10.015625 52.203125 
Q 14.9375 54.109375 19.578125 55.046875 
Q 24.21875 56 28.609375 56 
Q 40.484375 56 46.34375 49.84375 
Q 52.203125 43.703125 52.203125 31.203125 
z
" id="DejaVuSans-97"></path>
      <path d="M 41.109375 46.296875 
Q 39.59375 47.171875 37.8125 47.578125 
Q 36.03125 48 33.890625 48 
Q 26.265625 48 22.1875 43.046875 
Q 18.109375 38.09375 18.109375 28.8125 
L 18.109375 0 
L 9.078125 0 
L 9.078125 54.6875 
L 18.109375 54.6875 
L 18.109375 46.1875 
Q 20.953125 51.171875 25.484375 53.578125 
Q 30.03125 56 36.53125 56 
Q 37.453125 56 38.578125 55.875 
Q 39.703125 55.765625 41.0625 55.515625 
z
" id="DejaVuSans-114"></path>
      <path d="M 52 44.1875 
Q 55.375 50.25 60.0625 53.125 
Q 64.75 56 71.09375 56 
Q 79.640625 56 84.28125 50.015625 
Q 88.921875 44.046875 88.921875 33.015625 
L 88.921875 0 
L 79.890625 0 
L 79.890625 32.71875 
Q 79.890625 40.578125 77.09375 44.375 
Q 74.3125 48.1875 68.609375 48.1875 
Q 61.625 48.1875 57.5625 43.546875 
Q 53.515625 38.921875 53.515625 30.90625 
L 53.515625 0 
L 44.484375 0 
L 44.484375 32.71875 
Q 44.484375 40.625 41.703125 44.40625 
Q 38.921875 48.1875 33.109375 48.1875 
Q 26.21875 48.1875 22.15625 43.53125 
Q 18.109375 38.875 18.109375 30.90625 
L 18.109375 0 
L 9.078125 0 
L 9.078125 54.6875 
L 18.109375 54.6875 
L 18.109375 46.1875 
Q 21.1875 51.21875 25.484375 53.609375 
Q 29.78125 56 35.6875 56 
Q 41.65625 56 45.828125 52.96875 
Q 50 49.953125 52 44.1875 
z
" id="DejaVuSans-109"></path>
      <path d="M 56.203125 29.59375 
L 56.203125 25.203125 
L 14.890625 25.203125 
Q 15.484375 15.921875 20.484375 11.0625 
Q 25.484375 6.203125 34.421875 6.203125 
Q 39.59375 6.203125 44.453125 7.46875 
Q 49.3125 8.734375 54.109375 11.28125 
L 54.109375 2.78125 
Q 49.265625 0.734375 44.1875 -0.34375 
Q 39.109375 -1.421875 33.890625 -1.421875 
Q 20.796875 -1.421875 13.15625 6.1875 
Q 5.515625 13.8125 5.515625 26.8125 
Q 5.515625 40.234375 12.765625 48.109375 
Q 20.015625 56 32.328125 56 
Q 43.359375 56 49.78125 48.890625 
Q 56.203125 41.796875 56.203125 29.59375 
z
M 47.21875 32.234375 
Q 47.125 39.59375 43.09375 43.984375 
Q 39.0625 48.390625 32.421875 48.390625 
Q 24.90625 48.390625 20.390625 44.140625 
Q 15.875 39.890625 15.1875 32.171875 
z
" id="DejaVuSans-101"></path>
      <path d="M 18.3125 70.21875 
L 18.3125 54.6875 
L 36.8125 54.6875 
L 36.8125 47.703125 
L 18.3125 47.703125 
L 18.3125 18.015625 
Q 18.3125 11.328125 20.140625 9.421875 
Q 21.96875 7.515625 27.59375 7.515625 
L 36.8125 7.515625 
L 36.8125 0 
L 27.59375 0 
Q 17.1875 0 13.234375 3.875 
Q 9.28125 7.765625 9.28125 18.015625 
L 9.28125 47.703125 
L 2.6875 47.703125 
L 2.6875 54.6875 
L 9.28125 54.6875 
L 9.28125 70.21875 
z
" id="DejaVuSans-116"></path>
     </defs>
     <g transform="translate(148.5875 252.916562)scale(0.1 -0.1)">
      <use xlink:href="#DejaVuSans-80"></use>
      <use x="55.802734" xlink:href="#DejaVuSans-97"></use>
      <use x="117.082031" xlink:href="#DejaVuSans-114"></use>
      <use x="158.195312" xlink:href="#DejaVuSans-97"></use>
      <use x="219.474609" xlink:href="#DejaVuSans-109"></use>
      <use x="316.886719" xlink:href="#DejaVuSans-101"></use>
      <use x="378.410156" xlink:href="#DejaVuSans-116"></use>
      <use x="417.619141" xlink:href="#DejaVuSans-101"></use>
      <use x="479.142578" xlink:href="#DejaVuSans-114"></use>
     </g>
    </g>
   </g>
   <g id="patch_4">
    <path d="M 7.2 224.64 
L 342 224.64 
" style="fill:none;stroke:#000000;stroke-linecap:square;stroke-linejoin:miter;stroke-width:0.8;"></path>
   </g>
  </g>
 </g>
 <defs>
  <clippath id="pcffbca411d">
   <rect height="217.44" width="334.8" x="7.2" y="7.2"></rect>
  </clippath>
 </defs>
</svg>