<svg height="262.19625pt" version="1.1" viewBox="0 0 349.2 262.19625" width="349.2pt" xmlns="http://www.w3.org/2000/svg" xmlns:xlink="http://www.w3.org/1999/xlink">
 <defs>
  <style type="text/css">
*{stroke-linecap:butt;stroke-linejoin:round;}
  </style>
 </defs>
 <g id="figure_1">
  <g id="patch_1">
   <path d="M 0 262.19625 
L 349.2 262.19625 
L 349.2 0 
L 0 0 
z
" style="fill:none;"></path>
  </g>
  <g id="axes_1">
   <g id="patch_2">
    <path d="M 7.2 224.64 
L 342 224.64 
L 342 7.2 
L 7.2 7.2 
z
" style="fill:#ffffff;"></path>
   </g>
   <g id="patch_3">
    <path clip-path="url(#p80deb1406e)" d="M 22.418182 214.756364 
L 22.915509 214.75559 
L 23.412837 214.755455 
L 23.910165 214.754526 
L 24.407493 214.754213 
L 24.90482 214.753854 
L 25.402148 214.753443 
L 25.899476 214.752975 
L 26.396803 214.752444 
L 26.894131 214.751842 
L 27.391459 214.751164 
L 27.888786 214.750401 
L 28.386114 214.749546 
L 28.883442 214.748591 
L 29.380769 214.747527 
L 29.878097 214.746348 
L 30.375425 214.745045 
L 30.872752 214.743608 
L 31.37008 214.742032 
L 31.867408 214.740308 
L 32.364735 214.737654 
L 32.862063 214.735478 
L 33.359391 214.73234 
L 33.856718 214.729645 
L 34.354046 214.726728 
L 34.851374 214.72358 
L 35.348701 214.720194 
L 35.846029 214.716564 
L 36.343357 214.712686 
L 36.840684 214.708555 
L 37.338012 214.704171 
L 37.83534 214.699532 
L 38.332667 214.694642 
L 38.829995 214.689503 
L 39.327323 214.684121 
L 39.82465 214.678505 
L 40.321978 214.672665 
L 40.819306 214.666612 
L 41.316633 214.659589 
L 41.813961 214.653025 
L 42.311289 214.646279 
L 42.808616 214.639371 
L 43.305944 214.632321 
L 43.803272 214.624378 
L 44.300599 214.616978 
L 44.797927 214.609488 
L 45.295255 214.601159 
L 45.792583 214.593427 
L 46.28991 214.584886 
L 46.787238 214.576972 
L 47.284566 214.569049 
L 47.781893 214.561137 
L 48.279221 214.55171 
L 48.776549 214.543612 
L 49.273876 214.534769 
L 49.771204 214.525831 
L 50.765859 214.517563 
L 51.263181 214.509311 
L 51.760509 214.500303 
L 52.257836 214.49195 
L 52.755158 214.481269 
L 53.252486 214.472489 
L 53.749813 214.462074 
L 54.247141 214.452829 
L 54.744463 214.441867 
L 55.24179 214.431208 
L 55.739118 214.419367 
L 56.23644 214.40615 
L 56.733767 214.393659 
L 57.231095 214.380505 
L 57.728423 214.367384 
L 58.225744 214.353573 
L 58.723072 214.33746 
L 59.2204 214.320258 
L 59.717721 214.303408 
L 60.215049 214.283202 
L 60.712377 214.261487 
L 61.209698 214.23736 
L 61.707026 214.211329 
L 62.204354 214.185557 
L 62.701675 214.155648 
L 63.199003 214.124961 
L 63.696331 214.091283 
L 64.193658 214.055903 
L 64.69098 214.016492 
L 65.188308 213.973433 
L 65.685635 213.930303 
L 66.182957 213.884366 
L 66.680285 213.833977 
L 67.177612 213.780323 
L 67.67494 213.72328 
L 68.172268 213.660411 
L 68.669584 213.595843 
L 69.166911 213.529041 
L 69.664239 213.453983 
L 70.161567 213.375994 
L 70.658894 213.29286 
L 71.156222 213.205871 
L 71.65355 213.113477 
L 72.150865 213.016975 
L 72.648193 212.916372 
L 73.145521 212.810148 
L 73.642848 212.698091 
L 74.140176 212.580747 
L 74.637504 212.455693 
L 75.134831 212.324746 
L 75.632147 212.188525 
L 76.129475 212.04933 
L 76.626802 211.902147 
L 77.12413 211.748836 
L 77.621458 211.591612 
L 78.118785 211.42923 
L 78.616101 211.254047 
L 79.113429 211.074788 
L 79.610756 210.88408 
L 80.108084 210.68488 
L 80.605412 210.483025 
L 81.102739 210.274679 
L 81.600067 210.059081 
L 82.097383 209.828393 
L 82.59471 209.590462 
L 83.092038 209.34759 
L 83.589366 209.094775 
L 84.086693 208.829257 
L 84.584021 208.554021 
L 85.081337 208.270302 
L 85.578664 207.976498 
L 86.075992 207.674633 
L 86.57332 207.36171 
L 87.070647 207.035023 
L 87.567975 206.690669 
L 88.065303 206.34192 
L 88.562618 205.977248 
L 89.059946 205.604168 
L 89.557274 205.21688 
L 90.054601 204.809392 
L 90.551929 204.392648 
L 91.049257 203.960117 
L 91.546585 203.514247 
L 92.0439 203.052576 
L 92.541228 202.572289 
L 93.038556 202.076353 
L 93.535883 201.566799 
L 94.033211 201.037586 
L 94.530539 200.486338 
L 95.027866 199.911134 
L 95.525182 199.331493 
L 96.02251 198.723249 
L 96.519837 198.098299 
L 97.017165 197.45836 
L 97.514493 196.789159 
L 98.01182 196.103542 
L 98.509136 195.395936 
L 99.006464 194.669785 
L 99.503791 193.922251 
L 100.001119 193.15227 
L 100.498447 192.355702 
L 100.995774 191.538695 
L 101.493102 190.699007 
L 101.990418 189.847342 
L 102.487745 188.966912 
L 102.985073 188.068175 
L 103.482401 187.156615 
L 103.979728 186.219196 
L 104.477056 185.264338 
L 104.974372 184.285959 
L 105.471699 183.286288 
L 105.969027 182.261485 
L 106.466355 181.220411 
L 106.963682 180.167243 
L 107.46101 179.089545 
L 107.958338 177.993658 
L 108.455653 176.879009 
L 108.952981 175.755178 
L 109.450309 174.614879 
L 109.947636 173.460132 
L 110.444964 172.292435 
L 110.942292 171.11332 
L 111.439619 169.913772 
L 111.936935 168.697542 
L 112.434263 167.467781 
L 112.93159 166.235142 
L 113.428918 164.984013 
L 113.926246 163.726069 
L 114.423573 162.459091 
L 114.920901 161.186576 
L 115.418217 159.896771 
L 115.915545 158.596247 
L 116.412872 157.2963 
L 116.9102 155.973253 
L 117.407528 154.668822 
L 117.904855 153.334174 
L 118.402171 151.998033 
L 118.899499 150.640626 
L 119.396826 149.280684 
L 119.894154 147.909889 
L 120.391482 146.537643 
L 120.888809 145.158504 
L 121.386137 143.767566 
L 121.883453 142.36762 
L 122.38078 140.961182 
L 122.878108 139.550493 
L 123.375436 138.132281 
L 123.872763 136.694624 
L 124.370091 135.249493 
L 124.867407 133.794581 
L 125.364734 132.331493 
L 125.862062 130.857613 
L 126.35939 129.365161 
L 126.856717 127.858853 
L 127.354045 126.34587 
L 127.851373 124.811515 
L 128.348688 123.264353 
L 128.846016 121.708865 
L 129.343344 120.140109 
L 129.840671 118.561781 
L 130.337999 116.970341 
L 130.835327 115.364056 
L 131.332654 113.747651 
L 131.82997 112.114779 
L 132.327298 110.465186 
L 132.824625 108.805088 
L 133.321953 107.127877 
L 133.819281 105.44751 
L 134.316608 103.764214 
L 134.813936 102.056926 
L 135.311252 100.344735 
L 135.808579 98.623944 
L 136.305907 96.902581 
L 136.803235 95.15614 
L 137.300562 93.403338 
L 137.79789 91.655521 
L 138.295206 89.912378 
L 138.792533 88.160544 
L 139.289861 86.401302 
L 139.787189 84.638638 
L 140.284517 82.888267 
L 140.781844 81.123704 
L 141.279172 79.360745 
L 141.776488 77.60393 
L 142.273815 75.845836 
L 142.771143 74.102983 
L 143.268471 72.377622 
L 143.765798 70.647038 
L 144.263126 68.924695 
L 144.760442 67.211738 
L 145.257769 65.508093 
L 145.755097 63.822486 
L 146.252425 62.144688 
L 146.749752 60.484072 
L 147.24708 58.837631 
L 147.744408 57.204075 
L 148.241723 55.583318 
L 148.739051 53.965359 
L 149.236379 52.384934 
L 149.733706 50.826324 
L 150.231034 49.293662 
L 150.728362 47.779076 
L 151.225689 46.276386 
L 151.723005 44.801836 
L 152.220333 43.354586 
L 152.71766 41.930571 
L 153.214988 40.533358 
L 153.712316 39.173431 
L 154.209643 37.830387 
L 154.706971 36.516604 
L 155.204287 35.239588 
L 155.701614 33.99484 
L 156.198942 32.795686 
L 156.69627 31.626581 
L 157.193597 30.497378 
L 157.690925 29.393724 
L 158.188241 28.341212 
L 158.685568 27.317554 
L 159.182896 26.332267 
L 159.680224 25.39132 
L 160.177551 24.491163 
L 160.674879 23.644386 
L 161.172207 22.844907 
L 161.669522 22.117484 
L 162.16685 21.416371 
L 162.664178 20.75748 
L 163.161506 20.154866 
L 163.658833 19.605368 
L 164.156161 19.112107 
L 164.653477 18.666167 
L 165.150804 18.275353 
L 165.648132 17.926284 
L 166.14546 17.642909 
L 166.642787 17.413859 
L 167.140115 17.247477 
L 167.637443 17.138606 
L 168.134758 17.083636 
L 168.632098 17.086535 
L 169.129414 17.147187 
L 169.626753 17.247465 
L 170.124069 17.412786 
L 170.621385 17.613331 
L 171.118724 17.886395 
L 171.61604 18.211312 
L 172.11338 18.573679 
L 172.610695 19.016461 
L 173.108011 19.482507 
L 173.605351 20.015489 
L 174.102666 20.598144 
L 174.600006 21.241748 
L 175.097322 21.922131 
L 175.594661 22.642904 
L 176.091977 23.404453 
L 176.589293 24.218452 
L 177.086632 25.069714 
L 177.583948 25.95503 
L 178.081288 26.895113 
L 178.578603 27.864273 
L 179.075943 28.863323 
L 179.573259 29.913889 
L 180.070574 30.994672 
L 180.567914 32.108761 
L 181.06523 33.253248 
L 181.562569 34.429603 
L 182.059885 35.64428 
L 182.557225 36.885544 
L 183.05454 38.156022 
L 183.551856 39.460791 
L 184.049196 40.787677 
L 184.546511 42.137825 
L 185.043851 43.516109 
L 185.541167 44.911187 
L 186.038506 46.324289 
L 186.535822 47.762395 
L 187.033138 49.220216 
L 187.530478 50.704789 
L 188.027793 52.207379 
L 188.525133 53.724065 
L 189.022449 55.265004 
L 189.519764 56.812372 
L 190.017104 58.378273 
L 190.51442 59.971263 
L 191.011759 61.56956 
L 191.509075 63.185367 
L 192.006415 64.79925 
L 192.50373 66.442492 
L 193.001046 68.096797 
L 193.498386 69.760286 
L 193.995701 71.422284 
L 194.493041 73.094346 
L 194.990357 74.780931 
L 195.487696 76.478844 
L 195.985012 78.169467 
L 196.482328 79.884357 
L 196.979667 81.603849 
L 197.476983 83.319223 
L 197.974323 85.043092 
L 198.471638 86.766769 
L 198.968978 88.488142 
L 199.466294 90.218652 
L 199.963609 91.954006 
L 200.460949 93.68496 
L 200.958265 95.420973 
L 201.455604 97.16105 
L 201.95292 98.897128 
L 202.45026 100.630714 
L 202.947575 102.366707 
L 203.444891 104.101453 
L 203.942231 105.839062 
L 204.439546 107.588047 
L 204.936886 109.310287 
L 205.434202 111.027404 
L 205.931541 112.742159 
L 206.428857 114.461509 
L 206.926173 116.168833 
L 207.423512 117.880707 
L 207.920828 119.577632 
L 208.418168 121.265644 
L 208.915483 122.954621 
L 209.412823 124.620808 
L 209.910139 126.29358 
L 210.407454 127.958279 
L 210.904794 129.60497 
L 211.40211 131.241314 
L 211.89945 132.862927 
L 212.396765 134.476796 
L 212.894081 136.077092 
L 213.391421 137.66888 
L 213.888736 139.244464 
L 214.386076 140.814235 
L 214.883392 142.36757 
L 215.380731 143.911994 
L 215.878047 145.439411 
L 216.375363 146.947821 
L 216.872702 148.441115 
L 217.370018 149.900364 
L 217.867358 151.361926 
L 218.364673 152.810476 
L 218.862013 154.239997 
L 219.359329 155.651157 
L 219.856644 157.042861 
L 220.353984 158.414612 
L 220.8513 159.770562 
L 221.348639 161.121772 
L 221.845955 162.441907 
L 222.343295 163.744414 
L 222.84061 165.028921 
L 223.337926 166.299338 
L 223.835266 167.550537 
L 224.332581 168.773768 
L 224.829921 169.98456 
L 225.327237 171.188241 
L 225.824576 172.361664 
L 226.321892 173.531266 
L 226.819208 174.663773 
L 227.316547 175.782356 
L 227.813863 176.884199 
L 228.311203 177.949925 
L 228.808518 178.998671 
L 229.305834 180.030875 
L 229.803174 181.036246 
L 230.300489 182.019403 
L 230.797829 182.984935 
L 231.295145 183.934007 
L 231.792484 184.857752 
L 232.2898 185.75142 
L 232.787116 186.629329 
L 233.284455 187.492492 
L 233.781771 188.317496 
L 234.279111 189.127807 
L 234.776427 189.923901 
L 235.273766 190.689904 
L 235.771082 191.435706 
L 236.268398 192.159173 
L 236.765737 192.865411 
L 237.263053 193.549098 
L 237.760393 194.210969 
L 238.257708 194.854918 
L 238.755048 195.474043 
L 239.252364 196.074977 
L 239.749679 196.660038 
L 240.247019 197.226238 
L 240.744335 197.773776 
L 241.241674 198.309381 
L 241.73899 198.835553 
L 242.23633 199.341759 
L 242.733645 199.830277 
L 243.230961 200.300794 
L 243.728301 200.765725 
L 244.225616 201.217825 
L 244.722956 201.652211 
L 245.220272 202.075963 
L 245.717611 202.48528 
L 246.214927 202.882114 
L 246.712243 203.274171 
L 247.209582 203.649608 
L 247.706898 204.017464 
L 248.204238 204.374259 
L 248.701553 204.719688 
L 249.198893 205.052316 
L 249.696209 205.377423 
L 250.193524 205.696216 
L 250.690864 206.006447 
L 251.18818 206.307538 
L 251.685519 206.600333 
L 252.182835 206.879654 
L 252.680151 207.150335 
L 253.17749 207.415071 
L 253.674806 207.672205 
L 254.172146 207.917937 
L 254.669461 208.156971 
L 255.166801 208.387972 
L 255.664117 208.613118 
L 256.161432 208.831655 
L 256.658772 209.042314 
L 257.156088 209.241425 
L 257.653427 209.437741 
L 258.150743 209.627547 
L 258.648083 209.80772 
L 259.145399 209.985509 
L 259.642714 210.157233 
L 260.140054 210.319147 
L 260.63737 210.475996 
L 261.134709 210.631185 
L 261.632025 210.779082 
L 262.129365 210.920856 
L 262.62668 211.060816 
L 263.123996 211.191472 
L 263.621336 211.320956 
L 264.118651 211.447649 
L 264.615991 211.570851 
L 265.113307 211.68999 
L 265.610646 211.803943 
L 266.107962 211.911124 
L 266.605278 212.018748 
L 267.102617 212.125065 
L 267.599933 212.224654 
L 268.097273 212.322132 
L 268.594588 212.416828 
L 269.091904 212.508182 
L 269.589244 212.597697 
L 270.086559 212.684685 
L 270.583899 212.76791 
L 271.081215 212.8483 
L 271.578554 212.928506 
L 272.07587 213.004299 
L 272.573186 213.078787 
L 273.070525 213.151875 
L 273.567841 213.224146 
L 274.065181 213.291489 
L 274.562496 213.359624 
L 275.059836 213.423547 
L 275.557152 213.486242 
L 276.054467 213.546301 
L 276.551807 213.605161 
L 277.049123 213.659442 
L 277.546462 213.714165 
L 278.043778 213.766364 
L 278.541118 213.818123 
L 279.038433 213.865297 
L 279.535749 213.911605 
L 280.033089 213.956261 
L 280.530404 213.999916 
L 281.027744 214.041152 
L 281.52506 214.081401 
L 282.0224 214.118594 
L 282.519715 214.157555 
L 283.017031 214.191863 
L 283.514371 214.224621 
L 284.011686 214.256497 
L 284.509026 214.286095 
L 285.006342 214.314863 
L 285.503681 214.342065 
L 286.000997 214.367085 
L 286.498313 214.390721 
L 286.995652 214.413004 
L 287.492968 214.433967 
L 287.990308 214.452988 
L 288.487623 214.471523 
L 288.984963 214.488183 
L 289.482279 214.504432 
L 289.979594 214.519544 
L 290.476934 214.532916 
L 290.97425 214.548644 
L 291.471589 214.560351 
L 291.968905 214.571184 
L 292.466221 214.581191 
L 292.96356 214.589769 
L 293.460876 214.598383 
L 293.958216 214.606315 
L 294.455531 214.61296 
L 294.952871 214.619786 
L 295.450187 214.626073 
L 295.947502 214.631216 
L 296.444842 214.636023 
L 296.942158 214.640526 
L 297.439497 214.64476 
L 297.936813 214.65007 
L 298.434153 214.65497 
L 298.931468 214.658861 
L 299.428796 214.661894 
L 299.926124 214.66486 
L 300.423451 214.667772 
L 300.920779 214.670645 
L 301.418107 214.673488 
L 301.915434 214.676967 
L 302.412762 214.679676 
L 302.91009 214.683047 
L 303.407417 214.68567 
L 303.904745 214.688971 
L 304.402073 214.691534 
L 304.899401 214.694127 
L 305.396728 214.696742 
L 305.894056 214.699371 
L 306.391384 214.702006 
L 306.888711 214.70464 
L 307.386039 214.707261 
L 307.883367 214.709862 
L 308.380694 214.712434 
L 308.878022 214.715624 
L 309.37535 214.718666 
L 309.872677 214.72091 
L 310.370005 214.723117 
L 310.867333 214.725278 
L 311.36466 214.727383 
L 311.861988 214.729425 
L 312.359316 214.731395 
L 312.856643 214.733289 
L 313.353971 214.735102 
L 313.851299 214.736829 
L 314.348626 214.738469 
L 314.845954 214.740018 
L 315.343282 214.741477 
L 315.840609 214.742846 
L 316.337937 214.744124 
L 316.835265 214.745314 
L 317.332592 214.746417 
L 317.82992 214.747436 
L 318.327248 214.748374 
L 318.824575 214.749235 
L 319.321903 214.750021 
L 319.819231 214.750737 
L 320.316558 214.751387 
L 320.813886 214.751975 
L 321.311214 214.752504 
L 321.808541 214.75298 
L 322.305869 214.753405 
L 322.803197 214.753785 
L 323.300524 214.754122 
L 323.797852 214.754421 
L 324.29518 214.754685 
L 324.792507 214.754918 
L 325.289835 214.755121 
L 325.787163 214.7553 
L 326.284491 214.755455 
L 326.781818 214.75559 
z
" style="fill:#1f77b4;opacity:0.4;"></path>
   </g>
   <g id="matplotlib.axis_1">
    <g id="xtick_1">
     <g id="line2d_1">
      <defs>
       <path d="M 0 0 
L 0 3.5 
" id="mdc0cde0006" style="stroke:#000000;stroke-width:0.8;"></path>
      </defs>
      <g>
       <use style="stroke:#000000;stroke-width:0.8;" x="17.223741" xlink:href="#mdc0cde0006" y="224.64"></use>
      </g>
     </g>
     <g id="text_1">
      <!-- 0.5 -->
      <defs>
       <path d="M 31.78125 66.40625 
Q 24.171875 66.40625 20.328125 58.90625 
Q 16.5 51.421875 16.5 36.375 
Q 16.5 21.390625 20.328125 13.890625 
Q 24.171875 6.390625 31.78125 6.390625 
Q 39.453125 6.390625 43.28125 13.890625 
Q 47.125 21.390625 47.125 36.375 
Q 47.125 51.421875 43.28125 58.90625 
Q 39.453125 66.40625 31.78125 66.40625 
z
M 31.78125 74.21875 
Q 44.046875 74.21875 50.515625 64.515625 
Q 56.984375 54.828125 56.984375 36.375 
Q 56.984375 17.96875 50.515625 8.265625 
Q 44.046875 -1.421875 31.78125 -1.421875 
Q 19.53125 -1.421875 13.0625 8.265625 
Q 6.59375 17.96875 6.59375 36.375 
Q 6.59375 54.828125 13.0625 64.515625 
Q 19.53125 74.21875 31.78125 74.21875 
z
" id="DejaVuSans-48"></path>
       <path d="M 10.6875 12.40625 
L 21 12.40625 
L 21 0 
L 10.6875 0 
z
" id="DejaVuSans-46"></path>
       <path d="M 10.796875 72.90625 
L 49.515625 72.90625 
L 49.515625 64.59375 
L 19.828125 64.59375 
L 19.828125 46.734375 
Q 21.96875 47.46875 24.109375 47.828125 
Q 26.265625 48.1875 28.421875 48.1875 
Q 40.625 48.1875 47.75 41.5 
Q 54.890625 34.8125 54.890625 23.390625 
Q 54.890625 11.625 47.5625 5.09375 
Q 40.234375 -1.421875 26.90625 -1.421875 
Q 22.3125 -1.421875 17.546875 -0.640625 
Q 12.796875 0.140625 7.71875 1.703125 
L 7.71875 11.625 
Q 12.109375 9.234375 16.796875 8.0625 
Q 21.484375 6.890625 26.703125 6.890625 
Q 35.15625 6.890625 40.078125 11.328125 
Q 45.015625 15.765625 45.015625 23.390625 
Q 45.015625 31 40.078125 35.4375 
Q 35.15625 39.890625 26.703125 39.890625 
Q 22.75 39.890625 18.8125 39.015625 
Q 14.890625 38.140625 10.796875 36.28125 
z
" id="DejaVuSans-53"></path>
      </defs>
      <g transform="translate(9.272179 239.238437)scale(0.1 -0.1)">
       <use xlink:href="#DejaVuSans-48"></use>
       <use x="63.623047" xlink:href="#DejaVuSans-46"></use>
       <use x="95.410156" xlink:href="#DejaVuSans-53"></use>
      </g>
     </g>
    </g>
    <g id="xtick_2">
     <g id="line2d_2">
      <g>
       <use style="stroke:#000000;stroke-width:0.8;" x="67.580873" xlink:href="#mdc0cde0006" y="224.64"></use>
      </g>
     </g>
     <g id="text_2">
      <!-- 1.0 -->
      <defs>
       <path d="M 12.40625 8.296875 
L 28.515625 8.296875 
L 28.515625 63.921875 
L 10.984375 60.40625 
L 10.984375 69.390625 
L 28.421875 72.90625 
L 38.28125 72.90625 
L 38.28125 8.296875 
L 54.390625 8.296875 
L 54.390625 0 
L 12.40625 0 
z
" id="DejaVuSans-49"></path>
      </defs>
      <g transform="translate(59.62931 239.238437)scale(0.1 -0.1)">
       <use xlink:href="#DejaVuSans-49"></use>
       <use x="63.623047" xlink:href="#DejaVuSans-46"></use>
       <use x="95.410156" xlink:href="#DejaVuSans-48"></use>
      </g>
     </g>
    </g>
    <g id="xtick_3">
     <g id="line2d_3">
      <g>
       <use style="stroke:#000000;stroke-width:0.8;" x="117.938004" xlink:href="#mdc0cde0006" y="224.64"></use>
      </g>
     </g>
     <g id="text_3">
      <!-- 1.5 -->
      <g transform="translate(109.986441 239.238437)scale(0.1 -0.1)">
       <use xlink:href="#DejaVuSans-49"></use>
       <use x="63.623047" xlink:href="#DejaVuSans-46"></use>
       <use x="95.410156" xlink:href="#DejaVuSans-53"></use>
      </g>
     </g>
    </g>
    <g id="xtick_4">
     <g id="line2d_4">
      <g>
       <use style="stroke:#000000;stroke-width:0.8;" x="168.295135" xlink:href="#mdc0cde0006" y="224.64"></use>
      </g>
     </g>
     <g id="text_4">
      <!-- 2.0 -->
      <defs>
       <path d="M 19.1875 8.296875 
L 53.609375 8.296875 
L 53.609375 0 
L 7.328125 0 
L 7.328125 8.296875 
Q 12.9375 14.109375 22.625 23.890625 
Q 32.328125 33.6875 34.8125 36.53125 
Q 39.546875 41.84375 41.421875 45.53125 
Q 43.3125 49.21875 43.3125 52.78125 
Q 43.3125 58.59375 39.234375 62.25 
Q 35.15625 65.921875 28.609375 65.921875 
Q 23.96875 65.921875 18.8125 64.3125 
Q 13.671875 62.703125 7.8125 59.421875 
L 7.8125 69.390625 
Q 13.765625 71.78125 18.9375 73 
Q 24.125 74.21875 28.421875 74.21875 
Q 39.75 74.21875 46.484375 68.546875 
Q 53.21875 62.890625 53.21875 53.421875 
Q 53.21875 48.921875 51.53125 44.890625 
Q 49.859375 40.875 45.40625 35.40625 
Q 44.1875 33.984375 37.640625 27.21875 
Q 31.109375 20.453125 19.1875 8.296875 
z
" id="DejaVuSans-50"></path>
      </defs>
      <g transform="translate(160.343573 239.238437)scale(0.1 -0.1)">
       <use xlink:href="#DejaVuSans-50"></use>
       <use x="63.623047" xlink:href="#DejaVuSans-46"></use>
       <use x="95.410156" xlink:href="#DejaVuSans-48"></use>
      </g>
     </g>
    </g>
    <g id="xtick_5">
     <g id="line2d_5">
      <g>
       <use style="stroke:#000000;stroke-width:0.8;" x="218.652267" xlink:href="#mdc0cde0006" y="224.64"></use>
      </g>
     </g>
     <g id="text_5">
      <!-- 2.5 -->
      <g transform="translate(210.700704 239.238437)scale(0.1 -0.1)">
       <use xlink:href="#DejaVuSans-50"></use>
       <use x="63.623047" xlink:href="#DejaVuSans-46"></use>
       <use x="95.410156" xlink:href="#DejaVuSans-53"></use>
      </g>
     </g>
    </g>
    <g id="xtick_6">
     <g id="line2d_6">
      <g>
       <use style="stroke:#000000;stroke-width:0.8;" x="269.009398" xlink:href="#mdc0cde0006" y="224.64"></use>
      </g>
     </g>
     <g id="text_6">
      <!-- 3.0 -->
      <defs>
       <path d="M 40.578125 39.3125 
Q 47.65625 37.796875 51.625 33 
Q 55.609375 28.21875 55.609375 21.1875 
Q 55.609375 10.40625 48.1875 4.484375 
Q 40.765625 -1.421875 27.09375 -1.421875 
Q 22.515625 -1.421875 17.65625 -0.515625 
Q 12.796875 0.390625 7.625 2.203125 
L 7.625 11.71875 
Q 11.71875 9.328125 16.59375 8.109375 
Q 21.484375 6.890625 26.8125 6.890625 
Q 36.078125 6.890625 40.9375 10.546875 
Q 45.796875 14.203125 45.796875 21.1875 
Q 45.796875 27.640625 41.28125 31.265625 
Q 36.765625 34.90625 28.71875 34.90625 
L 20.21875 34.90625 
L 20.21875 43.015625 
L 29.109375 43.015625 
Q 36.375 43.015625 40.234375 45.921875 
Q 44.09375 48.828125 44.09375 54.296875 
Q 44.09375 59.90625 40.109375 62.90625 
Q 36.140625 65.921875 28.71875 65.921875 
Q 24.65625 65.921875 20.015625 65.03125 
Q 15.375 64.15625 9.8125 62.3125 
L 9.8125 71.09375 
Q 15.4375 72.65625 20.34375 73.4375 
Q 25.25 74.21875 29.59375 74.21875 
Q 40.828125 74.21875 47.359375 69.109375 
Q 53.90625 64.015625 53.90625 55.328125 
Q 53.90625 49.265625 50.4375 45.09375 
Q 46.96875 40.921875 40.578125 39.3125 
z
" id="DejaVuSans-51"></path>
      </defs>
      <g transform="translate(261.057836 239.238437)scale(0.1 -0.1)">
       <use xlink:href="#DejaVuSans-51"></use>
       <use x="63.623047" xlink:href="#DejaVuSans-46"></use>
       <use x="95.410156" xlink:href="#DejaVuSans-48"></use>
      </g>
     </g>
    </g>
    <g id="xtick_7">
     <g id="line2d_7">
      <g>
       <use style="stroke:#000000;stroke-width:0.8;" x="319.36653" xlink:href="#mdc0cde0006" y="224.64"></use>
      </g>
     </g>
     <g id="text_7">
      <!-- 3.5 -->
      <g transform="translate(311.414967 239.238437)scale(0.1 -0.1)">
       <use xlink:href="#DejaVuSans-51"></use>
       <use x="63.623047" xlink:href="#DejaVuSans-46"></use>
       <use x="95.410156" xlink:href="#DejaVuSans-53"></use>
      </g>
     </g>
    </g>
    <g id="text_8">
     <!-- Parameter prior -->
     <defs>
      <path d="M 19.671875 64.796875 
L 19.671875 37.40625 
L 32.078125 37.40625 
Q 38.96875 37.40625 42.71875 40.96875 
Q 46.484375 44.53125 46.484375 51.125 
Q 46.484375 57.671875 42.71875 61.234375 
Q 38.96875 64.796875 32.078125 64.796875 
z
M 9.8125 72.90625 
L 32.078125 72.90625 
Q 44.34375 72.90625 50.609375 67.359375 
Q 56.890625 61.8125 56.890625 51.125 
Q 56.890625 40.328125 50.609375 34.8125 
Q 44.34375 29.296875 32.078125 29.296875 
L 19.671875 29.296875 
L 19.671875 0 
L 9.8125 0 
z
" id="DejaVuSans-80"></path>
      <path d="M 34.28125 27.484375 
Q 23.390625 27.484375 19.1875 25 
Q 14.984375 22.515625 14.984375 16.5 
Q 14.984375 11.71875 18.140625 8.90625 
Q 21.296875 6.109375 26.703125 6.109375 
Q 34.1875 6.109375 38.703125 11.40625 
Q 43.21875 16.703125 43.21875 25.484375 
L 43.21875 27.484375 
z
M 52.203125 31.203125 
L 52.203125 0 
L 43.21875 0 
L 43.21875 8.296875 
Q 40.140625 3.328125 35.546875 0.953125 
Q 30.953125 -1.421875 24.3125 -1.421875 
Q 15.921875 -1.421875 10.953125 3.296875 
Q 6 8.015625 6 15.921875 
Q 6 25.140625 12.171875 29.828125 
Q 18.359375 34.515625 30.609375 34.515625 
L 43.21875 34.515625 
L 43.21875 35.40625 
Q 43.21875 41.609375 39.140625 45 
Q 35.0625 48.390625 27.6875 48.390625 
Q 23 48.390625 18.546875 47.265625 
Q 14.109375 46.140625 10.015625 43.890625 
L 10.015625 52.203125 
Q 14.9375 54.109375 19.578125 55.046875 
Q 24.21875 56 28.609375 56 
Q 40.484375 56 46.34375 49.84375 
Q 52.203125 43.703125 52.203125 31.203125 
z
" id="DejaVuSans-97"></path>
      <path d="M 41.109375 46.296875 
Q 39.59375 47.171875 37.8125 47.578125 
Q 36.03125 48 33.890625 48 
Q 26.265625 48 22.1875 43.046875 
Q 18.109375 38.09375 18.109375 28.8125 
L 18.109375 0 
L 9.078125 0 
L 9.078125 54.6875 
L 18.109375 54.6875 
L 18.109375 46.1875 
Q 20.953125 51.171875 25.484375 53.578125 
Q 30.03125 56 36.53125 56 
Q 37.453125 56 38.578125 55.875 
Q 39.703125 55.765625 41.0625 55.515625 
z
" id="DejaVuSans-114"></path>
      <path d="M 52 44.1875 
Q 55.375 50.25 60.0625 53.125 
Q 64.75 56 71.09375 56 
Q 79.640625 56 84.28125 50.015625 
Q 88.921875 44.046875 88.921875 33.015625 
L 88.921875 0 
L 79.890625 0 
L 79.890625 32.71875 
Q 79.890625 40.578125 77.09375 44.375 
Q 74.3125 48.1875 68.609375 48.1875 
Q 61.625 48.1875 57.5625 43.546875 
Q 53.515625 38.921875 53.515625 30.90625 
L 53.515625 0 
L 44.484375 0 
L 44.484375 32.71875 
Q 44.484375 40.625 41.703125 44.40625 
Q 38.921875 48.1875 33.109375 48.1875 
Q 26.21875 48.1875 22.15625 43.53125 
Q 18.109375 38.875 18.109375 30.90625 
L 18.109375 0 
L 9.078125 0 
L 9.078125 54.6875 
L 18.109375 54.6875 
L 18.109375 46.1875 
Q 21.1875 51.21875 25.484375 53.609375 
Q 29.78125 56 35.6875 56 
Q 41.65625 56 45.828125 52.96875 
Q 50 49.953125 52 44.1875 
z
" id="DejaVuSans-109"></path>
      <path d="M 56.203125 29.59375 
L 56.203125 25.203125 
L 14.890625 25.203125 
Q 15.484375 15.921875 20.484375 11.0625 
Q 25.484375 6.203125 34.421875 6.203125 
Q 39.59375 6.203125 44.453125 7.46875 
Q 49.3125 8.734375 54.109375 11.28125 
L 54.109375 2.78125 
Q 49.265625 0.734375 44.1875 -0.34375 
Q 39.109375 -1.421875 33.890625 -1.421875 
Q 20.796875 -1.421875 13.15625 6.1875 
Q 5.515625 13.8125 5.515625 26.8125 
Q 5.515625 40.234375 12.765625 48.109375 
Q 20.015625 56 32.328125 56 
Q 43.359375 56 49.78125 48.890625 
Q 56.203125 41.796875 56.203125 29.59375 
z
M 47.21875 32.234375 
Q 47.125 39.59375 43.09375 43.984375 
Q 39.0625 48.390625 32.421875 48.390625 
Q 24.90625 48.390625 20.390625 44.140625 
Q 15.875 39.890625 15.1875 32.171875 
z
" id="DejaVuSans-101"></path>
      <path d="M 18.3125 70.21875 
L 18.3125 54.6875 
L 36.8125 54.6875 
L 36.8125 47.703125 
L 18.3125 47.703125 
L 18.3125 18.015625 
Q 18.3125 11.328125 20.140625 9.421875 
Q 21.96875 7.515625 27.59375 7.515625 
L 36.8125 7.515625 
L 36.8125 0 
L 27.59375 0 
Q 17.1875 0 13.234375 3.875 
Q 9.28125 7.765625 9.28125 18.015625 
L 9.28125 47.703125 
L 2.6875 47.703125 
L 2.6875 54.6875 
L 9.28125 54.6875 
L 9.28125 70.21875 
z
" id="DejaVuSans-116"></path>
      <path id="DejaVuSans-32"></path>
      <path d="M 18.109375 8.203125 
L 18.109375 -20.796875 
L 9.078125 -20.796875 
L 9.078125 54.6875 
L 18.109375 54.6875 
L 18.109375 46.390625 
Q 20.953125 51.265625 25.265625 53.625 
Q 29.59375 56 35.59375 56 
Q 45.5625 56 51.78125 48.09375 
Q 58.015625 40.1875 58.015625 27.296875 
Q 58.015625 14.40625 51.78125 6.484375 
Q 45.5625 -1.421875 35.59375 -1.421875 
Q 29.59375 -1.421875 25.265625 0.953125 
Q 20.953125 3.328125 18.109375 8.203125 
z
M 48.6875 27.296875 
Q 48.6875 37.203125 44.609375 42.84375 
Q 40.53125 48.484375 33.40625 48.484375 
Q 26.265625 48.484375 22.1875 42.84375 
Q 18.109375 37.203125 18.109375 27.296875 
Q 18.109375 17.390625 22.1875 11.75 
Q 26.265625 6.109375 33.40625 6.109375 
Q 40.53125 6.109375 44.609375 11.75 
Q 48.6875 17.390625 48.6875 27.296875 
z
" id="DejaVuSans-112"></path>
      <path d="M 9.421875 54.6875 
L 18.40625 54.6875 
L 18.40625 0 
L 9.421875 0 
z
M 9.421875 75.984375 
L 18.40625 75.984375 
L 18.40625 64.59375 
L 9.421875 64.59375 
z
" id="DejaVuSans-105"></path>
      <path d="M 30.609375 48.390625 
Q 23.390625 48.390625 19.1875 42.75 
Q 14.984375 37.109375 14.984375 27.296875 
Q 14.984375 17.484375 19.15625 11.84375 
Q 23.34375 6.203125 30.609375 6.203125 
Q 37.796875 6.203125 41.984375 11.859375 
Q 46.1875 17.53125 46.1875 27.296875 
Q 46.1875 37.015625 41.984375 42.703125 
Q 37.796875 48.390625 30.609375 48.390625 
z
M 30.609375 56 
Q 42.328125 56 49.015625 48.375 
Q 55.71875 40.765625 55.71875 27.296875 
Q 55.71875 13.875 49.015625 6.21875 
Q 42.328125 -1.421875 30.609375 -1.421875 
Q 18.84375 -1.421875 12.171875 6.21875 
Q 5.515625 13.875 5.515625 27.296875 
Q 5.515625 40.765625 12.171875 48.375 
Q 18.84375 56 30.609375 56 
z
" id="DejaVuSans-111"></path>
     </defs>
     <g transform="translate(135.264844 252.916562)scale(0.1 -0.1)">
      <use xlink:href="#DejaVuSans-80"></use>
      <use x="55.802734" xlink:href="#DejaVuSans-97"></use>
      <use x="117.082031" xlink:href="#DejaVuSans-114"></use>
      <use x="158.195312" xlink:href="#DejaVuSans-97"></use>
      <use x="219.474609" xlink:href="#DejaVuSans-109"></use>
      <use x="316.886719" xlink:href="#DejaVuSans-101"></use>
      <use x="378.410156" xlink:href="#DejaVuSans-116"></use>
      <use x="417.619141" xlink:href="#DejaVuSans-101"></use>
      <use x="479.142578" xlink:href="#DejaVuSans-114"></use>
      <use x="520.255859" xlink:href="#DejaVuSans-32"></use>
      <use x="552.042969" xlink:href="#DejaVuSans-112"></use>
      <use x="615.519531" xlink:href="#DejaVuSans-114"></use>
      <use x="656.632812" xlink:href="#DejaVuSans-105"></use>
      <use x="684.416016" xlink:href="#DejaVuSans-111"></use>
      <use x="745.597656" xlink:href="#DejaVuSans-114"></use>
     </g>
    </g>
   </g>
   <g id="patch_4">
    <path d="M 7.2 224.64 
L 342 224.64 
" style="fill:none;stroke:#000000;stroke-linecap:square;stroke-linejoin:miter;stroke-width:0.8;"></path>
   </g>
  </g>
 </g>
 <defs>
  <clippath id="p80deb1406e">
   <rect height="217.44" width="334.8" x="7.2" y="7.2"></rect>
  </clippath>
 </defs>
</svg>