<svg height="262.19625pt" version="1.1" viewBox="0 0 349.2 262.19625" width="349.2pt" xmlns="http://www.w3.org/2000/svg" xmlns:xlink="http://www.w3.org/1999/xlink">
 <defs>
  <style type="text/css">
*{stroke-linecap:butt;stroke-linejoin:round;}
  </style>
 </defs>
 <g id="figure_1">
  <g id="patch_1">
   <path d="M 0 262.19625 
L 349.2 262.19625 
L 349.2 0 
L 0 0 
z
" style="fill:none;"></path>
  </g>
  <g id="axes_1">
   <g id="patch_2">
    <path d="M 7.2 224.64 
L 342 224.64 
L 342 7.2 
L 7.2 7.2 
z
" style="fill:#ffffff;"></path>
   </g>
   <g id="patch_3">
    <path clip-path="url(#p27fc8de82d)" d="M 22.418182 214.756364 
L 22.915508 214.755507 
L 23.412834 214.755357 
L 23.91016 214.755185 
L 24.407486 214.754988 
L 24.904812 214.754762 
L 25.402138 214.754505 
L 25.899464 214.754213 
L 26.39679 214.752168 
L 26.894116 214.751496 
L 27.391442 214.750731 
L 27.888768 214.749866 
L 28.386094 214.748888 
L 28.88342 214.747787 
L 29.380746 214.746551 
L 29.878072 214.74517 
L 30.375398 214.74363 
L 30.872724 214.741918 
L 31.37005 214.740023 
L 31.867376 214.737931 
L 32.364702 214.73563 
L 32.862028 214.733107 
L 33.359354 214.730351 
L 33.85668 214.726492 
L 34.354006 214.723087 
L 34.851332 214.719394 
L 35.348658 214.714546 
L 35.845984 214.709242 
L 36.34331 214.704307 
L 36.840636 214.699003 
L 37.337962 214.692464 
L 37.835288 214.686246 
L 38.332614 214.679612 
L 38.82994 214.672557 
L 39.327266 214.665077 
L 39.824592 214.65717 
L 40.321918 214.64798 
L 40.819244 214.637362 
L 41.31657 214.627722 
L 41.813896 214.617605 
L 42.311222 214.604447 
L 42.808548 214.592948 
L 43.305874 214.580925 
L 43.803201 214.567528 
L 44.300527 214.553468 
L 44.797853 214.539589 
L 45.295179 214.525166 
L 45.792505 214.508491 
L 46.289831 214.4927 
L 46.787157 214.476341 
L 47.284483 214.458561 
L 47.781809 214.439216 
L 48.279135 214.42071 
L 48.776461 214.400731 
L 49.273787 214.379986 
L 49.771113 214.357596 
L 50.765765 214.334244 
L 51.263091 214.311595 
L 51.760417 214.288183 
L 52.257743 214.263994 
L 52.755069 214.238162 
L 53.252395 214.208814 
L 53.749721 214.179755 
L 54.247047 214.151189 
L 54.744373 214.120782 
L 55.241699 214.08751 
L 55.739025 214.054468 
L 56.236351 214.018444 
L 56.733677 213.98253 
L 57.231003 213.943514 
L 57.728329 213.904488 
L 58.225655 213.863953 
L 58.722981 213.821015 
L 59.220315 213.778061 
L 59.717641 213.732766 
L 60.214967 213.684974 
L 60.712293 213.636231 
L 61.209619 213.586648 
L 61.706945 213.531223 
L 62.204271 213.476084 
L 62.701597 213.418166 
L 63.198923 213.356443 
L 63.696249 213.293151 
L 64.193575 213.228357 
L 64.690901 213.163006 
L 65.188227 213.094785 
L 65.685553 213.02355 
L 66.182879 212.949996 
L 66.680205 212.874951 
L 67.177531 212.798536 
L 67.674857 212.717466 
L 68.172183 212.634743 
L 68.66951 212.547904 
L 69.166836 212.459204 
L 69.664162 212.365302 
L 70.161488 212.268278 
L 70.658814 212.168017 
L 71.15614 212.064399 
L 71.653466 211.959004 
L 72.150792 211.852843 
L 72.648118 211.741114 
L 73.145444 211.625035 
L 73.64277 211.506911 
L 74.140096 211.382616 
L 74.637422 211.256739 
L 75.134748 211.125269 
L 75.632074 210.988651 
L 76.1294 210.851715 
L 76.626726 210.705595 
L 77.12406 210.553599 
L 77.621386 210.398794 
L 78.118712 210.241393 
L 78.616038 210.073954 
L 79.113364 209.899627 
L 79.61069 209.71974 
L 80.108016 209.536022 
L 80.605342 209.348676 
L 81.102668 209.151976 
L 81.599994 208.950362 
L 82.09732 208.737968 
L 82.594646 208.51967 
L 83.091972 208.29213 
L 83.589298 208.058576 
L 84.086624 207.815687 
L 84.58395 207.565606 
L 85.081276 207.309181 
L 85.578602 207.047451 
L 86.075928 206.766248 
L 86.573254 206.482376 
L 87.07058 206.193369 
L 87.567906 205.893778 
L 88.065232 205.586645 
L 88.562558 205.264441 
L 89.059884 204.93205 
L 89.55721 204.591828 
L 90.054536 204.240437 
L 90.551862 203.87498 
L 91.049188 203.503338 
L 91.546514 203.120811 
L 92.04384 202.727895 
L 92.541166 202.32461 
L 93.038492 201.911818 
L 93.535818 201.490265 
L 94.033145 201.051554 
L 94.530471 200.603093 
L 95.027805 200.14061 
L 95.525131 199.671951 
L 96.022457 199.194365 
L 96.519783 198.704492 
L 97.017109 198.206858 
L 97.514435 197.685809 
L 98.011761 197.156496 
L 98.509087 196.613819 
L 99.006413 196.049697 
L 99.503739 195.481635 
L 100.001065 194.897137 
L 100.498391 194.296149 
L 100.995717 193.682388 
L 101.493043 193.051719 
L 101.990369 192.397238 
L 102.487695 191.730943 
L 102.985021 191.038174 
L 103.482347 190.333933 
L 103.979673 189.602457 
L 104.476999 188.857457 
L 104.974325 188.082599 
L 105.471651 187.294507 
L 105.968977 186.494886 
L 106.466303 185.659291 
L 106.963629 184.805762 
L 107.460955 183.932466 
L 107.958281 183.0319 
L 108.455611 182.104639 
L 108.952937 181.170803 
L 109.450263 180.213458 
L 109.947589 179.234796 
L 110.444915 178.227533 
L 110.942241 177.196314 
L 111.439567 176.144512 
L 111.936893 175.072662 
L 112.434219 173.97452 
L 112.931545 172.858992 
L 113.428871 171.718517 
L 113.926197 170.570108 
L 114.423523 169.395564 
L 114.920849 168.206227 
L 115.418175 166.986198 
L 115.915501 165.760842 
L 116.412827 164.522493 
L 116.910158 163.263113 
L 117.407484 161.997166 
L 117.90481 160.6999 
L 118.402136 159.394062 
L 118.899462 158.065349 
L 119.396788 156.735714 
L 119.894114 155.389292 
L 120.39144 154.021963 
L 120.888766 152.643064 
L 121.386092 151.248554 
L 121.883418 149.842375 
L 122.380744 148.418269 
L 122.87807 146.989526 
L 123.375396 145.544641 
L 123.872722 144.081252 
L 124.370048 142.605341 
L 124.867374 141.117987 
L 125.3647 139.617791 
L 125.86203 138.104745 
L 126.359356 136.57074 
L 126.856682 135.025967 
L 127.354008 133.466414 
L 127.851334 131.89886 
L 128.34866 130.304832 
L 128.845986 128.713525 
L 129.343312 127.092321 
L 129.840638 125.46768 
L 130.337964 123.823738 
L 130.83529 122.171911 
L 131.332616 120.525896 
L 131.829942 118.86496 
L 132.327268 117.199857 
L 132.824594 115.511522 
L 133.32192 113.833562 
L 133.819246 112.145836 
L 134.316572 110.462587 
L 134.813902 108.770665 
L 135.311228 107.082154 
L 135.808554 105.387698 
L 136.30588 103.6915 
L 136.803206 102.003266 
L 137.300532 100.312655 
L 137.797858 98.632045 
L 138.295184 96.951575 
L 138.79251 95.28673 
L 139.289837 93.621464 
L 139.787163 91.959514 
L 140.284489 90.314384 
L 140.781815 88.672318 
L 141.279141 87.044571 
L 141.776469 85.418932 
L 142.273795 83.804074 
L 142.771121 82.197967 
L 143.268447 80.606729 
L 143.765773 79.015657 
L 144.263099 77.443662 
L 144.760425 75.875999 
L 145.257751 74.327613 
L 145.755079 72.777205 
L 146.252405 71.254648 
L 146.749731 69.72855 
L 147.247057 68.217042 
L 147.744383 66.70648 
L 148.241709 65.202684 
L 148.739035 63.708355 
L 149.236361 62.221507 
L 149.733687 60.76017 
L 150.231015 59.30723 
L 150.728341 57.861124 
L 151.225667 56.427498 
L 151.722993 54.995634 
L 152.220319 53.580639 
L 152.717645 52.177209 
L 153.214971 50.801676 
L 153.712297 49.438428 
L 154.209623 48.097641 
L 154.706951 46.780924 
L 155.204277 45.479355 
L 155.701603 44.207173 
L 156.198929 42.953062 
L 156.696255 41.728638 
L 157.193581 40.524995 
L 157.690907 39.345708 
L 158.188234 38.19386 
L 158.68556 37.091695 
L 159.182886 36.005852 
L 159.680212 34.951698 
L 160.177539 33.913964 
L 160.674865 32.933335 
L 161.172191 31.959798 
L 161.669517 31.012738 
L 162.166843 30.113227 
L 162.664171 29.250584 
L 163.161497 28.414197 
L 163.658823 27.612603 
L 164.156149 26.835146 
L 164.653476 26.08118 
L 165.150802 25.364908 
L 165.648128 24.678376 
L 166.145454 24.034983 
L 166.64278 23.413993 
L 167.140106 22.82748 
L 167.637433 22.264547 
L 168.134759 21.739629 
L 168.632085 21.232575 
L 169.129411 20.755921 
L 169.626738 20.302938 
L 170.124064 19.890368 
L 170.62139 19.488028 
L 171.118716 19.136082 
L 171.616043 18.790661 
L 172.113369 18.463887 
L 172.610695 18.189227 
L 173.108021 17.932512 
L 173.605347 17.72066 
L 174.102674 17.540375 
L 174.6 17.379449 
L 175.097326 17.252333 
L 175.594652 17.156219 
L 176.091979 17.102848 
L 176.589305 17.083636 
L 177.086631 17.09495 
L 177.583957 17.135083 
L 178.081284 17.228314 
L 178.57861 17.338223 
L 179.075936 17.491515 
L 179.573262 17.697476 
L 180.070589 17.938873 
L 180.567915 18.217088 
L 181.065241 18.537535 
L 181.562567 18.891446 
L 182.059894 19.291497 
L 182.55722 19.72219 
L 183.054546 20.187019 
L 183.551872 20.6973 
L 184.049198 21.255684 
L 184.546524 21.844504 
L 185.043851 22.485825 
L 185.541177 23.160616 
L 186.038503 23.893067 
L 186.535829 24.647349 
L 187.033157 25.441158 
L 187.530483 26.278565 
L 188.027809 27.145114 
L 188.525135 28.069943 
L 189.022461 29.006499 
L 189.519788 29.987703 
L 190.017114 31.005513 
L 190.51444 32.070463 
L 191.011766 33.171765 
L 191.509093 34.311987 
L 192.006419 35.487786 
L 192.503745 36.699833 
L 193.001071 37.952642 
L 193.498397 39.226716 
L 193.995723 40.546307 
L 194.493049 41.889878 
L 194.990377 43.263388 
L 195.487703 44.684181 
L 195.985029 46.122431 
L 196.482355 47.602205 
L 196.979681 49.109225 
L 197.477007 50.660497 
L 197.974333 52.230516 
L 198.471659 53.814231 
L 198.968985 55.429226 
L 199.466313 57.073014 
L 199.963639 58.732991 
L 200.460965 60.419295 
L 200.958291 62.108535 
L 201.455617 63.836958 
L 201.952943 65.559904 
L 202.450269 67.303688 
L 202.947595 69.05539 
L 203.444921 70.827018 
L 203.942249 72.606693 
L 204.439575 74.386009 
L 204.936901 76.172564 
L 205.434227 77.951374 
L 205.931553 79.730666 
L 206.428879 81.512453 
L 206.926205 83.285456 
L 207.423531 85.057857 
L 207.920859 86.822816 
L 208.418185 88.580374 
L 208.915511 90.323397 
L 209.412837 92.058419 
L 209.910163 93.773498 
L 210.40749 95.473669 
L 210.904816 97.154335 
L 211.402142 98.816635 
L 211.899468 100.471206 
L 212.396794 102.107717 
L 212.89412 103.732222 
L 213.391446 105.354324 
L 213.888772 106.946497 
L 214.386098 108.510948 
L 214.883428 110.066964 
L 215.380754 111.616981 
L 215.87808 113.152675 
L 216.375406 114.652884 
L 216.872732 116.154013 
L 217.370058 117.641833 
L 217.867384 119.109578 
L 218.36471 120.552099 
L 218.862036 121.986783 
L 219.359362 123.417968 
L 219.856688 124.843109 
L 220.354014 126.24898 
L 220.85134 127.639685 
L 221.348666 129.017447 
L 221.845992 130.386109 
L 222.343318 131.751888 
L 222.840644 133.104075 
L 223.33797 134.452186 
L 223.8353 135.7854 
L 224.332626 137.123892 
L 224.829952 138.449283 
L 225.327278 139.759614 
L 225.824604 141.064666 
L 226.32193 142.377516 
L 226.819256 143.669477 
L 227.316582 144.963993 
L 227.813908 146.256962 
L 228.311234 147.526079 
L 228.80856 148.79657 
L 229.305886 150.056536 
L 229.803212 151.303158 
L 230.300538 152.561118 
L 230.797864 153.792917 
L 231.29519 155.019389 
L 231.792516 156.238453 
L 232.289842 157.445388 
L 232.787173 158.649208 
L 233.284499 159.8437 
L 233.781825 161.017555 
L 234.279151 162.191121 
L 234.776477 163.349339 
L 235.273803 164.487071 
L 235.771129 165.613728 
L 236.268455 166.727512 
L 236.765781 167.82804 
L 237.263107 168.92079 
L 237.760433 169.997769 
L 238.257759 171.064533 
L 238.755085 172.116048 
L 239.252411 173.140964 
L 239.749737 174.156107 
L 240.247063 175.148478 
L 240.744389 176.126807 
L 241.241719 177.086999 
L 241.739045 178.014911 
L 242.236371 178.943888 
L 242.733697 179.843183 
L 243.231023 180.726917 
L 243.728349 181.6088 
L 244.225675 182.467878 
L 244.723001 183.316755 
L 245.220327 184.143485 
L 245.717653 184.952513 
L 246.214979 185.743666 
L 246.712305 186.512993 
L 247.209631 187.269439 
L 247.706957 188.01287 
L 248.204283 188.738013 
L 248.701609 189.448444 
L 249.198935 190.154644 
L 249.696261 190.836064 
L 250.193587 191.504642 
L 250.690913 192.166305 
L 251.188239 192.803444 
L 251.685565 193.431123 
L 252.182891 194.03949 
L 252.680217 194.632595 
L 253.177543 195.216086 
L 253.674869 195.786775 
L 254.172195 196.354215 
L 254.669529 196.901164 
L 255.166855 197.438487 
L 255.664182 197.965236 
L 256.161508 198.477843 
L 256.658834 198.981926 
L 257.15616 199.465538 
L 257.653486 199.943315 
L 258.150812 200.409118 
L 258.648138 200.864498 
L 259.145464 201.306921 
L 259.64279 201.738426 
L 260.140116 202.162844 
L 260.637442 202.57326 
L 261.134768 202.973299 
L 261.632094 203.363755 
L 262.12942 203.746894 
L 262.626746 204.118968 
L 263.124072 204.484724 
L 263.621398 204.83803 
L 264.118724 205.180264 
L 264.61605 205.514815 
L 265.113376 205.837308 
L 265.610702 206.156304 
L 266.108028 206.468279 
L 266.605354 206.77257 
L 267.10268 207.069257 
L 267.600006 207.356972 
L 268.097332 207.631668 
L 268.594658 207.902305 
L 269.091984 208.160494 
L 269.58931 208.41587 
L 270.086636 208.662661 
L 270.583962 208.903362 
L 271.081288 209.133679 
L 271.578614 209.3592 
L 272.07594 209.581867 
L 272.573274 209.796908 
L 273.0706 210.000167 
L 273.567926 210.201233 
L 274.065252 210.396602 
L 274.562578 210.585487 
L 275.059904 210.762137 
L 275.55723 210.936971 
L 276.054556 211.10574 
L 276.551882 211.267756 
L 277.049208 211.427546 
L 277.546534 211.577319 
L 278.04386 211.72504 
L 278.541186 211.862931 
L 279.038512 211.996787 
L 279.535838 212.125728 
L 280.033164 212.244665 
L 280.53049 212.363137 
L 281.027817 212.476889 
L 281.525143 212.581609 
L 282.022469 212.680222 
L 282.519795 212.778155 
L 283.017121 212.870576 
L 283.514447 212.957053 
L 284.011773 213.037981 
L 284.509099 213.115182 
L 285.006425 213.190233 
L 285.503751 213.260856 
L 286.001077 213.32806 
L 286.498403 213.391998 
L 286.995729 213.455009 
L 287.493055 213.510368 
L 287.990381 213.565494 
L 288.487707 213.617974 
L 288.985033 213.669412 
L 289.482359 213.714643 
L 289.979685 213.758764 
L 290.477019 213.803205 
L 290.974345 213.843369 
L 291.471671 213.884102 
L 291.968997 213.922252 
L 292.466323 213.958061 
L 292.963649 213.991751 
L 293.460975 214.024972 
L 293.958301 214.056222 
L 294.455627 214.088596 
L 294.952953 214.117448 
L 295.450279 214.14612 
L 295.947605 214.173812 
L 296.444931 214.200576 
L 296.942257 214.22573 
L 297.439583 214.253065 
L 297.936909 214.277064 
L 298.434235 214.299596 
L 298.931561 214.322981 
L 299.428887 214.343363 
L 299.926213 214.364021 
L 300.423539 214.383373 
L 300.920865 214.403712 
L 301.418191 214.422618 
L 301.915517 214.440218 
L 302.412843 214.458078 
L 302.910169 214.475343 
L 303.407495 214.491284 
L 303.904821 214.50747 
L 304.402147 214.522318 
L 304.899473 214.53667 
L 305.396799 214.55197 
L 305.894126 214.565072 
L 306.391452 214.578407 
L 306.888778 214.590398 
L 307.386104 214.601893 
L 307.88343 214.612885 
L 308.380756 214.62337 
L 308.878082 214.633347 
L 309.375408 214.642817 
L 309.872734 214.65251 
L 310.37006 214.660866 
L 310.867386 214.669474 
L 311.364712 214.676774 
L 311.862038 214.683631 
L 312.359364 214.690054 
L 312.85669 214.696053 
L 313.354016 214.70164 
L 313.851342 214.709012 
L 314.348668 214.714211 
L 314.845994 214.71825 
L 315.34332 214.721995 
L 315.840646 214.725456 
L 316.337972 214.728643 
L 316.835298 214.731569 
L 317.332624 214.734974 
L 317.82995 214.737305 
L 318.327276 214.739429 
L 318.824602 214.741358 
L 319.321928 214.743105 
L 319.819254 214.744682 
L 320.31658 214.7461 
L 320.813906 214.747371 
L 321.311232 214.749234 
L 321.808558 214.750135 
L 322.305884 214.750937 
L 322.80321 214.75165 
L 323.300536 214.752281 
L 323.797862 214.752837 
L 324.295188 214.753327 
L 324.792514 214.753756 
L 325.28984 214.754131 
L 325.787166 214.755185 
L 326.284492 214.755357 
L 326.781818 214.755507 
z
" style="fill:#1f77b4;opacity:0.4;"></path>
   </g>
   <g id="matplotlib.axis_1">
    <g id="xtick_1">
     <g id="line2d_1">
      <defs>
       <path d="M 0 0 
L 0 3.5 
" id="m22fef58860" style="stroke:#000000;stroke-width:0.8;"></path>
      </defs>
      <g>
       <use style="stroke:#000000;stroke-width:0.8;" x="38.142833" xlink:href="#m22fef58860" y="224.64"></use>
      </g>
     </g>
     <g id="text_1">
      <!-- −4 -->
      <defs>
       <path d="M 10.59375 35.5 
L 73.1875 35.5 
L 73.1875 27.203125 
L 10.59375 27.203125 
z
" id="DejaVuSans-8722"></path>
       <path d="M 37.796875 64.3125 
L 12.890625 25.390625 
L 37.796875 25.390625 
z
M 35.203125 72.90625 
L 47.609375 72.90625 
L 47.609375 25.390625 
L 58.015625 25.390625 
L 58.015625 17.1875 
L 47.609375 17.1875 
L 47.609375 0 
L 37.796875 0 
L 37.796875 17.1875 
L 4.890625 17.1875 
L 4.890625 26.703125 
z
" id="DejaVuSans-52"></path>
      </defs>
      <g transform="translate(30.77174 239.238437)scale(0.1 -0.1)">
       <use xlink:href="#DejaVuSans-8722"></use>
       <use x="83.789062" xlink:href="#DejaVuSans-52"></use>
      </g>
     </g>
    </g>
    <g id="xtick_2">
     <g id="line2d_2">
      <g>
       <use style="stroke:#000000;stroke-width:0.8;" x="106.707291" xlink:href="#m22fef58860" y="224.64"></use>
      </g>
     </g>
     <g id="text_2">
      <!-- −2 -->
      <defs>
       <path d="M 19.1875 8.296875 
L 53.609375 8.296875 
L 53.609375 0 
L 7.328125 0 
L 7.328125 8.296875 
Q 12.9375 14.109375 22.625 23.890625 
Q 32.328125 33.6875 34.8125 36.53125 
Q 39.546875 41.84375 41.421875 45.53125 
Q 43.3125 49.21875 43.3125 52.78125 
Q 43.3125 58.59375 39.234375 62.25 
Q 35.15625 65.921875 28.609375 65.921875 
Q 23.96875 65.921875 18.8125 64.3125 
Q 13.671875 62.703125 7.8125 59.421875 
L 7.8125 69.390625 
Q 13.765625 71.78125 18.9375 73 
Q 24.125 74.21875 28.421875 74.21875 
Q 39.75 74.21875 46.484375 68.546875 
Q 53.21875 62.890625 53.21875 53.421875 
Q 53.21875 48.921875 51.53125 44.890625 
Q 49.859375 40.875 45.40625 35.40625 
Q 44.1875 33.984375 37.640625 27.21875 
Q 31.109375 20.453125 19.1875 8.296875 
z
" id="DejaVuSans-50"></path>
      </defs>
      <g transform="translate(99.336197 239.238437)scale(0.1 -0.1)">
       <use xlink:href="#DejaVuSans-8722"></use>
       <use x="83.789062" xlink:href="#DejaVuSans-50"></use>
      </g>
     </g>
    </g>
    <g id="xtick_3">
     <g id="line2d_3">
      <g>
       <use style="stroke:#000000;stroke-width:0.8;" x="175.271749" xlink:href="#m22fef58860" y="224.64"></use>
      </g>
     </g>
     <g id="text_3">
      <!-- 0 -->
      <defs>
       <path d="M 31.78125 66.40625 
Q 24.171875 66.40625 20.328125 58.90625 
Q 16.5 51.421875 16.5 36.375 
Q 16.5 21.390625 20.328125 13.890625 
Q 24.171875 6.390625 31.78125 6.390625 
Q 39.453125 6.390625 43.28125 13.890625 
Q 47.125 21.390625 47.125 36.375 
Q 47.125 51.421875 43.28125 58.90625 
Q 39.453125 66.40625 31.78125 66.40625 
z
M 31.78125 74.21875 
Q 44.046875 74.21875 50.515625 64.515625 
Q 56.984375 54.828125 56.984375 36.375 
Q 56.984375 17.96875 50.515625 8.265625 
Q 44.046875 -1.421875 31.78125 -1.421875 
Q 19.53125 -1.421875 13.0625 8.265625 
Q 6.59375 17.96875 6.59375 36.375 
Q 6.59375 54.828125 13.0625 64.515625 
Q 19.53125 74.21875 31.78125 74.21875 
z
" id="DejaVuSans-48"></path>
      </defs>
      <g transform="translate(172.090499 239.238437)scale(0.1 -0.1)">
       <use xlink:href="#DejaVuSans-48"></use>
      </g>
     </g>
    </g>
    <g id="xtick_4">
     <g id="line2d_4">
      <g>
       <use style="stroke:#000000;stroke-width:0.8;" x="243.836207" xlink:href="#m22fef58860" y="224.64"></use>
      </g>
     </g>
     <g id="text_4">
      <!-- 2 -->
      <g transform="translate(240.654957 239.238437)scale(0.1 -0.1)">
       <use xlink:href="#DejaVuSans-50"></use>
      </g>
     </g>
    </g>
    <g id="xtick_5">
     <g id="line2d_5">
      <g>
       <use style="stroke:#000000;stroke-width:0.8;" x="312.400665" xlink:href="#m22fef58860" y="224.64"></use>
      </g>
     </g>
     <g id="text_5">
      <!-- 4 -->
      <g transform="translate(309.219415 239.238437)scale(0.1 -0.1)">
       <use xlink:href="#DejaVuSans-52"></use>
      </g>
     </g>
    </g>
    <g id="text_6">
     <!-- Parameter prior -->
     <defs>
      <path d="M 19.671875 64.796875 
L 19.671875 37.40625 
L 32.078125 37.40625 
Q 38.96875 37.40625 42.71875 40.96875 
Q 46.484375 44.53125 46.484375 51.125 
Q 46.484375 57.671875 42.71875 61.234375 
Q 38.96875 64.796875 32.078125 64.796875 
z
M 9.8125 72.90625 
L 32.078125 72.90625 
Q 44.34375 72.90625 50.609375 67.359375 
Q 56.890625 61.8125 56.890625 51.125 
Q 56.890625 40.328125 50.609375 34.8125 
Q 44.34375 29.296875 32.078125 29.296875 
L 19.671875 29.296875 
L 19.671875 0 
L 9.8125 0 
z
" id="DejaVuSans-80"></path>
      <path d="M 34.28125 27.484375 
Q 23.390625 27.484375 19.1875 25 
Q 14.984375 22.515625 14.984375 16.5 
Q 14.984375 11.71875 18.140625 8.90625 
Q 21.296875 6.109375 26.703125 6.109375 
Q 34.1875 6.109375 38.703125 11.40625 
Q 43.21875 16.703125 43.21875 25.484375 
L 43.21875 27.484375 
z
M 52.203125 31.203125 
L 52.203125 0 
L 43.21875 0 
L 43.21875 8.296875 
Q 40.140625 3.328125 35.546875 0.953125 
Q 30.953125 -1.421875 24.3125 -1.421875 
Q 15.921875 -1.421875 10.953125 3.296875 
Q 6 8.015625 6 15.921875 
Q 6 25.140625 12.171875 29.828125 
Q 18.359375 34.515625 30.609375 34.515625 
L 43.21875 34.515625 
L 43.21875 35.40625 
Q 43.21875 41.609375 39.140625 45 
Q 35.0625 48.390625 27.6875 48.390625 
Q 23 48.390625 18.546875 47.265625 
Q 14.109375 46.140625 10.015625 43.890625 
L 10.015625 52.203125 
Q 14.9375 54.109375 19.578125 55.046875 
Q 24.21875 56 28.609375 56 
Q 40.484375 56 46.34375 49.84375 
Q 52.203125 43.703125 52.203125 31.203125 
z
" id="DejaVuSans-97"></path>
      <path d="M 41.109375 46.296875 
Q 39.59375 47.171875 37.8125 47.578125 
Q 36.03125 48 33.890625 48 
Q 26.265625 48 22.1875 43.046875 
Q 18.109375 38.09375 18.109375 28.8125 
L 18.109375 0 
L 9.078125 0 
L 9.078125 54.6875 
L 18.109375 54.6875 
L 18.109375 46.1875 
Q 20.953125 51.171875 25.484375 53.578125 
Q 30.03125 56 36.53125 56 
Q 37.453125 56 38.578125 55.875 
Q 39.703125 55.765625 41.0625 55.515625 
z
" id="DejaVuSans-114"></path>
      <path d="M 52 44.1875 
Q 55.375 50.25 60.0625 53.125 
Q 64.75 56 71.09375 56 
Q 79.640625 56 84.28125 50.015625 
Q 88.921875 44.046875 88.921875 33.015625 
L 88.921875 0 
L 79.890625 0 
L 79.890625 32.71875 
Q 79.890625 40.578125 77.09375 44.375 
Q 74.3125 48.1875 68.609375 48.1875 
Q 61.625 48.1875 57.5625 43.546875 
Q 53.515625 38.921875 53.515625 30.90625 
L 53.515625 0 
L 44.484375 0 
L 44.484375 32.71875 
Q 44.484375 40.625 41.703125 44.40625 
Q 38.921875 48.1875 33.109375 48.1875 
Q 26.21875 48.1875 22.15625 43.53125 
Q 18.109375 38.875 18.109375 30.90625 
L 18.109375 0 
L 9.078125 0 
L 9.078125 54.6875 
L 18.109375 54.6875 
L 18.109375 46.1875 
Q 21.1875 51.21875 25.484375 53.609375 
Q 29.78125 56 35.6875 56 
Q 41.65625 56 45.828125 52.96875 
Q 50 49.953125 52 44.1875 
z
" id="DejaVuSans-109"></path>
      <path d="M 56.203125 29.59375 
L 56.203125 25.203125 
L 14.890625 25.203125 
Q 15.484375 15.921875 20.484375 11.0625 
Q 25.484375 6.203125 34.421875 6.203125 
Q 39.59375 6.203125 44.453125 7.46875 
Q 49.3125 8.734375 54.109375 11.28125 
L 54.109375 2.78125 
Q 49.265625 0.734375 44.1875 -0.34375 
Q 39.109375 -1.421875 33.890625 -1.421875 
Q 20.796875 -1.421875 13.15625 6.1875 
Q 5.515625 13.8125 5.515625 26.8125 
Q 5.515625 40.234375 12.765625 48.109375 
Q 20.015625 56 32.328125 56 
Q 43.359375 56 49.78125 48.890625 
Q 56.203125 41.796875 56.203125 29.59375 
z
M 47.21875 32.234375 
Q 47.125 39.59375 43.09375 43.984375 
Q 39.0625 48.390625 32.421875 48.390625 
Q 24.90625 48.390625 20.390625 44.140625 
Q 15.875 39.890625 15.1875 32.171875 
z
" id="DejaVuSans-101"></path>
      <path d="M 18.3125 70.21875 
L 18.3125 54.6875 
L 36.8125 54.6875 
L 36.8125 47.703125 
L 18.3125 47.703125 
L 18.3125 18.015625 
Q 18.3125 11.328125 20.140625 9.421875 
Q 21.96875 7.515625 27.59375 7.515625 
L 36.8125 7.515625 
L 36.8125 0 
L 27.59375 0 
Q 17.1875 0 13.234375 3.875 
Q 9.28125 7.765625 9.28125 18.015625 
L 9.28125 47.703125 
L 2.6875 47.703125 
L 2.6875 54.6875 
L 9.28125 54.6875 
L 9.28125 70.21875 
z
" id="DejaVuSans-116"></path>
      <path id="DejaVuSans-32"></path>
      <path d="M 18.109375 8.203125 
L 18.109375 -20.796875 
L 9.078125 -20.796875 
L 9.078125 54.6875 
L 18.109375 54.6875 
L 18.109375 46.390625 
Q 20.953125 51.265625 25.265625 53.625 
Q 29.59375 56 35.59375 56 
Q 45.5625 56 51.78125 48.09375 
Q 58.015625 40.1875 58.015625 27.296875 
Q 58.015625 14.40625 51.78125 6.484375 
Q 45.5625 -1.421875 35.59375 -1.421875 
Q 29.59375 -1.421875 25.265625 0.953125 
Q 20.953125 3.328125 18.109375 8.203125 
z
M 48.6875 27.296875 
Q 48.6875 37.203125 44.609375 42.84375 
Q 40.53125 48.484375 33.40625 48.484375 
Q 26.265625 48.484375 22.1875 42.84375 
Q 18.109375 37.203125 18.109375 27.296875 
Q 18.109375 17.390625 22.1875 11.75 
Q 26.265625 6.109375 33.40625 6.109375 
Q 40.53125 6.109375 44.609375 11.75 
Q 48.6875 17.390625 48.6875 27.296875 
z
" id="DejaVuSans-112"></path>
      <path d="M 9.421875 54.6875 
L 18.40625 54.6875 
L 18.40625 0 
L 9.421875 0 
z
M 9.421875 75.984375 
L 18.40625 75.984375 
L 18.40625 64.59375 
L 9.421875 64.59375 
z
" id="DejaVuSans-105"></path>
      <path d="M 30.609375 48.390625 
Q 23.390625 48.390625 19.1875 42.75 
Q 14.984375 37.109375 14.984375 27.296875 
Q 14.984375 17.484375 19.15625 11.84375 
Q 23.34375 6.203125 30.609375 6.203125 
Q 37.796875 6.203125 41.984375 11.859375 
Q 46.1875 17.53125 46.1875 27.296875 
Q 46.1875 37.015625 41.984375 42.703125 
Q 37.796875 48.390625 30.609375 48.390625 
z
M 30.609375 56 
Q 42.328125 56 49.015625 48.375 
Q 55.71875 40.765625 55.71875 27.296875 
Q 55.71875 13.875 49.015625 6.21875 
Q 42.328125 -1.421875 30.609375 -1.421875 
Q 18.84375 -1.421875 12.171875 6.21875 
Q 5.515625 13.875 5.515625 27.296875 
Q 5.515625 40.765625 12.171875 48.375 
Q 18.84375 56 30.609375 56 
z
" id="DejaVuSans-111"></path>
     </defs>
     <g transform="translate(135.264844 252.916562)scale(0.1 -0.1)">
      <use xlink:href="#DejaVuSans-80"></use>
      <use x="55.802734" xlink:href="#DejaVuSans-97"></use>
      <use x="117.082031" xlink:href="#DejaVuSans-114"></use>
      <use x="158.195312" xlink:href="#DejaVuSans-97"></use>
      <use x="219.474609" xlink:href="#DejaVuSans-109"></use>
      <use x="316.886719" xlink:href="#DejaVuSans-101"></use>
      <use x="378.410156" xlink:href="#DejaVuSans-116"></use>
      <use x="417.619141" xlink:href="#DejaVuSans-101"></use>
      <use x="479.142578" xlink:href="#DejaVuSans-114"></use>
      <use x="520.255859" xlink:href="#DejaVuSans-32"></use>
      <use x="552.042969" xlink:href="#DejaVuSans-112"></use>
      <use x="615.519531" xlink:href="#DejaVuSans-114"></use>
      <use x="656.632812" xlink:href="#DejaVuSans-105"></use>
      <use x="684.416016" xlink:href="#DejaVuSans-111"></use>
      <use x="745.597656" xlink:href="#DejaVuSans-114"></use>
     </g>
    </g>
   </g>
   <g id="patch_4">
    <path d="M 7.2 224.64 
L 342 224.64 
" style="fill:none;stroke:#000000;stroke-linecap:square;stroke-linejoin:miter;stroke-width:0.8;"></path>
   </g>
  </g>
 </g>
 <defs>
  <clippath id="p27fc8de82d">
   <rect height="217.44" width="334.8" x="7.2" y="7.2"></rect>
  </clippath>
 </defs>
</svg>