<svg height="336" viewBox="0 0 374.4 252" width="499.3" xmlns="http://www.w3.org/2000/svg" xmlns:xlink="http://www.w3.org/1999/xlink"><defs><style>*{stroke-linecap:butt;stroke-linejoin:round}</style></defs><g id="figure_1"><path d="M0 252h374.4V0H0z" fill="none" id="patch_1"/><g id="axes_1"><path d="M29 228.1h334.7V10.7H29z" fill="#fff" id="patch_2"/><g id="matplotlib.axis_1"><g id="xtick_1"><g id="line2d_1"><defs><path d="M0 0v3.5" id="mc596e3fd2b" stroke="#000" stroke-width=".8"/></defs><use x="50.9" xlink:href="#mc596e3fd2b" y="228.1" stroke="#000" stroke-width=".8"/></g><g id="text_1"><defs><path d="M10.6 35.5h62.6v-8.3H10.6z" id="DejaVuSans-8722"/><path d="M12.4 8.3h16.1v55.6L11 60.4v9l17.4 3.5h9.9V8.3h16V0H12.5z" id="DejaVuSans-49"/><path d="M10.7 12.4H21V0H10.7z" id="DejaVuSans-46"/><path d="M31.8 66.4q-7.6 0-11.5-7.5-3.8-7.5-3.8-22.5t3.8-22.5q3.9-7.5 11.5-7.5 7.7 0 11.5 7.5T47 36.4q0 15-3.8 22.5t-11.5 7.5zm0 7.8q12.2 0 18.7-9.7T57 36.4Q57 18 50.5 8.3 44-1.4 31.8-1.4 19.5-1.4 13 8.3q-6.5 9.7-6.5 28 0 18.5 6.5 28.2 6.4 9.7 18.7 9.7z" id="DejaVuSans-48"/></defs><g transform="matrix(.1 0 0 -.1 38.7 242.7)"><use xlink:href="#DejaVuSans-8722"/><use x="83.8" xlink:href="#DejaVuSans-49"/><use x="147.4" xlink:href="#DejaVuSans-46"/><use x="179.2" xlink:href="#DejaVuSans-48"/></g></g></g><g id="xtick_2"><use x="90.3" xlink:href="#mc596e3fd2b" y="228.1" stroke="#000" stroke-width=".8" id="line2d_2"/><g id="text_2"><defs><path d="M10.8 73h38.7v-8.4H19.8V46.7q2.2.8 4.3 1.1 2.2.4 4.3.4 12.2 0 19.4-6.7 7-6.7 7-18.1 0-11.8-7.2-18.3-7.4-6.5-20.7-6.5-4.6 0-9.4.8-4.7.7-9.8 2.3v10q4.4-2.5 9.1-3.6 4.7-1.2 9.9-1.2 8.5 0 13.4 4.4 5 4.5 5 12 0 7.7-5 12.1Q35 40 26.7 40q-4 0-7.9-.9-4-.9-8-2.7z" id="DejaVuSans-53"/></defs><g transform="matrix(.1 0 0 -.1 78.1 242.7)"><use xlink:href="#DejaVuSans-8722"/><use x="83.8" xlink:href="#DejaVuSans-48"/><use x="147.4" xlink:href="#DejaVuSans-46"/><use x="179.2" xlink:href="#DejaVuSans-53"/></g></g></g><g id="xtick_3"><use x="129.7" xlink:href="#mc596e3fd2b" y="228.1" stroke="#000" stroke-width=".8" id="line2d_3"/><g transform="matrix(.1 0 0 -.1 121.7 242.7)" id="text_3"><use xlink:href="#DejaVuSans-48"/><use x="63.6" xlink:href="#DejaVuSans-46"/><use x="95.4" xlink:href="#DejaVuSans-48"/></g></g><g id="xtick_4"><use x="169.1" xlink:href="#mc596e3fd2b" y="228.1" stroke="#000" stroke-width=".8" id="line2d_4"/><g transform="matrix(.1 0 0 -.1 161.1 242.7)" id="text_4"><use xlink:href="#DejaVuSans-48"/><use x="63.6" xlink:href="#DejaVuSans-46"/><use x="95.4" xlink:href="#DejaVuSans-53"/></g></g><g id="xtick_5"><use x="208.5" xlink:href="#mc596e3fd2b" y="228.1" stroke="#000" stroke-width=".8" id="line2d_5"/><g transform="matrix(.1 0 0 -.1 200.5 242.7)" id="text_5"><use xlink:href="#DejaVuSans-49"/><use x="63.6" xlink:href="#DejaVuSans-46"/><use x="95.4" xlink:href="#DejaVuSans-48"/></g></g><g id="xtick_6"><use x="247.9" xlink:href="#mc596e3fd2b" y="228.1" stroke="#000" stroke-width=".8" id="line2d_6"/><g transform="matrix(.1 0 0 -.1 240 242.7)" id="text_6"><use xlink:href="#DejaVuSans-49"/><use x="63.6" xlink:href="#DejaVuSans-46"/><use x="95.4" xlink:href="#DejaVuSans-53"/></g></g><g id="xtick_7"><use x="287.3" xlink:href="#mc596e3fd2b" y="228.1" stroke="#000" stroke-width=".8" id="line2d_7"/><g id="text_7"><defs><path d="M19.2 8.3h34.4V0H7.3v8.3l15.3 15.6q9.7 9.8 12.2 12.6 4.7 5.3 6.6 9 2 3.7 2 7.3 0 5.8-4.2 9.5-4 3.6-10.6 3.6-4.6 0-9.8-1.6-5.1-1.6-11-4.9v10q6 2.4 11.1 3.6 5.2 1.2 9.5 1.2 11.4 0 18-5.7 6.8-5.6 6.8-15 0-4.6-1.7-8.6-1.6-4-6-9.5l-7.9-8.2L19.2 8.3z" id="DejaVuSans-50"/></defs><g transform="matrix(.1 0 0 -.1 279.4 242.7)"><use xlink:href="#DejaVuSans-50"/><use x="63.6" xlink:href="#DejaVuSans-46"/><use x="95.4" xlink:href="#DejaVuSans-48"/></g></g></g><g id="xtick_8"><use x="326.7" xlink:href="#mc596e3fd2b" y="228.1" stroke="#000" stroke-width=".8" id="line2d_8"/><g transform="matrix(.1 0 0 -.1 318.8 242.7)" id="text_8"><use xlink:href="#DejaVuSans-50"/><use x="63.6" xlink:href="#DejaVuSans-46"/><use x="95.4" xlink:href="#DejaVuSans-53"/></g></g></g><g id="matplotlib.axis_2"><g id="ytick_1"><g id="line2d_9"><defs><path d="M0 0h-3.5" id="ma8f4ba169c" stroke="#000" stroke-width=".8"/></defs><use x="28.9" xlink:href="#ma8f4ba169c" y="208" stroke="#000" stroke-width=".8"/></g><g id="text_9"><defs><path d="M40.6 39.3q7-1.5 11-6.3t4-11.8q0-10.8-7.4-16.7-7.4-6-21.1-6-4.6 0-9.4 1-4.9.9-10 2.7v9.5q4-2.4 8.9-3.6Q21.5 7 26.8 7q9.3 0 14.1 3.6 4.9 3.7 4.9 10.7 0 6.4-4.5 10Q36.8 35 28.7 35h-8.5V43h9q7.2 0 11 3 3.9 2.8 3.9 8.3 0 5.6-4 8.6t-11.4 3q-4 0-8.7-.9-4.6-.8-10.2-2.7v8.8q5.6 1.6 10.5 2.3 5 .8 9.3.8 11.2 0 17.8-5 6.5-5.2 6.5-13.9 0-6-3.5-10.2-3.4-4.2-9.8-5.8z" id="DejaVuSans-51"/></defs><g transform="matrix(.1 0 0 -.1 7.2 211.8)"><use xlink:href="#DejaVuSans-8722"/><use x="83.8" xlink:href="#DejaVuSans-51"/></g></g></g><g id="ytick_2"><use x="28.9" xlink:href="#ma8f4ba169c" y="181" stroke="#000" stroke-width=".8" id="line2d_10"/><g transform="matrix(.1 0 0 -.1 7.2 184.8)" id="text_10"><use xlink:href="#DejaVuSans-8722"/><use x="83.8" xlink:href="#DejaVuSans-50"/></g></g><g id="ytick_3"><use x="28.9" xlink:href="#ma8f4ba169c" y="154" stroke="#000" stroke-width=".8" id="line2d_11"/><g transform="matrix(.1 0 0 -.1 7.2 157.8)" id="text_11"><use xlink:href="#DejaVuSans-8722"/><use x="83.8" xlink:href="#DejaVuSans-49"/></g></g><g id="ytick_4"><use x="28.9" xlink:href="#ma8f4ba169c" y="127" stroke="#000" stroke-width=".8" id="line2d_12"/><use xlink:href="#DejaVuSans-48" transform="matrix(.1 0 0 -.1 15.6 130.8)" id="text_12"/></g><g id="ytick_5"><use x="28.9" xlink:href="#ma8f4ba169c" y="100" stroke="#000" stroke-width=".8" id="line2d_13"/><use xlink:href="#DejaVuSans-49" transform="matrix(.1 0 0 -.1 15.6 103.8)" id="text_13"/></g><g id="ytick_6"><use x="28.9" xlink:href="#ma8f4ba169c" y="73.1" stroke="#000" stroke-width=".8" id="line2d_14"/><use xlink:href="#DejaVuSans-50" transform="matrix(.1 0 0 -.1 15.6 76.9)" id="text_14"/></g><g id="ytick_7"><use x="28.9" xlink:href="#ma8f4ba169c" y="46.1" stroke="#000" stroke-width=".8" id="line2d_15"/><use xlink:href="#DejaVuSans-51" transform="matrix(.1 0 0 -.1 15.6 49.9)" id="text_15"/></g><g id="ytick_8"><use x="28.9" xlink:href="#ma8f4ba169c" y="19.1" stroke="#000" stroke-width=".8" id="line2d_16"/><g id="text_16"><defs><path d="M37.8 64.3l-25-39h25zM35.2 73h12.4V25.4H58v-8.2H47.6V0h-9.8v17.2h-33v9.5z" id="DejaVuSans-52"/></defs><use xlink:href="#DejaVuSans-52" transform="matrix(.1 0 0 -.1 15.6 22.9)"/></g></g></g><path clip-path="url(#p7ddfc02a9b)" d="M252.1 171.4l3.4.6 3.4.3 3.4-.4 2.5-.9.9-.5 1.5-1.7.8-2.2.2-2.2V160.1l-.5-2.2-.8-2.2-1.2-2.7-2.2-6.1-1.4-2.2-2-2.2-1.2-1.2-3.4-4-1-1.4-2.4-2.9-1.4-1.5-2.5-2.2-6.2-5.1-11.6-10.3-2.9-2.2-3.3-2.2-12.6-8.2-3.4-2.6-5.3-4.5-3-2.2-3.3-2.2-2-1.3-3.3-1.7-6.8-2.7-3.4-1.7-6.7-4-3.8-1.8-3-1.2-6.8-2-4-1.2-2.7-1-4.2-1.2-2.6-1.2-1.7-1-5-3.5-3.4-1.5-3.4-.8-3.4-.3h-10.1l-3.4-.6-3.4-1-3.4-.2-3.6 1.3-2.2 2.2-1.2 2.2-.6 2.2-.1 2.2.5 2.2 1.1 2.2 3 4.4 3.1 5.6.5 1 1.4 2.2 1.8 2.2 1.8 2.2 1.8 2.2 3.6 4.4 3.9 4.3 6.9 6.6 19.1 15.4 6.6 4.9 5.4 3.9 3.4 2.2 4.7 2.7 7.2 3.9 6.8 4.4 13 7.6 3.4 1.4 3.4 1 3.4 1 3.4 1.2 3.3 1.7 6.8 3.7 3.4 1.5 3.4 1.2 3.4 1 3.3.9 3.4.6 6.8.5 3.4.4 3.3.8h0" fill="none" stroke="#222a30" stroke-width="1.5" id="LineCollection_2"/><path clip-path="url(#p7ddfc02a9b)" d="M235.2 162.7l3.4-.2 6.8-.8 6.7-.1 3.4-.8 1-.7 1.4-2.2.2-2.2-.3-2.2-.6-2.2-.9-2.2-1.2-2.2-8-11-2-2.2-3.1-2.8-6.9-6-8.6-8.8-2.8-2.2-3.5-2.2-5.3-3.2-7.8-5.6-8.6-6.5-.5-.3-3.3-2.1-3.6-2-4.5-2.2-5.5-2.4-4-2-6.1-3.5-3.4-1.6-4.3-1.5-5.8-1.8-6.8-1.7-4.5-1-2.3-.5-4-1.6-3.5-2.2-2.6-1.4-3.4-.8-3.4-.1-3.4.4-3.3 1-2 .9-1.5 2.2v2.3l2.5 8.7 1 2.5.7 1.9 1.2 2.2 1.5 2.2 1.7 2.2 5 5.8 2.5 3 6.2 6.5 4.9 4.4 3.3 2.7 6.8 4.8 7.5 5.7 3.1 2.2 6.3 4 4.4 2.6 8 4.4 7.1 4.4.8.4 10.1 5.2 3.4 1.3 10.1 3.5 1.3.6 8.9 4.4 3.4 1.3 3.4.8 3.3.5h0" fill="none" stroke="#21333f" stroke-width="1.5" id="LineCollection_3"/><path clip-path="url(#p7ddfc02a9b)" d="M228.5 156.2l3.4.7 3.3.2 3.4-.5 4.1-1 2.7-.8 2.6-1.3.8-1.5.2-.7-.6-2.2-2.2-4.4-2-4.4-1.4-2.2-1.7-2.2-2.5-2.6-6.7-6.5-3.8-4-3-3.6-.8-.9-2.6-2.3-3.4-2.1-3.8-2.2-3.4-2.2-6.3-4.7-6.8-5.1-3.3-2.1-6.8-3.8-4-1.8-10.1-4.4-6.2-3-3.4-1.5-5.5-2.1-1.2-.4-3.4-1-4.8-.8-2-.3-10.1-1.1-3.4-.5-3.4.1-2 1.8-.9 2.2-.3 2.2-.1 2.2.3 2.2.7 2.2 1.4 2.2 7.7 9.3 3 3.8.3.4 1.6 1.8 4.2 4.4 2.6 2.2 3.2 2.2 3.3 2.2 3 2.2 5.8 4.5 3.4 2.3 6.8 4.2 3.7 2.2 8 4.4 5.2 3.2 3.4 1.9 6.7 3.2 7 2.7 3.2 1 3.9 1.2 6.2 2.2 5.4 2.2 1.4.5h0" fill="none" stroke="#213b4e" stroke-width="1.5" id="LineCollection_4"/><path clip-path="url(#p7ddfc02a9b)" d="M221.7 149.5l3.4.7 3.4.5 3.4.1 3.3-.7 1.6-1 1.6-2.2.2-.6.4-1.6v-2.2l-.4-2v-.2l-1.1-2.2-1.7-2.2-.6-.6-1.4-1.6-2-2-.2-.2-2-2.2-1.1-1.3-.7-.9-1.8-2.2-1-1-.8-1.2-1.7-2.2-.8-.8-1.3-1.4-2-1.6-1-.6-2.5-1.4-1.5-.8-1.8-1-1.8-1.2-1.6-1.1-1.3-1-2.1-1.7-.8-.6-2.6-2-.3-.2-3-2.2h0l-3.3-2.1-.1-.2-3.4-2h-.2l-3.2-1.9-.8-.3-2.6-1.4-2-.8-1.4-.6-3.4-1.3-1-.3-2.3-1-2.9-1.2-.5-.3-3.4-1.4-1.3-.5-2-1-3.4-1.2h0l-3.4-1.3-3.4-1h0l-3.4-.4-3.4-.2H144l-3.4.2-2.5.5-.8.2-2.8 2-.6 1.2-.3 1 .3 2.2h0L135 92l1.6 2.2.6.7 1 1.5 1.7 2.2.6.8 1 1.4 1.7 2.1.7 1 .8 1.2 1.7 2.2 1 1 .9 1.2 2.3 2.2v.1l2.9 2.1.6.4 2.7 1.8.7.5 2.3 1.7 1 .8 1.7 1.4 1.7 1.3 1.3 1 2.1 1.4 1.1.7 2.3 1.5 1.2.7 2.2 1.3 1.4.9 2 1.2 1.6 1 1.7 1 2.2 1.2 1.2.6 2.9 1.6.5.3 3.3 1.9h0l3.5 2 .3.2 3 1.6 1.4.6 2 1 3 1.2.4.1 3.4 1.3 2.8.8.6.2 3.3.9 3.4.7 1.8.4 1.6.4" fill="none" stroke="#21445c" stroke-width="1.5" id="LineCollection_5"/><path clip-path="url(#p7ddfc02a9b)" d="M215 145.2l3.3.5 3.4.4 3.4.2 3.4-.4 2.8-1.2.6-.5 1-1.7.2-2.2-.9-2.2-.3-.5-1.2-1.7-1.8-2.2-.4-.5-1.3-1.7-1.7-2.2-.4-.6-1.2-1.6-1.6-2.2-.6-.8-1-1.4-1.8-2.2-.6-.5-2-1.7-1.4-.9-2.2-1.3-1.1-.6-2.8-1.6-.6-.4-2.5-1.8-.9-.6-1.9-1.6-1.5-1.2-1.3-1-2-1.5-1-.7-2.4-1.6-1-.6-2.4-1.5-1.2-.6-2.2-1.3-1.7-1-1.7-.8-2.9-1.3-.5-.3-3.4-1.3-2-.6-1.3-.6-3.4-1.3-1-.3-2.4-1-3.4-1.2h0l-3.4-1.1-3.3-1-.8-.1-2.6-.6-3.4-.2-3.4.4-1.3.4-2 .8-2 1.4-.5 2.2.6 2.2 1 2.2.8 1.2.6 1 1.5 2.2 1.3 2 .1.1 1.4 2.2 1.6 2.2.3.4 1.5 1.8 1.9 1.7.6.5 2.8 2 .3.2 3 2.2h0l2.7 2.2.7.6 2.1 1.6 1.3 1 1.9 1.2 1.5 1 2 1.2 1.4.8 2.2 1.4 1.1.7 2.4 1.5 1 .6 2.8 1.6.6.4 3.4 1.8h0l3.4 1.8.7.4 2.7 1.5 1.2.7 2.1 1.1 2.2 1 1.2.7 3.4 1.4.5.2 2.9 1 3.4 1 1.1.2 2.2.5" fill="none" stroke="#204d6b" stroke-width="1.5" id="LineCollection_6"/><path clip-path="url(#p7ddfc02a9b)" d="M215 142.5l3.3.2h3.4l1-.2 2.4-1 1.3-1.2V138l-.8-2.2-.5-.8-.7-1.4-1.3-2.2-1.4-2.2h0l-1.5-2.2-1.4-2.2-.5-.6-1.1-1.6-2.1-2.2-.2-.1-3-2-.3-.3-3.4-1.9h-.2l-3.2-2-.3-.3-2.8-2.2-.3-.2-2.4-2-1-.7-2-1.5-1.3-1-2-1.2-1.4-.9-2.1-1.3-1.3-.7-2.6-1.4-.8-.5-3.4-1.7h0l-3.4-1.4-2.4-.8-1-.4L171 95l-2.2-.7-1.2-.5-3.4-1-2.8-.7-.6-.2-3.3-.6-3.4-.1-3.4.6-.5.3-1.9 2.2v2.2l1 2.2 1 2.2.4.7.7 1.4 1.3 2.2 1.4 2.1v.1l2 2.2 1.4 1.1 1.3 1.1 2 1.5.9.7 2.5 2 .2.2 2.6 2.2.6.5 2.4 1.7 1 .6 2.5 1.6.9.5 2.7 1.7.6.4 2.9 1.8.5.4 3 1.8.4.3 3.4 1.8v.1l3.4 1.7 1 .5 2.4 1.3 1.7.9 1.6.9 2.6 1.3.8.4 3.4 1.5.8.3 2.6.9 3.4.8 3.1.5h.2" fill="none" stroke="#20557a" stroke-width="1.5" id="LineCollection_7"/><path clip-path="url(#p7ddfc02a9b)" d="M208.2 138.8l3.4.6 3.3.1 3.4-.8 1-.6 1-2.2-.4-2.2-1-2.2-.6-1.1-.6-1.1-1.3-2.2-1.3-2.2-.2-.2-1.5-2-1.8-1.6-.7-.6-2.7-1.7-.9-.5-2.5-1.4-1.4-.8-2-1.3-1.2-.9-2.2-1.8-.4-.4-2.7-2.2-.2-.1-3-2-.4-.4-3-1.9-.4-.2-3.4-1.9h-.1l-3.3-1.8-1-.4-2.4-1-3-1.2-.3-.2-3.4-1-3.4-1h-.1l-3.3-.8-3.4-.4-3.3.3-2 .9-1 2.2.3 2.2.7 2.1 1 2.2 1 1.5.5.7 2.1 2.2.7.6 2 1.6 1.4 1.3 1.2 1 2.2 1.9.3.2 2.8 2.2.3.2 3 2 .4.2 3.2 2 .1.1 3.3 2.1.1.1 3.2 2.1.2.1 3.4 2 .1.1 3.3 1.7 1 .5 2.4 1.2 2 1 1.3.6 3.1 1.6.3.1 3.4 1.6 1.4.5 2 .7" fill="none" stroke="#205e88" stroke-width="1.5" id="LineCollection_8"/><path clip-path="url(#p7ddfc02a9b)" d="M211.6 135.9h0l2.3-2.2-.5-2.2-.8-2.2-.8-2.2-.2-.5-.9-1.7-1.6-2.2-1-.7-1.9-1.5-1.4-.8-2.6-1.4-.8-.4-3-1.8-.4-.3-2.3-1.9-1-1-1.3-1.2-2.1-1.7-.6-.5-2.8-1.8-.6-.4-2.8-1.5-1.4-.7-2-1-2.5-1.2-.9-.4-3.3-1.4-1-.3-2.4-.8-3.4-.7-3.4-.2-3.4 1.3-.3.4-.4 2.1.6 2.2.1.3 1.4 2 2 2.1h0l2.5 2.2.9.8 1.6 1.4 1.8 1.5.8.7 2.6 1.9.4.3 3 1.9.4.3 3 1.9.4.3 3 2 .3.2 3 1.9.5.3 2.9 1.5 1.4.7 2 .9 3 1.3.3.2 3.4 1.4 1.6.6 1.8.8 3.4 1 3.3.4h0" fill="none" stroke="#206697" stroke-width="1.5" id="LineCollection_9"/><path clip-path="url(#p7ddfc02a9b)" d="M194.7 127.2l3.3 1.1 3.4.6 3.4-1.2.4-.6V125l-.4-.7-1.2-1.5-2.2-1.4-1.4-.8-2-1-2.2-1.2-1.1-.7-1.7-1.5-1.7-1.9-.3-.3-2.2-2.2-1-.7-2.1-1.5-1.2-.6-3.3-1.6h0l-3.5-1.2-2.4-1-1-.3-3.3-1-3.4.5-.6.8.6 2.2h0l2 2.2 1.4 1.6.6.6 2.3 2.2.5.4 2.2 1.8 1.1.9 2 1.3 1.4 1 2.2 1.2 1.2.8 2.1 1.4 1.3.9 2.1 1.3 1.3.7 3 1.5.4.1" fill="none" stroke="#1f6fa6" stroke-width="1.5" id="LineCollection_10"/><path d="M29 228.1V10.7" fill="none" stroke="#000" stroke-linecap="square" stroke-width=".8" id="patch_3"/><path d="M363.7 228.1V10.7" fill="none" stroke="#000" stroke-linecap="square" stroke-width=".8" id="patch_4"/><path d="M29 228.1h334.7" fill="none" stroke="#000" stroke-linecap="square" stroke-width=".8" id="patch_5"/><path d="M29 10.7h334.7" fill="none" stroke="#000" stroke-linecap="square" stroke-width=".8" id="patch_6"/></g></g><defs><clipPath id="p7ddfc02a9b"><path d="M28.9 10.7h334.8v217.4H28.9z"/></clipPath></defs></svg>