<svg height="349.6" viewBox="0 0 356.2 262.2" width="474.9" xmlns="http://www.w3.org/2000/svg" xmlns:xlink="http://www.w3.org/1999/xlink"><defs><style>*{stroke-linecap:butt;stroke-linejoin:round}</style></defs><g id="figure_1"><path d="M0 262.2h356.2V0H0z" fill="none" id="patch_1"/><g id="axes_1"><path d="M10.7 224.6h334.8V7.2H10.7z" fill="#fff" id="patch_2"/><path clip-path="url(#p9dccb4f4f5)" d="M26 214.8H42.8l.4-.1H60l.4-.1h2.4l.4-.1H64.3l.4-.1H65.9l.4-.1h.3l.4-.1h.8l.4-.1h.4l.4-.1h.4l.4-.1.4-.1h.4l.4-.1.4-.1.4-.1h.4l.4-.2h.4l.4-.1.4-.1.4-.1.4-.1.4-.1.3-.2h.4l.4-.2.4-.1.4-.2h.4l.4-.2.4-.2.4-.1.4-.2.4-.1.4-.2.4-.2.4-.1.4-.2.4-.2.4-.2.4-.2.4-.2.4-.2.4-.2.4-.3.3-.2.4-.2.4-.3.4-.2.4-.3.4-.2.4-.3.4-.3.4-.3.4-.3.4-.3.4-.3.4-.4.4-.3.4-.4.4-.3.4-.4.4-.4.4-.4.4-.4.4-.4.4-.5.3-.4.4-.5.4-.5.4-.5.4-.5.4-.6.4-.5.4-.6.4-.6.4-.6.4-.6.4-.7.4-.6.4-.7.4-.7.4-.8.4-.7.4-.8.4-.8.4-.8.4-.8.4-1 .3-.8.4-.9.4-1 .4-.9.4-1 .4-1 .4-1 .4-1 .4-1 .4-1.1.4-1.1.4-1.2.4-1.1.4-1.2.4-1.2.4-1.3.4-1.2.4-1.3.4-1.3.4-1.3.4-1.4.4-1.4.3-1.4.4-1.4.4-1.5.4-1.5.4-1.5.4-1.5.4-1.6.4-1.6.4-1.6.4-1.6.4-1.6.4-1.7.4-1.7.4-1.7.4-1.8.4-1.7.4-1.8.4-1.8.4-1.8.4-1.9.4-1.8.4-1.9.3-1.8.4-2 .4-1.8.4-2 .4-1.8.4-2 .4-1.9.4-2 .4-1.9.4-2 .4-1.9.4-2 .4-1.9.4-2 .4-2 .4-1.9.4-2 .4-2 .4-1.9.4-2 .4-1.9.4-2 .3-1.9.4-2 .4-1.8.4-2 .4-1.9.4-1.9.4-1.8.4-1.9.4-1.8.4-1.9.4-1.8.4-1.8.4-1.7.4-1.8.4-1.7.4-1.7.4-1.6.4-1.7.4-1.6.4-1.6.4-1.5.4-1.5.3-1.5.4-1.4.4-1.4.4-1.4.4-1.4.4-1.3.4-1.2.4-1.2.4-1.2.4-1.1.4-1.2.4-1 .4-1 .4-1 .4-1 .4-.8.4-.8.4-.9.4-.7.4-.7.4-.7.4-.6.3-.6.4-.6.4-.5.4-.5.4-.4.4-.4.4-.3.4-.3.4-.3.4-.2.4-.1.4-.1.4-.1H150.9l.4.2.4.2.4.2.4.2.4.3.4.4.3.4.4.4.4.5.4.6.4.6.4.6.4.7.4.8.4.8.4.8.4.9.4 1 .4 1 .4 1 .4 1 .4 1.2.4 1.2.4 1.2.4 1.2.4 1.3.4 1.4.4 1.4.3 1.4.4 1.4.4 1.5.4 1.5.4 1.5.4 1.6.4 1.6.4 1.6.4 1.7.4 1.6.4 1.7.4 1.8.4 1.7.4 1.7.4 1.8.4 1.8.4 1.8.4 1.8.4 1.8.4 1.8.4 1.9.4 1.8.3 1.9.4 1.8.4 1.9.4 1.8.4 1.9.4 1.9.4 1.8.4 2 .4 1.8.4 1.9.4 1.9.4 1.8.4 2 .4 1.8.4 1.9.4 1.8.4 2 .4 1.8.4 1.8.4 1.9.4 1.9.4 1.8.3 1.8.4 1.9.4 1.8.4 1.8.4 1.8.4 1.8.4 1.8.4 1.8.4 1.8.4 1.7.4 1.8.4 1.7.4 1.7.4 1.8.4 1.6.4 1.7.4 1.7.4 1.6.4 1.7.4 1.6.4 1.6.4 1.5.3 1.6.4 1.5.4 1.6.4 1.5.4 1.4.4 1.5.4 1.4.4 1.4.4 1.4.4 1.4.4 1.3.4 1.3.4 1.3.4 1.2.4 1.2.4 1.2.4 1.2.4 1.1.4 1.1.4 1 .4 1.1.4 1 .3 1 .4 1 .4 1 .4.9.4.9.4.8.4.9.4.8.4.8.4.7.4.7.4.8.4.7.4.6.4.7.4.6.4.6.4.6.4.6.4.6.4.5.4.5.3.6.4.5.4.5.4.4.4.5.4.5.4.4.4.4.4.5.4.4.4.4.4.4.4.3.4.4.4.4.4.3.4.4.4.3.4.3.4.3.4.3.4.3.3.3.4.3.4.3.4.2.4.3.4.2.4.3.4.2.4.2.4.2.4.2.4.2.4.2.4.2.4.1.4.2.4.2.4.1.4.1.4.2.4.1.4.1.3.1.4.1.4.1.4.1.4.1h.4l.4.2h.4l.4.1h.4l.4.1h.4l.4.1.4.1h.8l.4.1h.8l.4.1h.8l.3.1h1.6l.4.1H237.1l.4.1H241.4l.4.1H245.4l.4.1H249.3l.4.1h4.8l.4.1H267.9z" fill="#1f77b4" opacity=".4" id="patch_3"/><path clip-path="url(#p9dccb4f4f5)" d="M47 214.8H58.1l.5-.1H62.8l.4-.1H66l.5-.1H68.3l.5-.1h1.4l.4-.1h1l.4-.1H74l.4-.1h1l.4-.1h.5l.4-.1h1l.4-.1h.5l.5-.1h.4l.5-.1h.4l.5-.1h.5l.4-.1h.5l.5-.1h.4l.5-.1.5-.1h.4l.5-.1.4-.1h.5l.5-.2h.4l.5-.1.5-.1.4-.1h.5l.4-.2h.5l.5-.2.4-.1.5-.1.5-.1.4-.2h.5l.4-.2.5-.2.5-.1.4-.2.5-.1.5-.2.4-.2.5-.1.4-.2.5-.2.5-.2.4-.2.5-.2.5-.3.4-.2.5-.2.4-.3.5-.2.5-.3.4-.3.5-.2.5-.3.4-.3.5-.3.5-.3.4-.4.5-.3.4-.3.5-.4.5-.3.4-.4.5-.4.5-.4.4-.4.5-.4.4-.4.5-.4.5-.5.4-.4.5-.5.5-.4.4-.5.5-.5.4-.5.5-.5.5-.6.4-.5.5-.6.5-.5.4-.6.5-.6.4-.6.5-.6.5-.6.4-.6.5-.6.5-.7.4-.6.5-.7.5-.7.4-.7.5-.6.4-.8.5-.7.5-.7.4-.7.5-.7.5-.8.4-.7.5-.8.4-.8.5-.8.5-.8.4-.8.5-.8.5-.9.4-.8.5-.9.4-.8.5-1 .5-.8.4-1 .5-.9.5-1 .4-.9.5-1 .4-1 .5-1 .5-1 .4-1 .5-1 .5-1.1.4-1 .5-1.2.5-1.1.4-1.2.5-1.1.4-1.2.5-1.2.5-1.1.4-1.3.5-1.2.5-1.2.4-1.3.5-1.2.4-1.3.5-1.3.5-1.3.4-1.3.5-1.3.5-1.4.4-1.3.5-1.4.4-1.3.5-1.4.5-1.4.4-1.4.5-1.3.5-1.4.4-1.4.5-1.4.4-1.4.5-1.4.5-1.4.4-1.4.5-1.4.5-1.4.4-1.4.5-1.4.5-1.3.4-1.4.5-1.4.4-1.3.5-1.4.5-1.4.4-1.3.5-1.3.5-1.4.4-1.3.5-1.3.4-1.3.5-1.3.5-1.3.4-1.3.5-1.2.5-1.3.4-1.2.5-1.2.4-1.2.5-1.2.5-1.2.4-1.2.5-1.1.5-1.1.4-1.2.5-1 .4-1.1.5-1.1.5-1 .4-1 .5-1.1.5-1 .4-1 .5-.9.5-1 .4-.9.5-.9.4-.8.5-.9.5-.8.4-.9.5-.8.5-.7.4-.8.5-.7.4-.7.5-.7.5-.7.4-.6.5-.7.5-.6.4-.6.5-.5.4-.5.5-.5.5-.5.4-.5.5-.4.5-.5.4-.4.5-.3.4-.4.5-.3.5-.3.4-.3.5-.3.5-.2.4-.2.5-.2.4-.2.5-.1.5-.1h.4l.5-.1h2.3l.5.1.4.1.5.1.5.2.4.2.5.2.5.2.4.2.5.3.4.3.5.3.5.3.4.3.5.4.5.4.4.4.5.5.4.4.5.5.5.5.4.6.5.5.5.6.4.7.5.6.4.7.5.7.5.7.4.8.5.8.5.8.4.9.5.9.5.9.4 1 .5 1 .4 1 .5 1 .5 1 .4 1.2.5 1 .5 1.3.4 1.2.5 1.2.4 1.2.5 1.3.5 1.3.4 1.3.5 1.4.5 1.3.4 1.4.5 1.4.4 1.4.5 1.4.5 1.5.4 1.4.5 1.4.5 1.5.4 1.5.5 1.4.4 1.5.5 1.5.5 1.4.4 1.5.5 1.4.5 1.5.4 1.4.5 1.5.5 1.4.4 1.5.5 1.4.4 1.4.5 1.4.5 1.4.4 1.4.5 1.4.5 1.4.4 1.3.5 1.4.4 1.3.5 1.4.5 1.3.4 1.3.5 1.4.5 1.3.4 1.3.5 1.3.4 1.3.5 1.3.5 1.3.4 1.2.5 1.3.5 1.3.4 1.3.5 1.2.4 1.3.5 1.2.5 1.2.4 1.3.5 1.2.5 1.2.4 1.2.5 1.2.5 1.2.4 1.2.5 1.2.4 1.1.5 1.2.5 1.1.4 1.2.5 1 .5 1.2.4 1 .5 1.2.4 1 .5 1 .5 1.1.4 1 .5 1 .5 1 .4 1 .5 1 .4 1 .5.9.5.9.4.8.5 1 .5.8.4.8.5.8.4.8.5.8.5.8.4.7.5.7.5.8.4.6.5.7.5.7.4.6.5.6.4.6.5.6.5.6.4.5.5.6.5.5.4.5.5.5.4.5.5.5.5.4.4.4.5.5.5.4.4.4.5.4.4.4.5.3.5.4.4.4.5.3.5.3.4.4.5.3.4.3.5.3.5.3.4.3.5.3.5.3.4.3.5.3.4.3.5.3.5.2.4.3.5.3.5.2.4.3.5.2.5.3.4.2.5.2.4.3.5.2.5.2.4.2.5.2.5.2.4.2.5.2.4.2.5.2.5.2.4.1.5.2.5.2.4.1.5.2h.4l.5.2.5.2h.4l.5.2.5.1.4.1.5.1.4.1.5.1.5.1.4.1.5.1h.5l.4.2h1l.4.2h.9l.5.1h.5l.4.1h.5l.5.1h.4l.5.1h.9l.5.1h.9l.5.1h.9l.4.1h1.4l.5.1H302l.5.1h2.3l.5.1h2.8l.4.1h2.8l.5.1h5.1l.4.1H330.3z" fill="#ff7f0e" opacity=".4" id="patch_4"/><path clip-path="url(#p9dccb4f4f5)" d="M35 214.8H51.4l.4-.1H66.7l.4-.1h3.1l.4-.1h1.6l.4-.1H74l.4-.1h.8l.4-.1H76.9l.4-.1h.7l.4-.1h.4l.4-.1h.8l.4-.1h.4l.4-.1h.7l.4-.1h.4l.4-.1h.4l.4-.1h.4l.4-.1h.4l.4-.1h.4l.4-.1h.3l.4-.1h.4l.4-.1h.4l.4-.2h.8l.4-.2h.4l.4-.1.3-.1.4-.1h.4l.4-.2h.4l.4-.2.4-.1.4-.1.4-.1.4-.2.4-.1.3-.2.4-.1.4-.2.4-.1.4-.2.4-.2.4-.2.4-.2.4-.2.4-.2.4-.2.4-.2.3-.2.4-.2.4-.3.4-.2.4-.3.4-.2.4-.3.4-.3.4-.3.4-.3.4-.3.3-.3.4-.3.4-.3.4-.4.4-.3.4-.4.4-.3.4-.4.4-.4.4-.4.4-.4.4-.5.3-.4.4-.5.4-.5.4-.5.4-.5.4-.5.4-.5.4-.6.4-.6.4-.6.4-.6.3-.7.4-.7.4-.7.4-.7.4-.8.4-.7.4-.8.4-.8.4-1 .4-.8.4-.9.3-1 .4-.9.4-1 .4-1 .4-1 .4-1 .4-1.1.4-1.1.4-1.2.4-1.1.4-1.2.4-1.2.3-1.2.4-1.3.4-1.3.4-1.3.4-1.3.4-1.3.4-1.4.4-1.3.4-1.4.4-1.4.4-1.5.3-1.4.4-1.5.4-1.5.4-1.4.4-1.5.4-1.5.4-1.6.4-1.5.4-1.6.4-1.5.4-1.6.4-1.6.3-1.6.4-1.6.4-1.6.4-1.7.4-1.6.4-1.6.4-1.7.4-1.6.4-1.7.4-1.7.4-1.6.3-1.7.4-1.7.4-1.7.4-1.7.4-1.7.4-1.7.4-1.7.4-1.7.4-1.7.4-1.6.4-1.7.3-1.7.4-1.7.4-1.7.4-1.7.4-1.7.4-1.6.4-1.7.4-1.7.4-1.6.4-1.7.4-1.6.4-1.6.3-1.6.4-1.6.4-1.6.4-1.6.4-1.5.4-1.6.4-1.5.4-1.5.4-1.5.4-1.5.4-1.4.3-1.4.4-1.5.4-1.4.4-1.3.4-1.4.4-1.4.4-1.3.4-1.3.4-1.3.4-1.3.4-1.2.3-1.3.4-1.2.4-1.2.4-1.2.4-1.1.4-1.2.4-1.1.4-1.1.4-1.1.4-1.1.4-1 .4-1 .3-1 .4-1 .4-1 .4-1 .4-.9.4-.9.4-.8.4-.8.4-.8.4-.8.4-.7.3-.7.4-.7.4-.6.4-.5.4-.6.4-.5.4-.4.4-.4.4-.4.4-.3.4-.3.4-.2.3-.1.4-.1h1.6l.4.2.4.3.4.2.4.4.4.4.3.4.4.5.4.5.4.7.4.6.4.8.4.7.4.8.4 1 .4.9.4 1 .3 1 .4 1 .4 1.2.4 1.2.4 1.2.4 1.3.4 1.3.4 1.3.4 1.4.4 1.4.4 1.5.4 1.5.3 1.5.4 1.6.4 1.6.4 1.6.4 1.6.4 1.6.4 1.7.4 1.7.4 1.7.4 1.7.4 1.7.3 1.7.4 1.7.4 1.8.4 1.7.4 1.7.4 1.7.4 1.8.4 1.7.4 1.7.4 1.7.4 1.8.4 1.7.3 1.7.4 1.7.4 1.7.4 1.6.4 1.7.4 1.7.4 1.7.4 1.6.4 1.6.4 1.7.4 1.6.3 1.7.4 1.6.4 1.6.4 1.6.4 1.6.4 1.6.4 1.6.4 1.6.4 1.6.4 1.6.4 1.6.3 1.6.4 1.5.4 1.6.4 1.6.4 1.5.4 1.6.4 1.5.4 1.6.4 1.5.4 1.5.4 1.5.4 1.5.3 1.5.4 1.4.4 1.5.4 1.4.4 1.5.4 1.4.4 1.4.4 1.4.4 1.3.4 1.4.4 1.3.3 1.3.4 1.3.4 1.3.4 1.3.4 1.2.4 1.2.4 1.2.4 1.2.4 1.1.4 1.2.4 1.1.4 1.1.3 1 .4 1.1.4 1 .4 1 .4 1 .4 1 .4 1 .4 1 .4.9.4.9.4.9.3.8.4.9.4.8.4.8.4.8.4.8.4.8.4.7.4.8.4.7.4.7.3.7.4.7.4.6.4.7.4.6.4.7.4.6.4.6.4.5.4.6.4.6.4.5.3.6.4.5.4.5.4.5.4.5.4.5.4.5.4.4.4.5.4.4.4.5.3.4.4.4.4.4.4.4.4.3.4.4.4.4.4.3.4.4.4.3.4.3.4.3.3.3.4.3.4.3.4.2.4.3.4.2.4.3.4.2.4.2.4.2.4.2.3.2.4.2.4.2.4.1.4.2.4.1.4.1.4.2h.4l.4.2.4.1.3.1.4.1.4.1h.4l.4.2h.4l.4.1h.4l.4.1h.4l.4.1h.4l.3.1h.4l.4.1h.4l.4.1h.8l.4.1H251l.3.1h.8l.4.1h1.6l.4.1H256.4l.4.1h2l.4.1h4.3l.4.1H274.4z" fill="#2ca02c" opacity=".4" id="patch_5"/><g id="matplotlib.axis_1"><g id="xtick_1"><g id="line2d_1"><defs><path d="M0 0v3.5" id="mbbace0126f" stroke="#000" stroke-width=".8"/></defs><use x="57.3" xlink:href="#mbbace0126f" y="224.6" stroke="#000" stroke-width=".8"/></g><g id="text_1"><defs><path d="M10.6 35.5h62.6v-8.3H10.6z" id="DejaVuSans-8722"/><path d="M37.8 64.3l-25-39h25zM35.2 73h12.4V25.4H58v-8.2H47.6V0h-9.8v17.2h-33v9.5z" id="DejaVuSans-52"/></defs><g transform="matrix(.1 0 0 -.1 50 239.2)"><use xlink:href="#DejaVuSans-8722"/><use x="83.8" xlink:href="#DejaVuSans-52"/></g></g></g><g id="xtick_2"><use x="119.7" xlink:href="#mbbace0126f" y="224.6" stroke="#000" stroke-width=".8" id="line2d_2"/><g id="text_2"><defs><path d="M19.2 8.3h34.4V0H7.3v8.3l15.3 15.6q9.7 9.8 12.2 12.6 4.7 5.3 6.6 9 2 3.7 2 7.3 0 5.8-4.2 9.5-4 3.6-10.6 3.6-4.6 0-9.8-1.6-5.1-1.6-11-4.9v10q6 2.4 11.1 3.6 5.2 1.2 9.5 1.2 11.4 0 18-5.7 6.8-5.6 6.8-15 0-4.6-1.7-8.6-1.6-4-6-9.5l-7.9-8.2L19.2 8.3z" id="DejaVuSans-50"/></defs><g transform="matrix(.1 0 0 -.1 112.4 239.2)"><use xlink:href="#DejaVuSans-8722"/><use x="83.8" xlink:href="#DejaVuSans-50"/></g></g></g><g id="xtick_3"><use x="182.1" xlink:href="#mbbace0126f" y="224.6" stroke="#000" stroke-width=".8" id="line2d_3"/><g id="text_3"><defs><path d="M31.8 66.4q-7.6 0-11.5-7.5-3.8-7.5-3.8-22.5t3.8-22.5q3.9-7.5 11.5-7.5 7.7 0 11.5 7.5T47 36.4q0 15-3.8 22.5t-11.5 7.5zm0 7.8q12.2 0 18.7-9.7T57 36.4Q57 18 50.5 8.3 44-1.4 31.8-1.4 19.5-1.4 13 8.3q-6.5 9.7-6.5 28 0 18.5 6.5 28.2 6.4 9.7 18.7 9.7z" id="DejaVuSans-48"/></defs><use xlink:href="#DejaVuSans-48" transform="matrix(.1 0 0 -.1 179 239.2)"/></g></g><g id="xtick_4"><use x="244.5" xlink:href="#mbbace0126f" y="224.6" stroke="#000" stroke-width=".8" id="line2d_4"/><use xlink:href="#DejaVuSans-50" transform="matrix(.1 0 0 -.1 241.4 239.2)" id="text_4"/></g><g id="xtick_5"><use x="306.9" xlink:href="#mbbace0126f" y="224.6" stroke="#000" stroke-width=".8" id="line2d_5"/><use xlink:href="#DejaVuSans-52" transform="matrix(.1 0 0 -.1 303.8 239.2)" id="text_5"/></g><g id="text_6"><defs><path d="M34.3 27.5q-11 0-15.1-2.5-4.2-2.5-4.2-8.5 0-4.8 3.1-7.6 3.2-2.8 8.6-2.8 7.5 0 12 5.3t4.5 14v2zm17.9 3.7V0h-9v8.3q-3-5-7.7-7.3Q31-1.4 24.3-1.4 16-1.4 11 3.3 6 8 6 15.9q0 9.2 6.2 14 6.2 4.6 18.4 4.6h12.6v1q0 6.1-4 9.5-4.1 3.4-11.5 3.4-4.7 0-9.2-1.1-4.4-1.2-8.5-3.4v8.3q5 2 9.6 2.8 4.6 1 9 1 11.9 0 17.7-6.2 5.9-6.1 5.9-18.6z" id="DejaVuSans-97"/><path d="M9.8 73h14.7l18.6-49.7 18.7 49.6h14.7V0H67v64L48 14H38L19.5 64V0H9.8z" id="DejaVuSans-77"/><path d="M9.4 76h9V0h-9z" id="DejaVuSans-108"/><path d="M18.3 70.2V54.7h18.5v-7H18.3V18q0-6.7 1.8-8.6 1.9-1.9 7.5-1.9h9.2V0h-9.2Q17.2 0 13.2 3.9T9.2 18v29.7H2.8v7h6.6v15.5z" id="DejaVuSans-116"/><path d="M9.4 54.7h9V0h-9zm0 21.3h9V64.6h-9z" id="DejaVuSans-105"/><path d="M3 54.7h9.5l17-45.9 17.2 45.9h9.5L35.7 0H23.5z" id="DejaVuSans-118"/><path d="M8.5 21.6v33h9V22q0-7.7 3-11.6 3-4 9-4 7.4 0 11.6 4.7 4.2 4.7 4.2 12.7v31h9V0h-9v8.4Q42 3.4 37.7 1q-4.3-2.4-10-2.4-9.4 0-14.3 5.8-4.9 5.9-4.9 17.2zM31.1 56z" id="DejaVuSans-117"/><path d="M41.1 46.3q-1.5.9-3.3 1.3-1.8.4-4 .4-7.5 0-11.6-5-4-5-4-14.2V0H9v54.7h9v-8.5q2.9 5 7.4 7.4Q30 56 36.5 56l2-.1 2.6-.4z" id="DejaVuSans-114"/><path d="M56.2 29.6v-4.4H14.9q.6-9.3 5.6-14.1 5-4.9 14-4.9 5 0 10 1.3 4.8 1.2 9.6 3.8V2.8q-4.8-2-10-3.1-5-1.1-10.2-1.1-13.1 0-20.7 7.6-7.7 7.6-7.7 20.6 0 13.4 7.3 21.3Q20 56 32.3 56q11 0 17.5-7.1 6.4-7.1 6.4-19.3zm-9 2.6q0 7.4-4.1 11.8-4 4.4-10.7 4.4-7.5 0-12-4.3-4.5-4.2-5.2-12z" id="DejaVuSans-101"/><path d="M9.8 73h13.3l32.3-61v61H65V0H51.7L19.4 61V0H9.8z" id="DejaVuSans-78"/><path d="M30.6 48.4q-7.2 0-11.4-5.6Q15 37 15 27.3t4.2-15.5q4.1-5.6 11.4-5.6 7.2 0 11.4 5.7 4.2 5.6 4.2 15.4 0 9.7-4.2 15.4-4.2 5.7-11.4 5.7zm0 7.6q11.7 0 18.4-7.6 6.7-7.6 6.7-21.1 0-13.4-6.7-21-6.7-7.7-18.4-7.7-11.8 0-18.4 7.6Q5.5 14 5.5 27.3q0 13.5 6.7 21Q18.8 56 30.6 56z" id="DejaVuSans-111"/><path d="M52 44.2q3.4 6 8 9Q64.9 56 71 56q8.6 0 13.3-6 4.6-6 4.6-17V0h-9v32.7q0 7.9-2.8 11.7-2.8 3.8-8.5 3.8-7 0-11-4.7-4-4.6-4-12.6V0h-9.1v32.7q0 8-2.8 11.7-2.8 3.8-8.6 3.8-6.9 0-11-4.7-4-4.6-4-12.6V0h-9v54.7h9v-8.5q3 5 7.4 7.4Q29.8 56 35.7 56q6 0 10.1-3 4.2-3 6.2-8.8z" id="DejaVuSans-109"/><path d="M19.7 64.8V37.4H32q6.9 0 10.6 3.6 3.8 3.5 3.8 10.1t-3.8 10.1q-3.7 3.6-10.6 3.6zm-9.9 8.1h22.3q12.2 0 18.5-5.5Q57 61.8 57 51q0-10.8-6.3-16.3t-18.5-5.5H19.7V0H9.8z" id="DejaVuSans-80"/></defs><g transform="matrix(.1 0 0 -.1 103.9 253)"><use xlink:href="#DejaVuSans-77"/><use x="86.3" xlink:href="#DejaVuSans-117"/><use x="149.7" xlink:href="#DejaVuSans-108"/><use x="177.4" xlink:href="#DejaVuSans-116"/><use x="216.7" xlink:href="#DejaVuSans-105"/><use x="244.4" xlink:href="#DejaVuSans-118"/><use x="303.6" xlink:href="#DejaVuSans-97"/><use x="364.9" xlink:href="#DejaVuSans-114"/><use x="406" xlink:href="#DejaVuSans-105"/><use x="433.8" xlink:href="#DejaVuSans-97"/><use x="495.1" xlink:href="#DejaVuSans-116"/><use x="534.3" xlink:href="#DejaVuSans-101"/><use x="595.8" xlink:href="#DejaVuSans-78"/><use x="670.6" xlink:href="#DejaVuSans-111"/><use x="731.8" xlink:href="#DejaVuSans-114"/><use x="772.9" xlink:href="#DejaVuSans-109"/><use x="870.3" xlink:href="#DejaVuSans-97"/><use x="931.6" xlink:href="#DejaVuSans-108"/><use x="959.4" xlink:href="#DejaVuSans-80"/><use x="1019.6" xlink:href="#DejaVuSans-97"/><use x="1080.9" xlink:href="#DejaVuSans-114"/><use x="1122" xlink:href="#DejaVuSans-97"/><use x="1183.3" xlink:href="#DejaVuSans-109"/><use x="1280.7" xlink:href="#DejaVuSans-101"/><use x="1342.2" xlink:href="#DejaVuSans-116"/><use x="1381.4" xlink:href="#DejaVuSans-101"/><use x="1442.9" xlink:href="#DejaVuSans-114"/></g></g></g><path d="M10.7 224.6h334.8" fill="none" stroke="#000" stroke-linecap="square" stroke-width=".8" id="patch_6"/><g id="legend_1"><path d="M300.1 59.2h38.4q2 0 2-2v-43q0-2-2-2h-38.4q-2 0-2 2v43q0 2 2 2z" fill="#fff" opacity=".8" stroke="#ccc" id="patch_7"/><path d="M302.1 23.8h20v-7h-20z" fill="#1f77b4" opacity=".4" id="patch_8"/><use xlink:href="#DejaVuSans-48" transform="matrix(.1 0 0 -.1 330.1 23.8)" id="text_7"/><path d="M302.1 38.5h20v-7h-20z" fill="#ff7f0e" opacity=".4" id="patch_9"/><g id="text_8"><defs><path d="M12.4 8.3h16.1v55.6L11 60.4v9l17.4 3.5h9.9V8.3h16V0H12.5z" id="DejaVuSans-49"/></defs><use xlink:href="#DejaVuSans-49" transform="matrix(.1 0 0 -.1 330.1 38.5)"/></g><path d="M302.1 53.2h20v-7h-20z" fill="#2ca02c" opacity=".4" id="patch_10"/><use xlink:href="#DejaVuSans-50" transform="matrix(.1 0 0 -.1 330.1 53.2)" id="text_9"/></g></g></g><defs><clipPath id="p9dccb4f4f5"><path d="M10.7 7.2h334.8v217.4H10.7z"/></clipPath></defs></svg>