<svg height="349.6" viewBox="0 0 356.2 262.2" width="474.9" xmlns="http://www.w3.org/2000/svg" xmlns:xlink="http://www.w3.org/1999/xlink"><defs><style>*{stroke-linecap:butt;stroke-linejoin:round}</style></defs><g id="figure_1"><path d="M0 262.2h356.2V0H0z" fill="none" id="patch_1"/><g id="axes_1"><path d="M10.7 224.6h334.8V7.2H10.7z" fill="#fff" id="patch_2"/><path clip-path="url(#p92c189885c)" d="M26 224.6H41v-.4H26z" fill="#1f77b4" opacity=".4" id="patch_3"/><path clip-path="url(#p92c189885c)" d="M41.1 224.6h15.3v-.5H41z" fill="#1f77b4" opacity=".4" id="patch_4"/><path clip-path="url(#p92c189885c)" d="M56.4 224.6h15.2v-1.5H56.4z" fill="#1f77b4" opacity=".4" id="patch_5"/><path clip-path="url(#p92c189885c)" d="M71.6 224.6h15.2V218H71.6z" fill="#1f77b4" opacity=".4" id="patch_6"/><path clip-path="url(#p92c189885c)" d="M86.8 224.6H102v-14.4H86.8z" fill="#1f77b4" opacity=".4" id="patch_7"/><path clip-path="url(#p92c189885c)" d="M102 224.6h15.2v-30H102z" fill="#1f77b4" opacity=".4" id="patch_8"/><path clip-path="url(#p92c189885c)" d="M117.2 224.6h15.2v-60.5h-15.2z" fill="#1f77b4" opacity=".4" id="patch_9"/><path clip-path="url(#p92c189885c)" d="M132.4 224.6h15.3V122.2h-15.3z" fill="#1f77b4" opacity=".4" id="patch_10"/><path clip-path="url(#p92c189885c)" d="M147.7 224.6h15.2V75.4h-15.2z" fill="#1f77b4" opacity=".4" id="patch_11"/><path clip-path="url(#p92c189885c)" d="M162.9 224.6H178v-182h-15.2z" fill="#1f77b4" opacity=".4" id="patch_12"/><path clip-path="url(#p92c189885c)" d="M178.1 224.6h15.2v-207h-15.2z" fill="#1f77b4" opacity=".4" id="patch_13"/><path clip-path="url(#p92c189885c)" d="M193.3 224.6h15.2v-191h-15.2z" fill="#1f77b4" opacity=".4" id="patch_14"/><path clip-path="url(#p92c189885c)" d="M208.5 224.6h15.3V44.5h-15.3z" fill="#1f77b4" opacity=".4" id="patch_15"/><path clip-path="url(#p92c189885c)" d="M223.8 224.6H239V97h-15.2z" fill="#1f77b4" opacity=".4" id="patch_16"/><path clip-path="url(#p92c189885c)" d="M239 224.6h15.2v-83H239z" fill="#1f77b4" opacity=".4" id="patch_17"/><path clip-path="url(#p92c189885c)" d="M254.2 224.6h15.2v-46.3h-15.2z" fill="#1f77b4" opacity=".4" id="patch_18"/><path clip-path="url(#p92c189885c)" d="M269.4 224.6h15.2v-20h-15.2z" fill="#1f77b4" opacity=".4" id="patch_19"/><path clip-path="url(#p92c189885c)" d="M284.6 224.6h15.2v-9.5h-15.2z" fill="#1f77b4" opacity=".4" id="patch_20"/><path clip-path="url(#p92c189885c)" d="M299.8 224.6h15.3V220h-15.3z" fill="#1f77b4" opacity=".4" id="patch_21"/><path clip-path="url(#p92c189885c)" d="M315 224.6h15.3v-.8H315z" fill="#1f77b4" opacity=".4" id="patch_22"/><path clip-path="url(#p92c189885c)" d="M26 224.6H41 26z" fill="#1f77b4" opacity=".4" id="patch_23"/><path clip-path="url(#p92c189885c)" d="M41.1 224.6h15.3H41z" fill="#1f77b4" opacity=".4" id="patch_24"/><path clip-path="url(#p92c189885c)" d="M56.4 224.6h15.2-15.2z" fill="#1f77b4" opacity=".4" id="patch_25"/><path clip-path="url(#p92c189885c)" d="M71.6 224.6h15.2-15.2z" fill="#1f77b4" opacity=".4" id="patch_26"/><path clip-path="url(#p92c189885c)" d="M86.8 224.6H102 86.8z" fill="#1f77b4" opacity=".4" id="patch_27"/><path clip-path="url(#p92c189885c)" d="M102 224.6h15.2H102z" fill="#1f77b4" opacity=".4" id="patch_28"/><path clip-path="url(#p92c189885c)" d="M117.2 224.6h15.2v-43.4h-15.2z" fill="#1f77b4" opacity=".4" id="patch_29"/><path clip-path="url(#p92c189885c)" d="M132.4 224.6h15.3V122.2h-15.3z" fill="#1f77b4" opacity=".4" id="patch_30"/><path clip-path="url(#p92c189885c)" d="M147.7 224.6h15.2V75.4h-15.2z" fill="#1f77b4" opacity=".4" id="patch_31"/><path clip-path="url(#p92c189885c)" d="M162.9 224.6H178v-182h-15.2z" fill="#1f77b4" opacity=".4" id="patch_32"/><path clip-path="url(#p92c189885c)" d="M178.1 224.6h15.2v-207h-15.2z" fill="#1f77b4" opacity=".4" id="patch_33"/><path clip-path="url(#p92c189885c)" d="M193.3 224.6h15.2v-191h-15.2z" fill="#1f77b4" opacity=".4" id="patch_34"/><path clip-path="url(#p92c189885c)" d="M208.5 224.6h15.3V44.5h-15.3z" fill="#1f77b4" opacity=".4" id="patch_35"/><path clip-path="url(#p92c189885c)" d="M223.8 224.6H239V97h-15.2z" fill="#1f77b4" opacity=".4" id="patch_36"/><path clip-path="url(#p92c189885c)" d="M239 224.6h15.2v-83H239z" fill="#1f77b4" opacity=".4" id="patch_37"/><path clip-path="url(#p92c189885c)" d="M254.2 224.6h15.2v-10.5h-15.2z" fill="#1f77b4" opacity=".4" id="patch_38"/><path clip-path="url(#p92c189885c)" d="M269.4 224.6h15.2-15.2z" fill="#1f77b4" opacity=".4" id="patch_39"/><path clip-path="url(#p92c189885c)" d="M284.6 224.6h15.2-15.2z" fill="#1f77b4" opacity=".4" id="patch_40"/><path clip-path="url(#p92c189885c)" d="M299.8 224.6h15.3-15.3z" fill="#1f77b4" opacity=".4" id="patch_41"/><path clip-path="url(#p92c189885c)" d="M315 224.6h15.3H315z" fill="#1f77b4" opacity=".4" id="patch_42"/><g id="matplotlib.axis_1"><g id="xtick_1"><g id="line2d_1"><defs><path d="M0 0v3.5" id="mb6aa16e062" stroke="#000" stroke-width=".8"/></defs><use x="23.9" xlink:href="#mb6aa16e062" y="224.6" stroke="#000" stroke-width=".8"/></g><g id="text_1"><defs><path d="M10.6 35.5h62.6v-8.3H10.6z" id="DejaVuSans-8722"/><path d="M12.4 8.3h16.1v55.6L11 60.4v9l17.4 3.5h9.9V8.3h16V0H12.5z" id="DejaVuSans-49"/><path d="M19.2 8.3h34.4V0H7.3v8.3l15.3 15.6q9.7 9.8 12.2 12.6 4.7 5.3 6.6 9 2 3.7 2 7.3 0 5.8-4.2 9.5-4 3.6-10.6 3.6-4.6 0-9.8-1.6-5.1-1.6-11-4.9v10q6 2.4 11.1 3.6 5.2 1.2 9.5 1.2 11.4 0 18-5.7 6.8-5.6 6.8-15 0-4.6-1.7-8.6-1.6-4-6-9.5l-7.9-8.2L19.2 8.3z" id="DejaVuSans-50"/><path d="M10.7 12.4H21V0H10.7z" id="DejaVuSans-46"/><path d="M10.8 73h38.7v-8.4H19.8V46.7q2.2.8 4.3 1.1 2.2.4 4.3.4 12.2 0 19.4-6.7 7-6.7 7-18.1 0-11.8-7.2-18.3-7.4-6.5-20.7-6.5-4.6 0-9.4.8-4.7.7-9.8 2.3v10q4.4-2.5 9.1-3.6 4.7-1.2 9.9-1.2 8.5 0 13.4 4.4 5 4.5 5 12 0 7.7-5 12.1Q35 40 26.7 40q-4 0-7.9-.9-4-.9-8-2.7z" id="DejaVuSans-53"/></defs><g transform="matrix(.1 0 0 -.1 8.5 239.2)"><use xlink:href="#DejaVuSans-8722"/><use x="83.8" xlink:href="#DejaVuSans-49"/><use x="147.4" xlink:href="#DejaVuSans-50"/><use x="211" xlink:href="#DejaVuSans-46"/><use x="242.8" xlink:href="#DejaVuSans-53"/></g></g></g><g id="xtick_2"><use x="62.5" xlink:href="#mb6aa16e062" y="224.6" stroke="#000" stroke-width=".8" id="line2d_2"/><g id="text_2"><defs><path d="M31.8 66.4q-7.6 0-11.5-7.5-3.8-7.5-3.8-22.5t3.8-22.5q3.9-7.5 11.5-7.5 7.7 0 11.5 7.5T47 36.4q0 15-3.8 22.5t-11.5 7.5zm0 7.8q12.2 0 18.7-9.7T57 36.4Q57 18 50.5 8.3 44-1.4 31.8-1.4 19.5-1.4 13 8.3q-6.5 9.7-6.5 28 0 18.5 6.5 28.2 6.4 9.7 18.7 9.7z" id="DejaVuSans-48"/></defs><g transform="matrix(.1 0 0 -.1 47.2 239.2)"><use xlink:href="#DejaVuSans-8722"/><use x="83.8" xlink:href="#DejaVuSans-49"/><use x="147.4" xlink:href="#DejaVuSans-48"/><use x="211" xlink:href="#DejaVuSans-46"/><use x="242.8" xlink:href="#DejaVuSans-48"/></g></g></g><g id="xtick_3"><use x="101.2" xlink:href="#mb6aa16e062" y="224.6" stroke="#000" stroke-width=".8" id="line2d_3"/><g id="text_3"><defs><path d="M8.2 73h46.9v-4.3L28.6 0H18.3l25 64.6H8.1z" id="DejaVuSans-55"/></defs><g transform="matrix(.1 0 0 -.1 89 239.2)"><use xlink:href="#DejaVuSans-8722"/><use x="83.8" xlink:href="#DejaVuSans-55"/><use x="147.4" xlink:href="#DejaVuSans-46"/><use x="179.2" xlink:href="#DejaVuSans-53"/></g></g></g><g id="xtick_4"><use x="139.8" xlink:href="#mb6aa16e062" y="224.6" stroke="#000" stroke-width=".8" id="line2d_4"/><g transform="matrix(.1 0 0 -.1 127.7 239.2)" id="text_4"><use xlink:href="#DejaVuSans-8722"/><use x="83.8" xlink:href="#DejaVuSans-53"/><use x="147.4" xlink:href="#DejaVuSans-46"/><use x="179.2" xlink:href="#DejaVuSans-48"/></g></g><g id="xtick_5"><use x="178.4" xlink:href="#mb6aa16e062" y="224.6" stroke="#000" stroke-width=".8" id="line2d_5"/><g transform="matrix(.1 0 0 -.1 166.3 239.2)" id="text_5"><use xlink:href="#DejaVuSans-8722"/><use x="83.8" xlink:href="#DejaVuSans-50"/><use x="147.4" xlink:href="#DejaVuSans-46"/><use x="179.2" xlink:href="#DejaVuSans-53"/></g></g><g id="xtick_6"><use x="217.1" xlink:href="#mb6aa16e062" y="224.6" stroke="#000" stroke-width=".8" id="line2d_6"/><g transform="matrix(.1 0 0 -.1 209.1 239.2)" id="text_6"><use xlink:href="#DejaVuSans-48"/><use x="63.6" xlink:href="#DejaVuSans-46"/><use x="95.4" xlink:href="#DejaVuSans-48"/></g></g><g id="xtick_7"><use x="255.7" xlink:href="#mb6aa16e062" y="224.6" stroke="#000" stroke-width=".8" id="line2d_7"/><g transform="matrix(.1 0 0 -.1 247.8 239.2)" id="text_7"><use xlink:href="#DejaVuSans-50"/><use x="63.6" xlink:href="#DejaVuSans-46"/><use x="95.4" xlink:href="#DejaVuSans-53"/></g></g><g id="xtick_8"><use x="294.4" xlink:href="#mb6aa16e062" y="224.6" stroke="#000" stroke-width=".8" id="line2d_8"/><g transform="matrix(.1 0 0 -.1 286.4 239.2)" id="text_8"><use xlink:href="#DejaVuSans-53"/><use x="63.6" xlink:href="#DejaVuSans-46"/><use x="95.4" xlink:href="#DejaVuSans-48"/></g></g><g id="xtick_9"><use x="333" xlink:href="#mb6aa16e062" y="224.6" stroke="#000" stroke-width=".8" id="line2d_9"/><g transform="matrix(.1 0 0 -.1 325 239.2)" id="text_9"><use xlink:href="#DejaVuSans-55"/><use x="63.6" xlink:href="#DejaVuSans-46"/><use x="95.4" xlink:href="#DejaVuSans-53"/></g></g><g id="text_10"><defs><path d="M19.7 64.8V37.4H32q6.9 0 10.6 3.6 3.8 3.5 3.8 10.1t-3.8 10.1q-3.7 3.6-10.6 3.6zm-9.9 8.1h22.3q12.2 0 18.5-5.5Q57 61.8 57 51q0-10.8-6.3-16.3t-18.5-5.5H19.7V0H9.8z" id="DejaVuSans-80"/><path d="M34.3 27.5q-11 0-15.1-2.5-4.2-2.5-4.2-8.5 0-4.8 3.1-7.6 3.2-2.8 8.6-2.8 7.5 0 12 5.3t4.5 14v2zm17.9 3.7V0h-9v8.3q-3-5-7.7-7.3Q31-1.4 24.3-1.4 16-1.4 11 3.3 6 8 6 15.9q0 9.2 6.2 14 6.2 4.6 18.4 4.6h12.6v1q0 6.1-4 9.5-4.1 3.4-11.5 3.4-4.7 0-9.2-1.1-4.4-1.2-8.5-3.4v8.3q5 2 9.6 2.8 4.6 1 9 1 11.9 0 17.7-6.2 5.9-6.1 5.9-18.6z" id="DejaVuSans-97"/><path d="M41.1 46.3q-1.5.9-3.3 1.3-1.8.4-4 .4-7.5 0-11.6-5-4-5-4-14.2V0H9v54.7h9v-8.5q2.9 5 7.4 7.4Q30 56 36.5 56l2-.1 2.6-.4z" id="DejaVuSans-114"/><path d="M52 44.2q3.4 6 8 9Q64.9 56 71 56q8.6 0 13.3-6 4.6-6 4.6-17V0h-9v32.7q0 7.9-2.8 11.7-2.8 3.8-8.5 3.8-7 0-11-4.7-4-4.6-4-12.6V0h-9.1v32.7q0 8-2.8 11.7-2.8 3.8-8.6 3.8-6.9 0-11-4.7-4-4.6-4-12.6V0h-9v54.7h9v-8.5q3 5 7.4 7.4Q29.8 56 35.7 56q6 0 10.1-3 4.2-3 6.2-8.8z" id="DejaVuSans-109"/><path d="M56.2 29.6v-4.4H14.9q.6-9.3 5.6-14.1 5-4.9 14-4.9 5 0 10 1.3 4.8 1.2 9.6 3.8V2.8q-4.8-2-10-3.1-5-1.1-10.2-1.1-13.1 0-20.7 7.6-7.7 7.6-7.7 20.6 0 13.4 7.3 21.3Q20 56 32.3 56q11 0 17.5-7.1 6.4-7.1 6.4-19.3zm-9 2.6q0 7.4-4.1 11.8-4 4.4-10.7 4.4-7.5 0-12-4.3-4.5-4.2-5.2-12z" id="DejaVuSans-101"/><path d="M18.3 70.2V54.7h18.5v-7H18.3V18q0-6.7 1.8-8.6 1.9-1.9 7.5-1.9h9.2V0h-9.2Q17.2 0 13.2 3.9T9.2 18v29.7H2.8v7h6.6v15.5z" id="DejaVuSans-116"/></defs><g transform="matrix(.1 0 0 -.1 151.9 253)"><use xlink:href="#DejaVuSans-80"/><use x="60.2" xlink:href="#DejaVuSans-97"/><use x="121.5" xlink:href="#DejaVuSans-114"/><use x="162.6" xlink:href="#DejaVuSans-97"/><use x="223.9" xlink:href="#DejaVuSans-109"/><use x="321.3" xlink:href="#DejaVuSans-101"/><use x="382.8" xlink:href="#DejaVuSans-116"/><use x="422.1" xlink:href="#DejaVuSans-101"/><use x="483.6" xlink:href="#DejaVuSans-114"/></g></g></g><path d="M10.7 224.6h334.8" fill="none" stroke="#000" stroke-linecap="square" stroke-width=".8" id="patch_43"/></g></g><defs><clipPath id="p92c189885c"><path d="M10.7 7.2h334.8v217.4H10.7z"/></clipPath></defs></svg>