<svg height="267.599687pt" version="1.1" viewBox="0 0 391.807187 267.599687" width="391.807187pt" xmlns="http://www.w3.org/2000/svg" xmlns:xlink="http://www.w3.org/1999/xlink">
 <defs>
  <style type="text/css">
*{stroke-linecap:butt;stroke-linejoin:round;}
  </style>
 </defs>
 <g id="figure_1">
  <g id="patch_1">
   <path d="M 0 267.599687 
L 391.807187 267.599687 
L 391.807187 0 
L 0 0 
z
" style="fill:#ffffff;"></path>
  </g>
  <g id="axes_1">
   <g id="patch_2">
    <path d="M 49.807188 224.64 
L 384.607188 224.64 
L 384.607188 7.2 
L 49.807188 7.2 
z
" style="fill:#eaeaf2;"></path>
   </g>
   <g id="matplotlib.axis_1">
    <g id="xtick_1">
     <g id="line2d_1">
      <path clip-path="url(#p6926be9061)" d="M 65.025369 224.64 
L 65.025369 7.2 
" style="fill:none;stroke:#ffffff;stroke-linecap:round;"></path>
     </g>
     <g id="text_1">
      <!-- 0.0 -->
      <defs>
       <path d="M 31.78125 66.40625 
Q 24.171875 66.40625 20.328125 58.90625 
Q 16.5 51.421875 16.5 36.375 
Q 16.5 21.390625 20.328125 13.890625 
Q 24.171875 6.390625 31.78125 6.390625 
Q 39.453125 6.390625 43.28125 13.890625 
Q 47.125 21.390625 47.125 36.375 
Q 47.125 51.421875 43.28125 58.90625 
Q 39.453125 66.40625 31.78125 66.40625 
z
M 31.78125 74.21875 
Q 44.046875 74.21875 50.515625 64.515625 
Q 56.984375 54.828125 56.984375 36.375 
Q 56.984375 17.96875 50.515625 8.265625 
Q 44.046875 -1.421875 31.78125 -1.421875 
Q 19.53125 -1.421875 13.0625 8.265625 
Q 6.59375 17.96875 6.59375 36.375 
Q 6.59375 54.828125 13.0625 64.515625 
Q 19.53125 74.21875 31.78125 74.21875 
z
" id="DejaVuSans-48"></path>
       <path d="M 10.6875 12.40625 
L 21 12.40625 
L 21 0 
L 10.6875 0 
z
" id="DejaVuSans-46"></path>
      </defs>
      <g style="fill:#262626;" transform="translate(56.278651 242.498281)scale(0.11 -0.11)">
       <use xlink:href="#DejaVuSans-48"></use>
       <use x="63.623047" xlink:href="#DejaVuSans-46"></use>
       <use x="95.410156" xlink:href="#DejaVuSans-48"></use>
      </g>
     </g>
    </g>
    <g id="xtick_2">
     <g id="line2d_2">
      <path clip-path="url(#p6926be9061)" d="M 125.898097 224.64 
L 125.898097 7.2 
" style="fill:none;stroke:#ffffff;stroke-linecap:round;"></path>
     </g>
     <g id="text_2">
      <!-- 0.2 -->
      <defs>
       <path d="M 19.1875 8.296875 
L 53.609375 8.296875 
L 53.609375 0 
L 7.328125 0 
L 7.328125 8.296875 
Q 12.9375 14.109375 22.625 23.890625 
Q 32.328125 33.6875 34.8125 36.53125 
Q 39.546875 41.84375 41.421875 45.53125 
Q 43.3125 49.21875 43.3125 52.78125 
Q 43.3125 58.59375 39.234375 62.25 
Q 35.15625 65.921875 28.609375 65.921875 
Q 23.96875 65.921875 18.8125 64.3125 
Q 13.671875 62.703125 7.8125 59.421875 
L 7.8125 69.390625 
Q 13.765625 71.78125 18.9375 73 
Q 24.125 74.21875 28.421875 74.21875 
Q 39.75 74.21875 46.484375 68.546875 
Q 53.21875 62.890625 53.21875 53.421875 
Q 53.21875 48.921875 51.53125 44.890625 
Q 49.859375 40.875 45.40625 35.40625 
Q 44.1875 33.984375 37.640625 27.21875 
Q 31.109375 20.453125 19.1875 8.296875 
z
" id="DejaVuSans-50"></path>
      </defs>
      <g style="fill:#262626;" transform="translate(117.151378 242.498281)scale(0.11 -0.11)">
       <use xlink:href="#DejaVuSans-48"></use>
       <use x="63.623047" xlink:href="#DejaVuSans-46"></use>
       <use x="95.410156" xlink:href="#DejaVuSans-50"></use>
      </g>
     </g>
    </g>
    <g id="xtick_3">
     <g id="line2d_3">
      <path clip-path="url(#p6926be9061)" d="M 186.770824 224.64 
L 186.770824 7.2 
" style="fill:none;stroke:#ffffff;stroke-linecap:round;"></path>
     </g>
     <g id="text_3">
      <!-- 0.4 -->
      <defs>
       <path d="M 37.796875 64.3125 
L 12.890625 25.390625 
L 37.796875 25.390625 
z
M 35.203125 72.90625 
L 47.609375 72.90625 
L 47.609375 25.390625 
L 58.015625 25.390625 
L 58.015625 17.1875 
L 47.609375 17.1875 
L 47.609375 0 
L 37.796875 0 
L 37.796875 17.1875 
L 4.890625 17.1875 
L 4.890625 26.703125 
z
" id="DejaVuSans-52"></path>
      </defs>
      <g style="fill:#262626;" transform="translate(178.024105 242.498281)scale(0.11 -0.11)">
       <use xlink:href="#DejaVuSans-48"></use>
       <use x="63.623047" xlink:href="#DejaVuSans-46"></use>
       <use x="95.410156" xlink:href="#DejaVuSans-52"></use>
      </g>
     </g>
    </g>
    <g id="xtick_4">
     <g id="line2d_4">
      <path clip-path="url(#p6926be9061)" d="M 247.643551 224.64 
L 247.643551 7.2 
" style="fill:none;stroke:#ffffff;stroke-linecap:round;"></path>
     </g>
     <g id="text_4">
      <!-- 0.6 -->
      <defs>
       <path d="M 33.015625 40.375 
Q 26.375 40.375 22.484375 35.828125 
Q 18.609375 31.296875 18.609375 23.390625 
Q 18.609375 15.53125 22.484375 10.953125 
Q 26.375 6.390625 33.015625 6.390625 
Q 39.65625 6.390625 43.53125 10.953125 
Q 47.40625 15.53125 47.40625 23.390625 
Q 47.40625 31.296875 43.53125 35.828125 
Q 39.65625 40.375 33.015625 40.375 
z
M 52.59375 71.296875 
L 52.59375 62.3125 
Q 48.875 64.0625 45.09375 64.984375 
Q 41.3125 65.921875 37.59375 65.921875 
Q 27.828125 65.921875 22.671875 59.328125 
Q 17.53125 52.734375 16.796875 39.40625 
Q 19.671875 43.65625 24.015625 45.921875 
Q 28.375 48.1875 33.59375 48.1875 
Q 44.578125 48.1875 50.953125 41.515625 
Q 57.328125 34.859375 57.328125 23.390625 
Q 57.328125 12.15625 50.6875 5.359375 
Q 44.046875 -1.421875 33.015625 -1.421875 
Q 20.359375 -1.421875 13.671875 8.265625 
Q 6.984375 17.96875 6.984375 36.375 
Q 6.984375 53.65625 15.1875 63.9375 
Q 23.390625 74.21875 37.203125 74.21875 
Q 40.921875 74.21875 44.703125 73.484375 
Q 48.484375 72.75 52.59375 71.296875 
z
" id="DejaVuSans-54"></path>
      </defs>
      <g style="fill:#262626;" transform="translate(238.896832 242.498281)scale(0.11 -0.11)">
       <use xlink:href="#DejaVuSans-48"></use>
       <use x="63.623047" xlink:href="#DejaVuSans-46"></use>
       <use x="95.410156" xlink:href="#DejaVuSans-54"></use>
      </g>
     </g>
    </g>
    <g id="xtick_5">
     <g id="line2d_5">
      <path clip-path="url(#p6926be9061)" d="M 308.516278 224.64 
L 308.516278 7.2 
" style="fill:none;stroke:#ffffff;stroke-linecap:round;"></path>
     </g>
     <g id="text_5">
      <!-- 0.8 -->
      <defs>
       <path d="M 31.78125 34.625 
Q 24.75 34.625 20.71875 30.859375 
Q 16.703125 27.09375 16.703125 20.515625 
Q 16.703125 13.921875 20.71875 10.15625 
Q 24.75 6.390625 31.78125 6.390625 
Q 38.8125 6.390625 42.859375 10.171875 
Q 46.921875 13.96875 46.921875 20.515625 
Q 46.921875 27.09375 42.890625 30.859375 
Q 38.875 34.625 31.78125 34.625 
z
M 21.921875 38.8125 
Q 15.578125 40.375 12.03125 44.71875 
Q 8.5 49.078125 8.5 55.328125 
Q 8.5 64.0625 14.71875 69.140625 
Q 20.953125 74.21875 31.78125 74.21875 
Q 42.671875 74.21875 48.875 69.140625 
Q 55.078125 64.0625 55.078125 55.328125 
Q 55.078125 49.078125 51.53125 44.71875 
Q 48 40.375 41.703125 38.8125 
Q 48.828125 37.15625 52.796875 32.3125 
Q 56.78125 27.484375 56.78125 20.515625 
Q 56.78125 9.90625 50.3125 4.234375 
Q 43.84375 -1.421875 31.78125 -1.421875 
Q 19.734375 -1.421875 13.25 4.234375 
Q 6.78125 9.90625 6.78125 20.515625 
Q 6.78125 27.484375 10.78125 32.3125 
Q 14.796875 37.15625 21.921875 38.8125 
z
M 18.3125 54.390625 
Q 18.3125 48.734375 21.84375 45.5625 
Q 25.390625 42.390625 31.78125 42.390625 
Q 38.140625 42.390625 41.71875 45.5625 
Q 45.3125 48.734375 45.3125 54.390625 
Q 45.3125 60.0625 41.71875 63.234375 
Q 38.140625 66.40625 31.78125 66.40625 
Q 25.390625 66.40625 21.84375 63.234375 
Q 18.3125 60.0625 18.3125 54.390625 
z
" id="DejaVuSans-56"></path>
      </defs>
      <g style="fill:#262626;" transform="translate(299.76956 242.498281)scale(0.11 -0.11)">
       <use xlink:href="#DejaVuSans-48"></use>
       <use x="63.623047" xlink:href="#DejaVuSans-46"></use>
       <use x="95.410156" xlink:href="#DejaVuSans-56"></use>
      </g>
     </g>
    </g>
    <g id="xtick_6">
     <g id="line2d_6">
      <path clip-path="url(#p6926be9061)" d="M 369.389006 224.64 
L 369.389006 7.2 
" style="fill:none;stroke:#ffffff;stroke-linecap:round;"></path>
     </g>
     <g id="text_6">
      <!-- 1.0 -->
      <defs>
       <path d="M 12.40625 8.296875 
L 28.515625 8.296875 
L 28.515625 63.921875 
L 10.984375 60.40625 
L 10.984375 69.390625 
L 28.421875 72.90625 
L 38.28125 72.90625 
L 38.28125 8.296875 
L 54.390625 8.296875 
L 54.390625 0 
L 12.40625 0 
z
" id="DejaVuSans-49"></path>
      </defs>
      <g style="fill:#262626;" transform="translate(360.642287 242.498281)scale(0.11 -0.11)">
       <use xlink:href="#DejaVuSans-49"></use>
       <use x="63.623047" xlink:href="#DejaVuSans-46"></use>
       <use x="95.410156" xlink:href="#DejaVuSans-48"></use>
      </g>
     </g>
    </g>
    <g id="text_7">
     <!-- Predicted cumulative probability -->
     <defs>
      <path d="M 19.671875 64.796875 
L 19.671875 37.40625 
L 32.078125 37.40625 
Q 38.96875 37.40625 42.71875 40.96875 
Q 46.484375 44.53125 46.484375 51.125 
Q 46.484375 57.671875 42.71875 61.234375 
Q 38.96875 64.796875 32.078125 64.796875 
z
M 9.8125 72.90625 
L 32.078125 72.90625 
Q 44.34375 72.90625 50.609375 67.359375 
Q 56.890625 61.8125 56.890625 51.125 
Q 56.890625 40.328125 50.609375 34.8125 
Q 44.34375 29.296875 32.078125 29.296875 
L 19.671875 29.296875 
L 19.671875 0 
L 9.8125 0 
z
" id="DejaVuSans-80"></path>
      <path d="M 41.109375 46.296875 
Q 39.59375 47.171875 37.8125 47.578125 
Q 36.03125 48 33.890625 48 
Q 26.265625 48 22.1875 43.046875 
Q 18.109375 38.09375 18.109375 28.8125 
L 18.109375 0 
L 9.078125 0 
L 9.078125 54.6875 
L 18.109375 54.6875 
L 18.109375 46.1875 
Q 20.953125 51.171875 25.484375 53.578125 
Q 30.03125 56 36.53125 56 
Q 37.453125 56 38.578125 55.875 
Q 39.703125 55.765625 41.0625 55.515625 
z
" id="DejaVuSans-114"></path>
      <path d="M 56.203125 29.59375 
L 56.203125 25.203125 
L 14.890625 25.203125 
Q 15.484375 15.921875 20.484375 11.0625 
Q 25.484375 6.203125 34.421875 6.203125 
Q 39.59375 6.203125 44.453125 7.46875 
Q 49.3125 8.734375 54.109375 11.28125 
L 54.109375 2.78125 
Q 49.265625 0.734375 44.1875 -0.34375 
Q 39.109375 -1.421875 33.890625 -1.421875 
Q 20.796875 -1.421875 13.15625 6.1875 
Q 5.515625 13.8125 5.515625 26.8125 
Q 5.515625 40.234375 12.765625 48.109375 
Q 20.015625 56 32.328125 56 
Q 43.359375 56 49.78125 48.890625 
Q 56.203125 41.796875 56.203125 29.59375 
z
M 47.21875 32.234375 
Q 47.125 39.59375 43.09375 43.984375 
Q 39.0625 48.390625 32.421875 48.390625 
Q 24.90625 48.390625 20.390625 44.140625 
Q 15.875 39.890625 15.1875 32.171875 
z
" id="DejaVuSans-101"></path>
      <path d="M 45.40625 46.390625 
L 45.40625 75.984375 
L 54.390625 75.984375 
L 54.390625 0 
L 45.40625 0 
L 45.40625 8.203125 
Q 42.578125 3.328125 38.25 0.953125 
Q 33.9375 -1.421875 27.875 -1.421875 
Q 17.96875 -1.421875 11.734375 6.484375 
Q 5.515625 14.40625 5.515625 27.296875 
Q 5.515625 40.1875 11.734375 48.09375 
Q 17.96875 56 27.875 56 
Q 33.9375 56 38.25 53.625 
Q 42.578125 51.265625 45.40625 46.390625 
z
M 14.796875 27.296875 
Q 14.796875 17.390625 18.875 11.75 
Q 22.953125 6.109375 30.078125 6.109375 
Q 37.203125 6.109375 41.296875 11.75 
Q 45.40625 17.390625 45.40625 27.296875 
Q 45.40625 37.203125 41.296875 42.84375 
Q 37.203125 48.484375 30.078125 48.484375 
Q 22.953125 48.484375 18.875 42.84375 
Q 14.796875 37.203125 14.796875 27.296875 
z
" id="DejaVuSans-100"></path>
      <path d="M 9.421875 54.6875 
L 18.40625 54.6875 
L 18.40625 0 
L 9.421875 0 
z
M 9.421875 75.984375 
L 18.40625 75.984375 
L 18.40625 64.59375 
L 9.421875 64.59375 
z
" id="DejaVuSans-105"></path>
      <path d="M 48.78125 52.59375 
L 48.78125 44.1875 
Q 44.96875 46.296875 41.140625 47.34375 
Q 37.3125 48.390625 33.40625 48.390625 
Q 24.65625 48.390625 19.8125 42.84375 
Q 14.984375 37.3125 14.984375 27.296875 
Q 14.984375 17.28125 19.8125 11.734375 
Q 24.65625 6.203125 33.40625 6.203125 
Q 37.3125 6.203125 41.140625 7.25 
Q 44.96875 8.296875 48.78125 10.40625 
L 48.78125 2.09375 
Q 45.015625 0.34375 40.984375 -0.53125 
Q 36.96875 -1.421875 32.421875 -1.421875 
Q 20.0625 -1.421875 12.78125 6.34375 
Q 5.515625 14.109375 5.515625 27.296875 
Q 5.515625 40.671875 12.859375 48.328125 
Q 20.21875 56 33.015625 56 
Q 37.15625 56 41.109375 55.140625 
Q 45.0625 54.296875 48.78125 52.59375 
z
" id="DejaVuSans-99"></path>
      <path d="M 18.3125 70.21875 
L 18.3125 54.6875 
L 36.8125 54.6875 
L 36.8125 47.703125 
L 18.3125 47.703125 
L 18.3125 18.015625 
Q 18.3125 11.328125 20.140625 9.421875 
Q 21.96875 7.515625 27.59375 7.515625 
L 36.8125 7.515625 
L 36.8125 0 
L 27.59375 0 
Q 17.1875 0 13.234375 3.875 
Q 9.28125 7.765625 9.28125 18.015625 
L 9.28125 47.703125 
L 2.6875 47.703125 
L 2.6875 54.6875 
L 9.28125 54.6875 
L 9.28125 70.21875 
z
" id="DejaVuSans-116"></path>
      <path id="DejaVuSans-32"></path>
      <path d="M 8.5 21.578125 
L 8.5 54.6875 
L 17.484375 54.6875 
L 17.484375 21.921875 
Q 17.484375 14.15625 20.5 10.265625 
Q 23.53125 6.390625 29.59375 6.390625 
Q 36.859375 6.390625 41.078125 11.03125 
Q 45.3125 15.671875 45.3125 23.6875 
L 45.3125 54.6875 
L 54.296875 54.6875 
L 54.296875 0 
L 45.3125 0 
L 45.3125 8.40625 
Q 42.046875 3.421875 37.71875 1 
Q 33.40625 -1.421875 27.6875 -1.421875 
Q 18.265625 -1.421875 13.375 4.4375 
Q 8.5 10.296875 8.5 21.578125 
z
M 31.109375 56 
z
" id="DejaVuSans-117"></path>
      <path d="M 52 44.1875 
Q 55.375 50.25 60.0625 53.125 
Q 64.75 56 71.09375 56 
Q 79.640625 56 84.28125 50.015625 
Q 88.921875 44.046875 88.921875 33.015625 
L 88.921875 0 
L 79.890625 0 
L 79.890625 32.71875 
Q 79.890625 40.578125 77.09375 44.375 
Q 74.3125 48.1875 68.609375 48.1875 
Q 61.625 48.1875 57.5625 43.546875 
Q 53.515625 38.921875 53.515625 30.90625 
L 53.515625 0 
L 44.484375 0 
L 44.484375 32.71875 
Q 44.484375 40.625 41.703125 44.40625 
Q 38.921875 48.1875 33.109375 48.1875 
Q 26.21875 48.1875 22.15625 43.53125 
Q 18.109375 38.875 18.109375 30.90625 
L 18.109375 0 
L 9.078125 0 
L 9.078125 54.6875 
L 18.109375 54.6875 
L 18.109375 46.1875 
Q 21.1875 51.21875 25.484375 53.609375 
Q 29.78125 56 35.6875 56 
Q 41.65625 56 45.828125 52.96875 
Q 50 49.953125 52 44.1875 
z
" id="DejaVuSans-109"></path>
      <path d="M 9.421875 75.984375 
L 18.40625 75.984375 
L 18.40625 0 
L 9.421875 0 
z
" id="DejaVuSans-108"></path>
      <path d="M 34.28125 27.484375 
Q 23.390625 27.484375 19.1875 25 
Q 14.984375 22.515625 14.984375 16.5 
Q 14.984375 11.71875 18.140625 8.90625 
Q 21.296875 6.109375 26.703125 6.109375 
Q 34.1875 6.109375 38.703125 11.40625 
Q 43.21875 16.703125 43.21875 25.484375 
L 43.21875 27.484375 
z
M 52.203125 31.203125 
L 52.203125 0 
L 43.21875 0 
L 43.21875 8.296875 
Q 40.140625 3.328125 35.546875 0.953125 
Q 30.953125 -1.421875 24.3125 -1.421875 
Q 15.921875 -1.421875 10.953125 3.296875 
Q 6 8.015625 6 15.921875 
Q 6 25.140625 12.171875 29.828125 
Q 18.359375 34.515625 30.609375 34.515625 
L 43.21875 34.515625 
L 43.21875 35.40625 
Q 43.21875 41.609375 39.140625 45 
Q 35.0625 48.390625 27.6875 48.390625 
Q 23 48.390625 18.546875 47.265625 
Q 14.109375 46.140625 10.015625 43.890625 
L 10.015625 52.203125 
Q 14.9375 54.109375 19.578125 55.046875 
Q 24.21875 56 28.609375 56 
Q 40.484375 56 46.34375 49.84375 
Q 52.203125 43.703125 52.203125 31.203125 
z
" id="DejaVuSans-97"></path>
      <path d="M 2.984375 54.6875 
L 12.5 54.6875 
L 29.59375 8.796875 
L 46.6875 54.6875 
L 56.203125 54.6875 
L 35.6875 0 
L 23.484375 0 
z
" id="DejaVuSans-118"></path>
      <path d="M 18.109375 8.203125 
L 18.109375 -20.796875 
L 9.078125 -20.796875 
L 9.078125 54.6875 
L 18.109375 54.6875 
L 18.109375 46.390625 
Q 20.953125 51.265625 25.265625 53.625 
Q 29.59375 56 35.59375 56 
Q 45.5625 56 51.78125 48.09375 
Q 58.015625 40.1875 58.015625 27.296875 
Q 58.015625 14.40625 51.78125 6.484375 
Q 45.5625 -1.421875 35.59375 -1.421875 
Q 29.59375 -1.421875 25.265625 0.953125 
Q 20.953125 3.328125 18.109375 8.203125 
z
M 48.6875 27.296875 
Q 48.6875 37.203125 44.609375 42.84375 
Q 40.53125 48.484375 33.40625 48.484375 
Q 26.265625 48.484375 22.1875 42.84375 
Q 18.109375 37.203125 18.109375 27.296875 
Q 18.109375 17.390625 22.1875 11.75 
Q 26.265625 6.109375 33.40625 6.109375 
Q 40.53125 6.109375 44.609375 11.75 
Q 48.6875 17.390625 48.6875 27.296875 
z
" id="DejaVuSans-112"></path>
      <path d="M 30.609375 48.390625 
Q 23.390625 48.390625 19.1875 42.75 
Q 14.984375 37.109375 14.984375 27.296875 
Q 14.984375 17.484375 19.15625 11.84375 
Q 23.34375 6.203125 30.609375 6.203125 
Q 37.796875 6.203125 41.984375 11.859375 
Q 46.1875 17.53125 46.1875 27.296875 
Q 46.1875 37.015625 41.984375 42.703125 
Q 37.796875 48.390625 30.609375 48.390625 
z
M 30.609375 56 
Q 42.328125 56 49.015625 48.375 
Q 55.71875 40.765625 55.71875 27.296875 
Q 55.71875 13.875 49.015625 6.21875 
Q 42.328125 -1.421875 30.609375 -1.421875 
Q 18.84375 -1.421875 12.171875 6.21875 
Q 5.515625 13.875 5.515625 27.296875 
Q 5.515625 40.765625 12.171875 48.375 
Q 18.84375 56 30.609375 56 
z
" id="DejaVuSans-111"></path>
      <path d="M 48.6875 27.296875 
Q 48.6875 37.203125 44.609375 42.84375 
Q 40.53125 48.484375 33.40625 48.484375 
Q 26.265625 48.484375 22.1875 42.84375 
Q 18.109375 37.203125 18.109375 27.296875 
Q 18.109375 17.390625 22.1875 11.75 
Q 26.265625 6.109375 33.40625 6.109375 
Q 40.53125 6.109375 44.609375 11.75 
Q 48.6875 17.390625 48.6875 27.296875 
z
M 18.109375 46.390625 
Q 20.953125 51.265625 25.265625 53.625 
Q 29.59375 56 35.59375 56 
Q 45.5625 56 51.78125 48.09375 
Q 58.015625 40.1875 58.015625 27.296875 
Q 58.015625 14.40625 51.78125 6.484375 
Q 45.5625 -1.421875 35.59375 -1.421875 
Q 29.59375 -1.421875 25.265625 0.953125 
Q 20.953125 3.328125 18.109375 8.203125 
L 18.109375 0 
L 9.078125 0 
L 9.078125 75.984375 
L 18.109375 75.984375 
z
" id="DejaVuSans-98"></path>
      <path d="M 32.171875 -5.078125 
Q 28.375 -14.84375 24.75 -17.8125 
Q 21.140625 -20.796875 15.09375 -20.796875 
L 7.90625 -20.796875 
L 7.90625 -13.28125 
L 13.1875 -13.28125 
Q 16.890625 -13.28125 18.9375 -11.515625 
Q 21 -9.765625 23.484375 -3.21875 
L 25.09375 0.875 
L 2.984375 54.6875 
L 12.5 54.6875 
L 29.59375 11.921875 
L 46.6875 54.6875 
L 56.203125 54.6875 
z
" id="DejaVuSans-121"></path>
     </defs>
     <g style="fill:#262626;" transform="translate(119.86375 257.904062)scale(0.12 -0.12)">
      <use xlink:href="#DejaVuSans-80"></use>
      <use x="58.552734" xlink:href="#DejaVuSans-114"></use>
      <use x="97.416016" xlink:href="#DejaVuSans-101"></use>
      <use x="158.939453" xlink:href="#DejaVuSans-100"></use>
      <use x="222.416016" xlink:href="#DejaVuSans-105"></use>
      <use x="250.199219" xlink:href="#DejaVuSans-99"></use>
      <use x="305.179688" xlink:href="#DejaVuSans-116"></use>
      <use x="344.388672" xlink:href="#DejaVuSans-101"></use>
      <use x="405.912109" xlink:href="#DejaVuSans-100"></use>
      <use x="469.388672" xlink:href="#DejaVuSans-32"></use>
      <use x="501.175781" xlink:href="#DejaVuSans-99"></use>
      <use x="556.15625" xlink:href="#DejaVuSans-117"></use>
      <use x="619.535156" xlink:href="#DejaVuSans-109"></use>
      <use x="716.947266" xlink:href="#DejaVuSans-117"></use>
      <use x="780.326172" xlink:href="#DejaVuSans-108"></use>
      <use x="808.109375" xlink:href="#DejaVuSans-97"></use>
      <use x="869.388672" xlink:href="#DejaVuSans-116"></use>
      <use x="908.597656" xlink:href="#DejaVuSans-105"></use>
      <use x="936.380859" xlink:href="#DejaVuSans-118"></use>
      <use x="995.560547" xlink:href="#DejaVuSans-101"></use>
      <use x="1057.083984" xlink:href="#DejaVuSans-32"></use>
      <use x="1088.871094" xlink:href="#DejaVuSans-112"></use>
      <use x="1152.347656" xlink:href="#DejaVuSans-114"></use>
      <use x="1191.210938" xlink:href="#DejaVuSans-111"></use>
      <use x="1252.392578" xlink:href="#DejaVuSans-98"></use>
      <use x="1315.869141" xlink:href="#DejaVuSans-97"></use>
      <use x="1377.148438" xlink:href="#DejaVuSans-98"></use>
      <use x="1440.625" xlink:href="#DejaVuSans-105"></use>
      <use x="1468.408203" xlink:href="#DejaVuSans-108"></use>
      <use x="1496.191406" xlink:href="#DejaVuSans-105"></use>
      <use x="1523.974609" xlink:href="#DejaVuSans-116"></use>
      <use x="1563.183594" xlink:href="#DejaVuSans-121"></use>
     </g>
    </g>
   </g>
   <g id="matplotlib.axis_2">
    <g id="ytick_1">
     <g id="line2d_7">
      <path clip-path="url(#p6926be9061)" d="M 49.807188 214.756364 
L 384.607188 214.756364 
" style="fill:none;stroke:#ffffff;stroke-linecap:round;"></path>
     </g>
     <g id="text_8">
      <!-- 0.0 -->
      <g style="fill:#262626;" transform="translate(22.81375 218.935504)scale(0.11 -0.11)">
       <use xlink:href="#DejaVuSans-48"></use>
       <use x="63.623047" xlink:href="#DejaVuSans-46"></use>
       <use x="95.410156" xlink:href="#DejaVuSans-48"></use>
      </g>
     </g>
    </g>
    <g id="ytick_2">
     <g id="line2d_8">
      <path clip-path="url(#p6926be9061)" d="M 49.807188 175.221818 
L 384.607188 175.221818 
" style="fill:none;stroke:#ffffff;stroke-linecap:round;"></path>
     </g>
     <g id="text_9">
      <!-- 0.2 -->
      <g style="fill:#262626;" transform="translate(22.81375 179.400959)scale(0.11 -0.11)">
       <use xlink:href="#DejaVuSans-48"></use>
       <use x="63.623047" xlink:href="#DejaVuSans-46"></use>
       <use x="95.410156" xlink:href="#DejaVuSans-50"></use>
      </g>
     </g>
    </g>
    <g id="ytick_3">
     <g id="line2d_9">
      <path clip-path="url(#p6926be9061)" d="M 49.807188 135.687273 
L 384.607188 135.687273 
" style="fill:none;stroke:#ffffff;stroke-linecap:round;"></path>
     </g>
     <g id="text_10">
      <!-- 0.4 -->
      <g style="fill:#262626;" transform="translate(22.81375 139.866413)scale(0.11 -0.11)">
       <use xlink:href="#DejaVuSans-48"></use>
       <use x="63.623047" xlink:href="#DejaVuSans-46"></use>
       <use x="95.410156" xlink:href="#DejaVuSans-52"></use>
      </g>
     </g>
    </g>
    <g id="ytick_4">
     <g id="line2d_10">
      <path clip-path="url(#p6926be9061)" d="M 49.807188 96.152727 
L 384.607188 96.152727 
" style="fill:none;stroke:#ffffff;stroke-linecap:round;"></path>
     </g>
     <g id="text_11">
      <!-- 0.6 -->
      <g style="fill:#262626;" transform="translate(22.81375 100.331868)scale(0.11 -0.11)">
       <use xlink:href="#DejaVuSans-48"></use>
       <use x="63.623047" xlink:href="#DejaVuSans-46"></use>
       <use x="95.410156" xlink:href="#DejaVuSans-54"></use>
      </g>
     </g>
    </g>
    <g id="ytick_5">
     <g id="line2d_11">
      <path clip-path="url(#p6926be9061)" d="M 49.807188 56.618182 
L 384.607188 56.618182 
" style="fill:none;stroke:#ffffff;stroke-linecap:round;"></path>
     </g>
     <g id="text_12">
      <!-- 0.8 -->
      <g style="fill:#262626;" transform="translate(22.81375 60.797322)scale(0.11 -0.11)">
       <use xlink:href="#DejaVuSans-48"></use>
       <use x="63.623047" xlink:href="#DejaVuSans-46"></use>
       <use x="95.410156" xlink:href="#DejaVuSans-56"></use>
      </g>
     </g>
    </g>
    <g id="ytick_6">
     <g id="line2d_12">
      <path clip-path="url(#p6926be9061)" d="M 49.807188 17.083636 
L 384.607188 17.083636 
" style="fill:none;stroke:#ffffff;stroke-linecap:round;"></path>
     </g>
     <g id="text_13">
      <!-- 1.0 -->
      <g style="fill:#262626;" transform="translate(22.81375 21.262777)scale(0.11 -0.11)">
       <use xlink:href="#DejaVuSans-49"></use>
       <use x="63.623047" xlink:href="#DejaVuSans-46"></use>
       <use x="95.410156" xlink:href="#DejaVuSans-48"></use>
      </g>
     </g>
    </g>
    <g id="text_14">
     <!-- Empirical cumulative probability -->
     <defs>
      <path d="M 9.8125 72.90625 
L 55.90625 72.90625 
L 55.90625 64.59375 
L 19.671875 64.59375 
L 19.671875 43.015625 
L 54.390625 43.015625 
L 54.390625 34.71875 
L 19.671875 34.71875 
L 19.671875 8.296875 
L 56.78125 8.296875 
L 56.78125 0 
L 9.8125 0 
z
" id="DejaVuSans-69"></path>
     </defs>
     <g style="fill:#262626;" transform="translate(16.318125 212.986875)rotate(-90)scale(0.12 -0.12)">
      <use xlink:href="#DejaVuSans-69"></use>
      <use x="63.183594" xlink:href="#DejaVuSans-109"></use>
      <use x="160.595703" xlink:href="#DejaVuSans-112"></use>
      <use x="224.072266" xlink:href="#DejaVuSans-105"></use>
      <use x="251.855469" xlink:href="#DejaVuSans-114"></use>
      <use x="292.96875" xlink:href="#DejaVuSans-105"></use>
      <use x="320.751953" xlink:href="#DejaVuSans-99"></use>
      <use x="375.732422" xlink:href="#DejaVuSans-97"></use>
      <use x="437.011719" xlink:href="#DejaVuSans-108"></use>
      <use x="464.794922" xlink:href="#DejaVuSans-32"></use>
      <use x="496.582031" xlink:href="#DejaVuSans-99"></use>
      <use x="551.5625" xlink:href="#DejaVuSans-117"></use>
      <use x="614.941406" xlink:href="#DejaVuSans-109"></use>
      <use x="712.353516" xlink:href="#DejaVuSans-117"></use>
      <use x="775.732422" xlink:href="#DejaVuSans-108"></use>
      <use x="803.515625" xlink:href="#DejaVuSans-97"></use>
      <use x="864.794922" xlink:href="#DejaVuSans-116"></use>
      <use x="904.003906" xlink:href="#DejaVuSans-105"></use>
      <use x="931.787109" xlink:href="#DejaVuSans-118"></use>
      <use x="990.966797" xlink:href="#DejaVuSans-101"></use>
      <use x="1052.490234" xlink:href="#DejaVuSans-32"></use>
      <use x="1084.277344" xlink:href="#DejaVuSans-112"></use>
      <use x="1147.753906" xlink:href="#DejaVuSans-114"></use>
      <use x="1186.617188" xlink:href="#DejaVuSans-111"></use>
      <use x="1247.798828" xlink:href="#DejaVuSans-98"></use>
      <use x="1311.275391" xlink:href="#DejaVuSans-97"></use>
      <use x="1372.554688" xlink:href="#DejaVuSans-98"></use>
      <use x="1436.03125" xlink:href="#DejaVuSans-105"></use>
      <use x="1463.814453" xlink:href="#DejaVuSans-108"></use>
      <use x="1491.597656" xlink:href="#DejaVuSans-105"></use>
      <use x="1519.380859" xlink:href="#DejaVuSans-116"></use>
      <use x="1558.589844" xlink:href="#DejaVuSans-121"></use>
     </g>
    </g>
   </g>
   <g id="line2d_13">
    <path clip-path="url(#p6926be9061)" d="M 65.025369 214.756364 
L 369.389006 17.083636 
" style="fill:none;stroke:#1a1a1a;stroke-dasharray:1.5,2.475;stroke-dashoffset:0;stroke-width:1.5;"></path>
   </g>
   <g id="line2d_14">
    <path clip-path="url(#p6926be9061)" d="M 68.038871 214.087361 
L 71.052372 213.305705 
L 74.065873 212.420618 
L 77.079375 211.424525 
L 80.092876 210.359918 
L 83.106377 209.270277 
L 86.119879 208.131885 
L 89.13338 206.901262 
L 92.146881 205.646923 
L 95.160383 204.384678 
L 98.173884 203.20577 
L 101.187386 201.827908 
L 104.200887 200.451692 
L 107.214388 199.047478 
L 110.22789 197.569479 
L 113.241391 196.108938 
L 116.254892 194.596682 
L 119.268394 193.066968 
L 122.281895 191.513537 
L 125.295396 189.893239 
L 128.308898 188.396135 
L 131.322399 186.703041 
L 134.3359 185.020487 
L 137.349402 183.31257 
L 140.362903 181.603664 
L 143.376404 179.814386 
L 146.389906 178.003039 
L 149.403407 176.191691 
L 152.416908 174.374744 
L 155.43041 172.493235 
L 158.443911 170.800141 
L 161.457413 168.844188 
L 164.470914 166.860896 
L 167.484415 164.859158 
L 170.497917 162.823492 
L 173.511418 160.80199 
L 176.524919 158.720538 
L 179.538421 156.613063 
L 182.551922 154.543799 
L 185.565423 152.425125 
L 188.578925 150.486631 
L 191.592426 148.32843 
L 194.605927 146.12543 
L 197.619429 143.928031 
L 200.63293 141.675623 
L 203.646431 139.399498 
L 206.659933 137.136219 
L 209.673434 134.844283 
L 212.686935 132.532254 
L 215.700437 130.226813 
L 218.713938 128.163477 
L 221.72744 125.876482 
L 224.740941 123.551936 
L 227.754442 121.135159 
L 230.767944 118.780308 
L 233.781445 116.415905 
L 236.794946 113.969153 
L 239.808448 111.512519 
L 242.821949 109.04238 
L 245.83545 106.652943 
L 248.848952 104.49573 
L 251.862453 102.028226 
L 254.875954 99.625613 
L 257.889456 97.176555 
L 260.902957 94.763402 
L 263.916458 92.469489 
L 266.92996 90.068853 
L 269.943461 87.688968 
L 272.956962 85.361128 
L 275.970464 83.04284 
L 278.983965 80.999269 
L 281.997467 78.768271 
L 285.010968 76.558025 
L 288.024469 74.373143 
L 291.037971 72.195178 
L 294.051472 70.073869 
L 297.064973 67.978582 
L 300.078475 65.933363 
L 303.091976 63.938542 
L 306.105477 61.959532 
L 309.118979 60.197924 
L 312.13248 58.28611 
L 315.145981 56.445447 
L 318.159483 54.656827 
L 321.172984 52.874467 
L 324.186485 51.134598 
L 327.199987 49.387153 
L 330.213488 47.662437 
L 333.226989 45.975272 
L 336.240491 44.269001 
L 339.253992 42.766298 
L 342.267494 41.130518 
L 345.280995 39.401849 
L 348.294496 37.70019 
L 351.307998 35.945169 
L 354.321499 34.160503 
L 357.335 32.273394 
L 360.348502 30.255186 
L 363.362003 28.018918 
L 366.375504 25.25397 
" style="fill:none;stroke:#4c72b0;stroke-linecap:round;stroke-width:1.5;"></path>
   </g>
   <g id="line2d_15">
    <path clip-path="url(#p6926be9061)" d="M 68.038871 214.399628 
L 71.052372 213.977672 
L 74.065873 213.458215 
L 77.079375 212.828081 
L 80.092876 212.133385 
L 83.106377 211.332624 
L 86.119879 210.462689 
L 89.13338 209.527864 
L 92.146881 208.586121 
L 95.160383 207.548525 
L 98.173884 206.579442 
L 101.187386 205.438745 
L 104.200887 204.200216 
L 107.214388 202.932042 
L 110.22789 201.67408 
L 113.241391 200.334427 
L 116.254892 198.951953 
L 119.268394 197.499318 
L 122.281895 196.023295 
L 125.295396 194.530803 
L 128.308898 193.086073 
L 131.322399 191.432835 
L 134.3359 189.81649 
L 137.349402 188.135583 
L 140.362903 186.402302 
L 143.376404 184.590955 
L 146.389906 182.759514 
L 149.403407 180.907651 
L 152.416908 179.006049 
L 155.43041 177.081719 
L 158.443911 175.288817 
L 161.457413 173.252492 
L 164.470914 171.176311 
L 167.484415 169.055002 
L 170.497917 166.933363 
L 173.511418 164.744528 
L 176.524919 162.476638 
L 179.538421 160.276274 
L 182.551922 157.969845 
L 185.565423 155.654192 
L 188.578925 153.465028 
L 191.592426 151.10886 
L 194.605927 148.659472 
L 197.619429 146.21305 
L 200.63293 143.7159 
L 203.646431 141.221386 
L 206.659933 138.693273 
L 209.673434 136.10521 
L 212.686935 133.53724 
L 215.700437 130.888898 
L 218.713938 128.520542 
L 221.72744 125.872529 
L 224.740941 123.215623 
L 227.754442 120.541258 
L 230.767944 117.895881 
L 233.781445 115.223493 
L 236.794946 112.555057 
L 239.808448 109.924832 
L 242.821949 107.291971 
L 245.83545 104.710496 
L 248.848952 102.359928 
L 251.862453 99.757701 
L 254.875954 97.175238 
L 257.889456 94.657007 
L 260.902957 92.101225 
L 263.916458 89.651508 
L 266.92996 87.206403 
L 269.943461 84.810378 
L 272.956962 82.473974 
L 275.970464 80.112535 
L 278.983965 78.028448 
L 281.997467 75.793827 
L 285.010968 73.593133 
L 288.024469 71.383546 
L 291.037971 69.264873 
L 294.051472 67.138952 
L 297.064973 65.037407 
L 300.078475 63.000423 
L 303.091976 60.977274 
L 306.105477 58.980806 
L 309.118979 57.240279 
L 312.13248 55.353829 
L 315.145981 53.489449 
L 318.159483 51.669537 
L 321.172984 49.861483 
L 324.186485 48.054418 
L 327.199987 46.268105 
L 330.213488 44.550305 
L 333.226989 42.818013 
L 336.240491 41.171693 
L 339.253992 39.699623 
L 342.267494 38.010811 
L 345.280995 36.361196 
L 348.294496 34.628574 
L 351.307998 32.927904 
L 354.321499 31.22921 
L 357.335 29.490659 
L 360.348502 27.638795 
L 363.362003 25.60807 
L 366.375504 23.235762 
" style="fill:none;stroke:#dd8452;stroke-linecap:round;stroke-width:1.5;"></path>
   </g>
   <g id="patch_3">
    <path d="M 49.807188 224.64 
L 49.807188 7.2 
" style="fill:none;stroke:#ffffff;stroke-linecap:square;stroke-linejoin:miter;stroke-width:1.25;"></path>
   </g>
   <g id="patch_4">
    <path d="M 384.607188 224.64 
L 384.607188 7.2 
" style="fill:none;stroke:#ffffff;stroke-linecap:square;stroke-linejoin:miter;stroke-width:1.25;"></path>
   </g>
   <g id="patch_5">
    <path d="M 49.807187 224.64 
L 384.607188 224.64 
" style="fill:none;stroke:#ffffff;stroke-linecap:square;stroke-linejoin:miter;stroke-width:1.25;"></path>
   </g>
   <g id="patch_6">
    <path d="M 49.807187 7.2 
L 384.607188 7.2 
" style="fill:none;stroke:#ffffff;stroke-linecap:square;stroke-linejoin:miter;stroke-width:1.25;"></path>
   </g>
   <g id="legend_1">
    <g id="patch_7">
     <path d="M 57.507188 64.437812 
L 171.584063 64.437812 
Q 173.784063 64.437812 173.784063 62.237812 
L 173.784063 14.9 
Q 173.784063 12.7 171.584063 12.7 
L 57.507188 12.7 
Q 55.307188 12.7 55.307188 14.9 
L 55.307188 62.237812 
Q 55.307188 64.437812 57.507188 64.437812 
z
" style="fill:#eaeaf2;opacity:0.8;stroke:#cccccc;stroke-linejoin:miter;"></path>
    </g>
    <g id="line2d_16">
     <path d="M 59.707188 21.608281 
L 81.707188 21.608281 
" style="fill:none;stroke:#1a1a1a;stroke-dasharray:1.5,2.475;stroke-dashoffset:0;stroke-width:1.5;"></path>
    </g>
    <g id="line2d_17"></g>
    <g id="text_15">
     <!-- Ideal -->
     <defs>
      <path d="M 9.8125 72.90625 
L 19.671875 72.90625 
L 19.671875 0 
L 9.8125 0 
z
" id="DejaVuSans-73"></path>
     </defs>
     <g style="fill:#262626;" transform="translate(90.507188 25.458281)scale(0.11 -0.11)">
      <use xlink:href="#DejaVuSans-73"></use>
      <use x="29.492188" xlink:href="#DejaVuSans-100"></use>
      <use x="92.96875" xlink:href="#DejaVuSans-101"></use>
      <use x="154.492188" xlink:href="#DejaVuSans-97"></use>
      <use x="215.771484" xlink:href="#DejaVuSans-108"></use>
     </g>
    </g>
    <g id="line2d_18">
     <path d="M 59.707188 37.754219 
L 81.707188 37.754219 
" style="fill:none;stroke:#4c72b0;stroke-linecap:round;stroke-width:1.5;"></path>
    </g>
    <g id="line2d_19"></g>
    <g id="text_16">
     <!-- Neural Linear -->
     <defs>
      <path d="M 9.8125 72.90625 
L 23.09375 72.90625 
L 55.421875 11.921875 
L 55.421875 72.90625 
L 64.984375 72.90625 
L 64.984375 0 
L 51.703125 0 
L 19.390625 60.984375 
L 19.390625 0 
L 9.8125 0 
z
" id="DejaVuSans-78"></path>
      <path d="M 9.8125 72.90625 
L 19.671875 72.90625 
L 19.671875 8.296875 
L 55.171875 8.296875 
L 55.171875 0 
L 9.8125 0 
z
" id="DejaVuSans-76"></path>
      <path d="M 54.890625 33.015625 
L 54.890625 0 
L 45.90625 0 
L 45.90625 32.71875 
Q 45.90625 40.484375 42.875 44.328125 
Q 39.84375 48.1875 33.796875 48.1875 
Q 26.515625 48.1875 22.3125 43.546875 
Q 18.109375 38.921875 18.109375 30.90625 
L 18.109375 0 
L 9.078125 0 
L 9.078125 54.6875 
L 18.109375 54.6875 
L 18.109375 46.1875 
Q 21.34375 51.125 25.703125 53.5625 
Q 30.078125 56 35.796875 56 
Q 45.21875 56 50.046875 50.171875 
Q 54.890625 44.34375 54.890625 33.015625 
z
" id="DejaVuSans-110"></path>
     </defs>
     <g style="fill:#262626;" transform="translate(90.507188 41.604219)scale(0.11 -0.11)">
      <use xlink:href="#DejaVuSans-78"></use>
      <use x="74.804688" xlink:href="#DejaVuSans-101"></use>
      <use x="136.328125" xlink:href="#DejaVuSans-117"></use>
      <use x="199.707031" xlink:href="#DejaVuSans-114"></use>
      <use x="240.820312" xlink:href="#DejaVuSans-97"></use>
      <use x="302.099609" xlink:href="#DejaVuSans-108"></use>
      <use x="329.882812" xlink:href="#DejaVuSans-32"></use>
      <use x="361.669922" xlink:href="#DejaVuSans-76"></use>
      <use x="417.382812" xlink:href="#DejaVuSans-105"></use>
      <use x="445.166016" xlink:href="#DejaVuSans-110"></use>
      <use x="508.544922" xlink:href="#DejaVuSans-101"></use>
      <use x="570.068359" xlink:href="#DejaVuSans-97"></use>
      <use x="631.347656" xlink:href="#DejaVuSans-114"></use>
     </g>
    </g>
    <g id="line2d_20">
     <path d="M 59.707188 53.900156 
L 81.707188 53.900156 
" style="fill:none;stroke:#dd8452;stroke-linecap:round;stroke-width:1.5;"></path>
    </g>
    <g id="line2d_21"></g>
    <g id="text_17">
     <!-- Fully Bayesian -->
     <defs>
      <path d="M 9.8125 72.90625 
L 51.703125 72.90625 
L 51.703125 64.59375 
L 19.671875 64.59375 
L 19.671875 43.109375 
L 48.578125 43.109375 
L 48.578125 34.8125 
L 19.671875 34.8125 
L 19.671875 0 
L 9.8125 0 
z
" id="DejaVuSans-70"></path>
      <path d="M 19.671875 34.8125 
L 19.671875 8.109375 
L 35.5 8.109375 
Q 43.453125 8.109375 47.28125 11.40625 
Q 51.125 14.703125 51.125 21.484375 
Q 51.125 28.328125 47.28125 31.5625 
Q 43.453125 34.8125 35.5 34.8125 
z
M 19.671875 64.796875 
L 19.671875 42.828125 
L 34.28125 42.828125 
Q 41.5 42.828125 45.03125 45.53125 
Q 48.578125 48.25 48.578125 53.8125 
Q 48.578125 59.328125 45.03125 62.0625 
Q 41.5 64.796875 34.28125 64.796875 
z
M 9.8125 72.90625 
L 35.015625 72.90625 
Q 46.296875 72.90625 52.390625 68.21875 
Q 58.5 63.53125 58.5 54.890625 
Q 58.5 48.1875 55.375 44.234375 
Q 52.25 40.28125 46.1875 39.3125 
Q 53.46875 37.75 57.5 32.78125 
Q 61.53125 27.828125 61.53125 20.40625 
Q 61.53125 10.640625 54.890625 5.3125 
Q 48.25 0 35.984375 0 
L 9.8125 0 
z
" id="DejaVuSans-66"></path>
      <path d="M 44.28125 53.078125 
L 44.28125 44.578125 
Q 40.484375 46.53125 36.375 47.5 
Q 32.28125 48.484375 27.875 48.484375 
Q 21.1875 48.484375 17.84375 46.4375 
Q 14.5 44.390625 14.5 40.28125 
Q 14.5 37.15625 16.890625 35.375 
Q 19.28125 33.59375 26.515625 31.984375 
L 29.59375 31.296875 
Q 39.15625 29.25 43.1875 25.515625 
Q 47.21875 21.78125 47.21875 15.09375 
Q 47.21875 7.46875 41.1875 3.015625 
Q 35.15625 -1.421875 24.609375 -1.421875 
Q 20.21875 -1.421875 15.453125 -0.5625 
Q 10.6875 0.296875 5.421875 2 
L 5.421875 11.28125 
Q 10.40625 8.6875 15.234375 7.390625 
Q 20.0625 6.109375 24.8125 6.109375 
Q 31.15625 6.109375 34.5625 8.28125 
Q 37.984375 10.453125 37.984375 14.40625 
Q 37.984375 18.0625 35.515625 20.015625 
Q 33.0625 21.96875 24.703125 23.78125 
L 21.578125 24.515625 
Q 13.234375 26.265625 9.515625 29.90625 
Q 5.8125 33.546875 5.8125 39.890625 
Q 5.8125 47.609375 11.28125 51.796875 
Q 16.75 56 26.8125 56 
Q 31.78125 56 36.171875 55.265625 
Q 40.578125 54.546875 44.28125 53.078125 
z
" id="DejaVuSans-115"></path>
     </defs>
     <g style="fill:#262626;" transform="translate(90.507188 57.750156)scale(0.11 -0.11)">
      <use xlink:href="#DejaVuSans-70"></use>
      <use x="52.019531" xlink:href="#DejaVuSans-117"></use>
      <use x="115.398438" xlink:href="#DejaVuSans-108"></use>
      <use x="143.181641" xlink:href="#DejaVuSans-108"></use>
      <use x="170.964844" xlink:href="#DejaVuSans-121"></use>
      <use x="230.144531" xlink:href="#DejaVuSans-32"></use>
      <use x="261.931641" xlink:href="#DejaVuSans-66"></use>
      <use x="330.535156" xlink:href="#DejaVuSans-97"></use>
      <use x="391.814453" xlink:href="#DejaVuSans-121"></use>
      <use x="450.994141" xlink:href="#DejaVuSans-101"></use>
      <use x="512.517578" xlink:href="#DejaVuSans-115"></use>
      <use x="564.617188" xlink:href="#DejaVuSans-105"></use>
      <use x="592.400391" xlink:href="#DejaVuSans-97"></use>
      <use x="653.679688" xlink:href="#DejaVuSans-110"></use>
     </g>
    </g>
   </g>
  </g>
 </g>
 <defs>
  <clipPath id="p6926be9061">
   <rect height="217.44" width="334.8" x="49.807188" y="7.2"></rect>
  </clipPath>
 </defs>
</svg>