<svg height="267.599687pt" version="1.1" viewBox="0 0 404.63647 267.599687" width="404.63647pt" xmlns="http://www.w3.org/2000/svg" xmlns:xlink="http://www.w3.org/1999/xlink">
 <defs>
  <style type="text/css">
*{stroke-linecap:butt;stroke-linejoin:round;}
  </style>
 </defs>
 <g id="figure_1">
  <g id="patch_1">
   <path d="M 0 267.599687 
L 404.63647 267.599687 
L 404.63647 0 
L 0 0 
z
" style="fill:#ffffff;"></path>
  </g>
  <g id="axes_1">
   <g id="patch_2">
    <path d="M 49.807187 224.64 
L 384.607188 224.64 
L 384.607188 7.2 
L 49.807187 7.2 
z
" style="fill:#eaeaf2;"></path>
   </g>
   <g id="matplotlib.axis_1">
    <g id="xtick_1">
     <g id="line2d_1">
      <path clip-path="url(#p39d2f4e680)" d="M 63.923745 224.64 
L 63.923745 7.2 
" style="fill:none;stroke:#ffffff;stroke-linecap:round;"></path>
     </g>
     <g id="text_1">
      <!-- 0 -->
      <defs>
       <path d="M 31.78125 66.40625 
Q 24.171875 66.40625 20.328125 58.90625 
Q 16.5 51.421875 16.5 36.375 
Q 16.5 21.390625 20.328125 13.890625 
Q 24.171875 6.390625 31.78125 6.390625 
Q 39.453125 6.390625 43.28125 13.890625 
Q 47.125 21.390625 47.125 36.375 
Q 47.125 51.421875 43.28125 58.90625 
Q 39.453125 66.40625 31.78125 66.40625 
z
M 31.78125 74.21875 
Q 44.046875 74.21875 50.515625 64.515625 
Q 56.984375 54.828125 56.984375 36.375 
Q 56.984375 17.96875 50.515625 8.265625 
Q 44.046875 -1.421875 31.78125 -1.421875 
Q 19.53125 -1.421875 13.0625 8.265625 
Q 6.59375 17.96875 6.59375 36.375 
Q 6.59375 54.828125 13.0625 64.515625 
Q 19.53125 74.21875 31.78125 74.21875 
z
" id="DejaVuSans-48"></path>
      </defs>
      <g style="fill:#262626;" transform="translate(60.42437 242.498281)scale(0.11 -0.11)">
       <use xlink:href="#DejaVuSans-48"></use>
      </g>
     </g>
    </g>
    <g id="xtick_2">
     <g id="line2d_2">
      <path clip-path="url(#p39d2f4e680)" d="M 103.863148 224.64 
L 103.863148 7.2 
" style="fill:none;stroke:#ffffff;stroke-linecap:round;"></path>
     </g>
     <g id="text_2">
      <!-- 500 -->
      <defs>
       <path d="M 10.796875 72.90625 
L 49.515625 72.90625 
L 49.515625 64.59375 
L 19.828125 64.59375 
L 19.828125 46.734375 
Q 21.96875 47.46875 24.109375 47.828125 
Q 26.265625 48.1875 28.421875 48.1875 
Q 40.625 48.1875 47.75 41.5 
Q 54.890625 34.8125 54.890625 23.390625 
Q 54.890625 11.625 47.5625 5.09375 
Q 40.234375 -1.421875 26.90625 -1.421875 
Q 22.3125 -1.421875 17.546875 -0.640625 
Q 12.796875 0.140625 7.71875 1.703125 
L 7.71875 11.625 
Q 12.109375 9.234375 16.796875 8.0625 
Q 21.484375 6.890625 26.703125 6.890625 
Q 35.15625 6.890625 40.078125 11.328125 
Q 45.015625 15.765625 45.015625 23.390625 
Q 45.015625 31 40.078125 35.4375 
Q 35.15625 39.890625 26.703125 39.890625 
Q 22.75 39.890625 18.8125 39.015625 
Q 14.890625 38.140625 10.796875 36.28125 
z
" id="DejaVuSans-53"></path>
      </defs>
      <g style="fill:#262626;" transform="translate(93.365023 242.498281)scale(0.11 -0.11)">
       <use xlink:href="#DejaVuSans-53"></use>
       <use x="63.623047" xlink:href="#DejaVuSans-48"></use>
       <use x="127.246094" xlink:href="#DejaVuSans-48"></use>
      </g>
     </g>
    </g>
    <g id="xtick_3">
     <g id="line2d_3">
      <path clip-path="url(#p39d2f4e680)" d="M 143.802551 224.64 
L 143.802551 7.2 
" style="fill:none;stroke:#ffffff;stroke-linecap:round;"></path>
     </g>
     <g id="text_3">
      <!-- 1000 -->
      <defs>
       <path d="M 12.40625 8.296875 
L 28.515625 8.296875 
L 28.515625 63.921875 
L 10.984375 60.40625 
L 10.984375 69.390625 
L 28.421875 72.90625 
L 38.28125 72.90625 
L 38.28125 8.296875 
L 54.390625 8.296875 
L 54.390625 0 
L 12.40625 0 
z
" id="DejaVuSans-49"></path>
      </defs>
      <g style="fill:#262626;" transform="translate(129.805051 242.498281)scale(0.11 -0.11)">
       <use xlink:href="#DejaVuSans-49"></use>
       <use x="63.623047" xlink:href="#DejaVuSans-48"></use>
       <use x="127.246094" xlink:href="#DejaVuSans-48"></use>
       <use x="190.869141" xlink:href="#DejaVuSans-48"></use>
      </g>
     </g>
    </g>
    <g id="xtick_4">
     <g id="line2d_4">
      <path clip-path="url(#p39d2f4e680)" d="M 183.741954 224.64 
L 183.741954 7.2 
" style="fill:none;stroke:#ffffff;stroke-linecap:round;"></path>
     </g>
     <g id="text_4">
      <!-- 1500 -->
      <g style="fill:#262626;" transform="translate(169.744454 242.498281)scale(0.11 -0.11)">
       <use xlink:href="#DejaVuSans-49"></use>
       <use x="63.623047" xlink:href="#DejaVuSans-53"></use>
       <use x="127.246094" xlink:href="#DejaVuSans-48"></use>
       <use x="190.869141" xlink:href="#DejaVuSans-48"></use>
      </g>
     </g>
    </g>
    <g id="xtick_5">
     <g id="line2d_5">
      <path clip-path="url(#p39d2f4e680)" d="M 223.681357 224.64 
L 223.681357 7.2 
" style="fill:none;stroke:#ffffff;stroke-linecap:round;"></path>
     </g>
     <g id="text_5">
      <!-- 2000 -->
      <defs>
       <path d="M 19.1875 8.296875 
L 53.609375 8.296875 
L 53.609375 0 
L 7.328125 0 
L 7.328125 8.296875 
Q 12.9375 14.109375 22.625 23.890625 
Q 32.328125 33.6875 34.8125 36.53125 
Q 39.546875 41.84375 41.421875 45.53125 
Q 43.3125 49.21875 43.3125 52.78125 
Q 43.3125 58.59375 39.234375 62.25 
Q 35.15625 65.921875 28.609375 65.921875 
Q 23.96875 65.921875 18.8125 64.3125 
Q 13.671875 62.703125 7.8125 59.421875 
L 7.8125 69.390625 
Q 13.765625 71.78125 18.9375 73 
Q 24.125 74.21875 28.421875 74.21875 
Q 39.75 74.21875 46.484375 68.546875 
Q 53.21875 62.890625 53.21875 53.421875 
Q 53.21875 48.921875 51.53125 44.890625 
Q 49.859375 40.875 45.40625 35.40625 
Q 44.1875 33.984375 37.640625 27.21875 
Q 31.109375 20.453125 19.1875 8.296875 
z
" id="DejaVuSans-50"></path>
      </defs>
      <g style="fill:#262626;" transform="translate(209.683857 242.498281)scale(0.11 -0.11)">
       <use xlink:href="#DejaVuSans-50"></use>
       <use x="63.623047" xlink:href="#DejaVuSans-48"></use>
       <use x="127.246094" xlink:href="#DejaVuSans-48"></use>
       <use x="190.869141" xlink:href="#DejaVuSans-48"></use>
      </g>
     </g>
    </g>
    <g id="xtick_6">
     <g id="line2d_6">
      <path clip-path="url(#p39d2f4e680)" d="M 263.62076 224.64 
L 263.62076 7.2 
" style="fill:none;stroke:#ffffff;stroke-linecap:round;"></path>
     </g>
     <g id="text_6">
      <!-- 2500 -->
      <g style="fill:#262626;" transform="translate(249.62326 242.498281)scale(0.11 -0.11)">
       <use xlink:href="#DejaVuSans-50"></use>
       <use x="63.623047" xlink:href="#DejaVuSans-53"></use>
       <use x="127.246094" xlink:href="#DejaVuSans-48"></use>
       <use x="190.869141" xlink:href="#DejaVuSans-48"></use>
      </g>
     </g>
    </g>
    <g id="xtick_7">
     <g id="line2d_7">
      <path clip-path="url(#p39d2f4e680)" d="M 303.560163 224.64 
L 303.560163 7.2 
" style="fill:none;stroke:#ffffff;stroke-linecap:round;"></path>
     </g>
     <g id="text_7">
      <!-- 3000 -->
      <defs>
       <path d="M 40.578125 39.3125 
Q 47.65625 37.796875 51.625 33 
Q 55.609375 28.21875 55.609375 21.1875 
Q 55.609375 10.40625 48.1875 4.484375 
Q 40.765625 -1.421875 27.09375 -1.421875 
Q 22.515625 -1.421875 17.65625 -0.515625 
Q 12.796875 0.390625 7.625 2.203125 
L 7.625 11.71875 
Q 11.71875 9.328125 16.59375 8.109375 
Q 21.484375 6.890625 26.8125 6.890625 
Q 36.078125 6.890625 40.9375 10.546875 
Q 45.796875 14.203125 45.796875 21.1875 
Q 45.796875 27.640625 41.28125 31.265625 
Q 36.765625 34.90625 28.71875 34.90625 
L 20.21875 34.90625 
L 20.21875 43.015625 
L 29.109375 43.015625 
Q 36.375 43.015625 40.234375 45.921875 
Q 44.09375 48.828125 44.09375 54.296875 
Q 44.09375 59.90625 40.109375 62.90625 
Q 36.140625 65.921875 28.71875 65.921875 
Q 24.65625 65.921875 20.015625 65.03125 
Q 15.375 64.15625 9.8125 62.3125 
L 9.8125 71.09375 
Q 15.4375 72.65625 20.34375 73.4375 
Q 25.25 74.21875 29.59375 74.21875 
Q 40.828125 74.21875 47.359375 69.109375 
Q 53.90625 64.015625 53.90625 55.328125 
Q 53.90625 49.265625 50.4375 45.09375 
Q 46.96875 40.921875 40.578125 39.3125 
z
" id="DejaVuSans-51"></path>
      </defs>
      <g style="fill:#262626;" transform="translate(289.562663 242.498281)scale(0.11 -0.11)">
       <use xlink:href="#DejaVuSans-51"></use>
       <use x="63.623047" xlink:href="#DejaVuSans-48"></use>
       <use x="127.246094" xlink:href="#DejaVuSans-48"></use>
       <use x="190.869141" xlink:href="#DejaVuSans-48"></use>
      </g>
     </g>
    </g>
    <g id="xtick_8">
     <g id="line2d_8">
      <path clip-path="url(#p39d2f4e680)" d="M 343.499566 224.64 
L 343.499566 7.2 
" style="fill:none;stroke:#ffffff;stroke-linecap:round;"></path>
     </g>
     <g id="text_8">
      <!-- 3500 -->
      <g style="fill:#262626;" transform="translate(329.502066 242.498281)scale(0.11 -0.11)">
       <use xlink:href="#DejaVuSans-51"></use>
       <use x="63.623047" xlink:href="#DejaVuSans-53"></use>
       <use x="127.246094" xlink:href="#DejaVuSans-48"></use>
       <use x="190.869141" xlink:href="#DejaVuSans-48"></use>
      </g>
     </g>
    </g>
    <g id="xtick_9">
     <g id="line2d_9">
      <path clip-path="url(#p39d2f4e680)" d="M 383.43897 224.64 
L 383.43897 7.2 
" style="fill:none;stroke:#ffffff;stroke-linecap:round;"></path>
     </g>
     <g id="text_9">
      <!-- 4000 -->
      <defs>
       <path d="M 37.796875 64.3125 
L 12.890625 25.390625 
L 37.796875 25.390625 
z
M 35.203125 72.90625 
L 47.609375 72.90625 
L 47.609375 25.390625 
L 58.015625 25.390625 
L 58.015625 17.1875 
L 47.609375 17.1875 
L 47.609375 0 
L 37.796875 0 
L 37.796875 17.1875 
L 4.890625 17.1875 
L 4.890625 26.703125 
z
" id="DejaVuSans-52"></path>
      </defs>
      <g style="fill:#262626;" transform="translate(369.44147 242.498281)scale(0.11 -0.11)">
       <use xlink:href="#DejaVuSans-52"></use>
       <use x="63.623047" xlink:href="#DejaVuSans-48"></use>
       <use x="127.246094" xlink:href="#DejaVuSans-48"></use>
       <use x="190.869141" xlink:href="#DejaVuSans-48"></use>
      </g>
     </g>
    </g>
    <g id="text_10">
     <!-- Time (s) -->
     <defs>
      <path d="M -0.296875 72.90625 
L 61.375 72.90625 
L 61.375 64.59375 
L 35.5 64.59375 
L 35.5 0 
L 25.59375 0 
L 25.59375 64.59375 
L -0.296875 64.59375 
z
" id="DejaVuSans-84"></path>
      <path d="M 9.421875 54.6875 
L 18.40625 54.6875 
L 18.40625 0 
L 9.421875 0 
z
M 9.421875 75.984375 
L 18.40625 75.984375 
L 18.40625 64.59375 
L 9.421875 64.59375 
z
" id="DejaVuSans-105"></path>
      <path d="M 52 44.1875 
Q 55.375 50.25 60.0625 53.125 
Q 64.75 56 71.09375 56 
Q 79.640625 56 84.28125 50.015625 
Q 88.921875 44.046875 88.921875 33.015625 
L 88.921875 0 
L 79.890625 0 
L 79.890625 32.71875 
Q 79.890625 40.578125 77.09375 44.375 
Q 74.3125 48.1875 68.609375 48.1875 
Q 61.625 48.1875 57.5625 43.546875 
Q 53.515625 38.921875 53.515625 30.90625 
L 53.515625 0 
L 44.484375 0 
L 44.484375 32.71875 
Q 44.484375 40.625 41.703125 44.40625 
Q 38.921875 48.1875 33.109375 48.1875 
Q 26.21875 48.1875 22.15625 43.53125 
Q 18.109375 38.875 18.109375 30.90625 
L 18.109375 0 
L 9.078125 0 
L 9.078125 54.6875 
L 18.109375 54.6875 
L 18.109375 46.1875 
Q 21.1875 51.21875 25.484375 53.609375 
Q 29.78125 56 35.6875 56 
Q 41.65625 56 45.828125 52.96875 
Q 50 49.953125 52 44.1875 
z
" id="DejaVuSans-109"></path>
      <path d="M 56.203125 29.59375 
L 56.203125 25.203125 
L 14.890625 25.203125 
Q 15.484375 15.921875 20.484375 11.0625 
Q 25.484375 6.203125 34.421875 6.203125 
Q 39.59375 6.203125 44.453125 7.46875 
Q 49.3125 8.734375 54.109375 11.28125 
L 54.109375 2.78125 
Q 49.265625 0.734375 44.1875 -0.34375 
Q 39.109375 -1.421875 33.890625 -1.421875 
Q 20.796875 -1.421875 13.15625 6.1875 
Q 5.515625 13.8125 5.515625 26.8125 
Q 5.515625 40.234375 12.765625 48.109375 
Q 20.015625 56 32.328125 56 
Q 43.359375 56 49.78125 48.890625 
Q 56.203125 41.796875 56.203125 29.59375 
z
M 47.21875 32.234375 
Q 47.125 39.59375 43.09375 43.984375 
Q 39.0625 48.390625 32.421875 48.390625 
Q 24.90625 48.390625 20.390625 44.140625 
Q 15.875 39.890625 15.1875 32.171875 
z
" id="DejaVuSans-101"></path>
      <path id="DejaVuSans-32"></path>
      <path d="M 31 75.875 
Q 24.46875 64.65625 21.28125 53.65625 
Q 18.109375 42.671875 18.109375 31.390625 
Q 18.109375 20.125 21.3125 9.0625 
Q 24.515625 -2 31 -13.1875 
L 23.1875 -13.1875 
Q 15.875 -1.703125 12.234375 9.375 
Q 8.59375 20.453125 8.59375 31.390625 
Q 8.59375 42.28125 12.203125 53.3125 
Q 15.828125 64.359375 23.1875 75.875 
z
" id="DejaVuSans-40"></path>
      <path d="M 44.28125 53.078125 
L 44.28125 44.578125 
Q 40.484375 46.53125 36.375 47.5 
Q 32.28125 48.484375 27.875 48.484375 
Q 21.1875 48.484375 17.84375 46.4375 
Q 14.5 44.390625 14.5 40.28125 
Q 14.5 37.15625 16.890625 35.375 
Q 19.28125 33.59375 26.515625 31.984375 
L 29.59375 31.296875 
Q 39.15625 29.25 43.1875 25.515625 
Q 47.21875 21.78125 47.21875 15.09375 
Q 47.21875 7.46875 41.1875 3.015625 
Q 35.15625 -1.421875 24.609375 -1.421875 
Q 20.21875 -1.421875 15.453125 -0.5625 
Q 10.6875 0.296875 5.421875 2 
L 5.421875 11.28125 
Q 10.40625 8.6875 15.234375 7.390625 
Q 20.0625 6.109375 24.8125 6.109375 
Q 31.15625 6.109375 34.5625 8.28125 
Q 37.984375 10.453125 37.984375 14.40625 
Q 37.984375 18.0625 35.515625 20.015625 
Q 33.0625 21.96875 24.703125 23.78125 
L 21.578125 24.515625 
Q 13.234375 26.265625 9.515625 29.90625 
Q 5.8125 33.546875 5.8125 39.890625 
Q 5.8125 47.609375 11.28125 51.796875 
Q 16.75 56 26.8125 56 
Q 31.78125 56 36.171875 55.265625 
Q 40.578125 54.546875 44.28125 53.078125 
z
" id="DejaVuSans-115"></path>
      <path d="M 8.015625 75.875 
L 15.828125 75.875 
Q 23.140625 64.359375 26.78125 53.3125 
Q 30.421875 42.28125 30.421875 31.390625 
Q 30.421875 20.453125 26.78125 9.375 
Q 23.140625 -1.703125 15.828125 -13.1875 
L 8.015625 -13.1875 
Q 14.5 -2 17.703125 9.0625 
Q 20.90625 20.125 20.90625 31.390625 
Q 20.90625 42.671875 17.703125 53.65625 
Q 14.5 64.65625 8.015625 75.875 
z
" id="DejaVuSans-41"></path>
     </defs>
     <g style="fill:#262626;" transform="translate(192.8125 257.904062)scale(0.12 -0.12)">
      <use xlink:href="#DejaVuSans-84"></use>
      <use x="57.958984" xlink:href="#DejaVuSans-105"></use>
      <use x="85.742188" xlink:href="#DejaVuSans-109"></use>
      <use x="183.154297" xlink:href="#DejaVuSans-101"></use>
      <use x="244.677734" xlink:href="#DejaVuSans-32"></use>
      <use x="276.464844" xlink:href="#DejaVuSans-40"></use>
      <use x="315.478516" xlink:href="#DejaVuSans-115"></use>
      <use x="367.578125" xlink:href="#DejaVuSans-41"></use>
     </g>
    </g>
   </g>
   <g id="matplotlib.axis_2">
    <g id="ytick_1">
     <g id="line2d_10">
      <path clip-path="url(#p39d2f4e680)" d="M 49.807187 193.933167 
L 384.607188 193.933167 
" style="fill:none;stroke:#ffffff;stroke-linecap:round;"></path>
     </g>
     <g id="text_11">
      <!-- 0.3 -->
      <defs>
       <path d="M 10.6875 12.40625 
L 21 12.40625 
L 21 0 
L 10.6875 0 
z
" id="DejaVuSans-46"></path>
      </defs>
      <g style="fill:#262626;" transform="translate(22.81375 198.112307)scale(0.11 -0.11)">
       <use xlink:href="#DejaVuSans-48"></use>
       <use x="63.623047" xlink:href="#DejaVuSans-46"></use>
       <use x="95.410156" xlink:href="#DejaVuSans-51"></use>
      </g>
     </g>
    </g>
    <g id="ytick_2">
     <g id="line2d_11">
      <path clip-path="url(#p39d2f4e680)" d="M 49.807187 158.791677 
L 384.607188 158.791677 
" style="fill:none;stroke:#ffffff;stroke-linecap:round;"></path>
     </g>
     <g id="text_12">
      <!-- 0.4 -->
      <g style="fill:#262626;" transform="translate(22.81375 162.970818)scale(0.11 -0.11)">
       <use xlink:href="#DejaVuSans-48"></use>
       <use x="63.623047" xlink:href="#DejaVuSans-46"></use>
       <use x="95.410156" xlink:href="#DejaVuSans-52"></use>
      </g>
     </g>
    </g>
    <g id="ytick_3">
     <g id="line2d_12">
      <path clip-path="url(#p39d2f4e680)" d="M 49.807187 123.650188 
L 384.607188 123.650188 
" style="fill:none;stroke:#ffffff;stroke-linecap:round;"></path>
     </g>
     <g id="text_13">
      <!-- 0.5 -->
      <g style="fill:#262626;" transform="translate(22.81375 127.829328)scale(0.11 -0.11)">
       <use xlink:href="#DejaVuSans-48"></use>
       <use x="63.623047" xlink:href="#DejaVuSans-46"></use>
       <use x="95.410156" xlink:href="#DejaVuSans-53"></use>
      </g>
     </g>
    </g>
    <g id="ytick_4">
     <g id="line2d_13">
      <path clip-path="url(#p39d2f4e680)" d="M 49.807187 88.508698 
L 384.607188 88.508698 
" style="fill:none;stroke:#ffffff;stroke-linecap:round;"></path>
     </g>
     <g id="text_14">
      <!-- 0.6 -->
      <defs>
       <path d="M 33.015625 40.375 
Q 26.375 40.375 22.484375 35.828125 
Q 18.609375 31.296875 18.609375 23.390625 
Q 18.609375 15.53125 22.484375 10.953125 
Q 26.375 6.390625 33.015625 6.390625 
Q 39.65625 6.390625 43.53125 10.953125 
Q 47.40625 15.53125 47.40625 23.390625 
Q 47.40625 31.296875 43.53125 35.828125 
Q 39.65625 40.375 33.015625 40.375 
z
M 52.59375 71.296875 
L 52.59375 62.3125 
Q 48.875 64.0625 45.09375 64.984375 
Q 41.3125 65.921875 37.59375 65.921875 
Q 27.828125 65.921875 22.671875 59.328125 
Q 17.53125 52.734375 16.796875 39.40625 
Q 19.671875 43.65625 24.015625 45.921875 
Q 28.375 48.1875 33.59375 48.1875 
Q 44.578125 48.1875 50.953125 41.515625 
Q 57.328125 34.859375 57.328125 23.390625 
Q 57.328125 12.15625 50.6875 5.359375 
Q 44.046875 -1.421875 33.015625 -1.421875 
Q 20.359375 -1.421875 13.671875 8.265625 
Q 6.984375 17.96875 6.984375 36.375 
Q 6.984375 53.65625 15.1875 63.9375 
Q 23.390625 74.21875 37.203125 74.21875 
Q 40.921875 74.21875 44.703125 73.484375 
Q 48.484375 72.75 52.59375 71.296875 
z
" id="DejaVuSans-54"></path>
      </defs>
      <g style="fill:#262626;" transform="translate(22.81375 92.687839)scale(0.11 -0.11)">
       <use xlink:href="#DejaVuSans-48"></use>
       <use x="63.623047" xlink:href="#DejaVuSans-46"></use>
       <use x="95.410156" xlink:href="#DejaVuSans-54"></use>
      </g>
     </g>
    </g>
    <g id="ytick_5">
     <g id="line2d_14">
      <path clip-path="url(#p39d2f4e680)" d="M 49.807187 53.367209 
L 384.607188 53.367209 
" style="fill:none;stroke:#ffffff;stroke-linecap:round;"></path>
     </g>
     <g id="text_15">
      <!-- 0.7 -->
      <defs>
       <path d="M 8.203125 72.90625 
L 55.078125 72.90625 
L 55.078125 68.703125 
L 28.609375 0 
L 18.3125 0 
L 43.21875 64.59375 
L 8.203125 64.59375 
z
" id="DejaVuSans-55"></path>
      </defs>
      <g style="fill:#262626;" transform="translate(22.81375 57.546349)scale(0.11 -0.11)">
       <use xlink:href="#DejaVuSans-48"></use>
       <use x="63.623047" xlink:href="#DejaVuSans-46"></use>
       <use x="95.410156" xlink:href="#DejaVuSans-55"></use>
      </g>
     </g>
    </g>
    <g id="ytick_6">
     <g id="line2d_15">
      <path clip-path="url(#p39d2f4e680)" d="M 49.807187 18.225719 
L 384.607188 18.225719 
" style="fill:none;stroke:#ffffff;stroke-linecap:round;"></path>
     </g>
     <g id="text_16">
      <!-- 0.8 -->
      <defs>
       <path d="M 31.78125 34.625 
Q 24.75 34.625 20.71875 30.859375 
Q 16.703125 27.09375 16.703125 20.515625 
Q 16.703125 13.921875 20.71875 10.15625 
Q 24.75 6.390625 31.78125 6.390625 
Q 38.8125 6.390625 42.859375 10.171875 
Q 46.921875 13.96875 46.921875 20.515625 
Q 46.921875 27.09375 42.890625 30.859375 
Q 38.875 34.625 31.78125 34.625 
z
M 21.921875 38.8125 
Q 15.578125 40.375 12.03125 44.71875 
Q 8.5 49.078125 8.5 55.328125 
Q 8.5 64.0625 14.71875 69.140625 
Q 20.953125 74.21875 31.78125 74.21875 
Q 42.671875 74.21875 48.875 69.140625 
Q 55.078125 64.0625 55.078125 55.328125 
Q 55.078125 49.078125 51.53125 44.71875 
Q 48 40.375 41.703125 38.8125 
Q 48.828125 37.15625 52.796875 32.3125 
Q 56.78125 27.484375 56.78125 20.515625 
Q 56.78125 9.90625 50.3125 4.234375 
Q 43.84375 -1.421875 31.78125 -1.421875 
Q 19.734375 -1.421875 13.25 4.234375 
Q 6.78125 9.90625 6.78125 20.515625 
Q 6.78125 27.484375 10.78125 32.3125 
Q 14.796875 37.15625 21.921875 38.8125 
z
M 18.3125 54.390625 
Q 18.3125 48.734375 21.84375 45.5625 
Q 25.390625 42.390625 31.78125 42.390625 
Q 38.140625 42.390625 41.71875 45.5625 
Q 45.3125 48.734375 45.3125 54.390625 
Q 45.3125 60.0625 41.71875 63.234375 
Q 38.140625 66.40625 31.78125 66.40625 
Q 25.390625 66.40625 21.84375 63.234375 
Q 18.3125 60.0625 18.3125 54.390625 
z
" id="DejaVuSans-56"></path>
      </defs>
      <g style="fill:#262626;" transform="translate(22.81375 22.40486)scale(0.11 -0.11)">
       <use xlink:href="#DejaVuSans-48"></use>
       <use x="63.623047" xlink:href="#DejaVuSans-46"></use>
       <use x="95.410156" xlink:href="#DejaVuSans-56"></use>
      </g>
     </g>
    </g>
    <g id="text_17">
     <!-- mae -->
     <defs>
      <path d="M 34.28125 27.484375 
Q 23.390625 27.484375 19.1875 25 
Q 14.984375 22.515625 14.984375 16.5 
Q 14.984375 11.71875 18.140625 8.90625 
Q 21.296875 6.109375 26.703125 6.109375 
Q 34.1875 6.109375 38.703125 11.40625 
Q 43.21875 16.703125 43.21875 25.484375 
L 43.21875 27.484375 
z
M 52.203125 31.203125 
L 52.203125 0 
L 43.21875 0 
L 43.21875 8.296875 
Q 40.140625 3.328125 35.546875 0.953125 
Q 30.953125 -1.421875 24.3125 -1.421875 
Q 15.921875 -1.421875 10.953125 3.296875 
Q 6 8.015625 6 15.921875 
Q 6 25.140625 12.171875 29.828125 
Q 18.359375 34.515625 30.609375 34.515625 
L 43.21875 34.515625 
L 43.21875 35.40625 
Q 43.21875 41.609375 39.140625 45 
Q 35.0625 48.390625 27.6875 48.390625 
Q 23 48.390625 18.546875 47.265625 
Q 14.109375 46.140625 10.015625 43.890625 
L 10.015625 52.203125 
Q 14.9375 54.109375 19.578125 55.046875 
Q 24.21875 56 28.609375 56 
Q 40.484375 56 46.34375 49.84375 
Q 52.203125 43.703125 52.203125 31.203125 
z
" id="DejaVuSans-97"></path>
     </defs>
     <g style="fill:#262626;" transform="translate(16.318125 129.133125)rotate(-90)scale(0.12 -0.12)">
      <use xlink:href="#DejaVuSans-109"></use>
      <use x="97.412109" xlink:href="#DejaVuSans-97"></use>
      <use x="158.691406" xlink:href="#DejaVuSans-101"></use>
     </g>
    </g>
   </g>
   <g id="line2d_16">
    <path clip-path="url(#p39d2f4e680)" d="M 65.025369 28.506578 
L 65.787303 33.571312 
L 66.54094 37.673054 
L 67.292094 40.817881 
L 68.051485 50.753995 
L 68.818874 63.073969 
L 69.589459 68.205184 
L 70.349101 73.968989 
L 71.111234 92.427386 
L 71.867222 81.21782 
L 72.62548 129.795156 
L 73.376112 124.851177 
L 74.136533 115.48053 
L 74.890106 145.751181 
L 75.650517 134.017642 
L 76.405287 129.673282 
L 77.154924 134.721039 
L 77.908102 131.052909 
L 78.656933 149.931607 
L 79.403086 147.435928 
L 80.157025 157.569656 
L 80.903789 173.304565 
L 81.649669 165.64556 
L 82.38958 198.420646 
L 83.158715 201.730715 
L 83.923957 208.44932 
L 84.662663 204.669035 
L 85.403621 204.515648 
L 86.145377 206.365889 
L 86.884801 206.126193 
L 87.616039 184.467987 
L 88.348632 206.058171 
L 89.093274 208.389813 
L 89.844668 209.375498 
L 90.603588 209.427046 
L 91.347217 210.236953 
L 92.094858 212.351228 
L 92.834517 210.503313 
L 93.584914 186.94005 
L 94.340034 209.040625 
L 95.093459 209.634432 
L 95.843532 204.506798 
L 96.607372 210.184547 
L 97.365153 209.732533 
L 98.115844 211.081013 
L 98.866909 211.366475 
L 99.627737 211.209548 
L 100.3941 212.03032 
L 101.166765 213.067156 
L 101.953984 212.051753 
L 102.742064 212.018952 
L 103.526736 211.91118 
L 104.310011 212.167956 
L 105.080273 212.078904 
L 105.852322 211.121198 
L 106.621821 212.642539 
L 107.388857 213.302389 
L 108.159703 212.598888 
L 108.934752 212.671235 
L 109.700881 212.22296 
L 110.449404 212.543046 
L 111.201308 211.749466 
L 111.957308 212.067347 
L 112.69559 212.128918 
L 113.430662 211.549076 
L 114.154147 212.153215 
L 114.870516 212.2307 
L 115.606328 212.077606 
L 116.333895 212.079973 
L 117.059654 211.975997 
L 117.789133 212.185938 
L 118.517665 211.870199 
L 119.246324 212.254316 
L 119.971972 212.037143 
L 120.685415 212.351558 
L 121.39165 212.014396 
L 122.115706 211.858401 
L 122.832874 212.150665 
L 123.549277 212.311017 
L 124.251565 212.45356 
L 124.961337 212.354815 
L 125.685264 212.392314 
L 126.374736 211.730112 
L 127.063171 212.594264 
L 127.755301 212.367624 
L 128.460742 212.664663 
L 129.166735 212.543344 
L 129.880463 212.578591 
L 130.583062 213.028673 
L 131.288036 212.88425 
L 132.002695 212.676267 
L 132.730051 212.726187 
L 133.46586 212.736901 
L 134.168468 212.807567 
L 134.900722 212.756674 
L 135.613804 212.849333 
L 136.324726 213.033595 
L 137.031891 212.752951 
L 137.741069 212.799964 
L 138.432231 212.785653 
" style="fill:none;stroke:#4c72b0;stroke-linecap:round;stroke-width:1.5;"></path>
   </g>
   <g id="line2d_17">
    <path clip-path="url(#p39d2f4e680)" d="M 67.082942 17.083636 
L 70.02184 20.659929 
L 72.973663 25.56409 
L 75.938523 34.944927 
L 78.909778 39.528636 
L 81.915367 44.155787 
L 84.94549 49.092121 
L 87.996872 65.561678 
L 91.041775 89.425138 
L 94.109158 90.26725 
L 97.162406 100.195111 
L 100.19112 121.925979 
L 103.177705 110.224644 
L 106.168865 114.800666 
L 109.205505 146.208788 
L 112.238453 142.224719 
L 115.27658 141.024882 
L 118.330541 151.192146 
L 121.384788 163.767273 
L 124.426458 167.369339 
L 127.473368 168.086885 
L 130.523296 170.827318 
L 133.596696 180.832627 
L 136.642845 189.627857 
L 139.691359 195.651077 
L 142.76612 199.424094 
L 145.85383 201.989429 
L 148.941737 203.011634 
L 152.04034 203.876388 
L 155.107259 203.029836 
L 158.19918 203.174583 
L 161.246236 203.993256 
L 164.324157 204.078328 
L 167.382057 203.679946 
L 170.524308 204.086046 
L 173.715495 205.06793 
L 176.804629 206.607951 
L 179.909982 206.966818 
L 183.03131 207.972454 
L 186.136007 208.124627 
L 189.265362 208.596099 
L 192.40254 208.590056 
L 195.52716 208.816566 
L 198.634799 208.75998 
L 201.744145 209.313823 
L 204.816862 208.790362 
L 207.910425 209.187435 
L 210.97522 209.19862 
L 214.077413 208.156318 
L 217.194394 208.340401 
L 220.30504 207.702168 
L 223.410471 208.198901 
L 226.49271 207.669209 
L 229.612575 207.836421 
L 232.728839 207.728675 
L 235.813169 207.068542 
L 238.901447 206.839655 
L 242.016342 207.077308 
L 245.115999 207.400954 
L 248.198363 207.630312 
L 251.2719 208.559988 
L 254.334056 208.94353 
L 257.384853 209.874201 
L 260.422446 210.079712 
L 263.507033 210.694832 
L 266.603478 210.777422 
L 269.714904 211.150323 
L 272.823216 210.877554 
L 275.925799 211.033926 
L 279.047733 210.665508 
L 282.178404 211.205526 
L 285.305205 211.607678 
L 288.464152 211.579453 
L 291.623252 211.943368 
L 294.766775 212.211995 
L 297.897396 211.976657 
L 301.031462 212.288134 
L 304.154442 212.10703 
L 307.344907 212.359638 
L 310.472767 212.266119 
L 313.59817 213.13832 
L 316.725685 212.866205 
L 319.879269 213.307526 
L 322.922188 213.134487 
L 325.922406 213.46095 
L 328.851813 213.511755 
L 331.797768 213.408664 
L 334.683841 212.846003 
L 337.57348 213.547352 
L 340.423215 213.262026 
L 343.304201 213.553741 
L 346.224444 213.438947 
L 349.169262 213.1969 
L 352.101856 213.194554 
L 354.988017 214.219006 
L 357.896385 213.760006 
L 360.78348 213.162905 
L 363.660834 213.414241 
L 366.516993 214.386044 
L 369.389006 214.756364 
" style="fill:none;stroke:#dd8452;stroke-linecap:round;stroke-width:1.5;"></path>
   </g>
   <g id="patch_3">
    <path d="M 49.807187 224.64 
L 49.807187 7.2 
" style="fill:none;stroke:#ffffff;stroke-linecap:square;stroke-linejoin:miter;stroke-width:1.25;"></path>
   </g>
   <g id="patch_4">
    <path d="M 384.607188 224.64 
L 384.607188 7.2 
" style="fill:none;stroke:#ffffff;stroke-linecap:square;stroke-linejoin:miter;stroke-width:1.25;"></path>
   </g>
   <g id="patch_5">
    <path d="M 49.807187 224.64 
L 384.607188 224.64 
" style="fill:none;stroke:#ffffff;stroke-linecap:square;stroke-linejoin:miter;stroke-width:1.25;"></path>
   </g>
   <g id="patch_6">
    <path d="M 49.807187 7.2 
L 384.607188 7.2 
" style="fill:none;stroke:#ffffff;stroke-linecap:square;stroke-linejoin:miter;stroke-width:1.25;"></path>
   </g>
   <g id="legend_1">
    <g id="patch_7">
     <path d="M 262.830312 48.291875 
L 376.907188 48.291875 
Q 379.107188 48.291875 379.107188 46.091875 
L 379.107188 14.9 
Q 379.107188 12.7 376.907188 12.7 
L 262.830312 12.7 
Q 260.630313 12.7 260.630313 14.9 
L 260.630313 46.091875 
Q 260.630313 48.291875 262.830312 48.291875 
z
" style="fill:#eaeaf2;opacity:0.8;stroke:#cccccc;stroke-linejoin:miter;"></path>
    </g>
    <g id="line2d_18">
     <path d="M 265.030312 21.608281 
L 287.030312 21.608281 
" style="fill:none;stroke:#4c72b0;stroke-linecap:round;stroke-width:1.5;"></path>
    </g>
    <g id="line2d_19"></g>
    <g id="text_18">
     <!-- Neural Linear -->
     <defs>
      <path d="M 9.8125 72.90625 
L 23.09375 72.90625 
L 55.421875 11.921875 
L 55.421875 72.90625 
L 64.984375 72.90625 
L 64.984375 0 
L 51.703125 0 
L 19.390625 60.984375 
L 19.390625 0 
L 9.8125 0 
z
" id="DejaVuSans-78"></path>
      <path d="M 8.5 21.578125 
L 8.5 54.6875 
L 17.484375 54.6875 
L 17.484375 21.921875 
Q 17.484375 14.15625 20.5 10.265625 
Q 23.53125 6.390625 29.59375 6.390625 
Q 36.859375 6.390625 41.078125 11.03125 
Q 45.3125 15.671875 45.3125 23.6875 
L 45.3125 54.6875 
L 54.296875 54.6875 
L 54.296875 0 
L 45.3125 0 
L 45.3125 8.40625 
Q 42.046875 3.421875 37.71875 1 
Q 33.40625 -1.421875 27.6875 -1.421875 
Q 18.265625 -1.421875 13.375 4.4375 
Q 8.5 10.296875 8.5 21.578125 
z
M 31.109375 56 
z
" id="DejaVuSans-117"></path>
      <path d="M 41.109375 46.296875 
Q 39.59375 47.171875 37.8125 47.578125 
Q 36.03125 48 33.890625 48 
Q 26.265625 48 22.1875 43.046875 
Q 18.109375 38.09375 18.109375 28.8125 
L 18.109375 0 
L 9.078125 0 
L 9.078125 54.6875 
L 18.109375 54.6875 
L 18.109375 46.1875 
Q 20.953125 51.171875 25.484375 53.578125 
Q 30.03125 56 36.53125 56 
Q 37.453125 56 38.578125 55.875 
Q 39.703125 55.765625 41.0625 55.515625 
z
" id="DejaVuSans-114"></path>
      <path d="M 9.421875 75.984375 
L 18.40625 75.984375 
L 18.40625 0 
L 9.421875 0 
z
" id="DejaVuSans-108"></path>
      <path d="M 9.8125 72.90625 
L 19.671875 72.90625 
L 19.671875 8.296875 
L 55.171875 8.296875 
L 55.171875 0 
L 9.8125 0 
z
" id="DejaVuSans-76"></path>
      <path d="M 54.890625 33.015625 
L 54.890625 0 
L 45.90625 0 
L 45.90625 32.71875 
Q 45.90625 40.484375 42.875 44.328125 
Q 39.84375 48.1875 33.796875 48.1875 
Q 26.515625 48.1875 22.3125 43.546875 
Q 18.109375 38.921875 18.109375 30.90625 
L 18.109375 0 
L 9.078125 0 
L 9.078125 54.6875 
L 18.109375 54.6875 
L 18.109375 46.1875 
Q 21.34375 51.125 25.703125 53.5625 
Q 30.078125 56 35.796875 56 
Q 45.21875 56 50.046875 50.171875 
Q 54.890625 44.34375 54.890625 33.015625 
z
" id="DejaVuSans-110"></path>
     </defs>
     <g style="fill:#262626;" transform="translate(295.830312 25.458281)scale(0.11 -0.11)">
      <use xlink:href="#DejaVuSans-78"></use>
      <use x="74.804688" xlink:href="#DejaVuSans-101"></use>
      <use x="136.328125" xlink:href="#DejaVuSans-117"></use>
      <use x="199.707031" xlink:href="#DejaVuSans-114"></use>
      <use x="240.820312" xlink:href="#DejaVuSans-97"></use>
      <use x="302.099609" xlink:href="#DejaVuSans-108"></use>
      <use x="329.882812" xlink:href="#DejaVuSans-32"></use>
      <use x="361.669922" xlink:href="#DejaVuSans-76"></use>
      <use x="417.382812" xlink:href="#DejaVuSans-105"></use>
      <use x="445.166016" xlink:href="#DejaVuSans-110"></use>
      <use x="508.544922" xlink:href="#DejaVuSans-101"></use>
      <use x="570.068359" xlink:href="#DejaVuSans-97"></use>
      <use x="631.347656" xlink:href="#DejaVuSans-114"></use>
     </g>
    </g>
    <g id="line2d_20">
     <path d="M 265.030312 37.754219 
L 287.030312 37.754219 
" style="fill:none;stroke:#dd8452;stroke-linecap:round;stroke-width:1.5;"></path>
    </g>
    <g id="line2d_21"></g>
    <g id="text_19">
     <!-- Fully Bayesian -->
     <defs>
      <path d="M 9.8125 72.90625 
L 51.703125 72.90625 
L 51.703125 64.59375 
L 19.671875 64.59375 
L 19.671875 43.109375 
L 48.578125 43.109375 
L 48.578125 34.8125 
L 19.671875 34.8125 
L 19.671875 0 
L 9.8125 0 
z
" id="DejaVuSans-70"></path>
      <path d="M 32.171875 -5.078125 
Q 28.375 -14.84375 24.75 -17.8125 
Q 21.140625 -20.796875 15.09375 -20.796875 
L 7.90625 -20.796875 
L 7.90625 -13.28125 
L 13.1875 -13.28125 
Q 16.890625 -13.28125 18.9375 -11.515625 
Q 21 -9.765625 23.484375 -3.21875 
L 25.09375 0.875 
L 2.984375 54.6875 
L 12.5 54.6875 
L 29.59375 11.921875 
L 46.6875 54.6875 
L 56.203125 54.6875 
z
" id="DejaVuSans-121"></path>
      <path d="M 19.671875 34.8125 
L 19.671875 8.109375 
L 35.5 8.109375 
Q 43.453125 8.109375 47.28125 11.40625 
Q 51.125 14.703125 51.125 21.484375 
Q 51.125 28.328125 47.28125 31.5625 
Q 43.453125 34.8125 35.5 34.8125 
z
M 19.671875 64.796875 
L 19.671875 42.828125 
L 34.28125 42.828125 
Q 41.5 42.828125 45.03125 45.53125 
Q 48.578125 48.25 48.578125 53.8125 
Q 48.578125 59.328125 45.03125 62.0625 
Q 41.5 64.796875 34.28125 64.796875 
z
M 9.8125 72.90625 
L 35.015625 72.90625 
Q 46.296875 72.90625 52.390625 68.21875 
Q 58.5 63.53125 58.5 54.890625 
Q 58.5 48.1875 55.375 44.234375 
Q 52.25 40.28125 46.1875 39.3125 
Q 53.46875 37.75 57.5 32.78125 
Q 61.53125 27.828125 61.53125 20.40625 
Q 61.53125 10.640625 54.890625 5.3125 
Q 48.25 0 35.984375 0 
L 9.8125 0 
z
" id="DejaVuSans-66"></path>
     </defs>
     <g style="fill:#262626;" transform="translate(295.830312 41.604219)scale(0.11 -0.11)">
      <use xlink:href="#DejaVuSans-70"></use>
      <use x="52.019531" xlink:href="#DejaVuSans-117"></use>
      <use x="115.398438" xlink:href="#DejaVuSans-108"></use>
      <use x="143.181641" xlink:href="#DejaVuSans-108"></use>
      <use x="170.964844" xlink:href="#DejaVuSans-121"></use>
      <use x="230.144531" xlink:href="#DejaVuSans-32"></use>
      <use x="261.931641" xlink:href="#DejaVuSans-66"></use>
      <use x="330.535156" xlink:href="#DejaVuSans-97"></use>
      <use x="391.814453" xlink:href="#DejaVuSans-121"></use>
      <use x="450.994141" xlink:href="#DejaVuSans-101"></use>
      <use x="512.517578" xlink:href="#DejaVuSans-115"></use>
      <use x="564.617188" xlink:href="#DejaVuSans-105"></use>
      <use x="592.400391" xlink:href="#DejaVuSans-97"></use>
      <use x="653.679688" xlink:href="#DejaVuSans-110"></use>
     </g>
    </g>
   </g>
  </g>
 </g>
 <defs>
  <clipPath id="p39d2f4e680">
   <rect height="217.44" width="334.8" x="49.807187" y="7.2"></rect>
  </clipPath>
 </defs>
</svg>