<svg height="344" viewBox="0 0 380.9 258" width="507.9" xmlns="http://www.w3.org/2000/svg" xmlns:xlink="http://www.w3.org/1999/xlink"><defs><style>*{stroke-linecap:butt;stroke-linejoin:round}</style></defs><g id="figure_1"><path d="M0 258h381V0H0z" fill="#fff" id="patch_1"/><g id="axes_1"><path d="M33 230.6h334.7V13.2H33z" fill="#eaeaf2" id="patch_2"/><g id="matplotlib.axis_1"><g id="xtick_1"><path clip-path="url(#peefc6e8d8b)" d="M48.1 230.6V13.2" fill="none" stroke="#fff" stroke-linecap="round" id="line2d_1"/><g id="text_1"><defs><path d="M10.6 35.5h62.6v-8.3H10.6z" id="DejaVuSans-8722"/><path d="M12.4 8.3h16.1v55.6L11 60.4v9l17.4 3.5h9.9V8.3h16V0H12.5z" id="DejaVuSans-49"/><path d="M10.7 12.4H21V0H10.7z" id="DejaVuSans-46"/><path d="M31.8 66.4q-7.6 0-11.5-7.5-3.8-7.5-3.8-22.5t3.8-22.5q3.9-7.5 11.5-7.5 7.7 0 11.5 7.5T47 36.4q0 15-3.8 22.5t-11.5 7.5zm0 7.8q12.2 0 18.7-9.7T57 36.4Q57 18 50.5 8.3 44-1.4 31.8-1.4 19.5-1.4 13 8.3q-6.5 9.7-6.5 28 0 18.5 6.5 28.2 6.4 9.7 18.7 9.7z" id="DejaVuSans-48"/></defs><g transform="matrix(.11 0 0 -.11 31.3 248.5)" fill="#262626"><use xlink:href="#DejaVuSans-8722"/><use x="83.8" xlink:href="#DejaVuSans-49"/><use x="147.4" xlink:href="#DejaVuSans-46"/><use x="179.2" xlink:href="#DejaVuSans-48"/><use x="242.8" xlink:href="#DejaVuSans-48"/></g></g></g><g id="xtick_2"><path clip-path="url(#peefc6e8d8b)" d="M86.2 230.6V13.2" fill="none" stroke="#fff" stroke-linecap="round" id="line2d_2"/><g id="text_2"><defs><path d="M8.2 73h46.9v-4.3L28.6 0H18.3l25 64.6H8.1z" id="DejaVuSans-55"/><path d="M10.8 73h38.7v-8.4H19.8V46.7q2.2.8 4.3 1.1 2.2.4 4.3.4 12.2 0 19.4-6.7 7-6.7 7-18.1 0-11.8-7.2-18.3-7.4-6.5-20.7-6.5-4.6 0-9.4.8-4.7.7-9.8 2.3v10q4.4-2.5 9.1-3.6 4.7-1.2 9.9-1.2 8.5 0 13.4 4.4 5 4.5 5 12 0 7.7-5 12.1Q35 40 26.7 40q-4 0-7.9-.9-4-.9-8-2.7z" id="DejaVuSans-53"/></defs><g transform="matrix(.11 0 0 -.11 69.3 248.5)" fill="#262626"><use xlink:href="#DejaVuSans-8722"/><use x="83.8" xlink:href="#DejaVuSans-48"/><use x="147.4" xlink:href="#DejaVuSans-46"/><use x="179.2" xlink:href="#DejaVuSans-55"/><use x="242.8" xlink:href="#DejaVuSans-53"/></g></g></g><g id="xtick_3"><path clip-path="url(#peefc6e8d8b)" d="M124.2 230.6V13.2" fill="none" stroke="#fff" stroke-linecap="round" id="line2d_3"/><g transform="matrix(.11 0 0 -.11 107.4 248.5)" fill="#262626" id="text_3"><use xlink:href="#DejaVuSans-8722"/><use x="83.8" xlink:href="#DejaVuSans-48"/><use x="147.4" xlink:href="#DejaVuSans-46"/><use x="179.2" xlink:href="#DejaVuSans-53"/><use x="242.8" xlink:href="#DejaVuSans-48"/></g></g><g id="xtick_4"><path clip-path="url(#peefc6e8d8b)" d="M162.3 230.6V13.2" fill="none" stroke="#fff" stroke-linecap="round" id="line2d_4"/><g id="text_4"><defs><path d="M19.2 8.3h34.4V0H7.3v8.3l15.3 15.6q9.7 9.8 12.2 12.6 4.7 5.3 6.6 9 2 3.7 2 7.3 0 5.8-4.2 9.5-4 3.6-10.6 3.6-4.6 0-9.8-1.6-5.1-1.6-11-4.9v10q6 2.4 11.1 3.6 5.2 1.2 9.5 1.2 11.4 0 18-5.7 6.8-5.6 6.8-15 0-4.6-1.7-8.6-1.6-4-6-9.5l-7.9-8.2L19.2 8.3z" id="DejaVuSans-50"/></defs><g transform="matrix(.11 0 0 -.11 145.4 248.5)" fill="#262626"><use xlink:href="#DejaVuSans-8722"/><use x="83.8" xlink:href="#DejaVuSans-48"/><use x="147.4" xlink:href="#DejaVuSans-46"/><use x="179.2" xlink:href="#DejaVuSans-50"/><use x="242.8" xlink:href="#DejaVuSans-53"/></g></g></g><g id="xtick_5"><path clip-path="url(#peefc6e8d8b)" d="M200.3 230.6V13.2" fill="none" stroke="#fff" stroke-linecap="round" id="line2d_5"/><g transform="matrix(.11 0 0 -.11 188 248.5)" fill="#262626" id="text_5"><use xlink:href="#DejaVuSans-48"/><use x="63.6" xlink:href="#DejaVuSans-46"/><use x="95.4" xlink:href="#DejaVuSans-48"/><use x="159" xlink:href="#DejaVuSans-48"/></g></g><g id="xtick_6"><path clip-path="url(#peefc6e8d8b)" d="M238.4 230.6V13.2" fill="none" stroke="#fff" stroke-linecap="round" id="line2d_6"/><g transform="matrix(.11 0 0 -.11 226.1 248.5)" fill="#262626" id="text_6"><use xlink:href="#DejaVuSans-48"/><use x="63.6" xlink:href="#DejaVuSans-46"/><use x="95.4" xlink:href="#DejaVuSans-50"/><use x="159" xlink:href="#DejaVuSans-53"/></g></g><g id="xtick_7"><path clip-path="url(#peefc6e8d8b)" d="M276.4 230.6V13.2" fill="none" stroke="#fff" stroke-linecap="round" id="line2d_7"/><g transform="matrix(.11 0 0 -.11 264.2 248.5)" fill="#262626" id="text_7"><use xlink:href="#DejaVuSans-48"/><use x="63.6" xlink:href="#DejaVuSans-46"/><use x="95.4" xlink:href="#DejaVuSans-53"/><use x="159" xlink:href="#DejaVuSans-48"/></g></g><g id="xtick_8"><path clip-path="url(#peefc6e8d8b)" d="M314.5 230.6V13.2" fill="none" stroke="#fff" stroke-linecap="round" id="line2d_8"/><g transform="matrix(.11 0 0 -.11 302.2 248.5)" fill="#262626" id="text_8"><use xlink:href="#DejaVuSans-48"/><use x="63.6" xlink:href="#DejaVuSans-46"/><use x="95.4" xlink:href="#DejaVuSans-55"/><use x="159" xlink:href="#DejaVuSans-53"/></g></g><g id="xtick_9"><path clip-path="url(#peefc6e8d8b)" d="M352.5 230.6V13.2" fill="none" stroke="#fff" stroke-linecap="round" id="line2d_9"/><g transform="matrix(.11 0 0 -.11 340.3 248.5)" fill="#262626" id="text_9"><use xlink:href="#DejaVuSans-49"/><use x="63.6" xlink:href="#DejaVuSans-46"/><use x="95.4" xlink:href="#DejaVuSans-48"/><use x="159" xlink:href="#DejaVuSans-48"/></g></g></g><g id="matplotlib.axis_2"><g id="ytick_1"><path clip-path="url(#peefc6e8d8b)" d="M33 221.8h334.7" fill="none" stroke="#fff" stroke-linecap="round" id="line2d_10"/><g id="text_10"><defs><path d="M37.8 64.3l-25-39h25zM35.2 73h12.4V25.4H58v-8.2H47.6V0h-9.8v17.2h-33v9.5z" id="DejaVuSans-52"/></defs><g transform="matrix(.11 0 0 -.11 7.2 226)" fill="#262626"><use xlink:href="#DejaVuSans-8722"/><use x="83.8" xlink:href="#DejaVuSans-52"/></g></g></g><g id="ytick_2"><path clip-path="url(#peefc6e8d8b)" d="M33 187.7h334.7" fill="none" stroke="#fff" stroke-linecap="round" id="line2d_11"/><g transform="matrix(.11 0 0 -.11 7.2 191.9)" fill="#262626" id="text_11"><use xlink:href="#DejaVuSans-8722"/><use x="83.8" xlink:href="#DejaVuSans-50"/></g></g><g id="ytick_3"><path clip-path="url(#peefc6e8d8b)" d="M33 153.6h334.7" fill="none" stroke="#fff" stroke-linecap="round" id="line2d_12"/><use xlink:href="#DejaVuSans-48" transform="matrix(.11 0 0 -.11 16.4 157.8)" fill="#262626" id="text_12"/></g><g id="ytick_4"><path clip-path="url(#peefc6e8d8b)" d="M33 119.5h334.7" fill="none" stroke="#fff" stroke-linecap="round" id="line2d_13"/><use xlink:href="#DejaVuSans-50" transform="matrix(.11 0 0 -.11 16.4 123.7)" fill="#262626" id="text_13"/></g><g id="ytick_5"><path clip-path="url(#peefc6e8d8b)" d="M33 85.5h334.7" fill="none" stroke="#fff" stroke-linecap="round" id="line2d_14"/><use xlink:href="#DejaVuSans-52" transform="matrix(.11 0 0 -.11 16.4 89.6)" fill="#262626" id="text_14"/></g><g id="ytick_6"><path clip-path="url(#peefc6e8d8b)" d="M33 51.4h334.7" fill="none" stroke="#fff" stroke-linecap="round" id="line2d_15"/><g id="text_15"><defs><path d="M33 40.4q-6.6 0-10.5-4.6-3.9-4.5-3.9-12.4T22.5 11Q26.4 6.4 33 6.4q6.7 0 10.5 4.6 4 4.5 4 12.4t-4 12.4q-3.8 4.6-10.5 4.6zm19.6 30.9v-9Q48.9 64.1 45 65q-3.8 1-7.5 1-9.8 0-15-6.7-5-6.6-5.8-19.9 2.9 4.3 7.2 6.5 4.4 2.3 9.6 2.3 11 0 17.4-6.7 6.3-6.6 6.3-18.1 0-11.2-6.6-18Q44-1.4 33-1.4q-12.6 0-19.3 9.7Q7 18 7 36.3 7 53.8 15.2 64q8.2 10.3 22 10.3 3.7 0 7.5-.7 3.8-.8 7.9-2.2z" id="DejaVuSans-54"/></defs><use xlink:href="#DejaVuSans-54" transform="matrix(.11 0 0 -.11 16.4 55.6)" fill="#262626"/></g></g><g id="ytick_7"><path clip-path="url(#peefc6e8d8b)" d="M33 17.3h334.7" fill="none" stroke="#fff" stroke-linecap="round" id="line2d_16"/><g id="text_16"><defs><path d="M31.8 34.6q-7 0-11-3.7-4.1-3.8-4.1-10.4 0-6.6 4-10.3 4-3.8 11-3.8 7.1 0 11.2 3.8 4 3.8 4 10.3 0 6.6-4 10.4-4 3.7-11.1 3.7zm-9.9 4.2q-6.3 1.6-9.9 6Q8.5 49 8.5 55.2q0 8.8 6.2 13.8 6.3 5.1 17 5.1 11 0 17.2-5Q55 64 55 55.2q0-6.2-3.6-10.6-3.5-4.3-9.8-5.9 7.1-1.6 11.1-6.5 4-4.8 4-11.8 0-10.6-6.5-16.3-6.5-5.6-18.5-5.6T13.2 4.2Q6.8 10 6.8 20.5q0 7 4 11.8 4 4.9 11.1 6.5zm-3.6 15.6q0-5.7 3.5-8.8 3.6-3.2 10-3.2 6.3 0 10 3.2 3.5 3.1 3.5 8.8 0 5.7-3.6 8.8-3.6 3.2-10 3.2-6.3 0-9.9-3.2-3.5-3.1-3.5-8.8z" id="DejaVuSans-56"/></defs><use xlink:href="#DejaVuSans-56" transform="matrix(.11 0 0 -.11 16.4 21.5)" fill="#262626"/></g></g></g><path clip-path="url(#peefc6e8d8b)" d="M48.1 187.3l3.1-.5 3-.4 3.2-.5 3-.4 3.1-.5 3-.5 3.2-.4 3-.5 3.1-.4 3-.5 3.2-.5 3-.4 3.1-.5 3-.4 3.2-.5 3-.4 3.1-.5 3-.5 3.1-.4 3.1-.5 3.1-.4 3-.5 3.1-.5 3.1-.4 3-.5 3.2-.4 3-.5 3.1-.4 3-.5 3.2-.5 3-.4 3.1-.5 3-.4 3.2-.5 3-.5 3.1-.4 3-.5 3.2-.4 3-.5 3.1-.5 3-.4 3.2-.5 3-.4 3.1-.5 3-.4 3.2-.5 3-.5 3.1-.4 3-.5 3.2-.4 3-.5 3.1-.5 3-.4 3.2-.5 3-.4 3.1-.5 3-.4 3.1-.5 3.1-.5 3.1-.4 3-.5 3.1-.4 3.1-.5 3-.5 3.2-.4 3-.5 3.1-.4 3-.5 3.2-.5 3-.4 3.1-.5 3-.4 3.2-.5 3-.4 3.1-.5 3-.5 3.2-.4 3-.5 3.1-.4 3-.5 3.2-.5 3-.4 3.1-.5 3-.4 3.2-.5 3-.4 3.1-.5 3-.5 3.2-.4 3-.5 3.1-.4 3-.5 3.2-.5 3-.4 3.1-.5 3-.4 3.1-.5 3.1-.4 3.1-.5" fill="none" stroke="#c44e52" stroke-linecap="round" stroke-width="1.5" id="line2d_17"/><g id="line2d_18"><defs><path d="M0 1.5a1.5 1.5 0 100-3 1.5 1.5 0 000 3z" id="m7f0b617ebb" stroke="#4c72b0"/></defs><g clip-path="url(#peefc6e8d8b)" fill="#4c72b0" stroke="#4c72b0"><use x="331.1" xlink:href="#m7f0b617ebb" y="162.1"/><use x="144.4" xlink:href="#m7f0b617ebb" y="190.4"/><use x="104.1" xlink:href="#m7f0b617ebb" y="192.5"/><use x="110.4" xlink:href="#m7f0b617ebb" y="188.6"/><use x="220.9" xlink:href="#m7f0b617ebb" y="160.7"/><use x="229.4" xlink:href="#m7f0b617ebb" y="138.8"/><use x="341.7" xlink:href="#m7f0b617ebb" y="83.4"/><use x="246.9" xlink:href="#m7f0b617ebb" y="140.5"/><use x="276.1" xlink:href="#m7f0b617ebb" y="196.6"/><use x="247.1" xlink:href="#m7f0b617ebb" y="196.1"/><use x="275.7" xlink:href="#m7f0b617ebb" y="145.5"/><use x="340.7" xlink:href="#m7f0b617ebb" y="124.4"/><use x="50.7" xlink:href="#m7f0b617ebb" y="36.3"/><use x="80.5" xlink:href="#m7f0b617ebb" y="194.2"/><use x="139" xlink:href="#m7f0b617ebb" y="187.6"/><use x="247.9" xlink:href="#m7f0b617ebb" y="211.9"/><use x="294.6" xlink:href="#m7f0b617ebb" y="147.4"/><use x="313.6" xlink:href="#m7f0b617ebb" y="127.7"/><use x="341.7" xlink:href="#m7f0b617ebb" y="58.4"/><use x="268.4" xlink:href="#m7f0b617ebb" y="100.2"/><use x="243.7" xlink:href="#m7f0b617ebb" y="166.5"/><use x="266.5" xlink:href="#m7f0b617ebb" y="135.8"/><use x="190.5" xlink:href="#m7f0b617ebb" y="170.8"/><use x="147.2" xlink:href="#m7f0b617ebb" y="175"/><use x="181.9" xlink:href="#m7f0b617ebb" y="190.8"/><use x="270.2" xlink:href="#m7f0b617ebb" y="195.5"/><use x="350.7" xlink:href="#m7f0b617ebb" y="112"/><use x="254.2" xlink:href="#m7f0b617ebb" y="148.9"/><use x="288.8" xlink:href="#m7f0b617ebb" y="210.2"/><use x="100.2" xlink:href="#m7f0b617ebb" y="188.6"/><use x="56.3" xlink:href="#m7f0b617ebb" y="208.9"/><use x="291.7" xlink:href="#m7f0b617ebb" y="157"/><use x="323.2" xlink:href="#m7f0b617ebb" y="127.5"/><use x="55.6" xlink:href="#m7f0b617ebb" y="36.6"/><use x="197.8" xlink:href="#m7f0b617ebb" y="177.3"/><use x="208.3" xlink:href="#m7f0b617ebb" y="158.7"/><use x="229.6" xlink:href="#m7f0b617ebb" y="185.9"/><use x="63.9" xlink:href="#m7f0b617ebb" y="191.5"/><use x="320.6" xlink:href="#m7f0b617ebb" y="209.9"/><use x="269.8" xlink:href="#m7f0b617ebb" y="179.6"/><use x="297.2" xlink:href="#m7f0b617ebb" y="127.8"/><use x="200.4" xlink:href="#m7f0b617ebb" y="197.6"/><use x="294.7" xlink:href="#m7f0b617ebb" y="135"/><use x="77.3" xlink:href="#m7f0b617ebb" y="199.6"/><use x="114.8" xlink:href="#m7f0b617ebb" y="196.5"/><use x="126.9" xlink:href="#m7f0b617ebb" y="186"/><use x="190.6" xlink:href="#m7f0b617ebb" y="177.9"/><use x="188" xlink:href="#m7f0b617ebb" y="166.6"/><use x="264.1" xlink:href="#m7f0b617ebb" y="141.6"/><use x="102.3" xlink:href="#m7f0b617ebb" y="187.5"/><use x="209.9" xlink:href="#m7f0b617ebb" y="167"/><use x="99.2" xlink:href="#m7f0b617ebb" y="196"/><use x="282.1" xlink:href="#m7f0b617ebb" y="173.5"/><use x="330.6" xlink:href="#m7f0b617ebb" y="134.2"/><use x="233.6" xlink:href="#m7f0b617ebb" y="174.2"/><use x="93.8" xlink:href="#m7f0b617ebb" y="191.1"/><use x="197.2" xlink:href="#m7f0b617ebb" y="186.7"/><use x="163" xlink:href="#m7f0b617ebb" y="180.1"/><use x="306.4" xlink:href="#m7f0b617ebb" y="213.3"/><use x="325.4" xlink:href="#m7f0b617ebb" y="88"/><use x="165" xlink:href="#m7f0b617ebb" y="158.1"/><use x="144.2" xlink:href="#m7f0b617ebb" y="177"/><use x="221.1" xlink:href="#m7f0b617ebb" y="171.2"/><use x="105.3" xlink:href="#m7f0b617ebb" y="184.1"/><use x="86.4" xlink:href="#m7f0b617ebb" y="195.5"/><use x="257.4" xlink:href="#m7f0b617ebb" y="204.3"/><use x="291.5" xlink:href="#m7f0b617ebb" y="180.1"/><use x="222.7" xlink:href="#m7f0b617ebb" y="164.1"/><use x="344.4" xlink:href="#m7f0b617ebb" y="132.7"/><use x="241.1" xlink:href="#m7f0b617ebb" y="172.2"/><use x="318.5" xlink:href="#m7f0b617ebb" y="167.9"/><use x="198.9" xlink:href="#m7f0b617ebb" y="158.4"/><use x="155.2" xlink:href="#m7f0b617ebb" y="188.7"/><use x="265.5" xlink:href="#m7f0b617ebb" y="131.6"/><use x="201.5" xlink:href="#m7f0b617ebb" y="157.5"/><use x="116.8" xlink:href="#m7f0b617ebb" y="189.9"/><use x="122.7" xlink:href="#m7f0b617ebb" y="164.5"/><use x="289.4" xlink:href="#m7f0b617ebb" y="133.3"/><use x="198.8" xlink:href="#m7f0b617ebb" y="145.8"/><use x="326.7" xlink:href="#m7f0b617ebb" y="92.9"/><use x="335.9" xlink:href="#m7f0b617ebb" y="171.9"/><use x="210.4" xlink:href="#m7f0b617ebb" y="174.4"/><use x="125" xlink:href="#m7f0b617ebb" y="205.7"/><use x="267.5" xlink:href="#m7f0b617ebb" y="138.9"/><use x="160" xlink:href="#m7f0b617ebb" y="176"/><use x="199.9" xlink:href="#m7f0b617ebb" y="193.5"/><use x="117.1" xlink:href="#m7f0b617ebb" y="194.2"/><use x="155.7" xlink:href="#m7f0b617ebb" y="179.1"/><use x="246.2" xlink:href="#m7f0b617ebb" y="121"/><use x="143.4" xlink:href="#m7f0b617ebb" y="194.8"/><use x="282.1" xlink:href="#m7f0b617ebb" y="170.4"/><use x="286.1" xlink:href="#m7f0b617ebb" y="173.2"/><use x="307.6" xlink:href="#m7f0b617ebb" y="104.5"/><use x="337.3" xlink:href="#m7f0b617ebb" y="118.9"/><use x="80.8" xlink:href="#m7f0b617ebb" y="208.2"/><use x="325.3" xlink:href="#m7f0b617ebb" y="134.7"/><use x="150.4" xlink:href="#m7f0b617ebb" y="174.4"/><use x="299.7" xlink:href="#m7f0b617ebb" y="130.5"/><use x="321.5" xlink:href="#m7f0b617ebb" y="134.6"/><use x="61.1" xlink:href="#m7f0b617ebb" y="201.1"/><use x="107.7" xlink:href="#m7f0b617ebb" y="203"/><use x="137.8" xlink:href="#m7f0b617ebb" y="218"/><use x="239" xlink:href="#m7f0b617ebb" y="148.1"/><use x="74.4" xlink:href="#m7f0b617ebb" y="197.9"/><use x="91.6" xlink:href="#m7f0b617ebb" y="184.2"/><use x="205.1" xlink:href="#m7f0b617ebb" y="199.2"/><use x="257.9" xlink:href="#m7f0b617ebb" y="130.6"/><use x="308.9" xlink:href="#m7f0b617ebb" y="74.7"/><use x="245.2" xlink:href="#m7f0b617ebb" y="166.1"/><use x="225.2" xlink:href="#m7f0b617ebb" y="184.1"/><use x="264.6" xlink:href="#m7f0b617ebb" y="138.7"/><use x="125" xlink:href="#m7f0b617ebb" y="194.3"/><use x="322.1" xlink:href="#m7f0b617ebb" y="168.1"/><use x="182.8" xlink:href="#m7f0b617ebb" y="166.6"/><use x="54.4" xlink:href="#m7f0b617ebb" y="30.6"/><use x="340.2" xlink:href="#m7f0b617ebb" y="131.3"/><use x="246.6" xlink:href="#m7f0b617ebb" y="140.2"/><use x="204.3" xlink:href="#m7f0b617ebb" y="170.6"/><use x="255.8" xlink:href="#m7f0b617ebb" y="175.8"/><use x="197.1" xlink:href="#m7f0b617ebb" y="173.1"/><use x="330.1" xlink:href="#m7f0b617ebb" y="187.2"/><use x="205.1" xlink:href="#m7f0b617ebb" y="178.4"/><use x="70.1" xlink:href="#m7f0b617ebb" y="202.6"/><use x="220.9" xlink:href="#m7f0b617ebb" y="175.3"/><use x="235.4" xlink:href="#m7f0b617ebb" y="160"/><use x="334.7" xlink:href="#m7f0b617ebb" y="134.2"/><use x="174.6" xlink:href="#m7f0b617ebb" y="170"/><use x="128.6" xlink:href="#m7f0b617ebb" y="185.3"/><use x="77.8" xlink:href="#m7f0b617ebb" y="196.2"/><use x="196" xlink:href="#m7f0b617ebb" y="187.2"/><use x="189.6" xlink:href="#m7f0b617ebb" y="157.2"/><use x="57.2" xlink:href="#m7f0b617ebb" y="206.2"/><use x="259.4" xlink:href="#m7f0b617ebb" y="179.7"/><use x="266.3" xlink:href="#m7f0b617ebb" y="107.7"/><use x="270.3" xlink:href="#m7f0b617ebb" y="179.9"/><use x="174.2" xlink:href="#m7f0b617ebb" y="166.4"/><use x="52.7" xlink:href="#m7f0b617ebb" y="39.1"/><use x="324.8" xlink:href="#m7f0b617ebb" y="53.9"/><use x="288.4" xlink:href="#m7f0b617ebb" y="175.8"/><use x="98.4" xlink:href="#m7f0b617ebb" y="189"/><use x="143.3" xlink:href="#m7f0b617ebb" y="176.1"/><use x="234.1" xlink:href="#m7f0b617ebb" y="131.4"/><use x="159.1" xlink:href="#m7f0b617ebb" y="154.7"/><use x="95.6" xlink:href="#m7f0b617ebb" y="189.4"/><use x="102.1" xlink:href="#m7f0b617ebb" y="188.1"/><use x="312.3" xlink:href="#m7f0b617ebb" y="86.5"/><use x="136.4" xlink:href="#m7f0b617ebb" y="198.3"/><use x="226.2" xlink:href="#m7f0b617ebb" y="163"/><use x="186.3" xlink:href="#m7f0b617ebb" y="182.2"/><use x="173.3" xlink:href="#m7f0b617ebb" y="197.2"/><use x="316.8" xlink:href="#m7f0b617ebb" y="137.7"/><use x="259" xlink:href="#m7f0b617ebb" y="168.8"/><use x="133.1" xlink:href="#m7f0b617ebb" y="191.4"/><use x="67.7" xlink:href="#m7f0b617ebb" y="201"/><use x="108.6" xlink:href="#m7f0b617ebb" y="188.2"/><use x="331.7" xlink:href="#m7f0b617ebb" y="116.9"/><use x="308.2" xlink:href="#m7f0b617ebb" y="198.2"/><use x="338.7" xlink:href="#m7f0b617ebb" y="144.4"/><use x="64" xlink:href="#m7f0b617ebb" y="199.5"/><use x="224.5" xlink:href="#m7f0b617ebb" y="176.9"/><use x="194.4" xlink:href="#m7f0b617ebb" y="175.9"/><use x="54.7" xlink:href="#m7f0b617ebb" y="31.3"/><use x="161.9" xlink:href="#m7f0b617ebb" y="177.6"/><use x="174.2" xlink:href="#m7f0b617ebb" y="161.5"/><use x="231.9" xlink:href="#m7f0b617ebb" y="169.3"/><use x="252.6" xlink:href="#m7f0b617ebb" y="171.8"/><use x="303.5" xlink:href="#m7f0b617ebb" y="157.8"/><use x="285.4" xlink:href="#m7f0b617ebb" y="156.4"/><use x="170.1" xlink:href="#m7f0b617ebb" y="192.6"/><use x="290" xlink:href="#m7f0b617ebb" y="128.8"/><use x="320" xlink:href="#m7f0b617ebb" y="87"/><use x="128" xlink:href="#m7f0b617ebb" y="183.8"/><use x="349.2" xlink:href="#m7f0b617ebb" y="168.3"/><use x="307.9" xlink:href="#m7f0b617ebb" y="179.4"/><use x="270.8" xlink:href="#m7f0b617ebb" y="144"/><use x="156.4" xlink:href="#m7f0b617ebb" y="182.1"/><use x="317" xlink:href="#m7f0b617ebb" y="129.9"/><use x="312.3" xlink:href="#m7f0b617ebb" y="140.5"/><use x="339" xlink:href="#m7f0b617ebb" y="150.8"/><use x="48.2" xlink:href="#m7f0b617ebb" y="37.2"/><use x="53.2" xlink:href="#m7f0b617ebb" y="28.3"/><use x="143.7" xlink:href="#m7f0b617ebb" y="189.4"/><use x="351.1" xlink:href="#m7f0b617ebb" y="164"/><use x="93.4" xlink:href="#m7f0b617ebb" y="187"/><use x="99.1" xlink:href="#m7f0b617ebb" y="201.8"/><use x="279" xlink:href="#m7f0b617ebb" y="100.4"/><use x="69.3" xlink:href="#m7f0b617ebb" y="198.9"/><use x="262.9" xlink:href="#m7f0b617ebb" y="163.7"/><use x="190.9" xlink:href="#m7f0b617ebb" y="201.4"/><use x="51.2" xlink:href="#m7f0b617ebb" y="27.4"/><use x="284" xlink:href="#m7f0b617ebb" y="177.7"/><use x="289.9" xlink:href="#m7f0b617ebb" y="181.8"/><use x="93.7" xlink:href="#m7f0b617ebb" y="198"/><use x="55.3" xlink:href="#m7f0b617ebb" y="23.1"/><use x="280.1" xlink:href="#m7f0b617ebb" y="181.8"/><use x="116.2" xlink:href="#m7f0b617ebb" y="198.3"/><use x="127.9" xlink:href="#m7f0b617ebb" y="178.9"/><use x="187.2" xlink:href="#m7f0b617ebb" y="181.3"/><use x="124.2" xlink:href="#m7f0b617ebb" y="193.1"/><use x="221.1" xlink:href="#m7f0b617ebb" y="179.7"/><use x="305.9" xlink:href="#m7f0b617ebb" y="135"/><use x="163.2" xlink:href="#m7f0b617ebb" y="178.1"/><use x="179.8" xlink:href="#m7f0b617ebb" y="189.1"/><use x="301.6" xlink:href="#m7f0b617ebb" y="120"/><use x="161.1" xlink:href="#m7f0b617ebb" y="179.2"/><use x="60.5" xlink:href="#m7f0b617ebb" y="196.2"/><use x="217" xlink:href="#m7f0b617ebb" y="131.7"/><use x="185.5" xlink:href="#m7f0b617ebb" y="173.6"/><use x="268.9" xlink:href="#m7f0b617ebb" y="191.9"/><use x="163.3" xlink:href="#m7f0b617ebb" y="167.1"/><use x="304" xlink:href="#m7f0b617ebb" y="147"/><use x="191" xlink:href="#m7f0b617ebb" y="173.9"/><use x="219.4" xlink:href="#m7f0b617ebb" y="167.3"/><use x="249.4" xlink:href="#m7f0b617ebb" y="130.6"/><use x="188.8" xlink:href="#m7f0b617ebb" y="180.1"/><use x="237.9" xlink:href="#m7f0b617ebb" y="131.9"/><use x="115.7" xlink:href="#m7f0b617ebb" y="181.6"/><use x="271.2" xlink:href="#m7f0b617ebb" y="161.5"/><use x="164.3" xlink:href="#m7f0b617ebb" y="174.7"/><use x="107.4" xlink:href="#m7f0b617ebb" y="186.4"/><use x="130.7" xlink:href="#m7f0b617ebb" y="196.4"/><use x="124" xlink:href="#m7f0b617ebb" y="200.8"/><use x="94.4" xlink:href="#m7f0b617ebb" y="186.4"/><use x="282.9" xlink:href="#m7f0b617ebb" y="173.3"/><use x="125.9" xlink:href="#m7f0b617ebb" y="204"/><use x="87" xlink:href="#m7f0b617ebb" y="199.1"/><use x="250.6" xlink:href="#m7f0b617ebb" y="182.1"/><use x="173.8" xlink:href="#m7f0b617ebb" y="165.2"/><use x="251.4" xlink:href="#m7f0b617ebb" y="197.5"/><use x="249" xlink:href="#m7f0b617ebb" y="147"/><use x="141.1" xlink:href="#m7f0b617ebb" y="173.2"/><use x="109.4" xlink:href="#m7f0b617ebb" y="204.8"/><use x="115.7" xlink:href="#m7f0b617ebb" y="193.5"/><use x="84.6" xlink:href="#m7f0b617ebb" y="185.3"/><use x="59.4" xlink:href="#m7f0b617ebb" y="208.3"/><use x="58.5" xlink:href="#m7f0b617ebb" y="190"/><use x="118.3" xlink:href="#m7f0b617ebb" y="176.6"/><use x="117.6" xlink:href="#m7f0b617ebb" y="203.9"/><use x="238.3" xlink:href="#m7f0b617ebb" y="162.7"/><use x="319.8" xlink:href="#m7f0b617ebb" y="92.5"/><use x="285.5" xlink:href="#m7f0b617ebb" y="152.3"/><use x="267.7" xlink:href="#m7f0b617ebb" y="173.3"/><use x="142.6" xlink:href="#m7f0b617ebb" y="217"/><use x="158.6" xlink:href="#m7f0b617ebb" y="177.3"/><use x="107.8" xlink:href="#m7f0b617ebb" y="179.4"/><use x="332.9" xlink:href="#m7f0b617ebb" y="164.4"/><use x="219.1" xlink:href="#m7f0b617ebb" y="156.9"/><use x="296.9" xlink:href="#m7f0b617ebb" y="136.3"/><use x="154.3" xlink:href="#m7f0b617ebb" y="173.5"/><use x="291.5" xlink:href="#m7f0b617ebb" y="190"/><use x="79.8" xlink:href="#m7f0b617ebb" y="182"/><use x="264.9" xlink:href="#m7f0b617ebb" y="169.3"/><use x="327.4" xlink:href="#m7f0b617ebb" y="148.5"/><use x="292.7" xlink:href="#m7f0b617ebb" y="196.8"/><use x="147.7" xlink:href="#m7f0b617ebb" y="182.3"/><use x="125.8" xlink:href="#m7f0b617ebb" y="183"/><use x="198.8" xlink:href="#m7f0b617ebb" y="136.4"/><use x="174" xlink:href="#m7f0b617ebb" y="181.8"/><use x="177.5" xlink:href="#m7f0b617ebb" y="200.5"/><use x="70.8" xlink:href="#m7f0b617ebb" y="198.6"/><use x="231.8" xlink:href="#m7f0b617ebb" y="167.4"/><use x="275.6" xlink:href="#m7f0b617ebb" y="149.4"/><use x="290.9" xlink:href="#m7f0b617ebb" y="162.6"/><use x="164.2" xlink:href="#m7f0b617ebb" y="184.1"/><use x="290.8" xlink:href="#m7f0b617ebb" y="175.9"/><use x="191.7" xlink:href="#m7f0b617ebb" y="176.5"/><use x="267.7" xlink:href="#m7f0b617ebb" y="123.2"/><use x="105.7" xlink:href="#m7f0b617ebb" y="195.8"/><use x="180.4" xlink:href="#m7f0b617ebb" y="162.2"/><use x="298.8" xlink:href="#m7f0b617ebb" y="159.5"/><use x="299.6" xlink:href="#m7f0b617ebb" y="143.2"/><use x="105.8" xlink:href="#m7f0b617ebb" y="200.8"/><use x="54.3" xlink:href="#m7f0b617ebb" y="28"/><use x="262.3" xlink:href="#m7f0b617ebb" y="164.1"/><use x="153.8" xlink:href="#m7f0b617ebb" y="177"/><use x="175.8" xlink:href="#m7f0b617ebb" y="189"/><use x="281.9" xlink:href="#m7f0b617ebb" y="189.7"/><use x="341.2" xlink:href="#m7f0b617ebb" y="130.7"/><use x="319.8" xlink:href="#m7f0b617ebb" y="108.2"/><use x="89.2" xlink:href="#m7f0b617ebb" y="202.1"/><use x="291" xlink:href="#m7f0b617ebb" y="149.9"/><use x="255.7" xlink:href="#m7f0b617ebb" y="131.6"/><use x="209.5" xlink:href="#m7f0b617ebb" y="180"/><use x="311.7" xlink:href="#m7f0b617ebb" y="146.5"/><use x="277.4" xlink:href="#m7f0b617ebb" y="134"/><use x="76.5" xlink:href="#m7f0b617ebb" y="194.5"/><use x="148.4" xlink:href="#m7f0b617ebb" y="180.1"/><use x="173.6" xlink:href="#m7f0b617ebb" y="173.7"/><use x="48.4" xlink:href="#m7f0b617ebb" y="35.9"/><use x="230" xlink:href="#m7f0b617ebb" y="164"/><use x="255.9" xlink:href="#m7f0b617ebb" y="127.8"/><use x="159.6" xlink:href="#m7f0b617ebb" y="190.5"/><use x="168.8" xlink:href="#m7f0b617ebb" y="181.3"/><use x="192.8" xlink:href="#m7f0b617ebb" y="163.9"/><use x="225" xlink:href="#m7f0b617ebb" y="162.3"/><use x="89.9" xlink:href="#m7f0b617ebb" y="196.4"/><use x="352.3" xlink:href="#m7f0b617ebb" y="67.4"/><use x="202.5" xlink:href="#m7f0b617ebb" y="195.8"/><use x="198.2" xlink:href="#m7f0b617ebb" y="199.2"/><use x="105" xlink:href="#m7f0b617ebb" y="183.6"/><use x="138.3" xlink:href="#m7f0b617ebb" y="193.1"/><use x="291.2" xlink:href="#m7f0b617ebb" y="86.4"/><use x="137.9" xlink:href="#m7f0b617ebb" y="194.3"/><use x="260.3" xlink:href="#m7f0b617ebb" y="144.6"/><use x="131.2" xlink:href="#m7f0b617ebb" y="187"/><use x="325.9" xlink:href="#m7f0b617ebb" y="197.1"/><use x="139" xlink:href="#m7f0b617ebb" y="166.4"/><use x="319" xlink:href="#m7f0b617ebb" y="144.1"/><use x="336.3" xlink:href="#m7f0b617ebb" y="102.7"/><use x="99.5" xlink:href="#m7f0b617ebb" y="197.2"/><use x="157.5" xlink:href="#m7f0b617ebb" y="191.4"/><use x="255.8" xlink:href="#m7f0b617ebb" y="130.5"/><use x="328.6" xlink:href="#m7f0b617ebb" y="139.6"/><use x="92.2" xlink:href="#m7f0b617ebb" y="198.5"/><use x="78.5" xlink:href="#m7f0b617ebb" y="197.2"/><use x="173.4" xlink:href="#m7f0b617ebb" y="196.6"/><use x="344.9" xlink:href="#m7f0b617ebb" y="74"/><use x="60.8" xlink:href="#m7f0b617ebb" y="203.1"/><use x="105" xlink:href="#m7f0b617ebb" y="194.3"/><use x="233.4" xlink:href="#m7f0b617ebb" y="190"/><use x="74.7" xlink:href="#m7f0b617ebb" y="195.4"/><use x="144.4" xlink:href="#m7f0b617ebb" y="193.1"/><use x="233.8" xlink:href="#m7f0b617ebb" y="173.8"/><use x="109.4" xlink:href="#m7f0b617ebb" y="186.2"/><use x="258.7" xlink:href="#m7f0b617ebb" y="116.5"/><use x="122.6" xlink:href="#m7f0b617ebb" y="182.1"/><use x="255.2" xlink:href="#m7f0b617ebb" y="200.1"/><use x="196" xlink:href="#m7f0b617ebb" y="174.6"/><use x="127.4" xlink:href="#m7f0b617ebb" y="195.7"/><use x="134.2" xlink:href="#m7f0b617ebb" y="171.3"/><use x="323.7" xlink:href="#m7f0b617ebb" y="158.6"/><use x="132.1" xlink:href="#m7f0b617ebb" y="184.2"/><use x="304.1" xlink:href="#m7f0b617ebb" y="145.6"/><use x="107.9" xlink:href="#m7f0b617ebb" y="182.5"/><use x="148.8" xlink:href="#m7f0b617ebb" y="173.2"/><use x="336.3" xlink:href="#m7f0b617ebb" y="160.5"/><use x="202.2" xlink:href="#m7f0b617ebb" y="137.1"/><use x="170.9" xlink:href="#m7f0b617ebb" y="186.4"/><use x="56.4" xlink:href="#m7f0b617ebb" y="204"/><use x="237.4" xlink:href="#m7f0b617ebb" y="170.2"/><use x="153.9" xlink:href="#m7f0b617ebb" y="185.8"/><use x="132.4" xlink:href="#m7f0b617ebb" y="200"/><use x="67.6" xlink:href="#m7f0b617ebb" y="196.6"/><use x="149.9" xlink:href="#m7f0b617ebb" y="183.1"/><use x="68.7" xlink:href="#m7f0b617ebb" y="197.2"/><use x="49.3" xlink:href="#m7f0b617ebb" y="34.7"/><use x="60.6" xlink:href="#m7f0b617ebb" y="201.7"/><use x="154.3" xlink:href="#m7f0b617ebb" y="148"/><use x="76.1" xlink:href="#m7f0b617ebb" y="204.4"/><use x="206.5" xlink:href="#m7f0b617ebb" y="178.3"/><use x="113.8" xlink:href="#m7f0b617ebb" y="209.5"/><use x="350" xlink:href="#m7f0b617ebb" y="168"/><use x="129.5" xlink:href="#m7f0b617ebb" y="158"/><use x="255.2" xlink:href="#m7f0b617ebb" y="122.9"/><use x="208.3" xlink:href="#m7f0b617ebb" y="157.5"/><use x="182" xlink:href="#m7f0b617ebb" y="182.3"/><use x="249.5" xlink:href="#m7f0b617ebb" y="147.6"/><use x="89.2" xlink:href="#m7f0b617ebb" y="181.1"/><use x="287.9" xlink:href="#m7f0b617ebb" y="180.6"/><use x="90.1" xlink:href="#m7f0b617ebb" y="189.7"/><use x="240.8" xlink:href="#m7f0b617ebb" y="140.3"/><use x="113.2" xlink:href="#m7f0b617ebb" y="175.7"/><use x="55.2" xlink:href="#m7f0b617ebb" y="37.7"/><use x="239" xlink:href="#m7f0b617ebb" y="151.6"/><use x="243.6" xlink:href="#m7f0b617ebb" y="122.2"/><use x="243.6" xlink:href="#m7f0b617ebb" y="187"/><use x="311.3" xlink:href="#m7f0b617ebb" y="145.7"/><use x="150.8" xlink:href="#m7f0b617ebb" y="195.3"/><use x="173.2" xlink:href="#m7f0b617ebb" y="181"/><use x="233.9" xlink:href="#m7f0b617ebb" y="152.5"/><use x="334.5" xlink:href="#m7f0b617ebb" y="140.6"/><use x="94.4" xlink:href="#m7f0b617ebb" y="200.1"/><use x="104.2" xlink:href="#m7f0b617ebb" y="189.5"/><use x="95.1" xlink:href="#m7f0b617ebb" y="181.7"/><use x="265.1" xlink:href="#m7f0b617ebb" y="164.1"/><use x="330.6" xlink:href="#m7f0b617ebb" y="181.4"/><use x="176.8" xlink:href="#m7f0b617ebb" y="173.2"/><use x="214.1" xlink:href="#m7f0b617ebb" y="199"/><use x="146.3" xlink:href="#m7f0b617ebb" y="188.2"/><use x="97" xlink:href="#m7f0b617ebb" y="189.1"/><use x="262.1" xlink:href="#m7f0b617ebb" y="187.2"/><use x="270.4" xlink:href="#m7f0b617ebb" y="166.1"/><use x="340.4" xlink:href="#m7f0b617ebb" y="88.9"/><use x="160.9" xlink:href="#m7f0b617ebb" y="183.6"/><use x="266.3" xlink:href="#m7f0b617ebb" y="114.4"/><use x="348.3" xlink:href="#m7f0b617ebb" y="120.6"/><use x="81.8" xlink:href="#m7f0b617ebb" y="209.5"/><use x="278.9" xlink:href="#m7f0b617ebb" y="178.8"/><use x="96.1" xlink:href="#m7f0b617ebb" y="188.4"/><use x="296.6" xlink:href="#m7f0b617ebb" y="121.1"/><use x="216.8" xlink:href="#m7f0b617ebb" y="161.9"/><use x="225.2" xlink:href="#m7f0b617ebb" y="146.1"/><use x="333.1" xlink:href="#m7f0b617ebb" y="134.9"/><use x="180.3" xlink:href="#m7f0b617ebb" y="201.6"/><use x="197" xlink:href="#m7f0b617ebb" y="161.5"/><use x="250.9" xlink:href="#m7f0b617ebb" y="157.2"/><use x="239.9" xlink:href="#m7f0b617ebb" y="147.4"/><use x="87.8" xlink:href="#m7f0b617ebb" y="196.5"/><use x="155.8" xlink:href="#m7f0b617ebb" y="170.4"/><use x="241.4" xlink:href="#m7f0b617ebb" y="158.3"/><use x="327.8" xlink:href="#m7f0b617ebb" y="161.8"/><use x="75.9" xlink:href="#m7f0b617ebb" y="199.5"/><use x="69.8" xlink:href="#m7f0b617ebb" y="196.9"/><use x="174.1" xlink:href="#m7f0b617ebb" y="167.9"/><use x="113.8" xlink:href="#m7f0b617ebb" y="169.4"/><use x="206.3" xlink:href="#m7f0b617ebb" y="152.6"/><use x="218.1" xlink:href="#m7f0b617ebb" y="184.5"/><use x="192.3" xlink:href="#m7f0b617ebb" y="174.5"/><use x="113.8" xlink:href="#m7f0b617ebb" y="188.1"/><use x="121" xlink:href="#m7f0b617ebb" y="186.6"/><use x="114.1" xlink:href="#m7f0b617ebb" y="193.1"/><use x="247.7" xlink:href="#m7f0b617ebb" y="197.2"/><use x="305.7" xlink:href="#m7f0b617ebb" y="190.7"/><use x="331.3" xlink:href="#m7f0b617ebb" y="80.8"/><use x="291.7" xlink:href="#m7f0b617ebb" y="129.9"/><use x="255.3" xlink:href="#m7f0b617ebb" y="166.2"/><use x="111.2" xlink:href="#m7f0b617ebb" y="181.5"/><use x="273.9" xlink:href="#m7f0b617ebb" y="146.9"/><use x="260.2" xlink:href="#m7f0b617ebb" y="153.2"/><use x="164.3" xlink:href="#m7f0b617ebb" y="186.4"/><use x="306.9" xlink:href="#m7f0b617ebb" y="134.7"/><use x="208.9" xlink:href="#m7f0b617ebb" y="148.6"/><use x="319.9" xlink:href="#m7f0b617ebb" y="99.6"/><use x="297.9" xlink:href="#m7f0b617ebb" y="114.5"/><use x="117.7" xlink:href="#m7f0b617ebb" y="184.1"/><use x="297.9" xlink:href="#m7f0b617ebb" y="179.2"/><use x="90.3" xlink:href="#m7f0b617ebb" y="199.8"/><use x="195" xlink:href="#m7f0b617ebb" y="162.1"/><use x="93.4" xlink:href="#m7f0b617ebb" y="182.1"/><use x="184.6" xlink:href="#m7f0b617ebb" y="172.6"/><use x="250.8" xlink:href="#m7f0b617ebb" y="153"/><use x="288.3" xlink:href="#m7f0b617ebb" y="150.9"/><use x="249.6" xlink:href="#m7f0b617ebb" y="220.8"/><use x="264.7" xlink:href="#m7f0b617ebb" y="196.7"/><use x="318.4" xlink:href="#m7f0b617ebb" y="103.4"/><use x="91.3" xlink:href="#m7f0b617ebb" y="190.5"/><use x="93" xlink:href="#m7f0b617ebb" y="205.5"/><use x="147.3" xlink:href="#m7f0b617ebb" y="177.9"/><use x="57.8" xlink:href="#m7f0b617ebb" y="214"/><use x="257.5" xlink:href="#m7f0b617ebb" y="183.1"/><use x="280.9" xlink:href="#m7f0b617ebb" y="151.1"/><use x="154.7" xlink:href="#m7f0b617ebb" y="174.5"/><use x="235.6" xlink:href="#m7f0b617ebb" y="174.4"/><use x="339.9" xlink:href="#m7f0b617ebb" y="161"/><use x="136.7" xlink:href="#m7f0b617ebb" y="176.7"/><use x="257.1" xlink:href="#m7f0b617ebb" y="147.2"/><use x="61" xlink:href="#m7f0b617ebb" y="209.6"/><use x="67.2" xlink:href="#m7f0b617ebb" y="190.4"/><use x="296" xlink:href="#m7f0b617ebb" y="140.7"/><use x="181" xlink:href="#m7f0b617ebb" y="187.8"/><use x="167.5" xlink:href="#m7f0b617ebb" y="185.6"/><use x="148.8" xlink:href="#m7f0b617ebb" y="189.7"/><use x="187.4" xlink:href="#m7f0b617ebb" y="157.3"/><use x="302.4" xlink:href="#m7f0b617ebb" y="178.1"/><use x="190.2" xlink:href="#m7f0b617ebb" y="164.5"/><use x="176.4" xlink:href="#m7f0b617ebb" y="176.1"/><use x="221.9" xlink:href="#m7f0b617ebb" y="188"/><use x="273.1" xlink:href="#m7f0b617ebb" y="138.7"/><use x="64.9" xlink:href="#m7f0b617ebb" y="207"/><use x="238.1" xlink:href="#m7f0b617ebb" y="191.8"/><use x="237.2" xlink:href="#m7f0b617ebb" y="163.6"/><use x="48.5" xlink:href="#m7f0b617ebb" y="34.9"/><use x="231.6" xlink:href="#m7f0b617ebb" y="129.1"/><use x="60.4" xlink:href="#m7f0b617ebb" y="211.2"/><use x="226.4" xlink:href="#m7f0b617ebb" y="175.9"/><use x="184.6" xlink:href="#m7f0b617ebb" y="158.9"/><use x="155.8" xlink:href="#m7f0b617ebb" y="152.6"/><use x="332.3" xlink:href="#m7f0b617ebb" y="123.8"/><use x="129.5" xlink:href="#m7f0b617ebb" y="183.4"/><use x="133.8" xlink:href="#m7f0b617ebb" y="178.8"/><use x="201.8" xlink:href="#m7f0b617ebb" y="179.1"/><use x="245" xlink:href="#m7f0b617ebb" y="177.2"/><use x="343.5" xlink:href="#m7f0b617ebb" y="64.6"/><use x="59.1" xlink:href="#m7f0b617ebb" y="204.3"/><use x="176.9" xlink:href="#m7f0b617ebb" y="152.9"/><use x="227.2" xlink:href="#m7f0b617ebb" y="155.3"/><use x="270.8" xlink:href="#m7f0b617ebb" y="173.1"/><use x="101.6" xlink:href="#m7f0b617ebb" y="202.9"/><use x="203.5" xlink:href="#m7f0b617ebb" y="191.3"/><use x="200.4" xlink:href="#m7f0b617ebb" y="190.4"/><use x="319.9" xlink:href="#m7f0b617ebb" y="155.9"/><use x="164.6" xlink:href="#m7f0b617ebb" y="164"/><use x="249.9" xlink:href="#m7f0b617ebb" y="180.9"/><use x="62.4" xlink:href="#m7f0b617ebb" y="204.7"/><use x="276.8" xlink:href="#m7f0b617ebb" y="168"/><use x="160.4" xlink:href="#m7f0b617ebb" y="158.4"/><use x="336.7" xlink:href="#m7f0b617ebb" y="174.2"/><use x="153.8" xlink:href="#m7f0b617ebb" y="178"/><use x="256.3" xlink:href="#m7f0b617ebb" y="190.4"/><use x="299.1" xlink:href="#m7f0b617ebb" y="135.9"/><use x="196.1" xlink:href="#m7f0b617ebb" y="145.2"/><use x="347.7" xlink:href="#m7f0b617ebb" y="98.6"/><use x="231.9" xlink:href="#m7f0b617ebb" y="156.5"/><use x="279.3" xlink:href="#m7f0b617ebb" y="134.4"/><use x="256.5" xlink:href="#m7f0b617ebb" y="162.6"/><use x="331.9" xlink:href="#m7f0b617ebb" y="120.9"/><use x="337.2" xlink:href="#m7f0b617ebb" y="82.7"/><use x="349.5" xlink:href="#m7f0b617ebb" y="96.6"/><use x="86.5" xlink:href="#m7f0b617ebb" y="190.9"/><use x="345.4" xlink:href="#m7f0b617ebb" y="163.3"/><use x="117.9" xlink:href="#m7f0b617ebb" y="194.9"/><use x="104.8" xlink:href="#m7f0b617ebb" y="198.9"/><use x="203.1" xlink:href="#m7f0b617ebb" y="151.4"/><use x="209.6" xlink:href="#m7f0b617ebb" y="179.8"/><use x="134.2" xlink:href="#m7f0b617ebb" y="164.7"/><use x="142.5" xlink:href="#m7f0b617ebb" y="168.9"/><use x="142.5" xlink:href="#m7f0b617ebb" y="180"/><use x="129.2" xlink:href="#m7f0b617ebb" y="185.4"/><use x="228.8" xlink:href="#m7f0b617ebb" y="159.2"/><use x="114.2" xlink:href="#m7f0b617ebb" y="203.4"/><use x="170.6" xlink:href="#m7f0b617ebb" y="186.7"/><use x="136" xlink:href="#m7f0b617ebb" y="191.4"/></g></g><path d="M33 230.6V13.2" fill="none" stroke="#fff" stroke-linecap="square" stroke-width="1.3" id="patch_3"/><path d="M367.7 230.6V13.2" fill="none" stroke="#fff" stroke-linecap="square" stroke-width="1.3" id="patch_4"/><path d="M33 230.6h334.7" fill="none" stroke="#fff" stroke-linecap="square" stroke-width="1.3" id="patch_5"/><path d="M33 13.2h334.7" fill="none" stroke="#fff" stroke-linecap="square" stroke-width="1.3" id="patch_6"/></g></g><defs><clipPath id="peefc6e8d8b"><path d="M32.9 13.2h334.8v217.4H32.9z"/></clipPath></defs></svg>