<svg height="364.8" viewBox="0 0 396.5 273.6" width="528.7" xmlns="http://www.w3.org/2000/svg" xmlns:xlink="http://www.w3.org/1999/xlink"><defs><style>*{stroke-linecap:butt;stroke-linejoin:round}</style></defs><g id="figure_1"><path d="M0 273.6h396.5V0H0z" fill="#fff" id="patch_1"/><g id="axes_1"><path d="M48.5 230.6h334.8V13.2H48.5z" fill="#eaeaf2" id="patch_2"/><g id="matplotlib.axis_1"><g id="xtick_1"><path clip-path="url(#p797a620427)" d="M63.7 230.6V13.2" fill="none" stroke="#fff" stroke-linecap="round" id="line2d_1"/><g id="text_1"><defs><path d="M10.6 35.5h62.6v-8.3H10.6z" id="DejaVuSans-8722"/><path d="M12.4 8.3h16.1v55.6L11 60.4v9l17.4 3.5h9.9V8.3h16V0H12.5z" id="DejaVuSans-49"/><path d="M10.7 12.4H21V0H10.7z" id="DejaVuSans-46"/><path d="M31.8 66.4q-7.6 0-11.5-7.5-3.8-7.5-3.8-22.5t3.8-22.5q3.9-7.5 11.5-7.5 7.7 0 11.5 7.5T47 36.4q0 15-3.8 22.5t-11.5 7.5zm0 7.8q12.2 0 18.7-9.7T57 36.4Q57 18 50.5 8.3 44-1.4 31.8-1.4 19.5-1.4 13 8.3q-6.5 9.7-6.5 28 0 18.5 6.5 28.2 6.4 9.7 18.7 9.7z" id="DejaVuSans-48"/></defs><g transform="matrix(.11 0 0 -.11 46.9 248.5)" fill="#262626"><use xlink:href="#DejaVuSans-8722"/><use x="83.8" xlink:href="#DejaVuSans-49"/><use x="147.4" xlink:href="#DejaVuSans-46"/><use x="179.2" xlink:href="#DejaVuSans-48"/><use x="242.8" xlink:href="#DejaVuSans-48"/></g></g></g><g id="xtick_2"><path clip-path="url(#p797a620427)" d="M101.8 230.6V13.2" fill="none" stroke="#fff" stroke-linecap="round" id="line2d_2"/><g id="text_2"><defs><path d="M8.2 73h46.9v-4.3L28.6 0H18.3l25 64.6H8.1z" id="DejaVuSans-55"/><path d="M10.8 73h38.7v-8.4H19.8V46.7q2.2.8 4.3 1.1 2.2.4 4.3.4 12.2 0 19.4-6.7 7-6.7 7-18.1 0-11.8-7.2-18.3-7.4-6.5-20.7-6.5-4.6 0-9.4.8-4.7.7-9.8 2.3v10q4.4-2.5 9.1-3.6 4.7-1.2 9.9-1.2 8.5 0 13.4 4.4 5 4.5 5 12 0 7.7-5 12.1Q35 40 26.7 40q-4 0-7.9-.9-4-.9-8-2.7z" id="DejaVuSans-53"/></defs><g transform="matrix(.11 0 0 -.11 85 248.5)" fill="#262626"><use xlink:href="#DejaVuSans-8722"/><use x="83.8" xlink:href="#DejaVuSans-48"/><use x="147.4" xlink:href="#DejaVuSans-46"/><use x="179.2" xlink:href="#DejaVuSans-55"/><use x="242.8" xlink:href="#DejaVuSans-53"/></g></g></g><g id="xtick_3"><path clip-path="url(#p797a620427)" d="M139.8 230.6V13.2" fill="none" stroke="#fff" stroke-linecap="round" id="line2d_3"/><g transform="matrix(.11 0 0 -.11 123 248.5)" fill="#262626" id="text_3"><use xlink:href="#DejaVuSans-8722"/><use x="83.8" xlink:href="#DejaVuSans-48"/><use x="147.4" xlink:href="#DejaVuSans-46"/><use x="179.2" xlink:href="#DejaVuSans-53"/><use x="242.8" xlink:href="#DejaVuSans-48"/></g></g><g id="xtick_4"><path clip-path="url(#p797a620427)" d="M177.9 230.6V13.2" fill="none" stroke="#fff" stroke-linecap="round" id="line2d_4"/><g id="text_4"><defs><path d="M19.2 8.3h34.4V0H7.3v8.3l15.3 15.6q9.7 9.8 12.2 12.6 4.7 5.3 6.6 9 2 3.7 2 7.3 0 5.8-4.2 9.5-4 3.6-10.6 3.6-4.6 0-9.8-1.6-5.1-1.6-11-4.9v10q6 2.4 11.1 3.6 5.2 1.2 9.5 1.2 11.4 0 18-5.7 6.8-5.6 6.8-15 0-4.6-1.7-8.6-1.6-4-6-9.5l-7.9-8.2L19.2 8.3z" id="DejaVuSans-50"/></defs><g transform="matrix(.11 0 0 -.11 161 248.5)" fill="#262626"><use xlink:href="#DejaVuSans-8722"/><use x="83.8" xlink:href="#DejaVuSans-48"/><use x="147.4" xlink:href="#DejaVuSans-46"/><use x="179.2" xlink:href="#DejaVuSans-50"/><use x="242.8" xlink:href="#DejaVuSans-53"/></g></g></g><g id="xtick_5"><path clip-path="url(#p797a620427)" d="M216 230.6V13.2" fill="none" stroke="#fff" stroke-linecap="round" id="line2d_5"/><g transform="matrix(.11 0 0 -.11 203.7 248.5)" fill="#262626" id="text_5"><use xlink:href="#DejaVuSans-48"/><use x="63.6" xlink:href="#DejaVuSans-46"/><use x="95.4" xlink:href="#DejaVuSans-48"/><use x="159" xlink:href="#DejaVuSans-48"/></g></g><g id="xtick_6"><path clip-path="url(#p797a620427)" d="M254 230.6V13.2" fill="none" stroke="#fff" stroke-linecap="round" id="line2d_6"/><g transform="matrix(.11 0 0 -.11 241.7 248.5)" fill="#262626" id="text_6"><use xlink:href="#DejaVuSans-48"/><use x="63.6" xlink:href="#DejaVuSans-46"/><use x="95.4" xlink:href="#DejaVuSans-50"/><use x="159" xlink:href="#DejaVuSans-53"/></g></g><g id="xtick_7"><path clip-path="url(#p797a620427)" d="M292 230.6V13.2" fill="none" stroke="#fff" stroke-linecap="round" id="line2d_7"/><g transform="matrix(.11 0 0 -.11 279.8 248.5)" fill="#262626" id="text_7"><use xlink:href="#DejaVuSans-48"/><use x="63.6" xlink:href="#DejaVuSans-46"/><use x="95.4" xlink:href="#DejaVuSans-53"/><use x="159" xlink:href="#DejaVuSans-48"/></g></g><g id="xtick_8"><path clip-path="url(#p797a620427)" d="M330 230.6V13.2" fill="none" stroke="#fff" stroke-linecap="round" id="line2d_8"/><g transform="matrix(.11 0 0 -.11 317.8 248.5)" fill="#262626" id="text_8"><use xlink:href="#DejaVuSans-48"/><use x="63.6" xlink:href="#DejaVuSans-46"/><use x="95.4" xlink:href="#DejaVuSans-55"/><use x="159" xlink:href="#DejaVuSans-53"/></g></g><g id="xtick_9"><path clip-path="url(#p797a620427)" d="M368.1 230.6V13.2" fill="none" stroke="#fff" stroke-linecap="round" id="line2d_9"/><g transform="matrix(.11 0 0 -.11 355.9 248.5)" fill="#262626" id="text_9"><use xlink:href="#DejaVuSans-49"/><use x="63.6" xlink:href="#DejaVuSans-46"/><use x="95.4" xlink:href="#DejaVuSans-48"/><use x="159" xlink:href="#DejaVuSans-48"/></g></g><g id="text_10"><defs><path d="M54.9 54.7L35 28 56 0H45.3l-16 21.5L13.6 0H2.9L24 28.6l-19.4 26h10.6l14.5-19.4 14.5 19.5z" id="DejaVuSans-120"/></defs><use xlink:href="#DejaVuSans-120" transform="matrix(.12 0 0 -.12 212.4 263.9)" fill="#262626"/></g></g><g id="matplotlib.axis_2"><g id="ytick_1"><path clip-path="url(#p797a620427)" d="M48.5 226h334.8" fill="none" stroke="#fff" stroke-linecap="round" id="line2d_10"/><g id="text_11"><defs><path d="M33 40.4q-6.6 0-10.5-4.6-3.9-4.5-3.9-12.4T22.5 11Q26.4 6.4 33 6.4q6.7 0 10.5 4.6 4 4.5 4 12.4t-4 12.4q-3.8 4.6-10.5 4.6zm19.6 30.9v-9Q48.9 64.1 45 65q-3.8 1-7.5 1-9.8 0-15-6.7-5-6.6-5.8-19.9 2.9 4.3 7.2 6.5 4.4 2.3 9.6 2.3 11 0 17.4-6.7 6.3-6.6 6.3-18.1 0-11.2-6.6-18Q44-1.4 33-1.4q-12.6 0-19.3 9.7Q7 18 7 36.3 7 53.8 15.2 64q8.2 10.3 22 10.3 3.7 0 7.5-.7 3.8-.8 7.9-2.2z" id="DejaVuSans-54"/></defs><g transform="matrix(.11 0 0 -.11 22.8 230.1)" fill="#262626"><use xlink:href="#DejaVuSans-8722"/><use x="83.8" xlink:href="#DejaVuSans-54"/></g></g></g><g id="ytick_2"><path clip-path="url(#p797a620427)" d="M48.5 196.2h334.8" fill="none" stroke="#fff" stroke-linecap="round" id="line2d_11"/><g id="text_12"><defs><path d="M37.8 64.3l-25-39h25zM35.2 73h12.4V25.4H58v-8.2H47.6V0h-9.8v17.2h-33v9.5z" id="DejaVuSans-52"/></defs><g transform="matrix(.11 0 0 -.11 22.8 200.4)" fill="#262626"><use xlink:href="#DejaVuSans-8722"/><use x="83.8" xlink:href="#DejaVuSans-52"/></g></g></g><g id="ytick_3"><path clip-path="url(#p797a620427)" d="M48.5 166.5h334.8" fill="none" stroke="#fff" stroke-linecap="round" id="line2d_12"/><g transform="matrix(.11 0 0 -.11 22.8 170.7)" fill="#262626" id="text_13"><use xlink:href="#DejaVuSans-8722"/><use x="83.8" xlink:href="#DejaVuSans-50"/></g></g><g id="ytick_4"><path clip-path="url(#p797a620427)" d="M48.5 136.8h334.8" fill="none" stroke="#fff" stroke-linecap="round" id="line2d_13"/><use xlink:href="#DejaVuSans-48" transform="matrix(.11 0 0 -.11 32 141)" fill="#262626" id="text_14"/></g><g id="ytick_5"><path clip-path="url(#p797a620427)" d="M48.5 107.1h334.8" fill="none" stroke="#fff" stroke-linecap="round" id="line2d_14"/><use xlink:href="#DejaVuSans-50" transform="matrix(.11 0 0 -.11 32 111.3)" fill="#262626" id="text_15"/></g><g id="ytick_6"><path clip-path="url(#p797a620427)" d="M48.5 77.4h334.8" fill="none" stroke="#fff" stroke-linecap="round" id="line2d_15"/><use xlink:href="#DejaVuSans-52" transform="matrix(.11 0 0 -.11 32 81.6)" fill="#262626" id="text_16"/></g><g id="ytick_7"><path clip-path="url(#p797a620427)" d="M48.5 47.7h334.8" fill="none" stroke="#fff" stroke-linecap="round" id="line2d_16"/><use xlink:href="#DejaVuSans-54" transform="matrix(.11 0 0 -.11 32 52)" fill="#262626" id="text_17"/></g><g id="ytick_8"><path clip-path="url(#p797a620427)" d="M48.5 18h334.8" fill="none" stroke="#fff" stroke-linecap="round" id="line2d_17"/><g id="text_18"><defs><path d="M31.8 34.6q-7 0-11-3.7-4.1-3.8-4.1-10.4 0-6.6 4-10.3 4-3.8 11-3.8 7.1 0 11.2 3.8 4 3.8 4 10.3 0 6.6-4 10.4-4 3.7-11.1 3.7zm-9.9 4.2q-6.3 1.6-9.9 6Q8.5 49 8.5 55.2q0 8.8 6.2 13.8 6.3 5.1 17 5.1 11 0 17.2-5Q55 64 55 55.2q0-6.2-3.6-10.6-3.5-4.3-9.8-5.9 7.1-1.6 11.1-6.5 4-4.8 4-11.8 0-10.6-6.5-16.3-6.5-5.6-18.5-5.6T13.2 4.2Q6.8 10 6.8 20.5q0 7 4 11.8 4 4.9 11.1 6.5zm-3.6 15.6q0-5.7 3.5-8.8 3.6-3.2 10-3.2 6.3 0 10 3.2 3.5 3.1 3.5 8.8 0 5.7-3.6 8.8-3.6 3.2-10 3.2-6.3 0-9.9-3.2-3.5-3.1-3.5-8.8z" id="DejaVuSans-56"/></defs><use xlink:href="#DejaVuSans-56" transform="matrix(.11 0 0 -.11 32 22.2)" fill="#262626"/></g></g><g id="text_19"><defs><path d="M32.2-5q-3.8-9.8-7.5-12.8-3.6-3-9.6-3H7.9v7.5h5.3q3.7 0 5.7 1.8 2.1 1.7 4.6 8.3l1.6 4L3 54.8h9.5l17-42.8 17.2 42.8h9.5z" id="DejaVuSans-121"/></defs><use xlink:href="#DejaVuSans-121" transform="matrix(0 -.12 -.12 0 16.3 125.5)" fill="#262626"/></g></g><g id="PolyCollection_1"><defs><path d="M63.7-161.1v108.3l3.1-.8 3.1-1.5 3 .4 3.1-.7 3.1-1.4 3 2.4 3.2-2 3-1 3.1.3 3 .4 3.2-1.5 3 .1 3.1-.5 3-.3 3.2-.4 3-.4 3.1-.7 3-1.8 3.2.1 3 1.3 3.1-2h3l3.2-.3 3 1.6 3.1-1.7 3-.6h3.2l3-.3 3.1-.4 3-1.4 3.2-.6 3-.3 3.1-1 3 2 3.2-1.2 3-1 3.1-1h3l3.1-2.3 3.1.8 3.1-.3 3 .4 3.1-1 3.1-.5 3.1 1.4 3-3.1 3.1.3 3.1-.3 3-.5 3.2.2 3-.7 3.1-.6 3 2 3.2-2.7 3 .2 3.1-.2 3-1.5 3.2.9 3-.1 3.1-.8 3 .3 3.2-1 3-.6 3.1.2 3-3 3.2 2.2 3-1.9 3.1.6 3-.3 3.2-1 3-.5h3.1l3 .2 3.2-.4 3-1 3.1-.3 3 .3h3.1l3.1-2.4 3.1-.3 3-.8 3.1 2.4L319-86l3.1-1.7 3-.2 3.1-.3 3.1-.4 3-.9 3.2.5 3 1 3.1-1 3-2.8 3.2 1 3-2.5 3.1 1.6h3l3.2.1 3 .3 3.1-1.8v-107.3h0l-3 .8-3.1-.6-3.1 2-3-2.2-3.2 1-3 .5-3.1 1.5-3 .5-3.2-1.2-3 .5-3.1 1.8-3-.7-3.2.4-3 .6-3.1-.3-3 1.8-3.2-.5-3 1-3.1.7-3 .1-3.2 1.1h-3l-3.1-1-3 1.6-3.1.5-3.1.8-3.1-.1-3 .7H279l-3.1 1.3-3 .3-3.2-.5-3 .3-3.1 1.7-3-.1-3.2-1-3 1.7-3.1 1.4-3-.4-3.2-.7-3 1.5-3.1-.4-3 .2-3.2 1.4-3 1-3.1-.6-3 .3h-3.2l-3 .6-3.1.8-3 .3-3.2.3-3 1.5-3.1-.3-3-1-3.2 1.6h-3l-3.1 2-3-2.2-3.2 1.2-3 .2-3.1-.2-3 1.7-3.1.3-3.1.4-3.1.2-3-.6-3.1 2.3-3.1-1-3 3-3.2-2.3-3 1.3-3.1.2-3 .8-3.2.4-3 .9h-3.1l-3-1.8-3.2 2.4-3 .6-3.1.2h-3l-3.2.2-3-1.2-3.1 2.6-3 .7-3.2.7-3-1.3-3.1.4-3 1-3.2 2.1-3-1.8-3.1 1-3 .1-3.2.7-3 .3-3.1.9-3 1.1-3.2-.6z" id="m1af04705ba" stroke="#fff" stroke-opacity=".2"/></defs><g clip-path="url(#p797a620427)"><use xlink:href="#m1af04705ba" y="273.6" fill="#4c72b0" fill-opacity=".2" stroke="#fff" stroke-opacity=".2"/></g></g><g id="line2d_18"><defs><path d="M0 1.5a1.5 1.5 0 100-3 1.5 1.5 0 000 3z" id="m40f04e81d5" stroke="#4c72b0"/></defs><g clip-path="url(#p797a620427)" fill="#4c72b0" stroke="#4c72b0"><use x="346.7" xlink:href="#m40f04e81d5" y="144.2"/><use x="160" xlink:href="#m40f04e81d5" y="168.9"/><use x="119.7" xlink:href="#m40f04e81d5" y="170.7"/><use x="126" xlink:href="#m40f04e81d5" y="167.3"/><use x="236.5" xlink:href="#m40f04e81d5" y="143"/><use x="245" xlink:href="#m40f04e81d5" y="123.9"/><use x="357.3" xlink:href="#m40f04e81d5" y="75.6"/><use x="262.6" xlink:href="#m40f04e81d5" y="125.4"/><use x="291.7" xlink:href="#m40f04e81d5" y="174.2"/><use x="262.7" xlink:href="#m40f04e81d5" y="173.9"/><use x="291.3" xlink:href="#m40f04e81d5" y="129.7"/><use x="356.3" xlink:href="#m40f04e81d5" y="111.4"/><use x="66.3" xlink:href="#m40f04e81d5" y="34.6"/><use x="96.1" xlink:href="#m40f04e81d5" y="172.2"/><use x="154.7" xlink:href="#m40f04e81d5" y="166.5"/><use x="263.5" xlink:href="#m40f04e81d5" y="187.6"/><use x="310.2" xlink:href="#m40f04e81d5" y="131.4"/><use x="329.2" xlink:href="#m40f04e81d5" y="114.3"/><use x="357.4" xlink:href="#m40f04e81d5" y="53.8"/><use x="284" xlink:href="#m40f04e81d5" y="90.3"/><use x="259.3" xlink:href="#m40f04e81d5" y="148.1"/><use x="282.1" xlink:href="#m40f04e81d5" y="121.3"/><use x="206.1" xlink:href="#m40f04e81d5" y="151.8"/><use x="162.8" xlink:href="#m40f04e81d5" y="155.5"/><use x="197.6" xlink:href="#m40f04e81d5" y="169.2"/><use x="285.8" xlink:href="#m40f04e81d5" y="173.3"/><use x="366.3" xlink:href="#m40f04e81d5" y="100.6"/><use x="269.8" xlink:href="#m40f04e81d5" y="132.7"/><use x="304.4" xlink:href="#m40f04e81d5" y="186.1"/><use x="115.8" xlink:href="#m40f04e81d5" y="167.3"/><use x="71.9" xlink:href="#m40f04e81d5" y="185"/><use x="307.4" xlink:href="#m40f04e81d5" y="139.8"/><use x="338.8" xlink:href="#m40f04e81d5" y="114.1"/><use x="71.3" xlink:href="#m40f04e81d5" y="34.9"/><use x="213.4" xlink:href="#m40f04e81d5" y="157.4"/><use x="223.9" xlink:href="#m40f04e81d5" y="141.3"/><use x="245.3" xlink:href="#m40f04e81d5" y="165"/><use x="79.6" xlink:href="#m40f04e81d5" y="169.9"/><use x="336.2" xlink:href="#m40f04e81d5" y="185.8"/><use x="285.4" xlink:href="#m40f04e81d5" y="159.5"/><use x="312.8" xlink:href="#m40f04e81d5" y="114.3"/><use x="216" xlink:href="#m40f04e81d5" y="175.1"/><use x="310.3" xlink:href="#m40f04e81d5" y="120.6"/><use x="93" xlink:href="#m40f04e81d5" y="176.9"/><use x="130.4" xlink:href="#m40f04e81d5" y="174.2"/><use x="142.5" xlink:href="#m40f04e81d5" y="165"/><use x="206.2" xlink:href="#m40f04e81d5" y="158"/><use x="203.6" xlink:href="#m40f04e81d5" y="148.2"/><use x="279.7" xlink:href="#m40f04e81d5" y="126.3"/><use x="117.9" xlink:href="#m40f04e81d5" y="166.4"/><use x="225.5" xlink:href="#m40f04e81d5" y="148.5"/><use x="114.8" xlink:href="#m40f04e81d5" y="173.7"/><use x="297.7" xlink:href="#m40f04e81d5" y="154.2"/><use x="346.2" xlink:href="#m40f04e81d5" y="119.9"/><use x="249.3" xlink:href="#m40f04e81d5" y="154.8"/><use x="109.5" xlink:href="#m40f04e81d5" y="169.5"/><use x="212.8" xlink:href="#m40f04e81d5" y="165.6"/><use x="178.6" xlink:href="#m40f04e81d5" y="159.9"/><use x="322" xlink:href="#m40f04e81d5" y="188.8"/><use x="341.1" xlink:href="#m40f04e81d5" y="79.7"/><use x="180.6" xlink:href="#m40f04e81d5" y="140.8"/><use x="159.8" xlink:href="#m40f04e81d5" y="157.2"/><use x="236.7" xlink:href="#m40f04e81d5" y="152.2"/><use x="120.9" xlink:href="#m40f04e81d5" y="163.4"/><use x="102" xlink:href="#m40f04e81d5" y="173.3"/><use x="273" xlink:href="#m40f04e81d5" y="181"/><use x="307.1" xlink:href="#m40f04e81d5" y="159.9"/><use x="238.3" xlink:href="#m40f04e81d5" y="145.9"/><use x="360" xlink:href="#m40f04e81d5" y="118.6"/><use x="256.7" xlink:href="#m40f04e81d5" y="153"/><use x="334.2" xlink:href="#m40f04e81d5" y="149.3"/><use x="214.5" xlink:href="#m40f04e81d5" y="141"/><use x="170.8" xlink:href="#m40f04e81d5" y="167.4"/><use x="281.1" xlink:href="#m40f04e81d5" y="117.6"/><use x="217.1" xlink:href="#m40f04e81d5" y="140.2"/><use x="132.4" xlink:href="#m40f04e81d5" y="168.5"/><use x="138.3" xlink:href="#m40f04e81d5" y="146.3"/><use x="305" xlink:href="#m40f04e81d5" y="119.1"/><use x="214.5" xlink:href="#m40f04e81d5" y="130.1"/><use x="342.3" xlink:href="#m40f04e81d5" y="84"/><use x="351.5" xlink:href="#m40f04e81d5" y="152.8"/><use x="226" xlink:href="#m40f04e81d5" y="155"/><use x="140.6" xlink:href="#m40f04e81d5" y="182.2"/><use x="283.2" xlink:href="#m40f04e81d5" y="124"/><use x="175.6" xlink:href="#m40f04e81d5" y="156.3"/><use x="215.5" xlink:href="#m40f04e81d5" y="171.6"/><use x="132.7" xlink:href="#m40f04e81d5" y="172.2"/><use x="171.4" xlink:href="#m40f04e81d5" y="159"/><use x="261.8" xlink:href="#m40f04e81d5" y="108.4"/><use x="159" xlink:href="#m40f04e81d5" y="172.7"/><use x="297.7" xlink:href="#m40f04e81d5" y="151.5"/><use x="301.7" xlink:href="#m40f04e81d5" y="153.9"/><use x="323.2" xlink:href="#m40f04e81d5" y="94"/><use x="352.9" xlink:href="#m40f04e81d5" y="106.6"/><use x="96.4" xlink:href="#m40f04e81d5" y="184.4"/><use x="340.9" xlink:href="#m40f04e81d5" y="120.4"/><use x="166" xlink:href="#m40f04e81d5" y="155"/><use x="315.3" xlink:href="#m40f04e81d5" y="116.7"/><use x="337.1" xlink:href="#m40f04e81d5" y="120.3"/><use x="76.7" xlink:href="#m40f04e81d5" y="178.2"/><use x="123.3" xlink:href="#m40f04e81d5" y="179.9"/><use x="153.4" xlink:href="#m40f04e81d5" y="192.9"/><use x="254.6" xlink:href="#m40f04e81d5" y="132"/><use x="90" xlink:href="#m40f04e81d5" y="175.4"/><use x="107.3" xlink:href="#m40f04e81d5" y="163.5"/><use x="220.7" xlink:href="#m40f04e81d5" y="176.6"/><use x="273.6" xlink:href="#m40f04e81d5" y="116.8"/><use x="324.5" xlink:href="#m40f04e81d5" y="68"/><use x="260.8" xlink:href="#m40f04e81d5" y="147.7"/><use x="240.8" xlink:href="#m40f04e81d5" y="163.4"/><use x="280.2" xlink:href="#m40f04e81d5" y="123.8"/><use x="140.6" xlink:href="#m40f04e81d5" y="172.3"/><use x="337.7" xlink:href="#m40f04e81d5" y="149.5"/><use x="198.4" xlink:href="#m40f04e81d5" y="148.1"/><use x="70" xlink:href="#m40f04e81d5" y="29.6"/><use x="355.8" xlink:href="#m40f04e81d5" y="117.4"/><use x="262.3" xlink:href="#m40f04e81d5" y="125.1"/><use x="219.9" xlink:href="#m40f04e81d5" y="151.7"/><use x="271.4" xlink:href="#m40f04e81d5" y="156.2"/><use x="212.7" xlink:href="#m40f04e81d5" y="153.8"/><use x="345.7" xlink:href="#m40f04e81d5" y="166.1"/><use x="220.8" xlink:href="#m40f04e81d5" y="158.4"/><use x="85.7" xlink:href="#m40f04e81d5" y="179.5"/><use x="236.5" xlink:href="#m40f04e81d5" y="155.7"/><use x="251" xlink:href="#m40f04e81d5" y="142.4"/><use x="350.3" xlink:href="#m40f04e81d5" y="119.9"/><use x="190.2" xlink:href="#m40f04e81d5" y="151.1"/><use x="144.2" xlink:href="#m40f04e81d5" y="164.5"/><use x="93.4" xlink:href="#m40f04e81d5" y="173.9"/><use x="211.6" xlink:href="#m40f04e81d5" y="166.1"/><use x="205.2" xlink:href="#m40f04e81d5" y="139.9"/><use x="72.8" xlink:href="#m40f04e81d5" y="182.7"/><use x="275.1" xlink:href="#m40f04e81d5" y="159.6"/><use x="282" xlink:href="#m40f04e81d5" y="96.8"/><use x="285.9" xlink:href="#m40f04e81d5" y="159.7"/><use x="189.9" xlink:href="#m40f04e81d5" y="148"/><use x="68.3" xlink:href="#m40f04e81d5" y="37"/><use x="340.4" xlink:href="#m40f04e81d5" y="50"/><use x="304" xlink:href="#m40f04e81d5" y="156.2"/><use x="114" xlink:href="#m40f04e81d5" y="167.7"/><use x="158.9" xlink:href="#m40f04e81d5" y="156.4"/><use x="249.7" xlink:href="#m40f04e81d5" y="117.5"/><use x="174.7" xlink:href="#m40f04e81d5" y="137.8"/><use x="111.2" xlink:href="#m40f04e81d5" y="168.1"/><use x="117.7" xlink:href="#m40f04e81d5" y="166.9"/><use x="327.9" xlink:href="#m40f04e81d5" y="78.3"/><use x="152" xlink:href="#m40f04e81d5" y="175.8"/><use x="241.9" xlink:href="#m40f04e81d5" y="145"/><use x="201.9" xlink:href="#m40f04e81d5" y="161.7"/><use x="188.9" xlink:href="#m40f04e81d5" y="174.8"/><use x="332.4" xlink:href="#m40f04e81d5" y="123"/><use x="274.6" xlink:href="#m40f04e81d5" y="150.1"/><use x="148.7" xlink:href="#m40f04e81d5" y="169.7"/><use x="83.4" xlink:href="#m40f04e81d5" y="178.1"/><use x="124.2" xlink:href="#m40f04e81d5" y="167"/><use x="347.3" xlink:href="#m40f04e81d5" y="104.8"/><use x="323.8" xlink:href="#m40f04e81d5" y="175.7"/><use x="354.3" xlink:href="#m40f04e81d5" y="128.8"/><use x="79.7" xlink:href="#m40f04e81d5" y="176.8"/><use x="240.1" xlink:href="#m40f04e81d5" y="157.1"/><use x="210" xlink:href="#m40f04e81d5" y="156.3"/><use x="70.4" xlink:href="#m40f04e81d5" y="30.2"/><use x="177.5" xlink:href="#m40f04e81d5" y="157.7"/><use x="189.8" xlink:href="#m40f04e81d5" y="143.7"/><use x="247.6" xlink:href="#m40f04e81d5" y="150.5"/><use x="268.2" xlink:href="#m40f04e81d5" y="152.7"/><use x="319.1" xlink:href="#m40f04e81d5" y="140.5"/><use x="301" xlink:href="#m40f04e81d5" y="139.3"/><use x="185.7" xlink:href="#m40f04e81d5" y="170.8"/><use x="305.6" xlink:href="#m40f04e81d5" y="115.2"/><use x="335.6" xlink:href="#m40f04e81d5" y="78.8"/><use x="143.6" xlink:href="#m40f04e81d5" y="163.1"/><use x="364.8" xlink:href="#m40f04e81d5" y="149.6"/><use x="323.5" xlink:href="#m40f04e81d5" y="159.3"/><use x="286.4" xlink:href="#m40f04e81d5" y="128.5"/><use x="172" xlink:href="#m40f04e81d5" y="161.7"/><use x="332.6" xlink:href="#m40f04e81d5" y="116.2"/><use x="327.9" xlink:href="#m40f04e81d5" y="125.4"/><use x="354.6" xlink:href="#m40f04e81d5" y="134.4"/><use x="63.8" xlink:href="#m40f04e81d5" y="35.4"/><use x="68.8" xlink:href="#m40f04e81d5" y="27.6"/><use x="159.3" xlink:href="#m40f04e81d5" y="168"/><use x="366.7" xlink:href="#m40f04e81d5" y="145.9"/><use x="109.1" xlink:href="#m40f04e81d5" y="165.9"/><use x="114.7" xlink:href="#m40f04e81d5" y="178.9"/><use x="294.6" xlink:href="#m40f04e81d5" y="90.5"/><use x="84.9" xlink:href="#m40f04e81d5" y="176.3"/><use x="278.5" xlink:href="#m40f04e81d5" y="145.6"/><use x="206.5" xlink:href="#m40f04e81d5" y="178.4"/><use x="66.8" xlink:href="#m40f04e81d5" y="26.8"/><use x="299.6" xlink:href="#m40f04e81d5" y="157.8"/><use x="305.5" xlink:href="#m40f04e81d5" y="161.4"/><use x="109.3" xlink:href="#m40f04e81d5" y="175.5"/><use x="71" xlink:href="#m40f04e81d5" y="23.1"/><use x="295.7" xlink:href="#m40f04e81d5" y="161.3"/><use x="131.8" xlink:href="#m40f04e81d5" y="175.8"/><use x="143.5" xlink:href="#m40f04e81d5" y="158.9"/><use x="202.8" xlink:href="#m40f04e81d5" y="160.9"/><use x="139.8" xlink:href="#m40f04e81d5" y="171.3"/><use x="236.7" xlink:href="#m40f04e81d5" y="159.5"/><use x="321.5" xlink:href="#m40f04e81d5" y="120.6"/><use x="178.8" xlink:href="#m40f04e81d5" y="158.1"/><use x="195.4" xlink:href="#m40f04e81d5" y="167.8"/><use x="317.2" xlink:href="#m40f04e81d5" y="107.5"/><use x="176.7" xlink:href="#m40f04e81d5" y="159.1"/><use x="76.1" xlink:href="#m40f04e81d5" y="174"/><use x="232.6" xlink:href="#m40f04e81d5" y="117.8"/><use x="201.1" xlink:href="#m40f04e81d5" y="154.3"/><use x="284.5" xlink:href="#m40f04e81d5" y="170.2"/><use x="178.9" xlink:href="#m40f04e81d5" y="148.6"/><use x="319.6" xlink:href="#m40f04e81d5" y="131"/><use x="206.6" xlink:href="#m40f04e81d5" y="154.5"/><use x="235" xlink:href="#m40f04e81d5" y="148.8"/><use x="265" xlink:href="#m40f04e81d5" y="116.8"/><use x="204.4" xlink:href="#m40f04e81d5" y="159.9"/><use x="253.6" xlink:href="#m40f04e81d5" y="117.9"/><use x="131.3" xlink:href="#m40f04e81d5" y="161.2"/><use x="286.8" xlink:href="#m40f04e81d5" y="143.7"/><use x="179.9" xlink:href="#m40f04e81d5" y="155.2"/><use x="123" xlink:href="#m40f04e81d5" y="165.4"/><use x="146.3" xlink:href="#m40f04e81d5" y="174.1"/><use x="139.6" xlink:href="#m40f04e81d5" y="178"/><use x="110.1" xlink:href="#m40f04e81d5" y="165.4"/><use x="298.5" xlink:href="#m40f04e81d5" y="154"/><use x="141.5" xlink:href="#m40f04e81d5" y="180.7"/><use x="102.6" xlink:href="#m40f04e81d5" y="176.4"/><use x="266.2" xlink:href="#m40f04e81d5" y="161.7"/><use x="189.4" xlink:href="#m40f04e81d5" y="147"/><use x="267" xlink:href="#m40f04e81d5" y="175.1"/><use x="264.6" xlink:href="#m40f04e81d5" y="131.1"/><use x="156.7" xlink:href="#m40f04e81d5" y="153.9"/><use x="125" xlink:href="#m40f04e81d5" y="181.4"/><use x="131.3" xlink:href="#m40f04e81d5" y="171.6"/><use x="100.3" xlink:href="#m40f04e81d5" y="164.4"/><use x="75.1" xlink:href="#m40f04e81d5" y="184.5"/><use x="74.1" xlink:href="#m40f04e81d5" y="168.6"/><use x="133.9" xlink:href="#m40f04e81d5" y="156.8"/><use x="133.3" xlink:href="#m40f04e81d5" y="180.7"/><use x="253.9" xlink:href="#m40f04e81d5" y="144.8"/><use x="335.4" xlink:href="#m40f04e81d5" y="83.6"/><use x="301.1" xlink:href="#m40f04e81d5" y="135.7"/><use x="283.3" xlink:href="#m40f04e81d5" y="154"/><use x="158.2" xlink:href="#m40f04e81d5" y="192.1"/><use x="174.3" xlink:href="#m40f04e81d5" y="157.4"/><use x="123.4" xlink:href="#m40f04e81d5" y="159.3"/><use x="348.5" xlink:href="#m40f04e81d5" y="146.2"/><use x="234.7" xlink:href="#m40f04e81d5" y="139.7"/><use x="312.5" xlink:href="#m40f04e81d5" y="121.7"/><use x="169.9" xlink:href="#m40f04e81d5" y="154.2"/><use x="307.2" xlink:href="#m40f04e81d5" y="168.5"/><use x="95.4" xlink:href="#m40f04e81d5" y="161.5"/><use x="280.5" xlink:href="#m40f04e81d5" y="150.5"/><use x="343" xlink:href="#m40f04e81d5" y="132.3"/><use x="308.3" xlink:href="#m40f04e81d5" y="174.4"/><use x="163.3" xlink:href="#m40f04e81d5" y="161.8"/><use x="141.4" xlink:href="#m40f04e81d5" y="162.4"/><use x="214.4" xlink:href="#m40f04e81d5" y="121.8"/><use x="189.6" xlink:href="#m40f04e81d5" y="161.4"/><use x="193.1" xlink:href="#m40f04e81d5" y="177.7"/><use x="86.4" xlink:href="#m40f04e81d5" y="176"/><use x="247.4" xlink:href="#m40f04e81d5" y="148.8"/><use x="291.2" xlink:href="#m40f04e81d5" y="133.1"/><use x="306.5" xlink:href="#m40f04e81d5" y="144.7"/><use x="179.9" xlink:href="#m40f04e81d5" y="163.4"/><use x="306.4" xlink:href="#m40f04e81d5" y="156.2"/><use x="207.3" xlink:href="#m40f04e81d5" y="156.8"/><use x="283.3" xlink:href="#m40f04e81d5" y="110.3"/><use x="121.3" xlink:href="#m40f04e81d5" y="173.6"/><use x="196" xlink:href="#m40f04e81d5" y="144.3"/><use x="314.4" xlink:href="#m40f04e81d5" y="142"/><use x="315.2" xlink:href="#m40f04e81d5" y="127.7"/><use x="121.4" xlink:href="#m40f04e81d5" y="178"/><use x="69.9" xlink:href="#m40f04e81d5" y="27.4"/><use x="277.9" xlink:href="#m40f04e81d5" y="145.9"/><use x="169.4" xlink:href="#m40f04e81d5" y="157.2"/><use x="191.4" xlink:href="#m40f04e81d5" y="167.7"/><use x="297.5" xlink:href="#m40f04e81d5" y="168.3"/><use x="356.8" xlink:href="#m40f04e81d5" y="116.8"/><use x="335.4" xlink:href="#m40f04e81d5" y="97.3"/><use x="104.8" xlink:href="#m40f04e81d5" y="179.1"/><use x="306.6" xlink:href="#m40f04e81d5" y="133.6"/><use x="271.4" xlink:href="#m40f04e81d5" y="117.6"/><use x="225.1" xlink:href="#m40f04e81d5" y="159.8"/><use x="327.3" xlink:href="#m40f04e81d5" y="130.6"/><use x="293" xlink:href="#m40f04e81d5" y="119.7"/><use x="92.1" xlink:href="#m40f04e81d5" y="172.4"/><use x="164" xlink:href="#m40f04e81d5" y="159.9"/><use x="189.3" xlink:href="#m40f04e81d5" y="154.3"/><use x="64" xlink:href="#m40f04e81d5" y="34.3"/><use x="245.6" xlink:href="#m40f04e81d5" y="145.9"/><use x="271.5" xlink:href="#m40f04e81d5" y="114.3"/><use x="175.2" xlink:href="#m40f04e81d5" y="168.9"/><use x="184.4" xlink:href="#m40f04e81d5" y="161"/><use x="208.4" xlink:href="#m40f04e81d5" y="145.8"/><use x="240.6" xlink:href="#m40f04e81d5" y="144.4"/><use x="105.5" xlink:href="#m40f04e81d5" y="174.1"/><use x="367.9" xlink:href="#m40f04e81d5" y="61.7"/><use x="218.2" xlink:href="#m40f04e81d5" y="173.6"/><use x="213.8" xlink:href="#m40f04e81d5" y="176.6"/><use x="120.6" xlink:href="#m40f04e81d5" y="163"/><use x="153.9" xlink:href="#m40f04e81d5" y="171.3"/><use x="306.8" xlink:href="#m40f04e81d5" y="78.2"/><use x="153.5" xlink:href="#m40f04e81d5" y="172.2"/><use x="275.9" xlink:href="#m40f04e81d5" y="129"/><use x="146.8" xlink:href="#m40f04e81d5" y="165.9"/><use x="341.5" xlink:href="#m40f04e81d5" y="174.7"/><use x="154.6" xlink:href="#m40f04e81d5" y="148"/><use x="334.6" xlink:href="#m40f04e81d5" y="128.5"/><use x="351.9" xlink:href="#m40f04e81d5" y="92.5"/><use x="115.2" xlink:href="#m40f04e81d5" y="174.8"/><use x="173.1" xlink:href="#m40f04e81d5" y="169.7"/><use x="271.4" xlink:href="#m40f04e81d5" y="116.7"/><use x="344.2" xlink:href="#m40f04e81d5" y="124.7"/><use x="107.9" xlink:href="#m40f04e81d5" y="175.9"/><use x="94.1" xlink:href="#m40f04e81d5" y="174.8"/><use x="189" xlink:href="#m40f04e81d5" y="174.3"/><use x="360.5" xlink:href="#m40f04e81d5" y="67.5"/><use x="76.4" xlink:href="#m40f04e81d5" y="180"/><use x="120.6" xlink:href="#m40f04e81d5" y="172.3"/><use x="249" xlink:href="#m40f04e81d5" y="168.5"/><use x="90.3" xlink:href="#m40f04e81d5" y="173.3"/><use x="160" xlink:href="#m40f04e81d5" y="171.2"/><use x="249.5" xlink:href="#m40f04e81d5" y="154.4"/><use x="125" xlink:href="#m40f04e81d5" y="165.2"/><use x="274.3" xlink:href="#m40f04e81d5" y="104.5"/><use x="138.2" xlink:href="#m40f04e81d5" y="161.7"/><use x="270.8" xlink:href="#m40f04e81d5" y="177.3"/><use x="211.7" xlink:href="#m40f04e81d5" y="155.1"/><use x="143" xlink:href="#m40f04e81d5" y="173.5"/><use x="149.8" xlink:href="#m40f04e81d5" y="152.2"/><use x="339.3" xlink:href="#m40f04e81d5" y="141.2"/><use x="147.7" xlink:href="#m40f04e81d5" y="163.5"/><use x="319.8" xlink:href="#m40f04e81d5" y="129.9"/><use x="123.5" xlink:href="#m40f04e81d5" y="162"/><use x="164.4" xlink:href="#m40f04e81d5" y="153.9"/><use x="351.9" xlink:href="#m40f04e81d5" y="142.8"/><use x="217.8" xlink:href="#m40f04e81d5" y="122.5"/><use x="186.5" xlink:href="#m40f04e81d5" y="165.4"/><use x="72" xlink:href="#m40f04e81d5" y="180.8"/><use x="253" xlink:href="#m40f04e81d5" y="151.3"/><use x="169.5" xlink:href="#m40f04e81d5" y="164.9"/><use x="148" xlink:href="#m40f04e81d5" y="177.3"/><use x="83.2" xlink:href="#m40f04e81d5" y="174.3"/><use x="165.5" xlink:href="#m40f04e81d5" y="162.5"/><use x="84.4" xlink:href="#m40f04e81d5" y="174.8"/><use x="64.9" xlink:href="#m40f04e81d5" y="33.2"/><use x="76.2" xlink:href="#m40f04e81d5" y="178.8"/><use x="170" xlink:href="#m40f04e81d5" y="131.9"/><use x="91.7" xlink:href="#m40f04e81d5" y="181.1"/><use x="222.1" xlink:href="#m40f04e81d5" y="158.3"/><use x="129.4" xlink:href="#m40f04e81d5" y="185.5"/><use x="365.6" xlink:href="#m40f04e81d5" y="149.3"/><use x="145.1" xlink:href="#m40f04e81d5" y="140.6"/><use x="270.8" xlink:href="#m40f04e81d5" y="110.1"/><use x="223.9" xlink:href="#m40f04e81d5" y="140.2"/><use x="197.6" xlink:href="#m40f04e81d5" y="161.9"/><use x="265.1" xlink:href="#m40f04e81d5" y="131.6"/><use x="104.8" xlink:href="#m40f04e81d5" y="160.8"/><use x="303.5" xlink:href="#m40f04e81d5" y="160.3"/><use x="105.7" xlink:href="#m40f04e81d5" y="168.3"/><use x="256.4" xlink:href="#m40f04e81d5" y="125.3"/><use x="128.8" xlink:href="#m40f04e81d5" y="156.1"/><use x="70.9" xlink:href="#m40f04e81d5" y="35.8"/><use x="254.6" xlink:href="#m40f04e81d5" y="135.1"/><use x="259.2" xlink:href="#m40f04e81d5" y="109.4"/><use x="259.2" xlink:href="#m40f04e81d5" y="165.9"/><use x="326.9" xlink:href="#m40f04e81d5" y="129.9"/><use x="166.4" xlink:href="#m40f04e81d5" y="173.1"/><use x="188.8" xlink:href="#m40f04e81d5" y="160.7"/><use x="249.5" xlink:href="#m40f04e81d5" y="135.8"/><use x="350.1" xlink:href="#m40f04e81d5" y="125.5"/><use x="110" xlink:href="#m40f04e81d5" y="177.3"/><use x="119.8" xlink:href="#m40f04e81d5" y="168.1"/><use x="110.8" xlink:href="#m40f04e81d5" y="161.3"/><use x="280.7" xlink:href="#m40f04e81d5" y="145.9"/><use x="346.2" xlink:href="#m40f04e81d5" y="161"/><use x="192.4" xlink:href="#m40f04e81d5" y="153.9"/><use x="229.7" xlink:href="#m40f04e81d5" y="176.4"/><use x="161.9" xlink:href="#m40f04e81d5" y="167"/><use x="112.7" xlink:href="#m40f04e81d5" y="167.7"/><use x="277.8" xlink:href="#m40f04e81d5" y="166.1"/><use x="286" xlink:href="#m40f04e81d5" y="147.7"/><use x="356.1" xlink:href="#m40f04e81d5" y="80.4"/><use x="176.5" xlink:href="#m40f04e81d5" y="163"/><use x="281.9" xlink:href="#m40f04e81d5" y="102.6"/><use x="363.9" xlink:href="#m40f04e81d5" y="108.1"/><use x="97.5" xlink:href="#m40f04e81d5" y="185.5"/><use x="294.5" xlink:href="#m40f04e81d5" y="158.8"/><use x="111.7" xlink:href="#m40f04e81d5" y="167.1"/><use x="312.2" xlink:href="#m40f04e81d5" y="108.5"/><use x="232.4" xlink:href="#m40f04e81d5" y="144"/><use x="240.8" xlink:href="#m40f04e81d5" y="130.3"/><use x="348.7" xlink:href="#m40f04e81d5" y="120.5"/><use x="195.9" xlink:href="#m40f04e81d5" y="178.7"/><use x="212.6" xlink:href="#m40f04e81d5" y="143.7"/><use x="266.5" xlink:href="#m40f04e81d5" y="139.9"/><use x="255.5" xlink:href="#m40f04e81d5" y="131.4"/><use x="103.4" xlink:href="#m40f04e81d5" y="174.2"/><use x="171.4" xlink:href="#m40f04e81d5" y="151.5"/><use x="257.1" xlink:href="#m40f04e81d5" y="140.9"/><use x="343.4" xlink:href="#m40f04e81d5" y="144"/><use x="91.5" xlink:href="#m40f04e81d5" y="176.8"/><use x="85.4" xlink:href="#m40f04e81d5" y="174.5"/><use x="189.7" xlink:href="#m40f04e81d5" y="149.2"/><use x="129.4" xlink:href="#m40f04e81d5" y="150.6"/><use x="221.9" xlink:href="#m40f04e81d5" y="136"/><use x="233.7" xlink:href="#m40f04e81d5" y="163.8"/><use x="207.9" xlink:href="#m40f04e81d5" y="155"/><use x="129.5" xlink:href="#m40f04e81d5" y="166.9"/><use x="136.6" xlink:href="#m40f04e81d5" y="165.6"/><use x="129.7" xlink:href="#m40f04e81d5" y="171.2"/><use x="263.3" xlink:href="#m40f04e81d5" y="174.8"/><use x="321.4" xlink:href="#m40f04e81d5" y="169.2"/><use x="346.9" xlink:href="#m40f04e81d5" y="73.3"/><use x="307.3" xlink:href="#m40f04e81d5" y="116.1"/><use x="270.9" xlink:href="#m40f04e81d5" y="147.8"/><use x="126.8" xlink:href="#m40f04e81d5" y="161.2"/><use x="289.5" xlink:href="#m40f04e81d5" y="131"/><use x="275.9" xlink:href="#m40f04e81d5" y="136.4"/><use x="179.9" xlink:href="#m40f04e81d5" y="165.4"/><use x="322.5" xlink:href="#m40f04e81d5" y="120.4"/><use x="224.5" xlink:href="#m40f04e81d5" y="132.5"/><use x="335.5" xlink:href="#m40f04e81d5" y="89.8"/><use x="313.5" xlink:href="#m40f04e81d5" y="102.7"/><use x="133.3" xlink:href="#m40f04e81d5" y="163.4"/><use x="313.5" xlink:href="#m40f04e81d5" y="159.1"/><use x="105.9" xlink:href="#m40f04e81d5" y="177.1"/><use x="210.6" xlink:href="#m40f04e81d5" y="144.3"/><use x="109" xlink:href="#m40f04e81d5" y="161.6"/><use x="200.2" xlink:href="#m40f04e81d5" y="153.4"/><use x="266.4" xlink:href="#m40f04e81d5" y="136.3"/><use x="303.9" xlink:href="#m40f04e81d5" y="134.4"/><use x="265.2" xlink:href="#m40f04e81d5" y="195.3"/><use x="280.3" xlink:href="#m40f04e81d5" y="174.4"/><use x="334" xlink:href="#m40f04e81d5" y="93.1"/><use x="106.9" xlink:href="#m40f04e81d5" y="168.9"/><use x="108.7" xlink:href="#m40f04e81d5" y="182.1"/><use x="162.9" xlink:href="#m40f04e81d5" y="158"/><use x="73.4" xlink:href="#m40f04e81d5" y="189.5"/><use x="273.1" xlink:href="#m40f04e81d5" y="162.5"/><use x="296.5" xlink:href="#m40f04e81d5" y="134.7"/><use x="170.3" xlink:href="#m40f04e81d5" y="155.1"/><use x="251.2" xlink:href="#m40f04e81d5" y="155"/><use x="355.5" xlink:href="#m40f04e81d5" y="143.3"/><use x="152.3" xlink:href="#m40f04e81d5" y="157"/><use x="272.7" xlink:href="#m40f04e81d5" y="131.2"/><use x="76.6" xlink:href="#m40f04e81d5" y="185.6"/><use x="82.8" xlink:href="#m40f04e81d5" y="168.8"/><use x="311.6" xlink:href="#m40f04e81d5" y="125.6"/><use x="196.6" xlink:href="#m40f04e81d5" y="166.6"/><use x="183.1" xlink:href="#m40f04e81d5" y="164.7"/><use x="164.4" xlink:href="#m40f04e81d5" y="168.3"/><use x="203" xlink:href="#m40f04e81d5" y="140"/><use x="318" xlink:href="#m40f04e81d5" y="158.2"/><use x="205.8" xlink:href="#m40f04e81d5" y="146.3"/><use x="192" xlink:href="#m40f04e81d5" y="156.5"/><use x="237.5" xlink:href="#m40f04e81d5" y="166.8"/><use x="288.7" xlink:href="#m40f04e81d5" y="123.8"/><use x="80.5" xlink:href="#m40f04e81d5" y="183.4"/><use x="253.7" xlink:href="#m40f04e81d5" y="170.1"/><use x="252.8" xlink:href="#m40f04e81d5" y="145.6"/><use x="64.1" xlink:href="#m40f04e81d5" y="33.4"/><use x="247.2" xlink:href="#m40f04e81d5" y="115.4"/><use x="76" xlink:href="#m40f04e81d5" y="187"/><use x="242" xlink:href="#m40f04e81d5" y="156.2"/><use x="200.2" xlink:href="#m40f04e81d5" y="141.5"/><use x="171.4" xlink:href="#m40f04e81d5" y="136"/><use x="347.9" xlink:href="#m40f04e81d5" y="110.8"/><use x="145.1" xlink:href="#m40f04e81d5" y="162.8"/><use x="149.4" xlink:href="#m40f04e81d5" y="158.8"/><use x="217.4" xlink:href="#m40f04e81d5" y="159.1"/><use x="260.6" xlink:href="#m40f04e81d5" y="157.4"/><use x="359.2" xlink:href="#m40f04e81d5" y="59.3"/><use x="74.7" xlink:href="#m40f04e81d5" y="181"/><use x="192.6" xlink:href="#m40f04e81d5" y="136.2"/><use x="242.8" xlink:href="#m40f04e81d5" y="138.3"/><use x="286.5" xlink:href="#m40f04e81d5" y="153.8"/><use x="117.2" xlink:href="#m40f04e81d5" y="179.8"/><use x="219.1" xlink:href="#m40f04e81d5" y="169.7"/><use x="216" xlink:href="#m40f04e81d5" y="168.9"/><use x="335.5" xlink:href="#m40f04e81d5" y="138.8"/><use x="180.2" xlink:href="#m40f04e81d5" y="145.9"/><use x="265.5" xlink:href="#m40f04e81d5" y="160.6"/><use x="78" xlink:href="#m40f04e81d5" y="181.4"/><use x="292.4" xlink:href="#m40f04e81d5" y="149.4"/><use x="176" xlink:href="#m40f04e81d5" y="141"/><use x="352.3" xlink:href="#m40f04e81d5" y="154.8"/><use x="169.4" xlink:href="#m40f04e81d5" y="158.1"/><use x="271.9" xlink:href="#m40f04e81d5" y="168.9"/><use x="314.7" xlink:href="#m40f04e81d5" y="121.4"/><use x="211.7" xlink:href="#m40f04e81d5" y="129.5"/><use x="363.3" xlink:href="#m40f04e81d5" y="88.9"/><use x="247.5" xlink:href="#m40f04e81d5" y="139.4"/><use x="295" xlink:href="#m40f04e81d5" y="120.1"/><use x="272.1" xlink:href="#m40f04e81d5" y="144.7"/><use x="347.5" xlink:href="#m40f04e81d5" y="108.4"/><use x="352.8" xlink:href="#m40f04e81d5" y="75"/><use x="365.1" xlink:href="#m40f04e81d5" y="87.1"/><use x="102.1" xlink:href="#m40f04e81d5" y="169.3"/><use x="361" xlink:href="#m40f04e81d5" y="145.2"/><use x="133.5" xlink:href="#m40f04e81d5" y="172.8"/><use x="120.4" xlink:href="#m40f04e81d5" y="176.3"/><use x="218.7" xlink:href="#m40f04e81d5" y="134.9"/><use x="225.2" xlink:href="#m40f04e81d5" y="159.7"/><use x="149.8" xlink:href="#m40f04e81d5" y="146.5"/><use x="158.2" xlink:href="#m40f04e81d5" y="150.2"/><use x="158.1" xlink:href="#m40f04e81d5" y="159.8"/><use x="144.8" xlink:href="#m40f04e81d5" y="164.6"/><use x="244.4" xlink:href="#m40f04e81d5" y="141.7"/><use x="129.8" xlink:href="#m40f04e81d5" y="180.2"/><use x="186.2" xlink:href="#m40f04e81d5" y="165.7"/><use x="151.6" xlink:href="#m40f04e81d5" y="169.8"/></g></g><path d="M48.5 230.6V13.2" fill="none" stroke="#fff" stroke-linecap="square" stroke-width="1.3" id="patch_3"/><path d="M383.3 230.6V13.2" fill="none" stroke="#fff" stroke-linecap="square" stroke-width="1.3" id="patch_4"/><path d="M48.5 230.6h334.8" fill="none" stroke="#fff" stroke-linecap="square" stroke-width="1.3" id="patch_5"/><path d="M48.5 13.2h334.8" fill="none" stroke="#fff" stroke-linecap="square" stroke-width="1.3" id="patch_6"/><g id="legend_1"><path d="M134.3 54.3h163.2q2.2 0 2.2-2.2V20.9q0-2.2-2.2-2.2H134.3q-2.2 0-2.2 2.2v31.2q0 2.2 2.2 2.2z" fill="#eaeaf2" opacity=".8" stroke="#ccc" id="patch_7"/><use x="147.5" xlink:href="#m40f04e81d5" y="27.6" fill="#4c72b0" stroke="#4c72b0" id="line2d_20"/><g id="text_20"><defs><path d="M19.7 64.8V8.1h11.9q15 0 22 6.8 7 6.9 7 21.6 0 14.7-7 21.5-7 6.8-22 6.8zm-9.9 8.1h20.3q21.2 0 31-8.8 10-8.8 10-27.6T61 8.8Q51.1 0 30.1 0H9.8z" id="DejaVuSans-68"/><path d="M34.3 27.5q-11 0-15.1-2.5-4.2-2.5-4.2-8.5 0-4.8 3.1-7.6 3.2-2.8 8.6-2.8 7.5 0 12 5.3t4.5 14v2zm17.9 3.7V0h-9v8.3q-3-5-7.7-7.3Q31-1.4 24.3-1.4 16-1.4 11 3.3 6 8 6 15.9q0 9.2 6.2 14 6.2 4.6 18.4 4.6h12.6v1q0 6.1-4 9.5-4.1 3.4-11.5 3.4-4.7 0-9.2-1.1-4.4-1.2-8.5-3.4v8.3q5 2 9.6 2.8 4.6 1 9 1 11.9 0 17.7-6.2 5.9-6.1 5.9-18.6z" id="DejaVuSans-97"/><path d="M18.3 70.2V54.7h18.5v-7H18.3V18q0-6.7 1.8-8.6 1.9-1.9 7.5-1.9h9.2V0h-9.2Q17.2 0 13.2 3.9T9.2 18v29.7H2.8v7h6.6v15.5z" id="DejaVuSans-116"/></defs><g transform="matrix(.11 0 0 -.11 167.3 31.5)" fill="#262626"><use xlink:href="#DejaVuSans-68"/><use x="77" xlink:href="#DejaVuSans-97"/><use x="138.3" xlink:href="#DejaVuSans-116"/><use x="177.5" xlink:href="#DejaVuSans-97"/></g></g><path d="M136.5 47.6h22v-7.7h-22z" fill="#4c72b0" opacity=".2" stroke="#fff" id="patch_8"/><g id="text_21"><defs><path d="M45.4 46.4V76h9V0h-9v8.2Q42.6 3.3 38.3 1q-4.4-2.4-10.4-2.4-10 0-16.2 7.9-6.2 8-6.2 20.8 0 12.9 6.2 20.8Q18 56 28 56q6 0 10.4-2.4 4.3-2.3 7.1-7.2zM14.8 27.3q0-10 4-15.6Q23 6.2 30.2 6.2q7.1 0 11.2 5.7 4.1 5.6 4.1 15.5t-4.1 15.5q-4.1 5.7-11.2 5.7t-11.2-5.7q-4.1-5.6-4.1-15.5z" id="DejaVuSans-100"/><path d="M11 1.5v9q3.7-1.8 7.5-2.7 3.8-1 7.5-1 9.8 0 14.9 6.7 5.1 6.5 5.9 20-2.8-4.3-7.2-6.5-4.4-2.3-9.6-2.3-11 0-17.3 6.6Q6.3 38 6.3 49.4q0 11.2 6.6 18 6.7 6.8 17.7 6.8 12.7 0 19.3-9.7 6.7-9.7 6.7-28.1 0-17.3-8.2-27.5-8.2-10.3-22-10.3-3.7 0-7.5.7t-8 2.2zm19.6 31q6.6 0 10.5 4.5 4 4.5 4 12.4t-4 12.4q-3.9 4.6-10.5 4.6t-10.5-4.6q-3.9-4.5-3.9-12.4T20.1 37q3.9-4.6 10.5-4.6z" id="DejaVuSans-57"/><path d="M19.7 64.8V37.4H32q6.9 0 10.6 3.6 3.8 3.5 3.8 10.1t-3.8 10.1q-3.7 3.6-10.6 3.6zm-9.9 8.1h22.3q12.2 0 18.5-5.5Q57 61.8 57 51q0-10.8-6.3-16.3t-18.5-5.5H19.7V0H9.8z" id="DejaVuSans-80"/><path d="M41.1 46.3q-1.5.9-3.3 1.3-1.8.4-4 .4-7.5 0-11.6-5-4-5-4-14.2V0H9v54.7h9v-8.5q2.9 5 7.4 7.4Q30 56 36.5 56l2-.1 2.6-.4z" id="DejaVuSans-114"/><path d="M56.2 29.6v-4.4H14.9q.6-9.3 5.6-14.1 5-4.9 14-4.9 5 0 10 1.3 4.8 1.2 9.6 3.8V2.8q-4.8-2-10-3.1-5-1.1-10.2-1.1-13.1 0-20.7 7.6-7.7 7.6-7.7 20.6 0 13.4 7.3 21.3Q20 56 32.3 56q11 0 17.5-7.1 6.4-7.1 6.4-19.3zm-9 2.6q0 7.4-4.1 11.8-4 4.4-10.7 4.4-7.5 0-12-4.3-4.5-4.2-5.2-12z" id="DejaVuSans-101"/><path d="M72.7 32q-4.2 0-6.7-3.5-2.4-3.6-2.4-10t2.4-10q2.5-3.7 6.7-3.7t6.6 3.6q2.4 3.7 2.4 10 0 6.4-2.4 10-2.4 3.7-6.6 3.7zm0 6.3q7.7 0 12.3-5.4 4.5-5.4 4.5-14.5T84.9 4q-4.5-5.3-12.2-5.3-7.8 0-12.4 5.3-4.5 5.4-4.5 14.5 0 9.2 4.6 14.5 4.5 5.4 12.3 5.4zM22.3 68q-4.2 0-6.6-3.6-2.4-3.7-2.4-10 0-6.4 2.4-10 2.4-3.7 6.6-3.7 4.3 0 6.7 3.6 2.4 3.7 2.4 10 0 6.4-2.4 10-2.5 3.7-6.7 3.7zm44.1 6.2h7.8L28.6-1.4h-7.8zm-44 0q7.6 0 12.2-5.3 4.6-5.4 4.6-14.5 0-9.2-4.6-14.6-4.5-5.3-12.3-5.3-7.8 0-12.3 5.4-4.5 5.3-4.5 14.5 0 9 4.5 14.4 4.6 5.4 12.3 5.4z" id="DejaVuSans-37"/><path d="M9.4 54.7h9V0h-9zm0 21.3h9V64.6h-9z" id="DejaVuSans-105"/><path d="M48.8 52.6v-8.4Q45 46.3 41 47.3q-3.8 1-7.7 1-8.7 0-13.6-5.5Q15 37.3 15 27.3t4.8-15.6q4.9-5.5 13.6-5.5 4 0 7.7 1 3.9 1.1 7.7 3.2V2.1Q45 .3 41-.5q-4-1-8.6-1-12.3 0-19.6 7.8-7.3 7.8-7.3 21 0 13.4 7.4 21Q20.2 56 33 56q4.2 0 8.1-.9 4-.8 7.7-2.5z" id="DejaVuSans-99"/><path d="M3 54.7h9.5l17-45.9 17.2 45.9h9.5L35.7 0H23.5z" id="DejaVuSans-118"/><path d="M54.9 33V0h-9v32.7q0 7.8-3 11.6-3 3.9-9.1 3.9-7.3 0-11.5-4.7Q18.1 39 18.1 31V0h-9v54.7h9v-8.5q3.2 5 7.6 7.4Q30.1 56 35.8 56q9.4 0 14.2-5.8Q55 44.3 55 33z" id="DejaVuSans-110"/><path d="M9.4 76h9V0h-9z" id="DejaVuSans-108"/></defs><g transform="matrix(.11 0 0 -.11 167.3 47.6)" fill="#262626"><use xlink:href="#DejaVuSans-57"/><use x="63.6" xlink:href="#DejaVuSans-48"/><use x="127.2" xlink:href="#DejaVuSans-37"/><use x="222.3" xlink:href="#DejaVuSans-32"/><use x="254.1" xlink:href="#DejaVuSans-80"/><use x="314.3" xlink:href="#DejaVuSans-114"/><use x="355.4" xlink:href="#DejaVuSans-101"/><use x="416.9" xlink:href="#DejaVuSans-100"/><use x="480.4" xlink:href="#DejaVuSans-105"/><use x="508.2" xlink:href="#DejaVuSans-99"/><use x="563.2" xlink:href="#DejaVuSans-116"/><use x="602.4" xlink:href="#DejaVuSans-105"/><use x="630.2" xlink:href="#DejaVuSans-118"/><use x="689.4" xlink:href="#DejaVuSans-101"/><use x="750.9" xlink:href="#DejaVuSans-32"/><use x="782.7" xlink:href="#DejaVuSans-105"/><use x="810.5" xlink:href="#DejaVuSans-110"/><use x="873.8" xlink:href="#DejaVuSans-116"/><use x="913" xlink:href="#DejaVuSans-101"/><use x="974.6" xlink:href="#DejaVuSans-114"/><use x="1015.7" xlink:href="#DejaVuSans-118"/><use x="1074.9" xlink:href="#DejaVuSans-97"/><use x="1136.1" xlink:href="#DejaVuSans-108"/></g></g></g></g></g><defs><clipPath id="p797a620427"><path d="M48.5 13.2h334.8v217.4H48.5z"/></clipPath></defs></svg>