<svg height="336" viewBox="0 0 374.4 252" width="499.3" xmlns="http://www.w3.org/2000/svg" xmlns:xlink="http://www.w3.org/1999/xlink"><defs><style>*{stroke-linecap:butt;stroke-linejoin:round}</style></defs><g id="figure_1"><path d="M0 252h374.4V0H0z" fill="none" id="patch_1"/><g id="axes_1"><path d="M29 228.1h334.7V10.7H29z" fill="#fff" id="patch_2"/><g id="matplotlib.axis_1"><g id="xtick_1"><g id="line2d_1"><defs><path d="M0 0v3.5" id="mf19eb5c7d7" stroke="#000" stroke-width=".8"/></defs><use x="67.4" xlink:href="#mf19eb5c7d7" y="228.1" stroke="#000" stroke-width=".8"/></g><g id="text_1"><defs><path d="M31.8 66.4q-7.6 0-11.5-7.5-3.8-7.5-3.8-22.5t3.8-22.5q3.9-7.5 11.5-7.5 7.7 0 11.5 7.5T47 36.4q0 15-3.8 22.5t-11.5 7.5zm0 7.8q12.2 0 18.7-9.7T57 36.4Q57 18 50.5 8.3 44-1.4 31.8-1.4 19.5-1.4 13 8.3q-6.5 9.7-6.5 28 0 18.5 6.5 28.2 6.4 9.7 18.7 9.7z" id="DejaVuSans-48"/></defs><use xlink:href="#DejaVuSans-48" transform="matrix(.1 0 0 -.1 64.3 242.7)"/></g></g><g id="xtick_2"><use x="106.8" xlink:href="#mf19eb5c7d7" y="228.1" stroke="#000" stroke-width=".8" id="line2d_2"/><g id="text_2"><defs><path d="M10.8 73h38.7v-8.4H19.8V46.7q2.2.8 4.3 1.1 2.2.4 4.3.4 12.2 0 19.4-6.7 7-6.7 7-18.1 0-11.8-7.2-18.3-7.4-6.5-20.7-6.5-4.6 0-9.4.8-4.7.7-9.8 2.3v10q4.4-2.5 9.1-3.6 4.7-1.2 9.9-1.2 8.5 0 13.4 4.4 5 4.5 5 12 0 7.7-5 12.1Q35 40 26.7 40q-4 0-7.9-.9-4-.9-8-2.7z" id="DejaVuSans-53"/></defs><use xlink:href="#DejaVuSans-53" transform="matrix(.1 0 0 -.1 103.6 242.7)"/></g></g><g id="xtick_3"><use x="146.2" xlink:href="#mf19eb5c7d7" y="228.1" stroke="#000" stroke-width=".8" id="line2d_3"/><g id="text_3"><defs><path d="M12.4 8.3h16.1v55.6L11 60.4v9l17.4 3.5h9.9V8.3h16V0H12.5z" id="DejaVuSans-49"/></defs><g transform="matrix(.1 0 0 -.1 139.8 242.7)"><use xlink:href="#DejaVuSans-49"/><use x="63.6" xlink:href="#DejaVuSans-48"/></g></g></g><g id="xtick_4"><use x="185.5" xlink:href="#mf19eb5c7d7" y="228.1" stroke="#000" stroke-width=".8" id="line2d_4"/><g transform="matrix(.1 0 0 -.1 179.1 242.7)" id="text_4"><use xlink:href="#DejaVuSans-49"/><use x="63.6" xlink:href="#DejaVuSans-53"/></g></g><g id="xtick_5"><use x="224.9" xlink:href="#mf19eb5c7d7" y="228.1" stroke="#000" stroke-width=".8" id="line2d_5"/><g id="text_5"><defs><path d="M19.2 8.3h34.4V0H7.3v8.3l15.3 15.6q9.7 9.8 12.2 12.6 4.7 5.3 6.6 9 2 3.7 2 7.3 0 5.8-4.2 9.5-4 3.6-10.6 3.6-4.6 0-9.8-1.6-5.1-1.6-11-4.9v10q6 2.4 11.1 3.6 5.2 1.2 9.5 1.2 11.4 0 18-5.7 6.8-5.6 6.8-15 0-4.6-1.7-8.6-1.6-4-6-9.5l-7.9-8.2L19.2 8.3z" id="DejaVuSans-50"/></defs><g transform="matrix(.1 0 0 -.1 218.5 242.7)"><use xlink:href="#DejaVuSans-50"/><use x="63.6" xlink:href="#DejaVuSans-48"/></g></g></g><g id="xtick_6"><use x="264.2" xlink:href="#mf19eb5c7d7" y="228.1" stroke="#000" stroke-width=".8" id="line2d_6"/><g transform="matrix(.1 0 0 -.1 257.9 242.7)" id="text_6"><use xlink:href="#DejaVuSans-50"/><use x="63.6" xlink:href="#DejaVuSans-53"/></g></g><g id="xtick_7"><use x="303.6" xlink:href="#mf19eb5c7d7" y="228.1" stroke="#000" stroke-width=".8" id="line2d_7"/><g id="text_7"><defs><path d="M40.6 39.3q7-1.5 11-6.3t4-11.8q0-10.8-7.4-16.7-7.4-6-21.1-6-4.6 0-9.4 1-4.9.9-10 2.7v9.5q4-2.4 8.9-3.6Q21.5 7 26.8 7q9.3 0 14.1 3.6 4.9 3.7 4.9 10.7 0 6.4-4.5 10Q36.8 35 28.7 35h-8.5V43h9q7.2 0 11 3 3.9 2.8 3.9 8.3 0 5.6-4 8.6t-11.4 3q-4 0-8.7-.9-4.6-.8-10.2-2.7v8.8q5.6 1.6 10.5 2.3 5 .8 9.3.8 11.2 0 17.8-5 6.5-5.2 6.5-13.9 0-6-3.5-10.2-3.4-4.2-9.8-5.8z" id="DejaVuSans-51"/></defs><g transform="matrix(.1 0 0 -.1 297.2 242.7)"><use xlink:href="#DejaVuSans-51"/><use x="63.6" xlink:href="#DejaVuSans-48"/></g></g></g><g id="xtick_8"><use x="342.9" xlink:href="#mf19eb5c7d7" y="228.1" stroke="#000" stroke-width=".8" id="line2d_8"/><g transform="matrix(.1 0 0 -.1 336.6 242.7)" id="text_8"><use xlink:href="#DejaVuSans-51"/><use x="63.6" xlink:href="#DejaVuSans-53"/></g></g></g><g id="matplotlib.axis_2"><g id="ytick_1"><g id="line2d_9"><defs><path d="M0 0h-3.5" id="me0f7bfbf90" stroke="#000" stroke-width=".8"/></defs><use x="28.9" xlink:href="#me0f7bfbf90" y="181.4" stroke="#000" stroke-width=".8"/></g><g id="text_9"><defs><path d="M10.6 35.5h62.6v-8.3H10.6z" id="DejaVuSans-8722"/></defs><g transform="matrix(.1 0 0 -.1 7.2 185.2)"><use xlink:href="#DejaVuSans-8722"/><use x="83.8" xlink:href="#DejaVuSans-53"/></g></g></g><g id="ytick_2"><use x="28.9" xlink:href="#me0f7bfbf90" y="133.5" stroke="#000" stroke-width=".8" id="line2d_10"/><use xlink:href="#DejaVuSans-48" transform="matrix(.1 0 0 -.1 15.6 137.3)" id="text_10"/></g><g id="ytick_3"><use x="28.9" xlink:href="#me0f7bfbf90" y="85.6" stroke="#000" stroke-width=".8" id="line2d_11"/><use xlink:href="#DejaVuSans-53" transform="matrix(.1 0 0 -.1 15.6 89.4)" id="text_11"/></g><g id="ytick_4"><use x="28.9" xlink:href="#me0f7bfbf90" y="37.7" stroke="#000" stroke-width=".8" id="line2d_12"/><g transform="matrix(.1 0 0 -.1 9.2 41.5)" id="text_12"><use xlink:href="#DejaVuSans-49"/><use x="63.6" xlink:href="#DejaVuSans-48"/></g></g></g><g id="line2d_13"><defs><path d="M0 1.5a1.5 1.5 0 100-3 1.5 1.5 0 000 3z" id="m682987cd05" stroke="#1f77b4"/></defs><g clip-path="url(#p4dd8485fe0)" fill="#1f77b4" stroke="#1f77b4"><use x="76" xlink:href="#m682987cd05" y="119.7"/><use x="59.1" xlink:href="#m682987cd05" y="149.5"/><use x="110.7" xlink:href="#m682987cd05" y="93.4"/><use x="81.2" xlink:href="#m682987cd05" y="125.4"/><use x="92.3" xlink:href="#m682987cd05" y="97.7"/><use x="97.1" xlink:href="#m682987cd05" y="170.7"/><use x="68.8" xlink:href="#m682987cd05" y="126.9"/><use x="81" xlink:href="#m682987cd05" y="108"/><use x="56.6" xlink:href="#m682987cd05" y="144.2"/><use x="68" xlink:href="#m682987cd05" y="146.1"/><use x="80.3" xlink:href="#m682987cd05" y="119.8"/><use x="103.1" xlink:href="#m682987cd05" y="162.8"/><use x="58.4" xlink:href="#m682987cd05" y="129.9"/><use x="74.9" xlink:href="#m682987cd05" y="118.4"/><use x="91.3" xlink:href="#m682987cd05" y="94.9"/><use x="78.4" xlink:href="#m682987cd05" y="157.4"/><use x="120.9" xlink:href="#m682987cd05" y="187"/><use x="60.9" xlink:href="#m682987cd05" y="117.4"/><use x="59.2" xlink:href="#m682987cd05" y="130"/><use x="60.8" xlink:href="#m682987cd05" y="123.9"/><use x="71.3" xlink:href="#m682987cd05" y="139.2"/><use x="82.3" xlink:href="#m682987cd05" y="161.4"/><use x="57.5" xlink:href="#m682987cd05" y="125.2"/><use x="66.3" xlink:href="#m682987cd05" y="155.1"/><use x="90.9" xlink:href="#m682987cd05" y="94.7"/><use x="70.2" xlink:href="#m682987cd05" y="126.4"/><use x="81.7" xlink:href="#m682987cd05" y="104.6"/><use x="85" xlink:href="#m682987cd05" y="159.9"/><use x="65.4" xlink:href="#m682987cd05" y="132.8"/><use x="71.6" xlink:href="#m682987cd05" y="152.5"/><use x="57.5" xlink:href="#m682987cd05" y="133.8"/><use x="84.6" xlink:href="#m682987cd05" y="114.2"/><use x="78.7" xlink:href="#m682987cd05" y="161"/><use x="155.2" xlink:href="#m682987cd05" y="199.7"/><use x="99.8" xlink:href="#m682987cd05" y="168.5"/><use x="83.1" xlink:href="#m682987cd05" y="102.6"/><use x="78.4" xlink:href="#m682987cd05" y="113.6"/><use x="78.5" xlink:href="#m682987cd05" y="147.9"/><use x="74.3" xlink:href="#m682987cd05" y="160"/><use x="71.7" xlink:href="#m682987cd05" y="127.1"/><use x="73.8" xlink:href="#m682987cd05" y="166.8"/><use x="76.7" xlink:href="#m682987cd05" y="121"/><use x="130.8" xlink:href="#m682987cd05" y="81"/><use x="82.9" xlink:href="#m682987cd05" y="109"/><use x="76.8" xlink:href="#m682987cd05" y="107.3"/><use x="144.4" xlink:href="#m682987cd05" y="71.1"/><use x="135.9" xlink:href="#m682987cd05" y="75.9"/><use x="97.6" xlink:href="#m682987cd05" y="110.6"/><use x="66.6" xlink:href="#m682987cd05" y="155"/><use x="62.6" xlink:href="#m682987cd05" y="129.1"/><use x="79.2" xlink:href="#m682987cd05" y="149.6"/><use x="79.6" xlink:href="#m682987cd05" y="160.2"/><use x="66" xlink:href="#m682987cd05" y="134.5"/><use x="95" xlink:href="#m682987cd05" y="105.3"/><use x="108.5" xlink:href="#m682987cd05" y="88"/><use x="73.7" xlink:href="#m682987cd05" y="120.3"/><use x="105.3" xlink:href="#m682987cd05" y="178.6"/><use x="71.4" xlink:href="#m682987cd05" y="145.1"/><use x="62.4" xlink:href="#m682987cd05" y="139"/><use x="130.8" xlink:href="#m682987cd05" y="180.9"/><use x="89.1" xlink:href="#m682987cd05" y="167"/><use x="61.5" xlink:href="#m682987cd05" y="113.3"/><use x="64.4" xlink:href="#m682987cd05" y="137.5"/><use x="73.8" xlink:href="#m682987cd05" y="150.9"/><use x="53.9" xlink:href="#m682987cd05" y="134"/><use x="125" xlink:href="#m682987cd05" y="185.2"/><use x="91.3" xlink:href="#m682987cd05" y="105.1"/><use x="69" xlink:href="#m682987cd05" y="117.5"/><use x="85.3" xlink:href="#m682987cd05" y="146.1"/><use x="84.9" xlink:href="#m682987cd05" y="119.1"/><use x="101.9" xlink:href="#m682987cd05" y="95.5"/><use x="73.5" xlink:href="#m682987cd05" y="152.3"/><use x="62.5" xlink:href="#m682987cd05" y="144.7"/><use x="65.1" xlink:href="#m682987cd05" y="134"/><use x="70" xlink:href="#m682987cd05" y="115.2"/><use x="76.4" xlink:href="#m682987cd05" y="112.8"/><use x="117" xlink:href="#m682987cd05" y="181.7"/><use x="120.1" xlink:href="#m682987cd05" y="178.4"/><use x="78.2" xlink:href="#m682987cd05" y="103.4"/><use x="63.5" xlink:href="#m682987cd05" y="140.6"/><use x="74" xlink:href="#m682987cd05" y="136.8"/><use x="142.7" xlink:href="#m682987cd05" y="74"/><use x="103" xlink:href="#m682987cd05" y="92.1"/><use x="101.4" xlink:href="#m682987cd05" y="98.2"/><use x="92.7" xlink:href="#m682987cd05" y="112"/><use x="78.6" xlink:href="#m682987cd05" y="153"/><use x="82.9" xlink:href="#m682987cd05" y="158.5"/><use x="62.5" xlink:href="#m682987cd05" y="147"/><use x="84" xlink:href="#m682987cd05" y="157.6"/><use x="77.6" xlink:href="#m682987cd05" y="149.5"/><use x="78.9" xlink:href="#m682987cd05" y="144.2"/><use x="122.4" xlink:href="#m682987cd05" y="83"/><use x="100.3" xlink:href="#m682987cd05" y="97"/><use x="75.8" xlink:href="#m682987cd05" y="151.7"/><use x="70.2" xlink:href="#m682987cd05" y="141.8"/><use x="71.2" xlink:href="#m682987cd05" y="154.4"/><use x="66.3" xlink:href="#m682987cd05" y="125.8"/><use x="84.6" xlink:href="#m682987cd05" y="107.3"/><use x="122.2" xlink:href="#m682987cd05" y="174.1"/><use x="61.7" xlink:href="#m682987cd05" y="126.2"/><use x="79.9" xlink:href="#m682987cd05" y="149.8"/><use x="75" xlink:href="#m682987cd05" y="150.1"/><use x="81.9" xlink:href="#m682987cd05" y="157.2"/><use x="66.1" xlink:href="#m682987cd05" y="137.9"/><use x="82.8" xlink:href="#m682987cd05" y="137.3"/><use x="85.8" xlink:href="#m682987cd05" y="116"/><use x="95.7" xlink:href="#m682987cd05" y="97.8"/><use x="99.7" xlink:href="#m682987cd05" y="92.4"/><use x="69.1" xlink:href="#m682987cd05" y="116.1"/><use x="69" xlink:href="#m682987cd05" y="140.8"/><use x="79.2" xlink:href="#m682987cd05" y="120"/><use x="133.7" xlink:href="#m682987cd05" y="185.9"/><use x="84.6" xlink:href="#m682987cd05" y="104.1"/><use x="62.9" xlink:href="#m682987cd05" y="130.9"/><use x="64.6" xlink:href="#m682987cd05" y="127.2"/><use x="111.3" xlink:href="#m682987cd05" y="183.5"/><use x="95.5" xlink:href="#m682987cd05" y="92.2"/><use x="166.4" xlink:href="#m682987cd05" y="203"/><use x="69.3" xlink:href="#m682987cd05" y="126.7"/><use x="66.9" xlink:href="#m682987cd05" y="131.6"/><use x="63.8" xlink:href="#m682987cd05" y="134.3"/><use x="76.9" xlink:href="#m682987cd05" y="151.9"/><use x="73.7" xlink:href="#m682987cd05" y="164.6"/><use x="59.9" xlink:href="#m682987cd05" y="140.3"/><use x="69.4" xlink:href="#m682987cd05" y="143"/><use x="83" xlink:href="#m682987cd05" y="164.4"/><use x="72.3" xlink:href="#m682987cd05" y="158.5"/><use x="98" xlink:href="#m682987cd05" y="168.3"/><use x="76" xlink:href="#m682987cd05" y="150.2"/><use x="61.2" xlink:href="#m682987cd05" y="120.1"/><use x="73.6" xlink:href="#m682987cd05" y="110.4"/><use x="135" xlink:href="#m682987cd05" y="75.7"/><use x="72.7" xlink:href="#m682987cd05" y="161.6"/><use x="76.8" xlink:href="#m682987cd05" y="119.6"/><use x="56.7" xlink:href="#m682987cd05" y="120.5"/><use x="74.5" xlink:href="#m682987cd05" y="137.8"/><use x="71" xlink:href="#m682987cd05" y="128.9"/><use x="61.2" xlink:href="#m682987cd05" y="142"/><use x="88.2" xlink:href="#m682987cd05" y="158.9"/><use x="67.3" xlink:href="#m682987cd05" y="147.7"/><use x="72.2" xlink:href="#m682987cd05" y="143.6"/><use x="73.7" xlink:href="#m682987cd05" y="159.3"/><use x="88.2" xlink:href="#m682987cd05" y="166.6"/><use x="88" xlink:href="#m682987cd05" y="100.7"/><use x="66.8" xlink:href="#m682987cd05" y="122.5"/><use x="50.4" xlink:href="#m682987cd05" y="123.5"/><use x="77.4" xlink:href="#m682987cd05" y="117.1"/><use x="64.4" xlink:href="#m682987cd05" y="140"/><use x="96.1" xlink:href="#m682987cd05" y="94.7"/><use x="74.4" xlink:href="#m682987cd05" y="108.6"/><use x="89.9" xlink:href="#m682987cd05" y="174"/><use x="68.7" xlink:href="#m682987cd05" y="143.4"/><use x="63.8" xlink:href="#m682987cd05" y="128"/><use x="174.1" xlink:href="#m682987cd05" y="198.6"/><use x="67.2" xlink:href="#m682987cd05" y="147.2"/><use x="77.4" xlink:href="#m682987cd05" y="106.9"/><use x="66.5" xlink:href="#m682987cd05" y="121.8"/><use x="70.2" xlink:href="#m682987cd05" y="146"/><use x="79.6" xlink:href="#m682987cd05" y="144.6"/><use x="110.9" xlink:href="#m682987cd05" y="93"/><use x="59.8" xlink:href="#m682987cd05" y="113.3"/><use x="69.2" xlink:href="#m682987cd05" y="137.4"/><use x="56.1" xlink:href="#m682987cd05" y="124.1"/><use x="106.6" xlink:href="#m682987cd05" y="174"/><use x="65.6" xlink:href="#m682987cd05" y="154.1"/><use x="108.4" xlink:href="#m682987cd05" y="176.5"/><use x="178.5" xlink:href="#m682987cd05" y="58.3"/><use x="75.2" xlink:href="#m682987cd05" y="155.1"/><use x="88.2" xlink:href="#m682987cd05" y="166.8"/><use x="95.7" xlink:href="#m682987cd05" y="104.1"/><use x="61.4" xlink:href="#m682987cd05" y="156.7"/><use x="103.5" xlink:href="#m682987cd05" y="90"/><use x="103.1" xlink:href="#m682987cd05" y="99.4"/><use x="81.7" xlink:href="#m682987cd05" y="149"/><use x="95.1" xlink:href="#m682987cd05" y="166.1"/><use x="93.3" xlink:href="#m682987cd05" y="166.8"/><use x="77.3" xlink:href="#m682987cd05" y="115.2"/><use x="87.7" xlink:href="#m682987cd05" y="105.7"/><use x="80.5" xlink:href="#m682987cd05" y="158.8"/><use x="90.2" xlink:href="#m682987cd05" y="98.2"/><use x="62" xlink:href="#m682987cd05" y="130.2"/><use x="89" xlink:href="#m682987cd05" y="166.1"/><use x="94.5" xlink:href="#m682987cd05" y="95.9"/><use x="80.5" xlink:href="#m682987cd05" y="163"/><use x="68.9" xlink:href="#m682987cd05" y="138"/><use x="85.5" xlink:href="#m682987cd05" y="163.2"/><use x="60.8" xlink:href="#m682987cd05" y="119.9"/><use x="66.1" xlink:href="#m682987cd05" y="149.1"/><use x="70.5" xlink:href="#m682987cd05" y="130.4"/><use x="146.8" xlink:href="#m682987cd05" y="71"/><use x="75.8" xlink:href="#m682987cd05" y="139"/><use x="82.3" xlink:href="#m682987cd05" y="161.5"/><use x="71.6" xlink:href="#m682987cd05" y="131.4"/><use x="117.4" xlink:href="#m682987cd05" y="178.9"/><use x="75.9" xlink:href="#m682987cd05" y="117.6"/><use x="348.5" xlink:href="#m682987cd05" y="20.6"/><use x="62.1" xlink:href="#m682987cd05" y="108.9"/><use x="71.3" xlink:href="#m682987cd05" y="129.7"/><use x="98.8" xlink:href="#m682987cd05" y="95.1"/><use x="44.2" xlink:href="#m682987cd05" y="120.7"/><use x="64.8" xlink:href="#m682987cd05" y="118.1"/><use x="62" xlink:href="#m682987cd05" y="133.8"/><use x="68" xlink:href="#m682987cd05" y="117.2"/><use x="67.9" xlink:href="#m682987cd05" y="127.9"/><use x="65.1" xlink:href="#m682987cd05" y="149.7"/><use x="82.8" xlink:href="#m682987cd05" y="105.9"/><use x="86.1" xlink:href="#m682987cd05" y="165.6"/><use x="91.3" xlink:href="#m682987cd05" y="159.3"/><use x="66" xlink:href="#m682987cd05" y="120.5"/><use x="74" xlink:href="#m682987cd05" y="154.5"/><use x="73.7" xlink:href="#m682987cd05" y="151.1"/><use x="67.6" xlink:href="#m682987cd05" y="126.7"/><use x="97.4" xlink:href="#m682987cd05" y="98.1"/><use x="79.3" xlink:href="#m682987cd05" y="109"/><use x="105.9" xlink:href="#m682987cd05" y="178.1"/><use x="71.9" xlink:href="#m682987cd05" y="123.6"/><use x="63.7" xlink:href="#m682987cd05" y="121.1"/><use x="154" xlink:href="#m682987cd05" y="197.5"/><use x="76.8" xlink:href="#m682987cd05" y="119.4"/><use x="133.5" xlink:href="#m682987cd05" y="74"/><use x="78.7" xlink:href="#m682987cd05" y="111.6"/><use x="81.2" xlink:href="#m682987cd05" y="115.5"/><use x="115.8" xlink:href="#m682987cd05" y="176.6"/><use x="67.2" xlink:href="#m682987cd05" y="122"/><use x="83.7" xlink:href="#m682987cd05" y="119"/><use x="72.7" xlink:href="#m682987cd05" y="139.8"/><use x="78.7" xlink:href="#m682987cd05" y="150.8"/><use x="76.4" xlink:href="#m682987cd05" y="117.3"/><use x="99.6" xlink:href="#m682987cd05" y="93.5"/><use x="88" xlink:href="#m682987cd05" y="159.7"/><use x="107.6" xlink:href="#m682987cd05" y="178.9"/><use x="78.4" xlink:href="#m682987cd05" y="138.7"/><use x="71.2" xlink:href="#m682987cd05" y="130.4"/><use x="75.3" xlink:href="#m682987cd05" y="121"/><use x="74.7" xlink:href="#m682987cd05" y="117.2"/><use x="72.5" xlink:href="#m682987cd05" y="142.2"/><use x="78.1" xlink:href="#m682987cd05" y="128.3"/><use x="74.8" xlink:href="#m682987cd05" y="122"/><use x="71" xlink:href="#m682987cd05" y="135.9"/><use x="96.5" xlink:href="#m682987cd05" y="93"/><use x="62.6" xlink:href="#m682987cd05" y="118.3"/><use x="76.4" xlink:href="#m682987cd05" y="108.7"/><use x="144.1" xlink:href="#m682987cd05" y="187.3"/><use x="60.3" xlink:href="#m682987cd05" y="131.2"/><use x="70.7" xlink:href="#m682987cd05" y="147.3"/><use x="78.5" xlink:href="#m682987cd05" y="112"/><use x="90.4" xlink:href="#m682987cd05" y="106.6"/><use x="58.9" xlink:href="#m682987cd05" y="135.1"/><use x="72.1" xlink:href="#m682987cd05" y="117.1"/><use x="111.1" xlink:href="#m682987cd05" y="97.1"/><use x="67.1" xlink:href="#m682987cd05" y="143"/><use x="75.3" xlink:href="#m682987cd05" y="115.4"/><use x="100.3" xlink:href="#m682987cd05" y="171.9"/><use x="65.5" xlink:href="#m682987cd05" y="130"/><use x="78.6" xlink:href="#m682987cd05" y="161.4"/><use x="96.2" xlink:href="#m682987cd05" y="154.4"/><use x="73.6" xlink:href="#m682987cd05" y="119"/><use x="68.1" xlink:href="#m682987cd05" y="127.6"/><use x="72.7" xlink:href="#m682987cd05" y="117.8"/><use x="71.5" xlink:href="#m682987cd05" y="130.3"/><use x="219.3" xlink:href="#m682987cd05" y="218.3"/><use x="62.1" xlink:href="#m682987cd05" y="129.9"/><use x="113.4" xlink:href="#m682987cd05" y="182"/><use x="164.2" xlink:href="#m682987cd05" y="74.2"/><use x="90.7" xlink:href="#m682987cd05" y="160.7"/><use x="86.9" xlink:href="#m682987cd05" y="152.3"/><use x="76.6" xlink:href="#m682987cd05" y="118.3"/><use x="78.1" xlink:href="#m682987cd05" y="128.1"/><use x="72.7" xlink:href="#m682987cd05" y="134.9"/><use x="60" xlink:href="#m682987cd05" y="136.4"/><use x="85.1" xlink:href="#m682987cd05" y="147.9"/><use x="65" xlink:href="#m682987cd05" y="147.1"/><use x="68.3" xlink:href="#m682987cd05" y="129.1"/><use x="83.1" xlink:href="#m682987cd05" y="129.8"/><use x="108.8" xlink:href="#m682987cd05" y="160.5"/><use x="79.9" xlink:href="#m682987cd05" y="148.6"/><use x="136.3" xlink:href="#m682987cd05" y="80.8"/><use x="61.6" xlink:href="#m682987cd05" y="113.3"/><use x="180.1" xlink:href="#m682987cd05" y="67.3"/><use x="78.7" xlink:href="#m682987cd05" y="118.7"/><use x="100.8" xlink:href="#m682987cd05" y="90.7"/><use x="49.1" xlink:href="#m682987cd05" y="117.9"/><use x="106.2" xlink:href="#m682987cd05" y="85.7"/><use x="54.3" xlink:href="#m682987cd05" y="130.8"/><use x="124.7" xlink:href="#m682987cd05" y="174.8"/><use x="67.7" xlink:href="#m682987cd05" y="146.4"/><use x="57.3" xlink:href="#m682987cd05" y="136.2"/><use x="73.8" xlink:href="#m682987cd05" y="116.1"/><use x="63.7" xlink:href="#m682987cd05" y="136.7"/><use x="81" xlink:href="#m682987cd05" y="150.2"/><use x="62.9" xlink:href="#m682987cd05" y="126.7"/><use x="100.1" xlink:href="#m682987cd05" y="103.4"/><use x="65.2" xlink:href="#m682987cd05" y="148.9"/><use x="64.7" xlink:href="#m682987cd05" y="138.1"/><use x="75.2" xlink:href="#m682987cd05" y="113.1"/><use x="65.6" xlink:href="#m682987cd05" y="125.1"/><use x="67.4" xlink:href="#m682987cd05" y="160.8"/><use x="65.2" xlink:href="#m682987cd05" y="137.1"/><use x="71.3" xlink:href="#m682987cd05" y="129.4"/><use x="63" xlink:href="#m682987cd05" y="146.5"/><use x="76.6" xlink:href="#m682987cd05" y="148.3"/><use x="81.2" xlink:href="#m682987cd05" y="107.7"/><use x="138.8" xlink:href="#m682987cd05" y="80.6"/><use x="75.6" xlink:href="#m682987cd05" y="141.4"/><use x="81" xlink:href="#m682987cd05" y="105.3"/><use x="89.7" xlink:href="#m682987cd05" y="162.7"/><use x="96.7" xlink:href="#m682987cd05" y="91.4"/><use x="77.8" xlink:href="#m682987cd05" y="159.4"/><use x="77.4" xlink:href="#m682987cd05" y="147.6"/><use x="60.9" xlink:href="#m682987cd05" y="153.6"/><use x="87.4" xlink:href="#m682987cd05" y="131.5"/><use x="85.9" xlink:href="#m682987cd05" y="109.2"/><use x="85.9" xlink:href="#m682987cd05" y="109.2"/><use x="53.3" xlink:href="#m682987cd05" y="132.8"/><use x="84.5" xlink:href="#m682987cd05" y="108"/><use x="64.6" xlink:href="#m682987cd05" y="135.6"/><use x="80.4" xlink:href="#m682987cd05" y="98"/><use x="99.6" xlink:href="#m682987cd05" y="93.5"/><use x="60.5" xlink:href="#m682987cd05" y="140.6"/><use x="75.9" xlink:href="#m682987cd05" y="117.8"/><use x="108.1" xlink:href="#m682987cd05" y="169.9"/><use x="82.6" xlink:href="#m682987cd05" y="154.2"/><use x="80.6" xlink:href="#m682987cd05" y="144.3"/><use x="69.4" xlink:href="#m682987cd05" y="110.6"/><use x="63.7" xlink:href="#m682987cd05" y="117.9"/><use x="94.1" xlink:href="#m682987cd05" y="175.7"/><use x="107.9" xlink:href="#m682987cd05" y="92.7"/><use x="131.2" xlink:href="#m682987cd05" y="80.5"/><use x="96.4" xlink:href="#m682987cd05" y="176.3"/><use x="108.2" xlink:href="#m682987cd05" y="93.9"/><use x="74.4" xlink:href="#m682987cd05" y="152.7"/><use x="75.7" xlink:href="#m682987cd05" y="127.4"/><use x="70.5" xlink:href="#m682987cd05" y="150"/><use x="74.4" xlink:href="#m682987cd05" y="122.1"/><use x="92.5" xlink:href="#m682987cd05" y="170.3"/><use x="73.7" xlink:href="#m682987cd05" y="147.9"/><use x="106.6" xlink:href="#m682987cd05" y="176.5"/><use x="68.6" xlink:href="#m682987cd05" y="121.4"/><use x="65.2" xlink:href="#m682987cd05" y="144.1"/><use x="59.8" xlink:href="#m682987cd05" y="129.2"/><use x="76.2" xlink:href="#m682987cd05" y="128.9"/><use x="77.8" xlink:href="#m682987cd05" y="145"/><use x="64.5" xlink:href="#m682987cd05" y="140.5"/><use x="59.8" xlink:href="#m682987cd05" y="145.9"/><use x="75.5" xlink:href="#m682987cd05" y="143.1"/><use x="75.4" xlink:href="#m682987cd05" y="161.8"/><use x="80.9" xlink:href="#m682987cd05" y="141.7"/><use x="83.6" xlink:href="#m682987cd05" y="158.9"/><use x="73.8" xlink:href="#m682987cd05" y="127.8"/><use x="76.1" xlink:href="#m682987cd05" y="156.5"/><use x="92.1" xlink:href="#m682987cd05" y="102.2"/><use x="58.6" xlink:href="#m682987cd05" y="134.1"/><use x="60.1" xlink:href="#m682987cd05" y="118.6"/><use x="81.7" xlink:href="#m682987cd05" y="127.6"/><use x="66.1" xlink:href="#m682987cd05" y="133.5"/><use x="72.8" xlink:href="#m682987cd05" y="157"/><use x="75.1" xlink:href="#m682987cd05" y="118.6"/><use x="62.4" xlink:href="#m682987cd05" y="136.8"/><use x="93" xlink:href="#m682987cd05" y="176.1"/><use x="76.5" xlink:href="#m682987cd05" y="107.1"/><use x="146" xlink:href="#m682987cd05" y="74.1"/><use x="85.7" xlink:href="#m682987cd05" y="119.1"/><use x="101.9" xlink:href="#m682987cd05" y="173.8"/><use x="62.3" xlink:href="#m682987cd05" y="133.5"/><use x="58.9" xlink:href="#m682987cd05" y="146.6"/><use x="89.7" xlink:href="#m682987cd05" y="101"/><use x="76.1" xlink:href="#m682987cd05" y="145.9"/><use x="94.5" xlink:href="#m682987cd05" y="173.7"/><use x="53.4" xlink:href="#m682987cd05" y="138.6"/><use x="99.2" xlink:href="#m682987cd05" y="169.8"/><use x="79.5" xlink:href="#m682987cd05" y="157.6"/><use x="81.8" xlink:href="#m682987cd05" y="118.7"/><use x="79" xlink:href="#m682987cd05" y="116.8"/><use x="57.7" xlink:href="#m682987cd05" y="138.6"/><use x="84.6" xlink:href="#m682987cd05" y="96.5"/><use x="72.1" xlink:href="#m682987cd05" y="129"/><use x="99.7" xlink:href="#m682987cd05" y="106"/><use x="75.1" xlink:href="#m682987cd05" y="147.5"/><use x="73.2" xlink:href="#m682987cd05" y="152.2"/><use x="70.5" xlink:href="#m682987cd05" y="143.8"/><use x="102.9" xlink:href="#m682987cd05" y="170.8"/><use x="72.8" xlink:href="#m682987cd05" y="136.2"/><use x="67.1" xlink:href="#m682987cd05" y="136.4"/><use x="195.2" xlink:href="#m682987cd05" y="58.3"/><use x="71.1" xlink:href="#m682987cd05" y="148.1"/><use x="71.5" xlink:href="#m682987cd05" y="152.9"/><use x="103.8" xlink:href="#m682987cd05" y="91.8"/><use x="90.7" xlink:href="#m682987cd05" y="147.9"/><use x="114.8" xlink:href="#m682987cd05" y="83"/><use x="73.8" xlink:href="#m682987cd05" y="113.9"/><use x="98.4" xlink:href="#m682987cd05" y="90.3"/><use x="74.9" xlink:href="#m682987cd05" y="119.9"/><use x="84.3" xlink:href="#m682987cd05" y="166.5"/><use x="84.8" xlink:href="#m682987cd05" y="165.1"/><use x="74.7" xlink:href="#m682987cd05" y="119"/><use x="77.1" xlink:href="#m682987cd05" y="152.9"/><use x="106.5" xlink:href="#m682987cd05" y="91.4"/><use x="87.5" xlink:href="#m682987cd05" y="162.1"/><use x="118.2" xlink:href="#m682987cd05" y="181.9"/><use x="73.7" xlink:href="#m682987cd05" y="117.9"/><use x="60.2" xlink:href="#m682987cd05" y="145.3"/><use x="77" xlink:href="#m682987cd05" y="142.5"/><use x="76.8" xlink:href="#m682987cd05" y="122.7"/><use x="74" xlink:href="#m682987cd05" y="159.4"/><use x="82.1" xlink:href="#m682987cd05" y="108.4"/><use x="93.3" xlink:href="#m682987cd05" y="106.2"/><use x="121.5" xlink:href="#m682987cd05" y="184.4"/><use x="68" xlink:href="#m682987cd05" y="130.9"/><use x="72.6" xlink:href="#m682987cd05" y="135.8"/><use x="72.5" xlink:href="#m682987cd05" y="129.5"/><use x="61.5" xlink:href="#m682987cd05" y="137.2"/><use x="77.6" xlink:href="#m682987cd05" y="116.1"/><use x="87.2" xlink:href="#m682987cd05" y="106.4"/><use x="63.4" xlink:href="#m682987cd05" y="137.1"/><use x="62.2" xlink:href="#m682987cd05" y="128.3"/><use x="122.8" xlink:href="#m682987cd05" y="179.4"/><use x="107.6" xlink:href="#m682987cd05" y="90.3"/><use x="72.1" xlink:href="#m682987cd05" y="142.7"/><use x="61.4" xlink:href="#m682987cd05" y="125.9"/><use x="75.7" xlink:href="#m682987cd05" y="149.9"/><use x="80.6" xlink:href="#m682987cd05" y="101.4"/><use x="84.8" xlink:href="#m682987cd05" y="103"/><use x="79" xlink:href="#m682987cd05" y="160.5"/><use x="69.2" xlink:href="#m682987cd05" y="116.5"/><use x="61.5" xlink:href="#m682987cd05" y="130.5"/><use x="53.3" xlink:href="#m682987cd05" y="133.4"/><use x="108.9" xlink:href="#m682987cd05" y="178.2"/><use x="78.2" xlink:href="#m682987cd05" y="117.5"/><use x="82.7" xlink:href="#m682987cd05" y="122.4"/><use x="87.4" xlink:href="#m682987cd05" y="162.8"/><use x="65.4" xlink:href="#m682987cd05" y="119"/><use x="69.6" xlink:href="#m682987cd05" y="148"/><use x="83.9" xlink:href="#m682987cd05" y="121"/><use x="95.5" xlink:href="#m682987cd05" y="92.5"/><use x="92.3" xlink:href="#m682987cd05" y="158"/><use x="76.2" xlink:href="#m682987cd05" y="151.3"/><use x="85.5" xlink:href="#m682987cd05" y="159.7"/><use x="62.3" xlink:href="#m682987cd05" y="133.7"/><use x="89.6" xlink:href="#m682987cd05" y="117.1"/><use x="99.5" xlink:href="#m682987cd05" y="172.5"/><use x="66.3" xlink:href="#m682987cd05" y="136.6"/><use x="104.7" xlink:href="#m682987cd05" y="172.3"/><use x="72.3" xlink:href="#m682987cd05" y="105"/><use x="58.7" xlink:href="#m682987cd05" y="121.2"/><use x="82.8" xlink:href="#m682987cd05" y="115.9"/><use x="86.6" xlink:href="#m682987cd05" y="154.3"/><use x="68.8" xlink:href="#m682987cd05" y="142.1"/><use x="55.1" xlink:href="#m682987cd05" y="120.2"/><use x="88.4" xlink:href="#m682987cd05" y="166.3"/><use x="77.9" xlink:href="#m682987cd05" y="166.8"/><use x="99.6" xlink:href="#m682987cd05" y="102.2"/><use x="68" xlink:href="#m682987cd05" y="146.8"/><use x="119.7" xlink:href="#m682987cd05" y="87"/><use x="58.4" xlink:href="#m682987cd05" y="126.4"/><use x="76.9" xlink:href="#m682987cd05" y="122.3"/><use x="85.4" xlink:href="#m682987cd05" y="108.5"/><use x="77.3" xlink:href="#m682987cd05" y="114.8"/><use x="86.2" xlink:href="#m682987cd05" y="119.1"/><use x="94.5" xlink:href="#m682987cd05" y="107.7"/><use x="60.2" xlink:href="#m682987cd05" y="149.8"/><use x="74.2" xlink:href="#m682987cd05" y="155.1"/><use x="72.3" xlink:href="#m682987cd05" y="151.3"/><use x="88.5" xlink:href="#m682987cd05" y="97.3"/><use x="75.2" xlink:href="#m682987cd05" y="130.4"/><use x="88.8" xlink:href="#m682987cd05" y="173.5"/><use x="71.1" xlink:href="#m682987cd05" y="149.8"/><use x="75.6" xlink:href="#m682987cd05" y="160.7"/><use x="87.1" xlink:href="#m682987cd05" y="171.8"/><use x="79.2" xlink:href="#m682987cd05" y="144.4"/><use x="75.1" xlink:href="#m682987cd05" y="131.7"/><use x="51.6" xlink:href="#m682987cd05" y="147.4"/><use x="73.2" xlink:href="#m682987cd05" y="121.8"/><use x="59.2" xlink:href="#m682987cd05" y="126.2"/><use x="80.4" xlink:href="#m682987cd05" y="131.4"/><use x="96.2" xlink:href="#m682987cd05" y="98.2"/><use x="121.4" xlink:href="#m682987cd05" y="89.6"/><use x="80.3" xlink:href="#m682987cd05" y="107.3"/><use x="75.9" xlink:href="#m682987cd05" y="115.2"/><use x="92.3" xlink:href="#m682987cd05" y="170.6"/><use x="93.4" xlink:href="#m682987cd05" y="166"/><use x="80.2" xlink:href="#m682987cd05" y="154.4"/><use x="78.6" xlink:href="#m682987cd05" y="124"/><use x="69.8" xlink:href="#m682987cd05" y="148.9"/><use x="93.8" xlink:href="#m682987cd05" y="107.1"/><use x="84.9" xlink:href="#m682987cd05" y="141.5"/><use x="88.2" xlink:href="#m682987cd05" y="173.6"/><use x="76.6" xlink:href="#m682987cd05" y="109.6"/><use x="80.7" xlink:href="#m682987cd05" y="159.8"/><use x="65.6" xlink:href="#m682987cd05" y="152.5"/><use x="71.3" xlink:href="#m682987cd05" y="119.2"/><use x="89.4" xlink:href="#m682987cd05" y="164.2"/><use x="141.8" xlink:href="#m682987cd05" y="72.8"/><use x="107.1" xlink:href="#m682987cd05" y="94.1"/><use x="68.9" xlink:href="#m682987cd05" y="114.7"/><use x="56.9" xlink:href="#m682987cd05" y="133.6"/><use x="110.2" xlink:href="#m682987cd05" y="87.5"/><use x="169.9" xlink:href="#m682987cd05" y="64.4"/><use x="76.5" xlink:href="#m682987cd05" y="130.4"/><use x="88.3" xlink:href="#m682987cd05" y="166.8"/><use x="100.8" xlink:href="#m682987cd05" y="94"/><use x="84.9" xlink:href="#m682987cd05" y="106.7"/><use x="122" xlink:href="#m682987cd05" y="186.1"/><use x="73.9" xlink:href="#m682987cd05" y="123.9"/><use x="66.5" xlink:href="#m682987cd05" y="138.6"/><use x="69.1" xlink:href="#m682987cd05" y="131.7"/><use x="70" xlink:href="#m682987cd05" y="151"/><use x="95.9" xlink:href="#m682987cd05" y="117.8"/><use x="96.9" xlink:href="#m682987cd05" y="181.9"/><use x="125.9" xlink:href="#m682987cd05" y="80"/><use x="65.1" xlink:href="#m682987cd05" y="141.5"/><use x="70.2" xlink:href="#m682987cd05" y="141.8"/><use x="85.6" xlink:href="#m682987cd05" y="118.4"/></g></g><path d="M29 228.1V10.7" fill="none" stroke="#000" stroke-linecap="square" stroke-width=".8" id="patch_3"/><path d="M363.7 228.1V10.7" fill="none" stroke="#000" stroke-linecap="square" stroke-width=".8" id="patch_4"/><path d="M29 228.1h334.7" fill="none" stroke="#000" stroke-linecap="square" stroke-width=".8" id="patch_5"/><path d="M29 10.7h334.7" fill="none" stroke="#000" stroke-linecap="square" stroke-width=".8" id="patch_6"/></g></g><defs><clipPath id="p4dd8485fe0"><path d="M28.9 10.7h334.8v217.4H28.9z"/></clipPath></defs></svg>