<svg height="267.599687pt" version="1.1" viewBox="0 0 402.30875 267.599687" width="402.30875pt" xmlns="http://www.w3.org/2000/svg" xmlns:xlink="http://www.w3.org/1999/xlink">
 <defs>
  <style type="text/css">
*{stroke-linecap:butt;stroke-linejoin:round;}
  </style>
 </defs>
 <g id="figure_1">
  <g id="patch_1">
   <path d="M 0 267.599687 
L 402.30875 267.599687 
L 402.30875 0 
L 0 0 
z
" style="fill:#ffffff;"></path>
  </g>
  <g id="axes_1">
   <g id="patch_2">
    <path d="M 60.30875 224.64 
L 395.10875 224.64 
L 395.10875 7.2 
L 60.30875 7.2 
z
" style="fill:#eaeaf2;"></path>
   </g>
   <g id="matplotlib.axis_1">
    <g id="xtick_1">
     <g id="line2d_1">
      <path clip-path="url(#pc1cb292fa9)" d="M 73.997466 224.64 
L 73.997466 7.2 
" style="fill:none;stroke:#ffffff;stroke-linecap:round;"></path>
     </g>
     <g id="text_1">
      <!-- 0 -->
      <defs>
       <path d="M 31.78125 66.40625 
Q 24.171875 66.40625 20.328125 58.90625 
Q 16.5 51.421875 16.5 36.375 
Q 16.5 21.390625 20.328125 13.890625 
Q 24.171875 6.390625 31.78125 6.390625 
Q 39.453125 6.390625 43.28125 13.890625 
Q 47.125 21.390625 47.125 36.375 
Q 47.125 51.421875 43.28125 58.90625 
Q 39.453125 66.40625 31.78125 66.40625 
z
M 31.78125 74.21875 
Q 44.046875 74.21875 50.515625 64.515625 
Q 56.984375 54.828125 56.984375 36.375 
Q 56.984375 17.96875 50.515625 8.265625 
Q 44.046875 -1.421875 31.78125 -1.421875 
Q 19.53125 -1.421875 13.0625 8.265625 
Q 6.59375 17.96875 6.59375 36.375 
Q 6.59375 54.828125 13.0625 64.515625 
Q 19.53125 74.21875 31.78125 74.21875 
z
" id="DejaVuSans-48"></path>
      </defs>
      <g style="fill:#262626;" transform="translate(70.498091 242.498281)scale(0.11 -0.11)">
       <use xlink:href="#DejaVuSans-48"></use>
      </g>
     </g>
    </g>
    <g id="xtick_2">
     <g id="line2d_2">
      <path clip-path="url(#pc1cb292fa9)" d="M 112.234104 224.64 
L 112.234104 7.2 
" style="fill:none;stroke:#ffffff;stroke-linecap:round;"></path>
     </g>
     <g id="text_2">
      <!-- 25 -->
      <defs>
       <path d="M 19.1875 8.296875 
L 53.609375 8.296875 
L 53.609375 0 
L 7.328125 0 
L 7.328125 8.296875 
Q 12.9375 14.109375 22.625 23.890625 
Q 32.328125 33.6875 34.8125 36.53125 
Q 39.546875 41.84375 41.421875 45.53125 
Q 43.3125 49.21875 43.3125 52.78125 
Q 43.3125 58.59375 39.234375 62.25 
Q 35.15625 65.921875 28.609375 65.921875 
Q 23.96875 65.921875 18.8125 64.3125 
Q 13.671875 62.703125 7.8125 59.421875 
L 7.8125 69.390625 
Q 13.765625 71.78125 18.9375 73 
Q 24.125 74.21875 28.421875 74.21875 
Q 39.75 74.21875 46.484375 68.546875 
Q 53.21875 62.890625 53.21875 53.421875 
Q 53.21875 48.921875 51.53125 44.890625 
Q 49.859375 40.875 45.40625 35.40625 
Q 44.1875 33.984375 37.640625 27.21875 
Q 31.109375 20.453125 19.1875 8.296875 
z
" id="DejaVuSans-50"></path>
       <path d="M 10.796875 72.90625 
L 49.515625 72.90625 
L 49.515625 64.59375 
L 19.828125 64.59375 
L 19.828125 46.734375 
Q 21.96875 47.46875 24.109375 47.828125 
Q 26.265625 48.1875 28.421875 48.1875 
Q 40.625 48.1875 47.75 41.5 
Q 54.890625 34.8125 54.890625 23.390625 
Q 54.890625 11.625 47.5625 5.09375 
Q 40.234375 -1.421875 26.90625 -1.421875 
Q 22.3125 -1.421875 17.546875 -0.640625 
Q 12.796875 0.140625 7.71875 1.703125 
L 7.71875 11.625 
Q 12.109375 9.234375 16.796875 8.0625 
Q 21.484375 6.890625 26.703125 6.890625 
Q 35.15625 6.890625 40.078125 11.328125 
Q 45.015625 15.765625 45.015625 23.390625 
Q 45.015625 31 40.078125 35.4375 
Q 35.15625 39.890625 26.703125 39.890625 
Q 22.75 39.890625 18.8125 39.015625 
Q 14.890625 38.140625 10.796875 36.28125 
z
" id="DejaVuSans-53"></path>
      </defs>
      <g style="fill:#262626;" transform="translate(105.235354 242.498281)scale(0.11 -0.11)">
       <use xlink:href="#DejaVuSans-50"></use>
       <use x="63.623047" xlink:href="#DejaVuSans-53"></use>
      </g>
     </g>
    </g>
    <g id="xtick_3">
     <g id="line2d_3">
      <path clip-path="url(#pc1cb292fa9)" d="M 150.470742 224.64 
L 150.470742 7.2 
" style="fill:none;stroke:#ffffff;stroke-linecap:round;"></path>
     </g>
     <g id="text_3">
      <!-- 50 -->
      <g style="fill:#262626;" transform="translate(143.471992 242.498281)scale(0.11 -0.11)">
       <use xlink:href="#DejaVuSans-53"></use>
       <use x="63.623047" xlink:href="#DejaVuSans-48"></use>
      </g>
     </g>
    </g>
    <g id="xtick_4">
     <g id="line2d_4">
      <path clip-path="url(#pc1cb292fa9)" d="M 188.70738 224.64 
L 188.70738 7.2 
" style="fill:none;stroke:#ffffff;stroke-linecap:round;"></path>
     </g>
     <g id="text_4">
      <!-- 75 -->
      <defs>
       <path d="M 8.203125 72.90625 
L 55.078125 72.90625 
L 55.078125 68.703125 
L 28.609375 0 
L 18.3125 0 
L 43.21875 64.59375 
L 8.203125 64.59375 
z
" id="DejaVuSans-55"></path>
      </defs>
      <g style="fill:#262626;" transform="translate(181.70863 242.498281)scale(0.11 -0.11)">
       <use xlink:href="#DejaVuSans-55"></use>
       <use x="63.623047" xlink:href="#DejaVuSans-53"></use>
      </g>
     </g>
    </g>
    <g id="xtick_5">
     <g id="line2d_5">
      <path clip-path="url(#pc1cb292fa9)" d="M 226.944017 224.64 
L 226.944017 7.2 
" style="fill:none;stroke:#ffffff;stroke-linecap:round;"></path>
     </g>
     <g id="text_5">
      <!-- 100 -->
      <defs>
       <path d="M 12.40625 8.296875 
L 28.515625 8.296875 
L 28.515625 63.921875 
L 10.984375 60.40625 
L 10.984375 69.390625 
L 28.421875 72.90625 
L 38.28125 72.90625 
L 38.28125 8.296875 
L 54.390625 8.296875 
L 54.390625 0 
L 12.40625 0 
z
" id="DejaVuSans-49"></path>
      </defs>
      <g style="fill:#262626;" transform="translate(216.445892 242.498281)scale(0.11 -0.11)">
       <use xlink:href="#DejaVuSans-49"></use>
       <use x="63.623047" xlink:href="#DejaVuSans-48"></use>
       <use x="127.246094" xlink:href="#DejaVuSans-48"></use>
      </g>
     </g>
    </g>
    <g id="xtick_6">
     <g id="line2d_6">
      <path clip-path="url(#pc1cb292fa9)" d="M 265.180655 224.64 
L 265.180655 7.2 
" style="fill:none;stroke:#ffffff;stroke-linecap:round;"></path>
     </g>
     <g id="text_6">
      <!-- 125 -->
      <g style="fill:#262626;" transform="translate(254.68253 242.498281)scale(0.11 -0.11)">
       <use xlink:href="#DejaVuSans-49"></use>
       <use x="63.623047" xlink:href="#DejaVuSans-50"></use>
       <use x="127.246094" xlink:href="#DejaVuSans-53"></use>
      </g>
     </g>
    </g>
    <g id="xtick_7">
     <g id="line2d_7">
      <path clip-path="url(#pc1cb292fa9)" d="M 303.417293 224.64 
L 303.417293 7.2 
" style="fill:none;stroke:#ffffff;stroke-linecap:round;"></path>
     </g>
     <g id="text_7">
      <!-- 150 -->
      <g style="fill:#262626;" transform="translate(292.919168 242.498281)scale(0.11 -0.11)">
       <use xlink:href="#DejaVuSans-49"></use>
       <use x="63.623047" xlink:href="#DejaVuSans-53"></use>
       <use x="127.246094" xlink:href="#DejaVuSans-48"></use>
      </g>
     </g>
    </g>
    <g id="xtick_8">
     <g id="line2d_8">
      <path clip-path="url(#pc1cb292fa9)" d="M 341.65393 224.64 
L 341.65393 7.2 
" style="fill:none;stroke:#ffffff;stroke-linecap:round;"></path>
     </g>
     <g id="text_8">
      <!-- 175 -->
      <g style="fill:#262626;" transform="translate(331.155805 242.498281)scale(0.11 -0.11)">
       <use xlink:href="#DejaVuSans-49"></use>
       <use x="63.623047" xlink:href="#DejaVuSans-55"></use>
       <use x="127.246094" xlink:href="#DejaVuSans-53"></use>
      </g>
     </g>
    </g>
    <g id="xtick_9">
     <g id="line2d_9">
      <path clip-path="url(#pc1cb292fa9)" d="M 379.890568 224.64 
L 379.890568 7.2 
" style="fill:none;stroke:#ffffff;stroke-linecap:round;"></path>
     </g>
     <g id="text_9">
      <!-- 200 -->
      <g style="fill:#262626;" transform="translate(369.392443 242.498281)scale(0.11 -0.11)">
       <use xlink:href="#DejaVuSans-50"></use>
       <use x="63.623047" xlink:href="#DejaVuSans-48"></use>
       <use x="127.246094" xlink:href="#DejaVuSans-48"></use>
      </g>
     </g>
    </g>
    <g id="text_10">
     <!-- Epoch -->
     <defs>
      <path d="M 9.8125 72.90625 
L 55.90625 72.90625 
L 55.90625 64.59375 
L 19.671875 64.59375 
L 19.671875 43.015625 
L 54.390625 43.015625 
L 54.390625 34.71875 
L 19.671875 34.71875 
L 19.671875 8.296875 
L 56.78125 8.296875 
L 56.78125 0 
L 9.8125 0 
z
" id="DejaVuSans-69"></path>
      <path d="M 18.109375 8.203125 
L 18.109375 -20.796875 
L 9.078125 -20.796875 
L 9.078125 54.6875 
L 18.109375 54.6875 
L 18.109375 46.390625 
Q 20.953125 51.265625 25.265625 53.625 
Q 29.59375 56 35.59375 56 
Q 45.5625 56 51.78125 48.09375 
Q 58.015625 40.1875 58.015625 27.296875 
Q 58.015625 14.40625 51.78125 6.484375 
Q 45.5625 -1.421875 35.59375 -1.421875 
Q 29.59375 -1.421875 25.265625 0.953125 
Q 20.953125 3.328125 18.109375 8.203125 
z
M 48.6875 27.296875 
Q 48.6875 37.203125 44.609375 42.84375 
Q 40.53125 48.484375 33.40625 48.484375 
Q 26.265625 48.484375 22.1875 42.84375 
Q 18.109375 37.203125 18.109375 27.296875 
Q 18.109375 17.390625 22.1875 11.75 
Q 26.265625 6.109375 33.40625 6.109375 
Q 40.53125 6.109375 44.609375 11.75 
Q 48.6875 17.390625 48.6875 27.296875 
z
" id="DejaVuSans-112"></path>
      <path d="M 30.609375 48.390625 
Q 23.390625 48.390625 19.1875 42.75 
Q 14.984375 37.109375 14.984375 27.296875 
Q 14.984375 17.484375 19.15625 11.84375 
Q 23.34375 6.203125 30.609375 6.203125 
Q 37.796875 6.203125 41.984375 11.859375 
Q 46.1875 17.53125 46.1875 27.296875 
Q 46.1875 37.015625 41.984375 42.703125 
Q 37.796875 48.390625 30.609375 48.390625 
z
M 30.609375 56 
Q 42.328125 56 49.015625 48.375 
Q 55.71875 40.765625 55.71875 27.296875 
Q 55.71875 13.875 49.015625 6.21875 
Q 42.328125 -1.421875 30.609375 -1.421875 
Q 18.84375 -1.421875 12.171875 6.21875 
Q 5.515625 13.875 5.515625 27.296875 
Q 5.515625 40.765625 12.171875 48.375 
Q 18.84375 56 30.609375 56 
z
" id="DejaVuSans-111"></path>
      <path d="M 48.78125 52.59375 
L 48.78125 44.1875 
Q 44.96875 46.296875 41.140625 47.34375 
Q 37.3125 48.390625 33.40625 48.390625 
Q 24.65625 48.390625 19.8125 42.84375 
Q 14.984375 37.3125 14.984375 27.296875 
Q 14.984375 17.28125 19.8125 11.734375 
Q 24.65625 6.203125 33.40625 6.203125 
Q 37.3125 6.203125 41.140625 7.25 
Q 44.96875 8.296875 48.78125 10.40625 
L 48.78125 2.09375 
Q 45.015625 0.34375 40.984375 -0.53125 
Q 36.96875 -1.421875 32.421875 -1.421875 
Q 20.0625 -1.421875 12.78125 6.34375 
Q 5.515625 14.109375 5.515625 27.296875 
Q 5.515625 40.671875 12.859375 48.328125 
Q 20.21875 56 33.015625 56 
Q 37.15625 56 41.109375 55.140625 
Q 45.0625 54.296875 48.78125 52.59375 
z
" id="DejaVuSans-99"></path>
      <path d="M 54.890625 33.015625 
L 54.890625 0 
L 45.90625 0 
L 45.90625 32.71875 
Q 45.90625 40.484375 42.875 44.328125 
Q 39.84375 48.1875 33.796875 48.1875 
Q 26.515625 48.1875 22.3125 43.546875 
Q 18.109375 38.921875 18.109375 30.90625 
L 18.109375 0 
L 9.078125 0 
L 9.078125 75.984375 
L 18.109375 75.984375 
L 18.109375 46.1875 
Q 21.34375 51.125 25.703125 53.5625 
Q 30.078125 56 35.796875 56 
Q 45.21875 56 50.046875 50.171875 
Q 54.890625 44.34375 54.890625 33.015625 
z
" id="DejaVuSans-104"></path>
     </defs>
     <g style="fill:#262626;" transform="translate(209.335625 257.904062)scale(0.12 -0.12)">
      <use xlink:href="#DejaVuSans-69"></use>
      <use x="63.183594" xlink:href="#DejaVuSans-112"></use>
      <use x="126.660156" xlink:href="#DejaVuSans-111"></use>
      <use x="187.841797" xlink:href="#DejaVuSans-99"></use>
      <use x="242.822266" xlink:href="#DejaVuSans-104"></use>
     </g>
    </g>
   </g>
   <g id="matplotlib.axis_2">
    <g id="ytick_1">
     <g id="line2d_10">
      <path clip-path="url(#pc1cb292fa9)" d="M 60.30875 215.003456 
L 395.10875 215.003456 
" style="fill:none;stroke:#ffffff;stroke-linecap:round;"></path>
     </g>
     <g id="text_11">
      <!-- 0 -->
      <g style="fill:#262626;" transform="translate(43.81 219.182597)scale(0.11 -0.11)">
       <use xlink:href="#DejaVuSans-48"></use>
      </g>
     </g>
    </g>
    <g id="ytick_2">
     <g id="line2d_11">
      <path clip-path="url(#pc1cb292fa9)" d="M 60.30875 190.695749 
L 395.10875 190.695749 
" style="fill:none;stroke:#ffffff;stroke-linecap:round;"></path>
     </g>
     <g id="text_12">
      <!-- 200 -->
      <g style="fill:#262626;" transform="translate(29.8125 194.87489)scale(0.11 -0.11)">
       <use xlink:href="#DejaVuSans-50"></use>
       <use x="63.623047" xlink:href="#DejaVuSans-48"></use>
       <use x="127.246094" xlink:href="#DejaVuSans-48"></use>
      </g>
     </g>
    </g>
    <g id="ytick_3">
     <g id="line2d_12">
      <path clip-path="url(#pc1cb292fa9)" d="M 60.30875 166.388042 
L 395.10875 166.388042 
" style="fill:none;stroke:#ffffff;stroke-linecap:round;"></path>
     </g>
     <g id="text_13">
      <!-- 400 -->
      <defs>
       <path d="M 37.796875 64.3125 
L 12.890625 25.390625 
L 37.796875 25.390625 
z
M 35.203125 72.90625 
L 47.609375 72.90625 
L 47.609375 25.390625 
L 58.015625 25.390625 
L 58.015625 17.1875 
L 47.609375 17.1875 
L 47.609375 0 
L 37.796875 0 
L 37.796875 17.1875 
L 4.890625 17.1875 
L 4.890625 26.703125 
z
" id="DejaVuSans-52"></path>
      </defs>
      <g style="fill:#262626;" transform="translate(29.8125 170.567183)scale(0.11 -0.11)">
       <use xlink:href="#DejaVuSans-52"></use>
       <use x="63.623047" xlink:href="#DejaVuSans-48"></use>
       <use x="127.246094" xlink:href="#DejaVuSans-48"></use>
      </g>
     </g>
    </g>
    <g id="ytick_4">
     <g id="line2d_13">
      <path clip-path="url(#pc1cb292fa9)" d="M 60.30875 142.080335 
L 395.10875 142.080335 
" style="fill:none;stroke:#ffffff;stroke-linecap:round;"></path>
     </g>
     <g id="text_14">
      <!-- 600 -->
      <defs>
       <path d="M 33.015625 40.375 
Q 26.375 40.375 22.484375 35.828125 
Q 18.609375 31.296875 18.609375 23.390625 
Q 18.609375 15.53125 22.484375 10.953125 
Q 26.375 6.390625 33.015625 6.390625 
Q 39.65625 6.390625 43.53125 10.953125 
Q 47.40625 15.53125 47.40625 23.390625 
Q 47.40625 31.296875 43.53125 35.828125 
Q 39.65625 40.375 33.015625 40.375 
z
M 52.59375 71.296875 
L 52.59375 62.3125 
Q 48.875 64.0625 45.09375 64.984375 
Q 41.3125 65.921875 37.59375 65.921875 
Q 27.828125 65.921875 22.671875 59.328125 
Q 17.53125 52.734375 16.796875 39.40625 
Q 19.671875 43.65625 24.015625 45.921875 
Q 28.375 48.1875 33.59375 48.1875 
Q 44.578125 48.1875 50.953125 41.515625 
Q 57.328125 34.859375 57.328125 23.390625 
Q 57.328125 12.15625 50.6875 5.359375 
Q 44.046875 -1.421875 33.015625 -1.421875 
Q 20.359375 -1.421875 13.671875 8.265625 
Q 6.984375 17.96875 6.984375 36.375 
Q 6.984375 53.65625 15.1875 63.9375 
Q 23.390625 74.21875 37.203125 74.21875 
Q 40.921875 74.21875 44.703125 73.484375 
Q 48.484375 72.75 52.59375 71.296875 
z
" id="DejaVuSans-54"></path>
      </defs>
      <g style="fill:#262626;" transform="translate(29.8125 146.259475)scale(0.11 -0.11)">
       <use xlink:href="#DejaVuSans-54"></use>
       <use x="63.623047" xlink:href="#DejaVuSans-48"></use>
       <use x="127.246094" xlink:href="#DejaVuSans-48"></use>
      </g>
     </g>
    </g>
    <g id="ytick_5">
     <g id="line2d_14">
      <path clip-path="url(#pc1cb292fa9)" d="M 60.30875 117.772628 
L 395.10875 117.772628 
" style="fill:none;stroke:#ffffff;stroke-linecap:round;"></path>
     </g>
     <g id="text_15">
      <!-- 800 -->
      <defs>
       <path d="M 31.78125 34.625 
Q 24.75 34.625 20.71875 30.859375 
Q 16.703125 27.09375 16.703125 20.515625 
Q 16.703125 13.921875 20.71875 10.15625 
Q 24.75 6.390625 31.78125 6.390625 
Q 38.8125 6.390625 42.859375 10.171875 
Q 46.921875 13.96875 46.921875 20.515625 
Q 46.921875 27.09375 42.890625 30.859375 
Q 38.875 34.625 31.78125 34.625 
z
M 21.921875 38.8125 
Q 15.578125 40.375 12.03125 44.71875 
Q 8.5 49.078125 8.5 55.328125 
Q 8.5 64.0625 14.71875 69.140625 
Q 20.953125 74.21875 31.78125 74.21875 
Q 42.671875 74.21875 48.875 69.140625 
Q 55.078125 64.0625 55.078125 55.328125 
Q 55.078125 49.078125 51.53125 44.71875 
Q 48 40.375 41.703125 38.8125 
Q 48.828125 37.15625 52.796875 32.3125 
Q 56.78125 27.484375 56.78125 20.515625 
Q 56.78125 9.90625 50.3125 4.234375 
Q 43.84375 -1.421875 31.78125 -1.421875 
Q 19.734375 -1.421875 13.25 4.234375 
Q 6.78125 9.90625 6.78125 20.515625 
Q 6.78125 27.484375 10.78125 32.3125 
Q 14.796875 37.15625 21.921875 38.8125 
z
M 18.3125 54.390625 
Q 18.3125 48.734375 21.84375 45.5625 
Q 25.390625 42.390625 31.78125 42.390625 
Q 38.140625 42.390625 41.71875 45.5625 
Q 45.3125 48.734375 45.3125 54.390625 
Q 45.3125 60.0625 41.71875 63.234375 
Q 38.140625 66.40625 31.78125 66.40625 
Q 25.390625 66.40625 21.84375 63.234375 
Q 18.3125 60.0625 18.3125 54.390625 
z
" id="DejaVuSans-56"></path>
      </defs>
      <g style="fill:#262626;" transform="translate(29.8125 121.951768)scale(0.11 -0.11)">
       <use xlink:href="#DejaVuSans-56"></use>
       <use x="63.623047" xlink:href="#DejaVuSans-48"></use>
       <use x="127.246094" xlink:href="#DejaVuSans-48"></use>
      </g>
     </g>
    </g>
    <g id="ytick_6">
     <g id="line2d_15">
      <path clip-path="url(#pc1cb292fa9)" d="M 60.30875 93.46492 
L 395.10875 93.46492 
" style="fill:none;stroke:#ffffff;stroke-linecap:round;"></path>
     </g>
     <g id="text_16">
      <!-- 1000 -->
      <g style="fill:#262626;" transform="translate(22.81375 97.644061)scale(0.11 -0.11)">
       <use xlink:href="#DejaVuSans-49"></use>
       <use x="63.623047" xlink:href="#DejaVuSans-48"></use>
       <use x="127.246094" xlink:href="#DejaVuSans-48"></use>
       <use x="190.869141" xlink:href="#DejaVuSans-48"></use>
      </g>
     </g>
    </g>
    <g id="ytick_7">
     <g id="line2d_16">
      <path clip-path="url(#pc1cb292fa9)" d="M 60.30875 69.157213 
L 395.10875 69.157213 
" style="fill:none;stroke:#ffffff;stroke-linecap:round;"></path>
     </g>
     <g id="text_17">
      <!-- 1200 -->
      <g style="fill:#262626;" transform="translate(22.81375 73.336354)scale(0.11 -0.11)">
       <use xlink:href="#DejaVuSans-49"></use>
       <use x="63.623047" xlink:href="#DejaVuSans-50"></use>
       <use x="127.246094" xlink:href="#DejaVuSans-48"></use>
       <use x="190.869141" xlink:href="#DejaVuSans-48"></use>
      </g>
     </g>
    </g>
    <g id="ytick_8">
     <g id="line2d_17">
      <path clip-path="url(#pc1cb292fa9)" d="M 60.30875 44.849506 
L 395.10875 44.849506 
" style="fill:none;stroke:#ffffff;stroke-linecap:round;"></path>
     </g>
     <g id="text_18">
      <!-- 1400 -->
      <g style="fill:#262626;" transform="translate(22.81375 49.028646)scale(0.11 -0.11)">
       <use xlink:href="#DejaVuSans-49"></use>
       <use x="63.623047" xlink:href="#DejaVuSans-52"></use>
       <use x="127.246094" xlink:href="#DejaVuSans-48"></use>
       <use x="190.869141" xlink:href="#DejaVuSans-48"></use>
      </g>
     </g>
    </g>
    <g id="ytick_9">
     <g id="line2d_18">
      <path clip-path="url(#pc1cb292fa9)" d="M 60.30875 20.541799 
L 395.10875 20.541799 
" style="fill:none;stroke:#ffffff;stroke-linecap:round;"></path>
     </g>
     <g id="text_19">
      <!-- 1600 -->
      <g style="fill:#262626;" transform="translate(22.81375 24.720939)scale(0.11 -0.11)">
       <use xlink:href="#DejaVuSans-49"></use>
       <use x="63.623047" xlink:href="#DejaVuSans-54"></use>
       <use x="127.246094" xlink:href="#DejaVuSans-48"></use>
       <use x="190.869141" xlink:href="#DejaVuSans-48"></use>
      </g>
     </g>
    </g>
    <g id="text_20">
     <!-- ELBO -->
     <defs>
      <path d="M 9.8125 72.90625 
L 19.671875 72.90625 
L 19.671875 8.296875 
L 55.171875 8.296875 
L 55.171875 0 
L 9.8125 0 
z
" id="DejaVuSans-76"></path>
      <path d="M 19.671875 34.8125 
L 19.671875 8.109375 
L 35.5 8.109375 
Q 43.453125 8.109375 47.28125 11.40625 
Q 51.125 14.703125 51.125 21.484375 
Q 51.125 28.328125 47.28125 31.5625 
Q 43.453125 34.8125 35.5 34.8125 
z
M 19.671875 64.796875 
L 19.671875 42.828125 
L 34.28125 42.828125 
Q 41.5 42.828125 45.03125 45.53125 
Q 48.578125 48.25 48.578125 53.8125 
Q 48.578125 59.328125 45.03125 62.0625 
Q 41.5 64.796875 34.28125 64.796875 
z
M 9.8125 72.90625 
L 35.015625 72.90625 
Q 46.296875 72.90625 52.390625 68.21875 
Q 58.5 63.53125 58.5 54.890625 
Q 58.5 48.1875 55.375 44.234375 
Q 52.25 40.28125 46.1875 39.3125 
Q 53.46875 37.75 57.5 32.78125 
Q 61.53125 27.828125 61.53125 20.40625 
Q 61.53125 10.640625 54.890625 5.3125 
Q 48.25 0 35.984375 0 
L 9.8125 0 
z
" id="DejaVuSans-66"></path>
      <path d="M 39.40625 66.21875 
Q 28.65625 66.21875 22.328125 58.203125 
Q 16.015625 50.203125 16.015625 36.375 
Q 16.015625 22.609375 22.328125 14.59375 
Q 28.65625 6.59375 39.40625 6.59375 
Q 50.140625 6.59375 56.421875 14.59375 
Q 62.703125 22.609375 62.703125 36.375 
Q 62.703125 50.203125 56.421875 58.203125 
Q 50.140625 66.21875 39.40625 66.21875 
z
M 39.40625 74.21875 
Q 54.734375 74.21875 63.90625 63.9375 
Q 73.09375 53.65625 73.09375 36.375 
Q 73.09375 19.140625 63.90625 8.859375 
Q 54.734375 -1.421875 39.40625 -1.421875 
Q 24.03125 -1.421875 14.8125 8.828125 
Q 5.609375 19.09375 5.609375 36.375 
Q 5.609375 53.65625 14.8125 63.9375 
Q 24.03125 74.21875 39.40625 74.21875 
z
" id="DejaVuSans-79"></path>
     </defs>
     <g style="fill:#262626;" transform="translate(16.318125 131.789062)rotate(-90)scale(0.12 -0.12)">
      <use xlink:href="#DejaVuSans-69"></use>
      <use x="63.183594" xlink:href="#DejaVuSans-76"></use>
      <use x="118.896484" xlink:href="#DejaVuSans-66"></use>
      <use x="185.75" xlink:href="#DejaVuSans-79"></use>
     </g>
    </g>
   </g>
   <g id="line2d_19">
    <path clip-path="url(#pc1cb292fa9)" d="M 75.526932 17.083636 
L 77.056397 124.03136 
L 78.585863 192.313571 
L 80.115328 208.011031 
L 81.644794 214.065593 
L 83.174259 212.731719 
L 84.703725 213.593782 
L 86.23319 207.026821 
L 87.762656 206.513949 
L 89.292121 207.335922 
L 90.821587 208.496802 
L 92.351052 209.291423 
L 93.880518 213.045565 
L 95.409983 208.951996 
L 96.939449 211.403556 
L 98.468914 211.089455 
L 99.99838 211.664679 
L 101.527845 214.22196 
L 103.057311 210.884218 
L 104.586776 212.48846 
L 106.116242 213.635972 
L 107.645708 214.478503 
L 109.175173 213.749186 
L 110.704639 213.150389 
L 112.234104 210.785553 
L 113.76357 210.666508 
L 115.293035 213.404895 
L 116.822501 209.596452 
L 118.351966 213.755869 
L 119.881432 211.669567 
L 121.410897 206.765112 
L 122.940363 213.046696 
L 124.469828 213.474132 
L 125.999294 214.130163 
L 127.528759 213.348485 
L 130.58769 212.796577 
L 132.117156 214.131481 
L 133.646621 213.698903 
L 135.176087 214.048945 
L 136.705552 213.441045 
L 138.235018 213.583979 
L 139.764483 211.0247 
L 141.293949 212.764148 
L 142.823414 213.369557 
L 144.35288 210.846386 
L 145.882345 214.226958 
L 147.411811 212.503384 
L 148.941276 212.078961 
L 150.470742 214.635679 
L 152.000207 214.178413 
L 153.529673 213.459429 
L 155.059138 213.837578 
L 156.588604 214.730199 
L 158.118069 213.338081 
L 159.647535 213.16662 
L 161.177 214.184203 
L 162.706466 212.978238 
L 165.765397 211.511944 
L 167.294862 213.045402 
L 168.824328 213.949888 
L 170.353793 212.852294 
L 171.883259 213.668103 
L 173.412724 214.749463 
L 174.94219 214.125605 
L 176.471655 214.421183 
L 178.001121 213.583222 
L 179.530586 213.534119 
L 181.060052 214.04244 
L 182.589517 214.39422 
L 184.118983 213.906649 
L 185.648448 213.735493 
L 187.177914 214.181617 
L 188.70738 213.972447 
L 190.236845 214.566399 
L 191.766311 214.269224 
L 193.295776 214.694283 
L 194.825242 214.662357 
L 196.354707 214.085077 
L 197.884173 213.883407 
L 199.413638 214.443504 
L 200.943104 214.444057 
L 202.472569 214.057001 
L 204.002035 214.302018 
L 205.5315 213.897864 
L 207.060966 214.090231 
L 208.590431 214.044225 
L 210.119897 214.339961 
L 211.649362 214.352806 
L 213.178828 213.185676 
L 214.708293 214.666284 
L 216.237759 213.939832 
L 217.767224 213.83084 
L 219.29669 213.928729 
L 220.826155 213.513537 
L 222.355621 214.666741 
L 223.885086 214.593213 
L 225.414552 214.731449 
L 228.473483 214.142178 
L 230.002948 214.726692 
L 231.532414 213.832762 
L 233.061879 214.024904 
L 234.591345 214.084097 
L 236.12081 214.507769 
L 237.650276 214.501528 
L 239.179741 214.627296 
L 240.709207 214.158833 
L 242.238672 214.626895 
L 243.768138 214.085791 
L 245.297603 214.008782 
L 246.827069 214.522473 
L 248.356534 213.31708 
L 251.415465 214.205243 
L 252.944931 214.376099 
L 254.474396 214.048721 
L 256.003862 214.005349 
L 257.533327 214.41696 
L 260.592258 214.688902 
L 262.121724 214.484038 
L 265.180655 214.458628 
L 266.71012 214.298337 
L 268.239586 214.51986 
L 269.769052 213.900776 
L 271.298517 214.091502 
L 272.827983 214.456927 
L 274.357448 214.414169 
L 275.886914 214.647437 
L 277.416379 214.737741 
L 278.945845 214.343383 
L 280.47531 213.751652 
L 282.004776 214.508981 
L 283.534241 214.40188 
L 285.063707 214.58117 
L 286.593172 214.463332 
L 288.122638 214.592369 
L 289.652103 214.105852 
L 291.181569 214.067019 
L 292.711034 214.70377 
L 294.2405 214.654241 
L 295.769965 214.376057 
L 297.299431 214.377542 
L 298.828896 214.590579 
L 300.358362 214.409998 
L 301.887827 214.590509 
L 303.417293 214.351614 
L 304.946758 214.722405 
L 306.476224 214.65022 
L 308.005689 214.188179 
L 309.535155 214.646536 
L 311.06462 214.489538 
L 312.594086 214.484857 
L 314.123551 214.642289 
L 317.182482 214.521028 
L 318.711948 213.657565 
L 320.241413 214.523608 
L 321.770879 214.756364 
L 324.82981 214.151445 
L 326.359275 214.621353 
L 330.947672 214.451646 
L 332.477137 214.164311 
L 334.006603 214.667199 
L 335.536068 214.750126 
L 337.065534 214.413663 
L 338.594999 214.680339 
L 341.65393 214.620697 
L 344.712861 214.529531 
L 347.771792 214.710382 
L 349.301258 214.538633 
L 350.830724 214.145069 
L 352.360189 214.613028 
L 353.889655 214.130916 
L 355.41912 214.371038 
L 356.948586 214.422495 
L 358.478051 214.005408 
L 360.007517 214.596729 
L 363.066448 214.722008 
L 364.595913 214.556652 
L 366.125379 214.598177 
L 367.654844 214.515789 
L 369.18431 214.634629 
L 370.713775 214.237509 
L 373.772706 214.557389 
L 376.831637 214.561818 
L 378.361103 214.585093 
L 379.890568 214.429658 
L 379.890568 214.429658 
" style="fill:none;stroke:#4c72b0;stroke-linecap:round;stroke-width:1.5;"></path>
   </g>
   <g id="patch_3">
    <path d="M 60.30875 224.64 
L 60.30875 7.2 
" style="fill:none;stroke:#ffffff;stroke-linecap:square;stroke-linejoin:miter;stroke-width:1.25;"></path>
   </g>
   <g id="patch_4">
    <path d="M 395.10875 224.64 
L 395.10875 7.2 
" style="fill:none;stroke:#ffffff;stroke-linecap:square;stroke-linejoin:miter;stroke-width:1.25;"></path>
   </g>
   <g id="patch_5">
    <path d="M 60.30875 224.64 
L 395.10875 224.64 
" style="fill:none;stroke:#ffffff;stroke-linecap:square;stroke-linejoin:miter;stroke-width:1.25;"></path>
   </g>
   <g id="patch_6">
    <path d="M 60.30875 7.2 
L 395.10875 7.2 
" style="fill:none;stroke:#ffffff;stroke-linecap:square;stroke-linejoin:miter;stroke-width:1.25;"></path>
   </g>
  </g>
 </g>
 <defs>
  <clippath id="pc1cb292fa9">
   <rect height="217.44" width="334.8" x="60.30875" y="7.2"></rect>
  </clippath>
 </defs>
</svg>