<svg height="267.599687pt" version="1.1" viewBox="0 0 412.803437 267.599687" width="412.803437pt" xmlns="http://www.w3.org/2000/svg" xmlns:xlink="http://www.w3.org/1999/xlink">
 <defs>
  <style type="text/css">
*{stroke-linecap:butt;stroke-linejoin:round;}
  </style>
 </defs>
 <g id="figure_1">
  <g id="patch_1">
   <path d="M 0 267.599687 
L 412.803437 267.599687 
L 412.803437 0 
L 0 0 
z
" style="fill:#ffffff;"></path>
  </g>
  <g id="axes_1">
   <g id="patch_2">
    <path d="M 70.803438 224.64 
L 405.603438 224.64 
L 405.603438 7.2 
L 70.803438 7.2 
z
" style="fill:#eaeaf2;"></path>
   </g>
   <g id="matplotlib.axis_1">
    <g id="xtick_1">
     <g id="line2d_1">
      <path clip-path="url(#p1b2bb55b9b)" d="M 82.947239 224.64 
L 82.947239 7.2 
" style="fill:none;stroke:#ffffff;stroke-linecap:round;"></path>
     </g>
     <g id="text_1">
      <!-- 0 -->
      <defs>
       <path d="M 31.78125 66.40625 
Q 24.171875 66.40625 20.328125 58.90625 
Q 16.5 51.421875 16.5 36.375 
Q 16.5 21.390625 20.328125 13.890625 
Q 24.171875 6.390625 31.78125 6.390625 
Q 39.453125 6.390625 43.28125 13.890625 
Q 47.125 21.390625 47.125 36.375 
Q 47.125 51.421875 43.28125 58.90625 
Q 39.453125 66.40625 31.78125 66.40625 
z
M 31.78125 74.21875 
Q 44.046875 74.21875 50.515625 64.515625 
Q 56.984375 54.828125 56.984375 36.375 
Q 56.984375 17.96875 50.515625 8.265625 
Q 44.046875 -1.421875 31.78125 -1.421875 
Q 19.53125 -1.421875 13.0625 8.265625 
Q 6.59375 17.96875 6.59375 36.375 
Q 6.59375 54.828125 13.0625 64.515625 
Q 19.53125 74.21875 31.78125 74.21875 
z
" id="DejaVuSans-48"></path>
      </defs>
      <g style="fill:#262626;" transform="translate(79.447864 242.498281)scale(0.11 -0.11)">
       <use xlink:href="#DejaVuSans-48"></use>
      </g>
     </g>
    </g>
    <g id="xtick_2">
     <g id="line2d_2">
      <path clip-path="url(#p1b2bb55b9b)" d="M 144.434842 224.64 
L 144.434842 7.2 
" style="fill:none;stroke:#ffffff;stroke-linecap:round;"></path>
     </g>
     <g id="text_2">
      <!-- 20 -->
      <defs>
       <path d="M 19.1875 8.296875 
L 53.609375 8.296875 
L 53.609375 0 
L 7.328125 0 
L 7.328125 8.296875 
Q 12.9375 14.109375 22.625 23.890625 
Q 32.328125 33.6875 34.8125 36.53125 
Q 39.546875 41.84375 41.421875 45.53125 
Q 43.3125 49.21875 43.3125 52.78125 
Q 43.3125 58.59375 39.234375 62.25 
Q 35.15625 65.921875 28.609375 65.921875 
Q 23.96875 65.921875 18.8125 64.3125 
Q 13.671875 62.703125 7.8125 59.421875 
L 7.8125 69.390625 
Q 13.765625 71.78125 18.9375 73 
Q 24.125 74.21875 28.421875 74.21875 
Q 39.75 74.21875 46.484375 68.546875 
Q 53.21875 62.890625 53.21875 53.421875 
Q 53.21875 48.921875 51.53125 44.890625 
Q 49.859375 40.875 45.40625 35.40625 
Q 44.1875 33.984375 37.640625 27.21875 
Q 31.109375 20.453125 19.1875 8.296875 
z
" id="DejaVuSans-50"></path>
      </defs>
      <g style="fill:#262626;" transform="translate(137.436092 242.498281)scale(0.11 -0.11)">
       <use xlink:href="#DejaVuSans-50"></use>
       <use x="63.623047" xlink:href="#DejaVuSans-48"></use>
      </g>
     </g>
    </g>
    <g id="xtick_3">
     <g id="line2d_3">
      <path clip-path="url(#p1b2bb55b9b)" d="M 205.922446 224.64 
L 205.922446 7.2 
" style="fill:none;stroke:#ffffff;stroke-linecap:round;"></path>
     </g>
     <g id="text_3">
      <!-- 40 -->
      <defs>
       <path d="M 37.796875 64.3125 
L 12.890625 25.390625 
L 37.796875 25.390625 
z
M 35.203125 72.90625 
L 47.609375 72.90625 
L 47.609375 25.390625 
L 58.015625 25.390625 
L 58.015625 17.1875 
L 47.609375 17.1875 
L 47.609375 0 
L 37.796875 0 
L 37.796875 17.1875 
L 4.890625 17.1875 
L 4.890625 26.703125 
z
" id="DejaVuSans-52"></path>
      </defs>
      <g style="fill:#262626;" transform="translate(198.923696 242.498281)scale(0.11 -0.11)">
       <use xlink:href="#DejaVuSans-52"></use>
       <use x="63.623047" xlink:href="#DejaVuSans-48"></use>
      </g>
     </g>
    </g>
    <g id="xtick_4">
     <g id="line2d_4">
      <path clip-path="url(#p1b2bb55b9b)" d="M 267.410049 224.64 
L 267.410049 7.2 
" style="fill:none;stroke:#ffffff;stroke-linecap:round;"></path>
     </g>
     <g id="text_4">
      <!-- 60 -->
      <defs>
       <path d="M 33.015625 40.375 
Q 26.375 40.375 22.484375 35.828125 
Q 18.609375 31.296875 18.609375 23.390625 
Q 18.609375 15.53125 22.484375 10.953125 
Q 26.375 6.390625 33.015625 6.390625 
Q 39.65625 6.390625 43.53125 10.953125 
Q 47.40625 15.53125 47.40625 23.390625 
Q 47.40625 31.296875 43.53125 35.828125 
Q 39.65625 40.375 33.015625 40.375 
z
M 52.59375 71.296875 
L 52.59375 62.3125 
Q 48.875 64.0625 45.09375 64.984375 
Q 41.3125 65.921875 37.59375 65.921875 
Q 27.828125 65.921875 22.671875 59.328125 
Q 17.53125 52.734375 16.796875 39.40625 
Q 19.671875 43.65625 24.015625 45.921875 
Q 28.375 48.1875 33.59375 48.1875 
Q 44.578125 48.1875 50.953125 41.515625 
Q 57.328125 34.859375 57.328125 23.390625 
Q 57.328125 12.15625 50.6875 5.359375 
Q 44.046875 -1.421875 33.015625 -1.421875 
Q 20.359375 -1.421875 13.671875 8.265625 
Q 6.984375 17.96875 6.984375 36.375 
Q 6.984375 53.65625 15.1875 63.9375 
Q 23.390625 74.21875 37.203125 74.21875 
Q 40.921875 74.21875 44.703125 73.484375 
Q 48.484375 72.75 52.59375 71.296875 
z
" id="DejaVuSans-54"></path>
      </defs>
      <g style="fill:#262626;" transform="translate(260.411299 242.498281)scale(0.11 -0.11)">
       <use xlink:href="#DejaVuSans-54"></use>
       <use x="63.623047" xlink:href="#DejaVuSans-48"></use>
      </g>
     </g>
    </g>
    <g id="xtick_5">
     <g id="line2d_5">
      <path clip-path="url(#p1b2bb55b9b)" d="M 328.897652 224.64 
L 328.897652 7.2 
" style="fill:none;stroke:#ffffff;stroke-linecap:round;"></path>
     </g>
     <g id="text_5">
      <!-- 80 -->
      <defs>
       <path d="M 31.78125 34.625 
Q 24.75 34.625 20.71875 30.859375 
Q 16.703125 27.09375 16.703125 20.515625 
Q 16.703125 13.921875 20.71875 10.15625 
Q 24.75 6.390625 31.78125 6.390625 
Q 38.8125 6.390625 42.859375 10.171875 
Q 46.921875 13.96875 46.921875 20.515625 
Q 46.921875 27.09375 42.890625 30.859375 
Q 38.875 34.625 31.78125 34.625 
z
M 21.921875 38.8125 
Q 15.578125 40.375 12.03125 44.71875 
Q 8.5 49.078125 8.5 55.328125 
Q 8.5 64.0625 14.71875 69.140625 
Q 20.953125 74.21875 31.78125 74.21875 
Q 42.671875 74.21875 48.875 69.140625 
Q 55.078125 64.0625 55.078125 55.328125 
Q 55.078125 49.078125 51.53125 44.71875 
Q 48 40.375 41.703125 38.8125 
Q 48.828125 37.15625 52.796875 32.3125 
Q 56.78125 27.484375 56.78125 20.515625 
Q 56.78125 9.90625 50.3125 4.234375 
Q 43.84375 -1.421875 31.78125 -1.421875 
Q 19.734375 -1.421875 13.25 4.234375 
Q 6.78125 9.90625 6.78125 20.515625 
Q 6.78125 27.484375 10.78125 32.3125 
Q 14.796875 37.15625 21.921875 38.8125 
z
M 18.3125 54.390625 
Q 18.3125 48.734375 21.84375 45.5625 
Q 25.390625 42.390625 31.78125 42.390625 
Q 38.140625 42.390625 41.71875 45.5625 
Q 45.3125 48.734375 45.3125 54.390625 
Q 45.3125 60.0625 41.71875 63.234375 
Q 38.140625 66.40625 31.78125 66.40625 
Q 25.390625 66.40625 21.84375 63.234375 
Q 18.3125 60.0625 18.3125 54.390625 
z
" id="DejaVuSans-56"></path>
      </defs>
      <g style="fill:#262626;" transform="translate(321.898902 242.498281)scale(0.11 -0.11)">
       <use xlink:href="#DejaVuSans-56"></use>
       <use x="63.623047" xlink:href="#DejaVuSans-48"></use>
      </g>
     </g>
    </g>
    <g id="xtick_6">
     <g id="line2d_6">
      <path clip-path="url(#p1b2bb55b9b)" d="M 390.385256 224.64 
L 390.385256 7.2 
" style="fill:none;stroke:#ffffff;stroke-linecap:round;"></path>
     </g>
     <g id="text_6">
      <!-- 100 -->
      <defs>
       <path d="M 12.40625 8.296875 
L 28.515625 8.296875 
L 28.515625 63.921875 
L 10.984375 60.40625 
L 10.984375 69.390625 
L 28.421875 72.90625 
L 38.28125 72.90625 
L 38.28125 8.296875 
L 54.390625 8.296875 
L 54.390625 0 
L 12.40625 0 
z
" id="DejaVuSans-49"></path>
      </defs>
      <g style="fill:#262626;" transform="translate(379.887131 242.498281)scale(0.11 -0.11)">
       <use xlink:href="#DejaVuSans-49"></use>
       <use x="63.623047" xlink:href="#DejaVuSans-48"></use>
       <use x="127.246094" xlink:href="#DejaVuSans-48"></use>
      </g>
     </g>
    </g>
    <g id="text_7">
     <!-- Epoch -->
     <defs>
      <path d="M 9.8125 72.90625 
L 55.90625 72.90625 
L 55.90625 64.59375 
L 19.671875 64.59375 
L 19.671875 43.015625 
L 54.390625 43.015625 
L 54.390625 34.71875 
L 19.671875 34.71875 
L 19.671875 8.296875 
L 56.78125 8.296875 
L 56.78125 0 
L 9.8125 0 
z
" id="DejaVuSans-69"></path>
      <path d="M 18.109375 8.203125 
L 18.109375 -20.796875 
L 9.078125 -20.796875 
L 9.078125 54.6875 
L 18.109375 54.6875 
L 18.109375 46.390625 
Q 20.953125 51.265625 25.265625 53.625 
Q 29.59375 56 35.59375 56 
Q 45.5625 56 51.78125 48.09375 
Q 58.015625 40.1875 58.015625 27.296875 
Q 58.015625 14.40625 51.78125 6.484375 
Q 45.5625 -1.421875 35.59375 -1.421875 
Q 29.59375 -1.421875 25.265625 0.953125 
Q 20.953125 3.328125 18.109375 8.203125 
z
M 48.6875 27.296875 
Q 48.6875 37.203125 44.609375 42.84375 
Q 40.53125 48.484375 33.40625 48.484375 
Q 26.265625 48.484375 22.1875 42.84375 
Q 18.109375 37.203125 18.109375 27.296875 
Q 18.109375 17.390625 22.1875 11.75 
Q 26.265625 6.109375 33.40625 6.109375 
Q 40.53125 6.109375 44.609375 11.75 
Q 48.6875 17.390625 48.6875 27.296875 
z
" id="DejaVuSans-112"></path>
      <path d="M 30.609375 48.390625 
Q 23.390625 48.390625 19.1875 42.75 
Q 14.984375 37.109375 14.984375 27.296875 
Q 14.984375 17.484375 19.15625 11.84375 
Q 23.34375 6.203125 30.609375 6.203125 
Q 37.796875 6.203125 41.984375 11.859375 
Q 46.1875 17.53125 46.1875 27.296875 
Q 46.1875 37.015625 41.984375 42.703125 
Q 37.796875 48.390625 30.609375 48.390625 
z
M 30.609375 56 
Q 42.328125 56 49.015625 48.375 
Q 55.71875 40.765625 55.71875 27.296875 
Q 55.71875 13.875 49.015625 6.21875 
Q 42.328125 -1.421875 30.609375 -1.421875 
Q 18.84375 -1.421875 12.171875 6.21875 
Q 5.515625 13.875 5.515625 27.296875 
Q 5.515625 40.765625 12.171875 48.375 
Q 18.84375 56 30.609375 56 
z
" id="DejaVuSans-111"></path>
      <path d="M 48.78125 52.59375 
L 48.78125 44.1875 
Q 44.96875 46.296875 41.140625 47.34375 
Q 37.3125 48.390625 33.40625 48.390625 
Q 24.65625 48.390625 19.8125 42.84375 
Q 14.984375 37.3125 14.984375 27.296875 
Q 14.984375 17.28125 19.8125 11.734375 
Q 24.65625 6.203125 33.40625 6.203125 
Q 37.3125 6.203125 41.140625 7.25 
Q 44.96875 8.296875 48.78125 10.40625 
L 48.78125 2.09375 
Q 45.015625 0.34375 40.984375 -0.53125 
Q 36.96875 -1.421875 32.421875 -1.421875 
Q 20.0625 -1.421875 12.78125 6.34375 
Q 5.515625 14.109375 5.515625 27.296875 
Q 5.515625 40.671875 12.859375 48.328125 
Q 20.21875 56 33.015625 56 
Q 37.15625 56 41.109375 55.140625 
Q 45.0625 54.296875 48.78125 52.59375 
z
" id="DejaVuSans-99"></path>
      <path d="M 54.890625 33.015625 
L 54.890625 0 
L 45.90625 0 
L 45.90625 32.71875 
Q 45.90625 40.484375 42.875 44.328125 
Q 39.84375 48.1875 33.796875 48.1875 
Q 26.515625 48.1875 22.3125 43.546875 
Q 18.109375 38.921875 18.109375 30.90625 
L 18.109375 0 
L 9.078125 0 
L 9.078125 75.984375 
L 18.109375 75.984375 
L 18.109375 46.1875 
Q 21.34375 51.125 25.703125 53.5625 
Q 30.078125 56 35.796875 56 
Q 45.21875 56 50.046875 50.171875 
Q 54.890625 44.34375 54.890625 33.015625 
z
" id="DejaVuSans-104"></path>
     </defs>
     <g style="fill:#262626;" transform="translate(219.830313 257.904062)scale(0.12 -0.12)">
      <use xlink:href="#DejaVuSans-69"></use>
      <use x="63.183594" xlink:href="#DejaVuSans-112"></use>
      <use x="126.660156" xlink:href="#DejaVuSans-111"></use>
      <use x="187.841797" xlink:href="#DejaVuSans-99"></use>
      <use x="242.822266" xlink:href="#DejaVuSans-104"></use>
     </g>
    </g>
   </g>
   <g id="matplotlib.axis_2">
    <g id="ytick_1">
     <g id="line2d_7">
      <path clip-path="url(#p1b2bb55b9b)" d="M 70.803438 192.792727 
L 405.603438 192.792727 
" style="fill:none;stroke:#ffffff;stroke-linecap:round;"></path>
     </g>
     <g id="text_8">
      <!-- 0.0002 -->
      <defs>
       <path d="M 10.6875 12.40625 
L 21 12.40625 
L 21 0 
L 10.6875 0 
z
" id="DejaVuSans-46"></path>
      </defs>
      <g style="fill:#262626;" transform="translate(22.81375 196.971868)scale(0.11 -0.11)">
       <use xlink:href="#DejaVuSans-48"></use>
       <use x="63.623047" xlink:href="#DejaVuSans-46"></use>
       <use x="95.410156" xlink:href="#DejaVuSans-48"></use>
       <use x="159.033203" xlink:href="#DejaVuSans-48"></use>
       <use x="222.65625" xlink:href="#DejaVuSans-48"></use>
       <use x="286.279297" xlink:href="#DejaVuSans-50"></use>
      </g>
     </g>
    </g>
    <g id="ytick_2">
     <g id="line2d_8">
      <path clip-path="url(#p1b2bb55b9b)" d="M 70.803438 148.865455 
L 405.603438 148.865455 
" style="fill:none;stroke:#ffffff;stroke-linecap:round;"></path>
     </g>
     <g id="text_9">
      <!-- 0.0004 -->
      <g style="fill:#262626;" transform="translate(22.81375 153.044595)scale(0.11 -0.11)">
       <use xlink:href="#DejaVuSans-48"></use>
       <use x="63.623047" xlink:href="#DejaVuSans-46"></use>
       <use x="95.410156" xlink:href="#DejaVuSans-48"></use>
       <use x="159.033203" xlink:href="#DejaVuSans-48"></use>
       <use x="222.65625" xlink:href="#DejaVuSans-48"></use>
       <use x="286.279297" xlink:href="#DejaVuSans-52"></use>
      </g>
     </g>
    </g>
    <g id="ytick_3">
     <g id="line2d_9">
      <path clip-path="url(#p1b2bb55b9b)" d="M 70.803438 104.938182 
L 405.603438 104.938182 
" style="fill:none;stroke:#ffffff;stroke-linecap:round;"></path>
     </g>
     <g id="text_10">
      <!-- 0.0006 -->
      <g style="fill:#262626;" transform="translate(22.81375 109.117322)scale(0.11 -0.11)">
       <use xlink:href="#DejaVuSans-48"></use>
       <use x="63.623047" xlink:href="#DejaVuSans-46"></use>
       <use x="95.410156" xlink:href="#DejaVuSans-48"></use>
       <use x="159.033203" xlink:href="#DejaVuSans-48"></use>
       <use x="222.65625" xlink:href="#DejaVuSans-48"></use>
       <use x="286.279297" xlink:href="#DejaVuSans-54"></use>
      </g>
     </g>
    </g>
    <g id="ytick_4">
     <g id="line2d_10">
      <path clip-path="url(#p1b2bb55b9b)" d="M 70.803438 61.010909 
L 405.603438 61.010909 
" style="fill:none;stroke:#ffffff;stroke-linecap:round;"></path>
     </g>
     <g id="text_11">
      <!-- 0.0008 -->
      <g style="fill:#262626;" transform="translate(22.81375 65.19005)scale(0.11 -0.11)">
       <use xlink:href="#DejaVuSans-48"></use>
       <use x="63.623047" xlink:href="#DejaVuSans-46"></use>
       <use x="95.410156" xlink:href="#DejaVuSans-48"></use>
       <use x="159.033203" xlink:href="#DejaVuSans-48"></use>
       <use x="222.65625" xlink:href="#DejaVuSans-48"></use>
       <use x="286.279297" xlink:href="#DejaVuSans-56"></use>
      </g>
     </g>
    </g>
    <g id="ytick_5">
     <g id="line2d_11">
      <path clip-path="url(#p1b2bb55b9b)" d="M 70.803438 17.083636 
L 405.603438 17.083636 
" style="fill:none;stroke:#ffffff;stroke-linecap:round;"></path>
     </g>
     <g id="text_12">
      <!-- 0.0010 -->
      <g style="fill:#262626;" transform="translate(22.81375 21.262777)scale(0.11 -0.11)">
       <use xlink:href="#DejaVuSans-48"></use>
       <use x="63.623047" xlink:href="#DejaVuSans-46"></use>
       <use x="95.410156" xlink:href="#DejaVuSans-48"></use>
       <use x="159.033203" xlink:href="#DejaVuSans-48"></use>
       <use x="222.65625" xlink:href="#DejaVuSans-49"></use>
       <use x="286.279297" xlink:href="#DejaVuSans-48"></use>
      </g>
     </g>
    </g>
    <g id="text_13">
     <!-- Learning Rate -->
     <defs>
      <path d="M 9.8125 72.90625 
L 19.671875 72.90625 
L 19.671875 8.296875 
L 55.171875 8.296875 
L 55.171875 0 
L 9.8125 0 
z
" id="DejaVuSans-76"></path>
      <path d="M 56.203125 29.59375 
L 56.203125 25.203125 
L 14.890625 25.203125 
Q 15.484375 15.921875 20.484375 11.0625 
Q 25.484375 6.203125 34.421875 6.203125 
Q 39.59375 6.203125 44.453125 7.46875 
Q 49.3125 8.734375 54.109375 11.28125 
L 54.109375 2.78125 
Q 49.265625 0.734375 44.1875 -0.34375 
Q 39.109375 -1.421875 33.890625 -1.421875 
Q 20.796875 -1.421875 13.15625 6.1875 
Q 5.515625 13.8125 5.515625 26.8125 
Q 5.515625 40.234375 12.765625 48.109375 
Q 20.015625 56 32.328125 56 
Q 43.359375 56 49.78125 48.890625 
Q 56.203125 41.796875 56.203125 29.59375 
z
M 47.21875 32.234375 
Q 47.125 39.59375 43.09375 43.984375 
Q 39.0625 48.390625 32.421875 48.390625 
Q 24.90625 48.390625 20.390625 44.140625 
Q 15.875 39.890625 15.1875 32.171875 
z
" id="DejaVuSans-101"></path>
      <path d="M 34.28125 27.484375 
Q 23.390625 27.484375 19.1875 25 
Q 14.984375 22.515625 14.984375 16.5 
Q 14.984375 11.71875 18.140625 8.90625 
Q 21.296875 6.109375 26.703125 6.109375 
Q 34.1875 6.109375 38.703125 11.40625 
Q 43.21875 16.703125 43.21875 25.484375 
L 43.21875 27.484375 
z
M 52.203125 31.203125 
L 52.203125 0 
L 43.21875 0 
L 43.21875 8.296875 
Q 40.140625 3.328125 35.546875 0.953125 
Q 30.953125 -1.421875 24.3125 -1.421875 
Q 15.921875 -1.421875 10.953125 3.296875 
Q 6 8.015625 6 15.921875 
Q 6 25.140625 12.171875 29.828125 
Q 18.359375 34.515625 30.609375 34.515625 
L 43.21875 34.515625 
L 43.21875 35.40625 
Q 43.21875 41.609375 39.140625 45 
Q 35.0625 48.390625 27.6875 48.390625 
Q 23 48.390625 18.546875 47.265625 
Q 14.109375 46.140625 10.015625 43.890625 
L 10.015625 52.203125 
Q 14.9375 54.109375 19.578125 55.046875 
Q 24.21875 56 28.609375 56 
Q 40.484375 56 46.34375 49.84375 
Q 52.203125 43.703125 52.203125 31.203125 
z
" id="DejaVuSans-97"></path>
      <path d="M 41.109375 46.296875 
Q 39.59375 47.171875 37.8125 47.578125 
Q 36.03125 48 33.890625 48 
Q 26.265625 48 22.1875 43.046875 
Q 18.109375 38.09375 18.109375 28.8125 
L 18.109375 0 
L 9.078125 0 
L 9.078125 54.6875 
L 18.109375 54.6875 
L 18.109375 46.1875 
Q 20.953125 51.171875 25.484375 53.578125 
Q 30.03125 56 36.53125 56 
Q 37.453125 56 38.578125 55.875 
Q 39.703125 55.765625 41.0625 55.515625 
z
" id="DejaVuSans-114"></path>
      <path d="M 54.890625 33.015625 
L 54.890625 0 
L 45.90625 0 
L 45.90625 32.71875 
Q 45.90625 40.484375 42.875 44.328125 
Q 39.84375 48.1875 33.796875 48.1875 
Q 26.515625 48.1875 22.3125 43.546875 
Q 18.109375 38.921875 18.109375 30.90625 
L 18.109375 0 
L 9.078125 0 
L 9.078125 54.6875 
L 18.109375 54.6875 
L 18.109375 46.1875 
Q 21.34375 51.125 25.703125 53.5625 
Q 30.078125 56 35.796875 56 
Q 45.21875 56 50.046875 50.171875 
Q 54.890625 44.34375 54.890625 33.015625 
z
" id="DejaVuSans-110"></path>
      <path d="M 9.421875 54.6875 
L 18.40625 54.6875 
L 18.40625 0 
L 9.421875 0 
z
M 9.421875 75.984375 
L 18.40625 75.984375 
L 18.40625 64.59375 
L 9.421875 64.59375 
z
" id="DejaVuSans-105"></path>
      <path d="M 45.40625 27.984375 
Q 45.40625 37.75 41.375 43.109375 
Q 37.359375 48.484375 30.078125 48.484375 
Q 22.859375 48.484375 18.828125 43.109375 
Q 14.796875 37.75 14.796875 27.984375 
Q 14.796875 18.265625 18.828125 12.890625 
Q 22.859375 7.515625 30.078125 7.515625 
Q 37.359375 7.515625 41.375 12.890625 
Q 45.40625 18.265625 45.40625 27.984375 
z
M 54.390625 6.78125 
Q 54.390625 -7.171875 48.1875 -13.984375 
Q 42 -20.796875 29.203125 -20.796875 
Q 24.46875 -20.796875 20.265625 -20.09375 
Q 16.0625 -19.390625 12.109375 -17.921875 
L 12.109375 -9.1875 
Q 16.0625 -11.328125 19.921875 -12.34375 
Q 23.78125 -13.375 27.78125 -13.375 
Q 36.625 -13.375 41.015625 -8.765625 
Q 45.40625 -4.15625 45.40625 5.171875 
L 45.40625 9.625 
Q 42.625 4.78125 38.28125 2.390625 
Q 33.9375 0 27.875 0 
Q 17.828125 0 11.671875 7.65625 
Q 5.515625 15.328125 5.515625 27.984375 
Q 5.515625 40.671875 11.671875 48.328125 
Q 17.828125 56 27.875 56 
Q 33.9375 56 38.28125 53.609375 
Q 42.625 51.21875 45.40625 46.390625 
L 45.40625 54.6875 
L 54.390625 54.6875 
z
" id="DejaVuSans-103"></path>
      <path id="DejaVuSans-32"></path>
      <path d="M 44.390625 34.1875 
Q 47.5625 33.109375 50.5625 29.59375 
Q 53.5625 26.078125 56.59375 19.921875 
L 66.609375 0 
L 56 0 
L 46.6875 18.703125 
Q 43.0625 26.03125 39.671875 28.421875 
Q 36.28125 30.8125 30.421875 30.8125 
L 19.671875 30.8125 
L 19.671875 0 
L 9.8125 0 
L 9.8125 72.90625 
L 32.078125 72.90625 
Q 44.578125 72.90625 50.734375 67.671875 
Q 56.890625 62.453125 56.890625 51.90625 
Q 56.890625 45.015625 53.6875 40.46875 
Q 50.484375 35.9375 44.390625 34.1875 
z
M 19.671875 64.796875 
L 19.671875 38.921875 
L 32.078125 38.921875 
Q 39.203125 38.921875 42.84375 42.21875 
Q 46.484375 45.515625 46.484375 51.90625 
Q 46.484375 58.296875 42.84375 61.546875 
Q 39.203125 64.796875 32.078125 64.796875 
z
" id="DejaVuSans-82"></path>
      <path d="M 18.3125 70.21875 
L 18.3125 54.6875 
L 36.8125 54.6875 
L 36.8125 47.703125 
L 18.3125 47.703125 
L 18.3125 18.015625 
Q 18.3125 11.328125 20.140625 9.421875 
Q 21.96875 7.515625 27.59375 7.515625 
L 36.8125 7.515625 
L 36.8125 0 
L 27.59375 0 
Q 17.1875 0 13.234375 3.875 
Q 9.28125 7.765625 9.28125 18.015625 
L 9.28125 47.703125 
L 2.6875 47.703125 
L 2.6875 54.6875 
L 9.28125 54.6875 
L 9.28125 70.21875 
z
" id="DejaVuSans-116"></path>
     </defs>
     <g style="fill:#262626;" transform="translate(16.318125 157.63125)rotate(-90)scale(0.12 -0.12)">
      <use xlink:href="#DejaVuSans-76"></use>
      <use x="53.962891" xlink:href="#DejaVuSans-101"></use>
      <use x="115.486328" xlink:href="#DejaVuSans-97"></use>
      <use x="176.765625" xlink:href="#DejaVuSans-114"></use>
      <use x="216.128906" xlink:href="#DejaVuSans-110"></use>
      <use x="279.507812" xlink:href="#DejaVuSans-105"></use>
      <use x="307.291016" xlink:href="#DejaVuSans-110"></use>
      <use x="370.669922" xlink:href="#DejaVuSans-103"></use>
      <use x="434.146484" xlink:href="#DejaVuSans-32"></use>
      <use x="465.933594" xlink:href="#DejaVuSans-82"></use>
      <use x="533.166016" xlink:href="#DejaVuSans-97"></use>
      <use x="594.445312" xlink:href="#DejaVuSans-116"></use>
      <use x="633.654297" xlink:href="#DejaVuSans-101"></use>
     </g>
    </g>
   </g>
   <g id="line2d_12">
    <path clip-path="url(#p1b2bb55b9b)" d="M 86.021619 17.083636 
L 89.095999 19.080331 
L 92.17038 21.077025 
L 95.24476 23.073719 
L 98.31914 25.070413 
L 101.39352 27.067107 
L 104.4679 29.063802 
L 107.54228 31.060496 
L 110.616661 33.05719 
L 113.691041 35.053884 
L 116.765421 37.050579 
L 119.839801 39.047273 
L 122.914181 41.043967 
L 125.988561 43.040661 
L 129.062942 45.037355 
L 132.137322 47.03405 
L 135.211702 49.030744 
L 138.286082 51.027438 
L 141.360462 53.024132 
L 144.434842 55.020826 
L 147.509223 57.017521 
L 150.583603 59.014215 
L 153.657983 61.010909 
L 156.732363 63.007603 
L 159.806743 65.004298 
L 162.881123 67.000992 
L 165.955504 68.997686 
L 169.029884 70.99438 
L 172.104264 72.991074 
L 175.178644 74.987769 
L 178.253024 76.984463 
L 181.327404 78.981157 
L 184.401785 80.977851 
L 187.476165 82.974545 
L 190.550545 84.97124 
L 193.624925 86.967934 
L 196.699305 88.964628 
L 199.773685 90.961322 
L 202.848066 92.958017 
L 205.922446 94.954711 
L 208.996826 96.951405 
L 212.071206 98.948099 
L 215.145586 100.944793 
L 218.219966 102.941488 
L 221.294347 104.938182 
L 224.368727 106.934876 
L 227.443107 108.93157 
L 230.517487 110.928264 
L 233.591867 112.924959 
L 236.666247 114.921653 
L 239.740628 116.918347 
L 242.815008 118.915041 
L 245.889388 120.911736 
L 248.963768 122.90843 
L 252.038148 124.905124 
L 255.112528 126.901818 
L 258.186909 128.898512 
L 261.261289 130.895207 
L 264.335669 132.891901 
L 267.410049 134.888595 
L 270.484429 136.885289 
L 273.558809 138.881983 
L 276.63319 140.878678 
L 279.70757 142.875372 
L 282.78195 144.872066 
L 285.85633 146.86876 
L 288.93071 148.865455 
L 292.00509 150.862149 
L 295.079471 152.858843 
L 298.153851 154.855537 
L 301.228231 156.852231 
L 304.302611 158.848926 
L 307.376991 160.84562 
L 310.451371 162.842314 
L 313.525752 164.839008 
L 316.600132 166.835702 
L 319.674512 168.832397 
L 322.748892 170.829091 
L 325.823272 172.825785 
L 328.897652 174.822479 
L 331.972033 176.819174 
L 335.046413 178.815868 
L 338.120793 180.812562 
L 341.195173 182.809256 
L 344.269553 184.80595 
L 347.343933 186.802645 
L 350.418314 188.799339 
L 353.492694 190.796033 
L 356.567074 192.792727 
L 359.641454 194.789421 
L 362.715834 196.786116 
L 365.790214 198.78281 
L 368.864595 200.779504 
L 371.938975 202.776198 
L 375.013355 204.772893 
L 378.087735 206.769587 
L 381.162115 208.766281 
L 384.236495 210.762975 
L 387.310876 212.759669 
L 390.385256 214.756364 
" style="fill:none;stroke:#4c72b0;stroke-linecap:round;stroke-width:1.5;"></path>
   </g>
   <g id="patch_3">
    <path d="M 70.803438 224.64 
L 70.803438 7.2 
" style="fill:none;stroke:#ffffff;stroke-linecap:square;stroke-linejoin:miter;stroke-width:1.25;"></path>
   </g>
   <g id="patch_4">
    <path d="M 405.603438 224.64 
L 405.603438 7.2 
" style="fill:none;stroke:#ffffff;stroke-linecap:square;stroke-linejoin:miter;stroke-width:1.25;"></path>
   </g>
   <g id="patch_5">
    <path d="M 70.803438 224.64 
L 405.603438 224.64 
" style="fill:none;stroke:#ffffff;stroke-linecap:square;stroke-linejoin:miter;stroke-width:1.25;"></path>
   </g>
   <g id="patch_6">
    <path d="M 70.803438 7.2 
L 405.603438 7.2 
" style="fill:none;stroke:#ffffff;stroke-linecap:square;stroke-linejoin:miter;stroke-width:1.25;"></path>
   </g>
  </g>
 </g>
 <defs>
  <clippath id="p1b2bb55b9b">
   <rect height="217.44" width="334.8" x="70.803438" y="7.2"></rect>
  </clippath>
 </defs>
</svg>