<svg height="270.500953pt" version="1.1" viewBox="0 0 396.70658 270.500953" width="396.70658pt" xmlns="http://www.w3.org/2000/svg" xmlns:xlink="http://www.w3.org/1999/xlink">
 <defs>
  <style type="text/css">
*{stroke-linecap:butt;stroke-linejoin:round;}
  </style>
 </defs>
 <g id="figure_1">
  <g id="patch_1">
   <path d="M 0 270.500953 
L 396.70658 270.500953 
L 396.70658 0 
L 0 0 
z
" style="fill:#ffffff;"></path>
  </g>
  <g id="axes_1">
   <g id="patch_2">
    <path d="M 49.807187 227.541266 
L 384.607188 227.541266 
L 384.607188 10.101266 
L 49.807187 10.101266 
z
" style="fill:#eaeaf2;"></path>
   </g>
   <g id="matplotlib.axis_1">
    <g id="xtick_1">
     <g id="line2d_1">
      <path clip-path="url(#p4484f2ce58)" d="M 83.762674 227.541266 
L 83.762674 10.101266 
" style="fill:none;stroke:#ffffff;stroke-linecap:round;"></path>
     </g>
     <g id="text_1">
      <!-- 0.9 -->
      <defs>
       <path d="M 31.78125 66.40625 
Q 24.171875 66.40625 20.328125 58.90625 
Q 16.5 51.421875 16.5 36.375 
Q 16.5 21.390625 20.328125 13.890625 
Q 24.171875 6.390625 31.78125 6.390625 
Q 39.453125 6.390625 43.28125 13.890625 
Q 47.125 21.390625 47.125 36.375 
Q 47.125 51.421875 43.28125 58.90625 
Q 39.453125 66.40625 31.78125 66.40625 
z
M 31.78125 74.21875 
Q 44.046875 74.21875 50.515625 64.515625 
Q 56.984375 54.828125 56.984375 36.375 
Q 56.984375 17.96875 50.515625 8.265625 
Q 44.046875 -1.421875 31.78125 -1.421875 
Q 19.53125 -1.421875 13.0625 8.265625 
Q 6.59375 17.96875 6.59375 36.375 
Q 6.59375 54.828125 13.0625 64.515625 
Q 19.53125 74.21875 31.78125 74.21875 
z
" id="DejaVuSans-48"></path>
       <path d="M 10.6875 12.40625 
L 21 12.40625 
L 21 0 
L 10.6875 0 
z
" id="DejaVuSans-46"></path>
       <path d="M 10.984375 1.515625 
L 10.984375 10.5 
Q 14.703125 8.734375 18.5 7.8125 
Q 22.3125 6.890625 25.984375 6.890625 
Q 35.75 6.890625 40.890625 13.453125 
Q 46.046875 20.015625 46.78125 33.40625 
Q 43.953125 29.203125 39.59375 26.953125 
Q 35.25 24.703125 29.984375 24.703125 
Q 19.046875 24.703125 12.671875 31.3125 
Q 6.296875 37.9375 6.296875 49.421875 
Q 6.296875 60.640625 12.9375 67.421875 
Q 19.578125 74.21875 30.609375 74.21875 
Q 43.265625 74.21875 49.921875 64.515625 
Q 56.59375 54.828125 56.59375 36.375 
Q 56.59375 19.140625 48.40625 8.859375 
Q 40.234375 -1.421875 26.421875 -1.421875 
Q 22.703125 -1.421875 18.890625 -0.6875 
Q 15.09375 0.046875 10.984375 1.515625 
z
M 30.609375 32.421875 
Q 37.25 32.421875 41.125 36.953125 
Q 45.015625 41.5 45.015625 49.421875 
Q 45.015625 57.28125 41.125 61.84375 
Q 37.25 66.40625 30.609375 66.40625 
Q 23.96875 66.40625 20.09375 61.84375 
Q 16.21875 57.28125 16.21875 49.421875 
Q 16.21875 41.5 20.09375 36.953125 
Q 23.96875 32.421875 30.609375 32.421875 
z
" id="DejaVuSans-57"></path>
      </defs>
      <g style="fill:#262626;" transform="translate(75.015956 245.399547)scale(0.11 -0.11)">
       <use xlink:href="#DejaVuSans-48"></use>
       <use x="63.623047" xlink:href="#DejaVuSans-46"></use>
       <use x="95.410156" xlink:href="#DejaVuSans-57"></use>
      </g>
     </g>
    </g>
    <g id="xtick_2">
     <g id="line2d_2">
      <path clip-path="url(#p4484f2ce58)" d="M 126.190844 227.541266 
L 126.190844 10.101266 
" style="fill:none;stroke:#ffffff;stroke-linecap:round;"></path>
     </g>
     <g id="text_2">
      <!-- 1.0 -->
      <defs>
       <path d="M 12.40625 8.296875 
L 28.515625 8.296875 
L 28.515625 63.921875 
L 10.984375 60.40625 
L 10.984375 69.390625 
L 28.421875 72.90625 
L 38.28125 72.90625 
L 38.28125 8.296875 
L 54.390625 8.296875 
L 54.390625 0 
L 12.40625 0 
z
" id="DejaVuSans-49"></path>
      </defs>
      <g style="fill:#262626;" transform="translate(117.444125 245.399547)scale(0.11 -0.11)">
       <use xlink:href="#DejaVuSans-49"></use>
       <use x="63.623047" xlink:href="#DejaVuSans-46"></use>
       <use x="95.410156" xlink:href="#DejaVuSans-48"></use>
      </g>
     </g>
    </g>
    <g id="xtick_3">
     <g id="line2d_3">
      <path clip-path="url(#p4484f2ce58)" d="M 168.619014 227.541266 
L 168.619014 10.101266 
" style="fill:none;stroke:#ffffff;stroke-linecap:round;"></path>
     </g>
     <g id="text_3">
      <!-- 1.1 -->
      <g style="fill:#262626;" transform="translate(159.872295 245.399547)scale(0.11 -0.11)">
       <use xlink:href="#DejaVuSans-49"></use>
       <use x="63.623047" xlink:href="#DejaVuSans-46"></use>
       <use x="95.410156" xlink:href="#DejaVuSans-49"></use>
      </g>
     </g>
    </g>
    <g id="xtick_4">
     <g id="line2d_4">
      <path clip-path="url(#p4484f2ce58)" d="M 211.047183 227.541266 
L 211.047183 10.101266 
" style="fill:none;stroke:#ffffff;stroke-linecap:round;"></path>
     </g>
     <g id="text_4">
      <!-- 1.2 -->
      <defs>
       <path d="M 19.1875 8.296875 
L 53.609375 8.296875 
L 53.609375 0 
L 7.328125 0 
L 7.328125 8.296875 
Q 12.9375 14.109375 22.625 23.890625 
Q 32.328125 33.6875 34.8125 36.53125 
Q 39.546875 41.84375 41.421875 45.53125 
Q 43.3125 49.21875 43.3125 52.78125 
Q 43.3125 58.59375 39.234375 62.25 
Q 35.15625 65.921875 28.609375 65.921875 
Q 23.96875 65.921875 18.8125 64.3125 
Q 13.671875 62.703125 7.8125 59.421875 
L 7.8125 69.390625 
Q 13.765625 71.78125 18.9375 73 
Q 24.125 74.21875 28.421875 74.21875 
Q 39.75 74.21875 46.484375 68.546875 
Q 53.21875 62.890625 53.21875 53.421875 
Q 53.21875 48.921875 51.53125 44.890625 
Q 49.859375 40.875 45.40625 35.40625 
Q 44.1875 33.984375 37.640625 27.21875 
Q 31.109375 20.453125 19.1875 8.296875 
z
" id="DejaVuSans-50"></path>
      </defs>
      <g style="fill:#262626;" transform="translate(202.300464 245.399547)scale(0.11 -0.11)">
       <use xlink:href="#DejaVuSans-49"></use>
       <use x="63.623047" xlink:href="#DejaVuSans-46"></use>
       <use x="95.410156" xlink:href="#DejaVuSans-50"></use>
      </g>
     </g>
    </g>
    <g id="xtick_5">
     <g id="line2d_5">
      <path clip-path="url(#p4484f2ce58)" d="M 253.475353 227.541266 
L 253.475353 10.101266 
" style="fill:none;stroke:#ffffff;stroke-linecap:round;"></path>
     </g>
     <g id="text_5">
      <!-- 1.3 -->
      <defs>
       <path d="M 40.578125 39.3125 
Q 47.65625 37.796875 51.625 33 
Q 55.609375 28.21875 55.609375 21.1875 
Q 55.609375 10.40625 48.1875 4.484375 
Q 40.765625 -1.421875 27.09375 -1.421875 
Q 22.515625 -1.421875 17.65625 -0.515625 
Q 12.796875 0.390625 7.625 2.203125 
L 7.625 11.71875 
Q 11.71875 9.328125 16.59375 8.109375 
Q 21.484375 6.890625 26.8125 6.890625 
Q 36.078125 6.890625 40.9375 10.546875 
Q 45.796875 14.203125 45.796875 21.1875 
Q 45.796875 27.640625 41.28125 31.265625 
Q 36.765625 34.90625 28.71875 34.90625 
L 20.21875 34.90625 
L 20.21875 43.015625 
L 29.109375 43.015625 
Q 36.375 43.015625 40.234375 45.921875 
Q 44.09375 48.828125 44.09375 54.296875 
Q 44.09375 59.90625 40.109375 62.90625 
Q 36.140625 65.921875 28.71875 65.921875 
Q 24.65625 65.921875 20.015625 65.03125 
Q 15.375 64.15625 9.8125 62.3125 
L 9.8125 71.09375 
Q 15.4375 72.65625 20.34375 73.4375 
Q 25.25 74.21875 29.59375 74.21875 
Q 40.828125 74.21875 47.359375 69.109375 
Q 53.90625 64.015625 53.90625 55.328125 
Q 53.90625 49.265625 50.4375 45.09375 
Q 46.96875 40.921875 40.578125 39.3125 
z
" id="DejaVuSans-51"></path>
      </defs>
      <g style="fill:#262626;" transform="translate(244.728634 245.399547)scale(0.11 -0.11)">
       <use xlink:href="#DejaVuSans-49"></use>
       <use x="63.623047" xlink:href="#DejaVuSans-46"></use>
       <use x="95.410156" xlink:href="#DejaVuSans-51"></use>
      </g>
     </g>
    </g>
    <g id="xtick_6">
     <g id="line2d_6">
      <path clip-path="url(#p4484f2ce58)" d="M 295.903522 227.541266 
L 295.903522 10.101266 
" style="fill:none;stroke:#ffffff;stroke-linecap:round;"></path>
     </g>
     <g id="text_6">
      <!-- 1.4 -->
      <defs>
       <path d="M 37.796875 64.3125 
L 12.890625 25.390625 
L 37.796875 25.390625 
z
M 35.203125 72.90625 
L 47.609375 72.90625 
L 47.609375 25.390625 
L 58.015625 25.390625 
L 58.015625 17.1875 
L 47.609375 17.1875 
L 47.609375 0 
L 37.796875 0 
L 37.796875 17.1875 
L 4.890625 17.1875 
L 4.890625 26.703125 
z
" id="DejaVuSans-52"></path>
      </defs>
      <g style="fill:#262626;" transform="translate(287.156804 245.399547)scale(0.11 -0.11)">
       <use xlink:href="#DejaVuSans-49"></use>
       <use x="63.623047" xlink:href="#DejaVuSans-46"></use>
       <use x="95.410156" xlink:href="#DejaVuSans-52"></use>
      </g>
     </g>
    </g>
    <g id="xtick_7">
     <g id="line2d_7">
      <path clip-path="url(#p4484f2ce58)" d="M 338.331692 227.541266 
L 338.331692 10.101266 
" style="fill:none;stroke:#ffffff;stroke-linecap:round;"></path>
     </g>
     <g id="text_7">
      <!-- 1.5 -->
      <defs>
       <path d="M 10.796875 72.90625 
L 49.515625 72.90625 
L 49.515625 64.59375 
L 19.828125 64.59375 
L 19.828125 46.734375 
Q 21.96875 47.46875 24.109375 47.828125 
Q 26.265625 48.1875 28.421875 48.1875 
Q 40.625 48.1875 47.75 41.5 
Q 54.890625 34.8125 54.890625 23.390625 
Q 54.890625 11.625 47.5625 5.09375 
Q 40.234375 -1.421875 26.90625 -1.421875 
Q 22.3125 -1.421875 17.546875 -0.640625 
Q 12.796875 0.140625 7.71875 1.703125 
L 7.71875 11.625 
Q 12.109375 9.234375 16.796875 8.0625 
Q 21.484375 6.890625 26.703125 6.890625 
Q 35.15625 6.890625 40.078125 11.328125 
Q 45.015625 15.765625 45.015625 23.390625 
Q 45.015625 31 40.078125 35.4375 
Q 35.15625 39.890625 26.703125 39.890625 
Q 22.75 39.890625 18.8125 39.015625 
Q 14.890625 38.140625 10.796875 36.28125 
z
" id="DejaVuSans-53"></path>
      </defs>
      <g style="fill:#262626;" transform="translate(329.584973 245.399547)scale(0.11 -0.11)">
       <use xlink:href="#DejaVuSans-49"></use>
       <use x="63.623047" xlink:href="#DejaVuSans-46"></use>
       <use x="95.410156" xlink:href="#DejaVuSans-53"></use>
      </g>
     </g>
    </g>
    <g id="xtick_8">
     <g id="line2d_8">
      <path clip-path="url(#p4484f2ce58)" d="M 380.759862 227.541266 
L 380.759862 10.101266 
" style="fill:none;stroke:#ffffff;stroke-linecap:round;"></path>
     </g>
     <g id="text_8">
      <!-- 1.6 -->
      <defs>
       <path d="M 33.015625 40.375 
Q 26.375 40.375 22.484375 35.828125 
Q 18.609375 31.296875 18.609375 23.390625 
Q 18.609375 15.53125 22.484375 10.953125 
Q 26.375 6.390625 33.015625 6.390625 
Q 39.65625 6.390625 43.53125 10.953125 
Q 47.40625 15.53125 47.40625 23.390625 
Q 47.40625 31.296875 43.53125 35.828125 
Q 39.65625 40.375 33.015625 40.375 
z
M 52.59375 71.296875 
L 52.59375 62.3125 
Q 48.875 64.0625 45.09375 64.984375 
Q 41.3125 65.921875 37.59375 65.921875 
Q 27.828125 65.921875 22.671875 59.328125 
Q 17.53125 52.734375 16.796875 39.40625 
Q 19.671875 43.65625 24.015625 45.921875 
Q 28.375 48.1875 33.59375 48.1875 
Q 44.578125 48.1875 50.953125 41.515625 
Q 57.328125 34.859375 57.328125 23.390625 
Q 57.328125 12.15625 50.6875 5.359375 
Q 44.046875 -1.421875 33.015625 -1.421875 
Q 20.359375 -1.421875 13.671875 8.265625 
Q 6.984375 17.96875 6.984375 36.375 
Q 6.984375 53.65625 15.1875 63.9375 
Q 23.390625 74.21875 37.203125 74.21875 
Q 40.921875 74.21875 44.703125 73.484375 
Q 48.484375 72.75 52.59375 71.296875 
z
" id="DejaVuSans-54"></path>
      </defs>
      <g style="fill:#262626;" transform="translate(372.013143 245.399547)scale(0.11 -0.11)">
       <use xlink:href="#DejaVuSans-49"></use>
       <use x="63.623047" xlink:href="#DejaVuSans-46"></use>
       <use x="95.410156" xlink:href="#DejaVuSans-54"></use>
      </g>
     </g>
    </g>
    <g id="text_9">
     <!-- Time (s) -->
     <defs>
      <path d="M -0.296875 72.90625 
L 61.375 72.90625 
L 61.375 64.59375 
L 35.5 64.59375 
L 35.5 0 
L 25.59375 0 
L 25.59375 64.59375 
L -0.296875 64.59375 
z
" id="DejaVuSans-84"></path>
      <path d="M 9.421875 54.6875 
L 18.40625 54.6875 
L 18.40625 0 
L 9.421875 0 
z
M 9.421875 75.984375 
L 18.40625 75.984375 
L 18.40625 64.59375 
L 9.421875 64.59375 
z
" id="DejaVuSans-105"></path>
      <path d="M 52 44.1875 
Q 55.375 50.25 60.0625 53.125 
Q 64.75 56 71.09375 56 
Q 79.640625 56 84.28125 50.015625 
Q 88.921875 44.046875 88.921875 33.015625 
L 88.921875 0 
L 79.890625 0 
L 79.890625 32.71875 
Q 79.890625 40.578125 77.09375 44.375 
Q 74.3125 48.1875 68.609375 48.1875 
Q 61.625 48.1875 57.5625 43.546875 
Q 53.515625 38.921875 53.515625 30.90625 
L 53.515625 0 
L 44.484375 0 
L 44.484375 32.71875 
Q 44.484375 40.625 41.703125 44.40625 
Q 38.921875 48.1875 33.109375 48.1875 
Q 26.21875 48.1875 22.15625 43.53125 
Q 18.109375 38.875 18.109375 30.90625 
L 18.109375 0 
L 9.078125 0 
L 9.078125 54.6875 
L 18.109375 54.6875 
L 18.109375 46.1875 
Q 21.1875 51.21875 25.484375 53.609375 
Q 29.78125 56 35.6875 56 
Q 41.65625 56 45.828125 52.96875 
Q 50 49.953125 52 44.1875 
z
" id="DejaVuSans-109"></path>
      <path d="M 56.203125 29.59375 
L 56.203125 25.203125 
L 14.890625 25.203125 
Q 15.484375 15.921875 20.484375 11.0625 
Q 25.484375 6.203125 34.421875 6.203125 
Q 39.59375 6.203125 44.453125 7.46875 
Q 49.3125 8.734375 54.109375 11.28125 
L 54.109375 2.78125 
Q 49.265625 0.734375 44.1875 -0.34375 
Q 39.109375 -1.421875 33.890625 -1.421875 
Q 20.796875 -1.421875 13.15625 6.1875 
Q 5.515625 13.8125 5.515625 26.8125 
Q 5.515625 40.234375 12.765625 48.109375 
Q 20.015625 56 32.328125 56 
Q 43.359375 56 49.78125 48.890625 
Q 56.203125 41.796875 56.203125 29.59375 
z
M 47.21875 32.234375 
Q 47.125 39.59375 43.09375 43.984375 
Q 39.0625 48.390625 32.421875 48.390625 
Q 24.90625 48.390625 20.390625 44.140625 
Q 15.875 39.890625 15.1875 32.171875 
z
" id="DejaVuSans-101"></path>
      <path id="DejaVuSans-32"></path>
      <path d="M 31 75.875 
Q 24.46875 64.65625 21.28125 53.65625 
Q 18.109375 42.671875 18.109375 31.390625 
Q 18.109375 20.125 21.3125 9.0625 
Q 24.515625 -2 31 -13.1875 
L 23.1875 -13.1875 
Q 15.875 -1.703125 12.234375 9.375 
Q 8.59375 20.453125 8.59375 31.390625 
Q 8.59375 42.28125 12.203125 53.3125 
Q 15.828125 64.359375 23.1875 75.875 
z
" id="DejaVuSans-40"></path>
      <path d="M 44.28125 53.078125 
L 44.28125 44.578125 
Q 40.484375 46.53125 36.375 47.5 
Q 32.28125 48.484375 27.875 48.484375 
Q 21.1875 48.484375 17.84375 46.4375 
Q 14.5 44.390625 14.5 40.28125 
Q 14.5 37.15625 16.890625 35.375 
Q 19.28125 33.59375 26.515625 31.984375 
L 29.59375 31.296875 
Q 39.15625 29.25 43.1875 25.515625 
Q 47.21875 21.78125 47.21875 15.09375 
Q 47.21875 7.46875 41.1875 3.015625 
Q 35.15625 -1.421875 24.609375 -1.421875 
Q 20.21875 -1.421875 15.453125 -0.5625 
Q 10.6875 0.296875 5.421875 2 
L 5.421875 11.28125 
Q 10.40625 8.6875 15.234375 7.390625 
Q 20.0625 6.109375 24.8125 6.109375 
Q 31.15625 6.109375 34.5625 8.28125 
Q 37.984375 10.453125 37.984375 14.40625 
Q 37.984375 18.0625 35.515625 20.015625 
Q 33.0625 21.96875 24.703125 23.78125 
L 21.578125 24.515625 
Q 13.234375 26.265625 9.515625 29.90625 
Q 5.8125 33.546875 5.8125 39.890625 
Q 5.8125 47.609375 11.28125 51.796875 
Q 16.75 56 26.8125 56 
Q 31.78125 56 36.171875 55.265625 
Q 40.578125 54.546875 44.28125 53.078125 
z
" id="DejaVuSans-115"></path>
      <path d="M 8.015625 75.875 
L 15.828125 75.875 
Q 23.140625 64.359375 26.78125 53.3125 
Q 30.421875 42.28125 30.421875 31.390625 
Q 30.421875 20.453125 26.78125 9.375 
Q 23.140625 -1.703125 15.828125 -13.1875 
L 8.015625 -13.1875 
Q 14.5 -2 17.703125 9.0625 
Q 20.90625 20.125 20.90625 31.390625 
Q 20.90625 42.671875 17.703125 53.65625 
Q 14.5 64.65625 8.015625 75.875 
z
" id="DejaVuSans-41"></path>
     </defs>
     <g style="fill:#262626;" transform="translate(192.8125 260.805328)scale(0.12 -0.12)">
      <use xlink:href="#DejaVuSans-84"></use>
      <use x="57.958984" xlink:href="#DejaVuSans-105"></use>
      <use x="85.742188" xlink:href="#DejaVuSans-109"></use>
      <use x="183.154297" xlink:href="#DejaVuSans-101"></use>
      <use x="244.677734" xlink:href="#DejaVuSans-32"></use>
      <use x="276.464844" xlink:href="#DejaVuSans-40"></use>
      <use x="315.478516" xlink:href="#DejaVuSans-115"></use>
      <use x="367.578125" xlink:href="#DejaVuSans-41"></use>
     </g>
    </g>
   </g>
   <g id="matplotlib.axis_2">
    <g id="ytick_1">
     <g id="line2d_9">
      <path clip-path="url(#p4484f2ce58)" d="M 49.807187 201.935538 
L 384.607188 201.935538 
" style="fill:none;stroke:#ffffff;stroke-linecap:round;"></path>
     </g>
     <g id="text_10">
      <!-- 0.2 -->
      <g style="fill:#262626;" transform="translate(22.81375 206.114679)scale(0.11 -0.11)">
       <use xlink:href="#DejaVuSans-48"></use>
       <use x="63.623047" xlink:href="#DejaVuSans-46"></use>
       <use x="95.410156" xlink:href="#DejaVuSans-50"></use>
      </g>
     </g>
    </g>
    <g id="ytick_2">
     <g id="line2d_10">
      <path clip-path="url(#p4484f2ce58)" d="M 49.807187 174.713195 
L 384.607188 174.713195 
" style="fill:none;stroke:#ffffff;stroke-linecap:round;"></path>
     </g>
     <g id="text_11">
      <!-- 0.4 -->
      <g style="fill:#262626;" transform="translate(22.81375 178.892336)scale(0.11 -0.11)">
       <use xlink:href="#DejaVuSans-48"></use>
       <use x="63.623047" xlink:href="#DejaVuSans-46"></use>
       <use x="95.410156" xlink:href="#DejaVuSans-52"></use>
      </g>
     </g>
    </g>
    <g id="ytick_3">
     <g id="line2d_11">
      <path clip-path="url(#p4484f2ce58)" d="M 49.807187 147.490853 
L 384.607188 147.490853 
" style="fill:none;stroke:#ffffff;stroke-linecap:round;"></path>
     </g>
     <g id="text_12">
      <!-- 0.6 -->
      <g style="fill:#262626;" transform="translate(22.81375 151.669994)scale(0.11 -0.11)">
       <use xlink:href="#DejaVuSans-48"></use>
       <use x="63.623047" xlink:href="#DejaVuSans-46"></use>
       <use x="95.410156" xlink:href="#DejaVuSans-54"></use>
      </g>
     </g>
    </g>
    <g id="ytick_4">
     <g id="line2d_12">
      <path clip-path="url(#p4484f2ce58)" d="M 49.807187 120.26851 
L 384.607188 120.26851 
" style="fill:none;stroke:#ffffff;stroke-linecap:round;"></path>
     </g>
     <g id="text_13">
      <!-- 0.8 -->
      <defs>
       <path d="M 31.78125 34.625 
Q 24.75 34.625 20.71875 30.859375 
Q 16.703125 27.09375 16.703125 20.515625 
Q 16.703125 13.921875 20.71875 10.15625 
Q 24.75 6.390625 31.78125 6.390625 
Q 38.8125 6.390625 42.859375 10.171875 
Q 46.921875 13.96875 46.921875 20.515625 
Q 46.921875 27.09375 42.890625 30.859375 
Q 38.875 34.625 31.78125 34.625 
z
M 21.921875 38.8125 
Q 15.578125 40.375 12.03125 44.71875 
Q 8.5 49.078125 8.5 55.328125 
Q 8.5 64.0625 14.71875 69.140625 
Q 20.953125 74.21875 31.78125 74.21875 
Q 42.671875 74.21875 48.875 69.140625 
Q 55.078125 64.0625 55.078125 55.328125 
Q 55.078125 49.078125 51.53125 44.71875 
Q 48 40.375 41.703125 38.8125 
Q 48.828125 37.15625 52.796875 32.3125 
Q 56.78125 27.484375 56.78125 20.515625 
Q 56.78125 9.90625 50.3125 4.234375 
Q 43.84375 -1.421875 31.78125 -1.421875 
Q 19.734375 -1.421875 13.25 4.234375 
Q 6.78125 9.90625 6.78125 20.515625 
Q 6.78125 27.484375 10.78125 32.3125 
Q 14.796875 37.15625 21.921875 38.8125 
z
M 18.3125 54.390625 
Q 18.3125 48.734375 21.84375 45.5625 
Q 25.390625 42.390625 31.78125 42.390625 
Q 38.140625 42.390625 41.71875 45.5625 
Q 45.3125 48.734375 45.3125 54.390625 
Q 45.3125 60.0625 41.71875 63.234375 
Q 38.140625 66.40625 31.78125 66.40625 
Q 25.390625 66.40625 21.84375 63.234375 
Q 18.3125 60.0625 18.3125 54.390625 
z
" id="DejaVuSans-56"></path>
      </defs>
      <g style="fill:#262626;" transform="translate(22.81375 124.447651)scale(0.11 -0.11)">
       <use xlink:href="#DejaVuSans-48"></use>
       <use x="63.623047" xlink:href="#DejaVuSans-46"></use>
       <use x="95.410156" xlink:href="#DejaVuSans-56"></use>
      </g>
     </g>
    </g>
    <g id="ytick_5">
     <g id="line2d_13">
      <path clip-path="url(#p4484f2ce58)" d="M 49.807187 93.046168 
L 384.607188 93.046168 
" style="fill:none;stroke:#ffffff;stroke-linecap:round;"></path>
     </g>
     <g id="text_14">
      <!-- 1.0 -->
      <g style="fill:#262626;" transform="translate(22.81375 97.225309)scale(0.11 -0.11)">
       <use xlink:href="#DejaVuSans-49"></use>
       <use x="63.623047" xlink:href="#DejaVuSans-46"></use>
       <use x="95.410156" xlink:href="#DejaVuSans-48"></use>
      </g>
     </g>
    </g>
    <g id="ytick_6">
     <g id="line2d_14">
      <path clip-path="url(#p4484f2ce58)" d="M 49.807187 65.823826 
L 384.607188 65.823826 
" style="fill:none;stroke:#ffffff;stroke-linecap:round;"></path>
     </g>
     <g id="text_15">
      <!-- 1.2 -->
      <g style="fill:#262626;" transform="translate(22.81375 70.002966)scale(0.11 -0.11)">
       <use xlink:href="#DejaVuSans-49"></use>
       <use x="63.623047" xlink:href="#DejaVuSans-46"></use>
       <use x="95.410156" xlink:href="#DejaVuSans-50"></use>
      </g>
     </g>
    </g>
    <g id="ytick_7">
     <g id="line2d_15">
      <path clip-path="url(#p4484f2ce58)" d="M 49.807187 38.601483 
L 384.607188 38.601483 
" style="fill:none;stroke:#ffffff;stroke-linecap:round;"></path>
     </g>
     <g id="text_16">
      <!-- 1.4 -->
      <g style="fill:#262626;" transform="translate(22.81375 42.780624)scale(0.11 -0.11)">
       <use xlink:href="#DejaVuSans-49"></use>
       <use x="63.623047" xlink:href="#DejaVuSans-46"></use>
       <use x="95.410156" xlink:href="#DejaVuSans-52"></use>
      </g>
     </g>
    </g>
    <g id="ytick_8">
     <g id="line2d_16">
      <path clip-path="url(#p4484f2ce58)" d="M 49.807187 11.379141 
L 384.607188 11.379141 
" style="fill:none;stroke:#ffffff;stroke-linecap:round;"></path>
     </g>
     <g id="text_17">
      <!-- 1.6 -->
      <g style="fill:#262626;" transform="translate(22.81375 15.558281)scale(0.11 -0.11)">
       <use xlink:href="#DejaVuSans-49"></use>
       <use x="63.623047" xlink:href="#DejaVuSans-46"></use>
       <use x="95.410156" xlink:href="#DejaVuSans-54"></use>
      </g>
     </g>
    </g>
    <g id="text_18">
     <!-- mae -->
     <defs>
      <path d="M 34.28125 27.484375 
Q 23.390625 27.484375 19.1875 25 
Q 14.984375 22.515625 14.984375 16.5 
Q 14.984375 11.71875 18.140625 8.90625 
Q 21.296875 6.109375 26.703125 6.109375 
Q 34.1875 6.109375 38.703125 11.40625 
Q 43.21875 16.703125 43.21875 25.484375 
L 43.21875 27.484375 
z
M 52.203125 31.203125 
L 52.203125 0 
L 43.21875 0 
L 43.21875 8.296875 
Q 40.140625 3.328125 35.546875 0.953125 
Q 30.953125 -1.421875 24.3125 -1.421875 
Q 15.921875 -1.421875 10.953125 3.296875 
Q 6 8.015625 6 15.921875 
Q 6 25.140625 12.171875 29.828125 
Q 18.359375 34.515625 30.609375 34.515625 
L 43.21875 34.515625 
L 43.21875 35.40625 
Q 43.21875 41.609375 39.140625 45 
Q 35.0625 48.390625 27.6875 48.390625 
Q 23 48.390625 18.546875 47.265625 
Q 14.109375 46.140625 10.015625 43.890625 
L 10.015625 52.203125 
Q 14.9375 54.109375 19.578125 55.046875 
Q 24.21875 56 28.609375 56 
Q 40.484375 56 46.34375 49.84375 
Q 52.203125 43.703125 52.203125 31.203125 
z
" id="DejaVuSans-97"></path>
     </defs>
     <g style="fill:#262626;" transform="translate(16.318125 132.034391)rotate(-90)scale(0.12 -0.12)">
      <use xlink:href="#DejaVuSans-109"></use>
      <use x="97.412109" xlink:href="#DejaVuSans-97"></use>
      <use x="158.691406" xlink:href="#DejaVuSans-101"></use>
     </g>
    </g>
   </g>
   <g id="line2d_17">
    <path clip-path="url(#p4484f2ce58)" d="M 65.025369 19.984902 
L 66.796217 40.330327 
L 68.451342 55.992619 
L 70.08482 65.652377 
L 71.643239 76.908104 
L 73.228161 86.981409 
L 74.819861 96.080616 
L 76.403772 103.75756 
L 78.06011 110.128434 
L 79.614989 115.371714 
L 82.695006 123.100938 
L 87.188182 135.376065 
L 88.641196 139.189805 
L 90.141045 142.052001 
L 93.215398 147.339771 
L 94.703109 149.408891 
L 97.658299 152.873152 
L 99.17838 154.260148 
L 102.180203 157.241976 
L 103.662957 158.492383 
L 105.130942 159.327167 
L 109.743482 163.111814 
L 112.689265 166.739903 
L 114.152395 168.204852 
L 117.075417 170.781238 
L 118.59661 171.819217 
L 123.046187 174.310807 
L 124.502438 174.872009 
L 127.519435 175.071991 
L 129.015441 175.449472 
L 131.984692 176.656374 
L 133.459252 177.451794 
L 136.524298 179.490758 
L 140.960219 182.305136 
L 145.461588 185.104351 
L 146.966496 185.801633 
L 150.092236 187.048629 
L 151.580857 187.707631 
L 156.205536 189.212191 
L 157.743724 190.380317 
L 159.275438 191.808085 
L 160.772455 192.736942 
L 163.863195 193.970166 
L 166.816362 194.879288 
L 169.876249 196.033335 
L 171.37802 196.173822 
L 174.370234 197.12662 
L 175.925112 197.577486 
L 177.536234 198.52269 
L 180.550904 201.049243 
L 182.00756 202.553431 
L 183.489302 203.759054 
L 186.418394 205.539999 
L 193.858263 209.019005 
L 196.825288 209.966534 
L 198.263837 210.009382 
L 205.539326 211.203545 
L 206.980201 211.12529 
L 208.46781 210.898673 
L 209.939235 210.529983 
L 211.401757 210.311109 
L 214.402266 210.890511 
L 217.373337 211.522645 
L 221.813507 212.07896 
L 223.284729 211.964893 
L 226.34937 212.347913 
L 227.885839 212.662807 
L 231.103631 213.510365 
L 232.606718 213.798317 
L 235.838268 214.019079 
L 240.28481 213.273918 
L 245.08449 212.975599 
L 251.360451 213.582182 
L 252.882656 213.929184 
L 254.470107 214.148914 
L 257.573694 213.934715 
L 259.114411 213.749365 
L 260.620431 213.44859 
L 262.209703 213.391711 
L 263.722095 213.172082 
L 268.363162 213.003015 
L 269.899833 213.075956 
L 271.341922 213.63464 
L 272.901959 213.833503 
L 274.450061 214.610476 
L 277.618893 215.618146 
L 279.120766 215.790082 
L 284.135809 216.031518 
L 288.912931 216.504132 
L 292.046865 216.759194 
L 296.731226 216.790282 
L 298.287926 216.859549 
L 299.880233 216.811422 
L 303.31531 216.542966 
L 304.940391 216.440316 
L 306.472307 216.070861 
L 309.575793 214.840483 
L 312.514191 214.22015 
L 315.509743 213.8489 
L 316.979549 213.954837 
L 318.569225 214.237038 
L 320.174783 214.706484 
L 321.710645 215.280181 
L 327.810087 216.78895 
L 330.788543 216.910213 
L 332.299823 216.806047 
L 333.814239 216.923526 
L 335.298915 216.88253 
L 338.348181 216.356662 
L 343.206228 215.377247 
L 344.82787 214.727685 
L 346.34876 214.43975 
L 347.928625 214.546286 
L 349.464486 214.891095 
L 351.014307 215.397991 
L 353.960292 216.84441 
L 355.401673 217.34681 
L 356.960496 217.536663 
L 361.590638 217.657629 
L 364.647491 217.283933 
L 366.311214 217.137681 
L 369.389006 216.519667 
L 369.389006 216.519667 
" style="fill:none;stroke:#4c72b0;stroke-linecap:round;stroke-width:1.5;"></path>
   </g>
   <g id="patch_3">
    <path d="M 49.807187 227.541266 
L 49.807187 10.101266 
" style="fill:none;stroke:#ffffff;stroke-linecap:square;stroke-linejoin:miter;stroke-width:1.25;"></path>
   </g>
   <g id="patch_4">
    <path d="M 384.607188 227.541266 
L 384.607188 10.101266 
" style="fill:none;stroke:#ffffff;stroke-linecap:square;stroke-linejoin:miter;stroke-width:1.25;"></path>
   </g>
   <g id="patch_5">
    <path d="M 49.807187 227.541266 
L 384.607188 227.541266 
" style="fill:none;stroke:#ffffff;stroke-linecap:square;stroke-linejoin:miter;stroke-width:1.25;"></path>
   </g>
   <g id="patch_6">
    <path d="M 49.807187 10.101266 
L 384.607188 10.101266 
" style="fill:none;stroke:#ffffff;stroke-linecap:square;stroke-linejoin:miter;stroke-width:1.25;"></path>
   </g>
  </g>
 </g>
 <defs>
  <clippath id="p4484f2ce58">
   <rect height="217.44" width="334.8" x="49.807187" y="10.101266"></rect>
  </clippath>
 </defs>
</svg>