<svg height="267.599687pt" version="1.1" viewBox="0 0 401.024844 267.599687" width="401.024844pt" xmlns="http://www.w3.org/2000/svg" xmlns:xlink="http://www.w3.org/1999/xlink">
 <defs>
  <style type="text/css">
*{stroke-linecap:butt;stroke-linejoin:round;}
  </style>
 </defs>
 <g id="figure_1">
  <g id="patch_1">
   <path d="M 0 267.599687 
L 401.024844 267.599687 
L 401.024844 0 
L 0 0 
z
" style="fill:#ffffff;"></path>
  </g>
  <g id="axes_1">
   <g id="patch_2">
    <path d="M 59.024844 224.64 
L 393.824844 224.64 
L 393.824844 7.2 
L 59.024844 7.2 
z
" style="fill:#eaeaf2;"></path>
   </g>
   <g id="matplotlib.axis_1">
    <g id="xtick_1">
     <g id="line2d_1">
      <path clip-path="url(#p901e7d57fb)" d="M 72.71356 224.64 
L 72.71356 7.2 
" style="fill:none;stroke:#ffffff;stroke-linecap:round;"></path>
     </g>
     <g id="text_1">
      <!-- 0 -->
      <defs>
       <path d="M 31.78125 66.40625 
Q 24.171875 66.40625 20.328125 58.90625 
Q 16.5 51.421875 16.5 36.375 
Q 16.5 21.390625 20.328125 13.890625 
Q 24.171875 6.390625 31.78125 6.390625 
Q 39.453125 6.390625 43.28125 13.890625 
Q 47.125 21.390625 47.125 36.375 
Q 47.125 51.421875 43.28125 58.90625 
Q 39.453125 66.40625 31.78125 66.40625 
z
M 31.78125 74.21875 
Q 44.046875 74.21875 50.515625 64.515625 
Q 56.984375 54.828125 56.984375 36.375 
Q 56.984375 17.96875 50.515625 8.265625 
Q 44.046875 -1.421875 31.78125 -1.421875 
Q 19.53125 -1.421875 13.0625 8.265625 
Q 6.59375 17.96875 6.59375 36.375 
Q 6.59375 54.828125 13.0625 64.515625 
Q 19.53125 74.21875 31.78125 74.21875 
z
" id="DejaVuSans-48"></path>
      </defs>
      <g style="fill:#262626;" transform="translate(69.214185 242.498281)scale(0.11 -0.11)">
       <use xlink:href="#DejaVuSans-48"></use>
      </g>
     </g>
    </g>
    <g id="xtick_2">
     <g id="line2d_2">
      <path clip-path="url(#p901e7d57fb)" d="M 110.950198 224.64 
L 110.950198 7.2 
" style="fill:none;stroke:#ffffff;stroke-linecap:round;"></path>
     </g>
     <g id="text_2">
      <!-- 25 -->
      <defs>
       <path d="M 19.1875 8.296875 
L 53.609375 8.296875 
L 53.609375 0 
L 7.328125 0 
L 7.328125 8.296875 
Q 12.9375 14.109375 22.625 23.890625 
Q 32.328125 33.6875 34.8125 36.53125 
Q 39.546875 41.84375 41.421875 45.53125 
Q 43.3125 49.21875 43.3125 52.78125 
Q 43.3125 58.59375 39.234375 62.25 
Q 35.15625 65.921875 28.609375 65.921875 
Q 23.96875 65.921875 18.8125 64.3125 
Q 13.671875 62.703125 7.8125 59.421875 
L 7.8125 69.390625 
Q 13.765625 71.78125 18.9375 73 
Q 24.125 74.21875 28.421875 74.21875 
Q 39.75 74.21875 46.484375 68.546875 
Q 53.21875 62.890625 53.21875 53.421875 
Q 53.21875 48.921875 51.53125 44.890625 
Q 49.859375 40.875 45.40625 35.40625 
Q 44.1875 33.984375 37.640625 27.21875 
Q 31.109375 20.453125 19.1875 8.296875 
z
" id="DejaVuSans-50"></path>
       <path d="M 10.796875 72.90625 
L 49.515625 72.90625 
L 49.515625 64.59375 
L 19.828125 64.59375 
L 19.828125 46.734375 
Q 21.96875 47.46875 24.109375 47.828125 
Q 26.265625 48.1875 28.421875 48.1875 
Q 40.625 48.1875 47.75 41.5 
Q 54.890625 34.8125 54.890625 23.390625 
Q 54.890625 11.625 47.5625 5.09375 
Q 40.234375 -1.421875 26.90625 -1.421875 
Q 22.3125 -1.421875 17.546875 -0.640625 
Q 12.796875 0.140625 7.71875 1.703125 
L 7.71875 11.625 
Q 12.109375 9.234375 16.796875 8.0625 
Q 21.484375 6.890625 26.703125 6.890625 
Q 35.15625 6.890625 40.078125 11.328125 
Q 45.015625 15.765625 45.015625 23.390625 
Q 45.015625 31 40.078125 35.4375 
Q 35.15625 39.890625 26.703125 39.890625 
Q 22.75 39.890625 18.8125 39.015625 
Q 14.890625 38.140625 10.796875 36.28125 
z
" id="DejaVuSans-53"></path>
      </defs>
      <g style="fill:#262626;" transform="translate(103.951448 242.498281)scale(0.11 -0.11)">
       <use xlink:href="#DejaVuSans-50"></use>
       <use x="63.623047" xlink:href="#DejaVuSans-53"></use>
      </g>
     </g>
    </g>
    <g id="xtick_3">
     <g id="line2d_3">
      <path clip-path="url(#p901e7d57fb)" d="M 149.186836 224.64 
L 149.186836 7.2 
" style="fill:none;stroke:#ffffff;stroke-linecap:round;"></path>
     </g>
     <g id="text_3">
      <!-- 50 -->
      <g style="fill:#262626;" transform="translate(142.188086 242.498281)scale(0.11 -0.11)">
       <use xlink:href="#DejaVuSans-53"></use>
       <use x="63.623047" xlink:href="#DejaVuSans-48"></use>
      </g>
     </g>
    </g>
    <g id="xtick_4">
     <g id="line2d_4">
      <path clip-path="url(#p901e7d57fb)" d="M 187.423473 224.64 
L 187.423473 7.2 
" style="fill:none;stroke:#ffffff;stroke-linecap:round;"></path>
     </g>
     <g id="text_4">
      <!-- 75 -->
      <defs>
       <path d="M 8.203125 72.90625 
L 55.078125 72.90625 
L 55.078125 68.703125 
L 28.609375 0 
L 18.3125 0 
L 43.21875 64.59375 
L 8.203125 64.59375 
z
" id="DejaVuSans-55"></path>
      </defs>
      <g style="fill:#262626;" transform="translate(180.424723 242.498281)scale(0.11 -0.11)">
       <use xlink:href="#DejaVuSans-55"></use>
       <use x="63.623047" xlink:href="#DejaVuSans-53"></use>
      </g>
     </g>
    </g>
    <g id="xtick_5">
     <g id="line2d_5">
      <path clip-path="url(#p901e7d57fb)" d="M 225.660111 224.64 
L 225.660111 7.2 
" style="fill:none;stroke:#ffffff;stroke-linecap:round;"></path>
     </g>
     <g id="text_5">
      <!-- 100 -->
      <defs>
       <path d="M 12.40625 8.296875 
L 28.515625 8.296875 
L 28.515625 63.921875 
L 10.984375 60.40625 
L 10.984375 69.390625 
L 28.421875 72.90625 
L 38.28125 72.90625 
L 38.28125 8.296875 
L 54.390625 8.296875 
L 54.390625 0 
L 12.40625 0 
z
" id="DejaVuSans-49"></path>
      </defs>
      <g style="fill:#262626;" transform="translate(215.161986 242.498281)scale(0.11 -0.11)">
       <use xlink:href="#DejaVuSans-49"></use>
       <use x="63.623047" xlink:href="#DejaVuSans-48"></use>
       <use x="127.246094" xlink:href="#DejaVuSans-48"></use>
      </g>
     </g>
    </g>
    <g id="xtick_6">
     <g id="line2d_6">
      <path clip-path="url(#p901e7d57fb)" d="M 263.896749 224.64 
L 263.896749 7.2 
" style="fill:none;stroke:#ffffff;stroke-linecap:round;"></path>
     </g>
     <g id="text_6">
      <!-- 125 -->
      <g style="fill:#262626;" transform="translate(253.398624 242.498281)scale(0.11 -0.11)">
       <use xlink:href="#DejaVuSans-49"></use>
       <use x="63.623047" xlink:href="#DejaVuSans-50"></use>
       <use x="127.246094" xlink:href="#DejaVuSans-53"></use>
      </g>
     </g>
    </g>
    <g id="xtick_7">
     <g id="line2d_7">
      <path clip-path="url(#p901e7d57fb)" d="M 302.133386 224.64 
L 302.133386 7.2 
" style="fill:none;stroke:#ffffff;stroke-linecap:round;"></path>
     </g>
     <g id="text_7">
      <!-- 150 -->
      <g style="fill:#262626;" transform="translate(291.635261 242.498281)scale(0.11 -0.11)">
       <use xlink:href="#DejaVuSans-49"></use>
       <use x="63.623047" xlink:href="#DejaVuSans-53"></use>
       <use x="127.246094" xlink:href="#DejaVuSans-48"></use>
      </g>
     </g>
    </g>
    <g id="xtick_8">
     <g id="line2d_8">
      <path clip-path="url(#p901e7d57fb)" d="M 340.370024 224.64 
L 340.370024 7.2 
" style="fill:none;stroke:#ffffff;stroke-linecap:round;"></path>
     </g>
     <g id="text_8">
      <!-- 175 -->
      <g style="fill:#262626;" transform="translate(329.871899 242.498281)scale(0.11 -0.11)">
       <use xlink:href="#DejaVuSans-49"></use>
       <use x="63.623047" xlink:href="#DejaVuSans-55"></use>
       <use x="127.246094" xlink:href="#DejaVuSans-53"></use>
      </g>
     </g>
    </g>
    <g id="xtick_9">
     <g id="line2d_9">
      <path clip-path="url(#p901e7d57fb)" d="M 378.606662 224.64 
L 378.606662 7.2 
" style="fill:none;stroke:#ffffff;stroke-linecap:round;"></path>
     </g>
     <g id="text_9">
      <!-- 200 -->
      <g style="fill:#262626;" transform="translate(368.108537 242.498281)scale(0.11 -0.11)">
       <use xlink:href="#DejaVuSans-50"></use>
       <use x="63.623047" xlink:href="#DejaVuSans-48"></use>
       <use x="127.246094" xlink:href="#DejaVuSans-48"></use>
      </g>
     </g>
    </g>
    <g id="text_10">
     <!-- Epoch -->
     <defs>
      <path d="M 9.8125 72.90625 
L 55.90625 72.90625 
L 55.90625 64.59375 
L 19.671875 64.59375 
L 19.671875 43.015625 
L 54.390625 43.015625 
L 54.390625 34.71875 
L 19.671875 34.71875 
L 19.671875 8.296875 
L 56.78125 8.296875 
L 56.78125 0 
L 9.8125 0 
z
" id="DejaVuSans-69"></path>
      <path d="M 18.109375 8.203125 
L 18.109375 -20.796875 
L 9.078125 -20.796875 
L 9.078125 54.6875 
L 18.109375 54.6875 
L 18.109375 46.390625 
Q 20.953125 51.265625 25.265625 53.625 
Q 29.59375 56 35.59375 56 
Q 45.5625 56 51.78125 48.09375 
Q 58.015625 40.1875 58.015625 27.296875 
Q 58.015625 14.40625 51.78125 6.484375 
Q 45.5625 -1.421875 35.59375 -1.421875 
Q 29.59375 -1.421875 25.265625 0.953125 
Q 20.953125 3.328125 18.109375 8.203125 
z
M 48.6875 27.296875 
Q 48.6875 37.203125 44.609375 42.84375 
Q 40.53125 48.484375 33.40625 48.484375 
Q 26.265625 48.484375 22.1875 42.84375 
Q 18.109375 37.203125 18.109375 27.296875 
Q 18.109375 17.390625 22.1875 11.75 
Q 26.265625 6.109375 33.40625 6.109375 
Q 40.53125 6.109375 44.609375 11.75 
Q 48.6875 17.390625 48.6875 27.296875 
z
" id="DejaVuSans-112"></path>
      <path d="M 30.609375 48.390625 
Q 23.390625 48.390625 19.1875 42.75 
Q 14.984375 37.109375 14.984375 27.296875 
Q 14.984375 17.484375 19.15625 11.84375 
Q 23.34375 6.203125 30.609375 6.203125 
Q 37.796875 6.203125 41.984375 11.859375 
Q 46.1875 17.53125 46.1875 27.296875 
Q 46.1875 37.015625 41.984375 42.703125 
Q 37.796875 48.390625 30.609375 48.390625 
z
M 30.609375 56 
Q 42.328125 56 49.015625 48.375 
Q 55.71875 40.765625 55.71875 27.296875 
Q 55.71875 13.875 49.015625 6.21875 
Q 42.328125 -1.421875 30.609375 -1.421875 
Q 18.84375 -1.421875 12.171875 6.21875 
Q 5.515625 13.875 5.515625 27.296875 
Q 5.515625 40.765625 12.171875 48.375 
Q 18.84375 56 30.609375 56 
z
" id="DejaVuSans-111"></path>
      <path d="M 48.78125 52.59375 
L 48.78125 44.1875 
Q 44.96875 46.296875 41.140625 47.34375 
Q 37.3125 48.390625 33.40625 48.390625 
Q 24.65625 48.390625 19.8125 42.84375 
Q 14.984375 37.3125 14.984375 27.296875 
Q 14.984375 17.28125 19.8125 11.734375 
Q 24.65625 6.203125 33.40625 6.203125 
Q 37.3125 6.203125 41.140625 7.25 
Q 44.96875 8.296875 48.78125 10.40625 
L 48.78125 2.09375 
Q 45.015625 0.34375 40.984375 -0.53125 
Q 36.96875 -1.421875 32.421875 -1.421875 
Q 20.0625 -1.421875 12.78125 6.34375 
Q 5.515625 14.109375 5.515625 27.296875 
Q 5.515625 40.671875 12.859375 48.328125 
Q 20.21875 56 33.015625 56 
Q 37.15625 56 41.109375 55.140625 
Q 45.0625 54.296875 48.78125 52.59375 
z
" id="DejaVuSans-99"></path>
      <path d="M 54.890625 33.015625 
L 54.890625 0 
L 45.90625 0 
L 45.90625 32.71875 
Q 45.90625 40.484375 42.875 44.328125 
Q 39.84375 48.1875 33.796875 48.1875 
Q 26.515625 48.1875 22.3125 43.546875 
Q 18.109375 38.921875 18.109375 30.90625 
L 18.109375 0 
L 9.078125 0 
L 9.078125 75.984375 
L 18.109375 75.984375 
L 18.109375 46.1875 
Q 21.34375 51.125 25.703125 53.5625 
Q 30.078125 56 35.796875 56 
Q 45.21875 56 50.046875 50.171875 
Q 54.890625 44.34375 54.890625 33.015625 
z
" id="DejaVuSans-104"></path>
     </defs>
     <g style="fill:#262626;" transform="translate(208.051719 257.904062)scale(0.12 -0.12)">
      <use xlink:href="#DejaVuSans-69"></use>
      <use x="63.183594" xlink:href="#DejaVuSans-112"></use>
      <use x="126.660156" xlink:href="#DejaVuSans-111"></use>
      <use x="187.841797" xlink:href="#DejaVuSans-99"></use>
      <use x="242.822266" xlink:href="#DejaVuSans-104"></use>
     </g>
    </g>
   </g>
   <g id="matplotlib.axis_2">
    <g id="ytick_1">
     <g id="line2d_10">
      <path clip-path="url(#p901e7d57fb)" d="M 59.024844 209.640805 
L 393.824844 209.640805 
" style="fill:none;stroke:#ffffff;stroke-linecap:round;"></path>
     </g>
     <g id="text_11">
      <!-- −1.0 -->
      <defs>
       <path d="M 10.59375 35.5 
L 73.1875 35.5 
L 73.1875 27.203125 
L 10.59375 27.203125 
z
" id="DejaVuSans-8722"></path>
       <path d="M 10.6875 12.40625 
L 21 12.40625 
L 21 0 
L 10.6875 0 
z
" id="DejaVuSans-46"></path>
      </defs>
      <g style="fill:#262626;" transform="translate(22.81375 213.819945)scale(0.11 -0.11)">
       <use xlink:href="#DejaVuSans-8722"></use>
       <use x="83.789062" xlink:href="#DejaVuSans-49"></use>
       <use x="147.412109" xlink:href="#DejaVuSans-46"></use>
       <use x="179.199219" xlink:href="#DejaVuSans-48"></use>
      </g>
     </g>
    </g>
    <g id="ytick_2">
     <g id="line2d_11">
      <path clip-path="url(#p901e7d57fb)" d="M 59.024844 170.770861 
L 393.824844 170.770861 
" style="fill:none;stroke:#ffffff;stroke-linecap:round;"></path>
     </g>
     <g id="text_12">
      <!-- −0.5 -->
      <g style="fill:#262626;" transform="translate(22.81375 174.950002)scale(0.11 -0.11)">
       <use xlink:href="#DejaVuSans-8722"></use>
       <use x="83.789062" xlink:href="#DejaVuSans-48"></use>
       <use x="147.412109" xlink:href="#DejaVuSans-46"></use>
       <use x="179.199219" xlink:href="#DejaVuSans-53"></use>
      </g>
     </g>
    </g>
    <g id="ytick_3">
     <g id="line2d_12">
      <path clip-path="url(#p901e7d57fb)" d="M 59.024844 131.900918 
L 393.824844 131.900918 
" style="fill:none;stroke:#ffffff;stroke-linecap:round;"></path>
     </g>
     <g id="text_13">
      <!-- 0.0 -->
      <g style="fill:#262626;" transform="translate(32.031406 136.080058)scale(0.11 -0.11)">
       <use xlink:href="#DejaVuSans-48"></use>
       <use x="63.623047" xlink:href="#DejaVuSans-46"></use>
       <use x="95.410156" xlink:href="#DejaVuSans-48"></use>
      </g>
     </g>
    </g>
    <g id="ytick_4">
     <g id="line2d_13">
      <path clip-path="url(#p901e7d57fb)" d="M 59.024844 93.030974 
L 393.824844 93.030974 
" style="fill:none;stroke:#ffffff;stroke-linecap:round;"></path>
     </g>
     <g id="text_14">
      <!-- 0.5 -->
      <g style="fill:#262626;" transform="translate(32.031406 97.210115)scale(0.11 -0.11)">
       <use xlink:href="#DejaVuSans-48"></use>
       <use x="63.623047" xlink:href="#DejaVuSans-46"></use>
       <use x="95.410156" xlink:href="#DejaVuSans-53"></use>
      </g>
     </g>
    </g>
    <g id="ytick_5">
     <g id="line2d_14">
      <path clip-path="url(#p901e7d57fb)" d="M 59.024844 54.161031 
L 393.824844 54.161031 
" style="fill:none;stroke:#ffffff;stroke-linecap:round;"></path>
     </g>
     <g id="text_15">
      <!-- 1.0 -->
      <g style="fill:#262626;" transform="translate(32.031406 58.340171)scale(0.11 -0.11)">
       <use xlink:href="#DejaVuSans-49"></use>
       <use x="63.623047" xlink:href="#DejaVuSans-46"></use>
       <use x="95.410156" xlink:href="#DejaVuSans-48"></use>
      </g>
     </g>
    </g>
    <g id="ytick_6">
     <g id="line2d_15">
      <path clip-path="url(#p901e7d57fb)" d="M 59.024844 15.291087 
L 393.824844 15.291087 
" style="fill:none;stroke:#ffffff;stroke-linecap:round;"></path>
     </g>
     <g id="text_16">
      <!-- 1.5 -->
      <g style="fill:#262626;" transform="translate(32.031406 19.470228)scale(0.11 -0.11)">
       <use xlink:href="#DejaVuSans-49"></use>
       <use x="63.623047" xlink:href="#DejaVuSans-46"></use>
       <use x="95.410156" xlink:href="#DejaVuSans-53"></use>
      </g>
     </g>
    </g>
    <g id="text_17">
     <!-- Parameter mean -->
     <defs>
      <path d="M 19.671875 64.796875 
L 19.671875 37.40625 
L 32.078125 37.40625 
Q 38.96875 37.40625 42.71875 40.96875 
Q 46.484375 44.53125 46.484375 51.125 
Q 46.484375 57.671875 42.71875 61.234375 
Q 38.96875 64.796875 32.078125 64.796875 
z
M 9.8125 72.90625 
L 32.078125 72.90625 
Q 44.34375 72.90625 50.609375 67.359375 
Q 56.890625 61.8125 56.890625 51.125 
Q 56.890625 40.328125 50.609375 34.8125 
Q 44.34375 29.296875 32.078125 29.296875 
L 19.671875 29.296875 
L 19.671875 0 
L 9.8125 0 
z
" id="DejaVuSans-80"></path>
      <path d="M 34.28125 27.484375 
Q 23.390625 27.484375 19.1875 25 
Q 14.984375 22.515625 14.984375 16.5 
Q 14.984375 11.71875 18.140625 8.90625 
Q 21.296875 6.109375 26.703125 6.109375 
Q 34.1875 6.109375 38.703125 11.40625 
Q 43.21875 16.703125 43.21875 25.484375 
L 43.21875 27.484375 
z
M 52.203125 31.203125 
L 52.203125 0 
L 43.21875 0 
L 43.21875 8.296875 
Q 40.140625 3.328125 35.546875 0.953125 
Q 30.953125 -1.421875 24.3125 -1.421875 
Q 15.921875 -1.421875 10.953125 3.296875 
Q 6 8.015625 6 15.921875 
Q 6 25.140625 12.171875 29.828125 
Q 18.359375 34.515625 30.609375 34.515625 
L 43.21875 34.515625 
L 43.21875 35.40625 
Q 43.21875 41.609375 39.140625 45 
Q 35.0625 48.390625 27.6875 48.390625 
Q 23 48.390625 18.546875 47.265625 
Q 14.109375 46.140625 10.015625 43.890625 
L 10.015625 52.203125 
Q 14.9375 54.109375 19.578125 55.046875 
Q 24.21875 56 28.609375 56 
Q 40.484375 56 46.34375 49.84375 
Q 52.203125 43.703125 52.203125 31.203125 
z
" id="DejaVuSans-97"></path>
      <path d="M 41.109375 46.296875 
Q 39.59375 47.171875 37.8125 47.578125 
Q 36.03125 48 33.890625 48 
Q 26.265625 48 22.1875 43.046875 
Q 18.109375 38.09375 18.109375 28.8125 
L 18.109375 0 
L 9.078125 0 
L 9.078125 54.6875 
L 18.109375 54.6875 
L 18.109375 46.1875 
Q 20.953125 51.171875 25.484375 53.578125 
Q 30.03125 56 36.53125 56 
Q 37.453125 56 38.578125 55.875 
Q 39.703125 55.765625 41.0625 55.515625 
z
" id="DejaVuSans-114"></path>
      <path d="M 52 44.1875 
Q 55.375 50.25 60.0625 53.125 
Q 64.75 56 71.09375 56 
Q 79.640625 56 84.28125 50.015625 
Q 88.921875 44.046875 88.921875 33.015625 
L 88.921875 0 
L 79.890625 0 
L 79.890625 32.71875 
Q 79.890625 40.578125 77.09375 44.375 
Q 74.3125 48.1875 68.609375 48.1875 
Q 61.625 48.1875 57.5625 43.546875 
Q 53.515625 38.921875 53.515625 30.90625 
L 53.515625 0 
L 44.484375 0 
L 44.484375 32.71875 
Q 44.484375 40.625 41.703125 44.40625 
Q 38.921875 48.1875 33.109375 48.1875 
Q 26.21875 48.1875 22.15625 43.53125 
Q 18.109375 38.875 18.109375 30.90625 
L 18.109375 0 
L 9.078125 0 
L 9.078125 54.6875 
L 18.109375 54.6875 
L 18.109375 46.1875 
Q 21.1875 51.21875 25.484375 53.609375 
Q 29.78125 56 35.6875 56 
Q 41.65625 56 45.828125 52.96875 
Q 50 49.953125 52 44.1875 
z
" id="DejaVuSans-109"></path>
      <path d="M 56.203125 29.59375 
L 56.203125 25.203125 
L 14.890625 25.203125 
Q 15.484375 15.921875 20.484375 11.0625 
Q 25.484375 6.203125 34.421875 6.203125 
Q 39.59375 6.203125 44.453125 7.46875 
Q 49.3125 8.734375 54.109375 11.28125 
L 54.109375 2.78125 
Q 49.265625 0.734375 44.1875 -0.34375 
Q 39.109375 -1.421875 33.890625 -1.421875 
Q 20.796875 -1.421875 13.15625 6.1875 
Q 5.515625 13.8125 5.515625 26.8125 
Q 5.515625 40.234375 12.765625 48.109375 
Q 20.015625 56 32.328125 56 
Q 43.359375 56 49.78125 48.890625 
Q 56.203125 41.796875 56.203125 29.59375 
z
M 47.21875 32.234375 
Q 47.125 39.59375 43.09375 43.984375 
Q 39.0625 48.390625 32.421875 48.390625 
Q 24.90625 48.390625 20.390625 44.140625 
Q 15.875 39.890625 15.1875 32.171875 
z
" id="DejaVuSans-101"></path>
      <path d="M 18.3125 70.21875 
L 18.3125 54.6875 
L 36.8125 54.6875 
L 36.8125 47.703125 
L 18.3125 47.703125 
L 18.3125 18.015625 
Q 18.3125 11.328125 20.140625 9.421875 
Q 21.96875 7.515625 27.59375 7.515625 
L 36.8125 7.515625 
L 36.8125 0 
L 27.59375 0 
Q 17.1875 0 13.234375 3.875 
Q 9.28125 7.765625 9.28125 18.015625 
L 9.28125 47.703125 
L 2.6875 47.703125 
L 2.6875 54.6875 
L 9.28125 54.6875 
L 9.28125 70.21875 
z
" id="DejaVuSans-116"></path>
      <path id="DejaVuSans-32"></path>
      <path d="M 54.890625 33.015625 
L 54.890625 0 
L 45.90625 0 
L 45.90625 32.71875 
Q 45.90625 40.484375 42.875 44.328125 
Q 39.84375 48.1875 33.796875 48.1875 
Q 26.515625 48.1875 22.3125 43.546875 
Q 18.109375 38.921875 18.109375 30.90625 
L 18.109375 0 
L 9.078125 0 
L 9.078125 54.6875 
L 18.109375 54.6875 
L 18.109375 46.1875 
Q 21.34375 51.125 25.703125 53.5625 
Q 30.078125 56 35.796875 56 
Q 45.21875 56 50.046875 50.171875 
Q 54.890625 44.34375 54.890625 33.015625 
z
" id="DejaVuSans-110"></path>
     </defs>
     <g style="fill:#262626;" transform="translate(16.318125 166.0575)rotate(-90)scale(0.12 -0.12)">
      <use xlink:href="#DejaVuSans-80"></use>
      <use x="55.802734" xlink:href="#DejaVuSans-97"></use>
      <use x="117.082031" xlink:href="#DejaVuSans-114"></use>
      <use x="158.195312" xlink:href="#DejaVuSans-97"></use>
      <use x="219.474609" xlink:href="#DejaVuSans-109"></use>
      <use x="316.886719" xlink:href="#DejaVuSans-101"></use>
      <use x="378.410156" xlink:href="#DejaVuSans-116"></use>
      <use x="417.619141" xlink:href="#DejaVuSans-101"></use>
      <use x="479.142578" xlink:href="#DejaVuSans-114"></use>
      <use x="520.255859" xlink:href="#DejaVuSans-32"></use>
      <use x="552.042969" xlink:href="#DejaVuSans-109"></use>
      <use x="649.455078" xlink:href="#DejaVuSans-101"></use>
      <use x="710.978516" xlink:href="#DejaVuSans-97"></use>
      <use x="772.257812" xlink:href="#DejaVuSans-110"></use>
     </g>
    </g>
   </g>
   <g id="line2d_16">
    <path clip-path="url(#p901e7d57fb)" d="M 74.243026 119.371561 
L 80.360888 158.5451 
L 81.890353 166.195652 
L 83.419819 172.602074 
L 86.47875 183.706224 
L 88.008215 188.170012 
L 91.067146 194.737301 
L 92.596612 197.543829 
L 94.126077 199.809609 
L 95.655543 201.579296 
L 97.185008 202.720357 
L 98.714474 204.286891 
L 110.950198 213.211613 
L 112.479663 213.797799 
L 114.009129 214.176146 
L 117.06806 214.59388 
L 120.126991 214.73541 
L 121.656456 214.44893 
L 123.185922 213.861243 
L 127.774318 212.495639 
L 129.303784 212.158568 
L 130.833249 211.94213 
L 132.362715 211.904375 
L 133.89218 211.672386 
L 143.068973 211.063931 
L 144.598439 210.94581 
L 149.186836 209.781649 
L 150.716301 209.751392 
L 153.775232 210.021488 
L 158.363629 209.995845 
L 161.42256 210.235887 
L 162.952025 210.507114 
L 166.010956 211.565358 
L 170.599353 212.491728 
L 175.187749 213.598329 
L 179.776146 213.504368 
L 184.364542 212.978003 
L 185.894008 213.126845 
L 187.423473 213.73151 
L 190.482404 214.057914 
L 192.01187 213.926902 
L 193.541335 214.120681 
L 195.070801 214.545199 
L 196.600266 214.589135 
L 198.129732 214.756364 
L 202.718128 214.650327 
L 204.247594 214.459087 
L 207.306525 214.561731 
L 210.365456 214.037933 
L 211.894921 213.883262 
L 213.424387 213.569869 
L 218.012783 213.062799 
L 228.719042 212.862309 
L 230.248508 212.567145 
L 234.836904 212.336167 
L 237.895835 211.830227 
L 245.543163 211.595755 
L 248.602094 211.146901 
L 250.131559 210.773873 
L 253.19049 209.562348 
L 254.719956 209.010776 
L 256.249421 208.583052 
L 257.778887 208.60218 
L 259.308352 208.756188 
L 260.837818 208.684872 
L 262.367283 208.770201 
L 263.896749 208.670401 
L 265.426214 208.445335 
L 266.95568 208.059583 
L 273.073542 206.120341 
L 274.603007 205.680014 
L 276.132473 205.401605 
L 277.661938 205.496989 
L 280.720869 206.017701 
L 283.7798 206.759869 
L 285.309266 206.680884 
L 286.838731 206.318968 
L 289.897662 205.907225 
L 291.427128 205.823755 
L 292.956593 206.168239 
L 302.133386 209.590483 
L 303.662852 209.922429 
L 306.721783 210.347521 
L 308.251249 210.911956 
L 309.780714 211.806021 
L 311.31018 212.405255 
L 312.839645 212.729018 
L 317.428042 213.101082 
L 318.957507 213.3814 
L 320.486973 213.246023 
L 323.545904 213.513607 
L 325.075369 213.735448 
L 329.663766 213.657658 
L 331.193231 213.818576 
L 332.722697 214.107327 
L 334.252162 214.250377 
L 338.840559 213.56619 
L 340.370024 213.06557 
L 344.958421 212.409119 
L 348.017352 212.892113 
L 349.546817 212.792638 
L 352.605748 213.126057 
L 355.664679 213.910916 
L 357.194145 214.096883 
L 358.72361 213.9593 
L 360.253076 214.12728 
L 361.782541 214.111016 
L 363.312007 214.2167 
L 364.841472 213.9636 
L 366.370938 213.448792 
L 367.900403 213.250332 
L 369.429869 212.92163 
L 374.018265 212.344498 
L 377.077196 212.485584 
L 378.606662 212.281369 
L 378.606662 212.281369 
" style="fill:none;stroke:#4c72b0;stroke-linecap:round;stroke-width:1.5;"></path>
   </g>
   <g id="line2d_17">
    <path clip-path="url(#p901e7d57fb)" d="M 74.243026 17.083636 
L 77.301957 30.881948 
L 78.831422 36.088215 
L 80.360888 40.056286 
L 81.890353 43.659103 
L 84.949284 50.178698 
L 86.47875 53.113249 
L 89.537681 57.926244 
L 95.655543 66.425314 
L 97.185008 68.928199 
L 101.773405 74.661883 
L 104.832336 78.879592 
L 107.891267 82.631474 
L 109.420732 84.258857 
L 114.009129 88.513167 
L 117.06806 90.844471 
L 123.185922 94.969667 
L 126.244853 96.888907 
L 133.89218 102.852247 
L 136.951111 104.772841 
L 140.010042 106.34647 
L 141.539508 106.925129 
L 147.65737 108.500887 
L 149.186836 108.861984 
L 150.716301 109.489024 
L 153.775232 110.359464 
L 156.834163 110.840602 
L 159.893094 111.552997 
L 166.010956 113.92229 
L 170.599353 115.748888 
L 172.128818 116.296138 
L 173.658284 116.680353 
L 176.717215 117.304671 
L 179.776146 118.455517 
L 181.305611 119.131568 
L 185.894008 120.551786 
L 188.952939 121.727744 
L 193.541335 122.45385 
L 195.070801 122.740582 
L 196.600266 123.152457 
L 201.188663 124.672079 
L 205.777059 125.382094 
L 208.83599 125.551105 
L 210.365456 125.421297 
L 211.894921 125.410075 
L 213.424387 125.760467 
L 219.542249 126.276993 
L 222.60118 126.58507 
L 225.660111 126.828553 
L 227.189577 126.67243 
L 228.719042 126.858996 
L 233.307439 127.864105 
L 237.895835 128.22978 
L 240.954766 128.961194 
L 244.013697 129.489248 
L 247.072628 130.410892 
L 250.131559 131.189499 
L 253.19049 131.772091 
L 254.719956 132.173749 
L 256.249421 132.827913 
L 257.778887 133.116002 
L 260.837818 134.133748 
L 262.367283 134.671992 
L 265.426214 135.277412 
L 266.95568 135.477222 
L 270.014611 135.621739 
L 274.603007 136.458366 
L 280.720869 136.775989 
L 282.250335 136.982829 
L 286.838731 137.016321 
L 291.427128 137.280567 
L 297.54499 136.568871 
L 299.074455 136.20768 
L 300.603921 136.022202 
L 305.192317 136.123404 
L 306.721783 136.01409 
L 309.780714 135.126117 
L 311.31018 134.578193 
L 314.369111 133.993644 
L 317.428042 133.313977 
L 320.486973 132.860984 
L 323.545904 132.135328 
L 329.663766 131.55921 
L 331.193231 131.768303 
L 334.252162 131.972459 
L 337.311093 132.662714 
L 338.840559 132.649077 
L 340.370024 132.75368 
L 343.428955 132.547138 
L 348.017352 132.601558 
L 351.076283 132.969474 
L 352.605748 132.970134 
L 358.72361 132.05758 
L 360.253076 131.531092 
L 363.312007 131.233033 
L 364.841472 130.853432 
L 366.370938 130.590912 
L 369.429869 130.485083 
L 372.4888 130.515203 
L 375.547731 130.811691 
L 377.077196 131.191687 
L 378.606662 131.691445 
L 378.606662 131.691445 
" style="fill:none;stroke:#dd8452;stroke-linecap:round;stroke-width:1.5;"></path>
   </g>
   <g id="patch_3">
    <path d="M 59.024844 224.64 
L 59.024844 7.2 
" style="fill:none;stroke:#ffffff;stroke-linecap:square;stroke-linejoin:miter;stroke-width:1.25;"></path>
   </g>
   <g id="patch_4">
    <path d="M 393.824844 224.64 
L 393.824844 7.2 
" style="fill:none;stroke:#ffffff;stroke-linecap:square;stroke-linejoin:miter;stroke-width:1.25;"></path>
   </g>
   <g id="patch_5">
    <path d="M 59.024844 224.64 
L 393.824844 224.64 
" style="fill:none;stroke:#ffffff;stroke-linecap:square;stroke-linejoin:miter;stroke-width:1.25;"></path>
   </g>
   <g id="patch_6">
    <path d="M 59.024844 7.2 
L 393.824844 7.2 
" style="fill:none;stroke:#ffffff;stroke-linecap:square;stroke-linejoin:miter;stroke-width:1.25;"></path>
   </g>
   <g id="legend_1">
    <g id="patch_7">
     <path d="M 313.837656 48.291875 
L 386.124844 48.291875 
Q 388.324844 48.291875 388.324844 46.091875 
L 388.324844 14.9 
Q 388.324844 12.7 386.124844 12.7 
L 313.837656 12.7 
Q 311.637656 12.7 311.637656 14.9 
L 311.637656 46.091875 
Q 311.637656 48.291875 313.837656 48.291875 
z
" style="fill:#eaeaf2;opacity:0.8;stroke:#cccccc;stroke-linejoin:miter;"></path>
    </g>
    <g id="line2d_18">
     <path d="M 316.037656 21.608281 
L 338.037656 21.608281 
" style="fill:none;stroke:#4c72b0;stroke-linecap:round;stroke-width:1.5;"></path>
    </g>
    <g id="line2d_19"></g>
    <g id="text_18">
     <!-- weight -->
     <defs>
      <path d="M 4.203125 54.6875 
L 13.1875 54.6875 
L 24.421875 12.015625 
L 35.59375 54.6875 
L 46.1875 54.6875 
L 57.421875 12.015625 
L 68.609375 54.6875 
L 77.59375 54.6875 
L 63.28125 0 
L 52.6875 0 
L 40.921875 44.828125 
L 29.109375 0 
L 18.5 0 
z
" id="DejaVuSans-119"></path>
      <path d="M 9.421875 54.6875 
L 18.40625 54.6875 
L 18.40625 0 
L 9.421875 0 
z
M 9.421875 75.984375 
L 18.40625 75.984375 
L 18.40625 64.59375 
L 9.421875 64.59375 
z
" id="DejaVuSans-105"></path>
      <path d="M 45.40625 27.984375 
Q 45.40625 37.75 41.375 43.109375 
Q 37.359375 48.484375 30.078125 48.484375 
Q 22.859375 48.484375 18.828125 43.109375 
Q 14.796875 37.75 14.796875 27.984375 
Q 14.796875 18.265625 18.828125 12.890625 
Q 22.859375 7.515625 30.078125 7.515625 
Q 37.359375 7.515625 41.375 12.890625 
Q 45.40625 18.265625 45.40625 27.984375 
z
M 54.390625 6.78125 
Q 54.390625 -7.171875 48.1875 -13.984375 
Q 42 -20.796875 29.203125 -20.796875 
Q 24.46875 -20.796875 20.265625 -20.09375 
Q 16.0625 -19.390625 12.109375 -17.921875 
L 12.109375 -9.1875 
Q 16.0625 -11.328125 19.921875 -12.34375 
Q 23.78125 -13.375 27.78125 -13.375 
Q 36.625 -13.375 41.015625 -8.765625 
Q 45.40625 -4.15625 45.40625 5.171875 
L 45.40625 9.625 
Q 42.625 4.78125 38.28125 2.390625 
Q 33.9375 0 27.875 0 
Q 17.828125 0 11.671875 7.65625 
Q 5.515625 15.328125 5.515625 27.984375 
Q 5.515625 40.671875 11.671875 48.328125 
Q 17.828125 56 27.875 56 
Q 33.9375 56 38.28125 53.609375 
Q 42.625 51.21875 45.40625 46.390625 
L 45.40625 54.6875 
L 54.390625 54.6875 
z
" id="DejaVuSans-103"></path>
     </defs>
     <g style="fill:#262626;" transform="translate(346.837656 25.458281)scale(0.11 -0.11)">
      <use xlink:href="#DejaVuSans-119"></use>
      <use x="81.787109" xlink:href="#DejaVuSans-101"></use>
      <use x="143.310547" xlink:href="#DejaVuSans-105"></use>
      <use x="171.09375" xlink:href="#DejaVuSans-103"></use>
      <use x="234.570312" xlink:href="#DejaVuSans-104"></use>
      <use x="297.949219" xlink:href="#DejaVuSans-116"></use>
     </g>
    </g>
    <g id="line2d_20">
     <path d="M 316.037656 37.754219 
L 338.037656 37.754219 
" style="fill:none;stroke:#dd8452;stroke-linecap:round;stroke-width:1.5;"></path>
    </g>
    <g id="line2d_21"></g>
    <g id="text_19">
     <!-- bias -->
     <defs>
      <path d="M 48.6875 27.296875 
Q 48.6875 37.203125 44.609375 42.84375 
Q 40.53125 48.484375 33.40625 48.484375 
Q 26.265625 48.484375 22.1875 42.84375 
Q 18.109375 37.203125 18.109375 27.296875 
Q 18.109375 17.390625 22.1875 11.75 
Q 26.265625 6.109375 33.40625 6.109375 
Q 40.53125 6.109375 44.609375 11.75 
Q 48.6875 17.390625 48.6875 27.296875 
z
M 18.109375 46.390625 
Q 20.953125 51.265625 25.265625 53.625 
Q 29.59375 56 35.59375 56 
Q 45.5625 56 51.78125 48.09375 
Q 58.015625 40.1875 58.015625 27.296875 
Q 58.015625 14.40625 51.78125 6.484375 
Q 45.5625 -1.421875 35.59375 -1.421875 
Q 29.59375 -1.421875 25.265625 0.953125 
Q 20.953125 3.328125 18.109375 8.203125 
L 18.109375 0 
L 9.078125 0 
L 9.078125 75.984375 
L 18.109375 75.984375 
z
" id="DejaVuSans-98"></path>
      <path d="M 44.28125 53.078125 
L 44.28125 44.578125 
Q 40.484375 46.53125 36.375 47.5 
Q 32.28125 48.484375 27.875 48.484375 
Q 21.1875 48.484375 17.84375 46.4375 
Q 14.5 44.390625 14.5 40.28125 
Q 14.5 37.15625 16.890625 35.375 
Q 19.28125 33.59375 26.515625 31.984375 
L 29.59375 31.296875 
Q 39.15625 29.25 43.1875 25.515625 
Q 47.21875 21.78125 47.21875 15.09375 
Q 47.21875 7.46875 41.1875 3.015625 
Q 35.15625 -1.421875 24.609375 -1.421875 
Q 20.21875 -1.421875 15.453125 -0.5625 
Q 10.6875 0.296875 5.421875 2 
L 5.421875 11.28125 
Q 10.40625 8.6875 15.234375 7.390625 
Q 20.0625 6.109375 24.8125 6.109375 
Q 31.15625 6.109375 34.5625 8.28125 
Q 37.984375 10.453125 37.984375 14.40625 
Q 37.984375 18.0625 35.515625 20.015625 
Q 33.0625 21.96875 24.703125 23.78125 
L 21.578125 24.515625 
Q 13.234375 26.265625 9.515625 29.90625 
Q 5.8125 33.546875 5.8125 39.890625 
Q 5.8125 47.609375 11.28125 51.796875 
Q 16.75 56 26.8125 56 
Q 31.78125 56 36.171875 55.265625 
Q 40.578125 54.546875 44.28125 53.078125 
z
" id="DejaVuSans-115"></path>
     </defs>
     <g style="fill:#262626;" transform="translate(346.837656 41.604219)scale(0.11 -0.11)">
      <use xlink:href="#DejaVuSans-98"></use>
      <use x="63.476562" xlink:href="#DejaVuSans-105"></use>
      <use x="91.259766" xlink:href="#DejaVuSans-97"></use>
      <use x="152.539062" xlink:href="#DejaVuSans-115"></use>
     </g>
    </g>
   </g>
  </g>
 </g>
 <defs>
  <clippath id="p901e7d57fb">
   <rect height="217.44" width="334.8" x="59.024844" y="7.2"></rect>
  </clippath>
 </defs>
</svg>