<svg version="1.1" viewBox="0.0 0.0 498.501312335958 187.501312335958" fill="none" stroke="none" stroke-linecap="square" stroke-miterlimit="10" xmlns:xlink="http://www.w3.org/1999/xlink" xmlns="http://www.w3.org/2000/svg"><clipPath id="p.0"><path d="m0 0l498.5013 0l0 187.50131l-498.5013 0l0 -187.50131z" clip-rule="nonzero"/></clipPath><g clip-path="url(#p.0)"><path fill="#000000" fill-opacity="0.0" d="m0 0l498.5013 0l0 187.50131l-498.5013 0z" fill-rule="evenodd"/><path fill="#000000" fill-opacity="0.0" d="m75.40682 73.71301l41.70079 -24.0" fill-rule="evenodd"/><path stroke="#000000" stroke-width="1.0" stroke-linejoin="round" stroke-linecap="butt" d="m75.40682 73.71301l41.70079 -24.0" fill-rule="evenodd"/><path fill="#000000" fill-opacity="0.0" d="m75.40682 73.71301l41.70079 0" fill-rule="evenodd"/><path stroke="#000000" stroke-width="1.0" stroke-linejoin="round" stroke-linecap="butt" d="m75.40682 73.71301l41.70079 0" fill-rule="evenodd"/><path fill="#000000" fill-opacity="0.0" d="m75.40682 73.71301l41.70079 24.0" fill-rule="evenodd"/><path stroke="#000000" stroke-width="1.0" stroke-linejoin="round" stroke-linecap="butt" d="m75.40682 73.71301l41.70079 24.0" fill-rule="evenodd"/><path fill="#000000" fill-opacity="0.0" d="m75.40682 73.71301l41.70079 48.0" fill-rule="evenodd"/><path stroke="#000000" stroke-width="1.0" stroke-linejoin="round" stroke-linecap="butt" d="m75.40682 73.71301l41.70079 48.0" fill-rule="evenodd"/><path fill="#000000" fill-opacity="0.0" d="m75.40682 73.71301l41.70079 72.0" fill-rule="evenodd"/><path stroke="#000000" stroke-width="1.0" stroke-linejoin="round" stroke-linecap="butt" d="m75.40682 73.71301l41.70079 72.0" fill-rule="evenodd"/><path fill="#000000" fill-opacity="0.0" d="m75.40682 97.71301l41.70079 -48.0" fill-rule="evenodd"/><path stroke="#000000" stroke-width="1.0" stroke-linejoin="round" stroke-linecap="butt" d="m75.40682 97.71301l41.70079 -48.0" fill-rule="evenodd"/><path fill="#000000" fill-opacity="0.0" d="m75.40682 97.71301l41.70079 -24.0" fill-rule="evenodd"/><path stroke="#000000" stroke-width="1.0" stroke-linejoin="round" stroke-linecap="butt" d="m75.40682 97.71301l41.70079 -24.0" fill-rule="evenodd"/><path fill="#000000" fill-opacity="0.0" d="m75.40682 97.71301l41.70079 0" fill-rule="evenodd"/><path stroke="#000000" stroke-width="1.0" stroke-linejoin="round" stroke-linecap="butt" d="m75.40682 97.71301l41.70079 0" fill-rule="evenodd"/><path fill="#000000" fill-opacity="0.0" d="m75.40682 97.71301l41.70079 24.0" fill-rule="evenodd"/><path stroke="#000000" stroke-width="1.0" stroke-linejoin="round" stroke-linecap="butt" d="m75.40682 97.71301l41.70079 24.0" fill-rule="evenodd"/><path fill="#000000" fill-opacity="0.0" d="m75.40682 97.71301l41.70079 48.0" fill-rule="evenodd"/><path stroke="#000000" stroke-width="1.0" stroke-linejoin="round" stroke-linecap="butt" d="m75.40682 97.71301l41.70079 48.0" fill-rule="evenodd"/><path fill="#000000" fill-opacity="0.0" d="m75.40682 121.71301l41.70079 -72.0" fill-rule="evenodd"/><path stroke="#000000" stroke-width="1.0" stroke-linejoin="round" stroke-linecap="butt" d="m75.40682 121.71301l41.70079 -72.0" fill-rule="evenodd"/><path fill="#000000" fill-opacity="0.0" d="m75.40682 121.71301l41.70079 -48.0" fill-rule="evenodd"/><path stroke="#000000" stroke-width="1.0" stroke-linejoin="round" stroke-linecap="butt" d="m75.40682 121.71301l41.70079 -48.0" fill-rule="evenodd"/><path fill="#000000" fill-opacity="0.0" d="m75.40682 121.71301l41.70079 -24.0" fill-rule="evenodd"/><path stroke="#000000" stroke-width="1.0" stroke-linejoin="round" stroke-linecap="butt" d="m75.40682 121.71301l41.70079 -24.0" fill-rule="evenodd"/><path fill="#000000" fill-opacity="0.0" d="m75.40682 121.71301l41.70079 0" fill-rule="evenodd"/><path stroke="#000000" stroke-width="1.0" stroke-linejoin="round" stroke-linecap="butt" d="m75.40682 121.71301l41.70079 0" fill-rule="evenodd"/><path fill="#000000" fill-opacity="0.0" d="m75.40682 121.71301l41.70079 24.0" fill-rule="evenodd"/><path stroke="#000000" stroke-width="1.0" stroke-linejoin="round" stroke-linecap="butt" d="m75.40682 121.71301l41.70079 24.0" fill-rule="evenodd"/><path fill="#000000" fill-opacity="0.0" d="m131.40683 49.713013l41.700775 24.0" fill-rule="evenodd"/><path stroke="#000000" stroke-width="1.0" stroke-linejoin="round" stroke-linecap="butt" d="m131.40683 49.713013l41.700775 24.0" fill-rule="evenodd"/><path fill="#000000" fill-opacity="0.0" d="m131.40683 49.713013l41.700775 48.0" fill-rule="evenodd"/><path stroke="#000000" stroke-width="1.0" stroke-linejoin="round" stroke-linecap="butt" d="m131.40683 49.713013l41.700775 48.0" fill-rule="evenodd"/><path fill="#000000" fill-opacity="0.0" d="m131.40683 49.713013l41.700775 72.0" fill-rule="evenodd"/><path stroke="#000000" stroke-width="1.0" stroke-linejoin="round" stroke-linecap="butt" d="m131.40683 49.713013l41.700775 72.0" fill-rule="evenodd"/><path fill="#000000" fill-opacity="0.0" d="m131.40683 73.71301l41.700775 0" fill-rule="evenodd"/><path stroke="#000000" stroke-width="1.0" stroke-linejoin="round" stroke-linecap="butt" d="m131.40683 73.71301l41.700775 0" fill-rule="evenodd"/><path fill="#000000" fill-opacity="0.0" d="m131.40683 73.71301l41.700775 24.0" fill-rule="evenodd"/><path stroke="#000000" stroke-width="1.0" stroke-linejoin="round" stroke-linecap="butt" d="m131.40683 73.71301l41.700775 24.0" fill-rule="evenodd"/><path fill="#000000" fill-opacity="0.0" d="m131.40683 73.71301l41.700775 48.0" fill-rule="evenodd"/><path stroke="#000000" stroke-width="1.0" stroke-linejoin="round" stroke-linecap="butt" d="m131.40683 73.71301l41.700775 48.0" fill-rule="evenodd"/><path fill="#000000" fill-opacity="0.0" d="m131.40683 97.71301l41.700775 -24.0" fill-rule="evenodd"/><path stroke="#000000" stroke-width="1.0" stroke-linejoin="round" stroke-linecap="butt" d="m131.40683 97.71301l41.700775 -24.0" fill-rule="evenodd"/><path fill="#000000" fill-opacity="0.0" d="m131.40683 97.71301l41.700775 0" fill-rule="evenodd"/><path stroke="#000000" stroke-width="1.0" stroke-linejoin="round" stroke-linecap="butt" d="m131.40683 97.71301l41.700775 0" fill-rule="evenodd"/><path fill="#000000" fill-opacity="0.0" d="m131.40683 97.71301l41.700775 24.0" fill-rule="evenodd"/><path stroke="#000000" stroke-width="1.0" stroke-linejoin="round" stroke-linecap="butt" d="m131.40683 97.71301l41.700775 24.0" fill-rule="evenodd"/><path fill="#000000" fill-opacity="0.0" d="m131.40683 121.71301l41.700775 -48.0" fill-rule="evenodd"/><path stroke="#000000" stroke-width="1.0" stroke-linejoin="round" stroke-linecap="butt" d="m131.40683 121.71301l41.700775 -48.0" fill-rule="evenodd"/><path fill="#000000" fill-opacity="0.0" d="m131.40683 121.71301l41.700775 -24.0" fill-rule="evenodd"/><path stroke="#000000" stroke-width="1.0" stroke-linejoin="round" stroke-linecap="butt" d="m131.40683 121.71301l41.700775 -24.0" fill-rule="evenodd"/><path fill="#000000" fill-opacity="0.0" d="m131.40683 121.71301l41.700775 0" fill-rule="evenodd"/><path stroke="#000000" stroke-width="1.0" stroke-linejoin="round" stroke-linecap="butt" d="m131.40683 121.71301l41.700775 0" fill-rule="evenodd"/><path fill="#000000" fill-opacity="0.0" d="m131.40683 145.71301l41.700775 -24.0" fill-rule="evenodd"/><path stroke="#000000" stroke-width="1.0" stroke-linejoin="round" stroke-linecap="butt" d="m131.40683 145.71301l41.700775 -24.0" fill-rule="evenodd"/><path fill="#000000" fill-opacity="0.0" d="m131.40683 145.71301l41.700775 -48.0" fill-rule="evenodd"/><path stroke="#000000" stroke-width="1.0" stroke-linejoin="round" stroke-linecap="butt" d="m131.40683 145.71301l41.700775 -48.0" fill-rule="evenodd"/><path fill="#000000" fill-opacity="0.0" d="m131.40683 145.71301l41.700775 -72.0" fill-rule="evenodd"/><path stroke="#000000" stroke-width="1.0" stroke-linejoin="round" stroke-linecap="butt" d="m131.40683 145.71301l41.700775 -72.0" fill-rule="evenodd"/><path fill="#f4cccc" d="m61.107613 73.71301l0 0c0 -3.948616 3.2009888 -7.149605 7.149605 -7.149605l0 0c1.8961945 0 3.7147217 0.75325775 5.0555344 2.0940704c1.3408127 1.3408127 2.0940704 3.15934 2.0940704 5.0555344l0 0c0 3.948616 -3.2009888 7.149605 -7.149605 7.149605l0 0c-3.948616 0 -7.149605 -3.2009888 -7.149605 -7.149605z" fill-rule="evenodd"/><path stroke="#000000" stroke-width="1.0" stroke-linejoin="round" stroke-linecap="butt" d="m61.107613 73.71301l0 0c0 -3.948616 3.2009888 -7.149605 7.149605 -7.149605l0 0c1.8961945 0 3.7147217 0.75325775 5.0555344 2.0940704c1.3408127 1.3408127 2.0940704 3.15934 2.0940704 5.0555344l0 0c0 3.948616 -3.2009888 7.149605 -7.149605 7.149605l0 0c-3.948616 0 -7.149605 -3.2009888 -7.149605 -7.149605z" fill-rule="evenodd"/><path fill="#f4cccc" d="m61.107613 97.71301l0 0c0 -3.948616 3.2009888 -7.149605 7.149605 -7.149605l0 0c1.8961945 0 3.7147217 0.75325775 5.0555344 2.0940704c1.3408127 1.3408127 2.0940704 3.15934 2.0940704 5.0555344l0 0c0 3.948616 -3.2009888 7.149605 -7.149605 7.149605l0 0c-3.948616 0 -7.149605 -3.2009888 -7.149605 -7.149605z" fill-rule="evenodd"/><path stroke="#000000" stroke-width="1.0" stroke-linejoin="round" stroke-linecap="butt" d="m61.107613 97.71301l0 0c0 -3.948616 3.2009888 -7.149605 7.149605 -7.149605l0 0c1.8961945 0 3.7147217 0.75325775 5.0555344 2.0940704c1.3408127 1.3408127 2.0940704 3.15934 2.0940704 5.0555344l0 0c0 3.948616 -3.2009888 7.149605 -7.149605 7.149605l0 0c-3.948616 0 -7.149605 -3.2009888 -7.149605 -7.149605z" fill-rule="evenodd"/><path fill="#f4cccc" d="m61.107613 121.71301l0 0c0 -3.948616 3.2009888 -7.149605 7.149605 -7.149605l0 0c1.8961945 0 3.7147217 0.75325775 5.0555344 2.0940704c1.3408127 1.3408127 2.0940704 3.15934 2.0940704 5.0555344l0 0c0 3.948616 -3.2009888 7.1496124 -7.149605 7.1496124l0 0c-3.948616 0 -7.149605 -3.2009964 -7.149605 -7.1496124z" fill-rule="evenodd"/><path stroke="#000000" stroke-width="1.0" stroke-linejoin="round" stroke-linecap="butt" d="m61.107613 121.71301l0 0c0 -3.948616 3.2009888 -7.149605 7.149605 -7.149605l0 0c1.8961945 0 3.7147217 0.75325775 5.0555344 2.0940704c1.3408127 1.3408127 2.0940704 3.15934 2.0940704 5.0555344l0 0c0 3.948616 -3.2009888 7.1496124 -7.149605 7.1496124l0 0c-3.948616 0 -7.149605 -3.2009964 -7.149605 -7.1496124z" fill-rule="evenodd"/><path fill="#f4cccc" d="m117.10761 73.71301l0 0c0 -3.948616 3.2009888 -7.149605 7.149605 -7.149605l0 0c1.8961945 0 3.7147217 0.75325775 5.055542 2.0940704c1.340805 1.3408127 2.0940704 3.15934 2.0940704 5.0555344l0 0c0 3.948616 -3.2009888 7.149605 -7.1496124 7.149605l0 0c-3.948616 0 -7.149605 -3.2009888 -7.149605 -7.149605z" fill-rule="evenodd"/><path stroke="#000000" stroke-width="1.0" stroke-linejoin="round" stroke-linecap="butt" d="m117.10761 73.71301l0 0c0 -3.948616 3.2009888 -7.149605 7.149605 -7.149605l0 0c1.8961945 0 3.7147217 0.75325775 5.055542 2.0940704c1.340805 1.3408127 2.0940704 3.15934 2.0940704 5.0555344l0 0c0 3.948616 -3.2009888 7.149605 -7.1496124 7.149605l0 0c-3.948616 0 -7.149605 -3.2009888 -7.149605 -7.149605z" fill-rule="evenodd"/><path fill="#f4cccc" d="m117.10761 97.71301l0 0c0 -3.948616 3.2009888 -7.149605 7.149605 -7.149605l0 0c1.8961945 0 3.7147217 0.75325775 5.055542 2.0940704c1.340805 1.3408127 2.0940704 3.15934 2.0940704 5.0555344l0 0c0 3.948616 -3.2009888 7.149605 -7.1496124 7.149605l0 0c-3.948616 0 -7.149605 -3.2009888 -7.149605 -7.149605z" fill-rule="evenodd"/><path stroke="#000000" stroke-width="1.0" stroke-linejoin="round" stroke-linecap="butt" d="m117.10761 97.71301l0 0c0 -3.948616 3.2009888 -7.149605 7.149605 -7.149605l0 0c1.8961945 0 3.7147217 0.75325775 5.055542 2.0940704c1.340805 1.3408127 2.0940704 3.15934 2.0940704 5.0555344l0 0c0 3.948616 -3.2009888 7.149605 -7.1496124 7.149605l0 0c-3.948616 0 -7.149605 -3.2009888 -7.149605 -7.149605z" fill-rule="evenodd"/><path fill="#f4cccc" d="m117.10761 121.71301l0 0c0 -3.948616 3.2009888 -7.149605 7.149605 -7.149605l0 0c1.8961945 0 3.7147217 0.75325775 5.055542 2.0940704c1.340805 1.3408127 2.0940704 3.15934 2.0940704 5.0555344l0 0c0 3.948616 -3.2009888 7.1496124 -7.1496124 7.1496124l0 0c-3.948616 0 -7.149605 -3.2009964 -7.149605 -7.1496124z" fill-rule="evenodd"/><path stroke="#000000" stroke-width="1.0" stroke-linejoin="round" stroke-linecap="butt" d="m117.10761 121.71301l0 0c0 -3.948616 3.2009888 -7.149605 7.149605 -7.149605l0 0c1.8961945 0 3.7147217 0.75325775 5.055542 2.0940704c1.340805 1.3408127 2.0940704 3.15934 2.0940704 5.0555344l0 0c0 3.948616 -3.2009888 7.1496124 -7.1496124 7.1496124l0 0c-3.948616 0 -7.149605 -3.2009964 -7.149605 -7.1496124z" fill-rule="evenodd"/><path fill="#f4cccc" d="m117.10761 49.713013l0 0c0 -3.9486198 3.2009888 -7.149605 7.149605 -7.149605l0 0c1.8961945 0 3.7147217 0.75325775 5.055542 2.0940704c1.340805 1.3408089 2.0940704 3.15934 2.0940704 5.0555344l0 0c0 3.9486198 -3.2009888 7.149605 -7.1496124 7.149605l0 0c-3.948616 0 -7.149605 -3.200985 -7.149605 -7.149605z" fill-rule="evenodd"/><path stroke="#000000" stroke-width="1.0" stroke-linejoin="round" stroke-linecap="butt" d="m117.10761 49.713013l0 0c0 -3.9486198 3.2009888 -7.149605 7.149605 -7.149605l0 0c1.8961945 0 3.7147217 0.75325775 5.055542 2.0940704c1.340805 1.3408089 2.0940704 3.15934 2.0940704 5.0555344l0 0c0 3.9486198 -3.2009888 7.149605 -7.1496124 7.149605l0 0c-3.948616 0 -7.149605 -3.200985 -7.149605 -7.149605z" fill-rule="evenodd"/><path fill="#f4cccc" d="m117.10761 145.71301l0 0c0 -3.9486237 3.2009888 -7.1496124 7.149605 -7.1496124l0 0c1.8961945 0 3.7147217 0.7532654 5.055542 2.0940704c1.340805 1.3408203 2.0940704 3.1593475 2.0940704 5.055542l0 0c0 3.9486237 -3.2009888 7.1496124 -7.1496124 7.1496124l0 0c-3.948616 0 -7.149605 -3.2009888 -7.149605 -7.1496124z" fill-rule="evenodd"/><path stroke="#000000" stroke-width="1.0" stroke-linejoin="round" stroke-linecap="butt" d="m117.10761 145.71301l0 0c0 -3.9486237 3.2009888 -7.1496124 7.149605 -7.1496124l0 0c1.8961945 0 3.7147217 0.7532654 5.055542 2.0940704c1.340805 1.3408203 2.0940704 3.1593475 2.0940704 5.055542l0 0c0 3.9486237 -3.2009888 7.1496124 -7.1496124 7.1496124l0 0c-3.948616 0 -7.149605 -3.2009888 -7.149605 -7.1496124z" fill-rule="evenodd"/><path fill="#000000" fill-opacity="0.0" d="m368.95276 53.035435l50.582672 0l0 13.29134l-50.582672 0z" fill-rule="evenodd"/><path fill="#3c78d8" d="m396.66788 57.8511l0.09375 0.171875q-0.171875 0.46875 -0.265625 1.078125q-0.78125 -0.046875 -3.125 -0.171875l-0.078125 0.15625q0.828125 0.359375 1.1875 0.8125q0.375 0.765625 0.375 1.84375q0 1.390625 -0.59375 2.6718788q-0.578125 1.265625 -1.5625 1.859375q-0.984375 0.59375 -2.265625 0.59375q-1.859375 0 -3.09375 -1.15625q-1.21875 -1.15625 -1.21875 -3.2031288q0 -1.4375 0.609375 -2.421875q0.609375 -0.984375 1.59375 -1.46875q1.0 -0.5 2.703125 -0.5l1.53125 0.015625q2.46875 0 4.109375 -0.28125zm-8.890625 4.671875q0 1.9218788 0.78125 2.9062538q0.796875 0.96875 2.078125 0.96875q1.46875 0 2.203125 -1.15625q0.734375 -1.15625 0.734375 -3.0937538q0 -1.703125 -0.625 -2.625q-0.609375 -0.9375 -2.046875 -0.9375q-1.59375 0 -2.359375 1.0625q-0.765625 1.046875 -0.765625 2.875z" fill-rule="nonzero"/><path fill="#3c78d8" d="m397.0548 73.663605l-0.078125 -0.0625l0 -0.28125l2.03125 -2.15625q1.265625 -1.328125 1.625 -2.046875q0.375 -0.734375 0.375 -1.375q0 -0.734375 -0.453125 -1.21875q-0.4375 -0.5 -1.203125 -0.5q-0.5 0 -0.859375 0.15625q-0.359375 0.140625 -0.484375 0.328125q-0.125 0.1875 -0.359375 1.0625l-0.0625 0.046875l-0.25 0l-0.0625 -0.046875q0.140625 -0.828125 0.203125 -1.625q0.5625 -0.5625 1.0625 -0.71875q0.5 -0.15625 1.03125 -0.15625q0.640625 0 1.234375 0.25q0.59375 0.234375 0.953125 0.78125q0.359375 0.546875 0.359375 1.265625q0 0.53125 -0.21875 1.078125q-0.203125 0.53125 -0.609375 1.03125q-0.40625 0.5 -1.109375 1.203125l-1.890625 1.921875l2.40625 0q1.09375 0 1.828125 -0.078125l0.046875 0.046875q-0.03125 0.21875 -0.03125 0.546875q0 0.296875 0.03125 0.484375l-0.046875 0.0625q-0.4375 -0.03125 -1.34375 -0.046875q-0.890625 -0.015625 -1.1875 -0.015625q-0.59375 0 -1.59375 0.015625q-0.984375 0.015625 -1.34375 0.046875z" fill-rule="nonzero"/><path fill="#000000" fill-opacity="0.0" d="m422.0548 163.06693l49.448822 0l0 13.291336l-49.448822 0z" fill-rule="evenodd"/><path fill="#6aa84f" d="m449.3536 175.74197l-0.0625 0.421875q-1.140625 0.625 -2.015625 0.625q-0.5 0 -0.796875 -0.21875q-0.28125 -0.21875 -0.390625 -0.578125q-0.09375 -0.359375 -0.125 -1.09375l-0.125 -0.078125q-0.75 1.03125 -1.546875 1.546875q-0.796875 0.515625 -1.8125 0.515625q-1.34375 0 -1.96875 -0.84375l-0.1875 0.03125q0.046875 3.609375 0.46875 5.421875l-0.140625 0.203125q-0.515625 0.078125 -1.125 0.109375l-0.15625 -0.140625q0.09375 -3.8125 0.171875 -7.625q0 -4.078125 -0.203125 -5.921875l1.578125 -0.171875l0.203125 0.1875q-0.140625 1.265625 -0.140625 3.0q0 3.0625 0.5625 3.890625q0.5625 0.8125 1.625 0.8125q0.859375 0 1.515625 -0.453125q0.65625 -0.46875 0.96875 -1.265625q0.3125 -0.796875 0.3125 -2.28125q0 -2.25 -0.078125 -3.71875l1.546875 -0.171875l0.203125 0.1875q-0.078125 0.609375 -0.15625 2.203125q-0.0625 1.59375 -0.0625 2.359375q0 1.34375 0.0625 2.0q0.0625 0.640625 0.328125 0.953125q0.265625 0.296875 0.734375 0.296875q0.359375 0 0.8125 -0.203125z" fill-rule="nonzero"/><path fill="#6aa84f" d="m450.6268 176.77322l-0.109375 -0.046875l-0.046875 -0.484375l0.046875 -0.0625q0.609375 -0.1875 1.53125 -0.5625q0.9375 -0.390625 1.34375 -0.609375l0.15625 0.0625q-0.09375 2.671875 -0.09375 3.203125l0 2.25q0 0.828125 0.015625 1.5625q0.015625 0.734375 0.046875 0.875q0.046875 0.125 0.125 0.203125q0.09375 0.0625 0.25 0.09375q0.15625 0.015625 0.9375 0.046875l0.046875 0.0625l0 0.265625l-0.046875 0.046875q-1.328125 -0.046875 -1.875 -0.046875q-0.40625 0 -2.015625 0.046875l-0.046875 -0.046875l0 -0.265625l0.046875 -0.0625q0.921875 -0.0625 1.046875 -0.09375q0.125 -0.03125 0.1875 -0.09375q0.078125 -0.078125 0.125 -0.296875q0.046875 -0.21875 0.0625 -1.25q0.03125 -1.046875 0.03125 -1.078125l0 -2.390625q0 -1.765625 -0.015625 -1.90625q0 -0.15625 -0.09375 -0.15625q-0.03125 0 -0.078125 0.015625q-0.03125 0 -0.265625 0.109375l-0.59375 0.265625q-0.375 0.15625 -0.71875 0.34375z" fill-rule="nonzero"/><path fill="#000000" fill-opacity="0.0" d="m409.07874 56.125984l0 72.62992" fill-rule="evenodd"/><path stroke="#3c78d8" stroke-width="1.0" stroke-linejoin="round" stroke-linecap="butt" d="m409.07874 59.553074l0 65.77574" fill-rule="evenodd"/><path fill="#3c78d8" stroke="#3c78d8" stroke-width="1.0" stroke-linecap="butt" d="m409.07874 59.55307l1.1246033 1.1245842l-1.1246033 -3.0897675l-1.1245728 3.0897675z" fill-rule="evenodd"/><path fill="#3c78d8" stroke="#3c78d8" stroke-width="1.0" stroke-linecap="butt" d="m409.07874 125.32882l-1.1245728 -1.1245804l1.1245728 3.0897675l1.1246033 -3.0897675z" fill-rule="evenodd"/><path fill="#000000" fill-opacity="0.0" d="m331.40683 145.71301l98.2677 27.181107" fill-rule="evenodd"/><path stroke="#b6d7a8" stroke-width="1.0" stroke-linejoin="round" stroke-linecap="butt" d="m331.40683 145.71301l92.48486 25.581543" fill-rule="evenodd"/><path fill="#b6d7a8" stroke="#b6d7a8" stroke-width="1.0" stroke-linecap="butt" d="m423.45135 172.88652l4.8141785 -0.3821411l-3.9335022 -2.801773z" fill-rule="evenodd"/><path fill="#000000" fill-opacity="0.0" d="m331.40683 49.713013l63.55905 -30.015747" fill-rule="evenodd"/><path stroke="#a4c2f4" stroke-width="1.0" stroke-linejoin="round" stroke-linecap="butt" d="m331.40683 49.713013l58.133606 -27.453588" fill-rule="evenodd"/><path fill="#a4c2f4" stroke="#a4c2f4" stroke-width="1.0" stroke-linecap="butt" d="m390.2458 23.752985l3.3981934 -3.43145l-4.8088684 0.4443283z" fill-rule="evenodd"/><path fill="#000000" fill-opacity="0.0" d="m-6.0367453E-5 88.86483l22.141733 0l0 13.291336l-22.141733 0z" fill-rule="evenodd"/><path fill="#000000" d="m9.40619 102.493l-0.078125 -0.078125l0 -0.359375l0.078125 -0.078125q0.34375 -0.015625 0.546875 -0.109375q0.21875 -0.09375 0.515625 -0.390625q0.3125 -0.3125 1.09375 -1.265625l1.46875 -1.8125l-0.78125 -1.15625q-0.171875 -0.25 -0.71875 -1.0q-0.53125 -0.75 -0.90625 -1.125q-0.359375 -0.375 -0.546875 -0.46875q-0.171875 -0.09375 -0.34375 -0.09375q-0.09375 0 -0.21875 0.015625l-0.09375 -0.0625l-0.078125 -0.375l0.078125 -0.078125q0.921875 -0.109375 2.046875 -0.359375q0.625 0.53125 1.859375 2.4375l0.671875 1.0625l0.578125 -0.71875q0.65625 -0.875 1.859374 -2.59375q0.4375 0.0625 0.6875 0.0625q0.234375 0 0.640625 -0.0625l0.078125 0.0625l0 0.375l-0.078125 0.0625q-0.296875 0.03125 -0.4375 0.09375q-0.140625 0.0625 -0.515625 0.421875q-0.359375 0.359375 -0.96874905 1.09375l-0.546875 0.65625q-0.15625 0.1875 -0.3125 0.390625l-0.5625 0.71875l0.328125 0.53125q0.234375 0.328125 1.09375 1.53125q0.87499905 1.203125 1.218749 1.609375q0.359375 0.40625 0.515625 0.484375q0.15625 0.0625 0.5 0.0625l0.0625 0.078125l0 0.359375l-0.0625 0.078125q-0.671875 -0.0625 -1.046875 -0.0625q-0.109375 0 -1.156249 0.0625q-0.75 -0.9375 -1.515625 -2.109375l-0.921875 -1.390625q-0.9375 1.0625 -2.515625 3.5q-0.625 -0.0625 -0.734375 -0.0625q-0.1875 0 -0.78125 0.0625z" fill-rule="nonzero"/><path fill="#000000" fill-opacity="0.0" d="m30.493439 73.71301l30.614174 0" fill-rule="evenodd"/><path stroke="#000000" stroke-width="1.0" stroke-linejoin="round" stroke-linecap="butt" d="m30.493439 73.71301l27.187084 0" fill-rule="evenodd"/><path fill="#000000" stroke="#000000" stroke-width="1.0" stroke-linecap="butt" d="m57.680527 73.71301l-1.1245842 1.124588l3.0897675 -1.124588l-3.0897675 -1.1245804z" fill-rule="evenodd"/><path fill="#000000" fill-opacity="0.0" d="m30.501312 97.7126l30.614174 0" fill-rule="evenodd"/><path stroke="#000000" stroke-width="1.0" stroke-linejoin="round" stroke-linecap="butt" d="m30.501312 97.7126l27.187084 0" fill-rule="evenodd"/><path fill="#000000" stroke="#000000" stroke-width="1.0" stroke-linecap="butt" d="m57.6884 97.7126l-1.1245842 1.1245804l3.0897675 -1.1245804l-3.0897675 -1.124588z" fill-rule="evenodd"/><path fill="#000000" fill-opacity="0.0" d="m30.501312 121.7126l30.614174 0" fill-rule="evenodd"/><path stroke="#000000" stroke-width="1.0" stroke-linejoin="round" stroke-linecap="butt" d="m30.501312 121.7126l27.187084 0" fill-rule="evenodd"/><path fill="#000000" stroke="#000000" stroke-width="1.0" stroke-linecap="butt" d="m57.6884 121.7126l-1.1245842 1.1245804l3.0897675 -1.1245804l-3.0897675 -1.124588z" fill-rule="evenodd"/><path fill="#000000" fill-opacity="0.0" d="m95.215225 20.751968l58.078735 0l0 25.92126l-58.078735 0z" fill-rule="evenodd"/><path fill="#000000" d="m116.5148 36.73385l1.640625 0l0 -5.21875q0 -0.234375 0.015625 -0.46875l-1.359375 1.171875q-0.0625 0.046875 -0.125 0.0625q-0.046875 0.015625 -0.09375 0.015625q-0.078125 0 -0.140625 -0.03125q-0.0625 -0.046875 -0.09375 -0.09375l-0.296875 -0.40625l2.265625 -1.96875l0.78125 0l0 6.9375l1.5 0l0 0.71875l-4.09375 0l0 -0.71875zm7.8525696 -7.0q0.484375 0 0.90625 0.140625q0.421875 0.140625 0.71875 0.421875q0.3125 0.265625 0.484375 0.671875q0.1875 0.390625 0.1875 0.890625q0 0.421875 -0.140625 0.796875q-0.125 0.359375 -0.34375 0.6875q-0.21875 0.328125 -0.5 0.640625q-0.28125 0.3125 -0.609375 0.640625l-2.0 2.0625q0.203125 -0.0625 0.421875 -0.09375q0.21875 -0.046875 0.421875 -0.046875l2.5625 0q0.15625 0 0.234375 0.09375q0.09375 0.09375 0.09375 0.234375l0 0.578125l-5.09375 0l0 -0.328125q0 -0.09375 0.046875 -0.203125q0.046875 -0.109375 0.125 -0.203125l2.453125 -2.453125q0.296875 -0.3125 0.546875 -0.59375q0.25 -0.28125 0.421875 -0.5625q0.1875 -0.296875 0.28125 -0.59375q0.109375 -0.296875 0.109375 -0.625q0 -0.34375 -0.109375 -0.59375q-0.109375 -0.25 -0.296875 -0.40625q-0.1875 -0.171875 -0.4375 -0.25q-0.25 -0.09375 -0.53125 -0.09375q-0.296875 0 -0.546875 0.09375q-0.234375 0.078125 -0.421875 0.234375q-0.1875 0.140625 -0.328125 0.359375q-0.125 0.203125 -0.1875 0.453125q-0.03125 0.15625 -0.125 0.234375q-0.078125 0.0625 -0.21875 0.0625q-0.03125 0 -0.0625 0q-0.03125 -0.015625 -0.0625 -0.015625l-0.5 -0.078125q0.078125 -0.53125 0.28125 -0.921875q0.21875 -0.40625 0.546875 -0.671875q0.328125 -0.28125 0.75 -0.421875q0.4375 -0.140625 0.921875 -0.140625zm6.0556946 7.796875q-0.5625 0 -1.046875 -0.140625q-0.46875 -0.15625 -0.8125 -0.4375q-0.328125 -0.28125 -0.515625 -0.6875q-0.1875 -0.40625 -0.1875 -0.90625q0 -0.734375 0.375 -1.203125q0.390625 -0.484375 1.109375 -0.6875q-0.609375 -0.21875 -0.921875 -0.65625q-0.296875 -0.453125 -0.296875 -1.078125q0 -0.40625 0.15625 -0.78125q0.171875 -0.375 0.46875 -0.640625q0.3125 -0.265625 0.734375 -0.421875q0.421875 -0.15625 0.9375 -0.15625q0.53125 0 0.953125 0.15625q0.421875 0.15625 0.71875 0.421875q0.3125 0.265625 0.46875 0.640625q0.171875 0.375 0.171875 0.78125q0 0.625 -0.3125 1.078125q-0.296875 0.4375 -0.90625 0.65625q0.71875 0.203125 1.09375 0.6875q0.390625 0.46875 0.390625 1.203125q0 0.5 -0.1875 0.90625q-0.1875 0.40625 -0.53125 0.6875q-0.328125 0.28125 -0.8125 0.4375q-0.46875 0.140625 -1.046875 0.140625zm0 -0.75q0.375 0 0.671875 -0.09375q0.296875 -0.109375 0.5 -0.296875q0.203125 -0.1875 0.3125 -0.453125q0.109375 -0.265625 0.109375 -0.59375q0 -0.390625 -0.125 -0.671875q-0.125 -0.28125 -0.359375 -0.453125q-0.21875 -0.171875 -0.5 -0.25q-0.28125 -0.09375 -0.609375 -0.09375q-0.3125 0 -0.609375 0.09375q-0.28125 0.078125 -0.5 0.25q-0.21875 0.171875 -0.359375 0.453125q-0.125 0.28125 -0.125 0.671875q0 0.328125 0.109375 0.59375q0.109375 0.265625 0.3125 0.453125q0.21875 0.1875 0.515625 0.296875q0.296875 0.09375 0.65625 0.09375zm0 -3.671875q0.375 0 0.640625 -0.109375q0.265625 -0.109375 0.421875 -0.296875q0.171875 -0.1875 0.25 -0.4375q0.078125 -0.25 0.078125 -0.515625q0 -0.265625 -0.09375 -0.5q-0.078125 -0.234375 -0.265625 -0.40625q-0.171875 -0.171875 -0.4375 -0.265625q-0.25 -0.109375 -0.59375 -0.109375q-0.328125 0 -0.59375 0.109375q-0.25 0.09375 -0.4375 0.265625q-0.171875 0.171875 -0.265625 0.40625q-0.078125 0.234375 -0.078125 0.5q0 0.265625 0.078125 0.515625q0.078125 0.25 0.234375 0.4375q0.171875 0.1875 0.4375 0.296875q0.265625 0.109375 0.625 0.109375z" fill-rule="nonzero"/><path fill="#d9d9d9" d="m416.06693 92.44226l0 0c0 -31.945545 13.748749 -57.84252 30.70868 -57.84252l0 0c8.14444 0 15.955292 6.094105 21.714294 16.94168c5.758972 10.847576 8.994354 25.560051 8.994354 40.90084l0 0c0 31.945541 -13.748749 57.842514 -30.708649 57.842514l0 0c-16.95993 0 -30.70868 -25.896973 -30.70868 -57.842514z" fill-rule="evenodd"/><path stroke="#000000" stroke-width="1.0" stroke-linejoin="round" stroke-linecap="butt" d="m416.06693 92.44226l0 0c0 -31.945545 13.748749 -57.84252 30.70868 -57.84252l0 0c8.14444 0 15.955292 6.094105 21.714294 16.94168c5.758972 10.847576 8.994354 25.560051 8.994354 40.90084l0 0c0 31.945541 -13.748749 57.842514 -30.708649 57.842514l0 0c-16.95993 0 -30.70868 -25.896973 -30.70868 -57.842514z" fill-rule="evenodd"/><path fill="#d9d9d9" d="m427.66315 92.44226l0 0c0 -19.882256 8.559479 -36.000004 19.118103 -36.000004l0 0c5.0704346 0 9.933228 3.7928467 13.518555 10.544155c3.5853271 6.7513123 5.599579 15.908051 5.599579 25.455849l0 0c0 19.882248 -8.559479 36.0 -19.118134 36.0l0 0c-10.558624 0 -19.118103 -16.117752 -19.118103 -36.0z" fill-rule="evenodd"/><path stroke="#000000" stroke-width="1.0" stroke-linejoin="round" stroke-linecap="butt" d="m427.66315 92.44226l0 0c0 -19.882256 8.559479 -36.000004 19.118103 -36.000004l0 0c5.0704346 0 9.933228 3.7928467 13.518555 10.544155c3.5853271 6.7513123 5.599579 15.908051 5.599579 25.455849l0 0c0 19.882248 -8.559479 36.0 -19.118134 36.0l0 0c-10.558624 0 -19.118103 -16.117752 -19.118103 -36.0z" fill-rule="evenodd"/><path fill="#d9d9d9" d="m439.63147 92.44389l0 0c0 -7.4362793 3.2009888 -13.464569 7.149597 -13.464569l0 0c1.8962097 0 3.7147522 1.4185867 5.055542 3.9436798c1.3408203 2.5251007 2.0940857 5.9498596 2.0940857 9.520889l0 0c0 7.4362717 -3.2009888 13.464561 -7.1496277 13.464561l0 0c-3.9486084 0 -7.149597 -6.02829 -7.149597 -13.464561z" fill-rule="evenodd"/><path stroke="#000000" stroke-width="1.0" stroke-linejoin="round" stroke-linecap="butt" d="m439.63147 92.44389l0 0c0 -7.4362793 3.2009888 -13.464569 7.149597 -13.464569l0 0c1.8962097 0 3.7147522 1.4185867 5.055542 3.9436798c1.3408203 2.5251007 2.0940857 5.9498596 2.0940857 9.520889l0 0c0 7.4362717 -3.2009888 13.464561 -7.1496277 13.464561l0 0c-3.9486084 0 -7.149597 -6.02829 -7.149597 -13.464561z" fill-rule="evenodd"/><path fill="#000000" fill-opacity="0.0" d="m388.28873 92.44226l107.27557 0" fill-rule="evenodd"/><path stroke="#6aa84f" stroke-width="1.0" stroke-linejoin="round" stroke-linecap="butt" stroke-dasharray="1.0,3.0" d="m388.28873 92.44226l107.27557 0" fill-rule="evenodd"/><path fill="#000000" fill-opacity="0.0" d="m446.77692 25.62336l0 133.63779" fill-rule="evenodd"/><path stroke="#6aa84f" stroke-width="1.0" stroke-linejoin="round" stroke-linecap="butt" stroke-dasharray="1.0,3.0" d="m446.77692 25.62336l0 133.63779" fill-rule="evenodd"/><path fill="#000000" fill-opacity="0.0" d="m483.09186 25.711287l-72.62991 0" fill-rule="evenodd"/><path stroke="#3c78d8" stroke-width="1.0" stroke-linejoin="round" stroke-linecap="butt" d="m479.6648 25.711287l-65.77576 0" fill-rule="evenodd"/><path fill="#3c78d8" stroke="#3c78d8" stroke-width="1.0" stroke-linecap="butt" d="m479.66476 25.711287l-1.1245728 1.1245823l3.0897827 -1.1245823l-3.0897827 -1.1245842z" fill-rule="evenodd"/><path fill="#3c78d8" stroke="#3c78d8" stroke-width="1.0" stroke-linecap="butt" d="m413.88904 25.711287l1.1245728 -1.1245842l-3.0897522 1.1245842l3.0897522 1.1245823z" fill-rule="evenodd"/><path fill="#000000" fill-opacity="0.0" d="m385.97778 1.7194504l44.440918 0l0 13.291339l-44.440918 0z" fill-rule="evenodd"/><path fill="#3c78d8" d="m410.622 6.5351186l0.09375 0.171875q-0.171875 0.46875 -0.265625 1.078125q-0.78125 -0.046875 -3.125 -0.171875l-0.078125 0.15625q0.828125 0.35937452 1.1875 0.8124995q0.375 0.765625 0.375 1.84375q0 1.390625 -0.59375 2.671875q-0.578125 1.265625 -1.5625 1.859375q-0.984375 0.59375 -2.265625 0.59375q-1.859375 0 -3.09375 -1.15625q-1.21875 -1.15625 -1.21875 -3.203125q0 -1.4375 0.609375 -2.421875q0.609375 -0.9843745 1.59375 -1.4687495q1.0 -0.5 2.703125 -0.5l1.53125 0.015625q2.46875 0 4.109375 -0.28125zm-8.890625 4.6718745q0 1.921875 0.78125 2.90625q0.796875 0.96875 2.078125 0.96875q1.46875 0 2.203125 -1.15625q0.734375 -1.15625 0.734375 -3.09375q0 -1.703125 -0.625 -2.625q-0.609375 -0.9374995 -2.046875 -0.9374995q-1.59375 0 -2.359375 1.0624995q-0.765625 1.046875 -0.765625 2.875z" fill-rule="nonzero"/><path fill="#3c78d8" d="m411.64957 15.425743l-0.109375 -0.046875l-0.046875 -0.484375l0.046875 -0.0625q0.609375 -0.1875 1.53125 -0.5625q0.9375 -0.390625 1.34375 -0.609375l0.15625 0.0625q-0.09375 2.671875 -0.09375 3.203125l0 2.25q0 0.828125 0.015625 1.5625q0.015625 0.734375 0.046875 0.875q0.046875 0.125 0.125 0.203125q0.09375 0.0625 0.25 0.09375q0.15625 0.015625 0.9375 0.046875l0.046875 0.0625l0 0.265625l-0.046875 0.046875q-1.328125 -0.046875 -1.875 -0.046875q-0.40625 0 -2.015625 0.046875l-0.046875 -0.046875l0 -0.265625l0.046875 -0.0625q0.921875 -0.0625 1.046875 -0.09375q0.125 -0.03125 0.1875 -0.09375q0.078125 -0.078125 0.125 -0.296875q0.046875 -0.21875 0.0625 -1.25q0.03125 -1.046875 0.03125 -1.078125l0 -2.390625q0 -1.765625 -0.015625 -1.90625q0 -0.15625 -0.09375 -0.15625q-0.03125 0 -0.078125 0.015625q-0.03125 0 -0.265625 0.109375l-0.59375 0.265625q-0.375 0.15625 -0.71875 0.34375z" fill-rule="nonzero"/><path fill="#000000" fill-opacity="0.0" d="m349.4856 85.691605l50.582672 0l0 13.291336l-50.582672 0z" fill-rule="evenodd"/><path fill="#6aa84f" d="m377.35132 98.366646l-0.0625 0.421875q-1.140625 0.625 -2.015625 0.625q-0.5 0 -0.796875 -0.21875q-0.28125 -0.21875 -0.390625 -0.578125q-0.09375 -0.359375 -0.125 -1.09375l-0.125 -0.078125q-0.75 1.03125 -1.546875 1.546875q-0.796875 0.515625 -1.8125 0.515625q-1.34375 0 -1.96875 -0.84375l-0.1875 0.03125q0.046875 3.609375 0.46875 5.421875l-0.140625 0.203125q-0.515625 0.078125 -1.125 0.109375l-0.15625 -0.140625q0.09375 -3.8125 0.171875 -7.625q0 -4.078125 -0.203125 -5.921875l1.578125 -0.171875l0.203125 0.1875q-0.140625 1.265625 -0.140625 3.0q0 3.0625 0.5625 3.890625q0.5625 0.8125 1.625 0.8125q0.859375 0 1.515625 -0.453125q0.65625 -0.46875 0.96875 -1.265625q0.3125 -0.796875 0.3125 -2.28125q0 -2.25 -0.078125 -3.71875l1.546875 -0.171875l0.203125 0.1875q-0.078125 0.609375 -0.15625 2.203125q-0.0625 1.59375 -0.0625 2.359375q0 1.34375 0.0625 2.0q0.0625 0.640625 0.328125 0.953125q0.265625 0.296875 0.734375 0.296875q0.359375 0 0.8125 -0.203125z" fill-rule="nonzero"/><path fill="#6aa84f" d="m377.98392 106.31977l-0.078125 -0.0625l0 -0.28125l2.03125 -2.15625q1.265625 -1.328125 1.625 -2.046875q0.375 -0.734375 0.375 -1.375q0 -0.734375 -0.453125 -1.21875q-0.4375 -0.5 -1.203125 -0.5q-0.5 0 -0.859375 0.15625q-0.359375 0.140625 -0.484375 0.328125q-0.125 0.1875 -0.359375 1.0625l-0.0625 0.046875l-0.25 0l-0.0625 -0.046875q0.140625 -0.828125 0.203125 -1.625q0.5625 -0.5625 1.0625 -0.71875q0.5 -0.15625 1.03125 -0.15625q0.640625 0 1.234375 0.25q0.59375 0.234375 0.953125 0.78125q0.359375 0.546875 0.359375 1.265625q0 0.53125 -0.21875 1.078125q-0.203125 0.53125 -0.609375 1.03125q-0.40625 0.5 -1.109375 1.203125l-1.890625 1.921875l2.40625 0q1.09375 0 1.828125 -0.078125l0.046875 0.046875q-0.03125 0.21875 -0.03125 0.546875q0 0.296875 0.03125 0.484375l-0.046875 0.0625q-0.4375 -0.03125 -1.34375 -0.046875q-0.890625 -0.015625 -1.1875 -0.015625q-0.59375 0 -1.59375 0.015625q-0.984375 0.015625 -1.34375 0.046875z" fill-rule="nonzero"/><path fill="#000000" fill-opacity="0.0" d="m331.40683 121.71301l29.88977 -12.472443" fill-rule="evenodd"/><path stroke="#b6d7a8" stroke-width="1.0" stroke-linejoin="round" stroke-linecap="butt" d="m331.40683 121.713005l24.352509 -10.161842" fill-rule="evenodd"/><path fill="#b6d7a8" stroke="#b6d7a8" stroke-width="1.0" stroke-linecap="butt" d="m356.39542 113.0755l3.5520325 -3.2719574l-4.824188 0.22327423z" fill-rule="evenodd"/><path fill="#000000" fill-opacity="0.0" d="m432.13943 81.51779l29.669281 0l0 13.291344l-29.669281 0z" fill-rule="evenodd"/><path fill="#000000" d="m442.19247 100.03659q0.3125 -0.765625 0.46875 -1.40625l0.21875 0q0.453125 0.484375 0.96875 0.484375q0.640625 0 1.109375 -0.65625q0.484375 -0.640625 1.359375 -2.828125q-0.34375 -0.96875 -0.703125 -1.84375l-1.4375 -3.578125q-0.234375 -0.5625 -0.6875 -1.59375q-0.4375 -1.03125 -0.53125 -1.140625q-0.078125 -0.109375 -0.21875 -0.1875q-0.140625 -0.09375 -0.734375 -0.1875l-0.078125 -0.0625l0 -0.375l0.09375 -0.0625q1.046875 0.0625 2.140625 0.0625q1.296875 0 2.0 -0.0625l0.078125 0.0625l0 0.375l-0.078125 0.0625q-0.09375 0.015625 -0.5625 0.046875q-0.453125 0.03125 -0.5625 0.15625q-0.109375 0.109375 -0.109375 0.25q0 0.15625 0.28125 1.015625q0.28125 0.84375 0.546875 1.5l0.5625 1.421875q0.5625 1.390625 0.875 2.0625l0.484375 -1.0625q0.265625 -0.578125 0.734375 -1.765625l0.75 -1.9375q0.296875 -0.75 0.328125 -0.921875q0.046875 -0.1875 0.046875 -0.265625q0 -0.203125 -0.15625 -0.265625q-0.140625 -0.078125 -0.640625 -0.140625l-0.375 -0.046875l-0.0625 -0.078125l0 -0.40625l0.078125 -0.0625q0.75 0.0625 1.8125 0.0625q0.953125 0 1.515625 -0.0625l0.078125 0.0625l0 0.40625l-0.078125 0.078125q-0.328125 0 -0.53125 0.09375q-0.203125 0.078125 -0.390625 0.296875q-0.171875 0.203125 -0.65625 1.171875q-0.46875 0.96875 -0.9375 2.0l-0.890625 1.96875l-2.109375 4.90625q-0.265625 0.640625 -0.671875 1.359375q-0.40625 0.734375 -1.0 1.0625q-0.578125 0.328125 -1.234375 0.328125q-0.578125 0 -1.09375 -0.296875zm4.875 -14.203125l0 0zm2.140625 9.796875l0 0z" fill-rule="nonzero"/><path fill="#000000" fill-opacity="0.0" d="m331.40683 73.71301l47.496063 -10.897636" fill-rule="evenodd"/><path stroke="#a4c2f4" stroke-width="1.0" stroke-linejoin="round" stroke-linecap="butt" d="m331.40683 73.71301l41.64801 -9.555847" fill-rule="evenodd"/><path fill="#a4c2f4" stroke="#a4c2f4" stroke-width="1.0" stroke-linecap="butt" d="m373.42422 65.76707l4.053772 -2.6247635l-4.7925415 -0.59503555z" fill-rule="evenodd"/><path fill="#000000" fill-opacity="0.0" d="m219.40683 73.71301l41.700775 0" fill-rule="evenodd"/><path stroke="#000000" stroke-width="1.0" stroke-linejoin="round" stroke-linecap="butt" d="m219.40683 73.71301l41.700775 0" fill-rule="evenodd"/><path fill="#000000" fill-opacity="0.0" d="m219.40683 73.71301l41.700775 24.0" fill-rule="evenodd"/><path stroke="#000000" stroke-width="1.0" stroke-linejoin="round" stroke-linecap="butt" d="m219.40683 73.71301l41.700775 24.0" fill-rule="evenodd"/><path fill="#000000" fill-opacity="0.0" d="m219.40683 73.71301l41.700775 48.0" fill-rule="evenodd"/><path stroke="#000000" stroke-width="1.0" stroke-linejoin="round" stroke-linecap="butt" d="m219.40683 73.71301l41.700775 48.0" fill-rule="evenodd"/><path fill="#000000" fill-opacity="0.0" d="m219.40683 97.71301l41.700775 -24.0" fill-rule="evenodd"/><path stroke="#000000" stroke-width="1.0" stroke-linejoin="round" stroke-linecap="butt" d="m219.40683 97.71301l41.700775 -24.0" fill-rule="evenodd"/><path fill="#000000" fill-opacity="0.0" d="m219.40683 97.71301l41.700775 0" fill-rule="evenodd"/><path stroke="#000000" stroke-width="1.0" stroke-linejoin="round" stroke-linecap="butt" d="m219.40683 97.71301l41.700775 0" fill-rule="evenodd"/><path fill="#000000" fill-opacity="0.0" d="m219.40683 97.71301l41.700775 24.0" fill-rule="evenodd"/><path stroke="#000000" stroke-width="1.0" stroke-linejoin="round" stroke-linecap="butt" d="m219.40683 97.71301l41.700775 24.0" fill-rule="evenodd"/><path fill="#000000" fill-opacity="0.0" d="m219.40683 121.71301l41.700775 -48.0" fill-rule="evenodd"/><path stroke="#000000" stroke-width="1.0" stroke-linejoin="round" stroke-linecap="butt" d="m219.40683 121.71301l41.700775 -48.0" fill-rule="evenodd"/><path fill="#000000" fill-opacity="0.0" d="m219.40683 121.71301l41.700775 -24.0" fill-rule="evenodd"/><path stroke="#000000" stroke-width="1.0" stroke-linejoin="round" stroke-linecap="butt" d="m219.40683 121.71301l41.700775 -24.0" fill-rule="evenodd"/><path fill="#000000" fill-opacity="0.0" d="m219.40683 121.71301l41.700775 0" fill-rule="evenodd"/><path stroke="#000000" stroke-width="1.0" stroke-linejoin="round" stroke-linecap="butt" d="m219.40683 121.71301l41.700775 0" fill-rule="evenodd"/><path fill="#c9daf8" d="m317.1076 73.71301l0 0c0 -3.948616 3.2009888 -7.149605 7.1496277 -7.149605l0 0c1.8961792 0 3.7147217 0.75325775 5.0555115 2.0940704c1.3408203 1.3408127 2.0940857 3.15934 2.0940857 5.0555344l0 0c0 3.948616 -3.2009888 7.149605 -7.149597 7.149605l0 0c-3.948639 0 -7.1496277 -3.2009888 -7.1496277 -7.149605z" fill-rule="evenodd"/><path stroke="#000000" stroke-width="1.0" stroke-linejoin="round" stroke-linecap="butt" d="m317.1076 73.71301l0 0c0 -3.948616 3.2009888 -7.149605 7.1496277 -7.149605l0 0c1.8961792 0 3.7147217 0.75325775 5.0555115 2.0940704c1.3408203 1.3408127 2.0940857 3.15934 2.0940857 5.0555344l0 0c0 3.948616 -3.2009888 7.149605 -7.149597 7.149605l0 0c-3.948639 0 -7.1496277 -3.2009888 -7.1496277 -7.149605z" fill-rule="evenodd"/><path fill="#d9ead3" d="m317.1076 121.71301l0 0c0 -3.948616 3.2009888 -7.149605 7.1496277 -7.149605l0 0c1.8961792 0 3.7147217 0.75325775 5.0555115 2.0940704c1.3408203 1.3408127 2.0940857 3.15934 2.0940857 5.0555344l0 0c0 3.948616 -3.2009888 7.1496124 -7.149597 7.1496124l0 0c-3.948639 0 -7.1496277 -3.2009964 -7.1496277 -7.1496124z" fill-rule="evenodd"/><path stroke="#000000" stroke-width="1.0" stroke-linejoin="round" stroke-linecap="butt" d="m317.1076 121.71301l0 0c0 -3.948616 3.2009888 -7.149605 7.1496277 -7.149605l0 0c1.8961792 0 3.7147217 0.75325775 5.0555115 2.0940704c1.3408203 1.3408127 2.0940857 3.15934 2.0940857 5.0555344l0 0c0 3.948616 -3.2009888 7.1496124 -7.149597 7.1496124l0 0c-3.948639 0 -7.1496277 -3.2009964 -7.1496277 -7.1496124z" fill-rule="evenodd"/><path fill="#d9ead3" d="m317.1076 145.71301l0 0c0 -3.9486237 3.2009888 -7.1496124 7.1496277 -7.1496124l0 0c1.8961792 0 3.7147217 0.7532654 5.0555115 2.0940704c1.3408203 1.3408203 2.0940857 3.1593475 2.0940857 5.055542l0 0c0 3.9486237 -3.2009888 7.1496124 -7.149597 7.1496124l0 0c-3.948639 0 -7.1496277 -3.2009888 -7.1496277 -7.1496124z" fill-rule="evenodd"/><path stroke="#000000" stroke-width="1.0" stroke-linejoin="round" stroke-linecap="butt" d="m317.1076 145.71301l0 0c0 -3.9486237 3.2009888 -7.1496124 7.1496277 -7.1496124l0 0c1.8961792 0 3.7147217 0.7532654 5.0555115 2.0940704c1.3408203 1.3408203 2.0940857 3.1593475 2.0940857 5.055542l0 0c0 3.9486237 -3.2009888 7.1496124 -7.149597 7.1496124l0 0c-3.948639 0 -7.1496277 -3.2009888 -7.1496277 -7.1496124z" fill-rule="evenodd"/><path fill="#c9daf8" d="m317.1076 49.713013l0 0c0 -3.9486198 3.2009888 -7.149605 7.1496277 -7.149605l0 0c1.8961792 0 3.7147217 0.75325775 5.0555115 2.0940704c1.3408203 1.3408089 2.0940857 3.15934 2.0940857 5.0555344l0 0c0 3.9486198 -3.2009888 7.149605 -7.149597 7.149605l0 0c-3.948639 0 -7.1496277 -3.200985 -7.1496277 -7.149605z" fill-rule="evenodd"/><path stroke="#000000" stroke-width="1.0" stroke-linejoin="round" stroke-linecap="butt" d="m317.1076 49.713013l0 0c0 -3.9486198 3.2009888 -7.149605 7.1496277 -7.149605l0 0c1.8961792 0 3.7147217 0.75325775 5.0555115 2.0940704c1.3408203 1.3408089 2.0940857 3.15934 2.0940857 5.0555344l0 0c0 3.9486198 -3.2009888 7.149605 -7.149597 7.149605l0 0c-3.948639 0 -7.1496277 -3.200985 -7.1496277 -7.149605z" fill-rule="evenodd"/><path fill="#000000" fill-opacity="0.0" d="m275.40683 73.71301l41.700775 -24.0" fill-rule="evenodd"/><path stroke="#000000" stroke-width="1.0" stroke-linejoin="round" stroke-linecap="butt" d="m275.40683 73.71301l41.700775 -24.0" fill-rule="evenodd"/><path fill="#000000" fill-opacity="0.0" d="m275.40683 73.71301l41.700775 0" fill-rule="evenodd"/><path stroke="#000000" stroke-width="1.0" stroke-linejoin="round" stroke-linecap="butt" d="m275.40683 73.71301l41.700775 0" fill-rule="evenodd"/><path fill="#000000" fill-opacity="0.0" d="m275.40683 73.71301l41.700775 48.0" fill-rule="evenodd"/><path stroke="#000000" stroke-width="1.0" stroke-linejoin="round" stroke-linecap="butt" d="m275.40683 73.71301l41.700775 48.0" fill-rule="evenodd"/><path fill="#000000" fill-opacity="0.0" d="m275.40683 73.71301l41.700775 72.0" fill-rule="evenodd"/><path stroke="#000000" stroke-width="1.0" stroke-linejoin="round" stroke-linecap="butt" d="m275.40683 73.71301l41.700775 72.0" fill-rule="evenodd"/><path fill="#000000" fill-opacity="0.0" d="m275.40683 121.71301l41.700775 24.0" fill-rule="evenodd"/><path stroke="#000000" stroke-width="1.0" stroke-linejoin="round" stroke-linecap="butt" d="m275.40683 121.71301l41.700775 24.0" fill-rule="evenodd"/><path fill="#000000" fill-opacity="0.0" d="m275.40683 121.71301l41.700775 0" fill-rule="evenodd"/><path stroke="#000000" stroke-width="1.0" stroke-linejoin="round" stroke-linecap="butt" d="m275.40683 121.71301l41.700775 0" fill-rule="evenodd"/><path fill="#000000" fill-opacity="0.0" d="m275.40683 121.71301l41.700775 -48.0" fill-rule="evenodd"/><path stroke="#000000" stroke-width="1.0" stroke-linejoin="round" stroke-linecap="butt" d="m275.40683 121.71301l41.700775 -48.0" fill-rule="evenodd"/><path fill="#000000" fill-opacity="0.0" d="m275.40683 121.71301l41.700775 -72.0" fill-rule="evenodd"/><path stroke="#000000" stroke-width="1.0" stroke-linejoin="round" stroke-linecap="butt" d="m275.40683 121.71301l41.700775 -72.0" fill-rule="evenodd"/><path fill="#000000" fill-opacity="0.0" d="m275.40683 97.71301l41.700775 -24.0" fill-rule="evenodd"/><path stroke="#000000" stroke-width="1.0" stroke-linejoin="round" stroke-linecap="butt" d="m275.40683 97.71301l41.700775 -24.0" fill-rule="evenodd"/><path fill="#000000" fill-opacity="0.0" d="m275.40683 97.71301l41.700775 -48.0" fill-rule="evenodd"/><path stroke="#000000" stroke-width="1.0" stroke-linejoin="round" stroke-linecap="butt" d="m275.40683 97.71301l41.700775 -48.0" fill-rule="evenodd"/><path fill="#000000" fill-opacity="0.0" d="m275.40683 97.71301l41.700775 24.0" fill-rule="evenodd"/><path stroke="#000000" stroke-width="1.0" stroke-linejoin="round" stroke-linecap="butt" d="m275.40683 97.71301l41.700775 24.0" fill-rule="evenodd"/><path fill="#000000" fill-opacity="0.0" d="m275.40683 97.71301l41.700775 48.0" fill-rule="evenodd"/><path stroke="#000000" stroke-width="1.0" stroke-linejoin="round" stroke-linecap="butt" d="m275.40683 97.71301l41.700775 48.0" fill-rule="evenodd"/><path fill="#f4cccc" d="m261.1076 73.71301l0 0c0 -3.948616 3.2009888 -7.149605 7.1496277 -7.149605l0 0c1.8961792 0 3.7147217 0.75325775 5.0555115 2.0940704c1.3408203 1.3408127 2.0940857 3.15934 2.0940857 5.0555344l0 0c0 3.948616 -3.2009888 7.149605 -7.149597 7.149605l0 0c-3.948639 0 -7.1496277 -3.2009888 -7.1496277 -7.149605z" fill-rule="evenodd"/><path stroke="#000000" stroke-width="1.0" stroke-linejoin="round" stroke-linecap="butt" d="m261.1076 73.71301l0 0c0 -3.948616 3.2009888 -7.149605 7.1496277 -7.149605l0 0c1.8961792 0 3.7147217 0.75325775 5.0555115 2.0940704c1.3408203 1.3408127 2.0940857 3.15934 2.0940857 5.0555344l0 0c0 3.948616 -3.2009888 7.149605 -7.149597 7.149605l0 0c-3.948639 0 -7.1496277 -3.2009888 -7.1496277 -7.149605z" fill-rule="evenodd"/><path fill="#f4cccc" d="m261.1076 97.71301l0 0c0 -3.948616 3.2009888 -7.149605 7.1496277 -7.149605l0 0c1.8961792 0 3.7147217 0.75325775 5.0555115 2.0940704c1.3408203 1.3408127 2.0940857 3.15934 2.0940857 5.0555344l0 0c0 3.948616 -3.2009888 7.149605 -7.149597 7.149605l0 0c-3.948639 0 -7.1496277 -3.2009888 -7.1496277 -7.149605z" fill-rule="evenodd"/><path stroke="#000000" stroke-width="1.0" stroke-linejoin="round" stroke-linecap="butt" d="m261.1076 97.71301l0 0c0 -3.948616 3.2009888 -7.149605 7.1496277 -7.149605l0 0c1.8961792 0 3.7147217 0.75325775 5.0555115 2.0940704c1.3408203 1.3408127 2.0940857 3.15934 2.0940857 5.0555344l0 0c0 3.948616 -3.2009888 7.149605 -7.149597 7.149605l0 0c-3.948639 0 -7.1496277 -3.2009888 -7.1496277 -7.149605z" fill-rule="evenodd"/><path fill="#f4cccc" d="m261.1076 121.71301l0 0c0 -3.948616 3.2009888 -7.149605 7.1496277 -7.149605l0 0c1.8961792 0 3.7147217 0.75325775 5.0555115 2.0940704c1.3408203 1.3408127 2.0940857 3.15934 2.0940857 5.0555344l0 0c0 3.948616 -3.2009888 7.1496124 -7.149597 7.1496124l0 0c-3.948639 0 -7.1496277 -3.2009964 -7.1496277 -7.1496124z" fill-rule="evenodd"/><path stroke="#000000" stroke-width="1.0" stroke-linejoin="round" stroke-linecap="butt" d="m261.1076 121.71301l0 0c0 -3.948616 3.2009888 -7.149605 7.1496277 -7.149605l0 0c1.8961792 0 3.7147217 0.75325775 5.0555115 2.0940704c1.3408203 1.3408127 2.0940857 3.15934 2.0940857 5.0555344l0 0c0 3.948616 -3.2009888 7.1496124 -7.149597 7.1496124l0 0c-3.948639 0 -7.1496277 -3.2009964 -7.1496277 -7.1496124z" fill-rule="evenodd"/><path fill="#000000" fill-opacity="0.0" d="m248.06824 44.75197l40.37796 0l0 25.921257l-40.37796 0z" fill-rule="evenodd"/><path fill="#000000" d="m265.3734 53.73385q0.484375 0 0.890625 0.140625q0.421875 0.140625 0.71875 0.390625q0.296875 0.25 0.453125 0.625q0.171875 0.359375 0.171875 0.796875q0 0.359375 -0.09375 0.65625q-0.09375 0.28125 -0.265625 0.5q-0.171875 0.203125 -0.421875 0.359375q-0.25 0.140625 -0.546875 0.234375q0.75 0.203125 1.125 0.671875q0.375 0.453125 0.375 1.15625q0 0.53125 -0.203125 0.953125q-0.203125 0.40625 -0.546875 0.703125q-0.34375 0.296875 -0.8125 0.453125q-0.453125 0.15625 -0.984375 0.15625q-0.609375 0 -1.046875 -0.140625q-0.421875 -0.15625 -0.71875 -0.421875q-0.296875 -0.265625 -0.5 -0.625q-0.1875 -0.375 -0.3125 -0.796875l0.40625 -0.171875q0.109375 -0.046875 0.21875 -0.046875q0.109375 0 0.1875 0.046875q0.078125 0.046875 0.125 0.140625q0.015625 0.015625 0.015625 0.046875q0.015625 0.015625 0.03125 0.046875q0.078125 0.15625 0.171875 0.359375q0.109375 0.1875 0.296875 0.359375q0.1875 0.171875 0.453125 0.296875q0.265625 0.109375 0.671875 0.109375q0.390625 0 0.6875 -0.125q0.3125 -0.140625 0.5 -0.34375q0.203125 -0.21875 0.296875 -0.46875q0.109375 -0.25 0.109375 -0.5q0 -0.3125 -0.078125 -0.5625q-0.078125 -0.265625 -0.296875 -0.453125q-0.21875 -0.1875 -0.609375 -0.28125q-0.375 -0.109375 -0.96875 -0.109375l0 -0.6875q0.484375 -0.015625 0.828125 -0.109375q0.34375 -0.109375 0.5625 -0.28125q0.21875 -0.171875 0.3125 -0.421875q0.109375 -0.25 0.109375 -0.546875q0 -0.328125 -0.109375 -0.5625q-0.109375 -0.25 -0.296875 -0.40625q-0.171875 -0.171875 -0.421875 -0.25q-0.25 -0.078125 -0.53125 -0.078125q-0.28125 0 -0.53125 0.09375q-0.25 0.078125 -0.4375 0.234375q-0.1875 0.140625 -0.3125 0.359375q-0.125 0.203125 -0.1875 0.453125q-0.046875 0.15625 -0.140625 0.234375q-0.078125 0.0625 -0.21875 0.0625q-0.015625 0 -0.046875 0q-0.03125 -0.015625 -0.0625 -0.015625l-0.5 -0.078125q0.078125 -0.53125 0.28125 -0.921875q0.21875 -0.40625 0.546875 -0.671875q0.328125 -0.28125 0.75 -0.421875q0.421875 -0.140625 0.90625 -0.140625zm6.0869446 0q0.484375 0 0.90625 0.140625q0.421875 0.140625 0.71875 0.421875q0.3125 0.265625 0.484375 0.671875q0.1875 0.390625 0.1875 0.890625q0 0.421875 -0.140625 0.796875q-0.125 0.359375 -0.34375 0.6875q-0.21875 0.328125 -0.5 0.640625q-0.28125 0.3125 -0.609375 0.640625l-2.0 2.0625q0.203125 -0.0625 0.421875 -0.09375q0.21875 -0.046875 0.421875 -0.046875l2.5625 0q0.15625 0 0.234375 0.09375q0.09375 0.09375 0.09375 0.234375l0 0.578125l-5.09375 0l0 -0.328125q0 -0.09375 0.046875 -0.203125q0.046875 -0.109375 0.125 -0.203125l2.453125 -2.453125q0.296875 -0.3125 0.546875 -0.59375q0.25 -0.28125 0.421875 -0.5625q0.1875 -0.296875 0.28125 -0.59375q0.109375 -0.296875 0.109375 -0.625q0 -0.34375 -0.109375 -0.59375q-0.109375 -0.25 -0.296875 -0.40625q-0.1875 -0.171875 -0.4375 -0.25q-0.25 -0.09375 -0.53125 -0.09375q-0.296875 0 -0.546875 0.09375q-0.234375 0.078125 -0.421875 0.234375q-0.1875 0.140625 -0.328125 0.359375q-0.125 0.203125 -0.1875 0.453125q-0.03125 0.15625 -0.125 0.234375q-0.078125 0.0625 -0.21875 0.0625q-0.03125 0 -0.0625 0q-0.03125 -0.015625 -0.0625 -0.015625l-0.5 -0.078125q0.078125 -0.53125 0.28125 -0.921875q0.21875 -0.40625 0.546875 -0.671875q0.328125 -0.28125 0.75 -0.421875q0.4375 -0.140625 0.921875 -0.140625z" fill-rule="nonzero"/><path fill="#000000" fill-opacity="0.0" d="m176.06824 84.75197l40.37796 0l0 25.921257l-40.37796 0z" fill-rule="evenodd"/><path fill="#000000" d="m191.28056 100.85885q0 -0.125 0.046875 -0.25q0.046875 -0.125 0.140625 -0.21875q0.09375 -0.09375 0.203125 -0.140625q0.125 -0.046875 0.265625 -0.046875q0.140625 0 0.265625 0.046875q0.125 0.046875 0.203125 0.140625q0.09375 0.09375 0.140625 0.21875q0.0625 0.125 0.0625 0.25q0 0.15625 -0.0625 0.28125q-0.046875 0.109375 -0.140625 0.203125q-0.078125 0.09375 -0.203125 0.140625q-0.125 0.046875 -0.265625 0.046875q-0.140625 0 -0.265625 -0.046875q-0.109375 -0.046875 -0.203125 -0.140625q-0.09375 -0.09375 -0.140625 -0.203125q-0.046875 -0.125 -0.046875 -0.28125zm4.3158264 0q0 -0.125 0.046875 -0.25q0.046875 -0.125 0.140625 -0.21875q0.09375 -0.09375 0.203125 -0.140625q0.125 -0.046875 0.265625 -0.046875q0.140625 0 0.265625 0.046875q0.125 0.046875 0.203125 0.140625q0.09375 0.09375 0.140625 0.21875q0.0625 0.125 0.0625 0.25q0 0.15625 -0.0625 0.28125q-0.046875 0.109375 -0.140625 0.203125q-0.078125 0.09375 -0.203125 0.140625q-0.125 0.046875 -0.265625 0.046875q-0.140625 0 -0.265625 -0.046875q-0.109375 -0.046875 -0.203125 -0.140625q-0.09375 -0.09375 -0.140625 -0.203125q-0.046875 -0.125 -0.046875 -0.28125zm4.3158264 0q0 -0.125 0.046875 -0.25q0.046875 -0.125 0.140625 -0.21875q0.09375 -0.09375 0.203125 -0.140625q0.125 -0.046875 0.265625 -0.046875q0.140625 0 0.265625 0.046875q0.125 0.046875 0.203125 0.140625q0.09375 0.09375 0.140625 0.21875q0.0625 0.125 0.0625 0.25q0 0.15625 -0.0625 0.28125q-0.046875 0.109375 -0.140625 0.203125q-0.078125 0.09375 -0.203125 0.140625q-0.125 0.046875 -0.265625 0.046875q-0.140625 0 -0.265625 -0.046875q-0.109375 -0.046875 -0.203125 -0.140625q-0.09375 -0.09375 -0.140625 -0.203125q-0.046875 -0.125 -0.046875 -0.28125z" fill-rule="nonzero"/></g></svg>