<?xml version="1.0" encoding="utf-8" standalone="no"?>
<!DOCTYPE svg PUBLIC "-//W3C//DTD SVG 1.1//EN"
  "http://www.w3.org/Graphics/SVG/1.1/DTD/svg11.dtd">
<!-- Created with matplotlib (https://matplotlib.org/) -->
<svg height="262.19625pt" version="1.1" viewBox="0 0 356.2 262.19625" width="356.2pt" xmlns="http://www.w3.org/2000/svg" xmlns:xlink="http://www.w3.org/1999/xlink">
 <defs>
  <style type="text/css">
*{stroke-linecap:butt;stroke-linejoin:round;}
  </style>
 </defs>
 <g id="figure_1">
  <g id="patch_1">
   <path d="M 0 262.19625 
L 356.2 262.19625 
L 356.2 0 
L 0 0 
z
" style="fill:none;"/>
  </g>
  <g id="axes_1">
   <g id="patch_2">
    <path d="M 10.7 224.64 
L 345.5 224.64 
L 345.5 7.2 
L 10.7 7.2 
z
" style="fill:#ffffff;"/>
   </g>
   <g id="patch_3">
    <path clip-path="url(#p9dccb4f4f5)" d="M 25.918182 214.756364 
L 26.313632 214.75562 
L 26.709082 214.75549 
L 27.104533 214.75534 
L 27.499983 214.755169 
L 27.895433 214.754973 
L 28.290883 214.75475 
L 28.686333 214.754496 
L 29.081784 214.754208 
L 29.477234 214.753884 
L 29.872684 214.753519 
L 30.268134 214.753109 
L 30.663585 214.752652 
L 31.059035 214.752143 
L 31.454485 214.751578 
L 31.849935 214.750953 
L 32.245385 214.750265 
L 32.640836 214.749508 
L 33.036286 214.748681 
L 33.431736 214.747779 
L 33.827186 214.746799 
L 34.222637 214.745738 
L 34.618087 214.744594 
L 35.013537 214.743364 
L 35.408987 214.742049 
L 35.804438 214.740646 
L 36.199888 214.739155 
L 36.595338 214.737579 
L 36.990788 214.735918 
L 37.386238 214.734175 
L 37.781689 214.732353 
L 38.177139 214.730458 
L 38.572589 214.728495 
L 38.968039 214.726471 
L 39.36349 214.724393 
L 39.75894 214.72227 
L 40.15439 214.720113 
L 40.54984 214.717932 
L 40.94529 214.715738 
L 41.340741 214.713544 
L 41.736191 214.711363 
L 42.131641 214.709209 
L 42.527091 214.707097 
L 42.922542 214.70504 
L 43.317992 214.703053 
L 43.713442 214.70115 
L 44.108892 214.698603 
L 44.504343 214.696783 
L 44.899793 214.695069 
L 45.295243 214.693472 
L 45.690693 214.692001 
L 46.086143 214.690664 
L 46.481594 214.689467 
L 46.877044 214.688415 
L 47.272494 214.687512 
L 47.667944 214.686013 
L 48.458845 214.685279 
L 48.854295 214.684673 
L 49.249745 214.684187 
L 49.645195 214.683815 
L 50.040646 214.683546 
L 50.436096 214.683368 
L 50.831546 214.683268 
L 51.226996 214.682485 
L 51.622447 214.682363 
L 52.017897 214.68225 
L 52.413362 214.681381 
L 52.808812 214.681092 
L 53.204262 214.680728 
L 53.599713 214.680265 
L 53.995163 214.679677 
L 54.390613 214.67894 
L 54.786063 214.678029 
L 55.181514 214.676179 
L 55.576964 214.674725 
L 55.972414 214.672269 
L 56.367864 214.667916 
L 56.763314 214.664344 
L 57.158765 214.659503 
L 57.554215 214.655451 
L 57.949665 214.649406 
L 58.345115 214.643315 
L 58.740573 214.636497 
L 59.136023 214.628904 
L 59.531474 214.620486 
L 59.926924 214.61045 
L 60.322374 214.600846 
L 60.717824 214.58963 
L 61.113274 214.577383 
L 61.508725 214.56405 
L 61.904175 214.548833 
L 62.299625 214.531548 
L 62.695083 214.514224 
L 63.090533 214.495534 
L 63.485983 214.475417 
L 63.881433 214.453066 
L 64.276884 214.427545 
L 64.672334 214.400745 
L 65.067784 214.373419 
L 65.463234 214.344231 
L 65.858685 214.313109 
L 66.254135 214.278494 
L 66.649592 214.242294 
L 67.045043 214.204535 
L 67.440493 214.163777 
L 67.835943 214.119084 
L 68.231393 214.0731 
L 68.626844 214.022256 
L 69.022294 213.970558 
L 69.417744 213.911578 
L 69.813194 213.851915 
L 70.208645 213.78894 
L 70.604095 213.723297 
L 70.999552 213.654162 
L 71.395003 213.581459 
L 71.790453 213.504485 
L 72.185903 213.424534 
L 72.581353 213.340915 
L 72.976804 213.254322 
L 73.372254 213.162608 
L 73.767704 213.067732 
L 74.163154 212.969037 
L 74.558604 212.86502 
L 74.954062 212.755416 
L 75.349512 212.64365 
L 75.744963 212.524836 
L 76.140413 212.402911 
L 76.535863 212.276566 
L 76.931313 212.146506 
L 77.326764 212.012075 
L 77.722214 211.874001 
L 78.117664 211.727192 
L 78.513114 211.577579 
L 78.908564 211.420243 
L 79.304022 211.260572 
L 79.699472 211.098961 
L 80.094923 210.932151 
L 80.490373 210.75706 
L 80.885823 210.576772 
L 81.281273 210.392698 
L 81.676723 210.20353 
L 82.072174 210.002526 
L 82.467624 209.798898 
L 82.863074 209.587872 
L 83.258532 209.3698 
L 83.653982 209.148839 
L 84.049432 208.923199 
L 84.444883 208.684831 
L 84.840333 208.43918 
L 85.235783 208.187478 
L 85.631233 207.925992 
L 86.026683 207.661526 
L 86.422134 207.384996 
L 86.817584 207.10138 
L 87.213042 206.807642 
L 87.608492 206.506211 
L 88.003942 206.19775 
L 88.399392 205.871924 
L 88.794842 205.541074 
L 89.190293 205.199072 
L 89.585743 204.848543 
L 89.981193 204.488779 
L 90.376643 204.11454 
L 90.772094 203.726422 
L 91.167544 203.327438 
L 91.563001 202.909299 
L 91.958452 202.481683 
L 92.353902 202.036598 
L 92.749352 201.577504 
L 93.144802 201.098254 
L 93.540253 200.608694 
L 93.935703 200.104869 
L 94.331153 199.585929 
L 94.726603 199.043513 
L 95.122054 198.490213 
L 95.517511 197.91626 
L 95.912961 197.326001 
L 96.308412 196.716563 
L 96.703862 196.089615 
L 97.099312 195.442861 
L 97.494762 194.765607 
L 97.890213 194.077973 
L 98.285663 193.362778 
L 98.681113 192.628152 
L 99.076563 191.87332 
L 99.472013 191.104753 
L 99.867471 190.307915 
L 100.262921 189.484358 
L 100.658372 188.651262 
L 101.053822 187.794283 
L 101.449272 186.913789 
L 101.844722 186.009483 
L 102.240173 185.08464 
L 102.635623 184.140051 
L 103.031073 183.165001 
L 103.426523 182.176553 
L 103.821981 181.158337 
L 104.217431 180.121516 
L 104.612881 179.06535 
L 105.008332 177.973339 
L 105.403782 176.862332 
L 105.799232 175.729256 
L 106.194682 174.565945 
L 106.590132 173.388786 
L 106.985583 172.178017 
L 107.381033 170.944006 
L 107.776483 169.674933 
L 108.171941 168.391819 
L 108.567391 167.089471 
L 108.962841 165.771753 
L 109.358291 164.410949 
L 109.753742 163.02792 
L 110.149192 161.610551 
L 110.544642 160.179398 
L 110.940092 158.717905 
L 111.335543 157.237481 
L 111.730993 155.726757 
L 112.126451 154.189158 
L 112.521901 152.629129 
L 112.917351 151.042113 
L 113.312801 149.43701 
L 113.708251 147.807554 
L 114.103702 146.162865 
L 114.499152 144.480834 
L 114.894602 142.783355 
L 115.290052 141.063258 
L 115.685503 139.311279 
L 116.08096 137.560356 
L 116.47641 135.775452 
L 116.871861 133.978592 
L 117.267311 132.162823 
L 117.662761 130.334471 
L 118.058211 128.489692 
L 118.453662 126.630761 
L 118.849112 124.761331 
L 119.244562 122.886097 
L 119.640012 120.995403 
L 120.035466 119.092351 
L 120.430916 117.174378 
L 120.826367 115.255159 
L 121.221821 113.322922 
L 121.617271 111.385953 
L 122.012721 109.435217 
L 122.408171 107.487525 
L 122.803622 105.536024 
L 123.199072 103.574243 
L 123.594526 101.606453 
L 123.989976 99.641416 
L 124.385426 97.681139 
L 124.780876 95.719328 
L 125.176327 93.752385 
L 125.571781 91.779799 
L 125.967231 89.815692 
L 126.362681 87.863354 
L 126.758131 85.902657 
L 127.153582 83.956015 
L 127.549035 82.016899 
L 127.944486 80.078284 
L 128.339936 78.152091 
L 128.735386 76.246752 
L 129.130836 74.348823 
L 129.52629 72.448138 
L 129.921741 70.574589 
L 130.317191 68.709375 
L 130.712641 66.864702 
L 131.108091 65.025105 
L 131.503545 63.219566 
L 131.898995 61.428349 
L 132.294446 59.663501 
L 132.689896 57.925482 
L 133.085346 56.210686 
L 133.480796 54.525568 
L 133.87625 52.856766 
L 134.2717 51.213034 
L 134.667151 49.604184 
L 135.062601 48.026868 
L 135.458051 46.484505 
L 135.853505 44.981678 
L 136.248955 43.506218 
L 136.644406 42.058066 
L 137.039856 40.651356 
L 137.435306 39.286056 
L 137.83076 37.939569 
L 138.22621 36.645628 
L 138.62166 35.388424 
L 139.017111 34.17456 
L 139.412561 32.987398 
L 139.808015 31.856062 
L 140.203465 30.749939 
L 140.598915 29.691442 
L 140.994366 28.677457 
L 141.389816 27.712545 
L 141.78527 26.790501 
L 142.18072 25.895498 
L 142.57617 25.052584 
L 142.97162 24.245088 
L 143.367071 23.47789 
L 143.762521 22.76037 
L 144.157975 22.087939 
L 144.553425 21.452509 
L 144.948875 20.854469 
L 145.344325 20.295509 
L 145.739776 19.78998 
L 146.13523 19.321482 
L 146.53068 18.893558 
L 146.92613 18.508712 
L 147.32158 18.186304 
L 147.717031 17.882493 
L 148.112484 17.637302 
L 148.507935 17.435093 
L 148.903385 17.271337 
L 149.298835 17.169662 
L 149.694285 17.103852 
L 150.089739 17.083636 
L 150.48519 17.104173 
L 150.88064 17.171605 
L 151.27609 17.288311 
L 151.671542 17.454868 
L 152.066992 17.675534 
L 152.462443 17.921997 
L 152.857895 18.21812 
L 153.253345 18.554696 
L 153.648797 18.962298 
L 154.044247 19.412049 
L 154.439697 19.92233 
L 154.83515 20.469141 
L 155.2306 21.07238 
L 155.62605 21.721032 
L 156.021502 22.413567 
L 156.416952 23.166654 
L 156.812404 23.961571 
L 157.207855 24.810936 
L 157.603305 25.702684 
L 157.998757 26.637993 
L 158.394207 27.618508 
L 158.789659 28.666689 
L 159.185109 29.750608 
L 159.58056 30.883432 
L 159.976012 32.068822 
L 160.371462 33.276455 
L 160.766912 34.542604 
L 161.162364 35.840691 
L 161.557815 37.180742 
L 161.953267 38.555284 
L 162.348717 39.951327 
L 162.744167 41.398836 
L 163.139619 42.882286 
L 163.535069 44.387351 
L 163.930522 45.927869 
L 164.325972 47.501675 
L 164.721422 49.103625 
L 165.116874 50.72571 
L 165.512324 52.373345 
L 165.907775 54.0433 
L 166.303227 55.741489 
L 166.698677 57.457867 
L 167.094128 59.184746 
L 167.489579 60.94591 
L 167.88503 62.715855 
L 168.280481 64.490061 
L 168.675932 66.274242 
L 169.071383 68.072966 
L 169.466834 69.894823 
L 169.862285 71.727484 
L 170.257735 73.561902 
L 170.653187 75.404425 
L 171.048638 77.255523 
L 171.444089 79.105818 
L 171.839539 80.96303 
L 172.23499 82.827576 
L 172.630441 84.694165 
L 173.025893 86.560165 
L 173.421343 88.435841 
L 173.816794 90.326163 
L 174.212245 92.203037 
L 174.607696 94.084443 
L 175.003147 95.963311 
L 175.398598 97.849505 
L 175.794049 99.723124 
L 176.1895 101.601076 
L 176.584951 103.470507 
L 176.980402 105.344778 
L 177.375853 107.207228 
L 177.771304 109.067811 
L 178.166754 110.936075 
L 178.562206 112.797459 
L 178.957656 114.653505 
L 179.353107 116.504092 
L 179.748558 118.342119 
L 180.144009 120.175068 
L 180.53946 122.001644 
L 180.934911 123.82685 
L 181.330362 125.637937 
L 181.725813 127.44125 
L 182.121264 129.240057 
L 182.516715 131.015804 
L 182.912166 132.781643 
L 183.307617 134.53769 
L 183.703068 136.288093 
L 184.098519 138.015087 
L 184.49397 139.744945 
L 184.889421 141.451969 
L 185.284871 143.143098 
L 185.680322 144.813678 
L 186.075773 146.477547 
L 186.471224 148.127188 
L 186.866675 149.760072 
L 187.262126 151.37778 
L 187.657577 152.977993 
L 188.053028 154.546838 
L 188.448479 156.102593 
L 188.84393 157.645032 
L 189.239381 159.162206 
L 189.634832 160.662641 
L 190.030283 162.133608 
L 190.425733 163.588253 
L 190.821184 165.020483 
L 191.216636 166.424306 
L 191.612087 167.794045 
L 192.007538 169.153904 
L 192.402988 170.480122 
L 192.798439 171.777891 
L 193.19389 173.050762 
L 193.589342 174.292867 
L 193.984792 175.512066 
L 194.380243 176.702524 
L 194.775694 177.87428 
L 195.171145 179.006809 
L 195.566596 180.116355 
L 195.962047 181.191162 
L 196.357498 182.241103 
L 196.752949 183.270947 
L 197.1484 184.265643 
L 197.54385 185.232948 
L 197.939302 186.16882 
L 198.334753 187.081223 
L 198.730203 187.963009 
L 199.125655 188.821598 
L 199.521105 189.652772 
L 199.916555 190.458039 
L 200.312008 191.250066 
L 200.707458 192.008735 
L 201.10291 192.746789 
L 201.49836 193.462106 
L 201.89381 194.154396 
L 202.289262 194.833981 
L 202.684713 195.485807 
L 203.080165 196.113767 
L 203.475615 196.726882 
L 203.871065 197.320785 
L 204.266517 197.898808 
L 204.661968 198.462173 
L 205.057418 199.008859 
L 205.45287 199.542822 
L 205.84832 200.061171 
L 206.243772 200.567206 
L 206.639222 201.07326 
L 207.034673 201.548126 
L 207.430125 202.008364 
L 207.825575 202.463652 
L 208.221027 202.90579 
L 208.616477 203.337321 
L 209.011927 203.759791 
L 209.40738 204.169462 
L 209.80283 204.572023 
L 210.19828 204.962189 
L 210.593732 205.341798 
L 210.989182 205.70862 
L 211.384634 206.071501 
L 211.780085 206.417085 
L 212.175535 206.759946 
L 212.570987 207.096006 
L 212.966437 207.422424 
L 213.361887 207.740981 
L 213.757338 208.044525 
L 214.152792 208.342379 
L 214.548242 208.630887 
L 214.943692 208.908212 
L 215.339142 209.182913 
L 215.734592 209.445711 
L 216.130046 209.698318 
L 216.525497 209.942947 
L 216.920947 210.176346 
L 217.316397 210.401352 
L 217.711847 210.6167 
L 218.107301 210.823982 
L 218.502752 211.025113 
L 218.898202 211.216689 
L 219.293652 211.402064 
L 219.689102 211.581051 
L 220.084556 211.748577 
L 220.480006 211.907871 
L 220.875457 212.060448 
L 221.270907 212.20321 
L 221.666357 212.344309 
L 222.061807 212.474268 
L 222.457261 212.595826 
L 222.852711 212.714513 
L 223.248162 212.824307 
L 223.643612 212.928353 
L 224.039062 213.027349 
L 224.434516 213.119481 
L 224.829966 213.207781 
L 225.225417 213.293489 
L 225.620867 213.370101 
L 226.016317 213.440348 
L 226.411771 213.511635 
L 226.807221 213.574467 
L 227.202671 213.63535 
L 227.598122 213.69351 
L 227.993572 213.747049 
L 228.389026 213.796277 
L 228.784476 213.839587 
L 229.179926 213.882595 
L 229.575377 213.921239 
L 229.970827 213.95778 
L 230.366281 213.992897 
L 230.761731 214.026551 
L 231.157181 214.053675 
L 231.552631 214.080108 
L 231.948082 214.103242 
L 232.343532 214.124675 
L 232.738986 214.144521 
L 233.134436 214.165422 
L 233.529886 214.182051 
L 233.925336 214.197493 
L 234.320787 214.211222 
L 234.716241 214.224075 
L 235.111691 214.236145 
L 235.507141 214.248154 
L 235.902591 214.258833 
L 236.298042 214.269644 
L 236.693495 214.27931 
L 237.088946 214.288652 
L 237.484396 214.298378 
L 237.879846 214.307828 
L 238.275296 214.316447 
L 238.67075 214.324403 
L 239.066201 214.333106 
L 239.461651 214.341225 
L 239.857101 214.349528 
L 240.252551 214.359298 
L 240.648005 214.367827 
L 241.043455 214.377242 
L 241.438906 214.386815 
L 241.834356 214.395925 
L 242.229806 214.405305 
L 242.625256 214.41494 
L 243.02071 214.425444 
L 243.416161 214.435436 
L 243.811611 214.445633 
L 244.207061 214.456009 
L 244.602515 214.467163 
L 244.997965 214.478337 
L 245.393415 214.490143 
L 245.788866 214.500567 
L 246.184316 214.511057 
L 246.579766 214.522205 
L 246.975216 214.532613 
L 247.370667 214.542984 
L 247.766117 214.553282 
L 248.161567 214.564103 
L 248.557017 214.574686 
L 248.952467 214.584381 
L 249.347918 214.5939 
L 249.743368 214.603215 
L 250.138818 214.6123 
L 250.534268 214.621132 
L 250.929719 214.62969 
L 251.325169 214.637958 
L 251.720619 214.645922 
L 252.116069 214.653569 
L 252.511519 214.660892 
L 252.90697 214.667884 
L 253.30242 214.67454 
L 253.69787 214.68086 
L 254.09332 214.686843 
L 254.488771 214.692492 
L 254.884221 214.697812 
L 255.279671 214.702807 
L 255.675121 214.707485 
L 256.070572 214.711854 
L 256.466022 214.715924 
L 256.861472 214.719705 
L 257.256922 214.723209 
L 257.652372 214.72771 
L 258.047823 214.730499 
L 258.443273 214.733075 
L 258.838723 214.735446 
L 259.234173 214.737622 
L 259.629624 214.739614 
L 260.025074 214.742063 
L 260.420524 214.74362 
L 260.815974 214.745037 
L 261.211424 214.746323 
L 261.606875 214.748118 
L 262.002325 214.74907 
L 262.397775 214.74993 
L 262.793225 214.750704 
L 263.188676 214.751399 
L 263.584126 214.752652 
L 263.979576 214.753109 
L 264.375026 214.753519 
L 264.770477 214.753884 
L 265.165927 214.754208 
L 265.561377 214.754496 
L 265.956827 214.75475 
L 266.352277 214.754973 
L 266.747728 214.755169 
L 267.143178 214.75534 
L 267.538628 214.75549 
L 267.934078 214.75562 
z
" style="fill:#1f77b4;opacity:0.4;"/>
   </g>
   <g id="patch_4">
    <path clip-path="url(#p9dccb4f4f5)" d="M 47.022669 214.756364 
L 47.485513 214.754875 
L 47.948357 214.754616 
L 48.411201 214.754317 
L 48.874044 214.753975 
L 49.336888 214.752838 
L 49.799732 214.752262 
L 50.262576 214.751605 
L 50.72542 214.750114 
L 51.188264 214.74914 
L 51.651108 214.748037 
L 52.113951 214.746793 
L 52.576795 214.745395 
L 53.039639 214.743829 
L 53.502483 214.74208 
L 53.965327 214.740133 
L 54.428171 214.737974 
L 54.891014 214.735588 
L 55.353858 214.732959 
L 55.816702 214.729328 
L 56.279546 214.72604 
L 56.74239 214.72096 
L 57.205234 214.7153 
L 57.668077 214.710497 
L 58.130921 214.705264 
L 58.593765 214.699581 
L 59.056609 214.692684 
L 59.519453 214.685913 
L 59.982297 214.678617 
L 60.44514 214.670779 
L 60.907984 214.662384 
L 61.370828 214.652677 
L 61.833672 214.640772 
L 62.296516 214.628618 
L 62.75936 214.617024 
L 63.222203 214.604713 
L 63.685047 214.591675 
L 64.147891 214.577901 
L 64.610735 214.563388 
L 65.073579 214.546646 
L 65.536423 214.530397 
L 65.999266 214.512634 
L 66.46211 214.493978 
L 66.924954 214.474421 
L 67.387798 214.454698 
L 67.850642 214.434189 
L 68.313486 214.412908 
L 68.776329 214.390131 
L 69.239173 214.364262 
L 69.702017 214.340128 
L 70.164861 214.313733 
L 70.627705 214.287073 
L 71.090549 214.259521 
L 71.553393 214.231826 
L 72.016236 214.200404 
L 72.47908 214.169972 
L 73.404768 214.139383 
L 73.867604 214.107281 
L 74.330448 214.074306 
L 74.793292 214.041209 
L 75.256128 214.005151 
L 75.718972 213.968004 
L 76.181816 213.931229 
L 76.644652 213.892077 
L 77.107496 213.853269 
L 77.57034 213.813543 
L 78.033176 213.770667 
L 78.49602 213.727229 
L 78.958864 213.681812 
L 79.421701 213.637221 
L 79.884544 213.590056 
L 80.347381 213.542275 
L 80.810225 213.492463 
L 81.273068 213.440452 
L 81.735905 213.386795 
L 82.198749 213.332151 
L 82.661593 213.274326 
L 83.124429 213.214471 
L 83.587273 213.153952 
L 84.050117 213.089922 
L 84.512953 213.024998 
L 84.975797 212.95632 
L 85.438641 212.886495 
L 85.901477 212.813396 
L 86.364321 212.736772 
L 86.827165 212.655607 
L 87.290001 212.574685 
L 87.752845 212.490727 
L 88.215689 212.402126 
L 88.678525 212.309996 
L 89.141369 212.211959 
L 89.604213 212.112689 
L 90.067049 212.008044 
L 90.529893 211.899132 
L 90.992737 211.785804 
L 91.455573 211.665685 
L 91.918417 211.542719 
L 92.381261 211.41488 
L 92.844097 211.277587 
L 93.306941 211.13963 
L 93.769785 210.991294 
L 94.232622 210.83458 
L 94.695465 210.672633 
L 95.158302 210.506963 
L 95.621146 210.336395 
L 96.083989 210.161066 
L 96.546826 209.976698 
L 97.00967 209.782753 
L 97.472514 209.577892 
L 97.93535 209.369513 
L 98.398194 209.156669 
L 98.861038 208.939011 
L 99.323874 208.707953 
L 99.786718 208.471805 
L 100.249562 208.231698 
L 100.712398 207.979517 
L 101.175242 207.716636 
L 101.638086 207.442355 
L 102.100922 207.160476 
L 102.563766 206.872631 
L 103.02661 206.58051 
L 103.489446 206.277311 
L 103.95229 205.965578 
L 104.415134 205.645963 
L 104.87797 205.315531 
L 105.340814 204.973833 
L 105.803658 204.627065 
L 106.266494 204.267655 
L 106.729338 203.903095 
L 107.192182 203.525847 
L 107.655018 203.136004 
L 108.117862 202.736576 
L 108.580706 202.330526 
L 109.043543 201.911576 
L 109.506386 201.483436 
L 109.969223 201.042058 
L 110.432067 200.587137 
L 110.89491 200.124043 
L 111.357747 199.652323 
L 111.820591 199.167131 
L 112.283434 198.669603 
L 112.746271 198.167678 
L 113.209115 197.652847 
L 113.671959 197.129142 
L 114.134795 196.589204 
L 114.597639 196.042529 
L 115.060483 195.479917 
L 115.523319 194.90377 
L 115.986163 194.322614 
L 116.449007 193.729359 
L 116.911843 193.12234 
L 117.374687 192.509048 
L 117.837531 191.885882 
L 118.300367 191.256125 
L 118.763211 190.606248 
L 119.226055 189.956906 
L 119.688891 189.298991 
L 120.151735 188.624691 
L 120.614575 187.942522 
L 121.077415 187.250459 
L 121.540259 186.548742 
L 122.003099 185.834541 
L 122.465939 185.117236 
L 122.928783 184.395551 
L 123.391623 183.654048 
L 123.854463 182.911743 
L 124.317307 182.157791 
L 124.780147 181.385648 
L 125.242988 180.600859 
L 125.705831 179.808707 
L 126.168672 179.00936 
L 126.631512 178.195094 
L 127.094355 177.368403 
L 127.557196 176.538893 
L 128.020036 175.695443 
L 128.482876 174.825482 
L 128.94572 173.950768 
L 129.40856 173.059988 
L 129.8714 172.15864 
L 130.334244 171.249713 
L 130.797084 170.325875 
L 131.259924 169.386226 
L 131.722768 168.430373 
L 132.185608 167.458435 
L 132.648448 166.47225 
L 133.111292 165.467874 
L 133.574132 164.452793 
L 134.036972 163.412299 
L 134.499812 162.361656 
L 134.962656 161.29423 
L 135.425496 160.209437 
L 135.888336 159.109347 
L 136.35118 157.982293 
L 136.81402 156.849576 
L 137.27686 155.690141 
L 137.739704 154.526976 
L 138.202544 153.348082 
L 138.665384 152.161573 
L 139.128228 150.94719 
L 139.591068 149.725155 
L 140.053909 148.481907 
L 140.516752 147.234243 
L 140.979592 145.9646 
L 141.442433 144.683274 
L 141.905273 143.392748 
L 142.368117 142.091661 
L 142.830957 140.777101 
L 143.293797 139.45862 
L 143.756641 138.115744 
L 144.219481 136.767797 
L 144.682321 135.416263 
L 145.145165 134.05994 
L 145.608005 132.6964 
L 146.070845 131.322275 
L 146.533689 129.948061 
L 146.996529 128.566659 
L 147.459369 127.18359 
L 147.922213 125.787013 
L 148.385053 124.387438 
L 148.847893 123.000205 
L 149.310733 121.610491 
L 149.773577 120.210156 
L 150.236417 118.823207 
L 150.699257 117.421399 
L 151.162099 116.031551 
L 151.624941 114.637472 
L 152.087783 113.24943 
L 152.550623 111.861826 
L 153.013465 110.48309 
L 153.476307 109.115249 
L 153.939147 107.757007 
L 154.401989 106.400274 
L 154.864829 105.048868 
L 155.327671 103.69208 
L 155.790513 102.352349 
L 156.253354 101.014808 
L 156.716196 99.697225 
L 157.179038 98.37608 
L 157.641878 97.068626 
L 158.10472 95.779161 
L 158.56756 94.502186 
L 159.030402 93.235567 
L 159.493244 91.976303 
L 159.956084 90.723733 
L 160.418926 89.484137 
L 160.881768 88.267742 
L 161.344608 87.05923 
L 161.80745 85.868532 
L 162.27029 84.697633 
L 162.733132 83.538367 
L 163.195974 82.386155 
L 163.658814 81.259936 
L 164.121656 80.144254 
L 164.584498 79.043107 
L 165.047338 77.955556 
L 165.51018 76.881678 
L 165.97302 75.838748 
L 166.435862 74.8084 
L 166.898703 73.802172 
L 167.361545 72.815178 
L 167.824386 71.846301 
L 168.287227 70.896401 
L 168.750068 69.96114 
L 169.21291 69.042975 
L 169.675751 68.139582 
L 170.138592 67.253904 
L 170.601433 66.398524 
L 171.064275 65.559989 
L 171.527117 64.742801 
L 171.989958 63.943793 
L 172.452799 63.163977 
L 172.915641 62.404196 
L 173.378482 61.681198 
L 173.841323 60.968788 
L 174.304164 60.27744 
L 174.767005 59.603726 
L 175.229847 58.962328 
L 175.692688 58.331148 
L 176.155529 57.721572 
L 176.61837 57.144418 
L 177.081212 56.595484 
L 177.544053 56.069149 
L 178.006894 55.553503 
L 178.469735 55.065299 
L 178.932577 54.601612 
L 179.395418 54.15516 
L 179.858259 53.721844 
L 180.321101 53.328414 
L 180.783942 52.952082 
L 181.246783 52.60976 
L 181.709624 52.287601 
L 182.172466 51.973825 
L 182.635307 51.695451 
L 183.098148 51.436116 
L 183.56099 51.196471 
L 184.023831 50.981725 
L 184.486672 50.808332 
L 184.949513 50.64604 
L 185.412355 50.502517 
L 185.875196 50.403709 
L 186.338037 50.327357 
L 186.800879 50.271742 
L 187.26372 50.237639 
L 187.726561 50.223001 
L 188.189403 50.240349 
L 188.652244 50.276572 
L 189.115085 50.342245 
L 189.577926 50.421089 
L 190.040768 50.510753 
L 190.503609 50.6333 
L 190.96645 50.785645 
L 191.429291 50.95551 
L 191.892133 51.153388 
L 192.354974 51.368369 
L 192.817815 51.618566 
L 193.280656 51.878436 
L 193.743498 52.159587 
L 194.206339 52.457885 
L 194.66918 52.786374 
L 195.132021 53.140938 
L 195.594863 53.522562 
L 196.057704 53.921561 
L 196.520545 54.336394 
L 196.983386 54.76923 
L 197.446228 55.231671 
L 197.909068 55.729954 
L 198.37191 56.241782 
L 198.834752 56.785607 
L 199.297592 57.347856 
L 199.760434 57.946585 
L 200.223276 58.570243 
L 200.686116 59.21116 
L 201.148958 59.884176 
L 201.611799 60.596958 
L 202.074641 61.329167 
L 202.537483 62.092113 
L 203.000323 62.886032 
L 203.463165 63.724942 
L 203.926007 64.575118 
L 204.388847 65.463816 
L 204.851689 66.387223 
L 205.314529 67.336792 
L 205.777371 68.31016 
L 206.240213 69.317339 
L 206.703053 70.35938 
L 207.165895 71.442939 
L 207.628737 72.550074 
L 208.091577 73.693316 
L 208.554419 74.855872 
L 209.017259 76.064797 
L 209.480101 77.290296 
L 209.942943 78.539203 
L 210.405783 79.798526 
L 210.868625 81.09151 
L 211.331467 82.419976 
L 211.794307 83.767422 
L 212.257149 85.129541 
L 212.719989 86.503101 
L 213.182831 87.899764 
L 213.645673 89.306112 
L 214.108513 90.720458 
L 214.571354 92.152346 
L 215.034197 93.599059 
L 215.497037 95.045247 
L 215.959878 96.507387 
L 216.422721 97.961329 
L 216.885562 99.434265 
L 217.348402 100.904722 
L 217.811245 102.368803 
L 218.274086 103.831363 
L 218.736926 105.284685 
L 219.19977 106.745794 
L 219.66261 108.191548 
L 220.12545 109.640099 
L 220.588294 111.088693 
L 221.051134 112.531551 
L 221.513974 113.964507 
L 221.976814 115.389451 
L 222.439658 116.807252 
L 222.902498 118.211192 
L 223.365338 119.607286 
L 223.828182 121.00567 
L 224.291022 122.391175 
L 224.753862 123.76927 
L 225.216706 125.126949 
L 225.679546 126.484226 
L 226.142386 127.827296 
L 226.60523 129.168568 
L 227.06807 130.503761 
L 227.53091 131.83558 
L 227.993754 133.164256 
L 228.456594 134.479659 
L 228.919434 135.782023 
L 229.382274 137.078282 
L 229.845118 138.377717 
L 230.307958 139.670314 
L 230.770799 140.956937 
L 231.233642 142.234285 
L 231.696483 143.51815 
L 232.159323 144.792409 
L 232.622166 146.055916 
L 233.085007 147.307692 
L 233.547847 148.554552 
L 234.010691 149.806919 
L 234.473531 151.044296 
L 234.936371 152.275865 
L 235.399215 153.510519 
L 235.862055 154.734977 
L 236.324895 155.933303 
L 236.787735 157.141392 
L 237.250579 158.339262 
L 237.713419 159.513016 
L 238.176259 160.68058 
L 238.639103 161.842815 
L 239.101943 162.99628 
L 239.564783 164.141688 
L 240.027627 165.276257 
L 240.490467 166.391127 
L 240.953307 167.496817 
L 241.416151 168.589427 
L 241.878991 169.679077 
L 242.341831 170.743111 
L 242.804675 171.794423 
L 243.267515 172.828516 
L 243.730355 173.852311 
L 244.193195 174.858187 
L 244.656036 175.845487 
L 245.118879 176.826371 
L 245.581723 177.787016 
L 246.04456 178.734403 
L 246.507403 179.658309 
L 246.970247 180.557433 
L 247.433084 181.448575 
L 247.895928 182.321457 
L 248.358771 183.179576 
L 248.821608 184.017878 
L 249.284452 184.836618 
L 249.747295 185.630024 
L 250.210132 186.410587 
L 250.672976 187.166819 
L 251.13582 187.9124 
L 251.598656 188.638752 
L 252.0615 189.350427 
L 252.524344 190.041942 
L 252.98718 190.716269 
L 253.450024 191.367879 
L 253.91286 191.998363 
L 254.375704 192.626086 
L 254.838548 193.230853 
L 255.301384 193.81015 
L 255.764228 194.385847 
L 256.227072 194.944963 
L 256.689908 195.481611 
L 257.152752 196.005424 
L 257.615596 196.515699 
L 258.078432 197.011902 
L 258.541276 197.489223 
L 259.00412 197.957035 
L 259.466957 198.406195 
L 259.9298 198.843772 
L 260.392644 199.270398 
L 260.855481 199.681981 
L 261.318324 200.083872 
L 261.781168 200.475727 
L 262.244005 200.866803 
L 262.706849 201.243527 
L 263.169692 201.60468 
L 263.632529 201.962478 
L 264.095373 202.309537 
L 264.558216 202.649851 
L 265.021053 202.98065 
L 265.483897 203.30637 
L 265.946741 203.628377 
L 266.409577 203.939118 
L 266.872421 204.246022 
L 267.335265 204.547827 
L 267.798101 204.84221 
L 268.260945 205.139842 
L 268.723781 205.422602 
L 269.186625 205.706713 
L 269.649469 205.985076 
L 270.112305 206.259868 
L 270.575149 206.534817 
L 271.037993 206.795255 
L 271.500829 207.059154 
L 271.963673 207.314039 
L 272.426517 207.566273 
L 272.889353 207.811748 
L 273.352197 208.057701 
L 273.815041 208.296859 
L 274.277878 208.529441 
L 274.740721 208.75636 
L 275.203565 208.978909 
L 275.666402 209.194784 
L 276.129245 209.409786 
L 276.592089 209.618928 
L 277.054926 209.82157 
L 277.517769 210.02222 
L 277.980613 210.218378 
L 278.44345 210.403497 
L 278.906294 210.582668 
L 279.369137 210.756522 
L 279.831974 210.926344 
L 280.294818 211.091244 
L 280.757661 211.251744 
L 281.220498 211.404508 
L 281.683342 211.551787 
L 282.146186 211.692983 
L 282.609022 211.829509 
L 283.071866 211.961322 
L 283.534702 212.086514 
L 283.997546 212.20602 
L 284.46039 212.320028 
L 284.923226 212.428726 
L 285.38607 212.535457 
L 285.848914 212.634865 
L 286.31175 212.730014 
L 286.774594 212.825425 
L 287.237438 212.912315 
L 287.700274 212.995264 
L 288.163118 213.075656 
L 288.625962 213.150894 
L 289.088798 213.222589 
L 289.551642 213.293392 
L 290.014486 213.356091 
L 290.477323 213.417232 
L 290.940166 213.476699 
L 291.40301 213.53441 
L 291.865847 213.587151 
L 292.32869 213.639168 
L 292.791534 213.687761 
L 293.254371 213.732551 
L 293.717215 213.777031 
L 294.180058 213.815331 
L 294.642895 213.854498 
L 295.105739 213.892943 
L 295.568582 213.927431 
L 296.031419 213.959032 
L 296.494263 213.990562 
L 296.957107 214.018738 
L 297.419943 214.047741 
L 297.882787 214.074807 
L 298.345623 214.100765 
L 298.808467 214.126325 
L 299.271311 214.149575 
L 299.734147 214.172061 
L 300.196991 214.195104 
L 300.659835 214.216036 
L 301.122671 214.237026 
L 301.585515 214.258022 
L 302.048359 214.277087 
L 302.511195 214.296372 
L 302.974039 214.313914 
L 303.436883 214.331839 
L 303.899719 214.349425 
L 304.362563 214.366687 
L 304.825407 214.383637 
L 305.288251 214.399651 
L 305.751095 214.416094 
L 306.213939 214.432223 
L 306.676782 214.447405 
L 307.139626 214.462365 
L 307.60247 214.477079 
L 308.065314 214.491528 
L 308.528158 214.505688 
L 308.991002 214.519537 
L 309.453845 214.533686 
L 309.916689 214.547383 
L 310.379533 214.561254 
L 310.842377 214.573931 
L 311.305221 214.587413 
L 311.768065 214.598338 
L 312.230909 214.608912 
L 312.693752 214.619111 
L 313.156596 214.629549 
L 313.61944 214.638848 
L 314.082284 214.64837 
L 314.545128 214.656744 
L 315.007972 214.664705 
L 315.470815 214.672247 
L 315.933659 214.68 
L 316.396503 214.686604 
L 316.859347 214.692806 
L 317.322191 214.699241 
L 317.785035 214.704557 
L 318.247878 214.709505 
L 318.710722 214.714096 
L 319.173566 214.718339 
L 319.63641 214.72225 
L 320.099254 214.725841 
L 320.562098 214.729128 
L 321.024941 214.732127 
L 321.487785 214.734854 
L 321.950629 214.737327 
L 322.413473 214.739561 
L 322.876317 214.742205 
L 323.339161 214.743914 
L 323.802004 214.745448 
L 324.264848 214.746819 
L 324.727692 214.748041 
L 325.190536 214.749127 
L 325.65338 214.75072 
L 326.116224 214.751472 
L 326.579067 214.752136 
L 327.041911 214.75272 
L 327.504755 214.754496 
L 327.967599 214.75475 
L 328.430443 214.754973 
L 328.893287 214.755169 
L 329.356131 214.75534 
L 329.818974 214.75549 
L 330.281818 214.75562 
z
" style="fill:#ff7f0e;opacity:0.4;"/>
   </g>
   <g id="patch_5">
    <path clip-path="url(#p9dccb4f4f5)" d="M 34.999567 214.756364 
L 35.390793 214.75562 
L 35.782018 214.75549 
L 36.173243 214.75534 
L 36.564468 214.755169 
L 36.955693 214.754973 
L 37.346918 214.75475 
L 37.738143 214.754496 
L 38.129368 214.754208 
L 38.520593 214.753884 
L 38.911818 214.753519 
L 39.303044 214.753109 
L 39.694269 214.752652 
L 40.085494 214.752143 
L 40.476719 214.751578 
L 40.867944 214.750953 
L 41.259169 214.750265 
L 41.650394 214.749508 
L 42.041619 214.748681 
L 42.432844 214.747779 
L 42.82407 214.746799 
L 43.215295 214.745738 
L 43.60652 214.744594 
L 43.997745 214.743364 
L 44.38897 214.742049 
L 44.780195 214.740646 
L 45.17142 214.739155 
L 45.562645 214.737579 
L 45.95387 214.735918 
L 46.345096 214.734175 
L 46.736321 214.732353 
L 47.127546 214.730458 
L 47.518771 214.728495 
L 47.909996 214.726471 
L 48.301221 214.724393 
L 48.692446 214.72227 
L 49.083671 214.720113 
L 49.474896 214.717932 
L 49.866122 214.714994 
L 50.257347 214.71267 
L 50.648572 214.71034 
L 51.039797 214.708015 
L 51.431022 214.705706 
L 51.822247 214.703426 
L 52.213472 214.701185 
L 52.604697 214.698995 
L 52.995922 214.696867 
L 53.387148 214.694812 
L 53.778373 214.692838 
L 54.169598 214.690955 
L 54.560823 214.689171 
L 54.952048 214.686749 
L 55.343273 214.685051 
L 55.734498 214.683449 
L 56.125723 214.681942 
L 56.516948 214.680529 
L 57.299399 214.679208 
L 57.690624 214.677974 
L 58.081856 214.676821 
L 58.473081 214.675742 
L 58.864307 214.674727 
L 59.255532 214.673022 
L 59.646764 214.671975 
L 60.037989 214.670196 
L 60.429214 214.669028 
L 60.82044 214.667822 
L 61.211665 214.665816 
L 61.602897 214.66435 
L 61.994122 214.66277 
L 62.385347 214.659569 
L 62.776573 214.657444 
L 63.167805 214.654362 
L 63.55903 214.650915 
L 63.950255 214.647061 
L 64.34148 214.6435 
L 64.732705 214.639574 
L 65.123938 214.634511 
L 65.515163 214.629645 
L 65.906388 214.623574 
L 66.297613 214.617632 
L 66.688846 214.611162 
L 67.080071 214.601165 
L 67.471296 214.592307 
L 67.862521 214.583394 
L 68.253746 214.573763 
L 68.644979 214.563387 
L 69.036204 214.552242 
L 69.427429 214.539559 
L 69.818654 214.525188 
L 70.209887 214.511195 
L 70.601112 214.496293 
L 70.992337 214.480465 
L 71.383562 214.463695 
L 71.774795 214.445228 
L 72.16602 214.424927 
L 72.557245 214.404872 
L 72.94847 214.383798 
L 73.339695 214.361704 
L 73.730928 214.338599 
L 74.122153 214.314498 
L 74.513378 214.288675 
L 74.904603 214.262518 
L 75.295836 214.233941 
L 75.687061 214.204958 
L 76.078286 214.175708 
L 76.469511 214.144125 
L 76.860736 214.112239 
L 77.251969 214.08021 
L 77.643194 214.046731 
L 78.034419 214.009516 
L 78.425644 213.973321 
L 78.816876 213.934805 
L 79.208102 213.898218 
L 79.599327 213.860996 
L 79.990552 213.820985 
L 80.381777 213.780216 
L 80.773009 213.740201 
L 81.164234 213.699726 
L 81.55546 213.65884 
L 81.946685 213.61461 
L 82.337917 213.568793 
L 82.729142 213.525678 
L 83.120367 213.482119 
L 83.511593 213.436626 
L 83.902818 213.390423 
L 84.29405 213.343455 
L 84.685275 213.297885 
L 85.0765 213.251042 
L 85.467726 213.203504 
L 85.858958 213.153718 
L 86.250183 213.102095 
L 86.641408 213.046899 
L 87.032633 212.98908 
L 87.423859 212.929031 
L 87.815091 212.868728 
L 88.206316 212.808282 
L 88.597541 212.744869 
L 88.988766 212.675939 
L 89.379999 212.605226 
L 89.771224 212.530469 
L 90.162449 212.452766 
L 90.553674 212.373457 
L 90.944899 212.289689 
L 91.336132 212.202621 
L 91.727357 212.109941 
L 92.118582 212.011958 
L 92.509807 211.910576 
L 92.90104 211.804365 
L 93.292265 211.690948 
L 93.68349 211.573533 
L 94.074715 211.450623 
L 94.465948 211.321375 
L 94.857173 211.187187 
L 95.248398 211.039936 
L 95.639623 210.890958 
L 96.030848 210.737256 
L 96.422081 210.57384 
L 96.813306 210.397852 
L 97.204531 210.222345 
L 97.595756 210.038882 
L 97.986989 209.844992 
L 98.378214 209.648957 
L 98.769439 209.446391 
L 99.160664 209.23872 
L 99.551889 209.021059 
L 99.943122 208.797447 
L 100.334347 208.566555 
L 100.725572 208.325329 
L 101.116797 208.080598 
L 101.508029 207.822532 
L 101.899255 207.560401 
L 102.29048 207.29172 
L 102.681705 207.018019 
L 103.07293 206.735027 
L 103.464162 206.439335 
L 103.855388 206.141825 
L 104.246613 205.832979 
L 104.637838 205.512874 
L 105.02907 205.184361 
L 105.420295 204.84425 
L 105.811521 204.492651 
L 106.202746 204.130123 
L 106.593971 203.758376 
L 106.985203 203.381067 
L 107.376428 202.985926 
L 107.767654 202.580296 
L 108.158879 202.161098 
L 108.550111 201.729977 
L 108.941336 201.286481 
L 109.332561 200.823607 
L 109.723787 200.346614 
L 110.115012 199.849903 
L 110.506244 199.342746 
L 110.897469 198.811033 
L 111.288694 198.263262 
L 111.67992 197.696005 
L 112.071152 197.110156 
L 112.462377 196.498592 
L 112.853602 195.85532 
L 113.244827 195.195674 
L 113.636053 194.517666 
L 114.027285 193.812761 
L 114.41851 193.094219 
L 114.809735 192.346252 
L 115.20096 191.574971 
L 115.592193 190.771957 
L 115.983418 189.951904 
L 116.374643 189.092391 
L 116.765868 188.21785 
L 117.157093 187.318908 
L 117.548326 186.389813 
L 117.939551 185.43653 
L 118.330776 184.451889 
L 118.722001 183.444758 
L 119.113234 182.407637 
L 119.504459 181.346632 
L 119.895684 180.259621 
L 120.286913 179.153407 
L 120.678138 178.020364 
L 121.069363 176.865983 
L 121.460592 175.683775 
L 121.851817 174.480384 
L 122.243046 173.25444 
L 122.634271 172.013419 
L 123.0255 170.741561 
L 123.416725 169.440403 
L 123.807954 168.128084 
L 124.199179 166.783596 
L 124.590408 165.425034 
L 124.981633 164.054947 
L 125.372858 162.662553 
L 125.764087 161.256187 
L 126.155312 159.836574 
L 126.546541 158.389161 
L 126.937766 156.925031 
L 127.328995 155.448064 
L 127.72022 153.96052 
L 128.111449 152.466683 
L 128.502674 150.951707 
L 128.893899 149.41794 
L 129.285128 147.870668 
L 129.676353 146.313699 
L 130.067581 144.76027 
L 130.458807 143.17665 
L 130.850035 141.592341 
L 131.241261 139.996973 
L 131.632489 138.392078 
L 132.023714 136.769966 
L 132.41494 135.144766 
L 132.806168 133.517317 
L 133.197394 131.877036 
L 133.588622 130.229618 
L 133.979847 128.570394 
L 134.371076 126.900199 
L 134.762301 125.233057 
L 135.15353 123.561317 
L 135.544755 121.882485 
L 135.93598 120.200051 
L 136.327209 118.508138 
L 136.718434 116.813995 
L 137.109663 115.116557 
L 137.500888 113.425932 
L 137.892117 111.736299 
L 138.283342 110.039709 
L 138.674571 108.345573 
L 139.065796 106.66149 
L 139.457025 104.964366 
L 139.84825 103.27073 
L 140.239475 101.587243 
L 140.630704 99.904907 
L 141.021929 98.212045 
L 141.413158 96.529635 
L 141.804383 94.862399 
L 142.195612 93.195281 
L 142.586837 91.537719 
L 142.978066 89.885725 
L 143.369291 88.242181 
L 143.760516 86.612617 
L 144.151745 84.991856 
L 144.54297 83.391563 
L 144.934199 81.789597 
L 145.325424 80.214351 
L 145.716653 78.645538 
L 146.107878 77.090799 
L 146.499107 75.540761 
L 146.890332 74.015614 
L 147.281557 72.50969 
L 147.672786 71.013964 
L 148.064011 69.543901 
L 148.45524 68.091572 
L 148.846465 66.660757 
L 149.237694 65.238948 
L 149.628919 63.841636 
L 150.020148 62.457246 
L 150.411373 61.094494 
L 150.802602 59.736972 
L 151.193827 58.415633 
L 151.585054 57.11063 
L 151.976281 55.813828 
L 152.367508 54.532608 
L 152.758735 53.273516 
L 153.14996 52.038852 
L 153.541187 50.81654 
L 153.932414 49.612798 
L 154.323641 48.42922 
L 154.714868 47.255316 
L 155.106095 46.105442 
L 155.497321 44.974384 
L 155.888548 43.853716 
L 156.279775 42.767609 
L 156.671001 41.704233 
L 157.062228 40.659357 
L 157.453454 39.623557 
L 157.844681 38.614573 
L 158.235908 37.617596 
L 158.627135 36.654455 
L 159.018362 35.714236 
L 159.409589 34.810717 
L 159.800816 33.932245 
L 160.192043 33.091682 
L 160.583268 32.265209 
L 160.974495 31.463233 
L 161.365722 30.703108 
L 161.756949 29.976975 
L 162.148176 29.294547 
L 162.539403 28.640756 
L 162.93063 28.028262 
L 163.321857 27.458077 
L 163.713084 26.9179 
L 164.104311 26.423617 
L 164.495536 25.971594 
L 164.886763 25.559215 
L 165.27799 25.202638 
L 165.669217 24.892563 
L 166.060444 24.637744 
L 166.451671 24.418532 
L 166.842898 24.261141 
L 167.234124 24.167201 
L 167.625351 24.112332 
L 168.016578 24.119229 
L 168.407805 24.173379 
L 168.799032 24.282168 
L 169.190258 24.449425 
L 169.581485 24.667242 
L 169.972712 24.94164 
L 170.363939 25.266103 
L 170.755165 25.651772 
L 171.146392 26.097802 
L 171.537619 26.597863 
L 171.928846 27.145142 
L 172.320073 27.751064 
L 172.711299 28.425317 
L 173.102526 29.15159 
L 173.493753 29.921845 
L 173.88498 30.746046 
L 174.276207 31.63925 
L 174.667433 32.569692 
L 175.05866 33.555774 
L 175.449887 34.587062 
L 175.841114 35.672743 
L 176.23234 36.799707 
L 176.623567 37.97794 
L 177.014794 39.203518 
L 177.406021 40.469958 
L 177.797247 41.784074 
L 178.188474 43.140567 
L 178.579701 44.525888 
L 178.970928 45.944694 
L 179.362155 47.406438 
L 179.753381 48.901668 
L 180.144608 50.431575 
L 180.535835 51.985546 
L 180.927062 53.568198 
L 181.318288 55.165197 
L 181.709515 56.784844 
L 182.100742 58.430508 
L 182.491969 60.086987 
L 182.883195 61.761462 
L 183.274422 63.457692 
L 183.665649 65.163706 
L 184.056876 66.872603 
L 184.448103 68.591199 
L 184.839329 70.319761 
L 185.230556 72.052431 
L 185.621783 73.780241 
L 186.01301 75.51539 
L 186.404236 77.247139 
L 186.795463 78.977245 
L 187.18669 80.706617 
L 187.577917 82.426115 
L 187.969144 84.144686 
L 188.36037 85.854563 
L 188.751597 87.570839 
L 189.142824 89.27037 
L 189.534051 90.965231 
L 189.925278 92.655032 
L 190.316504 94.347024 
L 190.707731 96.026562 
L 191.098958 97.693332 
L 191.490184 99.357493 
L 191.881411 101.003774 
L 192.272638 102.647982 
L 192.663865 104.28077 
L 193.055092 105.921131 
L 193.446318 107.550948 
L 193.837545 109.179393 
L 194.228772 110.797325 
L 194.619999 112.413518 
L 195.011226 114.020335 
L 195.402452 115.621038 
L 195.793679 117.228196 
L 196.184906 118.831543 
L 196.576133 120.426139 
L 196.96736 122.009413 
L 197.358586 123.596637 
L 197.749814 125.176974 
L 198.141039 126.743648 
L 198.532266 128.323858 
L 198.923493 129.883508 
L 199.31472 131.436855 
L 199.705947 132.989759 
L 200.097174 134.525689 
L 200.488401 136.060449 
L 200.879628 137.580505 
L 201.270855 139.097196 
L 201.662082 140.601335 
L 202.053307 142.097448 
L 202.444534 143.578246 
L 202.835761 145.046369 
L 203.226988 146.502026 
L 203.618215 147.936887 
L 204.009442 149.363791 
L 204.400669 150.780793 
L 204.791895 152.187757 
L 205.183122 153.572374 
L 205.574348 154.937175 
L 205.965575 156.281682 
L 206.356801 157.615648 
L 206.748028 158.9322 
L 207.139255 160.225837 
L 207.530482 161.510224 
L 207.921709 162.764059 
L 208.312936 164.00599 
L 208.704163 165.227225 
L 209.09539 166.420494 
L 209.486615 167.599064 
L 209.877842 168.747936 
L 210.269069 169.887318 
L 210.660296 171.003838 
L 211.051523 172.096865 
L 211.44275 173.174568 
L 211.833977 174.233809 
L 212.225204 175.269958 
L 212.616431 176.281135 
L 213.007658 177.275281 
L 213.398883 178.255392 
L 213.790112 179.212676 
L 214.181337 180.163626 
L 214.572566 181.088986 
L 214.963791 181.988812 
L 215.355016 182.868683 
L 215.746245 183.735584 
L 216.13747 184.588544 
L 216.528699 185.418471 
L 216.919924 186.234879 
L 217.311153 187.041998 
L 217.702378 187.819442 
L 218.093607 188.58726 
L 218.484832 189.342917 
L 218.876057 190.079245 
L 219.267286 190.802734 
L 219.658511 191.512075 
L 220.04974 192.206829 
L 220.440965 192.879487 
L 220.832194 193.542349 
L 221.223419 194.194639 
L 221.614648 194.831107 
L 222.005873 195.452914 
L 222.397102 196.063699 
L 222.788327 196.663415 
L 223.179552 197.246992 
L 223.570781 197.817851 
L 223.962006 198.376931 
L 224.353235 198.926944 
L 224.74446 199.464522 
L 225.135689 199.989868 
L 225.526914 200.504531 
L 225.918143 201.009315 
L 226.309368 201.506708 
L 226.700593 201.988716 
L 227.091822 202.461203 
L 227.483047 202.921569 
L 227.874276 203.373815 
L 228.265501 203.820164 
L 228.656729 204.255014 
L 229.047955 204.672887 
L 229.439183 205.081778 
L 229.830409 205.477092 
L 230.221634 205.864294 
L 230.612862 206.244944 
L 231.004088 206.615296 
L 231.395316 206.976581 
L 231.786541 207.32616 
L 232.17777 207.663589 
L 232.568995 207.989131 
L 232.960224 208.3068 
L 233.351449 208.615581 
L 233.742674 208.911454 
L 234.133903 209.195447 
L 234.525128 209.467815 
L 234.916357 209.736376 
L 235.307582 209.990713 
L 235.698811 210.240339 
L 236.090036 210.477549 
L 236.481265 210.70595 
L 236.87249 210.920422 
L 237.263719 211.124251 
L 237.654944 211.320267 
L 238.046169 211.505229 
L 238.437398 211.685911 
L 238.828623 211.851042 
L 239.219852 212.011337 
L 239.611077 212.162669 
L 240.002306 212.305377 
L 240.393531 212.439805 
L 240.78476 212.571353 
L 241.175985 212.69138 
L 241.56721 212.807147 
L 241.958439 212.916018 
L 242.349664 213.015808 
L 242.740893 213.111037 
L 243.132118 213.199899 
L 243.523347 213.283437 
L 243.914572 213.360686 
L 244.305801 213.432132 
L 244.69703 213.500127 
L 245.088255 213.565438 
L 245.47948 213.625586 
L 245.870705 213.681029 
L 246.26193 213.734084 
L 246.653163 213.786112 
L 247.044388 213.831966 
L 247.435613 213.878681 
L 247.826838 213.920871 
L 248.21807 213.960932 
L 248.609296 213.999022 
L 249.000521 214.035918 
L 249.391746 214.07229 
L 249.782971 214.107453 
L 250.174203 214.137672 
L 250.565429 214.167376 
L 250.956654 214.194642 
L 251.347879 214.221635 
L 251.739111 214.250195 
L 252.130336 214.273666 
L 252.521562 214.299048 
L 252.912787 214.325957 
L 253.304012 214.347114 
L 253.695237 214.368988 
L 254.086462 214.389488 
L 254.477687 214.408099 
L 254.868912 214.426285 
L 255.260137 214.444023 
L 255.651362 214.46129 
L 256.042588 214.478698 
L 256.433813 214.494871 
L 256.825038 214.511166 
L 257.216263 214.526207 
L 257.607488 214.541356 
L 257.998713 214.555872 
L 258.389938 214.569126 
L 258.781163 214.582484 
L 259.172388 214.595839 
L 259.563614 214.607209 
L 259.954839 214.618703 
L 260.346064 214.628957 
L 260.737289 214.638711 
L 261.128514 214.647962 
L 261.519739 214.656713 
L 261.910964 214.664967 
L 262.302189 214.672731 
L 262.693414 214.680015 
L 263.08464 214.687459 
L 263.475865 214.693718 
L 263.86709 214.700178 
L 264.258315 214.706756 
L 264.64954 214.71149 
L 265.040765 214.715878 
L 265.43199 214.719932 
L 265.823215 214.724299 
L 266.21444 214.727631 
L 266.605666 214.731318 
L 266.996891 214.734014 
L 267.388116 214.736475 
L 267.779341 214.738714 
L 268.170566 214.740744 
L 268.561791 214.742579 
L 268.953016 214.744865 
L 269.344241 214.746253 
L 269.735466 214.747498 
L 270.126692 214.748613 
L 270.517917 214.749606 
L 270.909142 214.75049 
L 271.300367 214.751272 
L 271.691592 214.752594 
L 272.082817 214.753105 
L 272.474042 214.753555 
L 272.865267 214.75395 
L 273.256492 214.754295 
L 273.647718 214.754596 
L 274.038943 214.75549 
L 274.430168 214.75562 
z
" style="fill:#2ca02c;opacity:0.4;"/>
   </g>
   <g id="matplotlib.axis_1">
    <g id="xtick_1">
     <g id="line2d_1">
      <defs>
       <path d="M 0 0 
L 0 3.5 
" id="mbbace0126f" style="stroke:#000000;stroke-width:0.8;"/>
      </defs>
      <g>
       <use style="stroke:#000000;stroke-width:0.8;" x="57.344134" xlink:href="#mbbace0126f" y="224.64"/>
      </g>
     </g>
     <g id="text_1">
      <!-- −4 -->
      <defs>
       <path d="M 10.59375 35.5 
L 73.1875 35.5 
L 73.1875 27.203125 
L 10.59375 27.203125 
z
" id="DejaVuSans-8722"/>
       <path d="M 37.796875 64.3125 
L 12.890625 25.390625 
L 37.796875 25.390625 
z
M 35.203125 72.90625 
L 47.609375 72.90625 
L 47.609375 25.390625 
L 58.015625 25.390625 
L 58.015625 17.1875 
L 47.609375 17.1875 
L 47.609375 0 
L 37.796875 0 
L 37.796875 17.1875 
L 4.890625 17.1875 
L 4.890625 26.703125 
z
" id="DejaVuSans-52"/>
      </defs>
      <g transform="translate(49.973041 239.238437)scale(0.1 -0.1)">
       <use xlink:href="#DejaVuSans-8722"/>
       <use x="83.789062" xlink:href="#DejaVuSans-52"/>
      </g>
     </g>
    </g>
    <g id="xtick_2">
     <g id="line2d_2">
      <g>
       <use style="stroke:#000000;stroke-width:0.8;" x="119.743535" xlink:href="#mbbace0126f" y="224.64"/>
      </g>
     </g>
     <g id="text_2">
      <!-- −2 -->
      <defs>
       <path d="M 19.1875 8.296875 
L 53.609375 8.296875 
L 53.609375 0 
L 7.328125 0 
L 7.328125 8.296875 
Q 12.9375 14.109375 22.625 23.890625 
Q 32.328125 33.6875 34.8125 36.53125 
Q 39.546875 41.84375 41.421875 45.53125 
Q 43.3125 49.21875 43.3125 52.78125 
Q 43.3125 58.59375 39.234375 62.25 
Q 35.15625 65.921875 28.609375 65.921875 
Q 23.96875 65.921875 18.8125 64.3125 
Q 13.671875 62.703125 7.8125 59.421875 
L 7.8125 69.390625 
Q 13.765625 71.78125 18.9375 73 
Q 24.125 74.21875 28.421875 74.21875 
Q 39.75 74.21875 46.484375 68.546875 
Q 53.21875 62.890625 53.21875 53.421875 
Q 53.21875 48.921875 51.53125 44.890625 
Q 49.859375 40.875 45.40625 35.40625 
Q 44.1875 33.984375 37.640625 27.21875 
Q 31.109375 20.453125 19.1875 8.296875 
z
" id="DejaVuSans-50"/>
      </defs>
      <g transform="translate(112.372441 239.238437)scale(0.1 -0.1)">
       <use xlink:href="#DejaVuSans-8722"/>
       <use x="83.789062" xlink:href="#DejaVuSans-50"/>
      </g>
     </g>
    </g>
    <g id="xtick_3">
     <g id="line2d_3">
      <g>
       <use style="stroke:#000000;stroke-width:0.8;" x="182.142936" xlink:href="#mbbace0126f" y="224.64"/>
      </g>
     </g>
     <g id="text_3">
      <!-- 0 -->
      <defs>
       <path d="M 31.78125 66.40625 
Q 24.171875 66.40625 20.328125 58.90625 
Q 16.5 51.421875 16.5 36.375 
Q 16.5 21.390625 20.328125 13.890625 
Q 24.171875 6.390625 31.78125 6.390625 
Q 39.453125 6.390625 43.28125 13.890625 
Q 47.125 21.390625 47.125 36.375 
Q 47.125 51.421875 43.28125 58.90625 
Q 39.453125 66.40625 31.78125 66.40625 
z
M 31.78125 74.21875 
Q 44.046875 74.21875 50.515625 64.515625 
Q 56.984375 54.828125 56.984375 36.375 
Q 56.984375 17.96875 50.515625 8.265625 
Q 44.046875 -1.421875 31.78125 -1.421875 
Q 19.53125 -1.421875 13.0625 8.265625 
Q 6.59375 17.96875 6.59375 36.375 
Q 6.59375 54.828125 13.0625 64.515625 
Q 19.53125 74.21875 31.78125 74.21875 
z
" id="DejaVuSans-48"/>
      </defs>
      <g transform="translate(178.961686 239.238437)scale(0.1 -0.1)">
       <use xlink:href="#DejaVuSans-48"/>
      </g>
     </g>
    </g>
    <g id="xtick_4">
     <g id="line2d_4">
      <g>
       <use style="stroke:#000000;stroke-width:0.8;" x="244.542337" xlink:href="#mbbace0126f" y="224.64"/>
      </g>
     </g>
     <g id="text_4">
      <!-- 2 -->
      <g transform="translate(241.361087 239.238437)scale(0.1 -0.1)">
       <use xlink:href="#DejaVuSans-50"/>
      </g>
     </g>
    </g>
    <g id="xtick_5">
     <g id="line2d_5">
      <g>
       <use style="stroke:#000000;stroke-width:0.8;" x="306.941738" xlink:href="#mbbace0126f" y="224.64"/>
      </g>
     </g>
     <g id="text_5">
      <!-- 4 -->
      <g transform="translate(303.760488 239.238437)scale(0.1 -0.1)">
       <use xlink:href="#DejaVuSans-52"/>
      </g>
     </g>
    </g>
    <g id="text_6">
     <!-- MultivariateNormalParameter -->
     <defs>
      <path d="M 9.8125 72.90625 
L 24.515625 72.90625 
L 43.109375 23.296875 
L 61.8125 72.90625 
L 76.515625 72.90625 
L 76.515625 0 
L 66.890625 0 
L 66.890625 64.015625 
L 48.09375 14.015625 
L 38.1875 14.015625 
L 19.390625 64.015625 
L 19.390625 0 
L 9.8125 0 
z
" id="DejaVuSans-77"/>
      <path d="M 8.5 21.578125 
L 8.5 54.6875 
L 17.484375 54.6875 
L 17.484375 21.921875 
Q 17.484375 14.15625 20.5 10.265625 
Q 23.53125 6.390625 29.59375 6.390625 
Q 36.859375 6.390625 41.078125 11.03125 
Q 45.3125 15.671875 45.3125 23.6875 
L 45.3125 54.6875 
L 54.296875 54.6875 
L 54.296875 0 
L 45.3125 0 
L 45.3125 8.40625 
Q 42.046875 3.421875 37.71875 1 
Q 33.40625 -1.421875 27.6875 -1.421875 
Q 18.265625 -1.421875 13.375 4.4375 
Q 8.5 10.296875 8.5 21.578125 
z
M 31.109375 56 
z
" id="DejaVuSans-117"/>
      <path d="M 9.421875 75.984375 
L 18.40625 75.984375 
L 18.40625 0 
L 9.421875 0 
z
" id="DejaVuSans-108"/>
      <path d="M 18.3125 70.21875 
L 18.3125 54.6875 
L 36.8125 54.6875 
L 36.8125 47.703125 
L 18.3125 47.703125 
L 18.3125 18.015625 
Q 18.3125 11.328125 20.140625 9.421875 
Q 21.96875 7.515625 27.59375 7.515625 
L 36.8125 7.515625 
L 36.8125 0 
L 27.59375 0 
Q 17.1875 0 13.234375 3.875 
Q 9.28125 7.765625 9.28125 18.015625 
L 9.28125 47.703125 
L 2.6875 47.703125 
L 2.6875 54.6875 
L 9.28125 54.6875 
L 9.28125 70.21875 
z
" id="DejaVuSans-116"/>
      <path d="M 9.421875 54.6875 
L 18.40625 54.6875 
L 18.40625 0 
L 9.421875 0 
z
M 9.421875 75.984375 
L 18.40625 75.984375 
L 18.40625 64.59375 
L 9.421875 64.59375 
z
" id="DejaVuSans-105"/>
      <path d="M 2.984375 54.6875 
L 12.5 54.6875 
L 29.59375 8.796875 
L 46.6875 54.6875 
L 56.203125 54.6875 
L 35.6875 0 
L 23.484375 0 
z
" id="DejaVuSans-118"/>
      <path d="M 34.28125 27.484375 
Q 23.390625 27.484375 19.1875 25 
Q 14.984375 22.515625 14.984375 16.5 
Q 14.984375 11.71875 18.140625 8.90625 
Q 21.296875 6.109375 26.703125 6.109375 
Q 34.1875 6.109375 38.703125 11.40625 
Q 43.21875 16.703125 43.21875 25.484375 
L 43.21875 27.484375 
z
M 52.203125 31.203125 
L 52.203125 0 
L 43.21875 0 
L 43.21875 8.296875 
Q 40.140625 3.328125 35.546875 0.953125 
Q 30.953125 -1.421875 24.3125 -1.421875 
Q 15.921875 -1.421875 10.953125 3.296875 
Q 6 8.015625 6 15.921875 
Q 6 25.140625 12.171875 29.828125 
Q 18.359375 34.515625 30.609375 34.515625 
L 43.21875 34.515625 
L 43.21875 35.40625 
Q 43.21875 41.609375 39.140625 45 
Q 35.0625 48.390625 27.6875 48.390625 
Q 23 48.390625 18.546875 47.265625 
Q 14.109375 46.140625 10.015625 43.890625 
L 10.015625 52.203125 
Q 14.9375 54.109375 19.578125 55.046875 
Q 24.21875 56 28.609375 56 
Q 40.484375 56 46.34375 49.84375 
Q 52.203125 43.703125 52.203125 31.203125 
z
" id="DejaVuSans-97"/>
      <path d="M 41.109375 46.296875 
Q 39.59375 47.171875 37.8125 47.578125 
Q 36.03125 48 33.890625 48 
Q 26.265625 48 22.1875 43.046875 
Q 18.109375 38.09375 18.109375 28.8125 
L 18.109375 0 
L 9.078125 0 
L 9.078125 54.6875 
L 18.109375 54.6875 
L 18.109375 46.1875 
Q 20.953125 51.171875 25.484375 53.578125 
Q 30.03125 56 36.53125 56 
Q 37.453125 56 38.578125 55.875 
Q 39.703125 55.765625 41.0625 55.515625 
z
" id="DejaVuSans-114"/>
      <path d="M 56.203125 29.59375 
L 56.203125 25.203125 
L 14.890625 25.203125 
Q 15.484375 15.921875 20.484375 11.0625 
Q 25.484375 6.203125 34.421875 6.203125 
Q 39.59375 6.203125 44.453125 7.46875 
Q 49.3125 8.734375 54.109375 11.28125 
L 54.109375 2.78125 
Q 49.265625 0.734375 44.1875 -0.34375 
Q 39.109375 -1.421875 33.890625 -1.421875 
Q 20.796875 -1.421875 13.15625 6.1875 
Q 5.515625 13.8125 5.515625 26.8125 
Q 5.515625 40.234375 12.765625 48.109375 
Q 20.015625 56 32.328125 56 
Q 43.359375 56 49.78125 48.890625 
Q 56.203125 41.796875 56.203125 29.59375 
z
M 47.21875 32.234375 
Q 47.125 39.59375 43.09375 43.984375 
Q 39.0625 48.390625 32.421875 48.390625 
Q 24.90625 48.390625 20.390625 44.140625 
Q 15.875 39.890625 15.1875 32.171875 
z
" id="DejaVuSans-101"/>
      <path d="M 9.8125 72.90625 
L 23.09375 72.90625 
L 55.421875 11.921875 
L 55.421875 72.90625 
L 64.984375 72.90625 
L 64.984375 0 
L 51.703125 0 
L 19.390625 60.984375 
L 19.390625 0 
L 9.8125 0 
z
" id="DejaVuSans-78"/>
      <path d="M 30.609375 48.390625 
Q 23.390625 48.390625 19.1875 42.75 
Q 14.984375 37.109375 14.984375 27.296875 
Q 14.984375 17.484375 19.15625 11.84375 
Q 23.34375 6.203125 30.609375 6.203125 
Q 37.796875 6.203125 41.984375 11.859375 
Q 46.1875 17.53125 46.1875 27.296875 
Q 46.1875 37.015625 41.984375 42.703125 
Q 37.796875 48.390625 30.609375 48.390625 
z
M 30.609375 56 
Q 42.328125 56 49.015625 48.375 
Q 55.71875 40.765625 55.71875 27.296875 
Q 55.71875 13.875 49.015625 6.21875 
Q 42.328125 -1.421875 30.609375 -1.421875 
Q 18.84375 -1.421875 12.171875 6.21875 
Q 5.515625 13.875 5.515625 27.296875 
Q 5.515625 40.765625 12.171875 48.375 
Q 18.84375 56 30.609375 56 
z
" id="DejaVuSans-111"/>
      <path d="M 52 44.1875 
Q 55.375 50.25 60.0625 53.125 
Q 64.75 56 71.09375 56 
Q 79.640625 56 84.28125 50.015625 
Q 88.921875 44.046875 88.921875 33.015625 
L 88.921875 0 
L 79.890625 0 
L 79.890625 32.71875 
Q 79.890625 40.578125 77.09375 44.375 
Q 74.3125 48.1875 68.609375 48.1875 
Q 61.625 48.1875 57.5625 43.546875 
Q 53.515625 38.921875 53.515625 30.90625 
L 53.515625 0 
L 44.484375 0 
L 44.484375 32.71875 
Q 44.484375 40.625 41.703125 44.40625 
Q 38.921875 48.1875 33.109375 48.1875 
Q 26.21875 48.1875 22.15625 43.53125 
Q 18.109375 38.875 18.109375 30.90625 
L 18.109375 0 
L 9.078125 0 
L 9.078125 54.6875 
L 18.109375 54.6875 
L 18.109375 46.1875 
Q 21.1875 51.21875 25.484375 53.609375 
Q 29.78125 56 35.6875 56 
Q 41.65625 56 45.828125 52.96875 
Q 50 49.953125 52 44.1875 
z
" id="DejaVuSans-109"/>
      <path d="M 19.671875 64.796875 
L 19.671875 37.40625 
L 32.078125 37.40625 
Q 38.96875 37.40625 42.71875 40.96875 
Q 46.484375 44.53125 46.484375 51.125 
Q 46.484375 57.671875 42.71875 61.234375 
Q 38.96875 64.796875 32.078125 64.796875 
z
M 9.8125 72.90625 
L 32.078125 72.90625 
Q 44.34375 72.90625 50.609375 67.359375 
Q 56.890625 61.8125 56.890625 51.125 
Q 56.890625 40.328125 50.609375 34.8125 
Q 44.34375 29.296875 32.078125 29.296875 
L 19.671875 29.296875 
L 19.671875 0 
L 9.8125 0 
z
" id="DejaVuSans-80"/>
     </defs>
     <g transform="translate(103.897656 252.916562)scale(0.1 -0.1)">
      <use xlink:href="#DejaVuSans-77"/>
      <use x="86.279297" xlink:href="#DejaVuSans-117"/>
      <use x="149.658203" xlink:href="#DejaVuSans-108"/>
      <use x="177.441406" xlink:href="#DejaVuSans-116"/>
      <use x="216.650391" xlink:href="#DejaVuSans-105"/>
      <use x="244.433594" xlink:href="#DejaVuSans-118"/>
      <use x="303.613281" xlink:href="#DejaVuSans-97"/>
      <use x="364.892578" xlink:href="#DejaVuSans-114"/>
      <use x="406.005859" xlink:href="#DejaVuSans-105"/>
      <use x="433.789062" xlink:href="#DejaVuSans-97"/>
      <use x="495.068359" xlink:href="#DejaVuSans-116"/>
      <use x="534.277344" xlink:href="#DejaVuSans-101"/>
      <use x="595.800781" xlink:href="#DejaVuSans-78"/>
      <use x="670.605469" xlink:href="#DejaVuSans-111"/>
      <use x="731.787109" xlink:href="#DejaVuSans-114"/>
      <use x="772.884766" xlink:href="#DejaVuSans-109"/>
      <use x="870.296875" xlink:href="#DejaVuSans-97"/>
      <use x="931.576172" xlink:href="#DejaVuSans-108"/>
      <use x="959.359375" xlink:href="#DejaVuSans-80"/>
      <use x="1019.599609" xlink:href="#DejaVuSans-97"/>
      <use x="1080.878906" xlink:href="#DejaVuSans-114"/>
      <use x="1121.992188" xlink:href="#DejaVuSans-97"/>
      <use x="1183.271484" xlink:href="#DejaVuSans-109"/>
      <use x="1280.683594" xlink:href="#DejaVuSans-101"/>
      <use x="1342.207031" xlink:href="#DejaVuSans-116"/>
      <use x="1381.416016" xlink:href="#DejaVuSans-101"/>
      <use x="1442.939453" xlink:href="#DejaVuSans-114"/>
     </g>
    </g>
   </g>
   <g id="patch_6">
    <path d="M 10.7 224.64 
L 345.5 224.64 
" style="fill:none;stroke:#000000;stroke-linecap:square;stroke-linejoin:miter;stroke-width:0.8;"/>
   </g>
   <g id="legend_1">
    <g id="patch_7">
     <path d="M 300.1375 59.234375 
L 338.5 59.234375 
Q 340.5 59.234375 340.5 57.234375 
L 340.5 14.2 
Q 340.5 12.2 338.5 12.2 
L 300.1375 12.2 
Q 298.1375 12.2 298.1375 14.2 
L 298.1375 57.234375 
Q 298.1375 59.234375 300.1375 59.234375 
z
" style="fill:#ffffff;opacity:0.8;stroke:#cccccc;stroke-linejoin:miter;"/>
    </g>
    <g id="patch_8">
     <path d="M 302.1375 23.798437 
L 322.1375 23.798437 
L 322.1375 16.798437 
L 302.1375 16.798437 
z
" style="fill:#1f77b4;opacity:0.4;"/>
    </g>
    <g id="text_7">
     <!-- 0 -->
     <g transform="translate(330.1375 23.798437)scale(0.1 -0.1)">
      <use xlink:href="#DejaVuSans-48"/>
     </g>
    </g>
    <g id="patch_9">
     <path d="M 302.1375 38.476562 
L 322.1375 38.476562 
L 322.1375 31.476562 
L 302.1375 31.476562 
z
" style="fill:#ff7f0e;opacity:0.4;"/>
    </g>
    <g id="text_8">
     <!-- 1 -->
     <defs>
      <path d="M 12.40625 8.296875 
L 28.515625 8.296875 
L 28.515625 63.921875 
L 10.984375 60.40625 
L 10.984375 69.390625 
L 28.421875 72.90625 
L 38.28125 72.90625 
L 38.28125 8.296875 
L 54.390625 8.296875 
L 54.390625 0 
L 12.40625 0 
z
" id="DejaVuSans-49"/>
     </defs>
     <g transform="translate(330.1375 38.476562)scale(0.1 -0.1)">
      <use xlink:href="#DejaVuSans-49"/>
     </g>
    </g>
    <g id="patch_10">
     <path d="M 302.1375 53.154687 
L 322.1375 53.154687 
L 322.1375 46.154687 
L 302.1375 46.154687 
z
" style="fill:#2ca02c;opacity:0.4;"/>
    </g>
    <g id="text_9">
     <!-- 2 -->
     <g transform="translate(330.1375 53.154687)scale(0.1 -0.1)">
      <use xlink:href="#DejaVuSans-50"/>
     </g>
    </g>
   </g>
  </g>
 </g>
 <defs>
  <clipPath id="p9dccb4f4f5">
   <rect height="217.44" width="334.8" x="10.7" y="7.2"/>
  </clipPath>
 </defs>
</svg>
