<?xml version="1.0" encoding="utf-8" standalone="no"?>
<!DOCTYPE svg PUBLIC "-//W3C//DTD SVG 1.1//EN"
  "http://www.w3.org/Graphics/SVG/1.1/DTD/svg11.dtd">
<!-- Created with matplotlib (https://matplotlib.org/) -->
<svg height="252.018125pt" version="1.1" viewBox="0 0 374.442187 252.018125" width="374.442187pt" xmlns="http://www.w3.org/2000/svg" xmlns:xlink="http://www.w3.org/1999/xlink">
 <defs>
  <style type="text/css">
*{stroke-linecap:butt;stroke-linejoin:round;}
  </style>
 </defs>
 <g id="figure_1">
  <g id="patch_1">
   <path d="M 0 252.018125 
L 374.442187 252.018125 
L 374.442187 0 
L 0 0 
z
" style="fill:none;"/>
  </g>
  <g id="axes_1">
   <g id="patch_2">
    <path d="M 28.942188 228.14 
L 363.742188 228.14 
L 363.742188 10.7 
L 28.942188 10.7 
z
" style="fill:#ffffff;"/>
   </g>
   <g id="matplotlib.axis_1">
    <g id="xtick_1">
     <g id="line2d_1">
      <defs>
       <path d="M 0 0 
L 0 3.5 
" id="mc596e3fd2b" style="stroke:#000000;stroke-width:0.8;"/>
      </defs>
      <g>
       <use style="stroke:#000000;stroke-width:0.8;" x="50.859748" xlink:href="#mc596e3fd2b" y="228.14"/>
      </g>
     </g>
     <g id="text_1">
      <!-- −1.0 -->
      <defs>
       <path d="M 10.59375 35.5 
L 73.1875 35.5 
L 73.1875 27.203125 
L 10.59375 27.203125 
z
" id="DejaVuSans-8722"/>
       <path d="M 12.40625 8.296875 
L 28.515625 8.296875 
L 28.515625 63.921875 
L 10.984375 60.40625 
L 10.984375 69.390625 
L 28.421875 72.90625 
L 38.28125 72.90625 
L 38.28125 8.296875 
L 54.390625 8.296875 
L 54.390625 0 
L 12.40625 0 
z
" id="DejaVuSans-49"/>
       <path d="M 10.6875 12.40625 
L 21 12.40625 
L 21 0 
L 10.6875 0 
z
" id="DejaVuSans-46"/>
       <path d="M 31.78125 66.40625 
Q 24.171875 66.40625 20.328125 58.90625 
Q 16.5 51.421875 16.5 36.375 
Q 16.5 21.390625 20.328125 13.890625 
Q 24.171875 6.390625 31.78125 6.390625 
Q 39.453125 6.390625 43.28125 13.890625 
Q 47.125 21.390625 47.125 36.375 
Q 47.125 51.421875 43.28125 58.90625 
Q 39.453125 66.40625 31.78125 66.40625 
z
M 31.78125 74.21875 
Q 44.046875 74.21875 50.515625 64.515625 
Q 56.984375 54.828125 56.984375 36.375 
Q 56.984375 17.96875 50.515625 8.265625 
Q 44.046875 -1.421875 31.78125 -1.421875 
Q 19.53125 -1.421875 13.0625 8.265625 
Q 6.59375 17.96875 6.59375 36.375 
Q 6.59375 54.828125 13.0625 64.515625 
Q 19.53125 74.21875 31.78125 74.21875 
z
" id="DejaVuSans-48"/>
      </defs>
      <g transform="translate(38.718341 242.738437)scale(0.1 -0.1)">
       <use xlink:href="#DejaVuSans-8722"/>
       <use x="83.789062" xlink:href="#DejaVuSans-49"/>
       <use x="147.412109" xlink:href="#DejaVuSans-46"/>
       <use x="179.199219" xlink:href="#DejaVuSans-48"/>
      </g>
     </g>
    </g>
    <g id="xtick_2">
     <g id="line2d_2">
      <g>
       <use style="stroke:#000000;stroke-width:0.8;" x="90.26814" xlink:href="#mc596e3fd2b" y="228.14"/>
      </g>
     </g>
     <g id="text_2">
      <!-- −0.5 -->
      <defs>
       <path d="M 10.796875 72.90625 
L 49.515625 72.90625 
L 49.515625 64.59375 
L 19.828125 64.59375 
L 19.828125 46.734375 
Q 21.96875 47.46875 24.109375 47.828125 
Q 26.265625 48.1875 28.421875 48.1875 
Q 40.625 48.1875 47.75 41.5 
Q 54.890625 34.8125 54.890625 23.390625 
Q 54.890625 11.625 47.5625 5.09375 
Q 40.234375 -1.421875 26.90625 -1.421875 
Q 22.3125 -1.421875 17.546875 -0.640625 
Q 12.796875 0.140625 7.71875 1.703125 
L 7.71875 11.625 
Q 12.109375 9.234375 16.796875 8.0625 
Q 21.484375 6.890625 26.703125 6.890625 
Q 35.15625 6.890625 40.078125 11.328125 
Q 45.015625 15.765625 45.015625 23.390625 
Q 45.015625 31 40.078125 35.4375 
Q 35.15625 39.890625 26.703125 39.890625 
Q 22.75 39.890625 18.8125 39.015625 
Q 14.890625 38.140625 10.796875 36.28125 
z
" id="DejaVuSans-53"/>
      </defs>
      <g transform="translate(78.126734 242.738437)scale(0.1 -0.1)">
       <use xlink:href="#DejaVuSans-8722"/>
       <use x="83.789062" xlink:href="#DejaVuSans-48"/>
       <use x="147.412109" xlink:href="#DejaVuSans-46"/>
       <use x="179.199219" xlink:href="#DejaVuSans-53"/>
      </g>
     </g>
    </g>
    <g id="xtick_3">
     <g id="line2d_3">
      <g>
       <use style="stroke:#000000;stroke-width:0.8;" x="129.676533" xlink:href="#mc596e3fd2b" y="228.14"/>
      </g>
     </g>
     <g id="text_3">
      <!-- 0.0 -->
      <g transform="translate(121.72497 242.738437)scale(0.1 -0.1)">
       <use xlink:href="#DejaVuSans-48"/>
       <use x="63.623047" xlink:href="#DejaVuSans-46"/>
       <use x="95.410156" xlink:href="#DejaVuSans-48"/>
      </g>
     </g>
    </g>
    <g id="xtick_4">
     <g id="line2d_4">
      <g>
       <use style="stroke:#000000;stroke-width:0.8;" x="169.084925" xlink:href="#mc596e3fd2b" y="228.14"/>
      </g>
     </g>
     <g id="text_4">
      <!-- 0.5 -->
      <g transform="translate(161.133363 242.738437)scale(0.1 -0.1)">
       <use xlink:href="#DejaVuSans-48"/>
       <use x="63.623047" xlink:href="#DejaVuSans-46"/>
       <use x="95.410156" xlink:href="#DejaVuSans-53"/>
      </g>
     </g>
    </g>
    <g id="xtick_5">
     <g id="line2d_5">
      <g>
       <use style="stroke:#000000;stroke-width:0.8;" x="208.493318" xlink:href="#mc596e3fd2b" y="228.14"/>
      </g>
     </g>
     <g id="text_5">
      <!-- 1.0 -->
      <g transform="translate(200.541755 242.738437)scale(0.1 -0.1)">
       <use xlink:href="#DejaVuSans-49"/>
       <use x="63.623047" xlink:href="#DejaVuSans-46"/>
       <use x="95.410156" xlink:href="#DejaVuSans-48"/>
      </g>
     </g>
    </g>
    <g id="xtick_6">
     <g id="line2d_6">
      <g>
       <use style="stroke:#000000;stroke-width:0.8;" x="247.90171" xlink:href="#mc596e3fd2b" y="228.14"/>
      </g>
     </g>
     <g id="text_6">
      <!-- 1.5 -->
      <g transform="translate(239.950148 242.738437)scale(0.1 -0.1)">
       <use xlink:href="#DejaVuSans-49"/>
       <use x="63.623047" xlink:href="#DejaVuSans-46"/>
       <use x="95.410156" xlink:href="#DejaVuSans-53"/>
      </g>
     </g>
    </g>
    <g id="xtick_7">
     <g id="line2d_7">
      <g>
       <use style="stroke:#000000;stroke-width:0.8;" x="287.310103" xlink:href="#mc596e3fd2b" y="228.14"/>
      </g>
     </g>
     <g id="text_7">
      <!-- 2.0 -->
      <defs>
       <path d="M 19.1875 8.296875 
L 53.609375 8.296875 
L 53.609375 0 
L 7.328125 0 
L 7.328125 8.296875 
Q 12.9375 14.109375 22.625 23.890625 
Q 32.328125 33.6875 34.8125 36.53125 
Q 39.546875 41.84375 41.421875 45.53125 
Q 43.3125 49.21875 43.3125 52.78125 
Q 43.3125 58.59375 39.234375 62.25 
Q 35.15625 65.921875 28.609375 65.921875 
Q 23.96875 65.921875 18.8125 64.3125 
Q 13.671875 62.703125 7.8125 59.421875 
L 7.8125 69.390625 
Q 13.765625 71.78125 18.9375 73 
Q 24.125 74.21875 28.421875 74.21875 
Q 39.75 74.21875 46.484375 68.546875 
Q 53.21875 62.890625 53.21875 53.421875 
Q 53.21875 48.921875 51.53125 44.890625 
Q 49.859375 40.875 45.40625 35.40625 
Q 44.1875 33.984375 37.640625 27.21875 
Q 31.109375 20.453125 19.1875 8.296875 
z
" id="DejaVuSans-50"/>
      </defs>
      <g transform="translate(279.35854 242.738437)scale(0.1 -0.1)">
       <use xlink:href="#DejaVuSans-50"/>
       <use x="63.623047" xlink:href="#DejaVuSans-46"/>
       <use x="95.410156" xlink:href="#DejaVuSans-48"/>
      </g>
     </g>
    </g>
    <g id="xtick_8">
     <g id="line2d_8">
      <g>
       <use style="stroke:#000000;stroke-width:0.8;" x="326.718495" xlink:href="#mc596e3fd2b" y="228.14"/>
      </g>
     </g>
     <g id="text_8">
      <!-- 2.5 -->
      <g transform="translate(318.766933 242.738437)scale(0.1 -0.1)">
       <use xlink:href="#DejaVuSans-50"/>
       <use x="63.623047" xlink:href="#DejaVuSans-46"/>
       <use x="95.410156" xlink:href="#DejaVuSans-53"/>
      </g>
     </g>
    </g>
   </g>
   <g id="matplotlib.axis_2">
    <g id="ytick_1">
     <g id="line2d_9">
      <defs>
       <path d="M 0 0 
L -3.5 0 
" id="ma8f4ba169c" style="stroke:#000000;stroke-width:0.8;"/>
      </defs>
      <g>
       <use style="stroke:#000000;stroke-width:0.8;" x="28.942188" xlink:href="#ma8f4ba169c" y="207.990053"/>
      </g>
     </g>
     <g id="text_9">
      <!-- −3 -->
      <defs>
       <path d="M 40.578125 39.3125 
Q 47.65625 37.796875 51.625 33 
Q 55.609375 28.21875 55.609375 21.1875 
Q 55.609375 10.40625 48.1875 4.484375 
Q 40.765625 -1.421875 27.09375 -1.421875 
Q 22.515625 -1.421875 17.65625 -0.515625 
Q 12.796875 0.390625 7.625 2.203125 
L 7.625 11.71875 
Q 11.71875 9.328125 16.59375 8.109375 
Q 21.484375 6.890625 26.8125 6.890625 
Q 36.078125 6.890625 40.9375 10.546875 
Q 45.796875 14.203125 45.796875 21.1875 
Q 45.796875 27.640625 41.28125 31.265625 
Q 36.765625 34.90625 28.71875 34.90625 
L 20.21875 34.90625 
L 20.21875 43.015625 
L 29.109375 43.015625 
Q 36.375 43.015625 40.234375 45.921875 
Q 44.09375 48.828125 44.09375 54.296875 
Q 44.09375 59.90625 40.109375 62.90625 
Q 36.140625 65.921875 28.71875 65.921875 
Q 24.65625 65.921875 20.015625 65.03125 
Q 15.375 64.15625 9.8125 62.3125 
L 9.8125 71.09375 
Q 15.4375 72.65625 20.34375 73.4375 
Q 25.25 74.21875 29.59375 74.21875 
Q 40.828125 74.21875 47.359375 69.109375 
Q 53.90625 64.015625 53.90625 55.328125 
Q 53.90625 49.265625 50.4375 45.09375 
Q 46.96875 40.921875 40.578125 39.3125 
z
" id="DejaVuSans-51"/>
      </defs>
      <g transform="translate(7.2 211.789272)scale(0.1 -0.1)">
       <use xlink:href="#DejaVuSans-8722"/>
       <use x="83.789062" xlink:href="#DejaVuSans-51"/>
      </g>
     </g>
    </g>
    <g id="ytick_2">
     <g id="line2d_10">
      <g>
       <use style="stroke:#000000;stroke-width:0.8;" x="28.942188" xlink:href="#ma8f4ba169c" y="181.00415"/>
      </g>
     </g>
     <g id="text_10">
      <!-- −2 -->
      <g transform="translate(7.2 184.803369)scale(0.1 -0.1)">
       <use xlink:href="#DejaVuSans-8722"/>
       <use x="83.789062" xlink:href="#DejaVuSans-50"/>
      </g>
     </g>
    </g>
    <g id="ytick_3">
     <g id="line2d_11">
      <g>
       <use style="stroke:#000000;stroke-width:0.8;" x="28.942188" xlink:href="#ma8f4ba169c" y="154.018246"/>
      </g>
     </g>
     <g id="text_11">
      <!-- −1 -->
      <g transform="translate(7.2 157.817465)scale(0.1 -0.1)">
       <use xlink:href="#DejaVuSans-8722"/>
       <use x="83.789062" xlink:href="#DejaVuSans-49"/>
      </g>
     </g>
    </g>
    <g id="ytick_4">
     <g id="line2d_12">
      <g>
       <use style="stroke:#000000;stroke-width:0.8;" x="28.942188" xlink:href="#ma8f4ba169c" y="127.032343"/>
      </g>
     </g>
     <g id="text_12">
      <!-- 0 -->
      <g transform="translate(15.579688 130.831562)scale(0.1 -0.1)">
       <use xlink:href="#DejaVuSans-48"/>
      </g>
     </g>
    </g>
    <g id="ytick_5">
     <g id="line2d_13">
      <g>
       <use style="stroke:#000000;stroke-width:0.8;" x="28.942188" xlink:href="#ma8f4ba169c" y="100.046439"/>
      </g>
     </g>
     <g id="text_13">
      <!-- 1 -->
      <g transform="translate(15.579688 103.845658)scale(0.1 -0.1)">
       <use xlink:href="#DejaVuSans-49"/>
      </g>
     </g>
    </g>
    <g id="ytick_6">
     <g id="line2d_14">
      <g>
       <use style="stroke:#000000;stroke-width:0.8;" x="28.942188" xlink:href="#ma8f4ba169c" y="73.060536"/>
      </g>
     </g>
     <g id="text_14">
      <!-- 2 -->
      <g transform="translate(15.579688 76.859754)scale(0.1 -0.1)">
       <use xlink:href="#DejaVuSans-50"/>
      </g>
     </g>
    </g>
    <g id="ytick_7">
     <g id="line2d_15">
      <g>
       <use style="stroke:#000000;stroke-width:0.8;" x="28.942188" xlink:href="#ma8f4ba169c" y="46.074632"/>
      </g>
     </g>
     <g id="text_15">
      <!-- 3 -->
      <g transform="translate(15.579688 49.873851)scale(0.1 -0.1)">
       <use xlink:href="#DejaVuSans-51"/>
      </g>
     </g>
    </g>
    <g id="ytick_8">
     <g id="line2d_16">
      <g>
       <use style="stroke:#000000;stroke-width:0.8;" x="28.942188" xlink:href="#ma8f4ba169c" y="19.088729"/>
      </g>
     </g>
     <g id="text_16">
      <!-- 4 -->
      <defs>
       <path d="M 37.796875 64.3125 
L 12.890625 25.390625 
L 37.796875 25.390625 
z
M 35.203125 72.90625 
L 47.609375 72.90625 
L 47.609375 25.390625 
L 58.015625 25.390625 
L 58.015625 17.1875 
L 47.609375 17.1875 
L 47.609375 0 
L 37.796875 0 
L 37.796875 17.1875 
L 4.890625 17.1875 
L 4.890625 26.703125 
z
" id="DejaVuSans-52"/>
      </defs>
      <g transform="translate(15.579688 22.887947)scale(0.1 -0.1)">
       <use xlink:href="#DejaVuSans-52"/>
      </g>
     </g>
    </g>
   </g>
   <g id="LineCollection_1"/>
   <g id="LineCollection_2">
    <path clip-path="url(#p7ddfc02a9b)" d="M 252.142188 171.362153 
L 255.524006 172.018166 
L 258.905824 172.25823 
L 262.287642 171.906139 
L 264.839191 171.034545 
L 265.66946 170.532721 
L 267.224685 168.838182 
L 267.991239 166.641818 
L 268.247336 164.445455 
L 268.289847 162.249091 
L 268.143088 160.052727 
L 267.707808 157.856364 
L 266.916682 155.66 
L 265.66946 153.016948 
L 263.522686 146.874545 
L 262.104449 144.678182 
L 260.188381 142.481818 
L 258.905824 141.292159 
L 255.524006 137.269475 
L 254.544109 135.892727 
L 252.142188 133.043186 
L 250.702154 131.5 
L 248.215891 129.303636 
L 241.996733 124.185366 
L 230.370117 113.929091 
L 227.496203 111.732727 
L 224.243922 109.536364 
L 211.560369 101.330838 
L 208.178551 98.72965 
L 202.914783 94.161818 
L 199.861303 91.965455 
L 196.615312 89.769091 
L 194.651278 88.507784 
L 191.26946 86.780641 
L 184.505824 84.081999 
L 181.124006 82.415995 
L 174.360369 78.37053 
L 170.640097 76.590909 
L 167.596733 75.401351 
L 160.833097 73.382475 
L 156.747 72.198182 
L 154.06946 71.283461 
L 149.856541 70.001818 
L 147.305824 68.842829 
L 145.60265 67.805455 
L 140.542188 64.287564 
L 137.160369 62.764956 
L 133.778551 61.952412 
L 130.396733 61.663635 
L 120.251278 61.679696 
L 116.86946 61.094715 
L 113.487642 60.110011 
L 110.105824 59.873339 
L 106.466124 61.216364 
L 104.305216 63.412727 
L 103.08435 65.609091 
L 102.470704 67.805455 
L 102.372006 70.001818 
L 102.881823 72.198182 
L 103.9965 74.394545 
L 107.087853 78.787273 
L 110.105824 84.369055 
L 110.578669 85.376364 
L 111.995806 87.572727 
L 113.844045 89.769091 
L 115.580276 91.965455 
L 117.429127 94.161818 
L 121.044992 98.554545 
L 124.854345 102.947273 
L 131.751337 109.536364 
L 150.919215 124.910909 
L 157.451278 129.795938 
L 162.873486 133.696364 
L 166.291615 135.892727 
L 170.978551 138.624596 
L 178.205235 142.481818 
L 185.018184 146.874545 
L 198.033097 154.460792 
L 201.414915 155.920174 
L 204.796733 156.988566 
L 208.188698 157.856364 
L 211.560369 159.137204 
L 214.942188 160.838553 
L 221.705824 164.476516 
L 225.087642 166.004319 
L 228.46946 167.219123 
L 231.851278 168.259449 
L 235.233097 169.10096 
L 238.614915 169.68504 
L 245.378551 170.178098 
L 248.760369 170.64069 
L 252.142188 171.362153 
L 252.142188 171.362153 
" style="fill:none;stroke:#222a30;stroke-width:1.5;"/>
   </g>
   <g id="LineCollection_3">
    <path clip-path="url(#p7ddfc02a9b)" d="M 235.233097 162.659951 
L 238.614915 162.537199 
L 245.378551 161.725701 
L 252.142188 161.573131 
L 255.524006 160.787578 
L 256.517709 160.052727 
L 257.915443 157.856364 
L 258.118847 155.66 
L 257.801225 153.463636 
L 257.206745 151.267273 
L 256.328738 149.070909 
L 255.055636 146.874545 
L 247.140273 135.892727 
L 245.053337 133.696364 
L 241.996733 130.93501 
L 235.131044 124.910909 
L 226.538663 116.125455 
L 223.72545 113.929091 
L 220.195357 111.732727 
L 214.942188 108.493879 
L 207.097234 102.947273 
L 198.456278 96.358182 
L 198.033097 96.06781 
L 194.651278 93.977886 
L 191.137215 91.965455 
L 186.618974 89.769091 
L 181.124006 87.391987 
L 177.121862 85.376364 
L 170.978551 81.930889 
L 167.596733 80.345511 
L 163.322756 78.787273 
L 157.451278 77.019493 
L 150.687642 75.294324 
L 146.211157 74.394545 
L 143.924006 73.785076 
L 139.882417 72.198182 
L 136.435343 70.001818 
L 133.778551 68.60946 
L 130.396733 67.772901 
L 127.014915 67.683639 
L 123.633097 68.092639 
L 120.251278 69.043554 
L 118.291388 70.001818 
L 116.750776 72.198182 
L 116.86946 74.537303 
L 119.328978 83.18 
L 120.251278 85.66492 
L 121.036163 87.572727 
L 122.187496 89.769091 
L 123.684759 91.965455 
L 125.354886 94.161818 
L 130.396733 99.982089 
L 132.85163 102.947273 
L 139.108163 109.536364 
L 143.994295 113.929091 
L 147.305824 116.583213 
L 154.06946 121.379825 
L 161.622436 127.107273 
L 164.728652 129.303636 
L 170.978551 133.317744 
L 175.380875 135.892727 
L 183.441276 140.285455 
L 190.529286 144.678182 
L 191.26946 145.095231 
L 201.414915 150.264986 
L 204.796733 151.639899 
L 214.942188 155.124432 
L 216.164739 155.66 
L 225.087642 160.063221 
L 228.46946 161.362953 
L 231.854654 162.249091 
L 235.233097 162.659951 
L 235.233097 162.659951 
" style="fill:none;stroke:#21333f;stroke-width:1.5;"/>
   </g>
   <g id="LineCollection_4">
    <path clip-path="url(#p7ddfc02a9b)" d="M 228.46946 156.167707 
L 231.851278 156.930602 
L 235.233097 157.054584 
L 238.614915 156.594686 
L 242.724159 155.66 
L 245.378551 154.783213 
L 248.019491 153.463636 
L 248.760369 151.952997 
L 248.956839 151.267273 
L 248.36243 149.070909 
L 246.163372 144.678182 
L 244.160666 140.285455 
L 242.832635 138.089091 
L 241.124606 135.892727 
L 238.614915 133.314586 
L 231.851278 126.829239 
L 228.117598 122.714545 
L 225.087642 119.191793 
L 224.318073 118.321818 
L 221.705824 116.032992 
L 218.324006 113.877754 
L 214.475684 111.732727 
L 211.124872 109.536364 
L 204.796733 104.797223 
L 198.033097 99.69581 
L 194.651278 97.570357 
L 187.887642 93.82163 
L 183.824989 91.965455 
L 173.798521 87.572727 
L 167.596733 84.547169 
L 164.214915 83.064483 
L 158.680397 80.983636 
L 157.451278 80.582093 
L 154.06946 79.665247 
L 149.2844 78.787273 
L 147.305824 78.501322 
L 137.160369 77.361226 
L 133.778551 76.932456 
L 130.396733 77.021075 
L 128.360462 78.787273 
L 127.537757 80.983636 
L 127.186937 83.18 
L 127.087055 85.376364 
L 127.350029 87.572727 
L 128.122017 89.769091 
L 129.470094 91.965455 
L 137.160369 101.26168 
L 140.233296 105.143636 
L 140.542188 105.484912 
L 142.061148 107.34 
L 146.304049 111.732727 
L 148.901085 113.929091 
L 152.052534 116.125455 
L 155.365216 118.321818 
L 158.342454 120.518182 
L 164.214915 124.950213 
L 167.596733 127.280589 
L 174.375719 131.5 
L 178.07351 133.696364 
L 186.036379 138.089091 
L 191.26946 141.304576 
L 194.651278 143.161095 
L 201.414915 146.364666 
L 208.319619 149.070909 
L 211.560369 150.139334 
L 215.459231 151.267273 
L 221.705824 153.5067 
L 227.098142 155.66 
L 228.46946 156.167707 
L 228.46946 156.167707 
" style="fill:none;stroke:#213b4e;stroke-width:1.5;"/>
   </g>
   <g id="LineCollection_5">
    <path clip-path="url(#p7ddfc02a9b)" d="M 221.705824 149.464132 
L 225.087642 150.167605 
L 228.46946 150.679538 
L 231.851278 150.810292 
L 235.233097 150.087092 
L 236.811408 149.070909 
L 238.431098 146.874545 
L 238.614915 146.331253 
L 239.023956 144.678182 
L 239.067109 142.481818 
L 238.614915 140.585605 
L 238.550561 140.285455 
L 237.457609 138.089091 
L 235.80933 135.892727 
L 235.233097 135.282534 
L 233.782344 133.696364 
L 231.851278 131.73323 
L 231.644369 131.5 
L 229.66808 129.303636 
L 228.46946 127.987551 
L 227.755292 127.107273 
L 225.951488 124.910909 
L 225.087642 123.861252 
L 224.232497 122.714545 
L 222.497576 120.518182 
L 221.705824 119.668225 
L 220.372739 118.321818 
L 218.324006 116.748493 
L 217.37129 116.125455 
L 214.942188 114.748116 
L 213.420863 113.929091 
L 211.560369 112.861726 
L 209.79176 111.732727 
L 208.178551 110.576565 
L 206.850712 109.536364 
L 204.796733 107.939352 
L 204.037306 107.34 
L 201.414915 105.346728 
L 201.138933 105.143636 
L 198.150433 102.947273 
L 198.033097 102.86127 
L 194.84465 100.750909 
L 194.651278 100.627736 
L 191.26946 98.638821 
L 191.121768 98.554545 
L 187.887642 96.748784 
L 187.132445 96.358182 
L 184.505824 95.045385 
L 182.409124 94.161818 
L 181.124006 93.615529 
L 177.742188 92.323425 
L 176.788685 91.965455 
L 174.360369 90.950631 
L 171.526258 89.769091 
L 170.978551 89.517283 
L 167.596733 88.06279 
L 166.327717 87.572727 
L 164.214915 86.669601 
L 160.902767 85.376364 
L 160.833097 85.347356 
L 157.451278 84.11714 
L 154.080588 83.18 
L 154.06946 83.176952 
L 150.687642 82.656148 
L 147.305824 82.476513 
L 143.924006 82.505773 
L 140.542188 82.704343 
L 138.042394 83.18 
L 137.160369 83.419374 
L 134.425006 85.376364 
L 133.778551 86.609658 
L 133.471021 87.572727 
L 133.761389 89.769091 
L 133.778551 89.800217 
L 135.002006 91.965455 
L 136.593031 94.161818 
L 137.160369 94.868818 
L 138.265162 96.358182 
L 139.914663 98.554545 
L 140.542188 99.367957 
L 141.555809 100.750909 
L 143.157573 102.947273 
L 143.924006 103.967558 
L 144.736633 105.143636 
L 146.405276 107.34 
L 147.305824 108.360705 
L 148.297768 109.536364 
L 150.580616 111.732727 
L 150.687642 111.819499 
L 153.50287 113.929091 
L 154.06946 114.30514 
L 156.817547 116.125455 
L 157.451278 116.553684 
L 159.790939 118.321818 
L 160.833097 119.124631 
L 162.547069 120.518182 
L 164.214915 121.792397 
L 165.47354 122.714545 
L 167.596733 124.192676 
L 168.714485 124.910909 
L 170.978551 126.351134 
L 172.231571 127.107273 
L 174.360369 128.411359 
L 175.814189 129.303636 
L 177.742188 130.486298 
L 179.429027 131.5 
L 181.124006 132.477875 
L 183.336078 133.696364 
L 184.505824 134.335039 
L 187.385427 135.892727 
L 187.887642 136.182894 
L 191.220798 138.089091 
L 191.26946 138.118844 
L 194.651278 140.075186 
L 195.044447 140.285455 
L 198.033097 141.851509 
L 199.380323 142.481818 
L 201.414915 143.432054 
L 204.49441 144.678182 
L 204.796733 144.807912 
L 208.178551 146.060356 
L 210.952176 146.874545 
L 211.560369 147.070844 
L 214.942188 147.958691 
L 218.324006 148.718655 
L 220.088341 149.070909 
L 221.705824 149.464132 
" style="fill:none;stroke:#21445c;stroke-width:1.5;"/>
   </g>
   <g id="LineCollection_6">
    <path clip-path="url(#p7ddfc02a9b)" d="M 214.942188 145.169509 
L 218.324006 145.724458 
L 221.705824 146.132162 
L 225.087642 146.299839 
L 228.46946 145.932498 
L 231.325068 144.678182 
L 231.851278 144.199132 
L 232.96308 142.481818 
L 233.07188 140.285455 
L 232.208333 138.089091 
L 231.851278 137.591356 
L 230.672415 135.892727 
L 228.912328 133.696364 
L 228.46946 133.178185 
L 227.215276 131.5 
L 225.541926 129.303636 
L 225.087642 128.735574 
L 223.899596 127.107273 
L 222.296003 124.910909 
L 221.705824 124.118128 
L 220.693082 122.714545 
L 218.879244 120.518182 
L 218.324006 119.980967 
L 216.344838 118.321818 
L 214.942188 117.405142 
L 212.713345 116.125455 
L 211.560369 115.502416 
L 208.785363 113.929091 
L 208.178551 113.541978 
L 205.653817 111.732727 
L 204.796733 111.059988 
L 202.928812 109.536364 
L 201.414915 108.345151 
L 200.098634 107.34 
L 198.033097 105.823292 
L 197.049385 105.143636 
L 194.651278 103.519604 
L 193.745187 102.947273 
L 191.26946 101.431721 
L 190.113815 100.750909 
L 187.887642 99.474602 
L 186.210393 98.554545 
L 184.505824 97.660263 
L 181.646482 96.358182 
L 181.124006 96.130319 
L 177.742188 94.849713 
L 175.789691 94.161818 
L 174.360369 93.621972 
L 170.978551 92.331297 
L 169.992616 91.965455 
L 167.596733 91.003494 
L 164.214915 89.79948 
L 164.112808 89.769091 
L 160.833097 88.685957 
L 157.451278 87.719935 
L 156.678909 87.572727 
L 154.06946 87.016175 
L 150.687642 86.830209 
L 147.305824 87.241079 
L 145.971205 87.572727 
L 143.924006 88.377391 
L 142.042603 89.769091 
L 141.497231 91.965455 
L 142.075042 94.161818 
L 143.153487 96.358182 
L 143.924006 97.552082 
L 144.530949 98.554545 
L 145.983754 100.750909 
L 147.305824 102.772294 
L 147.41195 102.947273 
L 148.801408 105.143636 
L 150.361131 107.34 
L 150.687642 107.7205 
L 152.249649 109.536364 
L 154.06946 111.161502 
L 154.744567 111.732727 
L 157.451278 113.64424 
L 157.836595 113.929091 
L 160.833097 116.112863 
L 160.848585 116.125455 
L 163.509937 118.321818 
L 164.214915 118.884857 
L 166.304791 120.518182 
L 167.596733 121.453939 
L 169.486863 122.714545 
L 170.978551 123.673954 
L 173.023627 124.910909 
L 174.360369 125.722166 
L 176.623086 127.107273 
L 177.742188 127.797387 
L 180.142991 129.303636 
L 181.124006 129.898508 
L 183.862473 131.5 
L 184.505824 131.861452 
L 187.887642 133.685865 
L 187.90773 133.696364 
L 191.26946 135.522971 
L 191.970848 135.892727 
L 194.651278 137.397781 
L 195.935858 138.089091 
L 198.033097 139.231867 
L 200.150629 140.285455 
L 201.414915 140.898342 
L 204.796733 142.320555 
L 205.264366 142.481818 
L 208.178551 143.522457 
L 211.560369 144.441659 
L 212.738868 144.678182 
L 214.942188 145.169509 
" style="fill:none;stroke:#204d6b;stroke-width:1.5;"/>
   </g>
   <g id="LineCollection_7">
    <path clip-path="url(#p7ddfc02a9b)" d="M 214.942188 142.519498 
L 218.324006 142.73407 
L 221.705824 142.638037 
L 222.644365 142.481818 
L 225.087642 141.582378 
L 226.369225 140.285455 
L 226.411209 138.089091 
L 225.560235 135.892727 
L 225.087642 135.070884 
L 224.406757 133.696364 
L 223.12375 131.5 
L 221.717734 129.303636 
L 221.705824 129.286592 
L 220.23369 127.107273 
L 218.786779 124.910909 
L 218.324006 124.263097 
L 217.166951 122.714545 
L 215.097028 120.518182 
L 214.942188 120.391408 
L 211.984572 118.321818 
L 211.560369 118.076654 
L 208.178551 116.213608 
L 208.019733 116.125455 
L 204.796733 114.140424 
L 204.480549 113.929091 
L 201.682008 111.732727 
L 201.414915 111.513456 
L 198.994297 109.536364 
L 198.033097 108.802369 
L 196.032159 107.34 
L 194.651278 106.386967 
L 192.74726 105.143636 
L 191.26946 104.209395 
L 189.169644 102.947273 
L 187.887642 102.19068 
L 185.347954 100.750909 
L 184.505824 100.287303 
L 181.124006 98.599734 
L 181.021171 98.554545 
L 177.742188 97.237446 
L 175.272709 96.358182 
L 174.360369 96.035059 
L 170.978551 94.875478 
L 168.815745 94.161818 
L 167.596733 93.721777 
L 164.214915 92.673462 
L 161.392721 91.965455 
L 160.833097 91.814745 
L 157.451278 91.23601 
L 154.06946 91.065228 
L 150.687642 91.697503 
L 150.152969 91.965455 
L 148.296185 94.161818 
L 148.381007 96.358182 
L 149.208796 98.554545 
L 150.270399 100.750909 
L 150.687642 101.514702 
L 151.417171 102.947273 
L 152.65133 105.143636 
L 154.06946 107.2176 
L 154.153533 107.34 
L 156.163721 109.536364 
L 157.451278 110.609595 
L 158.81057 111.732727 
L 160.833097 113.228607 
L 161.703378 113.929091 
L 164.214915 115.98568 
L 164.379343 116.125455 
L 167.02618 118.321818 
L 167.596733 118.76345 
L 170.047532 120.518182 
L 170.978551 121.13825 
L 173.514101 122.714545 
L 174.360369 123.22799 
L 177.117582 124.910909 
L 177.742188 125.29419 
L 180.56199 127.107273 
L 181.124006 127.460721 
L 184.080426 129.303636 
L 184.505824 129.554797 
L 187.887642 131.446776 
L 187.989052 131.5 
L 191.26946 133.220406 
L 192.214955 133.696364 
L 194.651278 134.98246 
L 196.405496 135.892727 
L 198.033097 136.773452 
L 200.586485 138.089091 
L 201.414915 138.508303 
L 204.796733 140.007902 
L 205.577609 140.285455 
L 208.178551 141.185391 
L 211.560369 142.00547 
L 214.710641 142.481818 
L 214.942188 142.519498 
" style="fill:none;stroke:#20557a;stroke-width:1.5;"/>
   </g>
   <g id="LineCollection_8">
    <path clip-path="url(#p7ddfc02a9b)" d="M 208.178551 138.763 
L 211.560369 139.435497 
L 214.942188 139.535041 
L 218.324006 138.718156 
L 219.322781 138.089091 
L 220.241163 135.892727 
L 219.877673 133.696364 
L 218.948174 131.5 
L 218.324006 130.37531 
L 217.682928 129.303636 
L 216.366688 127.107273 
L 215.078295 124.910909 
L 214.942188 124.724189 
L 213.359284 122.714545 
L 211.560369 121.062311 
L 210.900507 120.518182 
L 208.178551 118.821336 
L 207.313596 118.321818 
L 204.796733 116.935259 
L 203.361237 116.125455 
L 201.414915 114.820195 
L 200.184929 113.929091 
L 198.033097 112.119061 
L 197.594107 111.732727 
L 194.900772 109.536364 
L 194.651278 109.354185 
L 191.791432 107.34 
L 191.26946 106.999199 
L 188.252276 105.143636 
L 187.887642 104.924192 
L 184.505824 103.015412 
L 184.374297 102.947273 
L 181.124006 101.246337 
L 180.092893 100.750909 
L 177.742188 99.713374 
L 174.770914 98.554545 
L 174.360369 98.407671 
L 170.978551 97.335842 
L 167.596733 96.381455 
L 167.479886 96.358182 
L 164.214915 95.645389 
L 160.833097 95.237289 
L 157.451278 95.464629 
L 155.581981 96.358182 
L 154.516788 98.554545 
L 154.782594 100.750909 
L 155.48038 102.947273 
L 156.500919 105.143636 
L 157.451278 106.559902 
L 157.994015 107.34 
L 160.108228 109.536364 
L 160.833097 110.135427 
L 162.710027 111.732727 
L 164.214915 112.960963 
L 165.352139 113.929091 
L 167.596733 115.868701 
L 167.905367 116.125455 
L 170.713456 118.321818 
L 170.978551 118.511331 
L 174.001558 120.518182 
L 174.360369 120.741342 
L 177.5537 122.714545 
L 177.742188 122.829575 
L 180.961163 124.910909 
L 181.124006 125.015623 
L 184.304223 127.107273 
L 184.505824 127.233141 
L 187.887642 129.232321 
L 188.019654 129.303636 
L 191.26946 130.994372 
L 192.310149 131.5 
L 194.651278 132.658982 
L 196.791452 133.696364 
L 198.033097 134.330563 
L 201.121351 135.892727 
L 201.414915 136.042821 
L 204.796733 137.575073 
L 206.18285 138.089091 
L 208.178551 138.763 
" style="fill:none;stroke:#205e88;stroke-width:1.5;"/>
   </g>
   <g id="LineCollection_9">
    <path clip-path="url(#p7ddfc02a9b)" d="M 211.560369 135.893565 
L 211.563511 135.892727 
L 213.890708 133.696364 
L 213.438451 131.5 
L 212.567563 129.303636 
L 211.785496 127.107273 
L 211.560369 126.631491 
L 210.73415 124.910909 
L 209.052139 122.714545 
L 208.178551 121.993426 
L 206.199256 120.518182 
L 204.796733 119.710893 
L 202.210481 118.321818 
L 201.414915 117.880569 
L 198.439285 116.125455 
L 198.033097 115.826053 
L 195.727206 113.929091 
L 194.651278 112.955844 
L 193.367254 111.732727 
L 191.26946 110.017601 
L 190.651718 109.536364 
L 187.887642 107.706592 
L 187.25229 107.34 
L 184.505824 105.819903 
L 183.11258 105.143636 
L 181.124006 104.132913 
L 178.645167 102.947273 
L 177.742188 102.521018 
L 174.360369 101.079235 
L 173.432986 100.750909 
L 170.978551 99.990169 
L 167.596733 99.292026 
L 164.214915 99.140384 
L 160.833097 100.416462 
L 160.538141 100.750909 
L 160.106548 102.947273 
L 160.693632 105.143636 
L 160.833097 105.361701 
L 162.18454 107.34 
L 164.214915 109.533459 
L 164.217735 109.536364 
L 166.702568 111.732727 
L 167.596733 112.520866 
L 169.222154 113.929091 
L 170.978551 115.426901 
L 171.840814 116.125455 
L 174.360369 117.982603 
L 174.839171 118.321818 
L 177.742188 120.200361 
L 178.23565 120.518182 
L 181.124006 122.371509 
L 181.643484 122.714545 
L 184.505824 124.657136 
L 184.88663 124.910909 
L 187.887642 126.803051 
L 188.418039 127.107273 
L 191.26946 128.614463 
L 192.716227 129.303636 
L 194.651278 130.204763 
L 197.612635 131.5 
L 198.033097 131.692951 
L 201.414915 133.092425 
L 202.957831 133.696364 
L 204.796733 134.452394 
L 208.178551 135.570852 
L 211.548836 135.892727 
L 211.560369 135.893565 
" style="fill:none;stroke:#206697;stroke-width:1.5;"/>
   </g>
   <g id="LineCollection_10">
    <path clip-path="url(#p7ddfc02a9b)" d="M 194.651278 127.247647 
L 198.033097 128.314378 
L 201.414915 128.921297 
L 204.796733 127.744351 
L 205.208303 127.107273 
L 205.262773 124.910909 
L 204.796733 124.224808 
L 203.579235 122.714545 
L 201.414915 121.301448 
L 200.019614 120.518182 
L 198.033097 119.564764 
L 195.758606 118.321818 
L 194.651278 117.568939 
L 192.952992 116.125455 
L 191.26946 114.217069 
L 191.029264 113.929091 
L 188.83203 111.732727 
L 187.887642 110.988333 
L 185.701732 109.536364 
L 184.505824 108.853561 
L 181.216778 107.34 
L 181.124006 107.297045 
L 177.742188 106.066746 
L 175.30552 105.143636 
L 174.360369 104.774778 
L 170.978551 103.866799 
L 167.596733 104.299347 
L 166.998834 105.143636 
L 167.586547 107.34 
L 167.596733 107.352355 
L 169.544272 109.536364 
L 170.978551 111.079492 
L 171.582034 111.732727 
L 173.872763 113.929091 
L 174.360369 114.338702 
L 176.554001 116.125455 
L 177.742188 116.977613 
L 179.739208 118.321818 
L 181.124006 119.212217 
L 183.256294 120.518182 
L 184.505824 121.347464 
L 186.604156 122.714545 
L 187.887642 123.576614 
L 190.023913 124.910909 
L 191.26946 125.603371 
L 194.333218 127.107273 
L 194.651278 127.247647 
" style="fill:none;stroke:#1f6fa6;stroke-width:1.5;"/>
   </g>
   <g id="LineCollection_11"/>
   <g id="patch_3">
    <path d="M 28.942188 228.14 
L 28.942188 10.7 
" style="fill:none;stroke:#000000;stroke-linecap:square;stroke-linejoin:miter;stroke-width:0.8;"/>
   </g>
   <g id="patch_4">
    <path d="M 363.742188 228.14 
L 363.742188 10.7 
" style="fill:none;stroke:#000000;stroke-linecap:square;stroke-linejoin:miter;stroke-width:0.8;"/>
   </g>
   <g id="patch_5">
    <path d="M 28.942188 228.14 
L 363.742188 228.14 
" style="fill:none;stroke:#000000;stroke-linecap:square;stroke-linejoin:miter;stroke-width:0.8;"/>
   </g>
   <g id="patch_6">
    <path d="M 28.942188 10.7 
L 363.742188 10.7 
" style="fill:none;stroke:#000000;stroke-linecap:square;stroke-linejoin:miter;stroke-width:0.8;"/>
   </g>
  </g>
 </g>
 <defs>
  <clipPath id="p7ddfc02a9b">
   <rect height="217.44" width="334.8" x="28.942188" y="10.7"/>
  </clipPath>
 </defs>
</svg>
