<?xml version="1.0" encoding="utf-8" standalone="no"?>
<!DOCTYPE svg PUBLIC "-//W3C//DTD SVG 1.1//EN"
  "http://www.w3.org/Graphics/SVG/1.1/DTD/svg11.dtd">
<!-- Created with matplotlib (https://matplotlib.org/) -->
<svg height="262.19625pt" version="1.1" viewBox="0 0 356.2 262.19625" width="356.2pt" xmlns="http://www.w3.org/2000/svg" xmlns:xlink="http://www.w3.org/1999/xlink">
 <defs>
  <style type="text/css">
*{stroke-linecap:butt;stroke-linejoin:round;}
  </style>
 </defs>
 <g id="figure_1">
  <g id="patch_1">
   <path d="M 0 262.19625 
L 356.2 262.19625 
L 356.2 0 
L 0 0 
z
" style="fill:none;"/>
  </g>
  <g id="axes_1">
   <g id="patch_2">
    <path d="M 10.7 224.64 
L 345.5 224.64 
L 345.5 7.2 
L 10.7 7.2 
z
" style="fill:#ffffff;"/>
   </g>
   <g id="patch_3">
    <path clip-path="url(#p62da50c3a7)" d="M 25.918182 214.756364 
L 26.41551 214.755646 
L 26.912838 214.755521 
L 27.410165 214.755377 
L 27.907493 214.755211 
L 28.404821 214.755022 
L 28.902149 214.754807 
L 29.399477 214.754562 
L 29.896805 214.754284 
L 30.394133 214.753971 
L 30.89146 214.753619 
L 31.388788 214.752506 
L 31.886116 214.75194 
L 32.383444 214.751305 
L 32.880772 214.750595 
L 33.3781 214.749803 
L 33.875428 214.748923 
L 34.372755 214.747948 
L 34.870083 214.746873 
L 35.367411 214.745689 
L 35.864739 214.744392 
L 36.362067 214.742973 
L 36.859395 214.741429 
L 37.356723 214.739751 
L 37.854051 214.737937 
L 38.351378 214.735981 
L 38.848706 214.733879 
L 39.346034 214.731629 
L 39.843362 214.729228 
L 40.34069 214.726676 
L 40.838018 214.723973 
L 41.335346 214.721122 
L 41.832673 214.718124 
L 42.330001 214.714985 
L 42.827329 214.711711 
L 43.324657 214.70831 
L 43.821985 214.704791 
L 44.319313 214.701166 
L 44.816641 214.697447 
L 45.313968 214.693649 
L 45.811296 214.689788 
L 46.308624 214.685882 
L 46.805952 214.681951 
L 47.30328 214.678013 
L 47.800608 214.674092 
L 48.297936 214.670209 
L 48.795263 214.66567 
L 49.292591 214.661092 
L 49.789919 214.657197 
L 50.287247 214.653396 
L 50.784575 214.64899 
L 51.281903 214.645308 
L 51.779231 214.641756 
L 52.276559 214.638346 
L 52.773886 214.634373 
L 53.271214 214.630439 
L 54.26587 214.62725 
L 54.763198 214.624196 
L 55.260515 214.621276 
L 55.757843 214.618483 
L 56.255171 214.615091 
L 56.752499 214.612398 
L 57.249827 214.609061 
L 57.747144 214.606369 
L 58.244472 214.603689 
L 58.7418 214.600992 
L 59.239128 214.59753 
L 59.736456 214.594581 
L 60.233773 214.591499 
L 60.731101 214.587529 
L 61.228429 214.583943 
L 61.725757 214.579371 
L 62.223085 214.573649 
L 62.720402 214.568746 
L 63.21773 214.563397 
L 63.715058 214.557559 
L 64.212386 214.55119 
L 64.709714 214.544253 
L 65.207031 214.535277 
L 65.704359 214.526135 
L 66.201687 214.516888 
L 66.699015 214.506901 
L 67.196343 214.495434 
L 67.69367 214.483065 
L 68.190988 214.470484 
L 68.688316 214.456356 
L 69.185644 214.441994 
L 69.682972 214.426791 
L 70.180299 214.410042 
L 70.677617 214.393077 
L 71.174945 214.373155 
L 71.672273 214.353521 
L 72.1696 214.331533 
L 72.666928 214.310549 
L 73.164246 214.287337 
L 73.661574 214.261685 
L 74.158902 214.236935 
L 74.656229 214.209841 
L 75.153557 214.183756 
L 75.650875 214.156165 
L 76.148203 214.125536 
L 76.645531 214.093658 
L 77.142858 214.062639 
L 77.640186 214.030643 
L 78.137504 213.997663 
L 78.634832 213.962966 
L 79.132159 213.923539 
L 79.629487 213.882306 
L 80.126815 213.841278 
L 80.624133 213.801392 
L 81.121461 213.758003 
L 81.618788 213.711397 
L 82.116116 213.663361 
L 82.613444 213.613751 
L 83.110762 213.562533 
L 83.60809 213.504766 
L 84.105417 213.444587 
L 84.602745 213.378994 
L 85.100073 213.308797 
L 85.597391 213.234986 
L 86.094718 213.160918 
L 86.592046 213.08124 
L 87.089374 212.998312 
L 87.586702 212.908381 
L 88.08402 212.812234 
L 88.581347 212.711676 
L 89.078675 212.603015 
L 89.576003 212.492733 
L 90.073331 212.372002 
L 90.570648 212.244852 
L 91.067976 212.106764 
L 91.565304 211.966847 
L 92.062632 211.815781 
L 92.55996 211.657023 
L 93.057288 211.486815 
L 93.554605 211.311579 
L 94.051933 211.119552 
L 94.549261 210.917792 
L 95.046589 210.709656 
L 95.543917 210.484085 
L 96.041234 210.248958 
L 96.538562 210.004293 
L 97.03589 209.74658 
L 97.533218 209.475347 
L 98.030546 209.195132 
L 98.527863 208.900564 
L 99.025191 208.595428 
L 99.522519 208.279209 
L 100.019847 207.94632 
L 100.517175 207.598134 
L 101.014492 207.23417 
L 101.51182 206.861087 
L 102.009148 206.468093 
L 102.506476 206.066218 
L 103.003804 205.64981 
L 103.501121 205.218704 
L 103.998449 204.772013 
L 104.495777 204.306571 
L 104.993105 203.830062 
L 105.490433 203.338643 
L 105.98775 202.82804 
L 106.485078 202.306872 
L 106.982406 201.771421 
L 107.479734 201.210991 
L 107.977062 200.638983 
L 108.474379 200.053119 
L 108.971707 199.450629 
L 109.469035 198.833316 
L 109.966363 198.20069 
L 110.463685 197.544281 
L 110.961013 196.872707 
L 111.458341 196.179637 
L 111.955664 195.474792 
L 112.452992 194.753978 
L 112.950314 194.012292 
L 113.447642 193.256934 
L 113.94497 192.476426 
L 114.442293 191.672985 
L 114.939621 190.849179 
L 115.436943 190.010376 
L 115.934271 189.155149 
L 116.431599 188.272294 
L 116.928922 187.371793 
L 117.426249 186.461138 
L 117.923572 185.521676 
L 118.4209 184.561296 
L 118.918228 183.581527 
L 119.415551 182.580362 
L 119.912878 181.548299 
L 120.410201 180.510105 
L 120.907529 179.444463 
L 121.404857 178.355169 
L 121.902179 177.247055 
L 122.399507 176.121363 
L 122.896835 174.967113 
L 123.394158 173.790803 
L 123.891486 172.603909 
L 124.388808 171.39035 
L 124.886136 170.154883 
L 125.383464 168.896751 
L 125.880787 167.618412 
L 126.378115 166.322875 
L 126.875437 165.014874 
L 127.372765 163.679988 
L 127.870093 162.314993 
L 128.367416 160.927703 
L 128.864744 159.521552 
L 129.362066 158.107198 
L 129.859394 156.655407 
L 130.356722 155.185621 
L 130.854045 153.699898 
L 131.351373 152.204341 
L 131.848695 150.679593 
L 132.346023 149.137532 
L 132.843351 147.56199 
L 133.340674 145.960489 
L 133.838002 144.340123 
L 134.335324 142.705581 
L 134.832652 141.046803 
L 135.32998 139.360811 
L 135.827303 137.662316 
L 136.324631 135.931682 
L 136.821958 134.188855 
L 137.319281 132.422202 
L 137.816609 130.629338 
L 138.313932 128.814887 
L 138.811259 126.978645 
L 139.308587 125.131168 
L 139.80591 123.263269 
L 140.303238 121.373113 
L 140.800561 119.479841 
L 141.297888 117.557561 
L 141.795216 115.623125 
L 142.292539 113.669974 
L 142.789867 111.702701 
L 143.28719 109.727099 
L 143.784517 107.741765 
L 144.281845 105.743444 
L 144.779168 103.742851 
L 145.276496 101.730698 
L 145.773818 99.712688 
L 146.271146 97.688199 
L 146.768474 95.665092 
L 147.265797 93.634639 
L 147.763125 91.60276 
L 148.260453 89.567349 
L 148.757775 87.543807 
L 149.255103 85.519703 
L 149.752426 83.518106 
L 150.249754 81.508686 
L 150.747082 79.509892 
L 151.244404 77.528909 
L 151.741732 75.552807 
L 152.239057 73.58843 
L 152.736383 71.642893 
L 153.233708 69.710079 
L 153.731033 67.795544 
L 154.228361 65.892467 
L 154.725686 64.015292 
L 155.223012 62.153297 
L 155.720337 60.322714 
L 156.217662 58.514642 
L 156.71499 56.734623 
L 157.212315 54.971442 
L 157.709641 53.234622 
L 158.206966 51.523075 
L 158.704294 49.846218 
L 159.201619 48.20231 
L 159.698944 46.593302 
L 160.196269 45.020764 
L 160.693595 43.464233 
L 161.190923 41.956083 
L 161.688248 40.472701 
L 162.185573 39.0336 
L 162.682898 37.637619 
L 163.180226 36.287335 
L 163.677552 34.969313 
L 164.174877 33.686597 
L 164.672202 32.451471 
L 165.169527 31.250066 
L 165.666855 30.092164 
L 166.164181 28.979733 
L 166.661506 27.901544 
L 167.158831 26.890843 
L 167.656156 25.918929 
L 168.153484 24.994408 
L 168.650809 24.120507 
L 169.148135 23.297052 
L 169.64546 22.528865 
L 170.142788 21.808634 
L 170.640113 21.127431 
L 171.137438 20.494198 
L 171.634764 19.915537 
L 172.132089 19.40232 
L 172.629417 18.927961 
L 173.126742 18.497737 
L 173.624067 18.132501 
L 174.121394 17.817364 
L 174.618719 17.562506 
L 175.116044 17.358593 
L 175.613371 17.219368 
L 176.110696 17.120684 
L 176.608023 17.083636 
L 177.105348 17.101358 
L 177.602675 17.167789 
L 178.1 17.290083 
L 178.597325 17.486798 
L 179.094652 17.724714 
L 179.591977 18.011121 
L 180.089304 18.360376 
L 180.586629 18.762994 
L 181.083956 19.214599 
L 181.581281 19.728149 
L 182.078606 20.282558 
L 182.575933 20.88681 
L 183.073258 21.553245 
L 183.570584 22.275194 
L 184.06791 23.036428 
L 184.565236 23.855275 
L 185.062562 24.706787 
L 185.559888 25.616924 
L 186.057213 26.574105 
L 186.554539 27.570135 
L 187.051865 28.60062 
L 187.549191 29.694442 
L 188.046516 30.818088 
L 188.543842 31.979309 
L 189.041168 33.197199 
L 189.538494 34.447485 
L 190.03582 35.73076 
L 190.533146 37.059027 
L 191.030472 38.418161 
L 191.527798 39.803422 
L 192.025123 41.230127 
L 192.522449 42.679037 
L 193.019775 44.167888 
L 193.517101 45.688556 
L 194.014427 47.238279 
L 194.511752 48.814845 
L 195.009078 50.414516 
L 195.506404 52.039987 
L 196.00373 53.698598 
L 196.501056 55.367207 
L 196.998382 57.072713 
L 197.495707 58.797691 
L 197.993033 60.5473 
L 198.490359 62.320175 
L 198.987685 64.106853 
L 199.485011 65.911477 
L 199.982337 67.733444 
L 200.479663 69.574814 
L 200.976988 71.432587 
L 201.474314 73.309808 
L 201.97164 75.197336 
L 202.468966 77.092177 
L 202.966291 78.999097 
L 203.463617 80.927893 
L 203.960943 82.863266 
L 204.458269 84.797425 
L 204.955595 86.73966 
L 205.452921 88.678276 
L 205.950246 90.63612 
L 206.447573 92.590453 
L 206.944898 94.544701 
L 207.442223 96.501899 
L 207.93955 98.455868 
L 208.436875 100.409447 
L 208.934202 102.361622 
L 209.431527 104.309506 
L 209.928854 106.260643 
L 210.426179 108.195432 
L 210.923506 110.129003 
L 211.420831 112.049284 
L 211.918156 113.966279 
L 212.415483 115.869805 
L 212.912808 117.771569 
L 213.410134 119.664997 
L 213.90746 121.541882 
L 214.404786 123.404519 
L 214.902112 125.253738 
L 215.399437 127.089213 
L 215.896763 128.911725 
L 216.394089 130.734882 
L 216.891415 132.525848 
L 217.388741 134.317132 
L 217.886066 136.080776 
L 218.383391 137.823519 
L 218.880719 139.554762 
L 219.378044 141.274399 
L 219.875369 142.980175 
L 220.372695 144.664426 
L 220.870023 146.336207 
L 221.367348 147.9901 
L 221.864673 149.6297 
L 222.361998 151.254469 
L 222.859324 152.84081 
L 223.356652 154.411561 
L 223.853977 155.960148 
L 224.351302 157.492004 
L 224.848627 158.997043 
L 225.345955 160.485561 
L 225.843281 161.957809 
L 226.340606 163.418007 
L 226.837931 164.849543 
L 227.335256 166.253116 
L 227.832584 167.627988 
L 228.329909 168.989856 
L 228.827235 170.325765 
L 229.32456 171.637079 
L 229.821885 172.925771 
L 230.319213 174.182859 
L 230.816538 175.418071 
L 231.313864 176.628945 
L 231.811189 177.814309 
L 232.308517 178.977262 
L 232.805842 180.11546 
L 233.303167 181.231187 
L 233.800493 182.316629 
L 234.297818 183.366183 
L 234.795146 184.405179 
L 235.292471 185.413761 
L 235.789796 186.397068 
L 236.287122 187.355022 
L 236.784447 188.294387 
L 237.281775 189.1992 
L 237.7791 190.086877 
L 238.276425 190.946638 
L 238.773751 191.777924 
L 239.271078 192.589367 
L 239.768401 193.382841 
L 240.265729 194.141294 
L 240.763057 194.88084 
L 241.260379 195.598568 
L 241.757707 196.289126 
L 242.25503 196.955985 
L 242.752358 197.6034 
L 243.249686 198.222372 
L 243.747008 198.830265 
L 244.244336 199.42848 
L 244.741659 199.99024 
L 245.238987 200.534398 
L 245.736315 201.057546 
L 246.233637 201.560551 
L 246.730965 202.053999 
L 247.228293 202.525512 
L 247.725616 202.981233 
L 248.222944 203.423525 
L 248.720266 203.845854 
L 249.217594 204.255569 
L 249.714922 204.650457 
L 250.212245 205.031764 
L 250.709573 205.398801 
L 251.206895 205.754102 
L 251.704223 206.094401 
L 252.201551 206.424312 
L 252.698874 206.742323 
L 253.196202 207.046598 
L 253.693524 207.34478 
L 254.190852 207.630596 
L 254.68818 207.912178 
L 255.185503 208.184266 
L 255.682831 208.449747 
L 256.180153 208.700739 
L 256.677481 208.945223 
L 257.174809 209.182681 
L 257.672132 209.41696 
L 258.169459 209.64646 
L 258.666782 209.866787 
L 259.16411 210.072296 
L 259.661438 210.27721 
L 260.158761 210.476643 
L 260.656088 210.668796 
L 261.153416 210.855203 
L 261.650739 211.034733 
L 262.148067 211.208265 
L 262.64539 211.377159 
L 263.142717 211.541966 
L 263.640045 211.701934 
L 264.137368 211.851449 
L 264.634696 211.999261 
L 265.132018 212.138274 
L 265.629346 212.273362 
L 266.126674 212.405616 
L 266.623997 212.53231 
L 267.121325 212.654798 
L 267.618647 212.770584 
L 268.115975 212.884267 
L 268.613303 212.989398 
L 269.110626 213.092715 
L 269.607954 213.192024 
L 270.105276 213.284257 
L 270.602604 213.372316 
L 271.099932 213.456248 
L 271.597255 213.536715 
L 272.094583 213.611862 
L 272.59191 213.686228 
L 273.089233 213.754538 
L 273.586561 213.818436 
L 274.083884 213.880555 
L 274.581212 213.937666 
L 275.078539 213.989379 
L 275.575862 214.039138 
L 276.07319 214.085722 
L 276.570513 214.131072 
L 277.067841 214.170755 
L 277.565168 214.207743 
L 278.062491 214.242747 
L 278.559819 214.274562 
L 279.057142 214.303406 
L 279.554469 214.33131 
L 280.051797 214.355749 
L 280.54912 214.379477 
L 281.046448 214.399969 
L 281.543771 214.41937 
L 282.041098 214.437076 
L 282.538426 214.45381 
L 283.035754 214.467761 
L 283.533072 214.481675 
L 284.0304 214.493628 
L 284.527727 214.505659 
L 285.025055 214.514629 
L 285.522383 214.522769 
L 286.019701 214.530152 
L 286.517028 214.538677 
L 287.014356 214.544477 
L 287.511684 214.549764 
L 288.009012 214.553988 
L 288.50633 214.558515 
L 289.003657 214.562072 
L 289.500985 214.56602 
L 289.998313 214.570301 
L 290.495641 214.573646 
L 290.992969 214.576812 
L 291.490286 214.579224 
L 291.987614 214.582837 
L 292.484942 214.585041 
L 292.98227 214.587283 
L 293.479598 214.589572 
L 293.976915 214.591915 
L 294.474243 214.59432 
L 294.971571 214.597401 
L 295.468899 214.600459 
L 295.966227 214.602902 
L 296.463544 214.605446 
L 296.960872 214.6087 
L 297.4582 214.611347 
L 297.955528 214.614712 
L 298.452856 214.617476 
L 298.950173 214.620352 
L 299.447501 214.623331 
L 299.944829 214.626408 
L 300.442157 214.629574 
L 300.939485 214.632824 
L 301.436802 214.636149 
L 301.93413 214.639543 
L 302.431458 214.642999 
L 302.928786 214.647118 
L 303.426114 214.65058 
L 303.923441 214.654094 
L 304.420769 214.657651 
L 304.918097 214.66124 
L 305.415425 214.664852 
L 305.912753 214.668479 
L 306.410081 214.672109 
L 306.907409 214.675734 
L 307.404737 214.679345 
L 307.902064 214.682933 
L 308.399392 214.686487 
L 308.89672 214.689999 
L 309.394048 214.693461 
L 309.891376 214.696864 
L 310.388704 214.700199 
L 310.886032 214.70346 
L 311.383359 214.70664 
L 311.880687 214.70973 
L 312.378015 214.712727 
L 312.875343 214.715623 
L 313.372671 214.718415 
L 313.869999 214.721098 
L 314.367327 214.723669 
L 314.864654 214.726734 
L 315.361982 214.72898 
L 315.85931 214.731121 
L 316.356638 214.733156 
L 316.853966 214.735082 
L 317.351294 214.7369 
L 317.848622 214.73861 
L 318.345949 214.740213 
L 318.843277 214.741711 
L 319.340605 214.743105 
L 319.837933 214.745009 
L 320.335261 214.746113 
L 320.832589 214.747136 
L 321.329917 214.748082 
L 321.827245 214.748952 
L 322.324572 214.74975 
L 322.8219 214.75048 
L 323.319228 214.751144 
L 323.816556 214.751747 
L 324.313884 214.752292 
L 324.811212 214.752783 
L 325.30854 214.753224 
L 325.805867 214.753619 
L 326.303195 214.753971 
L 326.800523 214.754284 
L 327.297851 214.754562 
L 327.795179 214.754807 
L 328.292507 214.755022 
L 328.789835 214.755211 
L 329.287162 214.755377 
L 329.78449 214.755521 
L 330.281818 214.755646 
z
" style="fill:#1f77b4;opacity:0.4;"/>
   </g>
   <g id="patch_4">
    <path clip-path="url(#p62da50c3a7)" d="M 129.362066 214.756364 
L 129.362066 158.107198 
L 129.859394 156.655407 
L 130.356722 155.185621 
L 130.854045 153.699898 
L 131.351373 152.204341 
L 131.848695 150.679593 
L 132.346023 149.137532 
L 132.843351 147.56199 
L 133.340674 145.960489 
L 133.838002 144.340123 
L 134.335324 142.705581 
L 134.832652 141.046803 
L 135.32998 139.360811 
L 135.827303 137.662316 
L 136.324631 135.931682 
L 136.821958 134.188855 
L 137.319281 132.422202 
L 137.816609 130.629338 
L 138.313932 128.814887 
L 138.811259 126.978645 
L 139.308587 125.131168 
L 139.80591 123.263269 
L 140.303238 121.373113 
L 140.800561 119.479841 
L 141.297888 117.557561 
L 141.795216 115.623125 
L 142.292539 113.669974 
L 142.789867 111.702701 
L 143.28719 109.727099 
L 143.784517 107.741765 
L 144.281845 105.743444 
L 144.779168 103.742851 
L 145.276496 101.730698 
L 145.773818 99.712688 
L 146.271146 97.688199 
L 146.768474 95.665092 
L 147.265797 93.634639 
L 147.763125 91.60276 
L 148.260453 89.567349 
L 148.757775 87.543807 
L 149.255103 85.519703 
L 149.752426 83.518106 
L 150.249754 81.508686 
L 150.747082 79.509892 
L 151.244404 77.528909 
L 151.741732 75.552807 
L 152.239057 73.58843 
L 152.736383 71.642893 
L 153.233708 69.710079 
L 153.731033 67.795544 
L 154.228361 65.892467 
L 154.725686 64.015292 
L 155.223012 62.153297 
L 155.720337 60.322714 
L 156.217662 58.514642 
L 156.71499 56.734623 
L 157.212315 54.971442 
L 157.709641 53.234622 
L 158.206966 51.523075 
L 158.704294 49.846218 
L 159.201619 48.20231 
L 159.698944 46.593302 
L 160.196269 45.020764 
L 160.693595 43.464233 
L 161.190923 41.956083 
L 161.688248 40.472701 
L 162.185573 39.0336 
L 162.682898 37.637619 
L 163.180226 36.287335 
L 163.677552 34.969313 
L 164.174877 33.686597 
L 164.672202 32.451471 
L 165.169527 31.250066 
L 165.666855 30.092164 
L 166.164181 28.979733 
L 166.661506 27.901544 
L 167.158831 26.890843 
L 167.656156 25.918929 
L 168.153484 24.994408 
L 168.650809 24.120507 
L 169.148135 23.297052 
L 169.64546 22.528865 
L 170.142788 21.808634 
L 170.640113 21.127431 
L 171.137438 20.494198 
L 171.634764 19.915537 
L 172.132089 19.40232 
L 172.629417 18.927961 
L 173.126742 18.497737 
L 173.624067 18.132501 
L 174.121394 17.817364 
L 174.618719 17.562506 
L 175.116044 17.358593 
L 175.613371 17.219368 
L 176.110696 17.120684 
L 176.608023 17.083636 
L 177.105348 17.101358 
L 177.602675 17.167789 
L 178.1 17.290083 
L 178.597325 17.486798 
L 179.094652 17.724714 
L 179.591977 18.011121 
L 180.089304 18.360376 
L 180.586629 18.762994 
L 181.083956 19.214599 
L 181.581281 19.728149 
L 182.078606 20.282558 
L 182.575933 20.88681 
L 183.073258 21.553245 
L 183.570584 22.275194 
L 184.06791 23.036428 
L 184.565236 23.855275 
L 185.062562 24.706787 
L 185.559888 25.616924 
L 186.057213 26.574105 
L 186.554539 27.570135 
L 187.051865 28.60062 
L 187.549191 29.694442 
L 188.046516 30.818088 
L 188.543842 31.979309 
L 189.041168 33.197199 
L 189.538494 34.447485 
L 190.03582 35.73076 
L 190.533146 37.059027 
L 191.030472 38.418161 
L 191.527798 39.803422 
L 192.025123 41.230127 
L 192.522449 42.679037 
L 193.019775 44.167888 
L 193.517101 45.688556 
L 194.014427 47.238279 
L 194.511752 48.814845 
L 195.009078 50.414516 
L 195.506404 52.039987 
L 196.00373 53.698598 
L 196.501056 55.367207 
L 196.998382 57.072713 
L 197.495707 58.797691 
L 197.993033 60.5473 
L 198.490359 62.320175 
L 198.987685 64.106853 
L 199.485011 65.911477 
L 199.982337 67.733444 
L 200.479663 69.574814 
L 200.976988 71.432587 
L 201.474314 73.309808 
L 201.97164 75.197336 
L 202.468966 77.092177 
L 202.966291 78.999097 
L 203.463617 80.927893 
L 203.960943 82.863266 
L 204.458269 84.797425 
L 204.955595 86.73966 
L 205.452921 88.678276 
L 205.950246 90.63612 
L 206.447573 92.590453 
L 206.944898 94.544701 
L 207.442223 96.501899 
L 207.93955 98.455868 
L 208.436875 100.409447 
L 208.934202 102.361622 
L 209.431527 104.309506 
L 209.928854 106.260643 
L 210.426179 108.195432 
L 210.923506 110.129003 
L 211.420831 112.049284 
L 211.918156 113.966279 
L 212.415483 115.869805 
L 212.912808 117.771569 
L 213.410134 119.664997 
L 213.90746 121.541882 
L 214.404786 123.404519 
L 214.902112 125.253738 
L 215.399437 127.089213 
L 215.896763 128.911725 
L 216.394089 130.734882 
L 216.891415 132.525848 
L 217.388741 134.317132 
L 217.886066 136.080776 
L 218.383391 137.823519 
L 218.880719 139.554762 
L 219.378044 141.274399 
L 219.875369 142.980175 
L 220.372695 144.664426 
L 220.870023 146.336207 
L 221.367348 147.9901 
L 221.864673 149.6297 
L 222.361998 151.254469 
L 222.859324 152.84081 
L 222.859324 214.756364 
z
" style="fill:#1f77b4;opacity:0.4;"/>
   </g>
   <g id="matplotlib.axis_1">
    <g id="xtick_1">
     <g id="line2d_1">
      <defs>
       <path d="M 0 0 
L 0 3.5 
" id="m379a92687a" style="stroke:#000000;stroke-width:0.8;"/>
      </defs>
      <g>
       <use style="stroke:#000000;stroke-width:0.8;" x="32.578503" xlink:href="#m379a92687a" y="224.64"/>
      </g>
     </g>
     <g id="text_1">
      <!-- −15 -->
      <defs>
       <path d="M 10.59375 35.5 
L 73.1875 35.5 
L 73.1875 27.203125 
L 10.59375 27.203125 
z
" id="DejaVuSans-8722"/>
       <path d="M 12.40625 8.296875 
L 28.515625 8.296875 
L 28.515625 63.921875 
L 10.984375 60.40625 
L 10.984375 69.390625 
L 28.421875 72.90625 
L 38.28125 72.90625 
L 38.28125 8.296875 
L 54.390625 8.296875 
L 54.390625 0 
L 12.40625 0 
z
" id="DejaVuSans-49"/>
       <path d="M 10.796875 72.90625 
L 49.515625 72.90625 
L 49.515625 64.59375 
L 19.828125 64.59375 
L 19.828125 46.734375 
Q 21.96875 47.46875 24.109375 47.828125 
Q 26.265625 48.1875 28.421875 48.1875 
Q 40.625 48.1875 47.75 41.5 
Q 54.890625 34.8125 54.890625 23.390625 
Q 54.890625 11.625 47.5625 5.09375 
Q 40.234375 -1.421875 26.90625 -1.421875 
Q 22.3125 -1.421875 17.546875 -0.640625 
Q 12.796875 0.140625 7.71875 1.703125 
L 7.71875 11.625 
Q 12.109375 9.234375 16.796875 8.0625 
Q 21.484375 6.890625 26.703125 6.890625 
Q 35.15625 6.890625 40.078125 11.328125 
Q 45.015625 15.765625 45.015625 23.390625 
Q 45.015625 31 40.078125 35.4375 
Q 35.15625 39.890625 26.703125 39.890625 
Q 22.75 39.890625 18.8125 39.015625 
Q 14.890625 38.140625 10.796875 36.28125 
z
" id="DejaVuSans-53"/>
      </defs>
      <g transform="translate(22.026159 239.238437)scale(0.1 -0.1)">
       <use xlink:href="#DejaVuSans-8722"/>
       <use x="83.789062" xlink:href="#DejaVuSans-49"/>
       <use x="147.412109" xlink:href="#DejaVuSans-53"/>
      </g>
     </g>
    </g>
    <g id="xtick_2">
     <g id="line2d_2">
      <g>
       <use style="stroke:#000000;stroke-width:0.8;" x="86.892047" xlink:href="#m379a92687a" y="224.64"/>
      </g>
     </g>
     <g id="text_2">
      <!-- −10 -->
      <defs>
       <path d="M 31.78125 66.40625 
Q 24.171875 66.40625 20.328125 58.90625 
Q 16.5 51.421875 16.5 36.375 
Q 16.5 21.390625 20.328125 13.890625 
Q 24.171875 6.390625 31.78125 6.390625 
Q 39.453125 6.390625 43.28125 13.890625 
Q 47.125 21.390625 47.125 36.375 
Q 47.125 51.421875 43.28125 58.90625 
Q 39.453125 66.40625 31.78125 66.40625 
z
M 31.78125 74.21875 
Q 44.046875 74.21875 50.515625 64.515625 
Q 56.984375 54.828125 56.984375 36.375 
Q 56.984375 17.96875 50.515625 8.265625 
Q 44.046875 -1.421875 31.78125 -1.421875 
Q 19.53125 -1.421875 13.0625 8.265625 
Q 6.59375 17.96875 6.59375 36.375 
Q 6.59375 54.828125 13.0625 64.515625 
Q 19.53125 74.21875 31.78125 74.21875 
z
" id="DejaVuSans-48"/>
      </defs>
      <g transform="translate(76.339703 239.238437)scale(0.1 -0.1)">
       <use xlink:href="#DejaVuSans-8722"/>
       <use x="83.789062" xlink:href="#DejaVuSans-49"/>
       <use x="147.412109" xlink:href="#DejaVuSans-48"/>
      </g>
     </g>
    </g>
    <g id="xtick_3">
     <g id="line2d_3">
      <g>
       <use style="stroke:#000000;stroke-width:0.8;" x="141.205591" xlink:href="#m379a92687a" y="224.64"/>
      </g>
     </g>
     <g id="text_3">
      <!-- −5 -->
      <g transform="translate(133.834497 239.238437)scale(0.1 -0.1)">
       <use xlink:href="#DejaVuSans-8722"/>
       <use x="83.789062" xlink:href="#DejaVuSans-53"/>
      </g>
     </g>
    </g>
    <g id="xtick_4">
     <g id="line2d_4">
      <g>
       <use style="stroke:#000000;stroke-width:0.8;" x="195.519134" xlink:href="#m379a92687a" y="224.64"/>
      </g>
     </g>
     <g id="text_4">
      <!-- 0 -->
      <g transform="translate(192.337884 239.238437)scale(0.1 -0.1)">
       <use xlink:href="#DejaVuSans-48"/>
      </g>
     </g>
    </g>
    <g id="xtick_5">
     <g id="line2d_5">
      <g>
       <use style="stroke:#000000;stroke-width:0.8;" x="249.832678" xlink:href="#m379a92687a" y="224.64"/>
      </g>
     </g>
     <g id="text_5">
      <!-- 5 -->
      <g transform="translate(246.651428 239.238437)scale(0.1 -0.1)">
       <use xlink:href="#DejaVuSans-53"/>
      </g>
     </g>
    </g>
    <g id="xtick_6">
     <g id="line2d_6">
      <g>
       <use style="stroke:#000000;stroke-width:0.8;" x="304.146222" xlink:href="#m379a92687a" y="224.64"/>
      </g>
     </g>
     <g id="text_6">
      <!-- 10 -->
      <g transform="translate(297.783722 239.238437)scale(0.1 -0.1)">
       <use xlink:href="#DejaVuSans-49"/>
       <use x="63.623047" xlink:href="#DejaVuSans-48"/>
      </g>
     </g>
    </g>
    <g id="text_7">
     <!-- Parameter -->
     <defs>
      <path d="M 19.671875 64.796875 
L 19.671875 37.40625 
L 32.078125 37.40625 
Q 38.96875 37.40625 42.71875 40.96875 
Q 46.484375 44.53125 46.484375 51.125 
Q 46.484375 57.671875 42.71875 61.234375 
Q 38.96875 64.796875 32.078125 64.796875 
z
M 9.8125 72.90625 
L 32.078125 72.90625 
Q 44.34375 72.90625 50.609375 67.359375 
Q 56.890625 61.8125 56.890625 51.125 
Q 56.890625 40.328125 50.609375 34.8125 
Q 44.34375 29.296875 32.078125 29.296875 
L 19.671875 29.296875 
L 19.671875 0 
L 9.8125 0 
z
" id="DejaVuSans-80"/>
      <path d="M 34.28125 27.484375 
Q 23.390625 27.484375 19.1875 25 
Q 14.984375 22.515625 14.984375 16.5 
Q 14.984375 11.71875 18.140625 8.90625 
Q 21.296875 6.109375 26.703125 6.109375 
Q 34.1875 6.109375 38.703125 11.40625 
Q 43.21875 16.703125 43.21875 25.484375 
L 43.21875 27.484375 
z
M 52.203125 31.203125 
L 52.203125 0 
L 43.21875 0 
L 43.21875 8.296875 
Q 40.140625 3.328125 35.546875 0.953125 
Q 30.953125 -1.421875 24.3125 -1.421875 
Q 15.921875 -1.421875 10.953125 3.296875 
Q 6 8.015625 6 15.921875 
Q 6 25.140625 12.171875 29.828125 
Q 18.359375 34.515625 30.609375 34.515625 
L 43.21875 34.515625 
L 43.21875 35.40625 
Q 43.21875 41.609375 39.140625 45 
Q 35.0625 48.390625 27.6875 48.390625 
Q 23 48.390625 18.546875 47.265625 
Q 14.109375 46.140625 10.015625 43.890625 
L 10.015625 52.203125 
Q 14.9375 54.109375 19.578125 55.046875 
Q 24.21875 56 28.609375 56 
Q 40.484375 56 46.34375 49.84375 
Q 52.203125 43.703125 52.203125 31.203125 
z
" id="DejaVuSans-97"/>
      <path d="M 41.109375 46.296875 
Q 39.59375 47.171875 37.8125 47.578125 
Q 36.03125 48 33.890625 48 
Q 26.265625 48 22.1875 43.046875 
Q 18.109375 38.09375 18.109375 28.8125 
L 18.109375 0 
L 9.078125 0 
L 9.078125 54.6875 
L 18.109375 54.6875 
L 18.109375 46.1875 
Q 20.953125 51.171875 25.484375 53.578125 
Q 30.03125 56 36.53125 56 
Q 37.453125 56 38.578125 55.875 
Q 39.703125 55.765625 41.0625 55.515625 
z
" id="DejaVuSans-114"/>
      <path d="M 52 44.1875 
Q 55.375 50.25 60.0625 53.125 
Q 64.75 56 71.09375 56 
Q 79.640625 56 84.28125 50.015625 
Q 88.921875 44.046875 88.921875 33.015625 
L 88.921875 0 
L 79.890625 0 
L 79.890625 32.71875 
Q 79.890625 40.578125 77.09375 44.375 
Q 74.3125 48.1875 68.609375 48.1875 
Q 61.625 48.1875 57.5625 43.546875 
Q 53.515625 38.921875 53.515625 30.90625 
L 53.515625 0 
L 44.484375 0 
L 44.484375 32.71875 
Q 44.484375 40.625 41.703125 44.40625 
Q 38.921875 48.1875 33.109375 48.1875 
Q 26.21875 48.1875 22.15625 43.53125 
Q 18.109375 38.875 18.109375 30.90625 
L 18.109375 0 
L 9.078125 0 
L 9.078125 54.6875 
L 18.109375 54.6875 
L 18.109375 46.1875 
Q 21.1875 51.21875 25.484375 53.609375 
Q 29.78125 56 35.6875 56 
Q 41.65625 56 45.828125 52.96875 
Q 50 49.953125 52 44.1875 
z
" id="DejaVuSans-109"/>
      <path d="M 56.203125 29.59375 
L 56.203125 25.203125 
L 14.890625 25.203125 
Q 15.484375 15.921875 20.484375 11.0625 
Q 25.484375 6.203125 34.421875 6.203125 
Q 39.59375 6.203125 44.453125 7.46875 
Q 49.3125 8.734375 54.109375 11.28125 
L 54.109375 2.78125 
Q 49.265625 0.734375 44.1875 -0.34375 
Q 39.109375 -1.421875 33.890625 -1.421875 
Q 20.796875 -1.421875 13.15625 6.1875 
Q 5.515625 13.8125 5.515625 26.8125 
Q 5.515625 40.234375 12.765625 48.109375 
Q 20.015625 56 32.328125 56 
Q 43.359375 56 49.78125 48.890625 
Q 56.203125 41.796875 56.203125 29.59375 
z
M 47.21875 32.234375 
Q 47.125 39.59375 43.09375 43.984375 
Q 39.0625 48.390625 32.421875 48.390625 
Q 24.90625 48.390625 20.390625 44.140625 
Q 15.875 39.890625 15.1875 32.171875 
z
" id="DejaVuSans-101"/>
      <path d="M 18.3125 70.21875 
L 18.3125 54.6875 
L 36.8125 54.6875 
L 36.8125 47.703125 
L 18.3125 47.703125 
L 18.3125 18.015625 
Q 18.3125 11.328125 20.140625 9.421875 
Q 21.96875 7.515625 27.59375 7.515625 
L 36.8125 7.515625 
L 36.8125 0 
L 27.59375 0 
Q 17.1875 0 13.234375 3.875 
Q 9.28125 7.765625 9.28125 18.015625 
L 9.28125 47.703125 
L 2.6875 47.703125 
L 2.6875 54.6875 
L 9.28125 54.6875 
L 9.28125 70.21875 
z
" id="DejaVuSans-116"/>
     </defs>
     <g transform="translate(151.865625 252.916562)scale(0.1 -0.1)">
      <use xlink:href="#DejaVuSans-80"/>
      <use x="60.240234" xlink:href="#DejaVuSans-97"/>
      <use x="121.519531" xlink:href="#DejaVuSans-114"/>
      <use x="162.632812" xlink:href="#DejaVuSans-97"/>
      <use x="223.912109" xlink:href="#DejaVuSans-109"/>
      <use x="321.324219" xlink:href="#DejaVuSans-101"/>
      <use x="382.847656" xlink:href="#DejaVuSans-116"/>
      <use x="422.056641" xlink:href="#DejaVuSans-101"/>
      <use x="483.580078" xlink:href="#DejaVuSans-114"/>
     </g>
    </g>
   </g>
   <g id="patch_5">
    <path d="M 10.7 224.64 
L 345.5 224.64 
" style="fill:none;stroke:#000000;stroke-linecap:square;stroke-linejoin:miter;stroke-width:0.8;"/>
   </g>
  </g>
 </g>
 <defs>
  <clipPath id="p62da50c3a7">
   <rect height="217.44" width="334.8" x="10.7" y="7.2"/>
  </clipPath>
 </defs>
</svg>
