<?xml version="1.0" encoding="utf-8" standalone="no"?>
<!DOCTYPE svg PUBLIC "-//W3C//DTD SVG 1.1//EN"
  "http://www.w3.org/Graphics/SVG/1.1/DTD/svg11.dtd">
<!-- Created with matplotlib (https://matplotlib.org/) -->
<svg height="262.19625pt" version="1.1" viewBox="0 0 356.2 262.19625" width="356.2pt" xmlns="http://www.w3.org/2000/svg" xmlns:xlink="http://www.w3.org/1999/xlink">
 <defs>
  <style type="text/css">
*{stroke-linecap:butt;stroke-linejoin:round;}
  </style>
 </defs>
 <g id="figure_1">
  <g id="patch_1">
   <path d="M 0 262.19625 
L 356.2 262.19625 
L 356.2 0 
L 0 0 
z
" style="fill:none;"/>
  </g>
  <g id="axes_1">
   <g id="patch_2">
    <path d="M 10.7 224.64 
L 345.5 224.64 
L 345.5 7.2 
L 10.7 7.2 
z
" style="fill:#ffffff;"/>
   </g>
   <g id="patch_3">
    <path clip-path="url(#p4d1aa240a1)" d="M 25.918182 214.756364 
L 26.415504 214.755576 
L 26.912826 214.755438 
L 27.410148 214.75528 
L 27.90747 214.755099 
L 28.404792 214.754891 
L 28.902114 214.754654 
L 29.399436 214.754386 
L 29.896758 214.754081 
L 30.39408 214.753738 
L 30.891402 214.753351 
L 31.388725 214.752918 
L 31.886047 214.752433 
L 32.383369 214.751894 
L 32.880691 214.751296 
L 33.378013 214.750634 
L 33.875335 214.749905 
L 34.372657 214.749104 
L 34.869979 214.748228 
L 35.367301 214.747273 
L 35.864623 214.746235 
L 36.361945 214.745111 
L 36.859267 214.7439 
L 37.356589 214.742598 
L 37.853911 214.741204 
L 38.351233 214.739719 
L 38.848556 214.738141 
L 39.345878 214.736471 
L 39.8432 214.734712 
L 40.340522 214.732866 
L 40.837844 214.730938 
L 41.335166 214.728931 
L 41.832488 214.726852 
L 42.32981 214.724708 
L 42.827132 214.722508 
L 43.324454 214.72026 
L 43.821776 214.717975 
L 44.319098 214.714877 
L 44.81642 214.712416 
L 45.313742 214.709935 
L 45.811064 214.707444 
L 46.308387 214.704168 
L 46.805709 214.701557 
L 47.303031 214.698164 
L 47.800353 214.695436 
L 48.297675 214.692712 
L 48.794997 214.689998 
L 49.292319 214.687298 
L 49.789641 214.684616 
L 50.286963 214.681955 
L 50.784285 214.679315 
L 51.281607 214.675909 
L 51.778929 214.673173 
L 52.276251 214.670432 
L 52.773573 214.667678 
L 53.270895 214.664115 
L 54.26554 214.661168 
L 54.762873 214.657368 
L 55.260195 214.654134 
L 55.757529 214.649203 
L 56.254851 214.645429 
L 56.752184 214.641448 
L 57.249507 214.637231 
L 57.74684 214.632749 
L 58.244162 214.627972 
L 58.741484 214.622084 
L 59.238818 214.615706 
L 59.73614 214.609578 
L 60.233473 214.603 
L 60.730796 214.595156 
L 61.228129 214.587456 
L 61.725451 214.579206 
L 62.222773 214.570383 
L 62.720107 214.560178 
L 63.217429 214.550014 
L 63.714762 214.53921 
L 64.212085 214.526179 
L 64.709418 214.510644 
L 65.20674 214.496229 
L 65.704074 214.48169 
L 66.201396 214.463987 
L 66.698718 214.446649 
L 67.196051 214.42674 
L 67.693373 214.407116 
L 68.190707 214.386418 
L 68.688029 214.363836 
L 69.185363 214.339998 
L 69.682685 214.315652 
L 70.180018 214.289315 
L 70.67734 214.2624 
L 71.174662 214.234212 
L 71.671996 214.20472 
L 72.169318 214.170742 
L 72.666652 214.138004 
L 73.163974 214.102211 
L 73.661307 214.064623 
L 74.158629 214.024367 
L 74.655951 213.98279 
L 75.153285 213.9407 
L 75.650607 213.895115 
L 76.147941 213.848054 
L 76.645263 213.798755 
L 77.142596 213.747124 
L 77.639918 213.691489 
L 78.137252 213.63463 
L 78.634574 213.575898 
L 79.131896 213.510604 
L 79.62923 213.443502 
L 80.126552 213.37312 
L 80.623885 213.298538 
L 81.121207 213.220273 
L 81.618541 213.139753 
L 82.115863 213.052376 
L 82.613197 212.96604 
L 83.110519 212.87207 
L 83.607841 212.77065 
L 84.105174 212.665835 
L 84.602496 212.556917 
L 85.09983 212.443874 
L 85.597152 212.325133 
L 86.094486 212.198087 
L 86.591808 212.067584 
L 87.08913 211.931476 
L 87.586463 211.789629 
L 88.083785 211.640335 
L 88.581119 211.486344 
L 89.078441 211.326978 
L 89.575775 211.160674 
L 90.073097 210.991136 
L 90.57043 210.812494 
L 91.067752 210.626537 
L 91.565074 210.435395 
L 92.062408 210.23608 
L 92.55973 210.028253 
L 93.057064 209.813115 
L 93.554386 209.588957 
L 94.051719 209.35931 
L 94.549041 209.121261 
L 95.046375 208.872983 
L 95.543697 208.618662 
L 96.041019 208.353795 
L 96.538353 208.076269 
L 97.035675 207.791516 
L 97.533008 207.496514 
L 98.03033 207.192465 
L 98.527664 206.878464 
L 99.024986 206.553482 
L 99.522308 206.221081 
L 100.019642 205.879186 
L 100.516964 205.525273 
L 101.014297 205.154193 
L 101.511619 204.776609 
L 102.008953 204.387638 
L 102.506275 203.992489 
L 103.003608 203.584067 
L 103.500931 203.156426 
L 103.998253 202.720752 
L 104.495586 202.274609 
L 104.992908 201.81345 
L 105.490242 201.339851 
L 105.987564 200.852946 
L 106.484897 200.345452 
L 106.98222 199.829342 
L 107.479547 199.29735 
L 107.976875 198.753705 
L 108.474203 198.198023 
L 108.971531 197.630524 
L 109.468859 197.036402 
L 109.966181 196.43625 
L 110.463509 195.819653 
L 110.960836 195.18935 
L 111.458164 194.547679 
L 111.955492 193.888088 
L 112.45282 193.218886 
L 112.950148 192.529883 
L 113.447475 191.829598 
L 113.944797 191.112311 
L 114.442125 190.381426 
L 114.939453 189.62995 
L 115.436781 188.865684 
L 115.934109 188.089916 
L 116.431437 187.301535 
L 116.928764 186.48518 
L 117.426092 185.659955 
L 117.92342 184.815894 
L 118.420742 183.962432 
L 118.91807 183.087162 
L 119.415398 182.194517 
L 119.912726 181.288565 
L 120.410053 180.369952 
L 120.907381 179.431432 
L 121.404709 178.472695 
L 121.902037 177.51388 
L 122.399359 176.529181 
L 122.896687 175.531722 
L 123.394015 174.518838 
L 123.891342 173.483706 
L 124.38867 172.432117 
L 124.885998 171.369369 
L 125.383326 170.284643 
L 125.880654 169.180081 
L 126.377976 168.044869 
L 126.875304 166.899578 
L 127.372631 165.736034 
L 127.869959 164.55208 
L 128.367287 163.346589 
L 128.864615 162.124851 
L 129.361943 160.887126 
L 129.85927 159.622118 
L 130.356598 158.33724 
L 130.85392 157.033764 
L 131.351248 155.708106 
L 131.848576 154.359148 
L 132.345904 152.992204 
L 132.843232 151.604766 
L 133.340559 150.19605 
L 133.837887 148.77253 
L 134.335215 147.330365 
L 134.832537 145.865709 
L 135.329865 144.374228 
L 135.827193 142.875094 
L 136.324521 141.348642 
L 136.821848 139.815032 
L 137.319176 138.262018 
L 137.816504 136.705297 
L 138.313832 135.125107 
L 138.811154 133.535057 
L 139.308482 131.942699 
L 139.80581 130.330018 
L 140.303137 128.716453 
L 140.800465 127.078 
L 141.297793 125.428509 
L 141.795121 123.77878 
L 142.292449 122.129272 
L 142.789777 120.466597 
L 143.287099 118.80196 
L 143.784426 117.133139 
L 144.281754 115.459173 
L 144.779082 113.793282 
L 145.27641 112.11259 
L 145.773738 110.438452 
L 146.271066 108.749734 
L 146.768393 107.076819 
L 147.265715 105.401765 
L 147.763043 103.723692 
L 148.260371 102.045739 
L 148.757699 100.360031 
L 149.255027 98.680937 
L 149.752355 97.004437 
L 150.249682 95.32192 
L 150.74701 93.631956 
L 151.244332 91.936597 
L 151.74166 90.246961 
L 152.238988 88.556292 
L 152.736316 86.86462 
L 153.233644 85.170946 
L 153.730971 83.46439 
L 154.228299 81.75124 
L 154.725627 80.03398 
L 155.222955 78.317655 
L 155.72028 76.621815 
L 156.217608 74.909422 
L 156.714932 73.207722 
L 157.21226 71.483963 
L 157.709588 69.770574 
L 158.206916 68.058941 
L 158.704241 66.352706 
L 159.201569 64.651641 
L 159.698897 62.949624 
L 160.196224 61.250425 
L 160.693549 59.573418 
L 161.190877 57.896117 
L 161.688205 56.239599 
L 162.185533 54.599708 
L 162.682858 52.970882 
L 163.180186 51.361267 
L 163.677513 49.750581 
L 164.174841 48.164278 
L 164.672166 46.596996 
L 165.169494 45.059381 
L 165.666822 43.537677 
L 166.16415 42.045495 
L 166.661477 40.571019 
L 167.158802 39.133091 
L 167.65613 37.724504 
L 168.153458 36.347967 
L 168.650786 35.008842 
L 169.148111 33.705024 
L 169.645439 32.43819 
L 170.142766 31.212649 
L 170.640094 30.038245 
L 171.137419 28.893713 
L 171.634747 27.794581 
L 172.132075 26.733039 
L 172.629403 25.729293 
L 173.126728 24.774925 
L 173.624055 23.869111 
L 174.121383 23.013347 
L 174.618711 22.218891 
L 175.116036 21.480238 
L 175.613364 20.807695 
L 176.110692 20.173411 
L 176.608019 19.5981 
L 177.105344 19.086862 
L 177.602672 18.622782 
L 178.1 18.222272 
L 178.597328 17.885834 
L 179.094656 17.60161 
L 179.591981 17.382404 
L 180.089308 17.22158 
L 180.586636 17.119537 
L 181.083963 17.083636 
L 181.58129 17.111524 
L 182.078617 17.197122 
L 182.575945 17.333255 
L 183.073271 17.521282 
L 183.570599 17.762008 
L 184.067925 18.051945 
L 184.565253 18.393656 
L 185.062579 18.785861 
L 185.559907 19.210489 
L 186.057234 19.692045 
L 186.554561 20.214334 
L 187.051888 20.774996 
L 187.549216 21.378691 
L 188.046542 22.017405 
L 188.54387 22.684697 
L 189.041196 23.392232 
L 189.538524 24.118275 
L 190.03585 24.87748 
L 190.533178 25.673295 
L 191.030506 26.495132 
L 191.527832 27.327957 
L 192.02516 28.185937 
L 192.522487 29.062343 
L 193.019814 29.964311 
L 193.517141 30.874765 
L 194.014468 31.812592 
L 194.511795 32.768994 
L 195.009122 33.742329 
L 195.506449 34.747506 
L 196.003776 35.755438 
L 196.501103 36.801724 
L 196.998431 37.869817 
L 197.495758 38.948066 
L 197.993085 40.043427 
L 198.490412 41.170146 
L 198.987739 42.310802 
L 199.485066 43.476705 
L 199.982394 44.655284 
L 200.479721 45.861235 
L 200.977048 47.10678 
L 201.474375 48.36758 
L 201.971702 49.671288 
L 202.469029 50.983558 
L 202.966356 52.3183 
L 203.463684 53.687889 
L 203.961011 55.085635 
L 204.458338 56.51357 
L 204.955665 57.967476 
L 205.452992 59.441828 
L 205.950319 60.943393 
L 206.447646 62.474881 
L 206.944974 64.028993 
L 207.442301 65.598837 
L 207.939628 67.189358 
L 208.436955 68.801277 
L 208.934282 70.427085 
L 209.431609 72.081891 
L 209.928936 73.748877 
L 210.426264 75.432225 
L 210.923591 77.11908 
L 211.420918 78.800398 
L 211.918245 80.512794 
L 212.415572 82.218297 
L 212.912899 83.950599 
L 213.410226 85.678883 
L 213.907553 87.404506 
L 214.404881 89.135182 
L 214.902208 90.87142 
L 215.399535 92.612684 
L 215.896862 94.354853 
L 216.394189 96.081047 
L 216.891517 97.81577 
L 217.388843 99.536446 
L 217.886171 101.263511 
L 218.383497 102.983594 
L 218.880825 104.702918 
L 219.378152 106.427632 
L 219.875479 108.140668 
L 220.372806 109.852968 
L 220.870134 111.560274 
L 221.36746 113.263747 
L 221.864788 114.96184 
L 222.362114 116.658854 
L 222.859442 118.343985 
L 223.356768 120.027121 
L 223.854096 121.70067 
L 224.351423 123.375526 
L 224.84875 125.040609 
L 225.346077 126.699335 
L 225.843405 128.353404 
L 226.340731 129.995924 
L 226.838059 131.64195 
L 227.335385 133.274678 
L 227.832713 134.907163 
L 228.330041 136.527356 
L 228.827369 138.13022 
L 229.324694 139.727857 
L 229.822021 141.310121 
L 230.319349 142.877413 
L 230.816677 144.4335 
L 231.314002 145.961462 
L 231.81133 147.49596 
L 232.308658 149.013291 
L 232.805985 150.509192 
L 233.30331 151.988291 
L 233.800638 153.453874 
L 234.297966 154.896742 
L 234.795294 156.325015 
L 235.292619 157.733155 
L 235.789947 159.121437 
L 236.287274 160.484197 
L 236.784602 161.82392 
L 237.281927 163.141418 
L 237.779255 164.442859 
L 238.276583 165.718155 
L 238.773911 166.974957 
L 239.271236 168.212154 
L 239.768563 169.42584 
L 240.265891 170.612058 
L 240.763219 171.773185 
L 241.260547 172.933638 
L 241.757872 174.055765 
L 242.2552 175.1542 
L 242.752527 176.237493 
L 243.249855 177.298007 
L 243.74718 178.335699 
L 244.244508 179.359037 
L 244.741836 180.358277 
L 245.239164 181.342376 
L 245.736489 182.30345 
L 246.233816 183.242835 
L 246.731144 184.169022 
L 247.228472 185.078838 
L 247.725797 185.976975 
L 248.223125 186.847792 
L 248.720453 187.697864 
L 249.21778 188.535762 
L 249.715105 189.353363 
L 250.212433 190.154366 
L 250.709761 190.9332 
L 251.207089 191.691036 
L 251.704414 192.438998 
L 252.201742 193.165091 
L 252.699069 193.873301 
L 253.196397 194.565457 
L 253.693725 195.23506 
L 254.191053 195.885529 
L 254.688381 196.52381 
L 255.185703 197.141657 
L 255.683031 197.750837 
L 256.180358 198.327349 
L 256.677686 198.886254 
L 257.175014 199.427677 
L 257.672342 199.950317 
L 258.16967 200.457917 
L 258.666998 200.953829 
L 259.16432 201.428812 
L 259.661647 201.886483 
L 260.158975 202.329993 
L 260.656303 202.751391 
L 261.153631 203.159415 
L 261.650959 203.557551 
L 262.148287 203.942142 
L 262.645614 204.312179 
L 263.142936 204.668235 
L 263.640264 205.012894 
L 264.137592 205.339735 
L 264.63492 205.660132 
L 265.132248 205.965746 
L 265.629576 206.264974 
L 266.126903 206.55029 
L 266.624231 206.826761 
L 267.121559 207.090728 
L 267.618881 207.345845 
L 268.116209 207.60051 
L 268.613537 207.842581 
L 269.110865 208.075313 
L 269.608192 208.304096 
L 270.10552 208.524171 
L 270.602848 208.740238 
L 271.100176 208.945609 
L 271.597498 209.14602 
L 272.094826 209.345024 
L 272.592154 209.538287 
L 273.089481 209.728838 
L 273.586809 209.909223 
L 274.084137 210.087855 
L 274.581465 210.260501 
L 275.078793 210.433494 
L 275.576115 210.601594 
L 276.073443 210.762477 
L 276.57077 210.924111 
L 277.068098 211.077857 
L 277.565426 211.227758 
L 278.062754 211.377241 
L 278.560082 211.5205 
L 279.057409 211.661303 
L 279.554737 211.79949 
L 280.052059 211.930904 
L 280.549387 212.061377 
L 281.046715 212.191835 
L 281.544043 212.314349 
L 282.041371 212.434234 
L 282.538698 212.549308 
L 283.036026 212.661727 
L 283.533354 212.769305 
L 284.030676 212.875537 
L 284.528004 212.976696 
L 285.025332 213.073636 
L 285.52266 213.167089 
L 286.019987 213.257677 
L 286.517315 213.343261 
L 287.014643 213.429393 
L 287.511971 213.508077 
L 288.009293 213.58392 
L 288.506621 213.657499 
L 289.003949 213.725971 
L 289.501276 213.791627 
L 289.998604 213.851745 
L 290.495932 213.910058 
L 290.99326 213.965071 
L 291.490588 214.016201 
L 291.987915 214.063647 
L 292.485238 214.108271 
L 292.982565 214.149485 
L 293.479893 214.191501 
L 293.977221 214.229206 
L 294.474549 214.262973 
L 294.971877 214.295148 
L 295.469204 214.325737 
L 295.966532 214.354763 
L 296.463854 214.380256 
L 296.961182 214.403246 
L 297.45851 214.424621 
L 297.955838 214.445826 
L 298.453166 214.464751 
L 298.950493 214.480959 
L 299.447821 214.497443 
L 299.945149 214.512736 
L 300.442471 214.525603 
L 300.939805 214.539024 
L 301.437127 214.55085 
L 301.93446 214.563281 
L 302.431782 214.57417 
L 302.929105 214.583713 
L 303.426427 214.592081 
L 303.923749 214.600761 
L 304.421071 214.609679 
L 304.918393 214.616767 
L 305.415715 214.624285 
L 305.913037 214.630807 
L 306.410359 214.637802 
L 306.907681 214.644505 
L 307.405003 214.650938 
L 307.902325 214.657118 
L 308.399647 214.662391 
L 308.896969 214.668878 
L 309.394291 214.674362 
L 309.891613 214.679637 
L 310.388936 214.684039 
L 310.886258 214.689014 
L 311.38358 214.693109 
L 311.880902 214.697099 
L 312.378224 214.700974 
L 312.875546 214.704723 
L 313.372868 214.709007 
L 313.87019 214.712379 
L 314.367512 214.715617 
L 314.864834 214.718716 
L 315.362156 214.721671 
L 315.859478 214.724479 
L 316.3568 214.727137 
L 316.854122 214.729644 
L 317.351444 214.732002 
L 317.848767 214.73421 
L 318.346089 214.736273 
L 318.843411 214.738192 
L 319.340733 214.739972 
L 319.838055 214.741617 
L 320.335377 214.743133 
L 320.832699 214.744526 
L 321.330021 214.7458 
L 321.827343 214.746963 
L 322.324665 214.748021 
L 322.821987 214.74898 
L 323.319309 214.749846 
L 323.816631 214.751296 
L 324.313953 214.751894 
L 324.811275 214.752433 
L 325.308598 214.752918 
L 325.80592 214.753351 
L 326.303242 214.753738 
L 326.800564 214.754081 
L 327.297886 214.754386 
L 327.795208 214.754654 
L 328.29253 214.754891 
L 328.789852 214.755099 
L 329.287174 214.75528 
L 329.784496 214.755438 
L 330.281818 214.755576 
z
" style="fill:#1f77b4;opacity:0.4;"/>
   </g>
   <g id="matplotlib.axis_1">
    <g id="xtick_1">
     <g id="line2d_1">
      <defs>
       <path d="M 0 0 
L 0 3.5 
" id="m70f575959e" style="stroke:#000000;stroke-width:0.8;"/>
      </defs>
      <g>
       <use style="stroke:#000000;stroke-width:0.8;" x="22.928841" xlink:href="#m70f575959e" y="224.64"/>
      </g>
     </g>
     <g id="text_1">
      <!-- −15 -->
      <defs>
       <path d="M 10.59375 35.5 
L 73.1875 35.5 
L 73.1875 27.203125 
L 10.59375 27.203125 
z
" id="DejaVuSans-8722"/>
       <path d="M 12.40625 8.296875 
L 28.515625 8.296875 
L 28.515625 63.921875 
L 10.984375 60.40625 
L 10.984375 69.390625 
L 28.421875 72.90625 
L 38.28125 72.90625 
L 38.28125 8.296875 
L 54.390625 8.296875 
L 54.390625 0 
L 12.40625 0 
z
" id="DejaVuSans-49"/>
       <path d="M 10.796875 72.90625 
L 49.515625 72.90625 
L 49.515625 64.59375 
L 19.828125 64.59375 
L 19.828125 46.734375 
Q 21.96875 47.46875 24.109375 47.828125 
Q 26.265625 48.1875 28.421875 48.1875 
Q 40.625 48.1875 47.75 41.5 
Q 54.890625 34.8125 54.890625 23.390625 
Q 54.890625 11.625 47.5625 5.09375 
Q 40.234375 -1.421875 26.90625 -1.421875 
Q 22.3125 -1.421875 17.546875 -0.640625 
Q 12.796875 0.140625 7.71875 1.703125 
L 7.71875 11.625 
Q 12.109375 9.234375 16.796875 8.0625 
Q 21.484375 6.890625 26.703125 6.890625 
Q 35.15625 6.890625 40.078125 11.328125 
Q 45.015625 15.765625 45.015625 23.390625 
Q 45.015625 31 40.078125 35.4375 
Q 35.15625 39.890625 26.703125 39.890625 
Q 22.75 39.890625 18.8125 39.015625 
Q 14.890625 38.140625 10.796875 36.28125 
z
" id="DejaVuSans-53"/>
      </defs>
      <g transform="translate(12.376497 239.238437)scale(0.1 -0.1)">
       <use xlink:href="#DejaVuSans-8722"/>
       <use x="83.789062" xlink:href="#DejaVuSans-49"/>
       <use x="147.412109" xlink:href="#DejaVuSans-53"/>
      </g>
     </g>
    </g>
    <g id="xtick_2">
     <g id="line2d_2">
      <g>
       <use style="stroke:#000000;stroke-width:0.8;" x="83.261578" xlink:href="#m70f575959e" y="224.64"/>
      </g>
     </g>
     <g id="text_2">
      <!-- −10 -->
      <defs>
       <path d="M 31.78125 66.40625 
Q 24.171875 66.40625 20.328125 58.90625 
Q 16.5 51.421875 16.5 36.375 
Q 16.5 21.390625 20.328125 13.890625 
Q 24.171875 6.390625 31.78125 6.390625 
Q 39.453125 6.390625 43.28125 13.890625 
Q 47.125 21.390625 47.125 36.375 
Q 47.125 51.421875 43.28125 58.90625 
Q 39.453125 66.40625 31.78125 66.40625 
z
M 31.78125 74.21875 
Q 44.046875 74.21875 50.515625 64.515625 
Q 56.984375 54.828125 56.984375 36.375 
Q 56.984375 17.96875 50.515625 8.265625 
Q 44.046875 -1.421875 31.78125 -1.421875 
Q 19.53125 -1.421875 13.0625 8.265625 
Q 6.59375 17.96875 6.59375 36.375 
Q 6.59375 54.828125 13.0625 64.515625 
Q 19.53125 74.21875 31.78125 74.21875 
z
" id="DejaVuSans-48"/>
      </defs>
      <g transform="translate(72.709235 239.238437)scale(0.1 -0.1)">
       <use xlink:href="#DejaVuSans-8722"/>
       <use x="83.789062" xlink:href="#DejaVuSans-49"/>
       <use x="147.412109" xlink:href="#DejaVuSans-48"/>
      </g>
     </g>
    </g>
    <g id="xtick_3">
     <g id="line2d_3">
      <g>
       <use style="stroke:#000000;stroke-width:0.8;" x="143.594316" xlink:href="#m70f575959e" y="224.64"/>
      </g>
     </g>
     <g id="text_3">
      <!-- −5 -->
      <g transform="translate(136.223222 239.238437)scale(0.1 -0.1)">
       <use xlink:href="#DejaVuSans-8722"/>
       <use x="83.789062" xlink:href="#DejaVuSans-53"/>
      </g>
     </g>
    </g>
    <g id="xtick_4">
     <g id="line2d_4">
      <g>
       <use style="stroke:#000000;stroke-width:0.8;" x="203.927053" xlink:href="#m70f575959e" y="224.64"/>
      </g>
     </g>
     <g id="text_4">
      <!-- 0 -->
      <g transform="translate(200.745803 239.238437)scale(0.1 -0.1)">
       <use xlink:href="#DejaVuSans-48"/>
      </g>
     </g>
    </g>
    <g id="xtick_5">
     <g id="line2d_5">
      <g>
       <use style="stroke:#000000;stroke-width:0.8;" x="264.259791" xlink:href="#m70f575959e" y="224.64"/>
      </g>
     </g>
     <g id="text_5">
      <!-- 5 -->
      <g transform="translate(261.078541 239.238437)scale(0.1 -0.1)">
       <use xlink:href="#DejaVuSans-53"/>
      </g>
     </g>
    </g>
    <g id="xtick_6">
     <g id="line2d_6">
      <g>
       <use style="stroke:#000000;stroke-width:0.8;" x="324.592528" xlink:href="#m70f575959e" y="224.64"/>
      </g>
     </g>
     <g id="text_6">
      <!-- 10 -->
      <g transform="translate(318.230028 239.238437)scale(0.1 -0.1)">
       <use xlink:href="#DejaVuSans-49"/>
       <use x="63.623047" xlink:href="#DejaVuSans-48"/>
      </g>
     </g>
    </g>
    <g id="text_7">
     <!-- Parameter -->
     <defs>
      <path d="M 19.671875 64.796875 
L 19.671875 37.40625 
L 32.078125 37.40625 
Q 38.96875 37.40625 42.71875 40.96875 
Q 46.484375 44.53125 46.484375 51.125 
Q 46.484375 57.671875 42.71875 61.234375 
Q 38.96875 64.796875 32.078125 64.796875 
z
M 9.8125 72.90625 
L 32.078125 72.90625 
Q 44.34375 72.90625 50.609375 67.359375 
Q 56.890625 61.8125 56.890625 51.125 
Q 56.890625 40.328125 50.609375 34.8125 
Q 44.34375 29.296875 32.078125 29.296875 
L 19.671875 29.296875 
L 19.671875 0 
L 9.8125 0 
z
" id="DejaVuSans-80"/>
      <path d="M 34.28125 27.484375 
Q 23.390625 27.484375 19.1875 25 
Q 14.984375 22.515625 14.984375 16.5 
Q 14.984375 11.71875 18.140625 8.90625 
Q 21.296875 6.109375 26.703125 6.109375 
Q 34.1875 6.109375 38.703125 11.40625 
Q 43.21875 16.703125 43.21875 25.484375 
L 43.21875 27.484375 
z
M 52.203125 31.203125 
L 52.203125 0 
L 43.21875 0 
L 43.21875 8.296875 
Q 40.140625 3.328125 35.546875 0.953125 
Q 30.953125 -1.421875 24.3125 -1.421875 
Q 15.921875 -1.421875 10.953125 3.296875 
Q 6 8.015625 6 15.921875 
Q 6 25.140625 12.171875 29.828125 
Q 18.359375 34.515625 30.609375 34.515625 
L 43.21875 34.515625 
L 43.21875 35.40625 
Q 43.21875 41.609375 39.140625 45 
Q 35.0625 48.390625 27.6875 48.390625 
Q 23 48.390625 18.546875 47.265625 
Q 14.109375 46.140625 10.015625 43.890625 
L 10.015625 52.203125 
Q 14.9375 54.109375 19.578125 55.046875 
Q 24.21875 56 28.609375 56 
Q 40.484375 56 46.34375 49.84375 
Q 52.203125 43.703125 52.203125 31.203125 
z
" id="DejaVuSans-97"/>
      <path d="M 41.109375 46.296875 
Q 39.59375 47.171875 37.8125 47.578125 
Q 36.03125 48 33.890625 48 
Q 26.265625 48 22.1875 43.046875 
Q 18.109375 38.09375 18.109375 28.8125 
L 18.109375 0 
L 9.078125 0 
L 9.078125 54.6875 
L 18.109375 54.6875 
L 18.109375 46.1875 
Q 20.953125 51.171875 25.484375 53.578125 
Q 30.03125 56 36.53125 56 
Q 37.453125 56 38.578125 55.875 
Q 39.703125 55.765625 41.0625 55.515625 
z
" id="DejaVuSans-114"/>
      <path d="M 52 44.1875 
Q 55.375 50.25 60.0625 53.125 
Q 64.75 56 71.09375 56 
Q 79.640625 56 84.28125 50.015625 
Q 88.921875 44.046875 88.921875 33.015625 
L 88.921875 0 
L 79.890625 0 
L 79.890625 32.71875 
Q 79.890625 40.578125 77.09375 44.375 
Q 74.3125 48.1875 68.609375 48.1875 
Q 61.625 48.1875 57.5625 43.546875 
Q 53.515625 38.921875 53.515625 30.90625 
L 53.515625 0 
L 44.484375 0 
L 44.484375 32.71875 
Q 44.484375 40.625 41.703125 44.40625 
Q 38.921875 48.1875 33.109375 48.1875 
Q 26.21875 48.1875 22.15625 43.53125 
Q 18.109375 38.875 18.109375 30.90625 
L 18.109375 0 
L 9.078125 0 
L 9.078125 54.6875 
L 18.109375 54.6875 
L 18.109375 46.1875 
Q 21.1875 51.21875 25.484375 53.609375 
Q 29.78125 56 35.6875 56 
Q 41.65625 56 45.828125 52.96875 
Q 50 49.953125 52 44.1875 
z
" id="DejaVuSans-109"/>
      <path d="M 56.203125 29.59375 
L 56.203125 25.203125 
L 14.890625 25.203125 
Q 15.484375 15.921875 20.484375 11.0625 
Q 25.484375 6.203125 34.421875 6.203125 
Q 39.59375 6.203125 44.453125 7.46875 
Q 49.3125 8.734375 54.109375 11.28125 
L 54.109375 2.78125 
Q 49.265625 0.734375 44.1875 -0.34375 
Q 39.109375 -1.421875 33.890625 -1.421875 
Q 20.796875 -1.421875 13.15625 6.1875 
Q 5.515625 13.8125 5.515625 26.8125 
Q 5.515625 40.234375 12.765625 48.109375 
Q 20.015625 56 32.328125 56 
Q 43.359375 56 49.78125 48.890625 
Q 56.203125 41.796875 56.203125 29.59375 
z
M 47.21875 32.234375 
Q 47.125 39.59375 43.09375 43.984375 
Q 39.0625 48.390625 32.421875 48.390625 
Q 24.90625 48.390625 20.390625 44.140625 
Q 15.875 39.890625 15.1875 32.171875 
z
" id="DejaVuSans-101"/>
      <path d="M 18.3125 70.21875 
L 18.3125 54.6875 
L 36.8125 54.6875 
L 36.8125 47.703125 
L 18.3125 47.703125 
L 18.3125 18.015625 
Q 18.3125 11.328125 20.140625 9.421875 
Q 21.96875 7.515625 27.59375 7.515625 
L 36.8125 7.515625 
L 36.8125 0 
L 27.59375 0 
Q 17.1875 0 13.234375 3.875 
Q 9.28125 7.765625 9.28125 18.015625 
L 9.28125 47.703125 
L 2.6875 47.703125 
L 2.6875 54.6875 
L 9.28125 54.6875 
L 9.28125 70.21875 
z
" id="DejaVuSans-116"/>
     </defs>
     <g transform="translate(151.865625 252.916562)scale(0.1 -0.1)">
      <use xlink:href="#DejaVuSans-80"/>
      <use x="60.240234" xlink:href="#DejaVuSans-97"/>
      <use x="121.519531" xlink:href="#DejaVuSans-114"/>
      <use x="162.632812" xlink:href="#DejaVuSans-97"/>
      <use x="223.912109" xlink:href="#DejaVuSans-109"/>
      <use x="321.324219" xlink:href="#DejaVuSans-101"/>
      <use x="382.847656" xlink:href="#DejaVuSans-116"/>
      <use x="422.056641" xlink:href="#DejaVuSans-101"/>
      <use x="483.580078" xlink:href="#DejaVuSans-114"/>
     </g>
    </g>
   </g>
   <g id="patch_4">
    <path d="M 10.7 224.64 
L 345.5 224.64 
" style="fill:none;stroke:#000000;stroke-linecap:square;stroke-linejoin:miter;stroke-width:0.8;"/>
   </g>
  </g>
 </g>
 <defs>
  <clipPath id="p4d1aa240a1">
   <rect height="217.44" width="334.8" x="10.7" y="7.2"/>
  </clipPath>
 </defs>
</svg>
