<?xml version="1.0" encoding="utf-8" standalone="no"?>
<!DOCTYPE svg PUBLIC "-//W3C//DTD SVG 1.1//EN"
  "http://www.w3.org/Graphics/SVG/1.1/DTD/svg11.dtd">
<!-- Created with matplotlib (https://matplotlib.org/) -->
<svg height="262.19625pt" version="1.1" viewBox="0 0 356.2 262.19625" width="356.2pt" xmlns="http://www.w3.org/2000/svg" xmlns:xlink="http://www.w3.org/1999/xlink">
 <defs>
  <style type="text/css">
*{stroke-linecap:butt;stroke-linejoin:round;}
  </style>
 </defs>
 <g id="figure_1">
  <g id="patch_1">
   <path d="M 0 262.19625 
L 356.2 262.19625 
L 356.2 0 
L 0 0 
z
" style="fill:none;"/>
  </g>
  <g id="axes_1">
   <g id="patch_2">
    <path d="M 10.7 224.64 
L 345.5 224.64 
L 345.5 7.2 
L 10.7 7.2 
z
" style="fill:#ffffff;"/>
   </g>
   <g id="patch_3">
    <path clip-path="url(#p6cc8e363e8)" d="M 25.918182 214.756364 
L 26.415513 214.755588 
L 26.912843 214.755453 
L 27.410174 214.755297 
L 27.907505 214.755119 
L 28.404835 214.754915 
L 28.902166 214.754682 
L 29.399497 214.754417 
L 29.896827 214.754118 
L 30.394158 214.75378 
L 30.891489 214.753399 
L 31.388819 214.752973 
L 31.88615 214.752496 
L 32.383481 214.751966 
L 32.880812 214.751377 
L 33.378142 214.750726 
L 33.875473 214.750008 
L 34.372804 214.74922 
L 34.870134 214.748358 
L 35.367465 214.747418 
L 35.864796 214.746397 
L 36.362126 214.745291 
L 36.859457 214.744099 
L 37.356788 214.742818 
L 37.854118 214.741447 
L 38.351449 214.739985 
L 38.84878 214.738432 
L 39.346111 214.736014 
L 39.843441 214.734148 
L 40.340772 214.732176 
L 40.838103 214.7301 
L 41.335433 214.727921 
L 41.832764 214.725643 
L 42.330095 214.723269 
L 42.827425 214.720804 
L 43.324756 214.718254 
L 43.822087 214.715625 
L 44.319418 214.712926 
L 44.816748 214.710163 
L 45.314079 214.707347 
L 45.81141 214.704486 
L 46.30874 214.70159 
L 46.806071 214.697896 
L 47.303402 214.69483 
L 47.800732 214.691741 
L 48.298063 214.68864 
L 48.795394 214.685536 
L 49.292724 214.681661 
L 49.790055 214.678439 
L 50.287386 214.675217 
L 50.784717 214.672001 
L 51.282047 214.668794 
L 51.779378 214.665599 
L 52.276709 214.662419 
L 52.774039 214.659254 
L 53.27137 214.656106 
L 54.266031 214.652973 
L 54.763355 214.649854 
L 55.260678 214.646748 
L 55.758001 214.643651 
L 56.255324 214.64056 
L 56.752655 214.637473 
L 57.249978 214.633609 
L 57.747301 214.630381 
L 58.244624 214.625574 
L 58.741955 214.620463 
L 59.239278 214.616551 
L 59.736601 214.611734 
L 60.233932 214.607411 
L 60.731255 214.602909 
L 61.228578 214.597435 
L 61.725901 214.592388 
L 62.223232 214.585542 
L 62.720555 214.578158 
L 63.217878 214.569405 
L 63.715202 214.559858 
L 64.212532 214.550207 
L 64.709855 214.541268 
L 65.207179 214.531678 
L 65.704502 214.51984 
L 66.201833 214.506212 
L 66.699156 214.492896 
L 67.196479 214.477722 
L 67.69381 214.459698 
L 68.191133 214.440776 
L 68.688456 214.420166 
L 69.185779 214.399278 
L 69.68311 214.376686 
L 70.180433 214.353052 
L 70.677756 214.326845 
L 71.175079 214.297833 
L 71.67241 214.264994 
L 72.169733 214.231802 
L 72.667056 214.19461 
L 73.164387 214.156911 
L 73.66171 214.11508 
L 74.159033 214.071859 
L 74.656356 214.024295 
L 75.153687 213.974372 
L 75.65101 213.921348 
L 76.148333 213.864379 
L 76.645657 213.804824 
L 77.142987 213.741983 
L 77.64031 213.675833 
L 78.137634 213.604819 
L 78.634964 213.527137 
L 79.132287 213.447672 
L 79.629611 213.365213 
L 80.126934 213.279902 
L 80.624265 213.189591 
L 81.121588 213.092541 
L 81.618911 212.994475 
L 82.116234 212.89283 
L 82.613565 212.787573 
L 83.110888 212.680349 
L 83.608211 212.567772 
L 84.105534 212.451145 
L 84.602865 212.33044 
L 85.100188 212.208716 
L 85.597511 212.081797 
L 86.094842 211.953283 
L 86.592165 211.821181 
L 87.089488 211.685452 
L 87.586811 211.546028 
L 88.084142 211.403581 
L 88.581465 211.259654 
L 89.078788 211.112939 
L 89.576112 210.962646 
L 90.073442 210.810155 
L 90.570765 210.653969 
L 91.068089 210.492317 
L 91.565419 210.325438 
L 92.062742 210.15362 
L 92.560066 209.984186 
L 93.057389 209.812578 
L 93.554719 209.629555 
L 94.052043 209.440564 
L 94.549366 209.251284 
L 95.046689 209.05602 
L 95.54402 208.850322 
L 96.041343 208.641561 
L 96.538666 208.419975 
L 97.035989 208.194178 
L 97.53332 207.951898 
L 98.030643 207.701276 
L 98.527966 207.449671 
L 99.025297 207.181782 
L 99.52262 206.901418 
L 100.019943 206.615504 
L 100.517266 206.318331 
L 101.014597 206.005604 
L 101.51192 205.681693 
L 102.009243 205.34099 
L 102.506567 204.99407 
L 103.003897 204.630868 
L 103.50122 204.2514 
L 103.998544 203.855909 
L 104.495874 203.450065 
L 104.993197 203.022788 
L 105.490521 202.585051 
L 105.987844 202.123613 
L 106.485174 201.653327 
L 106.982498 201.15903 
L 107.479821 200.656288 
L 107.977144 200.128572 
L 108.474475 199.584401 
L 108.971798 199.024547 
L 109.469121 198.439874 
L 109.966452 197.843719 
L 110.463775 197.231641 
L 110.961098 196.609289 
L 111.458421 195.9616 
L 111.955752 195.298788 
L 112.453075 194.612731 
L 112.950398 193.919363 
L 113.447721 193.203446 
L 113.945052 192.468649 
L 114.442375 191.719198 
L 114.939698 190.945838 
L 115.437022 190.148386 
L 115.934352 189.339696 
L 116.431675 188.514854 
L 116.928999 187.661615 
L 117.426329 186.796752 
L 117.923652 185.91896 
L 118.420976 185.020388 
L 118.918303 184.099715 
L 119.415626 183.16162 
L 119.912953 182.210315 
L 120.410276 181.236233 
L 120.907603 180.239582 
L 121.404926 179.223233 
L 121.902253 178.193615 
L 122.39958 177.149514 
L 122.896903 176.080177 
L 123.39423 174.989538 
L 123.891553 173.880221 
L 124.38888 172.745495 
L 124.886203 171.591521 
L 125.38353 170.425534 
L 125.880853 169.231862 
L 126.37818 168.018324 
L 126.875503 166.783845 
L 127.37283 165.537188 
L 127.870153 164.263609 
L 128.36748 162.974444 
L 128.864807 161.667523 
L 129.36213 160.331749 
L 129.859457 158.984199 
L 130.35678 157.613188 
L 130.854107 156.222693 
L 131.351431 154.805252 
L 131.848757 153.373563 
L 132.346081 151.920995 
L 132.843408 150.443731 
L 133.340731 148.957315 
L 133.838058 147.452644 
L 134.335381 145.936381 
L 134.832708 144.400736 
L 135.330035 142.840201 
L 135.827358 141.265783 
L 136.324685 139.664421 
L 136.822008 138.051168 
L 137.319335 136.42977 
L 137.816658 134.777879 
L 138.313985 133.124316 
L 138.811308 131.449017 
L 139.308635 129.757491 
L 139.805958 128.066554 
L 140.303285 126.34502 
L 140.800608 124.623311 
L 141.297935 122.889554 
L 141.795262 121.134975 
L 142.292585 119.372686 
L 142.789912 117.602907 
L 143.287235 115.825823 
L 143.784562 114.032371 
L 144.281886 112.250137 
L 144.779212 110.450124 
L 145.276536 108.638785 
L 145.773863 106.815982 
L 146.271186 104.993836 
L 146.768513 103.189101 
L 147.26584 101.37472 
L 147.763163 99.549245 
L 148.26049 97.730764 
L 148.757813 95.899481 
L 149.25514 94.074492 
L 149.752463 92.257767 
L 150.24979 90.446643 
L 150.747115 88.64775 
L 151.24444 86.849877 
L 151.741765 85.052258 
L 152.23909 83.254496 
L 152.736415 81.462863 
L 153.23374 79.689704 
L 153.731065 77.925069 
L 154.22839 76.162237 
L 154.725715 74.423372 
L 155.22304 72.699348 
L 155.720365 70.97138 
L 156.21769 69.250706 
L 156.715017 67.551114 
L 157.212342 65.858036 
L 157.709667 64.190736 
L 158.206992 62.529338 
L 158.704318 60.879735 
L 159.201643 59.247307 
L 159.698968 57.644233 
L 160.196293 56.046206 
L 160.693618 54.467075 
L 161.190943 52.895995 
L 161.688268 51.344893 
L 162.185593 49.819738 
L 162.68292 48.320343 
L 163.180245 46.826335 
L 163.67757 45.365481 
L 164.174895 43.920324 
L 164.67222 42.493732 
L 165.169545 41.108517 
L 165.66687 39.741878 
L 166.164195 38.401531 
L 166.66152 37.079078 
L 167.158845 35.790525 
L 167.656171 34.534474 
L 168.153496 33.330614 
L 168.650821 32.151896 
L 169.148146 31.015066 
L 169.645471 29.897118 
L 170.142796 28.826492 
L 170.640122 27.798772 
L 171.137447 26.816266 
L 171.634773 25.873673 
L 172.132098 24.982706 
L 172.629423 24.134126 
L 173.126748 23.318819 
L 173.624073 22.561531 
L 174.121398 21.8518 
L 174.618724 21.196678 
L 175.116049 20.587277 
L 175.613374 20.021594 
L 176.110699 19.498399 
L 176.608024 19.03923 
L 177.10535 18.628623 
L 177.602675 18.265436 
L 178.1 17.950091 
L 178.597325 17.689961 
L 179.09465 17.470654 
L 179.591976 17.303429 
L 180.089301 17.185724 
L 180.586626 17.112429 
L 181.083951 17.083636 
L 181.581276 17.110803 
L 182.078602 17.174419 
L 182.575927 17.290119 
L 183.073252 17.445815 
L 183.570577 17.64681 
L 184.067902 17.882547 
L 184.565227 18.164679 
L 185.062553 18.492232 
L 185.559878 18.862188 
L 186.057203 19.28124 
L 186.554528 19.741865 
L 187.051854 20.249901 
L 187.549179 20.786751 
L 188.046504 21.36733 
L 188.543829 22.003568 
L 189.041155 22.674146 
L 189.53848 23.383857 
L 190.035805 24.131622 
L 190.53313 24.9272 
L 191.030455 25.770897 
L 191.52778 26.650618 
L 192.025105 27.589465 
L 192.522431 28.564982 
L 193.019756 29.572323 
L 193.517081 30.637314 
L 194.014406 31.733346 
L 194.511731 32.878696 
L 195.009056 34.068552 
L 195.506382 35.290437 
L 196.003707 36.569727 
L 196.501032 37.873848 
L 196.998357 39.222108 
L 197.495682 40.614632 
L 197.993008 42.043571 
L 198.490333 43.494578 
L 198.987658 44.990093 
L 199.484983 46.520941 
L 199.98231 48.054105 
L 200.479635 49.637457 
L 200.97696 51.257262 
L 201.474285 52.90402 
L 201.97161 54.567371 
L 202.468935 56.239874 
L 202.96626 57.936363 
L 203.463585 59.662122 
L 203.96091 61.392413 
L 204.458235 63.154495 
L 204.95556 64.924776 
L 205.452885 66.701836 
L 205.95021 68.484039 
L 206.447537 70.266229 
L 206.944862 72.068279 
L 207.442187 73.876452 
L 207.939512 75.703685 
L 208.436837 77.52488 
L 208.934162 79.345321 
L 209.431487 81.162492 
L 209.928812 82.973829 
L 210.426137 84.775645 
L 210.923462 86.573105 
L 211.420788 88.377293 
L 211.918113 90.1813 
L 212.41544 91.967757 
L 212.912765 93.760593 
L 213.410088 95.53053 
L 213.907415 97.297923 
L 214.404738 99.060096 
L 214.902065 100.815519 
L 215.399392 102.55019 
L 215.896715 104.287773 
L 216.394042 106.011576 
L 216.891365 107.730129 
L 217.388692 109.439158 
L 217.886015 111.126958 
L 218.383342 112.803776 
L 218.880665 114.481655 
L 219.377992 116.141888 
L 219.875315 117.791634 
L 220.372642 119.429919 
L 220.869965 121.050617 
L 221.367292 122.661266 
L 221.864619 124.259438 
L 222.361942 125.850941 
L 222.859269 127.435076 
L 223.356592 129.002693 
L 223.853919 130.545926 
L 224.351243 132.081277 
L 224.848569 133.606166 
L 225.345893 135.140876 
L 225.84322 136.65157 
L 226.340543 138.149062 
L 226.83787 139.636547 
L 227.335193 141.108264 
L 227.83252 142.56113 
L 228.329847 144.013591 
L 228.82717 145.458494 
L 229.324497 146.874574 
L 229.82182 148.2806 
L 230.319147 149.674599 
L 230.81647 151.060141 
L 231.313797 152.431039 
L 231.81112 153.798873 
L 232.308447 155.139902 
L 232.80577 156.472462 
L 233.303097 157.787186 
L 233.80042 159.08555 
L 234.297747 160.370602 
L 234.795074 161.651665 
L 235.292397 162.907497 
L 235.789724 164.151747 
L 236.287047 165.37853 
L 236.784374 166.584616 
L 237.281697 167.773195 
L 237.779024 168.954876 
L 238.276348 170.112195 
L 238.773675 171.252065 
L 239.270998 172.376825 
L 239.768325 173.489732 
L 240.265648 174.576497 
L 240.762975 175.655618 
L 241.260302 176.707495 
L 241.757625 177.742117 
L 242.254952 178.760071 
L 242.752275 179.762523 
L 243.249602 180.752096 
L 243.746925 181.722635 
L 244.244248 182.666623 
L 244.741579 183.59343 
L 245.238902 184.509062 
L 245.736225 185.407865 
L 246.233548 186.284256 
L 246.730879 187.146223 
L 247.228202 187.992646 
L 247.725525 188.816651 
L 248.222856 189.62648 
L 248.720179 190.416853 
L 249.217502 191.191396 
L 249.714826 191.946184 
L 250.212156 192.683631 
L 250.709479 193.405257 
L 251.206803 194.107003 
L 251.704126 194.794005 
L 252.201456 195.464717 
L 252.69878 196.117071 
L 253.196103 196.754589 
L 253.693433 197.373138 
L 254.190757 197.986473 
L 254.68808 198.571403 
L 255.185403 199.145068 
L 255.682734 199.710857 
L 256.180057 200.251912 
L 256.67738 200.774395 
L 257.174703 201.284248 
L 257.672034 201.779188 
L 258.169357 202.256104 
L 258.66668 202.725688 
L 259.164011 203.178514 
L 259.661334 203.615189 
L 260.158657 204.034309 
L 260.65598 204.445273 
L 261.153311 204.839516 
L 261.650634 205.2198 
L 262.147957 205.590489 
L 262.645281 205.94677 
L 263.142611 206.291306 
L 263.639934 206.619722 
L 264.137258 206.940209 
L 264.634581 207.247251 
L 265.131911 207.543222 
L 265.629235 207.833669 
L 266.126558 208.114344 
L 266.623888 208.384779 
L 267.121212 208.644617 
L 267.618535 208.893604 
L 268.115858 209.13815 
L 268.613189 209.364637 
L 269.110512 209.589213 
L 269.607835 209.801137 
L 270.105158 210.00855 
L 270.602489 210.204025 
L 271.099812 210.392391 
L 271.597135 210.570541 
L 272.094466 210.749701 
L 272.591789 210.919663 
L 273.089112 211.083646 
L 273.586435 211.236514 
L 274.083766 211.386455 
L 274.581089 211.525954 
L 275.078412 211.661601 
L 275.575735 211.796571 
L 276.073066 211.926557 
L 276.570389 212.046409 
L 277.067713 212.161662 
L 277.565043 212.273742 
L 278.062366 212.381241 
L 278.55969 212.483638 
L 279.057013 212.581827 
L 279.554343 212.675924 
L 280.051667 212.765385 
L 280.54899 212.851741 
L 281.046313 212.933012 
L 281.543644 213.009511 
L 282.040967 213.085471 
L 282.53829 213.156595 
L 283.035613 213.222543 
L 283.532944 213.285681 
L 284.030267 213.348033 
L 284.52759 213.405401 
L 285.024921 213.462144 
L 285.522244 213.51802 
L 286.019567 213.568891 
L 286.51689 213.615214 
L 287.014221 213.66135 
L 287.511544 213.704431 
L 288.008867 213.746647 
L 288.50619 213.783947 
L 289.003521 213.820158 
L 289.500844 213.854592 
L 289.998167 213.888656 
L 290.495498 213.919606 
L 290.992821 213.951057 
L 291.490145 213.978845 
L 291.987468 214.005381 
L 292.484798 214.030089 
L 292.982122 214.053812 
L 293.479445 214.075959 
L 293.976768 214.098014 
L 294.474099 214.118611 
L 294.971422 214.14055 
L 295.468745 214.160946 
L 295.966068 214.181963 
L 296.463399 214.19952 
L 296.960722 214.216745 
L 297.458045 214.233667 
L 297.955376 214.25031 
L 298.452699 214.266697 
L 298.950022 214.284823 
L 299.447345 214.301114 
L 299.944676 214.317143 
L 300.441999 214.332275 
L 300.939322 214.347286 
L 301.436645 214.362832 
L 301.933976 214.37881 
L 302.431299 214.39381 
L 302.92863 214.409269 
L 303.425961 214.423768 
L 303.923291 214.437421 
L 304.420622 214.452952 
L 304.917953 214.466086 
L 305.415283 214.479776 
L 305.912614 214.492576 
L 306.409945 214.505231 
L 306.907276 214.517711 
L 307.404606 214.529988 
L 307.901937 214.542036 
L 308.399268 214.554488 
L 308.896598 214.56656 
L 309.393929 214.578246 
L 309.89126 214.588879 
L 310.38859 214.599212 
L 310.885921 214.609224 
L 311.383252 214.618896 
L 311.880582 214.628215 
L 312.377913 214.637167 
L 312.875244 214.645741 
L 313.372575 214.65459 
L 313.869905 214.662289 
L 314.367236 214.669611 
L 314.864567 214.676552 
L 315.361897 214.683113 
L 315.859228 214.689296 
L 316.356559 214.695106 
L 316.853889 214.701208 
L 317.35122 214.706192 
L 317.848551 214.7115 
L 318.345882 214.715722 
L 318.843212 214.719643 
L 319.340543 214.723273 
L 319.837874 214.726623 
L 320.335204 214.729704 
L 320.832535 214.733846 
L 321.329866 214.736227 
L 321.827196 214.738407 
L 322.324527 214.740395 
L 322.821858 214.742204 
L 323.319188 214.743843 
L 323.816519 214.745324 
L 324.31385 214.746657 
L 324.811181 214.747854 
L 325.308511 214.749582 
L 325.805842 214.750435 
L 326.303173 214.751196 
L 326.800503 214.751872 
L 327.297834 214.752471 
L 327.795165 214.753 
L 328.292495 214.753466 
L 328.789826 214.753874 
L 329.287157 214.754231 
L 329.784487 214.754543 
L 330.281818 214.754813 
z
" style="fill:#1f77b4;opacity:0.4;"/>
   </g>
   <g id="matplotlib.axis_1">
    <g id="xtick_1">
     <g id="line2d_1">
      <defs>
       <path d="M 0 0 
L 0 3.5 
" id="m474eccb296" style="stroke:#000000;stroke-width:0.8;"/>
      </defs>
      <g>
       <use style="stroke:#000000;stroke-width:0.8;" x="54.548478" xlink:href="#m474eccb296" y="224.64"/>
      </g>
     </g>
     <g id="text_1">
      <!-- −4 -->
      <defs>
       <path d="M 10.59375 35.5 
L 73.1875 35.5 
L 73.1875 27.203125 
L 10.59375 27.203125 
z
" id="DejaVuSans-8722"/>
       <path d="M 37.796875 64.3125 
L 12.890625 25.390625 
L 37.796875 25.390625 
z
M 35.203125 72.90625 
L 47.609375 72.90625 
L 47.609375 25.390625 
L 58.015625 25.390625 
L 58.015625 17.1875 
L 47.609375 17.1875 
L 47.609375 0 
L 37.796875 0 
L 37.796875 17.1875 
L 4.890625 17.1875 
L 4.890625 26.703125 
z
" id="DejaVuSans-52"/>
      </defs>
      <g transform="translate(47.177384 239.238437)scale(0.1 -0.1)">
       <use xlink:href="#DejaVuSans-8722"/>
       <use x="83.789062" xlink:href="#DejaVuSans-52"/>
      </g>
     </g>
    </g>
    <g id="xtick_2">
     <g id="line2d_2">
      <g>
       <use style="stroke:#000000;stroke-width:0.8;" x="117.717157" xlink:href="#m474eccb296" y="224.64"/>
      </g>
     </g>
     <g id="text_2">
      <!-- −2 -->
      <defs>
       <path d="M 19.1875 8.296875 
L 53.609375 8.296875 
L 53.609375 0 
L 7.328125 0 
L 7.328125 8.296875 
Q 12.9375 14.109375 22.625 23.890625 
Q 32.328125 33.6875 34.8125 36.53125 
Q 39.546875 41.84375 41.421875 45.53125 
Q 43.3125 49.21875 43.3125 52.78125 
Q 43.3125 58.59375 39.234375 62.25 
Q 35.15625 65.921875 28.609375 65.921875 
Q 23.96875 65.921875 18.8125 64.3125 
Q 13.671875 62.703125 7.8125 59.421875 
L 7.8125 69.390625 
Q 13.765625 71.78125 18.9375 73 
Q 24.125 74.21875 28.421875 74.21875 
Q 39.75 74.21875 46.484375 68.546875 
Q 53.21875 62.890625 53.21875 53.421875 
Q 53.21875 48.921875 51.53125 44.890625 
Q 49.859375 40.875 45.40625 35.40625 
Q 44.1875 33.984375 37.640625 27.21875 
Q 31.109375 20.453125 19.1875 8.296875 
z
" id="DejaVuSans-50"/>
      </defs>
      <g transform="translate(110.346063 239.238437)scale(0.1 -0.1)">
       <use xlink:href="#DejaVuSans-8722"/>
       <use x="83.789062" xlink:href="#DejaVuSans-50"/>
      </g>
     </g>
    </g>
    <g id="xtick_3">
     <g id="line2d_3">
      <g>
       <use style="stroke:#000000;stroke-width:0.8;" x="180.885836" xlink:href="#m474eccb296" y="224.64"/>
      </g>
     </g>
     <g id="text_3">
      <!-- 0 -->
      <defs>
       <path d="M 31.78125 66.40625 
Q 24.171875 66.40625 20.328125 58.90625 
Q 16.5 51.421875 16.5 36.375 
Q 16.5 21.390625 20.328125 13.890625 
Q 24.171875 6.390625 31.78125 6.390625 
Q 39.453125 6.390625 43.28125 13.890625 
Q 47.125 21.390625 47.125 36.375 
Q 47.125 51.421875 43.28125 58.90625 
Q 39.453125 66.40625 31.78125 66.40625 
z
M 31.78125 74.21875 
Q 44.046875 74.21875 50.515625 64.515625 
Q 56.984375 54.828125 56.984375 36.375 
Q 56.984375 17.96875 50.515625 8.265625 
Q 44.046875 -1.421875 31.78125 -1.421875 
Q 19.53125 -1.421875 13.0625 8.265625 
Q 6.59375 17.96875 6.59375 36.375 
Q 6.59375 54.828125 13.0625 64.515625 
Q 19.53125 74.21875 31.78125 74.21875 
z
" id="DejaVuSans-48"/>
      </defs>
      <g transform="translate(177.704586 239.238437)scale(0.1 -0.1)">
       <use xlink:href="#DejaVuSans-48"/>
      </g>
     </g>
    </g>
    <g id="xtick_4">
     <g id="line2d_4">
      <g>
       <use style="stroke:#000000;stroke-width:0.8;" x="244.054515" xlink:href="#m474eccb296" y="224.64"/>
      </g>
     </g>
     <g id="text_4">
      <!-- 2 -->
      <g transform="translate(240.873265 239.238437)scale(0.1 -0.1)">
       <use xlink:href="#DejaVuSans-50"/>
      </g>
     </g>
    </g>
    <g id="xtick_5">
     <g id="line2d_5">
      <g>
       <use style="stroke:#000000;stroke-width:0.8;" x="307.223194" xlink:href="#m474eccb296" y="224.64"/>
      </g>
     </g>
     <g id="text_5">
      <!-- 4 -->
      <g transform="translate(304.041944 239.238437)scale(0.1 -0.1)">
       <use xlink:href="#DejaVuSans-52"/>
      </g>
     </g>
    </g>
    <g id="text_6">
     <!-- Parameter prior -->
     <defs>
      <path d="M 19.671875 64.796875 
L 19.671875 37.40625 
L 32.078125 37.40625 
Q 38.96875 37.40625 42.71875 40.96875 
Q 46.484375 44.53125 46.484375 51.125 
Q 46.484375 57.671875 42.71875 61.234375 
Q 38.96875 64.796875 32.078125 64.796875 
z
M 9.8125 72.90625 
L 32.078125 72.90625 
Q 44.34375 72.90625 50.609375 67.359375 
Q 56.890625 61.8125 56.890625 51.125 
Q 56.890625 40.328125 50.609375 34.8125 
Q 44.34375 29.296875 32.078125 29.296875 
L 19.671875 29.296875 
L 19.671875 0 
L 9.8125 0 
z
" id="DejaVuSans-80"/>
      <path d="M 34.28125 27.484375 
Q 23.390625 27.484375 19.1875 25 
Q 14.984375 22.515625 14.984375 16.5 
Q 14.984375 11.71875 18.140625 8.90625 
Q 21.296875 6.109375 26.703125 6.109375 
Q 34.1875 6.109375 38.703125 11.40625 
Q 43.21875 16.703125 43.21875 25.484375 
L 43.21875 27.484375 
z
M 52.203125 31.203125 
L 52.203125 0 
L 43.21875 0 
L 43.21875 8.296875 
Q 40.140625 3.328125 35.546875 0.953125 
Q 30.953125 -1.421875 24.3125 -1.421875 
Q 15.921875 -1.421875 10.953125 3.296875 
Q 6 8.015625 6 15.921875 
Q 6 25.140625 12.171875 29.828125 
Q 18.359375 34.515625 30.609375 34.515625 
L 43.21875 34.515625 
L 43.21875 35.40625 
Q 43.21875 41.609375 39.140625 45 
Q 35.0625 48.390625 27.6875 48.390625 
Q 23 48.390625 18.546875 47.265625 
Q 14.109375 46.140625 10.015625 43.890625 
L 10.015625 52.203125 
Q 14.9375 54.109375 19.578125 55.046875 
Q 24.21875 56 28.609375 56 
Q 40.484375 56 46.34375 49.84375 
Q 52.203125 43.703125 52.203125 31.203125 
z
" id="DejaVuSans-97"/>
      <path d="M 41.109375 46.296875 
Q 39.59375 47.171875 37.8125 47.578125 
Q 36.03125 48 33.890625 48 
Q 26.265625 48 22.1875 43.046875 
Q 18.109375 38.09375 18.109375 28.8125 
L 18.109375 0 
L 9.078125 0 
L 9.078125 54.6875 
L 18.109375 54.6875 
L 18.109375 46.1875 
Q 20.953125 51.171875 25.484375 53.578125 
Q 30.03125 56 36.53125 56 
Q 37.453125 56 38.578125 55.875 
Q 39.703125 55.765625 41.0625 55.515625 
z
" id="DejaVuSans-114"/>
      <path d="M 52 44.1875 
Q 55.375 50.25 60.0625 53.125 
Q 64.75 56 71.09375 56 
Q 79.640625 56 84.28125 50.015625 
Q 88.921875 44.046875 88.921875 33.015625 
L 88.921875 0 
L 79.890625 0 
L 79.890625 32.71875 
Q 79.890625 40.578125 77.09375 44.375 
Q 74.3125 48.1875 68.609375 48.1875 
Q 61.625 48.1875 57.5625 43.546875 
Q 53.515625 38.921875 53.515625 30.90625 
L 53.515625 0 
L 44.484375 0 
L 44.484375 32.71875 
Q 44.484375 40.625 41.703125 44.40625 
Q 38.921875 48.1875 33.109375 48.1875 
Q 26.21875 48.1875 22.15625 43.53125 
Q 18.109375 38.875 18.109375 30.90625 
L 18.109375 0 
L 9.078125 0 
L 9.078125 54.6875 
L 18.109375 54.6875 
L 18.109375 46.1875 
Q 21.1875 51.21875 25.484375 53.609375 
Q 29.78125 56 35.6875 56 
Q 41.65625 56 45.828125 52.96875 
Q 50 49.953125 52 44.1875 
z
" id="DejaVuSans-109"/>
      <path d="M 56.203125 29.59375 
L 56.203125 25.203125 
L 14.890625 25.203125 
Q 15.484375 15.921875 20.484375 11.0625 
Q 25.484375 6.203125 34.421875 6.203125 
Q 39.59375 6.203125 44.453125 7.46875 
Q 49.3125 8.734375 54.109375 11.28125 
L 54.109375 2.78125 
Q 49.265625 0.734375 44.1875 -0.34375 
Q 39.109375 -1.421875 33.890625 -1.421875 
Q 20.796875 -1.421875 13.15625 6.1875 
Q 5.515625 13.8125 5.515625 26.8125 
Q 5.515625 40.234375 12.765625 48.109375 
Q 20.015625 56 32.328125 56 
Q 43.359375 56 49.78125 48.890625 
Q 56.203125 41.796875 56.203125 29.59375 
z
M 47.21875 32.234375 
Q 47.125 39.59375 43.09375 43.984375 
Q 39.0625 48.390625 32.421875 48.390625 
Q 24.90625 48.390625 20.390625 44.140625 
Q 15.875 39.890625 15.1875 32.171875 
z
" id="DejaVuSans-101"/>
      <path d="M 18.3125 70.21875 
L 18.3125 54.6875 
L 36.8125 54.6875 
L 36.8125 47.703125 
L 18.3125 47.703125 
L 18.3125 18.015625 
Q 18.3125 11.328125 20.140625 9.421875 
Q 21.96875 7.515625 27.59375 7.515625 
L 36.8125 7.515625 
L 36.8125 0 
L 27.59375 0 
Q 17.1875 0 13.234375 3.875 
Q 9.28125 7.765625 9.28125 18.015625 
L 9.28125 47.703125 
L 2.6875 47.703125 
L 2.6875 54.6875 
L 9.28125 54.6875 
L 9.28125 70.21875 
z
" id="DejaVuSans-116"/>
      <path id="DejaVuSans-32"/>
      <path d="M 18.109375 8.203125 
L 18.109375 -20.796875 
L 9.078125 -20.796875 
L 9.078125 54.6875 
L 18.109375 54.6875 
L 18.109375 46.390625 
Q 20.953125 51.265625 25.265625 53.625 
Q 29.59375 56 35.59375 56 
Q 45.5625 56 51.78125 48.09375 
Q 58.015625 40.1875 58.015625 27.296875 
Q 58.015625 14.40625 51.78125 6.484375 
Q 45.5625 -1.421875 35.59375 -1.421875 
Q 29.59375 -1.421875 25.265625 0.953125 
Q 20.953125 3.328125 18.109375 8.203125 
z
M 48.6875 27.296875 
Q 48.6875 37.203125 44.609375 42.84375 
Q 40.53125 48.484375 33.40625 48.484375 
Q 26.265625 48.484375 22.1875 42.84375 
Q 18.109375 37.203125 18.109375 27.296875 
Q 18.109375 17.390625 22.1875 11.75 
Q 26.265625 6.109375 33.40625 6.109375 
Q 40.53125 6.109375 44.609375 11.75 
Q 48.6875 17.390625 48.6875 27.296875 
z
" id="DejaVuSans-112"/>
      <path d="M 9.421875 54.6875 
L 18.40625 54.6875 
L 18.40625 0 
L 9.421875 0 
z
M 9.421875 75.984375 
L 18.40625 75.984375 
L 18.40625 64.59375 
L 9.421875 64.59375 
z
" id="DejaVuSans-105"/>
      <path d="M 30.609375 48.390625 
Q 23.390625 48.390625 19.1875 42.75 
Q 14.984375 37.109375 14.984375 27.296875 
Q 14.984375 17.484375 19.15625 11.84375 
Q 23.34375 6.203125 30.609375 6.203125 
Q 37.796875 6.203125 41.984375 11.859375 
Q 46.1875 17.53125 46.1875 27.296875 
Q 46.1875 37.015625 41.984375 42.703125 
Q 37.796875 48.390625 30.609375 48.390625 
z
M 30.609375 56 
Q 42.328125 56 49.015625 48.375 
Q 55.71875 40.765625 55.71875 27.296875 
Q 55.71875 13.875 49.015625 6.21875 
Q 42.328125 -1.421875 30.609375 -1.421875 
Q 18.84375 -1.421875 12.171875 6.21875 
Q 5.515625 13.875 5.515625 27.296875 
Q 5.515625 40.765625 12.171875 48.375 
Q 18.84375 56 30.609375 56 
z
" id="DejaVuSans-111"/>
     </defs>
     <g transform="translate(138.542969 252.916562)scale(0.1 -0.1)">
      <use xlink:href="#DejaVuSans-80"/>
      <use x="60.240234" xlink:href="#DejaVuSans-97"/>
      <use x="121.519531" xlink:href="#DejaVuSans-114"/>
      <use x="162.632812" xlink:href="#DejaVuSans-97"/>
      <use x="223.912109" xlink:href="#DejaVuSans-109"/>
      <use x="321.324219" xlink:href="#DejaVuSans-101"/>
      <use x="382.847656" xlink:href="#DejaVuSans-116"/>
      <use x="422.056641" xlink:href="#DejaVuSans-101"/>
      <use x="483.580078" xlink:href="#DejaVuSans-114"/>
      <use x="524.693359" xlink:href="#DejaVuSans-32"/>
      <use x="556.480469" xlink:href="#DejaVuSans-112"/>
      <use x="619.957031" xlink:href="#DejaVuSans-114"/>
      <use x="661.070312" xlink:href="#DejaVuSans-105"/>
      <use x="688.853516" xlink:href="#DejaVuSans-111"/>
      <use x="750.035156" xlink:href="#DejaVuSans-114"/>
     </g>
    </g>
   </g>
   <g id="patch_4">
    <path d="M 10.7 224.64 
L 345.5 224.64 
" style="fill:none;stroke:#000000;stroke-linecap:square;stroke-linejoin:miter;stroke-width:0.8;"/>
   </g>
  </g>
 </g>
 <defs>
  <clipPath id="p6cc8e363e8">
   <rect height="217.44" width="334.8" x="10.7" y="7.2"/>
  </clipPath>
 </defs>
</svg>
