<svg height="367.7" viewBox="0 0 436.2 275.7" width="581.6" xmlns="http://www.w3.org/2000/svg" xmlns:xlink="http://www.w3.org/1999/xlink"><defs><style>*{stroke-linecap:butt;stroke-linejoin:round}</style></defs><g id="figure_1"><path d="M0 275.7h436.2V0H0z" fill="#fff" id="patch_1"/><g id="axes_1"><path d="M56.8 95.3H423V13.2H56.8z" fill="#eaeaf2" id="patch_2"/><g id="matplotlib.axis_1"><g id="xtick_1"><path clip-path="url(#p36751547df)" d="M78.8 95.3V13.2" fill="none" stroke="#fff" stroke-linecap="round" id="line2d_1"/><g id="text_1"><defs><path d="M31.8 66.4q-7.6 0-11.5-7.5-3.8-7.5-3.8-22.5t3.8-22.5q3.9-7.5 11.5-7.5 7.7 0 11.5 7.5T47 36.4q0 15-3.8 22.5t-11.5 7.5zm0 7.8q12.2 0 18.7-9.7T57 36.4Q57 18 50.5 8.3 44-1.4 31.8-1.4 19.5-1.4 13 8.3q-6.5 9.7-6.5 28 0 18.5 6.5 28.2 6.4 9.7 18.7 9.7z" id="DejaVuSans-48"/></defs><use xlink:href="#DejaVuSans-48" transform="matrix(.11 0 0 -.11 75.3 113.1)" fill="#262626"/></g></g><g id="xtick_2"><path clip-path="url(#p36751547df)" d="M146 95.3V13.2" fill="none" stroke="#fff" stroke-linecap="round" id="line2d_2"/><g id="text_2"><defs><path d="M10.8 73h38.7v-8.4H19.8V46.7q2.2.8 4.3 1.1 2.2.4 4.3.4 12.2 0 19.4-6.7 7-6.7 7-18.1 0-11.8-7.2-18.3-7.4-6.5-20.7-6.5-4.6 0-9.4.8-4.7.7-9.8 2.3v10q4.4-2.5 9.1-3.6 4.7-1.2 9.9-1.2 8.5 0 13.4 4.4 5 4.5 5 12 0 7.7-5 12.1Q35 40 26.7 40q-4 0-7.9-.9-4-.9-8-2.7z" id="DejaVuSans-53"/></defs><use xlink:href="#DejaVuSans-53" transform="matrix(.11 0 0 -.11 142.4 113.1)" fill="#262626"/></g></g><g id="xtick_3"><path clip-path="url(#p36751547df)" d="M213 95.3V13.2" fill="none" stroke="#fff" stroke-linecap="round" id="line2d_3"/><g id="text_3"><defs><path d="M12.4 8.3h16.1v55.6L11 60.4v9l17.4 3.5h9.9V8.3h16V0H12.5z" id="DejaVuSans-49"/></defs><g transform="matrix(.11 0 0 -.11 206 113.1)" fill="#262626"><use xlink:href="#DejaVuSans-49"/><use x="63.6" xlink:href="#DejaVuSans-48"/></g></g></g><g id="xtick_4"><path clip-path="url(#p36751547df)" d="M280.2 95.3V13.2" fill="none" stroke="#fff" stroke-linecap="round" id="line2d_4"/><g transform="matrix(.11 0 0 -.11 273.2 113.1)" fill="#262626" id="text_4"><use xlink:href="#DejaVuSans-49"/><use x="63.6" xlink:href="#DejaVuSans-53"/></g></g><g id="xtick_5"><path clip-path="url(#p36751547df)" d="M347.3 95.3V13.2" fill="none" stroke="#fff" stroke-linecap="round" id="line2d_5"/><g id="text_5"><defs><path d="M19.2 8.3h34.4V0H7.3v8.3l15.3 15.6q9.7 9.8 12.2 12.6 4.7 5.3 6.6 9 2 3.7 2 7.3 0 5.8-4.2 9.5-4 3.6-10.6 3.6-4.6 0-9.8-1.6-5.1-1.6-11-4.9v10q6 2.4 11.1 3.6 5.2 1.2 9.5 1.2 11.4 0 18-5.7 6.8-5.6 6.8-15 0-4.6-1.7-8.6-1.6-4-6-9.5l-7.9-8.2L19.2 8.3z" id="DejaVuSans-50"/></defs><g transform="matrix(.11 0 0 -.11 340.3 113.1)" fill="#262626"><use xlink:href="#DejaVuSans-50"/><use x="63.6" xlink:href="#DejaVuSans-48"/></g></g></g><g id="xtick_6"><path clip-path="url(#p36751547df)" d="M414.4 95.3V13.2" fill="none" stroke="#fff" stroke-linecap="round" id="line2d_6"/><g transform="matrix(.11 0 0 -.11 407.4 113.1)" fill="#262626" id="text_6"><use xlink:href="#DejaVuSans-50"/><use x="63.6" xlink:href="#DejaVuSans-53"/></g></g><g id="text_7"><defs><path d="M45.4 28q0 9.8-4 15.1-4 5.4-11.3 5.4-7.2 0-11.3-5.4-4-5.4-4-15.1t4-15.1q4-5.4 11.3-5.4 7.3 0 11.3 5.4 4 5.4 4 15zm9-21.2q0-14-6.2-20.8-6.2-6.8-19-6.8-4.7 0-9 .7-4.1.7-8 2.2v8.7q3.9-2.1 7.7-3.1 3.9-1 7.9-1 8.8 0 13.2 4.5 4.4 4.6 4.4 14v4.4q-2.8-4.8-7.1-7.2Q33.9 0 27.9 0q-10 0-16.2 7.7Q5.5 15.3 5.5 28q0 12.7 6.2 20.3Q17.8 56 27.9 56q6 0 10.4-2.4 4.3-2.4 7.1-7.2v8.3h9z" id="DejaVuSans-103"/><path d="M19.7 64.8V37.4H32q6.9 0 10.6 3.6 3.8 3.5 3.8 10.1t-3.8 10.1q-3.7 3.6-10.6 3.6zm-9.9 8.1h22.3q12.2 0 18.5-5.5Q57 61.8 57 51q0-10.8-6.3-16.3t-18.5-5.5H19.7V0H9.8z" id="DejaVuSans-80"/><path d="M56.2 29.6v-4.4H14.9q.6-9.3 5.6-14.1 5-4.9 14-4.9 5 0 10 1.3 4.8 1.2 9.6 3.8V2.8q-4.8-2-10-3.1-5-1.1-10.2-1.1-13.1 0-20.7 7.6-7.7 7.6-7.7 20.6 0 13.4 7.3 21.3Q20 56 32.3 56q11 0 17.5-7.1 6.4-7.1 6.4-19.3zm-9 2.6q0 7.4-4.1 11.8-4 4.4-10.7 4.4-7.5 0-12-4.3-4.5-4.2-5.2-12z" id="DejaVuSans-101"/><path d="M45.4 46.4V76h9V0h-9v8.2Q42.6 3.3 38.3 1q-4.4-2.4-10.4-2.4-10 0-16.2 7.9-6.2 8-6.2 20.8 0 12.9 6.2 20.8Q18 56 28 56q6 0 10.4-2.4 4.3-2.3 7.1-7.2zM14.8 27.3q0-10 4-15.6Q23 6.2 30.2 6.2q7.1 0 11.2 5.7 4.1 5.6 4.1 15.5t-4.1 15.5q-4.1 5.7-11.2 5.7t-11.2-5.7q-4.1-5.6-4.1-15.5z" id="DejaVuSans-100"/><path d="M9.4 54.7h9V0h-9zm0 21.3h9V64.6h-9z" id="DejaVuSans-105"/><path d="M48.8 52.6v-8.4Q45 46.3 41 47.3q-3.8 1-7.7 1-8.7 0-13.6-5.5Q15 37.3 15 27.3t4.8-15.6q4.9-5.5 13.6-5.5 4 0 7.7 1 3.9 1.1 7.7 3.2V2.1Q45 .3 41-.5q-4-1-8.6-1-12.3 0-19.6 7.8-7.3 7.8-7.3 21 0 13.4 7.4 21Q20.2 56 33 56q4.2 0 8.1-.9 4-.8 7.7-2.5z" id="DejaVuSans-99"/><path d="M18.3 70.2V54.7h18.5v-7H18.3V18q0-6.7 1.8-8.6 1.9-1.9 7.5-1.9h9.2V0h-9.2Q17.2 0 13.2 3.9T9.2 18v29.7H2.8v7h6.6v15.5z" id="DejaVuSans-116"/><path d="M34.3 27.5q-11 0-15.1-2.5-4.2-2.5-4.2-8.5 0-4.8 3.1-7.6 3.2-2.8 8.6-2.8 7.5 0 12 5.3t4.5 14v2zm17.9 3.7V0h-9v8.3q-3-5-7.7-7.3Q31-1.4 24.3-1.4 16-1.4 11 3.3 6 8 6 15.9q0 9.2 6.2 14 6.2 4.6 18.4 4.6h12.6v1q0 6.1-4 9.5-4.1 3.4-11.5 3.4-4.7 0-9.2-1.1-4.4-1.2-8.5-3.4v8.3q5 2 9.6 2.8 4.6 1 9 1 11.9 0 17.7-6.2 5.9-6.1 5.9-18.6z" id="DejaVuSans-97"/><path d="M41.1 46.3q-1.5.9-3.3 1.3-1.8.4-4 .4-7.5 0-11.6-5-4-5-4-14.2V0H9v54.7h9v-8.5q2.9 5 7.4 7.4Q30 56 36.5 56l2-.1 2.6-.4z" id="DejaVuSans-114"/><path d="M3 54.7h9.5l17-45.9 17.2 45.9h9.5L35.7 0H23.5z" id="DejaVuSans-118"/><path d="M9.4 76h9V0h-9z" id="DejaVuSans-108"/><path d="M8.5 21.6v33h9V22q0-7.7 3-11.6 3-4 9-4 7.4 0 11.6 4.7 4.2 4.7 4.2 12.7v31h9V0h-9v8.4Q42 3.4 37.7 1q-4.3-2.4-10-2.4-9.4 0-14.3 5.8-4.9 5.9-4.9 17.2zM31.1 56z" id="DejaVuSans-117"/><path d="M37.1 76v-7.5h-8.6q-4.8 0-6.7-2-1.9-2-1.9-7v-4.8h14.8v-7H20V0h-9v47.7H2.3v7h8.6v3.8q0 9.1 4.2 13.3Q19.4 76 28.6 76z" id="DejaVuSans-102"/><path d="M30.6 48.4q-7.2 0-11.4-5.6Q15 37 15 27.3t4.2-15.5q4.1-5.6 11.4-5.6 7.2 0 11.4 5.7 4.2 5.6 4.2 15.4 0 9.7-4.2 15.4-4.2 5.7-11.4 5.7zm0 7.6q11.7 0 18.4-7.6 6.7-7.6 6.7-21.1 0-13.4-6.7-21-6.7-7.7-18.4-7.7-11.8 0-18.4 7.6Q5.5 14 5.5 27.3q0 13.5 6.7 21Q18.8 56 30.6 56z" id="DejaVuSans-111"/><path d="M18.1 8.2v-29h-9v75.5h9v-8.3q2.9 4.9 7.2 7.2Q29.6 56 35.6 56q10 0 16.2-8Q58 40.3 58 27.4q0-12.9-6.2-20.8-6.2-8-16.2-8-6 0-10.3 2.5Q21 3.3 18 8.2zm30.6 19.1q0 9.9-4 15.5-4.2 5.7-11.3 5.7-7.1 0-11.2-5.7-4-5.6-4-15.5 0-10 4-15.6t11.2-5.6q7.1 0 11.2 5.7 4 5.6 4 15.5z" id="DejaVuSans-112"/><path d="M54.9 33V0h-9v32.7q0 7.8-3 11.6-3 3.9-9.1 3.9-7.3 0-11.5-4.7Q18.1 39 18.1 31V0h-9v54.7h9v-8.5q3.2 5 7.6 7.4Q30.1 56 35.8 56q9.4 0 14.2-5.8Q55 44.3 55 33z" id="DejaVuSans-110"/></defs><g transform="matrix(.12 0 0 -.12 126.4 128.5)" fill="#262626"><use xlink:href="#DejaVuSans-80"/><use x="60.3" xlink:href="#DejaVuSans-114"/><use x="101.4" xlink:href="#DejaVuSans-101"/><use x="162.9" xlink:href="#DejaVuSans-100"/><use x="226.4" xlink:href="#DejaVuSans-105"/><use x="254.2" xlink:href="#DejaVuSans-99"/><use x="309.1" xlink:href="#DejaVuSans-116"/><use x="348.3" xlink:href="#DejaVuSans-101"/><use x="409.9" xlink:href="#DejaVuSans-100"/><use x="473.3" xlink:href="#DejaVuSans-32"/><use x="505.1" xlink:href="#DejaVuSans-116"/><use x="544.3" xlink:href="#DejaVuSans-97"/><use x="605.6" xlink:href="#DejaVuSans-114"/><use x="646.7" xlink:href="#DejaVuSans-103"/><use x="710.2" xlink:href="#DejaVuSans-101"/><use x="771.7" xlink:href="#DejaVuSans-116"/><use x="810.9" xlink:href="#DejaVuSans-32"/><use x="842.7" xlink:href="#DejaVuSans-118"/><use x="901.9" xlink:href="#DejaVuSans-97"/><use x="963.2" xlink:href="#DejaVuSans-108"/><use x="991" xlink:href="#DejaVuSans-117"/><use x="1054.3" xlink:href="#DejaVuSans-101"/><use x="1115.9" xlink:href="#DejaVuSans-32"/><use x="1147.6" xlink:href="#DejaVuSans-102"/><use x="1182.8" xlink:href="#DejaVuSans-111"/><use x="1244" xlink:href="#DejaVuSans-114"/><use x="1285.1" xlink:href="#DejaVuSans-32"/><use x="1316.9" xlink:href="#DejaVuSans-100"/><use x="1380.4" xlink:href="#DejaVuSans-97"/><use x="1441.7" xlink:href="#DejaVuSans-116"/><use x="1480.9" xlink:href="#DejaVuSans-97"/><use x="1542.2" xlink:href="#DejaVuSans-112"/><use x="1605.7" xlink:href="#DejaVuSans-111"/><use x="1666.8" xlink:href="#DejaVuSans-105"/><use x="1694.6" xlink:href="#DejaVuSans-110"/><use x="1758" xlink:href="#DejaVuSans-116"/><use x="1797.2" xlink:href="#DejaVuSans-32"/><use x="1829" xlink:href="#DejaVuSans-49"/></g></g></g><g id="matplotlib.axis_2"><g id="ytick_1"><path clip-path="url(#p36751547df)" d="M56.8 95.3H423" fill="none" stroke="#fff" stroke-linecap="round" id="line2d_7"/><g id="text_8"><defs><path d="M10.7 12.4H21V0H10.7z" id="DejaVuSans-46"/></defs><g transform="matrix(.11 0 0 -.11 22.8 99.4)" fill="#262626"><use xlink:href="#DejaVuSans-48"/><use x="63.6" xlink:href="#DejaVuSans-46"/><use x="95.4" xlink:href="#DejaVuSans-48"/><use x="159" xlink:href="#DejaVuSans-48"/></g></g></g><g id="ytick_2"><path clip-path="url(#p36751547df)" d="M56.8 63.8H423" fill="none" stroke="#fff" stroke-linecap="round" id="line2d_8"/><g transform="matrix(.11 0 0 -.11 22.8 68)" fill="#262626" id="text_9"><use xlink:href="#DejaVuSans-48"/><use x="63.6" xlink:href="#DejaVuSans-46"/><use x="95.4" xlink:href="#DejaVuSans-48"/><use x="159" xlink:href="#DejaVuSans-53"/></g></g><g id="ytick_3"><path clip-path="url(#p36751547df)" d="M56.8 32.3H423" fill="none" stroke="#fff" stroke-linecap="round" id="line2d_9"/><g transform="matrix(.11 0 0 -.11 22.8 36.5)" fill="#262626" id="text_10"><use xlink:href="#DejaVuSans-48"/><use x="63.6" xlink:href="#DejaVuSans-46"/><use x="95.4" xlink:href="#DejaVuSans-49"/><use x="159" xlink:href="#DejaVuSans-48"/></g></g><g id="text_11"><defs><path d="M48.7 27.3q0 9.9-4 15.5-4.2 5.7-11.3 5.7-7.1 0-11.2-5.7-4-5.6-4-15.5 0-10 4-15.6t11.2-5.6q7.1 0 11.2 5.7 4 5.6 4 15.5zM18 46.3q2.9 5 7.2 7.3Q29.6 56 35.6 56q10 0 16.2-8Q58 40.3 58 27.4q0-12.9-6.2-20.8-6.2-8-16.2-8-6 0-10.3 2.5Q21 3.3 18 8.2V0h-9v76h9z" id="DejaVuSans-98"/><path d="M32.2-5q-3.8-9.8-7.5-12.8-3.6-3-9.6-3H7.9v7.5h5.3q3.7 0 5.7 1.8 2.1 1.7 4.6 8.3l1.6 4L3 54.8h9.5l17-42.8 17.2 42.8h9.5z" id="DejaVuSans-121"/></defs><g transform="matrix(0 -.12 -.12 0 16.3 86.2)" fill="#262626"><use xlink:href="#DejaVuSans-80"/><use x="60.3" xlink:href="#DejaVuSans-114"/><use x="101.4" xlink:href="#DejaVuSans-111"/><use x="162.6" xlink:href="#DejaVuSans-98"/><use x="226" xlink:href="#DejaVuSans-97"/><use x="287.3" xlink:href="#DejaVuSans-98"/><use x="350.8" xlink:href="#DejaVuSans-105"/><use x="378.6" xlink:href="#DejaVuSans-108"/><use x="406.3" xlink:href="#DejaVuSans-105"/><use x="434.1" xlink:href="#DejaVuSans-116"/><use x="473.3" xlink:href="#DejaVuSans-121"/></g></g></g><path clip-path="url(#p36751547df)" d="M73.5 95.3h10.7v-2.7H73.5z" fill="#4c72b0" stroke="#fff" id="patch_3"/><path clip-path="url(#p36751547df)" d="M86.9 95.3h10.7V81.5H87z" fill="#4c72b0" stroke="#fff" id="patch_4"/><path clip-path="url(#p36751547df)" d="M100.3 95.3H111V63.5h-10.7z" fill="#4c72b0" stroke="#fff" id="patch_5"/><path clip-path="url(#p36751547df)" d="M113.7 95.3h10.8v-53h-10.8z" fill="#4c72b0" stroke="#fff" id="patch_6"/><path clip-path="url(#p36751547df)" d="M127.1 95.3H138V23.8H127z" fill="#4c72b0" stroke="#fff" id="patch_7"/><path clip-path="url(#p36751547df)" d="M140.6 95.3h10.7V21.5h-10.7z" fill="#4c72b0" stroke="#fff" id="patch_8"/><path clip-path="url(#p36751547df)" d="M154 95.3h10.7V17H154z" fill="#4c72b0" stroke="#fff" id="patch_9"/><path clip-path="url(#p36751547df)" d="M167.4 95.3h10.8V26.9h-10.8z" fill="#4c72b0" stroke="#fff" id="patch_10"/><path clip-path="url(#p36751547df)" d="M180.8 95.3h10.8v-64h-10.8z" fill="#4c72b0" stroke="#fff" id="patch_11"/><path clip-path="url(#p36751547df)" d="M194.3 95.3H205V46h-10.7z" fill="#4c72b0" stroke="#fff" id="patch_12"/><path clip-path="url(#p36751547df)" d="M207.7 95.3h10.7V56h-10.7z" fill="#4c72b0" stroke="#fff" id="patch_13"/><path clip-path="url(#p36751547df)" d="M221.1 95.3H232V69.4H221z" fill="#4c72b0" stroke="#fff" id="patch_14"/><path clip-path="url(#p36751547df)" d="M234.5 95.3h10.8V76.4h-10.8z" fill="#4c72b0" stroke="#fff" id="patch_15"/><path clip-path="url(#p36751547df)" d="M248 95.3h10.7V82H248z" fill="#4c72b0" stroke="#fff" id="patch_16"/><path clip-path="url(#p36751547df)" d="M261.4 95.3H272v-9h-10.7z" fill="#4c72b0" stroke="#fff" id="patch_17"/><path clip-path="url(#p36751547df)" d="M274.8 95.3h10.7v-6.7h-10.7z" fill="#4c72b0" stroke="#fff" id="patch_18"/><path clip-path="url(#p36751547df)" d="M288.2 95.3H299v-4.6h-10.8z" fill="#4c72b0" stroke="#fff" id="patch_19"/><path clip-path="url(#p36751547df)" d="M301.7 95.3h10.7v-2.6h-10.7z" fill="#4c72b0" stroke="#fff" id="patch_20"/><path clip-path="url(#p36751547df)" d="M315 95.3h10.8v-1.5h-10.7z" fill="#4c72b0" stroke="#fff" id="patch_21"/><path clip-path="url(#p36751547df)" d="M328.5 95.3h10.7v-1h-10.7z" fill="#4c72b0" stroke="#fff" id="patch_22"/><path clip-path="url(#p36751547df)" d="M342 95.3h10.7v-.7h-10.8z" fill="#4c72b0" stroke="#fff" id="patch_23"/><path clip-path="url(#p36751547df)" d="M355.4 95.3H366V95h-10.7z" fill="#4c72b0" stroke="#fff" id="patch_24"/><path clip-path="url(#p36751547df)" d="M368.8 95.3h10.7-10.7z" fill="#4c72b0" stroke="#fff" id="patch_25"/><path clip-path="url(#p36751547df)" d="M382.2 95.3h10.7V95h-10.7z" fill="#4c72b0" stroke="#fff" id="patch_26"/><path clip-path="url(#p36751547df)" d="M395.6 95.3h10.8v-.1h-10.8z" fill="#4c72b0" stroke="#fff" id="patch_27"/><path d="M56.8 95.3V13.2" fill="none" stroke="#fff" stroke-linecap="square" stroke-width="1.3" id="patch_28"/><path d="M423 95.3V13.2" fill="none" stroke="#fff" stroke-linecap="square" stroke-width="1.3" id="patch_29"/><path d="M56.8 95.3H423" fill="none" stroke="#fff" stroke-linecap="square" stroke-width="1.3" id="patch_30"/><path d="M56.8 13.2H423" fill="none" stroke="#fff" stroke-linecap="square" stroke-width="1.3" id="patch_31"/></g><g id="axes_2"><path d="M56.8 232.8H423v-82H56.8z" fill="#eaeaf2" id="patch_32"/><g id="matplotlib.axis_3"><g id="xtick_7"><path clip-path="url(#p24a3ce1d6a)" d="M88.6 232.8v-82" fill="none" stroke="#fff" stroke-linecap="round" id="line2d_10"/><use xlink:href="#DejaVuSans-48" transform="matrix(.11 0 0 -.11 85 250.6)" fill="#262626" id="text_12"/></g><g id="xtick_8"><path clip-path="url(#p24a3ce1d6a)" d="M164.2 232.8v-82" fill="none" stroke="#fff" stroke-linecap="round" id="line2d_11"/><use xlink:href="#DejaVuSans-50" transform="matrix(.11 0 0 -.11 160.7 250.6)" fill="#262626" id="text_13"/></g><g id="xtick_9"><path clip-path="url(#p24a3ce1d6a)" d="M240 232.8v-82" fill="none" stroke="#fff" stroke-linecap="round" id="line2d_12"/><g id="text_14"><defs><path d="M37.8 64.3l-25-39h25zM35.2 73h12.4V25.4H58v-8.2H47.6V0h-9.8v17.2h-33v9.5z" id="DejaVuSans-52"/></defs><use xlink:href="#DejaVuSans-52" transform="matrix(.11 0 0 -.11 236.4 250.6)" fill="#262626"/></g></g><g id="xtick_10"><path clip-path="url(#p24a3ce1d6a)" d="M315.6 232.8v-82" fill="none" stroke="#fff" stroke-linecap="round" id="line2d_13"/><g id="text_15"><defs><path d="M33 40.4q-6.6 0-10.5-4.6-3.9-4.5-3.9-12.4T22.5 11Q26.4 6.4 33 6.4q6.7 0 10.5 4.6 4 4.5 4 12.4t-4 12.4q-3.8 4.6-10.5 4.6zm19.6 30.9v-9Q48.9 64.1 45 65q-3.8 1-7.5 1-9.8 0-15-6.7-5-6.6-5.8-19.9 2.9 4.3 7.2 6.5 4.4 2.3 9.6 2.3 11 0 17.4-6.7 6.3-6.6 6.3-18.1 0-11.2-6.6-18Q44-1.4 33-1.4q-12.6 0-19.3 9.7Q7 18 7 36.3 7 53.8 15.2 64q8.2 10.3 22 10.3 3.7 0 7.5-.7 3.8-.8 7.9-2.2z" id="DejaVuSans-54"/></defs><use xlink:href="#DejaVuSans-54" transform="matrix(.11 0 0 -.11 312 250.6)" fill="#262626"/></g></g><g id="xtick_11"><path clip-path="url(#p24a3ce1d6a)" d="M391.2 232.8v-82" fill="none" stroke="#fff" stroke-linecap="round" id="line2d_14"/><g id="text_16"><defs><path d="M31.8 34.6q-7 0-11-3.7-4.1-3.8-4.1-10.4 0-6.6 4-10.3 4-3.8 11-3.8 7.1 0 11.2 3.8 4 3.8 4 10.3 0 6.6-4 10.4-4 3.7-11.1 3.7zm-9.9 4.2q-6.3 1.6-9.9 6Q8.5 49 8.5 55.2q0 8.8 6.2 13.8 6.3 5.1 17 5.1 11 0 17.2-5Q55 64 55 55.2q0-6.2-3.6-10.6-3.5-4.3-9.8-5.9 7.1-1.6 11.1-6.5 4-4.8 4-11.8 0-10.6-6.5-16.3-6.5-5.6-18.5-5.6T13.2 4.2Q6.8 10 6.8 20.5q0 7 4 11.8 4 4.9 11.1 6.5zm-3.6 15.6q0-5.7 3.5-8.8 3.6-3.2 10-3.2 6.3 0 10 3.2 3.5 3.1 3.5 8.8 0 5.7-3.6 8.8-3.6 3.2-10 3.2-6.3 0-9.9-3.2-3.5-3.1-3.5-8.8z" id="DejaVuSans-56"/></defs><use xlink:href="#DejaVuSans-56" transform="matrix(.11 0 0 -.11 387.7 250.6)" fill="#262626"/></g></g><g transform="matrix(.12 0 0 -.12 126.4 266)" fill="#262626" id="text_17"><use xlink:href="#DejaVuSans-80"/><use x="60.3" xlink:href="#DejaVuSans-114"/><use x="101.4" xlink:href="#DejaVuSans-101"/><use x="162.9" xlink:href="#DejaVuSans-100"/><use x="226.4" xlink:href="#DejaVuSans-105"/><use x="254.2" xlink:href="#DejaVuSans-99"/><use x="309.1" xlink:href="#DejaVuSans-116"/><use x="348.3" xlink:href="#DejaVuSans-101"/><use x="409.9" xlink:href="#DejaVuSans-100"/><use x="473.3" xlink:href="#DejaVuSans-32"/><use x="505.1" xlink:href="#DejaVuSans-116"/><use x="544.3" xlink:href="#DejaVuSans-97"/><use x="605.6" xlink:href="#DejaVuSans-114"/><use x="646.7" xlink:href="#DejaVuSans-103"/><use x="710.2" xlink:href="#DejaVuSans-101"/><use x="771.7" xlink:href="#DejaVuSans-116"/><use x="810.9" xlink:href="#DejaVuSans-32"/><use x="842.7" xlink:href="#DejaVuSans-118"/><use x="901.9" xlink:href="#DejaVuSans-97"/><use x="963.2" xlink:href="#DejaVuSans-108"/><use x="991" xlink:href="#DejaVuSans-117"/><use x="1054.3" xlink:href="#DejaVuSans-101"/><use x="1115.9" xlink:href="#DejaVuSans-32"/><use x="1147.6" xlink:href="#DejaVuSans-102"/><use x="1182.8" xlink:href="#DejaVuSans-111"/><use x="1244" xlink:href="#DejaVuSans-114"/><use x="1285.1" xlink:href="#DejaVuSans-32"/><use x="1316.9" xlink:href="#DejaVuSans-100"/><use x="1380.4" xlink:href="#DejaVuSans-97"/><use x="1441.7" xlink:href="#DejaVuSans-116"/><use x="1480.9" xlink:href="#DejaVuSans-97"/><use x="1542.2" xlink:href="#DejaVuSans-112"/><use x="1605.7" xlink:href="#DejaVuSans-111"/><use x="1666.8" xlink:href="#DejaVuSans-105"/><use x="1694.6" xlink:href="#DejaVuSans-110"/><use x="1758" xlink:href="#DejaVuSans-116"/><use x="1797.2" xlink:href="#DejaVuSans-32"/><use x="1829" xlink:href="#DejaVuSans-50"/></g></g><g id="matplotlib.axis_4"><g id="ytick_4"><path clip-path="url(#p24a3ce1d6a)" d="M56.8 232.8H423" fill="none" stroke="#fff" stroke-linecap="round" id="line2d_15"/><g transform="matrix(.11 0 0 -.11 29.8 237)" fill="#262626" id="text_18"><use xlink:href="#DejaVuSans-48"/><use x="63.6" xlink:href="#DejaVuSans-46"/><use x="95.4" xlink:href="#DejaVuSans-48"/></g></g><g id="ytick_5"><path clip-path="url(#p24a3ce1d6a)" d="M56.8 185H423" fill="none" stroke="#fff" stroke-linecap="round" id="line2d_16"/><g transform="matrix(.11 0 0 -.11 29.8 189.2)" fill="#262626" id="text_19"><use xlink:href="#DejaVuSans-48"/><use x="63.6" xlink:href="#DejaVuSans-46"/><use x="95.4" xlink:href="#DejaVuSans-50"/></g></g><g transform="matrix(0 -.12 -.12 0 23.3 223.7)" fill="#262626" id="text_20"><use xlink:href="#DejaVuSans-80"/><use x="60.3" xlink:href="#DejaVuSans-114"/><use x="101.4" xlink:href="#DejaVuSans-111"/><use x="162.6" xlink:href="#DejaVuSans-98"/><use x="226" xlink:href="#DejaVuSans-97"/><use x="287.3" xlink:href="#DejaVuSans-98"/><use x="350.8" xlink:href="#DejaVuSans-105"/><use x="378.6" xlink:href="#DejaVuSans-108"/><use x="406.3" xlink:href="#DejaVuSans-105"/><use x="434.1" xlink:href="#DejaVuSans-116"/><use x="473.3" xlink:href="#DejaVuSans-121"/></g></g><path clip-path="url(#p24a3ce1d6a)" d="M73.5 232.8h30.2v-52.3H73.5z" fill="#4c72b0" stroke="#fff" id="patch_33"/><path clip-path="url(#p24a3ce1d6a)" d="M111.3 232.8h30.2v-78.2h-30.2z" fill="#4c72b0" stroke="#fff" id="patch_34"/><path clip-path="url(#p24a3ce1d6a)" d="M149.1 232.8h30.3v-58.9H149z" fill="#4c72b0" stroke="#fff" id="patch_35"/><path clip-path="url(#p24a3ce1d6a)" d="M187 232.8h30.2v-31H187z" fill="#4c72b0" stroke="#fff" id="patch_36"/><path clip-path="url(#p24a3ce1d6a)" d="M224.8 232.8H255v-13h-30.2z" fill="#4c72b0" stroke="#fff" id="patch_37"/><path clip-path="url(#p24a3ce1d6a)" d="M262.6 232.8H293v-4h-30.3z" fill="#4c72b0" stroke="#fff" id="patch_38"/><path clip-path="url(#p24a3ce1d6a)" d="M300.4 232.8h30.3v-1h-30.3z" fill="#4c72b0" stroke="#fff" id="patch_39"/><path clip-path="url(#p24a3ce1d6a)" d="M338.3 232.8h30.2v-.5h-30.2z" fill="#4c72b0" stroke="#fff" id="patch_40"/><path clip-path="url(#p24a3ce1d6a)" d="M376.1 232.8h30.3H376z" fill="#4c72b0" stroke="#fff" id="patch_41"/><path d="M56.8 232.8v-82" fill="none" stroke="#fff" stroke-linecap="square" stroke-width="1.3" id="patch_42"/><path d="M423 232.8v-82" fill="none" stroke="#fff" stroke-linecap="square" stroke-width="1.3" id="patch_43"/><path d="M56.8 232.8H423" fill="none" stroke="#fff" stroke-linecap="square" stroke-width="1.3" id="patch_44"/><path d="M56.8 150.7H423" fill="none" stroke="#fff" stroke-linecap="square" stroke-width="1.3" id="patch_45"/></g></g><defs><clipPath id="p36751547df"><path d="M56.8 13.2H423v82.1H56.8z"/></clipPath><clipPath id="p24a3ce1d6a"><path d="M56.8 150.7H423v82.1H56.8z"/></clipPath></defs></svg>