<svg height="460.8" viewBox="0 0 460.8 345.6" width="614.4" xmlns="http://www.w3.org/2000/svg" xmlns:xlink="http://www.w3.org/1999/xlink"><defs><style>*{stroke-linecap:butt;stroke-linejoin:round}</style></defs><g id="figure_1"><path d="M0 345.6h460.8V0H0z" fill="#fff" id="patch_1"/><g id="axes_1"><path d="M57.6 307.6h357.1V41.5H57.6z" fill="#fff" id="patch_2"/><g id="matplotlib.axis_1"><g id="xtick_1"><g id="line2d_1"><defs><path d="M0 0v3.5" id="m669c76b610" stroke="#000" stroke-width=".8"/></defs><use x="92.1" xlink:href="#m669c76b610" y="307.6" stroke="#000" stroke-width=".8"/></g><g id="text_1"><defs><path d="M10.6 35.5h62.6v-8.3H10.6z" id="DejaVuSans-8722"/><path d="M19.2 8.3h34.4V0H7.3v8.3l15.3 15.6q9.7 9.8 12.2 12.6 4.7 5.3 6.6 9 2 3.7 2 7.3 0 5.8-4.2 9.5-4 3.6-10.6 3.6-4.6 0-9.8-1.6-5.1-1.6-11-4.9v10q6 2.4 11.1 3.6 5.2 1.2 9.5 1.2 11.4 0 18-5.7 6.8-5.6 6.8-15 0-4.6-1.7-8.6-1.6-4-6-9.5l-7.9-8.2L19.2 8.3z" id="DejaVuSans-50"/></defs><g transform="matrix(.1 0 0 -.1 84.7 322.2)"><use xlink:href="#DejaVuSans-8722"/><use x="83.8" xlink:href="#DejaVuSans-50"/></g></g></g><g id="xtick_2"><use x="161.6" xlink:href="#m669c76b610" y="307.6" stroke="#000" stroke-width=".8" id="line2d_2"/><g id="text_2"><defs><path d="M12.4 8.3h16.1v55.6L11 60.4v9l17.4 3.5h9.9V8.3h16V0H12.5z" id="DejaVuSans-49"/></defs><g transform="matrix(.1 0 0 -.1 154.2 322.2)"><use xlink:href="#DejaVuSans-8722"/><use x="83.8" xlink:href="#DejaVuSans-49"/></g></g></g><g id="xtick_3"><use x="231.1" xlink:href="#m669c76b610" y="307.6" stroke="#000" stroke-width=".8" id="line2d_3"/><g id="text_3"><defs><path d="M31.8 66.4q-7.6 0-11.5-7.5-3.8-7.5-3.8-22.5t3.8-22.5q3.9-7.5 11.5-7.5 7.7 0 11.5 7.5T47 36.4q0 15-3.8 22.5t-11.5 7.5zm0 7.8q12.2 0 18.7-9.7T57 36.4Q57 18 50.5 8.3 44-1.4 31.8-1.4 19.5-1.4 13 8.3q-6.5 9.7-6.5 28 0 18.5 6.5 28.2 6.4 9.7 18.7 9.7z" id="DejaVuSans-48"/></defs><use xlink:href="#DejaVuSans-48" transform="matrix(.1 0 0 -.1 227.9 322.2)"/></g></g><g id="xtick_4"><use x="300.6" xlink:href="#m669c76b610" y="307.6" stroke="#000" stroke-width=".8" id="line2d_4"/><use xlink:href="#DejaVuSans-49" transform="matrix(.1 0 0 -.1 297.4 322.2)" id="text_4"/></g><g id="xtick_5"><use x="370.1" xlink:href="#m669c76b610" y="307.6" stroke="#000" stroke-width=".8" id="line2d_5"/><use xlink:href="#DejaVuSans-50" transform="matrix(.1 0 0 -.1 366.9 322.2)" id="text_5"/></g></g><g id="matplotlib.axis_2"><g id="ytick_1"><g id="line2d_6"><defs><path d="M0 0h-3.5" id="mc6cd49735e" stroke="#000" stroke-width=".8"/></defs><use x="57.6" xlink:href="#mc6cd49735e" y="307" stroke="#000" stroke-width=".8"/></g><g id="text_6"><defs><path d="M40.6 39.3q7-1.5 11-6.3t4-11.8q0-10.8-7.4-16.7-7.4-6-21.1-6-4.6 0-9.4 1-4.9.9-10 2.7v9.5q4-2.4 8.9-3.6Q21.5 7 26.8 7q9.3 0 14.1 3.6 4.9 3.7 4.9 10.7 0 6.4-4.5 10Q36.8 35 28.7 35h-8.5V43h9q7.2 0 11 3 3.9 2.8 3.9 8.3 0 5.6-4 8.6t-11.4 3q-4 0-8.7-.9-4.6-.8-10.2-2.7v8.8q5.6 1.6 10.5 2.3 5 .8 9.3.8 11.2 0 17.8-5 6.5-5.2 6.5-13.9 0-6-3.5-10.2-3.4-4.2-9.8-5.8z" id="DejaVuSans-51"/></defs><g transform="matrix(.1 0 0 -.1 35.9 310.8)"><use xlink:href="#DejaVuSans-8722"/><use x="83.8" xlink:href="#DejaVuSans-51"/></g></g></g><g id="ytick_2"><use x="57.6" xlink:href="#mc6cd49735e" y="261.1" stroke="#000" stroke-width=".8" id="line2d_7"/><g transform="matrix(.1 0 0 -.1 35.9 265)" id="text_7"><use xlink:href="#DejaVuSans-8722"/><use x="83.8" xlink:href="#DejaVuSans-50"/></g></g><g id="ytick_3"><use x="57.6" xlink:href="#mc6cd49735e" y="215.3" stroke="#000" stroke-width=".8" id="line2d_8"/><g transform="matrix(.1 0 0 -.1 35.9 219)" id="text_8"><use xlink:href="#DejaVuSans-8722"/><use x="83.8" xlink:href="#DejaVuSans-49"/></g></g><g id="ytick_4"><use x="57.6" xlink:href="#mc6cd49735e" y="169.4" stroke="#000" stroke-width=".8" id="line2d_9"/><use xlink:href="#DejaVuSans-48" transform="matrix(.1 0 0 -.1 44.2 173.2)" id="text_9"/></g><g id="ytick_5"><use x="57.6" xlink:href="#mc6cd49735e" y="123.5" stroke="#000" stroke-width=".8" id="line2d_10"/><use xlink:href="#DejaVuSans-49" transform="matrix(.1 0 0 -.1 44.2 127.3)" id="text_10"/></g><g id="ytick_6"><use x="57.6" xlink:href="#mc6cd49735e" y="77.7" stroke="#000" stroke-width=".8" id="line2d_11"/><use xlink:href="#DejaVuSans-50" transform="matrix(.1 0 0 -.1 44.2 81.5)" id="text_11"/></g></g><g id="line2d_12"><defs><path d="M0 1.5a1.5 1.5 0 100-3 1.5 1.5 0 000 3z" id="ma15123bf56" stroke="#1f77b4"/></defs><g clip-path="url(#p75efa5fa22)" fill="#1f77b4" stroke="#1f77b4"><use x="231.8" xlink:href="#ma15123bf56" y="157.9"/><use x="353.7" xlink:href="#ma15123bf56" y="101.7"/><use x="210.1" xlink:href="#ma15123bf56" y="171"/><use x="132.1" xlink:href="#ma15123bf56" y="236.4"/><use x="287.6" xlink:href="#ma15123bf56" y="136.6"/><use x="175.2" xlink:href="#ma15123bf56" y="211.4"/><use x="331.3" xlink:href="#ma15123bf56" y="112.2"/><use x="289.2" xlink:href="#ma15123bf56" y="142"/><use x="249" xlink:href="#ma15123bf56" y="166"/><use x="324.3" xlink:href="#ma15123bf56" y="103.8"/><use x="163.4" xlink:href="#ma15123bf56" y="217.4"/><use x="242.2" xlink:href="#ma15123bf56" y="153.2"/><use x="366.9" xlink:href="#ma15123bf56" y="75"/><use x="262.1" xlink:href="#ma15123bf56" y="150.8"/><use x="256.8" xlink:href="#ma15123bf56" y="145.6"/><use x="201.8" xlink:href="#ma15123bf56" y="190.1"/><use x="398.5" xlink:href="#ma15123bf56" y="70.6"/><use x="170.1" xlink:href="#ma15123bf56" y="202.9"/><use x="199" xlink:href="#ma15123bf56" y="192.8"/><use x="182.8" xlink:href="#ma15123bf56" y="208.4"/><use x="231.9" xlink:href="#ma15123bf56" y="177.9"/><use x="266.8" xlink:href="#ma15123bf56" y="138"/><use x="198.9" xlink:href="#ma15123bf56" y="182.4"/><use x="215.3" xlink:href="#ma15123bf56" y="165.8"/><use x="300.9" xlink:href="#ma15123bf56" y="130.1"/><use x="282.4" xlink:href="#ma15123bf56" y="128.1"/><use x="270.4" xlink:href="#ma15123bf56" y="146.6"/><use x="196.3" xlink:href="#ma15123bf56" y="183.5"/><use x="251.7" xlink:href="#ma15123bf56" y="153.2"/><use x="239.3" xlink:href="#ma15123bf56" y="157.5"/><use x="147.6" xlink:href="#ma15123bf56" y="230.4"/><use x="184.5" xlink:href="#ma15123bf56" y="206.1"/><use x="74" xlink:href="#ma15123bf56" y="267"/><use x="282.1" xlink:href="#ma15123bf56" y="117.4"/><use x="244.5" xlink:href="#ma15123bf56" y="142.8"/><use x="172.4" xlink:href="#ma15123bf56" y="197.7"/><use x="193.5" xlink:href="#ma15123bf56" y="171.8"/><use x="181.4" xlink:href="#ma15123bf56" y="180.2"/><use x="200.5" xlink:href="#ma15123bf56" y="185.3"/><use x="349.6" xlink:href="#ma15123bf56" y="86.8"/><use x="244.9" xlink:href="#ma15123bf56" y="156.5"/><use x="306.2" xlink:href="#ma15123bf56" y="99.8"/><use x="227.9" xlink:href="#ma15123bf56" y="179.7"/><use x="259.9" xlink:href="#ma15123bf56" y="150.9"/><use x="190.6" xlink:href="#ma15123bf56" y="201.4"/><use x="268.3" xlink:href="#ma15123bf56" y="131.9"/><use x="281.6" xlink:href="#ma15123bf56" y="129.6"/><use x="196.5" xlink:href="#ma15123bf56" y="204.2"/><use x="206.3" xlink:href="#ma15123bf56" y="166.1"/><use x="289.8" xlink:href="#ma15123bf56" y="120.3"/><use x="242.9" xlink:href="#ma15123bf56" y="155.8"/><use x="133.9" xlink:href="#ma15123bf56" y="226.2"/><use x="320.8" xlink:href="#ma15123bf56" y="107.3"/><use x="230.2" xlink:href="#ma15123bf56" y="174.8"/><use x="100.8" xlink:href="#ma15123bf56" y="265.3"/><use x="256.4" xlink:href="#ma15123bf56" y="162.9"/><use x="286.1" xlink:href="#ma15123bf56" y="142.5"/><use x="335.1" xlink:href="#ma15123bf56" y="93"/><use x="333.2" xlink:href="#ma15123bf56" y="109.1"/><use x="167.8" xlink:href="#ma15123bf56" y="213"/><use x="178.7" xlink:href="#ma15123bf56" y="205.7"/><use x="219.5" xlink:href="#ma15123bf56" y="174.4"/><use x="173.1" xlink:href="#ma15123bf56" y="205.4"/><use x="292.2" xlink:href="#ma15123bf56" y="143.2"/><use x="197.8" xlink:href="#ma15123bf56" y="190.5"/><use x="308.4" xlink:href="#ma15123bf56" y="110.9"/><use x="241.2" xlink:href="#ma15123bf56" y="161.5"/><use x="91.2" xlink:href="#ma15123bf56" y="259.8"/><use x="73.8" xlink:href="#ma15123bf56" y="295.5"/><use x="175.5" xlink:href="#ma15123bf56" y="194.8"/><use x="214.4" xlink:href="#ma15123bf56" y="168.8"/><use x="137.1" xlink:href="#ma15123bf56" y="224.4"/><use x="104.5" xlink:href="#ma15123bf56" y="250.2"/><use x="298.9" xlink:href="#ma15123bf56" y="125.3"/><use x="264.7" xlink:href="#ma15123bf56" y="139.9"/><use x="266.7" xlink:href="#ma15123bf56" y="145.8"/><use x="228" xlink:href="#ma15123bf56" y="170.5"/><use x="167.1" xlink:href="#ma15123bf56" y="214.4"/><use x="317.2" xlink:href="#ma15123bf56" y="121.3"/><use x="348.9" xlink:href="#ma15123bf56" y="96.6"/><use x="309.9" xlink:href="#ma15123bf56" y="107.7"/><use x="328.3" xlink:href="#ma15123bf56" y="88.4"/><use x="283.6" xlink:href="#ma15123bf56" y="149.6"/><use x="160.4" xlink:href="#ma15123bf56" y="206.4"/><use x="243.7" xlink:href="#ma15123bf56" y="175"/><use x="280.4" xlink:href="#ma15123bf56" y="125.5"/><use x="218.7" xlink:href="#ma15123bf56" y="170.1"/><use x="196.9" xlink:href="#ma15123bf56" y="194.5"/><use x="388.1" xlink:href="#ma15123bf56" y="53.6"/><use x="209.5" xlink:href="#ma15123bf56" y="175.2"/><use x="181.4" xlink:href="#ma15123bf56" y="203.2"/><use x="227.4" xlink:href="#ma15123bf56" y="167.5"/><use x="306.8" xlink:href="#ma15123bf56" y="117.7"/><use x="171.9" xlink:href="#ma15123bf56" y="202.5"/><use x="321.6" xlink:href="#ma15123bf56" y="108.6"/><use x="252.4" xlink:href="#ma15123bf56" y="145.4"/><use x="283.7" xlink:href="#ma15123bf56" y="127.8"/><use x="264.6" xlink:href="#ma15123bf56" y="144.5"/><use x="89" xlink:href="#ma15123bf56" y="265.2"/><use x="265.8" xlink:href="#ma15123bf56" y="139.5"/></g></g><path d="M57.6 307.6V41.5" fill="none" stroke="#000" stroke-linecap="square" stroke-width=".8" id="patch_3"/><path d="M414.7 307.6V41.5" fill="none" stroke="#000" stroke-linecap="square" stroke-width=".8" id="patch_4"/><path d="M57.6 307.6h357.1" fill="none" stroke="#000" stroke-linecap="square" stroke-width=".8" id="patch_5"/><path d="M57.6 41.5h357.1" fill="none" stroke="#000" stroke-linecap="square" stroke-width=".8" id="patch_6"/></g></g><defs><clipPath id="p75efa5fa22"><path d="M57.6 41.5h357.1v266.1H57.6z"/></clipPath></defs></svg>