<svg height="460.8" viewBox="0 0 460.8 345.6" width="614.4" xmlns="http://www.w3.org/2000/svg" xmlns:xlink="http://www.w3.org/1999/xlink"><defs><style>*{stroke-linecap:butt;stroke-linejoin:round}</style></defs><g id="figure_1"><path d="M0 345.6h460.8V0H0z" fill="#fff" id="patch_1"/><g id="axes_1"><path d="M57.6 307.6h357.1V41.5H57.6z" fill="#fff" id="patch_2"/><g id="matplotlib.axis_1"><g id="xtick_1"><g id="line2d_1"><defs><path d="M0 0v3.5" id="m7955878d17" stroke="#000" stroke-width=".8"/></defs><use x="92.4" xlink:href="#m7955878d17" y="307.6" stroke="#000" stroke-width=".8"/></g><g id="text_1"><defs><path d="M10.6 35.5h62.6v-8.3H10.6z" id="DejaVuSans-8722"/><path d="M40.6 39.3q7-1.5 11-6.3t4-11.8q0-10.8-7.4-16.7-7.4-6-21.1-6-4.6 0-9.4 1-4.9.9-10 2.7v9.5q4-2.4 8.9-3.6Q21.5 7 26.8 7q9.3 0 14.1 3.6 4.9 3.7 4.9 10.7 0 6.4-4.5 10Q36.8 35 28.7 35h-8.5V43h9q7.2 0 11 3 3.9 2.8 3.9 8.3 0 5.6-4 8.6t-11.4 3q-4 0-8.7-.9-4.6-.8-10.2-2.7v8.8q5.6 1.6 10.5 2.3 5 .8 9.3.8 11.2 0 17.8-5 6.5-5.2 6.5-13.9 0-6-3.5-10.2-3.4-4.2-9.8-5.8z" id="DejaVuSans-51"/></defs><g transform="matrix(.1 0 0 -.1 85 322.2)"><use xlink:href="#DejaVuSans-8722"/><use x="83.8" xlink:href="#DejaVuSans-51"/></g></g></g><g id="xtick_2"><use x="152.3" xlink:href="#m7955878d17" y="307.6" stroke="#000" stroke-width=".8" id="line2d_2"/><g id="text_2"><defs><path d="M19.2 8.3h34.4V0H7.3v8.3l15.3 15.6q9.7 9.8 12.2 12.6 4.7 5.3 6.6 9 2 3.7 2 7.3 0 5.8-4.2 9.5-4 3.6-10.6 3.6-4.6 0-9.8-1.6-5.1-1.6-11-4.9v10q6 2.4 11.1 3.6 5.2 1.2 9.5 1.2 11.4 0 18-5.7 6.8-5.6 6.8-15 0-4.6-1.7-8.6-1.6-4-6-9.5l-7.9-8.2L19.2 8.3z" id="DejaVuSans-50"/></defs><g transform="matrix(.1 0 0 -.1 144.9 322.2)"><use xlink:href="#DejaVuSans-8722"/><use x="83.8" xlink:href="#DejaVuSans-50"/></g></g></g><g id="xtick_3"><use x="212.2" xlink:href="#m7955878d17" y="307.6" stroke="#000" stroke-width=".8" id="line2d_3"/><g id="text_3"><defs><path d="M12.4 8.3h16.1v55.6L11 60.4v9l17.4 3.5h9.9V8.3h16V0H12.5z" id="DejaVuSans-49"/></defs><g transform="matrix(.1 0 0 -.1 204.8 322.2)"><use xlink:href="#DejaVuSans-8722"/><use x="83.8" xlink:href="#DejaVuSans-49"/></g></g></g><g id="xtick_4"><use x="272" xlink:href="#m7955878d17" y="307.6" stroke="#000" stroke-width=".8" id="line2d_4"/><g id="text_4"><defs><path d="M31.8 66.4q-7.6 0-11.5-7.5-3.8-7.5-3.8-22.5t3.8-22.5q3.9-7.5 11.5-7.5 7.7 0 11.5 7.5T47 36.4q0 15-3.8 22.5t-11.5 7.5zm0 7.8q12.2 0 18.7-9.7T57 36.4Q57 18 50.5 8.3 44-1.4 31.8-1.4 19.5-1.4 13 8.3q-6.5 9.7-6.5 28 0 18.5 6.5 28.2 6.4 9.7 18.7 9.7z" id="DejaVuSans-48"/></defs><use xlink:href="#DejaVuSans-48" transform="matrix(.1 0 0 -.1 268.9 322.2)"/></g></g><g id="xtick_5"><use x="331.9" xlink:href="#m7955878d17" y="307.6" stroke="#000" stroke-width=".8" id="line2d_5"/><use xlink:href="#DejaVuSans-49" transform="matrix(.1 0 0 -.1 328.7 322.2)" id="text_5"/></g><g id="xtick_6"><use x="391.8" xlink:href="#m7955878d17" y="307.6" stroke="#000" stroke-width=".8" id="line2d_6"/><use xlink:href="#DejaVuSans-50" transform="matrix(.1 0 0 -.1 388.6 322.2)" id="text_6"/></g></g><g id="matplotlib.axis_2"><g id="ytick_1"><g id="line2d_7"><defs><path d="M0 0h-3.5" id="m0d19af1fcf" stroke="#000" stroke-width=".8"/></defs><use x="57.6" xlink:href="#m0d19af1fcf" y="292.6" stroke="#000" stroke-width=".8"/></g><g transform="matrix(.1 0 0 -.1 35.9 296.4)" id="text_7"><use xlink:href="#DejaVuSans-8722"/><use x="83.8" xlink:href="#DejaVuSans-50"/></g></g><g id="ytick_2"><use x="57.6" xlink:href="#m0d19af1fcf" y="248.9" stroke="#000" stroke-width=".8" id="line2d_8"/><g transform="matrix(.1 0 0 -.1 35.9 252.7)" id="text_8"><use xlink:href="#DejaVuSans-8722"/><use x="83.8" xlink:href="#DejaVuSans-49"/></g></g><g id="ytick_3"><use x="57.6" xlink:href="#m0d19af1fcf" y="205.2" stroke="#000" stroke-width=".8" id="line2d_9"/><use xlink:href="#DejaVuSans-48" transform="matrix(.1 0 0 -.1 44.2 209)" id="text_9"/></g><g id="ytick_4"><use x="57.6" xlink:href="#m0d19af1fcf" y="161.5" stroke="#000" stroke-width=".8" id="line2d_10"/><use xlink:href="#DejaVuSans-49" transform="matrix(.1 0 0 -.1 44.2 165.3)" id="text_10"/></g><g id="ytick_5"><use x="57.6" xlink:href="#m0d19af1fcf" y="117.8" stroke="#000" stroke-width=".8" id="line2d_11"/><use xlink:href="#DejaVuSans-50" transform="matrix(.1 0 0 -.1 44.2 121.6)" id="text_11"/></g><g id="ytick_6"><use x="57.6" xlink:href="#m0d19af1fcf" y="74.2" stroke="#000" stroke-width=".8" id="line2d_12"/><use xlink:href="#DejaVuSans-51" transform="matrix(.1 0 0 -.1 44.2 78)" id="text_12"/></g></g><g id="line2d_13"><defs><path d="M0 1.5a1.5 1.5 0 100-3 1.5 1.5 0 000 3z" id="m0f62ff467f" stroke="#1f77b4"/></defs><g clip-path="url(#p1b7b5d3297)" fill="#1f77b4" stroke="#1f77b4"><use x="215.3" xlink:href="#m0f62ff467f" y="171.1"/><use x="230.9" xlink:href="#m0f62ff467f" y="172.4"/><use x="233.7" xlink:href="#m0f62ff467f" y="161.5"/><use x="262.2" xlink:href="#m0f62ff467f" y="192.9"/><use x="303" xlink:href="#m0f62ff467f" y="244.7"/><use x="243.3" xlink:href="#m0f62ff467f" y="185.6"/><use x="276.7" xlink:href="#m0f62ff467f" y="207.8"/><use x="188.2" xlink:href="#m0f62ff467f" y="149.1"/><use x="354.6" xlink:href="#m0f62ff467f" y="248.6"/><use x="168.5" xlink:href="#m0f62ff467f" y="131.6"/><use x="257.4" xlink:href="#m0f62ff467f" y="185.5"/><use x="361.4" xlink:href="#m0f62ff467f" y="264.2"/><use x="226.6" xlink:href="#m0f62ff467f" y="164.4"/><use x="398.5" xlink:href="#m0f62ff467f" y="295.5"/><use x="161.1" xlink:href="#m0f62ff467f" y="123.4"/><use x="298.3" xlink:href="#m0f62ff467f" y="215.8"/><use x="176.4" xlink:href="#m0f62ff467f" y="123.8"/><use x="368.5" xlink:href="#m0f62ff467f" y="277.8"/><use x="296.3" xlink:href="#m0f62ff467f" y="214.8"/><use x="381" xlink:href="#m0f62ff467f" y="277.8"/><use x="207.5" xlink:href="#m0f62ff467f" y="152.7"/><use x="275.8" xlink:href="#m0f62ff467f" y="206.1"/><use x="183.6" xlink:href="#m0f62ff467f" y="135.4"/><use x="319.7" xlink:href="#m0f62ff467f" y="243.5"/><use x="177.8" xlink:href="#m0f62ff467f" y="149.2"/><use x="208.9" xlink:href="#m0f62ff467f" y="158.1"/><use x="249" xlink:href="#m0f62ff467f" y="206.4"/><use x="213.1" xlink:href="#m0f62ff467f" y="153.4"/><use x="276.1" xlink:href="#m0f62ff467f" y="193.8"/><use x="200.2" xlink:href="#m0f62ff467f" y="145.9"/><use x="205.8" xlink:href="#m0f62ff467f" y="155.3"/><use x="222.1" xlink:href="#m0f62ff467f" y="174.5"/><use x="220" xlink:href="#m0f62ff467f" y="160.5"/><use x="185.3" xlink:href="#m0f62ff467f" y="136.4"/><use x="209.6" xlink:href="#m0f62ff467f" y="168.1"/><use x="285.8" xlink:href="#m0f62ff467f" y="201.7"/><use x="209.3" xlink:href="#m0f62ff467f" y="150.3"/><use x="281.1" xlink:href="#m0f62ff467f" y="207"/><use x="273.3" xlink:href="#m0f62ff467f" y="192.9"/><use x="244" xlink:href="#m0f62ff467f" y="179.2"/><use x="272.1" xlink:href="#m0f62ff467f" y="200.3"/><use x="292.5" xlink:href="#m0f62ff467f" y="222.6"/><use x="294.5" xlink:href="#m0f62ff467f" y="228.7"/><use x="248.9" xlink:href="#m0f62ff467f" y="198.2"/><use x="148.3" xlink:href="#m0f62ff467f" y="113.1"/><use x="219.2" xlink:href="#m0f62ff467f" y="162.2"/><use x="275" xlink:href="#m0f62ff467f" y="204.5"/><use x="345.8" xlink:href="#m0f62ff467f" y="266.9"/><use x="283.7" xlink:href="#m0f62ff467f" y="220"/><use x="333.4" xlink:href="#m0f62ff467f" y="232.6"/><use x="385.9" xlink:href="#m0f62ff467f" y="290.5"/><use x="359.1" xlink:href="#m0f62ff467f" y="272.3"/><use x="186.1" xlink:href="#m0f62ff467f" y="146.9"/><use x="183.3" xlink:href="#m0f62ff467f" y="149.2"/><use x="307.8" xlink:href="#m0f62ff467f" y="240.9"/><use x="292.4" xlink:href="#m0f62ff467f" y="216.8"/><use x="312.5" xlink:href="#m0f62ff467f" y="231.5"/><use x="295.8" xlink:href="#m0f62ff467f" y="210.4"/><use x="221.6" xlink:href="#m0f62ff467f" y="173.6"/><use x="270.1" xlink:href="#m0f62ff467f" y="214.5"/><use x="326.4" xlink:href="#m0f62ff467f" y="226.3"/><use x="225" xlink:href="#m0f62ff467f" y="191"/><use x="254.3" xlink:href="#m0f62ff467f" y="188.4"/><use x="218.5" xlink:href="#m0f62ff467f" y="178.1"/><use x="316.4" xlink:href="#m0f62ff467f" y="252.9"/><use x="218.8" xlink:href="#m0f62ff467f" y="169.8"/><use x="237.5" xlink:href="#m0f62ff467f" y="174.6"/><use x="293.4" xlink:href="#m0f62ff467f" y="224.4"/><use x="148.8" xlink:href="#m0f62ff467f" y="124.6"/><use x="327.9" xlink:href="#m0f62ff467f" y="252.3"/><use x="274.7" xlink:href="#m0f62ff467f" y="214.1"/><use x="257.6" xlink:href="#m0f62ff467f" y="209.3"/><use x="208.1" xlink:href="#m0f62ff467f" y="167.6"/><use x="73.8" xlink:href="#m0f62ff467f" y="53.6"/><use x="269.5" xlink:href="#m0f62ff467f" y="201.2"/><use x="382.9" xlink:href="#m0f62ff467f" y="289.7"/><use x="356.2" xlink:href="#m0f62ff467f" y="273.8"/><use x="265.2" xlink:href="#m0f62ff467f" y="210.8"/><use x="221.2" xlink:href="#m0f62ff467f" y="168"/><use x="269.8" xlink:href="#m0f62ff467f" y="195"/><use x="297" xlink:href="#m0f62ff467f" y="216.5"/><use x="300.3" xlink:href="#m0f62ff467f" y="235.6"/><use x="224.6" xlink:href="#m0f62ff467f" y="178.7"/><use x="288.7" xlink:href="#m0f62ff467f" y="217"/><use x="314.9" xlink:href="#m0f62ff467f" y="243"/><use x="336.2" xlink:href="#m0f62ff467f" y="254.1"/><use x="234.5" xlink:href="#m0f62ff467f" y="173.3"/><use x="339.2" xlink:href="#m0f62ff467f" y="260.2"/><use x="176.6" xlink:href="#m0f62ff467f" y="124.7"/><use x="181.2" xlink:href="#m0f62ff467f" y="148.2"/><use x="313.3" xlink:href="#m0f62ff467f" y="233.7"/><use x="307.9" xlink:href="#m0f62ff467f" y="234.1"/><use x="276.8" xlink:href="#m0f62ff467f" y="221.5"/><use x="224.5" xlink:href="#m0f62ff467f" y="182.4"/><use x="217.5" xlink:href="#m0f62ff467f" y="157.3"/><use x="273.4" xlink:href="#m0f62ff467f" y="216.2"/><use x="207.7" xlink:href="#m0f62ff467f" y="173.8"/><use x="239.9" xlink:href="#m0f62ff467f" y="186.2"/><use x="268.5" xlink:href="#m0f62ff467f" y="198.5"/><use x="335.6" xlink:href="#m0f62ff467f" y="245.6"/></g></g><path d="M57.6 307.6V41.5" fill="none" stroke="#000" stroke-linecap="square" stroke-width=".8" id="patch_3"/><path d="M414.7 307.6V41.5" fill="none" stroke="#000" stroke-linecap="square" stroke-width=".8" id="patch_4"/><path d="M57.6 307.6h357.1" fill="none" stroke="#000" stroke-linecap="square" stroke-width=".8" id="patch_5"/><path d="M57.6 41.5h357.1" fill="none" stroke="#000" stroke-linecap="square" stroke-width=".8" id="patch_6"/></g></g><defs><clipPath id="p1b7b5d3297"><path d="M57.6 41.5h357.1v266.1H57.6z"/></clipPath></defs></svg>