<?xml version="1.0" encoding="utf-8" standalone="no"?>
<!DOCTYPE svg PUBLIC "-//W3C//DTD SVG 1.1//EN"
  "http://www.w3.org/Graphics/SVG/1.1/DTD/svg11.dtd">
<!-- Created with matplotlib (https://matplotlib.org/) -->
<svg height="345.6pt" version="1.1" viewBox="0 0 460.8 345.6" width="460.8pt" xmlns="http://www.w3.org/2000/svg" xmlns:xlink="http://www.w3.org/1999/xlink">
 <defs>
  <style type="text/css">
*{stroke-linecap:butt;stroke-linejoin:round;}
  </style>
 </defs>
 <g id="figure_1">
  <g id="patch_1">
   <path d="M 0 345.6 
L 460.8 345.6 
L 460.8 0 
L 0 0 
z
" style="fill:#ffffff;"/>
  </g>
  <g id="axes_1">
   <g id="patch_2">
    <path d="M 57.6 307.584 
L 414.72 307.584 
L 414.72 41.472 
L 57.6 41.472 
z
" style="fill:#ffffff;"/>
   </g>
   <g id="matplotlib.axis_1">
    <g id="xtick_1">
     <g id="line2d_1">
      <defs>
       <path d="M 0 0 
L 0 3.5 
" id="m669c76b610" style="stroke:#000000;stroke-width:0.8;"/>
      </defs>
      <g>
       <use style="stroke:#000000;stroke-width:0.8;" x="92.072228" xlink:href="#m669c76b610" y="307.584"/>
      </g>
     </g>
     <g id="text_1">
      <!-- −2 -->
      <defs>
       <path d="M 10.59375 35.5 
L 73.1875 35.5 
L 73.1875 27.203125 
L 10.59375 27.203125 
z
" id="DejaVuSans-8722"/>
       <path d="M 19.1875 8.296875 
L 53.609375 8.296875 
L 53.609375 0 
L 7.328125 0 
L 7.328125 8.296875 
Q 12.9375 14.109375 22.625 23.890625 
Q 32.328125 33.6875 34.8125 36.53125 
Q 39.546875 41.84375 41.421875 45.53125 
Q 43.3125 49.21875 43.3125 52.78125 
Q 43.3125 58.59375 39.234375 62.25 
Q 35.15625 65.921875 28.609375 65.921875 
Q 23.96875 65.921875 18.8125 64.3125 
Q 13.671875 62.703125 7.8125 59.421875 
L 7.8125 69.390625 
Q 13.765625 71.78125 18.9375 73 
Q 24.125 74.21875 28.421875 74.21875 
Q 39.75 74.21875 46.484375 68.546875 
Q 53.21875 62.890625 53.21875 53.421875 
Q 53.21875 48.921875 51.53125 44.890625 
Q 49.859375 40.875 45.40625 35.40625 
Q 44.1875 33.984375 37.640625 27.21875 
Q 31.109375 20.453125 19.1875 8.296875 
z
" id="DejaVuSans-50"/>
      </defs>
      <g transform="translate(84.701134 322.182437)scale(0.1 -0.1)">
       <use xlink:href="#DejaVuSans-8722"/>
       <use x="83.789062" xlink:href="#DejaVuSans-50"/>
      </g>
     </g>
    </g>
    <g id="xtick_2">
     <g id="line2d_2">
      <g>
       <use style="stroke:#000000;stroke-width:0.8;" x="161.57465" xlink:href="#m669c76b610" y="307.584"/>
      </g>
     </g>
     <g id="text_2">
      <!-- −1 -->
      <defs>
       <path d="M 12.40625 8.296875 
L 28.515625 8.296875 
L 28.515625 63.921875 
L 10.984375 60.40625 
L 10.984375 69.390625 
L 28.421875 72.90625 
L 38.28125 72.90625 
L 38.28125 8.296875 
L 54.390625 8.296875 
L 54.390625 0 
L 12.40625 0 
z
" id="DejaVuSans-49"/>
      </defs>
      <g transform="translate(154.203556 322.182437)scale(0.1 -0.1)">
       <use xlink:href="#DejaVuSans-8722"/>
       <use x="83.789062" xlink:href="#DejaVuSans-49"/>
      </g>
     </g>
    </g>
    <g id="xtick_3">
     <g id="line2d_3">
      <g>
       <use style="stroke:#000000;stroke-width:0.8;" x="231.077072" xlink:href="#m669c76b610" y="307.584"/>
      </g>
     </g>
     <g id="text_3">
      <!-- 0 -->
      <defs>
       <path d="M 31.78125 66.40625 
Q 24.171875 66.40625 20.328125 58.90625 
Q 16.5 51.421875 16.5 36.375 
Q 16.5 21.390625 20.328125 13.890625 
Q 24.171875 6.390625 31.78125 6.390625 
Q 39.453125 6.390625 43.28125 13.890625 
Q 47.125 21.390625 47.125 36.375 
Q 47.125 51.421875 43.28125 58.90625 
Q 39.453125 66.40625 31.78125 66.40625 
z
M 31.78125 74.21875 
Q 44.046875 74.21875 50.515625 64.515625 
Q 56.984375 54.828125 56.984375 36.375 
Q 56.984375 17.96875 50.515625 8.265625 
Q 44.046875 -1.421875 31.78125 -1.421875 
Q 19.53125 -1.421875 13.0625 8.265625 
Q 6.59375 17.96875 6.59375 36.375 
Q 6.59375 54.828125 13.0625 64.515625 
Q 19.53125 74.21875 31.78125 74.21875 
z
" id="DejaVuSans-48"/>
      </defs>
      <g transform="translate(227.895822 322.182437)scale(0.1 -0.1)">
       <use xlink:href="#DejaVuSans-48"/>
      </g>
     </g>
    </g>
    <g id="xtick_4">
     <g id="line2d_4">
      <g>
       <use style="stroke:#000000;stroke-width:0.8;" x="300.579494" xlink:href="#m669c76b610" y="307.584"/>
      </g>
     </g>
     <g id="text_4">
      <!-- 1 -->
      <g transform="translate(297.398244 322.182437)scale(0.1 -0.1)">
       <use xlink:href="#DejaVuSans-49"/>
      </g>
     </g>
    </g>
    <g id="xtick_5">
     <g id="line2d_5">
      <g>
       <use style="stroke:#000000;stroke-width:0.8;" x="370.081915" xlink:href="#m669c76b610" y="307.584"/>
      </g>
     </g>
     <g id="text_5">
      <!-- 2 -->
      <g transform="translate(366.900665 322.182437)scale(0.1 -0.1)">
       <use xlink:href="#DejaVuSans-50"/>
      </g>
     </g>
    </g>
   </g>
   <g id="matplotlib.axis_2">
    <g id="ytick_1">
     <g id="line2d_6">
      <defs>
       <path d="M 0 0 
L -3.5 0 
" id="mc6cd49735e" style="stroke:#000000;stroke-width:0.8;"/>
      </defs>
      <g>
       <use style="stroke:#000000;stroke-width:0.8;" x="57.6" xlink:href="#mc6cd49735e" y="306.985284"/>
      </g>
     </g>
     <g id="text_6">
      <!-- −3 -->
      <defs>
       <path d="M 40.578125 39.3125 
Q 47.65625 37.796875 51.625 33 
Q 55.609375 28.21875 55.609375 21.1875 
Q 55.609375 10.40625 48.1875 4.484375 
Q 40.765625 -1.421875 27.09375 -1.421875 
Q 22.515625 -1.421875 17.65625 -0.515625 
Q 12.796875 0.390625 7.625 2.203125 
L 7.625 11.71875 
Q 11.71875 9.328125 16.59375 8.109375 
Q 21.484375 6.890625 26.8125 6.890625 
Q 36.078125 6.890625 40.9375 10.546875 
Q 45.796875 14.203125 45.796875 21.1875 
Q 45.796875 27.640625 41.28125 31.265625 
Q 36.765625 34.90625 28.71875 34.90625 
L 20.21875 34.90625 
L 20.21875 43.015625 
L 29.109375 43.015625 
Q 36.375 43.015625 40.234375 45.921875 
Q 44.09375 48.828125 44.09375 54.296875 
Q 44.09375 59.90625 40.109375 62.90625 
Q 36.140625 65.921875 28.71875 65.921875 
Q 24.65625 65.921875 20.015625 65.03125 
Q 15.375 64.15625 9.8125 62.3125 
L 9.8125 71.09375 
Q 15.4375 72.65625 20.34375 73.4375 
Q 25.25 74.21875 29.59375 74.21875 
Q 40.828125 74.21875 47.359375 69.109375 
Q 53.90625 64.015625 53.90625 55.328125 
Q 53.90625 49.265625 50.4375 45.09375 
Q 46.96875 40.921875 40.578125 39.3125 
z
" id="DejaVuSans-51"/>
      </defs>
      <g transform="translate(35.857813 310.784503)scale(0.1 -0.1)">
       <use xlink:href="#DejaVuSans-8722"/>
       <use x="83.789062" xlink:href="#DejaVuSans-51"/>
      </g>
     </g>
    </g>
    <g id="ytick_2">
     <g id="line2d_7">
      <g>
       <use style="stroke:#000000;stroke-width:0.8;" x="57.6" xlink:href="#mc6cd49735e" y="261.12495"/>
      </g>
     </g>
     <g id="text_7">
      <!-- −2 -->
      <g transform="translate(35.857813 264.924169)scale(0.1 -0.1)">
       <use xlink:href="#DejaVuSans-8722"/>
       <use x="83.789062" xlink:href="#DejaVuSans-50"/>
      </g>
     </g>
    </g>
    <g id="ytick_3">
     <g id="line2d_8">
      <g>
       <use style="stroke:#000000;stroke-width:0.8;" x="57.6" xlink:href="#mc6cd49735e" y="215.264617"/>
      </g>
     </g>
     <g id="text_8">
      <!-- −1 -->
      <g transform="translate(35.857813 219.063835)scale(0.1 -0.1)">
       <use xlink:href="#DejaVuSans-8722"/>
       <use x="83.789062" xlink:href="#DejaVuSans-49"/>
      </g>
     </g>
    </g>
    <g id="ytick_4">
     <g id="line2d_9">
      <g>
       <use style="stroke:#000000;stroke-width:0.8;" x="57.6" xlink:href="#mc6cd49735e" y="169.404283"/>
      </g>
     </g>
     <g id="text_9">
      <!-- 0 -->
      <g transform="translate(44.2375 173.203502)scale(0.1 -0.1)">
       <use xlink:href="#DejaVuSans-48"/>
      </g>
     </g>
    </g>
    <g id="ytick_5">
     <g id="line2d_10">
      <g>
       <use style="stroke:#000000;stroke-width:0.8;" x="57.6" xlink:href="#mc6cd49735e" y="123.543949"/>
      </g>
     </g>
     <g id="text_10">
      <!-- 1 -->
      <g transform="translate(44.2375 127.343168)scale(0.1 -0.1)">
       <use xlink:href="#DejaVuSans-49"/>
      </g>
     </g>
    </g>
    <g id="ytick_6">
     <g id="line2d_11">
      <g>
       <use style="stroke:#000000;stroke-width:0.8;" x="57.6" xlink:href="#mc6cd49735e" y="77.683615"/>
      </g>
     </g>
     <g id="text_11">
      <!-- 2 -->
      <g transform="translate(44.2375 81.482834)scale(0.1 -0.1)">
       <use xlink:href="#DejaVuSans-50"/>
      </g>
     </g>
    </g>
   </g>
   <g id="line2d_12">
    <defs>
     <path d="M 0 1.5 
C 0.397805 1.5 0.77937 1.341951 1.06066 1.06066 
C 1.341951 0.77937 1.5 0.397805 1.5 0 
C 1.5 -0.397805 1.341951 -0.77937 1.06066 -1.06066 
C 0.77937 -1.341951 0.397805 -1.5 0 -1.5 
C -0.397805 -1.5 -0.77937 -1.341951 -1.06066 -1.06066 
C -1.341951 -0.77937 -1.5 -0.397805 -1.5 0 
C -1.5 0.397805 -1.341951 0.77937 -1.06066 1.06066 
C -0.77937 1.341951 -0.397805 1.5 0 1.5 
z
" id="ma15123bf56" style="stroke:#1f77b4;"/>
    </defs>
    <g clip-path="url(#p75efa5fa22)">
     <use style="fill:#1f77b4;stroke:#1f77b4;" x="231.840602" xlink:href="#ma15123bf56" y="157.899608"/>
     <use style="fill:#1f77b4;stroke:#1f77b4;" x="353.73283" xlink:href="#ma15123bf56" y="101.732632"/>
     <use style="fill:#1f77b4;stroke:#1f77b4;" x="210.069049" xlink:href="#ma15123bf56" y="170.969353"/>
     <use style="fill:#1f77b4;stroke:#1f77b4;" x="132.076904" xlink:href="#ma15123bf56" y="236.418273"/>
     <use style="fill:#1f77b4;stroke:#1f77b4;" x="287.623194" xlink:href="#ma15123bf56" y="136.628152"/>
     <use style="fill:#1f77b4;stroke:#1f77b4;" x="175.212977" xlink:href="#ma15123bf56" y="211.431532"/>
     <use style="fill:#1f77b4;stroke:#1f77b4;" x="331.33434" xlink:href="#ma15123bf56" y="112.20161"/>
     <use style="fill:#1f77b4;stroke:#1f77b4;" x="289.210606" xlink:href="#ma15123bf56" y="141.973724"/>
     <use style="fill:#1f77b4;stroke:#1f77b4;" x="249.008687" xlink:href="#ma15123bf56" y="165.97028"/>
     <use style="fill:#1f77b4;stroke:#1f77b4;" x="324.316032" xlink:href="#ma15123bf56" y="103.756693"/>
     <use style="fill:#1f77b4;stroke:#1f77b4;" x="163.443606" xlink:href="#ma15123bf56" y="217.421203"/>
     <use style="fill:#1f77b4;stroke:#1f77b4;" x="242.217738" xlink:href="#ma15123bf56" y="153.208693"/>
     <use style="fill:#1f77b4;stroke:#1f77b4;" x="366.933579" xlink:href="#ma15123bf56" y="74.974203"/>
     <use style="fill:#1f77b4;stroke:#1f77b4;" x="262.130109" xlink:href="#ma15123bf56" y="150.77107"/>
     <use style="fill:#1f77b4;stroke:#1f77b4;" x="256.797821" xlink:href="#ma15123bf56" y="145.643846"/>
     <use style="fill:#1f77b4;stroke:#1f77b4;" x="201.803345" xlink:href="#ma15123bf56" y="190.134054"/>
     <use style="fill:#1f77b4;stroke:#1f77b4;" x="398.487273" xlink:href="#ma15123bf56" y="70.609455"/>
     <use style="fill:#1f77b4;stroke:#1f77b4;" x="170.069466" xlink:href="#ma15123bf56" y="202.934575"/>
     <use style="fill:#1f77b4;stroke:#1f77b4;" x="198.981892" xlink:href="#ma15123bf56" y="192.84591"/>
     <use style="fill:#1f77b4;stroke:#1f77b4;" x="182.785346" xlink:href="#ma15123bf56" y="208.412096"/>
     <use style="fill:#1f77b4;stroke:#1f77b4;" x="231.917015" xlink:href="#ma15123bf56" y="177.861573"/>
     <use style="fill:#1f77b4;stroke:#1f77b4;" x="266.822456" xlink:href="#ma15123bf56" y="137.978588"/>
     <use style="fill:#1f77b4;stroke:#1f77b4;" x="198.879914" xlink:href="#ma15123bf56" y="182.400959"/>
     <use style="fill:#1f77b4;stroke:#1f77b4;" x="215.302208" xlink:href="#ma15123bf56" y="165.816764"/>
     <use style="fill:#1f77b4;stroke:#1f77b4;" x="300.863026" xlink:href="#ma15123bf56" y="130.069074"/>
     <use style="fill:#1f77b4;stroke:#1f77b4;" x="282.41106" xlink:href="#ma15123bf56" y="128.114665"/>
     <use style="fill:#1f77b4;stroke:#1f77b4;" x="270.391588" xlink:href="#ma15123bf56" y="146.561624"/>
     <use style="fill:#1f77b4;stroke:#1f77b4;" x="196.287268" xlink:href="#ma15123bf56" y="183.488233"/>
     <use style="fill:#1f77b4;stroke:#1f77b4;" x="251.719794" xlink:href="#ma15123bf56" y="153.195788"/>
     <use style="fill:#1f77b4;stroke:#1f77b4;" x="239.281915" xlink:href="#ma15123bf56" y="157.546476"/>
     <use style="fill:#1f77b4;stroke:#1f77b4;" x="147.582402" xlink:href="#ma15123bf56" y="230.367389"/>
     <use style="fill:#1f77b4;stroke:#1f77b4;" x="184.520419" xlink:href="#ma15123bf56" y="206.132172"/>
     <use style="fill:#1f77b4;stroke:#1f77b4;" x="73.984564" xlink:href="#ma15123bf56" y="267.030664"/>
     <use style="fill:#1f77b4;stroke:#1f77b4;" x="282.11116" xlink:href="#ma15123bf56" y="117.363389"/>
     <use style="fill:#1f77b4;stroke:#1f77b4;" x="244.484961" xlink:href="#ma15123bf56" y="142.841495"/>
     <use style="fill:#1f77b4;stroke:#1f77b4;" x="172.3673" xlink:href="#ma15123bf56" y="197.67446"/>
     <use style="fill:#1f77b4;stroke:#1f77b4;" x="193.526988" xlink:href="#ma15123bf56" y="171.817855"/>
     <use style="fill:#1f77b4;stroke:#1f77b4;" x="181.350666" xlink:href="#ma15123bf56" y="180.22025"/>
     <use style="fill:#1f77b4;stroke:#1f77b4;" x="200.452434" xlink:href="#ma15123bf56" y="185.302135"/>
     <use style="fill:#1f77b4;stroke:#1f77b4;" x="349.602475" xlink:href="#ma15123bf56" y="86.805328"/>
     <use style="fill:#1f77b4;stroke:#1f77b4;" x="244.914343" xlink:href="#ma15123bf56" y="156.464482"/>
     <use style="fill:#1f77b4;stroke:#1f77b4;" x="306.237764" xlink:href="#ma15123bf56" y="99.792675"/>
     <use style="fill:#1f77b4;stroke:#1f77b4;" x="227.945023" xlink:href="#ma15123bf56" y="179.672918"/>
     <use style="fill:#1f77b4;stroke:#1f77b4;" x="259.899262" xlink:href="#ma15123bf56" y="150.91312"/>
     <use style="fill:#1f77b4;stroke:#1f77b4;" x="190.630812" xlink:href="#ma15123bf56" y="201.398237"/>
     <use style="fill:#1f77b4;stroke:#1f77b4;" x="268.32583" xlink:href="#ma15123bf56" y="131.929107"/>
     <use style="fill:#1f77b4;stroke:#1f77b4;" x="281.593729" xlink:href="#ma15123bf56" y="129.644711"/>
     <use style="fill:#1f77b4;stroke:#1f77b4;" x="196.475283" xlink:href="#ma15123bf56" y="204.150037"/>
     <use style="fill:#1f77b4;stroke:#1f77b4;" x="206.313968" xlink:href="#ma15123bf56" y="166.149948"/>
     <use style="fill:#1f77b4;stroke:#1f77b4;" x="289.761502" xlink:href="#ma15123bf56" y="120.345997"/>
     <use style="fill:#1f77b4;stroke:#1f77b4;" x="242.882882" xlink:href="#ma15123bf56" y="155.783729"/>
     <use style="fill:#1f77b4;stroke:#1f77b4;" x="133.910034" xlink:href="#ma15123bf56" y="226.244101"/>
     <use style="fill:#1f77b4;stroke:#1f77b4;" x="320.783919" xlink:href="#ma15123bf56" y="107.259041"/>
     <use style="fill:#1f77b4;stroke:#1f77b4;" x="230.223787" xlink:href="#ma15123bf56" y="174.763363"/>
     <use style="fill:#1f77b4;stroke:#1f77b4;" x="100.802783" xlink:href="#ma15123bf56" y="265.260817"/>
     <use style="fill:#1f77b4;stroke:#1f77b4;" x="256.40097" xlink:href="#ma15123bf56" y="162.939172"/>
     <use style="fill:#1f77b4;stroke:#1f77b4;" x="286.05046" xlink:href="#ma15123bf56" y="142.536159"/>
     <use style="fill:#1f77b4;stroke:#1f77b4;" x="335.135262" xlink:href="#ma15123bf56" y="93.01231"/>
     <use style="fill:#1f77b4;stroke:#1f77b4;" x="333.224763" xlink:href="#ma15123bf56" y="109.056496"/>
     <use style="fill:#1f77b4;stroke:#1f77b4;" x="167.791045" xlink:href="#ma15123bf56" y="212.968633"/>
     <use style="fill:#1f77b4;stroke:#1f77b4;" x="178.727823" xlink:href="#ma15123bf56" y="205.69204"/>
     <use style="fill:#1f77b4;stroke:#1f77b4;" x="219.521509" xlink:href="#ma15123bf56" y="174.355165"/>
     <use style="fill:#1f77b4;stroke:#1f77b4;" x="173.057842" xlink:href="#ma15123bf56" y="205.369728"/>
     <use style="fill:#1f77b4;stroke:#1f77b4;" x="292.182075" xlink:href="#ma15123bf56" y="143.244223"/>
     <use style="fill:#1f77b4;stroke:#1f77b4;" x="197.770831" xlink:href="#ma15123bf56" y="190.487554"/>
     <use style="fill:#1f77b4;stroke:#1f77b4;" x="308.449327" xlink:href="#ma15123bf56" y="110.929472"/>
     <use style="fill:#1f77b4;stroke:#1f77b4;" x="241.235619" xlink:href="#ma15123bf56" y="161.477381"/>
     <use style="fill:#1f77b4;stroke:#1f77b4;" x="91.241192" xlink:href="#ma15123bf56" y="259.839205"/>
     <use style="fill:#1f77b4;stroke:#1f77b4;" x="73.832727" xlink:href="#ma15123bf56" y="295.488"/>
     <use style="fill:#1f77b4;stroke:#1f77b4;" x="175.500805" xlink:href="#ma15123bf56" y="194.775674"/>
     <use style="fill:#1f77b4;stroke:#1f77b4;" x="214.434208" xlink:href="#ma15123bf56" y="168.813505"/>
     <use style="fill:#1f77b4;stroke:#1f77b4;" x="137.147869" xlink:href="#ma15123bf56" y="224.379698"/>
     <use style="fill:#1f77b4;stroke:#1f77b4;" x="104.511224" xlink:href="#ma15123bf56" y="250.189016"/>
     <use style="fill:#1f77b4;stroke:#1f77b4;" x="298.884484" xlink:href="#ma15123bf56" y="125.344692"/>
     <use style="fill:#1f77b4;stroke:#1f77b4;" x="264.677698" xlink:href="#ma15123bf56" y="139.945987"/>
     <use style="fill:#1f77b4;stroke:#1f77b4;" x="266.733315" xlink:href="#ma15123bf56" y="145.812956"/>
     <use style="fill:#1f77b4;stroke:#1f77b4;" x="227.977408" xlink:href="#ma15123bf56" y="170.516513"/>
     <use style="fill:#1f77b4;stroke:#1f77b4;" x="167.099717" xlink:href="#ma15123bf56" y="214.425025"/>
     <use style="fill:#1f77b4;stroke:#1f77b4;" x="317.154752" xlink:href="#ma15123bf56" y="121.256784"/>
     <use style="fill:#1f77b4;stroke:#1f77b4;" x="348.872371" xlink:href="#ma15123bf56" y="96.598101"/>
     <use style="fill:#1f77b4;stroke:#1f77b4;" x="309.895101" xlink:href="#ma15123bf56" y="107.709138"/>
     <use style="fill:#1f77b4;stroke:#1f77b4;" x="328.250663" xlink:href="#ma15123bf56" y="88.43206"/>
     <use style="fill:#1f77b4;stroke:#1f77b4;" x="283.557788" xlink:href="#ma15123bf56" y="149.574913"/>
     <use style="fill:#1f77b4;stroke:#1f77b4;" x="160.410933" xlink:href="#ma15123bf56" y="206.443795"/>
     <use style="fill:#1f77b4;stroke:#1f77b4;" x="243.74249" xlink:href="#ma15123bf56" y="175.002972"/>
     <use style="fill:#1f77b4;stroke:#1f77b4;" x="280.430874" xlink:href="#ma15123bf56" y="125.547132"/>
     <use style="fill:#1f77b4;stroke:#1f77b4;" x="218.691946" xlink:href="#ma15123bf56" y="170.053029"/>
     <use style="fill:#1f77b4;stroke:#1f77b4;" x="196.861406" xlink:href="#ma15123bf56" y="194.539386"/>
     <use style="fill:#1f77b4;stroke:#1f77b4;" x="388.061687" xlink:href="#ma15123bf56" y="53.568"/>
     <use style="fill:#1f77b4;stroke:#1f77b4;" x="209.520581" xlink:href="#ma15123bf56" y="175.191809"/>
     <use style="fill:#1f77b4;stroke:#1f77b4;" x="181.399719" xlink:href="#ma15123bf56" y="203.243309"/>
     <use style="fill:#1f77b4;stroke:#1f77b4;" x="227.422401" xlink:href="#ma15123bf56" y="167.517881"/>
     <use style="fill:#1f77b4;stroke:#1f77b4;" x="306.811681" xlink:href="#ma15123bf56" y="117.663154"/>
     <use style="fill:#1f77b4;stroke:#1f77b4;" x="171.878669" xlink:href="#ma15123bf56" y="202.502796"/>
     <use style="fill:#1f77b4;stroke:#1f77b4;" x="321.645718" xlink:href="#ma15123bf56" y="108.617963"/>
     <use style="fill:#1f77b4;stroke:#1f77b4;" x="252.427937" xlink:href="#ma15123bf56" y="145.371984"/>
     <use style="fill:#1f77b4;stroke:#1f77b4;" x="283.69317" xlink:href="#ma15123bf56" y="127.81048"/>
     <use style="fill:#1f77b4;stroke:#1f77b4;" x="264.582363" xlink:href="#ma15123bf56" y="144.486476"/>
     <use style="fill:#1f77b4;stroke:#1f77b4;" x="89.045943" xlink:href="#ma15123bf56" y="265.189812"/>
     <use style="fill:#1f77b4;stroke:#1f77b4;" x="265.812041" xlink:href="#ma15123bf56" y="139.459726"/>
    </g>
   </g>
   <g id="patch_3">
    <path d="M 57.6 307.584 
L 57.6 41.472 
" style="fill:none;stroke:#000000;stroke-linecap:square;stroke-linejoin:miter;stroke-width:0.8;"/>
   </g>
   <g id="patch_4">
    <path d="M 414.72 307.584 
L 414.72 41.472 
" style="fill:none;stroke:#000000;stroke-linecap:square;stroke-linejoin:miter;stroke-width:0.8;"/>
   </g>
   <g id="patch_5">
    <path d="M 57.6 307.584 
L 414.72 307.584 
" style="fill:none;stroke:#000000;stroke-linecap:square;stroke-linejoin:miter;stroke-width:0.8;"/>
   </g>
   <g id="patch_6">
    <path d="M 57.6 41.472 
L 414.72 41.472 
" style="fill:none;stroke:#000000;stroke-linecap:square;stroke-linejoin:miter;stroke-width:0.8;"/>
   </g>
  </g>
 </g>
 <defs>
  <clipPath id="p75efa5fa22">
   <rect height="266.112" width="357.12" x="57.6" y="41.472"/>
  </clipPath>
 </defs>
</svg>
