<svg height="332.2" viewBox="0 0 460.8 249.1" width="614.4" xmlns="http://www.w3.org/2000/svg" xmlns:xlink="http://www.w3.org/1999/xlink"><defs><style>*{stroke-linecap:butt;stroke-linejoin:round}</style></defs><g id="figure_1"><path d="M0 249.1h460.8V0H0z" fill="#fff" id="patch_1"/><g id="axes_1"><path d="M15.7 218.9H447V7.8H15.7z" fill="#fff" id="patch_2"/><path clip-path="url(#p7c4fc26813)" d="M35.3 218.9h19.6v-81.2H35.3z" fill="#1f77b4" opacity=".4" id="patch_3"/><path clip-path="url(#p7c4fc26813)" d="M54.9 218.9h19.6v-201H54.9z" fill="#1f77b4" opacity=".4" id="patch_4"/><path clip-path="url(#p7c4fc26813)" d="M74.5 218.9H94V71.3H74.5z" fill="#1f77b4" opacity=".4" id="patch_5"/><path clip-path="url(#p7c4fc26813)" d="M94 218.9h19.7v-75.1H94z" fill="#1f77b4" opacity=".4" id="patch_6"/><path clip-path="url(#p7c4fc26813)" d="M113.7 218.9h19.6v-34.7h-19.6z" fill="#1f77b4" opacity=".4" id="patch_7"/><path clip-path="url(#p7c4fc26813)" d="M133.3 218.9h19.6v-14.3h-19.6z" fill="#1f77b4" opacity=".4" id="patch_8"/><path clip-path="url(#p7c4fc26813)" d="M152.9 218.9h19.6v-7.5h-19.6z" fill="#1f77b4" opacity=".4" id="patch_9"/><path clip-path="url(#p7c4fc26813)" d="M172.5 218.9h19.6v-3.6h-19.6z" fill="#1f77b4" opacity=".4" id="patch_10"/><path clip-path="url(#p7c4fc26813)" d="M192.1 218.9h19.6v-2h-19.6z" fill="#1f77b4" opacity=".4" id="patch_11"/><path clip-path="url(#p7c4fc26813)" d="M211.7 218.9h19.6v-.5h-19.6z" fill="#1f77b4" opacity=".4" id="patch_12"/><path clip-path="url(#p7c4fc26813)" d="M231.3 218.9H251v-.5h-19.6z" fill="#1f77b4" opacity=".4" id="patch_13"/><path clip-path="url(#p7c4fc26813)" d="M251 218.9h19.5v-.3H251z" fill="#1f77b4" opacity=".4" id="patch_14"/><path clip-path="url(#p7c4fc26813)" d="M270.5 218.9h19.6v-.1h-19.6z" fill="#1f77b4" opacity=".4" id="patch_15"/><path clip-path="url(#p7c4fc26813)" d="M290.1 218.9h19.6v-.1h-19.6z" fill="#1f77b4" opacity=".4" id="patch_16"/><path clip-path="url(#p7c4fc26813)" d="M309.7 218.9h19.6-19.6z" fill="#1f77b4" opacity=".4" id="patch_17"/><path clip-path="url(#p7c4fc26813)" d="M329.3 218.9H349h-19.6z" fill="#1f77b4" opacity=".4" id="patch_18"/><path clip-path="url(#p7c4fc26813)" d="M349 218.9h19.6-19.7z" fill="#1f77b4" opacity=".4" id="patch_19"/><path clip-path="url(#p7c4fc26813)" d="M368.6 218.9h19.6-19.6z" fill="#1f77b4" opacity=".4" id="patch_20"/><path clip-path="url(#p7c4fc26813)" d="M388.2 218.9h19.6-19.6z" fill="#1f77b4" opacity=".4" id="patch_21"/><path clip-path="url(#p7c4fc26813)" d="M407.8 218.9h19.6-19.6z" fill="#1f77b4" opacity=".4" id="patch_22"/><path clip-path="url(#p7c4fc26813)" d="M35.3 218.9h19.6v-67H35.3z" fill="#1f77b4" opacity=".4" id="patch_23"/><path clip-path="url(#p7c4fc26813)" d="M54.9 218.9h19.6v-201H54.9z" fill="#1f77b4" opacity=".4" id="patch_24"/><path clip-path="url(#p7c4fc26813)" d="M74.5 218.9H94V71.3H74.5z" fill="#1f77b4" opacity=".4" id="patch_25"/><path clip-path="url(#p7c4fc26813)" d="M94 218.9h19.7v-75.1H94z" fill="#1f77b4" opacity=".4" id="patch_26"/><path clip-path="url(#p7c4fc26813)" d="M113.7 218.9h19.6v-34.7h-19.6z" fill="#1f77b4" opacity=".4" id="patch_27"/><path clip-path="url(#p7c4fc26813)" d="M133.3 218.9h19.6v-14.3h-19.6z" fill="#1f77b4" opacity=".4" id="patch_28"/><path clip-path="url(#p7c4fc26813)" d="M152.9 218.9h19.6v-.4h-19.6z" fill="#1f77b4" opacity=".4" id="patch_29"/><path clip-path="url(#p7c4fc26813)" d="M172.5 218.9h19.6-19.6z" fill="#1f77b4" opacity=".4" id="patch_30"/><path clip-path="url(#p7c4fc26813)" d="M192.1 218.9h19.6-19.6z" fill="#1f77b4" opacity=".4" id="patch_31"/><path clip-path="url(#p7c4fc26813)" d="M211.7 218.9h19.6-19.6z" fill="#1f77b4" opacity=".4" id="patch_32"/><path clip-path="url(#p7c4fc26813)" d="M231.3 218.9H251h-19.6z" fill="#1f77b4" opacity=".4" id="patch_33"/><path clip-path="url(#p7c4fc26813)" d="M251 218.9h19.5H251z" fill="#1f77b4" opacity=".4" id="patch_34"/><path clip-path="url(#p7c4fc26813)" d="M270.5 218.9h19.6-19.6z" fill="#1f77b4" opacity=".4" id="patch_35"/><path clip-path="url(#p7c4fc26813)" d="M290.1 218.9h19.6-19.6z" fill="#1f77b4" opacity=".4" id="patch_36"/><path clip-path="url(#p7c4fc26813)" d="M309.7 218.9h19.6-19.6z" fill="#1f77b4" opacity=".4" id="patch_37"/><path clip-path="url(#p7c4fc26813)" d="M329.3 218.9H349h-19.6z" fill="#1f77b4" opacity=".4" id="patch_38"/><path clip-path="url(#p7c4fc26813)" d="M349 218.9h19.6-19.7z" fill="#1f77b4" opacity=".4" id="patch_39"/><path clip-path="url(#p7c4fc26813)" d="M368.6 218.9h19.6-19.6z" fill="#1f77b4" opacity=".4" id="patch_40"/><path clip-path="url(#p7c4fc26813)" d="M388.2 218.9h19.6-19.6z" fill="#1f77b4" opacity=".4" id="patch_41"/><path clip-path="url(#p7c4fc26813)" d="M407.8 218.9h19.6-19.6z" fill="#1f77b4" opacity=".4" id="patch_42"/><g id="matplotlib.axis_1"><g id="xtick_1"><g id="line2d_1"><defs><path d="M0 0v3.5" id="ma21ec50322" stroke="#000" stroke-width=".8"/></defs><use x="28.2" xlink:href="#ma21ec50322" y="218.9" stroke="#000" stroke-width=".8"/></g><g id="text_1"><defs><path d="M10.6 35.5h62.6v-8.3H10.6z" id="DejaVuSans-8722"/><path d="M12.4 8.3h16.1v55.6L11 60.4v9l17.4 3.5h9.9V8.3h16V0H12.5z" id="DejaVuSans-49"/><path d="M10.7 12.4H21V0H10.7z" id="DejaVuSans-46"/><path d="M31.8 66.4q-7.6 0-11.5-7.5-3.8-7.5-3.8-22.5t3.8-22.5q3.9-7.5 11.5-7.5 7.7 0 11.5 7.5T47 36.4q0 15-3.8 22.5t-11.5 7.5zm0 7.8q12.2 0 18.7-9.7T57 36.4Q57 18 50.5 8.3 44-1.4 31.8-1.4 19.5-1.4 13 8.3q-6.5 9.7-6.5 28 0 18.5 6.5 28.2 6.4 9.7 18.7 9.7z" id="DejaVuSans-48"/></defs><g transform="matrix(.1 0 0 -.1 12.9 233.5)"><use xlink:href="#DejaVuSans-8722"/><use x="83.8" xlink:href="#DejaVuSans-49"/><use x="147.4" xlink:href="#DejaVuSans-46"/><use x="179.2" xlink:href="#DejaVuSans-48"/><use x="242.8" xlink:href="#DejaVuSans-48"/></g></g></g><g id="xtick_2"><use x="109" xlink:href="#ma21ec50322" y="218.9" stroke="#000" stroke-width=".8" id="line2d_2"/><g id="text_2"><defs><path d="M11 1.5v9q3.7-1.8 7.5-2.7 3.8-1 7.5-1 9.8 0 14.9 6.7 5.1 6.5 5.9 20-2.8-4.3-7.2-6.5-4.4-2.3-9.6-2.3-11 0-17.3 6.6Q6.3 38 6.3 49.4q0 11.2 6.6 18 6.7 6.8 17.7 6.8 12.7 0 19.3-9.7 6.7-9.7 6.7-28.1 0-17.3-8.2-27.5-8.2-10.3-22-10.3-3.7 0-7.5.7t-8 2.2zm19.6 31q6.6 0 10.5 4.5 4 4.5 4 12.4t-4 12.4q-3.9 4.6-10.5 4.6t-10.5-4.6q-3.9-4.5-3.9-12.4T20.1 37q3.9-4.6 10.5-4.6z" id="DejaVuSans-57"/><path d="M10.8 73h38.7v-8.4H19.8V46.7q2.2.8 4.3 1.1 2.2.4 4.3.4 12.2 0 19.4-6.7 7-6.7 7-18.1 0-11.8-7.2-18.3-7.4-6.5-20.7-6.5-4.6 0-9.4.8-4.7.7-9.8 2.3v10q4.4-2.5 9.1-3.6 4.7-1.2 9.9-1.2 8.5 0 13.4 4.4 5 4.5 5 12 0 7.7-5 12.1Q35 40 26.7 40q-4 0-7.9-.9-4-.9-8-2.7z" id="DejaVuSans-53"/></defs><g transform="matrix(.1 0 0 -.1 93.7 233.5)"><use xlink:href="#DejaVuSans-8722"/><use x="83.8" xlink:href="#DejaVuSans-48"/><use x="147.4" xlink:href="#DejaVuSans-46"/><use x="179.2" xlink:href="#DejaVuSans-57"/><use x="242.8" xlink:href="#DejaVuSans-53"/></g></g></g><g id="xtick_3"><use x="189.8" xlink:href="#ma21ec50322" y="218.9" stroke="#000" stroke-width=".8" id="line2d_3"/><g transform="matrix(.1 0 0 -.1 174.5 233.5)" id="text_3"><use xlink:href="#DejaVuSans-8722"/><use x="83.8" xlink:href="#DejaVuSans-48"/><use x="147.4" xlink:href="#DejaVuSans-46"/><use x="179.2" xlink:href="#DejaVuSans-57"/><use x="242.8" xlink:href="#DejaVuSans-48"/></g></g><g id="xtick_4"><use x="270.6" xlink:href="#ma21ec50322" y="218.9" stroke="#000" stroke-width=".8" id="line2d_4"/><g id="text_4"><defs><path d="M31.8 34.6q-7 0-11-3.7-4.1-3.8-4.1-10.4 0-6.6 4-10.3 4-3.8 11-3.8 7.1 0 11.2 3.8 4 3.8 4 10.3 0 6.6-4 10.4-4 3.7-11.1 3.7zm-9.9 4.2q-6.3 1.6-9.9 6Q8.5 49 8.5 55.2q0 8.8 6.2 13.8 6.3 5.1 17 5.1 11 0 17.2-5Q55 64 55 55.2q0-6.2-3.6-10.6-3.5-4.3-9.8-5.9 7.1-1.6 11.1-6.5 4-4.8 4-11.8 0-10.6-6.5-16.3-6.5-5.6-18.5-5.6T13.2 4.2Q6.8 10 6.8 20.5q0 7 4 11.8 4 4.9 11.1 6.5zm-3.6 15.6q0-5.7 3.5-8.8 3.6-3.2 10-3.2 6.3 0 10 3.2 3.5 3.1 3.5 8.8 0 5.7-3.6 8.8-3.6 3.2-10 3.2-6.3 0-9.9-3.2-3.5-3.1-3.5-8.8z" id="DejaVuSans-56"/></defs><g transform="matrix(.1 0 0 -.1 255.3 233.5)"><use xlink:href="#DejaVuSans-8722"/><use x="83.8" xlink:href="#DejaVuSans-48"/><use x="147.4" xlink:href="#DejaVuSans-46"/><use x="179.2" xlink:href="#DejaVuSans-56"/><use x="242.8" xlink:href="#DejaVuSans-53"/></g></g></g><g id="xtick_5"><use x="351.4" xlink:href="#ma21ec50322" y="218.9" stroke="#000" stroke-width=".8" id="line2d_5"/><g transform="matrix(.1 0 0 -.1 336.1 233.5)" id="text_5"><use xlink:href="#DejaVuSans-8722"/><use x="83.8" xlink:href="#DejaVuSans-48"/><use x="147.4" xlink:href="#DejaVuSans-46"/><use x="179.2" xlink:href="#DejaVuSans-56"/><use x="242.8" xlink:href="#DejaVuSans-48"/></g></g><g id="xtick_6"><use x="432.3" xlink:href="#ma21ec50322" y="218.9" stroke="#000" stroke-width=".8" id="line2d_6"/><g id="text_6"><defs><path d="M8.2 73h46.9v-4.3L28.6 0H18.3l25 64.6H8.1z" id="DejaVuSans-55"/></defs><g transform="matrix(.1 0 0 -.1 417 233.5)"><use xlink:href="#DejaVuSans-8722"/><use x="83.8" xlink:href="#DejaVuSans-48"/><use x="147.4" xlink:href="#DejaVuSans-46"/><use x="179.2" xlink:href="#DejaVuSans-55"/><use x="242.8" xlink:href="#DejaVuSans-53"/></g></g></g><g id="text_7"><defs><path d="M56.2 29.6v-4.4H14.9q.6-9.3 5.6-14.1 5-4.9 14-4.9 5 0 10 1.3 4.8 1.2 9.6 3.8V2.8q-4.8-2-10-3.1-5-1.1-10.2-1.1-13.1 0-20.7 7.6-7.7 7.6-7.7 20.6 0 13.4 7.3 21.3Q20 56 32.3 56q11 0 17.5-7.1 6.4-7.1 6.4-19.3zm-9 2.6q0 7.4-4.1 11.8-4 4.4-10.7 4.4-7.5 0-12-4.3-4.5-4.2-5.2-12z" id="DejaVuSans-101"/><path d="M19.7 34.8V8.1h15.8q8 0 11.8 3.3 3.8 3.3 3.8 10 0 7-3.8 10.2-3.8 3.2-11.8 3.2zm0 30v-22h14.6q7.2 0 10.7 2.7 3.6 2.8 3.6 8.3 0 5.5-3.6 8.3-3.5 2.7-10.7 2.7zm-9.9 8.1H35q11.3 0 17.4-4.7 6.1-4.7 6.1-13.3 0-6.7-3.1-10.7-3.1-4-9.2-4.9 7.3-1.5 11.3-6.5 4-5 4-12.4 0-9.8-6.6-15Q48.3 0 35.9 0H10z" id="DejaVuSans-66"/><path d="M8.5 21.6v33h9V22q0-7.7 3-11.6 3-4 9-4 7.4 0 11.6 4.7 4.2 4.7 4.2 12.7v31h9V0h-9v8.4Q42 3.4 37.7 1q-4.3-2.4-10-2.4-9.4 0-14.3 5.8-4.9 5.9-4.9 17.2zM31.1 56z" id="DejaVuSans-117"/><path d="M54.9 33V0h-9v32.7q0 7.8-3 11.6-3 3.9-9.1 3.9-7.3 0-11.5-4.7Q18.1 39 18.1 31V0h-9v54.7h9v-8.5q3.2 5 7.6 7.4Q30.1 56 35.8 56q9.4 0 14.2-5.8Q55 44.3 55 33z" id="DejaVuSans-110"/><path d="M45.4 46.4V76h9V0h-9v8.2Q42.6 3.3 38.3 1q-4.4-2.4-10.4-2.4-10 0-16.2 7.9-6.2 8-6.2 20.8 0 12.9 6.2 20.8Q18 56 28 56q6 0 10.4-2.4 4.3-2.3 7.1-7.2zM14.8 27.3q0-10 4-15.6Q23 6.2 30.2 6.2q7.1 0 11.2 5.7 4.1 5.6 4.1 15.5t-4.1 15.5q-4.1 5.7-11.2 5.7t-11.2-5.7q-4.1-5.6-4.1-15.5z" id="DejaVuSans-100"/><path d="M30.6 48.4q-7.2 0-11.4-5.6Q15 37 15 27.3t4.2-15.5q4.1-5.6 11.4-5.6 7.2 0 11.4 5.7 4.2 5.6 4.2 15.4 0 9.7-4.2 15.4-4.2 5.7-11.4 5.7zm0 7.6q11.7 0 18.4-7.6 6.7-7.6 6.7-21.1 0-13.4-6.7-21-6.7-7.7-18.4-7.7-11.8 0-18.4 7.6Q5.5 14 5.5 27.3q0 13.5 6.7 21Q18.8 56 30.6 56z" id="DejaVuSans-111"/><path d="M19.7 64.8V37.4H32q6.9 0 10.6 3.6 3.8 3.5 3.8 10.1t-3.8 10.1q-3.7 3.6-10.6 3.6zm-9.9 8.1h22.3q12.2 0 18.5-5.5Q57 61.8 57 51q0-10.8-6.3-16.3t-18.5-5.5H19.7V0H9.8z" id="DejaVuSans-80"/><path d="M34.3 27.5q-11 0-15.1-2.5-4.2-2.5-4.2-8.5 0-4.8 3.1-7.6 3.2-2.8 8.6-2.8 7.5 0 12 5.3t4.5 14v2zm17.9 3.7V0h-9v8.3q-3-5-7.7-7.3Q31-1.4 24.3-1.4 16-1.4 11 3.3 6 8 6 15.9q0 9.2 6.2 14 6.2 4.6 18.4 4.6h12.6v1q0 6.1-4 9.5-4.1 3.4-11.5 3.4-4.7 0-9.2-1.1-4.4-1.2-8.5-3.4v8.3q5 2 9.6 2.8 4.6 1 9 1 11.9 0 17.7-6.2 5.9-6.1 5.9-18.6z" id="DejaVuSans-97"/><path d="M41.1 46.3q-1.5.9-3.3 1.3-1.8.4-4 .4-7.5 0-11.6-5-4-5-4-14.2V0H9v54.7h9v-8.5q2.9 5 7.4 7.4Q30 56 36.5 56l2-.1 2.6-.4z" id="DejaVuSans-114"/><path d="M52 44.2q3.4 6 8 9Q64.9 56 71 56q8.6 0 13.3-6 4.6-6 4.6-17V0h-9v32.7q0 7.9-2.8 11.7-2.8 3.8-8.5 3.8-7 0-11-4.7-4-4.6-4-12.6V0h-9.1v32.7q0 8-2.8 11.7-2.8 3.8-8.6 3.8-6.9 0-11-4.7-4-4.6-4-12.6V0h-9v54.7h9v-8.5q3 5 7.4 7.4Q29.8 56 35.7 56q6 0 10.1-3 4.2-3 6.2-8.8z" id="DejaVuSans-109"/><path d="M18.3 70.2V54.7h18.5v-7H18.3V18q0-6.7 1.8-8.6 1.9-1.9 7.5-1.9h9.2V0h-9.2Q17.2 0 13.2 3.9T9.2 18v29.7H2.8v7h6.6v15.5z" id="DejaVuSans-116"/></defs><g transform="matrix(.1 0 0 -.1 182.8 247.2)"><use xlink:href="#DejaVuSans-66"/><use x="68.6" xlink:href="#DejaVuSans-111"/><use x="129.8" xlink:href="#DejaVuSans-117"/><use x="193.2" xlink:href="#DejaVuSans-110"/><use x="256.5" xlink:href="#DejaVuSans-100"/><use x="320" xlink:href="#DejaVuSans-101"/><use x="381.5" xlink:href="#DejaVuSans-100"/><use x="445" xlink:href="#DejaVuSans-80"/><use x="505.3" xlink:href="#DejaVuSans-97"/><use x="566.5" xlink:href="#DejaVuSans-114"/><use x="607.7" xlink:href="#DejaVuSans-97"/><use x="668.9" xlink:href="#DejaVuSans-109"/><use x="766.3" xlink:href="#DejaVuSans-101"/><use x="827.9" xlink:href="#DejaVuSans-116"/><use x="867.1" xlink:href="#DejaVuSans-101"/><use x="928.6" xlink:href="#DejaVuSans-114"/></g></g></g><path d="M15.7 218.9H447" fill="none" stroke="#000" stroke-linecap="square" stroke-width=".8" id="patch_43"/></g></g><defs><clipPath id="p7c4fc26813"><path d="M15.7 7.8H447v211.1H15.7z"/></clipPath></defs></svg>