<svg viewBox="0 0 1677.7 495.8" fill="none" stroke-linecap="square" stroke-miterlimit="10" xmlns="http://www.w3.org/2000/svg"><clipPath id="a"><path d="M0 0h1677.7v495.8H0V0z"/></clipPath><g clip-path="url(#a)"><path fill="#000" fill-opacity="0" d="M0 0h1677.7v495.8H0zM26.5 316V22" fill-rule="evenodd"/><path stroke="#000" stroke-width="3" stroke-linejoin="round" stroke-linecap="butt" d="M26.5 316V40" fill-rule="evenodd"/><path fill="#000" stroke="#000" stroke-width="3" stroke-linecap="butt" d="M31.4 40l-5-13.6L21.6 40z" fill-rule="evenodd"/><path fill="#000" fill-opacity="0" d="M26 315.6h294" fill-rule="evenodd"/><path stroke="#000" stroke-width="3" stroke-linejoin="round" stroke-linecap="butt" d="M26 315.6h276" fill-rule="evenodd"/><path fill="#000" stroke="#000" stroke-width="3" stroke-linecap="butt" d="M302 320.5l13.7-5-13.7-4.9z" fill-rule="evenodd"/><path fill="#c00" d="M105 109.5c0-3.7 3-6.8 6.8-6.8a6.9 6.9 0 016.8 6.8c0 3.8-3 6.9-6.8 6.9s-6.9-3-6.9-6.9z" fill-rule="evenodd"/><path fill="#000" fill-opacity="0" d="M108.1 339.6H238v54.6H108z" fill-rule="evenodd"/><path fill="#c00" d="M128.6 385.7v-14.1q0-4.7 1.8-7 1.9-2.3 5.4-2.3 3.6 0 5.7 2.4 2.1 2.5 2.1 6.3 0 3.9-2 6.3t-5.3 2.4q-3.1 0-5-2v8h-2.7zm7.3-21q-2 0-3.2 1.5-1.3 1.6-1.3 5 0 3.1 1.2 4.6 1.3 1.6 3.4 1.6 2 0 3.4-1.6 1.3-1.6 1.3-4.6 0-3.5-1.4-5t-3.4-1.5zM154.6 366v-2.3h14.5v2.3h-14.5zm0 6.4v-2.3h14.5v2.3h-14.5zM180 373.9v-2h5.8v2H180zm18.8-3.2q0 2-.3 3.7-.3 1.7-1 2.8-.6 1.1-1.7 1.7-1 .6-2.5.6-1.4 0-2.4-.6t-1.7-1.7q-.7-1.1-1-2.8-.3-1.6-.3-3.7 0-2 .3-3.7.3-1.6.9-2.8.7-1.1 1.7-1.7 1-.6 2.5-.6 1.4 0 2.4.6t1.7 1.7q.7 1.2 1 2.8.4 1.6.4 3.7zm-8.8 0q0 1.8.2 3 .2 1.4.6 2.3.3.8 1 1.3.6.4 1.5.4 1 0 1.5-.4.7-.4 1-1.3.5-.9.7-2.2l.1-3-.1-3.1q-.2-1.4-.6-2.2-.4-.9-1-1.3-.7-.5-1.6-.5-.9 0-1.5.5-.7.4-1 1.3-.4.8-.6 2.2-.2 1.3-.2 3zm11.6 7.3l.2-.8q0-.3.3-.5l.5-.2.5-.1h.6l.5.3.3.5.1.8v.7l-.4.6-.5.3h-1.1l-.5-.3-.3-.6q-.2-.3-.2-.7zm16.8-8.5l-.1 2.4q-.1 1.3-.5 2.4l-.8 2q-.5 1-1.4 1.7-.8.7-2 1.1-1.1.4-2.7.4h-1.5l-.5-.2v-1.8q.4.2 1 .2h1q1.5 0 2.6-.5 1-.5 1.6-1.4.6-1 .8-2.2.3-1.3.3-2.7h-.1l-.6.8q-.3.4-.8.6-.4.3-1 .4-.5.2-1.2.2-1.1 0-2-.3-1-.4-1.6-1-.6-.7-1-1.7-.3-1-.3-2.2 0-1.3.4-2.4.3-1 1-1.8t1.7-1.2q1-.4 2.1-.4 1.2 0 2.2.5 1 .4 1.8 1.4.7 1 1.2 2.3.4 1.5.4 3.4zm-5.6-5.8q-.7 0-1.2.3-.6.2-1 .7-.5.5-.7 1.2-.2.8-.2 1.8 0 .8.2 1.5.2.6.6 1 .3.5 1 .8.5.2 1.3.2t1.4-.3q.7-.2 1.1-.7.5-.4.7-1 .3-.5.3-1.1l-.2-1.6-.7-1.4q-.4-.6-1-1-.7-.4-1.6-.4z"/><path fill="#000" fill-opacity="0" d="M735.5 169a109.5 109.5 0 11219 0 109.5 109.5 0 11-219 0z" fill-rule="evenodd"/><path stroke="#fff2cc" stroke-width="3" stroke-linejoin="round" stroke-linecap="butt" d="M735.5 169h0c0-60.4 49-109.5 109.5-109.5h0A109.5 109.5 0 01954.5 169h0c0 60.5-49 109.5-109.5 109.5h0c-60.4 0-109.5-49-109.5-109.5z" fill-rule="evenodd"/><path fill="#000" fill-opacity="0" d="M775.5 169a69.6 69.6 0 01139.1 0 69.6 69.6 0 01-139.1 0z" fill-rule="evenodd"/><path stroke="#ffe599" stroke-width="3" stroke-linejoin="round" stroke-linecap="butt" d="M775.5 169h0A69.6 69.6 0 01845 99.5h0a69.6 69.6 0 0169.6 69.5h0a69.6 69.6 0 01-69.6 69.6h0a69.6 69.6 0 01-69.5-69.6z" fill-rule="evenodd"/><path fill="#000" fill-opacity="0" d="M815.9 169a29.1 29.1 0 0158.3 0 29.1 29.1 0 11-58.3 0z" fill-rule="evenodd"/><path stroke="#ffd966" stroke-width="3" stroke-linejoin="round" stroke-linecap="butt" d="M815.9 169h0c0-16 13-29.1 29.1-29.1h0a29.1 29.1 0 0129.2 29.2h0c0 16-13 29.1-29.2 29.1h0c-16 0-29.1-13-29.1-29.1z" fill-rule="evenodd"/><path fill="#000" fill-opacity="0" d="M362.5 316V22" fill-rule="evenodd"/><path stroke="#000" stroke-width="3" stroke-linejoin="round" stroke-linecap="butt" d="M362.5 316V40" fill-rule="evenodd"/><path fill="#000" stroke="#000" stroke-width="3" stroke-linecap="butt" d="M367.4 40l-5-13.6-4.9 13.6z" fill-rule="evenodd"/><path fill="#000" fill-opacity="0" d="M362 315.6h294" fill-rule="evenodd"/><path stroke="#000" stroke-width="3" stroke-linejoin="round" stroke-linecap="butt" d="M362 315.6h276" fill-rule="evenodd"/><path fill="#000" stroke="#000" stroke-width="3" stroke-linecap="butt" d="M638 320.5l13.7-5-13.7-4.9z" fill-rule="evenodd"/><path fill="#000" fill-opacity="0" d="M698.5 316V22" fill-rule="evenodd"/><path stroke="#000" stroke-width="3" stroke-linejoin="round" stroke-linecap="butt" d="M698.5 316V40" fill-rule="evenodd"/><path fill="#000" stroke="#000" stroke-width="3" stroke-linecap="butt" d="M703.4 40l-5-13.6-4.9 13.6z" fill-rule="evenodd"/><path fill="#000" fill-opacity="0" d="M698 315.6h294" fill-rule="evenodd"/><path stroke="#000" stroke-width="3" stroke-linejoin="round" stroke-linecap="butt" d="M698 315.6h276" fill-rule="evenodd"/><path fill="#000" stroke="#000" stroke-width="3" stroke-linecap="butt" d="M974 320.5l13.7-5-13.7-4.9z" fill-rule="evenodd"/><path fill="#000" fill-opacity="0" d="M1034.5 316V22" fill-rule="evenodd"/><path stroke="#000" stroke-width="3" stroke-linejoin="round" stroke-linecap="butt" d="M1034.5 316V40" fill-rule="evenodd"/><path fill="#000" stroke="#000" stroke-width="3" stroke-linecap="butt" d="M1039.4 40l-5-13.6-4.9 13.6z" fill-rule="evenodd"/><path fill="#000" fill-opacity="0" d="M1034 315.6h294" fill-rule="evenodd"/><path stroke="#000" stroke-width="3" stroke-linejoin="round" stroke-linecap="butt" d="M1034 315.6h276" fill-rule="evenodd"/><path fill="#000" stroke="#000" stroke-width="3" stroke-linecap="butt" d="M1310 320.5l13.7-5-13.7-4.9z" fill-rule="evenodd"/><path fill="#000" fill-opacity="0" d="M1370.5 316V22" fill-rule="evenodd"/><path stroke="#000" stroke-width="3" stroke-linejoin="round" stroke-linecap="butt" d="M1370.5 316V40" fill-rule="evenodd"/><path fill="#000" stroke="#000" stroke-width="3" stroke-linecap="butt" d="M1375.4 40l-5-13.6-4.9 13.6z" fill-rule="evenodd"/><path fill="#000" fill-opacity="0" d="M1370 315.6h294" fill-rule="evenodd"/><path stroke="#000" stroke-width="3" stroke-linejoin="round" stroke-linecap="butt" d="M1370 315.6h276" fill-rule="evenodd"/><path fill="#000" stroke="#000" stroke-width="3" stroke-linecap="butt" d="M1646 320.5l13.7-5-13.7-4.9z" fill-rule="evenodd"/><path fill="#000" fill-opacity="0" d="M459.8 218.2c-42.7-42.7-55.4-99.4-28.2-126.6 13-13 33.7-17.4 57.5-12a147 147 0 0169.1 40.3c42.8 42.7 55.4 99.4 28.3 126.6-27.2 27.2-83.9 14.5-126.7-28.3z" fill-rule="evenodd"/><path stroke="#fce5cd" stroke-width="3" stroke-linejoin="round" stroke-linecap="butt" d="M459.8 218.2h0c-42.7-42.7-55.4-99.4-28.2-126.6h0c13-13 33.7-17.4 57.5-12a147 147 0 0169.1 40.3h0c42.8 42.7 55.4 99.4 28.3 126.6h0c-27.2 27.2-83.9 14.5-126.7-28.3z" fill-rule="evenodd"/><path fill="#000" fill-opacity="0" d="M477.8 200.3c-27.2-27.2-35.2-63.2-18-80.5 8.3-8.2 21.5-11 36.6-7.6a93.4 93.4 0 0143.9 25.6c27.2 27.2 35.2 63.2 18 80.4-17.3 17.3-53.4 9.3-80.5-17.9z" fill-rule="evenodd"/><path stroke="#f9cb9c" stroke-width="3" stroke-linejoin="round" stroke-linecap="butt" d="M477.8 200.3h0c-27.2-27.2-35.2-63.2-18-80.5h0c8.3-8.2 21.5-11 36.6-7.6a93.4 93.4 0 0143.9 25.6h0c27.2 27.2 35.2 63.2 18 80.4h0c-17.3 17.3-53.4 9.3-80.5-17.9z" fill-rule="evenodd"/><path fill="#000" fill-opacity="0" d="M496 182.1c-11.4-11.3-14.8-26.4-7.6-33.7 3.5-3.4 9-4.6 15.3-3.2 6.4 1.4 13 5.3 18.5 10.7 11.3 11.4 14.7 26.5 7.5 33.8-7.3 7.2-22.4 3.8-33.8-7.6z" fill-rule="evenodd"/><path stroke="#f6b26b" stroke-width="3" stroke-linejoin="round" stroke-linecap="butt" d="M496 182.1h0c-11.4-11.3-14.8-26.4-7.6-33.7h0c3.5-3.4 9-4.6 15.3-3.2 6.4 1.4 13 5.3 18.5 10.7h0c11.3 11.4 14.7 26.5 7.5 33.8h0c-7.3 7.2-22.4 3.8-33.8-7.6z" fill-rule="evenodd"/><path fill="#000" fill-opacity="0" d="M156.1 186c-42.8-42.8-69.8-85-60.5-94.4 4.5-4.5 17-.6 34.7 10.7a383 383 0 0159.7 49.8c42.8 42.8 69.8 85 60.5 94.4-4.5 4.5-17 .6-34.7-10.7a383 383 0 01-59.7-49.8z" fill-rule="evenodd"/><path stroke="#f4cccc" stroke-width="3" stroke-linejoin="round" stroke-linecap="butt" d="M156.1 186h0c-42.8-42.8-69.8-85-60.5-94.4h0c4.5-4.5 17-.6 34.7 10.7a383 383 0 0159.7 49.8h0c42.8 42.8 69.8 85 60.5 94.4h0c-4.5 4.5-17 .6-34.7-10.7a383 383 0 01-59.7-49.8z" fill-rule="evenodd"/><path fill="#000" fill-opacity="0" d="M162.3 179.8c-27.2-27.2-44.4-54-38.5-60 2.9-2.8 10.8-.3 22 6.9a243.5 243.5 0 0138 31.6c27.2 27.2 44.4 54 38.4 60-2.8 2.8-10.7.4-22-6.9a243.5 243.5 0 01-38-31.6z" fill-rule="evenodd"/><path stroke="#ea9999" stroke-width="3" stroke-linejoin="round" stroke-linecap="butt" d="M162.3 179.8h0c-27.2-27.2-44.4-54-38.5-60h0c2.9-2.8 10.8-.3 22 6.9a243.5 243.5 0 0138 31.6h0c27.2 27.2 44.4 54 38.4 60h0c-2.8 2.8-10.7.4-22-6.9a243.5 243.5 0 01-38-31.6z" fill-rule="evenodd"/><path fill="#000" fill-opacity="0" d="M168.5 173.6c-11.3-11.4-18.6-22.7-16-25.2 1.1-1.1 4.4-.1 9.2 2.9 4.7 3 10.4 7.8 15.8 13.3 11.4 11.3 18.6 22.6 16.2 25-1.2 1.3-4.6.2-9.3-2.8-4.7-3-10.4-7.8-15.9-13.2z" fill-rule="evenodd"/><path stroke="#e06666" stroke-width="3" stroke-linejoin="round" stroke-linecap="butt" d="M168.5 173.6h0c-11.3-11.4-18.6-22.7-16-25.2h0c1.1-1.1 4.4-.1 9.2 2.9 4.7 3 10.4 7.8 15.8 13.3h0c11.4 11.3 18.6 22.6 16.2 25h0c-1.2 1.3-4.6.2-9.3-2.8-4.7-3-10.4-7.8-15.9-13.2z" fill-rule="evenodd"/><path fill="#000" fill-opacity="0" d="M1131.8 119.8c42.8-42.7 99.5-55.4 126.7-28.2 13 13 17.4 33.7 12 57.5a147 147 0 01-40.3 69.1c-42.7 42.8-99.4 55.4-126.6 28.3-27.2-27.2-14.5-83.9 28.2-126.7z" fill-rule="evenodd"/><path stroke="#d9ead3" stroke-width="3" stroke-linejoin="round" stroke-linecap="butt" d="M1131.8 119.8h0c42.8-42.7 99.5-55.4 126.7-28.2h0c13 13 17.4 33.7 12 57.5a147 147 0 01-40.3 69.1h0c-42.7 42.8-99.4 55.4-126.6 28.3h0c-27.2-27.2-14.5-83.9 28.2-126.7z" fill-rule="evenodd"/><path fill="#000" fill-opacity="0" d="M1149.8 137.8c27.2-27.2 63.2-35.2 80.4-18 8.3 8.3 11 21.5 7.7 36.5a93.4 93.4 0 01-25.6 44c-27.2 27.2-63.2 35.2-80.5 18-17.2-17.3-9.2-53.4 18-80.5z" fill-rule="evenodd"/><path stroke="#b6d7a8" stroke-width="3" stroke-linejoin="round" stroke-linecap="butt" d="M1149.8 137.8h0c27.2-27.2 63.2-35.2 80.4-18h0c8.3 8.3 11 21.5 7.7 36.5a93.4 93.4 0 01-25.6 44h0c-27.2 27.2-63.2 35.2-80.5 18h0c-17.2-17.3-9.2-53.4 18-80.5z" fill-rule="evenodd"/><path fill="#000" fill-opacity="0" d="M1168 156c11.3-11.4 26.4-14.8 33.7-7.6 3.4 3.5 4.6 9 3.2 15.3-1.4 6.4-5.3 13-10.8 18.5-11.3 11.3-26.4 14.7-33.7 7.5-7.2-7.3-3.8-22.4 7.5-33.8z" fill-rule="evenodd"/><path stroke="#93c47d" stroke-width="3" stroke-linejoin="round" stroke-linecap="butt" d="M1168 156h0c11.3-11.4 26.4-14.8 33.7-7.6h0c3.4 3.5 4.6 9 3.2 15.3-1.4 6.4-5.3 13-10.8 18.5h0c-11.3 11.3-26.4 14.7-33.7 7.5h0c-7.2-7.3-3.8-22.4 7.5-33.8z" fill-rule="evenodd"/><path fill="#000" fill-opacity="0" d="M1500 152.1c42.9-42.7 85.1-69.8 94.5-60.5 4.5 4.5.6 17-10.7 34.7A383 383 0 011534 186c-42.8 42.8-85 69.9-94.4 60.5-4.5-4.5-.6-17 10.7-34.7a383 383 0 0149.8-59.7z" fill-rule="evenodd"/><path stroke="#c9daf8" stroke-width="3" stroke-linejoin="round" stroke-linecap="butt" d="M1500 152.1h0c42.9-42.7 85.1-69.8 94.5-60.5h0c4.5 4.5.6 17-10.7 34.7A383 383 0 011534 186h0c-42.8 42.8-85 69.9-94.4 60.5h0c-4.5-4.5-.6-17 10.7-34.7a383 383 0 0149.8-59.7z" fill-rule="evenodd"/><path fill="#000" fill-opacity="0" d="M1506.3 158.3c27.1-27.2 54-44.4 60-38.5 2.8 2.9.3 10.8-6.9 22a243.5 243.5 0 01-31.6 38c-27.2 27.2-54 44.4-60 38.4-2.8-2.8-.4-10.7 6.8-22a243.5 243.5 0 0131.7-38z" fill-rule="evenodd"/><path stroke="#a4c2f4" stroke-width="3" stroke-linejoin="round" stroke-linecap="butt" d="M1506.3 158.3h0c27.1-27.2 54-44.4 60-38.5h0c2.8 2.9.3 10.8-6.9 22a243.5 243.5 0 01-31.6 38h0c-27.2 27.2-54 44.4-60 38.4h0c-2.8-2.8-.4-10.7 6.8-22a243.5 243.5 0 0131.7-38z" fill-rule="evenodd"/><path fill="#000" fill-opacity="0" d="M1512.5 164.5c11.4-11.3 22.6-18.6 25.1-16 1.2 1.1.2 4.4-2.8 9.2-3 4.7-7.8 10.4-13.3 15.9-11.4 11.3-22.6 18.5-25.1 16-1.2-1.1-.2-4.5 2.9-9.2 3-4.7 7.7-10.4 13.2-15.9z" fill-rule="evenodd"/><path stroke="#6d9eeb" stroke-width="3" stroke-linejoin="round" stroke-linecap="butt" d="M1512.5 164.5h0c11.4-11.3 22.6-18.6 25.1-16h0c1.2 1.1.2 4.4-2.8 9.2-3 4.7-7.8 10.4-13.3 15.9h0c-11.4 11.3-22.6 18.5-25.1 16h0c-1.2-1.1-.2-4.5 2.9-9.2 3-4.7 7.7-10.4 13.2-15.9z" fill-rule="evenodd"/><path fill="#c00" d="M137 125.5c0-3.7 3-6.8 6.8-6.8a6.9 6.9 0 016.8 6.8c0 3.8-3 6.9-6.8 6.9s-6.9-3-6.9-6.9zM145 149.5c0-3.7 3-6.8 6.8-6.8a6.9 6.9 0 016.8 6.8c0 3.8-3 6.9-6.8 6.9s-6.9-3-6.9-6.9zM161 165.5c0-3.7 3-6.8 6.8-6.8a6.9 6.9 0 016.8 6.8c0 3.8-3 6.9-6.8 6.9s-6.9-3-6.9-6.9zM177 173.5c0-3.7 3-6.8 6.8-6.8a6.9 6.9 0 016.8 6.8c0 3.8-3 6.9-6.8 6.9s-6.9-3-6.9-6.9zM201 189.5c0-3.7 3-6.8 6.8-6.8a6.9 6.9 0 016.8 6.8c0 3.8-3 6.9-6.8 6.9s-6.9-3-6.9-6.9zM201 213.5c0-3.7 3-6.8 6.8-6.8a6.9 6.9 0 016.8 6.8c0 3.8-3 6.9-6.8 6.9s-6.9-3-6.9-6.9z" fill-rule="evenodd"/><path fill="#e69138" d="M492.4 165.5c0-3.7 3.1-6.8 6.9-6.8a6.9 6.9 0 016.8 6.8c0 3.8-3 6.9-6.8 6.9s-6.9-3-6.9-6.9zM508.4 141.5c0-3.7 3.1-6.8 6.9-6.8a6.9 6.9 0 016.8 6.8c0 3.8-3 6.9-6.8 6.9s-6.9-3-6.9-6.9zM532.4 205.5c0-3.7 3.1-6.8 6.9-6.8a6.9 6.9 0 016.8 6.8c0 3.8-3 6.9-6.8 6.9s-6.9-3-6.9-6.9zM508.4 189.5c0-3.7 3.1-6.8 6.9-6.8a6.9 6.9 0 016.8 6.8c0 3.8-3 6.9-6.8 6.9s-6.9-3-6.9-6.9zM452.4 157.5c0-3.7 3.1-6.8 6.9-6.8a6.9 6.9 0 016.8 6.8c0 3.8-3 6.9-6.8 6.9s-6.9-3-6.9-6.9zM468.4 93.5c0-3.7 3.1-6.8 6.9-6.8a6.9 6.9 0 016.8 6.8c0 3.8-3 6.9-6.8 6.9s-6.9-3-6.9-6.9zM540.4 245.5c0-3.7 3.1-6.8 6.9-6.8a6.9 6.9 0 016.8 6.8c0 3.8-3 6.9-6.8 6.9s-6.9-3-6.9-6.9zM548.4 165.5c0-3.7 3.1-6.8 6.9-6.8a6.9 6.9 0 016.8 6.8c0 3.8-3 6.9-6.8 6.9s-6.9-3-6.9-6.9z" fill-rule="evenodd"/><path fill="#3c78d8" d="M1465 232.4c-3.7 0-6.8-3-6.8-6.9a6.9 6.9 0 016.8-6.8c3.8 0 6.9 3 6.9 6.8s-3 6.9-6.9 6.9zM1481 200.4c-3.7 0-6.8-3-6.8-6.9a6.9 6.9 0 016.8-6.8c3.8 0 6.9 3 6.9 6.8s-3 6.9-6.9 6.9zM1505 192.4c-3.7 0-6.8-3-6.8-6.9a6.9 6.9 0 016.8-6.8c3.8 0 6.9 3 6.9 6.8s-3 6.9-6.9 6.9zM1529 184.4c-3.7 0-6.8-3-6.8-6.9a6.9 6.9 0 016.8-6.8c3.8 0 6.9 3 6.9 6.8s-3 6.9-6.9 6.9zM1529 160.4c-3.7 0-6.8-3-6.8-6.9a6.9 6.9 0 016.8-6.8c3.8 0 6.9 3 6.9 6.8s-3 6.9-6.9 6.9zM1553 144.4c-3.7 0-6.8-3-6.8-6.9a6.9 6.9 0 016.8-6.8c3.8 0 6.9 3 6.9 6.8s-3 6.9-6.9 6.9zM1569 120.4c-3.7 0-6.8-3-6.8-6.9a6.9 6.9 0 016.8-6.8c3.8 0 6.9 3 6.9 6.8s-3 6.9-6.9 6.9z" fill-rule="evenodd"/><path fill="#6aa84f" d="M1179 184.4c-3.8 0-6.8-3-6.8-6.9a6.9 6.9 0 016.8-6.8c3.8 0 6.9 3 6.9 6.8s-3 6.9-6.9 6.9zM1155 168.4c-3.8 0-6.8-3-6.8-6.9a6.9 6.9 0 016.8-6.8c3.8 0 6.9 3 6.9 6.8s-3 6.9-6.9 6.9zM1219 144.4c-3.8 0-6.8-3-6.8-6.9a6.9 6.9 0 016.8-6.8c3.8 0 6.9 3 6.9 6.8s-3 6.9-6.9 6.9zM1211 176.4c-3.8 0-6.8-3-6.8-6.9a6.9 6.9 0 016.8-6.8c3.8 0 6.9 3 6.9 6.8s-3 6.9-6.9 6.9zM1171 224.4c-3.8 0-6.8-3-6.8-6.9a6.9 6.9 0 016.8-6.8c3.8 0 6.9 3 6.9 6.8s-3 6.9-6.9 6.9zM1107 208.4c-3.8 0-6.8-3-6.8-6.9a6.9 6.9 0 016.8-6.8c3.8 0 6.9 3 6.9 6.8s-3 6.9-6.9 6.9zM1235 104.4c-3.8 0-6.8-3-6.8-6.9a6.9 6.9 0 016.8-6.8c3.8 0 6.9 3 6.9 6.8s-3 6.9-6.9 6.9zM1179 128.4c-3.8 0-6.8-3-6.8-6.9a6.9 6.9 0 016.8-6.8c3.8 0 6.9 3 6.9 6.8s-3 6.9-6.9 6.9z" fill-rule="evenodd"/><path fill="#f1c232" d="M828.2 157.5c0-3.7 3.1-6.8 6.9-6.8a6.9 6.9 0 016.8 6.8c0 3.8-3 6.9-6.8 6.9s-6.9-3-6.9-6.9z" fill-rule="evenodd"/><path fill="#000" fill-opacity="0" d="M444.1 339.6H574v54.6H444z" fill-rule="evenodd"/><path fill="#e69138" d="M464.6 385.7v-14.1q0-4.7 1.8-7 1.9-2.3 5.4-2.3 3.6 0 5.7 2.4 2 2.5 2 6.3 0 3.9-2 6.3t-5.3 2.4q-3 0-4.8-2v8h-2.8zm7.3-21q-2 0-3.3 1.5-1.2 1.6-1.2 5 0 3.1 1.2 4.6 1.2 1.6 3.3 1.6 2.1 0 3.5-1.6 1.3-1.6 1.3-4.6 0-3.5-1.4-5t-3.4-1.5zM490.6 366v-2.3h14.5v2.3h-14.5zm0 6.4v-2.3h14.5v2.3h-14.5zM516 373.9v-2h5.7v2H516zm18.8-3.2q0 2-.3 3.7-.3 1.7-1 2.8-.6 1.1-1.7 1.7-1 .6-2.5.6-1.4 0-2.4-.6t-1.7-1.7q-.7-1.1-1-2.8-.4-1.6-.4-3.7 0-2 .3-3.7.3-1.6 1-2.8.6-1.1 1.7-1.7 1-.6 2.5-.6 1.4 0 2.4.6t1.7 1.7q.7 1.2 1 2.8.4 1.6.4 3.7zm-8.8 0q0 1.8.2 3 .2 1.4.5 2.3.4.8 1 1.3.7.4 1.6.4.9 0 1.5-.4.7-.4 1-1.3.5-.9.6-2.2.2-1.3.2-3 0-1.8-.2-3.1-.1-1.4-.5-2.2-.4-.9-1-1.3-.7-.5-1.6-.5-1 0-1.5.5-.7.4-1 1.3-.4.8-.6 2.2-.2 1.3-.2 3zm11.6 7.3l.1-.8.4-.5.4-.2.6-.1h.6l.5.3.3.5.1.8-.1.7-.3.6-.5.3h-1.2l-.4-.3-.4-.6v-.7zm11.1-9.2q1.2 0 2.2.3 1 .3 1.7 1 .8.6 1.2 1.5.4 1 .4 2.2 0 1.4-.4 2.4t-1.2 1.8q-.7.8-1.9 1.2-1.2.3-2.7.3H547q-.6 0-1.1-.2l-1-.3-1-.4v-2l1 .5 1 .3 1.2.3h1.1q1 0 1.6-.2.8-.2 1.3-.7.5-.4.8-1.1.2-.7.2-1.7 0-1.6-1-2.5-1-.9-3-.9h-.7l-.7.1-.7.1-.6.1-1-.7.6-8h8v2h-6.2l-.4 4.8 1-.1 1.4-.1z"/><path fill="#000" fill-opacity="0" d="M781.6 339.6h129.9v54.6H781.6z" fill-rule="evenodd"/><path fill="#f1c232" d="M815.7 385.7v-14.1q0-4.7 2-7 1.8-2.3 5.3-2.3t5.7 2.4q2 2.5 2 6.3 0 3.9-2 6.3t-5.3 2.4q-3 0-4.8-2v8h-2.9zm7.4-21q-2 0-3.3 1.5-1.2 1.6-1.2 5 0 3.1 1.2 4.6 1.2 1.6 3.3 1.6 2.1 0 3.5-1.6 1.3-1.6 1.3-4.6 0-3.5-1.4-5-1.5-1.5-3.4-1.5zM841.8 366v-2.3h14.4v2.3h-14.4zm0 6.4v-2.3h14.4v2.3h-14.4zM878.2 370.7q0 2-.3 3.7-.2 1.7-1 2.8-.6 1.1-1.6 1.7-1 .6-2.6.6-1.3 0-2.4-.6-1-.6-1.7-1.7-.6-1.1-1-2.8-.3-1.6-.3-3.7 0-2 .3-3.7.3-1.6 1-2.8.6-1.1 1.6-1.7 1-.6 2.5-.6t2.5.6q1 .6 1.7 1.7.7 1.2 1 2.8.3 1.6.3 3.7zm-8.7 0l.1 3q.2 1.4.6 2.3.4.8 1 1.3.7.4 1.5.4 1 0 1.6-.4.6-.4 1-1.3t.6-2.2q.2-1.3.2-3 0-1.8-.2-3.1-.2-1.4-.6-2.2-.4-.9-1-1.3-.6-.5-1.6-.5-.8 0-1.5.5-.6.4-1 1.3-.4.8-.6 2.2l-.1 3z"/><path fill="#000" fill-opacity="0" d="M1110 339.6h129.8v54.6h-129.9z" fill-rule="evenodd"/><path fill="#6aa84f" d="M1134.2 385.7v-14.1q0-4.7 1.9-7 1.8-2.3 5.4-2.3 3.5 0 5.6 2.4 2.2 2.5 2.2 6.3 0 3.9-2 6.3t-5.4 2.4q-3 0-4.9-2v8h-2.8zm7.4-21q-2 0-3.3 1.5-1.2 1.6-1.2 5 0 3.1 1.2 4.6 1.2 1.6 3.3 1.6 2.1 0 3.4-1.6 1.4-1.6 1.4-4.6 0-3.5-1.5-5-1.4-1.5-3.3-1.5zM1160.3 366v-2.3h14.4v2.3h-14.4zm0 6.4v-2.3h14.4v2.3h-14.4zM1196.7 370.7q0 2-.3 3.7-.3 1.7-1 2.8-.6 1.1-1.6 1.7-1 .6-2.6.6-1.4 0-2.4-.6t-1.7-1.7q-.7-1.1-1-2.8-.3-1.6-.3-3.7 0-2 .3-3.7.3-1.6 1-2.8.6-1.1 1.6-1.7 1-.6 2.5-.6 1.4 0 2.5.6 1 .6 1.7 1.7.7 1.2 1 2.8.3 1.6.3 3.7zm-8.8 0q0 1.8.2 3 .2 1.4.6 2.3.4.8 1 1.3.6.4 1.5.4 1 0 1.6-.4.6-.4 1-1.3t.6-2.2q.2-1.3.2-3 0-1.8-.2-3.1-.2-1.4-.6-2.2-.4-.9-1-1.3-.7-.5-1.6-.5-.9 0-1.5.5-.6.4-1 1.3-.4.8-.6 2.2-.2 1.3-.2 3zm11.7 7.3v-.8l.4-.5.5-.2.6-.1h.5l.5.3.3.5.2.8q0 .4-.2.7 0 .4-.3.6l-.5.3h-1.1l-.5-.3-.3-.6-.1-.7zm11-9.2q1.2 0 2.2.3 1 .3 1.8 1 .7.6 1.1 1.5.5 1 .5 2.2 0 1.4-.4 2.4t-1.2 1.8q-.8.8-2 1.2-1.1.3-2.6.3h-1.2q-.6 0-1.1-.2l-1-.3q-.5-.1-.9-.4v-2l1 .5 1 .3 1.2.3h1q1 0 1.7-.2t1.2-.7q.5-.4.8-1.1.3-.7.3-1.7 0-1.6-1-2.5-1-.9-3-.9h-.8l-.7.1-.7.1-.6.1-1-.7.6-8h8.1v2h-6.2l-.5 4.8 1-.1 1.5-.1z"/><path fill="#000" fill-opacity="0" d="M1423 402.8h67.5V490H1423z" fill-rule="evenodd"/><path fill="#3c78d8" d="M1451.8 435.2v2.7h-12.3l7.8 8.4-7.8 9.1h13v2.7h-16.3V455l7.5-8.7-7.5-8v-3h15.6zM1463.6 444.8v-2.3h14.4v2.3h-14.4zm0 6.4V449h14.4v2.3h-14.4z"/><path fill="#000" fill-opacity="0" d="M1446 339.6h129.8v54.6h-129.9z" fill-rule="evenodd"/><path fill="#3c78d8" d="M1470.2 385.7v-14.1q0-4.7 1.9-7 1.8-2.3 5.4-2.3 3.5 0 5.6 2.4 2.2 2.5 2.2 6.3 0 3.9-2 6.3t-5.4 2.4q-3 0-4.9-2v8h-2.8zm7.4-21q-2 0-3.3 1.5-1.2 1.6-1.2 5 0 3.1 1.2 4.6 1.2 1.6 3.3 1.6 2.1 0 3.4-1.6 1.4-1.6 1.4-4.6 0-3.5-1.5-5-1.4-1.5-3.3-1.5zM1496.3 366v-2.3h14.4v2.3h-14.4zm0 6.4v-2.3h14.4v2.3h-14.4zM1532.7 370.7q0 2-.3 3.7-.3 1.7-1 2.8-.6 1.1-1.6 1.7-1 .6-2.6.6-1.4 0-2.4-.6t-1.7-1.7q-.7-1.1-1-2.8-.3-1.6-.3-3.7 0-2 .3-3.7.3-1.6 1-2.8.6-1.1 1.6-1.7 1-.6 2.5-.6 1.4 0 2.5.6 1 .6 1.7 1.7.7 1.2 1 2.8.3 1.6.3 3.7zm-8.8 0q0 1.8.2 3 .2 1.4.6 2.3.4.8 1 1.3.6.4 1.5.4 1 0 1.6-.4.6-.4 1-1.3t.6-2.2q.2-1.3.2-3 0-1.8-.2-3.1-.2-1.4-.6-2.2-.4-.9-1-1.3-.7-.5-1.6-.5-.9 0-1.5.5-.6.4-1 1.3-.4.8-.6 2.2-.2 1.3-.2 3zm11.7 7.3v-.8l.4-.5.5-.2.6-.1h.5l.5.3.3.5.2.8q0 .4-.2.7 0 .4-.3.6l-.5.3h-1.1l-.5-.3-.3-.6-.1-.7zm16.7-8.5l-.1 2.4q-.1 1.3-.4 2.4-.3 1-.9 2-.5 1-1.4 1.7-.8.7-2 1.1-1 .4-2.7.4h-1.5l-.5-.2v-1.8q.4.2 1 .2h1q1.6 0 2.6-.5t1.6-1.4q.6-1 .8-2.2.3-1.3.4-2.7h-.2l-.6.8q-.3.4-.7.6l-1 .4q-.6.2-1.3.2-1.1 0-2-.3-1-.4-1.6-1-.6-.7-1-1.7-.3-1-.3-2.2 0-1.3.4-2.4.4-1 1-1.8.7-.8 1.7-1.2 1-.4 2.1-.4 1.2 0 2.2.5 1 .4 1.8 1.4.8 1 1.2 2.3.4 1.5.4 3.4zm-5.5-5.8q-.7 0-1.3.3-.6.2-1 .7l-.7 1.2q-.2.8-.2 1.8 0 .8.2 1.5.2.6.6 1 .4.5 1 .8.5.2 1.3.2t1.4-.3q.7-.2 1.1-.7.5-.4.7-1 .3-.5.3-1.1l-.2-1.6q-.2-.7-.7-1.4-.4-.6-1-1-.7-.4-1.5-.4z"/><path fill="#000" fill-opacity="0" d="M1486.7 412.7h119.9v67.4h-120z" fill-rule="evenodd"/><path fill="#3c78d8" d="M1511.3 440.5h-2.1V427l-2 1.5-2.2 1v-2q1.7-.8 3-2 1.4-1.2 2-2.3h1.3v17.3zm32-8.5q0-3 .7-5 .6-1.8 1.9-2.8 1.2-1 3-1 1.5 0 2.5.6 1 .5 1.7 1.6.7 1 1 2.5.5 1.5.5 4 0 3.1-.7 5-.6 1.8-1.8 2.8-1.2 1-3.1 1-2.5 0-4-1.7-1.6-2.2-1.6-7zm2.2 0q0 4.2 1 5.6 1 1.4 2.5 1.4 1.4 0 2.4-1.4t1-5.6q0-4.3-1-5.6-1-1.4-2.5-1.4-1.4 0-2.3 1.2-1 1.6-1 5.8zm12.4 8.5V438h2.4v2.4h-2.4zm5.8-4l2-.2q.3 1.4 1 2 .7.7 1.9.7 1 0 1.7-.4.7-.5 1.2-1.2l.8-2q.3-1.3.3-2.6v-.4q-.7 1-1.8 1.6-1 .6-2.3.6-2.2 0-3.6-1.5-1.5-1.6-1.5-4 0-2.7 1.5-4.3 1.6-1.6 3.9-1.6 1.7 0 3 1 1.4.8 2.2 2.5.7 1.7.7 4.8 0 3.3-.7 5.3-.8 2-2.2 3-1.4 1-3.3 1-2 0-3.3-1.2-1.2-1-1.5-3.1zm8.6-7.6q0-1.8-1-2.9-.9-1-2.3-1t-2.4 1.1q-1 1.2-1 3 0 1.6 1 2.7 1 1 2.4 1t2.4-1q1-1 1-2.9zM1496.7 461q0-3 .6-5 .6-1.8 1.9-2.8 1.2-1 3-1 1.5 0 2.5.6 1 .5 1.7 1.6.7 1 1 2.5.5 1.5.5 4 0 3.1-.6 5-.7 1.8-1.9 2.8-1.2 1-3.1 1-2.5 0-4-1.7-1.6-2.2-1.6-7zm2.2 0q0 4.2 1 5.6 1 1.4 2.4 1.4t2.4-1.4q1-1.4 1-5.6 0-4.3-1-5.6-1-1.4-2.4-1.4-1.5 0-2.4 1.2-1 1.6-1 5.8zm12.3 8.5V467h2.4v2.4h-2.4zm5.8-4l2-.2q.3 1.4 1 2 .7.7 1.9.7 1 0 1.7-.4.7-.5 1.2-1.2.5-.8.8-2 .3-1.3.3-2.6v-.4q-.7 1-1.7 1.6-1.1.6-2.4.6-2.1 0-3.6-1.5-1.5-1.6-1.5-4 0-2.7 1.5-4.3 1.6-1.6 3.9-1.6 1.7 0 3 1 1.5.8 2.2 2.5.7 1.7.7 4.8 0 3.3-.7 5.3t-2.1 3q-1.5 1-3.4 1-2 0-3.3-1.2-1.2-1-1.5-3.1zm8.7-7.6q0-1.8-1-2.9-1-1-2.3-1-1.5 0-2.5 1.1-1 1.2-1 3 0 1.6 1 2.7 1 1 2.4 1 1.5 0 2.4-1 1-1 1-2.9zm32.3 11.6h-2.1V456l-2 1.5-2.2 1v-2q1.7-.8 3-2 1.4-1.2 2-2.3h1.3v17.3z"/><path fill="#000" fill-opacity="0" d="M1494.6 475.6c-3.3 0-6-.2-6-.5v-57.4l1.7-.3a60 60 0 014.3-.1z" fill-rule="evenodd"/><path fill="#000" fill-opacity="0" d="M1494.6 475.6c-3.3 0-6-.2-6-.5v-57.4l1.7-.3a60 60 0 014.3-.1" fill-rule="evenodd"/><path stroke="#3c78d8" stroke-linejoin="round" stroke-linecap="butt" d="M1494.6 475.6h0c-3.3 0-6-.2-6-.5v-57.4h0l1.7-.3a60 60 0 014.3-.1" fill-rule="evenodd"/><path fill="#000" fill-opacity="0" d="M1579.2 475.6c3.3 0 6-.2 6-.5v-57.4l-1.8-.3a60 60 0 00-4.2-.1z" fill-rule="evenodd"/><path fill="#000" fill-opacity="0" d="M1579.2 475.6c3.3 0 6-.2 6-.5v-57.4l-1.8-.3a60 60 0 00-4.2-.1" fill-rule="evenodd"/><path stroke="#3c78d8" stroke-linejoin="round" stroke-linecap="butt" d="M1579.2 475.6h0c3.3 0 6-.2 6-.5v-57.4h0l-1.8-.3a60 60 0 00-4.2-.1" fill-rule="evenodd"/><path fill="#000" fill-opacity="0" d="M1091 402.8h67.5V490h-67.4z" fill-rule="evenodd"/><path fill="#6aa84f" d="M1119.8 435.2v2.7h-12.3l7.8 8.4-7.8 9.1h13v2.7h-16.3V455l7.5-8.7-7.5-8v-3h15.6zM1131.6 444.8v-2.3h14.5v2.3h-14.5zm0 6.4V449h14.5v2.3h-14.5z"/><path fill="#000" fill-opacity="0" d="M1154.7 412.7h119.9v67.4h-119.9z" fill-rule="evenodd"/><path fill="#6aa84f" d="M1179.3 440.5h-2.1V427l-2 1.5q-1.2.7-2.2 1v-2q1.8-.8 3-2 1.4-1.2 2-2.3h1.3v17.3zm32-8.5q0-3 .7-5 .6-1.8 1.9-2.8 1.2-1 3-1 1.5 0 2.5.6 1 .5 1.7 1.6.7 1 1.1 2.5.4 1.5.4 4 0 3.1-.6 5-.7 1.8-1.9 2.8-1.2 1-3.1 1-2.5 0-4-1.7-1.6-2.2-1.6-7zm2.3 0q0 4.2 1 5.6 1 1.4 2.4 1.4t2.4-1.4q1-1.4 1-5.6 0-4.3-1-5.6-1-1.4-2.4-1.4-1.5 0-2.4 1.2-1 1.6-1 5.8zm12.3 8.5V438h2.4v2.4h-2.4zm5.5-4.5l2.2-.2q.3 1.6 1.1 2.4 1 .8 2.2.8 1.5 0 2.6-1.1 1-1.2 1-3 0-1.9-1-3-1-1-2.6-1-1 0-1.9.5-.8.5-1.2 1.2l-2-.3 1.6-8.8h8.6v2h-6.9l-.9 4.7q1.5-1.1 3.2-1.1 2.3 0 3.8 1.5 1.6 1.6 1.6 4t-1.4 4q-1.6 2.2-4.5 2.2-2.3 0-3.8-1.4-1.5-1.3-1.7-3.4zM1164.7 461q0-3 .6-5 .6-1.8 1.9-2.8 1.2-1 3-1 1.5 0 2.5.6 1 .5 1.7 1.6.7 1 1.1 2.5.4 1.5.4 4 0 3.1-.6 5-.6 1.8-1.9 2.8-1.2 1-3.1 1-2.5 0-3.9-1.7-1.7-2.2-1.7-7zm2.2 0q0 4.2 1 5.6 1 1.4 2.4 1.4t2.4-1.4q1-1.4 1-5.6 0-4.3-1-5.6-1-1.4-2.4-1.4-1.5 0-2.4 1.2-1 1.6-1 5.8zm12.3 8.5V467h2.4v2.4h-2.4zm5.5-4.5l2.2-.2q.3 1.6 1.2 2.4.9.8 2.1.8 1.6 0 2.6-1.1 1-1.2 1-3 0-1.9-1-3-1-1-2.6-1-1 0-1.8.5-.9.5-1.3 1.2l-2-.3 1.6-8.8h8.6v2h-6.9l-.9 4.7q1.6-1.1 3.3-1.1 2.2 0 3.8 1.5 1.5 1.6 1.5 4t-1.4 4q-1.6 2.2-4.5 2.2-2.3 0-3.8-1.4-1.5-1.3-1.7-3.4zm41.3 4.5h-2.1V456l-2 1.5q-1.2.7-2.2 1v-2q1.8-.8 3-2 1.4-1.2 2-2.3h1.3v17.3z"/><path fill="#000" fill-opacity="0" d="M1162.6 475.6c-3.3 0-6-.2-6-.5v-57.4l1.7-.3a60 60 0 014.3-.1z" fill-rule="evenodd"/><path fill="#000" fill-opacity="0" d="M1162.6 475.6c-3.3 0-6-.2-6-.5v-57.4l1.7-.3a60 60 0 014.3-.1" fill-rule="evenodd"/><path stroke="#6aa84f" stroke-linejoin="round" stroke-linecap="butt" d="M1162.6 475.6h0c-3.3 0-6-.2-6-.5v-57.4h0l1.7-.3a60 60 0 014.3-.1" fill-rule="evenodd"/><path fill="#000" fill-opacity="0" d="M1247.2 475.6c3.3 0 6-.2 6-.5v-57.4l-1.7-.3a60 60 0 00-4.3-.1z" fill-rule="evenodd"/><path fill="#000" fill-opacity="0" d="M1247.2 475.6c3.3 0 6-.2 6-.5v-57.4l-1.7-.3a60 60 0 00-4.3-.1" fill-rule="evenodd"/><path stroke="#6aa84f" stroke-linejoin="round" stroke-linecap="butt" d="M1247.2 475.6h0c3.3 0 6-.2 6-.5v-57.4h0l-1.7-.3a60 60 0 00-4.3-.1" fill-rule="evenodd"/><path fill="#000" fill-opacity="0" d="M779.7 402.8h67.5V490h-67.5z" fill-rule="evenodd"/><path fill="#f1c232" d="M808.5 435.2v2.7h-12.3l7.8 8.4-7.8 9.1h13v2.7h-16.3V455l7.5-8.7-7.5-8v-3h15.6zM820.3 444.8v-2.3h14.4v2.3h-14.4zm0 6.4V449h14.4v2.3h-14.4z"/><path fill="#000" fill-opacity="0" d="M843.4 412.7h119.9v67.4h-120z" fill-rule="evenodd"/><path fill="#f1c232" d="M861.3 440.5h-2.1V427l-2 1.5-2.2 1v-2q1.7-.8 3-2 1.4-1.2 2-2.3h1.3v17.3zm25.4-8.5q0-3 .6-5 .7-1.8 1.9-2.8 1.2-1 3.1-1 1.4 0 2.4.6 1 .5 1.7 1.6.7 1 1.1 2.5.4 1.5.4 4 0 3.1-.6 5-.6 1.8-1.9 2.8-1.2 1-3.1 1-2.5 0-3.9-1.7-1.7-2.2-1.7-7zm2.2 0q0 4.2 1 5.6 1 1.4 2.4 1.4 1.5 0 2.4-1.4 1-1.4 1-5.6 0-4.3-1-5.6-1-1.4-2.4-1.4-1.5 0-2.3 1.2-1.1 1.6-1.1 5.8zM853.4 461q0-3 .6-5 .6-1.8 1.8-2.8 1.3-1 3.1-1 1.4 0 2.5.6 1 .5 1.7 1.6.7 1 1 2.5.5 1.5.5 4 0 3.1-.7 5-.6 1.8-1.8 2.8-1.3 1-3.2 1-2.4 0-3.8-1.7-1.7-2.2-1.7-7zm2.1 0q0 4.2 1 5.6 1 1.4 2.4 1.4 1.5 0 2.5-1.4t1-5.6q0-4.3-1-5.6-1-1.4-2.5-1.4-1.4 0-2.3 1.2-1 1.6-1 5.8zm39.1 8.5h-2V456l-2 1.5q-1.3.7-2.3 1v-2q1.8-.8 3.1-2t1.9-2.3h1.3v17.3z"/><path fill="#000" fill-opacity="0" d="M851.3 475.6c-3.4 0-6-.2-6-.5v-57.4l1.7-.3a60 60 0 014.3-.1z" fill-rule="evenodd"/><path fill="#000" fill-opacity="0" d="M851.3 475.6c-3.4 0-6-.2-6-.5v-57.4l1.7-.3a60 60 0 014.3-.1" fill-rule="evenodd"/><path stroke="#f1c232" stroke-linejoin="round" stroke-linecap="butt" d="M851.3 475.6h0c-3.4 0-6-.2-6-.5v-57.4h0l1.7-.3a60 60 0 014.3-.1" fill-rule="evenodd"/><path fill="#000" fill-opacity="0" d="M903.8 475.6c3.4 0 6-.2 6-.5v-57.4l-1.7-.3a60 60 0 00-4.3-.1z" fill-rule="evenodd"/><path fill="#000" fill-opacity="0" d="M903.8 475.6c3.4 0 6-.2 6-.5v-57.4l-1.7-.3a60 60 0 00-4.3-.1" fill-rule="evenodd"/><path stroke="#f1c232" stroke-linejoin="round" stroke-linecap="butt" d="M903.8 475.6h0c3.4 0 6-.2 6-.5v-57.4h0l-1.7-.3a60 60 0 00-4.3-.1" fill-rule="evenodd"/><path fill="#000" fill-opacity="0" d="M412.9 402.8h67.4V490H413z" fill-rule="evenodd"/><path fill="#e69138" d="M441.6 435.2v2.7h-12.3l7.8 8.4-7.8 9.1h13v2.7H426V455l7.5-8.7-7.5-8v-3h15.6zM453.4 444.8v-2.3H468v2.3h-14.5zm0 6.4V449H468v2.3h-14.5z"/><path fill="#000" fill-opacity="0" d="M476.5 412.7h120v67.4h-120z" fill-rule="evenodd"/><path fill="#e69138" d="M501.1 440.5H499V427q-.7.7-2 1.5-1.2.7-2.2 1v-2q1.8-.8 3-2 1.4-1.2 2-2.3h1.3v17.3zm31.9-5.2v-2.1h6.4v2.1H533zm8.2-3.3q0-3 .6-5 .6-1.8 1.9-2.8 1.2-1 3-1 1.5 0 2.5.6 1 .5 1.7 1.6.7 1 1.1 2.5.4 1.5.4 4 0 3.1-.6 5-.7 1.8-1.9 2.8-1.2 1-3.1 1-2.5 0-4-1.7-1.6-2.2-1.6-7zm2.2 0q0 4.2 1 5.6 1 1.4 2.4 1.4t2.4-1.4q1-1.4 1-5.6 0-4.3-1-5.6-1-1.4-2.4-1.4-1.5 0-2.4 1.2-1 1.6-1 5.8zm12.3 8.5V438h2.4v2.4h-2.4zm5.5-4.5l2.2-.2q.3 1.6 1.1 2.4 1 .8 2.2.8 1.5 0 2.6-1.1 1-1.2 1-3 0-1.9-1-3-1-1-2.6-1-1 0-1.9.5-.8.5-1.2 1.2l-2-.3 1.6-8.8h8.6v2h-6.9l-.9 4.7q1.5-1.1 3.2-1.1 2.3 0 3.8 1.5 1.6 1.6 1.6 4t-1.4 4q-1.6 2.2-4.5 2.2-2.3 0-3.8-1.4-1.5-1.3-1.7-3.4zM486.3 464.3v-2.1h6.5v2.1h-6.5zm8.2-3.3q0-3 .6-5 .6-1.8 1.9-2.8 1.2-1 3-1 1.5 0 2.5.6 1 .5 1.7 1.6.7 1 1.1 2.5.4 1.5.4 4 0 3.1-.6 5-.7 1.8-1.9 2.8-1.2 1-3.1 1-2.5 0-3.9-1.7-1.7-2.2-1.7-7zm2.2 0q0 4.2 1 5.6 1 1.4 2.4 1.4t2.4-1.4q1-1.4 1-5.6 0-4.3-1-5.6-1-1.4-2.4-1.4-1.5 0-2.4 1.2-1 1.6-1 5.8zm12.3 8.5V467h2.4v2.4H509zm5.5-4.5l2.2-.2q.3 1.6 1.2 2.4.9.8 2.1.8 1.6 0 2.6-1.1 1-1.2 1-3 0-1.9-1-3-1-1-2.6-1-1 0-1.8.5-.9.5-1.3 1.2l-2-.3 1.6-8.8h8.6v2h-6.9l-.9 4.7q1.6-1.1 3.3-1.1 2.2 0 3.8 1.5 1.5 1.6 1.5 4t-1.4 4q-1.6 2.2-4.5 2.2-2.3 0-3.8-1.4-1.5-1.3-1.7-3.4zm41.3 4.5h-2.1V456l-2 1.5q-1.2.7-2.2 1v-2q1.8-.8 3-2 1.4-1.2 2-2.3h1.3v17.3z"/><path fill="#000" fill-opacity="0" d="M484.4 475.6c-3.3 0-6-.2-6-.5v-57.4l1.8-.3a60 60 0 014.2-.1z" fill-rule="evenodd"/><path fill="#000" fill-opacity="0" d="M484.4 475.6c-3.3 0-6-.2-6-.5v-57.4l1.8-.3a60 60 0 014.2-.1" fill-rule="evenodd"/><path stroke="#e69138" stroke-linejoin="round" stroke-linecap="butt" d="M484.4 475.6h0c-3.3 0-6-.2-6-.5v-57.4h0l1.8-.3a60 60 0 014.2-.1" fill-rule="evenodd"/><path fill="#000" fill-opacity="0" d="M577 475.6c3.3 0 6-.2 6-.5v-57.4l-1.7-.3a60 60 0 00-4.3-.1z" fill-rule="evenodd"/><path fill="#000" fill-opacity="0" d="M577 475.6c3.3 0 6-.2 6-.5v-57.4l-1.7-.3a60 60 0 00-4.3-.1" fill-rule="evenodd"/><path stroke="#e69138" stroke-linejoin="round" stroke-linecap="butt" d="M577 475.6h0c3.3 0 6-.2 6-.5v-57.4h0l-1.7-.3a60 60 0 00-4.3-.1" fill-rule="evenodd"/><path fill="#000" fill-opacity="0" d="M79 402.8h67.5V490H79z" fill-rule="evenodd"/><path fill="#c00" d="M107.8 435.2v2.7H95.5l7.8 8.4-7.8 9.1h13v2.7H92.1V455l7.5-8.7-7.5-8v-3h15.6zM119.6 444.8v-2.3H134v2.3h-14.4zm0 6.4V449H134v2.3h-14.4z"/><path fill="#000" fill-opacity="0" d="M142.7 412.7h119.9v67.4h-120z" fill-rule="evenodd"/><path fill="#c00" d="M167.3 440.5h-2.1V427l-2 1.5-2.2 1v-2q1.7-.8 3-2 1.4-1.2 2-2.3h1.3v17.3zm31.8-5.2v-2.1h6.5v2.1h-6.5zm8.3-3.3q0-3 .6-5 .6-1.8 1.8-2.8 1.3-1 3.2-1 1.3 0 2.4.6 1 .5 1.7 1.6.7 1 1 2.5.5 1.5.5 4 0 3.1-.7 5-.6 1.8-1.8 2.8-1.3 1-3.1 1-2.5 0-4-1.7-1.6-2.2-1.6-7zm2.1 0q0 4.2 1 5.6 1 1.4 2.5 1.4 1.4 0 2.4-1.4t1-5.6q0-4.3-1-5.6-1-1.4-2.5-1.4-1.4 0-2.3 1.2-1 1.6-1 5.8zm12.4 8.5V438h2.4v2.4h-2.4zm5.8-4l2-.2q.3 1.4 1 2 .7.7 1.9.7 1 0 1.7-.4.7-.5 1.2-1.2l.8-2q.3-1.3.3-2.6v-.4q-.7 1-1.8 1.6-1 .6-2.3.6-2.2 0-3.7-1.5-1.4-1.6-1.4-4 0-2.7 1.5-4.3 1.6-1.6 3.9-1.6 1.7 0 3 1 1.4.8 2.2 2.5.7 1.7.7 4.8 0 3.3-.7 5.3-.8 2-2.2 3-1.4 1-3.3 1-2 0-3.3-1.2-1.2-1-1.5-3.1zm8.6-7.6q0-1.8-1-2.9-1-1-2.3-1-1.4 0-2.4 1.1-1 1.2-1 3 0 1.6 1 2.7 1 1 2.4 1t2.4-1q1-1 1-2.9zM152.4 464.3v-2.1h6.5v2.1h-6.5zm8.3-3.3q0-3 .6-5 .6-1.8 1.9-2.8 1.2-1 3-1 1.5 0 2.5.6 1 .5 1.7 1.6.7 1 1 2.5.5 1.5.5 4 0 3.1-.6 5-.7 1.8-2 2.8-1.1 1-3 1-2.5 0-4-1.7-1.6-2.2-1.6-7zm2.1 0q0 4.2 1 5.6 1 1.4 2.5 1.4 1.4 0 2.4-1.4t1-5.6q0-4.3-1-5.6-1-1.4-2.4-1.4-1.5 0-2.4 1.2-1 1.6-1 5.8zm12.4 8.5V467h2.4v2.4h-2.4zm5.8-4l2-.2q.3 1.4 1 2 .7.7 1.9.7 1 0 1.7-.4.7-.5 1.2-1.2.5-.8.8-2 .3-1.3.3-2.6v-.4q-.7 1-1.8 1.6-1 .6-2.3.6-2.2 0-3.6-1.5-1.5-1.6-1.5-4 0-2.7 1.5-4.3 1.6-1.6 3.9-1.6 1.7 0 3 1 1.4.8 2.2 2.5.7 1.7.7 4.8 0 3.3-.7 5.3-.8 2-2.2 3-1.4 1-3.3 1-2 0-3.3-1.2-1.2-1-1.5-3.1zm8.6-7.6q0-1.8-1-2.9-.9-1-2.3-1T184 455q-1 1.2-1 3 0 1.6 1 2.7 1 1 2.4 1 1.5 0 2.4-1 1-1 1-2.9zm32.4 11.6h-2.1V456l-2 1.5-2.2 1v-2q1.7-.8 3-2 1.4-1.2 2-2.3h1.3v17.3z"/><path fill="#000" fill-opacity="0" d="M150.6 475.6c-3.3 0-6-.2-6-.5v-57.4l1.7-.3a60 60 0 014.3-.1z" fill-rule="evenodd"/><path fill="#000" fill-opacity="0" d="M150.6 475.6c-3.3 0-6-.2-6-.5v-57.4l1.7-.3a60 60 0 014.3-.1" fill-rule="evenodd"/><path stroke="#c00" stroke-linejoin="round" stroke-linecap="butt" d="M150.6 475.6h0c-3.3 0-6-.2-6-.5v-57.4h0l1.7-.3a60 60 0 014.3-.1" fill-rule="evenodd"/><path fill="#000" fill-opacity="0" d="M243.2 475.6c3.3 0 6-.2 6-.5v-57.4l-1.8-.3a60 60 0 00-4.2-.1z" fill-rule="evenodd"/><path fill="#000" fill-opacity="0" d="M243.2 475.6c3.3 0 6-.2 6-.5v-57.4l-1.8-.3a60 60 0 00-4.2-.1" fill-rule="evenodd"/><path stroke="#c00" stroke-linejoin="round" stroke-linecap="butt" d="M243.2 475.6h0c3.3 0 6-.2 6-.5v-57.4h0l-1.8-.3a60 60 0 00-4.2-.1" fill-rule="evenodd"/><path fill="#f1c232" d="M844.2 173.5c0-3.7 3.1-6.8 6.9-6.8a6.9 6.9 0 016.8 6.8c0 3.8-3 6.9-6.8 6.9s-6.9-3-6.9-6.9zM860.2 205.5c0-3.7 3.1-6.8 6.9-6.8a6.9 6.9 0 016.8 6.8c0 3.8-3 6.9-6.8 6.9s-6.9-3-6.9-6.9zM884.2 93.5c0-3.7 3.1-6.8 6.9-6.8a6.9 6.9 0 016.8 6.8c0 3.8-3 6.9-6.8 6.9s-6.9-3-6.9-6.9zM804.2 101.5c0-3.7 3.1-6.8 6.9-6.8a6.9 6.9 0 016.8 6.8c0 3.8-3 6.9-6.8 6.9s-6.9-3-6.9-6.9zM804.2 189.5c0-3.7 3.1-6.8 6.9-6.8a6.9 6.9 0 016.8 6.8c0 3.8-3 6.9-6.8 6.9s-6.9-3-6.9-6.9zM836.2 253.5c0-3.7 3.1-6.8 6.9-6.8a6.9 6.9 0 016.8 6.8c0 3.8-3 6.9-6.8 6.9s-6.9-3-6.9-6.9zM756.2 221.5c0-3.7 3.1-6.8 6.9-6.8a6.9 6.9 0 016.8 6.8c0 3.8-3 6.9-6.8 6.9s-6.9-3-6.9-6.9zM924.2 181.5c0-3.7 3.1-6.8 6.9-6.8a6.9 6.9 0 016.8 6.8c0 3.8-3 6.9-6.8 6.9s-6.9-3-6.9-6.9zM756.2 125.5c0-3.7 3.1-6.8 6.9-6.8a6.9 6.9 0 016.8 6.8c0 3.8-3 6.9-6.8 6.9s-6.9-3-6.9-6.9zM852.2 125.5c0-3.7 3.1-6.8 6.9-6.8a6.9 6.9 0 016.8 6.8c0 3.8-3 6.9-6.8 6.9s-6.9-3-6.9-6.9z" fill-rule="evenodd"/></g></svg>