<svg version="1.1" viewBox="0.0 0.0 1677.732283464567 495.7742782152231" fill="none" stroke="none" stroke-linecap="square" stroke-miterlimit="10" xmlns:xlink="http://www.w3.org/1999/xlink" xmlns="http://www.w3.org/2000/svg"><clipPath id="p.0"><path d="m0 0l1677.7323 0l0 495.7743l-1677.7323 0l0 -495.7743z" clip-rule="nonzero"/></clipPath><g clip-path="url(#p.0)"><path fill="#000000" fill-opacity="0.0" d="m0 0l1677.7323 0l0 495.7743l-1677.7323 0z" fill-rule="evenodd"/><path fill="#000000" fill-opacity="0.0" d="m26.493439 316.0525l0 -294.01575" fill-rule="evenodd"/><path stroke="#000000" stroke-width="3.0" stroke-linejoin="round" stroke-linecap="butt" d="m26.493439 316.0525l0 -276.01575" fill-rule="evenodd"/><path fill="#000000" stroke="#000000" stroke-width="3.0" stroke-linecap="butt" d="m31.448635 40.036743l-4.9551964 -13.61429l-4.9551983 13.61429z" fill-rule="evenodd"/><path fill="#000000" fill-opacity="0.0" d="m26.028742 315.5878l294.01575 0" fill-rule="evenodd"/><path stroke="#000000" stroke-width="3.0" stroke-linejoin="round" stroke-linecap="butt" d="m26.02874 315.5878l276.01575 0" fill-rule="evenodd"/><path fill="#000000" stroke="#000000" stroke-width="3.0" stroke-linecap="butt" d="m302.0445 320.543l13.614288 -4.9552l-13.614288 -4.9552z" fill-rule="evenodd"/><path fill="#cc0000" d="m104.937004 109.54068l0 0c0 -3.7833633 3.0670319 -6.8503876 6.850395 -6.8503876l0 0c1.8168411 0 3.5592651 0.7217331 4.8439636 2.0064316c1.2846985 1.2846985 2.0064316 3.0271225 2.0064316 4.843956l0 0c0 3.783371 -3.0670242 6.850395 -6.850395 6.850395l0 0c-3.7833633 0 -6.850395 -3.0670242 -6.850395 -6.850395z" fill-rule="evenodd"/><path fill="#000000" fill-opacity="0.0" d="m108.12861 339.58792l129.85828 0l0 54.64566l-129.85828 0z" fill-rule="evenodd"/><path fill="#cc0000" d="m128.58118 385.6673l0 -14.078125q0 -4.71875 1.859375 -6.984375q1.859375 -2.265625 5.40625 -2.265625q3.53125 0 5.640625 2.40625q2.125 2.40625 2.125 6.25q0 3.859375 -2.03125 6.28125q-2.015625 2.40625 -5.3125 2.40625q-3.078125 0 -4.875 -1.953125l0 7.9375l-2.8125 0zm7.359375 -21.0q-2.046875 0 -3.28125 1.578125q-1.234375 1.5625 -1.234375 4.984375q0 3.078125 1.21875 4.609375q1.21875 1.53125 3.3125 1.53125q2.109375 0 3.4375 -1.578125q1.328125 -1.59375 1.328125 -4.640625q0 -3.46875 -1.421875 -4.96875q-1.421875 -1.515625 -3.359375 -1.515625z" fill-rule="nonzero"/><path fill="#cc0000" d="m154.64368 365.99542l0 -2.328125l14.4375 0l0 2.328125l-14.4375 0zm0 6.40625l0 -2.34375l14.4375 0l0 2.34375l-14.4375 0z" fill-rule="nonzero"/><path fill="#cc0000" d="m179.95619 373.8548l0 -1.96875l5.8125 0l0 1.96875l-5.8125 0zm18.847656 -3.140625q0 2.078125 -0.296875 3.71875q-0.296875 1.640625 -0.96875 2.78125q-0.65625 1.125 -1.703125 1.734375q-1.03125 0.59375 -2.53125 0.59375q-1.375 0 -2.40625 -0.59375q-1.015625 -0.609375 -1.703125 -1.734375q-0.671875 -1.140625 -1.0 -2.78125q-0.328125 -1.640625 -0.328125 -3.71875q0 -2.078125 0.296875 -3.71875q0.296875 -1.640625 0.9375 -2.765625q0.65625 -1.125 1.6875 -1.71875q1.046875 -0.609375 2.515625 -0.609375q1.40625 0 2.4375 0.59375q1.03125 0.59375 1.703125 1.734375q0.6875 1.125 1.015625 2.765625q0.34375 1.640625 0.34375 3.71875zm-8.78125 0q0 1.765625 0.171875 3.078125q0.1875 1.3125 0.5625 2.1875q0.390625 0.859375 1.015625 1.3125q0.640625 0.4375 1.53125 0.4375q0.90625 0 1.53125 -0.4375q0.640625 -0.4375 1.046875 -1.296875q0.40625 -0.875 0.578125 -2.1875q0.1875 -1.328125 0.1875 -3.09375q0 -1.75 -0.1875 -3.0625q-0.171875 -1.3125 -0.578125 -2.171875q-0.40625 -0.875 -1.046875 -1.3125q-0.625 -0.4375 -1.53125 -0.4375q-0.890625 0 -1.53125 0.4375q-0.625 0.4375 -1.015625 1.3125q-0.375 0.859375 -0.5625 2.171875q-0.171875 1.3125 -0.171875 3.0625zm11.625 7.296875q0 -0.453125 0.109375 -0.765625q0.125 -0.3125 0.328125 -0.5q0.203125 -0.1875 0.46875 -0.28125q0.265625 -0.09375 0.59375 -0.09375q0.296875 0 0.5625 0.09375q0.28125 0.09375 0.484375 0.28125q0.203125 0.1875 0.3125 0.5q0.125 0.3125 0.125 0.765625q0 0.421875 -0.125 0.734375q-0.109375 0.3125 -0.3125 0.515625q-0.203125 0.203125 -0.484375 0.296875q-0.265625 0.09375 -0.5625 0.09375q-0.328125 0 -0.59375 -0.09375q-0.265625 -0.09375 -0.46875 -0.296875q-0.203125 -0.203125 -0.328125 -0.515625q-0.109375 -0.3125 -0.109375 -0.734375zm16.761719 -8.53125q0 1.234375 -0.125 2.46875q-0.125 1.21875 -0.4375 2.328125q-0.296875 1.109375 -0.84375 2.078125q-0.53125 0.96875 -1.375 1.671875q-0.828125 0.703125 -1.984375 1.109375q-1.15625 0.40625 -2.71875 0.40625q-0.21875 0 -0.5 -0.015625q-0.265625 0 -0.53125 -0.03125q-0.265625 -0.03125 -0.53125 -0.078125q-0.25 -0.03125 -0.453125 -0.078125l0 -1.84375q0.40625 0.15625 0.921875 0.234375q0.515625 0.0625 1.015625 0.0625q1.59375 0 2.609375 -0.546875q1.015625 -0.546875 1.609375 -1.484375q0.609375 -0.953125 0.859375 -2.203125q0.25 -1.265625 0.3125 -2.65625l-0.15625 0q-0.234375 0.421875 -0.5625 0.796875q-0.328125 0.359375 -0.78125 0.625q-0.4375 0.265625 -1.0 0.421875q-0.5625 0.15625 -1.25 0.15625q-1.125 0 -2.03125 -0.34375q-0.890625 -0.359375 -1.53125 -1.015625q-0.625 -0.671875 -0.96875 -1.640625q-0.34375 -0.96875 -0.34375 -2.203125q0 -1.34375 0.359375 -2.40625q0.375 -1.078125 1.046875 -1.8125q0.671875 -0.75 1.640625 -1.140625q0.96875 -0.40625 2.15625 -0.40625q1.1875 0 2.203125 0.453125q1.03125 0.453125 1.78125 1.390625q0.75 0.9375 1.171875 2.359375q0.4375 1.421875 0.4375 3.34375zm-5.5625 -5.75q-0.703125 0 -1.28125 0.234375q-0.578125 0.234375 -1.0 0.734375q-0.421875 0.484375 -0.65625 1.234375q-0.234375 0.734375 -0.234375 1.765625q0 0.8125 0.1875 1.46875q0.203125 0.640625 0.59375 1.109375q0.390625 0.453125 0.96875 0.703125q0.578125 0.234375 1.34375 0.234375q0.796875 0 1.4375 -0.265625q0.65625 -0.28125 1.109375 -0.71875q0.453125 -0.4375 0.703125 -1.0q0.265625 -0.5625 0.265625 -1.125q0 -0.78125 -0.21875 -1.5625q-0.21875 -0.78125 -0.65625 -1.40625q-0.421875 -0.625 -1.0625 -1.015625q-0.640625 -0.390625 -1.5 -0.390625z" fill-rule="nonzero"/><path fill="#000000" fill-opacity="0.0" d="m735.5407 169.04462l0 0c0 -60.473 49.02301 -109.49606 109.49603 -109.49606l0 0c29.040161 0 56.89093 11.5361595 77.425415 32.070652c20.534485 20.5345 32.07068 48.385246 32.07068 77.42541l0 0c0 60.473007 -49.02307 109.49606 -109.49609 109.49606l0 0c-60.473022 0 -109.49603 -49.023056 -109.49603 -109.49606z" fill-rule="evenodd"/><path stroke="#fff2cc" stroke-width="3.0" stroke-linejoin="round" stroke-linecap="butt" d="m735.5407 169.04462l0 0c0 -60.473 49.02301 -109.49606 109.49603 -109.49606l0 0c29.040161 0 56.89093 11.5361595 77.425415 32.070652c20.534485 20.5345 32.07068 48.385246 32.07068 77.42541l0 0c0 60.473007 -49.02307 109.49606 -109.49609 109.49606l0 0c-60.473022 0 -109.49603 -49.023056 -109.49603 -109.49606z" fill-rule="evenodd"/><path fill="#000000" fill-opacity="0.0" d="m775.4619 169.04462l0 0c0 -38.425095 31.14972 -69.5748 69.57483 -69.5748l0 0c18.452393 0 36.148987 7.3301773 49.19684 20.377983c13.047791 13.047813 20.37799 30.744438 20.37799 49.196815l0 0c0 38.42511 -31.14972 69.5748 -69.57483 69.5748l0 0c-38.42511 0 -69.57483 -31.149689 -69.57483 -69.5748z" fill-rule="evenodd"/><path stroke="#ffe599" stroke-width="3.0" stroke-linejoin="round" stroke-linecap="butt" d="m775.4619 169.04462l0 0c0 -38.425095 31.14972 -69.5748 69.57483 -69.5748l0 0c18.452393 0 36.148987 7.3301773 49.19684 20.377983c13.047791 13.047813 20.37799 30.744438 20.37799 49.196815l0 0c0 38.42511 -31.14972 69.5748 -69.57483 69.5748l0 0c-38.42511 0 -69.57483 -31.149689 -69.57483 -69.5748z" fill-rule="evenodd"/><path fill="#000000" fill-opacity="0.0" d="m815.8924 169.05249l0 0c0 -16.098877 13.04364 -29.149597 29.13385 -29.149597l0 0c7.7268066 0 15.137085 3.071106 20.600769 8.53772c5.463623 5.466614 8.533081 12.88092 8.533081 20.611877l0 0c0 16.098892 -13.04364 29.149612 -29.13385 29.149612l0 0c-16.09021 0 -29.13385 -13.05072 -29.13385 -29.149612z" fill-rule="evenodd"/><path stroke="#ffd966" stroke-width="3.0" stroke-linejoin="round" stroke-linecap="butt" d="m815.8924 169.05249l0 0c0 -16.098877 13.04364 -29.149597 29.13385 -29.149597l0 0c7.7268066 0 15.137085 3.071106 20.600769 8.53772c5.463623 5.466614 8.533081 12.88092 8.533081 20.611877l0 0c0 16.098892 -13.04364 29.149612 -29.13385 29.149612l0 0c-16.09021 0 -29.13385 -13.05072 -29.13385 -29.149612z" fill-rule="evenodd"/><path fill="#000000" fill-opacity="0.0" d="m362.49344 316.0525l0 -294.01575" fill-rule="evenodd"/><path stroke="#000000" stroke-width="3.0" stroke-linejoin="round" stroke-linecap="butt" d="m362.49344 316.0525l0 -276.01575" fill-rule="evenodd"/><path fill="#000000" stroke="#000000" stroke-width="3.0" stroke-linecap="butt" d="m367.44864 40.036743l-4.9552 -13.61429l-4.9552 13.61429z" fill-rule="evenodd"/><path fill="#000000" fill-opacity="0.0" d="m362.02875 315.5878l294.01575 0" fill-rule="evenodd"/><path stroke="#000000" stroke-width="3.0" stroke-linejoin="round" stroke-linecap="butt" d="m362.02875 315.5878l276.01575 0" fill-rule="evenodd"/><path fill="#000000" stroke="#000000" stroke-width="3.0" stroke-linecap="butt" d="m638.0445 320.543l13.614319 -4.9552l-13.614319 -4.9552z" fill-rule="evenodd"/><path fill="#000000" fill-opacity="0.0" d="m698.4934 316.0525l0 -294.01575" fill-rule="evenodd"/><path stroke="#000000" stroke-width="3.0" stroke-linejoin="round" stroke-linecap="butt" d="m698.4934 316.0525l0 -276.01575" fill-rule="evenodd"/><path fill="#000000" stroke="#000000" stroke-width="3.0" stroke-linecap="butt" d="m703.4486 40.036743l-4.9552 -13.61429l-4.955139 13.61429z" fill-rule="evenodd"/><path fill="#000000" fill-opacity="0.0" d="m698.02875 315.5878l294.01575 0" fill-rule="evenodd"/><path stroke="#000000" stroke-width="3.0" stroke-linejoin="round" stroke-linecap="butt" d="m698.0287 315.5878l276.01575 0" fill-rule="evenodd"/><path fill="#000000" stroke="#000000" stroke-width="3.0" stroke-linecap="butt" d="m974.04443 320.543l13.614319 -4.9552l-13.614319 -4.9552z" fill-rule="evenodd"/><path fill="#000000" fill-opacity="0.0" d="m1034.4934 316.0525l0 -294.01575" fill-rule="evenodd"/><path stroke="#000000" stroke-width="3.0" stroke-linejoin="round" stroke-linecap="butt" d="m1034.4934 316.0525l0 -276.01575" fill-rule="evenodd"/><path fill="#000000" stroke="#000000" stroke-width="3.0" stroke-linecap="butt" d="m1039.4486 40.036743l-4.9552 -13.61429l-4.9552 13.61429z" fill-rule="evenodd"/><path fill="#000000" fill-opacity="0.0" d="m1034.0287 315.5878l294.01575 0" fill-rule="evenodd"/><path stroke="#000000" stroke-width="3.0" stroke-linejoin="round" stroke-linecap="butt" d="m1034.0287 315.5878l276.01575 0" fill-rule="evenodd"/><path fill="#000000" stroke="#000000" stroke-width="3.0" stroke-linecap="butt" d="m1310.0444 320.543l13.614258 -4.9552l-13.614258 -4.9552z" fill-rule="evenodd"/><path fill="#000000" fill-opacity="0.0" d="m1370.4934 316.0525l0 -294.01575" fill-rule="evenodd"/><path stroke="#000000" stroke-width="3.0" stroke-linejoin="round" stroke-linecap="butt" d="m1370.4934 316.0525l0 -276.01575" fill-rule="evenodd"/><path fill="#000000" stroke="#000000" stroke-width="3.0" stroke-linecap="butt" d="m1375.4486 40.036743l-4.9552 -13.61429l-4.9552 13.61429z" fill-rule="evenodd"/><path fill="#000000" fill-opacity="0.0" d="m1370.0287 315.5878l294.01575 0" fill-rule="evenodd"/><path stroke="#000000" stroke-width="3.0" stroke-linejoin="round" stroke-linecap="butt" d="m1370.0287 315.5878l276.01575 0" fill-rule="evenodd"/><path fill="#000000" stroke="#000000" stroke-width="3.0" stroke-linecap="butt" d="m1646.0444 320.543l13.614258 -4.9552l-13.614258 -4.9552z" fill-rule="evenodd"/><path fill="#000000" fill-opacity="0.0" d="m459.8476 218.2491l0 0c-42.765106 -42.765106 -55.40689 -99.45925 -28.236237 -126.62992l0 0c13.047821 -13.047821 33.71933 -17.40313 57.46707 -12.107811c23.74768 5.2953186 48.626343 19.807503 69.16284 40.344025l0 0c42.765137 42.765106 55.40692 99.45926 28.236267 126.62993l0 0c-27.170715 27.170654 -83.86484 14.52887 -126.629944 -28.236221z" fill-rule="evenodd"/><path stroke="#fce5cd" stroke-width="3.0" stroke-linejoin="round" stroke-linecap="butt" d="m459.8476 218.2491l0 0c-42.765106 -42.765106 -55.40689 -99.45925 -28.236237 -126.62992l0 0c13.047821 -13.047821 33.71933 -17.40313 57.46707 -12.107811c23.74768 5.2953186 48.626343 19.807503 69.16284 40.344025l0 0c42.765137 42.765106 55.40692 99.45926 28.236267 126.62993l0 0c-27.170715 27.170654 -83.86484 14.52887 -126.629944 -28.236221z" fill-rule="evenodd"/><path fill="#000000" fill-opacity="0.0" d="m477.77667 200.30476l0 0c-27.170685 -27.17067 -35.201355 -63.192368 -17.937012 -80.456696l0 0c8.290619 -8.290627 21.424927 -11.058464 36.51349 -7.694618c15.0885315 3.3638382 30.895386 12.583809 43.943237 25.63163l0 0c27.170654 27.17067 35.201294 63.192352 17.93695 80.456696l0 0c-17.264282 17.264328 -53.28598 9.233658 -80.456665 -17.937012z" fill-rule="evenodd"/><path stroke="#f9cb9c" stroke-width="3.0" stroke-linejoin="round" stroke-linecap="butt" d="m477.77667 200.30476l0 0c-27.170685 -27.17067 -35.201355 -63.192368 -17.937012 -80.456696l0 0c8.290619 -8.290627 21.424927 -11.058464 36.51349 -7.694618c15.0885315 3.3638382 30.895386 12.583809 43.943237 25.63163l0 0c27.170654 27.17067 35.201294 63.192352 17.93695 80.456696l0 0c-17.264282 17.264328 -53.28598 9.233658 -80.456665 -17.937012z" fill-rule="evenodd"/><path fill="#000000" fill-opacity="0.0" d="m495.94998 182.1471l0 0c-11.384888 -11.384888 -14.748047 -26.4803 -7.5118103 -33.716537l0 0c3.4749756 -3.4749603 8.979431 -4.6357574 15.302521 -3.227005c6.3230896 1.4087372 12.946808 5.2716064 18.414032 10.738815l0 0c11.384888 11.384903 14.748047 26.4803 7.51178 33.716537l0 0c-7.236206 7.2362366 -22.331635 3.8730927 -33.716522 -7.5118103z" fill-rule="evenodd"/><path stroke="#f6b26b" stroke-width="3.0" stroke-linejoin="round" stroke-linecap="butt" d="m495.94998 182.1471l0 0c-11.384888 -11.384888 -14.748047 -26.4803 -7.5118103 -33.716537l0 0c3.4749756 -3.4749603 8.979431 -4.6357574 15.302521 -3.227005c6.3230896 1.4087372 12.946808 5.2716064 18.414032 10.738815l0 0c11.384888 11.384903 14.748047 26.4803 7.51178 33.716537l0 0c-7.236206 7.2362366 -22.331635 3.8730927 -33.716522 -7.5118103z" fill-rule="evenodd"/><path fill="#000000" fill-opacity="0.0" d="m156.11186 185.99142l0 0c-42.765106 -42.765106 -69.84659 -85.019554 -60.48819 -94.37795l0 0c4.4940643 -4.4940643 16.962166 -0.64595795 34.66147 10.697784c17.699295 11.343735 39.179962 29.253883 59.71649 49.790398l0 0c42.76509 42.765106 69.84657 85.01956 60.48819 94.37796l0 0c-4.4940643 4.4940643 -16.962173 0.6459503 -34.66147 -10.697784c-17.699295 -11.343735 -39.179962 -29.253876 -59.71649 -49.790405z" fill-rule="evenodd"/><path stroke="#f4cccc" stroke-width="3.0" stroke-linejoin="round" stroke-linecap="butt" d="m156.11186 185.99142l0 0c-42.765106 -42.765106 -69.84659 -85.019554 -60.48819 -94.37795l0 0c4.4940643 -4.4940643 16.962166 -0.64595795 34.66147 10.697784c17.699295 11.343735 39.179962 29.253883 59.71649 49.790398l0 0c42.76509 42.765106 69.84657 85.01956 60.48819 94.37796l0 0c-4.4940643 4.4940643 -16.962173 0.6459503 -34.66147 -10.697784c-17.699295 -11.343735 -39.179962 -29.253876 -59.71649 -49.790405z" fill-rule="evenodd"/><path fill="#000000" fill-opacity="0.0" d="m162.27779 179.81024l0 0c-27.17067 -27.17067 -44.381264 -54.01243 -38.44094 -59.95275l0 0c2.8526459 -2.8526459 10.771675 -0.40522766 22.014992 6.8038483c11.243332 7.2090683 24.889954 18.589272 37.93776 31.637093l0 0c27.17067 27.17067 44.38127 54.012436 38.44095 59.95276l0 0c-2.8526459 2.8526459 -10.7716675 0.40522766 -22.015 -6.8038483c-11.243317 -7.209076 -24.889938 -18.58928 -37.93776 -31.6371z" fill-rule="evenodd"/><path stroke="#ea9999" stroke-width="3.0" stroke-linejoin="round" stroke-linecap="butt" d="m162.27779 179.81024l0 0c-27.17067 -27.17067 -44.381264 -54.01243 -38.44094 -59.95275l0 0c2.8526459 -2.8526459 10.771675 -0.40522766 22.014992 6.8038483c11.243332 7.2090683 24.889954 18.589272 37.93776 31.637093l0 0c27.17067 27.17067 44.38127 54.012436 38.44095 59.95276l0 0c-2.8526459 2.8526459 -10.7716675 0.40522766 -22.015 -6.8038483c-11.243317 -7.209076 -24.889938 -18.58928 -37.93776 -31.6371z" fill-rule="evenodd"/><path fill="#000000" fill-opacity="0.0" d="m168.5379 173.56577l0 0c-11.384888 -11.384888 -18.597687 -22.630646 -16.11023 -25.118103l0 0c1.194519 -1.194519 4.5119476 -0.16827393 9.222519 2.8529816c4.710556 3.0212555 10.428375 7.790039 15.895584 13.257248l0 0c11.384903 11.384903 18.597702 22.630661 16.110245 25.118118l0 0c-1.194519 1.194519 -4.511963 0.16825867 -9.222519 -2.8529968c-4.710556 -3.0212555 -10.428375 -7.790024 -15.895599 -13.257248z" fill-rule="evenodd"/><path stroke="#e06666" stroke-width="3.0" stroke-linejoin="round" stroke-linecap="butt" d="m168.5379 173.56577l0 0c-11.384888 -11.384888 -18.597687 -22.630646 -16.11023 -25.118103l0 0c1.194519 -1.194519 4.5119476 -0.16827393 9.222519 2.8529816c4.710556 3.0212555 10.428375 7.790039 15.895584 13.257248l0 0c11.384903 11.384903 18.597702 22.630661 16.110245 25.118118l0 0c-1.194519 1.194519 -4.511963 0.16825867 -9.222519 -2.8529968c-4.710556 -3.0212555 -10.428375 -7.790024 -15.895599 -13.257248z" fill-rule="evenodd"/><path fill="#000000" fill-opacity="0.0" d="m1131.8353 119.84375l0 0c42.765137 -42.765106 99.45923 -55.40689 126.62988 -28.236221l0 0c13.047852 13.047813 17.403198 33.71933 12.107788 57.46704c-5.295288 23.747726 -19.807495 48.626358 -40.343994 69.16287l0 0c-42.765137 42.76512 -99.45923 55.406906 -126.62988 28.236221l0 0c-27.170654 -27.17067 -14.528931 -83.86481 28.236206 -126.62991z" fill-rule="evenodd"/><path stroke="#d9ead3" stroke-width="3.0" stroke-linejoin="round" stroke-linecap="butt" d="m1131.8353 119.84375l0 0c42.765137 -42.765106 99.45923 -55.40689 126.62988 -28.236221l0 0c13.047852 13.047813 17.403198 33.71933 12.107788 57.46704c-5.295288 23.747726 -19.807495 48.626358 -40.343994 69.16287l0 0c-42.765137 42.76512 -99.45923 55.406906 -126.62988 28.236221l0 0c-27.170654 -27.17067 -14.528931 -83.86481 28.236206 -126.62991z" fill-rule="evenodd"/><path fill="#000000" fill-opacity="0.0" d="m1149.7797 137.77283l0 0c27.170654 -27.17067 63.192383 -35.20134 80.456665 -17.937004l0 0c8.290649 8.290627 11.058472 21.424904 7.69458 36.513466c-3.3637695 15.088562 -12.58374 30.895401 -25.631592 43.943222l0 0c-27.170654 27.17067 -63.192383 35.20134 -80.456665 17.937012l0 0c-17.264404 -17.264343 -9.233643 -53.286026 17.937012 -80.456696z" fill-rule="evenodd"/><path stroke="#b6d7a8" stroke-width="3.0" stroke-linejoin="round" stroke-linecap="butt" d="m1149.7797 137.77283l0 0c27.170654 -27.17067 63.192383 -35.20134 80.456665 -17.937004l0 0c8.290649 8.290627 11.058472 21.424904 7.69458 36.513466c-3.3637695 15.088562 -12.58374 30.895401 -25.631592 43.943222l0 0c-27.170654 27.17067 -63.192383 35.20134 -80.456665 17.937012l0 0c-17.264404 -17.264343 -9.233643 -53.286026 17.937012 -80.456696z" fill-rule="evenodd"/><path fill="#000000" fill-opacity="0.0" d="m1167.9373 155.94614l0 0c11.384888 -11.384903 26.480347 -14.748047 33.716553 -7.5118103l0 0c3.4749756 3.4749603 4.635742 8.979446 3.2270508 15.302521c-1.4086914 6.3230743 -5.2716064 12.946793 -10.738892 18.414017l0 0c-11.384888 11.384888 -26.480225 14.748047 -33.71643 7.5118103l0 0c-7.236328 -7.2362366 -3.873169 -22.33165 7.5117188 -33.716537z" fill-rule="evenodd"/><path stroke="#93c47d" stroke-width="3.0" stroke-linejoin="round" stroke-linecap="butt" d="m1167.9373 155.94614l0 0c11.384888 -11.384903 26.480347 -14.748047 33.716553 -7.5118103l0 0c3.4749756 3.4749603 4.635742 8.979446 3.2270508 15.302521c-1.4086914 6.3230743 -5.2716064 12.946793 -10.738892 18.414017l0 0c-11.384888 11.384888 -26.480225 14.748047 -33.71643 7.5118103l0 0c-7.236328 -7.2362366 -3.873169 -22.33165 7.5117188 -33.716537z" fill-rule="evenodd"/><path fill="#000000" fill-opacity="0.0" d="m1500.0873 152.11711l0 0c42.765137 -42.7651 85.01953 -69.84659 94.37793 -60.48819l0 0c4.4941406 4.4940643 0.6459961 16.962166 -10.697754 34.66147c-11.34375 17.699295 -29.253906 39.179962 -49.790405 59.71649l0 0c-42.765137 42.765106 -85.01953 69.84659 -94.37793 60.48819l0 0c-4.4940186 -4.4940643 -0.6459961 -16.962173 10.697754 -34.66147c11.34375 -17.699295 29.253906 -39.179962 49.790405 -59.71649z" fill-rule="evenodd"/><path stroke="#c9daf8" stroke-width="3.0" stroke-linejoin="round" stroke-linecap="butt" d="m1500.0873 152.11711l0 0c42.765137 -42.7651 85.01953 -69.84659 94.37793 -60.48819l0 0c4.4941406 4.4940643 0.6459961 16.962166 -10.697754 34.66147c-11.34375 17.699295 -29.253906 39.179962 -49.790405 59.71649l0 0c-42.765137 42.765106 -85.01953 69.84659 -94.37793 60.48819l0 0c-4.4940186 -4.4940643 -0.6459961 -16.962173 10.697754 -34.66147c11.34375 -17.699295 29.253906 -39.179962 49.790405 -59.71649z" fill-rule="evenodd"/><path fill="#000000" fill-opacity="0.0" d="m1506.2686 158.28304l0 0c27.170654 -27.17067 54.01233 -44.381264 59.952637 -38.44094l0 0c2.8526611 2.8526459 0.40527344 10.771675 -6.803833 22.014992c-7.2089844 11.243332 -18.589233 24.889954 -31.637085 37.93776l0 0c-27.170654 27.17067 -54.01245 44.38127 -59.95276 38.44095l0 0c-2.8526611 -2.8526459 -0.40515137 -10.7716675 6.803833 -22.015c7.2091064 -11.243317 18.589355 -24.889938 31.637207 -37.93776z" fill-rule="evenodd"/><path stroke="#a4c2f4" stroke-width="3.0" stroke-linejoin="round" stroke-linecap="butt" d="m1506.2686 158.28304l0 0c27.170654 -27.17067 54.01233 -44.381264 59.952637 -38.44094l0 0c2.8526611 2.8526459 0.40527344 10.771675 -6.803833 22.014992c-7.2089844 11.243332 -18.589233 24.889954 -31.637085 37.93776l0 0c-27.170654 27.17067 -54.01245 44.38127 -59.95276 38.44095l0 0c-2.8526611 -2.8526459 -0.40515137 -10.7716675 6.803833 -22.015c7.2091064 -11.243317 18.589355 -24.889938 31.637207 -37.93776z" fill-rule="evenodd"/><path fill="#000000" fill-opacity="0.0" d="m1512.513 164.54315l0 0c11.384888 -11.384888 22.630737 -18.597687 25.118164 -16.11023l0 0c1.194458 1.194519 0.16821289 4.511963 -2.8530273 9.222519c-3.0212402 4.710556 -7.790039 10.428375 -13.257202 15.895584l0 0c-11.384888 11.384903 -22.630737 18.597702 -25.118164 16.110245l0 0c-1.194458 -1.194519 -0.16821289 -4.511963 2.8530273 -9.222519c3.0212402 -4.710556 7.790039 -10.428375 13.257202 -15.895599z" fill-rule="evenodd"/><path stroke="#6d9eeb" stroke-width="3.0" stroke-linejoin="round" stroke-linecap="butt" d="m1512.513 164.54315l0 0c11.384888 -11.384888 22.630737 -18.597687 25.118164 -16.11023l0 0c1.194458 1.194519 0.16821289 4.511963 -2.8530273 9.222519c-3.0212402 4.710556 -7.790039 10.428375 -13.257202 15.895584l0 0c-11.384888 11.384903 -22.630737 18.597702 -25.118164 16.110245l0 0c-1.194458 -1.194519 -0.16821289 -4.511963 2.8530273 -9.222519c3.0212402 -4.710556 7.790039 -10.428375 13.257202 -15.895599z" fill-rule="evenodd"/><path fill="#cc0000" d="m136.93701 125.54068l0 0c0 -3.7833633 3.0670166 -6.8503876 6.8503876 -6.8503876l0 0c1.8168335 0 3.5592651 0.7217331 4.8439636 2.0064316c1.2846985 1.2846985 2.0064392 3.0271225 2.0064392 4.843956l0 0c0 3.783371 -3.0670319 6.850403 -6.850403 6.850403l0 0c-3.783371 0 -6.8503876 -3.0670319 -6.8503876 -6.850403z" fill-rule="evenodd"/><path fill="#cc0000" d="m144.93701 149.54068l0 0c0 -3.783371 3.0670166 -6.8503876 6.8503876 -6.8503876l0 0c1.8168335 0 3.5592651 0.72172546 4.8439636 2.006424c1.2846985 1.2846985 2.0064392 3.0271301 2.0064392 4.8439636l0 0c0 3.783371 -3.0670319 6.850403 -6.850403 6.850403l0 0c-3.783371 0 -6.8503876 -3.0670319 -6.8503876 -6.850403z" fill-rule="evenodd"/><path fill="#cc0000" d="m160.93701 165.54068l0 0c0 -3.783371 3.0670166 -6.8503876 6.8503876 -6.8503876l0 0c1.8168335 0 3.5592651 0.72172546 4.8439636 2.006424c1.2846985 1.2846985 2.0064392 3.0271301 2.0064392 4.8439636l0 0c0 3.783371 -3.0670319 6.850403 -6.850403 6.850403l0 0c-3.783371 0 -6.8503876 -3.0670319 -6.8503876 -6.850403z" fill-rule="evenodd"/><path fill="#cc0000" d="m176.93701 173.54068l0 0c0 -3.783371 3.0670166 -6.8503876 6.8503876 -6.8503876l0 0c1.8168335 0 3.5592651 0.72172546 4.8439636 2.006424c1.2846985 1.2846985 2.0064392 3.0271301 2.0064392 4.8439636l0 0c0 3.783371 -3.0670319 6.850403 -6.850403 6.850403l0 0c-3.783371 0 -6.8503876 -3.0670319 -6.8503876 -6.850403z" fill-rule="evenodd"/><path fill="#cc0000" d="m200.93701 189.54068l0 0c0 -3.783371 3.0670166 -6.8503876 6.8503876 -6.8503876l0 0c1.8168335 0 3.5592651 0.72172546 4.8439636 2.006424c1.2846985 1.2846985 2.0064392 3.0271301 2.0064392 4.8439636l0 0c0 3.783371 -3.0670319 6.850403 -6.850403 6.850403l0 0c-3.783371 0 -6.8503876 -3.0670319 -6.8503876 -6.850403z" fill-rule="evenodd"/><path fill="#cc0000" d="m200.93701 213.54068l0 0c0 -3.783371 3.0670166 -6.8503876 6.8503876 -6.8503876l0 0c1.8168335 0 3.5592651 0.72172546 4.8439636 2.006424c1.2846985 1.2846985 2.0064392 3.0271301 2.0064392 4.8439636l0 0c0 3.783371 -3.0670319 6.850403 -6.850403 6.850403l0 0c-3.783371 0 -6.8503876 -3.0670319 -6.8503876 -6.850403z" fill-rule="evenodd"/><path fill="#e69138" d="m492.44095 165.54068l0 0c0 -3.783371 3.0670166 -6.8503876 6.850403 -6.8503876l0 0c1.8168335 0 3.5592346 0.72172546 4.843933 2.006424c1.2846985 1.2846985 2.0064392 3.0271301 2.0064392 4.8439636l0 0c0 3.783371 -3.0670166 6.850403 -6.8503723 6.850403l0 0c-3.7833862 0 -6.850403 -3.0670319 -6.850403 -6.850403z" fill-rule="evenodd"/><path fill="#e69138" d="m508.44095 141.54068l0 0c0 -3.783371 3.0670166 -6.8503876 6.8503723 -6.8503876l0 0c1.8168335 0 3.5592651 0.72172546 4.843994 2.006424c1.284668 1.2846985 2.0064087 3.0271301 2.0064087 4.8439636l0 0c0 3.783371 -3.0670166 6.850403 -6.850403 6.850403l0 0c-3.7833557 0 -6.8503723 -3.0670319 -6.8503723 -6.850403z" fill-rule="evenodd"/><path fill="#e69138" d="m532.4409 205.54068l0 0c0 -3.783371 3.0670776 -6.8503876 6.850403 -6.8503876l0 0c1.8168335 0 3.5592651 0.72172546 4.843994 2.006424c1.284668 1.2846985 2.0064087 3.0271301 2.0064087 4.8439636l0 0c0 3.783371 -3.0670166 6.850403 -6.850403 6.850403l0 0c-3.7833252 0 -6.850403 -3.0670319 -6.850403 -6.850403z" fill-rule="evenodd"/><path fill="#e69138" d="m508.44095 189.54068l0 0c0 -3.783371 3.0670166 -6.8503876 6.8503723 -6.8503876l0 0c1.8168335 0 3.5592651 0.72172546 4.843994 2.006424c1.284668 1.2846985 2.0064087 3.0271301 2.0064087 4.8439636l0 0c0 3.783371 -3.0670166 6.850403 -6.850403 6.850403l0 0c-3.7833557 0 -6.8503723 -3.0670319 -6.8503723 -6.850403z" fill-rule="evenodd"/><path fill="#e69138" d="m452.44095 157.54068l0 0c0 -3.783371 3.0670166 -6.8503876 6.850403 -6.8503876l0 0c1.8168335 0 3.5592346 0.72172546 4.843933 2.006424c1.2846985 1.2846985 2.0064392 3.0271301 2.0064392 4.8439636l0 0c0 3.783371 -3.0670166 6.850403 -6.8503723 6.850403l0 0c-3.7833862 0 -6.850403 -3.0670319 -6.850403 -6.850403z" fill-rule="evenodd"/><path fill="#e69138" d="m468.44095 93.54068l0 0c0 -3.7833633 3.0670166 -6.8503876 6.850403 -6.8503876l0 0c1.8168335 0 3.5592346 0.7217331 4.843933 2.0064316c1.2846985 1.2846985 2.0064392 3.0271225 2.0064392 4.843956l0 0c0 3.783371 -3.0670166 6.850395 -6.8503723 6.850395l0 0c-3.7833862 0 -6.850403 -3.0670242 -6.850403 -6.850395z" fill-rule="evenodd"/><path fill="#e69138" d="m540.4409 245.54068l0 0c0 -3.783371 3.0670776 -6.8503876 6.850403 -6.8503876l0 0c1.8168335 0 3.5592651 0.72172546 4.843994 2.006424c1.284668 1.2846985 2.0064087 3.0271301 2.0064087 4.8439636l0 0c0 3.783371 -3.0670166 6.850403 -6.850403 6.850403l0 0c-3.7833252 0 -6.850403 -3.0670319 -6.850403 -6.850403z" fill-rule="evenodd"/><path fill="#e69138" d="m548.4409 165.54068l0 0c0 -3.783371 3.0670776 -6.8503876 6.850403 -6.8503876l0 0c1.8168335 0 3.5592651 0.72172546 4.843994 2.006424c1.284668 1.2846985 2.0064087 3.0271301 2.0064087 4.8439636l0 0c0 3.783371 -3.0670166 6.850403 -6.850403 6.850403l0 0c-3.7833252 0 -6.850403 -3.0670319 -6.850403 -6.850403z" fill-rule="evenodd"/><path fill="#3c78d8" d="m1465.0367 232.39108l0 0c-3.7833252 0 -6.850342 -3.0670319 -6.850342 -6.850403l0 0c0 -1.8168335 0.7216797 -3.5592651 2.0063477 -4.8439636c1.28479 -1.2846985 3.0270996 -2.006424 4.843994 -2.006424l0 0c3.7833252 0 6.850342 3.0670166 6.850342 6.8503876l0 0c0 3.783371 -3.0670166 6.850403 -6.850342 6.850403z" fill-rule="evenodd"/><path fill="#3c78d8" d="m1481.0367 200.39108l0 0c-3.7833252 0 -6.850342 -3.0670319 -6.850342 -6.850403l0 0c0 -1.8168335 0.7216797 -3.5592651 2.0063477 -4.8439636c1.28479 -1.2846985 3.0270996 -2.006424 4.843994 -2.006424l0 0c3.7833252 0 6.850342 3.0670166 6.850342 6.8503876l0 0c0 3.783371 -3.0670166 6.850403 -6.850342 6.850403z" fill-rule="evenodd"/><path fill="#3c78d8" d="m1505.0367 192.39108l0 0c-3.7833252 0 -6.850342 -3.0670319 -6.850342 -6.850403l0 0c0 -1.8168335 0.7216797 -3.5592651 2.0063477 -4.8439636c1.28479 -1.2846985 3.0270996 -2.006424 4.843994 -2.006424l0 0c3.7833252 0 6.850342 3.0670166 6.850342 6.8503876l0 0c0 3.783371 -3.0670166 6.850403 -6.850342 6.850403z" fill-rule="evenodd"/><path fill="#3c78d8" d="m1529.0367 184.39108l0 0c-3.7833252 0 -6.850342 -3.0670319 -6.850342 -6.850403l0 0c0 -1.8168335 0.7216797 -3.5592651 2.0063477 -4.8439636c1.28479 -1.2846985 3.0270996 -2.006424 4.843994 -2.006424l0 0c3.7833252 0 6.850342 3.0670166 6.850342 6.8503876l0 0c0 3.783371 -3.0670166 6.850403 -6.850342 6.850403z" fill-rule="evenodd"/><path fill="#3c78d8" d="m1529.0367 160.39108l0 0c-3.7833252 0 -6.850342 -3.0670319 -6.850342 -6.850403l0 0c0 -1.8168335 0.7216797 -3.5592651 2.0063477 -4.8439636c1.28479 -1.2846985 3.0270996 -2.006424 4.843994 -2.006424l0 0c3.7833252 0 6.850342 3.0670166 6.850342 6.8503876l0 0c0 3.783371 -3.0670166 6.850403 -6.850342 6.850403z" fill-rule="evenodd"/><path fill="#3c78d8" d="m1553.0367 144.39108l0 0c-3.7833252 0 -6.850342 -3.0670319 -6.850342 -6.850403l0 0c0 -1.8168335 0.7216797 -3.5592651 2.0063477 -4.8439636c1.28479 -1.2846985 3.0270996 -2.006424 4.843994 -2.006424l0 0c3.7833252 0 6.850342 3.0670166 6.850342 6.8503876l0 0c0 3.783371 -3.0670166 6.850403 -6.850342 6.850403z" fill-rule="evenodd"/><path fill="#3c78d8" d="m1569.0367 120.391075l0 0c-3.7833252 0 -6.850342 -3.0670242 -6.850342 -6.850395l0 0c0 -1.8168335 0.7216797 -3.5592575 2.0063477 -4.843956c1.28479 -1.2846985 3.0270996 -2.0064316 4.843994 -2.0064316l0 0c3.7833252 0 6.850342 3.0670242 6.850342 6.8503876l0 0c0 3.783371 -3.0670166 6.850395 -6.850342 6.850395z" fill-rule="evenodd"/><path fill="#6aa84f" d="m1179.0289 184.39108l0 0c-3.7834473 0 -6.850464 -3.0670319 -6.850464 -6.850403l0 0c0 -1.8168335 0.72180176 -3.5592651 2.0064697 -4.8439636c1.284668 -1.2846985 3.0270996 -2.006424 4.843994 -2.006424l0 0c3.7833252 0 6.850342 3.0670166 6.850342 6.8503876l0 0c0 3.783371 -3.0670166 6.850403 -6.850342 6.850403z" fill-rule="evenodd"/><path fill="#6aa84f" d="m1155.0289 168.39108l0 0c-3.7834473 0 -6.850464 -3.0670319 -6.850464 -6.850403l0 0c0 -1.8168335 0.72180176 -3.5592651 2.0064697 -4.8439636c1.284668 -1.2846985 3.0270996 -2.006424 4.843994 -2.006424l0 0c3.7833252 0 6.850342 3.0670166 6.850342 6.8503876l0 0c0 3.783371 -3.0670166 6.850403 -6.850342 6.850403z" fill-rule="evenodd"/><path fill="#6aa84f" d="m1219.0289 144.39108l0 0c-3.7834473 0 -6.850464 -3.0670319 -6.850464 -6.850403l0 0c0 -1.8168335 0.72180176 -3.5592651 2.0064697 -4.8439636c1.284668 -1.2846985 3.0270996 -2.006424 4.843994 -2.006424l0 0c3.7833252 0 6.850342 3.0670166 6.850342 6.8503876l0 0c0 3.783371 -3.0670166 6.850403 -6.850342 6.850403z" fill-rule="evenodd"/><path fill="#6aa84f" d="m1211.0289 176.39108l0 0c-3.7834473 0 -6.850464 -3.0670319 -6.850464 -6.850403l0 0c0 -1.8168335 0.72180176 -3.5592651 2.0064697 -4.8439636c1.284668 -1.2846985 3.0270996 -2.006424 4.843994 -2.006424l0 0c3.7833252 0 6.850342 3.0670166 6.850342 6.8503876l0 0c0 3.783371 -3.0670166 6.850403 -6.850342 6.850403z" fill-rule="evenodd"/><path fill="#6aa84f" d="m1171.0289 224.39108l0 0c-3.7834473 0 -6.850464 -3.0670319 -6.850464 -6.850403l0 0c0 -1.8168335 0.72180176 -3.5592651 2.0064697 -4.8439636c1.284668 -1.2846985 3.0270996 -2.006424 4.843994 -2.006424l0 0c3.7833252 0 6.850342 3.0670166 6.850342 6.8503876l0 0c0 3.783371 -3.0670166 6.850403 -6.850342 6.850403z" fill-rule="evenodd"/><path fill="#6aa84f" d="m1107.0289 208.39108l0 0c-3.7834473 0 -6.850464 -3.0670319 -6.850464 -6.850403l0 0c0 -1.8168335 0.72180176 -3.5592651 2.0064697 -4.8439636c1.284668 -1.2846985 3.0270996 -2.006424 4.843994 -2.006424l0 0c3.7833252 0 6.850342 3.0670166 6.850342 6.8503876l0 0c0 3.783371 -3.0670166 6.850403 -6.850342 6.850403z" fill-rule="evenodd"/><path fill="#6aa84f" d="m1235.0289 104.391075l0 0c-3.7834473 0 -6.850464 -3.0670242 -6.850464 -6.850395l0 0c0 -1.8168335 0.72180176 -3.5592575 2.0064697 -4.843956c1.284668 -1.2846985 3.0270996 -2.0064316 4.843994 -2.0064316l0 0c3.7833252 0 6.850342 3.0670242 6.850342 6.8503876l0 0c0 3.783371 -3.0670166 6.850395 -6.850342 6.850395z" fill-rule="evenodd"/><path fill="#6aa84f" d="m1179.0289 128.39108l0 0c-3.7834473 0 -6.850464 -3.0670319 -6.850464 -6.850403l0 0c0 -1.8168335 0.72180176 -3.5592575 2.0064697 -4.843956c1.284668 -1.2846985 3.0270996 -2.0064316 4.843994 -2.0064316l0 0c3.7833252 0 6.850342 3.0670242 6.850342 6.8503876l0 0c0 3.783371 -3.0670166 6.850403 -6.850342 6.850403z" fill-rule="evenodd"/><path fill="#f1c232" d="m828.2336 157.54068l0 0c0 -3.783371 3.0670166 -6.8503876 6.850403 -6.8503876l0 0c1.8168335 0 3.5592651 0.72172546 4.843994 2.006424c1.284668 1.2846985 2.0064087 3.0271301 2.0064087 4.8439636l0 0c0 3.783371 -3.0670166 6.850403 -6.850403 6.850403l0 0c-3.7833862 0 -6.850403 -3.0670319 -6.850403 -6.850403z" fill-rule="evenodd"/><path fill="#000000" fill-opacity="0.0" d="m444.1076 339.58792l129.85828 0l0 54.64566l-129.85828 0z" fill-rule="evenodd"/><path fill="#e69138" d="m464.56018 385.6673l0 -14.078125q0 -4.71875 1.859375 -6.984375q1.859375 -2.265625 5.40625 -2.265625q3.53125 0 5.640625 2.40625q2.125 2.40625 2.125 6.25q0 3.859375 -2.03125 6.28125q-2.015625 2.40625 -5.3125 2.40625q-3.078125 0 -4.875 -1.953125l0 7.9375l-2.8125 0zm7.359375 -21.0q-2.046875 0 -3.28125 1.578125q-1.234375 1.5625 -1.234375 4.984375q0 3.078125 1.21875 4.609375q1.21875 1.53125 3.3125 1.53125q2.109375 0 3.4375 -1.578125q1.328125 -1.59375 1.328125 -4.640625q0 -3.46875 -1.421875 -4.96875q-1.421875 -1.515625 -3.359375 -1.515625z" fill-rule="nonzero"/><path fill="#e69138" d="m490.62268 365.99542l0 -2.328125l14.4375 0l0 2.328125l-14.4375 0zm0 6.40625l0 -2.34375l14.4375 0l0 2.34375l-14.4375 0z" fill-rule="nonzero"/><path fill="#e69138" d="m515.9352 373.8548l0 -1.96875l5.8125 0l0 1.96875l-5.8125 0zm18.847656 -3.140625q0 2.078125 -0.296875 3.71875q-0.296875 1.640625 -0.96875 2.78125q-0.65625 1.125 -1.703125 1.734375q-1.03125 0.59375 -2.53125 0.59375q-1.375 0 -2.40625 -0.59375q-1.015625 -0.609375 -1.703125 -1.734375q-0.671875 -1.140625 -1.0 -2.78125q-0.328125 -1.640625 -0.328125 -3.71875q0 -2.078125 0.296875 -3.71875q0.296875 -1.640625 0.9375 -2.765625q0.65625 -1.125 1.6875 -1.71875q1.046875 -0.609375 2.515625 -0.609375q1.40625 0 2.4375 0.59375q1.03125 0.59375 1.703125 1.734375q0.6875 1.125 1.015625 2.765625q0.34375 1.640625 0.34375 3.71875zm-8.78125 0q0 1.765625 0.171875 3.078125q0.1875 1.3125 0.5625 2.1875q0.390625 0.859375 1.015625 1.3125q0.640625 0.4375 1.53125 0.4375q0.90625 0 1.53125 -0.4375q0.640625 -0.4375 1.046875 -1.296875q0.40625 -0.875 0.578125 -2.1875q0.1875 -1.328125 0.1875 -3.09375q0 -1.75 -0.1875 -3.0625q-0.171875 -1.3125 -0.578125 -2.171875q-0.40625 -0.875 -1.046875 -1.3125q-0.625 -0.4375 -1.53125 -0.4375q-0.890625 0 -1.53125 0.4375q-0.625 0.4375 -1.015625 1.3125q-0.375 0.859375 -0.5625 2.171875q-0.171875 1.3125 -0.171875 3.0625zm11.625 7.296875q0 -0.453125 0.109375 -0.765625q0.125 -0.3125 0.328125 -0.5q0.203125 -0.1875 0.46875 -0.28125q0.265625 -0.09375 0.59375 -0.09375q0.296875 0 0.5625 0.09375q0.28125 0.09375 0.484375 0.28125q0.203125 0.1875 0.3125 0.5q0.125 0.3125 0.125 0.765625q0 0.421875 -0.125 0.734375q-0.109375 0.3125 -0.3125 0.515625q-0.203125 0.203125 -0.484375 0.296875q-0.265625 0.09375 -0.5625 0.09375q-0.328125 0 -0.59375 -0.09375q-0.265625 -0.09375 -0.46875 -0.296875q-0.203125 -0.203125 -0.328125 -0.515625q-0.109375 -0.3125 -0.109375 -0.734375zm11.105469 -9.21875q1.15625 0 2.15625 0.328125q1.0 0.3125 1.75 0.953125q0.75 0.625 1.171875 1.5625q0.421875 0.9375 0.421875 2.171875q0 1.34375 -0.40625 2.40625q-0.390625 1.0625 -1.1875 1.8125q-0.78125 0.734375 -1.9375 1.125q-1.15625 0.390625 -2.65625 0.390625q-0.59375 0 -1.171875 -0.0625q-0.578125 -0.046875 -1.109375 -0.171875q-0.53125 -0.109375 -1.015625 -0.28125q-0.484375 -0.171875 -0.875 -0.40625l0 -2.015625q0.390625 0.265625 0.90625 0.484375q0.53125 0.203125 1.09375 0.34375q0.578125 0.140625 1.15625 0.21875q0.59375 0.078125 1.078125 0.078125q0.921875 0 1.640625 -0.21875q0.734375 -0.21875 1.234375 -0.671875q0.515625 -0.46875 0.78125 -1.15625q0.265625 -0.6875 0.265625 -1.640625q0 -1.671875 -1.03125 -2.546875q-1.03125 -0.890625 -3.0 -0.890625q-0.3125 0 -0.6875 0.03125q-0.359375 0.015625 -0.734375 0.0625q-0.359375 0.046875 -0.703125 0.109375q-0.328125 0.046875 -0.578125 0.09375l-1.046875 -0.671875l0.640625 -8.0625l8.078125 0l0 1.953125l-6.234375 0l-0.453125 4.90625q0.375 -0.0625 0.984375 -0.140625q0.625 -0.09375 1.46875 -0.09375z" fill-rule="nonzero"/><path fill="#000000" fill-opacity="0.0" d="m781.60626 339.58792l129.85828 0l0 54.64566l-129.85828 0z" fill-rule="evenodd"/><path fill="#f1c232" d="m815.74634 385.6673l0 -14.078125q0 -4.71875 1.859375 -6.984375q1.859375 -2.265625 5.40625 -2.265625q3.53125 0 5.640625 2.40625q2.125 2.40625 2.125 6.25q0 3.859375 -2.03125 6.28125q-2.015625 2.40625 -5.3125 2.40625q-3.078125 0 -4.875 -1.953125l0 7.9375l-2.8125 0zm7.359375 -21.0q-2.046875 0 -3.28125 1.578125q-1.234375 1.5625 -1.234375 4.984375q0 3.078125 1.21875 4.609375q1.21875 1.53125 3.3125 1.53125q2.109375 0 3.4375 -1.578125q1.328125 -1.59375 1.328125 -4.640625q0 -3.46875 -1.421875 -4.96875q-1.421875 -1.515625 -3.359375 -1.515625z" fill-rule="nonzero"/><path fill="#f1c232" d="m841.80884 365.99542l0 -2.328125l14.4375 0l0 2.328125l-14.4375 0zm0 6.40625l0 -2.34375l14.4375 0l0 2.34375l-14.4375 0z" fill-rule="nonzero"/><path fill="#f1c232" d="m878.24634 370.71417q0 2.078125 -0.296875 3.71875q-0.296875 1.640625 -0.96875 2.78125q-0.65625 1.125 -1.703125 1.734375q-1.03125 0.59375 -2.53125 0.59375q-1.375 0 -2.40625 -0.59375q-1.015625 -0.609375 -1.703125 -1.734375q-0.671875 -1.140625 -1.0 -2.78125q-0.328125 -1.640625 -0.328125 -3.71875q0 -2.078125 0.296875 -3.71875q0.296875 -1.640625 0.9375 -2.765625q0.65625 -1.125 1.6875 -1.71875q1.046875 -0.609375 2.515625 -0.609375q1.40625 0 2.4375 0.59375q1.03125 0.59375 1.703125 1.734375q0.6875 1.125 1.015625 2.765625q0.34375 1.640625 0.34375 3.71875zm-8.78125 0q0 1.765625 0.171875 3.078125q0.1875 1.3125 0.5625 2.1875q0.390625 0.859375 1.015625 1.3125q0.640625 0.4375 1.53125 0.4375q0.90625 0 1.53125 -0.4375q0.640625 -0.4375 1.046875 -1.296875q0.40625 -0.875 0.578125 -2.1875q0.1875 -1.328125 0.1875 -3.09375q0 -1.75 -0.1875 -3.0625q-0.171875 -1.3125 -0.578125 -2.171875q-0.40625 -0.875 -1.046875 -1.3125q-0.625 -0.4375 -1.53125 -0.4375q-0.890625 0 -1.53125 0.4375q-0.625 0.4375 -1.015625 1.3125q-0.375 0.859375 -0.5625 2.171875q-0.171875 1.3125 -0.171875 3.0625z" fill-rule="nonzero"/><path fill="#000000" fill-opacity="0.0" d="m1109.9082 339.58792l129.85828 0l0 54.64566l-129.85828 0z" fill-rule="evenodd"/><path fill="#6aa84f" d="m1134.2222 385.6673l0 -14.078125q0 -4.71875 1.859375 -6.984375q1.859375 -2.265625 5.40625 -2.265625q3.53125 0 5.640625 2.40625q2.125 2.40625 2.125 6.25q0 3.859375 -2.03125 6.28125q-2.015625 2.40625 -5.3125 2.40625q-3.078125 0 -4.875 -1.953125l0 7.9375l-2.8125 0zm7.359375 -21.0q-2.046875 0 -3.28125 1.578125q-1.234375 1.5625 -1.234375 4.984375q0 3.078125 1.21875 4.609375q1.21875 1.53125 3.3125 1.53125q2.109375 0 3.4375 -1.578125q1.328125 -1.59375 1.328125 -4.640625q0 -3.46875 -1.421875 -4.96875q-1.421875 -1.515625 -3.359375 -1.515625z" fill-rule="nonzero"/><path fill="#6aa84f" d="m1160.2847 365.99542l0 -2.328125l14.4375 0l0 2.328125l-14.4375 0zm0 6.40625l0 -2.34375l14.4375 0l0 2.34375l-14.4375 0z" fill-rule="nonzero"/><path fill="#6aa84f" d="m1196.7222 370.71417q0 2.078125 -0.296875 3.71875q-0.296875 1.640625 -0.96875 2.78125q-0.65625 1.125 -1.703125 1.734375q-1.03125 0.59375 -2.53125 0.59375q-1.375 0 -2.40625 -0.59375q-1.015625 -0.609375 -1.703125 -1.734375q-0.671875 -1.140625 -1.0 -2.78125q-0.328125 -1.640625 -0.328125 -3.71875q0 -2.078125 0.296875 -3.71875q0.296875 -1.640625 0.9375 -2.765625q0.65625 -1.125 1.6875 -1.71875q1.046875 -0.609375 2.515625 -0.609375q1.40625 0 2.4375 0.59375q1.03125 0.59375 1.703125 1.734375q0.6875 1.125 1.015625 2.765625q0.34375 1.640625 0.34375 3.71875zm-8.78125 0q0 1.765625 0.171875 3.078125q0.1875 1.3125 0.5625 2.1875q0.390625 0.859375 1.015625 1.3125q0.640625 0.4375 1.53125 0.4375q0.90625 0 1.53125 -0.4375q0.640625 -0.4375 1.046875 -1.296875q0.40625 -0.875 0.578125 -2.1875q0.1875 -1.328125 0.1875 -3.09375q0 -1.75 -0.1875 -3.0625q-0.171875 -1.3125 -0.578125 -2.171875q-0.40625 -0.875 -1.046875 -1.3125q-0.625 -0.4375 -1.53125 -0.4375q-0.890625 0 -1.53125 0.4375q-0.625 0.4375 -1.015625 1.3125q-0.375 0.859375 -0.5625 2.171875q-0.171875 1.3125 -0.171875 3.0625zm11.625 7.296875q0 -0.453125 0.109375 -0.765625q0.125 -0.3125 0.328125 -0.5q0.203125 -0.1875 0.46875 -0.28125q0.265625 -0.09375 0.59375 -0.09375q0.296875 0 0.5625 0.09375q0.28125 0.09375 0.484375 0.28125q0.203125 0.1875 0.3125 0.5q0.125 0.3125 0.125 0.765625q0 0.421875 -0.125 0.734375q-0.109375 0.3125 -0.3125 0.515625q-0.203125 0.203125 -0.484375 0.296875q-0.265625 0.09375 -0.5625 0.09375q-0.328125 0 -0.59375 -0.09375q-0.265625 -0.09375 -0.46875 -0.296875q-0.203125 -0.203125 -0.328125 -0.515625q-0.109375 -0.3125 -0.109375 -0.734375zm11.105469 -9.21875q1.15625 0 2.15625 0.328125q1.0 0.3125 1.75 0.953125q0.75 0.625 1.171875 1.5625q0.421875 0.9375 0.421875 2.171875q0 1.34375 -0.40625 2.40625q-0.390625 1.0625 -1.1875 1.8125q-0.78125 0.734375 -1.9375 1.125q-1.15625 0.390625 -2.65625 0.390625q-0.59375 0 -1.171875 -0.0625q-0.578125 -0.046875 -1.109375 -0.171875q-0.53125 -0.109375 -1.015625 -0.28125q-0.484375 -0.171875 -0.875 -0.40625l0 -2.015625q0.390625 0.265625 0.90625 0.484375q0.53125 0.203125 1.09375 0.34375q0.578125 0.140625 1.15625 0.21875q0.59375 0.078125 1.078125 0.078125q0.921875 0 1.640625 -0.21875q0.734375 -0.21875 1.234375 -0.671875q0.515625 -0.46875 0.78125 -1.15625q0.265625 -0.6875 0.265625 -1.640625q0 -1.671875 -1.03125 -2.546875q-1.03125 -0.890625 -3.0 -0.890625q-0.3125 0 -0.6875 0.03125q-0.359375 0.015625 -0.734375 0.0625q-0.359375 0.046875 -0.703125 0.109375q-0.328125 0.046875 -0.578125 0.09375l-1.046875 -0.671875l0.640625 -8.0625l8.078125 0l0 1.953125l-6.234375 0l-0.453125 4.90625q0.375 -0.0625 0.984375 -0.140625q0.625 -0.09375 1.46875 -0.09375z" fill-rule="nonzero"/><path fill="#000000" fill-opacity="0.0" d="m1423.0552 402.7848l67.433105 0l0 87.27557l-67.433105 0z" fill-rule="evenodd"/><path fill="#3c78d8" d="m1451.803 435.23633l0 2.703125l-12.296875 0l7.8125 8.3125l-7.8125 9.1875l12.9375 0l0 2.703125l-16.21875 0l0 -3.15625l7.484375 -8.734375l-7.484375 -7.96875l0 -3.046875l15.578125 0z" fill-rule="nonzero"/><path fill="#3c78d8" d="m1463.5999 444.83008l0 -2.328125l14.4375 0l0 2.328125l-14.4375 0zm0 6.40625l0 -2.34375l14.4375 0l0 2.34375l-14.4375 0z" fill-rule="nonzero"/><path fill="#000000" fill-opacity="0.0" d="m1445.9082 339.58792l129.85828 0l0 54.64566l-129.85828 0z" fill-rule="evenodd"/><path fill="#3c78d8" d="m1470.2222 385.6673l0 -14.078125q0 -4.71875 1.859375 -6.984375q1.859375 -2.265625 5.40625 -2.265625q3.53125 0 5.640625 2.40625q2.125 2.40625 2.125 6.25q0 3.859375 -2.03125 6.28125q-2.015625 2.40625 -5.3125 2.40625q-3.078125 0 -4.875 -1.953125l0 7.9375l-2.8125 0zm7.359375 -21.0q-2.046875 0 -3.28125 1.578125q-1.234375 1.5625 -1.234375 4.984375q0 3.078125 1.21875 4.609375q1.21875 1.53125 3.3125 1.53125q2.109375 0 3.4375 -1.578125q1.328125 -1.59375 1.328125 -4.640625q0 -3.46875 -1.421875 -4.96875q-1.421875 -1.515625 -3.359375 -1.515625z" fill-rule="nonzero"/><path fill="#3c78d8" d="m1496.2847 365.99542l0 -2.328125l14.4375 0l0 2.328125l-14.4375 0zm0 6.40625l0 -2.34375l14.4375 0l0 2.34375l-14.4375 0z" fill-rule="nonzero"/><path fill="#3c78d8" d="m1532.7222 370.71417q0 2.078125 -0.296875 3.71875q-0.296875 1.640625 -0.96875 2.78125q-0.65625 1.125 -1.703125 1.734375q-1.03125 0.59375 -2.53125 0.59375q-1.375 0 -2.40625 -0.59375q-1.015625 -0.609375 -1.703125 -1.734375q-0.671875 -1.140625 -1.0 -2.78125q-0.328125 -1.640625 -0.328125 -3.71875q0 -2.078125 0.296875 -3.71875q0.296875 -1.640625 0.9375 -2.765625q0.65625 -1.125 1.6875 -1.71875q1.046875 -0.609375 2.515625 -0.609375q1.40625 0 2.4375 0.59375q1.03125 0.59375 1.703125 1.734375q0.6875 1.125 1.015625 2.765625q0.34375 1.640625 0.34375 3.71875zm-8.78125 0q0 1.765625 0.171875 3.078125q0.1875 1.3125 0.5625 2.1875q0.390625 0.859375 1.015625 1.3125q0.640625 0.4375 1.53125 0.4375q0.90625 0 1.53125 -0.4375q0.640625 -0.4375 1.046875 -1.296875q0.40625 -0.875 0.578125 -2.1875q0.1875 -1.328125 0.1875 -3.09375q0 -1.75 -0.1875 -3.0625q-0.171875 -1.3125 -0.578125 -2.171875q-0.40625 -0.875 -1.046875 -1.3125q-0.625 -0.4375 -1.53125 -0.4375q-0.890625 0 -1.53125 0.4375q-0.625 0.4375 -1.015625 1.3125q-0.375 0.859375 -0.5625 2.171875q-0.171875 1.3125 -0.171875 3.0625zm11.625 7.296875q0 -0.453125 0.109375 -0.765625q0.125 -0.3125 0.328125 -0.5q0.203125 -0.1875 0.46875 -0.28125q0.265625 -0.09375 0.59375 -0.09375q0.296875 0 0.5625 0.09375q0.28125 0.09375 0.484375 0.28125q0.203125 0.1875 0.3125 0.5q0.125 0.3125 0.125 0.765625q0 0.421875 -0.125 0.734375q-0.109375 0.3125 -0.3125 0.515625q-0.203125 0.203125 -0.484375 0.296875q-0.265625 0.09375 -0.5625 0.09375q-0.328125 0 -0.59375 -0.09375q-0.265625 -0.09375 -0.46875 -0.296875q-0.203125 -0.203125 -0.328125 -0.515625q-0.109375 -0.3125 -0.109375 -0.734375zm16.761719 -8.53125q0 1.234375 -0.125 2.46875q-0.125 1.21875 -0.4375 2.328125q-0.296875 1.109375 -0.84375 2.078125q-0.53125 0.96875 -1.375 1.671875q-0.828125 0.703125 -1.984375 1.109375q-1.15625 0.40625 -2.71875 0.40625q-0.21875 0 -0.5 -0.015625q-0.265625 0 -0.53125 -0.03125q-0.265625 -0.03125 -0.53125 -0.078125q-0.25 -0.03125 -0.453125 -0.078125l0 -1.84375q0.40625 0.15625 0.921875 0.234375q0.515625 0.0625 1.015625 0.0625q1.59375 0 2.609375 -0.546875q1.015625 -0.546875 1.609375 -1.484375q0.609375 -0.953125 0.859375 -2.203125q0.25 -1.265625 0.3125 -2.65625l-0.15625 0q-0.234375 0.421875 -0.5625 0.796875q-0.328125 0.359375 -0.78125 0.625q-0.4375 0.265625 -1.0 0.421875q-0.5625 0.15625 -1.25 0.15625q-1.125 0 -2.03125 -0.34375q-0.890625 -0.359375 -1.53125 -1.015625q-0.625 -0.671875 -0.96875 -1.640625q-0.34375 -0.96875 -0.34375 -2.203125q0 -1.34375 0.359375 -2.40625q0.375 -1.078125 1.046875 -1.8125q0.671875 -0.75 1.640625 -1.140625q0.96875 -0.40625 2.15625 -0.40625q1.1875 0 2.203125 0.453125q1.03125 0.453125 1.78125 1.390625q0.75 0.9375 1.171875 2.359375q0.4375 1.421875 0.4375 3.34375zm-5.5625 -5.75q-0.703125 0 -1.28125 0.234375q-0.578125 0.234375 -1.0 0.734375q-0.421875 0.484375 -0.65625 1.234375q-0.234375 0.734375 -0.234375 1.765625q0 0.8125 0.1875 1.46875q0.203125 0.640625 0.59375 1.109375q0.390625 0.453125 0.96875 0.703125q0.578125 0.234375 1.34375 0.234375q0.796875 0 1.4375 -0.265625q0.65625 -0.28125 1.109375 -0.71875q0.453125 -0.4375 0.703125 -1.0q0.265625 -0.5625 0.265625 -1.125q0 -0.78125 -0.21875 -1.5625q-0.21875 -0.78125 -0.65625 -1.40625q-0.421875 -0.625 -1.0625 -1.015625q-0.640625 -0.390625 -1.5 -0.390625z" fill-rule="nonzero"/><path fill="#000000" fill-opacity="0.0" d="m1486.6825 412.70602l119.90552 0l0 67.433075l-119.90552 0z" fill-rule="evenodd"/><path fill="#3c78d8" d="m1511.288 440.4626l-2.109375 0l0 -13.4375q-0.75 0.71875 -2.0 1.453125q-1.234375 0.71875 -2.21875 1.078125l0 -2.03125q1.78125 -0.828125 3.09375 -2.015625q1.328125 -1.1875 1.875 -2.296875l1.359375 0l0 17.25zm32.08203 -8.46875q0 -3.046875 0.625 -4.90625q0.625 -1.859375 1.859375 -2.859375q1.234375 -1.015625 3.109375 -1.015625q1.390625 0 2.421875 0.5625q1.046875 0.546875 1.71875 1.59375q0.6875 1.046875 1.078125 2.5625q0.390625 1.5 0.390625 4.0625q0 3.015625 -0.625 4.875q-0.625 1.859375 -1.859375 2.875q-1.234375 1.015625 -3.125 1.015625q-2.484375 0 -3.890625 -1.78125q-1.703125 -2.15625 -1.703125 -6.984375zm2.171875 0q0 4.21875 0.984375 5.625q0.984375 1.40625 2.4375 1.40625q1.453125 0 2.4375 -1.40625q1.0 -1.40625 1.0 -5.625q0 -4.25 -1.0 -5.640625q-0.984375 -1.390625 -2.453125 -1.390625q-1.453125 0 -2.328125 1.21875q-1.078125 1.578125 -1.078125 5.8125zm12.363281 8.46875l0 -2.40625l2.390625 0l0 2.40625l-2.390625 0zm5.7929688 -3.96875l2.03125 -0.1875q0.25 1.421875 0.96875 2.078125q0.734375 0.640625 1.875 0.640625q0.96875 0 1.703125 -0.4375q0.734375 -0.453125 1.203125 -1.203125q0.46875 -0.75 0.78125 -2.015625q0.328125 -1.265625 0.328125 -2.578125q0 -0.140625 -0.015625 -0.421875q-0.640625 1.015625 -1.734375 1.640625q-1.09375 0.625 -2.375 0.625q-2.125 0 -3.609375 -1.546875q-1.46875 -1.546875 -1.46875 -4.078125q0 -2.609375 1.53125 -4.203125q1.546875 -1.59375 3.875 -1.59375q1.671875 0 3.0625 0.90625q1.390625 0.890625 2.109375 2.5625q0.71875 1.671875 0.71875 4.84375q0 3.28125 -0.71875 5.234375q-0.71875 1.953125 -2.125 2.984375q-1.40625 1.015625 -3.3125 1.015625q-2.015625 0 -3.296875 -1.125q-1.265625 -1.125 -1.53125 -3.140625zm8.640625 -7.59375q0 -1.8125 -0.96875 -2.875q-0.96875 -1.0625 -2.328125 -1.0625q-1.40625 0 -2.453125 1.15625q-1.03125 1.140625 -1.03125 2.96875q0 1.640625 0.984375 2.671875q0.984375 1.015625 2.4375 1.015625q1.46875 0 2.40625 -1.015625q0.953125 -1.03125 0.953125 -2.859375z" fill-rule="nonzero"/><path fill="#3c78d8" d="m1496.6825 460.99384q0 -3.046875 0.625 -4.90625q0.625 -1.859375 1.859375 -2.859375q1.234375 -1.015625 3.109375 -1.015625q1.390625 0 2.421875 0.5625q1.046875 0.546875 1.71875 1.59375q0.6875 1.046875 1.078125 2.5625q0.390625 1.5 0.390625 4.0625q0 3.015625 -0.625 4.875q-0.625 1.859375 -1.859375 2.875q-1.234375 1.015625 -3.125 1.015625q-2.484375 0 -3.890625 -1.78125q-1.703125 -2.15625 -1.703125 -6.984375zm2.171875 0q0 4.21875 0.984375 5.625q0.984375 1.40625 2.4375 1.40625q1.453125 0 2.4375 -1.40625q1.0 -1.40625 1.0 -5.625q0 -4.25 -1.0 -5.640625q-0.984375 -1.390625 -2.453125 -1.390625q-1.453125 0 -2.328125 1.21875q-1.078125 1.578125 -1.078125 5.8125zm12.363281 8.46875l0 -2.40625l2.390625 0l0 2.40625l-2.390625 0zm5.7929688 -3.96875l2.03125 -0.1875q0.25 1.421875 0.96875 2.078125q0.734375 0.640625 1.875 0.640625q0.96875 0 1.703125 -0.4375q0.734375 -0.453125 1.203125 -1.203125q0.46875 -0.75 0.78125 -2.015625q0.328125 -1.265625 0.328125 -2.578125q0 -0.140625 -0.015625 -0.421875q-0.640625 1.015625 -1.734375 1.640625q-1.09375 0.625 -2.375 0.625q-2.125 0 -3.609375 -1.546875q-1.46875 -1.546875 -1.46875 -4.078125q0 -2.609375 1.53125 -4.203125q1.546875 -1.59375 3.875 -1.59375q1.671875 0 3.0625 0.90625q1.390625 0.890625 2.109375 2.5625q0.71875 1.671875 0.71875 4.84375q0 3.28125 -0.71875 5.234375q-0.71875 1.953125 -2.125 2.984375q-1.40625 1.015625 -3.3125 1.015625q-2.015625 0 -3.296875 -1.125q-1.265625 -1.125 -1.53125 -3.140625zm8.640625 -7.59375q0 -1.8125 -0.96875 -2.875q-0.96875 -1.0625 -2.328125 -1.0625q-1.40625 0 -2.453125 1.15625q-1.03125 1.140625 -1.03125 2.96875q0 1.640625 0.984375 2.671875q0.984375 1.015625 2.4375 1.015625q1.46875 0 2.40625 -1.015625q0.953125 -1.03125 0.953125 -2.859375zm32.335938 11.5625l-2.109375 0l0 -13.4375q-0.75 0.71875 -2.0 1.453125q-1.234375 0.71875 -2.21875 1.078125l0 -2.03125q1.78125 -0.828125 3.09375 -2.015625q1.328125 -1.1875 1.875 -2.296875l1.359375 0l0 17.25z" fill-rule="nonzero"/><path fill="#000000" fill-opacity="0.0" d="m1494.6091 475.57217l0 0c-3.3398438 0 -6.047241 -0.20620728 -6.047241 -0.4606018l0 -57.37799l0 0c0 -0.122161865 0.63708496 -0.23931885 1.7712402 -0.3257141c1.1340332 -0.086364746 2.6721191 -0.1348877 4.276001 -0.1348877z" fill-rule="evenodd"/><path fill="#000000" fill-opacity="0.0" d="m1494.6091 475.57217l0 0c-3.3398438 0 -6.047241 -0.20620728 -6.047241 -0.4606018l0 -57.37799l0 0c0 -0.122161865 0.63708496 -0.23931885 1.7712402 -0.3257141c1.1340332 -0.086364746 2.6721191 -0.1348877 4.276001 -0.1348877" fill-rule="evenodd"/><path stroke="#3c78d8" stroke-width="1.0" stroke-linejoin="round" stroke-linecap="butt" d="m1494.6091 475.57217l0 0c-3.3398438 0 -6.047241 -0.20620728 -6.047241 -0.4606018l0 -57.37799l0 0c0 -0.122161865 0.63708496 -0.23931885 1.7712402 -0.3257141c1.1340332 -0.086364746 2.6721191 -0.1348877 4.276001 -0.1348877" fill-rule="evenodd"/><path fill="#000000" fill-opacity="0.0" d="m1579.1628 475.57217l0 0c3.3398438 0 6.047241 -0.20620728 6.047241 -0.4606018l0 -57.37799l0 0c0 -0.122161865 -0.63708496 -0.23931885 -1.7712402 -0.3257141c-1.1340332 -0.086364746 -2.6721191 -0.1348877 -4.276001 -0.1348877z" fill-rule="evenodd"/><path fill="#000000" fill-opacity="0.0" d="m1579.1628 475.57217l0 0c3.3398438 0 6.047241 -0.20620728 6.047241 -0.4606018l0 -57.37799l0 0c0 -0.122161865 -0.63708496 -0.23931885 -1.7712402 -0.3257141c-1.1340332 -0.086364746 -2.6721191 -0.1348877 -4.276001 -0.1348877" fill-rule="evenodd"/><path stroke="#3c78d8" stroke-width="1.0" stroke-linejoin="round" stroke-linecap="butt" d="m1579.1628 475.57217l0 0c3.3398438 0 6.047241 -0.20620728 6.047241 -0.4606018l0 -57.37799l0 0c0 -0.122161865 -0.63708496 -0.23931885 -1.7712402 -0.3257141c-1.1340332 -0.086364746 -2.6721191 -0.1348877 -4.276001 -0.1348877" fill-rule="evenodd"/><path fill="#000000" fill-opacity="0.0" d="m1091.0709 402.7848l67.433105 0l0 87.27557l-67.433105 0z" fill-rule="evenodd"/><path fill="#6aa84f" d="m1119.8187 435.23633l0 2.703125l-12.296875 0l7.8125 8.3125l-7.8125 9.1875l12.9375 0l0 2.703125l-16.21875 0l0 -3.15625l7.484375 -8.734375l-7.484375 -7.96875l0 -3.046875l15.578125 0z" fill-rule="nonzero"/><path fill="#6aa84f" d="m1131.6156 444.83008l0 -2.328125l14.4375 0l0 2.328125l-14.4375 0zm0 6.40625l0 -2.34375l14.4375 0l0 2.34375l-14.4375 0z" fill-rule="nonzero"/><path fill="#000000" fill-opacity="0.0" d="m1154.6982 412.70602l119.90552 0l0 67.433075l-119.90552 0z" fill-rule="evenodd"/><path fill="#6aa84f" d="m1179.3037 440.4626l-2.109375 0l0 -13.4375q-0.75 0.71875 -2.0 1.453125q-1.234375 0.71875 -2.21875 1.078125l0 -2.03125q1.78125 -0.828125 3.09375 -2.015625q1.328125 -1.1875 1.875 -2.296875l1.359375 0l0 17.25zm32.08203 -8.46875q0 -3.046875 0.625 -4.90625q0.625 -1.859375 1.859375 -2.859375q1.234375 -1.015625 3.109375 -1.015625q1.390625 0 2.421875 0.5625q1.046875 0.546875 1.71875 1.59375q0.6875 1.046875 1.078125 2.5625q0.390625 1.5 0.390625 4.0625q0 3.015625 -0.625 4.875q-0.625 1.859375 -1.859375 2.875q-1.234375 1.015625 -3.125 1.015625q-2.484375 0 -3.890625 -1.78125q-1.703125 -2.15625 -1.703125 -6.984375zm2.171875 0q0 4.21875 0.984375 5.625q0.984375 1.40625 2.4375 1.40625q1.453125 0 2.4375 -1.40625q1.0 -1.40625 1.0 -5.625q0 -4.25 -1.0 -5.640625q-0.984375 -1.390625 -2.453125 -1.390625q-1.453125 0 -2.328125 1.21875q-1.078125 1.578125 -1.078125 5.8125zm12.363281 8.46875l0 -2.40625l2.390625 0l0 2.40625l-2.390625 0zm5.4804688 -4.5l2.21875 -0.1875q0.234375 1.609375 1.125 2.4375q0.90625 0.8125 2.171875 0.8125q1.53125 0 2.578125 -1.140625q1.0625 -1.15625 1.0625 -3.0625q0 -1.796875 -1.015625 -2.84375q-1.015625 -1.046875 -2.65625 -1.046875q-1.015625 0 -1.84375 0.46875q-0.8125 0.453125 -1.28125 1.203125l-1.984375 -0.265625l1.65625 -8.828125l8.546875 0l0 2.015625l-6.859375 0l-0.921875 4.625q1.546875 -1.078125 3.25 -1.078125q2.25 0 3.796875 1.5625q1.546875 1.546875 1.546875 4.0q0 2.328125 -1.359375 4.03125q-1.65625 2.09375 -4.515625 2.09375q-2.34375 0 -3.828125 -1.3125q-1.484375 -1.3125 -1.6875 -3.484375z" fill-rule="nonzero"/><path fill="#6aa84f" d="m1164.6982 460.99384q0 -3.046875 0.625 -4.90625q0.625 -1.859375 1.859375 -2.859375q1.234375 -1.015625 3.109375 -1.015625q1.390625 0 2.421875 0.5625q1.046875 0.546875 1.71875 1.59375q0.6875 1.046875 1.078125 2.5625q0.390625 1.5 0.390625 4.0625q0 3.015625 -0.625 4.875q-0.625 1.859375 -1.859375 2.875q-1.234375 1.015625 -3.125 1.015625q-2.484375 0 -3.890625 -1.78125q-1.703125 -2.15625 -1.703125 -6.984375zm2.171875 0q0 4.21875 0.984375 5.625q0.984375 1.40625 2.4375 1.40625q1.453125 0 2.4375 -1.40625q1.0 -1.40625 1.0 -5.625q0 -4.25 -1.0 -5.640625q-0.984375 -1.390625 -2.453125 -1.390625q-1.453125 0 -2.328125 1.21875q-1.078125 1.578125 -1.078125 5.8125zm12.363281 8.46875l0 -2.40625l2.390625 0l0 2.40625l-2.390625 0zm5.4804688 -4.5l2.21875 -0.1875q0.234375 1.609375 1.125 2.4375q0.90625 0.8125 2.171875 0.8125q1.53125 0 2.578125 -1.140625q1.0625 -1.15625 1.0625 -3.0625q0 -1.796875 -1.015625 -2.84375q-1.015625 -1.046875 -2.65625 -1.046875q-1.015625 0 -1.84375 0.46875q-0.8125 0.453125 -1.28125 1.203125l-1.984375 -0.265625l1.65625 -8.828125l8.546875 0l0 2.015625l-6.859375 0l-0.921875 4.625q1.546875 -1.078125 3.25 -1.078125q2.25 0 3.796875 1.5625q1.546875 1.546875 1.546875 4.0q0 2.328125 -1.359375 4.03125q-1.65625 2.09375 -4.515625 2.09375q-2.34375 0 -3.828125 -1.3125q-1.484375 -1.3125 -1.6875 -3.484375zm41.289062 4.5l-2.109375 0l0 -13.4375q-0.75 0.71875 -2.0 1.453125q-1.234375 0.71875 -2.21875 1.078125l0 -2.03125q1.78125 -0.828125 3.09375 -2.015625q1.328125 -1.1875 1.875 -2.296875l1.359375 0l0 17.25z" fill-rule="nonzero"/><path fill="#000000" fill-opacity="0.0" d="m1162.6249 475.57217l0 0c-3.3398438 0 -6.047241 -0.20620728 -6.047241 -0.4606018l0 -57.37799l0 0c0 -0.122161865 0.63708496 -0.23931885 1.7712402 -0.3257141c1.1340332 -0.086364746 2.6721191 -0.1348877 4.276001 -0.1348877z" fill-rule="evenodd"/><path fill="#000000" fill-opacity="0.0" d="m1162.6249 475.57217l0 0c-3.3398438 0 -6.047241 -0.20620728 -6.047241 -0.4606018l0 -57.37799l0 0c0 -0.122161865 0.63708496 -0.23931885 1.7712402 -0.3257141c1.1340332 -0.086364746 2.6721191 -0.1348877 4.276001 -0.1348877" fill-rule="evenodd"/><path stroke="#6aa84f" stroke-width="1.0" stroke-linejoin="round" stroke-linecap="butt" d="m1162.6249 475.57217l0 0c-3.3398438 0 -6.047241 -0.20620728 -6.047241 -0.4606018l0 -57.37799l0 0c0 -0.122161865 0.63708496 -0.23931885 1.7712402 -0.3257141c1.1340332 -0.086364746 2.6721191 -0.1348877 4.276001 -0.1348877" fill-rule="evenodd"/><path fill="#000000" fill-opacity="0.0" d="m1247.1786 475.57217l0 0c3.3398438 0 6.047241 -0.20620728 6.047241 -0.4606018l0 -57.37799l0 0c0 -0.122161865 -0.63708496 -0.23931885 -1.7712402 -0.3257141c-1.1340332 -0.086364746 -2.6721191 -0.1348877 -4.276001 -0.1348877z" fill-rule="evenodd"/><path fill="#000000" fill-opacity="0.0" d="m1247.1786 475.57217l0 0c3.3398438 0 6.047241 -0.20620728 6.047241 -0.4606018l0 -57.37799l0 0c0 -0.122161865 -0.63708496 -0.23931885 -1.7712402 -0.3257141c-1.1340332 -0.086364746 -2.6721191 -0.1348877 -4.276001 -0.1348877" fill-rule="evenodd"/><path stroke="#6aa84f" stroke-width="1.0" stroke-linejoin="round" stroke-linecap="butt" d="m1247.1786 475.57217l0 0c3.3398438 0 6.047241 -0.20620728 6.047241 -0.4606018l0 -57.37799l0 0c0 -0.122161865 -0.63708496 -0.23931885 -1.7712402 -0.3257141c-1.1340332 -0.086364746 -2.6721191 -0.1348877 -4.276001 -0.1348877" fill-rule="evenodd"/><path fill="#000000" fill-opacity="0.0" d="m779.72705 402.7848l67.433044 0l0 87.27557l-67.433044 0z" fill-rule="evenodd"/><path fill="#f1c232" d="m808.4748 435.23633l0 2.703125l-12.296875 0l7.8125 8.3125l-7.8125 9.1875l12.9375 0l0 2.703125l-16.21875 0l0 -3.15625l7.484375 -8.734375l-7.484375 -7.96875l0 -3.046875l15.578125 0z" fill-rule="nonzero"/><path fill="#f1c232" d="m820.27167 444.83008l0 -2.328125l14.4375 0l0 2.328125l-14.4375 0zm0 6.40625l0 -2.34375l14.4375 0l0 2.34375l-14.4375 0z" fill-rule="nonzero"/><path fill="#000000" fill-opacity="0.0" d="m843.3543 412.70602l119.90552 0l0 67.433075l-119.90552 0z" fill-rule="evenodd"/><path fill="#f1c232" d="m861.2918 440.4626l-2.109375 0l0 -13.4375q-0.75 0.71875 -2.0 1.453125q-1.234375 0.71875 -2.21875 1.078125l0 -2.03125q1.78125 -0.828125 3.09375 -2.015625q1.328125 -1.1875 1.875 -2.296875l1.359375 0l0 17.25zm25.414062 -8.46875q0 -3.046875 0.625 -4.90625q0.625 -1.859375 1.859375 -2.859375q1.234375 -1.015625 3.109375 -1.015625q1.390625 0 2.421875 0.5625q1.046875 0.546875 1.71875 1.59375q0.6875 1.046875 1.078125 2.5625q0.390625 1.5 0.390625 4.0625q0 3.015625 -0.625 4.875q-0.625 1.859375 -1.859375 2.875q-1.234375 1.015625 -3.125 1.015625q-2.484375 0 -3.890625 -1.78125q-1.703125 -2.15625 -1.703125 -6.984375zm2.171875 0q0 4.21875 0.984375 5.625q0.984375 1.40625 2.4375 1.40625q1.453125 0 2.4375 -1.40625q1.0 -1.40625 1.0 -5.625q0 -4.25 -1.0 -5.640625q-0.984375 -1.390625 -2.453125 -1.390625q-1.453125 0 -2.328125 1.21875q-1.078125 1.578125 -1.078125 5.8125z" fill-rule="nonzero"/><path fill="#f1c232" d="m853.3543 460.99384q0 -3.046875 0.625 -4.90625q0.625 -1.859375 1.859375 -2.859375q1.234375 -1.015625 3.109375 -1.015625q1.390625 0 2.421875 0.5625q1.046875 0.546875 1.71875 1.59375q0.6875 1.046875 1.078125 2.5625q0.390625 1.5 0.390625 4.0625q0 3.015625 -0.625 4.875q-0.625 1.859375 -1.859375 2.875q-1.234375 1.015625 -3.125 1.015625q-2.484375 0 -3.890625 -1.78125q-1.703125 -2.15625 -1.703125 -6.984375zm2.171875 0q0 4.21875 0.984375 5.625q0.984375 1.40625 2.4375 1.40625q1.453125 0 2.4375 -1.40625q1.0 -1.40625 1.0 -5.625q0 -4.25 -1.0 -5.640625q-0.984375 -1.390625 -2.453125 -1.390625q-1.453125 0 -2.328125 1.21875q-1.078125 1.578125 -1.078125 5.8125zm39.117188 8.46875l-2.109375 0l0 -13.4375q-0.75 0.71875 -2.0 1.453125q-1.234375 0.71875 -2.21875 1.078125l0 -2.03125q1.78125 -0.828125 3.09375 -2.015625q1.328125 -1.1875 1.875 -2.296875l1.359375 0l0 17.25z" fill-rule="nonzero"/><path fill="#000000" fill-opacity="0.0" d="m851.28094 475.57217l0 0c-3.3398438 0 -6.047241 -0.20620728 -6.047241 -0.4606018l0 -57.37799l0 0c0 -0.122161865 0.63708496 -0.23931885 1.7711792 -0.3257141c1.1340942 -0.086364746 2.6722412 -0.1348877 4.276062 -0.1348877z" fill-rule="evenodd"/><path fill="#000000" fill-opacity="0.0" d="m851.28094 475.57217l0 0c-3.3398438 0 -6.047241 -0.20620728 -6.047241 -0.4606018l0 -57.37799l0 0c0 -0.122161865 0.63708496 -0.23931885 1.7711792 -0.3257141c1.1340942 -0.086364746 2.6722412 -0.1348877 4.276062 -0.1348877" fill-rule="evenodd"/><path stroke="#f1c232" stroke-width="1.0" stroke-linejoin="round" stroke-linecap="butt" d="m851.28094 475.57217l0 0c-3.3398438 0 -6.047241 -0.20620728 -6.047241 -0.4606018l0 -57.37799l0 0c0 -0.122161865 0.63708496 -0.23931885 1.7711792 -0.3257141c1.1340942 -0.086364746 2.6722412 -0.1348877 4.276062 -0.1348877" fill-rule="evenodd"/><path fill="#000000" fill-opacity="0.0" d="m903.83466 475.57217l0 0c3.3397827 0 6.047241 -0.20620728 6.047241 -0.4606018l0 -57.37799l0 0c0 -0.122161865 -0.637146 -0.23931885 -1.7711792 -0.3257141c-1.1340942 -0.086364746 -2.6722412 -0.1348877 -4.276062 -0.1348877z" fill-rule="evenodd"/><path fill="#000000" fill-opacity="0.0" d="m903.83466 475.57217l0 0c3.3397827 0 6.047241 -0.20620728 6.047241 -0.4606018l0 -57.37799l0 0c0 -0.122161865 -0.637146 -0.23931885 -1.7711792 -0.3257141c-1.1340942 -0.086364746 -2.6722412 -0.1348877 -4.276062 -0.1348877" fill-rule="evenodd"/><path stroke="#f1c232" stroke-width="1.0" stroke-linejoin="round" stroke-linecap="butt" d="m903.83466 475.57217l0 0c3.3397827 0 6.047241 -0.20620728 6.047241 -0.4606018l0 -57.37799l0 0c0 -0.122161865 -0.637146 -0.23931885 -1.7711792 -0.3257141c-1.1340942 -0.086364746 -2.6722412 -0.1348877 -4.276062 -0.1348877" fill-rule="evenodd"/><path fill="#000000" fill-opacity="0.0" d="m412.87686 402.7848l67.433075 0l0 87.27557l-67.433075 0z" fill-rule="evenodd"/><path fill="#e69138" d="m441.62466 435.23633l0 2.703125l-12.296875 0l7.8125 8.3125l-7.8125 9.1875l12.9375 0l0 2.703125l-16.21875 0l0 -3.15625l7.484375 -8.734375l-7.484375 -7.96875l0 -3.046875l15.578125 0z" fill-rule="nonzero"/><path fill="#e69138" d="m453.42154 444.83008l0 -2.328125l14.4375 0l0 2.328125l-14.4375 0zm0 6.40625l0 -2.34375l14.4375 0l0 2.34375l-14.4375 0z" fill-rule="nonzero"/><path fill="#000000" fill-opacity="0.0" d="m476.50415 412.70602l119.90552 0l0 67.433075l-119.90552 0z" fill-rule="evenodd"/><path fill="#e69138" d="m501.10962 440.4626l-2.109375 0l0 -13.4375q-0.75 0.71875 -2.0 1.453125q-1.234375 0.71875 -2.21875 1.078125l0 -2.03125q1.78125 -0.828125 3.09375 -2.015625q1.328125 -1.1875 1.875 -2.296875l1.359375 0l0 17.25zm31.847656 -5.15625l0 -2.125l6.484375 0l0 2.125l-6.484375 0zm8.2265625 -3.3125q0 -3.046875 0.625 -4.90625q0.625 -1.859375 1.859375 -2.859375q1.234375 -1.015625 3.109375 -1.015625q1.390625 0 2.421875 0.5625q1.046875 0.546875 1.71875 1.59375q0.6875 1.046875 1.078125 2.5625q0.390625 1.5 0.390625 4.0625q0 3.015625 -0.625 4.875q-0.625 1.859375 -1.859375 2.875q-1.234375 1.015625 -3.125 1.015625q-2.484375 0 -3.890625 -1.78125q-1.703125 -2.15625 -1.703125 -6.984375zm2.171875 0q0 4.21875 0.984375 5.625q0.984375 1.40625 2.4375 1.40625q1.453125 0 2.4375 -1.40625q1.0 -1.40625 1.0 -5.625q0 -4.25 -1.0 -5.640625q-0.984375 -1.390625 -2.453125 -1.390625q-1.453125 0 -2.328125 1.21875q-1.078125 1.578125 -1.078125 5.8125zm12.363281 8.46875l0 -2.40625l2.390625 0l0 2.40625l-2.390625 0zm5.4804688 -4.5l2.21875 -0.1875q0.234375 1.609375 1.125 2.4375q0.90625 0.8125 2.171875 0.8125q1.53125 0 2.578125 -1.140625q1.0625 -1.15625 1.0625 -3.0625q0 -1.796875 -1.015625 -2.84375q-1.015625 -1.046875 -2.65625 -1.046875q-1.015625 0 -1.84375 0.46875q-0.8125 0.453125 -1.28125 1.203125l-1.984375 -0.265625l1.65625 -8.828125l8.546875 0l0 2.015625l-6.859375 0l-0.921875 4.625q1.546875 -1.078125 3.25 -1.078125q2.25 0 3.796875 1.5625q1.546875 1.546875 1.546875 4.0q0 2.328125 -1.359375 4.03125q-1.65625 2.09375 -4.515625 2.09375q-2.34375 0 -3.828125 -1.3125q-1.484375 -1.3125 -1.6875 -3.484375z" fill-rule="nonzero"/><path fill="#e69138" d="m486.26978 464.30634l0 -2.125l6.484375 0l0 2.125l-6.484375 0zm8.2265625 -3.3125q0 -3.046875 0.625 -4.90625q0.625 -1.859375 1.859375 -2.859375q1.234375 -1.015625 3.109375 -1.015625q1.390625 0 2.421875 0.5625q1.046875 0.546875 1.71875 1.59375q0.6875 1.046875 1.078125 2.5625q0.390625 1.5 0.390625 4.0625q0 3.015625 -0.625 4.875q-0.625 1.859375 -1.859375 2.875q-1.234375 1.015625 -3.125 1.015625q-2.484375 0 -3.890625 -1.78125q-1.703125 -2.15625 -1.703125 -6.984375zm2.171875 0q0 4.21875 0.984375 5.625q0.984375 1.40625 2.4375 1.40625q1.453125 0 2.4375 -1.40625q1.0 -1.40625 1.0 -5.625q0 -4.25 -1.0 -5.640625q-0.984375 -1.390625 -2.453125 -1.390625q-1.453125 0 -2.328125 1.21875q-1.078125 1.578125 -1.078125 5.8125zm12.363281 8.46875l0 -2.40625l2.390625 0l0 2.40625l-2.390625 0zm5.4804688 -4.5l2.21875 -0.1875q0.234375 1.609375 1.125 2.4375q0.90625 0.8125 2.171875 0.8125q1.53125 0 2.578125 -1.140625q1.0625 -1.15625 1.0625 -3.0625q0 -1.796875 -1.015625 -2.84375q-1.015625 -1.046875 -2.65625 -1.046875q-1.015625 0 -1.84375 0.46875q-0.8125 0.453125 -1.28125 1.203125l-1.984375 -0.265625l1.65625 -8.828125l8.546875 0l0 2.015625l-6.859375 0l-0.921875 4.625q1.546875 -1.078125 3.25 -1.078125q2.25 0 3.796875 1.5625q1.546875 1.546875 1.546875 4.0q0 2.328125 -1.359375 4.03125q-1.65625 2.09375 -4.515625 2.09375q-2.34375 0 -3.828125 -1.3125q-1.484375 -1.3125 -1.6875 -3.484375zm41.289062 4.5l-2.109375 0l0 -13.4375q-0.75 0.71875 -2.0 1.453125q-1.234375 0.71875 -2.21875 1.078125l0 -2.03125q1.78125 -0.828125 3.09375 -2.015625q1.328125 -1.1875 1.875 -2.296875l1.359375 0l0 17.25z" fill-rule="nonzero"/><path fill="#000000" fill-opacity="0.0" d="m484.43076 475.57217l0 0c-3.3397827 0 -6.047241 -0.20620728 -6.047241 -0.4606018l0 -57.37799l0 0c0 -0.122161865 0.6371155 -0.23931885 1.7712097 -0.3257141c1.1340637 -0.086364746 2.6722107 -0.1348877 4.2760315 -0.1348877z" fill-rule="evenodd"/><path fill="#000000" fill-opacity="0.0" d="m484.43076 475.57217l0 0c-3.3397827 0 -6.047241 -0.20620728 -6.047241 -0.4606018l0 -57.37799l0 0c0 -0.122161865 0.6371155 -0.23931885 1.7712097 -0.3257141c1.1340637 -0.086364746 2.6722107 -0.1348877 4.2760315 -0.1348877" fill-rule="evenodd"/><path stroke="#e69138" stroke-width="1.0" stroke-linejoin="round" stroke-linecap="butt" d="m484.43076 475.57217l0 0c-3.3397827 0 -6.047241 -0.20620728 -6.047241 -0.4606018l0 -57.37799l0 0c0 -0.122161865 0.6371155 -0.23931885 1.7712097 -0.3257141c1.1340637 -0.086364746 2.6722107 -0.1348877 4.2760315 -0.1348877" fill-rule="evenodd"/><path fill="#000000" fill-opacity="0.0" d="m576.9845 475.57217l0 0c3.3397827 0 6.047241 -0.20620728 6.047241 -0.4606018l0 -57.37799l0 0c0 -0.122161865 -0.637146 -0.23931885 -1.7711792 -0.3257141c-1.1340942 -0.086364746 -2.6722412 -0.1348877 -4.276062 -0.1348877z" fill-rule="evenodd"/><path fill="#000000" fill-opacity="0.0" d="m576.9845 475.57217l0 0c3.3397827 0 6.047241 -0.20620728 6.047241 -0.4606018l0 -57.37799l0 0c0 -0.122161865 -0.637146 -0.23931885 -1.7711792 -0.3257141c-1.1340942 -0.086364746 -2.6722412 -0.1348877 -4.276062 -0.1348877" fill-rule="evenodd"/><path stroke="#e69138" stroke-width="1.0" stroke-linejoin="round" stroke-linecap="butt" d="m576.9845 475.57217l0 0c3.3397827 0 6.047241 -0.20620728 6.047241 -0.4606018l0 -57.37799l0 0c0 -0.122161865 -0.637146 -0.23931885 -1.7711792 -0.3257141c-1.1340942 -0.086364746 -2.6722412 -0.1348877 -4.276062 -0.1348877" fill-rule="evenodd"/><path fill="#000000" fill-opacity="0.0" d="m79.05523 402.7848l67.43307 0l0 87.27557l-67.43307 0z" fill-rule="evenodd"/><path fill="#cc0000" d="m107.80302 435.23633l0 2.703125l-12.296875 0l7.8125 8.3125l-7.8125 9.1875l12.9375 0l0 2.703125l-16.21875 0l0 -3.15625l7.484375 -8.734375l-7.484375 -7.96875l0 -3.046875l15.578125 0z" fill-rule="nonzero"/><path fill="#cc0000" d="m119.59989 444.83008l0 -2.328125l14.437492 0l0 2.328125l-14.437492 0zm0 6.40625l0 -2.34375l14.437492 0l0 2.34375l-14.437492 0z" fill-rule="nonzero"/><path fill="#000000" fill-opacity="0.0" d="m142.68251 412.70602l119.90553 0l0 67.433075l-119.90553 0z" fill-rule="evenodd"/><path fill="#cc0000" d="m167.28798 440.4626l-2.109375 0l0 -13.4375q-0.75 0.71875 -2.0 1.453125q-1.234375 0.71875 -2.21875 1.078125l0 -2.03125q1.78125 -0.828125 3.09375 -2.015625q1.328125 -1.1875 1.875 -2.296875l1.359375 0l0 17.25zm31.847656 -5.15625l0 -2.125l6.484375 0l0 2.125l-6.484375 0zm8.2265625 -3.3125q0 -3.046875 0.625 -4.90625q0.625 -1.859375 1.859375 -2.859375q1.234375 -1.015625 3.109375 -1.015625q1.390625 0 2.421875 0.5625q1.046875 0.546875 1.71875 1.59375q0.6875 1.046875 1.078125 2.5625q0.390625 1.5 0.390625 4.0625q0 3.015625 -0.625 4.875q-0.625 1.859375 -1.859375 2.875q-1.234375 1.015625 -3.125 1.015625q-2.484375 0 -3.890625 -1.78125q-1.703125 -2.15625 -1.703125 -6.984375zm2.171875 0q0 4.21875 0.984375 5.625q0.984375 1.40625 2.4375 1.40625q1.453125 0 2.4375 -1.40625q1.0 -1.40625 1.0 -5.625q0 -4.25 -1.0 -5.640625q-0.984375 -1.390625 -2.453125 -1.390625q-1.453125 0 -2.328125 1.21875q-1.078125 1.578125 -1.078125 5.8125zm12.363281 8.46875l0 -2.40625l2.390625 0l0 2.40625l-2.390625 0zm5.7929688 -3.96875l2.03125 -0.1875q0.25 1.421875 0.96875 2.078125q0.734375 0.640625 1.875 0.640625q0.96875 0 1.703125 -0.4375q0.734375 -0.453125 1.203125 -1.203125q0.46875 -0.75 0.78125 -2.015625q0.328125 -1.265625 0.328125 -2.578125q0 -0.140625 -0.015625 -0.421875q-0.640625 1.015625 -1.734375 1.640625q-1.09375 0.625 -2.375 0.625q-2.125 0 -3.609375 -1.546875q-1.46875 -1.546875 -1.46875 -4.078125q0 -2.609375 1.53125 -4.203125q1.546875 -1.59375 3.875 -1.59375q1.671875 0 3.0625 0.90625q1.390625 0.890625 2.109375 2.5625q0.71875 1.671875 0.71875 4.84375q0 3.28125 -0.71875 5.234375q-0.71875 1.953125 -2.125 2.984375q-1.40625 1.015625 -3.3125 1.015625q-2.015625 0 -3.296875 -1.125q-1.265625 -1.125 -1.53125 -3.140625zm8.640625 -7.59375q0 -1.8125 -0.96875 -2.875q-0.96875 -1.0625 -2.328125 -1.0625q-1.40625 0 -2.453125 1.15625q-1.03125 1.140625 -1.03125 2.96875q0 1.640625 0.984375 2.671875q0.984375 1.015625 2.4375 1.015625q1.46875 0 2.40625 -1.015625q0.953125 -1.03125 0.953125 -2.859375z" fill-rule="nonzero"/><path fill="#cc0000" d="m152.44814 464.30634l0 -2.125l6.484375 0l0 2.125l-6.484375 0zm8.2265625 -3.3125q0 -3.046875 0.625 -4.90625q0.625 -1.859375 1.859375 -2.859375q1.234375 -1.015625 3.109375 -1.015625q1.390625 0 2.421875 0.5625q1.046875 0.546875 1.71875 1.59375q0.6875 1.046875 1.078125 2.5625q0.390625 1.5 0.390625 4.0625q0 3.015625 -0.625 4.875q-0.625 1.859375 -1.859375 2.875q-1.234375 1.015625 -3.125 1.015625q-2.484375 0 -3.890625 -1.78125q-1.703125 -2.15625 -1.703125 -6.984375zm2.171875 0q0 4.21875 0.984375 5.625q0.984375 1.40625 2.4375 1.40625q1.453125 0 2.4375 -1.40625q1.0 -1.40625 1.0 -5.625q0 -4.25 -1.0 -5.640625q-0.984375 -1.390625 -2.453125 -1.390625q-1.453125 0 -2.328125 1.21875q-1.078125 1.578125 -1.078125 5.8125zm12.363281 8.46875l0 -2.40625l2.390625 0l0 2.40625l-2.390625 0zm5.7929688 -3.96875l2.03125 -0.1875q0.25 1.421875 0.96875 2.078125q0.734375 0.640625 1.875 0.640625q0.96875 0 1.703125 -0.4375q0.734375 -0.453125 1.203125 -1.203125q0.46875 -0.75 0.78125 -2.015625q0.328125 -1.265625 0.328125 -2.578125q0 -0.140625 -0.015625 -0.421875q-0.640625 1.015625 -1.734375 1.640625q-1.09375 0.625 -2.375 0.625q-2.125 0 -3.609375 -1.546875q-1.46875 -1.546875 -1.46875 -4.078125q0 -2.609375 1.53125 -4.203125q1.546875 -1.59375 3.875 -1.59375q1.671875 0 3.0625 0.90625q1.390625 0.890625 2.109375 2.5625q0.71875 1.671875 0.71875 4.84375q0 3.28125 -0.71875 5.234375q-0.71875 1.953125 -2.125 2.984375q-1.40625 1.015625 -3.3125 1.015625q-2.015625 0 -3.296875 -1.125q-1.265625 -1.125 -1.53125 -3.140625zm8.640625 -7.59375q0 -1.8125 -0.96875 -2.875q-0.96875 -1.0625 -2.328125 -1.0625q-1.40625 0 -2.453125 1.15625q-1.03125 1.140625 -1.03125 2.96875q0 1.640625 0.984375 2.671875q0.984375 1.015625 2.4375 1.015625q1.46875 0 2.40625 -1.015625q0.953125 -1.03125 0.953125 -2.859375zm32.335938 11.5625l-2.109375 0l0 -13.4375q-0.75 0.71875 -2.0 1.453125q-1.234375 0.71875 -2.21875 1.078125l0 -2.03125q1.78125 -0.828125 3.09375 -2.015625q1.328125 -1.1875 1.875 -2.296875l1.359375 0l0 17.25z" fill-rule="nonzero"/><path fill="#000000" fill-opacity="0.0" d="m150.60913 475.57217l0 0c-3.339798 0 -6.047241 -0.20620728 -6.047241 -0.4606018l0 -57.37799l0 0c0 -0.122161865 0.6371155 -0.23931885 1.7711945 -0.3257141c1.134079 -0.086364746 2.6722107 -0.1348877 4.2760468 -0.1348877z" fill-rule="evenodd"/><path fill="#000000" fill-opacity="0.0" d="m150.60913 475.57217l0 0c-3.339798 0 -6.047241 -0.20620728 -6.047241 -0.4606018l0 -57.37799l0 0c0 -0.122161865 0.6371155 -0.23931885 1.7711945 -0.3257141c1.134079 -0.086364746 2.6722107 -0.1348877 4.2760468 -0.1348877" fill-rule="evenodd"/><path stroke="#cc0000" stroke-width="1.0" stroke-linejoin="round" stroke-linecap="butt" d="m150.60913 475.57217l0 0c-3.339798 0 -6.047241 -0.20620728 -6.047241 -0.4606018l0 -57.37799l0 0c0 -0.122161865 0.6371155 -0.23931885 1.7711945 -0.3257141c1.134079 -0.086364746 2.6722107 -0.1348877 4.2760468 -0.1348877" fill-rule="evenodd"/><path fill="#000000" fill-opacity="0.0" d="m243.16284 475.57217l0 0c3.339798 0 6.047241 -0.20620728 6.047241 -0.4606018l0 -57.37799l0 0c0 -0.122161865 -0.6371155 -0.23931885 -1.7711945 -0.3257141c-1.134079 -0.086364746 -2.6722107 -0.1348877 -4.2760468 -0.1348877z" fill-rule="evenodd"/><path fill="#000000" fill-opacity="0.0" d="m243.16284 475.57217l0 0c3.339798 0 6.047241 -0.20620728 6.047241 -0.4606018l0 -57.37799l0 0c0 -0.122161865 -0.6371155 -0.23931885 -1.7711945 -0.3257141c-1.134079 -0.086364746 -2.6722107 -0.1348877 -4.2760468 -0.1348877" fill-rule="evenodd"/><path stroke="#cc0000" stroke-width="1.0" stroke-linejoin="round" stroke-linecap="butt" d="m243.16284 475.57217l0 0c3.339798 0 6.047241 -0.20620728 6.047241 -0.4606018l0 -57.37799l0 0c0 -0.122161865 -0.6371155 -0.23931885 -1.7711945 -0.3257141c-1.134079 -0.086364746 -2.6722107 -0.1348877 -4.2760468 -0.1348877" fill-rule="evenodd"/><path fill="#f1c232" d="m844.2336 173.54068l0 0c0 -3.783371 3.0670166 -6.8503876 6.850403 -6.8503876l0 0c1.8168335 0 3.5592651 0.72172546 4.843994 2.006424c1.284668 1.2846985 2.0064087 3.0271301 2.0064087 4.8439636l0 0c0 3.783371 -3.0670166 6.850403 -6.850403 6.850403l0 0c-3.7833862 0 -6.850403 -3.0670319 -6.850403 -6.850403z" fill-rule="evenodd"/><path fill="#f1c232" d="m860.2336 205.54068l0 0c0 -3.783371 3.0670166 -6.8503876 6.850403 -6.8503876l0 0c1.8168335 0 3.5592651 0.72172546 4.843994 2.006424c1.284668 1.2846985 2.0064087 3.0271301 2.0064087 4.8439636l0 0c0 3.783371 -3.0670166 6.850403 -6.850403 6.850403l0 0c-3.7833862 0 -6.850403 -3.0670319 -6.850403 -6.850403z" fill-rule="evenodd"/><path fill="#f1c232" d="m884.2336 93.54068l0 0c0 -3.7833633 3.0670166 -6.8503876 6.850403 -6.8503876l0 0c1.8168335 0 3.5592651 0.7217331 4.843994 2.0064316c1.284668 1.2846985 2.0064087 3.0271225 2.0064087 4.843956l0 0c0 3.783371 -3.0670166 6.850395 -6.850403 6.850395l0 0c-3.7833862 0 -6.850403 -3.0670242 -6.850403 -6.850395z" fill-rule="evenodd"/><path fill="#f1c232" d="m804.2336 101.54068l0 0c0 -3.7833633 3.0670166 -6.8503876 6.850403 -6.8503876l0 0c1.8168335 0 3.5592651 0.7217331 4.843994 2.0064316c1.284668 1.2846985 2.0064087 3.0271225 2.0064087 4.843956l0 0c0 3.783371 -3.0670166 6.850395 -6.850403 6.850395l0 0c-3.7833862 0 -6.850403 -3.0670242 -6.850403 -6.850395z" fill-rule="evenodd"/><path fill="#f1c232" d="m804.2336 189.54068l0 0c0 -3.783371 3.0670166 -6.8503876 6.850403 -6.8503876l0 0c1.8168335 0 3.5592651 0.72172546 4.843994 2.006424c1.284668 1.2846985 2.0064087 3.0271301 2.0064087 4.8439636l0 0c0 3.783371 -3.0670166 6.850403 -6.850403 6.850403l0 0c-3.7833862 0 -6.850403 -3.0670319 -6.850403 -6.850403z" fill-rule="evenodd"/><path fill="#f1c232" d="m836.2336 253.54068l0 0c0 -3.783371 3.0670166 -6.8503876 6.850403 -6.8503876l0 0c1.8168335 0 3.5592651 0.72172546 4.843994 2.006424c1.284668 1.2846985 2.0064087 3.0271301 2.0064087 4.8439636l0 0c0 3.7833557 -3.0670166 6.850403 -6.850403 6.850403l0 0c-3.7833862 0 -6.850403 -3.067047 -6.850403 -6.850403z" fill-rule="evenodd"/><path fill="#f1c232" d="m756.2336 221.54068l0 0c0 -3.783371 3.0670166 -6.8503876 6.850403 -6.8503876l0 0c1.8168335 0 3.5592651 0.72172546 4.843994 2.006424c1.284668 1.2846985 2.0064087 3.0271301 2.0064087 4.8439636l0 0c0 3.783371 -3.0670166 6.850403 -6.850403 6.850403l0 0c-3.7833862 0 -6.850403 -3.0670319 -6.850403 -6.850403z" fill-rule="evenodd"/><path fill="#f1c232" d="m924.2336 181.54068l0 0c0 -3.783371 3.0670166 -6.8503876 6.850403 -6.8503876l0 0c1.8168335 0 3.5592651 0.72172546 4.843994 2.006424c1.284668 1.2846985 2.0064087 3.0271301 2.0064087 4.8439636l0 0c0 3.783371 -3.0670166 6.850403 -6.850403 6.850403l0 0c-3.7833862 0 -6.850403 -3.0670319 -6.850403 -6.850403z" fill-rule="evenodd"/><path fill="#f1c232" d="m756.2336 125.54068l0 0c0 -3.7833633 3.0670166 -6.8503876 6.850403 -6.8503876l0 0c1.8168335 0 3.5592651 0.7217331 4.843994 2.0064316c1.284668 1.2846985 2.0064087 3.0271225 2.0064087 4.843956l0 0c0 3.783371 -3.0670166 6.850403 -6.850403 6.850403l0 0c-3.7833862 0 -6.850403 -3.0670319 -6.850403 -6.850403z" fill-rule="evenodd"/><path fill="#f1c232" d="m852.2336 125.54068l0 0c0 -3.7833633 3.0670166 -6.8503876 6.850403 -6.8503876l0 0c1.8168335 0 3.5592651 0.7217331 4.843994 2.0064316c1.284668 1.2846985 2.0064087 3.0271225 2.0064087 4.843956l0 0c0 3.783371 -3.0670166 6.850403 -6.850403 6.850403l0 0c-3.7833862 0 -6.850403 -3.0670319 -6.850403 -6.850403z" fill-rule="evenodd"/></g></svg>