<svg height="335" viewBox="0 0 460.8 251.3" width="614.4" xmlns="http://www.w3.org/2000/svg" xmlns:xlink="http://www.w3.org/1999/xlink"><defs><style>*{stroke-linecap:butt;stroke-linejoin:round}</style></defs><g id="figure_1"><path d="M0 251.3h460.8V0H0z" fill="#fff" id="patch_1"/><g id="axes_1"><path d="M50.9 213.6h396.6V16.2H50.9z" fill="#fff" id="patch_2"/><path clip-path="url(#p531b4a1e5e)" d="M68.9 31.1v25l12.9 22.2 12.9-15.5 12.8 16.6 13-1.2 12.8 3.5 12.9 94.2 12.8 28.7 13-6 12.8-29.3 12.9 3.8 12.8-40.8 13-78.7 12.8 9.3 12.9-10.3 12.9 2.1 12.8-.8 13 6.2 12.8 15.2 12.9-13.5 12.8-5.4 13 14.9L352.1 46l12.9 9.7 12.8 11.4 13-15 12.8 15.2 13-11.3 12.9 4.2V30.8l-13-.2-12.8 7-12.9-9.2-12.9 9-12.8-6.5-13-5.8-12.8 8.4-12.9-3.4-12.8 5.3-13 5.3-12.8-6.8-12.9-3.8-12.8.5h-13l-12.8 4.3-12.9-5.3-12.9 51.6-12.8 39.7-13-12.6-12.8 31.2-12.9 1.2-12.8-31-13-66.5-12.8-3.4-12.9-1.1-12.8-6.2-13 8.4L69 31z" fill="#1f77b4" fill-opacity=".3" id="PolyCollection_1"/><g id="matplotlib.axis_1"><g id="xtick_1"><g id="line2d_1"><defs><path d="M0 0v3.5" id="m3768053c7b" stroke="#000" stroke-width=".8"/></defs><use x="62.4" xlink:href="#m3768053c7b" y="213.6" stroke="#000" stroke-width=".8"/></g><g id="text_1"><defs><path d="M31.8 66.4q-7.6 0-11.5-7.5-3.8-7.5-3.8-22.5t3.8-22.5q3.9-7.5 11.5-7.5 7.7 0 11.5 7.5T47 36.4q0 15-3.8 22.5t-11.5 7.5zm0 7.8q12.2 0 18.7-9.7T57 36.4Q57 18 50.5 8.3 44-1.4 31.8-1.4 19.5-1.4 13 8.3t-6.5 28q0 18.5 6.5 28.2 6.4 9.7 18.7 9.7z" id="DejaVuSans-48"/><path d="M10.7 12.4H21V0H10.7z" id="DejaVuSans-46"/></defs><g transform="matrix(.1 0 0 -.1 54.4 228.2)"><use xlink:href="#DejaVuSans-48"/><use x="63.6" xlink:href="#DejaVuSans-46"/><use x="95.4" xlink:href="#DejaVuSans-48"/></g></g></g><g id="xtick_2"><use x="137.1" xlink:href="#m3768053c7b" y="213.6" stroke="#000" stroke-width=".8" id="line2d_2"/><g id="text_2"><defs><path d="M19.2 8.3h34.4V0H7.3v8.3l15.3 15.6q9.7 9.8 12.2 12.6 4.7 5.3 6.6 9 2 3.7 2 7.3 0 5.8-4.2 9.5-4 3.6-10.6 3.6-4.6 0-9.8-1.6-5.1-1.6-11-4.9v10q6 2.4 11.1 3.6 5.2 1.2 9.5 1.2 11.4 0 18-5.7 6.8-5.6 6.8-15 0-4.6-1.7-8.6-1.6-4-6-9.5l-7.9-8.2L19.2 8.3z" id="DejaVuSans-50"/></defs><g transform="matrix(.1 0 0 -.1 129.2 228.2)"><use xlink:href="#DejaVuSans-48"/><use x="63.6" xlink:href="#DejaVuSans-46"/><use x="95.4" xlink:href="#DejaVuSans-50"/></g></g></g><g id="xtick_3"><use x="211.8" xlink:href="#m3768053c7b" y="213.6" stroke="#000" stroke-width=".8" id="line2d_3"/><g id="text_3"><defs><path d="M37.8 64.3l-25-39h25zM35.2 73h12.4V25.4H58v-8.2H47.6V0h-9.8v17.2h-33v9.5z" id="DejaVuSans-52"/></defs><g transform="matrix(.1 0 0 -.1 203.9 228.2)"><use xlink:href="#DejaVuSans-48"/><use x="63.6" xlink:href="#DejaVuSans-46"/><use x="95.4" xlink:href="#DejaVuSans-52"/></g></g></g><g id="xtick_4"><use x="286.5" xlink:href="#m3768053c7b" y="213.6" stroke="#000" stroke-width=".8" id="line2d_4"/><g id="text_4"><defs><path d="M33 40.4q-6.6 0-10.5-4.6-3.9-4.5-3.9-12.4T22.5 11Q26.4 6.4 33 6.4q6.7 0 10.5 4.6 4 4.5 4 12.4t-4 12.4q-3.8 4.6-10.5 4.6zm19.6 30.9v-9Q48.9 64.1 45 65q-3.8 1-7.5 1-9.8 0-15-6.7-5-6.6-5.8-19.9 2.9 4.3 7.2 6.5 4.4 2.3 9.6 2.3 11 0 17.4-6.7 6.3-6.6 6.3-18.1 0-11.2-6.6-18Q44-1.4 33-1.4q-12.6 0-19.3 9.7Q7 18 7 36.3 7 53.8 15.2 64q8.2 10.3 22 10.3 3.7 0 7.5-.7 3.8-.8 7.9-2.2z" id="DejaVuSans-54"/></defs><g transform="matrix(.1 0 0 -.1 278.6 228.2)"><use xlink:href="#DejaVuSans-48"/><use x="63.6" xlink:href="#DejaVuSans-46"/><use x="95.4" xlink:href="#DejaVuSans-54"/></g></g></g><g id="xtick_5"><use x="361.2" xlink:href="#m3768053c7b" y="213.6" stroke="#000" stroke-width=".8" id="line2d_5"/><g id="text_5"><defs><path d="M31.8 34.6q-7 0-11-3.7-4.1-3.8-4.1-10.4 0-6.6 4-10.3 4-3.8 11-3.8 7.1 0 11.2 3.8 4 3.8 4 10.3 0 6.6-4 10.4-4 3.7-11.1 3.7zm-9.9 4.2q-6.3 1.6-9.9 6Q8.5 49 8.5 55.2q0 8.8 6.2 13.8 6.3 5.1 17 5.1 11 0 17.2-5Q55 64 55 55.2q0-6.2-3.6-10.6-3.5-4.3-9.8-5.9 7.1-1.6 11.1-6.5 4-4.8 4-11.8 0-10.6-6.5-16.3-6.5-5.6-18.5-5.6T13.2 4.2Q6.8 10 6.8 20.5q0 7 4 11.8 4 4.9 11.1 6.5zm-3.6 15.6q0-5.7 3.5-8.8 3.6-3.2 10-3.2 6.3 0 10 3.2 3.5 3.1 3.5 8.8 0 5.7-3.6 8.8-3.6 3.2-10 3.2-6.3 0-9.9-3.2-3.5-3.1-3.5-8.8z" id="DejaVuSans-56"/></defs><g transform="matrix(.1 0 0 -.1 353.3 228.2)"><use xlink:href="#DejaVuSans-48"/><use x="63.6" xlink:href="#DejaVuSans-46"/><use x="95.4" xlink:href="#DejaVuSans-56"/></g></g></g><g id="xtick_6"><use x="436" xlink:href="#m3768053c7b" y="213.6" stroke="#000" stroke-width=".8" id="line2d_6"/><g id="text_6"><defs><path d="M12.4 8.3h16.1v55.6L11 60.4v9l17.4 3.5h9.9V8.3h16V0H12.5z" id="DejaVuSans-49"/></defs><g transform="matrix(.1 0 0 -.1 428 228.2)"><use xlink:href="#DejaVuSans-49"/><use x="63.6" xlink:href="#DejaVuSans-46"/><use x="95.4" xlink:href="#DejaVuSans-48"/></g></g></g><g id="text_7"><defs><path d="M28.6 0L.8 73H11l23-61.5L57.4 73h10.3L39.8 0z" id="DejaVuSans-86"/><path d="M34.3 27.5q-11 0-15.1-2.5-4.2-2.5-4.2-8.5 0-4.8 3.1-7.6 3.2-2.8 8.6-2.8 7.5 0 12 5.3t4.5 14v2zm17.9 3.7V0h-9v8.3q-3-5-7.7-7.3Q31-1.4 24.3-1.4 16-1.4 11 3.3T6 15.9q0 9.2 6.2 14 6.2 4.6 18.4 4.6h12.6v1q0 6.1-4 9.5-4.1 3.4-11.5 3.4-4.7 0-9.2-1.1-4.4-1.2-8.5-3.4v8.3q5 2 9.6 2.8 4.6 1 9 1 11.9 0 17.7-6.2 5.9-6.1 5.9-18.6z" id="DejaVuSans-97"/><path d="M9.4 76h9V0h-9z" id="DejaVuSans-108"/><path d="M8.5 21.6v33h9V22q0-7.7 3-11.6 3-4 9-4 7.4 0 11.6 4.7 4.2 4.7 4.2 12.7v31h9V0h-9v8.4Q42 3.4 37.7 1q-4.3-2.4-10-2.4-9.4 0-14.3 5.8-4.9 5.9-4.9 17.2zM31.1 56z" id="DejaVuSans-117"/><path d="M56.2 29.6v-4.4H14.9q.6-9.3 5.6-14.1 5-4.9 14-4.9 5 0 10 1.3 4.8 1.2 9.6 3.8V2.8q-4.8-2-10-3.1-5-1.1-10.2-1.1-13.1 0-20.7 7.6-7.7 7.6-7.7 20.6 0 13.4 7.3 21.3Q20 56 32.3 56q11 0 17.5-7.1 6.4-7.1 6.4-19.3zm-9 2.6q0 7.4-4.1 11.8-4 4.4-10.7 4.4-7.5 0-12-4.3-4.5-4.2-5.2-12z" id="DejaVuSans-101"/><path d="M30.6 48.4q-7.2 0-11.4-5.6Q15 37 15 27.3t4.2-15.5q4.1-5.6 11.4-5.6 7.2 0 11.4 5.7 4.2 5.6 4.2 15.4 0 9.7-4.2 15.4-4.2 5.7-11.4 5.7zm0 7.6q11.7 0 18.4-7.6 6.7-7.6 6.7-21.1 0-13.4-6.7-21-6.7-7.7-18.4-7.7-11.8 0-18.4 7.6Q5.5 14 5.5 27.3q0 13.5 6.7 21Q18.8 56 30.6 56z" id="DejaVuSans-111"/><path d="M37.1 76v-7.5h-8.6q-4.8 0-6.7-2-1.9-2-1.9-7v-4.8h14.8v-7H20V0h-9v47.7H2.3v7h8.6v3.8q0 9.1 4.2 13.3Q19.4 76 28.6 76z" id="DejaVuSans-102"/><path d="M54.9 54.7L35 28 56 0H45.3l-16 21.5L13.6 0H2.9L24 28.6l-19.4 26h10.6l14.5-19.4 14.5 19.5z" id="DejaVuSans-120"/></defs><g transform="matrix(.1 0 0 -.1 224.1 241.9)"><use xlink:href="#DejaVuSans-86"/><use x="68.3" xlink:href="#DejaVuSans-97"/><use x="129.6" xlink:href="#DejaVuSans-108"/><use x="157.4" xlink:href="#DejaVuSans-117"/><use x="220.7" xlink:href="#DejaVuSans-101"/><use x="282.3" xlink:href="#DejaVuSans-32"/><use x="314.1" xlink:href="#DejaVuSans-111"/><use x="375.2" xlink:href="#DejaVuSans-102"/><use x="410.4" xlink:href="#DejaVuSans-32"/><use x="442.2" xlink:href="#DejaVuSans-120"/></g></g></g><g id="matplotlib.axis_2"><g id="ytick_1"><g id="line2d_7"><defs><path d="M0 0h-3.5" id="m636ee6c4fb" stroke="#000" stroke-width=".8"/></defs><use x="50.9" xlink:href="#m636ee6c4fb" y="179.5" stroke="#000" stroke-width=".8"/></g><g transform="matrix(.1 0 0 -.1 31.1 183.3)" id="text_8"><use xlink:href="#DejaVuSans-54"/><use x="63.6" xlink:href="#DejaVuSans-48"/></g></g><g id="ytick_2"><use x="50.9" xlink:href="#m636ee6c4fb" y="140.9" stroke="#000" stroke-width=".8" id="line2d_8"/><g id="text_9"><defs><path d="M8.2 73h46.9v-4.3L28.6 0H18.3l25 64.6H8.1z" id="DejaVuSans-55"/></defs><g transform="matrix(.1 0 0 -.1 31.1 144.7)"><use xlink:href="#DejaVuSans-55"/><use x="63.6" xlink:href="#DejaVuSans-48"/></g></g></g><g id="ytick_3"><use x="50.9" xlink:href="#m636ee6c4fb" y="102.3" stroke="#000" stroke-width=".8" id="line2d_9"/><g transform="matrix(.1 0 0 -.1 31.1 106.1)" id="text_10"><use xlink:href="#DejaVuSans-56"/><use x="63.6" xlink:href="#DejaVuSans-48"/></g></g><g id="ytick_4"><use x="50.9" xlink:href="#m636ee6c4fb" y="63.7" stroke="#000" stroke-width=".8" id="line2d_10"/><g id="text_11"><defs><path d="M11 1.5v9q3.7-1.8 7.5-2.7 3.8-1 7.5-1 9.8 0 14.9 6.7 5.1 6.5 5.9 20-2.8-4.3-7.2-6.5-4.4-2.3-9.6-2.3-11 0-17.3 6.6Q6.3 38 6.3 49.4q0 11.2 6.6 18 6.7 6.8 17.7 6.8 12.7 0 19.3-9.7 6.7-9.7 6.7-28.1 0-17.3-8.2-27.5-8.2-10.3-22-10.3-3.7 0-7.5.7t-8 2.2zm19.6 31q6.6 0 10.5 4.5 4 4.5 4 12.4t-4 12.4q-3.9 4.6-10.5 4.6t-10.5-4.6q-3.9-4.5-3.9-12.4T20.1 37q3.9-4.6 10.5-4.6z" id="DejaVuSans-57"/></defs><g transform="matrix(.1 0 0 -.1 31.1 67.5)"><use xlink:href="#DejaVuSans-57"/><use x="63.6" xlink:href="#DejaVuSans-48"/></g></g></g><g id="ytick_5"><use x="50.9" xlink:href="#m636ee6c4fb" y="25.1" stroke="#000" stroke-width=".8" id="line2d_11"/><g transform="matrix(.1 0 0 -.1 24.8 29)" id="text_12"><use xlink:href="#DejaVuSans-49"/><use x="63.6" xlink:href="#DejaVuSans-48"/><use x="127.2" xlink:href="#DejaVuSans-48"/></g></g><g id="text_13"><defs><path d="M72.7 32q-4.2 0-6.7-3.5-2.4-3.6-2.4-10t2.4-10q2.5-3.7 6.7-3.7t6.6 3.6q2.4 3.7 2.4 10 0 6.4-2.4 10-2.4 3.7-6.6 3.7zm0 6.3q7.7 0 12.3-5.4 4.5-5.4 4.5-14.5T84.9 4q-4.5-5.3-12.2-5.3-7.8 0-12.4 5.3-4.5 5.4-4.5 14.5 0 9.2 4.6 14.5 4.5 5.4 12.3 5.4zM22.3 68q-4.2 0-6.6-3.6-2.4-3.7-2.4-10 0-6.4 2.4-10 2.4-3.7 6.6-3.7 4.3 0 6.7 3.6 2.4 3.7 2.4 10 0 6.4-2.4 10-2.5 3.7-6.7 3.7zm44.1 6.2h7.8L28.6-1.4h-7.8zm-44 0q7.6 0 12.2-5.3 4.6-5.4 4.6-14.5 0-9.2-4.6-14.6-4.5-5.3-12.3-5.3-7.8 0-12.3 5.4-4.5 5.3-4.5 14.5 0 9 4.5 14.4 4.6 5.4 12.3 5.4z" id="DejaVuSans-37"/><path d="M9.4 54.7h9V0h-9zm0 21.3h9V64.6h-9z" id="DejaVuSans-105"/><path d="M18.1 8.2v-29h-9v75.5h9v-8.3q2.9 4.9 7.2 7.2Q29.6 56 35.6 56q10 0 16.2-8Q58 40.3 58 27.4q0-12.9-6.2-20.8-6.2-8-16.2-8-6 0-10.3 2.5Q21 3.3 18 8.2zm30.6 19.1q0 9.9-4 15.5-4.2 5.7-11.3 5.7-7.1 0-11.2-5.7-4-5.6-4-15.5 0-10 4-15.6t11.2-5.6q7.1 0 11.2 5.7 4 5.6 4 15.5z" id="DejaVuSans-112"/><path d="M41.1 46.3q-1.5.9-3.3 1.3-1.8.4-4 .4-7.5 0-11.6-5-4-5-4-14.2V0H9v54.7h9v-8.5q2.9 5 7.4 7.4Q30 56 36.5 56l2-.1 2.6-.4z" id="DejaVuSans-114"/><path d="M45.4 46.4V76h9V0h-9v8.2Q42.6 3.3 38.3 1q-4.4-2.4-10.4-2.4-10 0-16.2 7.9-6.2 8-6.2 20.8 0 12.9 6.2 20.8Q18 56 28 56q6 0 10.4-2.4 4.3-2.3 7.1-7.2zM14.8 27.3q0-10 4-15.6Q23 6.2 30.2 6.2q7.1 0 11.2 5.7 4.1 5.6 4.1 15.5t-4.1 15.5q-4.1 5.7-11.2 5.7T19 42.9q-4.1-5.6-4.1-15.5z" id="DejaVuSans-100"/><path d="M10.8 73h38.7v-8.4H19.8V46.7q2.2.8 4.3 1.1 2.2.4 4.3.4 12.2 0 19.4-6.7 7-6.7 7-18.1 0-11.8-7.2-18.3-7.4-6.5-20.7-6.5-4.6 0-9.4.8-4.7.7-9.8 2.3v10q4.4-2.5 9.1-3.6 4.7-1.2 9.9-1.2 8.5 0 13.4 4.4 5 4.5 5 12 0 7.7-5 12.1Q35 40 26.7 40q-4 0-7.9-.9-4-.9-8-2.7z" id="DejaVuSans-53"/><path d="M48.8 52.6v-8.4Q45 46.3 41 47.3q-3.8 1-7.7 1-8.7 0-13.6-5.5Q15 37.3 15 27.3t4.8-15.6q4.9-5.5 13.6-5.5 4 0 7.7 1 3.9 1.1 7.7 3.2V2.1Q45 .3 41-.5q-4-1-8.6-1-12.3 0-19.6 7.8-7.3 7.8-7.3 21 0 13.4 7.4 21Q20.2 56 33 56q4.2 0 8.1-.9 4-.8 7.7-2.5z" id="DejaVuSans-99"/><path d="M18.3 70.2V54.7h18.5v-7H18.3V18q0-6.7 1.8-8.6 1.9-1.9 7.5-1.9h9.2V0h-9.2Q17.2 0 13.2 3.9T9.2 18v29.7H2.8v7h6.6v15.5z" id="DejaVuSans-116"/><path d="M3 54.7h9.5l17-45.9 17.2 45.9h9.5L35.7 0H23.5z" id="DejaVuSans-118"/><path d="M54.9 33V0h-9v32.7q0 7.8-3 11.6-3 3.9-9.1 3.9-7.3 0-11.5-4.7Q18.1 39 18.1 31V0h-9v54.7h9v-8.5q3.2 5 7.6 7.4Q30.1 56 35.8 56q9.4 0 14.2-5.8 5-5.9 5-17.2z" id="DejaVuSans-110"/><path d="M45.4 28q0 9.8-4 15.1-4 5.4-11.3 5.4-7.2 0-11.3-5.4-4-5.4-4-15.1t4-15.1q4-5.4 11.3-5.4 7.3 0 11.3 5.4 4 5.4 4 15zm9-21.2q0-14-6.2-20.8-6.2-6.8-19-6.8-4.7 0-9 .7-4.1.7-8 2.2v8.7q3.9-2.1 7.7-3.1 3.9-1 7.9-1 8.8 0 13.2 4.5 4.4 4.6 4.4 14v4.4q-2.8-4.8-7.1-7.2Q33.9 0 27.9 0q-10 0-16.2 7.7Q5.5 15.3 5.5 28q0 12.7 6.2 20.3Q17.8 56 27.9 56q6 0 10.4-2.4 4.3-2.4 7.1-7.2v8.3h9z" id="DejaVuSans-103"/></defs><g transform="matrix(0 -.1 -.1 0 18.7 202.8)"><use xlink:href="#DejaVuSans-57"/><use x="63.6" xlink:href="#DejaVuSans-53"/><use x="127.2" xlink:href="#DejaVuSans-46"/><use x="159" xlink:href="#DejaVuSans-48"/><use x="222.7" xlink:href="#DejaVuSans-37"/><use x="317.7" xlink:href="#DejaVuSans-32"/><use x="349.5" xlink:href="#DejaVuSans-112"/><use x="412.9" xlink:href="#DejaVuSans-114"/><use x="454" xlink:href="#DejaVuSans-101"/><use x="515.5" xlink:href="#DejaVuSans-100"/><use x="579" xlink:href="#DejaVuSans-105"/><use x="606.8" xlink:href="#DejaVuSans-99"/><use x="661.8" xlink:href="#DejaVuSans-116"/><use x="701" xlink:href="#DejaVuSans-105"/><use x="728.8" xlink:href="#DejaVuSans-118"/><use x="788" xlink:href="#DejaVuSans-101"/><use x="849.5" xlink:href="#DejaVuSans-32"/><use x="881.3" xlink:href="#DejaVuSans-105"/><use x="909.1" xlink:href="#DejaVuSans-110"/><use x="972.4" xlink:href="#DejaVuSans-116"/><use x="1011.6" xlink:href="#DejaVuSans-101"/><use x="1073.2" xlink:href="#DejaVuSans-114"/><use x="1114.3" xlink:href="#DejaVuSans-118"/><use x="1173.5" xlink:href="#DejaVuSans-97"/><use x="1234.7" xlink:href="#DejaVuSans-108"/><use x="1262.5" xlink:href="#DejaVuSans-32"/><use x="1294.3" xlink:href="#DejaVuSans-99"/><use x="1349.3" xlink:href="#DejaVuSans-111"/><use x="1410.5" xlink:href="#DejaVuSans-118"/><use x="1469.6" xlink:href="#DejaVuSans-101"/><use x="1531.2" xlink:href="#DejaVuSans-114"/><use x="1572.3" xlink:href="#DejaVuSans-97"/><use x="1633.6" xlink:href="#DejaVuSans-103"/><use x="1697" xlink:href="#DejaVuSans-101"/></g></g></g><path clip-path="url(#p531b4a1e5e)" d="M68.9 43l12.9 17.2 12.9-13.6 12.8 7.8 13 2.1 12.8 6 12.9 82.7 12.8 29.6 13-3.5 12.8-29.3 12.9.9 12.8-40 13-62.2 12.8 7.1 12.9-6.7H262l12.8.8 13 6.6 12.8 10 12.9-12 12.8-3.5 13 9.5 12.8-15.7 12.9 5.7 12.8 9 13-11 12.8 10.7 12.9-8 12.9 2.5" fill="none" stroke="#1f77b4" stroke-linecap="square" stroke-width="1.5" id="line2d_12"/><path clip-path="url(#p531b4a1e5e)" d="M50.9 44.4h396.6" fill="none" stroke="#000" stroke-dasharray="5.55,2.4" stroke-width="1.5" id="line2d_13"/><path d="M50.9 213.6V16.2" fill="none" stroke="#000" stroke-linecap="square" stroke-width=".8" id="patch_3"/><path d="M447.5 213.6V16.2" fill="none" stroke="#000" stroke-linecap="square" stroke-width=".8" id="patch_4"/><path d="M50.9 213.6h396.6" fill="none" stroke="#000" stroke-linecap="square" stroke-width=".8" id="patch_5"/><path d="M50.9 16.2h396.6" fill="none" stroke="#000" stroke-linecap="square" stroke-width=".8" id="patch_6"/><g id="legend_1"><path d="M57.9 208.6h63.5q2 0 2-2v-28.4q0-2-2-2H57.9q-2 0-2 2v28.4q0 2 2 2z" fill="#fff" opacity=".8" stroke="#ccc" id="patch_7"/><path d="M59.9 184.3h20" fill="none" stroke="#1f77b4" stroke-linecap="square" stroke-width="1.5" id="line2d_14"/><g id="text_14"><defs><path d="M34.2 63.2L20.8 26.9h26.8zm-5.6 9.7h11.2L67.6 0H57.3l-6.6 18.7H17.8L11.2 0H.8z" id="DejaVuSans-65"/></defs><g transform="matrix(.1 0 0 -.1 87.9 187.8)"><use xlink:href="#DejaVuSans-65"/><use x="68.4" xlink:href="#DejaVuSans-99"/><use x="123.4" xlink:href="#DejaVuSans-116"/><use x="162.6" xlink:href="#DejaVuSans-117"/><use x="226" xlink:href="#DejaVuSans-97"/><use x="287.2" xlink:href="#DejaVuSans-108"/></g></g><path d="M59.9 199h20" fill="none" stroke="#000" stroke-dasharray="5.55,2.4" stroke-width="1.5" id="line2d_16"/><g id="text_15"><defs><path d="M9.8 73h9.9V0H9.8z" id="DejaVuSans-73"/></defs><g transform="matrix(.1 0 0 -.1 87.9 202.5)"><use xlink:href="#DejaVuSans-73"/><use x="29.5" xlink:href="#DejaVuSans-100"/><use x="93" xlink:href="#DejaVuSans-101"/><use x="154.5" xlink:href="#DejaVuSans-97"/><use x="215.8" xlink:href="#DejaVuSans-108"/></g></g></g></g></g><defs><clipPath id="p531b4a1e5e"><path d="M50.9 16.2h396.6v197.4H50.9z"/></clipPath></defs></svg>
