<svg height="31" viewBox="-0.2 -0.2 219.9 23.2" width="293.2" xmlns="http://www.w3.org/2000/svg" xmlns:xlink="http://www.w3.org/1999/xlink"><defs><style>@media (prefers-color-scheme: dark) {*{filter: invert(.9);}}</style><path d="M6.3 5c-1-1-3.5-3.7-3.5-10.1s2.5-9.1 3.5-10.1v-.2h-.1c-.2 0-2 1.5-3 3.7-1 2.3-1.3 4.6-1.3 6.5 0 1.5.1 4 1.3 6.7 1 2.2 2.7 3.7 3 3.7l.1-.2z" id="i"/><path d="M9-4.4c0-2.7-2-4.7-4.3-4.7S.6-7.1.6-4.4C.6-1.8 2.5.2 4.7.2S9-1.8 9-4.4zM4.6-.2c-1 0-1.8-.6-2.2-1.4-.6-1-.6-2-.6-3 0-.9 0-2 .6-2.9.4-.6 1.2-1.3 2.2-1.3 1 0 1.7.5 2.2 1.2.7 1 .7 2.4.7 3 0 .8 0 2-.6 3S5.5-.1 4.7-.1z" id="d"/><path d="M5.4-5.1c0-1.5-.1-4-1.4-6.7a8.6 8.6 0 00-2.9-3.7l-.1.1v.2c1 1 3.5 3.6 3.5 10C4.5 1.3 2 4 1 5l.1.2c.2 0 2-1.6 3-3.8 1-2.3 1.3-4.6 1.3-6.5z" id="p"/><path d="M7.8-4.8h5.5c.3 0 .6 0 .6-.3 0-.4-.3-.4-.6-.4H7.8V-11c0-.3 0-.6-.4-.6-.3 0-.3.3-.3.6v5.5H1.6c-.3 0-.6 0-.6.3 0 .4.3.4.6.4H7V.7c0 .3 0 .6.3.6.4 0 .4-.3.4-.6v-5.5z" id="l"/><path d="M4.2-13.9c-.1-.2-.1-.2-.5-.2H1v.5h.3l1.3.1V-2c0 .5 0 1.5-1.6 1.5V0h3.7v-.5C3-.5 3-1.5 3-2v-11.2l.3.4L11.1-.2c.1.2.2.2.3.2.2 0 .2 0 .2-.5V-12c0-.5 0-1.5 1.6-1.5v-.5H9.5v.5c1.7 0 1.7 1 1.7 1.5v9.6L4.2-14z" id="c"/><path d="M7.4-5.4c0-1.3 0-2-.8-2.8-.8-.7-1.7-1-2.4-1a2.7 2.7 0 00-2.8 2.7c0 .8.6.8.7.8.3 0 .8-.1.8-.7 0-.5-.4-.8-.8-.8H2a2.4 2.4 0 012.3-1.6c1 0 2.1 1 2.1 2.6v1a9 9 0 00-3.8.8C1.2-3.7.8-2.7.8-2c0 1.6 1.9 2 3 2S6-.4 6.4-1.6C6.4-.7 7 .1 8 .1c.4 0 1.5-.3 1.5-2V-3H9v1.2C9-.6 8.5-.4 8.2-.4c-.9 0-.9-1-.9-2v-3zm-1 2.5C6.3-1 5-.2 3.8-.2 2.8-.2 2-.9 2-1.9c0-.6.3-1.7 1.5-2.4 1-.5 2-.6 2.7-.6v2z" id="g"/><path d="M3.2-14.3l-2.5.2v.5c1.2 0 1.4.1 1.4 1.1v11c0 .9 0 1-1.4 1V0h3.9v-.5c-1.4 0-1.4-.1-1.4-1v-12.8z" id="h"/><path d="M14-6.3c0-1-.2-2.8-2.7-2.8A3.3 3.3 0 008.6-7C8.3-8.7 7-9 5.9-9 4.3-9 3.5-7.9 3.1-7v-2l-2.4.2v.5c1.2 0 1.4.1 1.4 1.1v5.8C2-.6 2-.5.7-.5V0h3.9v-.5c-1.3 0-1.4-.1-1.4-1v-3.9c0-1.9 1.1-3.3 2.6-3.3s1.7 1.3 1.7 2.3v5c0 .8-.1.9-1.4.9V0H10v-.5c-1.3 0-1.4-.1-1.4-1v-3.9c0-1.9 1.1-3.3 2.6-3.3s1.7 1.3 1.7 2.3v5c0 .8-.1.9-1.4.9V0h3.9v-.5C14-.5 14-.6 14-1.5v-4.8z" id="f"/><path d="M15-6.9c0-.5-.2-.7-.4-.7l-.3.6c0 2-1.4 3-2.9 3-1.3 0-2.2-.8-3.3-1.7-1-1-2-1.9-3.5-1.9-2.2 0-3.5 2.3-3.5 4.2 0 .6.3.6.3.6.3 0 .3-.4.3-.4.1-2.3 1.6-3.2 3-3.2 1.2 0 2.2.9 3.2 1.8s2.1 1.9 3.5 1.9C13.7-2.7 15-5 15-7z" id="b"/><path d="M3.1-4.9c0-2 .8-3.8 2.4-3.8h.4s-.4.2-.4.7c0 .5.4.7.7.7.2 0 .7-.1.7-.7s-.7-1-1.4-1C4-9 3.3-7.6 3.1-6.9v-2.3l-2.5.3v.5C2-8.3 2-8.2 2-7.2v5.8C2-.6 2-.5.6-.5V0h4.2v-.5c-1.5 0-1.7 0-1.7-1v-3.4z" id="e"/><path d="M10.5-7.8c.3 0 1 0 1-.7 0-.4-.4-.4-.8-.4H6C3.1-9 .8-5.5.8-3 .8-1.3 1.9.2 3.8.2c2.4 0 5-2.6 5-5.7 0-.8-.1-1.6-.6-2.3h2.3zM3.8-.2C2.8-.2 2-1 2-2.4c0-1.3.7-5.4 3.8-5.4.9 0 1.8.4 1.8 2 0 .8-.3 2.5-1 3.7C5.8-1 4.7-.2 3.8-.2z" id="o"/><path d="M4 0c0-1-.4-2-1.2-2-.7 0-1 .5-1 1s.3 1 1 1c.3 0 .5 0 .7-.3l.1.4c0 .7-.1 2-1.3 3.4l-.2.3s0 .2.2.2C2.4 4 4 2.5 4 0z" id="n"/><path d="M4.8-13.8v-.3c0-.2-.2-.2-.2-.2H3.5l-1 .1c-.6 0-.7.1-.7.5 0 .2.2.2.4.2 1 0 1 .2 1 .4L3-12l-.5 2L1-4.1V-3C1-.9 2 .2 3.4.2c2.3 0 4.8-3 4.8-6 0-2-1-3.3-2.6-3.3-1 0-2 .9-2.4 1.3l1.5-6zM3.5-.2C2.8-.2 2-.7 2-2.3c0-.7 0-1 .4-2.5L3-6.7c0-.2 1.3-2 2.7-2 .9 0 1.3 1 1.3 2s-.6 3.3-1.1 4.4c-.5 1.1-1.5 2-2.4 2z" id="m"/><path d="M7.1-1.3C7.6 0 8.8.2 9.6.2c1.6 0 2.5-1.4 3.1-2.8A20 20 0 0014-7.7c0-1.3-.6-1.4-.8-1.4-.5 0-1 .5-1 .9 0 .2.2.4.3.5.2.2.7.7.7 1.8 0 .7-.5 2.6-1 3.6-.5 1.3-1.3 2-2.4 2C8.6-.2 8.2-1 8.2-2c0-.6.2-1.3.3-1.7l.8-3.5.3-1.2c0-.3-.2-.5-.5-.5-.6 0-.8.5-1 1-.1.8-1 4.3-1 4.8-.2.3-.2.5-.2 1S6.3-.8 6.3-.8c-.3.2-.6.6-1.2.6-1.7 0-1.7-1.6-1.7-2 0-.6.2-1.5 1.1-4 .3-.6.4-.8.4-1.3 0-.8-.7-1.6-1.7-1.6C1.3-9.1.6-6.1.6-6c0 .1 0 .2.2.2S1-5.8 1-6c.6-2 1.4-2.7 2-2.7.3 0 .6 0 .6.7 0 0 0 .5-.4 1.4a13 13 0 00-1 4.2C2.2-.2 3.9.2 5 .2c.4 0 1.3 0 2.1-1.5z" id="j"/><path d="M9.8-8.4c-.7 0-1 .6-1 1 0 .5.5.6.8.6.6 0 1-.5 1-1 0-1-1-1.3-1.8-1.3-1.3 0-2 1.2-2.2 1.6A2.1 2.1 0 004.5-9c-2.1-.1-3.2 2.6-3.2 3 0 .1 0 .2.2.2s.2 0 .2-.2c.7-2.3 2.1-2.7 2.7-2.7 1 0 1.1.9 1.1 1.4 0 .4 0 .9-.3 1.9l-.7 2.8c-.3 1.3-1 2.4-2 2.4-.1 0-.7 0-1-.3a1 1 0 00.8-1c0-.4-.3-.6-.7-.6a1 1 0 00-1 1C.6 0 1.6.2 2.4.2c1 0 1.7-.8 2.2-1.6a2.2 2.2 0 002 1.6C8.9.2 10-2.5 10-3h-.3c-.2 0-.2 0-.3.2C9-1 7.7-.2 6.8-.2 6-.2 5.6-.7 5.6-1.6l.5-2.1.7-2.9c.3-1.2 1-2.1 2-2.1 0 0 .6 0 1 .3z" id="k"/><path d="M5.4 2.3c-.5.8-1.3 1.5-2.3 1.5-.3 0-1.3 0-1.6-1h.2c.6 0 1-.5 1-1s-.3-.6-.7-.6c-.3 0-1 .2-1 1.2s.9 1.8 2 1.8c2.1 0 4.2-1.9 4.8-4.2l2-8v-.4c0-.3-.2-.5-.5-.5-.2 0-.6 0-.8.7L7-2.2c-.1.4-.1.5-.3.7-.4.6-1 1.3-2 1.3C3.4-.2 3.3-1.3 3.3-2c0-1.2.5-2.8 1.1-4.3.2-.6.4-.8.4-1.3 0-.8-.7-1.6-1.7-1.6C1.3-9.1.6-6.1.6-6c0 .1 0 .2.2.2S1-5.8 1-6c.6-2 1.4-2.7 2-2.7.2 0 .6 0 .6.7a6 6 0 01-.5 1.9c-1 2.7-1 3.4-1 3.9C2.1-.2 3.5.2 4.5.2c.6 0 1.3-.2 2-1a5.6 5.6 0 01-1.2 3.1z" id="a"/></defs><g transform="matrix(1.13 0 0 1.13 -64 -61)"><use x="56.4" xlink:href="#a" y="69.3"/><use x="72.7" xlink:href="#b" y="69.3"/><use x="94.5" xlink:href="#c" y="69.3"/><use x="108.7" xlink:href="#d" y="69.3"/><use x="118.2" xlink:href="#e" y="69.3"/><use x="125.5" xlink:href="#f" y="69.3"/><use x="141.4" xlink:href="#g" y="69.3"/><use x="150.8" xlink:href="#h" y="69.3"/><use x="156.2" xlink:href="#i" y="69.3"/><use x="163.5" xlink:href="#j" y="69.3"/><use x="178.4" xlink:href="#k" y="69.3"/><use x="194.5" xlink:href="#l" y="69.3"/><use x="213.9" xlink:href="#m" y="69.3"/><use x="222.5" xlink:href="#n" y="69.3"/><use x="231.5" xlink:href="#o" y="69.3"/><use x="243.7" xlink:href="#p" y="69.3"/></g></svg>
