<svg height="349.6" viewBox="0 0 359.7 262.2" width="479.5" xmlns="http://www.w3.org/2000/svg" xmlns:xlink="http://www.w3.org/1999/xlink"><defs><style>*{stroke-linecap:butt;stroke-linejoin:round}</style></defs><g id="figure_1"><path d="M0 262.2h359.7V0H0z" fill="none" id="patch_1"/><g id="axes_1"><path d="M14.2 224.6H349V7.2H14.2z" fill="#fff" id="patch_2"/><path clip-path="url(#p41593f3e25)" d="M29.4 214.8l.5-.1h1l.5-.1h1.5l.5-.1h.5l.5-.1h.5l.4-.1.5-.1h.5l.5-.2h.5l.5-.2h.5l.5-.2.5-.1.5-.2.5-.1.5-.2.5-.1.5-.2.5-.2.5-.2.5-.3.5-.2.5-.2.5-.3.5-.2.5-.3.5-.3.5-.3.5-.3.5-.2.5-.3.5-.3.5-.3.5-.3.5-.3.5-.3.5-.2.5-.3.5-.2.5-.2.5-.2.4-.3.5-.2.5-.3.5-.2.5-.1.5-.1.5-.1 1-.1.5-.1h.5l.5-.1h4.5l.5-.2h1l.5-.1.5-.1.5-.1.5-.2.5-.3.5-.3.5-.2.5-.3.5-.4.5-.4.5-.5.5-.6.5-.5.4-.6.5-.6.5-.7.5-.7.5-.7.5-.8.5-.9.5-.9.5-.9.5-1 .5-1 .5-1 .5-1.1.5-1 .5-1.2.5-1.1.5-1.2.5-1.1.5-1.2.5-1.2.5-1.2.5-1.2.5-1.2.5-1.2.5-1.2.5-1.1.5-1.2.5-1.2.5-1 .5-1.1.5-1.2.5-1 .5-1.1.5-1 .5-1 .5-.9.5-.8.5-.8.4-.8.5-.6.5-.6.5-.6.5-.4.5-.4.5-.4.5-.3.5-.1.5-.1h.5l.5.1.5.2.5.3.5.3.5.4.5.5.5.5.5.7.5.5.5.7.5.7.5.8.5.7.5.9.5.8.5.7.5.7.5.7.5.7.5.6.5.7.5.6.5.5.5.4.5.4.5.4.4.1.5.2h.5l.5.1.5-.1.5-.3.5-.4.5-.5.5-.6.5-.6.5-.8.5-.8.5-1 .5-1 .5-1.3.5-1.2.5-1.3.5-1.6.5-1.6.5-1.5.5-1.7.5-1.6.5-1.8.5-1.8.5-1.8.5-1.9.5-1.9.5-1.9.5-1.7.5-2 .5-2 .5-2 .5-1.9.5-1.9.5-2 .5-1.8.5-1.8.5-1.8.4-1.8.5-1.8.5-1.6.5-1.5.5-1.6.5-1.4.5-1.3.5-1.3.5-1.3.5-1.2.5-1.2.5-1 .5-1.2.5-1 .5-1 .5-1 .5-1 .5-.9.5-.9.5-1 .5-1.2.5-1 .5-1 .5-1.1.5-1.1.5-1.2.5-1.4.5-1.2.5-1.5.5-1.4.5-1.5.5-1.7.5-1.7.5-1.9.5-1.8.5-2.1.5-2.2.4-2.1.5-2.3.5-2.3.5-2.3.5-2.4.5-2.5.5-2.4.5-2.4.5-2.6.5-2.6.5-2.5.5-2.8.5-2.5.5-2.4.5-2.4.5-2.3.5-2.5.5-2.2.5-2 .5-1.9.5-1.8.5-1.6.5-1.6.5-1.4.5-1.2.5-1 .5-.8.5-.6.5-.4.5-.3.5-.2h.5l.5.2.5.5.5.6.5.8.5.9.4 1.2.5 1.3.5 1.4.5 1.7.5 1.7.5 2 .5 2 .5 2.2.5 2.3.5 2.3.5 2.5.5 2.5.5 2.6.5 2.6.5 2.8.5 2.6.5 2.7.5 2.8.5 2.8.5 2.7.5 2.6.5 2.7.5 2.6.5 2.6.5 2.6.5 2.5.5 2.4.5 2.5.5 2.3.5 2.3.5 2.3.5 2 .5 2.1.5 2 .5 2 .5 2 .5 1.8.5 1.8.4 1.8.5 1.8.5 1.5.5 1.6.5 1.6.5 1.5.5 1.4.5 1.3.5 1.4.5 1.3.5 1.3.5 1.2.5 1.1.5 1 .5 1.2.5 1 .5 1 .5.8.5.8.5 1 .5.8.5.5.5.7.5.5.5.3.5.3.5.4.5.2.5.1h.5l.5-.2.5-.2.5-.3.5-.3.5-.4.5-.4.5-.6.4-.7.5-.7.5-.8.5-.8.5-1 .5-.8.5-1.1.5-1 .5-1 .5-1 .5-1.2.5-1 .5-1.2.5-1.1.5-1.2.5-1.2.5-1 .5-1.1.5-1.2.5-1.2.5-1.2.5-1.1.5-1.1.5-1 .5-1.1.5-1.1.5-1 .5-1 .5-.9.5-.8.5-.9.5-.7.5-.8.5-.7.5-.7.5-.7.5-.6.5-.5.4-.4.5-.4.5-.4.5-.3.5-.2.5-.1h1.5l.5.2.5.3.5.3.5.4.5.5.5.5.5.8.5.6.5.7.5.7.5.9.5.9.5 1 .5.9.5 1 .5 1 .5 1 .5 1.1.5 1.1.5 1.2.5 1.1.5 1 .5 1.2.5 1.1.5 1 .5 1 .5 1 .5 1 .4 1 .5.8.5 1 .5.8.5.7.5.8.5.7.5.8.5.7.5.6.5.5.5.5.5.6.5.4.5.4.5.4.5.4.5.2.5.3.5.2.5.2.5.3.5.1.5.2.5.1.5.1.5.1.5.2.5.2.5.1.5.3.5.2.5.3.5.2.5.3.5.4.5.6.4.4.5.4.5.6.5.7.5.7.5.8.5 1 .5.9.5 1 .5 1 .5 1.3.5 1.2.5 1.2.5 1.3.5 1.4.5 1.4.5 1.4.5 1.5.5 1.5.5 1.6.5 1.6.5 1.6.5 1.5.5 1.5.5 1.5.5 1.5.5 1.4.5 1.4.5 1.4.5 1.3.5 1.4.5 1.2.5 1.1.5 1.1.5 1.2.5 1 .5 1 .5.8.4.7.5.7.5.7.5.6.5.5.5.6.5.4.5.5.5.4.5.3.5.4.5.3.5.3.5.3.5.2.5.2.5.2.5.2.5.3.5.1.5.2.5.1.5.2.5.1.5.2.5.2h.5l.5.2.5.1.5.1.5.3.5.1.5.1h.5l.5.2h.5l.5.2h.4l.5.2h.5l.5.2.5.2h.5l.5.2h.5l.5.2.5.1.5.2.5.1.5.2.5.2.5.2.5.3.5.2.5.3.5.3.5.3.5.4.5.4.5.4.5.5.5.5.5.5.5.5.5.5.5.6.5.6.5.6.5.6.5.6.5.7.5.6.5.7.5.7.5.6.4.7.5.7.5.6.5.6.5.6.5.6.5.6.5.5.5.6.5.5.5.5.5.5.5.5.5.4.5.3.5.4.5.3.5.4.5.3.5.2.5.3.5.2.5.2.5.2.5.2.5.1.5.2.5.1.5.1.5.1.5.1.5.1h.5l.5.1.5.1h.5l.5.1.4.1h1z" fill="#1f77b4" opacity=".4" id="patch_3"/><g id="matplotlib.axis_1"><g id="xtick_1"><g id="line2d_1"><defs><path d="M0 0v3.5" id="m2af9602a6e" stroke="#000" stroke-width=".8"/></defs><use x="14.6" xlink:href="#m2af9602a6e" y="224.6" stroke="#000" stroke-width=".8"/></g><g id="text_1"><defs><path d="M10.6 35.5h62.6v-8.3H10.6z" id="DejaVuSans-8722"/><path d="M40.6 39.3q7-1.5 11-6.3t4-11.8q0-10.8-7.4-16.7-7.4-6-21.1-6-4.6 0-9.4 1-4.9.9-10 2.7v9.5q4-2.4 8.9-3.6Q21.5 7 26.8 7q9.3 0 14.1 3.6 4.9 3.7 4.9 10.7 0 6.4-4.5 10Q36.8 35 28.7 35h-8.5V43h9q7.2 0 11 3 3.9 2.8 3.9 8.3 0 5.6-4 8.6t-11.4 3q-4 0-8.7-.9-4.6-.8-10.2-2.7v8.8q5.6 1.6 10.5 2.3 5 .8 9.3.8 11.2 0 17.8-5 6.5-5.2 6.5-13.9 0-6-3.5-10.2-3.4-4.2-9.8-5.8z" id="DejaVuSans-51"/></defs><g transform="matrix(.1 0 0 -.1 7.2 239.2)"><use xlink:href="#DejaVuSans-8722"/><use x="83.8" xlink:href="#DejaVuSans-51"/></g></g></g><g id="xtick_2"><use x="70.7" xlink:href="#m2af9602a6e" y="224.6" stroke="#000" stroke-width=".8" id="line2d_2"/><g id="text_2"><defs><path d="M19.2 8.3h34.4V0H7.3v8.3l15.3 15.6q9.7 9.8 12.2 12.6 4.7 5.3 6.6 9 2 3.7 2 7.3 0 5.8-4.2 9.5-4 3.6-10.6 3.6-4.6 0-9.8-1.6-5.1-1.6-11-4.9v10q6 2.4 11.1 3.6 5.2 1.2 9.5 1.2 11.4 0 18-5.7 6.8-5.6 6.8-15 0-4.6-1.7-8.6-1.6-4-6-9.5l-7.9-8.2L19.2 8.3z" id="DejaVuSans-50"/></defs><g transform="matrix(.1 0 0 -.1 63.4 239.2)"><use xlink:href="#DejaVuSans-8722"/><use x="83.8" xlink:href="#DejaVuSans-50"/></g></g></g><g id="xtick_3"><use x="126.9" xlink:href="#m2af9602a6e" y="224.6" stroke="#000" stroke-width=".8" id="line2d_3"/><g id="text_3"><defs><path d="M12.4 8.3h16.1v55.6L11 60.4v9l17.4 3.5h9.9V8.3h16V0H12.5z" id="DejaVuSans-49"/></defs><g transform="matrix(.1 0 0 -.1 119.5 239.2)"><use xlink:href="#DejaVuSans-8722"/><use x="83.8" xlink:href="#DejaVuSans-49"/></g></g></g><g id="xtick_4"><use x="183.1" xlink:href="#m2af9602a6e" y="224.6" stroke="#000" stroke-width=".8" id="line2d_4"/><g id="text_4"><defs><path d="M31.8 66.4q-7.6 0-11.5-7.5-3.8-7.5-3.8-22.5t3.8-22.5q3.9-7.5 11.5-7.5 7.7 0 11.5 7.5T47 36.4q0 15-3.8 22.5t-11.5 7.5zm0 7.8q12.2 0 18.7-9.7T57 36.4Q57 18 50.5 8.3 44-1.4 31.8-1.4 19.5-1.4 13 8.3q-6.5 9.7-6.5 28 0 18.5 6.5 28.2 6.4 9.7 18.7 9.7z" id="DejaVuSans-48"/></defs><use xlink:href="#DejaVuSans-48" transform="matrix(.1 0 0 -.1 179.9 239.2)"/></g></g><g id="xtick_5"><use x="239.2" xlink:href="#m2af9602a6e" y="224.6" stroke="#000" stroke-width=".8" id="line2d_5"/><use xlink:href="#DejaVuSans-49" transform="matrix(.1 0 0 -.1 236 239.2)" id="text_5"/></g><g id="xtick_6"><use x="295.4" xlink:href="#m2af9602a6e" y="224.6" stroke="#000" stroke-width=".8" id="line2d_6"/><use xlink:href="#DejaVuSans-50" transform="matrix(.1 0 0 -.1 292.2 239.2)" id="text_6"/></g><g id="text_7"><defs><path d="M31 75.9q-6.5-11.2-9.7-22.2-3.2-11-3.2-22.3T21.3 9Q24.5-2 31-13.2h-7.8q-7.3 11.5-11 22.6-3.6 11-3.6 22 0 10.9 3.6 22 3.6 11 11 22.5z" id="DejaVuSans-40"/><path d="M44.4 34.2q3.2-1 6.2-4.6 3-3.5 6-9.7L66.6 0H56l-9.3 18.7q-3.6 7.3-7 9.7-3.4 2.4-9.3 2.4H19.7V0H9.8v73h22.3q12.5 0 18.6-5.3Q57 62.5 57 51.9q0-6.9-3.2-11.4-3.2-4.6-9.3-6.3zM19.7 64.8V38.9H32q7.1 0 10.7 3.3 3.7 3.3 3.7 9.7 0 6.4-3.7 9.6-3.6 3.3-10.7 3.3z" id="DejaVuSans-82"/><path d="M44.3 53v-8.4q-3.8 2-8 2.9-4 1-8.4 1-6.7 0-10-2-3.4-2.1-3.4-6.2 0-3.1 2.4-5 2.4-1.7 9.6-3.3l3-.7q9.7-2 13.7-5.8 4-3.7 4-10.4 0-7.6-6-12-6-4.5-16.6-4.5-4.4 0-9.1.8-4.8.9-10 2.6v9.3q5-2.6 9.7-4 4.9-1.2 9.6-1.2 6.4 0 9.8 2.2 3.4 2.2 3.4 6.1 0 3.7-2.5 5.6-2.4 2-10.8 3.8l-3.1.7q-8.4 1.8-12 5.4-3.8 3.6-3.8 10 0 7.7 5.5 11.9Q16.7 56 26.8 56q5 0 9.4-.7 4.4-.8 8-2.2z" id="DejaVuSans-115"/><path d="M9.4 54.7h9V0h-9zm0 21.3h9V64.6h-9z" id="DejaVuSans-105"/><path d="M45.4 46.4V76h9V0h-9v8.2Q42.6 3.3 38.3 1q-4.4-2.4-10.4-2.4-10 0-16.2 7.9-6.2 8-6.2 20.8 0 12.9 6.2 20.8Q18 56 28 56q6 0 10.4-2.4 4.3-2.3 7.1-7.2zM14.8 27.3q0-10 4-15.6Q23 6.2 30.2 6.2q7.1 0 11.2 5.7 4.1 5.6 4.1 15.5t-4.1 15.5q-4.1 5.7-11.2 5.7t-11.2-5.7q-4.1-5.6-4.1-15.5z" id="DejaVuSans-100"/><path d="M8.5 21.6v33h9V22q0-7.7 3-11.6 3-4 9-4 7.4 0 11.6 4.7 4.2 4.7 4.2 12.7v31h9V0h-9v8.4Q42 3.4 37.7 1q-4.3-2.4-10-2.4-9.4 0-14.3 5.8-4.9 5.9-4.9 17.2zM31.1 56z" id="DejaVuSans-117"/><path d="M34.3 27.5q-11 0-15.1-2.5-4.2-2.5-4.2-8.5 0-4.8 3.1-7.6 3.2-2.8 8.6-2.8 7.5 0 12 5.3t4.5 14v2zm17.9 3.7V0h-9v8.3q-3-5-7.7-7.3Q31-1.4 24.3-1.4 16-1.4 11 3.3 6 8 6 15.9q0 9.2 6.2 14 6.2 4.6 18.4 4.6h12.6v1q0 6.1-4 9.5-4.1 3.4-11.5 3.4-4.7 0-9.2-1.1-4.4-1.2-8.5-3.4v8.3q5 2 9.6 2.8 4.6 1 9 1 11.9 0 17.7-6.2 5.9-6.1 5.9-18.6z" id="DejaVuSans-97"/><path d="M9.4 76h9V0h-9z" id="DejaVuSans-108"/><path d="M56.2 29.6v-4.4H14.9q.6-9.3 5.6-14.1 5-4.9 14-4.9 5 0 10 1.3 4.8 1.2 9.6 3.8V2.8q-4.8-2-10-3.1-5-1.1-10.2-1.1-13.1 0-20.7 7.6-7.7 7.6-7.7 20.6 0 13.4 7.3 21.3Q20 56 32.3 56q11 0 17.5-7.1 6.4-7.1 6.4-19.3zm-9 2.6q0 7.4-4.1 11.8-4 4.4-10.7 4.4-7.5 0-12-4.3-4.5-4.2-5.2-12z" id="DejaVuSans-101"/><path d="M-.3 73h61.7v-8.4H35.5V0h-10v64.6H-.2z" id="DejaVuSans-84"/><path d="M41.1 46.3q-1.5.9-3.3 1.3-1.8.4-4 .4-7.5 0-11.6-5-4-5-4-14.2V0H9v54.7h9v-8.5q2.9 5 7.4 7.4Q30 56 36.5 56l2-.1 2.6-.4z" id="DejaVuSans-114"/><path d="M4.9 31.4h26.3v-8H4.9z" id="DejaVuSans-45"/><path d="M19.7 64.8V37.4H32q6.9 0 10.6 3.6 3.8 3.5 3.8 10.1t-3.8 10.1q-3.7 3.6-10.6 3.6zm-9.9 8.1h22.3q12.2 0 18.5-5.5Q57 61.8 57 51q0-10.8-6.3-16.3t-18.5-5.5H19.7V0H9.8z" id="DejaVuSans-80"/><path d="M48.8 52.6v-8.4Q45 46.3 41 47.3q-3.8 1-7.7 1-8.7 0-13.6-5.5Q15 37.3 15 27.3t4.8-15.6q4.9-5.5 13.6-5.5 4 0 7.7 1 3.9 1.1 7.7 3.2V2.1Q45 .3 41-.5q-4-1-8.6-1-12.3 0-19.6 7.8-7.3 7.8-7.3 21 0 13.4 7.4 21Q20.2 56 33 56q4.2 0 8.1-.9 4-.8 7.7-2.5z" id="DejaVuSans-99"/><path d="M18.3 70.2V54.7h18.5v-7H18.3V18q0-6.7 1.8-8.6 1.9-1.9 7.5-1.9h9.2V0h-9.2Q17.2 0 13.2 3.9T9.2 18v29.7H2.8v7h6.6v15.5z" id="DejaVuSans-116"/><path d="M8 75.9h7.8q7.3-11.5 11-22.6 3.6-11 3.6-22 0-10.8-3.6-22-3.7-11-11-22.5H8Q14.5-2 17.7 9.1q3.2 11 3.2 22.3t-3.2 22.3q-3.2 11-9.7 22.2z" id="DejaVuSans-41"/></defs><g transform="matrix(.1 0 0 -.1 114.7 253)"><use xlink:href="#DejaVuSans-82"/><use x="69.4" xlink:href="#DejaVuSans-101"/><use x="130.9" xlink:href="#DejaVuSans-115"/><use x="183" xlink:href="#DejaVuSans-105"/><use x="210.8" xlink:href="#DejaVuSans-100"/><use x="274.3" xlink:href="#DejaVuSans-117"/><use x="337.7" xlink:href="#DejaVuSans-97"/><use x="399" xlink:href="#DejaVuSans-108"/><use x="426.7" xlink:href="#DejaVuSans-32"/><use x="458.5" xlink:href="#DejaVuSans-40"/><use x="497.5" xlink:href="#DejaVuSans-84"/><use x="558.4" xlink:href="#DejaVuSans-114"/><use x="599.5" xlink:href="#DejaVuSans-117"/><use x="662.9" xlink:href="#DejaVuSans-101"/><use x="724.4" xlink:href="#DejaVuSans-32"/><use x="756.2" xlink:href="#DejaVuSans-45"/><use x="792.3" xlink:href="#DejaVuSans-32"/><use x="824.1" xlink:href="#DejaVuSans-80"/><use x="884.4" xlink:href="#DejaVuSans-114"/><use x="925.5" xlink:href="#DejaVuSans-101"/><use x="987" xlink:href="#DejaVuSans-100"/><use x="1050.5" xlink:href="#DejaVuSans-105"/><use x="1078.2" xlink:href="#DejaVuSans-99"/><use x="1133.2" xlink:href="#DejaVuSans-116"/><use x="1172.4" xlink:href="#DejaVuSans-101"/><use x="1233.9" xlink:href="#DejaVuSans-100"/><use x="1297.4" xlink:href="#DejaVuSans-41"/></g></g></g><path d="M14.2 224.6H349" fill="none" stroke="#000" stroke-linecap="square" stroke-width=".8" id="patch_4"/></g></g><defs><clipPath id="p41593f3e25"><path d="M14.2 7.2H349v217.4H14.2z"/></clipPath></defs></svg>