<svg height="373.5" viewBox="0 0 424.3 280.2" width="565.8" xmlns="http://www.w3.org/2000/svg" xmlns:xlink="http://www.w3.org/1999/xlink"><defs><style>*{stroke-linecap:butt;stroke-linejoin:round}</style></defs><g id="figure_1"><path d="M0 280.2h424.3V0H0z" fill="none" id="patch_1"/><g id="axes_1"><path d="M19.2 57.8h392.7V7.2H19.2z" fill="#fff" id="patch_2"/><path clip-path="url(#p9bb83c228f)" d="M37 55.5H49.7l.2-.1h2.3l.2-.1H53.5l.2-.1h1l.2-.1h.7l.2-.1H56.4l.2-.1h.4l.2-.1h.4l.2-.1h.5l.2-.1h.4l.2-.1h.4l.2-.1h.2l.2-.1h.2l.3-.1h.4l.2-.1h.2l.2-.1h.2l.2-.1h.2l.2-.1h.2l.2-.1h.2l.3-.1.2-.1h.2l.2-.1h.2l.2-.1.2-.1h.2l.2-.1.2-.1h.2l.2-.1.3-.1.2-.1h.2l.2-.2h.2l.2-.1.2-.1.2-.1.2-.1.2-.1.2-.1.2-.2h.3l.2-.2.2-.1.2-.1.2-.2h.2l.2-.2.2-.2.2-.1.2-.2.2-.1.2-.2.2-.1.3-.2.2-.2.2-.1.2-.2.2-.2.2-.2.2-.1.2-.2.2-.2.2-.2.2-.2.2-.2.3-.2.2-.2.2-.3.2-.2.2-.2.2-.2.2-.3.2-.2.2-.2.2-.2.2-.3.2-.2.3-.3.2-.2.2-.3.2-.2.2-.3.2-.2.2-.3.2-.3.2-.2.2-.3.2-.3.2-.3.2-.2.3-.3.2-.3.2-.3.2-.3.2-.3.2-.3.2-.2.2-.3.2-.3.2-.3.2-.3.2-.3.3-.3.2-.3.2-.3.2-.3.2-.3.2-.3.2-.3.2-.3.2-.3.2-.3.2-.3.2-.3.2-.3.3-.3.2-.3.2-.3.2-.3.2-.3.2-.3.2-.3.2-.3.2-.3.2-.3.2-.4.2-.3.3-.3.2-.3.2-.3.2-.3.2-.3.2-.3.2-.3.2-.3.2-.3.2-.3.2-.3.2-.3.3-.3.2-.3.2-.4.2-.3.2-.3.2-.3.2-.3.2-.3.2-.3.2-.3.2-.3.2-.3.2-.3.3-.3.2-.2.2-.3.2-.3.2-.3.2-.3.2-.3.2-.2.2-.3.2-.3.2-.2.2-.3.3-.2.2-.3.2-.2.2-.3.2-.2.2-.2.2-.2.2-.3.2-.2.2-.2.2-.2.2-.2.3-.1.2-.2.2-.2.2-.2.2-.1.2-.2.2-.1.2-.1.2-.2h.2l.2-.2.2-.1.2-.1.3-.1.2-.1h.2l.2-.2h.2l.2-.1h.2l.2-.1h.2l.2-.1h.7l.2-.1h1.4l.2.1h.2l.2.1h.3l.2.1.2.1.2.1.2.1.2.1.2.1.2.1.2.2.2.1.2.1.2.2.2.2.3.1.2.2.2.2.2.2.2.2.2.2.2.2.2.2.2.3.2.2.2.3.2.2.3.3.2.3.2.3.2.2.2.3.2.3.2.4.2.3.2.3.2.3.2.4.2.3.2.3.3.4.2.4.2.3.2.4.2.3.2.4.2.4.2.3.2.4.2.4.2.4.2.3.3.4.2.4.2.4.2.3.2.4.2.4.2.3.2.4.2.3.2.4.2.4.2.3.3.4.2.3.2.3.2.4.2.3.2.3.2.4.2.3.2.3.2.3.2.3.2.4.2.3.3.3.2.3.2.3.2.3.2.3.2.2.2.3.2.3.2.3.2.3.2.3.2.2.3.3.2.3.2.3.2.2.2.3.2.3.2.2.2.3.2.2.2.3.2.3.2.2.3.3.2.2.2.3.2.2.2.2.2.3.2.2.2.3.2.2.2.2.2.3.2.2.2.2.3.2.2.2.2.3.2.2.2.2.2.2.2.2.2.2.2.2.2.2.2.2.2.2.3.2.2.2.2.1.2.2.2.2.2.2.2.1.2.2.2.2.2.1.2.2.2.2.3.1.2.2.2.1.2.2.2.1.2.2.2.1.2.1.2.2.2.1.2.2h.2l.2.2.3.1.2.1.2.2h.2l.2.2.2.1.2.1.2.1.2.1.2.1.2.1.2.1.3.1h.2l.2.2h.2l.2.1.2.1h.2l.2.2h.2l.2.1h.2l.2.1h.2l.3.1h.2l.2.1.2.1h.4l.2.1h.2l.2.1h.4l.2.1h.5l.2.1H144l.2.1H144.8l.2.1H146.1l.2.1h1.2l.2.1H149l.2.1h1.7l.2.1h2.3l.2.1H159.8l.2.1H164.4z" fill="#1f77b4" opacity=".4" id="patch_3"/><path clip-path="url(#p9bb83c228f)" d="M72.4 55.5v-7l.2-.1.2-.2.2-.2.2-.2.3-.2.2-.2.2-.3.2-.2.2-.2.2-.2.2-.3.2-.2.2-.2.2-.2.2-.3.2-.2.3-.3.2-.2.2-.3.2-.2.2-.3.2-.2.2-.3.2-.3.2-.2.2-.3.2-.3.2-.3.2-.2.3-.3.2-.3.2-.3.2-.3.2-.3.2-.3.2-.2.2-.3.2-.3.2-.3.2-.3.2-.3.3-.3.2-.3.2-.3.2-.3.2-.3.2-.3.2-.3.2-.3.2-.3.2-.3.2-.3.2-.3.2-.3.3-.3.2-.3.2-.3.2-.3.2-.3.2-.3.2-.3.2-.3.2-.3.2-.3.2-.4.2-.3.3-.3.2-.3.2-.3.2-.3.2-.3.2-.3.2-.3.2-.3.2-.3.2-.3.2-.3.2-.3.3-.3.2-.3.2-.4.2-.3.2-.3.2-.3.2-.3.2-.3.2-.3.2-.3.2-.3.2-.3.2-.3.3-.3.2-.2.2-.3.2-.3.2-.3.2-.3.2-.3.2-.2.2-.3.2-.3.2-.2.2-.3.3-.2.2-.3.2-.2.2-.3.2-.2.2-.2.2-.2.2-.3.2-.2.2-.2.2-.2.2-.2.3-.1.2-.2.2-.2.2-.2.2-.1.2-.2.2-.1.2-.1.2-.2h.2l.2-.2.2-.1.2-.1.3-.1.2-.1h.2l.2-.2h.2l.2-.1h.2l.2-.1h.2l.2-.1h.7l.2-.1h1.4l.2.1h.2l.2.1h.3l.2.1.2.1.2.1.2.1.2.1.2.1.2.1.2.2.2.1.2.1.2.2.2.2.3.1.2.2.2.2.2.2.2.2.2.2.2.2.2.2.2.3.2.2.2.3.2.2.3.3.2.3.2.3.2.2.2.3.2.3.2.4.2.3.2.3.2.3.2.4.2.3.2.3.3.4.2.4.2.3.2.4.2.3.2.4.2.4.2.3.2.4.2.4.2.4.2.3.3.4.2.4.2.4.2.3.2.4.2.4.2.3.2.4.2.3.2.4.2.4.2.3.3.4.2.3.2.3.2.4.2.3.2.3.2.4.2.3.2.3.2.3.2.3.2.4.2.3.3.3.2.3.2.3.2.3.2.3.2.2.2.3.2.3.2.3.2.3.2.3.2.2.3.3.2.3.2.3.2.2.2.3.2.3.2.2.2.3.2.2.2.3.2.3.2.2.3.3.2.2.2.3.2.2.2.2.2.3.2.2.2.3.2.2.2.2.2.3.2.2.2.2.3.2.2.2.2.3.2.2.2.2.2.2.2.2.2.2.2.2.2.2.2.2.2.2.3.2v7.4z" fill="#1f77b4" opacity=".4" id="patch_4"/><path clip-path="url(#p9bb83c228f)" d="M196.4 55.5H206l.2-.1H208l.1-.1h1.1l.2-.1h.9l.2-.1h.6l.2-.1H212l.2-.1h.4l.2-.1h.5l.1-.1H213.7l.2-.1H214.2l.2-.1H214.7l.1-.1h.2l.2-.1h.1l.2-.1h.1l.2-.1h.2l.1-.1h.2l.1-.2H216.7l.2-.2h.2l.1-.1h.2l.1-.2h.2l.1-.1.2-.1h.2l.1-.2h.2l.1-.2h.2l.2-.2h.1l.2-.2.1-.1.2-.1.1-.1.2-.2h.2l.1-.2.2-.1.1-.2h.2l.1-.2.2-.2.2-.1.1-.1.2-.2.1-.1.2-.2.1-.2.2-.1.2-.2.1-.1.2-.2.1-.2.2-.2.2-.1.1-.2.2-.2.1-.2.2-.2.1-.2.2-.2.2-.2.1-.2.2-.2.1-.2.2-.2.1-.3.2-.2.2-.2.1-.2.2-.3.1-.2.2-.3.2-.2.1-.3.2-.2.1-.3.2-.3.1-.2.2-.3.2-.3.1-.3.2-.3.1-.2.2-.3.1-.3.2-.4.2-.3.1-.3.2-.3.1-.3.2-.4.2-.3.1-.3.2-.4.1-.3.2-.4.1-.3.2-.4.2-.3.1-.4.2-.4.1-.3.2-.4.1-.4.2-.4.2-.4.1-.3.2-.4.1-.4.2-.4.1-.4.2-.4.2-.4.1-.4.2-.4.1-.3.2-.4.2-.4.1-.4.2-.4.1-.4.2-.4.1-.4.2-.4.2-.4.1-.4.2-.3.1-.4.2-.4.1-.4.2-.4.2-.3.1-.4.2-.4.1-.3.2-.4.2-.4.1-.3.2-.4.1-.3.2-.4.1-.3.2-.4.2-.3.1-.3.2-.4.1-.3.2-.3.1-.3.2-.3.2-.3.1-.3.2-.3.1-.3.2-.3.2-.3.1-.3.2-.2.1-.3.2-.3.1-.2.2-.3.2-.2.1-.2.2-.3.1-.2.2-.2.1-.2.2-.2.2-.2.1-.1.2-.2.1-.2.2-.1.2-.2.1-.1.2-.1.1-.2h.2l.1-.2h.2l.2-.1.1-.1h.2l.1-.1h.2l.1-.1h1.5l.1.1.2.1h.1l.2.2h.2l.1.2.2.1.1.1.2.2.1.1.2.2.2.2.1.2.2.2.1.2.2.2.1.2.2.2.2.3.1.3.2.2.1.3.2.3.2.3.1.3.2.3.1.3.2.3.1.4.2.3.2.4.1.3.2.4.1.3.2.4.1.4.2.3.2.4.1.4.2.4.1.4.2.4.2.4.1.4.2.4.1.3.2.4.1.4.2.4.2.4.1.4.2.4.1.4.2.4.1.4.2.4.2.4.1.4.2.4.1.3.2.4.1.4.2.4.2.4.1.4.2.3.1.4.2.4.2.4.1.3.2.4.1.4.2.3.1.4.2.4.2.3.1.4.2.3.1.4.2.3.1.4.2.3.2.4.1.3.2.4.1.3.2.3.2.3.1.4.2.3.1.3.2.3.1.3.2.3.2.4.1.3.2.3.1.3.2.2.1.3.2.3.2.3.1.3.2.3.1.2.2.3.2.3.1.2.2.3.1.3.2.2.1.3.2.2.2.3.1.2.2.3.1.2.2.2.1.3.2.2.2.2.1.2.2.2.1.2.2.2.1.2.2.2.2.2.1.2.2.2.1.2.2.2.2.1.1.2.2.1.1.2.2.2.1.1.2.1.2.2.1.1.2.2h.1l.2.2.1.1.2.1.2.2h.1l.2.2h.1l.2.2h.2l.1.2h.2l.1.1.2.1h.1l.2.2h.2l.1.1h.2l.1.2H271.3l.2.1.2.1h.1l.2.1h.1l.2.1h.2l.1.1h.2l.1.1H273.2l.2.1h.2l.1.1H274l.2.1H274.5l.2.1H275l.1.1h.4l.1.1h.5l.1.1h.7l.1.1h.7l.1.1h.8l.2.1h1.1l.1.1h2.2l.2.1H289.7l.1.1H293z" fill="#ff7f0e" opacity=".4" id="patch_5"/><path clip-path="url(#p9bb83c228f)" d="M223.5 55.5v-7.2l.2-.2.1-.2.2-.2.2-.2.1-.2.2-.2.1-.2.2-.2.1-.3.2-.2.2-.2.1-.2.2-.3.1-.2.2-.3.2-.2.1-.3.2-.2.1-.3.2-.3.1-.2.2-.3.2-.3.1-.3.2-.3.1-.2.2-.3.1-.3.2-.4.2-.3.1-.3.2-.3.1-.3.2-.4.2-.3.1-.3.2-.4.1-.3.2-.4.1-.3.2-.4.2-.3.1-.4.2-.4.1-.3.2-.4.1-.4.2-.4.2-.4.1-.3.2-.4.1-.4.2-.4.1-.4.2-.4.2-.4.1-.4.2-.4.1-.3.2-.4.2-.4.1-.4.2-.4.1-.4.2-.4.1-.4.2-.4.2-.4.1-.4.2-.3.1-.4.2-.4.1-.4.2-.4.2-.3.1-.4.2-.4.1-.3.2-.4.2-.4.1-.3.2-.4.1-.3.2-.4.1-.3.2-.4.2-.3.1-.3.2-.4.1-.3.2-.3.1-.3.2-.3.2-.3.1-.3.2-.3.1-.3.2-.3.2-.3.1-.3.2-.2.1-.3.2-.3.1-.2.2-.3.2-.2.1-.2.2-.3.1-.2.2-.2.1-.2.2-.2.2-.2.1-.1.2-.2.1-.2.2-.1.2-.2.1-.1.2-.1.1-.2h.2l.1-.2h.2l.2-.1.1-.1h.2l.1-.1h.2l.1-.1h1.5l.1.1.2.1h.1l.2.2h.2l.1.2.2.1.1.1.2.2.1.1.2.2.2.2.1.2.2.2.1.2.2.2.1.2.2.2.2.3.1.3.2.2.1.3.2.3.2.3.1.3.2.3.1.3.2.3.1.4.2.3.2.4.1.3.2.4.1.3.2.4.1.4.2.3.2.4.1.4.2.4.1.4.2.4.2.4.1.4.2.4.1.3.2.4.1.4.2.4.2.4.1.4.2.4.1.4.2.4.1.4.2.4.2.4.1.4.2.4.1.3.2.4.1.4.2.4.2.4.1.4.2.3.1.4.2.4.2.4.1.3.2.4.1.4.2.3.1.4.2.4.2.3.1.4.2.3.1.4.2.3.1.4.2.3.2.4.1.3.2.4.1.3.2.3.2.3.1.4.2.3.1.3.2.3.1.3.2.3.2.4.1.3.2.3.1.3.2.2.1.3.2.3.2.3.1.3.2.3.1.2.2.3.2.3.1.2.2.3.1.3.2.2.1.3.2.2.2.3.1.2.2.3.1.2.2.2v8.2z" fill="#ff7f0e" opacity=".4" id="patch_6"/><path clip-path="url(#p9bb83c228f)" d="M310.3 55.5H324.2l.2-.1h1.5l.1-.1h.8l.2-.1h.7l.1-.1h.5l.2-.1H328.8l.2-.1h.4l.2-.1h.2l.2-.1H330.3l.1-.1H330.7l.1-.1h.1l.2-.1h.1l.2-.1.2-.1h.2l.1-.1h.1l.2-.1h.1l.1-.1h.2l.1-.1.2-.1h.1l.1-.1h.2l.1-.2h.1l.2-.1h.1l.2-.2.2-.1.2-.1.1-.1h.1l.2-.2h.1l.2-.2.2-.2h.2l.1-.2.1-.1.2-.1.1-.2h.1l.2-.2.1-.2.2-.1V51l.2-.2.2-.1.1-.2.1-.2.2-.1.1-.2.2-.2v-.1l.2-.2.2-.2.1-.2.1-.2.2-.2.1-.2.1-.2.2-.2.1-.3.2-.2v-.2l.2-.3.2-.2.1-.3.1-.2.2-.3.1-.2.2-.3v-.3l.2-.3.2-.2.1-.3.1-.3.2-.3.1-.3.1-.3.2-.3.1-.3.2-.4V42l.2-.3.2-.3.1-.4.1-.3.2-.3.1-.4.2-.3v-.3l.2-.4.2-.3.1-.4.1-.3.2-.4.1-.3.1-.4.2-.4.1-.3.2-.4v-.3l.2-.4.2-.4.1-.3.1-.4.2-.4.1-.4.2-.3v-.4l.2-.4.2-.4.1-.4.1-.3.2-.4.1-.4.1-.4.2-.4.1-.4.2-.4v-.4l.2-.4.2-.4.1-.4.1-.4.2-.3.1-.4.2-.4V25l.2-.5.2-.4.1-.3.1-.4.2-.4.1-.4.1-.4.2-.4.1-.4.2-.4.1-.4.1-.4.2-.4.1-.4.1-.4.2-.3.1-.4.2-.4v-.3l.2-.4.2-.3.1-.4.1-.3.2-.4.1-.3.1-.3.2-.3.1-.4.2-.3.1-.3.1-.2.2-.3.1-.3.1-.3.2-.2.1-.3.2-.2v-.3l.2-.2.2-.2.1-.2.1-.2.2-.2.1-.1.1-.2.2-.2.1-.1.2-.1.1-.1.1-.2h.2l.1-.1.1-.1h.2l.1-.1h.2l.2-.1H356.7l.1.1h.1l.2.1.1.1.2.1.1.1.1.1.2.2h.1l.1.2.2.2.1.2.2.1v.2l.2.2.2.2.1.3.1.2.2.2.1.3.1.2.2.3.1.2.2.3.1.3.1.3.2.3.1.3.1.3.2.3.1.3.2.3v.4l.2.3.2.3.1.4.1.3.2.4.1.4.2.3v.4l.2.4.2.3.1.4.1.4.2.4.1.4.1.4.2.4.1.4.2.4v.4l.2.4.2.4.1.4.1.4.2.5.1.4.2.4v.4l.2.4.2.5.1.4.1.4.2.4.1.4.1.5.2.4.1.4.2.4v.4l.2.4.2.5.1.4.1.4.2.4.1.4.2.4v.4l.2.4.2.3.1.4.1.4.2.4.1.4.1.3.2.4.1.4.2.3v.4l.2.3.2.4.1.3.1.3.2.4.1.3.2.3v.3l.2.4.2.3.1.3.1.3.2.3.1.3.1.3.2.3.1.2.2.3v.3l.2.3.2.2.1.3.1.2.2.3.1.2.2.3v.2l.2.2.2.3.1.2.1.2.2.2.1.2.1.3.2.2.1.2.2.2v.2l.2.1.2.2.1.2.1.2.2.2.1.1.2.2v.2l.2.1.2.2.1.1.1.2.2.1.1.2.1.1.2.1.1.2h.2l.1.2.1.1.2.1.1.1.1.1.2.1.1.1.2.1v.1l.2.1.2.1h.1l.1.2h.2l.1.1.1.1h.2l.1.1.2.1h.1l.1.1.2.1h.1l.1.1h.2l.1.1h.2v.1h.2l.2.1h.1l.1.1h.2l.1.1h.1l.2.1H381.9l.1.1H382.3l.1.1H382.7l.1.1h.2l.2.1h.4l.2.1h.5l.2.1h.6l.2.1H386l.1.1H387.5l.1.1H391.4l.2.1H394z" fill="#2ca02c" opacity=".4" id="patch_7"/><path clip-path="url(#p9bb83c228f)" d="M338.9 55.5v-7.4l.1-.3.2-.2v-.2l.2-.3.2-.2.1-.3.1-.2.2-.3.1-.2.2-.3v-.3l.2-.3.2-.2.1-.3.1-.3.2-.3.1-.3.1-.3.2-.3.1-.3.2-.4V42l.2-.3.2-.3.1-.4.1-.3.2-.3.1-.4.2-.3v-.3l.2-.4.2-.3.1-.4.1-.3.2-.4.1-.3.1-.4.2-.4.1-.3.2-.4v-.3l.2-.4.2-.4.1-.3.1-.4.2-.4.1-.4.2-.3v-.4l.2-.4.2-.4.1-.4.1-.3.2-.4.1-.4.1-.4.2-.4.1-.4.2-.4v-.4l.2-.4.2-.4.1-.4.1-.4.2-.3.1-.4.2-.4V25l.2-.5.2-.4.1-.3.1-.4.2-.4.1-.4.1-.4.2-.4.1-.4.2-.4.1-.4.1-.4.2-.4.1-.4.1-.4.2-.3.1-.4.2-.4v-.3l.2-.4.2-.3.1-.4.1-.3.2-.4.1-.3.1-.3.2-.3.1-.4.2-.3.1-.3.1-.2.2-.3.1-.3.1-.3.2-.2.1-.3.2-.2v-.3l.2-.2.2-.2.1-.2.1-.2.2-.2.1-.1.1-.2.2-.2.1-.1.2-.1.1-.1.1-.2h.2l.1-.1.1-.1h.2l.1-.1h.2l.2-.1H356.7l.1.1h.1l.2.1.1.1.2.1.1.1.1.1.2.2h.1l.1.2.2.2.1.2.2.1v.2l.2.2.2.2.1.3.1.2.2.2.1.3.1.2.2.3.1.2.2.3.1.3.1.3.2.3.1.3.1.3.2.3.1.3.2.3v.4l.2.3.2.3.1.4.1.3.2.4.1.4.2.3v.4l.2.4.2.3.1.4.1.4.2.4.1.4.1.4.2.4.1.4.2.4v.4l.2.4.2.4.1.4.1.4.2.5.1.4.2.4v.4l.2.4.2.5.1.4.1.4.2.4.1.4.1.5.2.4.1.4.2.4v.4l.2.4.2.5.1.4.1.4.2.4.1.4.2.4v.4l.2.4.2.3.1.4.1.4.2.4.1.4.1.3.2.4.1.4.2.3v.4l.2.3.2.4.1.3.1.3.2.4.1.3.2.3v.3l.2.4.2.3.1.3.1.3.2.3.1.3.1.3.2.3.1.2.2.3v.3l.2.3.2.2.1.3.1.2.2.3.1.2.2.3v.2l.2.2.2.3.1.2.1.2v7.9z" fill="#2ca02c" opacity=".4" id="patch_8"/><g id="matplotlib.axis_1"><g id="xtick_1"><g id="line2d_1"><defs><path d="M0 0v3.5" id="m799a198c6b" stroke="#000" stroke-width=".8"/></defs><use x="19.3" xlink:href="#m799a198c6b" y="57.8" stroke="#000" stroke-width=".8"/></g><g id="text_1"><defs><path d="M10.6 35.5h62.6v-8.3H10.6z" id="DejaVuSans-8722"/><path d="M19.2 8.3h34.4V0H7.3v8.3l15.3 15.6q9.7 9.8 12.2 12.6 4.7 5.3 6.6 9 2 3.7 2 7.3 0 5.8-4.2 9.5-4 3.6-10.6 3.6-4.6 0-9.8-1.6-5.1-1.6-11-4.9v10q6 2.4 11.1 3.6 5.2 1.2 9.5 1.2 11.4 0 18-5.7 6.8-5.6 6.8-15 0-4.6-1.7-8.6-1.6-4-6-9.5l-7.9-8.2L19.2 8.3z" id="DejaVuSans-50"/><path d="M10.7 12.4H21V0H10.7z" id="DejaVuSans-46"/><path d="M10.8 73h38.7v-8.4H19.8V46.7q2.2.8 4.3 1.1 2.2.4 4.3.4 12.2 0 19.4-6.7 7-6.7 7-18.1 0-11.8-7.2-18.3-7.4-6.5-20.7-6.5-4.6 0-9.4.8-4.7.7-9.8 2.3v10q4.4-2.5 9.1-3.6 4.7-1.2 9.9-1.2 8.5 0 13.4 4.4 5 4.5 5 12 0 7.7-5 12.1Q35 40 26.7 40q-4 0-7.9-.9-4-.9-8-2.7z" id="DejaVuSans-53"/></defs><g transform="matrix(.1 0 0 -.1 7.2 72.4)"><use xlink:href="#DejaVuSans-8722"/><use x="83.8" xlink:href="#DejaVuSans-50"/><use x="147.4" xlink:href="#DejaVuSans-46"/><use x="179.2" xlink:href="#DejaVuSans-53"/></g></g></g><g id="xtick_2"><use x="67.6" xlink:href="#m799a198c6b" y="57.8" stroke="#000" stroke-width=".8" id="line2d_2"/><g id="text_2"><defs><path d="M31.8 66.4q-7.6 0-11.5-7.5-3.8-7.5-3.8-22.5t3.8-22.5q3.9-7.5 11.5-7.5 7.7 0 11.5 7.5T47 36.4q0 15-3.8 22.5t-11.5 7.5zm0 7.8q12.2 0 18.7-9.7T57 36.4Q57 18 50.5 8.3 44-1.4 31.8-1.4 19.5-1.4 13 8.3q-6.5 9.7-6.5 28 0 18.5 6.5 28.2 6.4 9.7 18.7 9.7z" id="DejaVuSans-48"/></defs><g transform="matrix(.1 0 0 -.1 55.5 72.4)"><use xlink:href="#DejaVuSans-8722"/><use x="83.8" xlink:href="#DejaVuSans-50"/><use x="147.4" xlink:href="#DejaVuSans-46"/><use x="179.2" xlink:href="#DejaVuSans-48"/></g></g></g><g id="xtick_3"><use x="115.9" xlink:href="#m799a198c6b" y="57.8" stroke="#000" stroke-width=".8" id="line2d_3"/><g id="text_3"><defs><path d="M12.4 8.3h16.1v55.6L11 60.4v9l17.4 3.5h9.9V8.3h16V0H12.5z" id="DejaVuSans-49"/></defs><g transform="matrix(.1 0 0 -.1 103.7 72.4)"><use xlink:href="#DejaVuSans-8722"/><use x="83.8" xlink:href="#DejaVuSans-49"/><use x="147.4" xlink:href="#DejaVuSans-46"/><use x="179.2" xlink:href="#DejaVuSans-53"/></g></g></g><g id="xtick_4"><use x="164.1" xlink:href="#m799a198c6b" y="57.8" stroke="#000" stroke-width=".8" id="line2d_4"/><g transform="matrix(.1 0 0 -.1 152 72.4)" id="text_4"><use xlink:href="#DejaVuSans-8722"/><use x="83.8" xlink:href="#DejaVuSans-49"/><use x="147.4" xlink:href="#DejaVuSans-46"/><use x="179.2" xlink:href="#DejaVuSans-48"/></g></g><g id="xtick_5"><use x="212.4" xlink:href="#m799a198c6b" y="57.8" stroke="#000" stroke-width=".8" id="line2d_5"/><g transform="matrix(.1 0 0 -.1 200.2 72.4)" id="text_5"><use xlink:href="#DejaVuSans-8722"/><use x="83.8" xlink:href="#DejaVuSans-48"/><use x="147.4" xlink:href="#DejaVuSans-46"/><use x="179.2" xlink:href="#DejaVuSans-53"/></g></g><g id="xtick_6"><use x="260.6" xlink:href="#m799a198c6b" y="57.8" stroke="#000" stroke-width=".8" id="line2d_6"/><g transform="matrix(.1 0 0 -.1 252.7 72.4)" id="text_6"><use xlink:href="#DejaVuSans-48"/><use x="63.6" xlink:href="#DejaVuSans-46"/><use x="95.4" xlink:href="#DejaVuSans-48"/></g></g><g id="xtick_7"><use x="308.9" xlink:href="#m799a198c6b" y="57.8" stroke="#000" stroke-width=".8" id="line2d_7"/><g transform="matrix(.1 0 0 -.1 301 72.4)" id="text_7"><use xlink:href="#DejaVuSans-48"/><use x="63.6" xlink:href="#DejaVuSans-46"/><use x="95.4" xlink:href="#DejaVuSans-53"/></g></g><g id="xtick_8"><use x="357.1" xlink:href="#m799a198c6b" y="57.8" stroke="#000" stroke-width=".8" id="line2d_8"/><g transform="matrix(.1 0 0 -.1 349.2 72.4)" id="text_8"><use xlink:href="#DejaVuSans-49"/><use x="63.6" xlink:href="#DejaVuSans-46"/><use x="95.4" xlink:href="#DejaVuSans-48"/></g></g><g id="xtick_9"><use x="405.4" xlink:href="#m799a198c6b" y="57.8" stroke="#000" stroke-width=".8" id="line2d_9"/><g transform="matrix(.1 0 0 -.1 397.4 72.4)" id="text_9"><use xlink:href="#DejaVuSans-49"/><use x="63.6" xlink:href="#DejaVuSans-46"/><use x="95.4" xlink:href="#DejaVuSans-53"/></g></g><g id="text_10"><defs><path d="M3.3 73h10l15.3-61.7L44 72.9h11l15.4-61.6 15.3 61.6h10L77.3 0H64.9L49.5 63.3 34 0H21.6z" id="DejaVuSans-87"/><path d="M56.2 29.6v-4.4H14.9q.6-9.3 5.6-14.1 5-4.9 14-4.9 5 0 10 1.3 4.8 1.2 9.6 3.8V2.8q-4.8-2-10-3.1-5-1.1-10.2-1.1-13.1 0-20.7 7.6-7.7 7.6-7.7 20.6 0 13.4 7.3 21.3Q20 56 32.3 56q11 0 17.5-7.1 6.4-7.1 6.4-19.3zm-9 2.6q0 7.4-4.1 11.8-4 4.4-10.7 4.4-7.5 0-12-4.3-4.5-4.2-5.2-12z" id="DejaVuSans-101"/><path d="M9.4 54.7h9V0h-9zm0 21.3h9V64.6h-9z" id="DejaVuSans-105"/><path d="M45.4 28q0 9.8-4 15.1-4 5.4-11.3 5.4-7.2 0-11.3-5.4-4-5.4-4-15.1t4-15.1q4-5.4 11.3-5.4 7.3 0 11.3 5.4 4 5.4 4 15zm9-21.2q0-14-6.2-20.8-6.2-6.8-19-6.8-4.7 0-9 .7-4.1.7-8 2.2v8.7q3.9-2.1 7.7-3.1 3.9-1 7.9-1 8.8 0 13.2 4.5 4.4 4.6 4.4 14v4.4q-2.8-4.8-7.1-7.2Q33.9 0 27.9 0q-10 0-16.2 7.7Q5.5 15.3 5.5 28q0 12.7 6.2 20.3Q17.8 56 27.9 56q6 0 10.4-2.4 4.3-2.4 7.1-7.2v8.3h9z" id="DejaVuSans-103"/><path d="M54.9 33V0h-9v32.7q0 7.8-3 11.6-3 3.9-9.1 3.9-7.3 0-11.5-4.7Q18.1 39 18.1 31V0h-9v76h9V46.2q3.2 5 7.6 7.4Q30.1 56 35.8 56q9.4 0 14.2-5.8Q55 44.3 55 33z" id="DejaVuSans-104"/><path d="M18.3 70.2V54.7h18.5v-7H18.3V18q0-6.7 1.8-8.6 1.9-1.9 7.5-1.9h9.2V0h-9.2Q17.2 0 13.2 3.9T9.2 18v29.7H2.8v7h6.6v15.5z" id="DejaVuSans-116"/><path d="M44.3 53v-8.4q-3.8 2-8 2.9-4 1-8.4 1-6.7 0-10-2-3.4-2.1-3.4-6.2 0-3.1 2.4-5 2.4-1.7 9.6-3.3l3-.7q9.7-2 13.7-5.8 4-3.7 4-10.4 0-7.6-6-12-6-4.5-16.6-4.5-4.4 0-9.1.8-4.8.9-10 2.6v9.3q5-2.6 9.7-4 4.9-1.2 9.6-1.2 6.4 0 9.8 2.2 3.4 2.2 3.4 6.1 0 3.7-2.5 5.6-2.4 2-10.8 3.8l-3.1.7q-8.4 1.8-12 5.4-3.8 3.6-3.8 10 0 7.7 5.5 11.9Q16.7 56 26.8 56q5 0 9.4-.7 4.4-.8 8-2.2z" id="DejaVuSans-115"/></defs><g transform="matrix(.1 0 0 -.1 195.2 86)"><use xlink:href="#DejaVuSans-87"/><use x="98.8" xlink:href="#DejaVuSans-101"/><use x="160.3" xlink:href="#DejaVuSans-105"/><use x="188.1" xlink:href="#DejaVuSans-103"/><use x="251.6" xlink:href="#DejaVuSans-104"/><use x="315" xlink:href="#DejaVuSans-116"/><use x="354.2" xlink:href="#DejaVuSans-115"/></g></g></g><path d="M19.2 57.8h392.7" fill="none" stroke="#000" stroke-linecap="square" stroke-width=".8" id="patch_9"/><g id="legend_1"><path d="M346 59.2H405q2 0 2-2v-43q0-2-2-2H346q-2 0-2 2v43q0 2 2 2z" fill="#fff" opacity=".8" stroke="#ccc" id="patch_10"/><path d="M348 23.8h20v-7h-20z" fill="#1f77b4" opacity=".4" id="patch_11"/><g id="text_11"><defs><path d="M8.6 76h20.7v-7H17.6V-6.2h11.7v-7H8.6z" id="DejaVuSans-91"/><path d="M11.7 12.4H22V4l-8-15.6H7.7l4 15.6z" id="DejaVuSans-44"/><path d="M30.4 76v-89.2H9.7v7h11.7V69H9.7v7z" id="DejaVuSans-93"/></defs><g transform="matrix(.1 0 0 -.1 376 23.8)"><use xlink:href="#DejaVuSans-91"/><use x="39" xlink:href="#DejaVuSans-48"/><use x="102.6" xlink:href="#DejaVuSans-44"/><use x="134.4" xlink:href="#DejaVuSans-32"/><use x="166.2" xlink:href="#DejaVuSans-48"/><use x="229.8" xlink:href="#DejaVuSans-93"/></g></g><path d="M348 38.5h20v-7h-20z" fill="#ff7f0e" opacity=".4" id="patch_12"/><g transform="matrix(.1 0 0 -.1 376 38.5)" id="text_12"><use xlink:href="#DejaVuSans-91"/><use x="39" xlink:href="#DejaVuSans-49"/><use x="102.6" xlink:href="#DejaVuSans-44"/><use x="134.4" xlink:href="#DejaVuSans-32"/><use x="166.2" xlink:href="#DejaVuSans-48"/><use x="229.8" xlink:href="#DejaVuSans-93"/></g><path d="M348 53.2h20v-7h-20z" fill="#2ca02c" opacity=".4" id="patch_13"/><g transform="matrix(.1 0 0 -.1 376 53.2)" id="text_13"><use xlink:href="#DejaVuSans-91"/><use x="39" xlink:href="#DejaVuSans-50"/><use x="102.6" xlink:href="#DejaVuSans-44"/><use x="134.4" xlink:href="#DejaVuSans-32"/><use x="166.2" xlink:href="#DejaVuSans-48"/><use x="229.8" xlink:href="#DejaVuSans-93"/></g></g></g><g id="axes_2"><path d="M19.2 150.2h392.7V99.6H19.2z" fill="#fff" id="patch_14"/><path clip-path="url(#pad1edcaf65)" d="M37 147.9H72l.6-.1H85.5l.5-.1H91.3l.6-.1H94.8l.6-.1H97.7l.6-.1h1.7l.6-.1h1.2l.6-.1h1.1l.6-.1h.6l.6-.1h1.2l.5-.1h.6l.6-.1h.6l.6-.1h.6l.5-.1h.6l.6-.1h.6l.6-.1h.6l.5-.2h1.2l.6-.1.6-.1h.6l.5-.2h.6l.6-.1h.6l.6-.2h.6l.5-.1.6-.1.6-.1h.6l.6-.2h.6l.5-.2h.6l.6-.2.6-.1.6-.1.6-.1.5-.1.6-.2.6-.1.6-.1.6-.2.6-.1.5-.1.6-.2.6-.1.6-.2.6-.1.6-.2.5-.2.6-.1.6-.2.6-.2.6-.2.6-.1.5-.2.6-.2.6-.2.6-.2.6-.2.6-.2.5-.3.6-.2.6-.2.6-.2.6-.3.6-.2.5-.2.6-.3.6-.2.6-.3.6-.3.6-.2.5-.3.6-.3.6-.3.6-.3.6-.3.6-.3.5-.3.6-.3.6-.3.6-.4.6-.3.6-.3.5-.4.6-.3.6-.4.6-.3.6-.4.6-.3.5-.4.6-.4.6-.4.6-.3.6-.4.6-.4.5-.4.6-.4.6-.4.6-.4.6-.4.6-.4.5-.4.6-.3.6-.4.6-.4.6-.4.6-.5.5-.3.6-.4.6-.4.6-.4.6-.4.6-.4.5-.4.6-.4.6-.4.6-.4.6-.4.6-.4.5-.4.6-.4.6-.3.6-.4.6-.4.6-.4.5-.4.6-.4.6-.3.6-.4.6-.4.6-.4.5-.3.6-.4.6-.4.6-.4.6-.3.6-.4.5-.4.6-.3.6-.4.6-.4.6-.3.6-.4.5-.3.6-.4.6-.3.6-.4.6-.3.6-.3.5-.4.6-.3.6-.3.6-.3.6-.3.6-.3.5-.3.6-.3.6-.3.6-.3.6-.3.6-.2.5-.3.6-.2.6-.2.6-.3.6-.2.6-.2.5-.2.6-.2.6-.2.6-.1.6-.2.6-.1.5-.2h.6l.6-.2.6-.1.6-.1h.6l.5-.2h1.2l.6-.1h1.2l.5-.1h2.4l.6.1h.5l.6.1h.6l.6.2h.6l.6.2h.5l.6.2.6.1.6.2.6.1.6.2.5.1.6.2.6.2.6.2.6.2.6.2.5.2.6.3.6.2.6.2.6.3.6.2.5.3.6.3.6.2.6.3.6.3.6.3.5.3.6.3.6.3.6.3.6.3.6.3.5.3.6.3.6.4.6.3.6.3.6.4.5.3.6.4.6.3.6.4.6.4.6.3.5.4.6.4.6.4.6.3.6.4.6.4.5.4.6.4.6.4.6.4.6.4.6.5.5.4.6.4.6.4.6.4.6.5.6.4.5.4.6.4.6.5.6.4.6.4.6.5.5.4.6.4.6.5.6.4.6.4.6.4.5.4.6.4.6.5.6.4.6.4.6.4.5.4.6.3.6.4.6.4.6.4.6.4.5.3.6.4.6.3.6.4.6.3.6.4.5.3.6.3.6.3.6.3.6.3.6.4.5.2.6.3.6.3.6.3.6.3.6.2.5.3.6.3.6.2.6.3.6.2.6.3.5.2.6.2.6.3.6.2.6.2.6.2.5.2.6.3.6.2.6.2.6.2.6.2.5.2.6.2.6.1.6.2.6.2.6.2.5.2.6.2.6.1.6.2.6.2.6.1.5.2.6.2.6.1.6.2.6.1.6.2.5.1.6.2.6.1.6.2h.6l.6.2.5.1.6.2h.6l.6.2.6.1.6.1.5.1.6.2h.6l.6.1.6.1.6.1.5.1.6.1h.6l.6.2h.6l.6.1h.5l.6.2h1.2l.6.2h1.1l.6.1h.6l.6.1h.6l.6.1h.5l.6.1h.6l.6.1h1.2l.5.1h.6l.6.1H330.5l.5.1h1.2l.6.1h1.7l.6.1h2.9l.6.1h3.5l.6.1H349.1l.6.1H381.2l.6.1H394z" fill="#1f77b4" opacity=".4" id="patch_15"/><path clip-path="url(#pad1edcaf65)" d="M140.9 147.9v-7.3l.6-.2.5-.3.6-.2.6-.2.6-.2.6-.3.6-.2.5-.2.6-.3.6-.2.6-.3.6-.3.6-.2.5-.3.6-.3.6-.3.6-.3.6-.3.6-.3.5-.3.6-.3.6-.3.6-.4.6-.3.6-.3.5-.4.6-.3.6-.4.6-.3.6-.4.6-.3.5-.4.6-.4.6-.4.6-.3.6-.4.6-.4.5-.4.6-.4.6-.4.6-.4.6-.4.6-.4.5-.4.6-.3.6-.4.6-.4.6-.4.6-.5.5-.3.6-.4.6-.4.6-.4.6-.4.6-.4.5-.4.6-.4.6-.4.6-.4.6-.4.6-.4.5-.4.6-.4.6-.3.6-.4.6-.4.6-.4.5-.4.6-.4.6-.3.6-.4.6-.4.6-.4.5-.3.6-.4.6-.4.6-.4.6-.3.6-.4.5-.4.6-.3.6-.4.6-.4.6-.3.6-.4.5-.3.6-.4.6-.3.6-.4.6-.3.6-.3.5-.4.6-.3.6-.3.6-.3.6-.3.6-.3.5-.3.6-.3.6-.3.6-.3.6-.3.6-.2.5-.3.6-.2.6-.2.6-.3.6-.2.6-.2.5-.2.6-.2.6-.2.6-.1.6-.2.6-.1.5-.2h.6l.6-.2.6-.1.6-.1h.6l.5-.2h1.2l.6-.1h1.2l.5-.1h2.4l.6.1h.5l.6.1h.6l.6.2h.6l.6.2h.5l.6.2.6.1.6.2.6.1.6.2.5.1.6.2.6.2.6.2.6.2.6.2.5.2.6.3.6.2.6.2.6.3.6.2.5.3.6.3.6.2.6.3.6.3.6.3.5.3.6.3.6.3.6.3.6.3.6.3.5.3.6.3.6.4.6.3.6.3.6.4.5.3.6.4.6.3.6.4.6.4.6.3.5.4.6.4.6.4.6.3.6.4.6.4.5.4.6.4.6.4.6.4.6.4.6.5.5.4.6.4.6.4.6.4.6.5.6.4.5.4.6.4.6.5.6.4.6.4.6.5.5.4.6.4.6.5.6.4.6.4.6.4.5.4.6.4.6.5.6.4.6.4.6.4.5.4.6.3.6.4.6.4.6.4.6.4.5.3.6.4.6.3.6.4.6.3.6.4.5.3.6.3.6.3.6.3.6.3.6.4.5.2.6.3.6.3.6.3.6.3.6.2.5.3.6.3.6.2.6.3.6.2.6.3.5.2.6.2.6.3.6.2.6.2.6.2.5.2.6.3.6.2v8.1z" fill="#1f77b4" opacity=".4" id="patch_16"/><g id="matplotlib.axis_2"><g id="xtick_10"><use x="56.7" xlink:href="#m799a198c6b" y="150.2" stroke="#000" stroke-width=".8" id="line2d_10"/><g transform="matrix(.1 0 0 -.1 44.6 164.8)" id="text_14"><use xlink:href="#DejaVuSans-8722"/><use x="83.8" xlink:href="#DejaVuSans-50"/><use x="147.4" xlink:href="#DejaVuSans-46"/><use x="179.2" xlink:href="#DejaVuSans-53"/></g></g><g id="xtick_11"><use x="107.1" xlink:href="#m799a198c6b" y="150.2" stroke="#000" stroke-width=".8" id="line2d_11"/><g transform="matrix(.1 0 0 -.1 95 164.8)" id="text_15"><use xlink:href="#DejaVuSans-8722"/><use x="83.8" xlink:href="#DejaVuSans-50"/><use x="147.4" xlink:href="#DejaVuSans-46"/><use x="179.2" xlink:href="#DejaVuSans-48"/></g></g><g id="xtick_12"><use x="157.4" xlink:href="#m799a198c6b" y="150.2" stroke="#000" stroke-width=".8" id="line2d_12"/><g transform="matrix(.1 0 0 -.1 145.3 164.8)" id="text_16"><use xlink:href="#DejaVuSans-8722"/><use x="83.8" xlink:href="#DejaVuSans-49"/><use x="147.4" xlink:href="#DejaVuSans-46"/><use x="179.2" xlink:href="#DejaVuSans-53"/></g></g><g id="xtick_13"><use x="207.8" xlink:href="#m799a198c6b" y="150.2" stroke="#000" stroke-width=".8" id="line2d_13"/><g transform="matrix(.1 0 0 -.1 195.6 164.8)" id="text_17"><use xlink:href="#DejaVuSans-8722"/><use x="83.8" xlink:href="#DejaVuSans-49"/><use x="147.4" xlink:href="#DejaVuSans-46"/><use x="179.2" xlink:href="#DejaVuSans-48"/></g></g><g id="xtick_14"><use x="258.1" xlink:href="#m799a198c6b" y="150.2" stroke="#000" stroke-width=".8" id="line2d_14"/><g transform="matrix(.1 0 0 -.1 246 164.8)" id="text_18"><use xlink:href="#DejaVuSans-8722"/><use x="83.8" xlink:href="#DejaVuSans-48"/><use x="147.4" xlink:href="#DejaVuSans-46"/><use x="179.2" xlink:href="#DejaVuSans-53"/></g></g><g id="xtick_15"><use x="308.5" xlink:href="#m799a198c6b" y="150.2" stroke="#000" stroke-width=".8" id="line2d_15"/><g transform="matrix(.1 0 0 -.1 300.5 164.8)" id="text_19"><use xlink:href="#DejaVuSans-48"/><use x="63.6" xlink:href="#DejaVuSans-46"/><use x="95.4" xlink:href="#DejaVuSans-48"/></g></g><g id="xtick_16"><use x="358.8" xlink:href="#m799a198c6b" y="150.2" stroke="#000" stroke-width=".8" id="line2d_16"/><g transform="matrix(.1 0 0 -.1 350.9 164.8)" id="text_20"><use xlink:href="#DejaVuSans-48"/><use x="63.6" xlink:href="#DejaVuSans-46"/><use x="95.4" xlink:href="#DejaVuSans-53"/></g></g><g id="xtick_17"><use x="409.2" xlink:href="#m799a198c6b" y="150.2" stroke="#000" stroke-width=".8" id="line2d_17"/><g transform="matrix(.1 0 0 -.1 401.2 164.8)" id="text_21"><use xlink:href="#DejaVuSans-49"/><use x="63.6" xlink:href="#DejaVuSans-46"/><use x="95.4" xlink:href="#DejaVuSans-48"/></g></g><g id="text_22"><defs><path d="M19.7 34.8V8.1h15.8q8 0 11.8 3.3 3.8 3.3 3.8 10 0 7-3.8 10.2-3.8 3.2-11.8 3.2zm0 30v-22h14.6q7.2 0 10.7 2.7 3.6 2.8 3.6 8.3 0 5.5-3.6 8.3-3.5 2.7-10.7 2.7zm-9.9 8.1H35q11.3 0 17.4-4.7 6.1-4.7 6.1-13.3 0-6.7-3.1-10.7-3.1-4-9.2-4.9 7.3-1.5 11.3-6.5 4-5 4-12.4 0-9.8-6.6-15Q48.3 0 35.9 0H10z" id="DejaVuSans-66"/><path d="M34.3 27.5q-11 0-15.1-2.5-4.2-2.5-4.2-8.5 0-4.8 3.1-7.6 3.2-2.8 8.6-2.8 7.5 0 12 5.3t4.5 14v2zm17.9 3.7V0h-9v8.3q-3-5-7.7-7.3Q31-1.4 24.3-1.4 16-1.4 11 3.3 6 8 6 15.9q0 9.2 6.2 14 6.2 4.6 18.4 4.6h12.6v1q0 6.1-4 9.5-4.1 3.4-11.5 3.4-4.7 0-9.2-1.1-4.4-1.2-8.5-3.4v8.3q5 2 9.6 2.8 4.6 1 9 1 11.9 0 17.7-6.2 5.9-6.1 5.9-18.6z" id="DejaVuSans-97"/></defs><g transform="matrix(.1 0 0 -.1 205 178.5)"><use xlink:href="#DejaVuSans-66"/><use x="68.6" xlink:href="#DejaVuSans-105"/><use x="96.4" xlink:href="#DejaVuSans-97"/><use x="157.7" xlink:href="#DejaVuSans-115"/></g></g></g><path d="M19.2 150.2h392.7" fill="none" stroke="#000" stroke-linecap="square" stroke-width=".8" id="patch_17"/></g><g id="axes_3"><path d="M19.2 242.6h392.7V192H19.2z" fill="#fff" id="patch_18"/><path clip-path="url(#p698e7425ff)" d="M37 240.3H47l.5-.1h1.2l.6-.1h1.2l.5-.1.6-.1h.6l.6-.2h.6l.6-.2h.5l.6-.2.6-.2.6-.1.6-.2.6-.2.5-.2.6-.3.6-.2.6-.3.6-.3.6-.4.5-.3.6-.4.6-.5.6-.4.6-.5.6-.5.5-.6.6-.6.6-.7.6-.6.6-.8.6-.7.5-.8.6-.8 1.2-1 .6-.8.6-1 .5-1 .6-1 .6-1 .6-1 .6-1.1.6-1.1.5-1.1.6-1.2.6-1.1.6-1.2.6-1.2.6-1.1.5-1.2.6-1.2.6-1.1.6-1.1.6-1.1.6-1.1.5-1.1.6-1 .6-1 .6-1 .6-.9.6-.8.5-.9.6-.7.6-.7.6-.7.6-.5.6-.6.5-.4.6-.4.6-.3.6-.3.6-.2.6-.1.5-.1h1.2l.6.2.6.2.6.2.5.3.6.4.6.4.6.5.6.5.6.5.5.6.6.6.6.7.6.7.6.7.6.8.5.8.6.8.6.8.6.8.6.9.6.8.5 1 .6.8.6.8.6 1 .6.8.6.9.5.8.6.9.6.8.6.8.6.9.6.8.5.8.6.7.6.8.6.7.6.8.6.7.5.7.6.6.6.7.6.6.6.6.6.6.5.6.6.6.6.5.6.5.6.5.6.5.5.5.6.4.6.5.6.4.6.4.6.4.5.3.6.4.6.3.6.3.6.4.6.3.5.2.6.3.6.3.6.2.6.3.6.2.5.2.6.3.6.2.6.2.6.2.6.1.5.2.6.2.6.2.6.1.6.2.6.1.5.2h.6l.6.2.6.1.6.2h.6l.5.2.6.1.6.1.6.1.6.1.6.1.5.1h.6l.6.2h.6l.6.1.6.1h.5l.6.1.6.1h.6l.6.1.6.1h.5l.6.1h.6l.6.1h.6l.6.1h1.1l.6.1h.6l.6.1h1.1l.6.1H165.4l.6.1H168.3l.6.1H171.2l.6.1h4.1l.6.1H181.7l.6.1H189.3l.6.1H202l.6.1H251.1l.6.1H394z" fill="#1f77b4" opacity=".4" id="patch_19"/><path clip-path="url(#p698e7425ff)" d="M77.9 240.3v-26.4l.6-1.1.5-1.2.6-1.2.6-1.1.6-1.1.6-1.1.6-1.1.5-1.1.6-1 .6-1 .6-1 .6-.9.6-.8.5-.9.6-.7.6-.7.6-.7.6-.5.6-.6.5-.4.6-.4.6-.3.6-.3.6-.2.6-.1.5-.1h1.2l.6.2.6.2.6.2.5.3.6.4.6.4.6.5.6.5.6.5.5.6.6.6.6.7.6.7.6.7.6.8.5.8.6.8.6.8.6.8.6.9.6.8.5 1 .6.8.6.8.6 1 .6.8.6.9.5.8.6.9.6.8.6.8.6.9.6.8.5.8.6.7.6.8.6.7.6.8.6.7.5.7.6.6.6.7.6.6.6.6.6.6.5.6.6.6.6.5.6.5.6.5.6.5.5.5.6.4.6.5.6.4.6.4.6.4.5.3.6.4.6.3.6.3.6.4.6.3.5.2.6.3.6.3.6.2.6.3.6.2.5.2.6.3.6.2.6.2.6.2.6.1.5.2.6.2.6.2v4.1z" fill="#1f77b4" opacity=".4" id="patch_20"/><g id="matplotlib.axis_3"><g id="xtick_18"><use x="48.9" xlink:href="#m799a198c6b" y="242.6" stroke="#000" stroke-width=".8" id="line2d_18"/><use xlink:href="#DejaVuSans-48" transform="matrix(.1 0 0 -.1 45.7 257.2)" id="text_23"/></g><g id="xtick_19"><use x="112.5" xlink:href="#m799a198c6b" y="242.6" stroke="#000" stroke-width=".8" id="line2d_19"/><use xlink:href="#DejaVuSans-49" transform="matrix(.1 0 0 -.1 109.4 257.2)" id="text_24"/></g><g id="xtick_20"><use x="176.2" xlink:href="#m799a198c6b" y="242.6" stroke="#000" stroke-width=".8" id="line2d_20"/><use xlink:href="#DejaVuSans-50" transform="matrix(.1 0 0 -.1 173 257.2)" id="text_25"/></g><g id="xtick_21"><use x="239.9" xlink:href="#m799a198c6b" y="242.6" stroke="#000" stroke-width=".8" id="line2d_21"/><g id="text_26"><defs><path d="M40.6 39.3q7-1.5 11-6.3t4-11.8q0-10.8-7.4-16.7-7.4-6-21.1-6-4.6 0-9.4 1-4.9.9-10 2.7v9.5q4-2.4 8.9-3.6Q21.5 7 26.8 7q9.3 0 14.1 3.6 4.9 3.7 4.9 10.7 0 6.4-4.5 10Q36.8 35 28.7 35h-8.5V43h9q7.2 0 11 3 3.9 2.8 3.9 8.3 0 5.6-4 8.6t-11.4 3q-4 0-8.7-.9-4.6-.8-10.2-2.7v8.8q5.6 1.6 10.5 2.3 5 .8 9.3.8 11.2 0 17.8-5 6.5-5.2 6.5-13.9 0-6-3.5-10.2-3.4-4.2-9.8-5.8z" id="DejaVuSans-51"/></defs><use xlink:href="#DejaVuSans-51" transform="matrix(.1 0 0 -.1 236.7 257.2)"/></g></g><g id="xtick_22"><use x="303.5" xlink:href="#m799a198c6b" y="242.6" stroke="#000" stroke-width=".8" id="line2d_22"/><g id="text_27"><defs><path d="M37.8 64.3l-25-39h25zM35.2 73h12.4V25.4H58v-8.2H47.6V0h-9.8v17.2h-33v9.5z" id="DejaVuSans-52"/></defs><use xlink:href="#DejaVuSans-52" transform="matrix(.1 0 0 -.1 300.4 257.2)"/></g></g><g id="xtick_23"><use x="367.2" xlink:href="#m799a198c6b" y="242.6" stroke="#000" stroke-width=".8" id="line2d_23"/><use xlink:href="#DejaVuSans-53" transform="matrix(.1 0 0 -.1 364 257.2)" id="text_28"/></g><g id="text_29"><defs><path d="M53.5 70.5V61q-5.6 2.7-10.6 4-5 1.3-9.6 1.3-8 0-12.4-3.1t-4.4-8.9q0-4.8 3-7.3 2.8-2.5 11-4l5.9-1.2q11-2.1 16.3-7.4 5.2-5.3 5.2-14.2 0-10.6-7.1-16Q43.7-1.5 30-1.5q-5.2 0-11 1.1Q13 1 6.9 3.3v10.2q6-3.4 11.8-5.1Q24.4 6.6 30 6.6q8.4 0 13 3.3t4.6 9.5q0 5.4-3.3 8.4t-10.8 4.5l-6 1.2q-11 2.2-16 6.9t-5 13q0 9.7 7 15.3 6.7 5.5 18.7 5.5 5.1 0 10.4-1 5.4-.8 11-2.7z" id="DejaVuSans-83"/><path d="M45.4 46.4V76h9V0h-9v8.2Q42.6 3.3 38.3 1q-4.4-2.4-10.4-2.4-10 0-16.2 7.9-6.2 8-6.2 20.8 0 12.9 6.2 20.8Q18 56 28 56q6 0 10.4-2.4 4.3-2.3 7.1-7.2zM14.8 27.3q0-10 4-15.6Q23 6.2 30.2 6.2q7.1 0 11.2 5.7 4.1 5.6 4.1 15.5t-4.1 15.5q-4.1 5.7-11.2 5.7t-11.2-5.7q-4.1-5.6-4.1-15.5z" id="DejaVuSans-100"/></defs><g transform="matrix(.1 0 0 -.1 207.2 270.9)"><use xlink:href="#DejaVuSans-83"/><use x="63.5" xlink:href="#DejaVuSans-116"/><use x="102.7" xlink:href="#DejaVuSans-100"/></g></g></g><path d="M19.2 242.6h392.7" fill="none" stroke="#000" stroke-linecap="square" stroke-width=".8" id="patch_21"/></g></g><defs><clipPath id="p9bb83c228f"><path d="M19.2 7.2h392.7v50.6H19.2z"/></clipPath><clipPath id="pad1edcaf65"><path d="M19.2 99.6h392.7v50.6H19.2z"/></clipPath><clipPath id="p698e7425ff"><path d="M19.2 192h392.7v50.6H19.2z"/></clipPath></defs></svg>