<svg height="292.3" viewBox="0 0 563.9 219.2" width="751.9" xmlns="http://www.w3.org/2000/svg" xmlns:xlink="http://www.w3.org/1999/xlink"><defs><style>*{stroke-linecap:butt;stroke-linejoin:round}</style></defs><g id="figure_1"><path d="M0 219.2h564V0H0z" fill="#fff" id="patch_1"/><g id="axes_1"><path d="M48.5 176.3h147.7V13.2H48.5z" fill="#eaeaf2" id="patch_2"/><g id="matplotlib.axis_1"><g id="xtick_1"><path clip-path="url(#p33ba3075d1)" d="M82.4 176.3V13.2" fill="none" stroke="#fff" stroke-linecap="round" id="line2d_1"/><g id="text_1"><defs><path d="M10.6 35.5h62.6v-8.3H10.6z" id="DejaVuSans-8722"/><path d="M19.2 8.3h34.4V0H7.3v8.3l15.3 15.6q9.7 9.8 12.2 12.6 4.7 5.3 6.6 9 2 3.7 2 7.3 0 5.8-4.2 9.5-4 3.6-10.6 3.6-4.6 0-9.8-1.6-5.1-1.6-11-4.9v10q6 2.4 11.1 3.6 5.2 1.2 9.5 1.2 11.4 0 18-5.7 6.8-5.6 6.8-15 0-4.6-1.7-8.6-1.6-4-6-9.5l-7.9-8.2L19.2 8.3z" id="DejaVuSans-50"/></defs><g transform="matrix(.11 0 0 -.11 74.3 194.1)" fill="#262626"><use xlink:href="#DejaVuSans-8722"/><use x="83.8" xlink:href="#DejaVuSans-50"/></g></g></g><g id="xtick_2"><path clip-path="url(#p33ba3075d1)" d="M128.5 176.3V13.2" fill="none" stroke="#fff" stroke-linecap="round" id="line2d_2"/><g id="text_2"><defs><path d="M31.8 66.4q-7.6 0-11.5-7.5-3.8-7.5-3.8-22.5t3.8-22.5q3.9-7.5 11.5-7.5 7.7 0 11.5 7.5T47 36.4q0 15-3.8 22.5t-11.5 7.5zm0 7.8q12.2 0 18.7-9.7T57 36.4Q57 18 50.5 8.3 44-1.4 31.8-1.4 19.5-1.4 13 8.3q-6.5 9.7-6.5 28 0 18.5 6.5 28.2 6.4 9.7 18.7 9.7z" id="DejaVuSans-48"/></defs><use xlink:href="#DejaVuSans-48" transform="matrix(.11 0 0 -.11 125 194.1)" fill="#262626"/></g></g><g id="xtick_3"><path clip-path="url(#p33ba3075d1)" d="M174.5 176.3V13.2" fill="none" stroke="#fff" stroke-linecap="round" id="line2d_3"/><use xlink:href="#DejaVuSans-50" transform="matrix(.11 0 0 -.11 171 194.1)" fill="#262626" id="text_3"/></g><g id="text_4"><defs><path d="M54.9 54.7L35 28 56 0H45.3l-16 21.5L13.6 0H2.9L24 28.6l-19.4 26h10.6l14.5-19.4 14.5 19.5z" id="DejaVuSans-120"/></defs><g transform="matrix(.12 0 0 -.12 115 209.5)" fill="#262626"><use xlink:href="#DejaVuSans-120"/><use x="59.2" xlink:href="#DejaVuSans-48"/></g></g></g><g id="matplotlib.axis_2"><g id="ytick_1"><path clip-path="url(#p33ba3075d1)" d="M48.5 157.4h147.7" fill="none" stroke="#fff" stroke-linecap="round" id="line2d_4"/><g id="text_5"><defs><path d="M33 40.4q-6.6 0-10.5-4.6-3.9-4.5-3.9-12.4T22.5 11Q26.4 6.4 33 6.4q6.7 0 10.5 4.6 4 4.5 4 12.4t-4 12.4q-3.8 4.6-10.5 4.6zm19.6 30.9v-9Q48.9 64.1 45 65q-3.8 1-7.5 1-9.8 0-15-6.7-5-6.6-5.8-19.9 2.9 4.3 7.2 6.5 4.4 2.3 9.6 2.3 11 0 17.4-6.7 6.3-6.6 6.3-18.1 0-11.2-6.6-18Q44-1.4 33-1.4q-12.6 0-19.3 9.7Q7 18 7 36.3 7 53.8 15.2 64q8.2 10.3 22 10.3 3.7 0 7.5-.7 3.8-.8 7.9-2.2z" id="DejaVuSans-54"/></defs><g transform="matrix(.11 0 0 -.11 22.8 161.6)" fill="#262626"><use xlink:href="#DejaVuSans-8722"/><use x="83.8" xlink:href="#DejaVuSans-54"/></g></g></g><g id="ytick_2"><path clip-path="url(#p33ba3075d1)" d="M48.5 134.1h147.7" fill="none" stroke="#fff" stroke-linecap="round" id="line2d_5"/><g id="text_6"><defs><path d="M37.8 64.3l-25-39h25zM35.2 73h12.4V25.4H58v-8.2H47.6V0h-9.8v17.2h-33v9.5z" id="DejaVuSans-52"/></defs><g transform="matrix(.11 0 0 -.11 22.8 138.3)" fill="#262626"><use xlink:href="#DejaVuSans-8722"/><use x="83.8" xlink:href="#DejaVuSans-52"/></g></g></g><g id="ytick_3"><path clip-path="url(#p33ba3075d1)" d="M48.5 110.8h147.7" fill="none" stroke="#fff" stroke-linecap="round" id="line2d_6"/><g transform="matrix(.11 0 0 -.11 22.8 115)" fill="#262626" id="text_7"><use xlink:href="#DejaVuSans-8722"/><use x="83.8" xlink:href="#DejaVuSans-50"/></g></g><g id="ytick_4"><path clip-path="url(#p33ba3075d1)" d="M48.5 87.5h147.7" fill="none" stroke="#fff" stroke-linecap="round" id="line2d_7"/><use xlink:href="#DejaVuSans-48" transform="matrix(.11 0 0 -.11 32 91.7)" fill="#262626" id="text_8"/></g><g id="ytick_5"><path clip-path="url(#p33ba3075d1)" d="M48.5 64.2h147.7" fill="none" stroke="#fff" stroke-linecap="round" id="line2d_8"/><use xlink:href="#DejaVuSans-50" transform="matrix(.11 0 0 -.11 32 68.4)" fill="#262626" id="text_9"/></g><g id="ytick_6"><path clip-path="url(#p33ba3075d1)" d="M48.5 41h147.7" fill="none" stroke="#fff" stroke-linecap="round" id="line2d_9"/><use xlink:href="#DejaVuSans-52" transform="matrix(.11 0 0 -.11 32 45)" fill="#262626" id="text_10"/></g><g id="ytick_7"><path clip-path="url(#p33ba3075d1)" d="M48.5 17.6h147.7" fill="none" stroke="#fff" stroke-linecap="round" id="line2d_10"/><use xlink:href="#DejaVuSans-54" transform="matrix(.11 0 0 -.11 32 21.8)" fill="#262626" id="text_11"/></g><g id="text_12"><defs><path d="M32.2-5q-3.8-9.8-7.5-12.8-3.6-3-9.6-3H7.9v7.5h5.3q3.7 0 5.7 1.8 2.1 1.7 4.6 8.3l1.6 4L3 54.8h9.5l17-42.8 17.2 42.8h9.5z" id="DejaVuSans-121"/></defs><use xlink:href="#DejaVuSans-121" transform="matrix(0 -.12 -.12 0 16.3 98.3)" fill="#262626"/></g></g><g id="PathCollection_1"><defs><path d="M0 3a3 3 0 100-6 3 3 0 000 6z" id="m1c8718c900" stroke="#4c72b0" stroke-opacity=".8"/></defs><g clip-path="url(#p33ba3075d1)" fill="#4c72b0" fill-opacity=".8" stroke="#4c72b0" stroke-opacity=".8"><use x="98.1" xlink:href="#m1c8718c900" y="68.9"/><use x="107.8" xlink:href="#m1c8718c900" y="94.1"/><use x="140.6" xlink:href="#m1c8718c900" y="87.8"/><use x="189.5" xlink:href="#m1c8718c900" y="142.3"/><use x="131.6" xlink:href="#m1c8718c900" y="101"/><use x="161.4" xlink:href="#m1c8718c900" y="125.8"/><use x="140.1" xlink:href="#m1c8718c900" y="112"/><use x="140.7" xlink:href="#m1c8718c900" y="99.1"/><use x="159.9" xlink:href="#m1c8718c900" y="141.1"/><use x="125.1" xlink:href="#m1c8718c900" y="95.1"/><use x="177.3" xlink:href="#m1c8718c900" y="150.6"/><use x="86.2" xlink:href="#m1c8718c900" y="68.9"/><use x="133.3" xlink:href="#m1c8718c900" y="110.8"/><use x="108.4" xlink:href="#m1c8718c900" y="74.9"/><use x="137.8" xlink:href="#m1c8718c900" y="137.6"/><use x="139.4" xlink:href="#m1c8718c900" y="107.3"/><use x="117.7" xlink:href="#m1c8718c900" y="103.7"/><use x="115.6" xlink:href="#m1c8718c900" y="93"/><use x="127.5" xlink:href="#m1c8718c900" y="106.4"/><use x="145.9" xlink:href="#m1c8718c900" y="139.5"/><use x="72" xlink:href="#m1c8718c900" y="65.3"/><use x="134.6" xlink:href="#m1c8718c900" y="114"/><use x="144.4" xlink:href="#m1c8718c900" y="136.4"/><use x="149.1" xlink:href="#m1c8718c900" y="114.9"/><use x="138.7" xlink:href="#m1c8718c900" y="134"/><use x="162.6" xlink:href="#m1c8718c900" y="142"/><use x="132.5" xlink:href="#m1c8718c900" y="99.1"/><use x="133.2" xlink:href="#m1c8718c900" y="101.2"/><use x="138.2" xlink:href="#m1c8718c900" y="112.1"/><use x="146.1" xlink:href="#m1c8718c900" y="119.6"/><use x="107.3" xlink:href="#m1c8718c900" y="83.2"/><use x="136.1" xlink:href="#m1c8718c900" y="114.6"/><use x="76.6" xlink:href="#m1c8718c900" y="40.4"/><use x="96.7" xlink:href="#m1c8718c900" y="70.5"/><use x="162.5" xlink:href="#m1c8718c900" y="124.4"/><use x="130.2" xlink:href="#m1c8718c900" y="93.3"/><use x="110.8" xlink:href="#m1c8718c900" y="68"/><use x="96.6" xlink:href="#m1c8718c900" y="88.2"/><use x="115.3" xlink:href="#m1c8718c900" y="79.9"/><use x="113.1" xlink:href="#m1c8718c900" y="77.5"/><use x="80.9" xlink:href="#m1c8718c900" y="67.8"/><use x="127.4" xlink:href="#m1c8718c900" y="116.8"/><use x="146.8" xlink:href="#m1c8718c900" y="103.9"/><use x="106.7" xlink:href="#m1c8718c900" y="78"/><use x="135.3" xlink:href="#m1c8718c900" y="96"/><use x="104" xlink:href="#m1c8718c900" y="93.9"/><use x="150.3" xlink:href="#m1c8718c900" y="106.4"/><use x="110.4" xlink:href="#m1c8718c900" y="86.5"/><use x="111.1" xlink:href="#m1c8718c900" y="101.6"/><use x="160.9" xlink:href="#m1c8718c900" y="131.4"/><use x="93.2" xlink:href="#m1c8718c900" y="52.5"/><use x="117.5" xlink:href="#m1c8718c900" y="75.6"/><use x="118.2" xlink:href="#m1c8718c900" y="90.9"/><use x="81.8" xlink:href="#m1c8718c900" y="47.8"/><use x="88.2" xlink:href="#m1c8718c900" y="58.7"/><use x="152.3" xlink:href="#m1c8718c900" y="131"/><use x="123.4" xlink:href="#m1c8718c900" y="89.4"/><use x="116.3" xlink:href="#m1c8718c900" y="84.1"/><use x="137.3" xlink:href="#m1c8718c900" y="106.8"/><use x="155.7" xlink:href="#m1c8718c900" y="128"/><use x="108.7" xlink:href="#m1c8718c900" y="93.2"/><use x="113.6" xlink:href="#m1c8718c900" y="78.5"/><use x="120.6" xlink:href="#m1c8718c900" y="68.7"/><use x="132.5" xlink:href="#m1c8718c900" y="88.6"/><use x="97.9" xlink:href="#m1c8718c900" y="75.7"/><use x="138" xlink:href="#m1c8718c900" y="94.3"/><use x="148.7" xlink:href="#m1c8718c900" y="111"/><use x="147.6" xlink:href="#m1c8718c900" y="130.4"/><use x="105.6" xlink:href="#m1c8718c900" y="83.2"/><use x="157.9" xlink:href="#m1c8718c900" y="165.7"/><use x="148" xlink:href="#m1c8718c900" y="100.1"/><use x="149" xlink:href="#m1c8718c900" y="123.5"/><use x="170.8" xlink:href="#m1c8718c900" y="118.8"/><use x="137.4" xlink:href="#m1c8718c900" y="101.2"/><use x="92.2" xlink:href="#m1c8718c900" y="81.4"/><use x="103.5" xlink:href="#m1c8718c900" y="62.8"/><use x="139.3" xlink:href="#m1c8718c900" y="122.4"/><use x="121.5" xlink:href="#m1c8718c900" y="88.9"/><use x="126.8" xlink:href="#m1c8718c900" y="87"/><use x="117.1" xlink:href="#m1c8718c900" y="80.9"/><use x="132.2" xlink:href="#m1c8718c900" y="107.5"/><use x="116.9" xlink:href="#m1c8718c900" y="87.7"/><use x="137.1" xlink:href="#m1c8718c900" y="111.5"/><use x="121.2" xlink:href="#m1c8718c900" y="87"/><use x="110.2" xlink:href="#m1c8718c900" y="94.4"/><use x="89.4" xlink:href="#m1c8718c900" y="61.9"/><use x="144.9" xlink:href="#m1c8718c900" y="128.3"/><use x="146.3" xlink:href="#m1c8718c900" y="101.1"/><use x="122.5" xlink:href="#m1c8718c900" y="78.9"/><use x="132.5" xlink:href="#m1c8718c900" y="98.4"/><use x="55.2" xlink:href="#m1c8718c900" y="40.5"/><use x="110.1" xlink:href="#m1c8718c900" y="60.9"/><use x="143.1" xlink:href="#m1c8718c900" y="94.3"/><use x="145.2" xlink:href="#m1c8718c900" y="130.9"/><use x="132.5" xlink:href="#m1c8718c900" y="116.8"/><use x="72.8" xlink:href="#m1c8718c900" y="55.8"/><use x="140.8" xlink:href="#m1c8718c900" y="110.1"/><use x="116.7" xlink:href="#m1c8718c900" y="90.2"/><use x="107.5" xlink:href="#m1c8718c900" y="89.9"/><use x="136" xlink:href="#m1c8718c900" y="95.8"/></g></g><g id="PolyCollection_1"><defs><path d="M48.5-198.6v15l1.5 1.3 1.5 1.2 1.5 1.2 1.5 1.2 1.5 1.1 1.5 1.2 1.5 1.2 1.5 1.3 1.5 1.2 1.4 1.2 1.5 1.2 1.5 1.2L68-168l1.5 1.3 1.5 1.2 1.5 1.2 1.5 1.2 1.5 1.2 1.5 1.3 1.5 1.2 1.5 1.2 1.5 1.2 1.4 1.2 1.5 1.3 1.5 1.2 1.5 1.2 1.5 1.3 1.5 1.2 1.5 1.2 1.5 1.2 1.5 1.3 1.5 1.2 1.5 1.2 1.5 1.2 1.4 1.3 1.5 1.3 1.5 1.2 1.5 1.2 1.5 1.3 1.5 1.3 1.5 1.3 1.5 1.3 1.5 1.3 1.5 1.3 1.5 1.3 1.5 1.4 1.5 1.3 1.4 1.3 1.5 1.4 1.5 1.3 1.5 1.4 1.5 1.3 1.5 1.4 1.5 1.4 1.5 1.4 1.5 1.3 1.5 1.4 1.5 1.4 1.5 1.5 1.4 1.4 1.5 1.4 1.5 1.4 1.5 1.4 1.5 1.5 1.5 1.4L147-99l1.5 1.5L150-96l1.5 1.4 1.5 1.4 1.5 1.4 1.5 1.5 1.4 1.5 1.5 1.5 1.5 1.4 1.5 1.5 1.5 1.5 1.5 1.5 1.5 1.5 1.5 1.5 1.5 1.4 1.5 1.5 1.5 1.6 1.5 1.4 1.4 1.5 1.5 1.5 1.5 1.4 1.5 1.5 1.5 1.5 1.5 1.5 1.5 1.5 1.5 1.4 1.5 1.5 1.5 1.5 1.5 1.4 1.5 1.5 1.5 1.5 1.4 1.5 1.5 1.4v-15.5h0l-1.5-1.2-1.4-1.2-1.5-1.2-1.5-1.3-1.5-1.2-1.5-1.2-1.5-1.2-1.5-1.2-1.5-1.2-1.5-1.2-1.5-1.2-1.5-1.2-1.5-1.2-1.5-1.3L174-84l-1.5-1.2-1.5-1.1-1.5-1.3-1.5-1.3-1.5-1.1-1.5-1.2-1.5-1.2-1.5-1.2-1.5-1.2L159-96l-1.5-1.2-1.4-1.2-1.5-1.2-1.5-1.2-1.5-1.3-1.5-1.2-1.5-1.3-1.5-1.2-1.5-1.2-1.5-1.2-1.5-1.2-1.5-1.2-1.5-1.3-1.5-1.3-1.4-1.2-1.5-1.3-1.5-1.3-1.5-1.3-1.5-1.3-1.5-1.3-1.5-1.3-1.5-1.4-1.5-1.2-1.5-1.4-1.5-1.3-1.5-1.4-1.4-1.4-1.5-1.3-1.5-1.4-1.5-1.4-1.5-1.4-1.5-1.5-1.5-1.4-1.5-1.4-1.5-1.4-1.5-1.4-1.5-1.4-1.5-1.5-1.5-1.4-1.4-1.5-1.5-1.4-1.5-1.5-1.5-1.4-1.5-1.5-1.5-1.4-1.5-1.5-1.5-1.4-1.5-1.4-1.5-1.5-1.5-1.4-1.5-1.5-1.4-1.5-1.5-1.5-1.5-1.4-1.5-1.4-1.5-1.5-1.5-1.4-1.5-1.5-1.5-1.5-1.5-1.5-1.5-1.5-1.5-1.5-1.5-1.5-1.5-1.5-1.4-1.5-1.5-1.4-1.5-1.5-1.5-1.5-1.5-1.4-1.5-1.5-1.5-1.5-1.5-1.5-1.5-1.5-1.5-1.4z" id="mc6f6b45afc" stroke="#fff" stroke-opacity=".1"/></defs><g clip-path="url(#p33ba3075d1)"><use xlink:href="#mc6f6b45afc" y="219.2" fill="#4c72b0" fill-opacity=".1" stroke="#fff" stroke-opacity=".1"/></g></g><path clip-path="url(#p33ba3075d1)" d="M48.5 28.5L50 30l1.5 1.3 1.5 1.3 1.5 1.4 1.5 1.3 1.5 1.4 1.5 1.3 1.5 1.3 1.5 1.4 1.4 1.3 1.5 1.3 1.5 1.4 1.5 1.3 1.5 1.3 1.5 1.4 1.5 1.3 1.5 1.4 1.5 1.3 1.5 1.3 1.5 1.4 1.5 1.3 1.5 1.3 1.4 1.4 1.5 1.3 1.5 1.4 1.5 1.3 1.5 1.3 1.5 1.4 1.5 1.3 1.5 1.3 1.5 1.4 1.5 1.3 1.5 1.3 1.5 1.4 1.4 1.3 1.5 1.4 1.5 1.3 1.5 1.3 1.5 1.4 1.5 1.3 1.5 1.3 1.5 1.4 1.5 1.3 1.5 1.3 1.5 1.4 1.5 1.3 1.5 1.4 1.4 1.3 1.5 1.3 1.5 1.4 1.5 1.3 1.5 1.3 1.5 1.4 1.5 1.3 1.5 1.4 1.5 1.3 1.5 1.3 1.5 1.4 1.5 1.3 1.4 1.3 1.5 1.4 1.5 1.3 1.5 1.3 1.5 1.4 1.5 1.3 1.5 1.4 1.5 1.3 1.5 1.3 1.5 1.4 1.5 1.3 1.5 1.3 1.5 1.4 1.4 1.3 1.5 1.3 1.5 1.4 1.5 1.3 1.5 1.4 1.5 1.3 1.5 1.3 1.5 1.4 1.5 1.3 1.5 1.3 1.5 1.4 1.5 1.3 1.4 1.3 1.5 1.4 1.5 1.3 1.5 1.4 1.5 1.3 1.5 1.3 1.5 1.4 1.5 1.3 1.5 1.3 1.5 1.4 1.5 1.3 1.5 1.4 1.5 1.3 1.4 1.3 1.5 1.4" fill="none" stroke="#4c72b0" stroke-linecap="round" stroke-width="2.3" id="line2d_11"/><path d="M48.5 176.3V13.2" fill="none" stroke="#fff" stroke-linecap="square" stroke-width="1.3" id="patch_3"/><path d="M196.2 176.3V13.2" fill="none" stroke="#fff" stroke-linecap="square" stroke-width="1.3" id="patch_4"/><path d="M48.5 176.3h147.7" fill="none" stroke="#fff" stroke-linecap="square" stroke-width="1.3" id="patch_5"/><path d="M48.5 13.2h147.7" fill="none" stroke="#fff" stroke-linecap="square" stroke-width="1.3" id="patch_6"/></g><g id="axes_2"><path d="M225.8 176.3h147.7V13.2H225.8z" fill="#eaeaf2" id="patch_7"/><g id="matplotlib.axis_3"><g id="xtick_4"><path clip-path="url(#p7fe9166c13)" d="M245 176.3V13.2" fill="none" stroke="#fff" stroke-linecap="round" id="line2d_12"/><g transform="matrix(.11 0 0 -.11 237 194.1)" fill="#262626" id="text_13"><use xlink:href="#DejaVuSans-8722"/><use x="83.8" xlink:href="#DejaVuSans-50"/></g></g><g id="xtick_5"><path clip-path="url(#p7fe9166c13)" d="M294.4 176.3V13.2" fill="none" stroke="#fff" stroke-linecap="round" id="line2d_13"/><use xlink:href="#DejaVuSans-48" transform="matrix(.11 0 0 -.11 290.9 194.1)" fill="#262626" id="text_14"/></g><g id="xtick_6"><path clip-path="url(#p7fe9166c13)" d="M343.8 176.3V13.2" fill="none" stroke="#fff" stroke-linecap="round" id="line2d_14"/><use xlink:href="#DejaVuSans-50" transform="matrix(.11 0 0 -.11 340.3 194.1)" fill="#262626" id="text_15"/></g><g id="text_16"><defs><path d="M12.4 8.3h16.1v55.6L11 60.4v9l17.4 3.5h9.9V8.3h16V0H12.5z" id="DejaVuSans-49"/></defs><g transform="matrix(.12 0 0 -.12 292.3 209.5)" fill="#262626"><use xlink:href="#DejaVuSans-120"/><use x="59.2" xlink:href="#DejaVuSans-49"/></g></g></g><g id="matplotlib.axis_4"><g id="ytick_8"><path clip-path="url(#p7fe9166c13)" d="M225.8 159.1h147.7" fill="none" stroke="#fff" stroke-linecap="round" id="line2d_15"/><g transform="matrix(.11 0 0 -.11 200 163.3)" fill="#262626" id="text_17"><use xlink:href="#DejaVuSans-8722"/><use x="83.8" xlink:href="#DejaVuSans-54"/></g></g><g id="ytick_9"><path clip-path="url(#p7fe9166c13)" d="M225.8 131.5h147.7" fill="none" stroke="#fff" stroke-linecap="round" id="line2d_16"/><g transform="matrix(.11 0 0 -.11 200 135.7)" fill="#262626" id="text_18"><use xlink:href="#DejaVuSans-8722"/><use x="83.8" xlink:href="#DejaVuSans-52"/></g></g><g id="ytick_10"><path clip-path="url(#p7fe9166c13)" d="M225.8 104h147.7" fill="none" stroke="#fff" stroke-linecap="round" id="line2d_17"/><g transform="matrix(.11 0 0 -.11 200 108.2)" fill="#262626" id="text_19"><use xlink:href="#DejaVuSans-8722"/><use x="83.8" xlink:href="#DejaVuSans-50"/></g></g><g id="ytick_11"><path clip-path="url(#p7fe9166c13)" d="M225.8 76.4h147.7" fill="none" stroke="#fff" stroke-linecap="round" id="line2d_18"/><use xlink:href="#DejaVuSans-48" transform="matrix(.11 0 0 -.11 209.3 80.6)" fill="#262626" id="text_20"/></g><g id="ytick_12"><path clip-path="url(#p7fe9166c13)" d="M225.8 48.8h147.7" fill="none" stroke="#fff" stroke-linecap="round" id="line2d_19"/><use xlink:href="#DejaVuSans-50" transform="matrix(.11 0 0 -.11 209.3 53)" fill="#262626" id="text_21"/></g><g id="ytick_13"><path clip-path="url(#p7fe9166c13)" d="M225.8 21.2h147.7" fill="none" stroke="#fff" stroke-linecap="round" id="line2d_20"/><use xlink:href="#DejaVuSans-52" transform="matrix(.11 0 0 -.11 209.3 25.4)" fill="#262626" id="text_22"/></g></g><g clip-path="url(#p7fe9166c13)" fill="#4c72b0" fill-opacity=".8" stroke="#4c72b0" stroke-opacity=".8" id="PathCollection_2"><use x="314.9" xlink:href="#m1c8718c900" y="54.3"/><use x="278.5" xlink:href="#m1c8718c900" y="84.2"/><use x="324.5" xlink:href="#m1c8718c900" y="76.7"/><use x="278.2" xlink:href="#m1c8718c900" y="141.3"/><use x="261" xlink:href="#m1c8718c900" y="92.3"/><use x="245.4" xlink:href="#m1c8718c900" y="121.7"/><use x="325.3" xlink:href="#m1c8718c900" y="105.3"/><use x="287.1" xlink:href="#m1c8718c900" y="90.1"/><use x="291.5" xlink:href="#m1c8718c900" y="139.8"/><use x="291.6" xlink:href="#m1c8718c900" y="85.3"/><use x="249" xlink:href="#m1c8718c900" y="151"/><use x="241.7" xlink:href="#m1c8718c900" y="54.4"/><use x="263.9" xlink:href="#m1c8718c900" y="103.9"/><use x="287.3" xlink:href="#m1c8718c900" y="61.4"/><use x="296.6" xlink:href="#m1c8718c900" y="135.6"/><use x="288.9" xlink:href="#m1c8718c900" y="99.8"/><use x="262.1" xlink:href="#m1c8718c900" y="95.6"/><use x="294.3" xlink:href="#m1c8718c900" y="82.9"/><use x="279.5" xlink:href="#m1c8718c900" y="98.8"/><use x="281" xlink:href="#m1c8718c900" y="137.9"/><use x="355.5" xlink:href="#m1c8718c900" y="50.1"/><use x="317.2" xlink:href="#m1c8718c900" y="107.7"/><use x="289.1" xlink:href="#m1c8718c900" y="134.3"/><use x="274.3" xlink:href="#m1c8718c900" y="108.8"/><use x="334.5" xlink:href="#m1c8718c900" y="131.4"/><use x="320.9" xlink:href="#m1c8718c900" y="140.9"/><use x="278" xlink:href="#m1c8718c900" y="90.1"/><use x="292.2" xlink:href="#m1c8718c900" y="92.6"/><use x="282.1" xlink:href="#m1c8718c900" y="105.5"/><use x="283" xlink:href="#m1c8718c900" y="114.3"/><use x="319.7" xlink:href="#m1c8718c900" y="71.2"/><use x="281.7" xlink:href="#m1c8718c900" y="108.4"/><use x="255.9" xlink:href="#m1c8718c900" y="20.6"/><use x="302.2" xlink:href="#m1c8718c900" y="56.2"/><use x="313.9" xlink:href="#m1c8718c900" y="120"/><use x="265.9" xlink:href="#m1c8718c900" y="83.2"/><use x="291.9" xlink:href="#m1c8718c900" y="53.3"/><use x="251.3" xlink:href="#m1c8718c900" y="77.2"/><use x="253.2" xlink:href="#m1c8718c900" y="67.3"/><use x="283.1" xlink:href="#m1c8718c900" y="64.6"/><use x="277.1" xlink:href="#m1c8718c900" y="53"/><use x="305.3" xlink:href="#m1c8718c900" y="111"/><use x="256.9" xlink:href="#m1c8718c900" y="95.8"/><use x="286.5" xlink:href="#m1c8718c900" y="65.1"/><use x="291.5" xlink:href="#m1c8718c900" y="86.4"/><use x="366.8" xlink:href="#m1c8718c900" y="84"/><use x="303" xlink:href="#m1c8718c900" y="98.8"/><use x="282" xlink:href="#m1c8718c900" y="75.2"/><use x="327" xlink:href="#m1c8718c900" y="93"/><use x="303" xlink:href="#m1c8718c900" y="128.3"/><use x="310.8" xlink:href="#m1c8718c900" y="34.9"/><use x="259.9" xlink:href="#m1c8718c900" y="62.3"/><use x="300.6" xlink:href="#m1c8718c900" y="80.4"/><use x="336.7" xlink:href="#m1c8718c900" y="29.4"/><use x="287.4" xlink:href="#m1c8718c900" y="42.3"/><use x="276.7" xlink:href="#m1c8718c900" y="127.8"/><use x="278.8" xlink:href="#m1c8718c900" y="78.6"/><use x="299.3" xlink:href="#m1c8718c900" y="72.4"/><use x="337.4" xlink:href="#m1c8718c900" y="99.2"/><use x="295.9" xlink:href="#m1c8718c900" y="124.3"/><use x="282.4" xlink:href="#m1c8718c900" y="83.2"/><use x="293.5" xlink:href="#m1c8718c900" y="65.7"/><use x="256.2" xlink:href="#m1c8718c900" y="54.1"/><use x="272.8" xlink:href="#m1c8718c900" y="77.7"/><use x="317.7" xlink:href="#m1c8718c900" y="62.4"/><use x="284.2" xlink:href="#m1c8718c900" y="84.4"/><use x="322.8" xlink:href="#m1c8718c900" y="104.1"/><use x="264.7" xlink:href="#m1c8718c900" y="127.1"/><use x="312" xlink:href="#m1c8718c900" y="71.3"/><use x="298.8" xlink:href="#m1c8718c900" y="168.8"/><use x="286" xlink:href="#m1c8718c900" y="91.3"/><use x="284.4" xlink:href="#m1c8718c900" y="119"/><use x="337.7" xlink:href="#m1c8718c900" y="113.4"/><use x="262.7" xlink:href="#m1c8718c900" y="92.6"/><use x="276.8" xlink:href="#m1c8718c900" y="69.1"/><use x="232.5" xlink:href="#m1c8718c900" y="47.2"/><use x="343.3" xlink:href="#m1c8718c900" y="117.7"/><use x="349.2" xlink:href="#m1c8718c900" y="78"/><use x="291.8" xlink:href="#m1c8718c900" y="75.8"/><use x="302.5" xlink:href="#m1c8718c900" y="68.5"/><use x="256.4" xlink:href="#m1c8718c900" y="100.1"/><use x="332.4" xlink:href="#m1c8718c900" y="76.6"/><use x="297" xlink:href="#m1c8718c900" y="104.8"/><use x="272.6" xlink:href="#m1c8718c900" y="75.8"/><use x="321.4" xlink:href="#m1c8718c900" y="84.6"/><use x="275.7" xlink:href="#m1c8718c900" y="46.1"/><use x="321.5" xlink:href="#m1c8718c900" y="124.7"/><use x="284.1" xlink:href="#m1c8718c900" y="92.5"/><use x="294.2" xlink:href="#m1c8718c900" y="66.2"/><use x="299.7" xlink:href="#m1c8718c900" y="89.2"/><use x="296.3" xlink:href="#m1c8718c900" y="20.7"/><use x="290.7" xlink:href="#m1c8718c900" y="44.9"/><use x="309.3" xlink:href="#m1c8718c900" y="84.4"/><use x="333.9" xlink:href="#m1c8718c900" y="127.8"/><use x="300.9" xlink:href="#m1c8718c900" y="111"/><use x="319.8" xlink:href="#m1c8718c900" y="38.8"/><use x="326.6" xlink:href="#m1c8718c900" y="103.1"/><use x="294.2" xlink:href="#m1c8718c900" y="79.5"/><use x="289.1" xlink:href="#m1c8718c900" y="79.2"/><use x="295.9" xlink:href="#m1c8718c900" y="86.2"/></g><g id="PolyCollection_2"><defs><path d="M225.8-150.9v34l1.5-.2 1.5-.2 1.5-.2 1.4-.3 1.5-.3 1.5-.3 1.5-.2 1.5-.2 1.5-.1 1.5-.2 1.5-.2 1.5-.3 1.5-.2 1.5-.2 1.5-.2 1.4-.2 1.5-.2 1.5-.3 1.5-.3 1.5-.1 1.5-.3 1.5-.2 1.5-.3 1.5-.3 1.5-.2 1.5-.3 1.5-.3 1.5-.1 1.4-.3 1.5-.2 1.5-.2 1.5-.3 1.5-.2 1.5-.2 1.5-.2h3l1.5-.1h4.4l1.5-.1h6l1.5.3 1.5.2 1.5.2 1.5.2 1.5.3 1.5.1 1.5.2 1.4.4h1.5l1.5.5 1.5.2 1.5.3 1.5.3 1.5.3 1.5.4 1.5.4 1.5.4 1.5.4 1.5.4 1.4.4 1.5.3 1.5.4 1.5.3 1.5.4 1.5.4 1.5.4 1.5.2 1.5.3 1.5.4 1.5.4 1.5.4 1.5.5 1.4.4 1.5.3 1.5.2 1.5.3 1.5.4 1.5.4 1.5.4 1.5.3 1.5.5 1.5.4 1.5.4 1.5.4 1.4.4 1.5.4 1.5.4 1.5.4 1.5.5 1.5.4 1.5.4 1.5.4 1.5.4v-37.5h0l-1.5.2-1.5.1-1.5.2-1.5.2-1.5.3-1.5.2-1.5.2-1.5.2-1.4.1-1.5.2-1.5.3-1.5.2-1.5.2-1.5.2-1.5.2-1.5.3-1.5.2-1.5.2-1.5.2-1.5.2-1.4.3-1.5.2-1.5.2-1.5.2-1.5.2-1.5.3h-1.5l-1.5.3-1.5.2-1.5.3-1.5.2-1.5.2-1.5.2-1.4.3h-1.5l-1.5.1-1.5.1-1.5.2h-4.5l-1.5.2h-1.5l-1.5.2h-1.5l-1.4-.2h-1.5l-1.5.3-1.5-.2h-7.5l-1.5-.1-1.5-.2h-1.5l-1.5-.2h-1.4l-1.5-.3-1.5-.2-1.5-.4-1.5-.2-1.5-.3-1.5-.4-1.5-.3-1.5-.2-1.5-.4-1.5-.3-1.5-.4-1.4-.3-1.5-.2-1.5-.2-1.5-.3-1.5-.4-1.5-.3-1.5-.3-1.5-.2-1.5-.5-1.5-.2-1.5-.3-1.5-.4-1.5-.4-1.4-.4-1.5-.5-1.5-.4-1.5-.4-1.5-.4-1.5-.4-1.5-.3-1.5-.5-1.5-.5-1.5-.5-1.5-.3-1.5-.4-1.4-.5-1.5-.3-1.5-.5-1.5-.4z" id="mf6a002daf9" stroke="#fff" stroke-opacity=".1"/></defs><g clip-path="url(#p7fe9166c13)"><use xlink:href="#mf6a002daf9" y="219.2" fill="#4c72b0" fill-opacity=".1" stroke="#fff" stroke-opacity=".1"/></g></g><path clip-path="url(#p7fe9166c13)" d="M225.8 84.5l1.5.1h1.5l1.5.2h1.4l1.5.2h1.5l1.5.1 1.5.1 1.5.1 1.5.1 1.5.1h1.5l1.5.2h1.5l1.5.2h1.4l1.5.1 1.5.1 1.5.1 1.5.1 1.5.1h1.5l1.5.2h1.5l1.5.2h1.5l1.5.1 1.5.1 1.4.1 1.5.1 1.5.1h1.5l1.5.2h1.5l1.5.2h1.5l1.5.1 1.5.1 1.5.1 1.5.1 1.4.1h1.5l1.5.2h1.5l1.5.2h1.5l1.5.1 1.5.1 1.5.1 1.5.1 1.5.1h1.5l1.5.2h1.4l1.5.2h1.5l1.5.1 1.5.1 1.5.1 1.5.1 1.5.1h1.5l1.5.2h1.5l1.5.2h1.4l1.5.1 1.5.1 1.5.1 1.5.1 1.5.1h1.5l1.5.2h1.5l1.5.2h1.5l1.5.1 1.5.1 1.4.1 1.5.1 1.5.1h1.5l1.5.2h1.5l1.5.2h1.5l1.5.1 1.5.1 1.5.1 1.5.1 1.4.1h1.5l1.5.2h1.5l1.5.2h1.5l1.5.1 1.5.1 1.5.1" fill="none" stroke="#4c72b0" stroke-linecap="round" stroke-width="2.3" id="line2d_21"/><path d="M225.8 176.3V13.2" fill="none" stroke="#fff" stroke-linecap="square" stroke-width="1.3" id="patch_8"/><path d="M373.5 176.3V13.2" fill="none" stroke="#fff" stroke-linecap="square" stroke-width="1.3" id="patch_9"/><path d="M225.8 176.3h147.7" fill="none" stroke="#fff" stroke-linecap="square" stroke-width="1.3" id="patch_10"/><path d="M225.8 13.2h147.7" fill="none" stroke="#fff" stroke-linecap="square" stroke-width="1.3" id="patch_11"/></g><g id="axes_3"><path d="M403 176.3h147.7V13.2H403z" fill="#eaeaf2" id="patch_12"/><g id="matplotlib.axis_5"><g id="xtick_7"><path clip-path="url(#p28310b9357)" d="M439.8 176.3V13.2" fill="none" stroke="#fff" stroke-linecap="round" id="line2d_22"/><g transform="matrix(.11 0 0 -.11 431.7 194.1)" fill="#262626" id="text_24"><use xlink:href="#DejaVuSans-8722"/><use x="83.8" xlink:href="#DejaVuSans-50"/></g></g><g id="xtick_8"><path clip-path="url(#p28310b9357)" d="M487.2 176.3V13.2" fill="none" stroke="#fff" stroke-linecap="round" id="line2d_23"/><use xlink:href="#DejaVuSans-48" transform="matrix(.11 0 0 -.11 483.7 194.1)" fill="#262626" id="text_25"/></g><g id="xtick_9"><path clip-path="url(#p28310b9357)" d="M534.5 176.3V13.2" fill="none" stroke="#fff" stroke-linecap="round" id="line2d_24"/><use xlink:href="#DejaVuSans-50" transform="matrix(.11 0 0 -.11 531 194.1)" fill="#262626" id="text_26"/></g><g transform="matrix(.12 0 0 -.12 469.5 209.5)" fill="#262626" id="text_27"><use xlink:href="#DejaVuSans-120"/><use x="59.2" xlink:href="#DejaVuSans-50"/></g></g><g id="matplotlib.axis_6"><g id="ytick_14"><path clip-path="url(#p28310b9357)" d="M403 159.1h147.7" fill="none" stroke="#fff" stroke-linecap="round" id="line2d_25"/><g transform="matrix(.11 0 0 -.11 377.3 163.3)" fill="#262626" id="text_28"><use xlink:href="#DejaVuSans-8722"/><use x="83.8" xlink:href="#DejaVuSans-54"/></g></g><g id="ytick_15"><path clip-path="url(#p28310b9357)" d="M403 131.5h147.7" fill="none" stroke="#fff" stroke-linecap="round" id="line2d_26"/><g transform="matrix(.11 0 0 -.11 377.3 135.7)" fill="#262626" id="text_29"><use xlink:href="#DejaVuSans-8722"/><use x="83.8" xlink:href="#DejaVuSans-52"/></g></g><g id="ytick_16"><path clip-path="url(#p28310b9357)" d="M403 104h147.7" fill="none" stroke="#fff" stroke-linecap="round" id="line2d_27"/><g transform="matrix(.11 0 0 -.11 377.3 108.2)" fill="#262626" id="text_30"><use xlink:href="#DejaVuSans-8722"/><use x="83.8" xlink:href="#DejaVuSans-50"/></g></g><g id="ytick_17"><path clip-path="url(#p28310b9357)" d="M403 76.4h147.7" fill="none" stroke="#fff" stroke-linecap="round" id="line2d_28"/><use xlink:href="#DejaVuSans-48" transform="matrix(.11 0 0 -.11 386.5 80.6)" fill="#262626" id="text_31"/></g><g id="ytick_18"><path clip-path="url(#p28310b9357)" d="M403 48.8h147.7" fill="none" stroke="#fff" stroke-linecap="round" id="line2d_29"/><use xlink:href="#DejaVuSans-50" transform="matrix(.11 0 0 -.11 386.5 53)" fill="#262626" id="text_32"/></g><g id="ytick_19"><path clip-path="url(#p28310b9357)" d="M403 21.2h147.7" fill="none" stroke="#fff" stroke-linecap="round" id="line2d_30"/><use xlink:href="#DejaVuSans-52" transform="matrix(.11 0 0 -.11 386.5 25.4)" fill="#262626" id="text_33"/></g></g><g clip-path="url(#p28310b9357)" fill="#4c72b0" fill-opacity=".8" stroke="#4c72b0" stroke-opacity=".8" id="PathCollection_3"><use x="504.7" xlink:href="#m1c8718c900" y="54.3"/><use x="456.8" xlink:href="#m1c8718c900" y="84.2"/><use x="544" xlink:href="#m1c8718c900" y="76.7"/><use x="503.9" xlink:href="#m1c8718c900" y="141.3"/><use x="484.7" xlink:href="#m1c8718c900" y="92.3"/><use x="481.2" xlink:href="#m1c8718c900" y="121.7"/><use x="488.9" xlink:href="#m1c8718c900" y="105.3"/><use x="504" xlink:href="#m1c8718c900" y="90.1"/><use x="454.4" xlink:href="#m1c8718c900" y="139.8"/><use x="483.7" xlink:href="#m1c8718c900" y="85.3"/><use x="460.6" xlink:href="#m1c8718c900" y="151"/><use x="464.8" xlink:href="#m1c8718c900" y="54.4"/><use x="465.7" xlink:href="#m1c8718c900" y="103.9"/><use x="502.2" xlink:href="#m1c8718c900" y="61.4"/><use x="431.4" xlink:href="#m1c8718c900" y="135.6"/><use x="489.5" xlink:href="#m1c8718c900" y="99.8"/><use x="456.3" xlink:href="#m1c8718c900" y="95.6"/><use x="479" xlink:href="#m1c8718c900" y="82.9"/><use x="468.1" xlink:href="#m1c8718c900" y="98.8"/><use x="426.1" xlink:href="#m1c8718c900" y="137.9"/><use x="474.5" xlink:href="#m1c8718c900" y="50.1"/><use x="467.7" xlink:href="#m1c8718c900" y="107.7"/><use x="443.2" xlink:href="#m1c8718c900" y="134.3"/><use x="480.2" xlink:href="#m1c8718c900" y="108.8"/><use x="440.2" xlink:href="#m1c8718c900" y="131.4"/><use x="470.5" xlink:href="#m1c8718c900" y="140.9"/><use x="493.3" xlink:href="#m1c8718c900" y="90.1"/><use x="487.9" xlink:href="#m1c8718c900" y="92.6"/><use x="480.1" xlink:href="#m1c8718c900" y="105.5"/><use x="464.6" xlink:href="#m1c8718c900" y="114.3"/><use x="489.2" xlink:href="#m1c8718c900" y="71.2"/><use x="464.8" xlink:href="#m1c8718c900" y="108.4"/><use x="507.4" xlink:href="#m1c8718c900" y="20.6"/><use x="495" xlink:href="#m1c8718c900" y="56.2"/><use x="492.5" xlink:href="#m1c8718c900" y="120"/><use x="497.1" xlink:href="#m1c8718c900" y="83.2"/><use x="521.2" xlink:href="#m1c8718c900" y="53.3"/><use x="459" xlink:href="#m1c8718c900" y="77.2"/><use x="504.8" xlink:href="#m1c8718c900" y="67.3"/><use x="500.8" xlink:href="#m1c8718c900" y="64.6"/><use x="473.9" xlink:href="#m1c8718c900" y="53"/><use x="450.5" xlink:href="#m1c8718c900" y="111"/><use x="501.2" xlink:href="#m1c8718c900" y="95.8"/><use x="495.2" xlink:href="#m1c8718c900" y="65.1"/><use x="499.6" xlink:href="#m1c8718c900" y="86.4"/><use x="472.2" xlink:href="#m1c8718c900" y="84"/><use x="510.5" xlink:href="#m1c8718c900" y="98.8"/><use x="482.3" xlink:href="#m1c8718c900" y="75.2"/><use x="469.4" xlink:href="#m1c8718c900" y="93"/><use x="478.1" xlink:href="#m1c8718c900" y="128.3"/><use x="518.6" xlink:href="#m1c8718c900" y="34.9"/><use x="513.6" xlink:href="#m1c8718c900" y="62.3"/><use x="488.6" xlink:href="#m1c8718c900" y="80.4"/><use x="528.8" xlink:href="#m1c8718c900" y="29.4"/><use x="497.4" xlink:href="#m1c8718c900" y="42.3"/><use x="457" xlink:href="#m1c8718c900" y="127.8"/><use x="495.7" xlink:href="#m1c8718c900" y="78.6"/><use x="497.9" xlink:href="#m1c8718c900" y="72.4"/><use x="491" xlink:href="#m1c8718c900" y="99.2"/><use x="469.3" xlink:href="#m1c8718c900" y="124.3"/><use x="465.5" xlink:href="#m1c8718c900" y="83.2"/><use x="503.7" xlink:href="#m1c8718c900" y="65.7"/><use x="524" xlink:href="#m1c8718c900" y="54.1"/><use x="513.8" xlink:href="#m1c8718c900" y="77.7"/><use x="490.6" xlink:href="#m1c8718c900" y="62.4"/><use x="514.2" xlink:href="#m1c8718c900" y="84.4"/><use x="498.8" xlink:href="#m1c8718c900" y="104.1"/><use x="449.3" xlink:href="#m1c8718c900" y="127.1"/><use x="489.6" xlink:href="#m1c8718c900" y="71.3"/><use x="409.7" xlink:href="#m1c8718c900" y="168.8"/><use x="510.9" xlink:href="#m1c8718c900" y="91.3"/><use x="482.4" xlink:href="#m1c8718c900" y="119"/><use x="513.5" xlink:href="#m1c8718c900" y="113.4"/><use x="501.2" xlink:href="#m1c8718c900" y="92.6"/><use x="463.7" xlink:href="#m1c8718c900" y="69.1"/><use x="507.2" xlink:href="#m1c8718c900" y="47.2"/><use x="466.1" xlink:href="#m1c8718c900" y="117.7"/><use x="513.4" xlink:href="#m1c8718c900" y="78"/><use x="497.7" xlink:href="#m1c8718c900" y="75.8"/><use x="505.9" xlink:href="#m1c8718c900" y="68.5"/><use x="474.7" xlink:href="#m1c8718c900" y="100.1"/><use x="491.3" xlink:href="#m1c8718c900" y="76.6"/><use x="471.1" xlink:href="#m1c8718c900" y="104.8"/><use x="495.8" xlink:href="#m1c8718c900" y="75.8"/><use x="475.3" xlink:href="#m1c8718c900" y="84.6"/><use x="489.5" xlink:href="#m1c8718c900" y="46.1"/><use x="457" xlink:href="#m1c8718c900" y="124.7"/><use x="508.2" xlink:href="#m1c8718c900" y="92.5"/><use x="516.4" xlink:href="#m1c8718c900" y="66.2"/><use x="502" xlink:href="#m1c8718c900" y="89.2"/><use x="487.7" xlink:href="#m1c8718c900" y="20.7"/><use x="534.1" xlink:href="#m1c8718c900" y="44.9"/><use x="522.5" xlink:href="#m1c8718c900" y="84.4"/><use x="464.6" xlink:href="#m1c8718c900" y="127.8"/><use x="460" xlink:href="#m1c8718c900" y="111"/><use x="488.6" xlink:href="#m1c8718c900" y="38.8"/><use x="491.2" xlink:href="#m1c8718c900" y="103.1"/><use x="486.4" xlink:href="#m1c8718c900" y="79.5"/><use x="473.8" xlink:href="#m1c8718c900" y="79.2"/><use x="504.5" xlink:href="#m1c8718c900" y="86.2"/></g><g id="PolyCollection_3"><defs><path d="M403-84.5v30.7l1.5-1.4 1.5-1.4 1.5-1.5 1.5-1.4 1.5-1.4 1.5-1.5 1.5-1.5 1.5-1.3 1.5-1.3 1.4-1.4 1.5-1.3 1.5-1.3 1.5-1.4 1.5-1.3 1.5-1.4 1.5-1.4 1.5-1.3 1.5-1.3 1.5-1.4 1.5-1.3 1.5-1.4 1.4-1.4 1.5-1.4 1.5-1.3 1.5-1.3 1.5-1.4 1.5-1.4 1.5-1.3 1.5-1.3 1.5-1.2 1.5-1.3 1.5-1.3 1.5-1.3 1.5-1.3 1.4-1.3 1.5-1.3 1.5-1.3 1.5-1.2 1.5-1.3 1.5-1.3 1.5-1.2 1.5-1.3 1.5-1.2 1.5-1.3 1.5-1.2 1.5-1.2 1.4-1.3 1.5-1.3 1.5-1.2 1.5-1.1 1.5-1.2 1.5-1.2 1.5-1.1 1.5-1.1 1.5-1 1.5-1.2 1.5-1.1 1.5-1.1 1.5-1.1 1.4-1.1 1.5-1 1.5-1 1.5-1 1.5-1 1.5-1 1.5-1 1.5-1 1.5-1 1.5-.9 1.5-1 1.5-.8 1.4-1 1.5-1 1.5-.8 1.5-.9 1.5-.8 1.5-.9 1.5-.9 1.5-.8 1.5-1 1.5-.8 1.5-.9 1.5-1 1.5-.8 1.4-.8 1.5-.9 1.5-.8 1.5-.9 1.5-.9 1.5-1 1.5-.8 1.5-1 1.5-.9 1.5-.9 1.5-1 1.5-.8 1.4-.9 1.5-.8 1.5-.8v-27h0l-1.5 1.4-1.5 1.4-1.4 1.4-1.5 1.4-1.5 1.4-1.5 1.3-1.5 1.4-1.5 1.4-1.5 1.3-1.5 1.4-1.5 1.4-1.5 1.3-1.5 1.4-1.5 1.4-1.4 1.3-1.5 1.4-1.5 1.4-1.5 1.5-1.5 1.3-1.5 1.3-1.5 1.4-1.5 1.3-1.5 1.4-1.5 1.4-1.5 1.4-1.5 1.3-1.5 1.4-1.4 1.5-1.5 1.4-1.5 1.4-1.5 1.3-1.5 1.2-1.5 1.3-1.5 1.3-1.5 1.2-1.5 1.4-1.5 1.3-1.5 1.3-1.5 1.2-1.4 1.2-1.5 1-1.5 1.2-1.5 1.3-1.5 1.2-1.5 1.1-1.5 1.1-1.5 1.2-1.5 1.2-1.5 1.1-1.5 1-1.5 1-1.5 1-1.4 1.1-1.5 1-1.5.9-1.5 1-1.5 1-1.5 1-1.5 1-1.5.9-1.5.9-1.5 1-1.5.8-1.5.9-1.4.9-1.5.9-1.5.9-1.5.8-1.5.8-1.5 1-1.5 1-1.5 1-1.5.8-1.5.8-1.5.7-1.5 1-1.5 1-1.4.8-1.5.8-1.5.8-1.5.8-1.5.9-1.5.8-1.5.9-1.5.9-1.5.8-1.5.9-1.5.9-1.5.8-1.4.9-1.5.8-1.5.9-1.5.8-1.5.8-1.5.8-1.5.9-1.5.8-1.5.8-1.5.9z" id="m7f891eb963" stroke="#fff" stroke-opacity=".1"/></defs><g clip-path="url(#p28310b9357)"><use xlink:href="#m7f891eb963" y="219.2" fill="#4c72b0" fill-opacity=".1" stroke="#fff" stroke-opacity=".1"/></g></g><path clip-path="url(#p28310b9357)" d="M403 152l1.5-1.2 1.5-1.2 1.5-1.1 1.5-1.1 1.5-1.2 1.5-1.1 1.5-1.2 1.5-1.1 1.5-1.1 1.4-1.2 1.5-1.1 1.5-1.2 1.5-1.1 1.5-1.1 1.5-1.2 1.5-1.1 1.5-1.2 1.5-1.1 1.5-1.1 1.5-1.2 1.5-1.1 1.4-1.2 1.5-1 1.5-1.2 1.5-1.2 1.5-1.1 1.5-1.2 1.5-1 1.5-1.2 1.5-1.2 1.5-1.1 1.5-1.2 1.5-1 1.5-1.2 1.4-1.2 1.5-1.1 1.5-1.2 1.5-1 1.5-1.2 1.5-1.2 1.5-1.1 1.5-1.2 1.5-1 1.5-1.2 1.5-1.2 1.5-1.1 1.4-1.2 1.5-1 1.5-1.2 1.5-1.2 1.5-1.1 1.5-1.2 1.5-1 1.5-1.2 1.5-1.2 1.5-1.1 1.5-1.2 1.5-1 1.5-1.2 1.4-1.2 1.5-1.1 1.5-1.2 1.5-1 1.5-1.2 1.5-1.2 1.5-1.1 1.5-1.2 1.5-1 1.5-1.2 1.5-1.2L509 71l1.4-1.2 1.5-1 1.5-1.2 1.5-1.2 1.5-1.1 1.5-1.1 1.5-1.2 1.5-1.1 1.5-1.2 1.5-1.1 1.5-1.1 1.5-1.2 1.5-1.1 1.4-1.2 1.5-1.1 1.5-1.1 1.5-1.2 1.5-1.1 1.5-1.2 1.5-1.1 1.5-1.1 1.5-1.2 1.5-1.1 1.5-1.2 1.5-1.1 1.4-1.1 1.5-1.2 1.5-1.1" fill="none" stroke="#4c72b0" stroke-linecap="round" stroke-width="2.3" id="line2d_31"/><path d="M403 176.3V13.2" fill="none" stroke="#fff" stroke-linecap="square" stroke-width="1.3" id="patch_13"/><path d="M550.7 176.3V13.2" fill="none" stroke="#fff" stroke-linecap="square" stroke-width="1.3" id="patch_14"/><path d="M403 176.3h147.7" fill="none" stroke="#fff" stroke-linecap="square" stroke-width="1.3" id="patch_15"/><path d="M403 13.2h147.7" fill="none" stroke="#fff" stroke-linecap="square" stroke-width="1.3" id="patch_16"/></g></g><defs><clipPath id="p33ba3075d1"><path d="M48.5 13.2h147.7v163.1H48.5z"/></clipPath><clipPath id="p7fe9166c13"><path d="M225.8 13.2h147.7v163.1H225.8z"/></clipPath><clipPath id="p28310b9357"><path d="M403 13.2h147.7v163.1H403z"/></clipPath></defs></svg>