<svg height="364.8" viewBox="0 0 414 273.6" width="552" xmlns="http://www.w3.org/2000/svg" xmlns:xlink="http://www.w3.org/1999/xlink"><defs><style>*{stroke-linecap:butt;stroke-linejoin:round}</style></defs><g id="figure_1"><path d="M0 273.6h414V0H0z" fill="#fff" id="patch_1"/><g id="axes_1"><path d="M66 230.6h334.8V13.2H66z" fill="#eaeaf2" id="patch_2"/><g id="matplotlib.axis_1"><g id="xtick_1"><path clip-path="url(#pf75fa28303)" d="M81.2 230.6V13.2" fill="none" stroke="#fff" stroke-linecap="round" id="line2d_1"/><g id="text_1"><defs><path d="M10.6 35.5h62.6v-8.3H10.6z" id="DejaVuSans-8722"/><path d="M40.6 39.3q7-1.5 11-6.3t4-11.8q0-10.8-7.4-16.7-7.4-6-21.1-6-4.6 0-9.4 1-4.9.9-10 2.7v9.5q4-2.4 8.9-3.6Q21.5 7 26.8 7q9.3 0 14.1 3.6 4.9 3.7 4.9 10.7 0 6.4-4.5 10Q36.8 35 28.7 35h-8.5V43h9q7.2 0 11 3 3.9 2.8 3.9 8.3 0 5.6-4 8.6t-11.4 3q-4 0-8.7-.9-4.6-.8-10.2-2.7v8.8q5.6 1.6 10.5 2.3 5 .8 9.3.8 11.2 0 17.8-5 6.5-5.2 6.5-13.9 0-6-3.5-10.2-3.4-4.2-9.8-5.8z" id="DejaVuSans-51"/></defs><g transform="matrix(.11 0 0 -.11 73.1 248.5)" fill="#262626"><use xlink:href="#DejaVuSans-8722"/><use x="83.8" xlink:href="#DejaVuSans-51"/></g></g></g><g id="xtick_2"><path clip-path="url(#pf75fa28303)" d="M130 230.6V13.2" fill="none" stroke="#fff" stroke-linecap="round" id="line2d_2"/><g id="text_2"><defs><path d="M19.2 8.3h34.4V0H7.3v8.3l15.3 15.6q9.7 9.8 12.2 12.6 4.7 5.3 6.6 9 2 3.7 2 7.3 0 5.8-4.2 9.5-4 3.6-10.6 3.6-4.6 0-9.8-1.6-5.1-1.6-11-4.9v10q6 2.4 11.1 3.6 5.2 1.2 9.5 1.2 11.4 0 18-5.7 6.8-5.6 6.8-15 0-4.6-1.7-8.6-1.6-4-6-9.5l-7.9-8.2L19.2 8.3z" id="DejaVuSans-50"/></defs><g transform="matrix(.11 0 0 -.11 121.8 248.5)" fill="#262626"><use xlink:href="#DejaVuSans-8722"/><use x="83.8" xlink:href="#DejaVuSans-50"/></g></g></g><g id="xtick_3"><path clip-path="url(#pf75fa28303)" d="M178.7 230.6V13.2" fill="none" stroke="#fff" stroke-linecap="round" id="line2d_3"/><g id="text_3"><defs><path d="M12.4 8.3h16.1v55.6L11 60.4v9l17.4 3.5h9.9V8.3h16V0H12.5z" id="DejaVuSans-49"/></defs><g transform="matrix(.11 0 0 -.11 170.5 248.5)" fill="#262626"><use xlink:href="#DejaVuSans-8722"/><use x="83.8" xlink:href="#DejaVuSans-49"/></g></g></g><g id="xtick_4"><path clip-path="url(#pf75fa28303)" d="M227.4 230.6V13.2" fill="none" stroke="#fff" stroke-linecap="round" id="line2d_4"/><g id="text_4"><defs><path d="M31.8 66.4q-7.6 0-11.5-7.5-3.8-7.5-3.8-22.5t3.8-22.5q3.9-7.5 11.5-7.5 7.7 0 11.5 7.5T47 36.4q0 15-3.8 22.5t-11.5 7.5zm0 7.8q12.2 0 18.7-9.7T57 36.4Q57 18 50.5 8.3 44-1.4 31.8-1.4 19.5-1.4 13 8.3q-6.5 9.7-6.5 28 0 18.5 6.5 28.2 6.4 9.7 18.7 9.7z" id="DejaVuSans-48"/></defs><use xlink:href="#DejaVuSans-48" transform="matrix(.11 0 0 -.11 223.9 248.5)" fill="#262626"/></g></g><g id="xtick_5"><path clip-path="url(#pf75fa28303)" d="M276 230.6V13.2" fill="none" stroke="#fff" stroke-linecap="round" id="line2d_5"/><use xlink:href="#DejaVuSans-49" transform="matrix(.11 0 0 -.11 272.6 248.5)" fill="#262626" id="text_5"/></g><g id="xtick_6"><path clip-path="url(#pf75fa28303)" d="M324.8 230.6V13.2" fill="none" stroke="#fff" stroke-linecap="round" id="line2d_6"/><use xlink:href="#DejaVuSans-50" transform="matrix(.11 0 0 -.11 321.3 248.5)" fill="#262626" id="text_6"/></g><g id="xtick_7"><path clip-path="url(#pf75fa28303)" d="M373.5 230.6V13.2" fill="none" stroke="#fff" stroke-linecap="round" id="line2d_7"/><use xlink:href="#DejaVuSans-51" transform="matrix(.11 0 0 -.11 370 248.5)" fill="#262626" id="text_7"/></g><g id="text_8"><defs><path d="M54.9 54.7L35 28 56 0H45.3l-16 21.5L13.6 0H2.9L24 28.6l-19.4 26h10.6l14.5-19.4 14.5 19.5z" id="DejaVuSans-120"/></defs><use xlink:href="#DejaVuSans-120" transform="matrix(.12 0 0 -.12 229.9 263.9)" fill="#262626"/></g></g><g id="matplotlib.axis_2"><g id="ytick_1"><path clip-path="url(#pf75fa28303)" d="M66 221.8h334.8" fill="none" stroke="#fff" stroke-linecap="round" id="line2d_8"/><g id="text_9"><defs><path d="M10.7 12.4H21V0H10.7z" id="DejaVuSans-46"/></defs><g transform="matrix(.11 0 0 -.11 22.8 226)" fill="#262626"><use xlink:href="#DejaVuSans-8722"/><use x="83.8" xlink:href="#DejaVuSans-49"/><use x="147.4" xlink:href="#DejaVuSans-48"/><use x="211" xlink:href="#DejaVuSans-46"/><use x="242.8" xlink:href="#DejaVuSans-48"/></g></g></g><g id="ytick_2"><path clip-path="url(#pf75fa28303)" d="M66 193.5h334.8" fill="none" stroke="#fff" stroke-linecap="round" id="line2d_9"/><g id="text_10"><defs><path d="M8.2 73h46.9v-4.3L28.6 0H18.3l25 64.6H8.1z" id="DejaVuSans-55"/><path d="M10.8 73h38.7v-8.4H19.8V46.7q2.2.8 4.3 1.1 2.2.4 4.3.4 12.2 0 19.4-6.7 7-6.7 7-18.1 0-11.8-7.2-18.3-7.4-6.5-20.7-6.5-4.6 0-9.4.8-4.7.7-9.8 2.3v10q4.4-2.5 9.1-3.6 4.7-1.2 9.9-1.2 8.5 0 13.4 4.4 5 4.5 5 12 0 7.7-5 12.1Q35 40 26.7 40q-4 0-7.9-.9-4-.9-8-2.7z" id="DejaVuSans-53"/></defs><g transform="matrix(.11 0 0 -.11 29.8 197.7)" fill="#262626"><use xlink:href="#DejaVuSans-8722"/><use x="83.8" xlink:href="#DejaVuSans-55"/><use x="147.4" xlink:href="#DejaVuSans-46"/><use x="179.2" xlink:href="#DejaVuSans-53"/></g></g></g><g id="ytick_3"><path clip-path="url(#pf75fa28303)" d="M66 165.2h334.8" fill="none" stroke="#fff" stroke-linecap="round" id="line2d_10"/><g transform="matrix(.11 0 0 -.11 29.8 169.4)" fill="#262626" id="text_11"><use xlink:href="#DejaVuSans-8722"/><use x="83.8" xlink:href="#DejaVuSans-53"/><use x="147.4" xlink:href="#DejaVuSans-46"/><use x="179.2" xlink:href="#DejaVuSans-48"/></g></g><g id="ytick_4"><path clip-path="url(#pf75fa28303)" d="M66 137h334.8" fill="none" stroke="#fff" stroke-linecap="round" id="line2d_11"/><g transform="matrix(.11 0 0 -.11 29.8 141.1)" fill="#262626" id="text_12"><use xlink:href="#DejaVuSans-8722"/><use x="83.8" xlink:href="#DejaVuSans-50"/><use x="147.4" xlink:href="#DejaVuSans-46"/><use x="179.2" xlink:href="#DejaVuSans-53"/></g></g><g id="ytick_5"><path clip-path="url(#pf75fa28303)" d="M66 108.6h334.8" fill="none" stroke="#fff" stroke-linecap="round" id="line2d_12"/><g transform="matrix(.11 0 0 -.11 39 112.8)" fill="#262626" id="text_13"><use xlink:href="#DejaVuSans-48"/><use x="63.6" xlink:href="#DejaVuSans-46"/><use x="95.4" xlink:href="#DejaVuSans-48"/></g></g><g id="ytick_6"><path clip-path="url(#pf75fa28303)" d="M66 80.3h334.8" fill="none" stroke="#fff" stroke-linecap="round" id="line2d_13"/><g transform="matrix(.11 0 0 -.11 39 84.5)" fill="#262626" id="text_14"><use xlink:href="#DejaVuSans-50"/><use x="63.6" xlink:href="#DejaVuSans-46"/><use x="95.4" xlink:href="#DejaVuSans-53"/></g></g><g id="ytick_7"><path clip-path="url(#pf75fa28303)" d="M66 52h334.8" fill="none" stroke="#fff" stroke-linecap="round" id="line2d_14"/><g transform="matrix(.11 0 0 -.11 39 56.2)" fill="#262626" id="text_15"><use xlink:href="#DejaVuSans-53"/><use x="63.6" xlink:href="#DejaVuSans-46"/><use x="95.4" xlink:href="#DejaVuSans-48"/></g></g><g id="ytick_8"><path clip-path="url(#pf75fa28303)" d="M66 23.8h334.8" fill="none" stroke="#fff" stroke-linecap="round" id="line2d_15"/><g transform="matrix(.11 0 0 -.11 39 28)" fill="#262626" id="text_16"><use xlink:href="#DejaVuSans-55"/><use x="63.6" xlink:href="#DejaVuSans-46"/><use x="95.4" xlink:href="#DejaVuSans-53"/></g></g><g id="text_17"><defs><path d="M32.2-5q-3.8-9.8-7.5-12.8-3.6-3-9.6-3H7.9v7.5h5.3q3.7 0 5.7 1.8 2.1 1.7 4.6 8.3l1.6 4L3 54.8h9.5l17-42.8 17.2 42.8h9.5z" id="DejaVuSans-121"/></defs><use xlink:href="#DejaVuSans-121" transform="matrix(0 -.12 -.12 0 16.3 125.5)" fill="#262626"/></g></g><path clip-path="url(#pf75fa28303)" d="M81.2 190.8L373.5 47" fill="none" stroke="#c44e52" stroke-linecap="round" stroke-opacity=".1" stroke-width="1.5" id="line2d_16"/><path clip-path="url(#pf75fa28303)" d="M81.2 188.1L373.5 39" fill="none" stroke="#c44e52" stroke-linecap="round" stroke-opacity=".1" stroke-width="1.5" id="line2d_17"/><path clip-path="url(#pf75fa28303)" d="M81.2 167L373.5 23" fill="none" stroke="#c44e52" stroke-linecap="round" stroke-opacity=".1" stroke-width="1.5" id="line2d_18"/><path clip-path="url(#pf75fa28303)" d="M81.2 185.3L373.5 66.2" fill="none" stroke="#c44e52" stroke-linecap="round" stroke-opacity=".1" stroke-width="1.5" id="line2d_19"/><path clip-path="url(#pf75fa28303)" d="M81.2 165.4l292.3-97.6" fill="none" stroke="#c44e52" stroke-linecap="round" stroke-opacity=".1" stroke-width="1.5" id="line2d_20"/><path clip-path="url(#pf75fa28303)" d="M81.2 194.2L373.5 55.6" fill="none" stroke="#c44e52" stroke-linecap="round" stroke-opacity=".1" stroke-width="1.5" id="line2d_21"/><path clip-path="url(#pf75fa28303)" d="M81.2 195.5L373.5 72.9" fill="none" stroke="#c44e52" stroke-linecap="round" stroke-opacity=".1" stroke-width="1.5" id="line2d_22"/><path clip-path="url(#pf75fa28303)" d="M81.2 189.8L373.5 74" fill="none" stroke="#c44e52" stroke-linecap="round" stroke-opacity=".1" stroke-width="1.5" id="line2d_23"/><path clip-path="url(#pf75fa28303)" d="M81.2 193.3l292.3-135" fill="none" stroke="#c44e52" stroke-linecap="round" stroke-opacity=".1" stroke-width="1.5" id="line2d_24"/><path clip-path="url(#pf75fa28303)" d="M81.2 183.5l292.3-150" fill="none" stroke="#c44e52" stroke-linecap="round" stroke-opacity=".1" stroke-width="1.5" id="line2d_25"/><path clip-path="url(#pf75fa28303)" d="M81.2 176.1l292.3-123" fill="none" stroke="#c44e52" stroke-linecap="round" stroke-opacity=".1" stroke-width="1.5" id="line2d_26"/><path clip-path="url(#pf75fa28303)" d="M81.2 185.5L373.5 75.9" fill="none" stroke="#c44e52" stroke-linecap="round" stroke-opacity=".1" stroke-width="1.5" id="line2d_27"/><path clip-path="url(#pf75fa28303)" d="M81.2 175L373.5 58" fill="none" stroke="#c44e52" stroke-linecap="round" stroke-opacity=".1" stroke-width="1.5" id="line2d_28"/><path clip-path="url(#pf75fa28303)" d="M81.2 186.2L373.5 48.3" fill="none" stroke="#c44e52" stroke-linecap="round" stroke-opacity=".1" stroke-width="1.5" id="line2d_29"/><path clip-path="url(#pf75fa28303)" d="M81.2 220.8L373.5 36" fill="none" stroke="#c44e52" stroke-linecap="round" stroke-opacity=".1" stroke-width="1.5" id="line2d_30"/><path clip-path="url(#pf75fa28303)" d="M81.2 173.2l292.3-140" fill="none" stroke="#c44e52" stroke-linecap="round" stroke-opacity=".1" stroke-width="1.5" id="line2d_31"/><path clip-path="url(#pf75fa28303)" d="M81.2 184.3L373.5 47.6" fill="none" stroke="#c44e52" stroke-linecap="round" stroke-opacity=".1" stroke-width="1.5" id="line2d_32"/><path clip-path="url(#pf75fa28303)" d="M81.2 180.3L373.5 67" fill="none" stroke="#c44e52" stroke-linecap="round" stroke-opacity=".1" stroke-width="1.5" id="line2d_33"/><path clip-path="url(#pf75fa28303)" d="M81.2 182L373.5 67.8" fill="none" stroke="#c44e52" stroke-linecap="round" stroke-opacity=".1" stroke-width="1.5" id="line2d_34"/><path clip-path="url(#pf75fa28303)" d="M81.2 191.5L373.5 84.2" fill="none" stroke="#c44e52" stroke-linecap="round" stroke-opacity=".1" stroke-width="1.5" id="line2d_35"/><path clip-path="url(#pf75fa28303)" d="M81.2 176.1L373.5 44" fill="none" stroke="#c44e52" stroke-linecap="round" stroke-opacity=".1" stroke-width="1.5" id="line2d_36"/><path clip-path="url(#pf75fa28303)" d="M81.2 178L373.5 52.3" fill="none" stroke="#c44e52" stroke-linecap="round" stroke-opacity=".1" stroke-width="1.5" id="line2d_37"/><path clip-path="url(#pf75fa28303)" d="M81.2 197.8L373.5 66.3" fill="none" stroke="#c44e52" stroke-linecap="round" stroke-opacity=".1" stroke-width="1.5" id="line2d_38"/><path clip-path="url(#pf75fa28303)" d="M81.2 182.4L373.5 48.7" fill="none" stroke="#c44e52" stroke-linecap="round" stroke-opacity=".1" stroke-width="1.5" id="line2d_39"/><path clip-path="url(#pf75fa28303)" d="M81.2 196.3L373.5 52" fill="none" stroke="#c44e52" stroke-linecap="round" stroke-opacity=".1" stroke-width="1.5" id="line2d_40"/><path clip-path="url(#pf75fa28303)" d="M81.2 196.4L373.5 65.8" fill="none" stroke="#c44e52" stroke-linecap="round" stroke-opacity=".1" stroke-width="1.5" id="line2d_41"/><path clip-path="url(#pf75fa28303)" d="M81.2 177.2L373.5 48.5" fill="none" stroke="#c44e52" stroke-linecap="round" stroke-opacity=".1" stroke-width="1.5" id="line2d_42"/><path clip-path="url(#pf75fa28303)" d="M81.2 190.4L373.5 51.9" fill="none" stroke="#c44e52" stroke-linecap="round" stroke-opacity=".1" stroke-width="1.5" id="line2d_43"/><path clip-path="url(#pf75fa28303)" d="M81.2 183.3L373.5 53" fill="none" stroke="#c44e52" stroke-linecap="round" stroke-opacity=".1" stroke-width="1.5" id="line2d_44"/><path clip-path="url(#pf75fa28303)" d="M81.2 184.7L373.5 58" fill="none" stroke="#c44e52" stroke-linecap="round" stroke-opacity=".1" stroke-width="1.5" id="line2d_45"/><path clip-path="url(#pf75fa28303)" d="M81.2 190.7L373.5 51.2" fill="none" stroke="#c44e52" stroke-linecap="round" stroke-opacity=".1" stroke-width="1.5" id="line2d_46"/><path clip-path="url(#pf75fa28303)" d="M81.2 191.9L373.5 47.8" fill="none" stroke="#c44e52" stroke-linecap="round" stroke-opacity=".1" stroke-width="1.5" id="line2d_47"/><path clip-path="url(#pf75fa28303)" d="M81.2 185.3l292.3-130" fill="none" stroke="#c44e52" stroke-linecap="round" stroke-opacity=".1" stroke-width="1.5" id="line2d_48"/><path clip-path="url(#pf75fa28303)" d="M81.2 189.6L373.5 66.2" fill="none" stroke="#c44e52" stroke-linecap="round" stroke-opacity=".1" stroke-width="1.5" id="line2d_49"/><path clip-path="url(#pf75fa28303)" d="M81.2 192.7L373.5 70.5" fill="none" stroke="#c44e52" stroke-linecap="round" stroke-opacity=".1" stroke-width="1.5" id="line2d_50"/><path clip-path="url(#pf75fa28303)" d="M81.2 186.6l292.3-140" fill="none" stroke="#c44e52" stroke-linecap="round" stroke-opacity=".1" stroke-width="1.5" id="line2d_51"/><path clip-path="url(#pf75fa28303)" d="M81.2 191L373.5 51.8" fill="none" stroke="#c44e52" stroke-linecap="round" stroke-opacity=".1" stroke-width="1.5" id="line2d_52"/><path clip-path="url(#pf75fa28303)" d="M81.2 176L373.5 54.8" fill="none" stroke="#c44e52" stroke-linecap="round" stroke-opacity=".1" stroke-width="1.5" id="line2d_53"/><path clip-path="url(#pf75fa28303)" d="M81.2 175.9l292.3-138" fill="none" stroke="#c44e52" stroke-linecap="round" stroke-opacity=".1" stroke-width="1.5" id="line2d_54"/><path clip-path="url(#pf75fa28303)" d="M81.2 199.5L373.5 51.2" fill="none" stroke="#c44e52" stroke-linecap="round" stroke-opacity=".1" stroke-width="1.5" id="line2d_55"/><path clip-path="url(#pf75fa28303)" d="M81.2 197.5L373.5 50.2" fill="none" stroke="#c44e52" stroke-linecap="round" stroke-opacity=".1" stroke-width="1.5" id="line2d_56"/><path clip-path="url(#pf75fa28303)" d="M81.2 199.6l292.3-144" fill="none" stroke="#c44e52" stroke-linecap="round" stroke-opacity=".1" stroke-width="1.5" id="line2d_57"/><path clip-path="url(#pf75fa28303)" d="M81.2 177.3L373.5 48" fill="none" stroke="#c44e52" stroke-linecap="round" stroke-opacity=".1" stroke-width="1.5" id="line2d_58"/><path clip-path="url(#pf75fa28303)" d="M81.2 179.7L373.5 46.8" fill="none" stroke="#c44e52" stroke-linecap="round" stroke-opacity=".1" stroke-width="1.5" id="line2d_59"/><path clip-path="url(#pf75fa28303)" d="M81.2 180L373.5 52.6" fill="none" stroke="#c44e52" stroke-linecap="round" stroke-opacity=".1" stroke-width="1.5" id="line2d_60"/><path clip-path="url(#pf75fa28303)" d="M81.2 154.2l292.3-95" fill="none" stroke="#c44e52" stroke-linecap="round" stroke-opacity=".1" stroke-width="1.5" id="line2d_61"/><path clip-path="url(#pf75fa28303)" d="M81.2 197.8L373.5 75.5" fill="none" stroke="#c44e52" stroke-linecap="round" stroke-opacity=".1" stroke-width="1.5" id="line2d_62"/><path clip-path="url(#pf75fa28303)" d="M81.2 193L373.5 54.6" fill="none" stroke="#c44e52" stroke-linecap="round" stroke-opacity=".1" stroke-width="1.5" id="line2d_63"/><path clip-path="url(#pf75fa28303)" d="M81.2 187.5l292.3-121" fill="none" stroke="#c44e52" stroke-linecap="round" stroke-opacity=".1" stroke-width="1.5" id="line2d_64"/><path clip-path="url(#pf75fa28303)" d="M81.2 182.7L373.5 44" fill="none" stroke="#c44e52" stroke-linecap="round" stroke-opacity=".1" stroke-width="1.5" id="line2d_65"/><path clip-path="url(#pf75fa28303)" d="M81.2 192.5L373.5 36.2" fill="none" stroke="#c44e52" stroke-linecap="round" stroke-opacity=".1" stroke-width="1.5" id="line2d_66"/><path clip-path="url(#pf75fa28303)" d="M81.2 172.1L373.5 45.7" fill="none" stroke="#c44e52" stroke-linecap="round" stroke-opacity=".1" stroke-width="1.5" id="line2d_67"/><path clip-path="url(#pf75fa28303)" d="M81.2 194.9L373.5 54" fill="none" stroke="#c44e52" stroke-linecap="round" stroke-opacity=".1" stroke-width="1.5" id="line2d_68"/><path clip-path="url(#pf75fa28303)" d="M81.2 165.6L373.5 35.4" fill="none" stroke="#c44e52" stroke-linecap="round" stroke-opacity=".1" stroke-width="1.5" id="line2d_69"/><path clip-path="url(#pf75fa28303)" d="M81.2 184.2L373.5 53.7" fill="none" stroke="#c44e52" stroke-linecap="round" stroke-opacity=".1" stroke-width="1.5" id="line2d_70"/><path clip-path="url(#pf75fa28303)" d="M81.2 202.6L373.5 58.2" fill="none" stroke="#c44e52" stroke-linecap="round" stroke-opacity=".1" stroke-width="1.5" id="line2d_71"/><path clip-path="url(#pf75fa28303)" d="M81.2 189.3L373.5 52.6" fill="none" stroke="#c44e52" stroke-linecap="round" stroke-opacity=".1" stroke-width="1.5" id="line2d_72"/><path clip-path="url(#pf75fa28303)" d="M81.2 184L373.5 59" fill="none" stroke="#c44e52" stroke-linecap="round" stroke-opacity=".1" stroke-width="1.5" id="line2d_73"/><path clip-path="url(#pf75fa28303)" d="M81.2 196.6L373.5 67.8" fill="none" stroke="#c44e52" stroke-linecap="round" stroke-opacity=".1" stroke-width="1.5" id="line2d_74"/><path clip-path="url(#pf75fa28303)" d="M81.2 200.8L373.5 72.6" fill="none" stroke="#c44e52" stroke-linecap="round" stroke-opacity=".1" stroke-width="1.5" id="line2d_75"/><path clip-path="url(#pf75fa28303)" d="M81.2 168L373.5 46.5" fill="none" stroke="#c44e52" stroke-linecap="round" stroke-opacity=".1" stroke-width="1.5" id="line2d_76"/><path clip-path="url(#pf75fa28303)" d="M81.2 183.4L373.5 53.1" fill="none" stroke="#c44e52" stroke-linecap="round" stroke-opacity=".1" stroke-width="1.5" id="line2d_77"/><path clip-path="url(#pf75fa28303)" d="M81.2 182.4L373.5 47.6" fill="none" stroke="#c44e52" stroke-linecap="round" stroke-opacity=".1" stroke-width="1.5" id="line2d_78"/><path clip-path="url(#pf75fa28303)" d="M81.2 199L373.5 35.9" fill="none" stroke="#c44e52" stroke-linecap="round" stroke-opacity=".1" stroke-width="1.5" id="line2d_79"/><path clip-path="url(#pf75fa28303)" d="M81.2 187L373.5 51.5" fill="none" stroke="#c44e52" stroke-linecap="round" stroke-opacity=".1" stroke-width="1.5" id="line2d_80"/><path clip-path="url(#pf75fa28303)" d="M81.2 184.5L373.5 55.8" fill="none" stroke="#c44e52" stroke-linecap="round" stroke-opacity=".1" stroke-width="1.5" id="line2d_81"/><path clip-path="url(#pf75fa28303)" d="M81.2 175.8L373.5 51.7" fill="none" stroke="#c44e52" stroke-linecap="round" stroke-opacity=".1" stroke-width="1.5" id="line2d_82"/><path clip-path="url(#pf75fa28303)" d="M81.2 183.2l292.3-107" fill="none" stroke="#c44e52" stroke-linecap="round" stroke-opacity=".1" stroke-width="1.5" id="line2d_83"/><path clip-path="url(#pf75fa28303)" d="M81.2 171.5L373.5 56.3" fill="none" stroke="#c44e52" stroke-linecap="round" stroke-opacity=".1" stroke-width="1.5" id="line2d_84"/><path clip-path="url(#pf75fa28303)" d="M81.2 175.8L373.5 67.1" fill="none" stroke="#c44e52" stroke-linecap="round" stroke-opacity=".1" stroke-width="1.5" id="line2d_85"/><path clip-path="url(#pf75fa28303)" d="M81.2 184.8L373.5 51.2" fill="none" stroke="#c44e52" stroke-linecap="round" stroke-opacity=".1" stroke-width="1.5" id="line2d_86"/><path clip-path="url(#pf75fa28303)" d="M81.2 184L373.5 46" fill="none" stroke="#c44e52" stroke-linecap="round" stroke-opacity=".1" stroke-width="1.5" id="line2d_87"/><path clip-path="url(#pf75fa28303)" d="M81.2 190L373.5 57.7" fill="none" stroke="#c44e52" stroke-linecap="round" stroke-opacity=".1" stroke-width="1.5" id="line2d_88"/><path clip-path="url(#pf75fa28303)" d="M81.2 195.7L373.5 64.1" fill="none" stroke="#c44e52" stroke-linecap="round" stroke-opacity=".1" stroke-width="1.5" id="line2d_89"/><path clip-path="url(#pf75fa28303)" d="M81.2 187.8l292.3-117" fill="none" stroke="#c44e52" stroke-linecap="round" stroke-opacity=".1" stroke-width="1.5" id="line2d_90"/><path clip-path="url(#pf75fa28303)" d="M81.2 160.7l292.3-99.2" fill="none" stroke="#c44e52" stroke-linecap="round" stroke-opacity=".1" stroke-width="1.5" id="line2d_91"/><path clip-path="url(#pf75fa28303)" d="M81.2 179L373.5 49.2" fill="none" stroke="#c44e52" stroke-linecap="round" stroke-opacity=".1" stroke-width="1.5" id="line2d_92"/><path clip-path="url(#pf75fa28303)" d="M81.2 171.8L373.5 46.1" fill="none" stroke="#c44e52" stroke-linecap="round" stroke-opacity=".1" stroke-width="1.5" id="line2d_93"/><path clip-path="url(#pf75fa28303)" d="M81.2 204.4l292.3-135" fill="none" stroke="#c44e52" stroke-linecap="round" stroke-opacity=".1" stroke-width="1.5" id="line2d_94"/><path clip-path="url(#pf75fa28303)" d="M81.2 191.8L373.5 61" fill="none" stroke="#c44e52" stroke-linecap="round" stroke-opacity=".1" stroke-width="1.5" id="line2d_95"/><path clip-path="url(#pf75fa28303)" d="M81.2 181.3l292.3-127" fill="none" stroke="#c44e52" stroke-linecap="round" stroke-opacity=".1" stroke-width="1.5" id="line2d_96"/><path clip-path="url(#pf75fa28303)" d="M81.2 213.8L373.5 57" fill="none" stroke="#c44e52" stroke-linecap="round" stroke-opacity=".1" stroke-width="1.5" id="line2d_97"/><path clip-path="url(#pf75fa28303)" d="M81.2 178.4L373.5 57" fill="none" stroke="#c44e52" stroke-linecap="round" stroke-opacity=".1" stroke-width="1.5" id="line2d_98"/><path clip-path="url(#pf75fa28303)" d="M81.2 184.8l292.3-115" fill="none" stroke="#c44e52" stroke-linecap="round" stroke-opacity=".1" stroke-width="1.5" id="line2d_99"/><path clip-path="url(#pf75fa28303)" d="M81.2 189.6L373.5 64.3" fill="none" stroke="#c44e52" stroke-linecap="round" stroke-opacity=".1" stroke-width="1.5" id="line2d_100"/><path clip-path="url(#pf75fa28303)" d="M81.2 197.7L373.5 57" fill="none" stroke="#c44e52" stroke-linecap="round" stroke-opacity=".1" stroke-width="1.5" id="line2d_101"/><path clip-path="url(#pf75fa28303)" d="M81.2 193.7L373.5 31" fill="none" stroke="#c44e52" stroke-linecap="round" stroke-opacity=".1" stroke-width="1.5" id="line2d_102"/><path clip-path="url(#pf75fa28303)" d="M81.2 192.4L373.5 50.3" fill="none" stroke="#c44e52" stroke-linecap="round" stroke-opacity=".1" stroke-width="1.5" id="line2d_103"/><path clip-path="url(#pf75fa28303)" d="M81.2 195L373.5 57.4" fill="none" stroke="#c44e52" stroke-linecap="round" stroke-opacity=".1" stroke-width="1.5" id="line2d_104"/><path clip-path="url(#pf75fa28303)" d="M81.2 183L373.5 60.6" fill="none" stroke="#c44e52" stroke-linecap="round" stroke-opacity=".1" stroke-width="1.5" id="line2d_105"/><path clip-path="url(#pf75fa28303)" d="M81.2 176.4l292.3-130" fill="none" stroke="#c44e52" stroke-linecap="round" stroke-opacity=".1" stroke-width="1.5" id="line2d_106"/><path clip-path="url(#pf75fa28303)" d="M81.2 187L373.5 62" fill="none" stroke="#c44e52" stroke-linecap="round" stroke-opacity=".1" stroke-width="1.5" id="line2d_107"/><path clip-path="url(#pf75fa28303)" d="M81.2 179.7l292.3-131" fill="none" stroke="#c44e52" stroke-linecap="round" stroke-opacity=".1" stroke-width="1.5" id="line2d_108"/><path clip-path="url(#pf75fa28303)" d="M81.2 174.4L373.5 56.5" fill="none" stroke="#c44e52" stroke-linecap="round" stroke-opacity=".1" stroke-width="1.5" id="line2d_109"/><path clip-path="url(#pf75fa28303)" d="M81.2 192.2l292.3-147" fill="none" stroke="#c44e52" stroke-linecap="round" stroke-opacity=".1" stroke-width="1.5" id="line2d_110"/><path clip-path="url(#pf75fa28303)" d="M81.2 190.2L373.5 66" fill="none" stroke="#c44e52" stroke-linecap="round" stroke-opacity=".1" stroke-width="1.5" id="line2d_111"/><path clip-path="url(#pf75fa28303)" d="M81.2 187.5L373.5 64.8" fill="none" stroke="#c44e52" stroke-linecap="round" stroke-opacity=".1" stroke-width="1.5" id="line2d_112"/><path clip-path="url(#pf75fa28303)" d="M81.2 184.1l292.3-129" fill="none" stroke="#c44e52" stroke-linecap="round" stroke-opacity=".1" stroke-width="1.5" id="line2d_113"/><path clip-path="url(#pf75fa28303)" d="M81.2 203L373.5 76.3" fill="none" stroke="#c44e52" stroke-linecap="round" stroke-opacity=".1" stroke-width="1.5" id="line2d_114"/><path clip-path="url(#pf75fa28303)" d="M81.2 162.7L373.5 53.9" fill="none" stroke="#c44e52" stroke-linecap="round" stroke-opacity=".1" stroke-width="1.5" id="line2d_115"/><g id="line2d_116"><defs><path d="M0 1.5a1.5 1.5 0 100-3 1.5 1.5 0 000 3z" id="mbf252e9863" stroke="#4c72b0"/></defs><g clip-path="url(#pf75fa28303)" fill="#4c72b0" stroke="#4c72b0"><use x="217.4" xlink:href="#mbf252e9863" y="142.3"/><use x="250.7" xlink:href="#mbf252e9863" y="115.5"/><use x="202.1" xlink:href="#mbf252e9863" y="132.1"/><use x="200.3" xlink:href="#mbf252e9863" y="143"/><use x="323.1" xlink:href="#mbf252e9863" y="80.9"/><use x="295.2" xlink:href="#mbf252e9863" y="88.8"/><use x="231.9" xlink:href="#mbf252e9863" y="105.4"/><use x="241.1" xlink:href="#mbf252e9863" y="102.5"/><use x="264.8" xlink:href="#mbf252e9863" y="109.2"/><use x="288.1" xlink:href="#mbf252e9863" y="73.8"/><use x="276.4" xlink:href="#mbf252e9863" y="103.1"/><use x="164.2" xlink:href="#mbf252e9863" y="144.1"/><use x="240.8" xlink:href="#mbf252e9863" y="103.2"/><use x="238.5" xlink:href="#mbf252e9863" y="132.5"/><use x="293.3" xlink:href="#mbf252e9863" y="100.9"/><use x="270.5" xlink:href="#mbf252e9863" y="104.4"/><use x="129.9" xlink:href="#mbf252e9863" y="162.8"/><use x="209.2" xlink:href="#mbf252e9863" y="130.6"/><use x="308.7" xlink:href="#mbf252e9863" y="74.6"/><use x="206" xlink:href="#mbf252e9863" y="148.5"/><use x="201.1" xlink:href="#mbf252e9863" y="157.7"/><use x="250.6" xlink:href="#mbf252e9863" y="122.4"/><use x="385.6" xlink:href="#mbf252e9863" y="42.4"/><use x="177.6" xlink:href="#mbf252e9863" y="135.1"/><use x="199.3" xlink:href="#mbf252e9863" y="136.1"/><use x="233.4" xlink:href="#mbf252e9863" y="118.7"/><use x="242.1" xlink:href="#mbf252e9863" y="111.9"/><use x="252.9" xlink:href="#mbf252e9863" y="115"/><use x="227.4" xlink:href="#mbf252e9863" y="124.6"/><use x="292.8" xlink:href="#mbf252e9863" y="89.7"/><use x="192.6" xlink:href="#mbf252e9863" y="150"/><use x="186.9" xlink:href="#mbf252e9863" y="159.1"/><use x="111.9" xlink:href="#mbf252e9863" y="155.1"/><use x="136.7" xlink:href="#mbf252e9863" y="150.9"/><use x="185.4" xlink:href="#mbf252e9863" y="134.2"/><use x="254.6" xlink:href="#mbf252e9863" y="101"/><use x="165.7" xlink:href="#mbf252e9863" y="133.8"/><use x="233.2" xlink:href="#mbf252e9863" y="122.2"/><use x="175.6" xlink:href="#mbf252e9863" y="147.4"/><use x="243.6" xlink:href="#mbf252e9863" y="106.8"/><use x="112.4" xlink:href="#mbf252e9863" y="182.7"/><use x="217.6" xlink:href="#mbf252e9863" y="109.5"/><use x="152.3" xlink:href="#mbf252e9863" y="149.1"/><use x="180.1" xlink:href="#mbf252e9863" y="149.3"/><use x="163.7" xlink:href="#mbf252e9863" y="147.4"/><use x="241.3" xlink:href="#mbf252e9863" y="117.9"/><use x="245.8" xlink:href="#mbf252e9863" y="114.5"/><use x="190.6" xlink:href="#mbf252e9863" y="137.2"/><use x="243.5" xlink:href="#mbf252e9863" y="104.8"/><use x="293.1" xlink:href="#mbf252e9863" y="82.2"/><use x="230.8" xlink:href="#mbf252e9863" y="126.9"/><use x="239.4" xlink:href="#mbf252e9863" y="106.2"/><use x="226.8" xlink:href="#mbf252e9863" y="123.7"/><use x="276.3" xlink:href="#mbf252e9863" y="116.2"/><use x="292" xlink:href="#mbf252e9863" y="85.1"/><use x="182.6" xlink:href="#mbf252e9863" y="158.5"/><use x="151.9" xlink:href="#mbf252e9863" y="159.2"/><use x="228.4" xlink:href="#mbf252e9863" y="107.6"/><use x="264.3" xlink:href="#mbf252e9863" y="89"/><use x="195.2" xlink:href="#mbf252e9863" y="137.7"/><use x="269.4" xlink:href="#mbf252e9863" y="105.1"/><use x="226.9" xlink:href="#mbf252e9863" y="121.5"/><use x="229.8" xlink:href="#mbf252e9863" y="139.7"/><use x="260" xlink:href="#mbf252e9863" y="81.4"/><use x="268.9" xlink:href="#mbf252e9863" y="109.4"/><use x="180.8" xlink:href="#mbf252e9863" y="125.3"/><use x="226.2" xlink:href="#mbf252e9863" y="121.7"/><use x="115.1" xlink:href="#mbf252e9863" y="158.2"/><use x="195.6" xlink:href="#mbf252e9863" y="113"/><use x="168" xlink:href="#mbf252e9863" y="139.1"/><use x="162.5" xlink:href="#mbf252e9863" y="124.9"/><use x="279.7" xlink:href="#mbf252e9863" y="103.3"/><use x="262.6" xlink:href="#mbf252e9863" y="95.3"/><use x="261" xlink:href="#mbf252e9863" y="114.2"/><use x="276.1" xlink:href="#mbf252e9863" y="111"/><use x="202.9" xlink:href="#mbf252e9863" y="136.7"/><use x="197.1" xlink:href="#mbf252e9863" y="144.4"/><use x="182.5" xlink:href="#mbf252e9863" y="150.3"/><use x="192" xlink:href="#mbf252e9863" y="131.5"/><use x="238.2" xlink:href="#mbf252e9863" y="121.2"/><use x="229.9" xlink:href="#mbf252e9863" y="125.2"/><use x="171" xlink:href="#mbf252e9863" y="150.4"/><use x="267.1" xlink:href="#mbf252e9863" y="111.9"/><use x="248.5" xlink:href="#mbf252e9863" y="90.3"/><use x="276.6" xlink:href="#mbf252e9863" y="83.4"/><use x="316.2" xlink:href="#mbf252e9863" y="64.3"/><use x="178.8" xlink:href="#mbf252e9863" y="153.6"/><use x="268.8" xlink:href="#mbf252e9863" y="107.9"/><use x="221" xlink:href="#mbf252e9863" y="127.4"/><use x="271.8" xlink:href="#mbf252e9863" y="102.6"/><use x="236.5" xlink:href="#mbf252e9863" y="124"/><use x="333" xlink:href="#mbf252e9863" y="79.1"/><use x="221.8" xlink:href="#mbf252e9863" y="113.1"/><use x="325" xlink:href="#mbf252e9863" y="71.6"/><use x="228.8" xlink:href="#mbf252e9863" y="111.1"/><use x="266.1" xlink:href="#mbf252e9863" y="91.6"/><use x="233.1" xlink:href="#mbf252e9863" y="128.8"/><use x="190.9" xlink:href="#mbf252e9863" y="152.9"/><use x="255.9" xlink:href="#mbf252e9863" y="92"/><use x="234.8" xlink:href="#mbf252e9863" y="113.6"/></g></g><path d="M66 230.6V13.2" fill="none" stroke="#fff" stroke-linecap="square" stroke-width="1.3" id="patch_3"/><path d="M400.8 230.6V13.2" fill="none" stroke="#fff" stroke-linecap="square" stroke-width="1.3" id="patch_4"/><path d="M66 230.6h334.8" fill="none" stroke="#fff" stroke-linecap="square" stroke-width="1.3" id="patch_5"/><path d="M66 13.2h334.8" fill="none" stroke="#fff" stroke-linecap="square" stroke-width="1.3" id="patch_6"/></g></g><defs><clipPath id="pf75fa28303"><path d="M66 13.2h334.8v217.4H66z"/></clipPath></defs></svg>