<svg height="349.6" viewBox="0 0 356.2 262.2" width="474.9" xmlns="http://www.w3.org/2000/svg" xmlns:xlink="http://www.w3.org/1999/xlink"><defs><style>*{stroke-linecap:butt;stroke-linejoin:round}</style></defs><g id="figure_1"><path d="M0 262.2h356.2V0H0z" fill="none" id="patch_1"/><g id="axes_1"><path d="M10.7 224.6h334.8V7.2H10.7z" fill="#fff" id="patch_2"/><path clip-path="url(#p9c316fc32c)" d="M26 224.6H41v-1.4H26z" fill="#1f77b4" opacity=".4" id="patch_3"/><path clip-path="url(#p9c316fc32c)" d="M41.1 224.6h15.3v-1.4H41z" fill="#1f77b4" opacity=".4" id="patch_4"/><path clip-path="url(#p9c316fc32c)" d="M56.4 224.6h15.2v-2.9H56.4z" fill="#1f77b4" opacity=".4" id="patch_5"/><path clip-path="url(#p9c316fc32c)" d="M71.6 224.6h15.2v-4.4H71.6z" fill="#1f77b4" opacity=".4" id="patch_6"/><path clip-path="url(#p9c316fc32c)" d="M86.8 224.6H102v-13.2H86.8z" fill="#1f77b4" opacity=".4" id="patch_7"/><path clip-path="url(#p9c316fc32c)" d="M102 224.6h15.2v-7.3H102z" fill="#1f77b4" opacity=".4" id="patch_8"/><path clip-path="url(#p9c316fc32c)" d="M117.2 224.6h15.2v-20.5h-15.2z" fill="#1f77b4" opacity=".4" id="patch_9"/><path clip-path="url(#p9c316fc32c)" d="M132.4 224.6h15.3V188h-15.3z" fill="#1f77b4" opacity=".4" id="patch_10"/><path clip-path="url(#p9c316fc32c)" d="M147.7 224.6h15.2v-48.4h-15.2z" fill="#1f77b4" opacity=".4" id="patch_11"/><path clip-path="url(#p9c316fc32c)" d="M162.9 224.6H178v-73.4h-15.2z" fill="#1f77b4" opacity=".4" id="patch_12"/><path clip-path="url(#p9c316fc32c)" d="M178.1 224.6h15.2V123.3h-15.2z" fill="#1f77b4" opacity=".4" id="patch_13"/><path clip-path="url(#p9c316fc32c)" d="M193.3 224.6h15.2V85.1h-15.2z" fill="#1f77b4" opacity=".4" id="patch_14"/><path clip-path="url(#p9c316fc32c)" d="M208.5 224.6h15.3V47h-15.3z" fill="#1f77b4" opacity=".4" id="patch_15"/><path clip-path="url(#p9c316fc32c)" d="M223.8 224.6H239v-207h-15.2z" fill="#1f77b4" opacity=".4" id="patch_16"/><path clip-path="url(#p9c316fc32c)" d="M239 224.6h15.2V54.3H239z" fill="#1f77b4" opacity=".4" id="patch_17"/><path clip-path="url(#p9c316fc32c)" d="M254.2 224.6h15.2V60.1h-15.2z" fill="#1f77b4" opacity=".4" id="patch_18"/><path clip-path="url(#p9c316fc32c)" d="M269.4 224.6h15.2V70.4h-15.2z" fill="#1f77b4" opacity=".4" id="patch_19"/><path clip-path="url(#p9c316fc32c)" d="M284.6 224.6h15.2v-92.5h-15.2z" fill="#1f77b4" opacity=".4" id="patch_20"/><path clip-path="url(#p9c316fc32c)" d="M299.8 224.6h15.3v-38.1h-15.3z" fill="#1f77b4" opacity=".4" id="patch_21"/><path clip-path="url(#p9c316fc32c)" d="M315 224.6h15.3v-13.2H315z" fill="#1f77b4" opacity=".4" id="patch_22"/><g id="matplotlib.axis_1"><g id="xtick_1"><g id="line2d_1"><defs><path d="M0 0v3.5" id="mb6c66b185b" stroke="#000" stroke-width=".8"/></defs><use x="68" xlink:href="#mb6c66b185b" y="224.6" stroke="#000" stroke-width=".8"/></g><g id="text_1"><defs><path d="M31.8 66.4q-7.6 0-11.5-7.5-3.8-7.5-3.8-22.5t3.8-22.5q3.9-7.5 11.5-7.5 7.7 0 11.5 7.5T47 36.4q0 15-3.8 22.5t-11.5 7.5zm0 7.8q12.2 0 18.7-9.7T57 36.4Q57 18 50.5 8.3 44-1.4 31.8-1.4 19.5-1.4 13 8.3q-6.5 9.7-6.5 28 0 18.5 6.5 28.2 6.4 9.7 18.7 9.7z" id="DejaVuSans-48"/><path d="M10.7 12.4H21V0H10.7z" id="DejaVuSans-46"/><path d="M8.2 73h46.9v-4.3L28.6 0H18.3l25 64.6H8.1z" id="DejaVuSans-55"/><path d="M33 40.4q-6.6 0-10.5-4.6-3.9-4.5-3.9-12.4T22.5 11Q26.4 6.4 33 6.4q6.7 0 10.5 4.6 4 4.5 4 12.4t-4 12.4q-3.8 4.6-10.5 4.6zm19.6 30.9v-9Q48.9 64.1 45 65q-3.8 1-7.5 1-9.8 0-15-6.7-5-6.6-5.8-19.9 2.9 4.3 7.2 6.5 4.4 2.3 9.6 2.3 11 0 17.4-6.7 6.3-6.6 6.3-18.1 0-11.2-6.6-18Q44-1.4 33-1.4q-12.6 0-19.3 9.7Q7 18 7 36.3 7 53.8 15.2 64q8.2 10.3 22 10.3 3.7 0 7.5-.7 3.8-.8 7.9-2.2z" id="DejaVuSans-54"/></defs><g transform="matrix(.1 0 0 -.1 56.9 239.2)"><use xlink:href="#DejaVuSans-48"/><use x="63.6" xlink:href="#DejaVuSans-46"/><use x="95.4" xlink:href="#DejaVuSans-55"/><use x="159" xlink:href="#DejaVuSans-54"/></g></g></g><g id="xtick_2"><use x="132.4" xlink:href="#mb6c66b185b" y="224.6" stroke="#000" stroke-width=".8" id="line2d_2"/><g id="text_2"><defs><path d="M31.8 34.6q-7 0-11-3.7-4.1-3.8-4.1-10.4 0-6.6 4-10.3 4-3.8 11-3.8 7.1 0 11.2 3.8 4 3.8 4 10.3 0 6.6-4 10.4-4 3.7-11.1 3.7zm-9.9 4.2q-6.3 1.6-9.9 6Q8.5 49 8.5 55.2q0 8.8 6.2 13.8 6.3 5.1 17 5.1 11 0 17.2-5Q55 64 55 55.2q0-6.2-3.6-10.6-3.5-4.3-9.8-5.9 7.1-1.6 11.1-6.5 4-4.8 4-11.8 0-10.6-6.5-16.3-6.5-5.6-18.5-5.6T13.2 4.2Q6.8 10 6.8 20.5q0 7 4 11.8 4 4.9 11.1 6.5zm-3.6 15.6q0-5.7 3.5-8.8 3.6-3.2 10-3.2 6.3 0 10 3.2 3.5 3.1 3.5 8.8 0 5.7-3.6 8.8-3.6 3.2-10 3.2-6.3 0-9.9-3.2-3.5-3.1-3.5-8.8z" id="DejaVuSans-56"/></defs><g transform="matrix(.1 0 0 -.1 121.3 239.2)"><use xlink:href="#DejaVuSans-48"/><use x="63.6" xlink:href="#DejaVuSans-46"/><use x="95.4" xlink:href="#DejaVuSans-55"/><use x="159" xlink:href="#DejaVuSans-56"/></g></g></g><g id="xtick_3"><use x="196.8" xlink:href="#mb6c66b185b" y="224.6" stroke="#000" stroke-width=".8" id="line2d_3"/><g transform="matrix(.1 0 0 -.1 185.7 239.2)" id="text_3"><use xlink:href="#DejaVuSans-48"/><use x="63.6" xlink:href="#DejaVuSans-46"/><use x="95.4" xlink:href="#DejaVuSans-56"/><use x="159" xlink:href="#DejaVuSans-48"/></g></g><g id="xtick_4"><use x="261.2" xlink:href="#mb6c66b185b" y="224.6" stroke="#000" stroke-width=".8" id="line2d_4"/><g id="text_4"><defs><path d="M19.2 8.3h34.4V0H7.3v8.3l15.3 15.6q9.7 9.8 12.2 12.6 4.7 5.3 6.6 9 2 3.7 2 7.3 0 5.8-4.2 9.5-4 3.6-10.6 3.6-4.6 0-9.8-1.6-5.1-1.6-11-4.9v10q6 2.4 11.1 3.6 5.2 1.2 9.5 1.2 11.4 0 18-5.7 6.8-5.6 6.8-15 0-4.6-1.7-8.6-1.6-4-6-9.5l-7.9-8.2L19.2 8.3z" id="DejaVuSans-50"/></defs><g transform="matrix(.1 0 0 -.1 250.1 239.2)"><use xlink:href="#DejaVuSans-48"/><use x="63.6" xlink:href="#DejaVuSans-46"/><use x="95.4" xlink:href="#DejaVuSans-56"/><use x="159" xlink:href="#DejaVuSans-50"/></g></g></g><g id="xtick_5"><use x="325.7" xlink:href="#mb6c66b185b" y="224.6" stroke="#000" stroke-width=".8" id="line2d_5"/><g id="text_5"><defs><path d="M37.8 64.3l-25-39h25zM35.2 73h12.4V25.4H58v-8.2H47.6V0h-9.8v17.2h-33v9.5z" id="DejaVuSans-52"/></defs><g transform="matrix(.1 0 0 -.1 314.5 239.2)"><use xlink:href="#DejaVuSans-48"/><use x="63.6" xlink:href="#DejaVuSans-46"/><use x="95.4" xlink:href="#DejaVuSans-56"/><use x="159" xlink:href="#DejaVuSans-52"/></g></g></g><g id="text_6"><defs><path d="M54.9 33V0h-9v32.7q0 7.8-3 11.6-3 3.9-9.1 3.9-7.3 0-11.5-4.7Q18.1 39 18.1 31V0h-9v54.7h9v-8.5q3.2 5 7.6 7.4Q30.1 56 35.8 56q9.4 0 14.2-5.8Q55 44.3 55 33z" id="DejaVuSans-110"/><path d="M19.7 34.8V8.1h15.8q8 0 11.8 3.3 3.8 3.3 3.8 10 0 7-3.8 10.2-3.8 3.2-11.8 3.2zm0 30v-22h14.6q7.2 0 10.7 2.7 3.6 2.8 3.6 8.3 0 5.5-3.6 8.3-3.5 2.7-10.7 2.7zm-9.9 8.1H35q11.3 0 17.4-4.7 6.1-4.7 6.1-13.3 0-6.7-3.1-10.7-3.1-4-9.2-4.9 7.3-1.5 11.3-6.5 4-5 4-12.4 0-9.8-6.6-15Q48.3 0 35.9 0H10z" id="DejaVuSans-66"/><path d="M32.2-5q-3.8-9.8-7.5-12.8-3.6-3-9.6-3H7.9v7.5h5.3q3.7 0 5.7 1.8 2.1 1.7 4.6 8.3l1.6 4L3 54.8h9.5l17-42.8 17.2 42.8h9.5z" id="DejaVuSans-121"/><path d="M56.2 29.6v-4.4H14.9q.6-9.3 5.6-14.1 5-4.9 14-4.9 5 0 10 1.3 4.8 1.2 9.6 3.8V2.8q-4.8-2-10-3.1-5-1.1-10.2-1.1-13.1 0-20.7 7.6-7.7 7.6-7.7 20.6 0 13.4 7.3 21.3Q20 56 32.3 56q11 0 17.5-7.1 6.4-7.1 6.4-19.3zm-9 2.6q0 7.4-4.1 11.8-4 4.4-10.7 4.4-7.5 0-12-4.3-4.5-4.2-5.2-12z" id="DejaVuSans-101"/><path d="M44.3 53v-8.4q-3.8 2-8 2.9-4 1-8.4 1-6.7 0-10-2-3.4-2.1-3.4-6.2 0-3.1 2.4-5 2.4-1.7 9.6-3.3l3-.7q9.7-2 13.7-5.8 4-3.7 4-10.4 0-7.6-6-12-6-4.5-16.6-4.5-4.4 0-9.1.8-4.8.9-10 2.6v9.3q5-2.6 9.7-4 4.9-1.2 9.6-1.2 6.4 0 9.8 2.2 3.4 2.2 3.4 6.1 0 3.7-2.5 5.6-2.4 2-10.8 3.8l-3.1.7q-8.4 1.8-12 5.4-3.8 3.6-3.8 10 0 7.7 5.5 11.9Q16.7 56 26.8 56q5 0 9.4-.7 4.4-.8 8-2.2z" id="DejaVuSans-115"/><path d="M9.4 54.7h9V0h-9zm0 21.3h9V64.6h-9z" id="DejaVuSans-105"/><path d="M34.3 27.5q-11 0-15.1-2.5-4.2-2.5-4.2-8.5 0-4.8 3.1-7.6 3.2-2.8 8.6-2.8 7.5 0 12 5.3t4.5 14v2zm17.9 3.7V0h-9v8.3q-3-5-7.7-7.3Q31-1.4 24.3-1.4 16-1.4 11 3.3 6 8 6 15.9q0 9.2 6.2 14 6.2 4.6 18.4 4.6h12.6v1q0 6.1-4 9.5-4.1 3.4-11.5 3.4-4.7 0-9.2-1.1-4.4-1.2-8.5-3.4v8.3q5 2 9.6 2.8 4.6 1 9 1 11.9 0 17.7-6.2 5.9-6.1 5.9-18.6z" id="DejaVuSans-97"/><path d="M44.4 34.2q3.2-1 6.2-4.6 3-3.5 6-9.7L66.6 0H56l-9.3 18.7q-3.6 7.3-7 9.7-3.4 2.4-9.3 2.4H19.7V0H9.8v73h22.3q12.5 0 18.6-5.3Q57 62.5 57 51.9q0-6.9-3.2-11.4-3.2-4.6-9.3-6.3zM19.7 64.8V38.9H32q7.1 0 10.7 3.3 3.7 3.3 3.7 9.7 0 6.4-3.7 9.6-3.6 3.3-10.7 3.3z" id="DejaVuSans-82"/><path d="M14.8 27.3q0-10 4-15.6Q23 6.2 30.2 6.2q7.1 0 11.2 5.7 4.1 5.6 4.1 15.5t-4.1 15.5q-4.1 5.7-11.2 5.7t-11.2-5.7q-4.1-5.6-4.1-15.5zM45.4 8.2Q42.6 3.3 38.3 1q-4.4-2.4-10.4-2.4-10 0-16.2 7.9-6.2 8-6.2 20.8 0 12.9 6.2 20.8Q18 56 28 56q6 0 10.4-2.4 4.3-2.3 7.1-7.2v8.3h9v-75.5h-9z" id="DejaVuSans-113"/><path d="M8.5 21.6v33h9V22q0-7.7 3-11.6 3-4 9-4 7.4 0 11.6 4.7 4.2 4.7 4.2 12.7v31h9V0h-9v8.4Q42 3.4 37.7 1q-4.3-2.4-10-2.4-9.4 0-14.3 5.8-4.9 5.9-4.9 17.2zM31.1 56z" id="DejaVuSans-117"/><path d="M41.1 46.3q-1.5.9-3.3 1.3-1.8.4-4 .4-7.5 0-11.6-5-4-5-4-14.2V0H9v54.7h9v-8.5q2.9 5 7.4 7.4Q30 56 36.5 56l2-.1 2.6-.4z" id="DejaVuSans-114"/><path d="M45.4 46.4V76h9V0h-9v8.2Q42.6 3.3 38.3 1q-4.4-2.4-10.4-2.4-10 0-16.2 7.9-6.2 8-6.2 20.8 0 12.9 6.2 20.8Q18 56 28 56q6 0 10.4-2.4 4.3-2.3 7.1-7.2zM14.8 27.3q0-10 4-15.6Q23 6.2 30.2 6.2q7.1 0 11.2 5.7 4.1 5.6 4.1 15.5t-4.1 15.5q-4.1 5.7-11.2 5.7t-11.2-5.7q-4.1-5.6-4.1-15.5z" id="DejaVuSans-100"/></defs><g transform="matrix(.1 0 0 -.1 128.4 253)"><use xlink:href="#DejaVuSans-66"/><use x="68.6" xlink:href="#DejaVuSans-97"/><use x="129.9" xlink:href="#DejaVuSans-121"/><use x="189.1" xlink:href="#DejaVuSans-101"/><use x="250.6" xlink:href="#DejaVuSans-115"/><use x="302.7" xlink:href="#DejaVuSans-105"/><use x="330.5" xlink:href="#DejaVuSans-97"/><use x="391.7" xlink:href="#DejaVuSans-110"/><use x="455.1" xlink:href="#DejaVuSans-32"/><use x="486.9" xlink:href="#DejaVuSans-82"/><use x="556.4" xlink:href="#DejaVuSans-32"/><use x="588.2" xlink:href="#DejaVuSans-115"/><use x="640.3" xlink:href="#DejaVuSans-113"/><use x="703.8" xlink:href="#DejaVuSans-117"/><use x="767.1" xlink:href="#DejaVuSans-97"/><use x="828.4" xlink:href="#DejaVuSans-114"/><use x="869.5" xlink:href="#DejaVuSans-101"/><use x="931" xlink:href="#DejaVuSans-100"/></g></g></g><path d="M10.7 224.6h334.8" fill="none" stroke="#000" stroke-linecap="square" stroke-width=".8" id="patch_23"/></g></g><defs><clipPath id="p9c316fc32c"><path d="M10.7 7.2h334.8v217.4H10.7z"/></clipPath></defs></svg>