<?xml version="1.0" encoding="utf-8" standalone="no"?>
<!DOCTYPE svg PUBLIC "-//W3C//DTD SVG 1.1//EN"
  "http://www.w3.org/Graphics/SVG/1.1/DTD/svg11.dtd">
<!-- Created with matplotlib (https://matplotlib.org/) -->
<svg height="216pt" version="1.1" viewBox="0 0 360 216" width="360pt" xmlns="http://www.w3.org/2000/svg" xmlns:xlink="http://www.w3.org/1999/xlink">
 <defs>
  <style type="text/css">
*{stroke-linecap:butt;stroke-linejoin:round;}
  </style>
 </defs>
 <g id="figure_1">
  <g id="patch_1">
   <path d="M 0 216 
L 360 216 
L 360 0 
L 0 0 
z
" style="fill:#ffffff;"/>
  </g>
  <g id="axes_1">
   <g id="patch_2">
    <path d="M 14.363115 202.68 
L 346.68 202.68 
L 346.68 13.32 
L 14.363115 13.32 
z
" style="fill:#ffffff;"/>
   </g>
   <g id="matplotlib.axis_1">
    <g id="xtick_1">
     <g id="line2d_1">
      <defs>
       <path d="M 0 0 
L 0 3.5 
" id="m787ac2ca62" style="stroke:#000000;stroke-width:0.8;"/>
      </defs>
      <g>
       <use style="stroke:#000000;stroke-width:0.8;" x="17.087024" xlink:href="#m787ac2ca62" y="108"/>
      </g>
     </g>
     <g id="text_1">
      <!-- −3 -->
      <defs>
       <path d="M 6 36.765625 
L 52.6875 36.765625 
L 52.6875 30.03125 
L 6 30.03125 
z
" id="FranklinGothic-Book-8722"/>
       <path d="M 19.34375 31.34375 
L 19.34375 37.984375 
L 26.953125 37.984375 
Q 35.296875 37.984375 38.890625 41.40625 
Q 42.484375 44.828125 42.484375 49.703125 
Q 42.484375 55.078125 38.46875 58.21875 
Q 34.46875 61.375 28.421875 61.375 
Q 17.1875 61.375 12.890625 50.53125 
L 5.375 52.6875 
Q 11.8125 68.015625 29.203125 68.015625 
Q 38.96875 68.015625 44.96875 62.8125 
Q 50.984375 57.625 50.984375 50.296875 
Q 50.984375 44.625 47.359375 40.40625 
Q 43.75 36.1875 38.09375 35.109375 
Q 44.4375 34.1875 49 29.78125 
Q 53.5625 25.390625 53.5625 18.40625 
Q 53.5625 10.0625 46.765625 4.375 
Q 39.984375 -1.3125 28.171875 -1.3125 
Q 18.796875 -1.3125 12.125 3.125 
Q 5.46875 7.5625 2.9375 14.9375 
L 10.6875 17.53125 
Q 14.203125 5.46875 28.03125 5.46875 
Q 37.015625 5.46875 40.9375 9.296875 
Q 44.875 13.140625 44.875 18.453125 
Q 44.875 24.21875 40.15625 27.78125 
Q 35.453125 31.34375 26.953125 31.34375 
z
" id="FranklinGothic-Book-51"/>
      </defs>
      <g transform="translate(11.222961 121.665625)scale(0.1 -0.1)">
       <use xlink:href="#FranklinGothic-Book-8722"/>
       <use x="58.642578" xlink:href="#FranklinGothic-Book-51"/>
      </g>
     </g>
    </g>
    <g id="xtick_2">
     <g id="line2d_2">
      <g>
       <use style="stroke:#000000;stroke-width:0.8;" x="71.565202" xlink:href="#m787ac2ca62" y="108"/>
      </g>
     </g>
     <g id="text_2">
      <!-- −2 -->
      <defs>
       <path d="M 52.484375 6.9375 
L 52.484375 0 
L 5.171875 0 
L 5.171875 6.9375 
Q 33.203125 27.9375 38.59375 34.59375 
Q 44 41.265625 44 47.796875 
Q 44 53.90625 39.453125 57.65625 
Q 34.90625 61.421875 29 61.421875 
Q 22.90625 61.421875 18.21875 57.296875 
Q 13.53125 53.171875 12.9375 46.09375 
L 5.171875 48.4375 
Q 10.0625 68.015625 29.109375 68.015625 
Q 39.40625 68.015625 45.84375 62.15625 
Q 52.296875 56.296875 52.296875 47.859375 
Q 52.296875 42.046875 49.234375 36.671875 
Q 46.1875 31.296875 37.6875 23.828125 
Q 29.203125 16.359375 15.71875 6.9375 
z
" id="FranklinGothic-Book-50"/>
      </defs>
      <g transform="translate(65.701139 121.665625)scale(0.1 -0.1)">
       <use xlink:href="#FranklinGothic-Book-8722"/>
       <use x="58.642578" xlink:href="#FranklinGothic-Book-50"/>
      </g>
     </g>
    </g>
    <g id="xtick_3">
     <g id="line2d_3">
      <g>
       <use style="stroke:#000000;stroke-width:0.8;" x="126.043379" xlink:href="#m787ac2ca62" y="108"/>
      </g>
     </g>
     <g id="text_3">
      <!-- −1 -->
      <defs>
       <path d="M 55.859375 6.203125 
L 55.859375 0 
L 9.1875 0 
L 9.1875 6.203125 
L 29.203125 6.203125 
L 29.203125 57.671875 
Q 20.359375 48.4375 10.84375 43.265625 
L 10.84375 51.65625 
Q 23.96875 58.546875 31.203125 68.015625 
L 37.15625 68.015625 
L 37.15625 6.203125 
z
" id="FranklinGothic-Book-49"/>
      </defs>
      <g transform="translate(120.179317 121.665625)scale(0.1 -0.1)">
       <use xlink:href="#FranklinGothic-Book-8722"/>
       <use x="58.642578" xlink:href="#FranklinGothic-Book-49"/>
      </g>
     </g>
    </g>
    <g id="xtick_4">
     <g id="line2d_4">
      <g>
       <use style="stroke:#000000;stroke-width:0.8;" x="234.999735" xlink:href="#m787ac2ca62" y="108"/>
      </g>
     </g>
     <g id="text_4">
      <!-- 1 -->
      <g transform="translate(232.067704 121.665625)scale(0.1 -0.1)">
       <use xlink:href="#FranklinGothic-Book-49"/>
      </g>
     </g>
    </g>
    <g id="xtick_5">
     <g id="line2d_5">
      <g>
       <use style="stroke:#000000;stroke-width:0.8;" x="289.477913" xlink:href="#m787ac2ca62" y="108"/>
      </g>
     </g>
     <g id="text_5">
      <!-- 2 -->
      <g transform="translate(286.545882 121.665625)scale(0.1 -0.1)">
       <use xlink:href="#FranklinGothic-Book-50"/>
      </g>
     </g>
    </g>
    <g id="xtick_6">
     <g id="line2d_6">
      <g>
       <use style="stroke:#000000;stroke-width:0.8;" x="343.956091" xlink:href="#m787ac2ca62" y="108"/>
      </g>
     </g>
     <g id="text_6">
      <!-- 3 -->
      <g transform="translate(341.02406 121.665625)scale(0.1 -0.1)">
       <use xlink:href="#FranklinGothic-Book-51"/>
      </g>
     </g>
    </g>
   </g>
   <g id="matplotlib.axis_2">
    <g id="ytick_1">
     <g id="line2d_7">
      <defs>
       <path d="M 0 0 
L -3.5 0 
" id="mc57265a74d" style="stroke:#000000;stroke-width:0.8;"/>
      </defs>
      <g>
       <use style="stroke:#000000;stroke-width:0.8;" x="180.521557" xlink:href="#mc57265a74d" y="202.68"/>
      </g>
     </g>
     <g id="text_7">
      <!-- −20 -->
      <defs>
       <path d="M 29.390625 -1.3125 
Q 17.875 -1.3125 10.984375 8.671875 
Q 4.109375 18.65625 4.109375 33.453125 
Q 4.109375 48 10.640625 58 
Q 17.1875 68.015625 29.15625 68.015625 
Q 41.65625 68.015625 48.125 57.5625 
Q 54.59375 47.125 54.59375 33.0625 
Q 54.59375 19.28125 47.953125 8.984375 
Q 41.3125 -1.3125 29.390625 -1.3125 
z
M 29.4375 5.21875 
Q 37.890625 5.21875 41.9375 12.859375 
Q 46 20.515625 46 32.078125 
Q 46 44.734375 41.84375 53.125 
Q 37.703125 61.53125 29.046875 61.53125 
Q 20.703125 61.53125 16.625 53.859375 
Q 12.546875 46.1875 12.546875 33.6875 
Q 12.546875 20.703125 16.84375 12.953125 
Q 21.140625 5.21875 29.4375 5.21875 
z
" id="FranklinGothic-Book-48"/>
      </defs>
      <g transform="translate(155.92937 206.012813)scale(0.1 -0.1)">
       <use xlink:href="#FranklinGothic-Book-8722"/>
       <use x="58.642578" xlink:href="#FranklinGothic-Book-50"/>
       <use x="117.285156" xlink:href="#FranklinGothic-Book-48"/>
      </g>
     </g>
    </g>
    <g id="ytick_2">
     <g id="line2d_8">
      <g>
       <use style="stroke:#000000;stroke-width:0.8;" x="180.521557" xlink:href="#mc57265a74d" y="155.34"/>
      </g>
     </g>
     <g id="text_8">
      <!-- −10 -->
      <g transform="translate(155.934057 158.672813)scale(0.1 -0.1)">
       <use xlink:href="#FranklinGothic-Book-8722"/>
       <use x="58.642578" xlink:href="#FranklinGothic-Book-49"/>
       <use x="117.238281" xlink:href="#FranklinGothic-Book-48"/>
      </g>
     </g>
    </g>
    <g id="ytick_3">
     <g id="line2d_9">
      <g>
       <use style="stroke:#000000;stroke-width:0.8;" x="180.521557" xlink:href="#mc57265a74d" y="60.66"/>
      </g>
     </g>
     <g id="text_9">
      <!-- 10 -->
      <g transform="translate(161.79812 63.992813)scale(0.1 -0.1)">
       <use xlink:href="#FranklinGothic-Book-49"/>
       <use x="58.595703" xlink:href="#FranklinGothic-Book-48"/>
      </g>
     </g>
    </g>
    <g id="ytick_4">
     <g id="line2d_10">
      <g>
       <use style="stroke:#000000;stroke-width:0.8;" x="180.521557" xlink:href="#mc57265a74d" y="13.32"/>
      </g>
     </g>
     <g id="text_10">
      <!-- 20 -->
      <g transform="translate(161.793432 16.652812)scale(0.1 -0.1)">
       <use xlink:href="#FranklinGothic-Book-50"/>
       <use x="58.642578" xlink:href="#FranklinGothic-Book-48"/>
      </g>
     </g>
    </g>
   </g>
   <g id="line2d_11">
    <path clip-path="url(#pc182ce38ee)" d="M -1 109.420779 
L 42.146985 109.86378 
L 71.565202 110.367 
L 92.266909 110.922222 
L 107.520799 111.532836 
L 119.505998 112.226786 
L 128.222507 112.93125 
L 135.849451 113.773171 
L 141.297269 114.575 
L 145.655524 115.396875 
L 150.013778 116.453571 
L 153.282468 117.468 
L 156.551159 118.759091 
L 158.730286 119.835 
L 160.909413 121.15 
L 163.08854 122.79375 
L 165.267668 124.907143 
L 166.357231 126.207692 
L 167.446795 127.725 
L 168.536358 129.518182 
L 169.625922 131.67 
L 170.715485 134.3 
L 171.805049 137.5875 
L 172.894612 141.814286 
L 173.984176 147.45 
L 175.07374 155.34 
L 176.163303 167.175 
L 177.252867 186.9 
L 178.084194 217 
M 182.958921 -1 
L 183.790248 29.1 
L 184.879812 48.825 
L 185.969375 60.66 
L 187.058939 68.55 
L 188.148502 74.185714 
L 189.238066 78.4125 
L 190.327629 81.7 
L 191.417193 84.33 
L 192.506757 86.481818 
L 193.59632 88.275 
L 194.685884 89.792308 
L 195.775447 91.092857 
L 197.954574 93.20625 
L 200.133701 94.85 
L 202.312829 96.165 
L 204.491956 97.240909 
L 207.760646 98.532 
L 211.029337 99.546429 
L 215.387591 100.603125 
L 219.745845 101.425 
L 225.193663 102.226829 
L 231.731045 102.96383 
L 240.447553 103.696364 
L 251.343189 104.358462 
L 265.507515 104.965385 
L 284.030095 105.508421 
L 308.000494 105.976923 
L 341.776964 106.400676 
L 361 106.57101 
L 361 106.57101 
" style="fill:none;stroke:#000000;stroke-linecap:square;stroke-width:2;"/>
   </g>
   <g id="patch_3">
    <path d="M 180.521557 202.68 
L 180.521557 13.32 
" style="fill:none;stroke:#000000;stroke-linecap:square;stroke-linejoin:miter;stroke-width:0.8;"/>
   </g>
   <g id="patch_4">
    <path d="M 346.68 202.68 
L 346.68 13.32 
" style="fill:none;"/>
   </g>
   <g id="patch_5">
    <path d="M 14.363115 108 
L 346.68 108 
" style="fill:none;stroke:#000000;stroke-linecap:square;stroke-linejoin:miter;stroke-width:0.8;"/>
   </g>
   <g id="patch_6">
    <path d="M 14.363115 13.32 
L 346.68 13.32 
" style="fill:none;"/>
   </g>
  </g>
 </g>
 <defs>
  <clipPath id="pc182ce38ee">
   <rect height="189.36" width="332.316885" x="14.363115" y="13.32"/>
  </clipPath>
 </defs>
</svg>
