<svg height="460.8" viewBox="0 0 460.8 345.6" width="614.4" xmlns="http://www.w3.org/2000/svg" xmlns:xlink="http://www.w3.org/1999/xlink"><defs><style>*{stroke-linecap:butt;stroke-linejoin:round}</style></defs><g id="figure_1"><path d="M0 345.6h460.8V0H0z" fill="#fff" id="patch_1"/><g id="axes_1"><path d="M57.6 307.6h357.1V41.5H57.6z" fill="#fff" id="patch_2"/><g id="matplotlib.axis_1"><g id="xtick_1"><g id="line2d_1"><defs><path d="M0 0v3.5" id="mba6971f12c" stroke="#000" stroke-width=".8"/></defs><use x="107.4" xlink:href="#mba6971f12c" y="307.6" stroke="#000" stroke-width=".8"/></g><g id="text_1"><defs><path d="M10.6 35.5h62.6v-8.3H10.6z" id="DejaVuSans-8722"/><path d="M19.2 8.3h34.4V0H7.3v8.3l15.3 15.6q9.7 9.8 12.2 12.6 4.7 5.3 6.6 9 2 3.7 2 7.3 0 5.8-4.2 9.5-4 3.6-10.6 3.6-4.6 0-9.8-1.6-5.1-1.6-11-4.9v10q6 2.4 11.1 3.6 5.2 1.2 9.5 1.2 11.4 0 18-5.7 6.8-5.6 6.8-15 0-4.6-1.7-8.6-1.6-4-6-9.5l-7.9-8.2L19.2 8.3z" id="DejaVuSans-50"/></defs><g transform="matrix(.1 0 0 -.1 100 322.2)"><use xlink:href="#DejaVuSans-8722"/><use x="83.8" xlink:href="#DejaVuSans-50"/></g></g></g><g id="xtick_2"><use x="158.7" xlink:href="#mba6971f12c" y="307.6" stroke="#000" stroke-width=".8" id="line2d_2"/><g id="text_2"><defs><path d="M12.4 8.3h16.1v55.6L11 60.4v9l17.4 3.5h9.9V8.3h16V0H12.5z" id="DejaVuSans-49"/></defs><g transform="matrix(.1 0 0 -.1 151.3 322.2)"><use xlink:href="#DejaVuSans-8722"/><use x="83.8" xlink:href="#DejaVuSans-49"/></g></g></g><g id="xtick_3"><use x="209.9" xlink:href="#mba6971f12c" y="307.6" stroke="#000" stroke-width=".8" id="line2d_3"/><g id="text_3"><defs><path d="M31.8 66.4q-7.6 0-11.5-7.5-3.8-7.5-3.8-22.5t3.8-22.5q3.9-7.5 11.5-7.5 7.7 0 11.5 7.5T47 36.4q0 15-3.8 22.5t-11.5 7.5zm0 7.8q12.2 0 18.7-9.7T57 36.4Q57 18 50.5 8.3 44-1.4 31.8-1.4 19.5-1.4 13 8.3q-6.5 9.7-6.5 28 0 18.5 6.5 28.2 6.4 9.7 18.7 9.7z" id="DejaVuSans-48"/></defs><use xlink:href="#DejaVuSans-48" transform="matrix(.1 0 0 -.1 206.8 322.2)"/></g></g><g id="xtick_4"><use x="261.2" xlink:href="#mba6971f12c" y="307.6" stroke="#000" stroke-width=".8" id="line2d_4"/><use xlink:href="#DejaVuSans-49" transform="matrix(.1 0 0 -.1 258 322.2)" id="text_4"/></g><g id="xtick_5"><use x="312.5" xlink:href="#mba6971f12c" y="307.6" stroke="#000" stroke-width=".8" id="line2d_5"/><use xlink:href="#DejaVuSans-50" transform="matrix(.1 0 0 -.1 309.3 322.2)" id="text_5"/></g><g id="xtick_6"><use x="363.7" xlink:href="#mba6971f12c" y="307.6" stroke="#000" stroke-width=".8" id="line2d_6"/><g id="text_6"><defs><path d="M40.6 39.3q7-1.5 11-6.3t4-11.8q0-10.8-7.4-16.7-7.4-6-21.1-6-4.6 0-9.4 1-4.9.9-10 2.7v9.5q4-2.4 8.9-3.6Q21.5 7 26.8 7q9.3 0 14.1 3.6 4.9 3.7 4.9 10.7 0 6.4-4.5 10Q36.8 35 28.7 35h-8.5V43h9q7.2 0 11 3 3.9 2.8 3.9 8.3 0 5.6-4 8.6t-11.4 3q-4 0-8.7-.9-4.6-.8-10.2-2.7v8.8q5.6 1.6 10.5 2.3 5 .8 9.3.8 11.2 0 17.8-5 6.5-5.2 6.5-13.9 0-6-3.5-10.2-3.4-4.2-9.8-5.8z" id="DejaVuSans-51"/></defs><use xlink:href="#DejaVuSans-51" transform="matrix(.1 0 0 -.1 360.5 322.2)"/></g></g></g><g id="matplotlib.axis_2"><g id="ytick_1"><g id="line2d_7"><defs><path d="M0 0h-3.5" id="m40a848d15f" stroke="#000" stroke-width=".8"/></defs><use x="57.6" xlink:href="#m40a848d15f" y="271.8" stroke="#000" stroke-width=".8"/></g><g transform="matrix(.1 0 0 -.1 35.9 275.6)" id="text_7"><use xlink:href="#DejaVuSans-8722"/><use x="83.8" xlink:href="#DejaVuSans-50"/></g></g><g id="ytick_2"><use x="57.6" xlink:href="#m40a848d15f" y="220.2" stroke="#000" stroke-width=".8" id="line2d_8"/><g transform="matrix(.1 0 0 -.1 35.9 224)" id="text_8"><use xlink:href="#DejaVuSans-8722"/><use x="83.8" xlink:href="#DejaVuSans-49"/></g></g><g id="ytick_3"><use x="57.6" xlink:href="#m40a848d15f" y="168.5" stroke="#000" stroke-width=".8" id="line2d_9"/><use xlink:href="#DejaVuSans-48" transform="matrix(.1 0 0 -.1 44.2 172.3)" id="text_9"/></g><g id="ytick_4"><use x="57.6" xlink:href="#m40a848d15f" y="116.9" stroke="#000" stroke-width=".8" id="line2d_10"/><use xlink:href="#DejaVuSans-49" transform="matrix(.1 0 0 -.1 44.2 120.7)" id="text_10"/></g><g id="ytick_5"><use x="57.6" xlink:href="#m40a848d15f" y="65.2" stroke="#000" stroke-width=".8" id="line2d_11"/><use xlink:href="#DejaVuSans-50" transform="matrix(.1 0 0 -.1 44.2 69)" id="text_11"/></g></g><g id="line2d_12"><defs><path d="M0 1.5a1.5 1.5 0 100-3 1.5 1.5 0 000 3z" id="m27905c8130" stroke="#1f77b4"/></defs><g clip-path="url(#p492ff6bfbe)" fill="#1f77b4" stroke="#1f77b4"><use x="153.2" xlink:href="#m27905c8130" y="233.1"/><use x="244.3" xlink:href="#m27905c8130" y="262.7"/><use x="184.1" xlink:href="#m27905c8130" y="162.9"/><use x="174.2" xlink:href="#m27905c8130" y="96"/><use x="275.1" xlink:href="#m27905c8130" y="139.1"/><use x="164.1" xlink:href="#m27905c8130" y="188.9"/><use x="142.2" xlink:href="#m27905c8130" y="199.9"/><use x="304.8" xlink:href="#m27905c8130" y="133.9"/><use x="226.6" xlink:href="#m27905c8130" y="139.1"/><use x="228.1" xlink:href="#m27905c8130" y="132.1"/><use x="156.3" xlink:href="#m27905c8130" y="119.2"/><use x="175.8" xlink:href="#m27905c8130" y="251.2"/><use x="234.5" xlink:href="#m27905c8130" y="114"/><use x="290.1" xlink:href="#m27905c8130" y="228.7"/><use x="131.9" xlink:href="#m27905c8130" y="187.9"/><use x="223.1" xlink:href="#m27905c8130" y="184.1"/><use x="211.7" xlink:href="#m27905c8130" y="295.5"/><use x="183.6" xlink:href="#m27905c8130" y="137.3"/><use x="238.7" xlink:href="#m27905c8130" y="160.4"/><use x="178" xlink:href="#m27905c8130" y="195.2"/><use x="185.7" xlink:href="#m27905c8130" y="237.1"/><use x="268.1" xlink:href="#m27905c8130" y="188.3"/><use x="201.9" xlink:href="#m27905c8130" y="141.2"/><use x="225.6" xlink:href="#m27905c8130" y="200.3"/><use x="242.4" xlink:href="#m27905c8130" y="152.1"/><use x="251.7" xlink:href="#m27905c8130" y="56.7"/><use x="129.5" xlink:href="#m27905c8130" y="76.6"/><use x="192.9" xlink:href="#m27905c8130" y="165.2"/><use x="240" xlink:href="#m27905c8130" y="113"/><use x="243.9" xlink:href="#m27905c8130" y="216.2"/><use x="187.9" xlink:href="#m27905c8130" y="122.3"/><use x="252.1" xlink:href="#m27905c8130" y="152.8"/><use x="221.9" xlink:href="#m27905c8130" y="175"/><use x="219.1" xlink:href="#m27905c8130" y="96.3"/><use x="143.4" xlink:href="#m27905c8130" y="159.8"/><use x="148.2" xlink:href="#m27905c8130" y="211.2"/><use x="285.7" xlink:href="#m27905c8130" y="244.7"/><use x="199.4" xlink:href="#m27905c8130" y="200.6"/><use x="199.1" xlink:href="#m27905c8130" y="244.5"/><use x="192.7" xlink:href="#m27905c8130" y="53.6"/><use x="315.5" xlink:href="#m27905c8130" y="190.5"/><use x="277.5" xlink:href="#m27905c8130" y="178.6"/><use x="202.9" xlink:href="#m27905c8130" y="105"/><use x="236.9" xlink:href="#m27905c8130" y="72.4"/><use x="216.1" xlink:href="#m27905c8130" y="58"/><use x="223.9" xlink:href="#m27905c8130" y="181.5"/><use x="171.2" xlink:href="#m27905c8130" y="171.1"/><use x="191.7" xlink:href="#m27905c8130" y="109.1"/><use x="217.6" xlink:href="#m27905c8130" y="115.7"/><use x="186.4" xlink:href="#m27905c8130" y="162.1"/><use x="161.9" xlink:href="#m27905c8130" y="90.5"/><use x="106.8" xlink:href="#m27905c8130" y="234.6"/><use x="263.6" xlink:href="#m27905c8130" y="159.7"/><use x="254.1" xlink:href="#m27905c8130" y="72.1"/><use x="253.2" xlink:href="#m27905c8130" y="241.3"/><use x="232.9" xlink:href="#m27905c8130" y="209.6"/><use x="279.7" xlink:href="#m27905c8130" y="147.6"/><use x="240.5" xlink:href="#m27905c8130" y="147.2"/><use x="192" xlink:href="#m27905c8130" y="151.6"/><use x="283.9" xlink:href="#m27905c8130" y="133"/><use x="146.7" xlink:href="#m27905c8130" y="204"/><use x="179.3" xlink:href="#m27905c8130" y="168.1"/><use x="293" xlink:href="#m27905c8130" y="114.7"/><use x="251.2" xlink:href="#m27905c8130" y="210.5"/><use x="234.8" xlink:href="#m27905c8130" y="198.7"/><use x="292.5" xlink:href="#m27905c8130" y="217.1"/><use x="166" xlink:href="#m27905c8130" y="118.3"/><use x="156.2" xlink:href="#m27905c8130" y="127.1"/><use x="242.3" xlink:href="#m27905c8130" y="87"/><use x="246.9" xlink:href="#m27905c8130" y="224.7"/><use x="268.4" xlink:href="#m27905c8130" y="250.2"/><use x="242.5" xlink:href="#m27905c8130" y="117.4"/><use x="146.1" xlink:href="#m27905c8130" y="148.7"/><use x="266.3" xlink:href="#m27905c8130" y="169"/><use x="246.3" xlink:href="#m27905c8130" y="190.4"/><use x="260.6" xlink:href="#m27905c8130" y="111.2"/><use x="73.8" xlink:href="#m27905c8130" y="220.7"/><use x="234.8" xlink:href="#m27905c8130" y="213.6"/><use x="321.1" xlink:href="#m27905c8130" y="175.6"/><use x="191.9" xlink:href="#m27905c8130" y="127.6"/><use x="247.9" xlink:href="#m27905c8130" y="129.9"/><use x="201.4" xlink:href="#m27905c8130" y="145.9"/><use x="398.5" xlink:href="#m27905c8130" y="170.5"/><use x="175.4" xlink:href="#m27905c8130" y="220.4"/><use x="177.2" xlink:href="#m27905c8130" y="187.1"/><use x="195.4" xlink:href="#m27905c8130" y="136.6"/><use x="285.7" xlink:href="#m27905c8130" y="79.6"/><use x="172.1" xlink:href="#m27905c8130" y="161.5"/><use x="257.9" xlink:href="#m27905c8130" y="72.7"/><use x="259.5" xlink:href="#m27905c8130" y="258"/><use x="163.8" xlink:href="#m27905c8130" y="130.9"/><use x="227.8" xlink:href="#m27905c8130" y="122.2"/><use x="222.4" xlink:href="#m27905c8130" y="192.6"/><use x="278.7" xlink:href="#m27905c8130" y="115.3"/><use x="227.8" xlink:href="#m27905c8130" y="177.1"/><use x="207" xlink:href="#m27905c8130" y="257"/><use x="230.7" xlink:href="#m27905c8130" y="84.3"/><use x="233.9" xlink:href="#m27905c8130" y="147.6"/><use x="145.3" xlink:href="#m27905c8130" y="134.9"/><use x="195.1" xlink:href="#m27905c8130" y="126.3"/></g></g><path d="M57.6 307.6V41.5" fill="none" stroke="#000" stroke-linecap="square" stroke-width=".8" id="patch_3"/><path d="M414.7 307.6V41.5" fill="none" stroke="#000" stroke-linecap="square" stroke-width=".8" id="patch_4"/><path d="M57.6 307.6h357.1" fill="none" stroke="#000" stroke-linecap="square" stroke-width=".8" id="patch_5"/><path d="M57.6 41.5h357.1" fill="none" stroke="#000" stroke-linecap="square" stroke-width=".8" id="patch_6"/></g></g><defs><clipPath id="p492ff6bfbe"><path d="M57.6 41.5h357.1v266.1H57.6z"/></clipPath></defs></svg>