<svg height="349.6" viewBox="0 0 400.5 262.2" width="534" xmlns="http://www.w3.org/2000/svg" xmlns:xlink="http://www.w3.org/1999/xlink"><defs><style>*{stroke-linecap:butt;stroke-linejoin:round}</style></defs><g id="figure_1"><path d="M0 262.2h400.5V0H0z" fill="none" id="patch_1"/><g id="axes_1"><path d="M58.5 224.6h334.8V7.2H58.5z" fill="#fff" id="patch_2"/><g id="matplotlib.axis_1"><g id="xtick_1"><g id="line2d_1"><defs><path d="M0 0v3.5" id="m1a9acf5a40" stroke="#000" stroke-width=".8"/></defs><use x="73.7" xlink:href="#m1a9acf5a40" y="224.6" stroke="#000" stroke-width=".8"/></g><g id="text_1"><defs><path d="M31.8 66.4q-7.6 0-11.5-7.5-3.8-7.5-3.8-22.5t3.8-22.5q3.9-7.5 11.5-7.5 7.7 0 11.5 7.5T47 36.4q0 15-3.8 22.5t-11.5 7.5zm0 7.8q12.2 0 18.7-9.7T57 36.4Q57 18 50.5 8.3 44-1.4 31.8-1.4 19.5-1.4 13 8.3q-6.5 9.7-6.5 28 0 18.5 6.5 28.2 6.4 9.7 18.7 9.7z" id="DejaVuSans-48"/></defs><use xlink:href="#DejaVuSans-48" transform="matrix(.1 0 0 -.1 70.6 239.2)"/></g></g><g id="xtick_2"><use x="114.2" xlink:href="#m1a9acf5a40" y="224.6" stroke="#000" stroke-width=".8" id="line2d_2"/><g id="text_2"><defs><path d="M12.4 8.3h16.1v55.6L11 60.4v9l17.4 3.5h9.9V8.3h16V0H12.5z" id="DejaVuSans-49"/></defs><g transform="matrix(.1 0 0 -.1 104.6 239.2)"><use xlink:href="#DejaVuSans-49"/><use x="63.6" xlink:href="#DejaVuSans-48"/><use x="127.2" xlink:href="#DejaVuSans-48"/></g></g></g><g id="xtick_3"><use x="154.6" xlink:href="#m1a9acf5a40" y="224.6" stroke="#000" stroke-width=".8" id="line2d_3"/><g id="text_3"><defs><path d="M19.2 8.3h34.4V0H7.3v8.3l15.3 15.6q9.7 9.8 12.2 12.6 4.7 5.3 6.6 9 2 3.7 2 7.3 0 5.8-4.2 9.5-4 3.6-10.6 3.6-4.6 0-9.8-1.6-5.1-1.6-11-4.9v10q6 2.4 11.1 3.6 5.2 1.2 9.5 1.2 11.4 0 18-5.7 6.8-5.6 6.8-15 0-4.6-1.7-8.6-1.6-4-6-9.5l-7.9-8.2L19.2 8.3z" id="DejaVuSans-50"/></defs><g transform="matrix(.1 0 0 -.1 145 239.2)"><use xlink:href="#DejaVuSans-50"/><use x="63.6" xlink:href="#DejaVuSans-48"/><use x="127.2" xlink:href="#DejaVuSans-48"/></g></g></g><g id="xtick_4"><use x="195" xlink:href="#m1a9acf5a40" y="224.6" stroke="#000" stroke-width=".8" id="line2d_4"/><g id="text_4"><defs><path d="M40.6 39.3q7-1.5 11-6.3t4-11.8q0-10.8-7.4-16.7-7.4-6-21.1-6-4.6 0-9.4 1-4.9.9-10 2.7v9.5q4-2.4 8.9-3.6Q21.5 7 26.8 7q9.3 0 14.1 3.6 4.9 3.7 4.9 10.7 0 6.4-4.5 10Q36.8 35 28.7 35h-8.5V43h9q7.2 0 11 3 3.9 2.8 3.9 8.3 0 5.6-4 8.6t-11.4 3q-4 0-8.7-.9-4.6-.8-10.2-2.7v8.8q5.6 1.6 10.5 2.3 5 .8 9.3.8 11.2 0 17.8-5 6.5-5.2 6.5-13.9 0-6-3.5-10.2-3.4-4.2-9.8-5.8z" id="DejaVuSans-51"/></defs><g transform="matrix(.1 0 0 -.1 185.5 239.2)"><use xlink:href="#DejaVuSans-51"/><use x="63.6" xlink:href="#DejaVuSans-48"/><use x="127.2" xlink:href="#DejaVuSans-48"/></g></g></g><g id="xtick_5"><use x="235.4" xlink:href="#m1a9acf5a40" y="224.6" stroke="#000" stroke-width=".8" id="line2d_5"/><g id="text_5"><defs><path d="M37.8 64.3l-25-39h25zM35.2 73h12.4V25.4H58v-8.2H47.6V0h-9.8v17.2h-33v9.5z" id="DejaVuSans-52"/></defs><g transform="matrix(.1 0 0 -.1 225.9 239.2)"><use xlink:href="#DejaVuSans-52"/><use x="63.6" xlink:href="#DejaVuSans-48"/><use x="127.2" xlink:href="#DejaVuSans-48"/></g></g></g><g id="xtick_6"><use x="275.8" xlink:href="#m1a9acf5a40" y="224.6" stroke="#000" stroke-width=".8" id="line2d_6"/><g id="text_6"><defs><path d="M10.8 73h38.7v-8.4H19.8V46.7q2.2.8 4.3 1.1 2.2.4 4.3.4 12.2 0 19.4-6.7 7-6.7 7-18.1 0-11.8-7.2-18.3-7.4-6.5-20.7-6.5-4.6 0-9.4.8-4.7.7-9.8 2.3v10q4.4-2.5 9.1-3.6 4.7-1.2 9.9-1.2 8.5 0 13.4 4.4 5 4.5 5 12 0 7.7-5 12.1Q35 40 26.7 40q-4 0-7.9-.9-4-.9-8-2.7z" id="DejaVuSans-53"/></defs><g transform="matrix(.1 0 0 -.1 266.3 239.2)"><use xlink:href="#DejaVuSans-53"/><use x="63.6" xlink:href="#DejaVuSans-48"/><use x="127.2" xlink:href="#DejaVuSans-48"/></g></g></g><g id="xtick_7"><use x="316.3" xlink:href="#m1a9acf5a40" y="224.6" stroke="#000" stroke-width=".8" id="line2d_7"/><g id="text_7"><defs><path d="M33 40.4q-6.6 0-10.5-4.6-3.9-4.5-3.9-12.4T22.5 11Q26.4 6.4 33 6.4q6.7 0 10.5 4.6 4 4.5 4 12.4t-4 12.4q-3.8 4.6-10.5 4.6zm19.6 30.9v-9Q48.9 64.1 45 65q-3.8 1-7.5 1-9.8 0-15-6.7-5-6.6-5.8-19.9 2.9 4.3 7.2 6.5 4.4 2.3 9.6 2.3 11 0 17.4-6.7 6.3-6.6 6.3-18.1 0-11.2-6.6-18Q44-1.4 33-1.4q-12.6 0-19.3 9.7Q7 18 7 36.3 7 53.8 15.2 64q8.2 10.3 22 10.3 3.7 0 7.5-.7 3.8-.8 7.9-2.2z" id="DejaVuSans-54"/></defs><g transform="matrix(.1 0 0 -.1 306.7 239.2)"><use xlink:href="#DejaVuSans-54"/><use x="63.6" xlink:href="#DejaVuSans-48"/><use x="127.2" xlink:href="#DejaVuSans-48"/></g></g></g><g id="xtick_8"><use x="356.7" xlink:href="#m1a9acf5a40" y="224.6" stroke="#000" stroke-width=".8" id="line2d_8"/><g id="text_8"><defs><path d="M8.2 73h46.9v-4.3L28.6 0H18.3l25 64.6H8.1z" id="DejaVuSans-55"/></defs><g transform="matrix(.1 0 0 -.1 347.1 239.2)"><use xlink:href="#DejaVuSans-55"/><use x="63.6" xlink:href="#DejaVuSans-48"/><use x="127.2" xlink:href="#DejaVuSans-48"/></g></g></g><g id="text_9"><defs><path d="M19.7 64.8V8.1h11.9q15 0 22 6.8 7 6.9 7 21.6 0 14.7-7 21.5-7 6.8-22 6.8zm-9.9 8.1h20.3q21.2 0 31-8.8 10-8.8 10-27.6T61 8.8Q51.1 0 30.1 0H9.8z" id="DejaVuSans-68"/><path d="M34.3 27.5q-11 0-15.1-2.5-4.2-2.5-4.2-8.5 0-4.8 3.1-7.6 3.2-2.8 8.6-2.8 7.5 0 12 5.3t4.5 14v2zm17.9 3.7V0h-9v8.3q-3-5-7.7-7.3Q31-1.4 24.3-1.4 16-1.4 11 3.3 6 8 6 15.9q0 9.2 6.2 14 6.2 4.6 18.4 4.6h12.6v1q0 6.1-4 9.5-4.1 3.4-11.5 3.4-4.7 0-9.2-1.1-4.4-1.2-8.5-3.4v8.3q5 2 9.6 2.8 4.6 1 9 1 11.9 0 17.7-6.2 5.9-6.1 5.9-18.6z" id="DejaVuSans-97"/><path d="M32.2-5q-3.8-9.8-7.5-12.8-3.6-3-9.6-3H7.9v7.5h5.3q3.7 0 5.7 1.8 2.1 1.7 4.6 8.3l1.6 4L3 54.8h9.5l17-42.8 17.2 42.8h9.5z" id="DejaVuSans-121"/><path d="M44.3 53v-8.4q-3.8 2-8 2.9-4 1-8.4 1-6.7 0-10-2-3.4-2.1-3.4-6.2 0-3.1 2.4-5 2.4-1.7 9.6-3.3l3-.7q9.7-2 13.7-5.8 4-3.7 4-10.4 0-7.6-6-12-6-4.5-16.6-4.5-4.4 0-9.1.8-4.8.9-10 2.6v9.3q5-2.6 9.7-4 4.9-1.2 9.6-1.2 6.4 0 9.8 2.2 3.4 2.2 3.4 6.1 0 3.7-2.5 5.6-2.4 2-10.8 3.8l-3.1.7q-8.4 1.8-12 5.4-3.8 3.6-3.8 10 0 7.7 5.5 11.9Q16.7 56 26.8 56q5 0 9.4-.7 4.4-.8 8-2.2z" id="DejaVuSans-115"/><path d="M9.4 54.7h9V0h-9zm0 21.3h9V64.6h-9z" id="DejaVuSans-105"/><path d="M54.9 33V0h-9v32.7q0 7.8-3 11.6-3 3.9-9.1 3.9-7.3 0-11.5-4.7Q18.1 39 18.1 31V0h-9v54.7h9v-8.5q3.2 5 7.6 7.4Q30.1 56 35.8 56q9.4 0 14.2-5.8Q55 44.3 55 33z" id="DejaVuSans-110"/><path d="M48.8 52.6v-8.4Q45 46.3 41 47.3q-3.8 1-7.7 1-8.7 0-13.6-5.5Q15 37.3 15 27.3t4.8-15.6q4.9-5.5 13.6-5.5 4 0 7.7 1 3.9 1.1 7.7 3.2V2.1Q45 .3 41-.5q-4-1-8.6-1-12.3 0-19.6 7.8-7.3 7.8-7.3 21 0 13.4 7.4 21Q20.2 56 33 56q4.2 0 8.1-.9 4-.8 7.7-2.5z" id="DejaVuSans-99"/><path d="M56.2 29.6v-4.4H14.9q.6-9.3 5.6-14.1 5-4.9 14-4.9 5 0 10 1.3 4.8 1.2 9.6 3.8V2.8q-4.8-2-10-3.1-5-1.1-10.2-1.1-13.1 0-20.7 7.6-7.7 7.6-7.7 20.6 0 13.4 7.3 21.3Q20 56 32.3 56q11 0 17.5-7.1 6.4-7.1 6.4-19.3zm-9 2.6q0 7.4-4.1 11.8-4 4.4-10.7 4.4-7.5 0-12-4.3-4.5-4.2-5.2-12z" id="DejaVuSans-101"/><path d="M25.4 73h8.3L8.3-9.4H0z" id="DejaVuSans-47"/></defs><g transform="matrix(.1 0 0 -.1 171.6 253)"><use xlink:href="#DejaVuSans-68"/><use x="77" xlink:href="#DejaVuSans-97"/><use x="138.3" xlink:href="#DejaVuSans-121"/><use x="197.5" xlink:href="#DejaVuSans-115"/><use x="249.6" xlink:href="#DejaVuSans-32"/><use x="281.3" xlink:href="#DejaVuSans-115"/><use x="333.4" xlink:href="#DejaVuSans-105"/><use x="361.2" xlink:href="#DejaVuSans-110"/><use x="424.6" xlink:href="#DejaVuSans-99"/><use x="479.6" xlink:href="#DejaVuSans-101"/><use x="541.1" xlink:href="#DejaVuSans-32"/><use x="572.9" xlink:href="#DejaVuSans-49"/><use x="636.5" xlink:href="#DejaVuSans-49"/><use x="700.1" xlink:href="#DejaVuSans-47"/><use x="733.8" xlink:href="#DejaVuSans-50"/><use x="797.5" xlink:href="#DejaVuSans-47"/><use x="831.2" xlink:href="#DejaVuSans-50"/><use x="894.8" xlink:href="#DejaVuSans-48"/><use x="958.4" xlink:href="#DejaVuSans-49"/><use x="1022" xlink:href="#DejaVuSans-54"/></g></g></g><g id="matplotlib.axis_2"><g id="ytick_1"><g id="line2d_9"><defs><path d="M0 0h-3.5" id="m367b490a84" stroke="#000" stroke-width=".8"/></defs><use x="58.5" xlink:href="#m367b490a84" y="210.7" stroke="#000" stroke-width=".8"/></g><g id="text_10"><defs><path d="M10.6 35.5h62.6v-8.3H10.6z" id="DejaVuSans-8722"/><path d="M10.7 12.4H21V0H10.7z" id="DejaVuSans-46"/></defs><g transform="matrix(.1 0 0 -.1 20.9 214.5)"><use xlink:href="#DejaVuSans-8722"/><use x="83.8" xlink:href="#DejaVuSans-48"/><use x="147.4" xlink:href="#DejaVuSans-46"/><use x="179.2" xlink:href="#DejaVuSans-48"/><use x="242.8" xlink:href="#DejaVuSans-52"/></g></g></g><g id="ytick_2"><use x="58.5" xlink:href="#m367b490a84" y="166.9" stroke="#000" stroke-width=".8" id="line2d_10"/><g transform="matrix(.1 0 0 -.1 20.9 170.7)" id="text_11"><use xlink:href="#DejaVuSans-8722"/><use x="83.8" xlink:href="#DejaVuSans-48"/><use x="147.4" xlink:href="#DejaVuSans-46"/><use x="179.2" xlink:href="#DejaVuSans-48"/><use x="242.8" xlink:href="#DejaVuSans-50"/></g></g><g id="ytick_3"><use x="58.5" xlink:href="#m367b490a84" y="123.1" stroke="#000" stroke-width=".8" id="line2d_11"/><g transform="matrix(.1 0 0 -.1 29.3 126.9)" id="text_12"><use xlink:href="#DejaVuSans-48"/><use x="63.6" xlink:href="#DejaVuSans-46"/><use x="95.4" xlink:href="#DejaVuSans-48"/><use x="159" xlink:href="#DejaVuSans-48"/></g></g><g id="ytick_4"><use x="58.5" xlink:href="#m367b490a84" y="79.3" stroke="#000" stroke-width=".8" id="line2d_12"/><g transform="matrix(.1 0 0 -.1 29.3 83.1)" id="text_13"><use xlink:href="#DejaVuSans-48"/><use x="63.6" xlink:href="#DejaVuSans-46"/><use x="95.4" xlink:href="#DejaVuSans-48"/><use x="159" xlink:href="#DejaVuSans-50"/></g></g><g id="ytick_5"><use x="58.5" xlink:href="#m367b490a84" y="35.5" stroke="#000" stroke-width=".8" id="line2d_13"/><g transform="matrix(.1 0 0 -.1 29.3 39.3)" id="text_14"><use xlink:href="#DejaVuSans-48"/><use x="63.6" xlink:href="#DejaVuSans-46"/><use x="95.4" xlink:href="#DejaVuSans-48"/><use x="159" xlink:href="#DejaVuSans-52"/></g></g><g id="text_15"><defs><path d="M9.8 73h9.9V8.2h35.5V0H9.8z" id="DejaVuSans-76"/><path d="M30.6 48.4q-7.2 0-11.4-5.6Q15 37 15 27.3t4.2-15.5q4.1-5.6 11.4-5.6 7.2 0 11.4 5.7 4.2 5.6 4.2 15.4 0 9.7-4.2 15.4-4.2 5.7-11.4 5.7zm0 7.6q11.7 0 18.4-7.6 6.7-7.6 6.7-21.1 0-13.4-6.7-21-6.7-7.7-18.4-7.7-11.8 0-18.4 7.6Q5.5 14 5.5 27.3q0 13.5 6.7 21Q18.8 56 30.6 56z" id="DejaVuSans-111"/><path d="M45.4 28q0 9.8-4 15.1-4 5.4-11.3 5.4-7.2 0-11.3-5.4-4-5.4-4-15.1t4-15.1q4-5.4 11.3-5.4 7.3 0 11.3 5.4 4 5.4 4 15zm9-21.2q0-14-6.2-20.8-6.2-6.8-19-6.8-4.7 0-9 .7-4.1.7-8 2.2v8.7q3.9-2.1 7.7-3.1 3.9-1 7.9-1 8.8 0 13.2 4.5 4.4 4.6 4.4 14v4.4q-2.8-4.8-7.1-7.2Q33.9 0 27.9 0q-10 0-16.2 7.7Q5.5 15.3 5.5 28q0 12.7 6.2 20.3Q17.8 56 27.9 56q6 0 10.4-2.4 4.3-2.4 7.1-7.2v8.3h9z" id="DejaVuSans-103"/><path d="M41.1 46.3q-1.5.9-3.3 1.3-1.8.4-4 .4-7.5 0-11.6-5-4-5-4-14.2V0H9v54.7h9v-8.5q2.9 5 7.4 7.4Q30 56 36.5 56l2-.1 2.6-.4z" id="DejaVuSans-114"/><path d="M18.3 70.2V54.7h18.5v-7H18.3V18q0-6.7 1.8-8.6 1.9-1.9 7.5-1.9h9.2V0h-9.2Q17.2 0 13.2 3.9T9.2 18v29.7H2.8v7h6.6v15.5z" id="DejaVuSans-116"/><path d="M54.9 33V0h-9v32.7q0 7.8-3 11.6-3 3.9-9.1 3.9-7.3 0-11.5-4.7Q18.1 39 18.1 31V0h-9v76h9V46.2q3.2 5 7.6 7.4Q30.1 56 35.8 56q9.4 0 14.2-5.8Q55 44.3 55 33z" id="DejaVuSans-104"/><path d="M52 44.2q3.4 6 8 9Q64.9 56 71 56q8.6 0 13.3-6 4.6-6 4.6-17V0h-9v32.7q0 7.9-2.8 11.7-2.8 3.8-8.5 3.8-7 0-11-4.7-4-4.6-4-12.6V0h-9.1v32.7q0 8-2.8 11.7-2.8 3.8-8.6 3.8-6.9 0-11-4.7-4-4.6-4-12.6V0h-9v54.7h9v-8.5q3 5 7.4 7.4Q29.8 56 35.7 56q6 0 10.1-3 4.2-3 6.2-8.8z" id="DejaVuSans-109"/><path d="M44.4 34.2q3.2-1 6.2-4.6 3-3.5 6-9.7L66.6 0H56l-9.3 18.7q-3.6 7.3-7 9.7-3.4 2.4-9.3 2.4H19.7V0H9.8v73h22.3q12.5 0 18.6-5.3Q57 62.5 57 51.9q0-6.9-3.2-11.4-3.2-4.6-9.3-6.3zM19.7 64.8V38.9H32q7.1 0 10.7 3.3 3.7 3.3 3.7 9.7 0 6.4-3.7 9.6-3.6 3.3-10.7 3.3z" id="DejaVuSans-82"/><path d="M8.5 21.6v33h9V22q0-7.7 3-11.6 3-4 9-4 7.4 0 11.6 4.7 4.2 4.7 4.2 12.7v31h9V0h-9v8.4Q42 3.4 37.7 1q-4.3-2.4-10-2.4-9.4 0-14.3 5.8-4.9 5.9-4.9 17.2zM31.1 56z" id="DejaVuSans-117"/></defs><g transform="matrix(0 -.1 -.1 0 14.8 166.7)"><use xlink:href="#DejaVuSans-76"/><use x="55.7" xlink:href="#DejaVuSans-111"/><use x="116.9" xlink:href="#DejaVuSans-103"/><use x="180.4" xlink:href="#DejaVuSans-97"/><use x="241.6" xlink:href="#DejaVuSans-114"/><use x="282.7" xlink:href="#DejaVuSans-105"/><use x="310.5" xlink:href="#DejaVuSans-116"/><use x="349.7" xlink:href="#DejaVuSans-104"/><use x="413.1" xlink:href="#DejaVuSans-109"/><use x="510.5" xlink:href="#DejaVuSans-105"/><use x="538.3" xlink:href="#DejaVuSans-99"/><use x="593.3" xlink:href="#DejaVuSans-32"/><use x="625.1" xlink:href="#DejaVuSans-82"/><use x="694.5" xlink:href="#DejaVuSans-101"/><use x="756" xlink:href="#DejaVuSans-116"/><use x="795.2" xlink:href="#DejaVuSans-117"/><use x="858.6" xlink:href="#DejaVuSans-114"/><use x="899.7" xlink:href="#DejaVuSans-110"/><use x="963.1" xlink:href="#DejaVuSans-115"/></g></g></g><path clip-path="url(#paa24c8d079)" d="M73.7 132.8l.4-6 .5-51.8.4 39.9.4-16 .4 20 .4 7.3.4-2.8.4-16.6.4 19.8.4-13.7.4 15.4.4-21.5.4 11.6.4 3 .4-6.9.4 20.1.4-14.4.4 8.7.4 2 .4-8.7.4-11.8.4 5.2.4-21.1.4 23.9.4-8.3.5 15.5.4-16.8.4 32.2.4-26.4.4 12.3.4-8.1.4-3.6.4 13.3.4-1.3.4-6.8.4-2.2.4 23.3.4-17.8.4 9.6.4-28.7.4 6 .4 14.2.4-9.4.4 15.5.8-14 .4 11 .4-8.8.4 10.5.5-10.4.4 11.8.4-15.3.4 13.3.4-20.2.4-3.2.4 19.1.4.3.4 11.3.4-11.2.4-2.6.4-.6.4-14.7.4 20.5.4-5 .4-1.1.4-11 .4 4.7.4-3.7.4 2.7.4-2.1.4 12.8.4-5.6.4-9.5.5 15.6.4-3.3.4-2.4.4 1 .4 8 .4-35.4.4 42.6.4-14 .4 8.3.4-.8.4-1.4.8-12.1.4 6.3.4 8.2.4-25.7.4 21.9.4-.7.4 1.5.4 23 .4-31.5.4 6.4.4-.4.4.3.5-18 .4 13.4.4-4 .4 11.4.4-1.4.4-4.8.4 8 .4-11 .4 6 .4-3.3.8 9.8.4 6.7.4-33.8.4 25.2.4-2.6.4-20.3.4 23.2.4-30.3.4 10.3.4 14.4.4-2.3.4 5.4.4-8 .5 1.2.4 5.4.4-4 .4-7.7.4 8.8.4 2.4.4-4.8.4 7.2.4-1.5.4-13.6.4 12 .4 38.6.4-48.3.4-6.7.4 3.5.4 7.3.4-1.4.4-4.3.4 9 .4 3.3.4-1.6.4-17.5.4 8.4.5 10.8.4 3.4.4-9.5.8 5.2.4.3.4-12 .4 12 .4 2.8.4-5.5.4-17.6.4 33 .4-13.5.4-.3.4-4.4.4 2.7.4 18.5.4-37 .4 38.1.4-22.3.4-1.7.4 2 .4 23.7.4-34.6.5 12 .4 3.7.4-17.6.4 11.8.4-6.1.4 10.3.4-1.4.4-10.4.4 12 .4.5.4 1.5.4-8.7.4 5.8.4 2.7.4.8.4-1.3.4-7 .4 4.3.4 5.9.4-9 .4.6.4 8.9.4-4.5.4 31.1.5-34.7.4-19 .4 22.9.4-4.2.4 37.2.4-30 .4-6.6.4-19.2.4 29.3.4-3 .4-8.3.4 2.6.4-.7.4-8.3.4-2.4.4 8.2.4 21 .4-23.5.4 7.2.4 2.9.4-27 .4 16.3.4 5.7.4 4.1.5-6.4 1.2 2.6.4 8 .4-8 .4 6.3.4-5 .4-8.8.4 6.3.4-5.5.4-.4.4 3.8.4 2 .4-9.6.4 14.7.4 1.6.4-9 .4 1 .4 7.7.4-5.6.4-2 .4 2.4.4-.1.5.9.4-10.5.4 20 .4-12.3.4 13.7.8-27.8.4 24.6.4-9 .4-1.5.4 3 .4-6.3.8 7.2.4-3.6.4 11.5.4-6.3.4-4.1.8 14.2.4-30 .4 23.7.4-8.6.5-11.5.4 16 .4-6.2.4 5.3.4-22.3.4 22.3.4-18.7.4 22.3.4-2 .4 5.8.8-14.6.4-5.6.4 5 .8 8 .4 8 .4-28.6.4 7.9.4 18.8.8-11.4.4 5.3.4 1.3.5-4 .4-2.3.4 15.4.4-29.5.8 9.3.4-6.5.4 11.7.4.8.4 5.2.4-17.7.4.6.4 22.4.4-28.2.4 24 .4-13 .4-8 .4 12.7.4 6 .4-2.5.4-24.5.4 40.6.4 9.2.4-25 .5 2.4.8 90.3.4-129.6.4 48.9.4 72.8.4-116.3.4 2.2.4 24.6.4-23.5.4 3 .4 25.4.4 13.6.4-.7.4-14.2.4-32.7.4 9.2.4 53.6.4-3.6.4 5 .4-40.5.4-13 .4 18.3.4 6.9.5-10.8.4-28 .4 40.5.4 11.2.4-1.4.4-10.9.4-5.4.4 35 .4-34.5.4 7.2.4 51.8.4-9.4.4-105 .4 96.8.8-68.1.4 79.4.4-77 .4 2.3.4 10.2.4 63.6.4-55.9.4-29 .4 48.4.5-30 .4 24.2.4-24 .4-5.5.4 21.4.4 14.4.4 6.2.4-19 .4 29.7.4-33.5.4-18.7.8 40.7.4-23.6.4 21.4.4-10.9.4-32.8.4 20.3.4 8.2.4-21.7.4.7.4 16.7.4 1.8.5 17 .4-24 .4 10.8.4 3.9.4-22 .4 23 .4-13.9.4 11.5.4.8.4 20.3.4-53.1.4 42.7.4-38.7.4 13.8.4 8.3.4-17.2.4 20.3.4-8.4.4 4.5.4-1.5.4 12.6.4-14.2.4 7.6.4 2.5.5 4.1.4-12.5.4 17.6.4-18 .4 34.4.4-35.1.4 23.7.4-32.4.4 11.8.4-5 .4 17.6.4-29.7.4.3.4-.7.4 11.6.4 23.2.4-34.7.4 16.7.4 4.7.4-11 .4 4 .4 13.4 1.3-19.1.4-9.4.4 26.5.4 7.7.4-1.8.4-23.3.4 13 .4-13 .4.6.4 2.4.4 1.5.4 6.8.4 2.6.4 12.4.4-6.8.4-22.7.4 30.6.4-34 .4 10 .4 2 .4.8.4 5.4.4 2.8.4-17.2.5-3.2.4 16.1.4-11.8.4 22.1.4-10 .4 4 .8 4.3.4-3.1.4-9 .4-4 .4 7.3.4-10.7.8 23.7.4-24 .4 9 .4-14.3.4 18 .4 6.8.4-4.8.4 4.3.4-13.2.4 6 .5-8 .4 8.9.4-2.5.4 19.6.4-5.9.4-11.2.4 2.2.4 70.1.4-27.7.4-76.4.4 43.9.4-59.6.4 47.2.4 31.2.4-31 .4 8.6.4 2.7.4 56.6.4-109.1.4 78.7.4-23.9.4-48.4.4 10.4.5.6.4 36.9.4-26.1.4-1.5.4-32.3.4 51.5.4 14.7.4 23.4.4-40.3.4 13.3.4-39.7.4 18.2.4 41.7.4 3.3.4-46.8.4 21.1.4-48.2.4 26.7.4-42.6.4 54.5.4-22.7.4-6 .4 96 .4-68.8.5 48.4.4-55.6.4 4.7.4-12.6.4 12.2.4 41.8.4 3.8.4-46.2.4 34.2.4.8.4 10.8.4 14.6.4-166.2.4 87.3.4 21.4.4-21.2.4 15.7.4 57.7.4-128.8.4 58.6.4-5.8.4 12.1.4-.9.9 21.5.4-35 .4 18.5.8-23.8.4 60 .4-36.1.4 1.8.4-15.5.4 35.8.4-14.1.4-37 .8 31.8.4-12.8.4 4.5.8 30.9.4-22 .4-.1.4-26.5.4 21.4.4 12.4.4-29.5.5 20.4.4-.6.4 11.6.4-21.7.4 11.3.4 4.4.4-.5.4 5 .4-21.2.4 23.5.4-6 .4 11.8.4 3.6.4-13.2.4-36.6.4 25.4.4-8.7.4 17.1.4-12.8.4 2.8.8 14.6.4-30.1.4 65.6.5-40.2.4-17.5.4 25.9.4-18 .4-6.9.4-10.5.4 25.2.4-4.7.4.1.4-5.5.4 7.8.4 15.6.4-20.9.4 7.5.4-14.3.4 15.8.4-2.5.4 6 .4-8.4.4 1.3.4-17 .4 24 .4-4 .5-11 .4 7.9.4.2.4 18.6.4-11.8.4-25.7.8 57.5.4-33 .4 3.1.4-14.7.4 61.6.4-71 .4 4.8.4-6.7.4 32.2.4 2 .4-33.3.8 44.8.4-29.3.4 21.4.4-3.2.4-19.8.5 33.7.4-23 .4-52.5.4 28.6.4 4.4.4-9.5.8 23.7.4 3.7.4-13.5.4 12.5.4-5.5.4-19.2.4 14.7.4-14.1.4 23.4.4 1 .4 17.1.4-18.2.4-11 .8-8.4.4 10.3.4-10.3.5 20.7.4 6.6.4-13.3.4-7.2.4 5 .4-5.2.8 17.6.4 6.9.4-22.2.4 21.4.4-19.8.4-8.7.4 4.7.4 21.8.4-27.7.4 19.6.4 2.2.4 18.3.8-8 .4 50.2.4-94.5.4 26.6.5-39 .4 55.2.4 11.9.4-58.5.4 97.2.4-70.5.4-26 .4 5 .4 43.8.4-35.4.4 19.1.4 56.5.4-81.5.4 31 .4-21.4.4-13.3.4 26.2.4 16.6.4-38.8.4-4.7.4 26.3.4 2.2.4-.9.4-15 .9 17.3.4 5.3.4-12.5.4 4.9.4.7.4 10.8.4-10.6.4 18.3.4-32 .4 18.8.4 6.4.4-22.7.4 38 .4 12.6.4-57 .4-13.5.4 40.7.4 24.6.4-54.2.4 5.8.4-9.8.4 26.8.5-24.7.4 26 .4-10.3.4 14.6.4-23.6.4 22.8.4-14 .4 2 .4-4.7.4-3.3.4 14 .4-9 .4 13.8.4-27.7h0" fill="none" stroke="#1f77b4" stroke-linecap="square" stroke-width="1.5" id="line2d_14"/><path d="M58.5 224.6V7.2" fill="none" stroke="#000" stroke-linecap="square" stroke-width=".8" id="patch_3"/><path d="M393.3 224.6V7.2" fill="none" stroke="#000" stroke-linecap="square" stroke-width=".8" id="patch_4"/><path d="M58.5 224.6h334.8" fill="none" stroke="#000" stroke-linecap="square" stroke-width=".8" id="patch_5"/><path d="M58.5 7.2h334.8" fill="none" stroke="#000" stroke-linecap="square" stroke-width=".8" id="patch_6"/></g></g><defs><clipPath id="paa24c8d079"><path d="M58.5 7.2h334.8v217.4H58.5z"/></clipPath></defs></svg>