<svg viewBox="0 0 511.9 401" fill="none" stroke-linecap="square" stroke-miterlimit="10" xmlns="http://www.w3.org/2000/svg"><clipPath id="a"><path d="M0 0h512v401H0V0z"/></clipPath><g clip-path="url(#a)"><path fill="none" d="M0 0h512v401H0z"/><path fill="#c9daf8" d="M424 53c1-5.2 6-8.5 11.2-7.5a9.4 9.4 0 017.4 11.1A9.4 9.4 0 11424 53zM180.3 237.5a9.4 9.4 0 0118.5 3.7c-1 5.1-6 8.4-11 7.4-5.2-1-8.5-6-7.5-11zM336.2 142.7c1-5 6-8.4 11-7.4a9.4 9.4 0 017.5 11.1c-1 5.1-6 8.5-11 7.4-5.2-1-8.5-6-7.5-11zM391.8 141.8a9.4 9.4 0 1118.5 3.7c-1 5-6 8.4-11 7.4-5.2-1-8.5-6-7.5-11.1zM288.2 109.1c1-5 6-8.4 11-7.4a9.4 9.4 0 017.5 11.1 9.4 9.4 0 11-18.5-3.7zM451 75.2c1-5.2 6-8.5 11-7.5a9.4 9.4 0 017.5 11.1 9.4 9.4 0 11-18.5-3.7zM202 184.6c1-5.1 6-8.5 11-7.4a9.4 9.4 0 017.5 11 9.4 9.4 0 11-18.5-3.7zM96.9 237c1-5.1 6-8.4 11-7.4a9.4 9.4 0 017.5 11 9.4 9.4 0 11-18.5-3.7zM328 90.8c1-5 6-8.4 11-7.4a9.4 9.4 0 017.5 11.1c-1 5.1-6 8.4-11 7.4-5.2-1-8.5-6-7.5-11zM257.4 155.6c1-5 6-8.4 11-7.4a9.4 9.4 0 017.5 11.1c-1 5.1-6 8.5-11 7.4-5.2-1-8.5-6-7.5-11z" fill-rule="evenodd"/><path fill="none" d="M78.9 323.6h416.8"/><path stroke="#000" stroke-width="2" stroke-linejoin="round" stroke-linecap="butt" d="M78.9 323.6h404.8"/><path fill="#000" stroke="#000" stroke-width="2" stroke-linecap="butt" d="M483.7 326.9l9.1-3.3-9-3.3z" fill-rule="evenodd"/><path fill="none" d="M228.2 375h131.9v18H228.2z"/><path fill="#000" d="M296.8 392.6l-2.7-4-2.7 4h-3.5l4.5-6-4.2-6h3.4l2.7 4 2.6-4h3.3l-4.1 6 4.3 6h-3.6z"/><path fill="none" d="M4.5 141.8H40v37.9H4.5z"/><path fill="#000" d="M24.5 168l-1.3 2.7q-.7 1.2-1.5 2-.8.7-1.8 1.1-1 .4-2.2.4H17l-.7-.1v-2.4h1.1l.4.1q.5 0 .9-.2l.8-.5.6-.8.6-1-4.8-12h3.2l2.5 6.8.7 2.2.7-2 2.5-7h3.1L24.5 168z"/><path fill="none" d="M80.1 278.1L505.3 32.6"/><path stroke="#3c78d8" stroke-width="3" stroke-linejoin="round" stroke-linecap="butt" d="M80.1 278.1L505.3 32.6"/><path fill="none" d="M50.5 249.6h29.1v37.9H50.5z"/><path fill="#000" d="M69 275.5h-7.5V274h3v-8.7l-2.8 1.5-.6-1.3 3.8-2h1.4V274H69v1.5z"/><path fill="none" d="M50.5 305h29.1V343H50.5z"/><path fill="#000" d="M69.4 325q0 1.3-.3 2.4-.3 1.2-.9 2-.5.8-1.3 1.2-.8.4-2 .4-1 0-1.7-.3-.8-.4-1.3-1.1-.6-.8-.9-2-.3-1-.3-2.7 0-1.3.3-2.5.3-1 .8-1.9.6-.8 1.4-1.2.8-.5 2-.5.9 0 1.7.4.8.3 1.3 1 .6.8.9 2 .3 1.2.3 2.7zm-1.6 0v-.6l-.1-.6-5 3.7q0 .5.3.9l.5.7q.3.3.7.4.3.2.8.2.7 0 1.2-.3t.8-.9q.4-.6.6-1.5.2-.8.2-2zm-5.5-.1v1.1l5-3.7q0-.5-.3-.9-.2-.4-.5-.6l-.6-.5-.9-.1q-.6 0-1.1.3-.5.3-.9.9l-.5 1.5q-.2.8-.2 2z"/><path fill="none" d="M50.5 137.6h29.1v37.9H50.5z"/><path fill="#000" d="M68.9 159.8q0 .8-.4 1.5-.3.7-1 1.2-.6.5-1.5.8-1 .3-2.3.3h-1.3l-1-.1V162l1.2.2h1.3l1.5-.1 1-.5q.4-.3.6-.7.2-.4.2-1 0-.5-.2-.8-.2-.4-.6-.6-.4-.3-1-.4l-1.2-.1H63v-1.3h1.3q.6 0 1-.2.5-.1.8-.4.3-.2.4-.6.2-.4.2-.9 0-1-.6-1.4-.6-.4-1.7-.4l-1.2.1-1.4.3v-1.4l.7-.1.7-.2h.7l.6-.1q1 0 1.7.2t1.2.6q.5.4.7 1 .3.5.3 1.1 0 1-.6 1.8-.5.6-1.4 1l1 .3.7.6q.4.3.6.8.3.5.3 1z"/><path fill="none" d="M50.5 193h29.1V231H50.5z"/><path fill="#000" d="M69 218.9h-7.8v-1.4l3.1-3.1q.8-.7 1.2-1.3l.8-1q.3-.4.3-.8l.1-.9v-.8l-.5-.7q-.2-.3-.6-.5-.4-.2-1-.2-.7 0-1.3.4-.6.3-1.1.8l-1-1 1.6-1.2q1-.4 2-.4.9 0 1.5.3.7.2 1.1.6.5.5.8 1.1.2.7.2 1.5l-.1 1.3-.6 1.1-1 1.2-1.2 1.4-2.2 2H69v1.6z"/><path fill="none" d="M50.5 25.6h29.1v37.9H50.5z"/><path fill="#000" d="M68.8 47.6q0 1-.4 1.7t-1 1.2q-.7.5-1.6.8-1 .3-2 .3H62l-.5-.1V50l1.1.2H64l1.3-.1 1-.5q.4-.3.7-.8l.2-1q0-1.2-.8-1.7t-2.3-.5h-2.3v-6h6.5v1.3h-5v3.4h1l1.7.1q.8.2 1.5.6.6.4 1 1 .4.7.4 1.6z"/><path fill="none" d="M50.5 81h29.1V119H50.5z"/><path fill="#000" d="M69.7 104.3h-2v2.6H66v-2.6h-5.7v-1.4l5-8h2.4v8h2v1.4zM66 96.5L62 103H66v-6.4z"/><path fill="none" d="M65.9 323.3H95v37.9H66z"/><path fill="#000" d="M84.8 343.2q0 1.4-.3 2.5t-.8 2q-.6.8-1.4 1.2-.8.4-2 .4-.9 0-1.7-.3-.8-.4-1.3-1.1-.6-.8-.9-2-.3-1-.3-2.7 0-1.3.3-2.5.3-1.1.8-1.9.6-.8 1.4-1.3.9-.4 2-.4.9 0 1.7.4.8.3 1.3 1 .6.8.9 2 .3 1.1.3 2.7zm-1.6 0v-.5-.6l-5.1 3.7.3.9.5.7q.3.3.7.4.4.2.9.2.6 0 1-.3.6-.3 1-1 .3-.5.5-1.4.2-.9.2-2zm-5.5 0v1.1l5.1-3.8-.3-.8-.5-.7-.7-.4-.8-.1q-.7 0-1.2.3t-.8.9q-.4.6-.6 1.4l-.2 2z"/><path fill="none" d="M137.9 323.3H167v37.9H138z"/><path fill="#000" d="M156.4 349.2H149v-1.5h3.1V339l-2.9 1.5-.5-1.3 3.7-2h1.5v10.5h2.6v1.5z"/><path fill="none" d="M209.9 323.3H239v37.9H210z"/><path fill="#000" d="M228.5 349.2h-7.8v-1.4l3-3.1 1.3-1.3.7-1q.3-.4.4-.9v-.8-.8l-.4-.7q-.3-.4-.7-.5-.4-.2-.9-.2-.8 0-1.4.3-.6.4-1.1 1l-.9-1.1q.7-.7 1.6-1.2.8-.4 2-.4.8 0 1.5.2l1 .7q.6.5.8 1.1.3.7.3 1.5 0 .7-.2 1.2l-.6 1.2q-.3.6-.9 1.2l-1.3 1.4-2.2 2h5.8v1.6z"/><path fill="none" d="M281.9 323.3H311v37.9H282z"/><path fill="#000" d="M300.3 345.6q0 .7-.3 1.4-.4.7-1 1.2-.6.6-1.6.8-1 .3-2.2.3h-1.3l-1-.1v-1.4l1.1.1h1.3l1.5-.1q.7-.2 1-.5.5-.3.6-.7.2-.4.2-1l-.2-.8q-.2-.4-.6-.6-.4-.3-1-.4l-1.2-.1h-1.3v-1.3h1.4l1-.1.7-.5q.3-.2.5-.6l.1-.9q0-1-.5-1.4-.6-.4-1.7-.4l-1.3.1-1.4.4v-1.4l.7-.2.7-.2h1.4l1.6.1q.8.2 1.2.6.5.4.8 1 .2.5.2 1.1 0 1-.5 1.8-.5.7-1.4 1l.9.4.8.5.6.8.2 1z"/><path fill="none" d="M353.9 323.3H383v37.9H354z"/><path fill="#000" d="M373.1 346.5h-2v2.7h-1.6v-2.7h-5.8v-1.4l5.1-7.8h2.3v7.8h2v1.4zm-3.6-7.7l-4.2 6.3h4.2v-6.3z"/><path fill="none" d="M425.9 323.3H455v37.9H426z"/><path fill="#000" d="M444.2 345.4q0 .9-.4 1.6-.4.7-1 1.2-.7.6-1.6.8-1 .3-2 .3h-1.7l-.5-.1v-1.5l1 .2h1.4l1.3-.1 1-.5q.4-.3.6-.8l.2-1q0-1.1-.8-1.6-.8-.6-2.3-.6h-2.2v-6h6.4v1.4h-5v3.3h1q1 0 1.8.2.8.1 1.4.5.6.4 1 1 .4.7.4 1.7z"/><path fill="none" d="M79.6 44.5h-3.8"/><path stroke="#000" stroke-linejoin="round" stroke-linecap="butt" d="M79.6 44.5h-3.8"/><path fill="none" d="M79.6 100.5h-3.8"/><path stroke="#000" stroke-linejoin="round" stroke-linecap="butt" d="M79.6 100.5h-3.8"/><path fill="none" d="M79.6 156.5h-3.8"/><path stroke="#000" stroke-linejoin="round" stroke-linecap="butt" d="M79.6 156.5h-3.8"/><path fill="none" d="M79.6 212.5h-3.8"/><path stroke="#000" stroke-linejoin="round" stroke-linecap="butt" d="M79.6 212.5h-3.8"/><path fill="none" d="M79.6 268.5h-3.8"/><path stroke="#000" stroke-linejoin="round" stroke-linecap="butt" d="M79.6 268.5h-3.8"/><path fill="none" d="M79.6 324h-3.8"/><path stroke="#000" stroke-linejoin="round" stroke-linecap="butt" d="M79.6 324h-3.8"/><path fill="none" d="M79.4 328v-3.8"/><path stroke="#000" stroke-linejoin="round" stroke-linecap="butt" d="M79.4 328v-3.8"/><path fill="none" d="M152.4 328v-3.8"/><path stroke="#000" stroke-linejoin="round" stroke-linecap="butt" d="M152.4 328v-3.8"/><path fill="none" d="M224.4 328v-3.8"/><path stroke="#000" stroke-linejoin="round" stroke-linecap="butt" d="M224.4 328v-3.8"/><path fill="none" d="M296.4 328v-3.8"/><path stroke="#000" stroke-linejoin="round" stroke-linecap="butt" d="M296.4 328v-3.8"/><path fill="none" d="M368.4 328v-3.8"/><path stroke="#000" stroke-linejoin="round" stroke-linecap="butt" d="M368.4 328v-3.8"/><path fill="none" d="M440.4 328v-3.8"/><path stroke="#000" stroke-linejoin="round" stroke-linecap="butt" d="M440.4 328v-3.8"/><path fill="none" d="M79.9 323.2V6.1"/><path stroke="#000" stroke-width="2" stroke-linejoin="round" stroke-linecap="butt" d="M79.9 323.2V18.1"/><path fill="#000" stroke="#000" stroke-width="2" stroke-linecap="butt" d="M83.2 18l-3.3-9-3.3 9z" fill-rule="evenodd"/><path fill="none" d="M79.6 278h193.7"/><path stroke="#000" stroke-linejoin="round" stroke-linecap="butt" stroke-dasharray="4.0,3.0" d="M79.6 278h193.7"/><path fill="none" d="M89.5 286.9v28.8"/><path stroke="#6aa84f" stroke-width="2" stroke-linejoin="round" stroke-linecap="butt" d="M89.5 286.9v28.8"/><path fill="none" d="M242.2 194.2c17.6 21.4 28 47.8 29.6 75.5l-131.3 8zM242.2 194.2c17.6 21.4 28 47.8 29.6 75.5"/><path stroke="#c00" stroke-width="2" stroke-linejoin="round" stroke-linecap="butt" d="M242.2 194.2h0c17.6 21.4 28 47.8 29.6 75.5"/><path fill="none" d="M271.6 265.4l.5 12.2"/><path stroke="#c00" stroke-width="2" stroke-linejoin="round" stroke-linecap="butt" d="M271.6 265.4v.2"/><path fill="#c00" stroke="#c00" stroke-width="2" stroke-linecap="butt" d="M268.3 265.7l3.7 9 3-9.2z" fill-rule="evenodd"/><path fill="none" d="M246 199l-8-10.2"/><path stroke="#c00" stroke-width="2" stroke-linejoin="round" stroke-linecap="butt" d="M246 199l-.6-.7"/><path fill="#c00" stroke="#c00" stroke-width="2" stroke-linecap="butt" d="M248 196.3l-8.2-5.2 3 9.2z" fill-rule="evenodd"/><path fill="none" d="M89.5 310v12.3"/><path stroke="#6aa84f" stroke-width="2" stroke-linejoin="round" stroke-linecap="butt" d="M89.5 310v.3"/><path fill="#6aa84f" stroke="#6aa84f" stroke-width="2" stroke-linecap="butt" d="M86.2 310.3l3.3 9 3.3-9z" fill-rule="evenodd"/><path fill="none" d="M89.5 290.7v-12.4"/><path stroke="#6aa84f" stroke-width="2" stroke-linejoin="round" stroke-linecap="butt" d="M89.5 290.7v-.4"/><path fill="#6aa84f" stroke="#6aa84f" stroke-width="2" stroke-linecap="butt" d="M92.8 290.3l-3.3-9-3.3 9z" fill-rule="evenodd"/><path fill="none" d="M92 279.9h35.5v37.8H92z"/><path fill="#6aa84f" d="M115.5 301.2q0 1.6-.5 2.8-.5 1.2-1.3 2t-2 1.2q-1 .4-2.4.4-1.3 0-2.4-.2-1.1-.2-2.1-.6v-16h2.8v3.9l-.1 2.3q.6-.8 1.5-1.3t2-.5q1.1 0 2 .4.8.4 1.3 1.2.6.8.9 1.9.3 1 .3 2.5zm-3 0q0-.9-.2-1.6-.1-.7-.4-1.1-.2-.5-.6-.7-.4-.2-.9-.2-.7 0-1.4.6l-1.4 1.6v5.2l.9.2h1l1.2-.2q.6-.3 1-.8l.6-1.2q.2-.8.2-1.7z"/><path fill="none" d="M263 202.9h35.5v37.8H263z"/><path fill="#c00" d="M284.1 230.3v-8-.9-.5l-.3-.3q-.1-.2-.3-.2-.4 0-.8.5l-.8 1.7v7.7h-2.4v-8-.9l-.1-.5-.2-.3-.4-.2q-.3 0-.7.5-.4.5-.8 1.7v7.7h-2.5v-11.9h2.1v1.8l.6-1 .5-.6.7-.3.7-.1q1 0 1.5.5.6.5.6 1.5l.6-1 .6-.6.6-.3.8-.1q1.3 0 1.9.9.6 1 .6 2.7v8.5h-2.5z"/></g></svg>