<svg viewBox="0 0 560 344.8" fill="none" stroke-linecap="square" stroke-miterlimit="10" xmlns="http://www.w3.org/2000/svg"><clipPath id="a"><path d="M0 0h560v344.8H0V0z"/></clipPath><g clip-path="url(#a)"><path fill="none" d="M0 0h560v344.8H0z"/><path fill="none" d="M154.9 115.3h50.5v37.9H155z"/><path fill="#000" d="M177.8 137h-5.5v-1.5h5.5v1.5zm11.4 4.2h-7.4v-1.5h3V131l-2.8 1.6-.6-1.4 3.8-2h1.4v10.5h2.6v1.5z"/><path fill="none" d="M237.6 115.3h29.1v37.9h-29.1z"/><path fill="#000" d="M256.5 135.2q0 1.4-.3 2.5-.3 1.2-.8 2-.6.8-1.4 1.2-.8.4-2 .4-.9 0-1.7-.3-.8-.4-1.3-1.1-.6-.8-.9-2-.3-1-.3-2.7 0-1.3.3-2.5.3-1.1.8-1.9.6-.8 1.4-1.2.9-.5 2-.5.9 0 1.7.4.8.3 1.3 1 .6.8.9 2 .3 1.1.3 2.7zm-1.6 0v-.5-.6l-5.1 3.7.3.9.5.7q.3.3.7.4.4.2.9.2.6 0 1-.3.6-.3 1-1 .3-.5.5-1.4.2-.9.2-2zm-5.5 0v1.1l5.1-3.7-.3-.9-.5-.6-.7-.5-.8-.1q-.7 0-1.2.3t-.8.9q-.4.6-.6 1.4l-.2 2z"/><path fill="none" d="M309.6 115.3h29.1v37.9h-29.1z"/><path fill="#000" d="M328.1 141.2h-7.5v-1.5h3.1V131l-2.9 1.6-.5-1.4 3.7-2h1.4v10.5h2.7v1.5z"/><path fill="none" d="M381.6 115.3h29.1v37.9h-29.1z"/><path fill="#000" d="M400.2 141.2h-7.8v-1.4l3-3.1 1.3-1.3q.5-.5.7-1l.4-.8v-.9-.8l-.4-.7-.7-.5q-.4-.2-1-.2-.7 0-1.3.4-.6.3-1.1.8l-.9-1q.7-.7 1.6-1.2.8-.4 2-.4.8 0 1.4.3.7.2 1.2.6.5.5.7 1.1.3.7.3 1.5 0 .7-.2 1.3l-.6 1.1q-.3.6-.9 1.2l-1.3 1.4-2.2 2h5.8v1.6z"/><path fill="none" d="M179 120.1v-3.8"/><path stroke="#000" stroke-linejoin="round" stroke-linecap="butt" d="M179 120.1v-3.8"/><path fill="none" d="M252.1 120.1v-3.8"/><path stroke="#000" stroke-linejoin="round" stroke-linecap="butt" d="M252.1 120.1v-3.8"/><path fill="none" d="M324.1 120.1v-3.8"/><path stroke="#000" stroke-linejoin="round" stroke-linecap="butt" d="M324.1 120.1v-3.8"/><path fill="none" d="M396.1 120.1v-3.8"/><path stroke="#000" stroke-linejoin="round" stroke-linecap="butt" d="M396.1 120.1v-3.8"/><path fill="none" d="M172.6 136.9h231.1v37.8h-231z"/><path fill="#000" d="M224.8 157.7v5H223v-13.4h4q1.2 0 2.2.3 1 .3 1.5.9.6.5 1 1.3.2.7.2 1.7t-.3 1.7q-.3.8-1 1.3-.6.6-1.5.9-1 .3-2.1.3h-2.2zm0-1.4h2.2q.7 0 1.3-.2.6-.2 1-.6.4-.4.6-.9.2-.5.2-1.1 0-1.3-.8-2-.7-.7-2.3-.7h-2.2v5.5zm15.6 6.4h-1.1l-.2-.4-.2-.9q-.3.4-.7.6l-.7.5-.9.3h-2q-.5-.2-.8-.6-.4-.3-.6-.7-.2-.5-.2-1.1 0-.6.3-1.1.3-.5 1-1l1.8-.6q1.1-.3 2.7-.3v-.7q0-1.1-.5-1.7-.4-.6-1.4-.6-.6 0-1 .2l-.7.3-.5.4-.4.1h-.3q-.2-.1-.2-.3l-.3-.5q.7-.8 1.6-1.1 1-.4 2-.4.8 0 1.5.3.6.2 1 .7.4.5.6 1.1.2.7.2 1.5v6zm-4.3-1h.8l.7-.3.6-.4.6-.6v-2l-2 .3q-.7 0-1.2.3l-.8.6q-.2.3-.2.7l.1.6q.1.3.4.5l.4.2.6.1zm6.9 1v-9.4h1.3l.1.4.1 1.5q.5-1 1.2-1.5.7-.6 1.7-.6h.7l.6.3-.2 1.3q0 .2-.3.2h-.4q-.3-.2-.7-.2-1 0-1.5.5-.6.5-1 1.5v6H243zm14 0H256l-.1-.4-.2-.9-.8.6-.7.5-.8.3h-2l-1-.6-.5-.7q-.2-.5-.2-1.1 0-.6.3-1.1.3-.5 1-1l1.8-.6q1.1-.3 2.7-.3v-.7q0-1.1-.4-1.7-.5-.6-1.4-.6-.6 0-1 .2l-.8.3-.5.4-.4.1h-.3l-.2-.3-.3-.5q.8-.8 1.7-1.1.9-.4 2-.4.8 0 1.4.3.6.2 1 .7.4.5.6 1.1.3.7.3 1.5v6zm-4.2-1h.8l.6-.3.7-.4.5-.6v-2l-2 .3q-.7 0-1.2.3l-.8.6q-.2.3-.2.7l.1.6.4.5.5.2.6.1zm6.8 1v-9.4h1q.3 0 .4.3l.1 1q.6-.7 1.2-1 .7-.5 1.5-.5 1 0 1.6.6.6.5.8 1.4l.5-.9.8-.6.8-.4h1q.7 0 1.3.2.5.2 1 .7.4.4.6 1 .2.7.2 1.6v6h-1.7v-6q0-1.1-.5-1.7-.4-.6-1.4-.6-.4 0-.7.2-.4.1-.7.4-.3.3-.4.7-.2.4-.2 1v6h-1.7v-6q0-1.1-.4-1.7-.5-.6-1.3-.6-.7 0-1.2.4-.5.3-1 .9v7h-1.6zm19-9.6q.9 0 1.6.3.7.3 1.2.8.6.6.9 1.4.3.7.3 1.7l-.1.6-.3.1h-6.3q0 .9.2 1.6.2.6.6 1 .4.5 1 .7.5.2 1.2.2l1-.1.8-.3.6-.3.4-.2q.2 0 .3.2l.4.6q-.3.4-.7.6l-1 .5q-.4.2-1 .2l-1 .1q-1 0-1.8-.3t-1.4-1q-.6-.6-1-1.5-.3-1-.3-2.2 0-1 .3-1.9.3-.8.9-1.4.6-.7 1.4-1 .8-.4 1.9-.4zm0 1.2q-1.1 0-1.8.7t-.9 2h5.2q0-.6-.2-1.1l-.5-.8q-.3-.4-.7-.6l-1-.2zm9 8.6q-1.2 0-1.8-.7-.6-.6-.6-1.8v-5.7h-1.1l-.3-.1v-1l1.5-.2.4-2.9v-.2l.3-.1h.9v3.2h2.7v1.3h-2.7v5.6q0 .6.3 1 .3.2.7.2h.5l.3-.2.2-.2h.2l.2.1.5.8q-.4.4-1 .6-.6.3-1.3.3zm7.8-9.8q.8 0 1.5.3.8.3 1.3.8.5.6.8 1.4.3.7.3 1.7v.6l-.4.1h-6.3q0 .9.2 1.6l.7 1q.4.5.9.7.5.2 1.2.2l1-.1.9-.3.5-.3.4-.2q.2 0 .3.2l.5.6q-.3.4-.8.6l-.9.5-1 .2-1 .1q-1 0-1.8-.3-.9-.3-1.5-1-.6-.6-1-1.5-.2-1-.2-2.2 0-1 .3-1.9.3-.8.8-1.4.6-.7 1.4-1 .9-.4 1.9-.4zm0 1.2q-1.2 0-1.9.7t-.8 2h5.1q0-.6-.2-1.1-.1-.5-.4-.8-.3-.4-.8-.6-.4-.2-1-.2zm6 8.4v-9.4h1.3l.2.4v1.5q.6-1 1.3-1.5.7-.6 1.7-.6h.7l.6.3-.3 1.3q0 .2-.2.2h-.4q-.3-.2-.8-.2-.9 0-1.4.5-.6.5-1 1.5v6h-1.7zm10-9.4h1.6l.2.3 2.4 6.1.2.7.2.6.1-.6.2-.7 2.4-6 .2-.3.3-.1h1.3l-3.8 9.4h-1.5l-3.9-9.4zm17.6 9.4H328l-.2-.4-.2-.9-.7.6-.8.5-.8.3h-2q-.5-.2-.9-.6l-.5-.7q-.2-.5-.2-1.1 0-.6.3-1.1.3-.5 1-1l1.8-.6q1-.3 2.7-.3v-.7q0-1.1-.5-1.7-.4-.6-1.4-.6-.6 0-1 .2l-.7.3-.5.4-.5.1h-.3l-.2-.3-.3-.5q.8-.8 1.7-1.1 1-.4 2-.4.8 0 1.4.3.7.2 1 .7.5.5.7 1.1.2.7.2 1.5v6zm-4.3-1h.8l.7-.3.6-.4.6-.6v-2l-2 .3q-.8 0-1.3.3l-.7.6q-.2.3-.2.7l.1.6.3.5.5.2.6.1zm8.7-12.7v13.7h-1.7V149h1.7zm4.4 4.3v6q0 1 .4 1.7.5.5 1.5.5.8 0 1.4-.3.7-.3 1.2-1v-7h1.7v9.5h-1q-.4 0-.5-.3l-.1-1q-.6.6-1.4 1-.8.5-1.7.5-.8 0-1.4-.3-.6-.2-1-.7-.4-.5-.6-1.1-.2-.7-.2-1.5v-6h1.7zm12.6-.2q.9 0 1.6.3.7.3 1.2.8.6.6.9 1.4.2.7.2 1.7v.6l-.3.1h-6.3q0 .9.2 1.6.2.6.6 1 .4.5 1 .7.5.2 1.2.2l1-.1.8-.3.6-.3.3-.2q.3 0 .4.2l.4.6q-.3.4-.7.6l-1 .5q-.4.2-1 .2l-1 .1q-1 0-1.8-.3t-1.4-1q-.6-.6-1-1.5-.3-1-.3-2.2 0-1 .3-1.9.3-.8.9-1.4.6-.7 1.4-1 .8-.4 1.8-.4zm0 1.2q-1.1 0-1.8.7t-.9 2h5.2q0-.6-.2-1.1l-.5-.8q-.3-.4-.7-.6l-1-.2z"/><path fill="#3c78d8" fill-opacity=".3" d="M250.5 45.9h-.7l-.3.2h-.2l-.3.1-.4.2-.3.1-.3.2-.3.2-.3.2-.3.2-.3.3-.3.2-.3.3-.3.4-.4.3-.3.4-.3.3-.2.4-.4.4-.3.5-.3.4-.3.5-.3.5-.3.5-.3.5-.3.6-.3.5-.3.6-.4.6-.3.6-.3.6-.3.6-.3.7-.3.6-.3.7-.3.6-.3.7-.3.7-.3.7-.3.7-.3.7-.3.7-.4.8-.3.7-.3.7-.3.7-.3.7-.3.8-.3.7-.3.7-.3.8-.3.7-.3.7-.3.8-.3.7-.3.7-.4.7-.3.8-.3.7-.3.7-.3.7-.3.7-.3.7-.3.6-.3.7-.3.7-.3.6-.3.7-.3.6-.3.7-.4.6-.3.6-.3.6-.3.7-.3.6-.3.6-.3.6-.3.5-.3.6-.3.6-.3.6-.3.5-.3.6-.4.5-.3.6-.3.5-.3.5-.3.6-.3.5-.3.5-.3.5-.3.5-.3.5-.3.5-.4.5-.2.4-.3.5-.4.5-.3.4-.3.5-.3.4-.3.4-.3.4-.3.5-.3.4-.3.4-.3.4-.3.3-.4.4-.3.4-.2.3-.4.4-.3.3-.3.3-.3.3-.3.3-.3.3-.3.3-.3.3-.3.3-.3.2-.3.3-.4.2-.3.3-.3.2-.3.3-.3.2-.3.2-.3.2-.3.2-.3.2-.3.2-.3.2-.3.2-.3.1-.4.2-.3.2-.3.1-.3.2-.3.1-.3.2-.3.1-.3.2-.3.1-.3.1-.3.2-.3.1-.3.1-.3.1-.4.1-.3.1-.3.1-.3.2h-.3l-.3.1-.3.1-.3.1-.3.1-.3.1h-.3l-.3.2h-.3l-.3.1h-.4l-.3.1-.3.1h-.3l-.3.1-.3.1h-.3l-.3.1h-.3l-.3.1h-.3l-.3.1h-.3l-.3.1h-.7l-.3.1h-.6l-.3.1h-.3l-.3.1h-1l-.2.1h-1l-.3.1h-1.2l-.3.1H188l-.3.1H186l-.3.1H183.1l-.3.1h-4l-.3.1h-8.9 165.1H317.5l-.3-.1h-1.5l-.3-.1h-1.6l-.3-.1H312.6l-.3-.1H311.4l-.3-.1h-.7l-.3-.1h-.6l-.3-.1h-.6l-.3-.1h-.6l-.4-.1h-.3l-.2-.1h-.3l-.4-.1h-.3l-.3-.1h-.3l-.3-.1h-.3l-.3-.1-.3-.1h-.3l-.3-.1-.4-.1h-.3l-.3-.1-.2-.1-.4-.1-.3-.1h-.3l-.3-.2h-.3l-.3-.2h-.3l-.3-.1-.3-.2h-.3l-.4-.2h-.3l-.3-.2-.3-.1-.3-.2-.3-.1-.3-.1-.3-.2-.3-.1-.3-.2-.3-.1-.3-.2-.3-.1-.3-.2-.4-.2-.3-.1-.3-.2-.3-.2-.3-.2-.3-.2-.3-.2-.3-.2-.3-.2-.3-.2-.3-.2-.3-.2-.3-.3-.3-.2-.4-.2-.3-.3-.3-.2-.3-.3-.3-.2-.3-.3-.3-.3-.3-.3-.3-.2-.3-.4-.3-.3-.3-.3-.3-.3-.3-.3-.4-.4-.3-.3-.3-.4-.3-.3-.3-.4-.3-.4-.3-.4-.3-.4-.3-.4-.3-.5-.3-.4-.3-.4-.3-.5-.4-.4-.3-.5-.3-.5-.3-.5-.3-.5-.3-.5-.3-.5-.3-.5-.3-.5-.3-.6-.3-.5-.4-.6-.2-.5-.3-.6-.4-.5-.3-.6-.3-.6-.3-.5-.3-.6-.3-.6-.3-.6-.3-.6-.3-.6-.3-.6-.3-.6-.4-.6-.3-.6-.2-.6-.4-.6-.3-.7-.3-.6-.3-.6-.3-.6-.3-.7-.3-.6-.3-.7-.3-.6-.3-.7-.3-.6-.4-.7-.3-.7-.3-.6-.3-.7-.3-.7-.3-.7-.3-.6-.3-.7-.3-.7-.3-.7-.3-.7-.3-.7-.3-.7-.4-.7-.3-.7-.3-.7-.3-.7-.3-.7-.3-.7-.3-.6-.3-.7-.3-.7-.3-.7-.3-.6-.3-.7-.3-.6-.3-.6-.4-.7-.3-.6-.3-.6-.3-.6-.3-.5-.3-.6-.3-.5-.3-.6-.3-.5-.3-.5-.3-.5-.3-.4-.3-.5-.3-.4-.4-.4-.3-.4-.3-.4-.3-.3-.3-.4-.3-.3-.3-.3-.3-.3-.3-.2-.3-.3-.4-.2-.2-.2-.3-.2-.3-.2-.4-.1-.3-.1-.3-.1-.3-.1-.3-.1h-.3l-.3-.1z" fill-rule="evenodd"/><path stroke="#3c78d8" stroke-linejoin="round" stroke-linecap="butt" d="M250.5 45.9h-.7l-.3.2h-.2l-.3.1-.4.2-.3.1-.3.2-.3.2-.3.2-.3.2-.3.3-.3.2-.3.3-.3.4-.4.3-.3.4-.3.3-.2.4-.4.4-.3.5-.3.4-.3.5-.3.5-.3.5-.3.5-.3.6-.3.5-.3.6-.4.6-.3.6-.3.6-.3.6-.3.7-.3.6-.3.7-.3.6-.3.7-.3.7-.3.7-.3.7-.3.7-.3.7-.4.8-.3.7-.3.7-.3.7-.3.7-.3.8-.3.7-.3.7-.3.8-.3.7-.3.7-.3.8-.3.7-.3.7-.4.7-.3.8-.3.7-.3.7-.3.7-.3.7-.3.7-.3.6-.3.7-.3.7-.3.6-.3.7-.3.6-.3.7-.4.6-.3.6-.3.6-.3.7-.3.6-.3.6-.3.6-.3.5-.3.6-.3.6-.3.6-.3.5-.3.6-.4.5-.3.6-.3.5-.3.5-.3.6-.3.5-.3.5-.3.5-.3.5-.3.5-.3.5-.4.5-.2.4-.3.5-.4.5-.3.4-.3.5-.3.4-.3.4-.3.4-.3.5-.3.4-.3.4-.3.4-.3.3-.4.4-.3.4-.2.3-.4.4-.3.3-.3.3-.3.3-.3.3-.3.3-.3.3-.3.3-.3.3-.3.2-.3.3-.4.2-.3.3-.3.2-.3.3-.3.2-.3.2-.3.2-.3.2-.3.2-.3.2-.3.2-.3.2-.3.1-.4.2-.3.2-.3.1-.3.2-.3.1-.3.2-.3.1-.3.2-.3.1-.3.1-.3.2-.3.1-.3.1-.3.1-.4.1-.3.1-.3.1-.3.2h-.3l-.3.1-.3.1-.3.1-.3.1-.3.1h-.3l-.3.2h-.3l-.3.1h-.4l-.3.1-.3.1h-.3l-.3.1-.3.1h-.3l-.3.1h-.3l-.3.1h-.3l-.3.1h-.3l-.3.1h-.7l-.3.1h-.6l-.3.1h-.3l-.3.1h-1l-.2.1h-1l-.3.1h-1.2l-.3.1H188l-.3.1H186l-.3.1H183.1l-.3.1h-4l-.3.1h-8.9 165.1H317.5l-.3-.1h-1.5l-.3-.1h-1.6l-.3-.1H312.6l-.3-.1H311.4l-.3-.1h-.7l-.3-.1h-.6l-.3-.1h-.6l-.3-.1h-.6l-.4-.1h-.3l-.2-.1h-.3l-.4-.1h-.3l-.3-.1h-.3l-.3-.1h-.3l-.3-.1-.3-.1h-.3l-.3-.1-.4-.1h-.3l-.3-.1-.2-.1-.4-.1-.3-.1h-.3l-.3-.2h-.3l-.3-.2h-.3l-.3-.1-.3-.2h-.3l-.4-.2h-.3l-.3-.2-.3-.1-.3-.2-.3-.1-.3-.1-.3-.2-.3-.1-.3-.2-.3-.1-.3-.2-.3-.1-.3-.2-.4-.2-.3-.1-.3-.2-.3-.2-.3-.2-.3-.2-.3-.2-.3-.2-.3-.2-.3-.2-.3-.2-.3-.2-.3-.3-.3-.2-.4-.2-.3-.3-.3-.2-.3-.3-.3-.2-.3-.3-.3-.3-.3-.3-.3-.2-.3-.4-.3-.3-.3-.3-.3-.3-.3-.3-.4-.4-.3-.3-.3-.4-.3-.3-.3-.4-.3-.4-.3-.4-.3-.4-.3-.4-.3-.5-.3-.4-.3-.4-.3-.5-.4-.4-.3-.5-.3-.5-.3-.5-.3-.5-.3-.5-.3-.5-.3-.5-.3-.5-.3-.6-.3-.5-.4-.6-.2-.5-.3-.6-.4-.5-.3-.6-.3-.6-.3-.5-.3-.6-.3-.6-.3-.6-.3-.6-.3-.6-.3-.6-.3-.6-.4-.6-.3-.6-.2-.6-.4-.6-.3-.7-.3-.6-.3-.6-.3-.6-.3-.7-.3-.6-.3-.7-.3-.6-.3-.7-.3-.6-.4-.7-.3-.7-.3-.6-.3-.7-.3-.7-.3-.7-.3-.6-.3-.7-.3-.7-.3-.7-.3-.7-.3-.7-.3-.7-.4-.7-.3-.7-.3-.7-.3-.7-.3-.7-.3-.7-.3-.6-.3-.7-.3-.7-.3-.7-.3-.6-.3-.7-.3-.6-.3-.6-.4-.7-.3-.6-.3-.6-.3-.6-.3-.5-.3-.6-.3-.5-.3-.6-.3-.5-.3-.5-.3-.5-.3-.4-.3-.5-.3-.4-.4-.4-.3-.4-.3-.4-.3-.3-.3-.4-.3-.3-.3-.3-.3-.3-.3-.2-.3-.3-.4-.2-.2-.2-.3-.2-.3-.2-.4-.1-.3-.1-.3-.1-.3-.1-.3-.1h-.3l-.3-.1z"/><path fill="#a64d79" fill-opacity=".3" d="M347.4 31.2h-.5l-.2.2h-.2l-.2.2-.3.2-.2.1-.2.2-.3.3-.2.2-.2.3-.2.3-.3.3-.2.4-.2.4-.3.4-.2.4-.2.5-.2.5-.3.5-.2.5-.2.5-.2.6-.3.6-.2.6-.2.7-.2.6-.3.7-.2.7-.2.7-.2.7-.3.8-.2.7-.2.8-.3.8-.2.8-.2.8-.2.8-.3.8-.2.9-.2.8-.2.9-.3.9-.2.8-.2 1-.2.8-.3.9-.2.9-.2.8-.2 1-.3.8-.2 1-.2.8-.3.9-.2.9-.2.8-.2 1-.3.8-.2.9-.2.8-.3.9-.2.8-.2.8-.2.9-.3.8-.2.8-.2.8-.3.8-.2.8-.2.8-.2.8-.3.8-.2.7-.2.8-.2.7-.3.7-.2.8-.2.7-.2.7-.3.7-.2.7-.2.7-.3.7-.2.6-.2.7-.2.6-.3.7-.2.6-.2.7-.2.6-.3.6-.2.6-.2.6-.2.6-.3.6-.2.6-.2.6-.3.6-.2.5-.2.6-.2.5-.3.5-.2.5-.2.6-.2.5-.3.5-.2.4-.2.5-.2.5-.3.4-.2.4-.2.5-.3.4-.2.4-.2.4-.2.4-.3.3-.2.4-.2.3-.3.4-.2.3-.2.3-.2.3-.3.3-.2.4-.2.2-.3.3-.2.3-.2.2-.2.3-.3.2-.2.3-.2.2-.2.2-.3.3-.2.2-.2.2-.2.2-.3.2-.2.2-.2.1-.2.2-.3.2-.2.2-.2.1-.3.2-.2.1-.2.2-.2.2h-.3l-.2.2-.2.1-.2.2h-.3l-.2.2-.2.1-.2.2h-.3l-.2.2h-.2l-.2.2h-.3l-.2.1-.2.1-.3.1-.2.1-.2.1h-.2l-.3.1-.2.1h-.2l-.3.2h-.4l-.3.1h-.2l-.2.1h-.2l-.3.1h-.2l-.2.1h-.2l-.3.1h-.2l-.2.1h-.5l-.2.1h-.5l-.2.1h-.4l-.3.1H302.7l-.3.1H301.5l-.2.1H300.4l-.2.1H299l-.2.1H297l-.2.1H293.2l-.3.1h-5.2 121.9H397.4l-.3-.1H395.8l-.3-.1H394.6l-.2-.1h-.7l-.2-.1h-.5l-.2-.1h-.5l-.2-.1h-.4l-.3-.1h-.2l-.2-.1h-.5l-.2-.1h-.2l-.2-.1h-.3l-.2-.1h-.2l-.3-.1h-.2l-.2-.1-.2-.1h-.3l-.2-.1h-.2l-.2-.2h-.3l-.2-.1-.2-.1h-.2l-.3-.2h-.2l-.2-.1-.2-.1-.3-.1-.2-.1-.2-.1-.3-.1-.2-.1-.2-.2-.2-.1-.3-.1-.2-.1-.2-.2-.3-.1-.2-.1-.2-.2-.3-.2-.2-.1-.2-.2-.2-.1-.3-.2-.2-.2-.2-.2-.2-.2-.3-.1-.2-.2-.2-.2-.2-.2-.3-.2-.2-.3-.2-.2-.2-.2-.3-.2-.2-.3-.2-.2-.3-.3-.2-.2-.2-.3-.2-.2-.3-.3-.2-.3-.2-.3-.2-.3-.3-.3-.2-.3-.2-.3-.2-.3-.3-.4-.2-.3-.2-.3-.3-.4-.2-.4-.2-.4-.2-.4-.3-.4-.2-.4-.2-.4-.2-.4-.3-.5-.2-.4-.2-.5-.2-.5-.3-.5-.2-.5-.2-.5-.3-.5-.2-.6-.2-.5-.3-.6-.2-.5-.2-.6-.2-.6-.3-.6-.2-.6-.2-.6-.2-.7-.3-.6-.2-.6-.2-.7-.3-.7-.2-.6-.2-.7-.2-.7-.3-.7-.2-.7-.2-.7-.2-.7-.3-.7-.2-.7-.2-.7-.2-.7-.3-.7-.2-.8-.2-.7-.2-.7-.3-.8-.2-.8-.2-.7-.3-.8-.2-.7-.2-.8-.2-.8-.3-.7-.2-.8-.2-.8-.2-.8-.3-.8-.2-.8-.2-.8-.2-.8-.3-.8-.2-.8-.2-.9-.3-.8-.2-.9-.2-.8-.2-.8-.3-.9-.2-.8-.2-.8-.3-.9-.2-.8-.2-.9-.2-.8-.3-.9-.2-.8-.2-.8-.3-.8-.2-.8-.2-.9-.2-.7-.3-.8-.2-.8-.2-.8-.2-.7-.3-.8-.2-.7-.2-.7-.2-.7-.3-.7-.2-.6-.2-.7-.3-.6-.2-.6-.2-.6-.2-.6-.3-.5-.2-.5-.2-.5-.2-.5-.3-.5-.2-.4-.2-.4-.2-.4-.3-.3-.2-.4-.2-.3-.2-.3-.3-.3-.2-.2-.2-.2-.3-.2-.2-.2-.2-.2-.2-.1-.3-.1-.2-.1h-.2l-.2-.1z" fill-rule="evenodd"/><path stroke="#a64d79" stroke-linejoin="round" stroke-linecap="butt" d="M347.4 31.2h-.5l-.2.2h-.2l-.2.2-.3.2-.2.1-.2.2-.3.3-.2.2-.2.3-.2.3-.3.3-.2.4-.2.4-.3.4-.2.4-.2.5-.2.5-.3.5-.2.5-.2.5-.2.6-.3.6-.2.6-.2.7-.2.6-.3.7-.2.7-.2.7-.2.7-.3.8-.2.7-.2.8-.3.8-.2.8-.2.8-.2.8-.3.8-.2.9-.2.8-.2.9-.3.9-.2.8-.2 1-.2.8-.3.9-.2.9-.2.8-.2 1-.3.8-.2 1-.2.8-.3.9-.2.9-.2.8-.2 1-.3.8-.2.9-.2.8-.3.9-.2.8-.2.8-.2.9-.3.8-.2.8-.2.8-.3.8-.2.8-.2.8-.2.8-.3.8-.2.7-.2.8-.2.7-.3.7-.2.8-.2.7-.2.7-.3.7-.2.7-.2.7-.3.7-.2.6-.2.7-.2.6-.3.7-.2.6-.2.7-.2.6-.3.6-.2.6-.2.6-.2.6-.3.6-.2.6-.2.6-.3.6-.2.5-.2.6-.2.5-.3.5-.2.5-.2.6-.2.5-.3.5-.2.4-.2.5-.2.5-.3.4-.2.4-.2.5-.3.4-.2.4-.2.4-.2.4-.3.3-.2.4-.2.3-.3.4-.2.3-.2.3-.2.3-.3.3-.2.4-.2.2-.3.3-.2.3-.2.2-.2.3-.3.2-.2.3-.2.2-.2.2-.3.3-.2.2-.2.2-.2.2-.3.2-.2.2-.2.1-.2.2-.3.2-.2.2-.2.1-.3.2-.2.1-.2.2-.2.2h-.3l-.2.2-.2.1-.2.2h-.3l-.2.2-.2.1-.2.2h-.3l-.2.2h-.2l-.2.2h-.3l-.2.1-.2.1-.3.1-.2.1-.2.1h-.2l-.3.1-.2.1h-.2l-.3.2h-.4l-.3.1h-.2l-.2.1h-.2l-.3.1h-.2l-.2.1h-.2l-.3.1h-.2l-.2.1h-.5l-.2.1h-.5l-.2.1h-.4l-.3.1H302.7l-.3.1H301.5l-.2.1H300.4l-.2.1H299l-.2.1H297l-.2.1H293.2l-.3.1h-5.2 121.9H397.4l-.3-.1H395.8l-.3-.1H394.6l-.2-.1h-.7l-.2-.1h-.5l-.2-.1h-.5l-.2-.1h-.4l-.3-.1h-.2l-.2-.1h-.5l-.2-.1h-.2l-.2-.1h-.3l-.2-.1h-.2l-.3-.1h-.2l-.2-.1-.2-.1h-.3l-.2-.1h-.2l-.2-.2h-.3l-.2-.1-.2-.1h-.2l-.3-.2h-.2l-.2-.1-.2-.1-.3-.1-.2-.1-.2-.1-.3-.1-.2-.1-.2-.2-.2-.1-.3-.1-.2-.1-.2-.2-.3-.1-.2-.1-.2-.2-.3-.2-.2-.1-.2-.2-.2-.1-.3-.2-.2-.2-.2-.2-.2-.2-.3-.1-.2-.2-.2-.2-.2-.2-.3-.2-.2-.3-.2-.2-.2-.2-.3-.2-.2-.3-.2-.2-.3-.3-.2-.2-.2-.3-.2-.2-.3-.3-.2-.3-.2-.3-.2-.3-.3-.3-.2-.3-.2-.3-.2-.3-.3-.4-.2-.3-.2-.3-.3-.4-.2-.4-.2-.4-.2-.4-.3-.4-.2-.4-.2-.4-.2-.4-.3-.5-.2-.4-.2-.5-.2-.5-.3-.5-.2-.5-.2-.5-.3-.5-.2-.6-.2-.5-.3-.6-.2-.5-.2-.6-.2-.6-.3-.6-.2-.6-.2-.6-.2-.7-.3-.6-.2-.6-.2-.7-.3-.7-.2-.6-.2-.7-.2-.7-.3-.7-.2-.7-.2-.7-.2-.7-.3-.7-.2-.7-.2-.7-.2-.7-.3-.7-.2-.8-.2-.7-.2-.7-.3-.8-.2-.8-.2-.7-.3-.8-.2-.7-.2-.8-.2-.8-.3-.7-.2-.8-.2-.8-.2-.8-.3-.8-.2-.8-.2-.8-.2-.8-.3-.8-.2-.8-.2-.9-.3-.8-.2-.9-.2-.8-.2-.8-.3-.9-.2-.8-.2-.8-.3-.9-.2-.8-.2-.9-.2-.8-.3-.9-.2-.8-.2-.8-.3-.8-.2-.8-.2-.9-.2-.7-.3-.8-.2-.8-.2-.8-.2-.7-.3-.8-.2-.7-.2-.7-.2-.7-.3-.7-.2-.6-.2-.7-.3-.6-.2-.6-.2-.6-.2-.6-.3-.5-.2-.5-.2-.5-.2-.5-.3-.5-.2-.4-.2-.4-.2-.4-.3-.3-.2-.4-.2-.3-.2-.3-.3-.3-.2-.2-.2-.2-.3-.2-.2-.2-.2-.2-.2-.1-.3-.1-.2-.1h-.2l-.2-.1z"/><path fill="#e69138" fill-opacity=".3" d="M305 40.8h-.4l-.3.1-.2.1-.3.2h-.2l-.3.2-.2.2-.3.2-.3.3-.2.2-.2.3-.3.3-.3.3-.2.3-.3.4-.2.4-.3.4-.2.4-.3.5-.2.4-.3.5-.3.5-.2.6-.3.5-.2.5-.3.6-.2.6-.3.6-.2.7-.3.6-.2.7-.3.6-.3.7-.2.7-.3.7-.2.8-.3.7-.2.7-.3.8-.2.7-.3.8-.2.8-.3.7-.3.8-.2.8-.3.7-.2.8-.3.8-.2.8-.3.8-.2.8-.3.8-.2.8-.3.7-.2.8-.3.8-.3.8-.2.7-.3.8-.2.8-.3.7-.2.7-.3.8-.2.7-.3.7-.2.8-.3.7-.3.7-.2.7-.2.7-.3.6-.3.7-.2.7-.3.6-.2.7-.3.6-.3.6-.2.7-.2.6-.3.6-.3.6-.2.6-.3.6-.2.6-.3.6-.2.6-.3.5-.2.6-.3.5-.2.6-.3.6-.3.5-.2.5-.2.5-.3.6-.3.5-.2.5-.3.5-.2.5-.3.4-.2.5-.3.5-.2.4-.3.5-.3.4-.2.4-.3.4-.2.4-.3.4-.2.4-.3.4-.2.4-.3.3-.2.4-.3.3-.3.3-.2.4-.2.3-.3.3-.3.3-.2.2-.3.3-.2.3-.3.3-.2.2-.3.3-.2.2-.3.2-.3.2-.2.3-.3.2-.2.2-.3.2-.2.2-.3.2-.2.1-.3.2-.2.2-.3.2-.3.1-.2.2-.2.1-.3.2-.3.1-.2.2-.3.1-.2.2h-.3l-.2.2-.3.1-.2.1-.3.1-.2.2h-.3l-.3.2h-.2l-.3.2h-.2l-.3.1-.2.1-.3.1h-.2l-.3.2h-.3l-.2.1-.2.1h-.3l-.3.1h-.2l-.3.2h-.5l-.2.1h-.3l-.2.1h-.3l-.2.1h-.3l-.3.1h-.5l-.2.1h-.3l-.2.1h-.8l-.3.1h-.5l-.2.1h-.8l-.2.1h-1l-.3.1h-.8l-.2.1h-1.8l-.2.1h-1.6l-.2.1H244.3l-.2.1H238.2h136.5H361l-.3-.1H359l-.3-.1h-1l-.2-.1h-1.1l-.2-.1h-.6l-.2-.1h-.5l-.3-.1h-.5l-.2-.1h-.5l-.3-.1h-.2l-.3-.1h-.2l-.3-.1h-.3l-.2-.1h-.5l-.3-.2h-.5l-.2-.1h-.3l-.2-.2h-.5l-.3-.2h-.3l-.2-.1h-.3l-.2-.2h-.3l-.2-.2h-.3l-.2-.1-.3-.1-.2-.1-.3-.2h-.3l-.2-.2-.2-.1-.3-.1-.3-.1-.2-.2h-.3l-.2-.2-.3-.2-.2-.1-.3-.2-.2-.1-.3-.2-.3-.2-.2-.1-.3-.2-.2-.2-.3-.1-.2-.2-.3-.2-.2-.2-.3-.2-.2-.2-.3-.2-.3-.3-.2-.2-.2-.2-.3-.2-.3-.3-.2-.2-.3-.3-.2-.2-.3-.3-.2-.2-.3-.3-.2-.3-.3-.3-.2-.3-.3-.3-.3-.3-.2-.3-.3-.3-.2-.4-.3-.3-.2-.4-.3-.3-.2-.4-.3-.4-.3-.4-.2-.4-.3-.4-.2-.4-.3-.5-.2-.4-.3-.5-.2-.4-.3-.5-.2-.5-.3-.5-.3-.5-.2-.5-.2-.5-.3-.6-.3-.5-.2-.6-.3-.5-.2-.6-.3-.6-.2-.5-.3-.6-.2-.6-.3-.6-.3-.6-.2-.6-.3-.7-.2-.6-.3-.6-.2-.6-.3-.6-.2-.7-.3-.6-.2-.7-.3-.6-.3-.6-.2-.7-.2-.7-.3-.6-.3-.7-.2-.7-.3-.6-.2-.7-.3-.7-.2-.7-.3-.7-.2-.7-.3-.7-.2-.7-.3-.7-.3-.7-.2-.8-.3-.7-.2-.7-.3-.7-.2-.8-.3-.7-.2-.7-.3-.8-.3-.7-.2-.8-.2-.7-.3-.8-.3-.7-.2-.8-.3-.7-.2-.8-.3-.7-.2-.7-.3-.8-.2-.7-.3-.7-.2-.7-.3-.7-.3-.7-.2-.7-.3-.6-.2-.7-.3-.6-.2-.7-.3-.6-.2-.6-.3-.6-.3-.6-.2-.5-.2-.5-.3-.5-.3-.5-.2-.5-.3-.5-.2-.4-.3-.4-.2-.4-.3-.4-.2-.4-.3-.3-.2-.3-.3-.3-.3-.3-.2-.3-.3-.2-.2-.2-.3-.2-.2-.2-.3-.2-.2-.1-.3-.1-.3-.1-.2-.1h-.2l-.3-.1z" fill-rule="evenodd"/><path stroke="#e69138" stroke-linejoin="round" stroke-linecap="butt" d="M305 40.8h-.4l-.3.1-.2.1-.3.2h-.2l-.3.2-.2.2-.3.2-.3.3-.2.2-.2.3-.3.3-.3.3-.2.3-.3.4-.2.4-.3.4-.2.4-.3.5-.2.4-.3.5-.3.5-.2.6-.3.5-.2.5-.3.6-.2.6-.3.6-.2.7-.3.6-.2.7-.3.6-.3.7-.2.7-.3.7-.2.8-.3.7-.2.7-.3.8-.2.7-.3.8-.2.8-.3.7-.3.8-.2.8-.3.7-.2.8-.3.8-.2.8-.3.8-.2.8-.3.8-.2.8-.3.7-.2.8-.3.8-.3.8-.2.7-.3.8-.2.8-.3.7-.2.7-.3.8-.2.7-.3.7-.2.8-.3.7-.3.7-.2.7-.2.7-.3.6-.3.7-.2.7-.3.6-.2.7-.3.6-.3.6-.2.7-.2.6-.3.6-.3.6-.2.6-.3.6-.2.6-.3.6-.2.6-.3.5-.2.6-.3.5-.2.6-.3.6-.3.5-.2.5-.2.5-.3.6-.3.5-.2.5-.3.5-.2.5-.3.4-.2.5-.3.5-.2.4-.3.5-.3.4-.2.4-.3.4-.2.4-.3.4-.2.4-.3.4-.2.4-.3.3-.2.4-.3.3-.3.3-.2.4-.2.3-.3.3-.3.3-.2.2-.3.3-.2.3-.3.3-.2.2-.3.3-.2.2-.3.2-.3.2-.2.3-.3.2-.2.2-.3.2-.2.2-.3.2-.2.1-.3.2-.2.2-.3.2-.3.1-.2.2-.2.1-.3.2-.3.1-.2.2-.3.1-.2.2h-.3l-.2.2-.3.1-.2.1-.3.1-.2.2h-.3l-.3.2h-.2l-.3.2h-.2l-.3.1-.2.1-.3.1h-.2l-.3.2h-.3l-.2.1-.2.1h-.3l-.3.1h-.2l-.3.2h-.5l-.2.1h-.3l-.2.1h-.3l-.2.1h-.3l-.3.1h-.5l-.2.1h-.3l-.2.1h-.8l-.3.1h-.5l-.2.1h-.8l-.2.1h-1l-.3.1h-.8l-.2.1h-1.8l-.2.1h-1.6l-.2.1H244.3l-.2.1H238.2h136.5H361l-.3-.1H359l-.3-.1h-1l-.2-.1h-1.1l-.2-.1h-.6l-.2-.1h-.5l-.3-.1h-.5l-.2-.1h-.5l-.3-.1h-.2l-.3-.1h-.2l-.3-.1h-.3l-.2-.1h-.5l-.3-.2h-.5l-.2-.1h-.3l-.2-.2h-.5l-.3-.2h-.3l-.2-.1h-.3l-.2-.2h-.3l-.2-.2h-.3l-.2-.1-.3-.1-.2-.1-.3-.2h-.3l-.2-.2-.2-.1-.3-.1-.3-.1-.2-.2h-.3l-.2-.2-.3-.2-.2-.1-.3-.2-.2-.1-.3-.2-.3-.2-.2-.1-.3-.2-.2-.2-.3-.1-.2-.2-.3-.2-.2-.2-.3-.2-.2-.2-.3-.2-.3-.3-.2-.2-.2-.2-.3-.2-.3-.3-.2-.2-.3-.3-.2-.2-.3-.3-.2-.2-.3-.3-.2-.3-.3-.3-.2-.3-.3-.3-.3-.3-.2-.3-.3-.3-.2-.4-.3-.3-.2-.4-.3-.3-.2-.4-.3-.4-.3-.4-.2-.4-.3-.4-.2-.4-.3-.5-.2-.4-.3-.5-.2-.4-.3-.5-.2-.5-.3-.5-.3-.5-.2-.5-.2-.5-.3-.6-.3-.5-.2-.6-.3-.5-.2-.6-.3-.6-.2-.5-.3-.6-.2-.6-.3-.6-.3-.6-.2-.6-.3-.7-.2-.6-.3-.6-.2-.6-.3-.6-.2-.7-.3-.6-.2-.7-.3-.6-.3-.6-.2-.7-.2-.7-.3-.6-.3-.7-.2-.7-.3-.6-.2-.7-.3-.7-.2-.7-.3-.7-.2-.7-.3-.7-.2-.7-.3-.7-.3-.7-.2-.8-.3-.7-.2-.7-.3-.7-.2-.8-.3-.7-.2-.7-.3-.8-.3-.7-.2-.8-.2-.7-.3-.8-.3-.7-.2-.8-.3-.7-.2-.8-.3-.7-.2-.7-.3-.8-.2-.7-.3-.7-.2-.7-.3-.7-.3-.7-.2-.7-.3-.6-.2-.7-.3-.6-.2-.7-.3-.6-.2-.6-.3-.6-.3-.6-.2-.5-.2-.5-.3-.5-.3-.5-.2-.5-.3-.5-.2-.4-.3-.4-.2-.4-.3-.4-.2-.4-.3-.3-.2-.3-.3-.3-.3-.3-.2-.3-.3-.2-.2-.2-.3-.2-.2-.2-.3-.2-.2-.1-.3-.1-.3-.1-.2-.1h-.2l-.3-.1z"/><path fill="none" d="M158.6 115.6h259.5"/><path stroke="#000" stroke-width="2" stroke-linejoin="round" stroke-linecap="butt" d="M170.6 115.6h235.5"/><path fill="#000" stroke="#000" stroke-width="2" stroke-linecap="butt" d="M170.6 112.3l-9 3.3 9 3.3zM406 118.9l9.2-3.3-9.1-3.3z" fill-rule="evenodd"/><path fill="none" d="M244.7 0H353v37.9H244.7z"/><path fill="#e69138" d="M264.2 20.8v5h-1.8V12.5h4q1.2 0 2.1.3 1 .3 1.6.8.6.5.9 1.3.3.8.3 1.7 0 1-.3 1.7-.4.8-1 1.4-.6.5-1.5.8-1 .3-2.2.3h-2.1zm0-1.4h2.1q.8 0 1.4-.2.6-.2 1-.6.4-.3.6-.8l.2-1.2q0-1.3-.8-2t-2.4-.7h-2.1v5.5zm12.7-3.1q1 0 1.8.3.9.3 1.5 1 .5.6.9 1.5.3.9.3 2t-.3 2q-.4 1-1 1.6-.5.6-1.4 1-.8.3-1.8.3t-1.9-.4q-.8-.3-1.4-1-.6-.6-1-1.5-.2-.9-.2-2t.3-2q.3-.9.9-1.5.6-.7 1.4-1 .8-.3 1.9-.3zm0 8.4q1.4 0 2-1 .8-.9.8-2.6 0-1.7-.8-2.6-.6-1-2-1-.7 0-1.3.3-.5.2-.8.7-.4.5-.6 1.1l-.1 1.5.1 1.5q.2.7.6 1.1.3.5.8.7.6.3 1.3.3zm12-6.7l-.4.2-.3-.1-.5-.3-.6-.2-.8-.1-.8.1-.6.3-.3.4-.1.6.2.6.5.4.8.3.9.3 1 .3.7.5.5.7q.3.4.3 1t-.3 1.2q-.2.5-.7 1l-1 .6-1.6.2q-1 0-1.8-.3l-1.4-.9.4-.6.2-.2h.3l.3.1.5.3.6.3 1 .1.8-.1q.4-.1.6-.4.3-.2.4-.5l.1-.6q0-.4-.2-.6-.2-.3-.6-.4l-.8-.4-.9-.2-.9-.4-.8-.5-.5-.7q-.2-.4-.2-1l.2-1q.2-.5.7-1l1-.5q.6-.2 1.4-.2 1 0 1.7.3.8.2 1.3.7l-.4.7zm5.5 8q-1.1 0-1.7-.6-.6-.6-.6-1.8v-5.8h-1.4l-.1-.4v-.6l1.5-.2.4-3 .1-.2h1.1v3.2h2.7v1.2h-2.7v5.7q0 .6.3.8.3.3.7.3h.5l.3-.2.3-.1.1-.1.3.1.5.8-1 .7-1.3.2zm7.8-9.7q.9 0 1.6.2.7.3 1.2.9.5.5.8 1.3.3.8.3 1.8v.5l-.4.1h-6.3q0 1 .3 1.6.2.6.6 1.1l1 .7q.5.2 1.1.2.7 0 1.1-.2l.8-.3.5-.3.4-.1.3.1.5.6-.7.7-1 .4-1 .3h-1q-1 0-1.8-.3t-1.4-1q-.6-.6-1-1.5-.3-1-.3-2.2 0-1 .3-1.8.3-.9.9-1.5.5-.6 1.4-1 .8-.3 1.8-.3zm0 1.2q-1.2 0-1.8.7-.7.7-.9 1.9h5.1l-.1-1-.5-.9q-.3-.4-.7-.5l-1-.2zm6 8.3v-9.4h1l.4.1.1.3.1 1.5q.5-1 1.2-1.5.7-.6 1.7-.6l.7.1.6.3-.2 1.2q0 .2-.3.2h-.4l-.8-.1q-.8 0-1.4.5-.6.5-1 1.4v6h-1.7zm9.4-9.4v9.4H316v-9.4h1.6zm.4-3l-.1.5-.3.4-.4.2-.4.1h-.5l-.3-.3-.3-.4v-.5-.4l.3-.4.3-.3h.9l.4.3.3.4v.4zm6.4 2.9q1 0 1.8.3.9.3 1.5 1 .5.6.9 1.5.3.9.3 2t-.3 2q-.4 1-1 1.6-.5.6-1.4 1-.8.3-1.8.3t-2-.4q-.7-.3-1.3-1-.6-.6-1-1.5-.2-.9-.2-2t.3-2q.3-.9.9-1.5.6-.7 1.4-1 .8-.3 1.9-.3zm0 8.4q1.4 0 2-1 .8-.9.8-2.6 0-1.7-.8-2.6-.6-1-2-1-.7 0-1.3.3-.5.2-.8.7-.4.5-.6 1.1l-.1 1.5.1 1.5q.2.7.6 1.1.3.5.8.7.6.3 1.3.3zm6.5 1.1v-9.4h1l.3.1q.2.1.2.3v1.5q.6-1 1.3-1.5.7-.6 1.7-.6l.7.1.6.3-.3 1.2q0 .2-.2.2h-.4l-.8-.1q-.9 0-1.4.5-.6.5-1 1.4v6h-1.7z"/><path fill="none" d="M151.4 23.2h108.3v37.9H151.4z"/><path fill="#3c78d8" d="M188.4 44v5h-1.8V35.7h4q1.2 0 2.1.3 1 .3 1.6.8.6.5.9 1.3.3.8.3 1.7 0 1-.3 1.7-.3.8-1 1.4-.6.5-1.5.8-1 .3-2.2.3h-2.1zm0-1.4h2.1q.8 0 1.4-.2.6-.2 1-.6.4-.3.6-.8l.2-1.2q0-1.3-.8-2t-2.4-.7h-2.1v5.5zm9.1 6.4v-9.4h1l.4.1.1.3.1 1.5q.5-1 1.2-1.5.7-.6 1.7-.6l.7.1.6.3-.2 1.2q-.1.2-.3.2h-.4l-.8-.1q-.8 0-1.4.5-.6.5-1 1.4v6h-1.7zm9.4-9.4V49h-1.7v-9.4h1.7zm.4-3l-.1.5-.3.4-.4.2-.4.1h-.5l-.3-.3-.3-.4v-.5-.4l.3-.4.3-.3h.9l.4.3.3.4v.4zm6.4 2.9q1 0 1.8.3.9.3 1.4 1 .6.6 1 1.5.3.9.3 2t-.4 2q-.3 1-.9 1.6-.5.6-1.4 1-.8.3-1.8.3t-2-.4q-.7-.3-1.3-1-.6-.6-1-1.5-.3-.9-.3-2t.4-2q.3-.9.9-1.5.6-.7 1.4-1 .8-.3 1.9-.3zm0 8.4q1.3 0 2-1 .7-.9.7-2.6 0-1.7-.7-2.6-.7-1-2-1-.7 0-1.3.3-.5.2-.9.7l-.5 1.1-.1 1.5.1 1.5q.2.7.5 1.1.4.5 1 .7.5.3 1.2.3zm6.5 1.1v-9.4h1l.3.1.2.3v1.5q.6-1 1.3-1.5.7-.6 1.7-.6l.7.1.5.3-.2 1.2q0 .2-.3.2h-.4l-.7-.1q-.9 0-1.5.5-.5.5-1 1.4v6h-1.6z"/><path fill="none" d="M359.4 23.2h108.3v37.9H359.4z"/><path fill="#a64d79" d="M374.8 47.5h5.8V49H373V35.7h1.8v11.8zm9.3-8V49h-1.6v-9.4h1.6zm.4-2.9v.5l-.4.4-.3.2-.5.1h-.5l-.3-.3-.3-.4v-.5-.4l.3-.4.3-.3h1l.3.3.3.4.1.4zm4.3-1.3v8h.7q.2 0 .3-.2l3-3.2.3-.2.3-.1h1.6l-3.5 3.7-.3.3-.3.2.3.3.3.3 3.7 4.6h-1.9l-.2-.3-3.1-3.9-.3-.2h-.9V49h-1.7V35.3h1.7zm11.2 4.2q.9 0 1.6.2.7.3 1.2.9.6.5.8 1.3.3.8.3 1.8v.5l-.4.1h-6.3q0 1 .3 1.6.2.6.6 1.1l1 .7q.5.2 1.1.2.7 0 1.1-.2l.8-.3.6-.3.3-.1.4.1.4.6-.7.7-1 .4-1 .3h-1q-1 0-1.8-.3t-1.4-1q-.6-.6-1-1.5-.3-1-.3-2.2 0-1 .3-1.8.3-.9.9-1.5.6-.6 1.4-1 .8-.3 1.8-.3zm0 1.2q-1.1 0-1.8.7t-.9 1.9h5.2q0-.6-.2-1-.2-.6-.5-.9-.3-.4-.7-.5l-1-.2zm7.9-5.4V49h-1.7V35.3h1.7zm4.8 4.3V49H411v-9.4h1.7zm.3-3v.5l-.3.4-.4.2-.4.1h-.5l-.4-.3-.2-.4-.1-.5v-.4l.3-.4.4-.3h.9l.4.3.3.4v.4zm2.6 12.4V35.3h1.7V41q.6-.7 1.3-1 .8-.4 1.7-.4.8 0 1.4.2l1 .7q.4.5.6 1.2.2.6.2 1.4v6h-1.7v-6q0-1-.5-1.6-.5-.6-1.5-.6-.7 0-1.3.3-.7.4-1.2 1v7h-1.7zm14.2-9.5q1 0 1.9.3.8.3 1.4 1 .6.6.9 1.5.3.9.3 2t-.3 2q-.3 1-1 1.6-.5.6-1.3 1-.9.3-1.9.3-1 0-1.9-.4-.8-.3-1.4-1-.6-.6-.9-1.5-.3-.9-.3-2t.3-2q.3-.9 1-1.5.5-.7 1.3-1 .9-.3 2-.3zm0 8.4q1.4 0 2-1 .8-.9.8-2.6 0-1.7-.7-2.6-.7-1-2-1-.8 0-1.3.3-.5.2-.9.7l-.5 1.1q-.2.7-.2 1.5 0 .9.2 1.5.2.7.5 1.1.4.5.9.7.5.3 1.2.3zm10.4-8.4q1 0 1.8.3.9.3 1.5 1 .6.6.9 1.5.3.9.3 2t-.3 2q-.3 1-1 1.6-.5.6-1.4 1-.8.3-1.8.3t-1.9-.4q-.8-.3-1.4-1-.6-.6-1-1.5-.2-.9-.2-2t.3-2q.3-.9.9-1.5.6-.7 1.4-1 .8-.3 1.9-.3zm0 8.4q1.4 0 2-1 .8-.9.8-2.6 0-1.7-.7-2.6-.7-1-2.1-1-.7 0-1.3.3-.5.2-.8.7-.4.5-.5 1.1-.2.7-.2 1.5 0 .9.2 1.5.1.7.5 1.1.3.5.8.7.6.3 1.3.3zm13.2 1.1q-.4 0-.5-.3l-.1-1.2q-.6.8-1.4 1.2-.8.5-1.8.5-.8 0-1.5-.3-.6-.4-1-1-.6-.6-.8-1.5-.3-.9-.3-2 0-1 .3-2 .3-.9.8-1.5.5-.7 1.3-1 .8-.5 1.7-.5.9 0 1.5.3t1.1.8v-5.2h1.7V49h-1zm-3.2-1.2q.8 0 1.4-.3.6-.4 1.1-1v-4.7q-.4-.6-1-.8-.5-.3-1.2-.3-1.3 0-2 1t-.7 2.7l.1 1.5q.2.7.5 1.1.3.4.7.6l1 .2z"/><path fill="none" d="M3.5 286.5H54v37.9H3.5z"/><path fill="#000" d="M26.3 308.2H21v-1.5h5.4v1.5zm11.5 4.2h-7.4v-1.5h3v-8.7l-2.8 1.6-.6-1.4 3.8-2h1.4V311h2.6v1.5z"/><path fill="none" d="M86.2 286.5h29.1v37.9H86.2z"/><path fill="#000" d="M105 306.4q0 1.4-.2 2.5-.3 1.2-.8 2-.6.8-1.4 1.2-.8.4-2 .4-1 0-1.7-.3-.8-.4-1.3-1.1-.6-.8-.9-2-.3-1-.3-2.7 0-1.3.3-2.5.3-1.1.8-1.9.6-.8 1.4-1.2.8-.5 2-.5.9 0 1.7.4.8.3 1.3 1 .6.8.9 2 .3 1.2.3 2.7zm-1.5 0v-.5l-.1-.6-5 3.7q0 .5.3.9l.5.7q.3.3.7.4l.8.2q.7 0 1.2-.3t.8-1q.4-.5.6-1.4.2-.9.2-2zm-5.5 0v1.1l5.1-3.7q-.1-.5-.4-.9-.2-.4-.5-.6-.2-.3-.6-.5l-.9-.1q-.6 0-1 .3-.6.3-1 .9l-.5 1.5q-.2.8-.2 2z"/><path fill="none" d="M158.2 286.5h29.1v37.9h-29.1z"/><path fill="#000" d="M176.7 312.4h-7.5v-1.5h3v-8.7l-2.8 1.6-.6-1.4 3.8-2h1.4V311h2.7v1.5z"/><path fill="none" d="M230.2 286.5h29.1v37.9h-29.1z"/><path fill="#000" d="M248.8 312.4H241V311l3-3.1 1.3-1.3.7-1q.3-.4.3-.8l.1-.9v-.8l-.4-.7-.7-.5q-.4-.2-1-.2-.7 0-1.3.4-.6.3-1.1.8l-.9-1q.7-.7 1.5-1.2 1-.4 2.1-.4.8 0 1.4.3.7.2 1.2.6l.7 1.1q.3.7.3 1.5 0 .7-.2 1.3l-.6 1.1-1 1.2-1.2 1.4-2.2 2h5.8v1.6z"/><path fill="none" d="M27.6 291.3v-3.8"/><path stroke="#000" stroke-linejoin="round" stroke-linecap="butt" d="M27.6 291.3v-3.8"/><path fill="none" d="M100.7 291.3v-3.8"/><path stroke="#000" stroke-linejoin="round" stroke-linecap="butt" d="M100.7 291.3v-3.8"/><path fill="none" d="M172.7 291.3v-3.8"/><path stroke="#000" stroke-linejoin="round" stroke-linecap="butt" d="M172.7 291.3v-3.8"/><path fill="none" d="M244.7 291.3v-3.8"/><path stroke="#000" stroke-linejoin="round" stroke-linecap="butt" d="M244.7 291.3v-3.8"/><path fill="none" d="M21.2 308h231v38h-231z"/><path fill="#000" d="M92.8 332.4h5.7v1.5H91v-13.4h1.9v11.9zm11-8q1 0 1.8.3.9.3 1.4 1 .6.6 1 1.5.3.9.3 2t-.4 2q-.3.9-.9 1.5-.5.7-1.4 1-.8.3-1.8.3t-2-.3q-.7-.3-1.3-1-.6-.6-1-1.5-.3-.9-.3-2t.4-2q.3-1 .9-1.5.6-.7 1.4-1 .8-.4 1.9-.4zm0 8.3q1.4 0 2-.9.7-1 .7-2.6 0-1.7-.7-2.6-.6-1-2-1-.7 0-1.3.3-.5.2-.8.7-.4.4-.6 1.1l-.1 1.5.1 1.5q.2.7.6 1.1.3.5.8.7.6.2 1.3.2zm9.4 1.4q-1.1 0-1.8-.7-.5-.6-.5-1.8V326h-1.2l-.3-.1v-1l1.5-.2.4-2.9.1-.2.3-.1h.8v3.3h2.7v1.2h-2.7v5.6q0 .6.3 1 .3.2.7.2h.5l.3-.2.3-.2h.1l.3.1.5.8-1 .6q-.7.3-1.3.3zm9.5-8l-.4.1h-.3l-.4-.3-.6-.2-.9-.1h-.7l-.6.4-.4.4v.5l.1.6q.2.3.6.5l.8.3.8.3 1 .3.7.5q.4.3.6.7.2.4.2 1t-.2 1.1l-.7 1q-.5.4-1.1.6-.7.3-1.6.3-1 0-1.8-.4-.8-.3-1.3-.8l.4-.6.1-.2h.7l.4.3.7.3q.4.2 1 .2l.8-.2q.3 0 .6-.3l.3-.5.2-.6q0-.4-.3-.6l-.5-.5-.8-.3-1-.3-.8-.3-.8-.5-.6-.7q-.2-.4-.2-1t.3-1q.2-.6.6-1l1-.6q.7-.2 1.5-.2 1 0 1.7.3t1.2.8l-.3.6zm10-1.8q1.1 0 2 .4.8.3 1.4 1 .6.6.9 1.5.3.9.3 2t-.3 2q-.3.9-1 1.5-.5.7-1.3 1-.9.3-2 .3-1 0-1.8-.3t-1.4-1q-.6-.6-1-1.5-.2-.9-.2-2t.3-2q.3-1 .9-1.5.6-.7 1.4-1 .9-.4 1.9-.4zm0 8.4q1.5 0 2.2-.9.7-1 .7-2.6 0-1.7-.7-2.6-.7-1-2.1-1-.7 0-1.2.3-.6.2-1 .7-.3.4-.4 1.1-.2.7-.2 1.5t.2 1.5q.1.7.5 1.1.3.5.9.7.5.2 1.2.2zm7 1.2v-8l-1-.1q-.2 0-.3-.2-.2 0-.2-.3v-.6h1.5v-1q0-.8.2-1.4l.7-1q.4-.5 1-.7.6-.2 1.4-.2l1.1.1v.9q0 .2-.2.2h-.7l-.8.1-.5.4q-.3.3-.4.7-.2.4-.2 1v.9h2.8v1.2h-2.7v8h-1.7zm16.2 0q-.4 0-.5-.3l-.1-1.2q-.6.8-1.4 1.2-.8.4-1.8.4-.8 0-1.5-.3-.6-.3-1.1-.9-.5-.6-.7-1.5-.3-.9-.3-2t.3-2q.3-1 .8-1.6.5-.6 1.3-1t1.7-.4q.9 0 1.5.3t1.1.8v-5.2h1.7v13.7h-1zm-3.2-1.2q.8 0 1.4-.4.6-.3 1.1-1v-4.6q-.4-.6-1-.9-.5-.2-1.2-.2-1.3 0-2 1-.7.9-.7 2.6l.1 1.6q.2.7.5 1 .3.5.7.7l1 .2zm13.9 1.2h-1.1q-.2-.1-.2-.4l-.2-.8-.7.5-.8.5-.8.3h-2q-.5-.2-.9-.6l-.5-.7q-.2-.5-.2-1.1 0-.6.2-1.1l1-1 1.8-.6 2.8-.3v-.7q0-1.1-.5-1.7-.5-.6-1.4-.6-.6 0-1 .2-.4.1-.7.4l-.6.3-.4.1h-.3l-.2-.3-.3-.5q.8-.8 1.7-1.1.9-.4 2-.4.8 0 1.4.3.6.2 1 .7.5.5.7 1.1.2.7.2 1.5v6zm-4.3-1h.8l.7-.3.6-.4.6-.6v-2l-2 .3-1.3.3-.7.6q-.3.3-.3.7 0 .4.2.6l.3.5.5.2.6.1zm9.7 1.2q-1.1 0-1.7-.7-.6-.6-.6-1.8V326h-1.2l-.2-.1-.1-.3v-.7l1.5-.2.4-2.9.1-.2.3-.1h.8v3.3h2.7v1.2h-2.7v5.6q0 .6.3 1 .3.2.7.2h.5l.3-.2.3-.2h.1l.3.1.5.8-1 .6q-.7.3-1.3.3zm11-.2H182q-.2-.1-.2-.4l-.2-.8-.7.5-.8.5-.8.3h-2q-.5-.2-.9-.6l-.5-.7q-.2-.5-.2-1.1 0-.6.3-1.1.3-.5 1-1l1.8-.6 2.7-.3v-.7q0-1.1-.5-1.7-.5-.6-1.4-.6-.6 0-1 .2-.4.1-.7.4l-.5.3-.5.1h-.3l-.2-.3-.3-.5q.8-.8 1.7-1.1 1-.4 2-.4.8 0 1.4.3.6.2 1 .7.5.5.7 1.1.2.7.2 1.5v6zm-4.3-1h.8l.7-.3.6-.4.6-.6v-2l-2 .3-1.3.3-.7.6q-.2.3-.2.7v.6l.4.5.5.2.6.1z"/><path fill="#3c78d8" fill-opacity=".3" d="M99 217.1H98.5l-.3.2h-.3l-.3.1-.3.2-.3.1-.3.2-.3.2-.3.2-.3.2-.3.3-.3.3-.3.2-.3.4-.4.3-.3.4-.3.3-.3.4-.3.4-.3.5-.3.4-.3.5-.3.5-.3.5-.3.5-.3.6-.3.5-.3.6-.4.6-.3.6-.3.6-.3.6-.3.7-.3.6-.3.7-.3.6-.3.7-.3.7-.4.7-.3.7-.2.7-.3.7-.4.8-.3.7-.3.7-.3.7-.3.7-.3.8-.3.7-.3.7-.3.8-.3.7-.4.7-.3.8-.3.7-.2.7-.4.7-.3.8-.3.7-.3.7-.3.7-.3.7-.3.7-.3.6-.3.7-.3.7-.4.6-.3.7-.3.6-.2.7-.4.6-.3.6-.3.6-.3.7-.3.6-.3.6-.3.6-.3.5-.3.6-.3.6-.4.6-.3.5-.3.6-.3.5-.3.6-.3.5-.3.5-.3.6-.3.5-.3.5-.3.5-.3.5-.3.5-.3.5-.4.5-.3.4-.3.5-.3.5-.3.4-.3.5-.3.4-.3.4-.3.5-.3.4-.3.4-.3.4-.3.4-.3.3-.4.4-.3.4-.3.3-.3.4-.3.3-.3.3-.3.3-.3.3-.3.3-.3.3-.3.3-.3.3-.3.2-.3.3-.4.2-.3.3-.3.2-.3.3-.3.2-.3.2-.3.2-.3.2-.3.2-.3.2-.4.2-.2.2-.3.1-.4.2-.3.2-.3.2-.3.1-.3.1-.3.2-.3.1-.3.2-.3.1-.3.1-.3.2-.4.1-.3.1-.2.1-.4.1-.3.1-.3.1-.3.2h-.3l-.3.1-.3.2h-.3l-.3.1-.3.1h-.3l-.4.2H49l-.3.1h-.3l-.3.1-.3.1-.3.1h-.3l-.3.1h-.3l-.3.1h-.3l-.3.1h-.4l-.3.1h-.3l-.3.1h-.6l-.3.1h-.6l-.3.1h-.3l-.3.1h-1l-.3.1H39.7l-.3.1H38.5l-.3.1h-1.6l-.3.1h-1.8l-.3.1H31.7l-.3.1h-4l-.3.1h-8.9 165.1H166.1l-.3-.1H163.9l-.3-.1h-1.2l-.3-.1H161.2l-.3-.1h-1l-.3-.1H158.7l-.3-.1h-.3l-.3-.1h-.6l-.3-.1h-.6l-.4-.1h-.3l-.3-.1h-.3l-.3-.1h-.3l-.3-.1h-.3l-.3-.1h-.3l-.3-.1-.3-.1h-.3l-.3-.1h-.4l-.3-.2h-.3l-.3-.1-.3-.1-.3-.1h-.3l-.3-.2h-.3l-.3-.2h-.3l-.3-.1-.3-.2h-.3l-.4-.2h-.3l-.3-.2-.3-.1-.3-.2-.3-.1-.3-.1-.3-.2-.3-.1-.3-.2-.4-.1-.3-.2-.2-.1-.3-.2-.4-.2-.3-.1-.3-.2-.3-.2-.3-.2-.3-.2-.3-.2-.3-.2-.3-.2-.3-.2-.4-.2-.3-.2-.3-.3-.2-.2-.4-.2-.3-.3-.3-.2-.3-.3-.3-.2-.3-.3-.3-.3-.3-.3-.3-.2-.3-.4-.4-.3-.3-.3-.3-.3-.3-.3-.3-.4-.3-.3-.3-.4-.3-.3-.3-.4-.3-.4-.3-.4-.3-.4-.3-.4-.3-.5-.4-.4-.3-.4-.3-.5-.3-.4-.3-.5-.3-.5-.3-.5-.3-.5-.3-.5-.3-.5-.3-.5-.3-.5-.3-.6-.3-.5-.4-.6-.3-.5-.3-.6-.3-.5-.3-.6-.3-.6-.3-.5-.3-.6-.3-.6-.3-.6-.3-.6-.3-.6-.3-.6-.3-.6-.4-.6-.3-.6-.3-.6-.3-.6-.3-.7-.3-.6-.3-.6-.3-.6-.3-.7-.3-.6-.3-.7-.3-.6-.3-.7-.3-.6-.4-.7-.3-.7-.3-.6-.3-.7-.3-.7-.3-.7-.3-.6-.3-.7-.3-.7-.3-.7-.4-.7-.2-.7-.3-.7-.4-.7-.3-.7-.3-.7-.3-.7-.3-.7-.3-.6-.3-.7-.3-.7-.3-.7-.3-.7-.3-.6-.4-.7-.3-.6-.2-.6-.4-.7-.3-.6-.3-.6-.3-.6-.3-.5-.3-.6-.3-.5-.3-.6-.3-.5-.3-.5-.3-.5-.4-.4-.3-.5-.3-.4-.3-.4-.3-.4-.3-.4-.3-.3-.3-.4-.3-.3-.3-.3-.3-.3-.3-.2-.3-.3-.4-.2-.3-.2-.3-.2-.3-.2-.3-.1-.3-.1-.3-.1-.3-.1-.3-.1h-.6z" fill-rule="evenodd"/><path stroke="#3c78d8" stroke-linejoin="round" stroke-linecap="butt" d="M99 217.1H98.5l-.3.2h-.3l-.3.1-.3.2-.3.1-.3.2-.3.2-.3.2-.3.2-.3.3-.3.3-.3.2-.3.4-.4.3-.3.4-.3.3-.3.4-.3.4-.3.5-.3.4-.3.5-.3.5-.3.5-.3.5-.3.6-.3.5-.3.6-.4.6-.3.6-.3.6-.3.6-.3.7-.3.6-.3.7-.3.6-.3.7-.3.7-.4.7-.3.7-.2.7-.3.7-.4.8-.3.7-.3.7-.3.7-.3.7-.3.8-.3.7-.3.7-.3.8-.3.7-.4.7-.3.8-.3.7-.2.7-.4.7-.3.8-.3.7-.3.7-.3.7-.3.7-.3.7-.3.6-.3.7-.3.7-.4.6-.3.7-.3.6-.2.7-.4.6-.3.6-.3.6-.3.7-.3.6-.3.6-.3.6-.3.5-.3.6-.3.6-.4.6-.3.5-.3.6-.3.5-.3.6-.3.5-.3.5-.3.6-.3.5-.3.5-.3.5-.3.5-.3.5-.3.5-.4.5-.3.4-.3.5-.3.5-.3.4-.3.5-.3.4-.3.4-.3.5-.3.4-.3.4-.3.4-.3.4-.3.3-.4.4-.3.4-.3.3-.3.4-.3.3-.3.3-.3.3-.3.3-.3.3-.3.3-.3.3-.3.3-.3.2-.3.3-.4.2-.3.3-.3.2-.3.3-.3.2-.3.2-.3.2-.3.2-.3.2-.3.2-.4.2-.2.2-.3.1-.4.2-.3.2-.3.2-.3.1-.3.1-.3.2-.3.1-.3.2-.3.1-.3.1-.3.2-.4.1-.3.1-.2.1-.4.1-.3.1-.3.1-.3.2h-.3l-.3.1-.3.2h-.3l-.3.1-.3.1h-.3l-.4.2H49l-.3.1h-.3l-.3.1-.3.1-.3.1h-.3l-.3.1h-.3l-.3.1h-.3l-.3.1h-.4l-.3.1h-.3l-.3.1h-.6l-.3.1h-.6l-.3.1h-.3l-.3.1h-1l-.3.1H39.7l-.3.1H38.5l-.3.1h-1.6l-.3.1h-1.8l-.3.1H31.7l-.3.1h-4l-.3.1h-8.9 165.1H166.1l-.3-.1H163.9l-.3-.1h-1.2l-.3-.1H161.2l-.3-.1h-1l-.3-.1H158.7l-.3-.1h-.3l-.3-.1h-.6l-.3-.1h-.6l-.4-.1h-.3l-.3-.1h-.3l-.3-.1h-.3l-.3-.1h-.3l-.3-.1h-.3l-.3-.1-.3-.1h-.3l-.3-.1h-.4l-.3-.2h-.3l-.3-.1-.3-.1-.3-.1h-.3l-.3-.2h-.3l-.3-.2h-.3l-.3-.1-.3-.2h-.3l-.4-.2h-.3l-.3-.2-.3-.1-.3-.2-.3-.1-.3-.1-.3-.2-.3-.1-.3-.2-.4-.1-.3-.2-.2-.1-.3-.2-.4-.2-.3-.1-.3-.2-.3-.2-.3-.2-.3-.2-.3-.2-.3-.2-.3-.2-.3-.2-.4-.2-.3-.2-.3-.3-.2-.2-.4-.2-.3-.3-.3-.2-.3-.3-.3-.2-.3-.3-.3-.3-.3-.3-.3-.2-.3-.4-.4-.3-.3-.3-.3-.3-.3-.3-.3-.4-.3-.3-.3-.4-.3-.3-.3-.4-.3-.4-.3-.4-.3-.4-.3-.4-.3-.5-.4-.4-.3-.4-.3-.5-.3-.4-.3-.5-.3-.5-.3-.5-.3-.5-.3-.5-.3-.5-.3-.5-.3-.5-.3-.6-.3-.5-.4-.6-.3-.5-.3-.6-.3-.5-.3-.6-.3-.6-.3-.5-.3-.6-.3-.6-.3-.6-.3-.6-.3-.6-.3-.6-.3-.6-.4-.6-.3-.6-.3-.6-.3-.6-.3-.7-.3-.6-.3-.6-.3-.6-.3-.7-.3-.6-.3-.7-.3-.6-.3-.7-.3-.6-.4-.7-.3-.7-.3-.6-.3-.7-.3-.7-.3-.7-.3-.6-.3-.7-.3-.7-.3-.7-.4-.7-.2-.7-.3-.7-.4-.7-.3-.7-.3-.7-.3-.7-.3-.7-.3-.6-.3-.7-.3-.7-.3-.7-.3-.7-.3-.6-.4-.7-.3-.6-.2-.6-.4-.7-.3-.6-.3-.6-.3-.6-.3-.5-.3-.6-.3-.5-.3-.6-.3-.5-.3-.5-.3-.5-.4-.4-.3-.5-.3-.4-.3-.4-.3-.4-.3-.4-.3-.3-.3-.4-.3-.3-.3-.3-.3-.3-.3-.2-.3-.3-.4-.2-.3-.2-.3-.2-.3-.2-.3-.1-.3-.1-.3-.1-.3-.1-.3-.1h-.6z"/><path fill="#a64d79" fill-opacity=".3" d="M196.5 174.7l-.2.2h-.1l-.2.2v.2l-.2.2-.1.2-.1.3-.2.3-.1.3-.1.4-.1.4-.2.5-.1.4-.1.5-.2.6v.6l-.2.6-.1.6-.1.7-.2.7v.7l-.2.8-.1.8-.2.8v.8l-.2.9-.1.9-.2.9v1l-.2.9-.1 1-.2 1v1l-.2 1-.1 1.1-.2 1.1v1.1l-.2 1-.1 1.2-.2 1.1v1.2l-.2 1.1-.1 1.2-.2 1.2v1.1l-.2 1.2-.1 1.2-.1 1.2-.2 1.1-.1 1.2-.1 1.2-.1 1.1-.2 1.2-.1 1.2-.1 1.2-.1 1.1-.2 1.2v1.2l-.2 1-.1 1.2-.2 1.2v1l-.2 1.2-.1 1-.2 1.1v1.1l-.2 1-.1 1.1-.2 1v1.1l-.2 1-.1 1-.2 1v1l-.2 1-.1 1-.2.9v1l-.2.9-.1.9-.2.9v1l-.2.8-.1.9-.2.8v1l-.2.8-.1.8-.1.8-.2.9-.1.8-.1.8-.1.8-.2.8-.1.8-.1.7-.1.8-.2.7v.8l-.2.6-.1.8-.2.6v.7l-.2.7-.1.6-.2.7v.6l-.2.6-.1.6-.2.6v.5l-.2.6-.1.5-.2.5v.6l-.2.4-.1.5-.1.5-.2.5-.1.4-.1.4-.1.4-.2.4-.1.4-.1.4-.2.4v.3l-.2.4-.1.3-.1.3-.2.4v.3l-.2.3-.1.3-.2.2-.1.3-.1.3-.1.3-.2.2v.2l-.2.3-.1.2-.2.3v.2l-.2.2-.1.2-.2.2v.2l-.2.1-.1.2-.2.2v.2l-.2.1-.1.2-.2.1v.2l-.2.1-.1.2-.1.1-.2.1-.1.2h-.1l-.1.2-.2.1-.1.1-.1.2h-.1l-.2.1v.1l-.2.1-.1.1-.2.1-.2.2h-.1l-.2.1-.2.1-.1.1h-.2v.1h-.2l-.1.1h-.2v.2h-.5v.1H172.6l-.2.1-.2.1H172v.1h-.4l-.2.1h-.1l-.1.1h-.4l-.1.1h-.5l-.1.1h-.5l-.2.1h-.8l-.1.1H166.8v.1h-3 66.8-6.5v-.1h-.5v-.1H223l-.1-.1h-.4l-.1-.1h-.2l-.2-.1h-.2l-.1-.1h-.2v-.1H221.1l-.2-.1-.2-.1h-.1l-.2-.1-.2-.1h-.1l-.2-.2h-.2l-.1-.2h-.2l-.2-.2h-.1l-.2-.1v-.1h-.2l-.1-.2h-.2v-.1l-.2-.1-.1-.1-.1-.1-.2-.1-.1-.1-.1-.2h-.1l-.2-.2-.1-.2h-.1l-.1-.2-.2-.2v-.1l-.2-.2-.1-.1-.2-.2v-.1l-.2-.3-.1-.1-.2-.2v-.2l-.2-.2-.1-.2-.2-.2v-.2l-.2-.3-.1-.2-.2-.2v-.3l-.2-.2-.1-.3-.1-.2-.2-.3-.1-.3-.1-.3-.2-.3v-.3l-.2-.3-.1-.3-.2-.3v-.4l-.2-.3-.1-.4-.1-.3-.2-.4v-.3l-.2-.4-.1-.4-.2-.4-.1-.4-.1-.4-.1-.5-.2-.4v-.5l-.2-.4-.1-.5-.2-.5v-.5l-.2-.5-.1-.6-.2-.5v-.6l-.2-.5-.1-.6-.2-.7v-.6l-.2-.6-.1-.7-.2-.6v-.7l-.2-.7-.1-.7-.1-.8-.2-.7-.1-.8-.1-.7-.1-.8-.2-.8-.1-.8-.1-.8-.2-.9v-.8l-.2-.9-.1-.8-.1-1-.2-.8v-.9l-.2-1-.1-.8-.2-1v-.9l-.2-.9-.1-1-.2-.9v-1l-.2-.9-.1-1-.2-1v-.9l-.2-1-.1-1-.2-1v-1l-.2-1-.1-1-.2-1v-1l-.2-1-.1-1-.2-1.1v-1.1l-.2-1-.1-1.1-.1-1.1-.2-1-.1-1.2-.1-1-.1-1.2-.2-1-.1-1.2-.1-1-.1-1.2-.2-1.1v-1.1l-.2-1.1-.1-1.1-.2-1.2v-1l-.2-1.2-.1-1.1-.2-1.1v-1.1l-.2-1.1-.1-1-.2-1.2v-1l-.2-1-.1-1.1-.2-1v-1l-.2-1-.1-1-.1-1-.2-.8-.1-1-.1-.8-.2-.9v-.8l-.2-.8-.1-.8-.2-.7v-.7l-.2-.7-.1-.7-.1-.6-.2-.6v-.6l-.2-.6-.1-.5-.2-.4-.1-.5-.1-.4-.1-.4-.2-.4v-.3l-.2-.3-.1-.3-.2-.2v-.2l-.2-.2-.1-.1-.2-.1v-.1h-.2z" fill-rule="evenodd"/><path stroke="#a64d79" stroke-linejoin="round" stroke-linecap="butt" d="M196.5 174.7h0l-.2.2h-.1l-.2.2v.2l-.2.2-.1.2-.1.3-.2.3-.1.3-.1.4-.1.4-.2.5-.1.4-.1.5-.2.6v.6l-.2.6-.1.6-.1.7-.2.7v.7l-.2.8-.1.8-.2.8v.8l-.2.9-.1.9-.2.9v1l-.2.9-.1 1-.2 1v1l-.2 1-.1 1.1-.2 1.1v1.1l-.2 1-.1 1.2-.2 1.1v1.2l-.2 1.1-.1 1.2-.2 1.2v1.1l-.2 1.2-.1 1.2-.1 1.2-.2 1.1-.1 1.2-.1 1.2-.1 1.1-.2 1.2-.1 1.2-.1 1.2-.1 1.1-.2 1.2v1.2l-.2 1-.1 1.2-.2 1.2v1l-.2 1.2-.1 1-.2 1.1v1.1l-.2 1-.1 1.1-.2 1v1.1l-.2 1-.1 1-.2 1v1l-.2 1-.1 1-.2.9v1l-.2.9-.1.9-.2.9v1l-.2.8-.1.9-.2.8v1l-.2.8-.1.8-.1.8-.2.9-.1.8-.1.8-.1.8-.2.8-.1.8-.1.7-.1.8-.2.7v.8l-.2.6-.1.8-.2.6v.7l-.2.7-.1.6-.2.7v.6l-.2.6-.1.6-.2.6v.5l-.2.6-.1.5-.2.5v.6l-.2.4-.1.5-.1.5-.2.5-.1.4-.1.4-.1.4-.2.4-.1.4-.1.4-.2.4v.3l-.2.4-.1.3-.1.3-.2.4v.3l-.2.3-.1.3-.2.2-.1.3-.1.3-.1.3-.2.2v.2l-.2.3-.1.2-.2.3v.2l-.2.2-.1.2-.2.2v.2l-.2.1-.1.2-.2.2v.2l-.2.1-.1.2-.2.1v.2l-.2.1-.1.2-.1.1-.2.1-.1.2h-.1l-.1.2-.2.1-.1.1-.1.2h-.1l-.2.1v.1l-.2.1-.1.1-.2.1h0l-.2.2h-.1l-.2.1h0l-.2.1-.1.1h-.2v.1h-.2l-.1.1h-.2v.2h-.5v.1H172.6l-.2.1h0l-.2.1H172v.1h-.4l-.2.1h-.1l-.1.1h-.4l-.1.1H170.4h0-.2l-.1.1h-.2 0H169.5l-.2.1h0-.5 0-.3l-.1.1H166.8v.1h-3 66.8-6.5v-.1h-.5v-.1H223l-.1-.1h-.4l-.1-.1h-.2l-.2-.1h0-.2l-.1-.1h-.2v-.1H221.1l-.2-.1h0l-.2-.1h-.1l-.2-.1h0l-.2-.1h-.1l-.2-.2h0-.2l-.1-.2h-.2 0l-.2-.2h-.1l-.2-.1v-.1h-.2l-.1-.2h-.2v-.1l-.2-.1-.1-.1-.1-.1-.2-.1-.1-.1-.1-.2h-.1l-.2-.2-.1-.2h-.1l-.1-.2-.2-.2v-.1l-.2-.2-.1-.1-.2-.2v-.1l-.2-.3-.1-.1-.2-.2v-.2l-.2-.2-.1-.2-.2-.2v-.2l-.2-.3-.1-.2-.2-.2v-.3l-.2-.2-.1-.3-.1-.2-.2-.3-.1-.3-.1-.3-.2-.3v-.3l-.2-.3-.1-.3-.2-.3v-.4l-.2-.3-.1-.4-.1-.3-.2-.4v-.3l-.2-.4-.1-.4-.2-.4-.1-.4-.1-.4-.1-.5-.2-.4v-.5l-.2-.4-.1-.5-.2-.5v-.5l-.2-.5-.1-.6-.2-.5v-.6l-.2-.5-.1-.6-.2-.7v-.6l-.2-.6-.1-.7-.2-.6v-.7l-.2-.7-.1-.7-.1-.8-.2-.7-.1-.8-.1-.7-.1-.8-.2-.8-.1-.8-.1-.8-.2-.9v-.8l-.2-.9-.1-.8-.1-1-.2-.8v-.9l-.2-1-.1-.8-.2-1v-.9l-.2-.9-.1-1-.2-.9v-1l-.2-.9-.1-1-.2-1v-.9l-.2-1-.1-1-.2-1v-1l-.2-1-.1-1-.2-1v-1l-.2-1-.1-1-.2-1.1v-1.1l-.2-1-.1-1.1-.1-1.1-.2-1-.1-1.2-.1-1-.1-1.2-.2-1-.1-1.2-.1-1-.1-1.2-.2-1.1v-1.1l-.2-1.1-.1-1.1-.2-1.2v-1l-.2-1.2-.1-1.1-.2-1.1v-1.1l-.2-1.1-.1-1-.2-1.2v-1l-.2-1-.1-1.1-.2-1v-1l-.2-1-.1-1-.1-1-.2-.8-.1-1-.1-.8-.2-.9v-.8l-.2-.8-.1-.8-.2-.7v-.7l-.2-.7-.1-.7-.1-.6-.2-.6v-.6l-.2-.6-.1-.5-.2-.4-.1-.5-.1-.4-.1-.4-.2-.4v-.3l-.2-.3-.1-.3-.2-.2v-.2l-.2-.2-.1-.1-.2-.1v-.1h-.2z"/><path fill="#e69138" fill-opacity=".3" d="M171.7 202.4h-.2l-.2.1h-.2l-.1.2-.2.1-.2.2-.2.1-.2.2-.2.3-.2.2-.2.3-.1.3-.2.4-.2.3-.2.4-.2.4-.2.4-.2.5-.2.5-.2.5-.1.5-.2.5-.2.6-.2.6-.2.6-.2.7-.2.6-.2.7-.1.7-.2.7-.2.7-.2.8-.2.7-.2.8-.2.8-.2.8-.2.8-.1.8-.2.8-.2.9-.2.8-.2.9-.2.9-.2.8-.2 1-.1.8-.2.9-.2.9-.2.9-.2.8-.2 1-.2.8-.2.9-.2.9-.1.9-.2.9-.2.8-.2.9-.2.9-.2.8-.2.9-.2.8-.1.8-.2.9-.2.8-.2.8-.2.8-.2.8-.2.8-.2.8-.1.8-.2.8-.2.7-.2.8-.2.7-.2.7-.2.8-.2.7-.2.7-.1.7-.2.7-.2.7-.2.7-.2.6-.2.7-.2.6-.2.7-.1.6-.3.7-.1.6-.2.6-.2.6-.2.6-.2.7-.2.5-.2.6-.1.6-.2.6-.2.5-.2.6-.2.5-.2.5-.2.5-.2.6-.1.5-.3.5-.1.4-.2.5-.2.5-.2.4-.2.4-.2.5-.2.4-.2.4-.1.4-.2.4-.2.3-.2.4-.2.3-.2.4-.2.3-.2.3-.1.3-.2.4-.2.3-.2.2-.2.3-.2.3-.2.2-.2.3-.2.2-.1.3-.2.2-.2.2-.2.3-.2.2-.2.2-.2.2-.2.2-.1.2-.2.1-.2.2-.2.2-.2.2-.2.1-.2.2-.2.1-.2.2-.1.2h-.2l-.2.2-.2.1-.2.2h-.2l-.2.2-.2.1-.1.2h-.2l-.2.2h-.2l-.2.2h-.2l-.2.1-.2.1-.2.1-.1.1-.2.1h-.2l-.2.1-.2.1h-.2l-.2.2H139l-.2.1h-.2l-.2.1h-.2l-.2.1h-.2l-.2.1h-.2l-.1.1h-.2l-.2.1h-.4l-.2.1h-.4l-.1.1h-.4l-.2.1H134.6l-.2.1h-.7l-.2.1h-.8l-.1.1h-1l-.2.1H130l-.2.1H128l-.2.1h-5.5 101H213l-.2-.1H211.8l-.2-.1H211l-.2-.1H210l-.2-.1h-.4l-.1-.1h-.4l-.2-.1h-.4l-.2-.1h-.2l-.2-.1H207.5l-.2-.1h-.2l-.2-.1h-.2l-.2-.1h-.2l-.1-.1h-.2l-.2-.1-.2-.1h-.2l-.2-.1h-.2l-.2-.2h-.1l-.2-.1-.2-.1h-.2l-.2-.2h-.2l-.2-.1-.2-.1-.2-.1-.1-.1-.2-.1-.2-.1-.2-.1-.2-.2-.2-.1-.2-.1-.2-.1-.1-.2-.2-.1-.2-.1-.2-.2-.2-.2-.2-.1-.2-.2-.2-.1-.2-.2-.1-.2-.2-.2-.2-.2-.2-.1-.2-.2-.2-.2-.2-.2-.2-.2-.1-.3-.2-.2-.2-.2-.2-.2-.2-.3-.2-.2-.2-.3-.2-.2-.2-.3-.1-.2-.2-.3-.2-.3-.2-.3-.2-.3-.2-.3-.2-.3-.2-.3-.1-.3-.2-.4-.2-.3-.2-.3-.2-.4-.2-.4-.2-.4-.2-.4-.1-.4-.2-.4-.2-.4-.2-.4-.2-.5-.2-.4-.2-.5-.2-.5-.2-.5-.1-.5-.2-.5-.2-.5-.2-.6-.2-.5-.2-.6-.2-.5-.2-.6-.1-.6-.2-.6-.2-.6-.2-.6-.2-.7-.2-.6-.2-.6-.2-.7-.2-.7-.1-.6-.2-.7-.2-.7-.2-.7-.2-.7-.2-.7-.2-.7-.2-.7-.1-.7-.3-.7-.1-.7-.2-.7-.2-.8-.2-.7-.2-.7-.2-.8-.2-.8-.1-.7-.2-.8-.2-.7-.2-.8-.2-.8-.2-.7-.2-.8-.2-.8-.1-.8-.2-.8-.2-.8-.2-.8-.2-.8-.2-.8-.2-.8-.2-.9-.2-.8-.2-.9-.1-.8-.2-.8-.2-.9-.2-.8-.2-.8-.2-.9-.2-.8-.2-.9-.1-.8-.2-.9-.2-.8-.2-.8-.2-.8-.2-.8-.2-.9-.1-.7-.3-.8-.1-.8-.2-.8-.2-.7-.2-.8-.2-.7-.2-.7-.2-.7-.2-.7-.1-.6-.2-.7-.2-.6-.2-.6-.2-.6-.2-.6-.2-.5-.2-.5-.2-.5-.1-.5-.2-.5-.2-.4-.2-.4-.2-.4-.2-.3-.2-.4-.2-.3-.1-.3-.2-.3-.2-.2-.2-.2-.2-.2-.2-.2-.2-.2-.2-.1-.2-.1-.1-.1h-.2l-.2-.1z" fill-rule="evenodd"/><path stroke="#e69138" stroke-linejoin="round" stroke-linecap="butt" d="M171.7 202.4h-.2l-.2.1h-.2l-.1.2-.2.1-.2.2-.2.1-.2.2-.2.3-.2.2-.2.3-.1.3-.2.4-.2.3-.2.4-.2.4-.2.4-.2.5-.2.5-.2.5-.1.5-.2.5-.2.6-.2.6-.2.6-.2.7-.2.6-.2.7-.1.7-.2.7-.2.7-.2.8-.2.7-.2.8-.2.8-.2.8-.2.8-.1.8-.2.8-.2.9-.2.8-.2.9-.2.9-.2.8-.2 1-.1.8-.2.9-.2.9-.2.9-.2.8-.2 1-.2.8-.2.9-.2.9-.1.9-.2.9-.2.8-.2.9-.2.9-.2.8-.2.9-.2.8-.1.8-.2.9-.2.8-.2.8-.2.8-.2.8-.2.8-.2.8-.1.8-.2.8-.2.7-.2.8-.2.7-.2.7-.2.8-.2.7-.2.7-.1.7-.2.7-.2.7-.2.7-.2.6-.2.7-.2.6-.2.7-.1.6-.3.7-.1.6-.2.6-.2.6-.2.6-.2.7-.2.5-.2.6-.1.6-.2.6-.2.5-.2.6-.2.5-.2.5-.2.5-.2.6-.1.5-.3.5-.1.4-.2.5-.2.5-.2.4-.2.4-.2.5-.2.4-.2.4-.1.4-.2.4-.2.3-.2.4-.2.3-.2.4-.2.3-.2.3-.1.3-.2.4-.2.3-.2.2-.2.3-.2.3-.2.2-.2.3-.2.2-.1.3-.2.2-.2.2-.2.3-.2.2-.2.2-.2.2-.2.2-.1.2-.2.1-.2.2-.2.2-.2.2-.2.1-.2.2-.2.1-.2.2-.1.2h-.2l-.2.2-.2.1-.2.2h-.2l-.2.2-.2.1-.1.2h-.2l-.2.2h-.2l-.2.2h-.2l-.2.1-.2.1-.2.1-.1.1-.2.1h-.2l-.2.1-.2.1h-.2l-.2.2H139l-.2.1h-.2l-.2.1h-.2l-.2.1h-.2l-.2.1h-.2l-.1.1h-.2l-.2.1h-.4l-.2.1h-.4l-.1.1h-.4l-.2.1H134.6l-.2.1h-.7l-.2.1h-.8l-.1.1h-1l-.2.1H130l-.2.1H128l-.2.1h-5.5 101H213l-.2-.1H211.8l-.2-.1H211l-.2-.1H210l-.2-.1h-.4l-.1-.1h-.4l-.2-.1h-.4l-.2-.1h-.2l-.2-.1H207.5l-.2-.1h-.2l-.2-.1h-.2l-.2-.1h-.2l-.1-.1h-.2l-.2-.1-.2-.1h-.2l-.2-.1h-.2l-.2-.2h-.1l-.2-.1-.2-.1h-.2l-.2-.2h-.2l-.2-.1-.2-.1-.2-.1-.1-.1-.2-.1-.2-.1-.2-.1-.2-.2-.2-.1-.2-.1-.2-.1-.1-.2-.2-.1-.2-.1-.2-.2-.2-.2-.2-.1-.2-.2-.2-.1-.2-.2-.1-.2-.2-.2-.2-.2-.2-.1-.2-.2-.2-.2-.2-.2-.2-.2-.1-.3-.2-.2-.2-.2-.2-.2-.2-.3-.2-.2-.2-.3-.2-.2-.2-.3-.1-.2-.2-.3-.2-.3-.2-.3-.2-.3-.2-.3-.2-.3-.2-.3-.1-.3-.2-.4-.2-.3-.2-.3-.2-.4-.2-.4-.2-.4-.2-.4-.1-.4-.2-.4-.2-.4-.2-.4-.2-.5-.2-.4-.2-.5-.2-.5-.2-.5-.1-.5-.2-.5-.2-.5-.2-.6-.2-.5-.2-.6-.2-.5-.2-.6-.1-.6-.2-.6-.2-.6-.2-.6-.2-.7-.2-.6-.2-.6-.2-.7-.2-.7-.1-.6-.2-.7-.2-.7-.2-.7-.2-.7-.2-.7-.2-.7-.2-.7-.1-.7-.3-.7-.1-.7-.2-.7-.2-.8-.2-.7-.2-.7-.2-.8-.2-.8-.1-.7-.2-.8-.2-.7-.2-.8-.2-.8-.2-.7-.2-.8-.2-.8-.1-.8-.2-.8-.2-.8-.2-.8-.2-.8-.2-.8-.2-.8-.2-.9-.2-.8-.2-.9-.1-.8-.2-.8-.2-.9-.2-.8-.2-.8-.2-.9-.2-.8-.2-.9-.1-.8-.2-.9-.2-.8-.2-.8-.2-.8-.2-.8-.2-.9-.1-.7-.3-.8-.1-.8-.2-.8-.2-.7-.2-.8-.2-.7-.2-.7-.2-.7-.2-.7-.1-.6-.2-.7-.2-.6-.2-.6-.2-.6-.2-.6-.2-.5-.2-.5-.2-.5-.1-.5-.2-.5-.2-.4-.2-.4-.2-.4-.2-.3-.2-.4-.2-.3-.1-.3-.2-.3-.2-.2-.2-.2-.2-.2-.2-.2-.2-.2-.2-.1-.2-.1-.1-.1h-.2l-.2-.1z"/><path fill="none" d="M7.2 286.8h259.5"/><path stroke="#000" stroke-width="2" stroke-linejoin="round" stroke-linecap="butt" d="M19.2 286.8h235.5"/><path fill="#000" stroke="#000" stroke-width="2" stroke-linecap="butt" d="M19.2 283.5l-9 3.3 9 3.3zM254.7 290l9-3.2-9-3.3z" fill-rule="evenodd"/><path fill="none" d="M291.5 286.5H342v37.9h-50.5z"/><path fill="#000" d="M314.3 308.2H309v-1.5h5.4v1.5zm11.5 4.2h-7.4v-1.5h3v-8.7l-2.8 1.6-.6-1.4 3.8-2h1.4V311h2.6v1.5z"/><path fill="none" d="M374.2 286.5h29.1v37.9h-29.1z"/><path fill="#000" d="M393 306.4q0 1.4-.2 2.5-.3 1.2-.8 2-.6.8-1.4 1.2-.8.4-2 .4-1 0-1.7-.3-.8-.4-1.3-1.1-.6-.8-.9-2-.3-1-.3-2.7 0-1.3.3-2.5.3-1.1.8-1.9.6-.8 1.4-1.2.8-.5 2-.5.9 0 1.7.4.8.3 1.3 1 .6.8.9 2 .3 1.2.3 2.7zm-1.5 0v-.5l-.1-.6-5 3.7q0 .5.3.9l.5.7q.3.3.7.4l.8.2q.7 0 1.2-.3t.8-1q.4-.5.6-1.4.2-.9.2-2zm-5.5 0v1.1l5.1-3.7q-.1-.5-.4-.9-.2-.4-.5-.6-.2-.3-.6-.5l-.9-.1q-.6 0-1 .3-.6.3-1 .9l-.5 1.5q-.2.8-.2 2z"/><path fill="none" d="M446.2 286.5h29.1v37.9h-29.1z"/><path fill="#000" d="M464.7 312.4h-7.5v-1.5h3v-8.7l-2.8 1.6-.6-1.4 3.8-2h1.4V311h2.7v1.5z"/><path fill="none" d="M518.2 286.5h29.1v37.9h-29.1z"/><path fill="#000" d="M536.8 312.4H529V311l3-3.1 1.3-1.3.7-1q.3-.4.3-.8l.1-.9v-.8l-.4-.7-.7-.5q-.4-.2-1-.2-.7 0-1.3.4-.6.3-1.1.8l-.9-1q.7-.7 1.5-1.2 1-.4 2.1-.4.8 0 1.4.3.7.2 1.2.6l.7 1.1q.3.7.3 1.5 0 .7-.2 1.3l-.6 1.1-1 1.2-1.2 1.4-2.2 2h5.8v1.6z"/><path fill="none" d="M315.6 291.3v-3.8"/><path stroke="#000" stroke-linejoin="round" stroke-linecap="butt" d="M315.6 291.3v-3.8"/><path fill="none" d="M388.7 291.3v-3.8"/><path stroke="#000" stroke-linejoin="round" stroke-linecap="butt" d="M388.7 291.3v-3.8"/><path fill="none" d="M460.7 291.3v-3.8"/><path stroke="#000" stroke-linejoin="round" stroke-linecap="butt" d="M460.7 291.3v-3.8"/><path fill="none" d="M532.7 291.3v-3.8"/><path stroke="#000" stroke-linejoin="round" stroke-linecap="butt" d="M532.7 291.3v-3.8"/><path fill="none" d="M309.2 308h231v38h-231z"/><path fill="#000" d="M362.2 332.4h5.7v1.5h-7.6v-13.4h1.9v11.9zm9.3-8v9.5H370v-9.4h1.6zm.4-2.9l-.1.5-.3.3-.3.3h-1l-.3-.3-.3-.3v-.5-.5l.3-.3.3-.3h1l.3.3.3.3v.5zm5.4 12.6q-1.1 0-1.7-.7-.6-.6-.6-1.8V326h-1.1l-.3-.1-.1-.3v-.7l1.5-.2.4-2.9.1-.2.3-.1h.8v3.3h2.8v1.2h-2.8v5.6q0 .6.3 1 .3.2.8.2h.4l.4-.2.2-.2h.2l.2.1.5.8q-.4.4-1 .6-.6.3-1.3.3zm7 0q-1.1 0-1.8-.7-.5-.6-.5-1.8V326h-1.2l-.3-.1v-1l1.5-.2.4-2.9.1-.2.3-.1h.8v3.3h2.7v1.2h-2.7v5.6q0 .6.3 1 .3.2.7.2h.5l.3-.2.3-.2h.1l.3.1.5.8-1 .6q-.7.3-1.3.3zm6-14V334h-1.7v-13.7h1.6zm6.6 4.2q.8 0 1.6.3.7.3 1.2.8.5.6.8 1.4.3.7.3 1.7v.6l-.4.1h-6.3q0 .9.2 1.6l.7 1q.4.5.9.7l1.2.2 1-.1.9-.3.5-.3.4-.2q.2 0 .3.2l.5.6q-.3.4-.8.6l-.9.5-1 .2-1 .1q-1 0-1.8-.3-.9-.3-1.5-1-.6-.6-.9-1.5-.3-1-.3-2.2 0-1 .3-1.8.3-1 .8-1.5.6-.7 1.4-1 .9-.4 1.9-.4zm0 1.2q-1.2 0-1.9.7t-.8 2h5.1q0-.6-.2-1.1-.1-.5-.4-.8-.3-.4-.8-.6-.4-.2-1-.2zm6.2 8.6l-.4.5-.6.2h-.7l5.7-14q0-.3.3-.5l.5-.1h.7l-5.5 14zm6-.2v-9.4h1q.3 0 .4.3l.1 1q.6-.6 1.4-1 .8-.5 1.8-.5.7 0 1.3.3.6.2 1 .7.4.5.6 1.1.2.7.2 1.5v6h-1.6v-6q0-1-.5-1.7-.5-.6-1.5-.6-.8 0-1.4.4l-1.2 1v7h-1.6zm14.2-9.6q1 0 1.8.4.9.3 1.4 1 .6.6 1 1.5.3.9.3 2t-.4 2q-.3.9-.9 1.5-.5.7-1.4 1-.8.3-1.8.3t-2-.3q-.8-.3-1.3-1-.6-.6-1-1.5-.3-.9-.3-2t.3-2q.4-1 1-1.5.5-.7 1.4-1 .8-.4 1.9-.4zm0 8.4q1.3 0 2-.9.7-1 .7-2.6 0-1.7-.7-2.6-.7-1-2-1-.8 0-1.3.3-.5.2-.9.7-.3.4-.5 1.1l-.1 1.5.1 1.5q.2.7.5 1.1.4.5 1 .7.4.2 1.2.2zm8.3-8.2v9.4H430v-9.4h1.6zm.4-3v.5l-.3.3-.4.3h-.9l-.4-.3q-.2-.1-.2-.3l-.1-.5v-.5l.3-.3.4-.3h.9l.4.3.2.3.1.5zm8 4.5q-.1.2-.4.2h-.3q-.1-.2-.4-.3l-.6-.2-.9-.1h-.7l-.6.4-.4.4v.5l.1.6q.2.3.6.5l.8.3.9.3.9.3.7.5q.4.3.6.7.2.4.2 1t-.2 1.1q-.2.6-.7 1-.5.4-1.1.6-.7.3-1.6.3-1 0-1.7-.4-.8-.3-1.4-.8l.4-.6.2-.2H435l.4.3.7.3q.4.2 1 .2l.8-.2q.3 0 .6-.3l.3-.5.2-.6q0-.4-.3-.6l-.5-.5-.8-.3-.9-.3-1-.3-.7-.5-.6-.7q-.2-.4-.2-1t.3-1q.2-.6.6-1l1-.6q.7-.2 1.5-.2 1 0 1.7.3t1.3.8l-.4.6zm5.4 10.7q0 .2-.2.3l-.4.1h-1.2l1.7-3.7-3.9-9h1.5q.2 0 .3.2l.2.2 2.5 6 .2.4v.4l.2-.4.2-.4 2.4-6 .2-.2.3-.1h1.3l-5.3 12.2zm17-2.8q-.3 0-.4-.3l-.1-1.2q-.6.8-1.4 1.2-.8.4-1.8.4-.8 0-1.5-.3-.6-.3-1.1-.9-.5-.6-.7-1.5-.3-.9-.3-2t.3-2q.3-1 .8-1.6.5-.6 1.3-1t1.7-.4q.9 0 1.5.3t1.1.8v-5.2h1.7v13.7h-1zm-3.1-1.2q.8 0 1.4-.4.6-.3 1.1-1v-4.6q-.4-.6-1-.9-.5-.2-1.2-.2-1.3 0-2 1-.7.9-.7 2.6l.1 1.6q.2.7.5 1 .3.5.7.7l1 .2zm13.9 1.2H472q-.2-.1-.2-.4l-.2-.8-.7.5-.8.5-.8.3h-2q-.5-.2-.9-.6l-.5-.7q-.2-.5-.2-1.1 0-.6.2-1.1l1-1 1.8-.6 2.8-.3v-.7q0-1.1-.5-1.7-.5-.6-1.4-.6-.6 0-1 .2-.4.1-.7.4l-.6.3-.4.1h-.3l-.2-.3-.3-.5q.8-.8 1.7-1.1.9-.4 2-.4.8 0 1.4.3.6.2 1 .7.5.5.7 1.1.2.7.2 1.5v6zm-4.3-1h.8l.7-.3.6-.4.6-.6v-2l-2 .3-1.3.3-.7.6q-.3.3-.3.7 0 .4.2.6l.3.5.5.2.6.1zm9.7 1.2q-1.1 0-1.7-.7-.6-.6-.6-1.8V326H475l-.2-.1-.1-.3v-.7l1.5-.2.4-2.9.1-.2.3-.1h.8v3.3h2.7v1.2H478v5.6q0 .6.3 1 .3.2.7.2h.5l.3-.2.3-.2h.1l.3.1.5.8-1 .6q-.7.3-1.3.3zm11-.2h-1.1q-.2-.1-.2-.4l-.2-.8-.7.5-.8.5-.8.3h-2q-.5-.2-.9-.6l-.5-.7q-.2-.5-.2-1.1 0-.6.3-1.1.3-.5 1-1l1.8-.6 2.7-.3v-.7q0-1.1-.5-1.7-.5-.6-1.4-.6-.6 0-1 .2-.4.1-.7.4l-.5.3-.5.1h-.3l-.2-.3-.3-.5q.8-.8 1.7-1.1 1-.4 2-.4.8 0 1.4.3.6.2 1 .7.5.5.7 1.1.2.7.2 1.5v6zm-4.3-1h.8l.7-.3.6-.4.6-.6v-2l-2 .3-1.3.3-.7.6q-.2.3-.2.7v.6l.4.5.5.2.6.1z"/><path fill="#3c78d8" fill-opacity=".3" d="M387 217.1H386.5l-.3.2h-.3l-.3.1-.3.2-.3.1-.3.2-.3.2-.3.2-.3.2-.3.3-.3.3-.3.2-.3.4-.4.3-.3.4-.3.3-.3.4-.3.4-.3.5-.3.4-.3.5-.3.5-.3.5-.3.5-.3.6-.3.5-.3.6-.4.6-.3.6-.3.6-.3.6-.3.7-.3.6-.3.7-.3.6-.3.7-.3.7-.4.7-.3.7-.2.7-.3.7-.4.8-.3.7-.3.7-.3.7-.3.7-.3.8-.3.7-.3.7-.3.8-.3.7-.4.7-.3.8-.3.7-.2.7-.4.7-.3.8-.3.7-.3.7-.3.7-.3.7-.3.7-.3.6-.3.7-.3.7-.4.6-.3.7-.3.6-.2.7-.4.6-.3.6-.3.6-.3.7-.3.6-.3.6-.3.6-.3.5-.3.6-.3.6-.4.6-.3.5-.3.6-.3.5-.3.6-.3.5-.3.5-.3.6-.3.5-.3.5-.3.5-.3.5-.3.5-.3.5-.4.5-.3.4-.3.5-.3.5-.3.4-.3.5-.3.4-.3.4-.3.5-.3.4-.3.4-.3.4-.3.4-.3.3-.4.4-.3.4-.3.3-.3.4-.3.3-.3.3-.3.3-.3.3-.3.3-.3.3-.3.3-.3.3-.3.2-.3.3-.4.2-.3.3-.3.2-.3.3-.3.2-.3.2-.3.2-.3.2-.3.2-.3.2-.4.2-.2.2-.3.1-.4.2-.3.2-.3.2-.3.1-.3.1-.3.2-.3.1-.3.2-.3.1-.3.1-.3.2-.4.1-.3.1-.2.1-.4.1-.3.1-.3.1-.3.2h-.3l-.3.1-.3.2h-.3l-.3.1-.3.1h-.3l-.4.2h-.3l-.3.1h-.3l-.3.1-.3.1-.3.1h-.3l-.3.1h-.3l-.3.1h-.3l-.3.1h-.4l-.3.1h-.3l-.3.1h-.6l-.3.1h-.6l-.3.1h-.3l-.3.1h-1l-.3.1H327.7l-.3.1H326.5l-.3.1h-1.6l-.3.1h-1.8l-.3.1H319.7l-.3.1h-4l-.3.1h-8.9 165.1H454.1l-.3-.1H451.9l-.3-.1h-1.2l-.3-.1H449.2l-.3-.1h-1l-.3-.1H446.7l-.3-.1h-.3l-.3-.1h-.6l-.3-.1h-.6l-.4-.1h-.3l-.3-.1h-.3l-.3-.1h-.3l-.3-.1h-.3l-.3-.1h-.3l-.3-.1-.3-.1h-.3l-.3-.1h-.4l-.3-.2h-.3l-.3-.1-.3-.1-.3-.1h-.3l-.3-.2h-.3l-.3-.2h-.3l-.3-.1-.3-.2h-.3l-.4-.2h-.3l-.3-.2-.3-.1-.3-.2-.3-.1-.3-.1-.3-.2-.3-.1-.3-.2-.4-.1-.3-.2-.2-.1-.3-.2-.4-.2-.3-.1-.3-.2-.3-.2-.3-.2-.3-.2-.3-.2-.3-.2-.3-.2-.3-.2-.4-.2-.3-.2-.3-.3-.2-.2-.4-.2-.3-.3-.3-.2-.3-.3-.3-.2-.3-.3-.3-.3-.3-.3-.3-.2-.3-.4-.4-.3-.3-.3-.3-.3-.3-.3-.3-.4-.3-.3-.3-.4-.3-.3-.3-.4-.3-.4-.3-.4-.3-.4-.3-.4-.3-.5-.4-.4-.3-.4-.3-.5-.3-.4-.3-.5-.3-.5-.3-.5-.3-.5-.3-.5-.3-.5-.3-.5-.3-.5-.3-.6-.3-.5-.4-.6-.3-.5-.3-.6-.3-.5-.3-.6-.3-.6-.3-.5-.3-.6-.3-.6-.3-.6-.3-.6-.3-.6-.3-.6-.3-.6-.4-.6-.3-.6-.3-.6-.3-.6-.3-.7-.3-.6-.3-.6-.3-.6-.3-.7-.3-.6-.3-.7-.3-.6-.3-.7-.3-.6-.4-.7-.3-.7-.3-.6-.3-.7-.3-.7-.3-.7-.3-.6-.3-.7-.3-.7-.3-.7-.4-.7-.2-.7-.3-.7-.4-.7-.3-.7-.3-.7-.3-.7-.3-.7-.3-.6-.3-.7-.3-.7-.3-.7-.3-.7-.3-.6-.4-.7-.3-.6-.2-.6-.4-.7-.3-.6-.3-.6-.3-.6-.3-.5-.3-.6-.3-.5-.3-.6-.3-.5-.3-.5-.3-.5-.4-.4-.3-.5-.3-.4-.3-.4-.3-.4-.3-.4-.3-.3-.3-.4-.3-.3-.3-.3-.3-.3-.3-.2-.3-.3-.4-.2-.3-.2-.3-.2-.3-.2-.3-.1-.3-.1-.3-.1-.3-.1-.3-.1h-.6z" fill-rule="evenodd"/><path stroke="#3c78d8" stroke-linejoin="round" stroke-linecap="butt" d="M387 217.1H386.5l-.3.2h-.3l-.3.1-.3.2-.3.1-.3.2-.3.2-.3.2-.3.2-.3.3-.3.3-.3.2-.3.4-.4.3-.3.4-.3.3-.3.4-.3.4-.3.5-.3.4-.3.5-.3.5-.3.5-.3.5-.3.6-.3.5-.3.6-.4.6-.3.6-.3.6-.3.6-.3.7-.3.6-.3.7-.3.6-.3.7-.3.7-.4.7-.3.7-.2.7-.3.7-.4.8-.3.7-.3.7-.3.7-.3.7-.3.8-.3.7-.3.7-.3.8-.3.7-.4.7-.3.8-.3.7-.2.7-.4.7-.3.8-.3.7-.3.7-.3.7-.3.7-.3.7-.3.6-.3.7-.3.7-.4.6-.3.7-.3.6-.2.7-.4.6-.3.6-.3.6-.3.7-.3.6-.3.6-.3.6-.3.5-.3.6-.3.6-.4.6-.3.5-.3.6-.3.5-.3.6-.3.5-.3.5-.3.6-.3.5-.3.5-.3.5-.3.5-.3.5-.3.5-.4.5-.3.4-.3.5-.3.5-.3.4-.3.5-.3.4-.3.4-.3.5-.3.4-.3.4-.3.4-.3.4-.3.3-.4.4-.3.4-.3.3-.3.4-.3.3-.3.3-.3.3-.3.3-.3.3-.3.3-.3.3-.3.3-.3.2-.3.3-.4.2-.3.3-.3.2-.3.3-.3.2-.3.2-.3.2-.3.2-.3.2-.3.2-.4.2-.2.2-.3.1-.4.2-.3.2-.3.2-.3.1-.3.1-.3.2-.3.1-.3.2-.3.1-.3.1-.3.2-.4.1-.3.1-.2.1-.4.1-.3.1-.3.1-.3.2h-.3l-.3.1-.3.2h-.3l-.3.1-.3.1h-.3l-.4.2h-.3l-.3.1h-.3l-.3.1-.3.1-.3.1h-.3l-.3.1h-.3l-.3.1h-.3l-.3.1h-.4l-.3.1h-.3l-.3.1h-.6l-.3.1h-.6l-.3.1h-.3l-.3.1h-1l-.3.1H327.7l-.3.1H326.5l-.3.1h-1.6l-.3.1h-1.8l-.3.1H319.7l-.3.1h-4l-.3.1h-8.9 165.1H454.1l-.3-.1H451.9l-.3-.1h-1.2l-.3-.1H449.2l-.3-.1h-1l-.3-.1H446.7l-.3-.1h-.3l-.3-.1h-.6l-.3-.1h-.6l-.4-.1h-.3l-.3-.1h-.3l-.3-.1h-.3l-.3-.1h-.3l-.3-.1h-.3l-.3-.1-.3-.1h-.3l-.3-.1h-.4l-.3-.2h-.3l-.3-.1-.3-.1-.3-.1h-.3l-.3-.2h-.3l-.3-.2h-.3l-.3-.1-.3-.2h-.3l-.4-.2h-.3l-.3-.2-.3-.1-.3-.2-.3-.1-.3-.1-.3-.2-.3-.1-.3-.2-.4-.1-.3-.2-.2-.1-.3-.2-.4-.2-.3-.1-.3-.2-.3-.2-.3-.2-.3-.2-.3-.2-.3-.2-.3-.2-.3-.2-.4-.2-.3-.2-.3-.3-.2-.2-.4-.2-.3-.3-.3-.2-.3-.3-.3-.2-.3-.3-.3-.3-.3-.3-.3-.2-.3-.4-.4-.3-.3-.3-.3-.3-.3-.3-.3-.4-.3-.3-.3-.4-.3-.3-.3-.4-.3-.4-.3-.4-.3-.4-.3-.4-.3-.5-.4-.4-.3-.4-.3-.5-.3-.4-.3-.5-.3-.5-.3-.5-.3-.5-.3-.5-.3-.5-.3-.5-.3-.5-.3-.6-.3-.5-.4-.6-.3-.5-.3-.6-.3-.5-.3-.6-.3-.6-.3-.5-.3-.6-.3-.6-.3-.6-.3-.6-.3-.6-.3-.6-.3-.6-.4-.6-.3-.6-.3-.6-.3-.6-.3-.7-.3-.6-.3-.6-.3-.6-.3-.7-.3-.6-.3-.7-.3-.6-.3-.7-.3-.6-.4-.7-.3-.7-.3-.6-.3-.7-.3-.7-.3-.7-.3-.6-.3-.7-.3-.7-.3-.7-.4-.7-.2-.7-.3-.7-.4-.7-.3-.7-.3-.7-.3-.7-.3-.7-.3-.6-.3-.7-.3-.7-.3-.7-.3-.7-.3-.6-.4-.7-.3-.6-.2-.6-.4-.7-.3-.6-.3-.6-.3-.6-.3-.5-.3-.6-.3-.5-.3-.6-.3-.5-.3-.5-.3-.5-.4-.4-.3-.5-.3-.4-.3-.4-.3-.4-.3-.4-.3-.3-.3-.4-.3-.3-.3-.3-.3-.3-.3-.2-.3-.3-.4-.2-.3-.2-.3-.2-.3-.2-.3-.1-.3-.1-.3-.1-.3-.1-.3-.1h-.6z"/><path fill="#a64d79" fill-opacity=".3" d="M460 227.4h-1.4l-.4.2h-.4l-.5.2h-.4l-.4.2-.5.2-.4.2-.5.2-.4.2-.5.2-.4.3-.4.2-.5.3-.4.3-.4.4-.4.3-.5.4-.4.3-.4.4-.5.4-.4.4-.4.5-.5.4-.4.5-.5.4-.4.5-.4.5-.5.5-.4.6-.5.5-.4.5-.4.6-.4.6-.5.5-.4.6-.4.6-.5.6-.4.6-.4.6-.5.6-.4.6-.4.6-.5.7-.4.6-.5.6-.4.6-.4.6-.5.7-.4.6-.4.6-.5.7-.4.6-.4.6-.4.6-.5.6-.4.6-.4.6-.5.6-.4.6-.5.6-.4.6-.4.6-.5.6-.4.5-.5.6-.4.6-.4.5-.4.6-.5.5-.4.5-.4.6-.5.5-.4.5-.4.5-.5.5-.4.5-.5.5-.4.5-.4.5-.5.5-.4.4-.5.5-.4.5-.4.4-.4.5-.5.4-.4.5-.4.4-.5.4-.4.5-.4.4-.5.4-.4.4-.4.4-.5.4-.4.4-.5.4-.4.4-.4.3-.5.4-.4.4-.4.3-.5.4-.4.3-.4.3-.4.4-.5.3-.4.3-.4.3-.5.3-.4.3-.5.2-.4.3-.4.3-.5.2-.4.3-.5.2-.4.2-.4.3-.4.2-.5.2-.4.2-.4.2-.5.2-.4.2-.4.2-.5.2-.4.1-.4.2-.5.2-.4.1-.5.2-.4.1-.5.2-.4.1-.4.2h-.4l-.5.2-.4.1-.4.2h-.5l-.4.2-.4.1-.5.1-.4.1-.4.1-.5.1-.4.1-.5.1h-.4l-.4.2h-.5l-.4.1-.4.1-.5.1h-.4l-.4.2h-.9l-.4.1-.4.1h-.5l-.4.1-.5.1h-.8l-.5.1-.4.1h-.9l-.4.1h-.5l-.4.1h-.8l-.5.1h-.4l-.4.1H380l-.5.1h-1.3l-.5.1H376l-.4.1H373.9l-.5.1h-2.2l-.4.1h-3.4l-.5.1H362l-.4.1h-16.1H579 552.5l-.5-.1H550l-.4-.1h-1.8l-.4-.1H546l-.5-.1H543.8l-.5-.1h-.8l-.4-.1h-.9l-.4-.1h-.9l-.4-.1h-.5l-.4-.1h-.9l-.4-.1h-.5l-.4-.1h-.4l-.5-.1-.4-.1h-.4l-.5-.1h-.4l-.4-.1-.4-.1h-.5l-.4-.1-.5-.1h-.4l-.5-.2h-.4l-.4-.1-.5-.1-.4-.1-.4-.1-.5-.1-.4-.1-.4-.1-.5-.1-.4-.1-.4-.1-.4-.2h-.5l-.4-.2-.5-.1-.4-.2h-.4l-.5-.2-.4-.2-.5-.1-.4-.1-.4-.2-.5-.2-.4-.1-.4-.2-.4-.2-.5-.1-.4-.2-.4-.2-.5-.2-.4-.1-.4-.2-.5-.2-.4-.2-.5-.3-.4-.2-.4-.2-.5-.2-.4-.2-.4-.3-.5-.2-.4-.2-.4-.3-.5-.3-.4-.2-.4-.3-.4-.3-.5-.3-.4-.3-.5-.3-.4-.3-.4-.3-.5-.4-.4-.3-.5-.3-.4-.4-.4-.4-.5-.3-.4-.4-.4-.4-.5-.4-.4-.4-.4-.4-.4-.4-.5-.4-.4-.5-.5-.4-.4-.5-.4-.4-.5-.4-.4-.5-.5-.5-.4-.4-.4-.5-.5-.5-.4-.5-.4-.5-.4-.5-.5-.5-.4-.5-.4-.5-.5-.5-.4-.5-.4-.5-.5-.5-.4-.5-.5-.5-.4-.6-.4-.5-.5-.5-.4-.6-.4-.5-.5-.5-.4-.6-.4-.5-.5-.6-.4-.5-.4-.6-.4-.5-.5-.6-.4-.6-.5-.6-.4-.5-.4-.6-.5-.6-.4-.6-.5-.6-.4-.5-.4-.6-.5-.6-.4-.6-.4-.6-.5-.6-.4-.6-.4-.6-.4-.6-.5-.6-.4-.6-.5-.5-.4-.6-.4-.6-.5-.6-.4-.5-.5-.6-.4-.5-.4-.6-.5-.5-.4-.5-.4-.5-.4-.5-.5-.5-.4-.5-.4-.5-.5-.4-.4-.5-.4-.4-.5-.4-.4-.4-.5-.4-.4-.3-.4-.4-.5-.3-.4-.3-.4-.3-.5-.3-.4-.3-.4-.3-.5-.2-.4-.2-.4-.2-.5-.2-.4-.2-.4-.2-.5-.1-.4-.1-.4-.1-.5-.1h-.4l-.5-.2h-.8z" fill-rule="evenodd"/><path stroke="#a64d79" stroke-linejoin="round" stroke-linecap="butt" d="M460 227.4h-1.4l-.4.2h-.4l-.5.2h-.4l-.4.2-.5.2-.4.2-.5.2-.4.2-.5.2-.4.3-.4.2-.5.3-.4.3-.4.4-.4.3-.5.4-.4.3-.4.4-.5.4-.4.4-.4.5-.5.4-.4.5-.5.4-.4.5-.4.5-.5.5-.4.6-.5.5-.4.5-.4.6-.4.6-.5.5-.4.6-.4.6-.5.6-.4.6-.4.6-.5.6-.4.6-.4.6-.5.7-.4.6-.5.6-.4.6-.4.6-.5.7-.4.6-.4.6-.5.7-.4.6-.4.6-.4.6-.5.6-.4.6-.4.6-.5.6-.4.6-.5.6-.4.6-.4.6-.5.6-.4.5-.5.6-.4.6-.4.5-.4.6-.5.5-.4.5-.4.6-.5.5-.4.5-.4.5-.5.5-.4.5-.5.5-.4.5-.4.5-.5.5-.4.4-.5.5-.4.5-.4.4-.4.5-.5.4-.4.5-.4.4-.5.4-.4.5-.4.4-.5.4-.4.4-.4.4-.5.4-.4.4-.5.4-.4.4-.4.3-.5.4-.4.4-.4.3-.5.4-.4.3-.4.3-.4.4-.5.3-.4.3-.4.3-.5.3-.4.3-.5.2-.4.3-.4.3-.5.2-.4.3-.5.2-.4.2-.4.3-.4.2-.5.2-.4.2-.4.2-.5.2-.4.2-.4.2-.5.2-.4.1-.4.2-.5.2-.4.1-.5.2-.4.1-.5.2-.4.1-.4.2h-.4l-.5.2-.4.1-.4.2h-.5l-.4.2-.4.1-.5.1-.4.1-.4.1-.5.1-.4.1-.5.1h-.4l-.4.2h-.5l-.4.1-.4.1-.5.1h-.4l-.4.2h-.9l-.4.1-.4.1h-.5l-.4.1-.5.1h-.8l-.5.1-.4.1h-.9l-.4.1h-.5l-.4.1h-.8l-.5.1h-.4l-.4.1H380l-.5.1h-1.3l-.5.1H376l-.4.1H373.9l-.5.1h-2.2l-.4.1h-3.4l-.5.1H362l-.4.1h-16.1H579 552.5l-.5-.1H550l-.4-.1h-1.8l-.4-.1H546l-.5-.1H543.8l-.5-.1h-.8l-.4-.1h-.9l-.4-.1h-.9l-.4-.1h-.5l-.4-.1h-.9l-.4-.1h-.5l-.4-.1h-.4l-.5-.1-.4-.1h-.4l-.5-.1h-.4l-.4-.1-.4-.1h-.5l-.4-.1-.5-.1h-.4l-.5-.2h-.4l-.4-.1-.5-.1-.4-.1-.4-.1-.5-.1-.4-.1-.4-.1-.5-.1-.4-.1-.4-.1-.4-.2h-.5l-.4-.2-.5-.1-.4-.2h-.4l-.5-.2-.4-.2-.5-.1-.4-.1-.4-.2-.5-.2-.4-.1-.4-.2-.4-.2-.5-.1-.4-.2-.4-.2-.5-.2-.4-.1-.4-.2-.5-.2-.4-.2-.5-.3-.4-.2-.4-.2-.5-.2-.4-.2-.4-.3-.5-.2-.4-.2-.4-.3-.5-.3-.4-.2-.4-.3-.4-.3-.5-.3-.4-.3-.5-.3-.4-.3-.4-.3-.5-.4-.4-.3-.5-.3-.4-.4-.4-.4-.5-.3-.4-.4-.4-.4-.5-.4-.4-.4-.4-.4-.4-.4-.5-.4-.4-.5-.5-.4-.4-.5-.4-.4-.5-.4-.4-.5-.5-.5-.4-.4-.4-.5-.5-.5-.4-.5-.4-.5-.4-.5-.5-.5-.4-.5-.4-.5-.5-.5-.4-.5-.4-.5-.5-.5-.4-.5-.5-.5-.4-.6-.4-.5-.5-.5-.4-.6-.4-.5-.5-.5-.4-.6-.4-.5-.5-.6-.4-.5-.4-.6-.4-.5-.5-.6-.4-.6-.5-.6-.4-.5-.4-.6-.5-.6-.4-.6-.5-.6-.4-.5-.4-.6-.5-.6-.4-.6-.4-.6-.5-.6-.4-.6-.4-.6-.4-.6-.5-.6-.4-.6-.5-.5-.4-.6-.4-.6-.5-.6-.4-.5-.5-.6-.4-.5-.4-.6-.5-.5-.4-.5-.4-.5-.4-.5-.5-.5-.4-.5-.4-.5-.5-.4-.4-.5-.4-.4-.5-.4-.4-.4-.5-.4-.4-.3-.4-.4-.5-.3-.4-.3-.4-.3-.5-.3-.4-.3-.4-.3-.5-.2-.4-.2-.4-.2-.5-.2-.4-.2-.4-.2-.5-.1-.4-.1-.4-.1-.5-.1h-.4l-.5-.2h-.8z"/><path fill="#e69138" fill-opacity=".3" d="M403.8 222l-.3.1h-.3l-.3.1-.3.1-.3.1-.3.1-.3.2-.3.1-.4.2-.2.2-.3.2-.3.2-.4.3-.2.3-.3.3-.4.3-.3.3-.3.4-.2.3-.4.4-.3.4-.3.4-.3.5-.3.4-.3.5-.3.5-.3.5-.3.5-.3.5-.3.6-.3.5-.3.6-.3.6-.3.6-.3.6-.3.6-.3.6-.3.7-.3.6-.3.6-.3.7-.3.6-.3.7-.3.7-.3.7-.3.6-.4.7-.3.7-.2.7-.3.6-.4.7-.3.7-.3.7-.3.7-.3.6-.3.7-.3.7-.3.6-.3.7-.3.7-.3.6-.3.7-.3.6-.3.7-.3.6-.3.6-.3.6-.3.6-.3.7-.3.5-.3.7-.3.5-.3.6-.3.6-.3.5-.3.6-.3.6-.4.5-.2.6-.3.5-.3.5-.4.6-.3.5-.2.5-.4.5-.3.5-.3.5-.3.5-.3.5-.3.5-.3.5-.3.4-.3.5-.3.4-.3.5-.3.5-.3.4-.3.4-.3.4-.3.5-.3.4-.3.4-.3.4-.3.4-.3.4-.3.3-.3.4-.3.4-.3.3-.3.3-.3.4-.3.3-.4.3-.2.3-.3.3-.3.3-.4.3-.3.3-.2.3-.4.2-.3.3-.3.2-.2.3-.4.2-.3.2-.3.2-.3.3-.3.2-.3.2-.3.1-.3.2-.3.2-.3.2-.3.2-.3.2-.3.1-.3.2-.3.1-.3.2-.3.1-.3.2h-.3l-.3.2-.3.2h-.3l-.3.2-.3.1-.4.1-.2.2h-.3l-.4.2h-.3l-.2.1-.3.1-.4.1-.3.1-.3.1-.3.1h-.3l-.3.2h-.3l-.3.1h-.3l-.3.2h-.6l-.3.1-.3.1h-.3l-.3.1h-.3l-.3.1h-.3l-.3.1h-.3l-.3.1h-.6l-.3.1h-.3l-.3.1H348l-.3.1H346.9l-.4.1H345.6l-.3.1H344.4l-.3.1h-1.5l-.3.1h-1.5l-.3.1H338l-.2.1h-4.6l-.3.1H324h162.7H469.8l-.3-.1h-1.8l-.3-.1h-1.8l-.3-.1H464.4l-.3-.1H463.2l-.4-.1h-.5l-.4-.1h-.6l-.2-.1h-.7l-.3-.1h-.3l-.3-.1h-.6l-.3-.1h-.3l-.3-.1h-.3l-.3-.1h-.3l-.3-.1h-.3l-.3-.2h-.6l-.3-.1-.3-.1h-.3l-.3-.2h-.3l-.3-.1-.3-.1h-.3l-.3-.2h-.3l-.3-.2h-.3l-.3-.2h-.4l-.3-.2h-.2l-.4-.2-.3-.1-.3-.1-.3-.2-.3-.1-.3-.1-.3-.2-.3-.1-.3-.2-.3-.1-.3-.2-.3-.1-.3-.2-.3-.1-.3-.2-.3-.2-.3-.2-.3-.2-.3-.1-.3-.2-.3-.2-.3-.2-.3-.2-.3-.2-.3-.2-.3-.3-.3-.2-.3-.2-.4-.2-.2-.3-.3-.2-.3-.3-.4-.3-.3-.2-.2-.3-.4-.3-.3-.3-.3-.3-.3-.3-.3-.3-.3-.3-.3-.4-.3-.3-.3-.4-.3-.3-.3-.4-.3-.4-.3-.3-.3-.5-.3-.3-.3-.5-.3-.4-.3-.4-.3-.5-.3-.4-.3-.4-.3-.5-.3-.5-.3-.4-.3-.5-.3-.5-.3-.5-.3-.5-.4-.5-.2-.5-.3-.5-.4-.6-.3-.5-.3-.5-.2-.6-.4-.5-.3-.5-.3-.6-.3-.5-.3-.6-.3-.5-.3-.6-.3-.6-.3-.5-.3-.6-.3-.6-.3-.6-.3-.5-.3-.6-.3-.6-.3-.6-.3-.6-.3-.6-.3-.6-.3-.6-.3-.6-.3-.6-.3-.7-.3-.6-.3-.6-.3-.6-.3-.7-.4-.6-.3-.6-.2-.7-.3-.6-.4-.7-.3-.6-.3-.6-.3-.7-.3-.6-.3-.7-.3-.6-.3-.7-.3-.6-.3-.7-.3-.6-.3-.6-.3-.6-.3-.6-.3-.6-.3-.6-.3-.6-.3-.6-.3-.6-.3-.5-.3-.6-.3-.5-.3-.5-.3-.5-.3-.5-.3-.5-.3-.5-.3-.4-.3-.4-.3-.5-.3-.3-.4-.4-.2-.4-.3-.3-.3-.4-.4-.3-.3-.3-.2-.3-.4-.2-.3-.3-.3-.2-.3-.2-.3-.2-.3-.2-.3-.1-.3-.2h-.3l-.3-.2h-.3l-.3-.1h-.3l-.3-.1z" fill-rule="evenodd"/><path stroke="#e69138" stroke-linejoin="round" stroke-linecap="butt" d="M403.8 222l-.3.1h-.3l-.3.1-.3.1-.3.1-.3.1-.3.2-.3.1-.4.2-.2.2-.3.2-.3.2-.4.3-.2.3-.3.3-.4.3-.3.3-.3.4-.2.3-.4.4-.3.4-.3.4-.3.5-.3.4-.3.5-.3.5-.3.5-.3.5-.3.5-.3.6-.3.5-.3.6-.3.6-.3.6-.3.6-.3.6-.3.6-.3.7-.3.6-.3.6-.3.7-.3.6-.3.7-.3.7-.3.7-.3.6-.4.7-.3.7-.2.7-.3.6-.4.7-.3.7-.3.7-.3.7-.3.6-.3.7-.3.7-.3.6-.3.7-.3.7-.3.6-.3.7-.3.6-.3.7-.3.6-.3.6-.3.6-.3.6-.3.7-.3.5-.3.7-.3.5-.3.6-.3.6-.3.5-.3.6-.3.6-.4.5-.2.6-.3.5-.3.5-.4.6-.3.5-.2.5-.4.5-.3.5-.3.5-.3.5-.3.5-.3.5-.3.5-.3.4-.3.5-.3.4-.3.5-.3.5-.3.4-.3.4-.3.4-.3.5-.3.4-.3.4-.3.4-.3.4-.3.4-.3.3-.3.4-.3.4-.3.3-.3.3-.3.4-.3.3-.4.3-.2.3-.3.3-.3.3-.4.3-.3.3-.2.3-.4.2-.3.3-.3.2-.2.3-.4.2-.3.2-.3.2-.3.3-.3.2-.3.2-.3.1-.3.2-.3.2-.3.2-.3.2-.3.2-.3.1-.3.2-.3.1-.3.2-.3.1-.3.2h-.3l-.3.2-.3.2h-.3l-.3.2-.3.1-.4.1-.2.2h-.3l-.4.2h-.3l-.2.1-.3.1-.4.1-.3.1-.3.1-.3.1h-.3l-.3.2h-.3l-.3.1h-.3l-.3.2h-.6l-.3.1-.3.1h-.3l-.3.1h-.3l-.3.1h-.3l-.3.1h-.3l-.3.1h-.6l-.3.1h-.3l-.3.1H348l-.3.1H346.9l-.4.1H345.6l-.3.1H344.4l-.3.1h-1.5l-.3.1h-1.5l-.3.1H338l-.2.1h-4.6l-.3.1H324h162.7H469.8l-.3-.1h-1.8l-.3-.1h-1.8l-.3-.1H464.4l-.3-.1H463.2l-.4-.1h-.5l-.4-.1h-.6l-.2-.1h-.7l-.3-.1h-.3l-.3-.1h-.6l-.3-.1h-.3l-.3-.1h-.3l-.3-.1h-.3l-.3-.1h-.3l-.3-.2h-.6l-.3-.1-.3-.1h-.3l-.3-.2h-.3l-.3-.1-.3-.1h-.3l-.3-.2h-.3l-.3-.2h-.3l-.3-.2h-.4l-.3-.2h-.2l-.4-.2-.3-.1-.3-.1-.3-.2-.3-.1-.3-.1-.3-.2-.3-.1-.3-.2-.3-.1-.3-.2-.3-.1-.3-.2-.3-.1-.3-.2-.3-.2-.3-.2-.3-.2-.3-.1-.3-.2-.3-.2-.3-.2-.3-.2-.3-.2-.3-.2-.3-.3-.3-.2-.3-.2-.4-.2-.2-.3-.3-.2-.3-.3-.4-.3-.3-.2-.2-.3-.4-.3-.3-.3-.3-.3-.3-.3-.3-.3-.3-.3-.3-.4-.3-.3-.3-.4-.3-.3-.3-.4-.3-.4-.3-.3-.3-.5-.3-.3-.3-.5-.3-.4-.3-.4-.3-.5-.3-.4-.3-.4-.3-.5-.3-.5-.3-.4-.3-.5-.3-.5-.3-.5-.3-.5-.4-.5-.2-.5-.3-.5-.4-.6-.3-.5-.3-.5-.2-.6-.4-.5-.3-.5-.3-.6-.3-.5-.3-.6-.3-.5-.3-.6-.3-.6-.3-.5-.3-.6-.3-.6-.3-.6-.3-.5-.3-.6-.3-.6-.3-.6-.3-.6-.3-.6-.3-.6-.3-.6-.3-.6-.3-.6-.3-.7-.3-.6-.3-.6-.3-.6-.3-.7-.4-.6-.3-.6-.2-.7-.3-.6-.4-.7-.3-.6-.3-.6-.3-.7-.3-.6-.3-.7-.3-.6-.3-.7-.3-.6-.3-.7-.3-.6-.3-.6-.3-.6-.3-.6-.3-.6-.3-.6-.3-.6-.3-.6-.3-.6-.3-.5-.3-.6-.3-.5-.3-.5-.3-.5-.3-.5-.3-.5-.3-.5-.3-.4-.3-.4-.3-.5-.3-.3-.4-.4-.2-.4-.3-.3-.3-.4-.4-.3-.3-.3-.2-.3-.4-.2-.3-.3-.3-.2-.3-.2-.3-.2-.3-.2-.3-.1-.3-.2h-.3l-.3-.2h-.3l-.3-.1h-.3l-.3-.1z"/><path fill="#fff" d="M549 276.9h41v19h-41z" fill-rule="evenodd"/><path fill="none" d="M295.2 286.8h260.6"/><path stroke="#000" stroke-width="2" stroke-linejoin="round" stroke-linecap="butt" d="M307.2 286.8h236.6"/><path fill="#000" stroke="#000" stroke-width="2" stroke-linecap="butt" d="M307.2 283.5l-9 3.3 9 3.3zM543.8 290l9-3.2-9-3.3z" fill-rule="evenodd"/></g></svg>